# Blender v3.5.1 OBJ File: 'f1.blend'
# www.blender.org
mtllib Mesh_84.mtl
o Mesh_84
v -0.430660 1.021049 0.341291
v -0.430660 1.012200 0.345709
v -0.437500 1.020557 0.340305
v -0.437500 1.011708 0.344723
v -0.424644 1.022466 0.344129
v -0.424644 1.013617 0.348546
v -0.420179 1.024636 0.348477
v -0.420180 1.015787 0.352894
v -0.417804 1.027299 0.353810
v -0.417804 1.018450 0.358227
v -0.417804 1.030132 0.359486
v -0.417804 1.021283 0.363903
v -0.420179 1.032795 0.364819
v -0.420179 1.023946 0.369236
v -0.417804 1.030132 0.359486
v -0.417804 1.021283 0.363903
v -0.424644 1.034965 0.369167
v -0.424644 1.026116 0.373584
v -0.430660 1.036382 0.372005
v -0.430660 1.027533 0.376422
v -0.437500 1.036874 0.372990
v -0.437500 1.028025 0.377408
v -0.444340 1.036382 0.372005
v -0.444340 1.027533 0.376422
v -0.450356 1.034965 0.369167
v -0.450356 1.026116 0.373584
v -0.454821 1.023946 0.369236
v -0.454821 1.032795 0.364819
v -0.457196 1.021283 0.363903
v -0.457196 1.030132 0.359486
v -0.457196 1.027299 0.353810
v -0.457196 1.018450 0.358227
v -0.454821 1.024636 0.348477
v -0.454821 1.015787 0.352894
v -0.450356 1.022466 0.344129
v -0.450356 1.013617 0.348546
v -0.444340 1.021049 0.341291
v -0.444340 1.012200 0.345709
vt 0.805556 0.000000
vt 0.805556 -1.000000
vt 0.750000 0.000000
vt 0.750000 -1.000000
vt 0.861111 0.000000
vt 0.861111 -1.000000
vt 0.916667 0.000000
vt 0.916667 -1.000000
vt 0.972222 0.000000
vt 0.972222 -1.000000
vt 1.027778 0.000000
vt 1.027778 -1.000000
vt 0.083333 0.000000
vt 0.083333 -1.000000
vt 0.027778 0.000000
vt 0.027778 -1.000000
vt 0.138889 0.000000
vt 0.138889 -1.000000
vt 0.194444 0.000000
vt 0.194444 -1.000000
vt 0.250000 0.000000
vt 0.250000 -1.000000
vt 0.305556 0.000000
vt 0.305556 -1.000000
vt 0.361111 0.000000
vt 0.361111 -1.000000
vt 0.416667 -1.000000
vt 0.416667 0.000000
vt 0.472222 -1.000000
vt 0.472222 0.000000
vt 0.527778 0.000000
vt 0.527778 -1.000000
vt 0.583333 0.000000
vt 0.583333 -1.000000
vt 0.638889 0.000000
vt 0.638889 -1.000000
vt 0.694444 0.000000
vt 0.694444 -1.000000
vn 0.3169 -0.4236 -0.8486
vn -0.0000 -0.4467 -0.8947
vn 0.6103 -0.3538 -0.7087
vn 0.8466 -0.2377 -0.4761
vn 0.9821 -0.0842 -0.1686
vn 0.9821 0.0842 0.1687
vn 0.9821 0.0843 0.1686
vn 0.8466 0.2377 0.4761
vn 0.6103 0.3538 0.7087
vn 0.3169 0.4236 0.8486
vn 0.0000 0.4466 0.8947
vn -0.0000 0.4467 0.8947
vn -0.3169 0.4236 0.8486
vn -0.6103 0.3538 0.7087
vn -0.6103 0.3538 0.7088
vn -0.8466 0.2377 0.4761
vn -0.9821 0.0842 0.1686
vn -0.9821 -0.0842 -0.1686
vn -0.8466 -0.2377 -0.4761
vn -0.6103 -0.3538 -0.7087
vn -0.3169 -0.4236 -0.8486
usemtl cables_red
s 1
f 1/1/1 2/2/1 3/3/2
f 3/3/2 2/2/1 4/4/2
f 5/5/3 6/6/3 1/1/1
f 1/1/1 6/6/3 2/2/1
f 7/7/4 6/6/3 5/5/3
f 6/6/3 7/7/4 8/8/4
f 9/9/5 8/8/4 7/7/4
f 8/8/4 9/9/5 10/10/5
f 11/11/6 10/10/5 9/9/5
f 10/10/5 11/11/6 12/12/7
f 13/13/8 14/14/8 15/15/6
f 16/16/6 15/15/6 14/14/8
f 17/17/9 18/18/9 13/13/8
f 14/14/8 13/13/8 18/18/9
f 19/19/10 20/20/10 17/17/9
f 17/17/9 20/20/10 18/18/9
f 21/21/11 22/22/12 19/19/10
f 19/19/10 22/22/12 20/20/10
f 23/23/13 22/22/12 21/21/11
f 22/22/12 23/23/13 24/24/13
f 25/25/14 24/24/13 23/23/13
f 24/24/13 25/25/14 26/26/15
f 27/27/16 25/25/14 28/28/16
f 25/25/14 27/27/16 26/26/15
f 29/29/17 28/28/16 30/30/17
f 28/28/16 29/29/17 27/27/16
f 31/31/18 29/29/17 30/30/17
f 29/29/17 31/31/18 32/32/18
f 33/33/19 32/32/18 31/31/18
f 32/32/18 33/33/19 34/34/19
f 35/35/20 34/34/19 33/33/19
f 34/34/19 35/35/20 36/36/20
f 37/37/21 36/36/20 35/35/20
f 36/36/20 37/37/21 38/38/21
f 3/3/2 38/38/21 37/37/21
f 38/38/21 3/3/2 4/4/2
