# Blender v3.5.1 OBJ File: 'f1.blend'
# www.blender.org
mtllib Mesh_198.mtl
o Mesh_198
v -0.563873 1.751138 -0.091788
v -0.624433 1.749825 -0.083079
v -0.553622 1.747876 -0.070143
v -0.550977 1.746558 -0.061399
v -0.634484 1.746693 -0.062295
v -0.544568 1.743514 -0.041204
v -0.575584 1.753116 -0.104911
v -0.613516 1.752094 -0.098133
v -0.600865 1.753514 -0.107556
v -0.588114 1.753873 -0.109937
v -0.613276 1.752143 -0.098460
v -0.643241 1.742864 -0.036890
v -0.650429 1.738461 -0.007672
v -0.651591 1.737374 -0.000461
v 0.650506 1.738461 -0.007672
v 0.536918 1.738267 -0.006389
v 0.651667 1.737374 -0.000462
v 0.643317 1.742864 -0.036890
v 0.544644 1.743514 -0.041204
v 0.634560 1.746693 -0.062295
v 0.551053 1.746558 -0.061400
v -0.518553 1.713320 0.159140
v -0.630074 1.707960 0.194709
v -0.628331 1.707373 0.198602
v -0.519068 1.714029 0.154434
v -0.641913 1.712566 0.164144
v -0.655829 1.723218 0.093466
v -0.522726 1.721064 0.107758
v -0.525311 1.725870 0.075869
v -0.645642 1.714488 0.151390
v -0.521342 1.719351 0.119125
v -0.650817 1.717893 0.128800
v -0.536842 1.738267 -0.006389
v -0.654803 1.733608 0.024526
v -0.656650 1.728477 0.058568
v -0.529889 1.730986 0.041924
v -0.656065 1.723760 0.089870
v -0.530778 1.732326 0.033029
v -0.518341 1.700330 0.245331
v -0.570829 1.695430 0.277848
v -0.518315 1.699893 0.248235
v -0.590819 1.698419 0.258011
v -0.565138 1.694869 0.281568
v -0.552440 1.693694 0.289365
v -0.522557 1.696206 0.272696
v -0.526927 1.694314 0.285249
v -0.537449 1.693313 0.291896
v -0.521263 1.696660 0.269684
v 0.517192 1.704339 0.218734
v 0.610619 1.702526 0.230764
v 0.517090 1.708132 0.193564
v 0.517019 1.703725 0.222807
v 0.591835 1.698602 0.256795
v 0.518417 1.700330 0.245331
v 0.518391 1.699893 0.248235
v 0.612006 1.702879 0.228417
v 0.628407 1.707373 0.198602
v 0.650893 1.717893 0.128800
v 0.521418 1.719351 0.119125
v 0.645718 1.714488 0.151389
v 0.525387 1.725870 0.075869
v 0.655905 1.723218 0.093466
v 0.656141 1.723760 0.089869
v 0.630151 1.707960 0.194708
v 0.518629 1.713320 0.159139
v 0.641990 1.712566 0.164144
v 0.519144 1.714029 0.154434
v 0.522802 1.721064 0.107758
v 0.517420 1.708706 0.189759
v 0.656726 1.728478 0.058568
v 0.530854 1.732327 0.033029
v 0.654879 1.733608 0.024526
v 0.529965 1.730986 0.041923
v 0.575660 1.753116 -0.104912
v 0.600941 1.753515 -0.107557
v 0.588190 1.753873 -0.109938
v 0.624510 1.749825 -0.083079
v 0.553698 1.747875 -0.070142
v 0.613592 1.752094 -0.098134
v 0.563949 1.751138 -0.091788
v 0.613352 1.752143 -0.098460
v 0.570906 1.695430 0.277847
v 0.590895 1.698419 0.258011
v 0.522633 1.696206 0.272695
v 0.565215 1.694869 0.281568
v 0.521339 1.696660 0.269684
v 0.552517 1.693694 0.289365
v 0.527003 1.694314 0.285249
v 0.537525 1.693313 0.291896
v -0.591759 1.698602 0.256796
v -0.516943 1.703725 0.222808
v -0.517343 1.708706 0.189760
v -0.517013 1.708132 0.193565
v -0.610542 1.702526 0.230764
v -0.517115 1.704339 0.218734
v -0.611929 1.702879 0.228417
vt -39.899601 -13.689141
vt -44.236172 -13.053389
vt -39.163624 -12.122257
vt -38.973431 -11.489195
vt -44.954224 -11.547262
vt -38.512741 -10.027037
vt -40.739403 -14.638693
vt -43.455517 -14.144670
vt -42.550213 -14.828194
vt -41.637192 -15.001709
vt -43.438335 -14.168316
vt -45.579327 -9.706443
vt 47.080719 -7.696514
vt 38.945740 -7.594215
vt 47.164501 -7.174362
vt 46.563465 -9.812089
vt 39.496162 -10.116480
vt 45.934143 -11.651447
vt 39.953522 -11.579775
vt -36.632923 4.481402
vt -44.617111 7.066762
vt -44.491909 7.348629
vt -36.670197 4.140656
vt -45.467556 4.853980
vt -46.470066 -0.263953
vt -36.936066 0.760294
vt -37.123871 -1.549195
vt -45.735649 3.930532
vt -36.835999 1.583406
vt -46.108147 2.294812
vt -46.402271 -5.257232
vt -37.956547 -7.506055
vt -46.174324 -7.067301
vt -46.531734 -2.791512
vt -37.454521 -4.007401
vt -46.487236 -0.524423
vt -37.518978 -4.651564
vt -36.610592 10.724121
vt -40.367107 13.083529
vt -36.608467 10.934403
vt -41.800373 11.648450
vt -39.959194 13.352526
vt -39.049137 13.916224
vt -36.910297 12.706419
vt -37.222187 13.616022
vt -37.975216 14.098272
vt -36.817856 12.488201
vt 37.551636 8.712689
vt 44.243820 9.576361
vt 37.542229 6.889707
vt 37.641598 10.638964
vt 42.900742 11.463282
vt 37.539585 9.007720
vt 37.639957 10.849266
vt 44.342995 9.406212
vt 45.515171 7.245402
vt 47.119801 2.187938
vt 37.846039 1.497789
vt 46.751064 3.824446
vt 38.126724 -1.635469
vt 47.475845 -0.371639
vt 47.492416 -0.632225
vt 45.639717 6.963250
vt 37.649605 4.396241
vt 46.485085 4.748573
vt 37.686108 4.055371
vt 37.944233 0.674406
vt 37.565536 6.614079
vt 47.531715 -2.899361
vt 38.514725 -4.738735
vt 47.396610 -5.364771
vt 38.451756 -4.094479
vt 41.712227 -14.733247
vt 43.522602 -14.926898
vt 42.609188 -15.098358
vt 45.212635 -13.155942
vt 40.142227 -12.213139
vt 44.429447 -14.245461
vt 40.874619 -13.781754
vt 44.412231 -14.269045
vt 41.403511 12.989777
vt 42.833469 11.551431
vt 37.945843 12.620562
vt 40.996243 13.259681
vt 37.852905 12.402588
vt 40.087467 13.825466
vt 38.259827 13.529481
vt 39.013966 14.009988
vt -41.867802 11.560502
vt -36.512310 9.092645
vt -36.543762 6.699078
vt -36.519814 6.974625
vt -43.215233 9.676626
vt -36.525040 8.797649
vt -43.314770 9.506748
vt -46.091728 -7.589670
vn 0.0000 0.9888 0.1490
vn -0.0003 0.9889 0.1487
vn -0.0003 0.9889 0.1486
vn -0.0003 0.9889 0.1483
vn -0.0000 0.9888 0.1491
vn -0.0010 0.9886 0.1505
vn -0.0009 0.9886 0.1505
vn -0.0007 0.9886 0.1505
vn 0.0000 0.9888 0.1489
vn -0.0000 0.9889 0.1489
usemtl carbon
s off
f 1/1/1 2/2/1 3/3/1
f 4/4/1 5/5/1 6/6/1
f 3/3/1 5/5/1 4/4/1
f 3/3/1 2/2/1 5/5/1
f 7/7/1 8/8/1 1/1/1
f 9/9/1 7/7/1 10/10/1
f 9/9/1 8/8/1 7/7/1
f 8/8/2 9/9/3 11/11/4
f 2/2/1 1/1/1 8/8/1
f 12/12/1 6/6/1 5/5/1
f 15/13/1 16/14/1 17/15/1
f 18/16/1 16/14/1 15/13/1
f 19/17/1 18/16/1 20/18/1
f 19/17/1 20/18/1 21/19/1
f 16/14/1 18/16/1 19/17/1
f 22/20/5 23/21/5 24/22/5
f 23/21/1 25/23/1 26/24/1
f 27/25/1 28/26/1 29/27/1
f 30/28/1 31/29/1 32/30/1
f 32/30/1 31/29/1 28/26/1
f 31/29/1 26/24/1 25/23/1
f 28/26/1 27/25/1 32/30/1
f 34/31/1 33/32/1 14/33/1
f 35/34/1 36/35/1 34/31/1
f 37/36/1 29/27/1 35/34/1
f 36/35/1 35/34/1 29/27/1
f 38/37/1 34/31/1 36/35/1
f 33/32/1 34/31/1 38/37/1
f 39/38/1 40/39/1 41/40/1
f 40/39/1 39/38/1 42/41/1
f 43/42/1 41/40/1 40/39/1
f 44/43/1 45/44/1 43/42/1
f 46/45/1 44/43/1 47/46/1
f 45/44/1 44/43/1 46/45/1
f 48/47/5 43/42/5 45/44/5
f 41/40/1 43/42/1 48/47/1
f 49/48/1 50/49/1 51/50/1
f 54/51/1 53/52/1 52/53/1
f 55/54/1 53/52/1 54/51/1
f 50/49/1 49/48/1 53/52/1
f 51/50/1 50/49/1 56/55/1
f 51/50/1 56/55/1 57/56/1
f 58/57/1 59/58/1 60/59/1
f 61/60/5 62/61/5 63/62/5
f 64/63/5 65/64/5 57/56/5
f 66/65/1 67/66/1 64/63/1
f 66/65/1 59/58/1 67/66/1
f 59/58/1 66/65/1 60/59/1
f 62/61/1 68/67/1 58/57/1
f 68/67/1 62/61/1 61/60/1
f 59/58/1 58/57/1 68/67/1
f 65/64/5 64/63/5 67/66/5
f 69/68/1 57/56/1 65/64/1
f 51/50/5 57/56/5 69/68/5
f 61/60/1 63/62/1 70/69/1
f 71/70/1 72/71/1 16/14/1
f 73/72/1 72/71/1 71/70/1
f 61/60/1 70/69/1 73/72/1
f 72/71/1 73/72/1 70/69/1
f 16/14/1 72/71/1 17/15/1
f 74/73/1 75/74/1 76/75/1
f 77/76/1 78/77/1 20/18/1
f 79/78/1 80/79/1 77/76/1
f 75/74/1 74/73/1 79/78/1
f 75/74/6 79/78/7 81/80/8
f 80/79/1 79/78/1 74/73/1
f 78/77/1 77/76/1 80/79/1
f 21/19/1 20/18/1 78/77/1
f 55/54/1 82/81/1 83/82/1
f 84/83/1 85/84/1 86/85/1
f 86/85/1 85/84/1 55/54/1
f 87/86/1 84/83/1 88/87/1
f 87/86/9 88/87/9 89/88/9
f 85/84/1 84/83/1 87/86/1
f 82/81/1 55/54/1 85/84/1
f 55/54/1 83/82/1 53/52/1
f 90/89/1 39/38/1 91/90/1
f 24/22/1 92/91/1 22/20/1
f 39/38/1 90/89/1 42/41/1
f 93/92/1 94/93/1 95/94/1
f 90/89/5 91/90/5 95/94/5
f 92/91/1 96/95/1 93/92/1
f 94/93/10 93/92/10 96/95/10
f 90/89/1 95/94/1 94/93/1
s 1
f 13/96/1 6/6/1 12/12/1
f 14/33/1 6/6/1 13/96/1
f 25/23/1 23/21/1 22/20/1
f 26/24/1 31/29/1 30/28/1
f 6/6/1 14/33/1 33/32/1
f 27/25/1 29/27/1 37/36/1
f 52/53/1 53/52/1 49/48/1
f 96/95/1 92/91/1 24/22/1
