# Blender v3.5.1 OBJ File: 'f1.blend'
# www.blender.org
mtllib Mesh_63.mtl
o Mesh_63
v -1.182790 1.205637 0.590370
v -1.185008 1.104437 0.590366
v -1.164110 1.213655 0.590373
v -0.476203 1.248203 0.590463
v -0.508425 1.262186 0.590459
v -0.475386 1.236039 0.590463
v -1.118955 1.226488 0.590378
v -1.116112 1.077220 0.590372
v -1.093343 1.231613 0.590381
v -0.895380 1.250722 0.590405
v -0.888044 1.045655 0.590398
v -0.839358 1.042250 0.590405
v -1.093414 1.071913 0.590374
v -1.066283 1.236081 0.590384
v -1.210792 1.186982 0.590366
v -1.209389 1.123330 0.590364
v -1.198444 1.196684 0.590368
v -0.485893 1.260855 0.590462
v -0.477426 1.256244 0.590463
v -0.478000 1.258729 0.590463
v -0.958007 1.247189 0.590397
v -0.931411 1.049105 0.590391
v -0.716890 1.257958 0.590430
v -0.658424 1.030572 0.590434
v -0.626676 1.260721 0.590442
v -0.471513 1.137248 0.590463
v -0.599136 1.026888 0.590444
v -0.550093 1.023975 0.590451
v -0.485166 1.021486 0.590461
v -0.470243 1.039229 0.590463
v -0.496687 1.021467 0.590459
v -0.552913 1.262287 0.590453
v -0.810733 1.254468 0.590417
v -0.784376 1.038653 0.590414
v -1.003866 1.243690 0.590391
v -0.970438 1.052834 0.590386
v -1.038208 1.240047 0.590387
v -1.038458 1.061743 0.590378
v -1.067545 1.066720 0.590376
v -1.142688 1.220554 0.590375
v -1.136129 1.082883 0.590370
v -1.153957 1.089146 0.590369
v -1.170087 1.096249 0.590368
v -1.198262 1.113525 0.590365
v -1.217928 1.133670 0.590364
v -1.219550 1.176715 0.590365
v -1.223420 1.144361 0.590363
v -1.224437 1.166067 0.590364
v -1.225658 1.155221 0.590363
v -1.006104 1.057080 0.590381
v -0.722118 1.034627 0.590424
v -0.470388 1.095675 0.590463
v -0.517136 1.022232 0.590456
v -0.469861 1.060798 0.590463
v -0.478995 1.022097 0.590462
v -0.471749 1.027741 0.590463
v -0.474594 1.023106 0.590462
v -0.472928 1.178908 0.590463
v -0.474322 1.214041 0.590463
v -0.476855 1.253837 0.590463
v 0.839435 1.042250 0.590405
v 0.810810 1.254468 0.590416
v 0.784453 1.038653 0.590414
v 0.508501 1.262186 0.590459
v 0.474399 1.214041 0.590463
v 0.552990 1.262287 0.590452
v 0.470320 1.039229 0.590463
v 0.496763 1.021467 0.590459
v 0.469938 1.060798 0.590463
v 0.476279 1.248203 0.590463
v 0.485970 1.260855 0.590462
v 0.476932 1.253837 0.590463
v 0.471590 1.137248 0.590463
v 0.626753 1.260721 0.590442
v 1.185085 1.104437 0.590366
v 1.164187 1.213655 0.590372
v 1.170163 1.096249 0.590367
v 0.716967 1.257958 0.590429
v 0.722195 1.034627 0.590424
v 1.003943 1.243690 0.590390
v 0.970515 1.052834 0.590385
v 1.006181 1.057080 0.590381
v 1.136206 1.082883 0.590369
v 1.142764 1.220554 0.590374
v 1.119031 1.226488 0.590377
v 1.210869 1.186982 0.590365
v 1.209466 1.123330 0.590363
v 1.218004 1.133670 0.590363
v 1.038535 1.061743 0.590377
v 0.478076 1.258729 0.590463
v 0.477503 1.256244 0.590463
v 0.473005 1.178908 0.590463
v 0.475463 1.236039 0.590463
v 0.470465 1.095675 0.590463
v 0.550170 1.023975 0.590451
v 0.517213 1.022232 0.590456
v 0.471826 1.027741 0.590462
v 0.479071 1.022097 0.590461
v 0.474671 1.023106 0.590462
v 0.485243 1.021486 0.590461
v 0.599213 1.026888 0.590443
v 0.658501 1.030572 0.590434
v 0.888120 1.045655 0.590397
v 0.895456 1.250722 0.590404
v 0.931487 1.049105 0.590390
v 0.958084 1.247189 0.590396
v 1.067622 1.066720 0.590375
v 1.038285 1.240047 0.590386
v 1.093491 1.071913 0.590373
v 1.066360 1.236081 0.590383
v 1.116189 1.077220 0.590371
v 1.093419 1.231613 0.590380
v 1.154034 1.089146 0.590368
v 1.198339 1.113525 0.590364
v 1.182866 1.205637 0.590369
v 1.198521 1.196684 0.590367
v 1.219627 1.176715 0.590364
v 1.223496 1.144361 0.590362
v 1.224514 1.166067 0.590363
v 1.225735 1.155221 0.590362
vt 0.489913 -0.132987
vt 0.485344 -0.091156
vt 0.491944 -0.136519
vt 0.732114 -0.242944
vt 0.581243 -0.212756
vt 0.732194 -0.242804
vt 0.497350 -0.144300
vt 0.488325 -0.076469
vt 0.500931 -0.148538
vt 1.031302 -0.031050
vt 0.502200 -0.046150
vt 0.506631 -0.042400
vt 0.489562 -0.072359
vt 0.504616 -0.152769
vt 0.487125 -0.126606
vt 0.484725 -0.097950
vt 0.488150 -0.129600
vt 0.581486 -0.212311
vt 0.731953 -0.243223
vt 0.581729 -0.211867
vt 0.516700 -0.165400
vt 0.499500 -0.050281
vt 0.761051 -0.023275
vt 0.525650 -0.031850
vt 0.625925 -0.019387
vt 0.728491 -0.230379
vt 0.534375 -0.028625
vt 0.543100 -0.025400
vt 0.824556 -0.017901
vt 0.725469 -0.220566
vt 0.829204 -0.016967
vt 0.581000 -0.213200
vt 0.896176 -0.027163
vt 0.511778 -0.038738
vt 0.512500 -0.161200
vt 0.496950 -0.054516
vt 0.508506 -0.156987
vt 0.492600 -0.063500
vt 0.491025 -0.067994
vt 0.494512 -0.140337
vt 0.487200 -0.080450
vt 0.486469 -0.084081
vt 0.485822 -0.087666
vt 0.484950 -0.094600
vt 0.484000 -0.112700
vt 0.486200 -0.123666
vt 0.484425 -0.115375
vt 0.485475 -0.120831
vt 0.484850 -0.118050
vt 0.494700 -0.058956
vt 0.518356 -0.035250
vt 0.727130 -0.225960
vt 0.833852 -0.016034
vt 0.726034 -0.222401
vt 0.819908 -0.018835
vt 0.725169 -0.219592
vt 0.725399 -0.220341
vt 0.730382 -0.236522
vt 0.732274 -0.242665
vt 0.732033 -0.243083
vt 0.506631 -0.042400
vt 0.896176 -0.027163
vt 0.511778 -0.038738
vt 0.581243 -0.212756
vt 0.732274 -0.242665
vt 0.581000 -0.213200
vt 0.725469 -0.220566
vt 0.829204 -0.016967
vt 0.726034 -0.222401
vt 0.732114 -0.242944
vt 0.581486 -0.212311
vt 0.732033 -0.243083
vt 0.728491 -0.230379
vt 0.625925 -0.019387
vt 0.485344 -0.091156
vt 0.491944 -0.136519
vt 0.485822 -0.087666
vt 0.761051 -0.023275
vt 0.518356 -0.035250
vt 0.512500 -0.161200
vt 0.496950 -0.054516
vt 0.494700 -0.058956
vt 0.487200 -0.080450
vt 0.494512 -0.140337
vt 0.497350 -0.144300
vt 0.487125 -0.126606
vt 0.484725 -0.097950
vt 0.484000 -0.112700
vt 0.492600 -0.063500
vt 0.581729 -0.211867
vt 0.731953 -0.243223
vt 0.730382 -0.236522
vt 0.732194 -0.242804
vt 0.727130 -0.225960
vt 0.543100 -0.025400
vt 0.833852 -0.016034
vt 0.725169 -0.219592
vt 0.819908 -0.018835
vt 0.725399 -0.220341
vt 0.824556 -0.017901
vt 0.534375 -0.028625
vt 0.525650 -0.031850
vt 0.502200 -0.046150
vt 1.031302 -0.031050
vt 0.499500 -0.050281
vt 0.516700 -0.165400
vt 0.491025 -0.067994
vt 0.508506 -0.156987
vt 0.489562 -0.072359
vt 0.504616 -0.152769
vt 0.488325 -0.076469
vt 0.500931 -0.148538
vt 0.486469 -0.084081
vt 0.484950 -0.094600
vt 0.489913 -0.132987
vt 0.488150 -0.129600
vt 0.486200 -0.123666
vt 0.484425 -0.115375
vt 0.485475 -0.120831
vt 0.484850 -0.118050
vn -0.0001 -0.0000 1.0000
vn -0.0002 -0.0000 1.0000
vn -0.0001 -0.0001 1.0000
vn 0.0002 -0.0000 1.0000
vn 0.0001 -0.0000 1.0000
usemtl BLACK
s off
f 1/1/1 2/2/1 3/3/1
f 4/4/1 5/5/1 6/6/1
f 7/7/1 8/8/1 9/9/1
f 10/10/2 11/11/2 12/12/2
f 9/9/1 13/13/1 14/14/1
f 15/15/1 16/16/1 17/17/1
f 18/18/1 19/19/1 20/20/1
f 21/21/1 22/22/1 10/10/1
f 23/23/1 24/24/1 25/25/1
f 26/26/2 27/27/2 28/28/2
f 29/29/1 30/30/1 31/31/1
f 25/25/1 26/26/1 32/32/1
f 27/27/1 26/26/1 25/25/1
f 33/33/1 34/34/1 23/23/1
f 10/10/1 12/12/1 33/33/1
f 35/35/1 36/36/1 21/21/1
f 37/37/1 38/38/1 35/35/1
f 37/37/1 39/39/1 38/38/1
f 39/39/1 37/37/1 14/14/1
f 40/40/1 41/41/1 7/7/1
f 3/3/1 42/42/1 40/40/1
f 3/3/1 43/43/1 42/42/1
f 17/17/1 44/44/1 1/1/1
f 45/45/1 15/15/1 46/46/1
f 46/46/1 47/47/1 45/45/1
f 48/48/1 47/47/1 46/46/1
f 47/47/1 48/48/1 49/49/1
f 16/16/1 15/15/1 45/45/1
f 44/44/1 17/17/1 16/16/1
f 2/2/1 1/1/1 44/44/1
f 43/43/1 3/3/1 2/2/1
f 41/41/1 40/40/1 42/42/1
f 8/8/1 7/7/1 41/41/1
f 13/13/1 9/9/1 8/8/1
f 39/39/1 14/14/1 13/13/1
f 50/50/3 35/35/3 38/38/3
f 36/36/1 35/35/1 50/50/1
f 22/22/1 21/21/1 36/36/1
f 11/11/2 10/10/2 22/22/2
f 34/34/2 33/33/2 12/12/2
f 51/51/2 23/23/2 34/34/2
f 24/24/2 23/23/2 51/51/2
f 27/27/2 25/25/2 24/24/2
f 28/28/1 52/52/1 26/26/1
f 53/53/2 52/52/2 28/28/2
f 31/31/1 54/54/1 53/53/1
f 55/55/1 30/30/1 29/29/1
f 56/56/1 55/55/1 57/57/1
f 30/30/1 55/55/1 56/56/1
f 54/54/1 31/31/1 30/30/1
f 52/52/1 53/53/1 54/54/1
f 58/58/1 32/32/1 26/26/1
f 59/59/1 32/32/1 58/58/1
f 59/59/1 5/5/1 32/32/1
f 5/5/1 59/59/1 6/6/1
f 60/60/1 18/18/1 4/4/1
f 18/18/1 60/60/1 19/19/1
f 5/5/1 4/4/1 18/18/1
f 61/61/4 62/62/4 63/63/4
f 64/64/5 65/65/5 66/66/5
f 67/67/5 68/68/5 69/69/5
f 70/70/5 71/71/5 72/72/5
f 73/73/5 74/74/5 66/66/5
f 75/75/5 76/76/5 77/77/5
f 63/63/4 78/78/4 79/79/4
f 80/80/5 81/81/5 82/82/5
f 83/83/5 84/84/5 85/85/5
f 86/86/5 87/87/5 88/88/5
f 89/89/5 80/80/5 82/82/5
f 71/71/4 90/90/4 91/91/4
f 66/66/5 92/92/5 73/73/5
f 71/71/5 70/70/5 64/64/5
f 72/72/4 71/71/4 91/91/4
f 93/93/5 64/64/5 70/70/5
f 65/65/5 64/64/5 93/93/5
f 92/92/5 66/66/5 65/65/5
f 94/94/5 95/95/5 73/73/5
f 94/94/4 96/96/4 95/95/4
f 96/96/5 94/94/5 69/69/5
f 97/97/5 98/98/5 67/67/5
f 98/98/5 97/97/5 99/99/5
f 100/100/5 67/67/5 98/98/5
f 68/68/5 67/67/5 100/100/5
f 96/96/5 69/69/5 68/68/5
f 101/101/4 73/73/4 95/95/4
f 74/74/5 73/73/5 101/101/5
f 74/74/4 101/101/4 102/102/4
f 79/79/4 78/78/4 102/102/4
f 103/103/4 104/104/4 61/61/4
f 105/105/4 104/104/4 103/103/4
f 81/81/5 106/106/5 105/105/5
f 81/81/5 80/80/5 106/106/5
f 107/107/5 108/108/5 89/89/5
f 109/109/5 110/110/5 107/107/5
f 111/111/5 112/112/5 109/109/5
f 83/83/5 85/85/5 111/111/5
f 84/84/5 83/83/5 113/113/5
f 77/77/5 76/76/5 113/113/5
f 114/114/5 115/115/5 75/75/5
f 87/87/5 116/116/5 114/114/5
f 88/88/5 117/117/5 86/86/5
f 117/117/5 88/88/5 118/118/5
f 119/119/5 118/118/5 120/120/5
f 117/117/5 118/118/5 119/119/5
f 116/116/5 87/87/5 86/86/5
f 115/115/5 114/114/5 116/116/5
f 76/76/5 75/75/5 115/115/5
f 84/84/5 113/113/5 76/76/5
f 112/112/5 111/111/5 85/85/5
f 110/110/5 109/109/5 112/112/5
f 108/108/5 107/107/5 110/110/5
f 80/80/5 89/89/5 108/108/5
f 104/104/5 105/105/5 106/106/5
f 62/62/5 61/61/5 104/104/5
f 78/78/5 63/63/5 62/62/5
f 74/74/5 102/102/5 78/78/5
