# Blender v3.5.1 OBJ File: 'f1.blend'
# www.blender.org
mtllib Mesh_38.mtl
o Mesh_38
v -1.959271 0.773562 -3.993659
v -1.988402 0.752829 -3.973252
v -1.987941 0.778921 -3.980380
v -1.959690 0.749846 -3.987180
v -1.958877 0.795839 -4.004144
v -1.987507 0.803430 -3.991915
v -1.958519 0.816018 -4.018252
v -1.987113 0.825631 -4.007437
v -1.958208 0.833439 -4.035602
v -1.986772 0.844797 -4.026525
v -1.986496 0.860204 -4.048761
v -1.957958 0.847442 -4.055812
v -1.986290 0.871565 -4.073354
v -1.957771 0.857769 -4.078166
v -1.957654 0.864159 -4.101945
v -1.986113 0.881010 -4.126462
v -1.957610 0.866353 -4.126436
v -1.986161 0.878595 -4.099517
v -1.957644 0.864091 -4.150921
v -1.986151 0.878521 -4.153400
v -1.957753 0.857636 -4.174683
v -1.986271 0.871419 -4.179543
v -1.986467 0.859990 -4.204105
v -1.958174 0.833188 -4.217180
v -1.957931 0.847247 -4.197008
v -1.986734 0.844522 -4.226298
v -1.987068 0.825303 -4.245334
v -1.958478 0.815720 -4.234482
v -1.987457 0.803060 -4.260795
v -1.958831 0.795503 -4.248535
v -1.959221 0.773197 -4.258958
v -1.988344 0.752407 -4.279319
v -1.959638 0.749463 -4.265372
v -1.987886 0.778519 -4.272263
v -1.988818 0.725451 -4.281547
v -1.960068 0.724962 -4.267396
v -1.960501 0.700443 -4.265164
v -1.989294 0.698475 -4.279091
v -1.960920 0.676657 -4.258810
v -1.989755 0.672306 -4.272099
v -1.961315 0.654354 -4.248465
v -1.990190 0.647768 -4.260718
v -1.962233 0.602799 -4.196630
v -1.991407 0.579565 -4.179196
v -1.962422 0.592362 -4.174368
v -1.991199 0.591047 -4.203690
v -1.961980 0.616936 -4.216791
v -1.990921 0.606601 -4.225871
v -1.961671 0.634284 -4.234263
v -1.990581 0.625687 -4.245094
v -1.991533 0.572691 -4.153032
v -1.962536 0.586115 -4.150586
v -1.991579 0.570425 -4.126035
v -1.962578 0.584055 -4.126048
v -1.962545 0.586182 -4.101516
v -1.991543 0.572765 -4.099045
v -1.962440 0.592495 -4.077752
v -1.991427 0.579711 -4.072900
v -1.962260 0.602993 -4.055518
v -1.991229 0.591261 -4.048438
v -1.990959 0.606875 -4.026300
v -1.962014 0.617186 -4.035397
v -1.990240 0.648138 -3.991566
v -1.961712 0.634582 -4.017972
v -1.990626 0.626015 -4.007129
v -1.961361 0.654691 -4.003827
v -1.989810 0.672707 -3.980252
v -1.960970 0.677022 -3.993543
v -1.989351 0.698896 -3.973332
v -1.960553 0.700826 -3.987253
v -1.988877 0.725878 -3.970951
v -1.960121 0.725350 -3.985089
v -1.995064 0.754015 -3.967241
v -1.994585 0.781132 -3.974650
v -1.994135 0.806605 -3.986638
v -1.993725 0.829677 -4.002769
v -1.993370 0.849597 -4.022608
v -1.993083 0.865609 -4.045718
v -1.992870 0.877417 -4.071277
v -1.992736 0.884723 -4.098469
v -1.992686 0.887232 -4.126472
v -1.992725 0.884646 -4.154469
v -1.992850 0.877265 -4.181639
v -1.993053 0.865386 -4.207166
v -1.993331 0.849311 -4.230231
v -1.993679 0.829337 -4.250014
v -1.994082 0.806220 -4.266083
v -1.995005 0.753577 -4.285336
v -1.994528 0.780715 -4.278002
v -1.995497 0.725561 -4.287650
v -1.995991 0.697525 -4.285098
v -1.996471 0.670328 -4.277832
v -1.996922 0.644825 -4.266003
v -1.997972 0.585876 -4.206734
v -1.998188 0.573943 -4.181278
v -1.997683 0.602041 -4.229786
v -1.997329 0.621877 -4.249765
v -1.998319 0.566799 -4.154085
v -1.998366 0.564444 -4.126028
v -1.998330 0.566876 -4.097978
v -1.998208 0.574095 -4.070804
v -1.998002 0.586098 -4.045381
v -1.997722 0.602326 -4.022374
v -1.997376 0.622217 -4.002450
v -1.996975 0.645211 -3.986275
v -1.996528 0.670745 -3.974516
v -1.996051 0.697963 -3.967324
v -1.995557 0.726005 -3.964849
vt 0.529383 -0.595623
vt 0.543921 -0.580452
vt 0.538863 -0.599071
vt 0.533980 -0.578699
vt 0.521927 -0.611524
vt 0.530660 -0.616565
vt 0.511884 -0.625931
vt 0.519611 -0.632417
vt 0.499527 -0.638375
vt 0.506015 -0.646107
vt 0.490172 -0.657119
vt 0.485127 -0.648384
vt 0.472643 -0.665247
vt 0.469194 -0.655772
vt 0.452240 -0.660354
vt 0.434775 -0.672037
vt 0.434775 -0.661943
vt 0.453990 -0.670288
vt 0.417310 -0.660354
vt 0.415560 -0.670288
vt 0.400356 -0.655772
vt 0.396907 -0.665247
vt 0.379378 -0.657119
vt 0.370023 -0.638375
vt 0.384423 -0.648384
vt 0.363535 -0.646107
vt 0.349939 -0.632416
vt 0.357665 -0.625931
vt 0.338890 -0.616565
vt 0.347623 -0.611523
vt 0.340167 -0.595623
vt 0.325629 -0.580452
vt 0.335570 -0.578699
vt 0.330687 -0.599071
vt 0.324014 -0.561225
vt 0.334102 -0.561223
vt 0.335669 -0.543731
vt 0.325739 -0.541980
vt 0.340179 -0.526758
vt 0.330700 -0.523306
vt 0.347535 -0.510838
vt 0.338793 -0.505791
vt 0.384453 -0.474012
vt 0.396869 -0.457061
vt 0.400321 -0.466546
vt 0.379411 -0.465275
vt 0.370088 -0.484116
vt 0.363606 -0.476392
vt 0.357643 -0.496508
vt 0.349915 -0.490025
vt 0.415523 -0.452132
vt 0.417276 -0.462066
vt 0.434775 -0.450489
vt 0.434775 -0.460572
vt 0.452274 -0.462066
vt 0.454027 -0.452132
vt 0.469229 -0.466546
vt 0.472681 -0.457061
vt 0.485097 -0.474012
vt 0.490139 -0.465275
vt 0.505943 -0.476392
vt 0.499461 -0.484116
vt 0.530756 -0.505791
vt 0.511906 -0.496508
vt 0.519635 -0.490025
vt 0.522014 -0.510838
vt 0.538850 -0.523306
vt 0.529371 -0.526758
vt 0.543811 -0.541980
vt 0.533880 -0.543731
vt 0.545536 -0.561225
vt 0.535448 -0.561223
vt 0.548210 -0.581208
vt 0.542953 -0.600559
vt 0.534427 -0.618741
vt 0.522945 -0.635215
vt 0.508815 -0.649443
vt 0.492349 -0.660888
vt 0.474131 -0.669336
vt 0.454745 -0.674574
vt 0.434775 -0.676392
vt 0.414805 -0.674574
vt 0.395419 -0.669336
vt 0.377201 -0.660888
vt 0.360735 -0.649443
vt 0.346606 -0.635215
vt 0.335123 -0.618741
vt 0.321340 -0.581208
vt 0.326597 -0.600559
vt 0.319662 -0.561226
vt 0.321454 -0.541225
vt 0.326610 -0.521817
vt 0.335022 -0.503614
vt 0.377235 -0.461506
vt 0.395379 -0.452968
vt 0.360810 -0.473059
vt 0.346580 -0.487228
vt 0.414767 -0.447846
vt 0.434775 -0.446138
vt 0.454783 -0.447846
vt 0.474171 -0.452968
vt 0.492315 -0.461506
vt 0.508740 -0.473059
vt 0.522970 -0.487228
vt 0.534528 -0.503614
vt 0.542939 -0.521817
vt 0.548096 -0.541225
vt 0.549888 -0.561226
vn -0.4466 -0.3027 -0.8420
vn -0.5698 -0.1341 -0.8107
vn -0.5719 -0.2749 -0.7729
vn -0.4441 -0.1492 -0.8835
vn -0.4489 -0.4419 -0.7766
vn -0.5740 -0.4028 -0.7130
vn -0.4513 -0.5679 -0.6884
vn -0.5762 -0.5184 -0.6318
vn -0.4535 -0.6802 -0.5759
vn -0.5785 -0.6213 -0.5285
vn -0.5796 -0.7049 -0.4089
vn -0.4549 -0.7711 -0.4455
vn -0.5804 -0.7644 -0.2808
vn -0.4559 -0.8358 -0.3059
vn -0.4568 -0.8756 -0.1572
vn -0.5820 -0.8132 0.0010
vn -0.4573 -0.8893 0.0011
vn -0.5813 -0.8008 -0.1443
vn -0.4568 -0.8751 0.1595
vn -0.5813 -0.8004 0.1463
vn -0.4560 -0.8350 0.3080
vn -0.5805 -0.7636 0.2827
vn -0.5797 -0.7038 0.4107
vn -0.4537 -0.6786 0.5776
vn -0.4551 -0.7699 0.4474
vn -0.5787 -0.6199 0.5300
vn -0.5765 -0.5167 0.6330
vn -0.4515 -0.5660 0.6898
vn -0.5742 -0.4009 0.7139
vn -0.4492 -0.4398 0.7777
vn -0.4469 -0.3004 0.8427
vn -0.5701 -0.1318 0.8109
vn -0.4444 -0.1468 0.8837
vn -0.5722 -0.2728 0.7734
vn -0.5672 0.0134 0.8235
vn -0.4414 0.0116 0.8972
vn -0.4386 0.1648 0.8835
vn -0.5645 0.1541 0.8109
vn -0.4361 0.3134 0.8436
vn -0.5623 0.2905 0.7742
vn -0.4338 0.4574 0.7763
vn -0.5604 0.4226 0.7123
vn -0.4277 0.7841 0.4497
vn -0.5539 0.7839 0.2804
vn -0.4267 0.8512 0.3056
vn -0.5546 0.7225 0.4127
vn -0.4292 0.6959 0.5758
vn -0.5559 0.6416 0.5285
vn -0.4312 0.5874 0.6848
vn -0.5578 0.5420 0.6286
vn -0.5528 0.8216 0.1395
vn -0.4258 0.8920 0.1520
vn -0.5524 0.8336 -0.0013
vn -0.4253 0.9050 -0.0013
vn -0.4257 0.8916 -0.1546
vn -0.5527 0.8212 -0.1420
vn -0.4266 0.8503 -0.3081
vn -0.5538 0.7832 -0.2828
vn -0.4275 0.7828 -0.4521
vn -0.5545 0.7214 -0.4149
vn -0.5557 0.6402 -0.5305
vn -0.4289 0.6943 -0.5779
vn -0.5601 0.4206 -0.7137
vn -0.4310 0.5855 -0.6866
vn -0.5576 0.5402 -0.6303
vn -0.4335 0.4552 -0.7777
vn -0.5620 0.2884 -0.7752
vn -0.4358 0.3110 -0.8446
vn -0.5642 0.1519 -0.8115
vn -0.4382 0.1624 -0.8841
vn -0.5669 0.0112 -0.8237
vn -0.4411 0.0091 -0.8974
vn -0.6767 -0.1173 -0.7269
vn -0.6787 -0.2434 -0.6929
vn -0.6805 -0.3582 -0.6392
vn -0.6825 -0.4619 -0.5664
vn -0.6844 -0.5541 -0.4738
vn -0.6855 -0.6290 -0.3667
vn -0.6863 -0.6823 -0.2518
vn -0.6871 -0.7150 -0.1293
vn -0.6875 -0.7262 0.0009
vn -0.6871 -0.7147 0.1310
vn -0.6864 -0.6816 0.2534
vn -0.6857 -0.6279 0.3682
vn -0.6846 -0.5528 0.4751
vn -0.6827 -0.4604 0.5674
vn -0.6807 -0.3565 0.6400
vn -0.6769 -0.1153 0.7270
vn -0.6789 -0.2415 0.6934
vn -0.6744 0.0149 0.7382
vn -0.6721 0.1411 0.7269
vn -0.6700 0.2634 0.6940
vn -0.6682 0.3818 0.6386
vn -0.6631 0.6507 0.3699
vn -0.6624 0.7058 0.2514
vn -0.6643 0.5782 0.4738
vn -0.6660 0.4887 0.5636
vn -0.6615 0.7394 0.1251
vn -0.6611 0.7503 -0.0012
vn -0.6614 0.7391 -0.1274
vn -0.6623 0.7051 -0.2536
vn -0.6630 0.6497 -0.3719
vn -0.6641 0.5768 -0.4756
vn -0.6658 0.4871 -0.5651
vn -0.6679 0.3800 -0.6399
vn -0.6698 0.2615 -0.6950
vn -0.6718 0.1391 -0.7276
vn -0.6741 0.0128 -0.7385
usemtl caliper_color
s 1
f 1/1/1 2/2/2 3/3/3
f 2/2/2 1/1/1 4/4/4
f 5/5/5 3/3/3 6/6/6
f 3/3/3 5/5/5 1/1/1
f 7/7/7 8/8/8 9/9/9
f 10/10/10 9/9/9 8/8/8
f 5/5/5 6/6/6 7/7/7
f 8/8/8 7/7/7 6/6/6
f 9/9/9 10/10/10 11/11/11
f 9/9/9 11/11/11 12/12/12
f 11/11/11 13/13/13 12/12/12
f 12/12/12 13/13/13 14/14/14
f 15/15/15 16/16/16 17/17/17
f 16/16/16 15/15/15 18/18/18
f 14/14/14 18/18/18 15/15/15
f 18/18/18 14/14/14 13/13/13
f 16/16/16 19/19/19 17/17/17
f 19/19/19 16/16/16 20/20/20
f 20/20/20 21/21/21 19/19/19
f 21/21/21 20/20/20 22/22/22
f 23/23/23 24/24/24 25/25/25
f 24/24/24 23/23/23 26/26/26
f 22/22/22 25/25/25 21/21/21
f 25/25/25 22/22/22 23/23/23
f 24/24/24 27/27/27 28/28/28
f 27/27/27 24/24/24 26/26/26
f 28/28/28 29/29/29 30/30/30
f 29/29/29 28/28/28 27/27/27
f 31/31/31 32/32/32 33/33/33
f 32/32/32 31/31/31 34/34/34
f 30/30/30 34/34/34 31/31/31
f 34/34/34 30/30/30 29/29/29
f 33/33/33 35/35/35 36/36/36
f 35/35/35 33/33/33 32/32/32
f 36/36/36 35/35/35 37/37/37
f 35/35/35 38/38/38 37/37/37
f 39/39/39 40/40/40 41/41/41
f 40/40/40 42/42/42 41/41/41
f 37/37/37 38/38/38 39/39/39
f 38/38/38 40/40/40 39/39/39
f 43/43/43 44/44/44 45/45/45
f 44/44/44 43/43/43 46/46/46
f 47/47/47 46/46/46 43/43/43
f 46/46/46 47/47/47 48/48/48
f 42/42/42 49/49/49 41/41/41
f 49/49/49 42/42/42 50/50/50
f 49/49/49 50/50/50 48/48/48
f 49/49/49 48/48/48 47/47/47
f 45/45/45 51/51/51 52/52/52
f 51/51/51 45/45/45 44/44/44
f 52/52/52 53/53/53 54/54/54
f 53/53/53 52/52/52 51/51/51
f 55/55/55 56/56/56 57/57/57
f 56/56/56 58/58/58 57/57/57
f 54/54/54 53/53/53 55/55/55
f 53/53/53 56/56/56 55/55/55
f 57/57/57 58/58/58 59/59/59
f 58/58/58 60/60/60 59/59/59
f 61/61/61 62/62/62 60/60/60
f 59/59/59 60/60/60 62/62/62
f 63/63/63 64/64/64 65/65/65
f 64/64/64 63/63/63 66/66/66
f 65/65/65 64/64/64 61/61/61
f 62/62/62 61/61/61 64/64/64
f 67/67/67 68/68/68 66/66/66
f 67/67/67 66/66/66 63/63/63
f 69/69/69 70/70/70 68/68/68
f 69/69/69 68/68/68 67/67/67
f 2/2/2 4/4/4 71/71/71
f 4/4/4 72/72/72 71/71/71
f 71/71/71 70/70/70 69/69/69
f 70/70/70 71/71/71 72/72/72
f 3/3/3 73/73/73 74/74/74
f 73/73/73 3/3/3 2/2/2
f 3/3/3 75/75/75 6/6/6
f 75/75/75 3/3/3 74/74/74
f 10/10/10 8/8/8 76/76/76
f 76/76/76 77/77/77 10/10/10
f 8/8/8 6/6/6 75/75/75
f 8/8/8 75/75/75 76/76/76
f 10/10/10 78/78/78 11/11/11
f 78/78/78 10/10/10 77/77/77
f 11/11/11 79/79/79 13/13/13
f 79/79/79 11/11/11 78/78/78
f 80/80/80 81/81/81 18/18/18
f 18/18/18 81/81/81 16/16/16
f 79/79/79 80/80/80 13/13/13
f 13/13/13 80/80/80 18/18/18
f 20/20/20 16/16/16 81/81/81
f 81/81/81 82/82/82 20/20/20
f 22/22/22 20/20/20 82/82/82
f 82/82/82 83/83/83 22/22/22
f 84/84/84 26/26/26 23/23/23
f 26/26/26 84/84/84 85/85/85
f 23/23/23 83/83/83 84/84/84
f 83/83/83 23/23/23 22/22/22
f 26/26/26 86/86/86 27/27/27
f 86/86/86 26/26/26 85/85/85
f 27/27/27 87/87/87 29/29/29
f 87/87/87 27/27/27 86/86/86
f 34/34/34 88/88/88 32/32/32
f 88/88/88 34/34/34 89/89/89
f 34/34/34 29/29/29 87/87/87
f 34/34/34 87/87/87 89/89/89
f 32/32/32 90/90/90 35/35/35
f 90/90/90 32/32/32 88/88/88
f 38/38/38 35/35/35 90/90/90
f 90/90/90 91/91/91 38/38/38
f 92/92/92 93/93/93 42/42/42
f 92/92/92 42/42/42 40/40/40
f 40/40/40 38/38/38 91/91/91
f 91/91/91 92/92/92 40/40/40
f 44/44/44 94/94/94 95/95/95
f 94/94/94 44/44/44 46/46/46
f 46/46/46 96/96/96 94/94/94
f 96/96/96 46/46/46 48/48/48
f 97/97/97 42/42/42 93/93/93
f 42/42/42 97/97/97 50/50/50
f 96/96/96 50/50/50 97/97/97
f 50/50/50 96/96/96 48/48/48
f 44/44/44 98/98/98 51/51/51
f 98/98/98 44/44/44 95/95/95
f 51/51/51 99/99/99 53/53/53
f 99/99/99 51/51/51 98/98/98
f 58/58/58 56/56/56 100/100/100
f 100/100/100 101/101/101 58/58/58
f 56/56/56 53/53/53 99/99/99
f 99/99/99 100/100/100 56/56/56
f 58/58/58 102/102/102 60/60/60
f 102/102/102 58/58/58 101/101/101
f 60/60/60 103/103/103 61/61/61
f 103/103/103 60/60/60 102/102/102
f 63/63/63 104/104/104 105/105/105
f 104/104/104 63/63/63 65/65/65
f 65/65/65 103/103/103 104/104/104
f 103/103/103 65/65/65 61/61/61
f 106/106/106 63/63/63 105/105/105
f 63/63/63 106/106/106 67/67/67
f 107/107/107 67/67/67 106/106/106
f 67/67/67 107/107/107 69/69/69
f 2/2/2 108/108/108 73/73/73
f 108/108/108 2/2/2 71/71/71
f 108/108/108 69/69/69 107/107/107
f 69/69/69 108/108/108 71/71/71
