# Blender v3.5.1 OBJ File: 'f1.blend'
# www.blender.org
mtllib Mesh_137.mtl
o Mesh_137
v 0.000608 1.973736 -5.109777
v 0.000608 1.953814 -5.119102
v 0.000608 1.949715 -5.115355
v 0.000608 1.944822 -5.109686
v 0.000608 1.981401 -5.112566
v 0.000608 1.977814 -5.110496
v 0.000608 1.973736 -5.133626
v 0.000608 1.981401 -5.130836
v 0.000608 1.984063 -5.127664
v 0.000608 1.984063 -5.115739
v 0.000608 1.985480 -5.119631
v 0.000608 1.985480 -5.123773
v 0.000608 1.977814 -5.132907
v 0.000608 1.966071 -5.130836
v 0.000608 1.969657 -5.132907
v 0.000608 1.963408 -5.127664
v 0.000608 1.959234 -5.123763
v 0.000608 1.946526 -5.112850
vt 15.632178 -353.768219
vt 15.175635 -353.651947
vt 15.158637 -353.534149
vt 15.123328 -353.348114
vt 15.721168 -353.918610
vt 15.689918 -353.835541
vt 15.308082 -354.163116
vt 15.472892 -354.221100
vt 15.560126 -354.204773
vt 15.722159 -354.007355
vt 15.692771 -354.090973
vt 15.636436 -354.159637
vt 15.385367 -354.206573
vt 15.219062 -354.012787
vt 15.250312 -354.095734
vt 15.218085 -353.924042
vt 15.202033 -353.802704
vt 15.139823 -353.449432
vn -1.0000 0.0000 0.0000
vn -1.0000 0.0001 0.0001
usemtl chrome
s off
f 1/1/1 2/2/1 3/3/1
f 1/1/1 3/3/1 4/4/1
f 5/5/1 1/1/1 6/6/1
f 7/7/1 5/5/1 8/8/1
f 1/1/1 5/5/1 7/7/1
f 9/9/1 5/5/1 10/10/1
f 9/9/1 10/10/1 11/11/1
f 9/9/1 11/11/1 12/12/1
f 8/8/1 5/5/1 9/9/1
f 7/7/1 8/8/1 13/13/1
f 14/14/1 7/7/1 15/15/1
f 1/1/1 7/7/1 14/14/1
f 1/1/1 14/14/1 16/16/1
f 1/1/1 16/16/1 17/17/1
f 1/1/1 17/17/1 2/2/1
f 4/4/2 3/3/2 18/18/2
