# Blender v3.5.1 OBJ File: 'f1.blend'
# www.blender.org
mtllib Mesh_135.mtl
o Mesh_135
v 1.031929 1.861746 -4.923880
v 1.031929 1.869823 -4.961060
v 1.031929 1.877344 -4.959531
v 1.031929 1.854879 -4.924988
v 1.031929 1.885088 -4.996469
v 1.031929 1.893295 -4.994605
v 1.031929 1.900717 -5.030547
v 1.031929 1.909656 -5.028525
v 1.031929 1.916727 -5.062633
v 1.031929 1.926460 -5.060714
v 1.031929 1.933113 -5.092060
v 1.031929 1.943711 -5.090593
v 1.031929 1.948789 -5.117934
v 1.031929 1.960034 -5.117105
v 1.031929 1.962699 -5.139362
v 1.031929 1.974084 -5.139188
v 1.031929 1.973815 -5.155450
v 1.031929 1.984546 -5.155782
v 1.031929 1.981130 -5.165304
v 1.031929 1.990126 -5.165828
v 1.031929 1.985604 -5.170438
v 1.031929 1.992052 -5.170918
v 1.031929 1.988193 -5.172362
v 1.031929 1.989856 -5.172593
v 1.031929 1.991552 -5.172642
vt 35.123753 57.864834
vt 36.888920 58.307190
vt 36.982906 57.952351
vt 35.025600 58.182728
vt 38.730614 58.403900
vt 38.824810 58.012554
vt 40.523010 58.456749
vt 40.625969 58.030636
vt 42.238060 58.450966
vt 42.362240 57.993057
vt 43.847134 58.372719
vt 44.009033 57.887310
vt 45.288815 58.249527
vt 45.491737 57.749908
vt 46.502441 58.107735
vt 46.736439 57.615990
vt 47.427849 57.972462
vt 47.669704 57.519470
vt 48.005447 57.867901
vt 48.218704 57.493378
vt 48.320423 57.785007
vt 48.477764 57.518768
vt 48.457825 57.714840
vt 48.503021 57.648430
vt 48.541061 57.576763
vn 1.0000 0.0000 0.0000
vn 1.0000 0.0001 0.0000
usemtl chrome
s off
f 1/1/1 2/2/1 3/3/1
f 4/4/1 2/2/1 1/1/1
f 2/2/1 5/5/1 3/3/1
f 3/3/1 5/5/1 6/6/1
f 5/5/1 7/7/1 6/6/1
f 6/6/1 7/7/1 8/8/1
f 8/8/1 9/9/1 10/10/1
f 7/7/1 9/9/1 8/8/1
f 10/10/1 11/11/1 12/12/1
f 9/9/1 11/11/1 10/10/1
f 12/12/1 13/13/1 14/14/1
f 11/11/1 13/13/1 12/12/1
f 14/14/1 15/15/1 16/16/1
f 13/13/1 15/15/1 14/14/1
f 16/16/1 17/17/1 18/18/1
f 16/16/1 15/15/1 17/17/1
f 18/18/1 19/19/1 20/20/1
f 18/18/1 17/17/1 19/19/1
f 20/20/2 21/21/2 22/22/2
f 20/20/1 19/19/1 21/21/1
f 23/23/1 22/22/1 21/21/1
f 22/22/1 24/24/1 25/25/1
f 24/24/1 22/22/1 23/23/1
