# Blender v3.5.1 OBJ File: 'f1.blend'
# www.blender.org
mtllib Mesh_88.mtl
o Mesh_88
v -0.481449 1.022159 0.345645
v -0.479473 1.015500 0.313031
v -0.479472 1.015500 0.345645
v -0.481449 1.022159 0.313031
v -0.481028 1.029092 0.345645
v -0.481028 1.029092 0.313031
v -0.478262 1.035463 0.313031
v -0.478262 1.035463 0.345645
v -0.473483 1.040504 0.345645
v -0.473483 1.040504 0.313031
v -0.467269 1.043607 0.345645
v -0.467269 1.043607 0.313031
v -0.467269 1.043607 0.313031
v -0.467269 1.043607 0.345645
v -0.460368 1.044396 0.313031
v -0.460368 1.044396 0.345645
v -0.453613 1.042778 0.345645
v -0.453613 1.042778 0.313031
v -0.447819 1.038948 0.345645
v -0.447819 1.038948 0.313031
v -0.443684 1.033366 0.345645
v -0.443684 1.033366 0.313031
v -0.441708 1.026707 0.345645
v -0.441708 1.026707 0.313031
v -0.442129 1.019774 0.345645
v -0.442129 1.019774 0.313031
v -0.444895 1.013403 0.345645
v -0.444895 1.013403 0.313031
v -0.449674 1.008362 0.345645
v -0.449674 1.008362 0.313031
v -0.455888 1.005260 0.345645
v -0.455888 1.005260 0.313031
v -0.462789 1.004470 0.345645
v -0.462789 1.004470 0.313031
v -0.469544 1.006088 0.345645
v -0.469544 1.006088 0.313031
v -0.475338 1.009918 0.345645
v -0.475338 1.009918 0.313031
v -0.476924 1.022677 0.339054
v -0.475398 1.017534 0.306439
v -0.475398 1.017534 0.339054
v -0.476924 1.022677 0.306439
v -0.476600 1.028031 0.339054
v -0.476600 1.028031 0.306439
v -0.474463 1.032952 0.306439
v -0.474463 1.032952 0.339054
v -0.470773 1.036845 0.339054
v -0.470773 1.036845 0.306439
v -0.465973 1.039241 0.339054
v -0.465973 1.039241 0.306439
v -0.465973 1.039241 0.306439
v -0.465973 1.039241 0.339054
v -0.460643 1.039851 0.306439
v -0.460643 1.039851 0.339054
v -0.455426 1.038601 0.339054
v -0.455426 1.038601 0.306439
v -0.450952 1.035643 0.306439
v -0.450952 1.035643 0.339054
v -0.447759 1.031332 0.339054
v -0.447759 1.031332 0.306439
v -0.446232 1.026189 0.339054
v -0.446232 1.026189 0.306439
v -0.446557 1.020835 0.339054
v -0.446557 1.020835 0.306439
v -0.448694 1.015914 0.339054
v -0.448694 1.015914 0.306439
v -0.452384 1.012021 0.339054
v -0.452384 1.012021 0.306439
v -0.457184 1.009625 0.339054
v -0.457184 1.009625 0.306439
v -0.462513 1.009015 0.339054
v -0.462513 1.009015 0.306439
v -0.467730 1.010265 0.339054
v -0.467730 1.010265 0.306439
v -0.472205 1.013223 0.339054
v -0.472205 1.013223 0.306439
vt 0.805556 0.000000
vt 0.750000 -1.000000
vt 0.750000 0.000000
vt 0.805556 -1.000000
vt 0.861111 0.000000
vt 0.861111 -1.000000
vt 0.916667 -1.000000
vt 0.916667 0.000000
vt 0.972222 0.000000
vt 0.972222 -1.000000
vt 1.027778 0.000000
vt 1.027778 -1.000000
vt 0.027778 -1.000000
vt 0.027778 0.000000
vt 0.083333 -1.000000
vt 0.083333 0.000000
vt 0.138889 0.000000
vt 0.138889 -1.000000
vt 0.194444 0.000000
vt 0.194444 -1.000000
vt 0.250000 0.000000
vt 0.250000 -1.000000
vt 0.305556 0.000000
vt 0.305556 -1.000000
vt 0.361111 0.000000
vt 0.361111 -1.000000
vt 0.416667 0.000000
vt 0.416667 -1.000000
vt 0.472222 0.000000
vt 0.472222 -1.000000
vt 0.527778 0.000000
vt 0.527778 -1.000000
vt 0.583333 0.000000
vt 0.583333 -1.000000
vt 0.638889 0.000000
vt 0.638889 -1.000000
vt 0.694444 0.000000
vt 0.694444 -1.000000
vt 0.805556 0.000000
vt 0.750000 -1.000000
vt 0.750000 0.000000
vt 0.805556 -1.000000
vt 0.861111 0.000000
vt 0.861111 -1.000000
vt 0.916667 -1.000000
vt 0.916667 0.000000
vt 0.972222 0.000000
vt 0.972222 -1.000000
vt 1.027778 0.000000
vt 1.027778 -1.000000
vt 0.027778 -1.000000
vt 0.027778 0.000000
vt 0.083333 -1.000000
vt 0.083333 0.000000
vt 0.138889 0.000000
vt 0.138889 -1.000000
vt 0.194444 -1.000000
vt 0.194444 0.000000
vt 0.250000 0.000000
vt 0.250000 -1.000000
vt 0.305556 0.000000
vt 0.305556 -1.000000
vt 0.361111 0.000000
vt 0.361111 -1.000000
vt 0.416667 0.000000
vt 0.416667 -1.000000
vt 0.472222 0.000000
vt 0.472222 -1.000000
vt 0.527778 0.000000
vt 0.527778 -1.000000
vt 0.583333 0.000000
vt 0.583333 -1.000000
vt 0.638889 0.000000
vt 0.638889 -1.000000
vt 0.694444 0.000000
vt 0.694444 -1.000000
vn -0.9935 -0.1137 0.0000
vn -0.8947 -0.4467 0.0000
vn -0.9725 0.2329 0.0000
vn -0.8342 0.5515 0.0000
vn -0.5952 0.8036 0.0000
vn -0.2845 0.9587 -0.0000
vn 0.0605 0.9982 -0.0000
vn 0.3983 0.9173 -0.0000
vn 0.6880 0.7257 -0.0000
vn 0.8947 0.4467 -0.0000
vn 0.9935 0.1137 0.0000
vn 0.9725 -0.2329 0.0000
vn 0.9725 -0.2330 -0.0000
vn 0.8342 -0.5515 0.0000
vn 0.5952 -0.8036 0.0000
vn 0.5952 -0.8035 -0.0000
vn 0.2845 -0.9587 -0.0000
vn -0.0605 -0.9982 0.0000
vn -0.3983 -0.9173 0.0000
vn -0.6880 -0.7257 0.0000
vn -0.2846 0.9587 -0.0001
usemtl cables_black
s 1
f 1/1/1 2/2/2 3/3/2
f 2/2/2 1/1/1 4/4/1
f 5/5/3 4/4/1 1/1/1
f 4/4/1 5/5/3 6/6/3
f 7/7/4 5/5/3 8/8/4
f 5/5/3 7/7/4 6/6/3
f 9/9/5 7/7/4 8/8/4
f 7/7/4 9/9/5 10/10/5
f 10/10/5 11/11/6 12/12/6
f 11/11/6 10/10/5 9/9/5
f 13/13/6 14/14/6 15/15/7
f 15/15/7 14/14/6 16/16/7
f 15/15/7 17/17/8 18/18/8
f 17/17/8 15/15/7 16/16/7
f 18/18/8 19/19/9 20/20/9
f 19/19/9 18/18/8 17/17/8
f 21/21/10 20/20/9 19/19/9
f 20/20/9 21/21/10 22/22/10
f 23/23/11 24/24/11 21/21/10
f 22/22/10 21/21/10 24/24/11
f 25/25/12 26/26/13 23/23/11
f 24/24/11 23/23/11 26/26/13
f 27/27/14 26/26/13 25/25/12
f 26/26/13 27/27/14 28/28/14
f 29/29/15 30/30/16 27/27/14
f 28/28/14 27/27/14 30/30/16
f 31/31/17 30/30/16 29/29/15
f 30/30/16 31/31/17 32/32/17
f 33/33/18 32/32/17 31/31/17
f 32/32/17 33/33/18 34/34/18
f 35/35/19 36/36/19 33/33/18
f 33/33/18 36/36/19 34/34/18
f 37/37/20 38/38/20 35/35/19
f 35/35/19 38/38/20 36/36/19
f 2/2/2 37/37/20 3/3/2
f 37/37/20 2/2/2 38/38/20
f 39/39/1 40/40/2 41/41/2
f 40/40/2 39/39/1 42/42/1
f 43/43/3 42/42/1 39/39/1
f 42/42/1 43/43/3 44/44/3
f 45/45/4 43/43/3 46/46/4
f 43/43/3 45/45/4 44/44/3
f 47/47/5 45/45/4 46/46/4
f 45/45/4 47/47/5 48/48/5
f 48/48/5 49/49/6 50/50/6
f 49/49/6 48/48/5 47/47/5
f 51/51/6 52/52/21 53/53/7
f 53/53/7 52/52/21 54/54/7
f 53/53/7 55/55/8 56/56/8
f 55/55/8 53/53/7 54/54/7
f 56/56/8 55/55/8 57/57/9
f 57/57/9 55/55/8 58/58/9
f 59/59/10 57/57/9 58/58/9
f 57/57/9 59/59/10 60/60/10
f 61/61/11 62/62/11 59/59/10
f 60/60/10 59/59/10 62/62/11
f 63/63/12 64/64/13 61/61/11
f 62/62/11 61/61/11 64/64/13
f 65/65/14 64/64/13 63/63/12
f 64/64/13 65/65/14 66/66/14
f 67/67/16 68/68/15 65/65/14
f 66/66/14 65/65/14 68/68/15
f 69/69/17 70/70/17 67/67/16
f 67/67/16 70/70/17 68/68/15
f 71/71/18 70/70/17 69/69/17
f 70/70/17 71/71/18 72/72/18
f 73/73/19 74/74/19 71/71/18
f 71/71/18 74/74/19 72/72/18
f 75/75/20 74/74/19 73/73/19
f 74/74/19 75/75/20 76/76/20
f 40/40/2 75/75/20 41/41/2
f 75/75/20 40/40/2 76/76/20
