# Blender v3.5.1 OBJ File: 'f1.blend'
# www.blender.org
mtllib Mesh_191.mtl
o Mesh_191
v -1.092952 0.826301 -3.981791
v -0.030493 0.815359 -3.815450
v -0.030493 0.814302 -3.833128
v -1.092952 0.825566 -3.998500
v -1.092950 0.802232 -3.917270
v -0.030491 0.790772 -3.748491
v -0.030492 0.798747 -3.752575
v -1.092950 0.810123 -3.921360
v -1.092949 0.787106 -3.918183
v -0.030490 0.769953 -3.765911
v -0.030490 0.775474 -3.749039
v -1.092949 0.781903 -3.935589
v -1.092949 0.787106 -3.918183
v -0.030490 0.775474 -3.749039
v -0.030491 0.782448 -3.747320
v -1.092949 0.793956 -3.916161
v -1.092948 0.778580 -3.980641
v -0.030490 0.764758 -3.859650
v -0.030490 0.766002 -3.810215
v -1.092948 0.777794 -4.030315
v -1.092951 0.823559 -3.950295
v -0.030493 0.812837 -3.782250
v -0.030493 0.815099 -3.797637
v -1.092951 0.825813 -3.965010
v -1.092950 0.811592 -4.100485
v -0.030492 0.800161 -3.933298
v -0.030492 0.794203 -3.960376
v -1.092950 0.805893 -4.127338
v -0.030493 0.812609 -3.848128
v -1.092951 0.824146 -4.013012
v -0.030493 0.810541 -3.862809
v -1.092951 0.822196 -4.027865
v -1.092949 0.784455 -4.084693
v -0.030490 0.776989 -3.942663
v -0.030490 0.771934 -3.916331
v -1.092949 0.789437 -4.110167
v -1.092949 0.794817 -4.130066
v -0.030491 0.788232 -3.969607
v -0.030491 0.782433 -3.963026
v -1.092950 0.800302 -4.136493
v -1.092951 0.815822 -3.928279
v -0.030492 0.804673 -3.759593
v -0.030492 0.809164 -3.769501
v -1.092951 0.820057 -3.937950
v -0.030490 0.767300 -3.891845
v -1.092948 0.780166 -4.061540
v -0.030492 0.808358 -3.879533
v -1.092951 0.819868 -4.045599
v -0.030492 0.805187 -3.901851
v -1.092951 0.816539 -4.068910
v -0.030491 0.782433 -3.963026
v -1.092949 0.794817 -4.130066
v -1.092950 0.805893 -4.127338
v -0.030492 0.794203 -3.960376
v -0.030492 0.804673 -3.759593
v -1.092951 0.815822 -3.928279
vt 16.309412 -10.065392
vt 49.499584 33.078674
vt 50.115906 32.429909
vt 16.891920 -10.678562
vt 31.591209 -25.576498
vt 0.878222 -69.725769
vt 0.549387 -69.491676
vt 31.265785 -25.344831
vt 8.808099 -3.914030
vt 43.156006 38.177914
vt 43.887566 37.737335
vt 8.053381 -3.459489
vt 32.214931 -26.020521
vt 1.509050 -70.174850
vt 1.221457 -69.970139
vt 31.932457 -25.819427
vt 6.099901 -2.282990
vt 39.091469 40.625847
vt 41.234997 39.334881
vt 3.946045 -0.985795
vt 15.211377 -8.909548
vt 48.342175 34.296993
vt 48.878571 33.732368
vt 15.724406 -9.449572
vt 20.447371 -14.421125
vt 53.608032 28.753988
vt 54.552048 27.760296
vt 21.383511 -15.406538
vt 50.638821 31.879475
vt 17.397848 -11.211096
vt 51.150627 31.340733
vt 17.915661 -11.756172
vt 1.588198 0.434251
vt 35.492004 42.793671
vt 36.633751 42.106041
vt 0.483633 1.099507
vt -14.587263 -59.001453
vt 16.875685 -15.386057
vt 17.114830 -15.556292
vt -14.813435 -58.840446
vt 14.443862 -8.101639
vt 47.552299 35.128448
vt 47.897697 34.764870
vt 14.781003 -8.456516
vt 37.695461 41.466606
vt 2.592124 -0.170377
vt 51.733669 30.727011
vt 18.533886 -12.406923
vt 52.511749 29.907963
vt 19.346603 -13.262402
vt 34.609066 43.325439
vt -0.379207 1.619147
vt -15.043964 -58.676334
vt 16.629498 -15.210798
vt 0.305044 -69.317734
vt 31.030815 -25.177559
vn 0.0133 0.9997 -0.0189
vn 0.0121 0.9999 -0.0116
vn 0.0224 0.9969 -0.0759
vn 0.0232 0.9964 -0.0811
vn -0.1463 0.3038 0.9414
vn -0.1470 0.2923 0.9450
vn -0.1179 0.6108 0.7829
vn -0.1150 0.6319 0.7664
vn -0.1181 -0.7120 0.6922
vn -0.0432 -0.9786 0.2014
vn -0.1242 -0.6671 0.7346
vn -0.0399 -0.9828 0.1802
vn -0.1180 -0.7120 0.6922
vn -0.1243 -0.6668 0.7348
vn -0.1574 -0.0633 0.9855
vn -0.0194 -0.9987 0.0477
vn -0.0084 -0.9997 -0.0235
vn -0.0204 -0.9983 0.0539
vn -0.0068 -0.9994 -0.0334
vn -0.0226 0.9783 0.2058
vn -0.0246 0.9756 0.2181
vn -0.0043 0.9958 0.0914
vn -0.0023 0.9969 0.0788
vn 0.0399 0.9817 -0.1864
vn 0.0391 0.9827 -0.1812
vn 0.0672 0.9297 -0.3622
vn 0.0715 0.9178 -0.3907
vn 0.0291 0.9925 -0.1184
vn 0.0296 0.9922 -0.1213
vn 0.0314 0.9907 -0.1326
vn 0.0313 0.9908 -0.1319
vn 0.0181 -0.9821 -0.1875
vn 0.0235 -0.9749 -0.2216
vn 0.0180 -0.9822 -0.1871
vn 0.0246 -0.9732 -0.2284
vn 0.0663 -0.8714 -0.4861
vn 0.1554 0.0759 -0.9849
vn 0.0604 -0.8908 -0.4503
vn 0.1554 0.0752 -0.9850
vn -0.0731 0.8529 0.5170
vn -0.0765 0.8399 0.5374
vn -0.0455 0.9364 0.3479
vn -0.0435 0.9412 0.3351
vn 0.0080 -0.9920 -0.1256
vn 0.0098 -0.9906 -0.1363
vn 0.0317 0.9904 -0.1344
vn 0.0320 0.9902 -0.1362
vn 0.0339 0.9884 -0.1480
vn 0.0340 0.9882 -0.1491
vn 0.0605 -0.8908 -0.4503
vn 0.0663 -0.8714 -0.4860
vn 0.0715 0.9177 -0.3907
vn -0.0765 0.8398 0.5374
usemtl carbon
s 1
f 1/1/1 2/2/2 3/3/3
f 3/3/3 4/4/4 1/1/1
f 5/5/5 6/6/6 7/7/7
f 7/7/7 8/8/8 5/5/5
f 9/9/9 10/10/10 11/11/11
f 10/10/10 9/9/9 12/12/12
f 13/13/13 14/14/14 15/15/15
f 15/15/15 16/16/15 13/13/13
f 17/17/16 18/18/17 19/19/18
f 18/18/17 17/17/16 20/20/19
f 12/12/12 19/19/18 10/10/10
f 19/19/18 12/12/12 17/17/16
f 21/21/20 22/22/21 23/23/22
f 23/23/22 24/24/23 21/21/20
f 25/25/24 26/26/25 27/27/26
f 27/27/26 28/28/27 25/25/24
f 4/4/4 3/3/3 29/29/28
f 29/29/28 30/30/29 4/4/4
f 30/30/29 29/29/28 31/31/30
f 31/31/30 32/32/31 30/30/29
f 33/33/32 34/34/33 35/35/34
f 34/34/33 33/33/32 36/36/35
f 37/37/36 38/38/37 39/39/38
f 38/38/37 37/37/36 40/40/39
f 41/41/40 42/42/41 43/43/42
f 43/43/42 44/44/43 41/41/40
f 20/20/19 45/45/44 18/18/17
f 45/45/44 20/20/19 46/46/45
f 32/32/31 31/31/30 47/47/46
f 47/47/46 48/48/47 32/32/31
f 48/48/47 47/47/46 49/49/48
f 49/49/48 50/50/49 48/48/47
f 2/2/2 1/1/1 24/24/23
f 2/2/2 24/24/23 23/23/22
f 6/6/6 5/5/5 16/16/15
f 6/6/6 16/16/15 15/15/15
f 22/22/21 21/21/20 44/44/43
f 22/22/21 44/44/43 43/43/42
f 26/26/25 25/25/24 50/50/49
f 26/26/25 50/50/49 49/49/48
f 36/36/35 51/51/50 34/34/33
f 51/51/50 36/36/35 52/52/51
f 38/38/37 40/40/39 53/53/52
f 38/38/37 53/53/52 54/54/26
f 55/55/53 56/56/40 8/8/8
f 55/55/53 8/8/8 7/7/7
f 46/46/45 35/35/34 45/45/44
f 35/35/34 46/46/45 33/33/32
