# Blender v3.5.1 OBJ File: 'f1.blend'
# www.blender.org
mtllib Mesh_267.mtl
o Mesh_260_Mesh_267
v 0.921157 0.951850 3.261900
v 1.008385 0.949566 3.231623
v 0.916195 0.953030 3.239073
v 1.012432 0.948694 3.254497
v 0.923295 0.948754 3.272009
v 1.014168 0.945801 3.264469
v 0.925160 0.943977 3.280985
v 1.015630 0.941062 3.272902
v 0.629695 0.958361 3.281918
v 0.582432 0.959043 3.284960
v 0.583727 0.954826 3.294774
v 0.631429 0.954310 3.291821
v 0.625398 0.961165 3.260303
v 0.579069 0.962129 3.263602
v 0.698997 0.959432 3.254883
v 0.704073 0.957079 3.276774
v 0.706222 0.953292 3.286722
v 0.584936 0.949057 3.303991
v 0.633013 0.948725 3.301106
v 0.708148 0.947972 3.295972
v 0.999986 0.948245 3.185006
v 0.905864 0.952061 3.192908
v 0.811653 0.951346 3.279597
v 0.809362 0.954778 3.269575
v 0.804035 0.956521 3.247250
v 0.813683 0.946336 3.288759
v 0.792923 0.956464 3.202849
v 0.688326 0.960446 3.212209
v 0.616161 0.963010 3.218623
v 0.571686 0.964506 3.222476
vt 0.744811 -0.603202
vt 0.790385 -0.610099
vt 0.744341 -0.614687
vt 0.790401 -0.598705
vt 0.744990 -0.597820
vt 0.790394 -0.593446
vt 0.745132 -0.592807
vt 0.790385 -0.588732
vt 0.599544 -0.618878
vt 0.576005 -0.621475
vt 0.575795 -0.616173
vt 0.599542 -0.613517
vt 0.599297 -0.629917
vt 0.576196 -0.632344
vt 0.636011 -0.626123
vt 0.636617 -0.614939
vt 0.636816 -0.609553
vt 0.575593 -0.610984
vt 0.599519 -0.608285
vt 0.636965 -0.604339
vt 0.790280 -0.632972
vt 0.743245 -0.637546
vt 0.689354 -0.603874
vt 0.689091 -0.609267
vt 0.688399 -0.620608
vt 0.689561 -0.598731
vt 0.686765 -0.642795
vt 0.634445 -0.647571
vt 0.598352 -0.650866
vt 0.576116 -0.652934
vn 0.0429 0.9847 0.1691
vn 0.0378 0.9993 0.0047
vn 0.0353 0.9993 0.0110
vn 0.0477 0.9852 0.1649
vn 0.0550 0.9238 0.3788
vn 0.0626 0.9229 0.3799
vn 0.0609 0.8821 0.4671
vn 0.0689 0.8808 0.4684
vn 0.0326 0.9681 0.2486
vn 0.0311 0.9672 0.2522
vn 0.0375 0.8930 0.4485
vn 0.0397 0.8963 0.4417
vn 0.0291 0.9965 0.0787
vn 0.0286 0.9959 0.0854
vn 0.0308 0.9979 0.0568
vn 0.0352 0.9740 0.2239
vn 0.0433 0.9068 0.4194
vn 0.0392 0.8543 0.5184
vn 0.0416 0.8598 0.5090
vn 0.0459 0.8704 0.4901
vn 0.0363 0.9988 -0.0321
vn 0.0347 0.9991 -0.0253
vn 0.0463 0.9174 0.3953
vn 0.0375 0.9801 0.1948
vn 0.0324 0.9990 0.0314
vn 0.0498 0.8799 0.4725
vn 0.0334 0.9994 -0.0070
vn 0.0323 0.9994 0.0158
vn 0.0311 0.9989 0.0364
vn 0.0306 0.9985 0.0448
usemtl decals
s 1
f 1/1/1 2/2/2 3/3/3
f 2/2/2 1/1/1 4/4/4
f 4/4/4 5/5/5 6/6/6
f 5/5/5 4/4/4 1/1/1
f 7/7/7 6/6/6 5/5/5
f 6/6/6 7/7/7 8/8/8
f 9/9/9 10/10/10 11/11/11
f 9/9/9 11/11/11 12/12/12
f 13/13/13 14/14/14 10/10/10
f 13/13/13 10/10/10 9/9/9
f 9/9/9 15/15/15 13/13/13
f 15/15/15 9/9/9 16/16/16
f 12/12/12 16/16/16 9/9/9
f 16/16/16 12/12/12 17/17/17
f 12/12/12 11/11/11 18/18/18
f 12/12/12 18/18/18 19/19/19
f 19/19/19 17/17/17 12/12/12
f 17/17/17 19/19/19 20/20/20
f 21/21/21 3/3/3 2/2/2
f 3/3/3 21/21/21 22/22/22
f 1/1/1 23/23/23 5/5/5
f 23/23/23 1/1/1 24/24/24
f 24/24/24 17/17/17 23/23/23
f 17/17/17 24/24/24 16/16/16
f 16/16/16 25/25/25 15/15/15
f 25/25/25 16/16/16 24/24/24
f 24/24/24 3/3/3 25/25/25
f 3/3/3 24/24/24 1/1/1
f 20/20/20 23/23/23 17/17/17
f 23/23/23 20/20/20 26/26/26
f 26/26/26 5/5/5 23/23/23
f 5/5/5 26/26/26 7/7/7
f 25/25/25 22/22/22 27/27/27
f 22/22/22 25/25/25 3/3/3
f 15/15/15 27/27/27 28/28/28
f 27/27/27 15/15/15 25/25/25
f 29/29/29 30/30/30 14/14/14
f 14/14/14 13/13/13 29/29/29
f 13/13/13 28/28/28 29/29/29
f 28/28/28 13/13/13 15/15/15
