# Blender v3.5.1 OBJ File: 'f1.blend'
# www.blender.org
mtllib Mesh_139.mtl
o Mesh_139
v -0.019288 1.877167 -4.989682
v -0.016617 1.878960 -4.990585
v -0.018529 1.878687 -4.992065
v -0.016643 1.878025 -4.989129
v -0.016459 1.879785 -4.993821
v -0.015130 1.879424 -4.991342
v -0.013631 1.880165 -4.994476
v -0.013618 1.879865 -4.992061
v -0.010803 1.879726 -4.993856
v -0.012107 1.879393 -4.991362
v -0.010620 1.878898 -4.990624
v -0.008733 1.878585 -4.992127
v -0.007976 1.877049 -4.989753
v -0.010596 1.877962 -4.989169
v -0.008735 1.875528 -4.987370
v -0.010621 1.877026 -4.987712
v -0.010806 1.874430 -4.985614
v -0.012108 1.876562 -4.986955
v -0.013634 1.874050 -4.984959
v -0.013620 1.876121 -4.986235
v -0.015132 1.876593 -4.986936
v -0.016461 1.874489 -4.985579
v -0.016618 1.877089 -4.987672
v -0.018531 1.875630 -4.987308
v -0.013619 1.878027 -4.989126
v -0.016617 1.878960 -4.990585
v -0.016643 1.878025 -4.989129
v -0.015130 1.879424 -4.991342
v -0.013618 1.879865 -4.992061
v -0.012107 1.879393 -4.991362
v -0.010620 1.878898 -4.990624
v -0.010596 1.877962 -4.989169
v -0.010621 1.877026 -4.987712
v -0.012108 1.876562 -4.986955
v -0.013620 1.876121 -4.986235
v -0.015132 1.876593 -4.986936
v -0.016618 1.877089 -4.987672
v -0.019307 1.875970 -4.990499
v -0.019288 1.877167 -4.989682
v -0.018529 1.878687 -4.992065
v -0.018548 1.877491 -4.992884
v -0.018548 1.877491 -4.992884
v -0.018529 1.878687 -4.992065
v -0.016459 1.879785 -4.993821
v -0.016478 1.878588 -4.994639
v -0.013650 1.878968 -4.995295
v -0.016459 1.879785 -4.993821
v -0.013631 1.880165 -4.994476
v -0.016478 1.878588 -4.994639
v -0.010822 1.878529 -4.994675
v -0.013650 1.878968 -4.995295
v -0.010803 1.879726 -4.993856
v -0.013631 1.880165 -4.994476
v -0.008752 1.877389 -4.992947
v -0.010803 1.879726 -4.993856
v -0.008733 1.878585 -4.992127
v -0.010822 1.878529 -4.994675
v -0.007996 1.875852 -4.990573
v -0.008733 1.878585 -4.992127
v -0.007976 1.877049 -4.989753
v -0.008752 1.877389 -4.992947
v -0.008754 1.874331 -4.988188
v -0.007976 1.877049 -4.989753
v -0.008735 1.875528 -4.987370
v -0.007996 1.875852 -4.990573
v -0.010825 1.873233 -4.986433
v -0.008735 1.875528 -4.987370
v -0.010806 1.874430 -4.985614
v -0.008754 1.874331 -4.988188
v -0.013653 1.872853 -4.985778
v -0.010825 1.873233 -4.986433
v -0.013634 1.874050 -4.984959
v -0.010806 1.874430 -4.985614
v -0.013634 1.874050 -4.984959
v -0.016480 1.873293 -4.986398
v -0.013653 1.872853 -4.985778
v -0.016461 1.874489 -4.985579
v -0.016480 1.873293 -4.986398
v -0.016461 1.874489 -4.985579
v -0.018531 1.875630 -4.987308
v -0.018550 1.874433 -4.988125
v -0.018550 1.874433 -4.988125
v -0.018531 1.875630 -4.987308
v -0.019288 1.877167 -4.989682
v -0.019307 1.875970 -4.990499
v 0.019288 1.877167 -4.989682
v 0.018529 1.878687 -4.992065
v 0.016617 1.878960 -4.990585
v 0.016643 1.878025 -4.989129
v 0.016459 1.879785 -4.993821
v 0.015130 1.879424 -4.991342
v 0.013631 1.880165 -4.994476
v 0.013618 1.879865 -4.992061
v 0.010803 1.879726 -4.993856
v 0.012107 1.879393 -4.991362
v 0.010620 1.878898 -4.990624
v 0.008733 1.878585 -4.992127
v 0.007976 1.877049 -4.989753
v 0.010596 1.877962 -4.989169
v 0.008735 1.875528 -4.987370
v 0.010621 1.877026 -4.987712
v 0.010806 1.874430 -4.985614
v 0.012108 1.876562 -4.986955
v 0.013634 1.874050 -4.984959
v 0.013620 1.876121 -4.986235
v 0.015132 1.876593 -4.986936
v 0.016461 1.874489 -4.985579
v 0.016618 1.877089 -4.987672
v 0.018531 1.875630 -4.987308
v 0.013619 1.878027 -4.989126
v 0.016643 1.878025 -4.989129
v 0.016617 1.878960 -4.990585
v 0.015130 1.879424 -4.991342
v 0.013618 1.879865 -4.992061
v 0.012107 1.879393 -4.991362
v 0.010620 1.878898 -4.990624
v 0.010596 1.877962 -4.989169
v 0.010621 1.877026 -4.987712
v 0.012108 1.876562 -4.986955
v 0.013620 1.876121 -4.986235
v 0.015132 1.876593 -4.986936
v 0.016618 1.877089 -4.987672
v 0.019307 1.875970 -4.990499
v 0.018529 1.878687 -4.992065
v 0.019288 1.877167 -4.989682
v 0.018548 1.877491 -4.992884
v 0.018548 1.877491 -4.992884
v 0.016459 1.879785 -4.993821
v 0.018529 1.878687 -4.992065
v 0.016478 1.878588 -4.994639
v 0.016459 1.879785 -4.993821
v 0.013650 1.878968 -4.995295
v 0.013631 1.880165 -4.994476
v 0.016478 1.878588 -4.994639
v 0.010803 1.879726 -4.993856
v 0.013631 1.880165 -4.994476
v 0.013650 1.878968 -4.995295
v 0.010822 1.878529 -4.994675
v 0.008752 1.877389 -4.992947
v 0.010803 1.879726 -4.993856
v 0.010822 1.878529 -4.994675
v 0.008733 1.878585 -4.992127
v 0.007996 1.875852 -4.990573
v 0.008733 1.878585 -4.992127
v 0.008752 1.877389 -4.992947
v 0.007976 1.877049 -4.989753
v 0.008754 1.874331 -4.988188
v 0.007976 1.877049 -4.989753
v 0.007996 1.875852 -4.990573
v 0.008735 1.875528 -4.987370
v 0.010825 1.873233 -4.986433
v 0.008735 1.875528 -4.987370
v 0.008754 1.874331 -4.988188
v 0.010806 1.874430 -4.985614
v 0.013634 1.874050 -4.984959
v 0.010806 1.874430 -4.985614
v 0.010825 1.873233 -4.986433
v 0.013653 1.872853 -4.985778
v 0.013634 1.874050 -4.984959
v 0.016480 1.873293 -4.986398
v 0.016461 1.874489 -4.985579
v 0.013653 1.872853 -4.985778
v 0.016480 1.873293 -4.986398
v 0.018531 1.875630 -4.987308
v 0.016461 1.874489 -4.985579
v 0.018550 1.874433 -4.988125
v 0.018550 1.874433 -4.988125
v 0.019288 1.877167 -4.989682
v 0.018531 1.875630 -4.987308
v 0.019307 1.875970 -4.990499
vt -1.466630 0.005122
vt -1.466723 0.005234
vt -1.466421 0.003264
vt -1.466328 0.003153
vt -1.463225 0.000898
vt -1.465175 0.001718
vt -1.463318 0.001010
vt -1.465082 0.001607
vt -1.461256 0.001217
vt -1.463225 0.000898
vt -1.461349 0.001329
vt -1.463318 0.001010
vt -1.458978 0.004343
vt -1.459794 0.002590
vt -1.459071 0.004455
vt -1.459701 0.002478
vt -1.459280 0.006313
vt -1.459071 0.004455
vt -1.459373 0.006424
vt -1.460527 0.007859
vt -1.459373 0.006424
vt -1.460620 0.007970
vt -1.459280 0.006313
vt -1.464353 0.008248
vt -1.462476 0.008679
vt -1.464446 0.008360
vt -1.465907 0.006987
vt -1.466000 0.007099
vt -1.466723 0.005234
vt -1.466630 0.005122
vt -1.466630 0.005122
vt -1.466421 0.003264
vt -1.466723 0.005234
vt -1.466328 0.003153
vt -1.465175 0.001718
vt -1.466328 0.003153
vt -1.465082 0.001607
vt -1.465175 0.001718
vt -1.463225 0.000898
vt -1.463318 0.001010
vt -1.461349 0.001329
vt -1.463225 0.000898
vt -1.461256 0.001217
vt -1.458978 0.004343
vt -1.459794 0.002590
vt -1.459701 0.002478
vt -1.459071 0.004455
vt -1.459071 0.004455
vt -1.459280 0.006313
vt -1.459373 0.006424
vt -1.460527 0.007859
vt -1.459373 0.006424
vt -1.459280 0.006313
vt -1.462476 0.008679
vt -1.464353 0.008248
vt -1.464446 0.008360
vt -1.462383 0.008567
vt -1.466723 0.005234
vt -1.465907 0.006987
vt -1.466630 0.005122
vt -1.466723 0.005234
vt -1.465125 0.003938
vt -1.466421 0.003264
vt -1.465013 0.005113
vt -1.465175 0.001718
vt -1.464185 0.003234
vt -1.463318 0.001010
vt -1.463226 0.002558
vt -1.461349 0.001329
vt -1.462140 0.003025
vt -1.461068 0.003525
vt -1.459794 0.002590
vt -1.459071 0.004455
vt -1.460922 0.004696
vt -1.459373 0.006424
vt -1.460811 0.005872
vt -1.460620 0.007970
vt -1.461751 0.006576
vt -1.462476 0.008679
vt -1.462710 0.007252
vt -1.463796 0.006784
vt -1.464446 0.008360
vt -1.464868 0.006285
vt -1.466000 0.007099
vt -1.462971 0.004907
vt -1.465125 0.003938
vt -1.465013 0.005113
vt -1.464185 0.003234
vt -1.463226 0.002558
vt -1.462140 0.003025
vt -1.461068 0.003525
vt -1.460922 0.004696
vt -1.460811 0.005872
vt -1.461751 0.006576
vt -1.462710 0.007252
vt -1.463796 0.006784
vt -1.464868 0.006285
vt -1.466328 0.003153
vt -1.466421 0.003264
vt -1.465175 0.001718
vt -1.465082 0.001607
vt -1.459701 0.002478
vt -1.461349 0.001329
vt -1.459794 0.002590
vt -1.461256 0.001217
vt -1.458978 0.004343
vt -1.462383 0.008567
vt -1.460527 0.007859
vt -1.462476 0.008679
vt -1.460620 0.007970
vt -1.462383 0.008567
vt -1.464353 0.008248
vt -1.464446 0.008360
vt -1.466000 0.007099
vt -1.465907 0.006987
vt -1.466723 0.005234
vt -1.466421 0.003264
vt -1.465125 0.003938
vt -1.465013 0.005113
vt -1.465175 0.001718
vt -1.464185 0.003234
vt -1.463318 0.001010
vt -1.463226 0.002558
vt -1.461349 0.001329
vt -1.462140 0.003025
vt -1.461068 0.003525
vt -1.459794 0.002590
vt -1.459071 0.004455
vt -1.460922 0.004696
vt -1.459373 0.006424
vt -1.460811 0.005872
vt -1.460620 0.007970
vt -1.461751 0.006576
vt -1.462476 0.008679
vt -1.462710 0.007252
vt -1.463796 0.006784
vt -1.464446 0.008360
vt -1.464868 0.006285
vt -1.466000 0.007099
vt -1.462971 0.004907
vt -1.465013 0.005113
vt -1.465125 0.003938
vt -1.464185 0.003234
vt -1.463226 0.002558
vt -1.462140 0.003025
vt -1.461068 0.003525
vt -1.460922 0.004696
vt -1.460811 0.005872
vt -1.461751 0.006576
vt -1.462710 0.007252
vt -1.463796 0.006784
vt -1.464868 0.006285
vt -1.466421 0.003264
vt -1.465082 0.001607
vt -1.463318 0.001010
vt -1.459701 0.002478
vt -1.461349 0.001329
vt -1.461256 0.001217
vt -1.459794 0.002590
vt -1.458978 0.004343
vt -1.460620 0.007970
vt -1.462476 0.008679
vt -1.460620 0.007970
vt -1.460527 0.007859
vt -1.462383 0.008567
vt -1.464353 0.008248
vt -1.466000 0.007099
vt -1.464446 0.008360
vt -1.465907 0.006987
vt -1.466000 0.007099
vn -0.9656 0.1568 -0.2072
vn -0.9655 0.1570 -0.2075
vn -0.9656 0.1571 -0.2070
vn -0.2582 0.5481 -0.7956
vn -0.2581 0.5484 -0.7954
vn -0.2579 0.5485 -0.7954
vn -0.2578 0.5482 -0.7957
vn 0.2595 0.5425 -0.7990
vn 0.2595 0.5422 -0.7992
vn 0.2594 0.5417 -0.7995
vn 0.2594 0.5419 -0.7994
vn 0.9660 0.1355 -0.2204
vn 0.9661 0.1349 -0.2202
vn 0.9660 0.1350 -0.2203
vn 0.9661 0.1350 -0.2202
vn 0.9656 -0.1569 0.2072
vn 0.9657 -0.1570 0.2069
vn 0.7067 -0.4071 0.5787
vn 0.7065 -0.4071 0.5790
vn 0.7065 -0.4072 0.5788
vn 0.7066 -0.4072 0.5787
vn 0.7064 -0.4072 0.5789
vn -0.2593 -0.5429 0.7988
vn -0.9659 -0.1352 0.2207
vn -0.9659 -0.1355 0.2206
vn -0.9660 -0.1353 0.2205
vn 0.9656 0.1568 -0.2072
vn 0.9656 0.1571 -0.2070
vn 0.7069 0.4067 -0.5787
vn 0.7067 0.4071 -0.5787
vn 0.2583 0.5476 -0.7959
vn 0.2582 0.5480 -0.7956
vn -0.2595 0.5422 -0.7992
vn -0.2595 0.5425 -0.7990
vn -0.9660 0.1354 -0.2202
vn -0.9660 0.1351 -0.2202
vn -0.9661 0.1351 -0.2202
vn -0.9660 0.1357 -0.2202
vn -0.9660 0.1355 -0.2204
vn -0.9657 -0.1571 0.2067
vn -0.9656 -0.1569 0.2072
vn -0.7066 -0.4073 0.5786
vn -0.7065 -0.4072 0.5787
vn -0.7065 -0.4071 0.5789
vn 0.2596 -0.5426 0.7989
vn 0.2592 -0.5430 0.7988
vn 0.2592 -0.5430 0.7987
vn 0.9659 -0.1355 0.2208
vn 0.9659 -0.1354 0.2208
vn 0.9659 -0.1353 0.2205
vn -0.3963 0.7725 0.4962
vn -0.3271 0.8835 0.3352
vn -0.3272 0.8835 0.3352
vn -0.1926 0.9611 0.1978
vn -0.1925 0.9610 0.1983
vn 0.0114 0.9856 0.1686
vn 0.0113 0.9856 0.1688
vn 0.2149 0.9569 0.1955
vn 0.2148 0.9569 0.1955
vn 0.3496 0.8765 0.3311
vn 0.3495 0.8765 0.3310
vn 0.4182 0.7641 0.4912
vn 0.4183 0.7640 0.4912
vn 0.3496 0.6652 0.6597
vn 0.3498 0.6653 0.6596
vn 0.2148 0.5755 0.7891
vn 0.2150 0.5756 0.7890
vn 0.0110 0.5629 0.8264
vn 0.0111 0.5630 0.8264
vn -0.1926 0.5797 0.7918
vn -0.1926 0.5796 0.7918
vn -0.3273 0.6721 0.6642
vn -0.3273 0.6722 0.6641
vn 0.0123 0.8412 0.5405
vn 0.0022 0.8444 0.5357
vn -0.0011 0.8413 0.5406
vn 0.0051 0.8476 0.5306
vn 0.0124 0.8474 0.5308
vn 0.0191 0.8474 0.5306
vn 0.0223 0.8442 0.5356
vn 0.0259 0.8410 0.5405
vn 0.0225 0.8380 0.5452
vn 0.0189 0.8349 0.5501
vn 0.0122 0.8349 0.5503
vn 0.0056 0.8349 0.5503
vn 0.0022 0.8381 0.5455
vn -0.7067 0.4070 -0.5788
vn -0.7066 0.4068 -0.5790
vn -0.7069 0.4066 -0.5788
vn -0.7069 0.4066 -0.5787
vn 0.7071 0.3916 -0.5887
vn 0.7074 0.3911 -0.5888
vn 0.7071 0.3919 -0.5886
vn 0.7072 0.3911 -0.5890
vn 0.9657 -0.1573 0.2068
vn 0.9656 -0.1572 0.2071
vn 0.2576 -0.5496 0.7947
vn 0.2577 -0.5484 0.7955
vn 0.2576 -0.5492 0.7950
vn 0.2577 -0.5480 0.7958
vn -0.2595 -0.5426 0.7989
vn -0.2596 -0.5422 0.7992
vn -0.7074 -0.3914 0.5886
vn -0.7071 -0.3916 0.5887
vn -0.7074 -0.3911 0.5888
vn -0.7077 -0.3903 0.5889
vn 0.3963 0.7724 0.4963
vn 0.3272 0.8835 0.3352
vn 0.3271 0.8835 0.3353
vn 0.3962 0.7725 0.4962
vn 0.1926 0.9611 0.1978
vn 0.1925 0.9610 0.1984
vn -0.0114 0.9856 0.1686
vn -0.0113 0.9856 0.1688
vn -0.2150 0.9569 0.1952
vn -0.2148 0.9569 0.1955
vn -0.3496 0.8765 0.3310
vn -0.3495 0.8765 0.3310
vn -0.4182 0.7641 0.4912
vn -0.4183 0.7640 0.4912
vn -0.3496 0.6652 0.6598
vn -0.3498 0.6653 0.6596
vn -0.2148 0.5756 0.7890
vn -0.2151 0.5757 0.7889
vn -0.0109 0.5630 0.8264
vn -0.0110 0.5631 0.8263
vn 0.1926 0.5797 0.7918
vn 0.1926 0.5796 0.7918
vn 0.3273 0.6722 0.6641
vn -0.0123 0.8412 0.5405
vn 0.0011 0.8413 0.5406
vn -0.0022 0.8444 0.5357
vn -0.0055 0.8475 0.5308
vn -0.0124 0.8474 0.5308
vn -0.0191 0.8474 0.5306
vn -0.0223 0.8442 0.5356
vn -0.0259 0.8410 0.5405
vn -0.0225 0.8380 0.5452
vn -0.0189 0.8349 0.5501
vn -0.0122 0.8349 0.5503
vn -0.0056 0.8349 0.5503
vn -0.0022 0.8381 0.5455
vn 0.7066 0.4069 -0.5789
vn 0.7067 0.4067 -0.5789
vn 0.7066 0.4068 -0.5790
vn 0.2578 0.5478 -0.7959
vn 0.2579 0.5475 -0.7961
vn 0.2579 0.5477 -0.7960
vn -0.2593 0.5423 -0.7992
vn -0.2594 0.5417 -0.7995
vn -0.7071 0.3916 -0.5887
vn -0.7071 0.3913 -0.5889
vn -0.7072 0.3911 -0.5890
vn -0.7068 0.3918 -0.5890
vn -0.9656 -0.1571 0.2073
vn -0.9656 -0.1573 0.2071
vn -0.9657 -0.1573 0.2068
vn -0.7066 -0.4069 0.5789
vn -0.7067 -0.4071 0.5787
vn -0.2576 -0.5493 0.7949
vn -0.2578 -0.5480 0.7957
vn -0.2577 -0.5484 0.7955
vn -0.2576 -0.5496 0.7947
vn 0.7074 -0.3914 0.5886
vn 0.7073 -0.3911 0.5888
vn 0.7070 -0.3916 0.5888
vn 0.7075 -0.3905 0.5890
vn 0.9660 -0.1355 0.2203
vn 0.9660 -0.1354 0.2204
vn 0.9659 -0.1358 0.2204
usemtl black_s
s off
f 38/1/1 39/2/1 40/3/1
f 38/1/2 40/3/3 41/4/3
f 46/5/4 47/6/5 48/7/6
f 47/6/7 46/5/7 49/8/7
f 50/9/8 51/10/9 52/11/8
f 53/12/10 52/11/11 51/10/11
f 58/13/12 59/14/12 60/15/12
f 59/14/13 58/13/14 61/16/15
f 62/17/16 63/18/17 64/19/16
f 66/20/18 67/21/18 68/22/19
f 67/21/20 66/20/21 69/23/22
f 75/24/23 74/25/23 77/26/23
f 82/27/24 83/28/25 84/29/24
f 82/27/26 84/29/26 85/30/26
f 123/31/27 124/32/27 125/33/27
f 124/32/28 123/31/28 126/34/28
f 128/35/29 127/36/30 130/37/29
f 131/38/31 132/39/32 133/40/32
f 135/41/33 137/42/34 138/43/33
f 143/44/35 144/45/36 145/46/37
f 144/45/38 143/44/39 146/47/39
f 148/48/40 147/49/41 150/50/41
f 151/51/42 152/52/43 153/53/44
f 159/54/45 160/55/45 161/56/45
f 160/55/46 159/54/47 162/57/47
f 168/58/48 167/59/49 170/60/50
s 1
f 1/61/51 2/62/52 3/63/53
f 2/62/52 1/61/51 4/64/51
f 2/62/52 5/65/54 3/63/53
f 5/65/54 2/62/52 6/66/55
f 7/67/56 5/65/54 8/68/57
f 5/65/54 6/66/55 8/68/57
f 9/69/58 8/68/57 10/70/59
f 8/68/57 9/69/58 7/67/56
f 9/69/58 11/71/60 12/72/61
f 11/71/60 9/69/58 10/70/59
f 13/73/62 11/71/60 14/74/63
f 11/71/60 13/73/62 12/72/61
f 14/74/63 15/75/64 13/73/62
f 15/75/64 14/74/63 16/76/65
f 17/77/66 16/76/65 18/78/67
f 16/76/65 17/77/66 15/75/64
f 19/79/68 18/78/67 20/80/69
f 18/78/67 19/79/68 17/77/66
f 21/81/70 19/79/68 20/80/69
f 19/79/68 21/81/70 22/82/71
f 21/81/70 23/83/72 22/82/71
f 22/82/71 23/83/72 24/84/73
f 4/64/51 1/61/51 24/84/73
f 4/64/51 24/84/73 23/83/72
f 25/85/74 26/86/75 27/87/76
f 25/85/74 28/88/77 26/86/75
f 25/85/74 29/89/78 28/88/77
f 25/85/74 30/90/79 29/89/78
f 25/85/74 31/91/80 30/90/79
f 25/85/74 32/92/81 31/91/80
f 25/85/74 33/93/82 32/92/81
f 25/85/74 34/94/83 33/93/82
f 25/85/74 35/95/84 34/94/83
f 25/85/74 36/96/85 35/95/84
f 25/85/74 37/97/86 36/96/85
f 25/85/74 27/87/76 37/97/86
f 42/98/87 43/99/88 44/100/89
f 42/98/87 44/100/89 45/101/90
f 54/102/91 55/103/92 56/104/93
f 55/103/92 54/102/91 57/105/94
f 63/18/95 62/17/96 65/106/95
f 70/107/97 71/108/98 72/109/99
f 73/110/100 72/109/99 71/108/98
f 74/25/101 75/24/101 76/111/102
f 78/112/103 79/113/104 80/114/105
f 78/112/103 80/114/105 81/115/106
f 86/116/107 87/117/108 88/118/109
f 86/116/107 88/118/109 89/119/110
f 88/118/109 90/120/111 91/121/112
f 90/120/111 88/118/109 87/117/108
f 92/122/113 93/123/114 90/120/111
f 91/121/112 90/120/111 93/123/114
f 94/124/115 93/123/114 92/122/113
f 93/123/114 94/124/115 95/125/116
f 94/124/115 96/126/117 95/125/116
f 96/126/117 94/124/115 97/127/118
f 96/126/117 98/128/119 99/129/120
f 98/128/119 96/126/117 97/127/118
f 99/129/120 100/130/121 101/131/122
f 100/130/121 99/129/120 98/128/119
f 102/132/123 101/131/122 100/130/121
f 101/131/122 102/132/123 103/133/124
f 103/133/124 104/134/125 105/135/126
f 104/134/125 103/133/124 102/132/123
f 105/135/126 104/134/125 106/136/127
f 104/134/125 107/137/128 106/136/127
f 106/136/127 107/137/128 108/138/129
f 107/137/128 109/139/129 108/138/129
f 89/119/110 109/139/129 86/116/107
f 109/139/129 89/119/110 108/138/129
f 110/140/130 111/141/131 112/142/132
f 110/140/130 112/142/132 113/143/133
f 110/140/130 113/143/133 114/144/134
f 110/140/130 114/144/134 115/145/135
f 110/140/130 115/145/135 116/146/136
f 110/140/130 116/146/136 117/147/137
f 110/140/130 117/147/137 118/148/138
f 110/140/130 118/148/138 119/149/139
f 110/140/130 119/149/139 120/150/140
f 110/140/130 120/150/140 121/151/141
f 110/140/130 121/151/141 122/152/142
f 110/140/130 122/152/142 111/141/131
f 127/36/143 128/35/144 129/153/145
f 132/39/146 131/38/147 134/154/148
f 135/41/149 136/155/150 137/42/149
f 139/156/151 140/157/152 141/158/153
f 140/157/152 139/156/151 142/159/154
f 147/49/155 148/48/156 149/160/157
f 152/52/158 151/51/159 154/161/159
f 155/162/160 156/163/161 157/164/162
f 155/162/160 157/164/162 158/165/163
f 163/166/164 164/167/165 165/168/166
f 164/167/165 163/166/164 166/169/167
f 167/59/168 168/58/169 169/170/170
