# Blender v3.5.1 OBJ File: 'f1.blend'
# www.blender.org
mtllib Mesh_54.mtl
o Mesh_54
v 0.035527 1.391898 -3.728092
v -0.035454 1.391898 -3.728092
v 0.035325 1.395259 -3.728092
v -0.035252 1.395259 -3.728092
v 0.009530 1.428589 -3.728092
v -0.009457 1.428589 -3.728092
v -0.005835 1.431172 -3.728092
v 0.035325 1.395259 -3.728092
v 0.025784 1.413111 -3.728092
v 0.030353 1.407546 -3.728092
v -0.025710 1.413111 -3.728092
v 0.014579 1.424284 -3.728092
v 0.000037 1.432894 -3.728092
v 0.005908 1.431172 -3.728092
v 0.003356 1.432463 -3.728092
v 0.001518 1.432894 -3.728092
v 0.020261 1.418908 -3.728092
v -0.020188 1.418908 -3.728092
v -0.035252 1.395259 -3.728092
v 0.033175 1.402862 -3.728092
v 0.034687 1.398840 -3.728092
v -0.033101 1.402862 -3.728092
v -0.030279 1.407546 -3.728092
v -0.034613 1.398840 -3.728092
v -0.014505 1.424284 -3.728092
v -0.003283 1.432463 -3.728092
v -0.001445 1.432894 -3.728092
v 0.151091 1.119530 -3.728092
v -0.154152 1.125087 -3.728092
v 0.154225 1.125087 -3.728092
v -0.151018 1.119530 -3.728092
v 0.151349 1.087692 -3.728092
v -0.151276 1.087692 -3.728092
v 0.150623 1.092888 -3.728092
v -0.150550 1.092888 -3.728092
v -0.149919 1.098110 -3.728092
v 0.149993 1.098110 -3.728092
v -0.149432 1.103372 -3.728092
v 0.149505 1.103372 -3.728092
v 0.149208 1.108686 -3.728092
v -0.149135 1.108686 -3.728092
v 0.149578 1.114068 -3.728092
v -0.149505 1.114068 -3.728092
v 0.204358 1.241172 -3.728092
v 0.159456 1.130752 -3.728092
v 0.199834 1.265129 -3.728092
v 0.143078 1.349083 -3.728092
v 0.122236 1.362906 -3.728092
v -0.154152 1.125087 -3.728092
v -0.122163 1.362906 -3.728092
v -0.101736 1.373562 -3.728092
v 0.035527 1.391898 -3.728092
v -0.035454 1.391898 -3.728092
v 0.050812 1.389338 -3.728092
v 0.154225 1.125087 -3.728092
v 0.172500 1.141386 -3.728092
v 0.196740 1.173012 -3.728092
v 0.192520 1.163826 -3.728092
v -0.165783 1.136270 -3.728092
v -0.204284 1.241172 -3.728092
v -0.159382 1.130752 -3.728092
v -0.191599 1.289352 -3.728092
v -0.162619 1.332168 -3.728092
v -0.179364 1.312234 -3.728092
v -0.143004 1.349083 -3.728092
v -0.083366 1.380980 -3.728092
v -0.066538 1.385969 -3.728092
v -0.050739 1.389338 -3.728092
v 0.066612 1.385969 -3.728092
v 0.083439 1.380980 -3.728092
v 0.101809 1.373562 -3.728092
v 0.162692 1.332168 -3.728092
v 0.191673 1.289352 -3.728092
v 0.179438 1.312234 -3.728092
v 0.205680 1.219085 -3.728092
v 0.165856 1.136270 -3.728092
v 0.204239 1.200474 -3.728092
v 0.200952 1.185172 -3.728092
v 0.178462 1.145842 -3.728092
v 0.189213 1.157446 -3.728092
v 0.182814 1.149384 -3.728092
v 0.186188 1.152942 -3.728092
v -0.178389 1.145842 -3.728092
v -0.192447 1.163826 -3.728092
v -0.172427 1.141386 -3.728092
v -0.200879 1.185172 -3.728092
v -0.204166 1.200474 -3.728092
v -0.182741 1.149384 -3.728092
v -0.189140 1.157446 -3.728092
v -0.186115 1.152942 -3.728092
v -0.196666 1.173012 -3.728092
v -0.205607 1.219085 -3.728092
v -0.199761 1.265129 -3.728092
vt 0.275827 -0.152019
vt 0.226676 -0.142221
vt 0.185455 -0.253237
vt 0.244518 -0.183345
vt 0.026300 -0.273650
vt 0.026400 -0.273600
vt 0.026300 -0.273762
vt 0.030462 -0.270878
vt 0.036590 -0.272208
vt 0.037607 -0.271807
vt 0.036590 -0.272208
vt 0.030477 -0.273118
vt 0.026300 -0.274100
vt 0.026300 -0.273762
vt 0.026300 -0.273875
vt 0.026300 -0.273988
vt 0.034553 -0.272636
vt 0.034553 -0.272636
vt 0.244518 -0.183345
vt 0.036585 -0.271461
vt 0.034543 -0.271143
vt 0.036585 -0.271461
vt 0.037607 -0.271807
vt 0.034543 -0.271143
vt 0.030477 -0.273118
vt 0.026300 -0.273875
vt 0.026300 -0.273988
vt 0.374168 -0.164153
vt 0.270575 -0.125035
vt 0.185847 -0.182188
vt 0.279286 -0.189388
vt 0.321780 -0.173723
vt 0.268501 -0.194834
vt 0.448056 -0.164463
vt 0.320702 -0.155398
vt 0.279728 -0.195775
vt 0.311048 -0.171123
vt 0.272166 -0.130749
vt 0.219393 -0.168825
vt 0.363743 -0.160602
vt 0.234432 -0.197166
vt 0.448789 -0.172261
vt 0.309538 -0.151750
vt 0.028260 -0.263519
vt 0.043900 -0.251800
vt 0.027250 -0.264750
vt 0.026270 -0.268467
vt 0.026299 -0.269029
vt 0.270575 -0.125035
vt 0.026299 -0.269029
vt 0.026325 -0.269529
vt 0.275827 -0.152019
vt 0.026380 -0.270614
vt 0.026370 -0.270419
vt 0.044050 -0.250888
vt 0.042604 -0.253644
vt 0.035305 -0.258427
vt 0.037177 -0.257365
vt 0.043500 -0.252750
vt 0.028260 -0.263519
vt 0.043900 -0.251800
vt 0.026865 -0.265802
vt 0.026375 -0.267661
vt 0.026550 -0.266793
vt 0.026270 -0.268467
vt 0.026344 -0.269908
vt 0.026360 -0.270225
vt 0.026370 -0.270419
vt 0.026360 -0.270225
vt 0.026344 -0.269908
vt 0.026325 -0.269529
vt 0.026375 -0.267661
vt 0.026865 -0.265802
vt 0.026550 -0.266793
vt 0.029514 -0.262260
vt 0.043500 -0.252750
vt 0.031252 -0.260945
vt 0.033234 -0.259602
vt 0.041711 -0.254472
vt 0.038655 -0.256527
vt 0.040821 -0.255170
vt 0.039934 -0.255802
vt 0.041711 -0.254472
vt 0.037177 -0.257365
vt 0.042604 -0.253644
vt 0.033234 -0.259602
vt 0.031252 -0.260945
vt 0.040821 -0.255170
vt 0.038655 -0.256527
vt 0.039934 -0.255802
vt 0.035305 -0.258427
vt 0.029514 -0.262260
vt 0.027250 -0.264750
vn 0.0000 0.0000 -1.0000
vn 0.0000 -0.0003 -1.0000
vn -0.0000 0.0003 -1.0000
vn -0.0000 -0.0016 -1.0000
vn -0.0000 -0.0015 -1.0000
vn 0.0002 0.0006 -1.0000
vn 0.0002 0.0003 -1.0000
vn 0.0003 0.0000 -1.0000
vn -0.0000 -0.0005 -1.0000
vn -0.0003 -0.0006 -1.0000
vn -0.0003 -0.0003 -1.0000
vn -0.0000 0.0014 -1.0000
vn -0.0000 0.0015 -1.0000
vn 0.0001 0.0000 -1.0000
vn -0.0001 0.0000 -1.0000
vn -0.0003 0.0000 -1.0000
vn -0.0002 0.0000 -1.0000
usemtl BLACK
s off
f 1/1/1 2/2/2 3/3/2
f 4/4/3 3/3/3 2/2/1
f 5/5/2 6/6/1 7/7/3
f 8/8/3 9/9/3 10/10/3
f 8/8/1 11/11/1 9/9/1
f 12/12/1 6/6/1 5/5/1
f 13/13/1 14/14/1 7/7/3
f 15/15/4 13/13/5 16/16/5
f 14/14/6 13/13/6 15/15/7
f 5/5/1 7/7/1 14/14/1
f 17/17/1 18/18/1 12/12/1
f 9/9/1 18/18/1 17/17/1
f 11/11/1 8/8/1 19/19/1
f 20/20/1 8/8/1 10/10/1
f 8/8/1 20/20/1 21/21/1
f 19/19/8 22/22/8 23/23/8
f 22/22/2 19/19/2 24/24/9
f 11/11/1 19/19/1 23/23/1
f 18/18/1 9/9/1 11/11/1
f 25/25/1 12/12/1 18/18/1
f 6/6/1 12/12/1 25/25/1
f 13/13/10 7/7/11 26/26/10
f 13/13/12 26/26/12 27/27/13
f 28/28/1 29/29/1 30/30/1
f 29/29/1 28/28/1 31/31/1
f 32/32/1 33/33/1 34/34/1
f 35/35/1 34/34/1 33/33/1
f 34/34/1 36/36/1 37/37/1
f 36/36/1 34/34/1 35/35/1
f 37/37/1 38/38/1 39/39/1
f 38/38/1 37/37/1 36/36/1
f 39/39/1 38/38/1 40/40/1
f 41/41/1 40/40/1 38/38/1
f 40/40/1 41/41/1 42/42/1
f 43/43/1 42/42/1 41/41/1
f 42/42/1 31/31/1 28/28/1
f 31/31/1 42/42/2 43/43/1
f 44/44/1 45/45/1 46/46/1
f 47/47/1 45/45/1 48/48/1
f 49/49/1 50/50/1 51/51/1
f 52/52/1 49/49/1 53/53/1
f 54/54/1 55/55/1 52/52/1
f 56/56/14 57/57/14 58/58/14
f 59/59/14 60/60/14 61/61/14
f 61/61/1 62/62/1 63/63/1
f 63/63/15 62/62/15 64/64/15
f 65/65/1 61/61/1 63/63/1
f 50/50/1 61/61/1 65/65/1
f 50/50/1 49/49/1 61/61/1
f 49/49/1 51/51/1 66/66/1
f 49/49/1 66/66/1 67/67/1
f 49/49/1 67/67/1 68/68/1
f 49/49/1 68/68/1 53/53/1
f 69/69/1 55/55/1 54/54/1
f 70/70/1 55/55/1 69/69/1
f 71/71/1 55/55/1 70/70/1
f 48/48/1 55/55/1 71/71/1
f 72/72/1 45/45/1 47/47/1
f 46/46/1 45/45/1 73/73/1
f 73/73/14 72/72/14 74/74/14
f 73/73/1 45/45/1 72/72/1
f 75/75/1 76/76/1 44/44/1
f 77/77/1 76/76/1 75/75/1
f 78/78/15 76/76/15 77/77/15
f 57/57/1 56/56/1 78/78/1
f 58/58/1 79/79/1 56/56/1
f 80/80/1 79/79/1 58/58/1
f 81/81/9 80/80/2 82/82/9
f 79/79/16 80/80/16 81/81/16
f 76/76/1 78/78/1 56/56/1
f 45/45/15 44/44/15 76/76/15
f 55/55/1 48/48/1 45/45/1
f 49/49/1 52/52/1 55/55/1
f 83/83/1 84/84/1 85/85/1
f 59/59/14 86/86/14 87/87/14
f 86/86/15 59/59/15 85/85/15
f 88/88/1 89/89/1 83/83/1
f 89/89/9 88/88/9 90/90/9
f 84/84/1 83/83/1 89/89/1
f 91/91/17 85/85/17 84/84/17
f 86/86/1 85/85/1 91/91/1
f 92/92/1 59/59/1 87/87/1
f 60/60/1 59/59/1 92/92/1
f 93/93/1 61/61/1 60/60/1
f 62/62/1 61/61/1 93/93/1
