# Blender v3.5.1 OBJ File: 'f1.blend'
# www.blender.org
mtllib Mesh_6.mtl
o Mesh_6
v 0.003105 1.921117 2.211767
v 0.003105 1.937032 2.213878
v 0.003463 1.920911 2.213319
v 0.003463 1.936826 2.215431
v 0.002104 1.921282 2.210521
v 0.002104 1.937197 2.212633
v 0.002104 1.937197 2.212633
v 0.000657 1.921373 2.209831
v 0.000657 1.937289 2.211942
v 0.002104 1.921282 2.210521
v -0.000950 1.921373 2.209831
v -0.000950 1.937289 2.211942
v -0.002397 1.937197 2.212633
v -0.002397 1.921282 2.210521
v -0.002397 1.937197 2.212633
v -0.003399 1.921117 2.211767
v -0.003399 1.937032 2.213878
v -0.002397 1.921282 2.210521
v -0.003756 1.920911 2.213319
v -0.003756 1.936826 2.215431
v -0.003399 1.936620 2.216983
v -0.003399 1.920705 2.214872
v -0.002397 1.936455 2.218228
v -0.002397 1.920539 2.216117
v -0.002397 1.936455 2.218228
v -0.002397 1.920539 2.216117
v -0.000950 1.936363 2.218920
v -0.000950 1.920448 2.216808
v 0.000657 1.936363 2.218920
v 0.000657 1.920448 2.216808
v 0.002104 1.920539 2.216117
v 0.002104 1.936455 2.218228
v 0.003105 1.920705 2.214872
v 0.002104 1.936455 2.218228
v 0.002104 1.920539 2.216117
v 0.003105 1.936620 2.216983
v 0.002565 1.920487 2.211946
v 0.002863 1.920316 2.213241
v 0.001913 1.920316 2.213241
v 0.001709 1.920433 2.212355
v 0.001730 1.920625 2.210908
v 0.001138 1.920527 2.211644
v 0.000523 1.920702 2.210332
v 0.000312 1.920580 2.211250
v -0.000605 1.920580 2.211250
v -0.000816 1.920702 2.210332
v -0.001431 1.920527 2.211644
v -0.002023 1.920625 2.210908
v -0.002002 1.920433 2.212355
v -0.002858 1.920487 2.211946
v -0.002206 1.920316 2.213241
v -0.003156 1.920316 2.213241
v -0.002858 1.920144 2.214535
v -0.002002 1.920198 2.214127
v -0.001431 1.920104 2.214837
v -0.002023 1.920006 2.215573
v -0.000816 1.919930 2.216149
v -0.000605 1.920051 2.215231
v 0.000523 1.919930 2.216149
v 0.000312 1.920051 2.215231
v 0.001138 1.920104 2.214837
v 0.001730 1.920006 2.215573
v 0.001709 1.920198 2.214127
v 0.002565 1.920144 2.214535
v -0.000147 1.937421 2.215510
v 0.002863 1.937421 2.215510
v 0.002565 1.937592 2.214215
v 0.002565 1.937249 2.216804
v 0.001730 1.937111 2.217843
v 0.000523 1.937035 2.218418
v -0.000816 1.937035 2.218418
v -0.002023 1.937111 2.217843
v -0.002858 1.937249 2.216804
v -0.003156 1.937421 2.215510
v -0.002858 1.937592 2.214215
v -0.002023 1.937730 2.213177
v -0.000816 1.937807 2.212601
v 0.000523 1.937807 2.212601
v 0.001730 1.937730 2.213177
v 0.002970 1.920662 2.211772
v 0.003313 1.920464 2.213260
v 0.002010 1.920820 2.210579
v 0.002010 1.920820 2.210579
v 0.000623 1.920908 2.209917
v -0.000917 1.920908 2.209917
v -0.002304 1.920820 2.210579
v -0.002304 1.920820 2.210579
v -0.003264 1.920662 2.211772
v -0.003606 1.920464 2.213260
v -0.003264 1.920267 2.214748
v -0.002304 1.920109 2.215941
v -0.002304 1.920109 2.215941
v -0.000917 1.920021 2.216604
v 0.000623 1.920021 2.216604
v 0.002010 1.920109 2.215941
v 0.002010 1.920109 2.215941
v 0.002970 1.920267 2.214748
v 0.002970 1.937470 2.214002
v 0.003313 1.937272 2.215490
v 0.002970 1.937075 2.216978
v 0.002010 1.936916 2.218172
v 0.002010 1.936916 2.218172
v 0.000623 1.936828 2.218834
v -0.000917 1.936828 2.218834
v -0.002304 1.936916 2.218172
v -0.002304 1.936916 2.218172
v -0.003264 1.937075 2.216979
v -0.003606 1.937272 2.215490
v -0.003264 1.937470 2.214002
v -0.002304 1.937628 2.212809
v -0.002304 1.937628 2.212809
v -0.000917 1.937716 2.212147
v 0.000623 1.937716 2.212147
v 0.002010 1.937628 2.212809
v 0.002010 1.937628 2.212809
v 0.002970 1.920662 2.211772
v 0.003313 1.920464 2.213260
v 0.002010 1.920820 2.210579
v 0.000623 1.920908 2.209917
v -0.000917 1.920908 2.209917
v -0.002304 1.920820 2.210579
v -0.003264 1.920662 2.211772
v -0.003606 1.920464 2.213260
v -0.003264 1.920267 2.214748
v -0.002304 1.920109 2.215941
v -0.000917 1.920021 2.216604
v 0.000623 1.920021 2.216604
v 0.002010 1.920109 2.215941
v 0.002970 1.920267 2.214748
v 0.003313 1.937272 2.215490
v 0.002970 1.937470 2.214002
v 0.002970 1.937075 2.216978
v 0.002010 1.936916 2.218172
v 0.000623 1.936828 2.218834
v -0.000917 1.936828 2.218834
v -0.002304 1.936916 2.218172
v -0.003264 1.937075 2.216979
v -0.003606 1.937272 2.215490
v -0.003264 1.937470 2.214002
v -0.002304 1.937628 2.212809
v -0.000917 1.937716 2.212147
v 0.000623 1.937716 2.212147
v 0.002010 1.937628 2.212809
vt -76.468414 -28.124855
vt -76.468414 -28.805099
vt -76.534782 -28.124855
vt -76.534782 -28.805099
vt -76.415215 -28.124855
vt -76.415215 -28.805099
vt 7.653428 -28.805099
vt 7.592107 -28.124855
vt 7.592107 -28.805099
vt 7.653428 -28.124855
vt 7.524045 -28.124855
vt 7.524045 -28.805099
vt 7.462718 -28.805099
vt 7.462718 -28.124855
vt -76.415215 -28.805099
vt -76.468414 -28.124855
vt -76.468414 -28.805099
vt -76.415215 -28.124855
vt -76.534782 -28.124855
vt -76.534782 -28.805099
vt -76.601143 -28.805099
vt -76.601143 -28.124855
vt -76.654350 -28.805099
vt -76.654350 -28.124855
vt 7.462718 -28.805099
vt 7.462718 -28.124855
vt 7.524045 -28.805099
vt 7.524045 -28.124855
vt 7.592107 -28.805099
vt 7.592107 -28.124855
vt 7.653428 -28.124855
vt 7.653428 -28.805099
vt -76.601143 -28.124855
vt -76.654350 -28.805099
vt -76.654350 -28.124855
vt -76.601143 -28.805099
vt 7.672966 76.515831
vt 7.685593 76.571152
vt 7.645348 76.571152
vt 7.636700 76.533295
vt 7.637579 76.471451
vt 7.612487 76.502930
vt 7.586448 76.446838
vt 7.577496 76.486069
vt 7.538654 76.486069
vt 7.529702 76.446838
vt 7.503660 76.502930
vt 7.478568 76.471451
vt 7.479446 76.533295
vt 7.443186 76.515831
vt 7.470805 76.571152
vt 7.430561 76.571152
vt 7.443186 76.626480
vt 7.479446 76.609016
vt 7.503660 76.639381
vt 7.478568 76.670860
vt 7.529702 76.695465
vt 7.538654 76.656235
vt 7.586448 76.695465
vt 7.577496 76.656235
vt 7.612487 76.639381
vt 7.637579 76.670860
vt 7.636700 76.609016
vt 7.672966 76.626480
vt 7.558074 76.571152
vt 7.685593 76.571152
vt 7.672966 76.515831
vt 7.672966 76.626480
vt 7.637579 76.670860
vt 7.586448 76.695465
vt 7.529702 76.695465
vt 7.478568 76.670860
vt 7.443186 76.626480
vt 7.430561 76.571152
vt 7.443186 76.515831
vt 7.478568 76.471451
vt 7.529702 76.446838
vt 7.586448 76.446838
vt 7.637579 76.471451
vt -76.471184 -28.105783
vt -76.534782 -28.105783
vt -76.420181 -28.105783
vt 7.649469 -28.105783
vt 7.590693 -28.105783
vt 7.525460 -28.105783
vt 7.466684 -28.105783
vt -76.420181 -28.105783
vt -76.471184 -28.105783
vt -76.534782 -28.105783
vt -76.598381 -28.105783
vt -76.649376 -28.105783
vt 7.466684 -28.105783
vt 7.525460 -28.105783
vt 7.590693 -28.105783
vt 7.649469 -28.105783
vt -76.649376 -28.105783
vt -76.598381 -28.105783
vt -76.471184 -28.824167
vt -76.534782 -28.824167
vt -76.598381 -28.824167
vt -76.649376 -28.824167
vt 7.649469 -28.824167
vt 7.590693 -28.824167
vt 7.525460 -28.824167
vt 7.466684 -28.824167
vt -76.649376 -28.824167
vt -76.598381 -28.824167
vt -76.534782 -28.824167
vt -76.471184 -28.824167
vt -76.420181 -28.824167
vt 7.466684 -28.824167
vt 7.525460 -28.824167
vt 7.590693 -28.824167
vt 7.649469 -28.824167
vt -76.420181 -28.824167
vt 7.690137 76.507553
vt 7.704661 76.571152
vt 7.649469 76.456558
vt 7.590693 76.428246
vt 7.525460 76.428246
vt 7.466684 76.456558
vt 7.426008 76.507553
vt 7.411492 76.571152
vt 7.426008 76.634766
vt 7.466684 76.685760
vt 7.525460 76.714066
vt 7.590693 76.714066
vt 7.649469 76.685760
vt 7.690145 76.634750
vt 7.704661 76.571152
vt 7.690145 76.507553
vt 7.690145 76.634750
vt 7.649469 76.685760
vt 7.590693 76.714066
vt 7.525460 76.714066
vt 7.466684 76.685760
vt 7.426008 76.634766
vt 7.411492 76.571152
vt 7.426008 76.507553
vt 7.466684 76.456558
vt 7.525460 76.428246
vt 7.590693 76.428246
vt 7.649469 76.456558
vn 0.8900 -0.0987 -0.4451
vn 0.8898 0.2117 -0.4042
vn 0.9877 -0.1553 -0.0206
vn 0.9876 0.1553 0.0205
vn 0.6157 -0.0538 -0.7861
vn 0.6155 0.2572 -0.7450
vn 0.6158 0.2570 -0.7448
vn 0.2197 -0.0289 -0.9751
vn 0.2195 0.2825 -0.9338
vn 0.6159 -0.0540 -0.7860
vn -0.2196 -0.0290 -0.9752
vn -0.2197 0.2822 -0.9339
vn -0.6158 0.2570 -0.7448
vn -0.6158 -0.0540 -0.7861
vn -0.6155 0.2573 -0.7449
vn -0.8901 -0.0990 -0.4450
vn -0.8898 0.2117 -0.4043
vn -0.6158 -0.0538 -0.7860
vn -0.9877 -0.1552 -0.0206
vn -0.9876 0.1554 0.0205
vn -0.8899 0.0988 0.4454
vn -0.8899 -0.2115 0.4042
vn -0.6159 0.0534 0.7860
vn -0.6158 -0.2570 0.7448
vn -0.6156 0.0533 0.7862
vn -0.6156 -0.2571 0.7449
vn -0.2198 0.0287 0.9751
vn -0.2198 -0.2821 0.9339
vn 0.2199 0.0287 0.9751
vn 0.2197 -0.2821 0.9339
vn 0.6156 -0.2568 0.7451
vn 0.6157 0.0531 0.7862
vn 0.8899 -0.2116 0.4042
vn 0.6160 0.0537 0.7859
vn 0.6158 -0.2567 0.7449
vn 0.8898 0.0988 0.4455
vn 0.1642 -0.9643 -0.2077
vn 0.1821 -0.9747 -0.1294
vn -0.0000 -0.9913 -0.1315
vn 0.0000 -0.9913 -0.1314
vn 0.1136 -0.9560 -0.2703
vn 0.0001 -0.9913 -0.1315
vn 0.0405 -0.9513 -0.3055
vn -0.0005 -0.9913 -0.1316
vn 0.0000 -0.9913 -0.1317
vn -0.0408 -0.9513 -0.3055
vn -0.0001 -0.9913 -0.1315
vn -0.1141 -0.9559 -0.2705
vn -0.1642 -0.9643 -0.2076
vn -0.1821 -0.9747 -0.1293
vn -0.1641 -0.9851 -0.0512
vn -0.0002 -0.9913 -0.1316
vn -0.0001 -0.9913 -0.1316
vn -0.1136 -0.9934 0.0121
vn -0.0406 -0.9981 0.0468
vn 0.0004 -0.9913 -0.1314
vn 0.0406 -0.9981 0.0469
vn -0.0004 -0.9913 -0.1313
vn -0.0002 -0.9913 -0.1317
vn 0.1136 -0.9934 0.0119
vn 0.0002 -0.9913 -0.1318
vn 0.1640 -0.9851 -0.0510
vn 0.0000 0.9913 0.1315
vn 0.1822 0.9747 0.1293
vn 0.1641 0.9851 0.0510
vn 0.1642 0.9643 0.2076
vn 0.1137 0.9559 0.2707
vn 0.0404 0.9514 0.3053
vn -0.0405 0.9515 0.3051
vn -0.1137 0.9559 0.2706
vn -0.1642 0.9643 0.2078
vn -0.1822 0.9747 0.1293
vn -0.1641 0.9851 0.0509
vn -0.1137 0.9934 -0.0119
vn -0.0406 0.9981 -0.0469
vn 0.0409 0.9981 -0.0465
vn 0.1141 0.9934 -0.0119
vn 0.8548 -0.2593 -0.4495
vn 0.9487 -0.3134 -0.0414
vn 0.5915 -0.2160 -0.7768
vn 0.5916 -0.2163 -0.7767
vn 0.2105 -0.1923 -0.9585
vn -0.2108 -0.1923 -0.9584
vn -0.5914 -0.2163 -0.7768
vn -0.5917 -0.2161 -0.7767
vn -0.8548 -0.2589 -0.4498
vn -0.9486 -0.3137 -0.0418
vn -0.8548 -0.3673 0.3667
vn -0.5915 -0.4113 0.6935
vn -0.5914 -0.4112 0.6937
vn -0.2114 -0.4348 0.8754
vn 0.2112 -0.4354 0.8751
vn 0.5913 -0.4109 0.6939
vn 0.5916 -0.4108 0.6937
vn 0.8548 -0.3674 0.3664
vn 0.8547 0.3680 -0.3663
vn 0.9487 0.3135 0.0416
vn 0.8546 0.2590 0.4500
vn 0.5916 0.2158 0.7768
vn 0.5913 0.2146 0.7774
vn 0.2118 0.1919 0.9583
vn -0.2112 0.1919 0.9584
vn -0.5910 0.2152 0.7774
vn -0.5919 0.2152 0.7768
vn -0.8547 0.2589 0.4499
vn -0.9487 0.3135 0.0416
vn -0.8547 0.3676 -0.3666
vn -0.5911 0.4116 -0.6937
vn -0.5915 0.4110 -0.6937
vn -0.2109 0.4356 -0.8751
vn 0.2106 0.4363 -0.8748
vn 0.5916 0.4111 -0.6936
vn 0.5910 0.4116 -0.6937
vn 0.2843 -0.9225 -0.2611
vn 0.3158 -0.9406 -0.1249
vn 0.1976 -0.9079 -0.3696
vn 0.0703 -0.9000 -0.4302
vn -0.0703 -0.9002 -0.4299
vn -0.1977 -0.9079 -0.3696
vn -0.2848 -0.9224 -0.2607
vn -0.3162 -0.9405 -0.1247
vn -0.2847 -0.9585 0.0110
vn -0.1971 -0.9729 0.1207
vn -0.0704 -0.9810 0.1810
vn 0.0704 -0.9810 0.1810
vn 0.1971 -0.9730 0.1203
vn 0.2844 -0.9587 0.0113
vn 0.3161 0.9405 0.1248
vn 0.2849 0.9585 -0.0112
vn 0.2843 0.9226 0.2607
vn 0.1966 0.9081 0.3696
vn 0.0702 0.9001 0.4300
vn -0.0703 0.9003 0.4296
vn -0.1973 0.9079 0.3699
vn -0.2848 0.9224 0.2610
vn -0.3160 0.9405 0.1248
vn -0.2846 0.9586 -0.0112
vn -0.1972 0.9730 -0.1199
vn -0.0704 0.9810 -0.1810
vn 0.0704 0.9811 -0.1805
vn 0.1972 0.9730 -0.1201
usemtl black_s
s 1
f 1/1/1 2/2/2 3/3/3
f 4/4/4 3/3/3 2/2/2
f 5/5/5 6/6/6 1/1/1
f 2/2/2 1/1/1 6/6/6
f 7/7/7 8/8/8 9/9/9
f 8/8/8 7/7/7 10/10/10
f 9/9/9 11/11/11 12/12/12
f 11/11/11 9/9/9 8/8/8
f 12/12/12 11/11/11 13/13/13
f 13/13/13 11/11/11 14/14/14
f 15/15/15 16/16/16 17/17/17
f 16/16/16 15/15/15 18/18/18
f 17/17/17 19/19/19 20/20/20
f 19/19/19 17/17/17 16/16/16
f 20/20/20 19/19/19 21/21/21
f 21/21/21 19/19/19 22/22/22
f 21/21/21 22/22/22 23/23/23
f 23/23/23 22/22/22 24/24/24
f 25/25/25 26/26/26 27/27/27
f 27/27/27 26/26/26 28/28/28
f 27/27/27 28/28/28 29/29/29
f 29/29/29 28/28/28 30/30/30
f 29/29/29 31/31/31 32/32/32
f 31/31/31 29/29/29 30/30/30
f 33/33/33 34/34/34 35/35/35
f 34/34/34 33/33/33 36/36/36
f 3/3/3 36/36/36 33/33/33
f 36/36/36 3/3/3 4/4/4
f 37/37/37 38/38/38 39/39/39
f 37/37/37 39/39/39 40/40/40
f 41/41/41 37/37/37 40/40/40
f 41/41/41 40/40/40 42/42/42
f 43/43/43 42/42/42 44/44/44
f 42/42/42 43/43/43 41/41/41
f 45/45/45 43/43/43 44/44/44
f 43/43/43 45/45/45 46/46/46
f 46/46/46 47/47/47 48/48/48
f 47/47/47 46/46/46 45/45/45
f 48/48/48 49/49/40 50/50/49
f 49/49/40 48/48/48 47/47/47
f 50/50/49 51/51/42 52/52/50
f 51/51/42 50/50/49 49/49/40
f 53/53/51 51/51/42 54/54/52
f 51/51/42 53/53/51 52/52/50
f 54/54/52 55/55/53 56/56/54
f 54/54/52 56/56/54 53/53/51
f 56/56/54 55/55/53 57/57/55
f 55/55/53 58/58/56 57/57/55
f 59/59/57 57/57/55 58/58/56
f 59/59/57 58/58/56 60/60/58
f 61/61/59 59/59/57 60/60/58
f 59/59/57 61/61/59 62/62/60
f 63/63/61 62/62/60 61/61/59
f 62/62/60 63/63/61 64/64/62
f 39/39/39 64/64/62 63/63/61
f 64/64/62 39/39/39 38/38/38
f 65/65/63 66/66/64 67/67/65
f 65/65/63 68/68/66 66/66/64
f 65/65/63 69/69/67 68/68/66
f 65/65/63 70/70/68 69/69/67
f 65/65/63 71/71/69 70/70/68
f 65/65/63 72/72/70 71/71/69
f 65/65/63 73/73/71 72/72/70
f 65/65/63 74/74/72 73/73/71
f 65/65/63 75/75/73 74/74/72
f 65/65/63 76/76/74 75/75/73
f 65/65/63 77/77/75 76/76/74
f 65/65/63 78/78/76 77/77/75
f 65/65/63 79/79/77 78/78/76
f 65/65/63 67/67/65 79/79/77
f 3/3/3 80/80/78 1/1/1
f 80/80/78 3/3/3 81/81/79
f 1/1/1 82/82/80 5/5/5
f 82/82/80 1/1/1 80/80/78
f 8/8/8 83/83/81 84/84/82
f 83/83/81 8/8/8 10/10/10
f 8/8/8 85/85/83 11/11/11
f 85/85/83 8/8/8 84/84/82
f 11/11/11 86/86/84 14/14/14
f 86/86/84 11/11/11 85/85/83
f 16/16/16 87/87/85 88/88/86
f 87/87/85 16/16/16 18/18/18
f 19/19/19 88/88/86 89/89/87
f 88/88/86 19/19/19 16/16/16
f 19/19/19 90/90/88 22/22/22
f 90/90/88 19/19/19 89/89/87
f 22/22/22 91/91/89 24/24/24
f 91/91/89 22/22/22 90/90/88
f 28/28/28 92/92/90 93/93/91
f 92/92/90 28/28/28 26/26/26
f 28/28/28 94/94/92 30/30/30
f 94/94/92 28/28/28 93/93/91
f 30/30/30 95/95/93 31/31/31
f 95/95/93 30/30/30 94/94/92
f 96/96/94 33/33/33 35/35/35
f 33/33/33 96/96/94 97/97/95
f 3/3/3 97/97/95 81/81/79
f 97/97/95 3/3/3 33/33/33
f 4/4/4 98/98/96 99/99/97
f 98/98/96 4/4/4 2/2/2
f 36/36/36 4/4/4 100/100/98
f 99/99/97 100/100/98 4/4/4
f 34/34/34 36/36/36 101/101/99
f 100/100/98 101/101/99 36/36/36
f 29/29/29 102/102/100 103/103/101
f 102/102/100 29/29/29 32/32/32
f 27/27/27 29/29/29 104/104/102
f 103/103/101 104/104/102 29/29/29
f 25/25/25 27/27/27 105/105/103
f 104/104/102 105/105/103 27/27/27
f 21/21/21 106/106/104 107/107/105
f 106/106/104 21/21/21 23/23/23
f 20/20/20 107/107/105 108/108/106
f 107/107/105 20/20/20 21/21/21
f 17/17/17 20/20/20 109/109/107
f 108/108/106 109/109/107 20/20/20
f 15/15/15 17/17/17 110/110/108
f 109/109/107 110/110/108 17/17/17
f 12/12/12 111/111/109 112/112/110
f 111/111/109 12/12/12 13/13/13
f 9/9/9 112/112/110 113/113/111
f 112/112/110 9/9/9 12/12/12
f 7/7/7 9/9/9 114/114/112
f 113/113/111 114/114/112 9/9/9
f 2/2/2 115/115/113 98/98/96
f 115/115/113 2/2/2 6/6/6
f 116/116/114 38/38/38 37/37/37
f 38/38/38 116/116/114 117/117/115
f 118/118/116 37/37/37 41/41/41
f 37/37/37 118/118/116 116/116/114
f 119/119/117 41/41/41 43/43/43
f 41/41/41 119/119/117 118/118/116
f 120/120/118 119/119/117 46/46/46
f 46/46/46 119/119/117 43/43/43
f 46/46/46 48/48/48 120/120/118
f 48/48/48 121/121/119 120/120/118
f 121/121/119 50/50/49 122/122/120
f 50/50/49 121/121/119 48/48/48
f 123/123/121 122/122/120 52/52/50
f 52/52/50 122/122/120 50/50/49
f 124/124/122 123/123/121 53/53/51
f 53/53/51 123/123/121 52/52/50
f 125/125/123 124/124/122 56/56/54
f 53/53/51 56/56/54 124/124/122
f 56/56/54 57/57/55 125/125/123
f 125/125/123 57/57/55 126/126/124
f 126/126/124 59/59/57 127/127/125
f 59/59/57 126/126/124 57/57/55
f 128/128/126 59/59/57 62/62/60
f 59/59/57 128/128/126 127/127/125
f 129/129/127 62/62/60 64/64/62
f 62/62/60 129/129/127 128/128/126
f 64/64/62 117/117/115 129/129/127
f 117/117/115 64/64/62 38/38/38
f 67/67/65 130/130/128 131/131/129
f 130/130/128 67/67/65 66/66/64
f 132/132/130 66/66/64 68/68/66
f 66/66/64 132/132/130 130/130/128
f 133/133/131 68/68/66 69/69/67
f 68/68/66 133/133/131 132/132/130
f 134/134/132 69/69/67 70/70/68
f 69/69/67 134/134/132 133/133/131
f 135/135/133 134/134/132 71/71/69
f 71/71/69 134/134/132 70/70/68
f 71/71/69 72/72/70 135/135/133
f 72/72/70 136/136/134 135/135/133
f 136/136/134 73/73/71 137/137/135
f 73/73/71 136/136/134 72/72/70
f 138/138/136 137/137/135 74/74/72
f 74/74/72 137/137/135 73/73/71
f 139/139/137 138/138/136 75/75/73
f 75/75/73 138/138/136 74/74/72
f 140/140/138 139/139/137 76/76/74
f 75/75/73 76/76/74 139/139/137
f 76/76/74 77/77/75 140/140/138
f 140/140/138 77/77/75 141/141/139
f 142/142/140 77/77/75 78/78/76
f 77/77/75 142/142/140 141/141/139
f 143/143/141 78/78/76 79/79/77
f 78/78/76 143/143/141 142/142/140
f 131/131/129 79/79/77 67/67/65
f 79/79/77 131/131/129 143/143/141
