# Blender v3.5.1 OBJ File: 'f1.blend'
# www.blender.org
mtllib Mesh_123.mtl
o Mesh_123
v 0.126696 1.442441 0.795532
v 0.118370 1.442441 0.795532
v 0.122533 1.444167 0.795532
v 0.116645 1.438278 0.795532
v 0.118370 1.434115 0.795532
v 0.126696 1.434115 0.795532
v 0.128422 1.438278 0.795532
v 0.122533 1.432389 0.795532
v 0.124824 1.432853 0.795532
v 0.120242 1.432853 0.795532
v 0.117108 1.435987 0.795532
v 0.117108 1.440569 0.795532
v 0.120242 1.443703 0.795532
v 0.124824 1.443703 0.795532
v 0.127959 1.440569 0.795532
v 0.127959 1.435987 0.795532
v 0.118553 1.300007 0.795532
v 0.110228 1.300007 0.795532
v 0.114390 1.301733 0.795532
v 0.108502 1.295844 0.795532
v 0.110228 1.291682 0.795532
v 0.118553 1.291682 0.795532
v 0.120279 1.295844 0.795532
v 0.114390 1.289956 0.795532
v 0.116681 1.290419 0.795532
v 0.112100 1.290419 0.795532
v 0.108965 1.293553 0.795532
v 0.108965 1.298135 0.795532
v 0.112100 1.301270 0.795532
v 0.116681 1.301270 0.795532
v 0.119816 1.298135 0.795532
v 0.119816 1.293553 0.795532
v -0.118370 1.434115 0.795531
v -0.126696 1.434115 0.795531
v -0.118370 1.442441 0.795531
v -0.122533 1.432389 0.795531
v -0.124824 1.432853 0.795531
v -0.128422 1.438278 0.795531
v -0.126696 1.442441 0.795531
v -0.127959 1.435987 0.795531
v -0.127959 1.440569 0.795531
v -0.122533 1.444167 0.795531
v -0.124824 1.443703 0.795531
v -0.120242 1.443703 0.795531
v -0.116645 1.438278 0.795531
v -0.117108 1.440569 0.795531
v -0.117108 1.435987 0.795531
v -0.120242 1.432853 0.795531
v -0.110228 1.291682 0.795531
v -0.118553 1.291682 0.795531
v -0.110228 1.300007 0.795531
v -0.114390 1.289956 0.795531
v -0.116681 1.290419 0.795531
v -0.120279 1.295844 0.795531
v -0.118553 1.300007 0.795531
v -0.119816 1.293554 0.795531
v -0.119816 1.298135 0.795531
v -0.114390 1.301733 0.795531
v -0.116681 1.301270 0.795531
v -0.112100 1.301270 0.795531
v -0.108502 1.295844 0.795531
v -0.108965 1.298135 0.795531
v -0.108965 1.293554 0.795531
v -0.112100 1.290419 0.795531
vt 0.146540 -0.853460
vt 0.853460 -0.853460
vt 0.500000 -1.000000
vt 1.000000 -0.500000
vt 0.853460 -0.146540
vt 0.146540 -0.146540
vt 0.000000 -0.500000
vt 0.500000 0.000000
vt 0.305483 -0.039328
vt 0.694517 -0.039328
vt 0.960672 -0.305483
vt 0.960672 -0.694517
vt 0.694517 -0.960672
vt 0.305483 -0.960672
vt 0.039328 -0.694517
vt 0.039328 -0.305483
vt 0.146540 -0.853460
vt 0.853460 -0.853460
vt 0.500000 -1.000000
vt 1.000000 -0.500000
vt 0.853460 -0.146540
vt 0.146540 -0.146540
vt 0.000000 -0.500000
vt 0.500000 0.000000
vt 0.305483 -0.039328
vt 0.694517 -0.039328
vt 0.960672 -0.305483
vt 0.960672 -0.694517
vt 0.694517 -0.960672
vt 0.305483 -0.960672
vt 0.039328 -0.694517
vt 0.039328 -0.305483
vt 0.853460 -0.146540
vt 0.146540 -0.146540
vt 0.853460 -0.853460
vt 0.500000 0.000000
vt 0.305483 -0.039328
vt 0.000000 -0.500000
vt 0.146540 -0.853460
vt 0.039328 -0.305483
vt 0.039328 -0.694517
vt 0.500000 -1.000000
vt 0.305483 -0.960672
vt 0.694517 -0.960672
vt 1.000000 -0.500000
vt 0.960672 -0.694517
vt 0.960672 -0.305483
vt 0.694517 -0.039328
vt 0.853460 -0.146540
vt 0.146540 -0.146540
vt 0.853460 -0.853460
vt 0.500000 0.000000
vt 0.305483 -0.039328
vt 0.000000 -0.500000
vt 0.146540 -0.853460
vt 0.039328 -0.305483
vt 0.039328 -0.694517
vt 0.500000 -1.000000
vt 0.305483 -0.960672
vt 0.694517 -0.960672
vt 1.000000 -0.500000
vt 0.960672 -0.694517
vt 0.960672 -0.305483
vt 0.694517 -0.039328
vn 0.0000 0.0000 -1.0000
vn -0.0001 0.0000 -1.0000
vn 0.0001 0.0001 -1.0000
vn 0.0001 0.0000 -1.0000
vn 0.0001 -0.0001 -1.0000
usemtl gp21_bolt2
s off
f 1/1/1 2/2/1 3/3/1
f 4/4/1 2/2/1 5/5/1
f 2/2/1 6/6/1 5/5/1
f 1/1/1 7/7/1 6/6/1
f 8/8/1 6/6/1 9/9/1
f 5/5/1 6/6/1 8/8/1
f 5/5/1 8/8/1 10/10/1
f 4/4/1 5/5/1 11/11/1
f 2/2/1 4/4/1 12/12/1
f 2/2/1 1/1/1 6/6/1
f 3/3/1 2/2/1 13/13/1
f 1/1/1 3/3/1 14/14/1
f 7/7/1 1/1/1 15/15/1
f 6/6/1 7/7/1 16/16/1
f 17/17/1 18/18/1 19/19/1
f 20/20/1 18/18/1 21/21/1
f 18/18/1 22/22/1 21/21/1
f 17/17/1 23/23/1 22/22/1
f 24/24/1 22/22/1 25/25/1
f 21/21/1 22/22/1 24/24/1
f 21/21/2 24/24/2 26/26/2
f 20/20/2 21/21/2 27/27/2
f 18/18/2 20/20/2 28/28/2
f 18/18/1 17/17/1 22/22/1
f 19/19/3 18/18/3 29/29/3
f 17/17/4 19/19/4 30/30/4
f 23/23/2 17/17/2 31/31/2
f 22/22/4 23/23/4 32/32/4
f 33/33/1 34/34/1 35/35/1
f 34/34/1 33/33/1 36/36/1
f 34/34/1 36/36/1 37/37/1
f 34/34/1 38/38/1 39/39/1
f 38/38/1 34/34/1 40/40/1
f 39/39/4 38/38/4 41/41/4
f 35/35/1 34/34/1 39/39/1
f 42/42/1 39/39/1 43/43/1
f 35/35/1 39/39/1 42/42/1
f 35/35/1 42/42/1 44/44/1
f 45/45/2 35/35/2 46/46/2
f 33/33/1 35/35/1 45/45/1
f 33/33/1 45/45/1 47/47/1
f 36/36/1 33/33/1 48/48/1
f 49/49/1 50/50/1 51/51/1
f 50/50/1 49/49/1 52/52/1
f 50/50/1 52/52/1 53/53/1
f 50/50/1 54/54/1 55/55/1
f 54/54/1 50/50/1 56/56/1
f 55/55/1 54/54/1 57/57/1
f 51/51/1 50/50/1 55/55/1
f 58/58/2 55/55/2 59/59/2
f 51/51/1 55/55/1 58/58/1
f 51/51/5 58/58/5 60/60/5
f 61/61/1 51/51/1 62/62/1
f 49/49/1 51/51/1 61/61/1
f 49/49/2 61/61/2 63/63/2
f 52/52/1 49/49/1 64/64/1
