# Blender v3.5.1 OBJ File: 'f1.blend'
# www.blender.org
mtllib Mesh_240.mtl
o Mesh_247_Mesh_240
v -0.235017 1.339941 0.795290
v -0.239785 1.341849 0.790966
v -0.234703 1.357115 0.791964
v -0.254452 1.346903 0.792274
v -0.258629 1.348078 0.797397
v -0.253332 1.363274 0.798324
v -0.245192 1.360832 0.791087
v -0.238939 1.358677 0.790529
v -0.244070 1.343428 0.789512
v -0.249203 1.362113 0.793258
v -0.173087 1.238994 0.808388
v -0.173721 1.245443 0.801772
v -0.156584 1.247106 0.801678
v -0.158181 1.262540 0.798959
v -0.157208 1.253226 0.799057
v -0.174338 1.251491 0.799180
v -0.159574 1.275604 0.808008
v -0.158841 1.268953 0.801455
v -0.175950 1.267045 0.801551
v -0.175299 1.260702 0.799084
v -0.176677 1.273619 0.808032
v -0.155944 1.240582 0.808369
v -0.250394 1.345607 0.790077
v -0.229990 1.355230 0.796241
v 0.235032 1.339941 0.795290
v 0.234718 1.357115 0.791964
v 0.239799 1.341849 0.790966
v 0.254467 1.346903 0.792274
v 0.253347 1.363274 0.798324
v 0.258644 1.348078 0.797397
v 0.245207 1.360832 0.791087
v 0.244085 1.343428 0.789512
v 0.238954 1.358677 0.790529
v 0.249217 1.362113 0.793258
v 0.173102 1.238994 0.808388
v 0.156599 1.247106 0.801678
v 0.173736 1.245443 0.801772
v 0.158196 1.262540 0.798959
v 0.174353 1.251491 0.799180
v 0.157222 1.253226 0.799057
v 0.159589 1.275604 0.808008
v 0.175965 1.267045 0.801551
v 0.158855 1.268953 0.801455
v 0.175314 1.260702 0.799084
v 0.176692 1.273619 0.808032
v 0.155959 1.240582 0.808369
v 0.250409 1.345607 0.790077
v 0.230004 1.355230 0.796241
v 0.157055 1.238324 0.808771
v 0.172873 1.236774 0.808743
vt 0.318986 -0.769109
vt 0.348784 -0.769425
vt 0.351266 -0.799746
vt 0.382569 -0.740177
vt 0.355014 -0.740366
vt 0.353450 -0.711632
vt 0.411844 -0.800019
vt 0.387005 -0.800615
vt 0.385550 -0.770287
vt 0.444545 -0.713628
vt 0.444546 -0.740192
vt 0.416890 -0.740108
vt 0.384471 -0.739561
vt 0.384367 -0.715343
vt 0.415190 -0.715209
vt 0.353558 -0.738716
vt 0.353411 -0.712296
vt 0.384902 -0.711398
vt 0.415290 -0.739156
vt 0.385051 -0.737515
vt 0.416891 -0.713238
vt 0.381317 -0.711440
vt 0.321810 -0.799435
vt 0.379844 -0.820856
vt 0.354035 -0.851171
vt 0.352443 -0.821590
vt 0.307907 -0.821098
vt 0.282680 -0.851100
vt 0.279214 -0.820865
vt 0.316952 -0.851554
vt 0.342119 -0.820684
vt 0.343524 -0.851189
vt 0.311048 -0.851332
vt 0.383436 -0.739813
vt 0.354248 -0.712825
vt 0.383204 -0.711906
vt 0.349834 -0.795463
vt 0.318952 -0.771993
vt 0.349727 -0.771518
vt 0.354480 -0.740420
vt 0.319054 -0.795664
vt 0.381125 -0.850448
vt 0.410677 -0.769685
vt 0.385828 -0.618889
vt 0.415007 -0.637062
vt 0.386055 -0.638198
vt 0.414776 -0.617532
vt 0.315247 -0.821050
vt 0.412494 -0.611237
vt 0.385767 -0.612240
vn 0.6276 -0.1590 -0.7621
vn -0.0590 0.0862 -0.9945
vn -0.7094 0.2865 -0.6439
vn 0.0652 -0.7115 -0.6997
vn -0.0061 -0.0111 -0.9999
vn -0.0815 0.6949 -0.7144
vn -0.0061 -0.0110 -0.9999
vn -0.0817 0.6951 -0.7143
vn 0.0651 -0.7114 -0.6998
vn -0.0592 0.0861 -0.9945
vn 0.6278 -0.1590 -0.7620
vn -0.6276 -0.1590 -0.7621
vn -0.6279 -0.1590 -0.7618
vn 0.7093 0.2865 -0.6440
vn 0.0590 0.0862 -0.9945
vn 0.7094 0.2865 -0.6439
vn 0.0061 -0.0111 -0.9999
vn 0.0815 0.6949 -0.7144
vn 0.0818 0.6952 -0.7141
vn 0.0061 -0.0110 -0.9999
vn 0.0817 0.6951 -0.7143
vn 0.0815 0.6949 -0.7145
vn -0.6278 -0.1590 -0.7620
vn -0.6275 -0.1591 -0.7622
vn -0.7093 0.2865 -0.6440
vn -0.0433 -0.4591 -0.8873
vn -0.0651 -0.7114 -0.6998
vn -0.0652 -0.7115 -0.6997
vn -0.0476 -0.5245 -0.8501
vn 0.0592 0.0861 -0.9945
vn -0.0159 -0.1807 -0.9834
vn -0.0170 -0.1561 -0.9876
usemtl sf21_sw_badges
s off
f 1/1/1 2/2/1 3/3/1
f 7/4/2 8/5/2 9/6/2
f 6/7/3 10/8/3 4/9/3
f 11/10/4 12/11/4 13/12/4
f 14/13/5 15/14/5 16/15/5
f 17/16/6 18/17/6 19/18/6
f 16/15/7 20/19/7 14/13/7
f 19/18/8 21/20/8 17/16/8
f 13/12/9 22/21/9 11/10/9
f 9/6/10 23/22/10 7/4/10
f 3/3/11 24/23/11 1/1/11
f 25/24/12 26/25/13 27/26/12
f 28/27/14 29/28/14 30/29/14
f 31/30/15 32/31/15 33/32/15
f 29/28/16 28/27/16 34/33/16
f 38/34/17 39/35/17 40/36/17
f 41/37/18 42/38/19 43/39/18
f 39/35/20 38/34/20 44/40/20
f 42/38/21 41/37/22 45/41/21
f 26/25/23 25/24/24 48/42/23
s 1
f 4/9/25 5/43/25 6/7/25
f 35/44/26 36/45/27 37/46/28
f 36/45/27 35/44/26 46/47/29
f 32/31/30 31/30/30 47/48/30
f 49/49/31 35/44/26 50/50/32
f 35/44/26 49/49/31 46/47/29
