# Blender v3.5.1 OBJ File: 'f1.blend'
# www.blender.org
mtllib Mesh_125.mtl
o Mesh_125
v 0.120649 1.356472 0.796065
v 0.122657 1.356008 0.796067
v 0.120647 1.356472 0.796575
v 0.122665 1.356003 0.796575
v 0.118628 1.356001 0.796575
v 0.118639 1.356008 0.796067
v 0.117026 1.354799 0.796575
v 0.117027 1.354801 0.796066
v 0.116044 1.353049 0.796066
v 0.116043 1.353046 0.796575
v 0.115853 1.351054 0.796065
v 0.115854 1.351051 0.796574
v 0.116486 1.349158 0.796063
v 0.116488 1.349155 0.796573
v 0.117830 1.347681 0.796063
v 0.117832 1.347679 0.796574
v 0.119654 1.346874 0.796063
v 0.119657 1.346873 0.796575
v 0.121651 1.346876 0.796062
v 0.121652 1.346876 0.796574
v 0.123477 1.347687 0.796063
v 0.123484 1.347692 0.796573
v 0.124815 1.349164 0.796062
v 0.124818 1.349169 0.796573
v 0.125444 1.351061 0.796065
v 0.125445 1.351062 0.796574
v 0.125252 1.353053 0.796066
v 0.125251 1.353055 0.796575
v 0.124270 1.354804 0.796067
v 0.124268 1.354805 0.796575
v 0.124271 1.354801 0.795552
v 0.125252 1.353050 0.795550
v 0.122660 1.356007 0.795552
v 0.122699 1.356105 0.795090
v 0.124395 1.354873 0.795065
v 0.120649 1.356471 0.795553
v 0.120661 1.356594 0.795078
v 0.118646 1.356013 0.795555
v 0.118630 1.356130 0.795088
v 0.117030 1.354806 0.795553
v 0.116983 1.354881 0.795105
v 0.115973 1.353105 0.795106
v 0.116045 1.353055 0.795552
v 0.115764 1.351082 0.795107
v 0.115852 1.351061 0.795552
v 0.116394 1.349146 0.795105
v 0.116483 1.349162 0.795548
v 0.117826 1.347684 0.795545
v 0.117751 1.347630 0.795102
v 0.119602 1.346786 0.795096
v 0.119649 1.346875 0.795543
v 0.121640 1.346775 0.795097
v 0.121642 1.346874 0.795542
v 0.123469 1.347681 0.795544
v 0.123499 1.347607 0.795109
v 0.124866 1.349106 0.795111
v 0.124813 1.349160 0.795547
v 0.125519 1.351028 0.795107
v 0.125444 1.351057 0.795549
v 0.125337 1.353058 0.795103
v 0.125737 1.353203 0.794819
v 0.125948 1.351000 0.794819
v 0.124648 1.355144 0.794820
v 0.124939 1.355434 0.794834
v 0.126119 1.353361 0.794835
v 0.122861 1.356480 0.794820
v 0.123018 1.356860 0.794834
v 0.120667 1.357006 0.794804
v 0.120666 1.357424 0.794854
v 0.118472 1.356505 0.794819
v 0.118283 1.356910 0.794860
v 0.116363 1.355447 0.794837
v 0.116689 1.355163 0.794835
v 0.115573 1.353251 0.794821
v 0.115182 1.353374 0.794835
v 0.115316 1.351040 0.794802
v 0.114937 1.351001 0.794835
v 0.115669 1.348739 0.794835
v 0.116021 1.348934 0.794815
v 0.117251 1.346966 0.794837
v 0.117499 1.347288 0.794815
v 0.119418 1.345973 0.794846
v 0.119515 1.346376 0.794813
v 0.121750 1.346371 0.794812
v 0.121886 1.345974 0.794847
v 0.123768 1.347269 0.794815
v 0.124045 1.346964 0.794837
v 0.125250 1.348902 0.794818
v 0.125626 1.348733 0.794836
v 0.126360 1.350994 0.794835
v 0.126827 1.350925 0.795140
v 0.126027 1.348483 0.795140
v 0.126574 1.353485 0.795140
v 0.125307 1.355729 0.795140
v 0.123234 1.357278 0.795140
v 0.120647 1.357874 0.795140
v 0.118068 1.357282 0.795140
v 0.115992 1.355733 0.795142
v 0.114723 1.353487 0.795140
v 0.114469 1.350925 0.795140
v 0.115270 1.348482 0.795140
v 0.116990 1.346573 0.795140
v 0.119344 1.345520 0.795140
v 0.121966 1.345522 0.795141
v 0.124312 1.346575 0.795141
v 0.122145 1.354861 0.795110
v 0.120648 1.355209 0.795110
v 0.119151 1.354860 0.795110
v 0.117962 1.353968 0.795110
v 0.117234 1.352668 0.795110
v 0.117093 1.351188 0.795110
v 0.117563 1.349782 0.795108
v 0.118560 1.348688 0.795109
v 0.119914 1.348090 0.795110
v 0.121393 1.348092 0.795109
v 0.122752 1.348697 0.795108
v 0.123742 1.349792 0.795108
v 0.124206 1.351197 0.795110
v 0.124063 1.352675 0.795110
v 0.123334 1.353973 0.795110
v 0.126827 1.350925 0.797582
v 0.126027 1.348483 0.797582
v 0.126574 1.353485 0.797582
v 0.125307 1.355729 0.797582
v 0.123234 1.357278 0.797582
v 0.120647 1.357874 0.797582
v 0.118068 1.357282 0.797582
v 0.115992 1.355733 0.797583
v 0.114723 1.353487 0.797582
v 0.114469 1.350925 0.797582
v 0.115270 1.348482 0.797582
v 0.116990 1.346573 0.797582
v 0.119344 1.345520 0.797582
v 0.121966 1.345522 0.797583
v 0.124312 1.346575 0.797583
vt 0.499910 -0.886218
vt 0.337432 -0.848722
vt 0.500066 -0.886419
vt 0.336823 -0.848460
vt 0.663459 -0.848283
vt 0.662550 -0.848738
vt 0.793119 -0.751055
vt 0.793016 -0.751054
vt 0.872558 -0.609324
vt 0.872593 -0.609268
vt 0.887959 -0.447994
vt 0.887918 -0.447899
vt 0.836733 -0.294578
vt 0.836621 -0.294547
vt 0.727997 -0.175115
vt 0.727834 -0.175150
vt 0.580445 -0.109871
vt 0.580191 -0.109968
vt 0.418869 -0.110003
vt 0.418779 -0.110169
vt 0.271091 -0.175608
vt 0.270526 -0.176177
vt 0.162851 -0.295098
vt 0.162588 -0.295649
vt 0.111923 -0.448540
vt 0.111907 -0.448799
vt 0.127520 -0.609715
vt 0.127559 -0.609991
vt 0.206979 -0.751283
vt 0.207079 -0.751549
vt 0.206833 -0.750927
vt 0.127449 -0.609296
vt 0.337237 -0.848446
vt 0.334072 -0.856287
vt 0.196832 -0.756634
vt 0.499896 -0.885992
vt 0.498959 -0.895853
vt 0.662005 -0.848946
vt 0.663311 -0.858278
vt 0.792746 -0.751299
vt 0.796575 -0.757249
vt 0.878299 -0.613578
vt 0.872467 -0.609659
vt 0.895162 -0.449973
vt 0.888059 -0.448373
vt 0.844202 -0.293332
vt 0.836981 -0.294804
vt 0.728333 -0.175197
vt 0.734386 -0.170760
vt 0.584663 -0.102484
vt 0.580866 -0.109803
vt 0.419737 -0.101615
vt 0.419616 -0.109693
vt 0.271785 -0.174987
vt 0.269355 -0.168927
vt 0.158675 -0.290121
vt 0.163035 -0.294660
vt 0.105847 -0.445601
vt 0.111977 -0.448082
vt 0.120562 -0.609767
vt 0.088216 -0.621469
vt 0.071178 -0.443226
vt 0.176357 -0.778434
vt 0.152825 -0.801934
vt 0.057351 -0.634214
vt 0.320942 -0.886495
vt 0.308270 -0.917292
vt 0.498427 -0.929038
vt 0.498520 -0.962887
vt 0.676099 -0.888510
vt 0.691329 -0.921326
vt 0.846713 -0.802989
vt 0.820301 -0.779960
vt 0.910635 -0.625310
vt 0.942293 -0.635265
vt 0.931410 -0.446458
vt 0.962110 -0.443358
vt 0.902888 -0.260339
vt 0.874346 -0.276164
vt 0.774864 -0.116978
vt 0.754823 -0.142973
vt 0.599523 -0.036642
vt 0.591645 -0.069248
vt 0.410839 -0.068813
vt 0.399818 -0.036719
vt 0.247573 -0.141423
vt 0.225156 -0.116775
vt 0.127645 -0.273522
vt 0.097241 -0.259890
vt 0.037808 -0.442738
vt 0.000004 -0.437283
vt 0.064743 -0.239769
vt 0.020544 -0.644329
vt 0.123027 -0.825877
vt 0.290723 -0.951140
vt 0.500068 -0.999338
vt 0.708737 -0.951514
vt 0.876700 -0.826190
vt 0.979386 -0.644555
vt 0.999971 -0.437295
vt 0.935115 -0.239684
vt 0.795956 -0.085214
vt 0.605516 -0.000040
vt 0.393375 -0.000256
vt 0.203567 -0.085443
vt 0.378905 -0.755668
vt 0.499978 -0.783821
vt 0.621162 -0.755537
vt 0.717329 -0.683425
vt 0.776273 -0.578266
vt 0.787639 -0.458582
vt 0.749593 -0.344845
vt 0.668908 -0.256291
vt 0.559405 -0.207947
vt 0.439691 -0.208097
vt 0.329735 -0.257052
vt 0.249681 -0.345662
vt 0.212090 -0.459249
vt 0.223700 -0.578801
vt 0.282678 -0.683792
vt 0.000034 -0.437988
vt 0.064774 -0.240473
vt 0.020575 -0.645034
vt 0.123057 -0.826581
vt 0.290753 -0.951846
vt 0.500098 -1.000043
vt 0.708768 -0.952219
vt 0.876731 -0.826895
vt 0.979417 -0.645260
vt 1.000002 -0.438000
vt 0.935145 -0.240388
vt 0.795986 -0.085918
vt 0.605547 -0.000745
vt 0.393406 -0.000961
vt 0.203597 -0.086148
vn -0.0005 -1.0000 -0.0016
vn -0.4196 -0.9077 0.0002
vn 0.0005 -0.4545 -0.8908
vn -0.1910 -0.4024 -0.8953
vn 0.1922 -0.4017 -0.8954
vn 0.4206 -0.9073 -0.0019
vn 0.3360 -0.2926 -0.8952
vn 0.7523 -0.6588 -0.0011
vn 0.9545 -0.2983 -0.0014
vn 0.4250 -0.1315 -0.8956
vn 0.9935 0.1136 -0.0009
vn 0.4419 0.0522 -0.8955
vn 0.8625 0.5060 -0.0007
vn 0.3831 0.2260 -0.8956
vn 0.5845 0.8114 -0.0003
vn 0.2595 0.3609 -0.8958
vn 0.2063 0.9785 -0.0001
vn 0.0905 0.4353 -0.8957
vn -0.2086 0.9780 -0.0002
vn -0.0931 0.4345 -0.8959
vn -0.5863 0.8101 0.0004
vn -0.2633 0.3587 -0.8955
vn -0.8637 0.5040 0.0006
vn -0.3851 0.2226 -0.8956
vn -0.9938 0.1115 0.0008
vn -0.4425 0.0501 -0.8954
vn -0.9541 -0.2994 0.0003
vn -0.4245 -0.1331 -0.8956
vn -0.7516 -0.6596 0.0003
vn -0.3348 -0.2947 -0.8950
vn -0.7456 -0.6549 -0.1231
vn -0.9499 -0.2944 -0.1054
vn -0.4182 -0.8999 -0.1234
vn -0.3370 -0.7270 -0.5982
vn -0.6054 -0.5174 -0.6048
vn -0.0005 -0.9920 -0.1259
vn -0.0044 -0.7955 -0.6059
vn 0.4214 -0.8993 -0.1173
vn 0.3322 -0.7308 -0.5963
vn 0.7496 -0.6541 -0.1012
vn 0.6092 -0.5403 -0.5805
vn 0.7786 -0.2505 -0.5754
vn 0.9503 -0.2965 -0.0953
vn 0.8142 0.0842 -0.5744
vn 0.9888 0.1142 -0.0964
vn 0.7101 0.4063 -0.5750
vn 0.8580 0.5045 -0.0968
vn 0.5812 0.8076 -0.1001
vn 0.4844 0.6570 -0.5776
vn 0.1758 0.7942 -0.5817
vn 0.2048 0.9731 -0.1056
vn -0.1621 0.7985 -0.5797
vn -0.2074 0.9729 -0.1027
vn -0.5840 0.8066 -0.0917
vn -0.4762 0.6692 -0.5705
vn -0.7076 0.4212 -0.5673
vn -0.8607 0.5017 -0.0862
vn -0.8152 0.0997 -0.5705
vn -0.9899 0.1111 -0.0885
vn -0.7797 -0.2340 -0.5808
vn -0.2231 -0.0712 -0.9722
vn -0.2323 0.0252 -0.9723
vn -0.1740 -0.1560 -0.9723
vn 0.2482 0.2213 -0.9431
vn 0.3168 0.1022 -0.9430
vn -0.0952 -0.2015 -0.9748
vn 0.1397 0.3109 -0.9401
vn -0.0045 -0.1981 -0.9802
vn 0.0003 0.3569 -0.9341
vn 0.0877 -0.1908 -0.9777
vn -0.1426 0.3220 -0.9359
vn -0.2454 0.2231 -0.9434
vn 0.1786 -0.1560 -0.9715
vn 0.2234 -0.0723 -0.9720
vn -0.3168 0.1035 -0.9428
vn 0.2188 0.0229 -0.9755
vn -0.3402 -0.0348 -0.9397
vn -0.2959 -0.1688 -0.9402
vn 0.1951 0.1118 -0.9744
vn -0.2008 -0.2737 -0.9406
vn 0.1334 0.1800 -0.9746
vn -0.0734 -0.3382 -0.9382
vn 0.0468 0.2103 -0.9765
vn -0.0472 0.2101 -0.9765
vn 0.0741 -0.3385 -0.9380
vn -0.1337 0.1809 -0.9744
vn 0.2004 -0.2737 -0.9407
vn -0.2007 0.1161 -0.9728
vn 0.2903 -0.1663 -0.9424
vn 0.3311 -0.0341 -0.9430
vn 0.8860 -0.0977 -0.4533
vn 0.7709 -0.4468 -0.4541
vn 0.8504 0.2681 -0.4527
vn 0.6702 0.5883 -0.4524
vn 0.3756 0.8090 -0.4520
vn -0.0008 0.8927 -0.4506
vn -0.3768 0.8086 -0.4519
vn -0.6706 0.5885 -0.4516
vn -0.8504 0.2675 -0.4531
vn -0.8859 -0.0980 -0.4535
vn -0.7704 -0.4476 -0.4540
vn -0.5235 -0.7209 -0.4541
vn -0.1842 -0.8713 -0.4548
vn 0.1861 -0.8712 -0.4543
vn 0.5246 -0.7204 -0.4537
vn 0.1947 0.4182 -0.8873
vn -0.0002 0.4641 -0.8858
vn -0.1953 0.4179 -0.8873
vn -0.3480 0.3042 -0.8868
vn -0.4417 0.1379 -0.8865
vn -0.4603 -0.0528 -0.8862
vn -0.3995 -0.2344 -0.8862
vn -0.2706 -0.3764 -0.8861
vn -0.0955 -0.4539 -0.8859
vn 0.0965 -0.4541 -0.8857
vn 0.2721 -0.3754 -0.8860
vn 0.4005 -0.2328 -0.8863
vn 0.4604 -0.0512 -0.8862
vn 0.4416 0.1385 -0.8865
vn 0.3477 0.3048 -0.8867
vn 0.9941 -0.1087 0.0000
vn 0.8655 -0.5008 0.0000
vn 0.9535 0.3015 0.0000
vn 0.7509 0.6605 0.0000
vn 0.4205 0.9073 0.0000
vn 0.0005 1.0000 0.0000
vn -0.4199 0.9076 0.0000
vn -0.7505 0.6609 0.0000
vn -0.9533 0.3020 0.0000
vn -0.9941 -0.1088 0.0000
vn -0.8653 -0.5013 0.0000
vn -0.5885 -0.8085 0.0000
vn -0.2083 -0.9781 0.0000
vn 0.2100 -0.9777 0.0000
vn 0.5893 -0.8079 0.0000
usemtl led_blue
s 1
f 1/1/1 2/2/2 3/3/3
f 4/4/4 3/3/3 2/2/2
f 3/3/3 5/5/5 6/6/6
f 3/3/3 6/6/6 1/1/1
f 5/5/5 7/7/7 8/8/8
f 5/5/5 8/8/8 6/6/6
f 9/9/9 8/8/8 7/7/7
f 7/7/7 10/10/10 9/9/9
f 11/11/11 9/9/9 10/10/10
f 10/10/10 12/12/12 11/11/11
f 13/13/13 11/11/11 12/12/12
f 12/12/12 14/14/14 13/13/13
f 15/15/15 13/13/13 14/14/14
f 14/14/14 16/16/16 15/15/15
f 17/17/17 15/15/15 16/16/16
f 17/17/17 16/16/16 18/18/18
f 19/19/19 17/17/17 18/18/18
f 19/19/19 18/18/18 20/20/20
f 21/21/21 19/19/19 20/20/20
f 21/21/21 20/20/20 22/22/22
f 23/23/23 22/22/22 24/24/24
f 22/22/22 23/23/23 21/21/21
f 25/25/25 24/24/24 26/26/26
f 24/24/24 25/25/25 23/23/23
f 27/27/27 26/26/26 28/28/28
f 26/26/26 27/27/27 25/25/25
f 29/29/29 28/28/28 30/30/30
f 28/28/28 29/29/29 27/27/27
f 4/4/4 29/29/29 30/30/30
f 29/29/29 4/4/4 2/2/2
f 31/31/31 27/27/27 29/29/29
f 27/27/27 31/31/31 32/32/32
f 29/29/29 2/2/2 33/33/33
f 29/29/29 33/33/33 31/31/31
f 34/34/34 31/31/31 33/33/33
f 31/31/31 34/34/34 35/35/35
f 33/33/33 36/36/36 37/37/37
f 33/33/33 37/37/37 34/34/34
f 2/2/2 36/36/36 33/33/33
f 36/36/36 2/2/2 1/1/1
f 38/38/38 37/37/37 36/36/36
f 37/37/37 38/38/38 39/39/39
f 1/1/1 38/38/38 36/36/36
f 38/38/38 1/1/1 6/6/6
f 40/40/40 39/39/39 38/38/38
f 39/39/39 40/40/40 41/41/41
f 6/6/6 40/40/40 38/38/38
f 40/40/40 6/6/6 8/8/8
f 42/42/42 41/41/41 40/40/40
f 40/40/40 43/43/43 42/42/42
f 8/8/8 43/43/43 40/40/40
f 43/43/43 8/8/8 9/9/9
f 44/44/44 42/42/42 43/43/43
f 43/43/43 45/45/45 44/44/44
f 9/9/9 45/45/45 43/43/43
f 45/45/45 9/9/9 11/11/11
f 46/46/46 44/44/44 45/45/45
f 45/45/45 47/47/47 46/46/46
f 11/11/11 47/47/47 45/45/45
f 47/47/47 11/11/11 13/13/13
f 46/46/46 48/48/48 49/49/49
f 48/48/48 46/46/46 47/47/47
f 13/13/13 48/48/48 47/47/47
f 48/48/48 13/13/13 15/15/15
f 50/50/50 49/49/49 48/48/48
f 50/50/50 48/48/48 51/51/51
f 15/15/15 51/51/51 48/48/48
f 51/51/51 15/15/15 17/17/17
f 52/52/52 50/50/50 51/51/51
f 52/52/52 51/51/51 53/53/53
f 17/17/17 53/53/53 51/51/51
f 53/53/53 17/17/17 19/19/19
f 52/52/52 54/54/54 55/55/55
f 54/54/54 52/52/52 53/53/53
f 19/19/19 54/54/54 53/53/53
f 54/54/54 19/19/19 21/21/21
f 56/56/56 54/54/54 57/57/57
f 54/54/54 56/56/56 55/55/55
f 57/57/57 21/21/21 23/23/23
f 21/21/21 57/57/57 54/54/54
f 58/58/58 57/57/57 59/59/59
f 57/57/57 58/58/58 56/56/56
f 59/59/59 23/23/23 25/25/25
f 23/23/23 59/59/59 57/57/57
f 60/60/60 59/59/59 32/32/32
f 59/59/59 60/60/60 58/58/58
f 32/32/32 25/25/25 27/27/27
f 25/25/25 32/32/32 59/59/59
f 61/61/61 62/62/62 60/60/60
f 60/60/60 62/62/62 58/58/58
f 35/35/35 61/61/61 60/60/60
f 61/61/61 35/35/35 63/63/63
f 35/35/35 60/60/60 31/31/31
f 31/31/31 60/60/60 32/32/32
f 64/64/64 65/65/65 63/63/63
f 61/61/61 63/63/63 65/65/65
f 64/64/64 66/66/66 67/67/67
f 66/66/66 64/64/64 63/63/63
f 34/34/34 63/63/63 35/35/35
f 63/63/63 34/34/34 66/66/66
f 67/67/67 68/68/68 69/69/69
f 68/68/68 67/67/67 66/66/66
f 34/34/34 37/37/37 66/66/66
f 68/68/68 66/66/66 37/37/37
f 69/69/69 70/70/70 71/71/71
f 70/70/70 69/69/69 68/68/68
f 37/37/37 70/70/70 68/68/68
f 70/70/70 37/37/37 39/39/39
f 72/72/72 70/70/70 73/73/73
f 70/70/70 72/72/72 71/71/71
f 73/73/73 39/39/39 41/41/41
f 39/39/39 73/73/73 70/70/70
f 74/74/74 72/72/72 73/73/73
f 72/72/72 74/74/74 75/75/75
f 74/74/74 41/41/41 42/42/42
f 41/41/41 74/74/74 73/73/73
f 75/75/75 76/76/76 77/77/77
f 76/76/76 75/75/75 74/74/74
f 42/42/42 76/76/76 74/74/74
f 76/76/76 42/42/42 44/44/44
f 78/78/78 77/77/77 76/76/76
f 78/78/78 76/76/76 79/79/79
f 44/44/44 79/79/79 76/76/76
f 79/79/79 44/44/44 46/46/46
f 80/80/80 78/78/78 79/79/79
f 80/80/80 79/79/79 81/81/81
f 46/46/46 81/81/81 79/79/79
f 81/81/81 46/46/46 49/49/49
f 82/82/82 81/81/81 83/83/83
f 81/81/81 82/82/82 80/80/80
f 83/83/83 81/81/81 50/50/50
f 50/50/50 81/81/81 49/49/49
f 84/84/84 82/82/82 83/83/83
f 82/82/82 84/84/84 85/85/85
f 52/52/52 83/83/83 50/50/50
f 83/83/83 52/52/52 84/84/84
f 85/85/85 86/86/86 87/87/87
f 86/86/86 85/85/85 84/84/84
f 55/55/55 84/84/84 52/52/52
f 84/84/84 55/55/55 86/86/86
f 87/87/87 88/88/88 89/89/89
f 88/88/88 87/87/87 86/86/86
f 55/55/55 56/56/56 86/86/86
f 88/88/88 86/86/86 56/56/56
f 89/89/89 62/62/62 90/90/90
f 62/62/62 89/89/89 88/88/88
f 56/56/56 58/58/58 88/88/88
f 62/62/62 88/88/88 58/58/58
f 91/91/91 89/89/89 90/90/90
f 89/89/89 91/91/91 92/92/92
f 93/93/93 90/90/90 65/65/65
f 90/90/90 93/93/93 91/91/91
f 65/65/65 90/90/90 61/61/61
f 61/61/61 90/90/90 62/62/62
f 94/94/94 65/65/65 64/64/64
f 65/65/65 94/94/94 93/93/93
f 64/64/64 95/95/95 94/94/94
f 95/95/95 64/64/64 67/67/67
f 69/69/69 95/95/95 67/67/67
f 96/96/96 95/95/95 69/69/69
f 69/69/69 71/71/71 96/96/96
f 97/97/97 96/96/96 71/71/71
f 98/98/98 97/97/97 72/72/72
f 72/72/72 97/97/97 71/71/71
f 75/75/75 98/98/98 72/72/72
f 98/98/98 75/75/75 99/99/99
f 77/77/77 99/99/99 75/75/75
f 99/99/99 77/77/77 100/100/100
f 77/77/77 78/78/78 100/100/100
f 101/101/101 100/100/100 78/78/78
f 78/78/78 80/80/80 101/101/101
f 102/102/102 101/101/101 80/80/80
f 103/103/103 102/102/102 82/82/82
f 82/82/82 102/102/102 80/80/80
f 85/85/85 103/103/103 82/82/82
f 103/103/103 85/85/85 104/104/104
f 85/85/85 105/105/105 104/104/104
f 105/105/105 85/85/85 87/87/87
f 87/87/87 92/92/92 105/105/105
f 92/92/92 87/87/87 89/89/89
f 3/3/3 106/106/106 107/107/107
f 106/106/106 3/3/3 4/4/4
f 108/108/108 3/3/3 107/107/107
f 3/3/3 108/108/108 5/5/5
f 7/7/7 108/108/108 109/109/109
f 108/108/108 7/7/7 5/5/5
f 109/109/109 10/10/10 7/7/7
f 10/10/10 109/109/109 110/110/110
f 110/110/110 12/12/12 10/10/10
f 12/12/12 110/110/110 111/111/111
f 111/111/111 112/112/112 12/12/12
f 14/14/14 12/12/12 112/112/112
f 16/16/16 112/112/112 113/113/113
f 112/112/112 16/16/16 14/14/14
f 113/113/113 18/18/18 16/16/16
f 18/18/18 113/113/113 114/114/114
f 20/20/20 18/18/18 115/115/115
f 18/18/18 114/114/114 115/115/115
f 22/22/22 20/20/20 116/116/116
f 20/20/20 115/115/115 116/116/116
f 116/116/116 117/117/117 22/22/22
f 24/24/24 22/22/22 117/117/117
f 26/26/26 117/117/117 118/118/118
f 117/117/117 26/26/26 24/24/24
f 119/119/119 28/28/28 26/26/26
f 119/119/119 26/26/26 118/118/118
f 120/120/120 30/30/30 28/28/28
f 120/120/120 28/28/28 119/119/119
f 106/106/106 30/30/30 120/120/120
f 30/30/30 106/106/106 4/4/4
f 113/113/113 116/116/116 115/115/115
f 110/110/110 118/118/118 111/111/111
f 109/109/109 119/119/119 110/110/110
f 119/119/119 109/109/109 120/120/120
f 112/112/112 118/118/118 117/117/117
f 113/113/113 117/117/117 116/116/116
f 106/106/106 108/108/108 107/107/107
f 120/120/120 109/109/109 106/106/106
f 118/118/118 110/110/110 119/119/119
f 117/117/117 113/113/113 112/112/112
f 113/113/113 115/115/115 114/114/114
f 111/111/111 118/118/118 112/112/112
f 108/108/108 106/106/106 109/109/109
f 121/121/121 122/122/122 91/91/91
f 91/91/91 122/122/122 92/92/92
f 123/123/123 121/121/121 93/93/93
f 93/93/93 121/121/121 91/91/91
f 124/124/124 123/123/123 94/94/94
f 94/94/94 123/123/123 93/93/93
f 94/94/94 95/95/95 124/124/124
f 95/95/95 125/125/125 124/124/124
f 95/95/95 96/96/96 125/125/125
f 96/96/96 126/126/126 125/125/125
f 96/96/96 97/97/97 126/126/126
f 97/97/97 127/127/127 126/126/126
f 97/97/97 98/98/98 127/127/127
f 98/98/98 128/128/128 127/127/127
f 98/98/98 129/129/129 128/128/128
f 129/129/129 98/98/98 99/99/99
f 129/129/129 99/99/99 100/100/100
f 129/129/129 100/100/100 130/130/130
f 130/130/130 100/100/100 101/101/101
f 130/130/130 101/101/101 131/131/131
f 131/131/131 101/101/101 102/102/102
f 131/131/131 102/102/102 132/132/132
f 132/132/132 103/103/103 133/133/133
f 103/103/103 132/132/132 102/102/102
f 133/133/133 104/104/104 134/134/134
f 104/104/104 133/133/133 103/103/103
f 135/135/135 104/104/104 105/105/105
f 104/104/104 135/135/135 134/134/134
f 122/122/122 105/105/105 92/92/92
f 105/105/105 122/122/122 135/135/135
