# Blender v3.5.1 OBJ File: 'f1.blend'
# www.blender.org
mtllib Mesh_7.mtl
o Mesh_7
v 0.010008 1.381501 2.136693
v 0.005247 1.401883 2.141710
v 0.011124 1.380858 2.141540
v 0.005840 1.401542 2.144285
v 0.006880 1.382017 2.132805
v 0.003586 1.402157 2.139645
v 0.003586 1.402157 2.139645
v 0.002361 1.382303 2.130648
v 0.001185 1.402309 2.138499
v 0.006880 1.382017 2.132805
v -0.001479 1.402309 2.138499
v -0.002655 1.382303 2.130648
v -0.003879 1.402157 2.139645
v -0.007174 1.382017 2.132805
v -0.003879 1.402157 2.139645
v -0.010301 1.381501 2.136693
v -0.005540 1.401883 2.141710
v -0.007174 1.382017 2.132805
v -0.011417 1.380858 2.141540
v -0.006133 1.401542 2.144285
v -0.005540 1.401200 2.146859
v -0.010301 1.380215 2.146388
v -0.003879 1.400926 2.148924
v -0.007174 1.379699 2.150275
v -0.003879 1.400926 2.148924
v -0.002655 1.379413 2.152433
v -0.001479 1.400774 2.150070
v -0.007174 1.379699 2.150275
v 0.001185 1.400774 2.150070
v 0.002361 1.379413 2.152433
v 0.003586 1.400926 2.148924
v 0.006880 1.379699 2.150275
v 0.003586 1.400926 2.148924
v 0.010008 1.380215 2.146388
v 0.005247 1.401200 2.146859
v 0.006880 1.379699 2.150275
v 0.002614 1.401542 2.144285
v 0.005247 1.401883 2.141710
v 0.002340 1.401699 2.143097
v 0.005840 1.401542 2.144285
v 0.003586 1.402157 2.139645
v 0.001574 1.401826 2.142145
v 0.001185 1.402309 2.138499
v 0.000468 1.401896 2.141617
v -0.000761 1.401896 2.141617
v -0.001479 1.402309 2.138499
v -0.001868 1.401826 2.142145
v -0.003879 1.402157 2.139645
v -0.002634 1.401699 2.143097
v -0.005540 1.401883 2.141710
v -0.002907 1.401542 2.144285
v -0.006133 1.401542 2.144285
v -0.005540 1.401200 2.146859
v -0.002634 1.401384 2.145472
v -0.003879 1.400926 2.148924
v -0.001868 1.401258 2.146424
v -0.001479 1.400774 2.150070
v -0.000761 1.401188 2.146952
v 0.001185 1.400774 2.150070
v 0.000468 1.401188 2.146952
v 0.001574 1.401258 2.146424
v 0.003586 1.400926 2.148924
v 0.005247 1.401200 2.146859
v 0.002340 1.401384 2.145472
v 0.010008 1.365565 2.134578
v 0.011124 1.364922 2.139426
v 0.006880 1.366081 2.130691
v 0.002361 1.366367 2.128534
v 0.006880 1.366081 2.130691
v -0.002655 1.366367 2.128534
v -0.007174 1.366081 2.130691
v -0.010301 1.365565 2.134578
v -0.007174 1.366081 2.130691
v -0.011417 1.364922 2.139426
v -0.010301 1.364279 2.144274
v -0.007174 1.363763 2.148161
v -0.007174 1.363763 2.148161
v -0.002655 1.363477 2.150319
v 0.002361 1.363477 2.150319
v 0.006880 1.363763 2.148161
v 0.010008 1.364279 2.144274
v 0.006880 1.363763 2.148161
v 0.010008 1.365565 2.134578
v 0.011124 1.364922 2.139426
v 0.017121 1.359918 2.138762
v 0.015411 1.360904 2.131335
v 0.006880 1.366081 2.130691
v 0.010620 1.361694 2.125379
v 0.002361 1.366367 2.128534
v 0.003696 1.362132 2.122073
v -0.003989 1.362132 2.122073
v -0.002655 1.366367 2.128534
v -0.010913 1.361694 2.125379
v -0.007174 1.366081 2.130691
v -0.015705 1.360904 2.131335
v -0.010301 1.365565 2.134578
v -0.017415 1.359918 2.138762
v -0.011417 1.364922 2.139426
v -0.015705 1.358933 2.146189
v -0.010301 1.364279 2.144274
v -0.010913 1.358142 2.152145
v -0.007174 1.363763 2.148161
v -0.003989 1.357704 2.155451
v -0.002655 1.363477 2.150319
v 0.002361 1.363477 2.150319
v 0.003696 1.357704 2.155451
v 0.006880 1.363763 2.148161
v 0.010620 1.358142 2.152145
v 0.015411 1.358933 2.146189
v 0.010008 1.364279 2.144274
v 0.017121 1.356101 2.138256
v 0.015411 1.360904 2.131335
v 0.017121 1.359918 2.138762
v 0.015411 1.357086 2.130828
v 0.010620 1.361694 2.125379
v 0.010620 1.357877 2.124872
v 0.010620 1.361694 2.125379
v 0.003696 1.358315 2.121567
v 0.003696 1.362132 2.122073
v 0.010620 1.357877 2.124872
v -0.003989 1.362132 2.122073
v -0.003989 1.358315 2.121567
v -0.010913 1.361694 2.125379
v -0.010913 1.357877 2.124872
v -0.010913 1.361694 2.125379
v -0.015705 1.357086 2.130828
v -0.015705 1.360904 2.131335
v -0.010913 1.357877 2.124872
v -0.017415 1.356101 2.138256
v -0.017415 1.359918 2.138762
v -0.015705 1.355116 2.145683
v -0.015705 1.358933 2.146189
v -0.010913 1.354325 2.151639
v -0.010913 1.358142 2.152145
v -0.003989 1.357704 2.155451
v -0.010913 1.358142 2.152145
v -0.010913 1.354325 2.151639
v -0.003989 1.353887 2.154944
v 0.003696 1.357704 2.155451
v 0.003696 1.353887 2.154944
v 0.010620 1.354325 2.151639
v 0.010620 1.358142 2.152145
v 0.010620 1.354325 2.151639
v 0.015411 1.358933 2.146189
v 0.010620 1.358142 2.152145
v 0.015411 1.355116 2.145683
vt 7.675032 76.566994
vt 7.786589 76.456940
vt 7.663449 76.516243
vt 7.811707 76.566994
vt 7.716211 76.368698
vt 7.630994 76.475563
vt 7.614514 76.319710
vt 7.584100 76.452965
vt 7.532053 76.452965
vt 7.501637 76.319710
vt 7.485153 76.475563
vt 7.399935 76.368698
vt 7.452703 76.516243
vt 7.329558 76.456940
vt 7.441121 76.566994
vt 7.304446 76.566994
vt 7.329558 76.677048
vt 7.452703 76.617737
vt 7.399935 76.765297
vt 7.485153 76.658432
vt 7.501637 76.814270
vt 7.532053 76.681015
vt 7.614514 76.814270
vt 7.584100 76.681015
vt 7.630994 76.658432
vt 7.716211 76.765297
vt 7.786589 76.677048
vt 7.663449 76.617737
vt -76.323425 -8.925570
vt -76.420563 -9.809622
vt -76.530617 -8.925570
vt -76.530617 -9.809622
vt -76.157265 -8.925570
vt -76.332321 -9.809622
vt 7.716211 -9.809622
vt 7.664338 -8.925570
vt 7.614514 -9.809622
vt 7.855812 -8.925570
vt 7.501637 -9.809622
vt 7.451812 -8.925570
vt 7.399935 -9.809622
vt 7.260341 -8.925570
vt -76.332321 -9.809622
vt -76.323425 -8.925570
vt -76.420563 -9.809622
vt -76.157265 -8.925570
vt -76.530617 -8.925570
vt -76.530617 -9.809622
vt -76.640663 -9.809622
vt -76.737808 -8.925570
vt -76.728912 -9.809622
vt -76.903969 -8.925570
vt 7.399935 -9.809622
vt 7.451812 -8.925570
vt 7.501637 -9.809622
vt 7.260335 -8.925570
vt 7.614514 -9.809622
vt 7.664338 -8.925570
vt 7.716211 -9.809622
vt 7.855812 -8.925570
vt -76.728912 -9.809622
vt -76.737808 -8.925570
vt -76.640663 -9.809622
vt -76.903969 -8.925570
vt -76.323425 -8.244444
vt -76.530617 -8.244444
vt -76.157265 -8.244444
vt 7.664338 -8.244444
vt 7.855812 -8.244444
vt 7.451812 -8.244444
vt 7.260341 -8.244444
vt -76.323425 -8.244444
vt -76.157265 -8.244444
vt -76.530617 -8.244444
vt -76.737808 -8.244444
vt -76.903969 -8.244444
vt 7.260335 -8.244444
vt 7.451812 -8.244444
vt 7.664338 -8.244444
vt 7.855812 -8.244444
vt -76.737808 -8.244444
vt -76.903969 -8.244444
vt 7.988323 76.359802
vt 8.035607 76.566994
vt 8.289716 76.566994
vt 8.217261 76.249550
vt 7.855812 76.193642
vt 8.014246 75.994972
vt 7.664338 76.101433
vt 7.720878 75.853699
vt 7.395269 75.853699
vt 7.451812 76.101433
vt 7.101907 75.994972
vt 7.260341 76.193642
vt 6.898892 76.249550
vt 7.127831 76.359802
vt 6.826430 76.566994
vt 7.080542 76.566994
vt 6.898892 76.884438
vt 7.127831 76.774178
vt 7.101907 77.139008
vt 7.260335 76.940346
vt 7.395269 77.280296
vt 7.451812 77.032555
vt 7.664338 77.032555
vt 7.720884 77.280296
vt 7.855812 76.940346
vt 8.014246 77.139008
vt 8.217261 76.884438
vt 7.988323 76.774178
vt -76.530617 -7.867435
vt -76.213158 -8.030585
vt -76.530617 -8.030585
vt -76.213158 -7.867435
vt -75.958603 -8.030585
vt -75.958603 -7.867435
vt 8.014246 -8.030585
vt 7.720878 -7.867435
vt 7.720878 -8.030585
vt 8.014246 -7.867435
vt 7.395269 -8.030585
vt 7.395269 -7.867435
vt 7.101907 -8.030585
vt 7.101907 -7.867435
vt -75.958603 -8.030585
vt -76.213158 -7.867435
vt -76.213158 -8.030585
vt -75.958603 -7.867435
vt -76.530617 -7.867435
vt -76.530617 -8.030585
vt -76.848068 -7.867435
vt -76.848068 -8.030585
vt -77.102638 -7.867435
vt -77.102638 -8.030585
vt 7.395269 -8.030585
vt 7.101907 -8.030585
vt 7.101907 -7.867435
vt 7.395269 -7.867435
vt 7.720884 -8.030585
vt 7.720884 -7.867435
vt 8.014246 -7.867435
vt 8.014246 -8.030585
vt -77.102638 -7.867435
vt -76.848068 -8.030585
vt -77.102638 -8.030585
vt -76.848068 -7.867435
vn 0.0000 0.9913 0.1316
vn 0.0000 0.9913 0.1315
vn -0.0000 0.9913 0.1314
vn 0.0001 0.9913 0.1314
vn -0.0001 0.9913 0.1315
vn -0.0000 0.9913 0.1317
vn 0.0004 0.9913 0.1315
vn -0.0003 0.9913 0.1315
vn -0.0001 0.9913 0.1316
vn 0.0001 0.9913 0.1315
vn 0.0003 0.9913 0.1315
vn 0.8943 0.1772 -0.4110
vn 0.8734 0.2987 -0.3846
vn 0.9926 0.1206 0.0160
vn 0.9694 0.2434 0.0323
vn 0.6188 0.2227 -0.7533
vn 0.6044 0.3430 -0.7190
vn 0.6045 0.3430 -0.7190
vn 0.2209 0.2478 -0.9433
vn 0.2158 0.3677 -0.9046
vn 0.6188 0.2226 -0.7533
vn -0.2158 0.3677 -0.9046
vn -0.2209 0.2478 -0.9433
vn -0.6045 0.3431 -0.7190
vn -0.6188 0.2226 -0.7533
vn -0.6044 0.3430 -0.7190
vn -0.8943 0.1772 -0.4109
vn -0.8734 0.2987 -0.3846
vn -0.9926 0.1206 0.0160
vn -0.9694 0.2434 0.0323
vn -0.8734 0.1881 0.4493
vn -0.8943 0.0639 0.4429
vn -0.6044 0.1437 0.7836
vn -0.6188 0.0185 0.7853
vn -0.6043 0.1437 0.7837
vn -0.2209 -0.0067 0.9753
vn -0.2156 0.1191 0.9692
vn -0.6189 0.0185 0.7853
vn 0.2156 0.1191 0.9692
vn 0.2209 -0.0067 0.9753
vn 0.6043 0.1437 0.7837
vn 0.6189 0.0185 0.7853
vn 0.6044 0.1437 0.7836
vn 0.8943 0.0639 0.4429
vn 0.8734 0.1881 0.4492
vn -0.0003 0.9913 0.1314
vn 0.9010 0.0571 -0.4301
vn 1.0000 -0.0000 -0.0000
vn 0.6235 0.1028 -0.7750
vn 0.2225 0.1282 -0.9665
vn 0.6234 0.1028 -0.7751
vn -0.2225 0.1282 -0.9665
vn -0.6235 0.1028 -0.7751
vn -0.9010 0.0571 -0.4301
vn -0.6235 0.1029 -0.7750
vn -1.0000 0.0000 -0.0000
vn -0.9010 -0.0571 0.4301
vn -0.6235 -0.1028 0.7750
vn -0.2225 -0.1282 0.9665
vn 0.2225 -0.1282 0.9665
vn 0.6235 -0.1028 0.7750
vn 0.9010 -0.0571 0.4301
vn 0.5801 0.7952 -0.1763
vn 0.6439 0.7584 0.1006
vn 0.6439 0.7585 0.1006
vn 0.4015 0.8247 -0.3984
vn 0.1433 0.8410 -0.5217
vn -0.1433 0.8410 -0.5217
vn -0.4015 0.8247 -0.3984
vn -0.5801 0.7952 -0.1763
vn -0.6439 0.7585 0.1006
vn -0.6439 0.7584 0.1006
vn -0.5801 0.7217 0.3776
vn -0.4015 0.6922 0.5997
vn -0.1433 0.6759 0.7229
vn 0.1433 0.6759 0.7230
vn 0.4015 0.6922 0.5997
vn 0.5801 0.7217 0.3776
vn 0.6235 0.1028 -0.7751
vn 0.6234 0.1029 -0.7751
vn 0.2225 0.1283 -0.9665
vn 0.2225 0.1283 -0.9664
vn -0.2225 0.1283 -0.9664
vn -0.2225 0.1283 -0.9665
vn -0.6234 0.1029 -0.7751
vn -0.6234 0.1028 -0.7751
vn -0.9010 0.0571 -0.4302
vn -0.6235 -0.1028 0.7751
vn 0.6235 -0.1029 0.7750
vn 0.6234 -0.1028 0.7751
vn 0.6234 -0.1029 0.7751
usemtl black_s
s off
f 37/1/1 38/2/1 39/3/1
f 38/2/2 37/1/2 40/4/2
f 39/3/3 41/5/3 42/6/3
f 41/5/2 39/3/2 38/2/2
f 43/7/1 42/6/1 41/5/1
f 42/6/4 43/7/4 44/8/4
f 45/9/2 43/7/2 46/10/2
f 43/7/2 45/9/2 44/8/2
f 47/11/1 46/10/1 48/12/1
f 46/10/5 47/11/5 45/9/5
f 49/13/3 48/12/3 50/14/3
f 49/13/6 50/14/7 51/15/6
f 50/14/2 52/16/2 51/15/2
f 53/17/2 51/15/2 52/16/2
f 51/15/1 53/17/1 54/18/1
f 55/19/1 54/18/1 53/17/1
f 54/18/1 55/19/1 56/20/1
f 57/21/2 56/20/8 55/19/8
f 56/20/9 57/21/9 58/22/9
f 57/21/1 59/23/1 60/24/1
f 57/21/3 60/24/3 58/22/3
f 60/24/10 59/23/10 61/25/10
f 59/23/11 62/26/11 61/25/11
f 63/27/2 64/28/2 62/26/2
f 62/26/1 64/28/1 61/25/1
f 37/1/2 63/27/2 40/4/2
f 63/27/1 37/1/1 64/28/1
s 1
f 1/29/12 2/30/13 3/31/14
f 4/32/15 3/31/14 2/30/13
f 5/33/16 6/34/17 1/29/12
f 2/30/13 1/29/12 6/34/17
f 7/35/18 8/36/19 9/37/20
f 8/36/19 7/35/18 10/38/21
f 9/37/20 8/36/19 11/39/22
f 8/36/19 12/40/23 11/39/22
f 11/39/22 12/40/23 13/41/24
f 12/40/23 14/42/25 13/41/24
f 15/43/26 16/44/27 17/45/28
f 16/44/27 15/43/26 18/46/25
f 17/45/28 19/47/29 20/48/30
f 19/47/29 17/45/28 16/44/27
f 20/48/30 19/47/29 21/49/31
f 21/49/31 19/47/29 22/50/32
f 21/49/31 22/50/32 23/51/33
f 22/50/32 24/52/34 23/51/33
f 25/53/35 26/54/36 27/55/37
f 26/54/36 25/53/35 28/56/38
f 27/55/37 26/54/36 29/57/39
f 26/54/36 30/58/40 29/57/39
f 29/57/39 30/58/40 31/59/41
f 30/58/40 32/60/42 31/59/41
f 33/61/43 34/62/44 35/63/45
f 34/62/44 33/61/43 36/64/42
f 35/63/45 3/31/14 4/32/15
f 3/31/14 35/63/45 34/62/44
f 48/12/3 49/13/8 47/11/46
f 3/31/14 65/65/47 1/29/12
f 65/65/47 3/31/14 66/66/48
f 65/65/47 5/33/16 1/29/12
f 5/33/16 65/65/47 67/67/49
f 10/38/21 68/68/50 8/36/19
f 68/68/50 10/38/21 69/69/51
f 8/36/19 68/68/50 12/40/23
f 12/40/23 68/68/50 70/70/52
f 12/40/23 70/70/52 14/42/25
f 14/42/25 70/70/52 71/71/53
f 18/46/25 72/72/54 16/44/27
f 72/72/54 18/46/25 73/73/55
f 16/44/27 72/72/54 19/47/29
f 19/47/29 72/72/54 74/74/56
f 19/47/29 75/75/57 22/50/32
f 75/75/57 19/47/29 74/74/56
f 22/50/32 75/75/57 24/52/34
f 24/52/34 75/75/57 76/76/58
f 28/56/38 77/77/58 26/54/36
f 26/54/36 77/77/58 78/78/59
f 26/54/36 78/78/59 30/58/40
f 30/58/40 78/78/59 79/79/60
f 30/58/40 80/80/61 32/60/42
f 80/80/61 30/58/40 79/79/60
f 36/64/42 81/81/62 34/62/44
f 81/81/62 36/64/42 82/82/61
f 81/81/62 3/31/14 34/62/44
f 3/31/14 81/81/62 66/66/48
f 83/83/63 84/84/64 85/85/65
f 83/83/63 85/85/65 86/86/63
f 86/86/63 87/87/66 83/83/63
f 87/87/66 86/86/63 88/88/66
f 88/88/66 89/89/67 87/87/66
f 89/89/67 88/88/66 90/90/67
f 90/90/67 91/91/68 92/92/68
f 90/90/67 92/92/68 89/89/67
f 93/93/69 92/92/68 91/91/68
f 92/92/68 93/93/69 94/94/69
f 94/94/69 95/95/70 96/96/70
f 95/95/70 94/94/69 93/93/69
f 96/96/70 97/97/71 98/98/72
f 97/97/71 96/96/70 95/95/70
f 99/99/73 98/98/72 97/97/71
f 98/98/72 99/99/73 100/100/73
f 101/101/74 100/100/73 99/99/73
f 100/100/73 101/101/74 102/102/74
f 102/102/74 103/103/75 104/104/75
f 103/103/75 102/102/74 101/101/74
f 104/104/75 103/103/75 105/105/76
f 105/105/76 103/103/75 106/106/76
f 105/105/76 106/106/76 107/107/77
f 107/107/77 106/106/76 108/108/77
f 108/108/77 109/109/78 110/110/78
f 108/108/77 110/110/78 107/107/77
f 85/85/65 84/84/64 109/109/78
f 84/84/64 110/110/78 109/109/78
f 111/111/48 112/112/47 113/113/48
f 112/112/47 111/111/48 114/114/47
f 114/114/47 115/115/49 112/112/47
f 115/115/49 114/114/47 116/116/79
f 117/117/80 118/118/81 119/119/82
f 118/118/81 117/117/80 120/120/80
f 118/118/81 121/121/83 119/119/82
f 121/121/83 118/118/81 122/122/84
f 123/123/85 121/121/83 122/122/84
f 123/123/85 122/122/84 124/124/85
f 125/125/86 126/126/54 127/127/87
f 126/126/54 125/125/86 128/128/53
f 127/127/87 129/129/56 130/130/56
f 129/129/56 127/127/87 126/126/54
f 130/130/56 131/131/57 132/132/57
f 131/131/57 130/130/56 129/129/56
f 132/132/57 133/133/58 134/134/88
f 133/133/58 132/132/57 131/131/57
f 135/135/59 136/136/88 137/137/88
f 135/135/59 137/137/88 138/138/59
f 139/139/60 135/135/59 138/138/59
f 139/139/60 138/138/59 140/140/60
f 139/139/60 141/141/61 142/142/89
f 141/141/61 139/139/60 140/140/60
f 143/143/90 144/144/62 145/145/91
f 144/144/62 143/143/90 146/146/62
f 146/146/62 113/113/48 144/144/62
f 113/113/48 146/146/62 111/111/48
