# Blender v3.5.1 OBJ File: 'f1.blend'
# www.blender.org
mtllib Mesh_138.mtl
o Mesh_138
v 0.007922 1.981401 -5.130836
v 0.007922 1.981401 -5.112566
v 0.007922 1.973736 -5.109777
v 0.007922 1.973736 -5.133626
v 0.007922 1.949715 -5.115355
v 0.007923 1.944822 -5.109686
v 0.007922 1.946526 -5.112850
v 0.007922 1.953814 -5.119102
v 0.007922 1.959234 -5.123763
v 0.007922 1.963408 -5.127664
v 0.007922 1.966071 -5.130836
v 0.007922 1.969657 -5.132907
v 0.007922 1.977814 -5.132907
v 0.007922 1.984063 -5.115739
v 0.007922 1.984063 -5.127664
v 0.007922 1.985480 -5.123773
v 0.007922 1.985480 -5.119631
v 0.007922 1.977814 -5.110496
vt -93.285530 -363.264557
vt -93.533821 -363.567078
vt -93.698677 -363.509125
vt -93.374550 -363.114166
vt -94.020622 -363.090271
vt -94.209976 -363.091949
vt -94.107460 -363.088409
vt -93.901787 -363.083954
vt -93.748772 -363.080475
vt -93.626602 -363.072571
vt -93.539360 -363.056244
vt -93.451927 -363.070679
vt -93.316864 -363.181519
vt -93.446617 -363.550659
vt -93.284599 -363.353271
vt -93.313995 -363.436920
vt -93.370270 -363.505493
vt -93.621429 -363.552582
vn 1.0000 -0.0000 0.0000
vn 1.0000 -0.0001 -0.0001
usemtl chrome
s off
f 1/1/1 2/2/1 3/3/1
f 1/1/1 3/3/1 4/4/1
f 5/5/2 6/6/2 7/7/2
f 6/6/1 5/5/1 3/3/1
f 3/3/1 8/8/1 9/9/1
f 8/8/1 3/3/1 5/5/1
f 10/10/1 3/3/1 9/9/1
f 11/11/1 3/3/1 10/10/1
f 4/4/1 3/3/1 11/11/1
f 4/4/1 11/11/1 12/12/1
f 1/1/1 4/4/1 13/13/1
f 14/14/1 1/1/1 15/15/1
f 14/14/1 15/15/1 16/16/1
f 14/14/1 16/16/1 17/17/1
f 2/2/1 1/1/1 14/14/1
f 3/3/1 2/2/1 18/18/1
