# Blender v3.5.1 OBJ File: 'f1.blend'
# www.blender.org
mtllib Mesh_223.mtl
o Mesh_223
v -0.118587 1.417025 0.798711
v -0.116478 1.414915 0.798711
v -0.118588 1.414916 0.798711
v -0.116478 1.417025 0.798711
v -0.112258 1.423352 0.798710
v -0.110149 1.421243 0.798711
v -0.112258 1.421243 0.798711
v -0.110148 1.423352 0.798710
v -0.112259 1.417024 0.798711
v -0.110150 1.417024 0.798711
v -0.110150 1.414914 0.798711
v -0.112259 1.414915 0.798711
v -0.116477 1.421244 0.798711
v -0.118586 1.423354 0.798710
v -0.116477 1.423353 0.798710
v -0.118586 1.421244 0.798711
v -0.116477 1.419134 0.798711
v -0.118587 1.419135 0.798711
v -0.114367 1.423353 0.798710
v -0.114368 1.421243 0.798711
v -0.114368 1.419134 0.798711
v -0.112259 1.419134 0.798711
v -0.114368 1.417024 0.798711
v -0.114369 1.414915 0.798711
v -0.110149 1.419133 0.798711
v 0.118602 1.417025 0.798711
v 0.116493 1.414915 0.798711
v 0.116493 1.417025 0.798711
v 0.118602 1.414916 0.798711
v 0.112273 1.423352 0.798710
v 0.110164 1.421243 0.798711
v 0.110163 1.423352 0.798710
v 0.112273 1.421243 0.798711
v 0.112274 1.417024 0.798711
v 0.110165 1.414914 0.798711
v 0.110164 1.417024 0.798711
v 0.112274 1.414915 0.798711
v 0.116492 1.423353 0.798710
v 0.118601 1.423354 0.798710
v 0.116492 1.421244 0.798711
v 0.118601 1.421244 0.798711
v 0.116492 1.419134 0.798711
v 0.118602 1.419135 0.798711
v 0.114382 1.423353 0.798710
v 0.114382 1.421243 0.798711
v 0.114383 1.419134 0.798711
v 0.112273 1.419134 0.798711
v 0.114383 1.417024 0.798711
v 0.114384 1.414915 0.798711
v 0.110164 1.419133 0.798711
vt 0.999955 -0.250139
vt 0.750043 -0.000146
vt 0.999998 -0.000189
vt 0.750000 -0.250096
vt 0.249954 -0.999878
vt 0.000042 -0.749882
vt 0.249997 -0.749924
vt -0.000002 -0.999836
vt 0.250085 -0.250009
vt 0.000129 -0.249966
vt 0.000173 -0.000015
vt 0.250128 -0.000058
vt 0.749912 -0.750011
vt 0.999825 -1.000008
vt 0.749868 -0.999966
vt 0.999867 -0.750053
vt 0.749955 -0.500054
vt 0.999911 -0.500096
vt 0.499910 -0.999920
vt 0.499954 -0.749966
vt 0.499997 -0.500009
vt 0.250041 -0.499966
vt 0.500041 -0.250054
vt 0.500084 -0.000104
vt 0.000085 -0.499924
vt 0.000043 -0.250132
vt 0.249955 -0.000138
vt 0.249998 -0.250089
vt 0.000000 -0.000181
vt 0.750044 -0.999870
vt 0.999956 -0.749874
vt 1.000000 -0.999828
vt 0.750001 -0.749916
vt 0.749913 -0.250001
vt 0.999825 -0.000008
vt 0.999869 -0.249958
vt 0.749870 -0.000051
vt 0.250130 -0.999958
vt 0.000174 -1.000000
vt 0.250086 -0.750004
vt 0.000131 -0.750046
vt 0.250043 -0.500047
vt 0.000087 -0.500089
vt 0.500088 -0.999912
vt 0.500044 -0.749958
vt 0.500001 -0.500001
vt 0.749957 -0.499958
vt 0.499957 -0.250047
vt 0.499914 -0.000096
vt 0.999913 -0.499916
vn -0.0000 -0.0001 -1.0000
vn 0.0001 -0.0001 -1.0000
vn -0.0001 -0.0001 -1.0000
usemtl GP21_CLEARLED
s off
f 1/1/1 2/2/1 3/3/1
f 2/2/1 1/1/1 4/4/1
f 5/5/1 6/6/1 7/7/1
f 6/6/1 5/5/1 8/8/1
f 9/9/2 10/10/2 11/11/2
f 9/9/1 11/11/1 12/12/1
f 13/13/1 14/14/1 15/15/1
f 14/14/1 13/13/1 16/16/1
f 16/16/1 17/17/1 18/18/1
f 17/17/1 16/16/1 13/13/1
f 19/19/2 13/13/2 15/15/2
f 13/13/3 19/19/3 20/20/3
f 13/13/2 20/20/2 17/17/2
f 20/20/1 21/21/1 17/17/1
f 19/19/1 7/7/1 20/20/1
f 7/7/1 19/19/1 5/5/1
f 22/22/1 23/23/1 21/21/1
f 23/23/3 22/22/3 9/9/3
f 17/17/1 21/21/1 4/4/1
f 21/21/1 23/23/1 4/4/1
f 20/20/1 22/22/1 21/21/1
f 22/22/1 20/20/1 7/7/1
f 9/9/1 24/24/1 23/23/1
f 24/24/1 9/9/1 12/12/1
f 4/4/1 24/24/1 2/2/1
f 24/24/1 4/4/1 23/23/1
f 10/10/1 22/22/1 25/25/1
f 22/22/1 10/10/1 9/9/1
f 7/7/1 25/25/1 22/22/1
f 25/25/1 7/7/1 6/6/1
f 4/4/1 18/18/1 17/17/1
f 18/18/1 4/4/1 1/1/1
f 26/26/3 27/27/3 28/28/3
f 27/27/2 26/26/2 29/29/2
f 30/30/1 31/31/1 32/32/1
f 31/31/1 30/30/1 33/33/1
f 34/34/3 35/35/3 36/36/3
f 35/35/2 34/34/2 37/37/2
f 38/38/1 39/39/1 40/40/1
f 39/39/1 41/41/1 40/40/1
f 41/41/1 42/42/1 40/40/1
f 42/42/1 41/41/1 43/43/1
f 44/44/3 38/38/3 40/40/3
f 44/44/1 40/40/1 45/45/1
f 40/40/3 42/42/3 45/45/3
f 45/45/1 42/42/1 46/46/1
f 44/44/1 33/33/1 30/30/1
f 33/33/1 44/44/1 45/45/1
f 47/47/1 48/48/1 34/34/1
f 48/48/1 47/47/1 46/46/1
f 42/42/1 28/28/1 46/46/1
f 46/46/1 28/28/1 48/48/1
f 45/45/1 47/47/1 33/33/1
f 47/47/1 45/45/1 46/46/1
f 34/34/1 49/49/1 37/37/1
f 49/49/1 34/34/1 48/48/1
f 28/28/3 49/49/3 48/48/3
f 49/49/2 28/28/2 27/27/2
f 50/50/1 47/47/1 36/36/1
f 47/47/1 34/34/1 36/36/1
f 33/33/1 50/50/1 31/31/1
f 50/50/1 33/33/1 47/47/1
f 42/42/3 43/43/3 28/28/3
f 43/43/1 26/26/1 28/28/1
