# Blender v3.5.1 OBJ File: 'f1.blend'
# www.blender.org
mtllib Mesh_68.mtl
o Mesh_68
v 0.342566 0.832318 0.744419
v 0.342566 0.859839 0.744419
v 0.348351 0.859733 0.743849
v 0.348351 0.832213 0.743849
v 0.337004 0.832630 0.746106
v 0.337004 0.860150 0.746106
v 0.331877 0.833136 0.748846
v 0.331877 0.860657 0.748846
v 0.327384 0.833817 0.752534
v 0.327384 0.861338 0.752534
v 0.323696 0.834647 0.757027
v 0.323696 0.862168 0.757027
v 0.320956 0.835595 0.762154
v 0.320956 0.863115 0.762153
v 0.319269 0.836622 0.767716
v 0.319269 0.864143 0.767716
v 0.318699 0.837691 0.773501
v 0.318699 0.865212 0.773501
v 0.318699 0.889349 1.053082
v 0.318699 0.909349 1.053082
v 0.401024 0.889349 1.053082
v 0.401024 0.865212 0.773501
v 0.401024 0.909349 1.053082
v 0.401024 0.837691 0.773501
v 0.400455 0.864143 0.767716
v 0.400455 0.836622 0.767716
v 0.398767 0.863115 0.762154
v 0.398767 0.835595 0.762154
v 0.396027 0.862168 0.757027
v 0.396027 0.834647 0.757027
v 0.392340 0.861338 0.752534
v 0.392340 0.833817 0.752534
v 0.387846 0.860657 0.748846
v 0.387846 0.833136 0.748846
v 0.382720 0.860150 0.746106
v 0.382720 0.832630 0.746106
v 0.377157 0.859839 0.744419
v 0.377157 0.832318 0.744419
v 0.371373 0.859733 0.743849
v 0.371373 0.832213 0.743849
v 0.348351 0.859733 0.743849
v 0.348351 0.832213 0.743849
v 0.397727 0.868993 0.773662
v 0.321996 0.920294 1.053142
v 0.397727 0.920294 1.053142
v 0.321996 0.868993 0.773662
v 0.349273 0.863953 0.746386
v 0.321996 0.868993 0.773662
v 0.324072 0.867064 0.763224
v 0.389738 0.865429 0.754375
v 0.397203 0.868010 0.768341
v 0.334119 0.864802 0.750983
v 0.343951 0.864050 0.746910
v 0.338834 0.864337 0.748462
v 0.326593 0.866193 0.758508
v 0.329985 0.865429 0.754375
v 0.322520 0.868010 0.768341
v 0.370451 0.863953 0.746386
v 0.380889 0.864337 0.748462
v 0.395651 0.867064 0.763224
v 0.393130 0.866193 0.758508
v 0.385605 0.864802 0.750983
v 0.375772 0.864050 0.746910
v 0.318699 0.909349 1.053082
v 0.401024 0.909349 1.053082
vt 0.005380 0.000000
vt 0.005380 -1.000000
vt 0.000000 -1.000000
vt 0.000000 0.000000
vt 0.010760 0.000000
vt 0.010760 -1.000000
vt 0.016141 0.000000
vt 0.016141 -1.000000
vt 0.021521 0.000000
vt 0.021521 -1.000000
vt 0.026901 0.000000
vt 0.026901 -1.000000
vt 0.032281 0.000000
vt 0.032281 -1.000000
vt 0.037661 0.000000
vt 0.037661 -1.000000
vt 0.043041 0.000000
vt 0.043041 -1.000000
vt 0.335337 0.000000
vt 0.335337 -1.000000
vt 0.488151 0.000000
vt 0.780446 -1.000000
vt 0.488151 -1.000000
vt 0.780446 0.000000
vt 0.785827 -1.000000
vt 0.785827 0.000000
vt 0.791207 -1.000000
vt 0.791207 0.000000
vt 0.796587 -1.000000
vt 0.796587 0.000000
vt 0.801967 -1.000000
vt 0.801967 0.000000
vt 0.807347 -1.000000
vt 0.807347 0.000000
vt 0.812728 -1.000000
vt 0.812728 0.000000
vt 0.818108 -1.000000
vt 0.818108 0.000000
vt 0.823488 -1.000000
vt 0.823488 0.000000
vt 1.000000 -1.000000
vt 1.000000 0.000000
vt 0.488151 -1.000000
vt 0.043041 -1.000000
vt 0.335337 -1.000000
vt 0.037661 -1.000000
vt 1.000000 -1.000000
vt 0.043041 -1.000000
vt 0.032281 -1.000000
vt 0.801967 -1.000000
vt 0.785827 -1.000000
vt 0.016141 -1.000000
vt 0.005380 -1.000000
vt 0.010760 -1.000000
vt 0.026901 -1.000000
vt 0.021521 -1.000000
vt 0.037661 -1.000000
vt 0.823488 -1.000000
vt 0.812728 -1.000000
vt 0.791207 -1.000000
vt 0.796587 -1.000000
vt 0.807347 -1.000000
vt 0.818108 -1.000000
vt 0.043041 -1.000000
vt 0.335337 -1.000000
vn -0.1929 0.0000 -0.9812
vn -0.1822 0.2737 -0.9444
vn -0.0468 0.2672 -0.9625
vn -0.0488 -0.0000 -0.9988
vn -0.3786 0.0000 -0.9256
vn -0.3520 0.2860 -0.8912
vn -0.5502 0.0000 -0.8350
vn -0.5084 0.2978 -0.8080
vn -0.7013 0.0000 -0.7129
vn -0.6465 0.3090 -0.6975
vn -0.8261 0.0000 -0.5635
vn -0.7620 0.3194 -0.5633
vn -0.9198 -0.0000 -0.3925
vn -0.8510 0.3289 -0.4093
vn -0.9785 -0.0000 -0.2061
vn -0.9103 0.3372 -0.2402
vn -0.9985 0.0000 -0.0548
vn -0.9545 0.2827 -0.0945
vn -1.0000 0.0000 0.0000
vn -0.9109 0.2131 0.3534
vn 1.0000 0.0000 0.0000
vn 0.9545 0.2827 -0.0945
vn 0.9109 0.2131 0.3533
vn 0.9985 0.0000 -0.0548
vn 0.9103 0.3372 -0.2402
vn 0.9785 0.0000 -0.2061
vn 0.8510 0.3289 -0.4093
vn 0.9198 -0.0000 -0.3925
vn 0.7620 0.3194 -0.5633
vn 0.8261 -0.0000 -0.5635
vn 0.6465 0.3090 -0.6975
vn 0.7013 0.0000 -0.7129
vn 0.5084 0.2978 -0.8080
vn 0.5502 0.0000 -0.8350
vn 0.3520 0.2860 -0.8912
vn 0.3786 0.0000 -0.9256
vn 0.1822 0.2737 -0.9444
vn 0.1929 0.0000 -0.9812
vn 0.0468 0.2672 -0.9625
vn 0.0488 0.0000 -0.9988
vn 0.4884 0.8548 -0.1753
vn -0.4416 0.7334 0.5169
vn 0.4416 0.7333 0.5169
vn -0.4884 0.8548 -0.1753
vn -0.0188 0.8169 -0.5765
vn -0.3820 0.8684 -0.3161
vn 0.2891 0.8472 -0.4457
vn 0.4120 0.8789 -0.2406
vn -0.2278 0.8367 -0.4980
vn -0.0795 0.8168 -0.5714
vn -0.1576 0.8266 -0.5403
vn -0.3408 0.8578 -0.3847
vn -0.2891 0.8472 -0.4458
vn -0.4120 0.8788 -0.2406
vn 0.0188 0.8169 -0.5765
vn 0.1576 0.8265 -0.5404
vn 0.3820 0.8684 -0.3161
vn 0.3407 0.8579 -0.3847
vn 0.2278 0.8368 -0.4979
vn 0.0795 0.8168 -0.5715
vn -0.9109 0.2131 0.3533
usemtl plastic_interior
s 1
f 1/1/1 2/2/2 3/3/3
f 3/3/3 4/4/4 1/1/1
f 5/5/5 6/6/6 2/2/2
f 2/2/2 1/1/1 5/5/5
f 7/7/7 8/8/8 6/6/6
f 6/6/6 5/5/5 7/7/7
f 9/9/9 10/10/10 8/8/8
f 8/8/8 7/7/7 9/9/9
f 11/11/11 12/12/12 10/10/10
f 10/10/10 9/9/9 11/11/11
f 13/13/13 14/14/14 12/12/12
f 12/12/12 11/11/11 13/13/13
f 15/15/15 16/16/16 14/14/14
f 14/14/14 13/13/13 15/15/15
f 17/17/17 18/18/18 16/16/16
f 16/16/16 15/15/15 17/17/17
f 17/17/17 19/19/19 18/18/18
f 20/20/20 18/18/18 19/19/19
f 21/21/21 22/22/22 23/23/23
f 22/22/22 21/21/21 24/24/24
f 25/25/25 24/24/24 26/26/26
f 24/24/24 25/25/25 22/22/22
f 27/27/27 26/26/26 28/28/28
f 26/26/26 27/27/27 25/25/25
f 29/29/29 28/28/28 30/30/30
f 28/28/28 29/29/29 27/27/27
f 31/31/31 30/30/30 32/32/32
f 30/30/30 31/31/31 29/29/29
f 33/33/33 32/32/32 34/34/34
f 32/32/32 33/33/33 31/31/31
f 35/35/35 34/34/34 36/36/36
f 34/34/34 35/35/35 33/33/33
f 37/37/37 36/36/36 38/38/38
f 36/36/36 37/37/37 35/35/35
f 39/39/39 38/38/38 40/40/40
f 38/38/38 39/39/39 37/37/37
f 41/41/3 39/39/39 42/42/4
f 39/39/39 40/40/40 42/42/4
f 43/43/41 44/44/42 45/45/43
f 44/44/42 43/43/41 46/46/44
f 43/43/41 47/47/45 48/48/44
f 47/47/45 49/49/46 48/48/44
f 50/50/47 43/43/41 51/51/48
f 52/52/49 47/47/45 53/53/50
f 52/52/49 53/53/50 54/54/51
f 52/52/49 55/55/52 49/49/46
f 55/55/52 52/52/49 56/56/53
f 47/47/45 52/52/49 49/49/46
f 48/48/44 49/49/46 57/57/54
f 58/58/55 50/50/47 59/59/56
f 50/50/47 51/51/48 60/60/57
f 50/50/47 60/60/57 61/61/58
f 50/50/47 58/58/55 43/43/41
f 59/59/56 50/50/47 62/62/59
f 58/58/55 59/59/56 63/63/60
f 47/47/45 43/43/41 58/58/55
f 53/53/50 47/47/45 3/3/3
f 3/3/3 2/2/2 53/53/50
f 54/54/51 53/53/50 2/2/2
f 2/2/2 6/6/6 54/54/51
f 52/52/49 54/54/51 6/6/6
f 6/6/6 8/8/8 52/52/49
f 52/52/49 8/8/8 56/56/53
f 8/8/8 10/10/10 56/56/53
f 55/55/52 56/56/53 10/10/10
f 55/55/52 10/10/10 12/12/12
f 55/55/52 14/14/14 49/49/46
f 14/14/14 55/55/52 12/12/12
f 49/49/46 16/16/16 57/57/54
f 16/16/16 49/49/46 14/14/14
f 57/57/54 18/18/18 48/48/44
f 18/18/18 57/57/54 16/16/16
f 46/46/44 20/20/20 44/44/42
f 20/20/20 46/46/44 18/18/18
f 64/64/61 65/65/23 45/45/43
f 64/64/61 45/45/43 44/44/42
f 43/43/41 45/45/43 23/23/23
f 43/43/41 23/23/23 22/22/22
f 51/51/48 43/43/41 22/22/22
f 51/51/48 22/22/22 25/25/25
f 60/60/57 51/51/48 25/25/25
f 25/25/25 27/27/27 60/60/57
f 61/61/58 60/60/57 27/27/27
f 27/27/27 29/29/29 61/61/58
f 61/61/58 31/31/31 50/50/47
f 31/31/31 61/61/58 29/29/29
f 50/50/47 33/33/33 62/62/59
f 33/33/33 50/50/47 31/31/31
f 62/62/59 35/35/35 59/59/56
f 35/35/35 62/62/59 33/33/33
f 59/59/56 37/37/37 63/63/60
f 37/37/37 59/59/56 35/35/35
f 63/63/60 39/39/39 58/58/55
f 39/39/39 63/63/60 37/37/37
f 47/47/45 58/58/55 39/39/39
f 47/47/45 39/39/39 41/41/3
