# Blender v3.5.1 OBJ File: 'f1.blend'
# www.blender.org
mtllib Mesh_1.mtl
o Mesh_1
v -1.032063 1.973736 -5.109859
v -1.035811 1.944579 -5.109769
v -1.032063 1.944579 -5.109769
v -1.035811 1.973736 -5.109859
v -1.035811 1.973736 -5.133709
v -1.032063 1.969658 -5.132990
v -1.035811 1.969658 -5.132990
v -1.032063 1.973736 -5.133709
v -1.035811 1.977815 -5.132990
v -1.032063 1.977815 -5.132990
v -1.032063 1.981401 -5.130919
v -1.035811 1.981401 -5.130919
v -1.035811 1.984064 -5.127747
v -1.032063 1.984064 -5.127747
v -1.032063 1.984064 -5.127747
v -1.035811 1.985480 -5.123855
v -1.032063 1.985480 -5.123855
v -1.035811 1.984064 -5.127747
v -1.035811 1.985480 -5.119713
v -1.032063 1.985480 -5.119713
v -1.035811 1.984064 -5.115821
v -1.032063 1.984064 -5.115821
v -1.032063 1.984064 -5.115821
v -1.035811 1.981401 -5.112649
v -1.032063 1.981401 -5.112649
v -1.035811 1.984064 -5.115821
v -1.032063 1.977815 -5.110578
v -1.035811 1.977815 -5.110578
v -1.035811 1.973736 -5.109859
v -1.035811 1.953815 -5.119184
v -1.035811 1.949715 -5.115437
v -1.035811 1.944579 -5.109769
v -1.035811 1.984064 -5.115821
v -1.035811 1.981401 -5.112649
v -1.035811 1.977815 -5.132990
v -1.035811 1.984064 -5.127747
v -1.035811 1.981401 -5.130919
v -1.035811 1.977815 -5.110578
v -1.035811 1.985480 -5.119713
v -1.035811 1.985480 -5.123855
v -1.035811 1.966071 -5.130919
v -1.035811 1.973736 -5.133709
v -1.035811 1.969658 -5.132990
v -1.035811 1.963409 -5.127747
v -1.035811 1.959235 -5.123846
v -1.035811 1.946526 -5.112932
v -1.032063 1.973736 -5.109859
v -1.032063 1.966071 -5.130919
v -1.032063 1.977815 -5.132990
v -1.032063 1.984064 -5.115821
v -1.032063 1.949715 -5.115437
v -1.032063 1.944579 -5.109769
v -1.032063 1.946526 -5.112932
v -1.032063 1.953815 -5.119184
v -1.032063 1.959235 -5.123846
v -1.032063 1.963409 -5.127747
v -1.032063 1.973736 -5.133709
v -1.032063 1.969658 -5.132990
v -1.032063 1.984064 -5.127747
v -1.032063 1.981401 -5.130919
v -1.032063 1.985480 -5.119713
v -1.032063 1.985480 -5.123855
v -1.032063 1.981401 -5.112649
v -1.032063 1.977815 -5.110578
v -1.038741 1.971380 -5.114444
v -1.025470 1.974866 -5.113648
v -1.038741 1.974866 -5.113648
v -1.025470 1.971380 -5.114444
v -1.038741 1.968585 -5.116673
v -1.025470 1.968585 -5.116673
v -1.038741 1.971380 -5.114444
v -1.025470 1.971380 -5.114444
v -1.038741 1.967034 -5.119894
v -1.025470 1.967034 -5.119894
v -1.038741 1.967034 -5.123469
v -1.025470 1.967034 -5.123469
v -1.038741 1.968585 -5.126689
v -1.025470 1.968585 -5.126689
v -1.038741 1.971380 -5.128919
v -1.025470 1.971380 -5.128919
v -1.038741 1.974866 -5.129714
v -1.025470 1.971380 -5.128919
v -1.038741 1.971380 -5.128919
v -1.025470 1.974866 -5.129714
v -1.025470 1.978351 -5.128919
v -1.038741 1.978351 -5.128919
v -1.025470 1.981146 -5.126689
v -1.038741 1.978351 -5.128919
v -1.038741 1.981146 -5.126689
v -1.025470 1.978351 -5.128919
v -1.038741 1.982697 -5.123469
v -1.025470 1.982697 -5.123469
v -1.038741 1.982697 -5.119894
v -1.025470 1.982697 -5.119894
v -1.038741 1.981146 -5.116673
v -1.025470 1.981146 -5.116673
v -1.038741 1.978351 -5.114444
v -1.025470 1.978351 -5.114444
v -1.038741 1.978351 -5.114444
v -1.025470 1.978351 -5.114444
v -1.038741 1.982697 -5.123469
v -1.038741 1.974866 -5.129714
v -1.038741 1.967034 -5.119894
v -1.038741 1.978351 -5.128919
v -1.038741 1.982697 -5.119894
v -1.038741 1.968585 -5.116673
v -1.038741 1.978351 -5.114444
v -1.038741 1.981146 -5.116673
v -1.038741 1.981146 -5.126689
v -1.038741 1.968585 -5.126689
v -1.038741 1.971380 -5.128919
v -1.038741 1.967034 -5.123469
v -1.038741 1.974866 -5.113648
v -1.038741 1.971380 -5.114444
v -1.025470 1.967034 -5.119894
v -1.025470 1.974866 -5.113648
v -1.025470 1.968585 -5.116673
v -1.025470 1.974866 -5.129714
v -1.025470 1.967034 -5.123469
v -1.025470 1.982697 -5.123469
v -1.025470 1.978351 -5.114444
v -1.025470 1.971380 -5.114444
v -1.025470 1.968585 -5.126689
v -1.025470 1.971380 -5.128919
v -1.025470 1.978351 -5.128919
v -1.025470 1.981146 -5.126689
v -1.025470 1.982697 -5.119894
v -1.025470 1.981146 -5.116673
v 1.032062 1.973736 -5.109859
v 1.032062 1.944579 -5.109769
v 1.035810 1.973736 -5.109859
v 1.035810 1.944579 -5.109769
v 1.035810 1.973736 -5.133709
v 1.032062 1.969658 -5.132990
v 1.032062 1.973736 -5.133709
v 1.035810 1.969658 -5.132990
v 1.035810 1.977815 -5.132990
v 1.032062 1.977815 -5.132990
v 1.035810 1.981401 -5.130919
v 1.032062 1.981401 -5.130919
v 1.035810 1.984064 -5.127747
v 1.032062 1.984064 -5.127747
v 1.032062 1.984064 -5.127747
v 1.035810 1.985480 -5.123855
v 1.035810 1.984064 -5.127747
v 1.032062 1.985480 -5.123855
v 1.035810 1.985480 -5.119713
v 1.032062 1.985480 -5.119713
v 1.035810 1.984064 -5.115821
v 1.032062 1.984064 -5.115821
v 1.032062 1.984064 -5.115821
v 1.035810 1.981401 -5.112649
v 1.035810 1.984064 -5.115821
v 1.032062 1.981401 -5.112649
v 1.032062 1.977815 -5.110578
v 1.035810 1.977815 -5.110578
v 1.035810 1.966071 -5.130919
v 1.035810 1.977815 -5.132990
v 1.035810 1.973736 -5.109859
v 1.035810 1.959235 -5.123846
v 1.035810 1.953815 -5.119184
v 1.035810 1.984064 -5.115821
v 1.035810 1.949715 -5.115437
v 1.035810 1.944579 -5.109769
v 1.035810 1.946526 -5.112932
v 1.035810 1.981401 -5.112649
v 1.035810 1.977815 -5.110578
v 1.035810 1.963409 -5.127747
v 1.035810 1.973736 -5.133709
v 1.035810 1.969658 -5.132990
v 1.035810 1.984064 -5.127747
v 1.035810 1.981401 -5.130919
v 1.035810 1.985480 -5.119713
v 1.035810 1.985480 -5.123855
v 1.032062 1.977815 -5.132990
v 1.032062 1.984064 -5.127747
v 1.032062 1.981401 -5.130919
v 1.032062 1.973736 -5.109859
v 1.032062 1.966071 -5.130919
v 1.032062 1.963409 -5.127747
v 1.032062 1.984064 -5.115821
v 1.032062 1.981401 -5.112649
v 1.032062 1.977815 -5.110578
v 1.032062 1.985480 -5.119713
v 1.032062 1.985480 -5.123855
v 1.032062 1.973736 -5.133709
v 1.032062 1.969658 -5.132990
v 1.032062 1.953815 -5.119184
v 1.032062 1.949715 -5.115437
v 1.032062 1.959235 -5.123846
v 1.032062 1.944579 -5.109769
v 1.032062 1.946526 -5.112932
v 1.038741 1.974866 -5.113648
v 1.025470 1.974866 -5.113648
v 1.025470 1.971380 -5.114444
v 1.038741 1.971380 -5.114444
v 1.038741 1.971380 -5.114444
v 1.025470 1.971380 -5.114444
v 1.025470 1.968585 -5.116673
v 1.038741 1.968585 -5.116673
v 1.025470 1.967034 -5.119894
v 1.038741 1.967034 -5.119894
v 1.025470 1.967034 -5.123469
v 1.038741 1.967034 -5.123469
v 1.025470 1.968585 -5.126689
v 1.038741 1.968585 -5.126689
v 1.038741 1.971380 -5.128919
v 1.025470 1.971380 -5.128919
v 1.038741 1.974866 -5.129714
v 1.025470 1.971380 -5.128919
v 1.025470 1.974866 -5.129714
v 1.038741 1.971380 -5.128919
v 1.038741 1.978351 -5.128919
v 1.025470 1.978351 -5.128919
v 1.038741 1.981146 -5.126689
v 1.025470 1.978351 -5.128919
v 1.025470 1.981146 -5.126689
v 1.038741 1.978351 -5.128919
v 1.038741 1.982697 -5.123469
v 1.025470 1.982697 -5.123469
v 1.038741 1.982697 -5.119894
v 1.025470 1.982697 -5.119894
v 1.038741 1.981146 -5.116673
v 1.025470 1.981146 -5.116673
v 1.025470 1.978351 -5.114444
v 1.038741 1.978351 -5.114444
v 1.038741 1.978351 -5.114444
v 1.025470 1.978351 -5.114444
v 1.038741 1.967034 -5.119894
v 1.038741 1.982697 -5.123469
v 1.038741 1.968585 -5.116673
v 1.038741 1.978351 -5.128919
v 1.038741 1.981146 -5.126689
v 1.038741 1.974866 -5.129714
v 1.038741 1.978351 -5.114444
v 1.038741 1.974866 -5.113648
v 1.038741 1.971380 -5.114444
v 1.038741 1.982697 -5.119894
v 1.038741 1.968585 -5.126689
v 1.038741 1.967034 -5.123469
v 1.038741 1.971380 -5.128919
v 1.038741 1.981146 -5.116673
v 1.025470 1.974866 -5.129714
v 1.025470 1.967034 -5.119894
v 1.025470 1.982697 -5.123469
v 1.025470 1.978351 -5.128919
v 1.025470 1.981146 -5.126689
v 1.025470 1.978351 -5.114444
v 1.025470 1.982697 -5.119894
v 1.025470 1.974866 -5.113648
v 1.025470 1.981146 -5.116673
v 1.025470 1.968585 -5.126689
v 1.025470 1.967034 -5.123469
v 1.025470 1.971380 -5.128919
v 1.025470 1.968585 -5.116673
v 1.025470 1.971380 -5.114444
vt -29.434303 -353.105621
vt -29.890831 -352.989288
vt -29.907845 -352.871521
vt -29.943153 -352.685455
vt -29.344337 -353.344696
vt -29.345253 -353.255981
vt -29.681084 -353.543976
vt -29.506355 -353.542114
vt -29.593544 -353.558502
vt -29.376503 -353.172882
vt -29.373787 -353.428375
vt -29.430046 -353.496948
vt -29.847359 -353.350189
vt -29.758415 -353.500519
vt -29.816109 -353.433167
vt -29.848335 -353.261444
vt -29.864449 -353.140106
vt -29.926552 -352.786743
vt -159.112335 -360.159088
vt -158.952972 -359.706238
vt -158.730438 -359.831451
vt -158.860275 -360.200653
vt -159.434204 -359.740295
vt -159.623566 -359.741913
vt -159.520996 -359.738373
vt -159.315399 -359.733917
vt -159.162292 -359.730438
vt -159.040222 -359.722565
vt -158.788177 -359.764160
vt -158.865433 -359.720642
vt -158.698257 -360.003265
vt -158.699158 -359.914551
vt -158.783936 -360.155487
vt -158.727631 -360.086884
vt -158.947449 -360.217072
vt -159.035004 -360.202545
vt 531.940613 -23.548880
vt 531.937622 -23.763372
vt 531.668518 -23.759558
vt 531.971741 -23.694860
vt 531.881409 -23.500265
vt 531.636292 -23.690115
vt 531.732117 -23.498144
vt 531.807007 -23.482138
vt 531.972900 -23.618307
vt 531.802185 -23.826284
vt 531.877014 -23.810263
vt 531.727783 -23.808172
vt 531.671631 -23.545050
vt 531.637390 -23.613546
vt 64.654472 -441.349518
vt 64.864296 -441.304718
vt 64.728798 -441.367523
vt 64.598259 -441.086334
vt 64.595238 -441.300873
vt 64.808098 -441.041534
vt 64.898521 -441.236237
vt 64.803780 -441.351654
vt 64.563011 -441.231476
vt 64.564079 -441.154907
vt 64.658821 -441.039490
vt 64.733681 -441.023529
vt 64.867332 -441.090179
vt 64.899467 -441.159576
vt -29.847359 -353.350189
vt -29.681084 -353.543976
vt -29.434303 -353.105621
vt -29.864449 -353.140106
vt -29.890831 -352.989288
vt -29.344337 -353.344696
vt -29.907845 -352.871521
vt -29.943153 -352.685455
vt -29.926552 -352.786743
vt -29.345253 -353.255981
vt -29.376503 -353.172882
vt -29.848335 -353.261444
vt -29.758415 -353.500519
vt -29.816109 -353.433167
vt -29.506355 -353.542114
vt -29.593544 -353.558502
vt -29.373787 -353.428375
vt -29.430046 -353.496948
vt -158.730438 -359.831451
vt -158.698257 -360.003265
vt -158.699158 -359.914551
vt -159.112335 -360.159088
vt -158.952972 -359.706238
vt -159.040222 -359.722565
vt -158.860275 -360.200653
vt -158.947449 -360.217072
vt -159.035004 -360.202545
vt -158.783936 -360.155487
vt -158.727631 -360.086884
vt -158.788177 -359.764160
vt -158.865433 -359.720642
vt -159.315399 -359.733917
vt -159.434204 -359.740295
vt -159.162292 -359.730438
vt -159.623566 -359.741913
vt -159.520996 -359.738373
vt 531.668518 -23.759558
vt 531.940613 -23.548880
vt 531.636292 -23.690115
vt 531.971741 -23.694860
vt 531.972900 -23.618307
vt 531.937622 -23.763372
vt 531.732117 -23.498144
vt 531.671631 -23.545050
vt 531.637390 -23.613546
vt 531.881409 -23.500265
vt 531.802185 -23.826284
vt 531.727783 -23.808172
vt 531.877014 -23.810263
vt 531.807007 -23.482138
vt 64.598259 -441.086334
vt 64.654472 -441.349518
vt 64.808098 -441.041534
vt 64.658821 -441.039490
vt 64.733681 -441.023529
vt 64.898521 -441.236237
vt 64.867332 -441.090179
vt 64.864296 -441.304718
vt 64.899467 -441.159576
vt 64.563011 -441.231476
vt 64.595238 -441.300873
vt 64.564079 -441.154907
vt 64.728798 -441.367523
vt 64.803780 -441.351654
vt -98.323738 -402.824005
vt -98.905525 -402.492889
vt -98.833748 -402.405426
vt -98.395515 -402.911469
vt -18.597511 -513.285095
vt -18.736824 -513.317078
vt -18.665047 -513.229675
vt -18.669289 -513.372498
vt -18.529991 -513.340515
vt -18.601768 -513.427917
vt -18.542366 -513.476685
vt -18.470589 -513.389221
vt -18.426537 -513.425415
vt -18.498314 -513.512878
vt 132.483887 -496.586334
vt 132.347672 -496.620850
vt 132.419434 -496.533417
vt 132.412125 -496.673767
vt 132.279129 -496.564606
vt 132.350891 -496.477142
vt 132.214706 -496.511749
vt 132.286469 -496.424286
vt -98.152702 -402.964386
vt -98.268562 -403.015656
vt -98.196785 -402.928192
vt -98.224480 -403.051849
vt -98.256233 -402.879425
vt -98.328011 -402.966888
vt 141.912292 -328.475342
vt 141.651489 -328.162262
vt 141.960846 -328.416168
vt 141.602905 -328.221436
vt 76.271683 -293.237030
vt 75.962265 -292.983063
vt 76.302032 -293.200043
vt 75.992615 -292.946106
vt 76.227951 -293.290314
vt 75.918533 -293.036346
vt 76.179337 -293.349548
vt 75.869919 -293.095612
vt 76.135551 -293.402893
vt 75.826134 -293.148956
vt 76.105301 -293.439758
vt 75.795883 -293.185822
vt 97.464897 -310.666077
vt 97.726944 -310.977753
vt 97.417511 -310.723785
vt 97.774330 -310.920013
vt 97.821716 -310.862274
vt 97.512283 -310.608337
vt -253.765198 -342.360229
vt -253.425491 -342.577179
vt -253.455826 -342.614136
vt -253.734863 -342.323273
vt -253.499496 -342.667358
vt -253.808868 -342.413452
vt -253.548111 -342.726593
vt -253.857483 -342.472687
vt -253.591965 -342.779999
vt -253.901337 -342.526093
vt -253.622177 -342.816833
vt -253.931549 -342.562927
vt 142.004639 -328.362823
vt 141.695267 -328.108917
vt -98.323738 -402.824005
vt -98.833748 -402.405426
vt -98.395515 -402.911469
vt -98.905525 -402.492889
vt -18.597511 -513.285095
vt -18.736824 -513.317078
vt -18.669289 -513.372498
vt -18.665047 -513.229675
vt -18.529991 -513.340515
vt -18.601768 -513.427917
vt -18.470589 -513.389221
vt -18.542366 -513.476685
vt -18.426537 -513.425415
vt -18.498314 -513.512878
vt 132.483887 -496.586334
vt 132.347672 -496.620850
vt 132.412125 -496.673767
vt 132.419434 -496.533417
vt 132.279129 -496.564606
vt 132.350891 -496.477142
vt 132.214706 -496.511749
vt 132.286469 -496.424286
vt -98.152702 -402.964386
vt -98.268562 -403.015656
vt -98.224480 -403.051849
vt -98.196785 -402.928192
vt -98.256233 -402.879425
vt -98.328011 -402.966888
vt 141.960846 -328.416168
vt 141.651489 -328.162262
vt 141.602905 -328.221436
vt 141.912292 -328.475342
vt 76.302032 -293.200043
vt 75.992615 -292.946106
vt 75.962265 -292.983063
vt 76.271683 -293.237030
vt 75.918533 -293.036346
vt 76.227951 -293.290314
vt 75.869919 -293.095612
vt 76.179337 -293.349548
vt 75.826134 -293.148956
vt 76.135551 -293.402893
vt 76.105301 -293.439758
vt 75.795883 -293.185822
vt 97.464897 -310.666077
vt 97.726944 -310.977753
vt 97.774330 -310.920013
vt 97.417511 -310.723785
vt 97.512283 -310.608337
vt 97.821716 -310.862274
vt -253.455826 -342.614136
vt -253.734863 -342.323273
vt -253.765198 -342.360229
vt -253.425491 -342.577179
vt -253.499496 -342.667358
vt -253.808868 -342.413452
vt -253.548111 -342.726593
vt -253.857483 -342.472687
vt -253.591965 -342.779999
vt -253.901337 -342.526093
vt -253.931549 -342.562927
vt -253.622177 -342.816833
vt 142.004639 -328.362823
vt 141.695267 -328.108917
vn -1.0000 -0.0000 0.0000
vn -1.0000 0.0001 0.0000
vn 1.0000 0.0000 0.0000
vn 1.0000 0.0001 0.0000
vn 1.0000 -0.0002 0.0000
vn -1.0000 -0.0001 0.0000
vn -1.0000 -0.0002 0.0000
vn 1.0000 -0.0001 0.0000
vn 0.0000 0.0887 0.9961
vn 0.0000 0.0031 1.0000
vn 0.0000 0.0000 -1.0000
vn 0.0000 -0.1736 -0.9848
vn 0.0000 0.3420 -0.9397
vn 0.0000 0.6428 -0.7660
vn 0.0000 0.8660 -0.5000
vn -0.0000 0.8661 -0.4999
vn 0.0000 0.9848 -0.1736
vn -0.0001 0.8660 -0.5000
vn 0.0000 0.9848 0.1736
vn 0.0000 0.8660 0.5000
vn 0.0000 0.6428 0.7660
vn 0.0000 0.3420 0.9397
vn 0.0000 -0.4338 0.9010
vn 0.0000 -0.0000 1.0000
vn 0.0000 -0.7818 0.6235
vn -0.0000 -0.4339 0.9010
vn 0.0000 -0.9749 0.2225
vn 0.0000 -0.9749 -0.2225
vn 0.0000 -0.7819 -0.6235
vn 0.0000 -0.7818 -0.6235
vn 0.0000 -0.4339 -0.9009
vn -0.0000 -0.4337 -0.9010
vn -0.0000 -0.4338 -0.9010
vn 0.0000 -0.4340 -0.9009
vn -0.0000 0.4338 -0.9010
vn 0.0000 0.4340 -0.9009
vn 0.0000 0.7818 -0.6235
vn 0.0000 0.4339 -0.9010
vn 0.0000 0.9749 -0.2226
vn 0.0000 0.9749 -0.2225
vn 0.0000 0.9749 0.2225
vn 0.0000 0.7818 0.6235
vn 0.0000 0.4339 0.9010
vn 0.0000 0.4338 0.9010
vn 0.0001 0.8660 -0.5000
vn 0.0001 0.8660 0.5000
vn -0.0000 0.8660 0.5001
vn 0.0000 0.0004 1.0000
vn 0.0000 -0.0004 1.0000
vn 0.0000 -0.4340 0.9009
vn -0.0001 -0.4335 0.9011
vn 0.0001 -0.4337 -0.9010
vn 0.0001 0.4339 0.9010
vn -0.0000 0.4340 0.9009
vn 0.0000 0.4335 0.9011
usemtl chrome
s off
f 29/1/1 30/2/1 31/3/1
f 29/1/1 31/3/1 32/4/1
f 33/5/1 29/1/1 34/6/1
f 35/7/1 36/8/1 37/9/1
f 29/1/1 33/5/1 35/7/1
f 34/6/1 29/1/1 38/10/1
f 36/8/2 33/5/2 39/11/2
f 36/8/1 39/11/1 40/12/1
f 35/7/1 33/5/1 36/8/1
f 41/13/1 35/7/1 42/14/1
f 41/13/1 42/14/1 43/15/1
f 29/1/1 35/7/1 41/13/1
f 29/1/1 41/13/1 44/16/1
f 29/1/1 44/16/1 45/17/1
f 29/1/1 45/17/1 30/2/1
f 32/4/1 31/3/1 46/18/1
f 47/19/3 48/20/3 49/21/3
f 47/19/3 49/21/3 50/22/3
f 51/23/3 52/24/3 53/25/3
f 52/24/3 51/23/3 47/19/3
f 47/19/3 54/26/3 55/27/3
f 54/26/3 47/19/3 51/23/3
f 56/28/3 47/19/3 55/27/3
f 48/20/3 47/19/3 56/28/3
f 48/20/3 57/29/3 49/21/3
f 57/29/3 48/20/3 58/30/3
f 49/21/3 59/31/3 50/22/3
f 59/31/4 49/21/4 60/32/4
f 59/31/3 61/33/3 50/22/3
f 61/33/5 59/31/5 62/34/5
f 47/19/3 50/22/3 63/35/3
f 47/19/3 63/35/3 64/36/3
f 101/37/1 102/38/1 103/39/1
f 102/38/1 101/37/1 104/40/1
f 105/41/1 106/42/1 107/43/1
f 105/41/1 107/43/1 108/44/1
f 101/37/1 106/42/1 105/41/1
f 104/40/1 101/37/1 109/45/1
f 102/38/1 110/46/1 103/39/1
f 110/46/1 102/38/1 111/47/1
f 103/39/6 110/46/6 112/48/6
f 106/42/1 101/37/1 103/39/1
f 106/42/1 113/49/1 107/43/1
f 113/49/1 106/42/1 114/50/1
f 115/51/3 116/52/3 117/53/3
f 118/54/3 115/51/3 119/55/3
f 115/51/3 118/54/3 120/56/3
f 115/51/3 121/57/3 116/52/3
f 117/53/3 116/52/3 122/58/3
f 118/54/3 119/55/3 123/59/3
f 118/54/3 123/59/3 124/60/3
f 120/56/3 118/54/3 125/61/3
f 120/56/3 125/61/3 126/62/3
f 127/63/3 115/51/3 120/56/3
f 121/57/3 115/51/3 127/63/3
f 121/57/3 127/63/3 128/64/3
f 157/65/3 158/66/3 159/67/3
f 160/68/3 159/67/3 161/69/3
f 162/70/3 159/67/3 158/66/3
f 163/71/4 164/72/4 165/73/4
f 159/67/3 166/74/3 167/75/3
f 164/72/3 163/71/3 159/67/3
f 161/69/3 159/67/3 163/71/3
f 168/76/3 159/67/3 160/68/3
f 157/65/3 159/67/3 168/76/3
f 169/77/3 157/65/3 170/78/3
f 158/66/3 157/65/3 169/77/3
f 171/79/3 162/70/3 158/66/3
f 171/79/3 158/66/3 172/80/3
f 173/81/3 171/79/3 174/82/3
f 162/70/3 171/79/3 173/81/3
f 166/74/3 159/67/3 162/70/3
f 175/83/6 176/84/6 177/85/6
f 178/86/1 179/87/1 180/88/1
f 175/83/1 178/86/1 181/89/1
f 175/83/1 181/89/1 176/84/1
f 175/83/1 179/87/1 178/86/1
f 182/90/1 178/86/1 183/91/1
f 181/89/1 178/86/1 182/90/1
f 184/92/1 176/84/1 181/89/1
f 176/84/7 184/92/7 185/93/7
f 186/94/1 179/87/1 175/83/1
f 179/87/1 186/94/1 187/95/1
f 178/86/1 188/96/1 189/97/1
f 178/86/1 180/88/1 190/98/1
f 188/96/1 178/86/1 190/98/1
f 189/97/1 191/99/1 178/86/1
f 191/99/1 189/97/1 192/100/1
f 229/101/3 230/102/3 231/103/3
f 230/102/8 232/104/8 233/105/8
f 230/102/3 234/106/3 232/104/3
f 231/103/3 235/107/3 236/108/3
f 231/103/3 236/108/3 237/109/3
f 231/103/3 238/110/3 235/107/3
f 239/111/4 229/101/4 240/112/4
f 234/106/3 229/101/3 239/111/3
f 234/106/4 239/111/4 241/113/4
f 230/102/3 229/101/3 234/106/3
f 238/110/3 231/103/3 230/102/3
f 235/107/3 238/110/3 242/114/3
f 243/115/1 244/116/1 245/117/1
f 246/118/1 245/117/1 247/119/1
f 244/116/1 248/120/1 249/121/1
f 248/120/1 244/116/1 250/122/1
f 249/121/1 248/120/1 251/123/1
f 245/117/1 244/116/1 249/121/1
f 243/115/1 245/117/1 246/118/1
f 243/115/1 252/124/1 253/125/1
f 252/124/1 243/115/1 254/126/1
f 244/116/1 243/115/1 253/125/1
f 250/122/1 244/116/1 255/127/1
f 250/122/1 255/127/1 256/128/1
s 1
f 1/129/9 2/130/10 3/131/10
f 2/130/10 1/129/9 4/132/9
f 5/133/11 6/134/12 7/135/12
f 6/134/12 5/133/11 8/136/11
f 9/137/13 8/136/11 5/133/11
f 8/136/11 9/137/13 10/138/13
f 11/139/14 9/137/13 12/140/14
f 9/137/13 11/139/14 10/138/13
f 11/139/14 13/141/15 14/142/16
f 13/141/15 11/139/14 12/140/14
f 15/143/15 16/144/17 17/145/17
f 16/144/17 15/143/15 18/146/18
f 17/145/17 19/147/19 20/148/19
f 19/147/19 17/145/17 16/144/17
f 20/148/19 21/149/20 22/150/20
f 21/149/20 20/148/19 19/147/19
f 23/151/20 24/152/21 25/153/21
f 24/152/21 23/151/20 26/154/20
f 25/153/21 24/152/21 27/155/22
f 24/152/21 28/156/22 27/155/22
f 27/155/22 28/156/22 1/129/9
f 28/156/22 4/132/9 1/129/9
f 65/157/23 66/158/24 67/159/24
f 66/158/24 65/157/23 68/160/23
f 69/161/25 70/162/25 71/163/23
f 72/164/26 71/163/23 70/162/25
f 73/165/27 70/162/25 69/161/25
f 70/162/25 73/165/27 74/166/27
f 75/167/28 76/168/28 73/165/27
f 74/166/27 73/165/27 76/168/28
f 77/169/29 78/170/30 75/167/28
f 76/168/28 75/167/28 78/170/30
f 79/171/31 78/170/30 77/169/29
f 78/170/30 79/171/31 80/172/32
f 81/173/11 82/174/33 83/175/34
f 82/174/33 81/173/11 84/176/11
f 85/177/35 81/173/11 86/178/36
f 81/173/11 85/177/35 84/176/11
f 87/179/37 88/180/38 89/181/37
f 88/180/38 87/179/37 90/182/35
f 91/183/39 87/179/37 89/181/37
f 87/179/37 91/183/39 92/184/40
f 93/185/41 92/184/40 91/183/39
f 92/184/40 93/185/41 94/186/41
f 95/187/42 94/186/41 93/185/41
f 94/186/41 95/187/42 96/188/42
f 97/189/43 98/190/43 95/187/42
f 96/188/42 95/187/42 98/190/43
f 67/159/24 66/158/24 99/191/44
f 100/192/44 99/191/44 66/158/24
f 129/193/9 130/194/10 131/195/9
f 131/195/9 130/194/10 132/196/10
f 133/197/11 134/198/12 135/199/11
f 134/198/12 133/197/11 136/200/12
f 137/201/13 135/199/11 138/202/13
f 135/199/11 137/201/13 133/197/11
f 139/203/14 138/202/13 140/204/14
f 138/202/13 139/203/14 137/201/13
f 140/204/14 141/205/45 139/203/14
f 141/205/45 140/204/14 142/206/16
f 143/207/15 144/208/17 145/209/15
f 144/208/17 143/207/15 146/210/17
f 146/210/17 147/211/19 144/208/17
f 147/211/19 146/210/17 148/212/19
f 148/212/19 149/213/20 147/211/19
f 149/213/20 148/212/19 150/214/20
f 151/215/46 152/216/21 153/217/47
f 152/216/21 151/215/46 154/218/21
f 154/218/21 155/219/22 152/216/21
f 152/216/21 155/219/22 156/220/22
f 155/219/22 129/193/9 156/220/22
f 156/220/22 129/193/9 131/195/9
f 193/221/48 194/222/49 195/223/50
f 193/221/48 195/223/50 196/224/51
f 197/225/26 198/226/26 199/227/25
f 197/225/26 199/227/25 200/228/25
f 200/228/25 199/227/25 201/229/27
f 200/228/25 201/229/27 202/230/27
f 202/230/27 201/229/27 203/231/28
f 202/230/27 203/231/28 204/232/28
f 204/232/28 203/231/28 205/233/30
f 204/232/28 205/233/30 206/234/29
f 207/235/31 205/233/30 208/236/32
f 205/233/30 207/235/31 206/234/29
f 209/237/11 210/238/52 211/239/11
f 210/238/52 209/237/11 212/240/34
f 213/241/35 211/239/11 214/242/36
f 211/239/11 213/241/35 209/237/11
f 215/243/37 216/244/38 217/245/37
f 216/244/38 215/243/37 218/246/35
f 217/245/37 219/247/40 215/243/37
f 219/247/40 217/245/37 220/248/40
f 220/248/40 221/249/41 219/247/40
f 221/249/41 220/248/40 222/250/41
f 222/250/41 223/251/42 221/249/41
f 223/251/42 222/250/41 224/252/42
f 223/251/42 224/252/42 225/253/44
f 223/251/42 225/253/44 226/254/53
f 227/255/54 228/256/55 194/222/49
f 227/255/54 194/222/49 193/221/48
