# Blender v3.5.1 OBJ File: 'f1.blend'
# www.blender.org
mtllib Mesh_74.mtl
o Mesh_74
v 0.379958 0.868704 0.893063
v 0.375732 0.868704 0.893063
v 0.379958 0.863343 0.894230
v 0.375732 0.863343 0.894230
v 0.379958 0.860049 0.895031
v 0.375732 0.860049 0.895031
v 0.379958 0.861480 0.883147
v 0.379958 0.860049 0.895031
v 0.375732 0.860049 0.895031
v 0.375732 0.861480 0.883147
v 0.379958 0.861480 0.883147
v 0.375732 0.861480 0.883147
v 0.379958 0.864232 0.879359
v 0.375732 0.864232 0.879359
v 0.379958 0.868685 0.877912
v 0.375732 0.868685 0.877912
v 0.379958 0.873138 0.879359
v 0.375732 0.873138 0.879359
v 0.379958 0.873138 0.879359
v 0.375732 0.873138 0.879359
v 0.379958 0.875891 0.883147
v 0.375732 0.875891 0.883147
v 0.379958 0.877316 0.890911
v 0.375732 0.877316 0.890911
v 0.379958 0.877316 0.890911
v 0.375732 0.877316 0.890911
v 0.379958 0.874015 0.891684
v 0.375732 0.874015 0.891684
v 0.339795 0.868704 0.893062
v 0.339795 0.863343 0.894230
v 0.344022 0.868704 0.893062
v 0.344022 0.863343 0.894230
v 0.339795 0.860049 0.895031
v 0.344022 0.860049 0.895031
v 0.339795 0.860049 0.895031
v 0.339795 0.861480 0.883147
v 0.344022 0.860049 0.895031
v 0.344022 0.861480 0.883147
v 0.339795 0.861480 0.883147
v 0.339795 0.864232 0.879359
v 0.344022 0.861480 0.883147
v 0.344022 0.864232 0.879359
v 0.339795 0.868685 0.877912
v 0.344022 0.868685 0.877912
v 0.339795 0.873138 0.879359
v 0.344022 0.873138 0.879359
v 0.339795 0.873138 0.879359
v 0.339795 0.875891 0.883147
v 0.344022 0.873138 0.879359
v 0.344022 0.875891 0.883147
v 0.339795 0.877316 0.890911
v 0.344022 0.877316 0.890911
v 0.339795 0.874015 0.891684
v 0.344022 0.877316 0.890911
v 0.339795 0.877316 0.890911
v 0.344022 0.874015 0.891684
vt 0.828756 -0.109011
vt 0.828756 -0.114565
vt 0.820998 -0.109011
vt 0.820998 -0.114565
vt 0.816208 -0.109011
vt 0.816208 -0.114565
vt 0.816208 -0.134138
vt 0.832364 -0.134138
vt 0.832364 -0.139692
vt 0.816208 -0.139692
vt 0.572498 -0.143206
vt 0.572498 -0.137652
vt 0.577308 -0.143206
vt 0.577308 -0.137652
vt 0.583876 -0.143206
vt 0.583876 -0.137652
vt 0.589694 -0.143206
vt 0.589694 -0.137652
vt 0.616925 -0.056276
vt 0.616925 -0.061831
vt 0.610943 -0.056276
vt 0.610943 -0.061831
vt 0.599776 -0.056276
vt 0.599776 -0.061831
vt 0.841291 -0.109011
vt 0.841291 -0.114565
vt 0.836499 -0.109011
vt 0.836499 -0.114565
vt 0.585055 -0.130642
vt 0.577293 -0.130642
vt 0.585055 -0.125088
vt 0.577293 -0.125088
vt 0.572498 -0.130642
vt 0.572498 -0.125088
vt 0.612859 -0.143206
vt 0.596703 -0.143206
vt 0.612859 -0.137652
vt 0.596703 -0.137652
vt 0.599776 -0.043713
vt 0.604585 -0.043713
vt 0.599776 -0.049267
vt 0.604585 -0.049267
vt 0.611154 -0.043713
vt 0.611154 -0.049267
vt 0.616972 -0.043713
vt 0.616972 -0.049267
vt 0.833357 -0.127129
vt 0.827375 -0.127129
vt 0.833357 -0.121574
vt 0.827375 -0.121574
vt 0.816208 -0.127129
vt 0.816208 -0.121574
vt 0.592811 -0.130642
vt 0.597607 -0.125088
vt 0.597607 -0.130642
vt 0.592811 -0.125088
vn 0.0000 0.2321 0.9727
vn 0.0000 0.2245 0.9745
vn -0.0000 -0.6640 0.7477
vn 0.0000 -0.6641 0.7477
vn -0.0000 -0.9308 -0.3654
vn 0.0001 -0.9308 -0.3654
vn 0.0000 -0.5878 -0.8090
vn 0.0000 -0.0000 -1.0000
vn -0.0000 0.5878 -0.8090
vn 0.0000 0.9191 -0.3940
vn -0.0000 0.8367 0.5477
vn 0.0000 0.8367 0.5476
vn -0.0000 0.2396 0.9709
vn 0.0003 -0.6640 0.7477
vn 0.0000 -0.9308 -0.3655
vn 0.0001 0.5878 -0.8090
vn 0.0003 0.8367 0.5477
usemtl gp21_cockpit_metal
s 1
f 1/1/1 2/2/1 3/3/2
f 2/2/1 4/4/2 3/3/2
f 3/3/2 4/4/2 5/5/3
f 4/4/2 6/6/4 5/5/3
f 7/7/5 8/8/3 9/9/3
f 9/9/3 10/10/5 7/7/5
f 11/11/5 12/12/6 13/13/7
f 12/12/6 14/14/7 13/13/7
f 15/15/8 14/14/7 16/16/8
f 14/14/7 15/15/8 13/13/7
f 17/17/9 16/16/8 18/18/9
f 16/16/8 17/17/9 15/15/8
f 19/19/9 20/20/9 21/21/10
f 20/20/9 22/22/10 21/21/10
f 23/23/11 21/21/10 22/22/10
f 22/22/10 24/24/11 23/23/11
f 25/25/11 26/26/12 27/27/13
f 26/26/12 28/28/13 27/27/13
f 27/27/13 28/28/13 1/1/1
f 28/28/13 2/2/1 1/1/1
f 29/29/1 30/30/2 31/31/1
f 31/31/1 30/30/2 32/32/2
f 30/30/2 33/33/3 32/32/2
f 32/32/2 33/33/3 34/34/4
f 35/35/14 36/36/5 37/37/3
f 37/37/3 36/36/5 38/38/5
f 39/39/15 40/40/7 41/41/15
f 41/41/15 40/40/7 42/42/7
f 43/43/8 44/44/8 42/42/7
f 43/43/8 42/42/7 40/40/7
f 45/45/9 46/46/9 44/44/8
f 45/45/9 44/44/8 43/43/8
f 47/47/16 48/48/10 49/49/9
f 49/49/9 48/48/10 50/50/10
f 48/48/10 51/51/11 50/50/10
f 50/50/10 51/51/11 52/52/11
f 53/53/13 54/54/12 55/55/17
f 54/54/12 53/53/13 56/56/13
f 53/53/13 29/29/1 56/56/13
f 56/56/13 29/29/1 31/31/1
