# Blender v3.5.1 OBJ File: 'f1.blend'
# www.blender.org
mtllib Mesh_149.mtl
o Mesh_149
v -0.319203 1.042495 3.192505
v -0.317497 1.059257 3.202988
v -0.318103 1.062070 3.192505
v -0.317369 1.051571 3.210661
v -0.317753 1.041071 3.213470
v -0.324747 1.047942 3.112305
v -0.318103 1.062070 3.192505
v -0.323957 1.062001 3.112305
v -0.319203 1.042495 3.192505
v -0.324535 1.060237 3.105733
v -0.324747 1.047942 3.112305
v -0.323957 1.062001 3.112305
v -0.325157 1.055418 3.100921
v -0.325655 1.048834 3.099160
v -0.328440 0.982186 3.112305
v -0.324747 1.047942 3.112305
v -0.325655 1.048834 3.099160
v -0.329452 0.981238 3.099160
v -0.319203 1.042495 3.192505
v -0.324747 1.047942 3.112305
v -0.322265 0.987968 3.192505
v -0.328440 0.982186 3.112305
v -0.320651 0.989479 3.213470
v -0.317753 1.041071 3.213470
v -0.319203 1.042495 3.192505
v -0.322265 0.987968 3.192505
v -0.329613 0.969836 3.105733
v -0.328440 0.982186 3.112305
v -0.329693 0.974655 3.100921
v -0.329452 0.981238 3.099160
v -0.329233 0.968072 3.112305
v -0.329233 0.968072 3.112305
v -0.323360 0.968480 3.192505
v -0.328440 0.982186 3.112305
v -0.322265 0.987968 3.192505
v -0.321446 0.978980 3.210661
v -0.322265 0.987968 3.192505
v -0.322437 0.971293 3.202988
v -0.323360 0.968480 3.192505
v -0.320651 0.989479 3.213470
v 0.317497 1.059257 3.202988
v 0.319203 1.042495 3.192505
v 0.318103 1.062070 3.192505
v 0.317368 1.051571 3.210661
v 0.317753 1.041071 3.213470
v 0.319203 1.042495 3.192505
v 0.324747 1.047942 3.112305
v 0.318103 1.062070 3.192505
v 0.323957 1.062001 3.112305
v 0.324747 1.047942 3.112305
v 0.324535 1.060237 3.105733
v 0.323957 1.062001 3.112305
v 0.325157 1.055418 3.100921
v 0.325655 1.048834 3.099160
v 0.328440 0.982186 3.112305
v 0.325655 1.048834 3.099160
v 0.324747 1.047942 3.112305
v 0.329452 0.981238 3.099160
v 0.322265 0.987968 3.192505
v 0.324747 1.047942 3.112305
v 0.319203 1.042495 3.192505
v 0.328440 0.982186 3.112305
v 0.320651 0.989479 3.213470
v 0.319203 1.042495 3.192505
v 0.317753 1.041071 3.213470
v 0.322265 0.987968 3.192505
v 0.328440 0.982186 3.112305
v 0.329693 0.974655 3.100921
v 0.329452 0.981238 3.099160
v 0.329613 0.969836 3.105733
v 0.329233 0.968072 3.112305
v 0.328440 0.982186 3.112305
v 0.322265 0.987968 3.192505
v 0.323360 0.968480 3.192505
v 0.329233 0.968072 3.112305
v 0.322437 0.971293 3.202988
v 0.322265 0.987968 3.192505
v 0.321446 0.978980 3.210661
v 0.323360 0.968480 3.192505
v 0.320651 0.989479 3.213470
vt -367.145508 -46.661106
vt -367.221832 -47.252415
vt -367.471436 -46.693409
vt -365.247894 -48.659931
vt -366.847260 -46.796024
vt -364.978912 -48.332203
vt -364.859436 -48.499088
vt -365.247894 -48.659931
vt -364.978912 -48.332203
vt -364.839478 -48.703510
vt -364.924408 -48.890659
vt -366.506073 -50.192905
vt -365.247894 -48.659931
vt -364.924408 -48.890659
vt -366.217804 -50.466526
vt -367.221832 -47.252415
vt -365.247894 -48.659931
vt -368.265106 -48.523563
vt -366.506073 -50.192905
vt -367.221832 -47.252415
vt -368.265106 -48.523563
vt -368.724945 -48.087193
vt -366.589172 -50.606586
vt -366.506073 -50.192905
vt -366.384796 -50.586323
vt -366.217804 -50.466526
vt -366.776154 -50.521992
vt -366.776154 -50.521992
vt -368.638000 -48.977879
vt -366.506073 -50.192905
vt -368.265106 -48.523563
vt -368.638000 -48.977879
vt -368.828583 -48.711750
vt -368.724945 -48.087193
vt -368.860413 -48.385746
vt 98.233170 242.600876
vt 97.668053 242.410675
vt 98.042610 242.867035
vt 98.264977 242.274887
vt 98.129547 241.976364
vt 97.668053 242.410675
vt 95.902573 244.072220
vt 98.042610 242.867035
vt 96.171585 244.399994
vt 95.902573 244.072220
vt 95.984619 244.484619
vt 96.171585 244.399994
vt 95.780235 244.464310
vt 95.613220 244.344528
vt 94.644409 242.539276
vt 95.613220 244.344528
vt 95.902573 244.072220
vt 94.319839 242.768661
vt 95.902573 244.072220
vt 96.624733 241.139496
vt 94.644409 242.539276
vt 97.668053 242.410675
vt 97.142410 240.773621
vt 96.624733 241.139496
vt 94.644409 242.539276
vt 94.234932 242.581497
vt 94.319839 242.768661
vt 94.254868 242.377090
vt 94.374329 242.210220
vt 94.644409 242.539276
vt 96.624733 241.139496
vt 96.251854 240.685181
vt 94.374329 242.210220
vt 96.550064 240.550186
vt 96.624733 241.139496
vt 96.875999 240.582565
vt 97.142410 240.773621
vt -366.847260 -46.796024
vt -367.737823 -46.884449
vt -367.221832 -47.252415
vt -367.737823 -46.884449
vt -368.265106 -48.523563
vt 97.668053 242.410675
vt 98.129547 241.976364
vt 96.251854 240.685181
vn -0.9958 0.0559 0.0726
vn 0.9958 0.0559 0.0726
usemtl carbon
s off
f 2/1/1 1/2/1 4/3/1
f 6/4/1 7/5/1 8/6/1
f 10/7/1 11/8/1 12/9/1
f 11/8/1 13/10/1 14/11/1
f 11/8/1 10/7/1 13/10/1
f 15/12/1 16/13/1 17/14/1
f 17/14/1 18/15/1 15/12/1
f 19/16/1 20/17/1 21/18/1
f 20/17/1 22/19/1 21/18/1
f 25/20/1 26/21/1 23/22/1
f 27/23/1 28/24/1 29/25/1
f 29/25/1 28/24/1 30/26/1
f 28/24/1 27/23/1 31/27/1
f 32/28/1 33/29/1 34/30/1
f 37/31/1 39/32/1 38/33/1
f 40/34/1 37/31/1 36/35/1
f 41/36/2 42/37/2 43/38/2
f 42/37/2 44/39/2 45/40/2
f 44/39/2 42/37/2 41/36/2
f 46/41/2 47/42/2 48/43/2
f 49/44/2 48/43/2 47/42/2
f 50/45/2 51/46/2 52/47/2
f 53/48/2 50/45/2 54/49/2
f 51/46/2 50/45/2 53/48/2
f 55/50/2 56/51/2 57/52/2
f 56/51/2 55/50/2 58/53/2
f 60/54/2 59/55/2 62/56/2
f 64/57/2 63/58/2 66/59/2
f 67/60/2 68/61/2 69/62/2
f 70/63/2 67/60/2 71/64/2
f 68/61/2 67/60/2 70/63/2
f 72/65/2 73/66/2 74/67/2
f 72/65/2 74/67/2 75/68/2
f 76/69/2 77/70/2 78/71/2
f 77/70/2 80/72/2 78/71/2
s 1
f 1/2/1 2/1/1 3/73/1
f 4/3/1 1/2/1 5/74/1
f 7/5/1 6/4/1 9/75/1
f 23/22/1 24/76/1 25/20/1
f 35/77/1 34/30/1 33/29/1
f 36/35/1 37/31/1 38/33/1
f 59/55/2 60/54/2 61/78/2
f 63/58/2 64/57/2 65/79/2
f 77/70/2 76/69/2 79/80/2
