# Blender v3.5.1 OBJ File: 'f1.blend'
# www.blender.org
mtllib Mesh_90.mtl
o Mesh_90
v -0.429769 1.022159 0.338915
v -0.442383 1.015500 0.340892
v -0.442383 1.022159 0.338915
v -0.429769 1.015500 0.340892
v -0.429769 1.029092 0.339336
v -0.442383 1.029092 0.339336
v -0.442383 1.035463 0.342102
v -0.429769 1.035463 0.342102
v -0.429769 1.040504 0.346881
v -0.442383 1.040504 0.346881
v -0.442383 1.043607 0.353096
v -0.429769 1.043607 0.353096
v -0.442383 1.044396 0.359996
v -0.429769 1.043607 0.353096
v -0.442383 1.043607 0.353096
v -0.429769 1.044396 0.359996
v -0.442383 1.042778 0.366751
v -0.429769 1.042778 0.366751
v -0.442383 1.038948 0.372545
v -0.429769 1.038948 0.372545
v -0.442383 1.033366 0.376680
v -0.429769 1.033366 0.376680
v -0.442383 1.026707 0.378656
v -0.429769 1.026707 0.378656
v -0.442383 1.019774 0.378236
v -0.429769 1.019774 0.378236
v -0.442383 1.013403 0.375469
v -0.429769 1.013403 0.375469
v -0.442383 1.008362 0.370690
v -0.429769 1.008362 0.370690
v -0.442383 1.005260 0.364476
v -0.429769 1.005260 0.364476
v -0.442383 1.004470 0.357575
v -0.429769 1.004470 0.357575
v -0.442383 1.006088 0.350820
v -0.429769 1.006088 0.350820
v -0.442383 1.009918 0.345026
v -0.429769 1.009918 0.345026
vt 0.805556 -1.000000
vt 0.750000 0.000000
vt 0.805556 0.000000
vt 0.750000 -1.000000
vt 0.861111 -1.000000
vt 0.861111 0.000000
vt 0.916667 0.000000
vt 0.916667 -1.000000
vt 0.972222 -1.000000
vt 0.972222 0.000000
vt 1.027778 0.000000
vt 1.027778 -1.000000
vt 0.083333 0.000000
vt 0.027778 -1.000000
vt 0.027778 0.000000
vt 0.083333 -1.000000
vt 0.138889 0.000000
vt 0.138889 -1.000000
vt 0.194444 0.000000
vt 0.194444 -1.000000
vt 0.250000 0.000000
vt 0.250000 -1.000000
vt 0.305556 0.000000
vt 0.305556 -1.000000
vt 0.361111 0.000000
vt 0.361111 -1.000000
vt 0.416667 0.000000
vt 0.416667 -1.000000
vt 0.472222 0.000000
vt 0.472222 -1.000000
vt 0.527778 0.000000
vt 0.527778 -1.000000
vt 0.583333 0.000000
vt 0.583333 -1.000000
vt 0.638889 0.000000
vt 0.638889 -1.000000
vt 0.694444 0.000000
vt 0.694444 -1.000000
vn 0.0000 -0.1137 -0.9935
vn 0.0000 -0.4467 -0.8947
vn 0.0000 0.2329 -0.9725
vn 0.0000 0.5515 -0.8342
vn 0.0000 0.8035 -0.5952
vn 0.0000 0.8036 -0.5952
vn 0.0000 0.9587 -0.2845
vn 0.0000 0.9982 0.0605
vn 0.0000 0.9173 0.3983
vn 0.0000 0.7257 0.6880
vn 0.0000 0.4467 0.8947
vn 0.0000 0.1137 0.9935
vn 0.0000 -0.2329 0.9725
vn 0.0000 -0.5515 0.8342
vn 0.0000 -0.8036 0.5952
vn 0.0000 -0.8035 0.5952
vn 0.0000 -0.9587 0.2845
vn 0.0000 -0.9982 -0.0605
vn 0.0000 -0.9173 -0.3983
vn 0.0000 -0.7257 -0.6880
usemtl chrome
s 1
f 1/1/1 2/2/2 3/3/1
f 2/2/2 1/1/1 4/4/2
f 5/5/3 3/3/1 6/6/3
f 3/3/1 5/5/3 1/1/1
f 7/7/4 5/5/3 6/6/3
f 5/5/3 7/7/4 8/8/4
f 9/9/5 7/7/4 10/10/6
f 7/7/4 9/9/5 8/8/4
f 11/11/7 12/12/7 10/10/6
f 9/9/5 10/10/6 12/12/7
f 13/13/8 14/14/7 15/15/7
f 14/14/7 13/13/8 16/16/8
f 17/17/9 18/18/9 13/13/8
f 16/16/8 13/13/8 18/18/9
f 19/19/10 20/20/10 17/17/9
f 18/18/9 17/17/9 20/20/10
f 21/21/11 20/20/10 19/19/10
f 20/20/10 21/21/11 22/22/11
f 23/23/12 24/24/12 21/21/11
f 22/22/11 21/21/11 24/24/12
f 25/25/13 24/24/12 23/23/12
f 24/24/12 25/25/13 26/26/13
f 27/27/14 26/26/13 25/25/13
f 26/26/13 27/27/14 28/28/14
f 29/29/15 30/30/16 27/27/14
f 28/28/14 27/27/14 30/30/16
f 31/31/17 30/30/16 29/29/15
f 30/30/16 31/31/17 32/32/17
f 33/33/18 32/32/17 31/31/17
f 32/32/17 33/33/18 34/34/18
f 35/35/19 36/36/19 33/33/18
f 34/34/18 33/33/18 36/36/19
f 37/37/20 38/38/20 35/35/19
f 36/36/19 35/35/19 38/38/20
f 4/4/2 37/37/20 2/2/2
f 37/37/20 4/4/2 38/38/20
