# Blender v3.5.1 OBJ File: 'f1.blend'
# www.blender.org
mtllib Mesh_99.mtl
o Mesh_99
v 0.036984 0.308409 0.534883
v 0.020989 0.307258 0.547611
v 0.036994 0.307258 0.547611
v 0.020978 0.308409 0.534883
v 0.036959 0.311233 0.503640
v 0.020963 0.310128 0.515862
v 0.036968 0.310128 0.515862
v 0.020953 0.311233 0.503641
v 0.036951 0.312125 0.493778
v 0.020953 0.311233 0.503641
v 0.036959 0.311233 0.503640
v 0.020946 0.312125 0.493779
v 0.036968 0.310128 0.515862
v 0.020978 0.308409 0.534883
v 0.036984 0.308409 0.534883
v 0.020963 0.310128 0.515862
v 0.020978 0.308409 0.534883
v -0.000189 0.307258 0.547611
v 0.020989 0.307258 0.547611
v -0.000189 0.308409 0.534883
v 0.020953 0.311233 0.503641
v -0.000189 0.310128 0.515863
v 0.020963 0.310128 0.515862
v -0.000189 0.311233 0.503641
v 0.020946 0.312125 0.493779
v -0.000189 0.311233 0.503641
v 0.020953 0.311233 0.503641
v -0.000189 0.312125 0.493779
v 0.020963 0.310128 0.515862
v -0.000189 0.308409 0.534883
v 0.020978 0.308409 0.534883
v -0.000189 0.310128 0.515863
v 0.018138 0.313956 0.486637
v -0.000189 0.313956 0.486638
v -0.000189 0.312125 0.493779
v 0.020946 0.312125 0.493779
v -0.000189 0.321585 0.470158
v 0.018138 0.313956 0.486637
v 0.018138 0.321585 0.470158
v -0.000189 0.313956 0.486638
v -0.037363 0.308409 0.534883
v -0.021368 0.307258 0.547611
v -0.021357 0.308409 0.534883
v -0.037373 0.307258 0.547611
v -0.037338 0.311233 0.503640
v -0.021342 0.310128 0.515862
v -0.021332 0.311233 0.503641
v -0.037347 0.310128 0.515862
v -0.037330 0.312125 0.493778
v -0.021332 0.311233 0.503641
v -0.021325 0.312125 0.493779
v -0.037338 0.311233 0.503640
v -0.037347 0.310128 0.515862
v -0.021357 0.308409 0.534883
v -0.021342 0.310128 0.515862
v -0.037363 0.308409 0.534883
v -0.021357 0.308409 0.534883
v -0.000189 0.307258 0.547611
v -0.000189 0.308409 0.534883
v -0.021368 0.307258 0.547611
v -0.021332 0.311233 0.503641
v -0.000189 0.310128 0.515863
v -0.000189 0.311233 0.503641
v -0.021342 0.310128 0.515862
v -0.021325 0.312125 0.493779
v -0.000189 0.311233 0.503641
v -0.000189 0.312125 0.493779
v -0.021332 0.311233 0.503641
v -0.021342 0.310128 0.515862
v -0.000189 0.308409 0.534883
v -0.000189 0.310128 0.515863
v -0.021357 0.308409 0.534883
v -0.018517 0.313956 0.486637
v -0.000189 0.312125 0.493779
v -0.000189 0.313956 0.486638
v -0.021325 0.312125 0.493779
v -0.000189 0.321585 0.470158
v -0.018517 0.313956 0.486637
v -0.000189 0.313956 0.486638
v -0.018517 0.321585 0.470158
v 0.020989 0.303275 0.547251
v 0.037510 0.304460 0.534530
v 0.037532 0.303310 0.547266
v 0.020978 0.304425 0.534523
v 0.037487 0.306178 0.515505
v 0.020963 0.306145 0.515502
v 0.020953 0.307249 0.503281
v 0.037501 0.307287 0.503273
v 0.020953 0.307249 0.503281
v 0.037515 0.308181 0.493421
v 0.037501 0.307287 0.503273
v 0.020946 0.308161 0.493241
v 0.020978 0.304425 0.534523
v 0.037487 0.306178 0.515505
v 0.037510 0.304460 0.534530
v 0.020963 0.306145 0.515502
v -0.000189 0.303275 0.547251
v 0.020978 0.304425 0.534523
v 0.020989 0.303275 0.547251
v -0.000189 0.304425 0.534523
v -0.000189 0.306145 0.515503
v 0.020953 0.307249 0.503281
v 0.020963 0.306145 0.515502
v -0.000189 0.307249 0.503281
v -0.000189 0.307249 0.503281
v 0.020946 0.308161 0.493241
v 0.020953 0.307249 0.503281
v -0.000189 0.308183 0.493100
v -0.000189 0.304425 0.534523
v 0.020963 0.306145 0.515502
v 0.020978 0.304425 0.534523
v -0.000189 0.306145 0.515503
v -0.000189 0.308183 0.493100
v 0.018138 0.310175 0.485331
v 0.020946 0.308161 0.493241
v -0.000189 0.310188 0.485295
v -0.000189 0.310188 0.485295
v 0.018138 0.317955 0.468477
v 0.018138 0.310175 0.485331
v -0.000189 0.317955 0.468477
v -0.021368 0.303275 0.547251
v -0.037889 0.304460 0.534530
v -0.021357 0.304425 0.534523
v -0.037911 0.303310 0.547266
v -0.037866 0.306178 0.515505
v -0.021332 0.307249 0.503281
v -0.021342 0.306145 0.515502
v -0.037880 0.307287 0.503273
v -0.021332 0.307249 0.503281
v -0.037894 0.308181 0.493421
v -0.021325 0.308161 0.493241
v -0.037880 0.307287 0.503273
v -0.021357 0.304425 0.534523
v -0.037866 0.306178 0.515505
v -0.021342 0.306145 0.515502
v -0.037889 0.304460 0.534530
v -0.000189 0.303275 0.547251
v -0.021357 0.304425 0.534523
v -0.000189 0.304425 0.534523
v -0.021368 0.303275 0.547251
v -0.000189 0.306145 0.515503
v -0.021332 0.307249 0.503281
v -0.000189 0.307249 0.503281
v -0.021342 0.306145 0.515502
v -0.000189 0.307249 0.503281
v -0.021325 0.308161 0.493241
v -0.000189 0.308183 0.493100
v -0.021332 0.307249 0.503281
v -0.000189 0.304425 0.534523
v -0.021342 0.306145 0.515502
v -0.000189 0.306145 0.515503
v -0.021357 0.304425 0.534523
v -0.000189 0.308183 0.493100
v -0.021325 0.308161 0.493241
v -0.018517 0.310175 0.485331
v -0.000189 0.310188 0.485295
v -0.000189 0.310188 0.485295
v -0.018517 0.310175 0.485331
v -0.018517 0.317955 0.468477
v -0.000189 0.317955 0.468477
v 0.036994 0.307258 0.547611
v 0.020989 0.307258 0.547611
v 0.020989 0.303275 0.547251
v 0.037532 0.303310 0.547266
v 0.036951 0.312125 0.493778
v 0.020946 0.308161 0.493241
v 0.020946 0.312125 0.493779
v 0.037515 0.308181 0.493421
v -0.000189 0.307258 0.547611
v -0.000189 0.303275 0.547251
v 0.020946 0.312125 0.493779
v 0.018138 0.310175 0.485331
v 0.018138 0.313956 0.486637
v 0.020946 0.308161 0.493241
v 0.018138 0.317955 0.468477
v 0.018138 0.321585 0.470158
v -0.000189 0.321585 0.470158
v 0.018138 0.321585 0.470158
v 0.018138 0.317955 0.468477
v -0.000189 0.317955 0.468477
v -0.037373 0.307258 0.547611
v -0.021368 0.303275 0.547251
v -0.021368 0.307258 0.547611
v -0.037911 0.303310 0.547266
v -0.037330 0.312125 0.493778
v -0.021325 0.312125 0.493779
v -0.021325 0.308161 0.493241
v -0.037894 0.308181 0.493421
v -0.021325 0.312125 0.493779
v -0.018517 0.313956 0.486637
v -0.018517 0.310175 0.485331
v -0.021325 0.308161 0.493241
v -0.018517 0.317955 0.468477
v -0.018517 0.321585 0.470158
v -0.018517 0.317955 0.468477
v -0.018517 0.321585 0.470158
vt 0.018587 0.279893
vt 0.010589 0.286257
vt 0.018592 0.286257
vt 0.010584 0.279893
vt 0.018574 0.264271
vt 0.010576 0.270382
vt 0.018579 0.270382
vt 0.010572 0.264271
vt 0.018570 0.259340
vt 0.010572 0.264271
vt 0.018574 0.264271
vt 0.010568 0.259340
vt 0.018579 0.270382
vt 0.010584 0.279893
vt 0.018587 0.279893
vt 0.010576 0.270382
vt 0.010584 0.279893
vt 0.000000 0.286257
vt 0.010589 0.286257
vt 0.000000 0.279893
vt 0.010572 0.264271
vt 0.000000 0.270382
vt 0.010576 0.270382
vt 0.000000 0.264272
vt 0.010568 0.259340
vt 0.000000 0.264272
vt 0.010572 0.264271
vt 0.000000 0.259340
vt 0.010576 0.270382
vt 0.000000 0.279893
vt 0.010584 0.279893
vt 0.000000 0.270382
vt 0.000000 0.259340
vt 0.010568 0.259340
vt 0.009164 0.255770
vt 0.000000 0.247530
vt 0.009164 0.255770
vt 0.009164 0.247530
vt -0.018586 0.279893
vt -0.010589 0.286257
vt -0.010584 0.279893
vt -0.018592 0.286257
vt -0.018574 0.264271
vt -0.010576 0.270382
vt -0.010571 0.264271
vt -0.018579 0.270382
vt -0.018570 0.259340
vt -0.010571 0.264271
vt -0.010567 0.259340
vt -0.018574 0.264271
vt -0.018579 0.270382
vt -0.010584 0.279893
vt -0.010576 0.270382
vt -0.018586 0.279893
vt -0.010584 0.279893
vt 0.000000 0.286257
vt 0.000000 0.279893
vt -0.010589 0.286257
vt -0.010571 0.264271
vt 0.000000 0.270382
vt 0.000000 0.264272
vt -0.010576 0.270382
vt -0.010567 0.259340
vt 0.000000 0.264272
vt 0.000000 0.259340
vt -0.010571 0.264271
vt -0.010576 0.270382
vt 0.000000 0.279893
vt 0.000000 0.270382
vt -0.010584 0.279893
vt -0.009164 0.255770
vt 0.000000 0.259340
vt 0.000000 0.255770
vt -0.010567 0.259340
vt 0.000000 0.247530
vt -0.009164 0.255770
vt 0.000000 0.255770
vt -0.009164 0.247530
vt 0.018850 0.279716
vt 0.010589 0.286077
vt 0.010584 0.279713
vt 0.018838 0.270203
vt 0.010576 0.270202
vt 0.010572 0.264091
vt 0.018846 0.264088
vt 0.010572 0.264091
vt 0.018853 0.259162
vt 0.018846 0.264088
vt 0.010568 0.259072
vt 0.010584 0.279713
vt 0.018838 0.270203
vt 0.018850 0.279716
vt 0.010576 0.270202
vt 0.000000 0.286077
vt 0.010584 0.279713
vt 0.010589 0.286077
vt 0.000000 0.279713
vt 0.000000 0.270202
vt 0.010572 0.264091
vt 0.010576 0.270202
vt 0.000000 0.279713
vt 0.010576 0.270202
vt 0.010584 0.279713
vt 0.000000 0.270202
vt 0.000000 0.255099
vt 0.009164 0.246690
vt 0.009164 0.255117
vt 0.000000 0.246690
vt -0.010589 0.286077
vt -0.018850 0.279716
vt -0.010584 0.279713
vt -0.018861 0.286084
vt -0.018838 0.270203
vt -0.010571 0.264091
vt -0.010576 0.270202
vt -0.018845 0.264088
vt -0.010571 0.264091
vt -0.018852 0.259162
vt -0.010567 0.259072
vt -0.018845 0.264088
vt -0.010584 0.279713
vt -0.018838 0.270203
vt -0.010576 0.270202
vt -0.018850 0.279716
vt 0.000000 0.286077
vt -0.010584 0.279713
vt 0.000000 0.279713
vt -0.010589 0.286077
vt 0.000000 0.270202
vt -0.010571 0.264091
vt 0.000000 0.264092
vt -0.010576 0.270202
vt 0.000000 0.279713
vt -0.010576 0.270202
vt 0.000000 0.270202
vt -0.010584 0.279713
vt 0.000000 0.255099
vt -0.009164 0.255117
vt -0.009164 0.246690
vt 0.000000 0.246690
vt 0.000000 0.247530
vt 0.009164 0.247530
vt 0.009164 0.246690
vt 0.000000 0.246690
vt -0.009164 0.246690
vt -0.009164 0.247530
vt 0.000000 0.255770
vt 0.000000 0.255770
vt 0.018861 0.286084
vt 0.000000 0.264092
vt 0.000000 0.264092
vt 0.010568 0.259072
vt 0.010572 0.264091
vt 0.000000 0.259001
vt 0.000000 0.259001
vt 0.009164 0.255117
vt 0.010568 0.259072
vt 0.000000 0.255099
vt 0.000000 0.264092
vt -0.010567 0.259072
vt 0.000000 0.259001
vt -0.010571 0.264091
vt 0.000000 0.259001
vt -0.010567 0.259072
vt -0.009164 0.255117
vt 0.000000 0.255099
vt 0.018592 0.286257
vt 0.010589 0.286257
vt 0.010589 0.286077
vt 0.018861 0.286084
vt 0.018570 0.259340
vt 0.010568 0.259072
vt 0.010568 0.259340
vt 0.018853 0.259162
vt 0.000000 0.286257
vt 0.000000 0.286077
vt 0.010568 0.259340
vt 0.009164 0.255117
vt 0.009164 0.255770
vt 0.010568 0.259072
vt 0.009164 0.246690
vt 0.009164 0.247530
vt -0.018592 0.286257
vt -0.010589 0.286077
vt -0.010589 0.286257
vt -0.018861 0.286084
vt -0.018570 0.259340
vt -0.010567 0.259340
vt -0.010567 0.259072
vt -0.018852 0.259162
vt -0.010567 0.259340
vt -0.009164 0.255770
vt -0.009164 0.255117
vt -0.010567 0.259072
vt -0.009164 0.246690
vt -0.009164 0.247530
vn 0.0000 0.9959 0.0900
vn 0.0000 0.9687 0.2484
vn 0.0000 0.9075 0.4201
vn 0.0021 -0.9959 -0.0900
vn 0.0020 -0.9959 -0.0900
vn 0.0022 -0.9959 -0.0903
vn 0.0022 -0.9959 -0.0904
vn 0.0000 -0.9959 -0.0900
vn 0.0002 -0.9079 -0.4191
vn -0.0000 -0.9078 -0.4193
vn -0.0021 -0.9959 -0.0900
vn -0.0022 -0.9959 -0.0899
vn -0.0020 -0.9959 -0.0900
vn -0.0022 -0.9959 -0.0903
vn -0.0022 -0.9959 -0.0904
vn -0.0002 -0.9079 -0.4191
vn -0.0000 0.4201 -0.9075
vn 0.0022 -0.9959 -0.0899
vn -0.0003 -0.9958 -0.0910
vn -0.0001 -0.9959 -0.0907
vn -0.0002 -0.9959 -0.0908
vn -0.0004 -0.9958 -0.0913
vn 0.0002 -0.9688 -0.2480
vn 0.0005 -0.9689 -0.2474
vn 0.0003 -0.9688 -0.2477
vn 0.0003 -0.9688 -0.2478
vn 0.0003 -0.9958 -0.0910
vn 0.0001 -0.9959 -0.0907
vn 0.0002 -0.9959 -0.0908
vn -0.0002 -0.9688 -0.2479
vn -0.0003 -0.9688 -0.2477
vn -0.0003 -0.9688 -0.2478
vn 0.0175 -0.0814 0.9965
vn -0.0002 -0.0892 0.9960
vn 0.0174 -0.0815 0.9965
vn -0.0238 0.0974 -0.9950
vn 0.0054 0.1127 -0.9936
vn 0.0054 0.1128 -0.9936
vn -0.0239 0.0973 -0.9950
vn 0.0000 -0.0900 0.9959
vn 0.9404 0.0787 -0.3307
vn 0.9848 0.0403 -0.1691
vn 0.9852 0.0397 -0.1667
vn 0.9404 0.0788 -0.3307
vn 1.0000 -0.0000 -0.0000
vn -0.0175 -0.0814 0.9965
vn 0.0002 -0.0892 0.9960
vn -0.0174 -0.0814 0.9965
vn 0.0238 0.0977 -0.9949
vn -0.0054 0.1127 -0.9936
vn 0.0239 0.0973 -0.9950
vn -0.9404 0.0787 -0.3307
vn -0.9852 0.0397 -0.1667
vn -0.9848 0.0403 -0.1691
vn -0.9404 0.0788 -0.3307
vn -1.0000 -0.0000 -0.0000
usemtl chrome
s off
f 1/1/1 2/2/1 3/3/1
f 2/2/1 1/1/1 4/4/1
f 5/5/1 6/6/1 7/7/1
f 6/6/1 5/5/1 8/8/1
f 9/9/1 10/10/1 11/11/1
f 10/10/1 9/9/1 12/12/1
f 13/13/1 14/14/1 15/15/1
f 14/14/1 13/13/1 16/16/1
f 17/17/1 18/18/1 19/19/1
f 18/18/1 17/17/1 20/20/1
f 21/21/1 22/22/1 23/23/1
f 22/22/1 21/21/1 24/24/1
f 25/25/1 26/26/1 27/27/1
f 26/26/1 25/25/1 28/28/1
f 29/29/1 30/30/1 31/31/1
f 30/30/1 29/29/1 32/32/1
f 35/33/2 36/34/2 33/35/2
f 37/36/3 38/37/3 39/38/3
f 41/39/1 42/40/1 43/41/1
f 42/40/1 41/39/1 44/42/1
f 45/43/1 46/44/1 47/45/1
f 46/44/1 45/43/1 48/46/1
f 49/47/1 50/48/1 51/49/1
f 50/48/1 49/47/1 52/50/1
f 53/51/1 54/52/1 55/53/1
f 54/52/1 53/51/1 56/54/1
f 57/55/1 58/56/1 59/57/1
f 58/56/1 57/55/1 60/58/1
f 61/59/1 62/60/1 63/61/1
f 62/60/1 61/59/1 64/62/1
f 65/63/1 66/64/1 67/65/1
f 66/64/1 65/63/1 68/66/1
f 69/67/1 70/68/1 71/69/1
f 70/68/1 69/67/1 72/70/1
f 73/71/2 74/72/2 75/73/2
f 74/72/2 73/71/2 76/74/2
f 77/75/3 78/76/3 79/77/3
f 78/76/3 77/75/3 80/78/3
f 82/79/4 81/80/4 84/81/4
f 85/82/5 86/83/5 87/84/5
f 85/82/6 87/84/5 88/85/5
f 89/86/6 90/87/6 91/88/6
f 90/87/7 89/86/7 92/89/7
f 93/90/4 94/91/4 95/92/4
f 94/91/5 93/90/5 96/93/5
f 97/94/8 98/95/8 99/96/8
f 98/95/8 97/94/8 100/97/8
f 101/98/8 102/99/8 103/100/8
f 109/101/8 110/102/8 111/103/8
f 110/102/8 109/101/8 112/104/8
f 117/105/9 118/106/10 119/107/9
f 118/106/10 117/105/10 120/108/10
f 121/109/11 122/110/11 123/111/11
f 122/110/12 121/109/12 124/112/12
f 125/113/13 126/114/13 127/115/13
f 126/114/13 125/113/14 128/116/14
f 129/117/15 130/118/15 131/119/15
f 130/118/14 129/117/14 132/120/14
f 133/121/13 134/122/13 135/123/13
f 134/122/11 133/121/11 136/124/11
f 137/125/8 138/126/8 139/127/8
f 138/126/8 137/125/8 140/128/8
f 141/129/8 142/130/8 143/131/8
f 142/130/8 141/129/8 144/132/8
f 149/133/8 150/134/8 151/135/8
f 150/134/8 149/133/8 152/136/8
f 157/137/16 158/138/16 159/139/16
f 157/137/10 159/139/10 160/140/10
f 177/141/17 178/142/17 179/143/17
f 177/141/17 179/143/17 180/144/17
f 177/141/17 193/145/17 194/146/17
f 193/145/17 177/141/17 180/144/17
s 1
f 33/35/2 34/147/2 35/33/2
f 38/37/3 37/36/3 40/148/3
f 81/80/18 82/79/18 83/149/18
f 102/99/8 101/98/8 104/150/8
f 105/151/19 106/152/20 107/153/21
f 106/152/20 105/151/19 108/154/22
f 113/155/23 114/156/24 115/157/25
f 114/156/24 113/155/23 116/158/26
f 145/159/27 146/160/28 147/161/29
f 146/160/28 145/159/27 148/162/28
f 153/163/30 154/164/31 155/165/32
f 153/163/30 155/165/32 156/166/30
f 161/167/33 162/168/34 163/169/34
f 161/167/33 163/169/34 164/170/35
f 165/171/36 166/172/37 167/173/38
f 166/172/37 165/171/36 168/174/39
f 169/175/40 163/169/34 162/168/34
f 163/169/34 169/175/40 170/176/40
f 171/177/41 172/178/42 173/179/43
f 172/178/42 171/177/41 174/180/44
f 173/179/43 175/181/45 176/182/45
f 175/181/45 173/179/43 172/178/42
f 181/183/46 182/184/47 183/185/47
f 182/184/47 181/183/46 184/186/48
f 185/187/49 186/188/50 187/189/50
f 185/187/49 187/189/50 188/190/51
f 182/184/47 169/175/40 183/185/47
f 169/175/40 182/184/47 170/176/40
f 189/191/52 190/192/53 191/193/54
f 189/191/52 191/193/54 192/194/55
f 195/195/56 191/193/54 190/192/53
f 190/192/53 196/196/56 195/195/56
