# Blender v3.5.1 OBJ File: 'f1.blend'
# www.blender.org
mtllib Mesh_69.mtl
o Mesh_69
v 0.346196 0.827921 0.786586
v 0.346196 0.827921 0.733052
v 0.346048 0.827921 0.734674
v 0.345722 0.827921 0.786911
v 0.380672 0.827921 0.732200
v 0.386012 0.827921 0.786586
v 0.386012 0.827921 0.731475
v 0.380672 0.827921 0.786586
v 0.450854 0.827921 0.786659
v 0.473643 0.827921 0.716887
v 0.348624 0.827921 0.786586
v 0.348624 0.827921 0.732200
v 0.344578 0.821921 0.788056
v 0.344578 0.821921 0.734266
v 0.346196 0.821921 0.788056
v 0.346196 0.821921 0.731582
v 0.386012 0.821921 0.788056
v 0.380672 0.821921 0.730731
v 0.386012 0.821921 0.730005
v 0.380672 0.821921 0.788056
v 0.450397 0.821921 0.788056
v 0.474099 0.821921 0.715491
v 0.348624 0.821921 0.788056
v 0.348624 0.821921 0.730731
v 0.346196 0.826452 0.731582
v 0.346196 0.821921 0.731582
v 0.344578 0.826452 0.734266
v 0.344578 0.821921 0.734266
v 0.344578 0.821921 0.788056
v 0.344578 0.826452 0.788056
v 0.344578 0.821921 0.788056
v 0.346196 0.826452 0.788056
v 0.344578 0.826452 0.788056
v 0.346196 0.821921 0.788056
v 0.386012 0.826452 0.730005
v 0.386012 0.821921 0.730005
v 0.380672 0.826452 0.730731
v 0.380672 0.821921 0.730731
v 0.380672 0.826452 0.788056
v 0.380672 0.821921 0.788056
v 0.386012 0.826452 0.788056
v 0.386012 0.821921 0.788056
v 0.474099 0.821921 0.715491
v 0.474099 0.826452 0.715491
v 0.450397 0.826452 0.788056
v 0.450397 0.821921 0.788056
v 0.348624 0.826452 0.730731
v 0.348624 0.821921 0.730731
v 0.348624 0.826452 0.788056
v 0.348624 0.821921 0.788056
v 0.346048 0.827921 0.734674
v 0.346196 0.827921 0.733052
v 0.344578 0.826452 0.734266
v 0.346196 0.826452 0.731582
v 0.344578 0.826452 0.734266
v 0.345722 0.827921 0.786911
v 0.346048 0.827921 0.734674
v 0.344578 0.826452 0.788056
v 0.346196 0.826452 0.788056
v 0.346196 0.827921 0.786586
v 0.345722 0.827921 0.786911
v 0.344578 0.826452 0.788056
v 0.386012 0.826452 0.730005
v 0.380672 0.826452 0.730731
v 0.386012 0.827921 0.731475
v 0.380672 0.827921 0.732200
v 0.380672 0.826452 0.788056
v 0.386012 0.826452 0.788056
v 0.380672 0.827921 0.786586
v 0.386012 0.827921 0.786586
v 0.474099 0.826452 0.715491
v 0.386012 0.826452 0.730005
v 0.473643 0.827921 0.716887
v 0.386012 0.827921 0.731475
v 0.386012 0.826452 0.788056
v 0.450397 0.826452 0.788056
v 0.386012 0.827921 0.786586
v 0.450854 0.827921 0.786659
v 0.346196 0.827921 0.733052
v 0.348624 0.827921 0.732200
v 0.346196 0.826452 0.731582
v 0.348624 0.826452 0.730731
v 0.348624 0.827921 0.786586
v 0.346196 0.827921 0.786586
v 0.348624 0.826452 0.788056
v 0.346196 0.826452 0.788056
v 0.380672 0.826452 0.730731
v 0.348624 0.826452 0.730731
v 0.380672 0.827921 0.732200
v 0.348624 0.827921 0.732200
vt 0.025771 -0.026020
vt 0.022612 -0.973980
vt 0.000009 -0.999633
vt 0.000007 -0.000286
vt 0.279726 -0.974366
vt 0.366031 -0.025313
vt 0.321100 -0.974687
vt 0.318839 -0.025634
vt 1.000000 -0.019249
vt 1.000000 -0.980751
vt 0.047216 -0.025634
vt 0.041424 -0.974366
vt 0.000000 0.000000
vt 0.000009 -0.999633
vt 0.025858 0.000000
vt 0.022612 -0.973980
vt 0.366031 -0.025313
vt 0.279726 -0.974366
vt 0.319902 -1.000000
vt 0.318839 -0.025634
vt 1.000000 -0.019249
vt 1.000000 -1.000000
vt 0.047216 -0.025634
vt 0.041268 -1.000000
vt 0.000000 0.000000
vt 0.025858 0.000000
vt 0.000000 0.000000
vt 0.025858 0.000000
vt 0.319896 0.000000
vt 0.318839 -0.025634
vt 0.367229 0.000000
vt 0.366031 -0.025313
vt 1.000000 0.000000
vt 1.000000 -0.019249
vt 0.047373 0.000000
vt 0.047216 -0.025634
vt 0.319902 -1.000000
vt 0.278669 -1.000000
vt 0.321100 -0.974687
vt 0.279726 -0.974366
vt 0.319896 0.000000
vt 0.367229 0.000000
vt 0.318839 -0.025634
vt 0.366031 -0.025313
vt 0.022612 -0.973980
vt 0.041424 -0.974366
vt 0.022525 -1.000000
vt 0.041268 -1.000000
vt 0.047216 -0.025634
vt 0.025771 -0.026020
vt 0.047373 0.000000
vt 0.025858 0.000000
vt 0.278669 -1.000000
vt 0.041268 -1.000000
vt 0.279726 -0.974366
vt 0.022525 -1.000000
vt 0.022612 -0.973980
vt 0.000000 -1.000000
vt 0.000009 -0.999633
vt 0.000000 0.000000
vt 0.000000 0.000000
vt 0.319902 -1.000000
vt 0.319902 -1.000000
vt 0.278669 -1.000000
vt 0.279726 -0.974366
vt 1.000000 -1.000000
vt 1.000000 -1.000000
vt 0.041268 -1.000000
vt 0.041268 -1.000000
vt 0.000009 -0.999633
vt 0.022612 -0.973980
vt 0.000000 -1.000000
vt 0.022525 -1.000000
vt 0.000000 -1.000000
vt 0.000007 -0.000286
vt 0.000009 -0.999633
vt 0.000000 0.000000
vt 0.025858 0.000000
vt 0.025771 -0.026020
vt 0.000007 -0.000286
vt 0.000000 0.000000
vt 1.000000 -1.000000
vt 0.319902 -1.000000
vt 1.000000 -0.980751
vt 0.321100 -0.974687
vt 0.367229 0.000000
vt 1.000000 0.000000
vt 0.366031 -0.025313
vt 1.000000 -0.019249
vt 0.041424 -0.974366
vn 0.0000 1.0000 0.0000
vn 0.0003 1.0000 -0.0000
vn 0.0000 -1.0000 0.0000
vn 0.0000 0.0000 1.0000
vn -0.0956 0.7039 -0.7039
vn 0.0000 0.7071 0.7071
vn -0.2407 0.6863 -0.6863
vn 0.0000 0.7071 -0.7071
vn -0.6309 0.0000 -0.7759
vn -0.9634 0.0000 -0.2680
vn -1.0000 0.0000 0.0000
vn -0.1486 0.0000 -0.9889
vn -0.0675 0.0000 -0.9977
vn -0.1626 0.0000 -0.9867
vn -0.1678 0.0000 -0.9858
vn -0.7561 0.5763 -0.3102
vn -0.7560 0.5763 -0.3103
vn -0.7475 0.6643 -0.0023
vn -0.7475 0.6642 -0.0023
vn 0.1187 0.6336 0.7645
vn 0.1185 0.6336 0.7645
vn 0.1186 0.6336 0.7645
vn 0.1188 0.6336 0.7645
vn -0.1193 0.6837 -0.7200
vn -0.1192 0.6837 -0.7200
vn -0.0004 0.6983 0.7159
vn -0.0004 0.6982 0.7159
usemtl plastic_interior
s off
f 1/1/1 2/2/1 3/3/1
f 3/3/2 4/4/1 1/1/1
f 5/5/1 6/6/1 7/7/1
f 6/6/1 5/5/1 8/8/1
f 7/7/1 9/9/1 10/10/1
f 9/9/1 7/7/1 6/6/1
f 2/2/1 11/11/1 12/12/1
f 11/11/1 2/2/1 1/1/1
f 12/12/1 8/8/1 5/5/1
f 8/8/1 12/12/1 11/11/1
f 13/13/3 14/14/3 15/15/3
f 16/16/3 15/15/3 14/14/3
f 17/17/3 18/18/3 19/19/3
f 18/18/3 17/17/3 20/20/3
f 21/21/3 17/17/3 19/19/3
f 19/19/3 22/22/3 21/21/3
f 23/23/3 16/16/3 24/24/3
f 16/16/3 23/23/3 15/15/3
f 23/23/3 24/24/3 20/20/3
f 20/20/3 24/24/3 18/18/3
f 31/25/4 32/26/4 33/27/4
f 32/26/4 31/25/4 34/28/4
f 39/29/4 40/30/4 41/31/4
f 41/31/4 40/30/4 42/32/4
f 42/32/4 45/33/4 41/31/4
f 45/33/4 42/32/4 46/34/4
f 32/26/4 34/28/4 49/35/4
f 49/35/4 34/28/4 50/36/4
f 39/29/4 49/35/4 50/36/4
f 39/29/4 50/36/4 40/30/4
f 63/37/5 64/38/5 65/39/5
f 66/40/5 65/39/5 64/38/5
f 67/41/6 68/42/6 69/43/6
f 70/44/6 69/43/6 68/42/6
f 79/45/7 80/46/7 81/47/7
f 80/46/7 82/48/7 81/47/7
f 83/49/6 84/50/6 85/51/6
f 84/50/6 86/52/6 85/51/6
f 87/53/8 88/54/8 89/55/8
f 85/51/6 67/41/6 83/49/6
f 69/43/6 83/49/6 67/41/6
s 1
f 25/56/9 26/57/9 27/58/10
f 27/58/10 26/57/9 28/59/10
f 27/58/10 29/60/11 30/61/11
f 29/60/11 27/58/10 28/59/10
f 35/62/12 36/63/12 37/64/13
f 37/64/13 36/63/12 38/65/13
f 43/66/14 35/62/12 44/67/14
f 35/62/12 43/66/14 36/63/12
f 47/68/15 48/69/15 25/56/9
f 25/56/9 48/69/15 26/57/9
f 47/68/15 37/64/13 38/65/13
f 47/68/15 38/65/13 48/69/15
f 51/70/16 52/71/17 53/72/17
f 52/71/17 54/73/17 53/72/17
f 55/74/18 56/75/19 57/76/18
f 56/75/19 55/74/18 58/77/19
f 59/78/20 60/79/21 61/80/22
f 61/80/22 62/81/23 59/78/20
f 71/82/24 72/83/25 73/84/24
f 74/85/25 73/84/24 72/83/25
f 75/86/26 76/87/27 77/88/27
f 78/89/27 77/88/27 76/87/27
f 90/90/8 89/55/8 88/54/8
