# Blender v3.5.1 OBJ File: 'f1.blend'
# www.blender.org
mtllib Mesh_236.mtl
o Mesh_236
v 0.000007 1.257564 0.784070
v 0.014768 1.216792 0.784069
v 0.009490 1.213524 0.784071
v -0.009475 1.213524 0.784071
v -0.014753 1.216792 0.784069
v 0.023207 1.233749 0.784069
v 0.022991 1.231408 0.784069
v 0.000007 1.211532 0.784071
v 0.007298 1.212674 0.784069
v -0.017790 1.249624 0.784069
v -0.013200 1.253804 0.784069
v -0.022976 1.231408 0.784069
v -0.023192 1.233749 0.784069
v -0.011201 1.255042 0.784071
v -0.005414 1.257282 0.784069
v 0.013215 1.253804 0.784069
v 0.017804 1.249624 0.784069
v 0.011216 1.255042 0.784071
v 0.005429 1.257282 0.784069
v 0.019222 1.247747 0.784069
v 0.021988 1.242190 0.784069
v 0.022632 1.239928 0.784069
v 0.021292 1.225437 0.784069
v 0.020246 1.223331 0.784069
v 0.016506 1.218377 0.784071
v -0.007283 1.212674 0.784069
v -0.016491 1.218377 0.784071
v -0.020231 1.223331 0.784069
v -0.021278 1.225437 0.784069
v -0.022618 1.239928 0.784069
v -0.021974 1.242190 0.784069
v -0.019207 1.247747 0.784069
vt 0.792744 -0.862320
vt 0.667982 -0.517709
vt 0.712595 -0.490089
vt 0.872892 -0.490089
vt 0.917505 -0.517709
vt 0.596654 -0.661031
vt 0.598482 -0.641246
vt 0.943168 -0.795213
vt 0.904379 -0.830539
vt 0.987005 -0.641246
vt 0.988833 -0.661031
vt 0.681108 -0.830539
vt 0.642319 -0.795213
vt 0.630340 -0.779343
vt 0.606955 -0.732379
vt 0.601511 -0.713259
vt 0.612837 -0.590773
vt 0.621685 -0.572979
vt 0.792744 -0.473250
vt 0.972650 -0.590773
vt 0.963801 -0.572979
vt 0.983976 -0.713259
vt 0.978532 -0.732379
vt 0.955147 -0.779343
vt 0.731123 -0.482903
vt 0.887482 -0.841004
vt 0.838569 -0.859936
vt 0.698005 -0.841004
vt 0.746918 -0.859936
vt 0.653297 -0.531105
vt 0.854363 -0.482903
vt 0.932189 -0.531105
vn -0.0004 -0.0001 -1.0000
vn -0.0001 0.0000 -1.0000
vn 0.0004 -0.0001 -1.0000
vn 0.0001 0.0000 -1.0000
vn -0.0001 0.0001 -1.0000
vn 0.0001 0.0002 -1.0000
vn -0.0001 -0.0002 -1.0000
vn -0.0001 -0.0001 -1.0000
vn -0.0000 -0.0000 -1.0000
vn 0.0001 -0.0003 -1.0000
vn 0.0002 0.0002 -1.0000
vn 0.0001 -0.0001 -1.0000
vn 0.0000 0.0002 -1.0000
vn 0.0000 0.0001 -1.0000
vn 0.0000 -0.0002 -1.0000
vn -0.0000 -0.0001 -1.0000
vn 0.0001 0.0001 -1.0000
vn 0.0002 0.0003 -1.0000
vn -0.0005 0.0002 -1.0000
vn -0.0000 -0.0004 -1.0000
vn -0.0003 0.0001 -1.0000
usemtl sf21_sw_buttons
s off
f 1/1/1 2/2/2 3/3/1
f 1/1/3 4/4/3 5/5/4
f 1/1/2 6/6/2 7/7/2
f 1/1/2 10/8/5 11/9/6
f 1/1/4 12/10/4 13/11/4
f 1/1/7 16/12/7 17/13/7
f 20/14/8 1/1/8 17/13/8
f 21/15/2 1/1/2 20/14/2
f 22/16/9 1/1/9 21/15/9
f 6/6/2 1/1/2 22/16/2
f 23/17/9 1/1/10 7/7/9
f 24/18/9 1/1/9 23/17/9
f 3/3/9 8/19/9 1/1/9
f 4/4/11 1/1/9 8/19/9
f 29/20/9 1/1/9 28/21/9
f 12/10/9 1/1/9 29/20/9
f 30/22/4 1/1/4 13/11/4
f 31/23/4 1/1/4 30/22/4
f 32/24/4 1/1/4 31/23/4
f 10/8/12 1/1/12 32/24/12
s 1
f 8/19/13 3/3/14 9/25/14
f 1/1/15 14/26/16 15/27/9
f 18/28/16 1/1/15 19/29/9
f 16/12/5 1/1/15 18/28/16
f 25/30/9 1/1/9 24/18/4
f 2/2/17 1/1/9 25/30/9
f 4/4/18 8/19/13 26/31/14
f 27/32/19 1/1/20 5/5/21
f 28/21/2 1/1/20 27/32/19
f 14/26/16 1/1/15 11/9/4
