# Blender v3.5.1 OBJ File: 'f1.blend'
# www.blender.org
mtllib Mesh_52.mtl
o Mesh_52
v -0.032614 2.120904 -0.645175
v 0.043441 2.098333 -0.646756
v 0.032689 2.120904 -0.645175
v -0.048484 1.887170 -0.661537
v -0.105937 1.951918 -0.657868
v -0.069923 1.889879 -0.661480
v 0.069999 1.889879 -0.661480
v 0.106013 1.951918 -0.657868
v 0.048560 1.887170 -0.661537
v 0.024864 1.885374 -0.661581
v 0.082314 2.010781 -0.653275
v 0.000038 1.884705 -0.661600
v 0.016045 2.149186 -0.643224
v -0.015970 2.149186 -0.643224
v 0.023471 2.138240 -0.643979
v 0.068511 2.042115 -0.650861
v -0.068436 2.042115 -0.650861
v -0.087974 1.893290 -0.661424
v -0.112741 1.928942 -0.659595
v -0.114119 1.913303 -0.660640
v -0.101508 1.897189 -0.661381
v -0.110299 1.903290 -0.661178
v -0.024788 1.885374 -0.661581
v -0.095254 1.979957 -0.655686
v -0.082239 2.010781 -0.653275
v 0.095330 1.979957 -0.655687
v 0.088050 1.893290 -0.661424
v 0.101584 1.897189 -0.661381
v 0.112816 1.928942 -0.659595
v 0.114195 1.913303 -0.660640
v 0.110375 1.903290 -0.661178
v 0.055467 2.071685 -0.648670
v -0.055392 2.071685 -0.648670
v -0.043365 2.098333 -0.646757
v 0.000038 2.157958 -0.642619
v 0.009963 2.155170 -0.642812
v 0.004776 2.157618 -0.642643
v -0.009887 2.155170 -0.642812
v -0.004701 2.157618 -0.642643
v -0.023396 2.138240 -0.643979
vt 0.395050 -0.292512
vt 0.396400 -0.303700
vt 0.395500 -0.296250
vt 0.394150 -0.285012
vt 0.393700 -0.281250
vt 0.394150 -0.285012
vt 0.492327 -0.318135
vt 0.390775 -0.256975
vt 0.492089 -0.319969
vt 0.492089 -0.319969
vt 0.390775 -0.256975
vt 0.492327 -0.318135
vt 0.492613 -0.315917
vt 0.392069 -0.267675
vt 0.492900 -0.313700
vt 0.395050 -0.292512
vt 0.394600 -0.288769
vt 0.392659 -0.272575
vt 0.392659 -0.272575
vt 0.491877 -0.321610
vt 0.390100 -0.251400
vt 0.491488 -0.324617
vt 0.491714 -0.322869
vt 0.491577 -0.323935
vt 0.492613 -0.315917
vt 0.391450 -0.262550
vt 0.392069 -0.267675
vt 0.391450 -0.262550
vt 0.491877 -0.321610
vt 0.491714 -0.322869
vt 0.491400 -0.325300
vt 0.491488 -0.324617
vt 0.491577 -0.323935
vt 0.393194 -0.277025
vt 0.393194 -0.277025
vt 0.393700 -0.281250
vt 0.395500 -0.296250
vt 0.395950 -0.299975
vt 0.395950 -0.299975
vt 0.394600 -0.288769
vn -0.0000 -0.0693 0.9976
vn -0.0000 -0.0691 0.9976
vn 0.0000 -0.0690 0.9976
vn -0.0000 -0.0695 0.9976
vn -0.0000 -0.0692 0.9976
vn -0.0000 -0.0688 0.9976
usemtl BLACK
s off
f 14/1/1 35/2/2 38/3/2
s 1
f 1/4/3 2/5/2 3/6/4
f 4/7/5 5/8/5 6/9/5
f 7/10/5 8/11/5 9/12/5
f 10/13/5 11/14/5 12/15/5
f 13/16/6 14/1/2 15/17/2
f 16/18/1 17/19/5 11/14/5
f 18/20/5 5/8/5 19/21/5
f 20/22/5 21/23/5 19/21/5
f 21/23/5 20/22/5 22/24/5
f 18/20/5 19/21/5 21/23/5
f 5/8/5 18/20/5 6/9/5
f 23/25/5 24/26/5 4/7/5
f 11/14/5 25/27/5 12/15/5
f 12/15/5 25/27/5 23/25/5
f 9/12/5 26/28/5 10/13/5
f 27/29/5 8/11/5 7/10/5
f 28/30/5 29/31/5 27/29/5
f 30/32/5 28/30/5 31/33/5
f 29/31/5 28/30/5 30/32/5
f 8/11/5 27/29/5 29/31/5
f 26/28/5 9/12/5 8/11/5
f 11/14/5 10/13/5 26/28/5
f 32/34/5 33/35/5 16/18/1
f 2/5/2 33/35/5 32/34/5
f 2/5/2 34/36/1 33/35/5
f 15/17/2 1/4/3 3/6/4
f 35/2/1 14/1/2 13/16/6
f 35/2/1 13/16/6 36/37/2
f 35/2/1 36/37/2 37/38/5
f 38/3/2 35/2/2 39/39/5
f 40/40/2 15/17/2 14/1/2
f 1/4/3 15/17/2 40/40/2
f 34/36/1 2/5/2 1/4/3
f 17/19/5 16/18/1 33/35/5
f 25/27/5 11/14/5 17/19/5
f 24/26/5 23/25/5 25/27/5
f 5/8/5 4/7/5 24/26/5
