# Blender v3.5.1 OBJ File: 'f1.blend'
# www.blender.org
mtllib Mesh_222.mtl
o Mesh_222
v -0.118591 1.392234 0.798711
v -0.116482 1.390124 0.798711
v -0.118592 1.390124 0.798711
v -0.116482 1.392233 0.798711
v -0.114373 1.392233 0.798711
v -0.114373 1.390123 0.798711
v -0.112263 1.392233 0.798711
v -0.112264 1.390123 0.798711
v -0.112262 1.398561 0.798710
v -0.110153 1.396451 0.798711
v -0.112263 1.396451 0.798711
v -0.110153 1.398561 0.798710
v -0.110154 1.392232 0.798711
v -0.110154 1.390123 0.798711
v -0.116481 1.396452 0.798711
v -0.118590 1.398562 0.798710
v -0.116481 1.398562 0.798710
v -0.118591 1.396453 0.798711
v -0.118591 1.394343 0.798711
v -0.116482 1.394343 0.798711
v -0.114372 1.396452 0.798711
v -0.114372 1.398561 0.798710
v -0.114372 1.394342 0.798711
v -0.112263 1.394342 0.798711
v -0.110153 1.394342 0.798711
v 0.118606 1.392234 0.798711
v 0.116497 1.390124 0.798711
v 0.116497 1.392233 0.798711
v 0.118607 1.390124 0.798711
v 0.114388 1.392233 0.798711
v 0.114388 1.390123 0.798711
v 0.112278 1.392233 0.798711
v 0.112278 1.390123 0.798711
v 0.112277 1.398561 0.798710
v 0.110168 1.396451 0.798711
v 0.110168 1.398561 0.798710
v 0.112277 1.396451 0.798711
v 0.110169 1.390123 0.798711
v 0.110169 1.392232 0.798711
v 0.116496 1.398562 0.798710
v 0.118605 1.398562 0.798710
v 0.116496 1.396452 0.798711
v 0.118606 1.396453 0.798711
v 0.118606 1.394343 0.798711
v 0.116497 1.394343 0.798711
v 0.114387 1.396452 0.798711
v 0.114386 1.398561 0.798710
v 0.114387 1.394342 0.798711
v 0.112278 1.394342 0.798711
v 0.110168 1.394342 0.798711
vt 0.999956 -0.250111
vt 0.750044 -0.000111
vt 0.999999 -0.000154
vt 0.750000 -0.250069
vt 0.500042 -0.250025
vt 0.500085 -0.000067
vt 0.250086 -0.249980
vt 0.250129 -0.000023
vt 0.249954 -0.999857
vt 0.000043 -0.749857
vt 0.249998 -0.749899
vt -0.000001 -0.999814
vt 0.000131 -0.249938
vt 0.000174 0.000020
vt 0.749913 -0.749988
vt 0.999825 -0.999988
vt 0.749867 -0.999945
vt 0.999868 -0.750030
vt 0.999911 -0.500069
vt 0.749956 -0.500025
vt 0.499955 -0.749944
vt 0.499910 -0.999901
vt 0.499998 -0.499980
vt 0.250042 -0.499936
vt 0.000086 -0.499896
vt 0.000042 -0.250131
vt 0.249954 -0.000131
vt 0.249998 -0.250089
vt -0.000001 -0.000174
vt 0.499956 -0.250045
vt 0.499913 -0.000087
vt 0.749912 -0.250000
vt 0.749869 -0.000043
vt 0.750044 -0.999877
vt 0.999955 -0.749877
vt 0.999999 -0.999834
vt 0.750000 -0.749919
vt 0.999825 0.000000
vt 0.999867 -0.249958
vt 0.250131 -0.999965
vt 0.000174 -1.000008
vt 0.250085 -0.750008
vt 0.000130 -0.750050
vt 0.000087 -0.500089
vt 0.250042 -0.500045
vt 0.500043 -0.749964
vt 0.500088 -0.999921
vt 0.500000 -0.500000
vt 0.749956 -0.499956
vt 0.999912 -0.499916
vn -0.0000 -0.0001 -1.0000
vn 0.0001 -0.0001 -1.0000
vn -0.0001 -0.0001 -1.0000
usemtl GP21_CLEARLED
s off
f 1/1/1 2/2/1 3/3/1
f 2/2/1 1/1/1 4/4/1
f 5/5/1 2/2/1 4/4/1
f 2/2/1 5/5/1 6/6/1
f 7/7/1 6/6/1 5/5/1
f 6/6/1 7/7/1 8/8/1
f 9/9/1 10/10/1 11/11/1
f 10/10/1 9/9/1 12/12/1
f 7/7/2 13/13/2 14/14/2
f 7/7/1 14/14/1 8/8/1
f 15/15/1 16/16/1 17/17/1
f 16/16/1 15/15/1 18/18/1
f 18/18/2 15/15/2 19/19/2
f 15/15/1 20/20/1 19/19/1
f 17/17/1 21/21/1 15/15/1
f 21/21/1 17/17/1 22/22/1
f 11/11/2 23/23/2 21/21/2
f 23/23/3 11/11/3 24/24/3
f 15/15/2 21/21/2 20/20/2
f 21/21/1 23/23/1 20/20/1
f 9/9/2 21/21/2 22/22/2
f 21/21/3 9/9/3 11/11/3
f 24/24/1 5/5/1 23/23/1
f 5/5/1 24/24/1 7/7/1
f 20/20/1 23/23/1 4/4/1
f 23/23/1 5/5/1 4/4/1
f 13/13/1 24/24/1 25/25/1
f 24/24/1 13/13/1 7/7/1
f 11/11/1 25/25/1 24/24/1
f 25/25/1 11/11/1 10/10/1
f 4/4/1 19/19/1 20/20/1
f 19/19/1 4/4/1 1/1/1
f 26/26/3 27/27/3 28/28/3
f 27/27/2 26/26/2 29/29/2
f 30/30/1 27/27/1 31/31/1
f 27/27/1 30/30/1 28/28/1
f 32/32/1 30/30/1 31/31/1
f 32/32/1 31/31/1 33/33/1
f 34/34/1 35/35/1 36/36/1
f 35/35/1 34/34/1 37/37/1
f 32/32/3 38/38/3 39/39/3
f 38/38/2 32/32/2 33/33/2
f 40/40/1 41/41/1 42/42/1
f 41/41/1 43/43/1 42/42/1
f 43/43/3 44/44/3 42/42/3
f 42/42/1 44/44/1 45/45/1
f 40/40/1 46/46/1 47/47/1
f 46/46/1 40/40/1 42/42/1
f 37/37/1 48/48/1 49/49/1
f 48/48/1 37/37/1 46/46/1
f 42/42/3 45/45/3 46/46/3
f 46/46/1 45/45/1 48/48/1
f 34/34/3 47/47/3 46/46/3
f 34/34/1 46/46/1 37/37/1
f 49/49/1 30/30/1 32/32/1
f 30/30/1 49/49/1 48/48/1
f 45/45/1 28/28/1 48/48/1
f 48/48/1 28/28/1 30/30/1
f 50/50/3 49/49/3 39/39/3
f 49/49/1 32/32/1 39/39/1
f 37/37/1 50/50/1 35/35/1
f 50/50/1 37/37/1 49/49/1
f 45/45/3 44/44/3 28/28/3
f 44/44/1 26/26/1 28/28/1
