# Blender v3.5.1 OBJ File: 'f1.blend'
# www.blender.org
mtllib Mesh_33.mtl
o Mesh_33
v 1.959245 0.773380 -3.993497
v 1.988371 0.752618 -3.973113
v 1.959662 0.749655 -3.987050
v 1.987912 0.778720 -3.980205
v 1.958853 0.795671 -4.003951
v 1.987481 0.803245 -3.991706
v 1.958190 0.833314 -4.035357
v 1.986752 0.844659 -4.026260
v 1.987090 0.825467 -4.007198
v 1.958497 0.815869 -4.018032
v 1.957943 0.847345 -4.055548
v 1.986480 0.860097 -4.048474
v 1.986280 0.871492 -4.073051
v 1.957761 0.857702 -4.077888
v 1.957649 0.864125 -4.101659
v 1.986113 0.881010 -4.126146
v 1.986156 0.878559 -4.099205
v 1.957610 0.866353 -4.126146
v 1.957649 0.864125 -4.150634
v 1.986156 0.878559 -4.153088
v 1.957762 0.857702 -4.174406
v 1.986281 0.871492 -4.179241
v 1.986482 0.860097 -4.203818
v 1.957945 0.847345 -4.196745
v 1.958192 0.833314 -4.216936
v 1.986754 0.844659 -4.226032
v 1.987092 0.825467 -4.245094
v 1.958499 0.815869 -4.234262
v 1.987483 0.803245 -4.260586
v 1.958855 0.795671 -4.248343
v 1.959247 0.773380 -4.258796
v 1.988374 0.752618 -4.279180
v 1.987915 0.778720 -4.272088
v 1.959665 0.749655 -4.265243
v 1.988849 0.725665 -4.281445
v 1.960096 0.725156 -4.267301
v 1.960528 0.700634 -4.265102
v 1.989324 0.698686 -4.279026
v 1.960947 0.676840 -4.258780
v 1.961339 0.654522 -4.248466
v 1.989784 0.672507 -4.272070
v 1.990216 0.647953 -4.260723
v 1.962247 0.602896 -4.196703
v 1.991417 0.579638 -4.179294
v 1.991215 0.591154 -4.203773
v 1.962431 0.592429 -4.174454
v 1.961998 0.617061 -4.216844
v 1.990941 0.606738 -4.225932
v 1.961692 0.634433 -4.234293
v 1.990605 0.625851 -4.245129
v 1.991539 0.572728 -4.153140
v 1.962541 0.586148 -4.150681
v 1.991579 0.570425 -4.126146
v 1.962578 0.584055 -4.126146
v 1.962541 0.586148 -4.101611
v 1.962430 0.592429 -4.077839
v 1.991538 0.572728 -4.099153
v 1.991416 0.579638 -4.072999
v 1.962246 0.602896 -4.055590
v 1.991214 0.591154 -4.048520
v 1.961996 0.617061 -4.035450
v 1.990939 0.606738 -4.026361
v 1.990214 0.647953 -3.991571
v 1.961690 0.634433 -4.018001
v 1.961337 0.654522 -4.003828
v 1.990602 0.625851 -4.007164
v 1.989781 0.672507 -3.980223
v 1.960944 0.676840 -3.993514
v 1.989321 0.698686 -3.973267
v 1.960525 0.700634 -3.987191
v 1.988846 0.725665 -3.970848
v 1.960093 0.725156 -3.984993
v 1.994555 0.780924 -3.974470
v 1.995034 0.753796 -3.967099
v 1.994107 0.806412 -3.986423
v 1.993701 0.829507 -4.002523
v 1.993350 0.849454 -4.022335
v 1.993068 0.865498 -4.045422
v 1.992860 0.877341 -4.070965
v 1.992686 0.887232 -4.126146
v 1.992731 0.884685 -4.098146
v 1.992731 0.884685 -4.154146
v 1.992861 0.877341 -4.181327
v 1.993352 0.849454 -4.229958
v 1.993069 0.865498 -4.206871
v 1.993703 0.829507 -4.249768
v 1.994110 0.806412 -4.265869
v 1.995037 0.753796 -4.285193
v 1.994558 0.780924 -4.277822
v 1.995529 0.725783 -4.287547
v 1.996022 0.697744 -4.285033
v 1.996501 0.670536 -4.277804
v 1.996950 0.645018 -4.266010
v 1.997988 0.585987 -4.206822
v 1.998198 0.574019 -4.181383
v 1.997703 0.602184 -4.229852
v 1.997354 0.622047 -4.249804
v 1.998324 0.566837 -4.154200
v 1.998366 0.564444 -4.126146
v 1.998324 0.566837 -4.098092
v 1.998197 0.574019 -4.070909
v 1.997986 0.585987 -4.045469
v 1.997701 0.602183 -4.022440
v 1.997351 0.622047 -4.002488
v 1.996947 0.645018 -3.986282
v 1.996498 0.670536 -3.974488
v 1.996019 0.697744 -3.967259
v 1.995526 0.725783 -3.964746
vt 0.529383 -0.595623
vt 0.543921 -0.580452
vt 0.533980 -0.578699
vt 0.538863 -0.599071
vt 0.521927 -0.611524
vt 0.530660 -0.616565
vt 0.499527 -0.638375
vt 0.506015 -0.646107
vt 0.519611 -0.632417
vt 0.511884 -0.625931
vt 0.485127 -0.648384
vt 0.490172 -0.657119
vt 0.472643 -0.665247
vt 0.469194 -0.655772
vt 0.452240 -0.660354
vt 0.434775 -0.672037
vt 0.453990 -0.670288
vt 0.434775 -0.661943
vt 0.417310 -0.660354
vt 0.415560 -0.670288
vt 0.400356 -0.655772
vt 0.396907 -0.665247
vt 0.379378 -0.657119
vt 0.384423 -0.648384
vt 0.370023 -0.638375
vt 0.363535 -0.646107
vt 0.349939 -0.632416
vt 0.357665 -0.625931
vt 0.338890 -0.616565
vt 0.347623 -0.611523
vt 0.340167 -0.595623
vt 0.325629 -0.580452
vt 0.330687 -0.599071
vt 0.335570 -0.578699
vt 0.324014 -0.561225
vt 0.334102 -0.561223
vt 0.335669 -0.543731
vt 0.325739 -0.541980
vt 0.340179 -0.526758
vt 0.347535 -0.510838
vt 0.330700 -0.523306
vt 0.338793 -0.505791
vt 0.384453 -0.474012
vt 0.396869 -0.457061
vt 0.379411 -0.465275
vt 0.400321 -0.466546
vt 0.370088 -0.484116
vt 0.363606 -0.476392
vt 0.357643 -0.496508
vt 0.349915 -0.490025
vt 0.415523 -0.452132
vt 0.417276 -0.462066
vt 0.434775 -0.450489
vt 0.434775 -0.460572
vt 0.452274 -0.462066
vt 0.469229 -0.466546
vt 0.454027 -0.452132
vt 0.472681 -0.457061
vt 0.485097 -0.474012
vt 0.490139 -0.465275
vt 0.499461 -0.484116
vt 0.505943 -0.476392
vt 0.530756 -0.505791
vt 0.511906 -0.496508
vt 0.522014 -0.510838
vt 0.519635 -0.490025
vt 0.538850 -0.523306
vt 0.529371 -0.526758
vt 0.543811 -0.541980
vt 0.533880 -0.543731
vt 0.545536 -0.561225
vt 0.535448 -0.561223
vt 0.542953 -0.600559
vt 0.548210 -0.581208
vt 0.534427 -0.618741
vt 0.522945 -0.635215
vt 0.508815 -0.649443
vt 0.492349 -0.660888
vt 0.474131 -0.669336
vt 0.434775 -0.676392
vt 0.454745 -0.674574
vt 0.414805 -0.674574
vt 0.395419 -0.669336
vt 0.360735 -0.649443
vt 0.377201 -0.660888
vt 0.346606 -0.635215
vt 0.335123 -0.618741
vt 0.321340 -0.581208
vt 0.326597 -0.600559
vt 0.319662 -0.561226
vt 0.321454 -0.541225
vt 0.326610 -0.521817
vt 0.335022 -0.503614
vt 0.377235 -0.461506
vt 0.395379 -0.452968
vt 0.360810 -0.473059
vt 0.346580 -0.487228
vt 0.414767 -0.447846
vt 0.434775 -0.446138
vt 0.454783 -0.447846
vt 0.474171 -0.452968
vt 0.492315 -0.461506
vt 0.508740 -0.473059
vt 0.522970 -0.487228
vt 0.534528 -0.503614
vt 0.542939 -0.521817
vt 0.548096 -0.541225
vt 0.549888 -0.561226
vn 0.4467 -0.3015 -0.8423
vn 0.5700 -0.1330 -0.8108
vn 0.4442 -0.1480 -0.8836
vn 0.5721 -0.2738 -0.7731
vn 0.4490 -0.4409 -0.7772
vn 0.5741 -0.4018 -0.7134
vn 0.4536 -0.6794 -0.5767
vn 0.5786 -0.6206 -0.5292
vn 0.5764 -0.5176 -0.6324
vn 0.4514 -0.5670 -0.6891
vn 0.4550 -0.7705 -0.4464
vn 0.5796 -0.7043 -0.4098
vn 0.5805 -0.7640 -0.2817
vn 0.4560 -0.8354 -0.3069
vn 0.4568 -0.8753 -0.1584
vn 0.5819 -0.8132 0.0000
vn 0.5813 -0.8006 -0.1453
vn 0.4573 -0.8893 0.0000
vn 0.4568 -0.8753 0.1584
vn 0.5813 -0.8006 0.1453
vn 0.4560 -0.8354 0.3069
vn 0.5805 -0.7640 0.2818
vn 0.5796 -0.7043 0.4098
vn 0.4550 -0.7705 0.4464
vn 0.4536 -0.6794 0.5767
vn 0.5786 -0.6206 0.5292
vn 0.5763 -0.5176 0.6324
vn 0.4514 -0.5670 0.6891
vn 0.5741 -0.4018 0.7134
vn 0.4490 -0.4409 0.7772
vn 0.4467 -0.3015 0.8423
vn 0.5700 -0.1330 0.8108
vn 0.5721 -0.2738 0.7731
vn 0.4442 -0.1480 0.8836
vn 0.5670 0.0123 0.8236
vn 0.4412 0.0103 0.8973
vn 0.4384 0.1636 0.8838
vn 0.5644 0.1530 0.8112
vn 0.4359 0.3122 0.8441
vn 0.4336 0.4563 0.7770
vn 0.5622 0.2894 0.7747
vn 0.5602 0.4216 0.7130
vn 0.4276 0.7835 0.4509
vn 0.5538 0.7836 0.2816
vn 0.5545 0.7220 0.4138
vn 0.4267 0.8508 0.3069
vn 0.4290 0.6951 0.5768
vn 0.5557 0.6409 0.5295
vn 0.4311 0.5864 0.6857
vn 0.5577 0.5411 0.6294
vn 0.5528 0.8214 0.1407
vn 0.4257 0.8918 0.1533
vn 0.5523 0.8336 0.0000
vn 0.4253 0.9050 0.0000
vn 0.4257 0.8918 -0.1533
vn 0.4267 0.8508 -0.3069
vn 0.5528 0.8214 -0.1407
vn 0.5539 0.7835 -0.2816
vn 0.4276 0.7835 -0.4509
vn 0.5546 0.7220 -0.4138
vn 0.4290 0.6951 -0.5768
vn 0.5558 0.6409 -0.5295
vn 0.5603 0.4216 -0.7130
vn 0.4311 0.5864 -0.6857
vn 0.4336 0.4563 -0.7770
vn 0.5577 0.5411 -0.6294
vn 0.5622 0.2895 -0.7747
vn 0.4359 0.3122 -0.8441
vn 0.5644 0.1530 -0.8112
vn 0.4384 0.1636 -0.8838
vn 0.5671 0.0123 -0.8236
vn 0.4412 0.0103 -0.8973
vn 0.6788 -0.2425 -0.6932
vn 0.6768 -0.1163 -0.7270
vn 0.6807 -0.3573 -0.6395
vn 0.6826 -0.4611 -0.5669
vn 0.6845 -0.5535 -0.4745
vn 0.6855 -0.6285 -0.3675
vn 0.6863 -0.6820 -0.2526
vn 0.6875 -0.7262 0.0000
vn 0.6871 -0.7148 -0.1302
vn 0.6871 -0.7148 0.1302
vn 0.6864 -0.6820 0.2526
vn 0.6845 -0.5535 0.4745
vn 0.6856 -0.6285 0.3675
vn 0.6826 -0.4612 0.5669
vn 0.6807 -0.3573 0.6396
vn 0.6768 -0.1163 0.7270
vn 0.6788 -0.2425 0.6931
vn 0.6742 0.0139 0.7384
vn 0.6720 0.1401 0.7272
vn 0.6699 0.2625 0.6945
vn 0.6680 0.3809 0.6393
vn 0.6630 0.6502 0.3709
vn 0.6623 0.7054 0.2525
vn 0.6642 0.5775 0.4747
vn 0.6659 0.4879 0.5644
vn 0.6615 0.7393 0.1263
vn 0.6611 0.7503 0.0000
vn 0.6615 0.7393 -0.1263
vn 0.6623 0.7054 -0.2525
vn 0.6631 0.6502 -0.3709
vn 0.6643 0.5775 -0.4747
vn 0.6659 0.4879 -0.5643
vn 0.6681 0.3808 -0.6392
vn 0.6699 0.2625 -0.6945
vn 0.6719 0.1401 -0.7272
vn 0.6743 0.0138 -0.7383
usemtl caliper_color
s 1
f 1/1/1 2/2/2 3/3/3
f 2/2/2 1/1/1 4/4/4
f 5/5/5 4/4/4 1/1/1
f 4/4/4 5/5/5 6/6/6
f 7/7/7 8/8/8 9/9/9
f 7/7/7 9/9/9 10/10/10
f 10/10/10 9/9/9 6/6/6
f 10/10/10 6/6/6 5/5/5
f 11/11/11 12/12/12 7/7/7
f 8/8/8 7/7/7 12/12/12
f 12/12/12 11/11/11 13/13/13
f 11/11/11 14/14/14 13/13/13
f 15/15/15 16/16/16 17/17/17
f 16/16/16 15/15/15 18/18/18
f 14/14/14 17/17/17 13/13/13
f 17/17/17 14/14/14 15/15/15
f 16/16/16 19/19/19 20/20/20
f 19/19/19 16/16/16 18/18/18
f 20/20/20 21/21/21 22/22/22
f 21/21/21 20/20/20 19/19/19
f 23/23/23 24/24/24 25/25/25
f 23/23/23 25/25/25 26/26/26
f 22/22/22 21/21/21 24/24/24
f 22/22/22 24/24/24 23/23/23
f 25/25/25 27/27/27 26/26/26
f 27/27/27 25/25/25 28/28/28
f 28/28/28 29/29/29 27/27/27
f 29/29/29 28/28/28 30/30/30
f 31/31/31 32/32/32 33/33/33
f 32/32/32 31/31/31 34/34/34
f 30/30/30 33/33/33 29/29/29
f 33/33/33 30/30/30 31/31/31
f 34/34/34 35/35/35 32/32/32
f 35/35/35 34/34/34 36/36/36
f 37/37/37 35/35/35 36/36/36
f 35/35/35 37/37/37 38/38/38
f 39/39/39 40/40/40 41/41/41
f 41/41/41 40/40/40 42/42/42
f 37/37/37 39/39/39 38/38/38
f 38/38/38 39/39/39 41/41/41
f 43/43/43 44/44/44 45/45/45
f 44/44/44 43/43/43 46/46/46
f 47/47/47 45/45/45 48/48/48
f 45/45/45 47/47/47 43/43/43
f 42/42/42 49/49/49 50/50/50
f 49/49/49 42/42/42 40/40/40
f 47/47/47 48/48/48 49/49/49
f 50/50/50 49/49/49 48/48/48
f 46/46/46 51/51/51 44/44/44
f 51/51/51 46/46/46 52/52/52
f 52/52/52 53/53/53 51/51/51
f 53/53/53 52/52/52 54/54/54
f 55/55/55 56/56/56 57/57/57
f 57/57/57 56/56/56 58/58/58
f 55/55/55 53/53/53 54/54/54
f 53/53/53 55/55/55 57/57/57
f 56/56/56 59/59/59 58/58/58
f 58/58/58 59/59/59 60/60/60
f 60/60/60 59/59/59 61/61/61
f 60/60/60 61/61/61 62/62/62
f 63/63/63 64/64/64 65/65/65
f 64/64/64 63/63/63 66/66/66
f 62/62/62 61/61/61 64/64/64
f 62/62/62 64/64/64 66/66/66
f 67/67/67 65/65/65 68/68/68
f 65/65/65 67/67/67 63/63/63
f 69/69/69 68/68/68 70/70/70
f 68/68/68 69/69/69 67/67/67
f 2/2/2 71/71/71 3/3/3
f 3/3/3 71/71/71 72/72/72
f 71/71/71 70/70/70 72/72/72
f 70/70/70 71/71/71 69/69/69
f 73/73/73 74/74/74 4/4/4
f 4/4/4 74/74/74 2/2/2
f 4/4/4 75/75/75 73/73/73
f 75/75/75 4/4/4 6/6/6
f 8/8/8 76/76/76 9/9/9
f 76/76/76 8/8/8 77/77/77
f 9/9/9 75/75/75 6/6/6
f 75/75/75 9/9/9 76/76/76
f 8/8/8 78/78/78 77/77/77
f 78/78/78 8/8/8 12/12/12
f 12/12/12 79/79/79 78/78/78
f 79/79/79 12/12/12 13/13/13
f 17/17/17 80/80/80 81/81/81
f 80/80/80 17/17/17 16/16/16
f 13/13/13 81/81/81 79/79/79
f 81/81/81 13/13/13 17/17/17
f 16/16/16 20/20/20 80/80/80
f 80/80/80 20/20/20 82/82/82
f 20/20/20 22/22/22 82/82/82
f 82/82/82 22/22/22 83/83/83
f 84/84/84 85/85/85 26/26/26
f 26/26/26 85/85/85 23/23/23
f 85/85/85 83/83/83 23/23/23
f 83/83/83 22/22/22 23/23/23
f 86/86/86 26/26/26 27/27/27
f 26/26/26 86/86/86 84/84/84
f 27/27/27 87/87/87 86/86/86
f 87/87/87 27/27/27 29/29/29
f 33/33/33 88/88/88 89/89/89
f 88/88/88 33/33/33 32/32/32
f 33/33/33 87/87/87 29/29/29
f 87/87/87 33/33/33 89/89/89
f 32/32/32 90/90/90 88/88/88
f 90/90/90 32/32/32 35/35/35
f 38/38/38 90/90/90 35/35/35
f 90/90/90 38/38/38 91/91/91
f 41/41/41 42/42/42 92/92/92
f 93/93/93 92/92/92 42/42/42
f 38/38/38 41/41/41 91/91/91
f 91/91/91 41/41/41 92/92/92
f 44/44/44 94/94/94 45/45/45
f 94/94/94 44/44/44 95/95/95
f 45/45/45 96/96/96 48/48/48
f 96/96/96 45/45/45 94/94/94
f 42/42/42 97/97/97 93/93/93
f 97/97/97 42/42/42 50/50/50
f 50/50/50 96/96/96 97/97/97
f 96/96/96 50/50/50 48/48/48
f 44/44/44 98/98/98 95/95/95
f 98/98/98 44/44/44 51/51/51
f 51/51/51 99/99/99 98/98/98
f 99/99/99 51/51/51 53/53/53
f 57/57/57 58/58/58 100/100/100
f 100/100/100 58/58/58 101/101/101
f 53/53/53 57/57/57 99/99/99
f 99/99/99 57/57/57 100/100/100
f 58/58/58 102/102/102 101/101/101
f 102/102/102 58/58/58 60/60/60
f 60/60/60 103/103/103 102/102/102
f 103/103/103 60/60/60 62/62/62
f 104/104/104 63/63/63 105/105/105
f 63/63/63 104/104/104 66/66/66
f 103/103/103 66/66/66 104/104/104
f 66/66/66 103/103/103 62/62/62
f 63/63/63 106/106/106 105/105/105
f 106/106/106 63/63/63 67/67/67
f 107/107/107 67/67/67 69/69/69
f 67/67/67 107/107/107 106/106/106
f 74/74/74 108/108/108 2/2/2
f 2/2/2 108/108/108 71/71/71
f 108/108/108 69/69/69 71/71/71
f 69/69/69 108/108/108 107/107/107
