# Blender v3.5.1 OBJ File: 'f1.blend'
# www.blender.org
mtllib Mesh_78.mtl
o Mesh_78
v 0.056724 1.299238 1.018760
v 0.041990 1.302383 1.018760
v 0.042067 1.302746 1.016657
v 0.056802 1.299601 1.016657
v 0.056501 1.298193 1.020611
v 0.041767 1.301338 1.020611
v 0.056160 1.296593 1.021984
v 0.041425 1.299738 1.021984
v 0.041006 1.297774 1.022714
v 0.055740 1.294629 1.022714
v 0.055295 1.292540 1.022714
v 0.040560 1.295685 1.022714
v 0.040141 1.293722 1.021984
v 0.054875 1.290577 1.021984
v 0.054534 1.288976 1.020611
v 0.039800 1.292121 1.020611
v 0.054311 1.287932 1.018760
v 0.039577 1.291077 1.018760
v 0.054233 1.287569 1.016657
v 0.039499 1.290714 1.016657
v 0.039577 1.291077 1.014553
v 0.054311 1.287932 1.014553
v 0.039800 1.292121 1.012702
v 0.054534 1.288976 1.012702
v 0.040141 1.293722 1.011329
v 0.054875 1.290577 1.011329
v 0.055295 1.292540 1.010599
v 0.040560 1.295685 1.010599
v 0.041006 1.297774 1.010599
v 0.055740 1.294629 1.010599
v 0.056160 1.296593 1.011329
v 0.041425 1.299738 1.011329
v 0.056501 1.298193 1.012702
v 0.041767 1.301338 1.012702
v 0.041990 1.302383 1.014553
v 0.056724 1.299238 1.014553
v 0.042067 1.302746 1.016657
v 0.056802 1.299601 1.016657
v -0.056724 1.299238 1.018760
v -0.042067 1.302746 1.016657
v -0.041990 1.302383 1.018760
v -0.056802 1.299601 1.016657
v -0.056501 1.298193 1.020611
v -0.041767 1.301338 1.020611
v -0.041425 1.299738 1.021984
v -0.056160 1.296593 1.021984
v -0.041006 1.297774 1.022714
v -0.055740 1.294629 1.022714
v -0.040560 1.295685 1.022714
v -0.055294 1.292540 1.022714
v -0.040141 1.293722 1.021984
v -0.054875 1.290577 1.021984
v -0.039800 1.292121 1.020611
v -0.054534 1.288976 1.020611
v -0.054311 1.287932 1.018760
v -0.039577 1.291077 1.018760
v -0.054233 1.287569 1.016657
v -0.039499 1.290714 1.016657
v -0.039577 1.291077 1.014553
v -0.054311 1.287932 1.014553
v -0.039800 1.292121 1.012702
v -0.054534 1.288976 1.012702
v -0.054875 1.290577 1.011329
v -0.040141 1.293722 1.011329
v -0.040560 1.295685 1.010599
v -0.055294 1.292540 1.010599
v -0.055740 1.294629 1.010599
v -0.041006 1.297774 1.010599
v -0.041425 1.299738 1.011329
v -0.056160 1.296593 1.011329
v -0.041767 1.301338 1.012702
v -0.056501 1.298193 1.012702
v -0.041990 1.302383 1.014553
v -0.056724 1.299238 1.014553
v -0.042067 1.302746 1.016657
v -0.056802 1.299601 1.016657
v 0.056721 1.382968 0.983703
v 0.060204 1.383582 1.035206
v 0.060204 1.383582 0.983703
v 0.056721 1.382968 1.035206
v 0.053659 1.381199 1.035206
v 0.053659 1.381199 0.983703
v 0.051386 1.378490 0.983703
v 0.051386 1.378490 1.035206
v 0.050176 1.375167 0.983703
v 0.050176 1.375167 1.035206
v 0.050176 1.371631 0.983703
v 0.050176 1.371631 1.035206
v 0.051386 1.368308 0.983703
v 0.051386 1.368308 1.035206
v 0.053659 1.365599 0.983703
v 0.053659 1.365599 1.035206
v 0.056721 1.363831 0.983703
v 0.056721 1.363831 1.035206
v 0.060204 1.363217 1.035206
v 0.060204 1.363217 0.983703
v 0.063687 1.363831 1.035206
v 0.063687 1.363831 0.983703
v 0.066749 1.365599 0.983703
v 0.066749 1.365599 1.035206
v 0.069022 1.368308 0.983703
v 0.069022 1.368308 1.035206
v 0.070232 1.371631 1.035206
v 0.070232 1.371631 0.983703
v 0.070232 1.375167 1.035206
v 0.070232 1.375167 0.983703
v 0.069022 1.378490 1.035206
v 0.069022 1.378490 0.983703
v 0.066749 1.381199 1.035206
v 0.066749 1.381199 0.983703
v 0.063687 1.382968 0.983703
v 0.063687 1.382968 1.035206
v 0.060204 1.383582 1.035206
v 0.060204 1.383582 0.983703
v -0.060204 1.383582 0.983703
v -0.060204 1.383582 1.035206
v -0.056721 1.382968 0.983703
v -0.056721 1.382968 1.035206
v -0.053659 1.381199 0.983703
v -0.053659 1.381199 1.035206
v -0.051386 1.378490 1.035206
v -0.051386 1.378490 0.983703
v -0.050176 1.375167 1.035206
v -0.050176 1.375167 0.983703
v -0.050176 1.371631 1.035206
v -0.050176 1.371631 0.983703
v -0.051386 1.368308 1.035206
v -0.051386 1.368308 0.983703
v -0.053659 1.365599 1.035206
v -0.053659 1.365599 0.983703
v -0.056721 1.363831 1.035206
v -0.056721 1.363831 0.983703
v -0.060204 1.363217 1.035206
v -0.060204 1.363217 0.983703
v -0.063687 1.363831 1.035206
v -0.063687 1.363831 0.983703
v -0.066749 1.365599 1.035206
v -0.066749 1.365599 0.983703
v -0.069022 1.368308 1.035206
v -0.069022 1.368308 0.983703
v -0.070232 1.371631 1.035206
v -0.070232 1.371631 0.983703
v -0.070232 1.375167 0.983703
v -0.070232 1.375167 1.035206
v -0.069022 1.378490 1.035206
v -0.069022 1.378490 0.983703
v -0.066749 1.381199 1.035206
v -0.066749 1.381199 0.983703
v -0.063687 1.382968 1.035206
v -0.063687 1.382968 0.983703
v -0.060204 1.383582 0.983703
v -0.060204 1.383582 1.035206
vt 0.750000 -0.055556
vt 0.500000 -0.055556
vt 0.500000 0.000000
vt 0.750000 0.000000
vt 0.750000 -0.111111
vt 0.500000 -0.111111
vt 0.750000 -0.166667
vt 0.500000 -0.166667
vt 0.500000 -0.222222
vt 0.750000 -0.222222
vt 0.750000 -0.277778
vt 0.500000 -0.277778
vt 0.500000 -0.333333
vt 0.750000 -0.333333
vt 0.750000 -0.388889
vt 0.500000 -0.388889
vt 0.750000 -0.444444
vt 0.500000 -0.444444
vt 0.750000 -0.500000
vt 0.500000 -0.500000
vt 0.500000 -0.555556
vt 0.750000 -0.555556
vt 0.500000 -0.611111
vt 0.750000 -0.611111
vt 0.500000 -0.666667
vt 0.750000 -0.666667
vt 0.750000 -0.722222
vt 0.500000 -0.722222
vt 0.500000 -0.777778
vt 0.750000 -0.777778
vt 0.750000 -0.833333
vt 0.500000 -0.833333
vt 0.750000 -0.888889
vt 0.500000 -0.888889
vt 0.500000 -0.944444
vt 0.750000 -0.944444
vt 0.500000 -1.000000
vt 0.750000 -1.000000
vt 0.750000 -0.055556
vt 0.500000 0.000000
vt 0.500000 -0.055556
vt 0.750000 0.000000
vt 0.750000 -0.111111
vt 0.500000 -0.111111
vt 0.500000 -0.166667
vt 0.750000 -0.166667
vt 0.500000 -0.222222
vt 0.750000 -0.222222
vt 0.500000 -0.277778
vt 0.750000 -0.277778
vt 0.500000 -0.333333
vt 0.750000 -0.333333
vt 0.500000 -0.388889
vt 0.750000 -0.388889
vt 0.750000 -0.444444
vt 0.500000 -0.444444
vt 0.750000 -0.500000
vt 0.500000 -0.500000
vt 0.500000 -0.555556
vt 0.750000 -0.555556
vt 0.500000 -0.611111
vt 0.750000 -0.611111
vt 0.750000 -0.666667
vt 0.500000 -0.666667
vt 0.500000 -0.722222
vt 0.750000 -0.722222
vt 0.750000 -0.777778
vt 0.500000 -0.777778
vt 0.500000 -0.833333
vt 0.750000 -0.833333
vt 0.500000 -0.888889
vt 0.750000 -0.888889
vt 0.500000 -0.944444
vt 0.750000 -0.944444
vt 0.500000 -1.000000
vt 0.750000 -1.000000
vt 0.750000 -0.055556
vt 0.500000 0.000000
vt 0.750000 0.000000
vt 0.500000 -0.055556
vt 0.500000 -0.111111
vt 0.750000 -0.111111
vt 0.750000 -0.166667
vt 0.500000 -0.166667
vt 0.750000 -0.222222
vt 0.500000 -0.222222
vt 0.750000 -0.277778
vt 0.500000 -0.277778
vt 0.750000 -0.333333
vt 0.500000 -0.333333
vt 0.750000 -0.388889
vt 0.500000 -0.388889
vt 0.750000 -0.444444
vt 0.500000 -0.444444
vt 0.500000 -0.500000
vt 0.750000 -0.500000
vt 0.500000 -0.555556
vt 0.750000 -0.555556
vt 0.750000 -0.611111
vt 0.500000 -0.611111
vt 0.750000 -0.666667
vt 0.500000 -0.666667
vt 0.500000 -0.722222
vt 0.750000 -0.722222
vt 0.500000 -0.777778
vt 0.750000 -0.777778
vt 0.500000 -0.833333
vt 0.750000 -0.833333
vt 0.500000 -0.888889
vt 0.750000 -0.888889
vt 0.750000 -0.944444
vt 0.500000 -0.944444
vt 0.500000 -1.000000
vt 0.750000 -1.000000
vt 0.750000 0.000000
vt 0.500000 0.000000
vt 0.750000 -0.055556
vt 0.500000 -0.055556
vt 0.750000 -0.111111
vt 0.500000 -0.111111
vt 0.500000 -0.166667
vt 0.750000 -0.166667
vt 0.500000 -0.222222
vt 0.750000 -0.222222
vt 0.500000 -0.277778
vt 0.750000 -0.277778
vt 0.500000 -0.333333
vt 0.750000 -0.333333
vt 0.500000 -0.388889
vt 0.750000 -0.388889
vt 0.500000 -0.444444
vt 0.750000 -0.444444
vt 0.500000 -0.500000
vt 0.750000 -0.500000
vt 0.500000 -0.555556
vt 0.750000 -0.555556
vt 0.500000 -0.611111
vt 0.750000 -0.611111
vt 0.500000 -0.666667
vt 0.750000 -0.666667
vt 0.500000 -0.722222
vt 0.750000 -0.722222
vt 0.750000 -0.777778
vt 0.500000 -0.777778
vt 0.500000 -0.833333
vt 0.750000 -0.833333
vt 0.500000 -0.888889
vt 0.750000 -0.888889
vt 0.500000 -0.944444
vt 0.750000 -0.944444
vt 0.750000 -1.000000
vt 0.500000 -1.000000
vn -0.1962 -0.9190 -0.3421
vn -0.1961 -0.9190 -0.3420
vn -0.2087 -0.9780 0.0000
vn -0.2088 -0.9780 0.0000
vn -0.1599 -0.7491 -0.6428
vn -0.1599 -0.7492 -0.6428
vn -0.1044 -0.4890 -0.8660
vn -0.0362 -0.1698 -0.9848
vn -0.0363 -0.1698 -0.9848
vn 0.0362 0.1698 -0.9848
vn 0.1044 0.4890 -0.8660
vn 0.1599 0.7491 -0.6428
vn 0.1599 0.7492 -0.6428
vn 0.1962 0.9190 -0.3420
vn 0.2087 0.9780 0.0001
vn 0.2088 0.9780 -0.0000
vn 0.1962 0.9190 0.3420
vn 0.1962 0.9190 0.3421
vn 0.1599 0.7492 0.6427
vn 0.1599 0.7491 0.6428
vn 0.1044 0.4890 0.8660
vn 0.0362 0.1698 0.9848
vn -0.0362 -0.1698 0.9848
vn -0.0363 -0.1698 0.9848
vn -0.1044 -0.4890 0.8660
vn -0.1599 -0.7492 0.6428
vn -0.1962 -0.9190 0.3420
vn 0.1962 -0.9190 -0.3421
vn 0.2087 -0.9780 -0.0000
vn 0.1961 -0.9190 -0.3420
vn 0.2088 -0.9780 -0.0000
vn 0.1599 -0.7491 -0.6428
vn 0.1599 -0.7492 -0.6427
vn 0.1044 -0.4890 -0.8660
vn 0.0363 -0.1698 -0.9848
vn 0.0362 -0.1698 -0.9848
vn -0.0362 0.1698 -0.9848
vn -0.1044 0.4890 -0.8660
vn -0.1599 0.7491 -0.6428
vn -0.1599 0.7492 -0.6428
vn -0.1962 0.9190 -0.3421
vn -0.1962 0.9190 -0.3420
vn -0.2087 0.9780 -0.0000
vn -0.2088 0.9780 -0.0000
vn -0.1962 0.9190 0.3420
vn -0.1599 0.7491 0.6428
vn -0.1599 0.7492 0.6427
vn -0.1044 0.4890 0.8660
vn -0.0362 0.1698 0.9848
vn 0.0362 -0.1698 0.9848
vn 0.0363 -0.1698 0.9848
vn 0.1044 -0.4890 0.8660
vn 0.1599 -0.7492 0.6428
vn 0.1962 -0.9190 0.3420
vn 0.1962 -0.9190 0.3421
vn -0.3420 0.9397 -0.0000
vn 0.0000 1.0000 -0.0000
vn -0.6428 0.7661 0.0000
vn -0.8660 0.5000 0.0000
vn -0.9848 0.1737 -0.0000
vn -0.9848 0.1736 -0.0000
vn -0.9848 -0.1737 -0.0000
vn -0.9848 -0.1736 0.0000
vn -0.8660 -0.5000 0.0000
vn -0.6428 -0.7660 0.0000
vn -0.3420 -0.9397 0.0000
vn -0.0000 -1.0000 0.0000
vn 0.3420 -0.9397 0.0000
vn 0.6428 -0.7660 0.0000
vn 0.8660 -0.5000 0.0000
vn 0.9848 -0.1736 0.0000
vn 0.9848 -0.1737 0.0000
vn 0.9848 0.1737 0.0000
vn 0.8660 0.5000 0.0000
vn 0.6428 0.7660 0.0000
vn 0.6428 0.7661 0.0000
vn 0.3420 0.9397 0.0000
vn 0.9848 0.1736 0.0000
vn 0.0000 1.0000 -0.0001
usemtl plastic_interior
s 1
f 1/1/1 2/2/2 3/3/3
f 1/1/1 3/3/3 4/4/4
f 5/5/5 6/6/6 2/2/2
f 5/5/5 2/2/2 1/1/1
f 7/7/7 6/6/6 5/5/5
f 6/6/6 7/7/7 8/8/7
f 7/7/7 9/9/8 8/8/7
f 9/9/8 7/7/7 10/10/9
f 11/11/10 9/9/8 10/10/9
f 9/9/8 11/11/10 12/12/10
f 11/11/10 13/13/11 12/12/10
f 13/13/11 11/11/10 14/14/11
f 15/15/12 13/13/11 14/14/11
f 13/13/11 15/15/12 16/16/13
f 17/17/14 18/18/14 16/16/13
f 17/17/14 16/16/13 15/15/12
f 19/19/15 20/20/16 18/18/14
f 19/19/15 18/18/14 17/17/14
f 21/21/17 19/19/15 22/22/18
f 19/19/15 21/21/17 20/20/16
f 23/23/19 22/22/18 24/24/20
f 22/22/18 23/23/19 21/21/17
f 25/25/21 24/24/20 26/26/21
f 24/24/20 25/25/21 23/23/19
f 27/27/22 28/28/22 25/25/21
f 27/27/22 25/25/21 26/26/21
f 29/29/23 27/27/22 30/30/24
f 27/27/22 29/29/23 28/28/22
f 31/31/25 32/32/25 29/29/23
f 31/31/25 29/29/23 30/30/24
f 33/33/26 34/34/26 32/32/25
f 33/33/26 32/32/25 31/31/25
f 35/35/27 33/33/26 36/36/27
f 33/33/26 35/35/27 34/34/26
f 37/37/3 36/36/27 38/38/4
f 36/36/27 37/37/3 35/35/27
f 39/39/28 40/40/29 41/41/30
f 40/40/29 39/39/28 42/42/31
f 43/43/32 41/41/30 44/44/33
f 41/41/30 43/43/32 39/39/28
f 45/45/34 43/43/32 44/44/33
f 43/43/32 45/45/34 46/46/34
f 47/47/35 48/48/36 45/45/34
f 46/46/34 45/45/34 48/48/36
f 49/49/37 50/50/37 47/47/35
f 48/48/36 47/47/35 50/50/37
f 51/51/38 50/50/37 49/49/37
f 50/50/37 51/51/38 52/52/38
f 53/53/39 52/52/38 51/51/38
f 52/52/38 53/53/39 54/54/40
f 55/55/41 53/53/39 56/56/42
f 53/53/39 55/55/41 54/54/40
f 57/57/43 56/56/42 58/58/44
f 56/56/42 57/57/43 55/55/41
f 59/59/45 57/57/43 58/58/44
f 57/57/43 59/59/45 60/60/45
f 61/61/46 60/60/45 59/59/45
f 60/60/45 61/61/46 62/62/47
f 63/63/48 61/61/46 64/64/48
f 62/62/47 61/61/46 63/63/48
f 65/65/49 63/63/48 64/64/48
f 63/63/48 65/65/49 66/66/49
f 67/67/50 65/65/49 68/68/51
f 66/66/49 65/65/49 67/67/50
f 69/69/52 67/67/50 68/68/51
f 67/67/50 69/69/52 70/70/52
f 71/71/53 70/70/52 69/69/52
f 70/70/52 71/71/53 72/72/53
f 73/73/54 72/72/53 71/71/53
f 72/72/53 73/73/54 74/74/55
f 75/75/29 74/74/55 73/73/54
f 74/74/55 75/75/29 76/76/31
f 77/77/56 78/78/57 79/79/57
f 78/78/57 77/77/56 80/80/56
f 77/77/56 81/81/58 80/80/56
f 81/81/58 77/77/56 82/82/58
f 81/81/58 82/82/58 83/83/59
f 81/81/58 83/83/59 84/84/59
f 84/84/59 83/83/59 85/85/60
f 84/84/59 85/85/60 86/86/61
f 86/86/61 85/85/60 87/87/62
f 86/86/61 87/87/62 88/88/63
f 88/88/63 87/87/62 89/89/64
f 88/88/63 89/89/64 90/90/64
f 91/91/65 90/90/64 89/89/64
f 90/90/64 91/91/65 92/92/65
f 93/93/66 94/94/66 92/92/65
f 92/92/65 91/91/65 93/93/66
f 95/95/67 93/93/66 96/96/67
f 93/93/66 95/95/67 94/94/66
f 97/97/68 96/96/67 98/98/68
f 96/96/67 97/97/68 95/95/67
f 99/99/69 100/100/69 97/97/68
f 97/97/68 98/98/68 99/99/69
f 101/101/70 102/102/70 100/100/69
f 101/101/70 100/100/69 99/99/69
f 103/103/71 101/101/70 104/104/72
f 101/101/70 103/103/71 102/102/70
f 105/105/73 104/104/72 106/106/73
f 104/104/72 105/105/73 103/103/71
f 107/107/74 106/106/73 108/108/74
f 106/106/73 107/107/74 105/105/73
f 109/109/75 108/108/74 110/110/76
f 108/108/74 109/109/75 107/107/74
f 111/111/77 109/109/75 110/110/76
f 109/109/75 111/111/77 112/112/77
f 111/111/77 113/113/57 112/112/77
f 113/113/57 111/111/77 114/114/57
f 115/115/57 116/116/57 117/117/77
f 117/117/77 116/116/57 118/118/77
f 117/117/77 118/118/77 119/119/76
f 119/119/76 118/118/77 120/120/76
f 121/121/74 122/122/74 120/120/76
f 119/119/76 120/120/76 122/122/74
f 123/123/78 124/124/78 121/121/74
f 122/122/74 121/121/74 124/124/78
f 125/125/71 126/126/71 123/123/78
f 124/124/78 123/123/78 126/126/71
f 127/127/70 128/128/70 125/125/71
f 126/126/71 125/125/71 128/128/70
f 129/129/69 130/130/69 127/127/70
f 128/128/70 127/127/70 130/130/69
f 131/131/68 130/130/69 129/129/69
f 130/130/69 131/131/68 132/132/68
f 133/133/67 132/132/68 131/131/68
f 132/132/68 133/133/67 134/134/67
f 135/135/66 134/134/67 133/133/67
f 134/134/67 135/135/66 136/136/66
f 137/137/65 138/138/65 135/135/66
f 135/135/66 138/138/65 136/136/66
f 139/139/64 138/138/65 137/137/65
f 138/138/65 139/139/64 140/140/64
f 141/141/63 140/140/64 139/139/64
f 140/140/64 141/141/63 142/142/63
f 143/143/61 141/141/63 144/144/61
f 141/141/63 143/143/61 142/142/63
f 145/145/59 143/143/61 144/144/61
f 143/143/61 145/145/59 146/146/59
f 147/147/58 146/146/59 145/145/59
f 146/146/59 147/147/58 148/148/58
f 148/148/58 149/149/56 150/150/56
f 149/149/56 148/148/58 147/147/58
f 150/150/56 149/149/56 151/151/79
f 151/151/79 149/149/56 152/152/57
