# Blender v3.5.1 OBJ File: 'f1.blend'
# www.blender.org
mtllib Mesh_157.mtl
o Mesh_157
v 0.929953 0.972682 -4.201860
v 0.930185 0.976077 -4.207256
v 0.929916 0.970916 -4.203853
v 0.930163 0.975020 -4.208782
v 0.930322 0.982184 -4.216311
v 0.930347 0.983394 -4.216031
v 0.930208 0.977168 -4.205735
v 0.930346 0.983340 -4.214501
v 0.929990 0.974468 -4.199851
v 0.987576 0.992778 -4.226591
v 0.955556 0.990935 -4.226689
v 0.955522 0.992791 -4.226818
v 0.987673 0.990955 -4.226680
v 1.088629 0.992154 -4.226300
v 1.088805 0.990374 -4.226665
v 0.987654 0.991912 -4.224222
v 1.088629 0.992154 -4.226300
v 0.987576 0.992778 -4.226591
v 1.088713 0.991165 -4.223807
v 0.955596 0.992022 -4.224552
v 0.955522 0.992791 -4.226818
v 0.938411 0.941364 -4.142382
v 0.956935 0.940114 -4.148107
v 0.956702 0.941008 -4.140621
v 0.938396 0.940373 -4.149485
v 0.929353 0.944060 -4.148152
v 0.929313 0.942142 -4.152393
v 0.938392 0.947402 -4.145373
v 0.929353 0.944060 -4.148152
v 0.938411 0.941364 -4.142382
v 0.929446 0.948498 -4.148795
v 0.956405 0.946965 -4.143540
v 0.956702 0.941008 -4.140621
v 0.989854 0.954576 -4.178218
v 0.956778 0.954798 -4.178149
v 0.956459 0.970572 -4.205633
v 0.989170 0.970535 -4.207414
v 0.956935 0.940114 -4.148107
v 0.990254 0.939650 -4.145630
v 1.092202 0.953685 -4.178305
v 1.092908 0.938455 -4.142495
v 1.091055 0.969879 -4.209671
v 0.938015 0.974591 -4.198967
v 0.938207 0.961100 -4.172503
v 0.955966 0.974171 -4.197765
v 0.956175 0.960632 -4.170913
v 0.929705 0.960848 -4.173582
v 0.929990 0.974468 -4.199851
v 0.937758 0.988029 -4.220580
v 0.955768 0.984670 -4.214793
v 0.955596 0.992022 -4.224552
v 0.937869 0.980876 -4.211322
v 0.930208 0.977168 -4.205735
v 0.930346 0.983340 -4.214501
v 0.956004 0.982543 -4.220467
v 0.988386 0.982573 -4.221841
v 1.089853 0.982002 -4.223583
v 0.929353 0.944060 -4.148152
v 0.929649 0.958148 -4.175711
v 0.929313 0.942142 -4.152393
v 0.929592 0.955459 -4.177740
v 0.929705 0.960848 -4.173582
v 0.929446 0.948498 -4.148795
v 0.930163 0.975020 -4.208782
v 0.930322 0.982184 -4.216311
v 0.937987 0.978472 -4.215546
v 0.937687 0.986868 -4.222540
v 0.938258 0.970592 -4.204641
v 0.929916 0.970916 -4.203853
v 1.088713 0.991165 -4.223807
v 0.987654 0.991912 -4.224222
v 0.987935 0.984205 -4.213563
v 1.089133 0.983007 -4.212008
v 0.988228 0.973413 -4.195603
v 1.089545 0.971848 -4.192864
v 0.988467 0.959792 -4.168055
v 1.089822 0.958121 -4.164435
v 0.988778 0.946182 -4.140242
v 1.090234 0.944580 -4.136069
v 0.929592 0.955459 -4.177740
v 0.938373 0.954922 -4.178111
v 0.929313 0.942142 -4.152393
v 0.938396 0.940373 -4.149485
v 1.091666 0.938951 -4.133453
v 0.990254 0.939650 -4.145630
v 1.092908 0.938455 -4.142495
v 0.989576 0.940369 -4.137457
v 0.989576 0.940369 -4.137457
v 1.091666 0.938951 -4.133453
v 0.930347 0.983394 -4.216031
v 0.937686 0.988745 -4.222790
v 0.937758 0.988029 -4.220580
v 0.937686 0.988745 -4.222790
v 0.930346 0.983340 -4.214501
v 0.930347 0.983394 -4.216031
vt 32.963764 -77.639565
vt 36.015862 -77.535240
vt 33.090378 -77.207115
vt 35.927605 -77.147789
vt 33.379986 -78.055916
vt 36.098156 -77.929390
vt 39.009743 -77.555176
vt 39.661121 -77.600006
vt 38.996609 -77.263832
vt 39.675880 -77.407028
vt 40.788059 -77.716316
vt 40.870720 -77.855408
vt 39.649525 -77.796196
vt 40.762409 -77.935410
vt 39.023499 -77.849480
vt 20.938023 -13.948257
vt 25.159477 -14.280033
vt 25.169207 -14.035087
vt 20.920200 -14.188500
vt 7.597419 -13.751167
vt 7.569250 -13.985613
vt 67.537933 -47.292946
vt 80.862740 -47.632980
vt 67.533379 -47.084499
vt 80.867912 -47.852493
vt 63.310394 -47.098061
vt 63.306232 -46.898682
vt 8.120691 -64.896133
vt 10.547663 -65.494774
vt 10.540361 -64.836128
vt 8.096965 -65.519814
vt 6.898722 -65.355614
vt 6.884111 -65.728020
vt 8.067955 -42.215942
vt 6.884111 -42.682106
vt 8.087142 -43.012890
vt 6.884118 -42.096092
vt 10.446858 -42.223835
vt 10.502588 -43.009342
vt 20.531719 -18.984589
vt 24.898331 -19.046688
vt 24.984030 -16.965368
vt 20.666094 -16.879910
vt 24.837057 -20.984522
vt 20.437630 -20.953621
vt 7.019419 -18.819204
vt 6.884111 -20.827572
vt 7.215668 -16.684721
vt 7.943007 -38.628147
vt 8.005644 -40.408379
vt 10.313690 -38.633938
vt 10.378685 -40.420399
vt 6.884111 -40.465183
vt 6.884132 -38.666561
vt 7.871961 -36.854977
vt 10.258560 -37.248520
vt 10.215541 -36.278637
vt 7.906436 -37.798920
vt 6.905367 -38.309555
vt 6.906525 -37.494392
vt 25.077217 -15.386505
vt 20.802900 -15.293051
vt 7.407730 -15.087868
vt 28.467411 -16.450937
vt 28.466232 -15.504978
vt 27.444168 -15.973640
vt 27.506931 -14.866302
vt 27.386608 -17.013050
vt 28.488646 -16.993423
vt 27.789148 -36.023697
vt 14.447474 -36.204487
vt 14.505895 -37.221081
vt 27.867205 -37.099350
vt 14.574379 -38.644699
vt 27.952457 -38.571148
vt 14.643569 -40.441994
vt 28.026886 -40.382336
vt 14.722235 -42.237762
vt 28.118746 -42.168571
vt 28.488653 -19.034641
vt 27.328182 -19.081184
vt 28.488653 -20.793146
vt 27.284876 -21.001638
vt 28.372164 -64.905373
vt 14.952239 -65.449821
vt 28.506149 -65.705841
vt 14.888909 -64.728523
vt 14.843582 -43.002762
vt 28.323402 -42.907654
vt 28.466232 -15.345066
vt 27.512321 -14.618531
vt 60.954941 -47.355019
vt 60.951046 -47.160511
vt 59.969322 -47.850956
vt 59.974590 -47.716587
vn -0.9998 0.0209 -0.0000
vn -0.9998 0.0210 0.0000
vn -0.9995 0.0313 -0.0084
vn -0.9995 0.0318 -0.0084
vn -0.9994 0.0325 -0.0098
vn -0.9995 0.0299 -0.0073
vn -0.9998 0.0215 -0.0006
vn -0.9998 0.0215 -0.0005
vn -0.9993 0.0344 -0.0109
vn -0.9998 0.0219 -0.0002
vn -0.9996 0.0288 -0.0064
vn 0.0041 0.8371 -0.5471
vn -0.0763 -0.3107 -0.9474
vn -0.1406 0.7859 -0.6022
vn -0.0057 -0.2258 -0.9741
vn 0.0058 0.8440 -0.5363
vn -0.0046 -0.1782 -0.9840
vn -0.0003 0.8829 0.4696
vn 0.0059 0.8442 -0.5361
vn 0.0037 0.8810 0.4731
vn -0.0532 0.8891 0.4546
vn -0.1406 0.7857 -0.6025
vn -0.2788 -0.4585 0.8438
vn -0.0103 -0.9858 -0.1675
vn -0.0910 -0.4821 0.8714
vn -0.1229 -0.9858 -0.1143
vn -0.4934 -0.4365 0.7523
vn -0.1817 -0.9661 -0.1834
vn -0.1632 0.6572 0.7358
vn -0.4935 -0.4365 0.7523
vn -0.2206 0.6980 0.6812
vn -0.0525 0.7025 0.7098
vn -0.0910 -0.4820 0.8714
vn -0.0066 -0.8944 -0.4472
vn -0.0054 -0.8845 -0.4665
vn -0.0192 -0.8281 -0.5603
vn -0.0194 -0.8262 -0.5631
vn -0.0099 -0.9858 -0.1674
vn -0.0076 -0.9001 -0.4357
vn -0.0094 -0.9842 -0.1769
vn -0.0147 -0.8286 -0.5597
vn -0.0563 0.8851 0.4621
vn -0.0449 0.8914 0.4511
vn -0.0212 0.8773 0.4795
vn -0.0163 0.8940 0.4478
vn -0.0733 0.8891 0.4518
vn -0.0806 0.8906 0.4476
vn -0.2085 0.8899 0.4056
vn -0.0287 0.8280 0.5601
vn -0.0531 0.8891 0.4547
vn -0.0321 0.8352 0.5490
vn -0.0604 0.8735 0.4831
vn -0.1191 0.8586 0.4986
vn -0.0316 -0.6818 -0.7308
vn -0.0192 -0.6379 -0.7699
vn -0.0143 -0.6179 -0.7861
vn -0.1592 -0.7607 -0.6292
vn -0.4249 -0.4638 -0.7774
vn -0.1231 -0.7174 -0.6857
vn -0.3553 -0.3220 -0.8775
vn -0.0584 -0.8287 -0.5566
vn -0.1009 -0.8278 -0.5519
vn 0.0037 0.8811 0.4729
vn -0.0002 0.8828 0.4697
vn -0.0038 0.8350 0.5502
vn 0.0016 0.8400 0.5425
vn -0.0056 0.8780 0.4787
vn 0.0008 0.8808 0.4734
vn -0.0086 0.8975 0.4410
vn -0.0009 0.8995 0.4370
vn -0.0369 0.6984 0.7147
vn -0.0186 0.6776 0.7352
vn -0.0633 -0.8733 -0.4830
vn -0.0344 -0.8770 -0.4793
vn -0.1818 -0.9661 -0.1833
vn -0.0378 -0.6470 0.7616
vn -0.0099 -0.9859 -0.1673
vn -0.0635 -0.4939 0.8672
vn -0.0379 -0.6469 0.7617
vn -0.7101 0.6284 -0.3175
vn -0.4947 0.6801 -0.5409
vn -0.2085 0.8900 0.4056
vn -0.4947 0.6803 -0.5408
vn -0.7100 0.6285 -0.3174
usemtl carbon
s off
f 58/1/1 59/2/1 60/3/1
f 60/3/1 59/2/1 61/4/1
f 63/5/2 59/2/2 58/1/2
f 59/2/2 63/5/2 62/6/2
s 1
f 1/7/3 2/8/4 3/9/5
f 4/10/6 3/9/5 2/8/4
f 2/8/4 5/11/7 4/10/6
f 5/11/7 2/8/4 6/12/8
f 7/13/9 8/14/10 2/8/4
f 6/12/8 2/8/4 8/14/10
f 9/15/11 7/13/9 1/7/3
f 2/8/4 1/7/3 7/13/9
f 10/16/12 11/17/13 12/18/14
f 11/17/13 10/16/12 13/19/15
f 14/20/16 13/19/15 10/16/12
f 15/21/17 13/19/15 14/20/16
f 16/22/18 17/23/19 18/24/12
f 17/23/19 16/22/18 19/25/20
f 20/26/21 18/24/12 21/27/22
f 18/24/12 20/26/21 16/22/18
f 22/28/23 23/29/24 24/30/25
f 23/29/24 22/28/23 25/31/26
f 26/32/27 25/31/26 22/28/23
f 25/31/26 26/32/27 27/33/28
f 28/34/29 29/35/30 30/36/23
f 29/35/30 28/34/29 31/37/31
f 32/38/32 30/36/23 33/39/33
f 30/36/23 32/38/32 28/34/29
f 34/40/34 35/41/35 36/42/36
f 34/40/34 36/42/36 37/43/37
f 38/44/24 34/40/34 39/45/38
f 34/40/34 38/44/24 35/41/35
f 39/45/38 40/46/39 41/47/40
f 40/46/39 39/45/38 34/40/34
f 34/40/34 42/48/41 40/46/39
f 42/48/41 34/40/34 37/43/37
f 43/49/42 44/50/43 45/51/44
f 45/51/44 44/50/43 46/52/45
f 44/50/43 28/34/29 46/52/45
f 46/52/45 28/34/29 32/38/32
f 47/53/46 31/37/31 44/50/43
f 28/34/29 44/50/43 31/37/31
f 48/54/47 47/53/46 43/49/42
f 43/49/42 47/53/46 44/50/43
f 49/55/48 50/56/49 51/57/50
f 50/56/49 49/55/48 52/58/51
f 52/58/51 45/51/44 50/56/49
f 45/51/44 52/58/51 43/49/42
f 43/49/42 53/59/52 48/54/47
f 53/59/52 43/49/42 52/58/51
f 52/58/51 54/60/53 53/59/52
f 54/60/53 52/58/51 49/55/48
f 13/19/15 55/61/54 11/17/13
f 55/61/54 13/19/15 56/62/55
f 37/43/37 36/42/36 55/61/54
f 37/43/37 55/61/54 56/62/55
f 37/43/37 57/63/56 42/48/41
f 57/63/56 37/43/37 56/62/55
f 15/21/17 56/62/55 13/19/15
f 56/62/55 15/21/17 57/63/56
f 59/2/1 1/7/3 61/4/1
f 3/9/5 61/4/1 1/7/3
f 62/6/1 9/15/11 59/2/1
f 1/7/3 59/2/1 9/15/11
f 64/64/57 65/65/58 66/66/59
f 65/65/58 67/67/60 66/66/59
f 68/68/61 64/64/57 66/66/59
f 68/68/61 69/69/62 64/64/57
f 36/42/36 68/68/61 66/66/59
f 36/42/36 66/66/59 55/61/54
f 67/67/60 11/17/13 55/61/54
f 67/67/60 55/61/54 66/66/59
f 70/70/63 71/71/64 72/72/65
f 70/70/63 72/72/65 73/73/66
f 73/73/66 72/72/65 74/74/67
f 73/73/66 74/74/67 75/75/68
f 72/72/65 50/56/49 45/51/44
f 72/72/65 45/51/44 74/74/67
f 71/71/64 51/57/50 50/56/49
f 71/71/64 50/56/49 72/72/65
f 75/75/68 74/74/67 76/76/69
f 75/75/68 76/76/69 77/77/70
f 77/77/70 76/76/69 78/78/71
f 77/77/70 78/78/71 79/79/72
f 46/52/45 32/38/32 76/76/69
f 76/76/69 32/38/32 78/78/71
f 45/51/44 46/52/45 74/74/67
f 74/74/67 46/52/45 76/76/69
f 80/80/73 69/69/62 81/81/74
f 81/81/74 69/69/62 68/68/61
f 82/82/75 81/81/74 83/83/26
f 81/81/74 82/82/75 80/80/73
f 83/83/26 35/41/35 38/44/24
f 35/41/35 83/83/26 81/81/74
f 35/41/35 81/81/74 68/68/61
f 35/41/35 68/68/61 36/42/36
f 84/84/76 85/85/77 86/86/40
f 85/85/77 84/84/76 87/87/78
f 24/30/25 85/85/77 87/87/78
f 85/85/77 24/30/25 23/29/24
f 78/78/71 33/39/33 88/88/78
f 33/39/33 78/78/71 32/38/32
f 79/79/72 88/88/78 89/89/79
f 88/88/78 79/79/72 78/78/71
f 90/90/80 67/67/60 65/65/58
f 67/67/60 90/90/80 91/91/81
f 91/91/81 11/17/13 67/67/60
f 11/17/13 91/91/81 12/18/14
f 92/92/82 20/26/21 93/93/83
f 21/27/22 93/93/83 20/26/21
f 94/94/53 92/92/82 95/95/84
f 93/93/83 95/95/84 92/92/82
