# Blender v3.5.1 OBJ File: 'f1.blend'
# www.blender.org
mtllib Mesh_209.mtl
o Mesh_209
v 0.000038 1.417513 1.036229
v 0.000038 1.346308 1.036229
v -0.051576 1.416618 1.036414
v -0.051576 1.346308 1.036414
v -0.101837 1.414495 1.036080
v -0.101837 1.346308 1.036080
v -0.149394 1.411709 1.034342
v -0.149394 1.346308 1.034342
v -0.192894 1.408822 1.030310
v -0.192894 1.346308 1.030310
v -0.230985 1.406399 1.023098
v -0.230985 1.346308 1.023098
v -0.263427 1.404341 1.013071
v -0.263427 1.346308 1.013071
v -0.289980 1.402550 1.000594
v -0.289980 1.346308 1.000594
v -0.310407 1.400928 0.986031
v -0.310407 1.346308 0.986031
v -0.289980 1.402550 1.000594
v -0.289980 1.346308 1.000594
v -0.324467 1.399377 0.969747
v -0.324467 1.346308 0.969747
v -0.333431 1.398202 0.952509
v -0.333431 1.346308 0.952509
v -0.338568 1.397705 0.935085
v -0.341148 1.346308 0.918243
v -0.341148 1.398191 0.918243
v -0.338568 1.346308 0.935085
v -0.342442 1.346308 0.902750
v -0.342442 1.399963 0.902750
v -0.342832 1.346308 0.889056
v -0.342832 1.402480 0.889056
v -0.342701 1.405198 0.877613
v -0.342432 1.346308 0.868870
v -0.342431 1.407575 0.868870
v -0.342701 1.346308 0.877613
v -0.342406 1.346308 0.863280
v -0.342406 1.409068 0.863280
v -0.342579 1.346308 0.860063
v -0.342579 1.409903 0.860063
v -0.342903 1.410306 0.858441
v -0.343333 1.346308 0.857637
v -0.343333 1.410503 0.857637
v -0.342904 1.346308 0.858441
v -0.343821 1.346308 0.856873
v -0.343820 1.410720 0.856873
v -0.344352 1.346308 0.856138
v -0.344352 1.410951 0.856138
v -0.344913 1.411192 0.855422
v -0.344913 1.346308 0.855422
v -0.345488 1.385071 0.854717
v -0.345489 1.346308 0.854717
v 0.051652 1.416618 1.036414
v 0.051652 1.346308 1.036414
v 0.101914 1.414495 1.036080
v 0.101914 1.346308 1.036080
v 0.192971 1.408822 1.030310
v 0.149471 1.346308 1.034342
v 0.149471 1.411709 1.034342
v 0.192971 1.346308 1.030310
v 0.231062 1.406399 1.023098
v 0.231062 1.346308 1.023098
v 0.263503 1.404341 1.013071
v 0.263503 1.346308 1.013071
v 0.310484 1.400928 0.986031
v 0.290057 1.346308 1.000594
v 0.290057 1.402550 1.000594
v 0.310484 1.346308 0.986031
v 0.290057 1.402550 1.000594
v 0.290057 1.346308 1.000594
v 0.341225 1.398191 0.918243
v 0.341225 1.346308 0.918243
v 0.338645 1.397705 0.935085
v 0.338645 1.346308 0.935085
v 0.333508 1.346308 0.952509
v 0.333508 1.398202 0.952509
v 0.324544 1.399377 0.969747
v 0.324544 1.346308 0.969747
v 0.342508 1.407575 0.868870
v 0.342508 1.346308 0.868870
v 0.342778 1.405198 0.877613
v 0.342778 1.346308 0.877613
v 0.342909 1.402480 0.889056
v 0.342909 1.346308 0.889056
v 0.342519 1.399963 0.902750
v 0.342519 1.346308 0.902750
v 0.343410 1.410503 0.857637
v 0.343409 1.346308 0.857637
v 0.342980 1.410306 0.858441
v 0.342980 1.346308 0.858441
v 0.342656 1.409903 0.860063
v 0.342656 1.346308 0.860063
v 0.342483 1.409068 0.863280
v 0.342483 1.346308 0.863280
v 0.344990 1.346308 0.855422
v 0.344990 1.411192 0.855422
v 0.345565 1.385071 0.854717
v 0.345565 1.346308 0.854717
v 0.344429 1.410951 0.856138
v 0.344429 1.346308 0.856138
v 0.343897 1.410720 0.856873
v 0.343897 1.346308 0.856873
v 0.345565 1.385071 0.854717
v 0.461288 1.346308 0.854717
v 0.345565 1.346308 0.854717
v 0.461288 1.385071 0.854717
v -0.345489 1.346308 0.854717
v -0.463164 1.385071 0.854717
v -0.345488 1.385071 0.854717
v -0.463164 1.346308 0.854717
vt -27.785789 -9.477469
vt -16.275843 -13.332904
vt -27.785805 -13.332904
vt -16.275827 -9.477469
vt -0.787054 1.144816
vt -12.491262 5.000251
vt -0.787041 5.000251
vt -12.491280 1.144816
vt 1.047083 12.867827
vt 1.047083 5.785626
vt -4.086562 12.778771
vt -4.086562 5.785626
vt -9.085514 12.567650
vt -9.085514 5.785626
vt -13.814956 12.290511
vt -13.814950 5.785626
vt -18.140068 12.003400
vt -18.140062 5.785626
vt -21.926027 11.762376
vt -21.926031 5.785626
vt -25.149162 11.557669
vt -25.149162 5.785626
vt -13.085567 4.459153
vt -13.085567 -1.134753
vt -14.534034 4.297842
vt -14.534034 -1.134753
vt -27.785805 11.379534
vt -27.785805 5.785626
vt -16.153690 4.143609
vt -16.153690 -1.134753
vt -17.868176 4.026678
vt -17.868176 -1.134753
vt -19.601158 3.977259
vt -21.276304 -1.134753
vt -21.276304 4.025599
vt -19.601158 -1.134753
vt -22.817301 -1.134753
vt -22.817301 4.201897
vt -24.179285 -1.134753
vt -24.179285 4.452206
vt -25.317474 4.722538
vt -26.187012 -1.134753
vt -26.187012 4.958939
vt -25.317474 -1.134753
vt -26.743059 -1.134753
vt -26.743059 5.107445
vt -27.063013 -1.134753
vt -27.063013 5.190513
vt -27.224287 5.230613
vt -27.304249 -1.134753
vt -27.304249 5.250199
vt -27.224287 -1.134753
vt -27.380299 -1.134753
vt -27.380299 5.271743
vt -27.453407 -1.134753
vt -27.453407 5.294745
vt -27.524548 5.318731
vt -27.524548 -1.134753
vt -27.594717 2.720681
vt -27.594717 -1.134753
vt 6.180596 12.778771
vt 6.180596 5.785626
vt 11.179789 12.567650
vt 11.179789 5.785626
vt 20.238443 12.003400
vt 15.910470 5.785626
vt 15.910462 12.290511
vt 20.238451 5.785626
vt 24.029533 11.762376
vt 24.029533 5.785626
vt 27.259809 11.557669
vt 27.259809 5.785626
vt -26.655819 -3.068409
vt -28.104286 -8.501006
vt -28.104286 -2.907099
vt -26.655819 -8.501006
vt 29.905319 11.379534
vt 29.905319 5.785626
vt -19.913551 -3.340654
vt -19.913551 -8.501006
vt -21.588696 -3.388993
vt -21.588696 -8.501006
vt -23.321678 -8.501006
vt -23.321678 -3.339575
vt -25.036163 -3.222642
vt -25.036163 -8.501006
vt -15.002839 -2.407314
vt -15.002839 -8.501006
vt -15.872378 -2.643713
vt -15.872378 -8.501006
vt -17.010567 -2.914048
vt -17.010567 -8.501006
vt -18.372551 -3.164355
vt -18.372551 -8.501006
vt -13.885603 -2.116052
vt -13.885603 -8.501006
vt -13.965564 -2.135638
vt -13.965564 -8.501006
vt -14.126839 -2.175739
vt -14.126839 -8.501006
vt -14.446795 -2.258807
vt -14.446795 -8.501006
vt -13.665303 -8.501006
vt -13.665303 -2.047519
vt -13.595147 -4.645572
vt -13.595147 -8.501006
vt -13.736444 -2.071505
vt -13.736444 -8.501006
vt -13.809553 -2.094511
vt -13.809553 -8.501006
vn 0.0000 0.0000 -1.0000
vn 0.0014 -0.0000 -1.0000
vn 0.0015 -0.0000 -1.0000
vn 0.0211 -0.0000 -0.9998
vn 0.0216 0.0000 -0.9998
vn 0.0633 0.0000 -0.9980
vn 0.0644 0.0000 -0.9979
vn 0.1374 0.0000 -0.9905
vn 0.1393 0.0000 -0.9902
vn 0.2389 0.0000 -0.9710
vn 0.2410 0.0000 -0.9705
vn 0.3586 0.0000 -0.9335
vn 0.3612 0.0000 -0.9325
vn 0.5018 0.0000 -0.8650
vn 0.5050 0.0000 -0.8631
vn 0.6696 0.0000 -0.7427
vn 0.6735 0.0000 -0.7392
vn 0.5049 0.0000 -0.8632
vn 0.8249 0.0000 -0.5653
vn 0.8277 0.0000 -0.5612
vn 0.9265 0.0000 -0.3763
vn 0.9275 0.0000 -0.3738
vn 0.9760 0.0000 -0.2176
vn 0.9931 0.0000 -0.1174
vn 0.9933 0.0000 -0.1159
vn 0.9984 0.0000 -0.0559
vn 0.9986 0.0000 -0.0533
vn 1.0000 0.0000 -0.0085
vn 1.0000 -0.0000 -0.0059
vn 0.9997 -0.0000 0.0226
vn 0.9998 -0.0000 0.0176
vn 0.9999 -0.0000 0.0154
vn 0.9998 -0.0000 0.0211
vn 0.9997 -0.0000 -0.0246
vn 0.9996 -0.0000 -0.0294
vn 0.9921 -0.0000 -0.1252
vn 0.9906 -0.0000 -0.1364
vn 0.9340 -0.0000 -0.3572
vn 0.8633 -0.0000 -0.5048
vn 0.8605 -0.0000 -0.5095
vn 0.9414 -0.0000 -0.3372
vn 0.8270 -0.0000 -0.5622
vn 0.8245 -0.0000 -0.5658
vn 0.7987 -0.0000 -0.6017
vn 0.7969 -0.0000 -0.6041
vn 0.7866 -0.0000 -0.6175
vn 0.7809 -0.0000 -0.6246
vn 0.7749 -0.0000 -0.6321
vn 0.7748 -0.0000 -0.6322
vn -0.0014 0.0000 -1.0000
vn -0.0015 0.0000 -1.0000
vn -0.0211 0.0000 -0.9998
vn -0.0216 -0.0000 -0.9998
vn -0.1374 -0.0000 -0.9905
vn -0.0644 -0.0000 -0.9979
vn -0.0633 -0.0000 -0.9980
vn -0.1393 -0.0000 -0.9902
vn -0.2389 0.0000 -0.9710
vn -0.2410 0.0000 -0.9705
vn -0.3586 -0.0000 -0.9335
vn -0.3612 -0.0000 -0.9325
vn -0.6696 -0.0000 -0.7427
vn -0.5050 -0.0000 -0.8631
vn -0.5018 0.0000 -0.8650
vn -0.6735 -0.0000 -0.7392
vn -0.5049 0.0000 -0.8632
vn -0.9933 -0.0000 -0.1159
vn -0.9931 -0.0000 -0.1174
vn -0.9760 -0.0000 -0.2176
vn -0.9275 -0.0000 -0.3738
vn -0.9265 -0.0000 -0.3763
vn -0.8249 -0.0000 -0.5653
vn -0.8277 -0.0000 -0.5612
vn -0.9999 0.0000 0.0154
vn -0.9998 0.0000 0.0176
vn -0.9997 0.0000 0.0227
vn -0.9998 0.0000 0.0211
vn -1.0000 0.0000 -0.0059
vn -1.0000 -0.0000 -0.0085
vn -0.9986 -0.0000 -0.0533
vn -0.9984 -0.0000 -0.0559
vn -0.8605 0.0000 -0.5095
vn -0.8633 0.0000 -0.5048
vn -0.9340 0.0000 -0.3572
vn -0.9415 0.0000 -0.3372
vn -0.9906 0.0000 -0.1364
vn -0.9921 0.0000 -0.1252
vn -0.9996 0.0000 -0.0294
vn -0.9997 0.0000 -0.0246
vn -0.7809 0.0000 -0.6246
vn -0.7866 0.0000 -0.6175
vn -0.7748 0.0000 -0.6322
vn -0.7969 0.0000 -0.6041
vn -0.7987 0.0000 -0.6017
vn -0.8245 0.0000 -0.5658
vn -0.8270 0.0000 -0.5622
usemtl carbon_cockpit
s off
f 103/1/1 104/2/1 105/3/1
f 104/2/1 103/1/1 106/4/1
f 107/5/1 108/6/1 109/7/1
f 108/6/1 107/5/1 110/8/1
s 1
f 1/9/1 2/10/1 3/11/2
f 3/11/2 2/10/1 4/12/3
f 3/11/2 4/12/3 5/13/4
f 5/13/4 4/12/3 6/14/5
f 7/15/6 8/16/7 9/17/8
f 9/17/8 8/16/7 10/18/9
f 5/13/4 6/14/5 7/15/6
f 7/15/6 6/14/5 8/16/7
f 9/17/8 10/18/9 11/19/10
f 11/19/10 10/18/9 12/20/11
f 11/19/10 12/20/11 13/21/12
f 13/21/12 12/20/11 14/22/13
f 15/23/14 16/24/15 17/25/16
f 17/25/16 16/24/15 18/26/17
f 13/21/12 14/22/13 19/27/14
f 19/27/14 14/22/13 20/28/18
f 17/25/16 18/26/17 21/29/19
f 21/29/19 18/26/17 22/30/20
f 21/29/19 22/30/20 23/31/21
f 23/31/21 22/30/20 24/32/22
f 25/33/23 26/34/24 27/35/25
f 26/34/24 25/33/23 28/36/23
f 23/31/21 24/32/22 25/33/23
f 25/33/23 24/32/22 28/36/23
f 27/35/25 29/37/26 30/38/27
f 29/37/26 27/35/25 26/34/24
f 30/38/27 31/39/28 32/40/29
f 31/39/28 30/38/27 29/37/26
f 33/41/30 34/42/31 35/43/32
f 34/42/31 33/41/30 36/44/33
f 32/40/29 36/44/33 33/41/30
f 36/44/33 32/40/29 31/39/28
f 35/43/32 37/45/34 38/46/35
f 37/45/34 35/43/32 34/42/31
f 38/46/35 39/47/36 40/48/37
f 39/47/36 38/46/35 37/45/34
f 41/49/38 42/50/39 43/51/40
f 42/50/39 41/49/38 44/52/41
f 40/48/37 44/52/41 41/49/38
f 44/52/41 40/48/37 39/47/36
f 43/51/40 45/53/42 46/54/43
f 45/53/42 43/51/40 42/50/39
f 46/54/43 47/55/44 48/56/45
f 47/55/44 46/54/43 45/53/42
f 49/57/46 50/58/47 51/59/48
f 51/59/48 50/58/47 52/60/49
f 48/56/45 50/58/47 49/57/46
f 50/58/47 48/56/45 47/55/44
f 53/61/50 2/10/1 1/9/1
f 2/10/1 53/61/50 54/62/51
f 55/63/52 54/62/51 53/61/50
f 54/62/51 55/63/52 56/64/53
f 57/65/54 58/66/55 59/67/56
f 58/66/55 57/65/54 60/68/57
f 59/67/56 56/64/53 55/63/52
f 56/64/53 59/67/56 58/66/55
f 61/69/58 60/68/57 57/65/54
f 60/68/57 61/69/58 62/70/59
f 63/71/60 62/70/59 61/69/58
f 62/70/59 63/71/60 64/72/61
f 65/73/62 66/74/63 67/75/64
f 66/74/63 65/73/62 68/76/65
f 69/77/64 64/72/61 63/71/60
f 64/72/61 69/77/64 70/78/66
f 71/79/67 72/80/68 73/81/69
f 73/81/69 72/80/68 74/82/69
f 73/81/69 75/83/70 76/84/71
f 75/83/70 73/81/69 74/82/69
f 77/85/72 68/76/65 65/73/62
f 68/76/65 77/85/72 78/86/73
f 76/84/71 78/86/73 77/85/72
f 78/86/73 76/84/71 75/83/70
f 79/87/74 80/88/75 81/89/76
f 81/89/76 80/88/75 82/90/77
f 81/89/76 82/90/77 83/91/78
f 83/91/78 82/90/77 84/92/79
f 85/93/80 86/94/81 71/79/67
f 71/79/67 86/94/81 72/80/68
f 83/91/78 84/92/79 85/93/80
f 85/93/80 84/92/79 86/94/81
f 87/95/82 88/96/83 89/97/84
f 89/97/84 88/96/83 90/98/85
f 89/97/84 90/98/85 91/99/86
f 91/99/86 90/98/85 92/100/87
f 93/101/88 94/102/89 79/87/74
f 79/87/74 94/102/89 80/88/75
f 91/99/86 92/100/87 93/101/88
f 93/101/88 92/100/87 94/102/89
f 95/103/90 96/104/91 97/105/92
f 97/105/92 98/106/92 95/103/90
f 96/104/91 95/103/90 99/107/93
f 99/107/93 95/103/90 100/108/94
f 101/109/95 102/110/96 87/95/82
f 87/95/82 102/110/96 88/96/83
f 99/107/93 100/108/94 101/109/95
f 101/109/95 100/108/94 102/110/96
