# Blender v3.5.1 OBJ File: 'f1.blend'
# www.blender.org
mtllib Mesh_171.mtl
o Mesh_171
v -0.890104 0.768115 -4.386742
v -0.890473 0.750456 -4.366527
v -0.890539 0.747344 -4.368865
v -0.890065 0.769977 -4.384952
v -0.889823 0.781487 -4.394887
v -0.889779 0.783621 -4.394558
v -0.889781 0.783526 -4.392763
v -0.890024 0.771899 -4.383167
v -0.890408 0.753604 -4.364170
v -0.990458 0.790096 -4.395537
v -0.934211 0.784488 -4.395653
v -0.990763 0.786895 -4.395642
v -0.934013 0.787754 -4.395803
v -1.088453 0.794135 -4.395196
v -1.088895 0.791014 -4.395625
v -0.990660 0.788578 -4.392759
v -1.088453 0.794135 -4.395196
v -1.088674 0.792400 -4.392272
v -0.990458 0.790096 -4.395537
v -0.934201 0.786405 -4.393146
v -0.934013 0.787754 -4.395803
v -0.907678 0.695934 -4.296756
v -0.939914 0.696657 -4.294689
v -0.940389 0.695100 -4.303471
v -0.907725 0.694187 -4.305088
v -0.891530 0.700012 -4.303524
v -0.891601 0.696633 -4.308499
v -0.907199 0.706565 -4.300265
v -0.891530 0.700012 -4.303524
v -0.891366 0.707833 -4.304278
v -0.907678 0.695934 -4.296756
v -0.938951 0.707125 -4.298114
v -0.939914 0.696657 -4.294689
v -0.940389 0.695100 -4.303471
v -0.997289 0.722994 -4.338793
v -0.939029 0.720945 -4.338712
v -0.999095 0.696742 -4.300566
v -1.097584 0.726658 -4.338896
v -1.099951 0.699892 -4.296888
v -1.094368 0.755090 -4.375689
v -0.994907 0.751046 -4.373042
v -0.937536 0.731174 -4.330225
v -0.905862 0.730671 -4.332088
v -0.890910 0.729599 -4.333355
v -0.935046 0.773473 -4.381698
v -0.903510 0.772609 -4.382500
v -0.934201 0.786405 -4.393146
v -0.902786 0.785197 -4.393360
v -0.904529 0.754413 -4.363132
v -0.936170 0.754998 -4.361723
v -0.890408 0.753604 -4.364170
v -0.890024 0.771899 -4.383167
v -0.889781 0.783526 -4.392763
v -0.935619 0.769744 -4.388353
v -0.992638 0.772186 -4.389966
v -0.937304 0.748698 -4.370953
v -1.091358 0.776348 -4.392008
v -0.891010 0.724841 -4.335853
v -0.891601 0.696633 -4.308499
v -0.891109 0.720102 -4.338233
v -0.891530 0.700012 -4.303524
v -0.891366 0.707833 -4.304278
v -0.890910 0.729599 -4.333355
v -0.903894 0.768385 -4.387455
v -0.889823 0.781487 -4.394887
v -0.890104 0.768115 -4.386742
v -0.902747 0.783147 -4.395660
v -0.890539 0.747344 -4.368865
v -0.905252 0.747390 -4.369789
v -1.090016 0.778065 -4.378430
v -0.991724 0.775026 -4.380256
v -1.088674 0.792400 -4.392272
v -0.990660 0.788578 -4.392759
v -0.993036 0.756046 -4.359187
v -1.091565 0.758447 -4.355974
v -0.994462 0.732078 -4.326871
v -1.093065 0.734295 -4.322625
v -0.996014 0.708134 -4.294246
v -1.094790 0.710482 -4.289350
v -0.891601 0.696633 -4.308499
v -0.906610 0.719805 -4.338667
v -0.891109 0.720102 -4.338233
v -0.907725 0.694187 -4.305088
v -1.097728 0.700675 -4.286281
v -0.999095 0.696742 -4.300566
v -0.997847 0.697958 -4.290978
v -1.099951 0.699892 -4.296888
v -0.997847 0.697958 -4.290978
v -1.097728 0.700675 -4.286281
v -0.889779 0.783621 -4.394558
v -0.902606 0.786452 -4.395952
v -0.902786 0.785197 -4.393360
v -0.902606 0.786452 -4.395952
v -0.889781 0.783526 -4.392763
v -0.889779 0.783621 -4.394558
v -0.906610 0.719805 -4.338667
v -0.905862 0.730671 -4.332088
v -0.891109 0.720102 -4.338233
v -0.890910 0.729599 -4.333355
v -0.904529 0.754413 -4.363132
v -0.890539 0.747344 -4.368865
v -0.890408 0.753604 -4.364170
v -0.905252 0.747390 -4.369789
v -0.906610 0.719805 -4.338667
v -0.939029 0.720945 -4.338712
v -0.937536 0.731174 -4.330225
v -0.905862 0.730671 -4.332088
v -0.994462 0.732078 -4.326871
v -0.997289 0.722994 -4.338793
v -0.997289 0.722994 -4.338793
v -0.994907 0.751046 -4.373042
v -0.993036 0.756046 -4.359187
v -0.994462 0.732078 -4.326871
v -0.993036 0.756046 -4.359187
v -0.937304 0.748698 -4.370953
v -0.936170 0.754998 -4.361723
v -0.994907 0.751046 -4.373042
v -0.936170 0.754998 -4.361723
v -0.905252 0.747390 -4.369789
v -0.904529 0.754413 -4.363132
v -0.937304 0.748698 -4.370953
vt 68.121376 -71.447075
vt 70.116821 -71.197830
vt 70.174248 -71.483757
vt 68.106514 -71.254105
vt 66.967453 -71.235397
vt 66.864563 -71.110550
vt 66.959404 -71.014992
vt 68.088043 -71.058441
vt 70.058334 -70.909073
vt 55.831234 -65.115952
vt 52.905746 -64.787834
vt 55.742962 -64.728523
vt 52.779129 -65.220276
vt 53.195354 -65.636642
vt 55.913532 -65.510094
vt 13.241647 38.262432
vt 17.463102 37.930645
vt 13.223817 38.022182
vt 17.472832 38.175594
vt 5.895944 38.411209
vt 5.867775 38.176773
vt 77.312347 -53.273762
vt 84.645302 -53.091156
vt 84.659096 -53.310291
vt 77.299599 -53.065659
vt 73.080391 -53.244766
vt 73.068428 -53.045719
vt 68.733032 -3.149785
vt 71.152702 -3.089775
vt 71.160004 -3.748412
vt 68.709312 -3.773480
vt 67.511070 -3.609263
vt 67.496452 -3.981664
vt 49.350140 -9.067926
vt 48.166302 -9.534098
vt 48.166302 -8.948076
vt 49.369335 -9.864879
vt 51.729053 -9.075813
vt 51.784782 -9.861326
vt 17.140682 31.226168
vt 12.835343 33.226101
vt 17.201956 33.164001
vt 12.741255 31.257069
vt 5.317937 33.343178
vt 5.182643 31.334808
vt 5.514194 35.477657
vt 12.969733 35.330784
vt 51.660870 -7.272383
vt 49.287819 -7.260372
vt 48.166302 -7.317169
vt 51.540752 -4.100511
vt 49.177425 -4.115736
vt 51.497734 -3.130612
vt 49.142952 -3.171796
vt 49.225220 -5.480138
vt 51.595875 -5.485915
vt 48.166317 -5.518547
vt 48.166317 -4.147697
vt 48.166317 -3.276562
vt 17.380840 36.824188
vt 13.106524 36.917641
vt 17.287640 35.245331
vt 5.706276 37.074505
vt 19.758993 36.772209
vt 20.792271 37.775551
vt 20.792271 36.773582
vt 19.821774 37.879555
vt 20.792271 35.217258
vt 19.690229 35.197639
vt 63.154465 -3.999664
vt 55.788097 -4.073062
vt 63.076416 -2.923996
vt 55.729671 -3.056465
vt 55.856556 -5.496676
vt 63.239708 -5.471439
vt 55.925777 -7.293984
vt 63.314167 -7.282630
vt 56.004425 -9.089732
vt 63.406013 -9.068879
vt 20.792278 31.417551
vt 19.631794 33.129509
vt 20.792278 33.176048
vt 19.588514 31.209057
vt 82.994202 -2.923996
vt 75.564590 -3.703458
vt 75.501266 -2.982170
vt 83.128197 -3.724480
vt 56.125786 -9.854759
vt 63.610664 -9.807955
vt 20.792271 37.935444
vt 19.827160 38.127319
vt 70.725624 -53.228752
vt 70.714088 -53.034531
vt 69.748993 -53.273441
vt 69.748993 -53.138988
vt 82.993233 -14.566163
vt 83.032204 -13.751167
vt 84.153717 -14.519613
vt 84.153694 -13.807978
vt 58.758427 -31.067982
vt 57.699524 -31.575443
vt 57.699524 -31.106407
vt 58.801559 -31.595074
vt 82.993233 -14.566163
vt 80.563400 -14.531652
vt 80.659126 -13.763181
vt 83.032204 -13.751167
vt 76.394257 -13.784781
vt 76.196754 -14.469567
vt 46.305534 -77.155098
vt 49.624004 -77.147789
vt 49.062973 -78.099113
vt 46.051773 -78.251495
vt 79.694138 51.287106
vt 75.477173 50.570465
vt 75.429298 51.264252
vt 79.785637 50.244762
vt 61.129078 -31.073788
vt 58.801559 -31.595074
vt 58.758427 -31.067982
vt 61.204144 -31.547382
vn 0.9998 -0.0210 0.0000
vn 0.9998 -0.0209 -0.0000
vn 0.0350 0.8700 -0.4917
vn -0.0050 -0.2408 -0.9706
vn -0.0021 -0.1607 -0.9870
vn 0.0338 0.8431 -0.5366
vn 0.0354 0.8730 -0.4864
vn -0.0008 -0.1244 -0.9922
vn 0.0358 0.7858 0.6174
vn 0.0354 0.8732 -0.4861
vn 0.0350 0.7816 0.6228
vn 0.0351 0.8700 -0.4918
vn 0.0367 0.7889 0.6134
vn 0.1960 -0.4950 0.8465
vn 0.0407 -0.5195 0.8535
vn -0.0298 -0.9734 -0.2273
vn 0.0789 -0.9838 -0.1610
vn 0.3652 -0.4191 0.8313
vn 0.1564 -0.9646 -0.2125
vn 0.1385 0.5406 0.8298
vn 0.3651 -0.4191 0.8313
vn 0.1910 0.5696 0.7994
vn 0.0631 0.5788 0.8131
vn 0.0408 -0.5195 0.8535
vn -0.0331 -0.8099 -0.5856
vn -0.0397 -0.8069 -0.5893
vn -0.0319 -0.9718 -0.2338
vn -0.0300 -0.8087 -0.5875
vn -0.0336 -0.9673 -0.2515
vn -0.0146 -0.7062 -0.7078
vn -0.0100 -0.6799 -0.7332
vn 0.0513 0.7988 0.5994
vn 0.0758 0.7952 0.6016
vn 0.0979 0.7935 0.6006
vn 0.0373 0.6990 0.7142
vn 0.0542 0.6885 0.7232
vn 0.0709 0.8136 0.5771
vn 0.0607 0.7255 0.6855
vn 0.0405 0.7335 0.6785
vn 0.0822 0.7206 0.6884
vn 0.0710 0.6825 0.7274
vn 0.1028 0.8189 0.5647
vn -0.0038 -0.5385 -0.8426
vn -0.0038 -0.4931 -0.8700
vn -0.0016 -0.6357 -0.7719
vn -0.0051 -0.4757 -0.8796
vn 0.0097 -0.5670 -0.8236
vn 0.0473 -0.2768 -0.9598
vn 0.0244 -0.5795 -0.8146
vn 0.0227 -0.2575 -0.9660
vn 0.0365 -0.6485 -0.7603
vn 0.0173 -0.6446 -0.7643
vn 0.0352 0.7174 0.6958
vn 0.0362 0.7101 0.7031
vn 0.0350 0.7817 0.6227
vn 0.0398 0.7634 0.6447
vn 0.0396 0.7776 0.6275
vn 0.0461 0.8046 0.5921
vn 0.0437 0.8065 0.5897
vn 0.0583 0.5778 0.8141
vn 0.0529 0.5509 0.8329
vn 0.1561 -0.9646 -0.2125
vn -0.0142 -0.7952 -0.6062
vn 0.0109 -0.7904 -0.6125
vn 0.0138 -0.6852 0.7283
vn 0.0311 -0.5404 0.8408
vn -0.0336 -0.9673 -0.2514
vn 0.0138 -0.6852 0.7282
vn 0.1876 0.7762 -0.6019
vn 0.1152 0.8130 -0.5708
vn 0.1152 0.8131 -0.5707
vn -0.0113 0.4907 -0.8713
vn -0.0163 -0.6490 0.7606
vn -0.0162 -0.6490 0.7606
vn -0.0163 -0.6491 0.7606
vn -0.0082 0.5818 -0.8133
vn -0.0043 0.6611 -0.7503
vn -0.0047 0.6543 -0.7562
vn -0.0009 0.7264 -0.6872
vn 0.9808 -0.1769 -0.0821
vn -0.0249 -0.8966 0.4421
vn -0.0229 -0.8414 0.5399
vn -0.0227 -0.8346 0.5504
vn -0.0202 -0.7649 0.6438
vn -0.0203 -0.7649 0.6438
usemtl carbon
s off
f 1/1/1 2/2/1 3/3/1
f 2/2/2 1/1/2 4/4/2
f 5/5/1 4/4/1 1/1/1
f 4/4/2 5/5/2 6/6/2
f 7/7/2 4/4/2 6/6/2
f 4/4/2 7/7/2 8/8/2
f 4/4/1 9/9/1 2/2/1
f 9/9/1 4/4/1 8/8/1
f 58/10/1 59/11/1 60/12/1
f 59/11/2 58/10/2 61/13/2
f 58/10/1 62/14/1 61/13/1
f 62/14/2 58/10/2 63/15/2
s 1
f 10/16/3 11/17/4 12/18/5
f 11/17/4 10/16/3 13/19/6
f 14/20/7 12/18/5 15/21/8
f 12/18/5 14/20/7 10/16/3
f 16/22/9 17/23/10 18/24/11
f 17/23/10 16/22/9 19/25/12
f 20/26/13 19/25/12 16/22/9
f 19/25/12 20/26/13 21/27/6
f 22/28/14 23/29/15 24/30/16
f 22/28/14 24/30/16 25/31/17
f 26/32/18 22/28/14 25/31/17
f 26/32/18 25/31/17 27/33/19
f 28/34/20 29/35/21 30/36/22
f 29/35/21 28/34/20 31/37/14
f 32/38/23 31/37/14 28/34/20
f 31/37/14 32/38/23 33/39/24
f 34/40/16 35/41/25 36/42/26
f 35/41/25 34/40/16 37/43/27
f 37/43/27 38/44/28 35/41/25
f 38/44/28 37/43/27 39/45/29
f 35/41/25 40/46/30 41/47/31
f 40/46/30 35/41/25 38/44/28
f 28/34/20 42/48/32 32/38/23
f 42/48/32 28/34/20 43/49/33
f 30/36/22 43/49/33 28/34/20
f 43/49/33 30/36/22 44/50/34
f 45/51/35 46/52/36 47/53/13
f 48/54/37 47/53/13 46/52/36
f 49/55/38 45/51/35 50/56/39
f 45/51/35 49/55/38 46/52/36
f 51/57/40 46/52/36 49/55/38
f 46/52/36 51/57/40 52/58/41
f 53/59/42 46/52/36 52/58/41
f 46/52/36 53/59/42 48/54/37
f 54/60/43 12/18/5 11/17/4
f 12/18/5 54/60/43 55/61/44
f 56/62/45 55/61/44 54/60/43
f 55/61/44 56/62/45 41/47/31
f 41/47/31 57/63/46 55/61/44
f 57/63/46 41/47/31 40/46/30
f 55/61/44 15/21/8 12/18/5
f 15/21/8 55/61/44 57/63/46
f 64/64/47 65/65/48 66/66/49
f 65/65/48 64/64/47 67/67/50
f 68/68/51 64/64/47 66/66/49
f 64/64/47 68/68/51 69/69/52
f 69/69/52 54/60/43 64/64/47
f 54/60/43 69/69/52 56/62/45
f 64/64/47 11/17/4 67/67/50
f 11/17/4 64/64/47 54/60/43
f 70/70/53 71/71/54 72/72/55
f 73/73/9 72/72/55 71/71/54
f 74/74/56 70/70/53 75/75/57
f 70/70/53 74/74/56 71/71/54
f 50/56/39 71/71/54 74/74/56
f 71/71/54 50/56/39 45/51/35
f 71/71/54 45/51/35 73/73/9
f 47/53/13 73/73/9 45/51/35
f 76/76/58 75/75/57 77/77/59
f 75/75/57 76/76/58 74/74/56
f 78/78/60 77/77/59 79/79/61
f 77/77/59 78/78/60 76/76/58
f 32/38/23 76/76/58 78/78/60
f 76/76/58 32/38/23 42/48/32
f 80/80/62 81/81/63 82/82/64
f 81/81/63 80/80/62 83/83/17
f 83/83/17 36/42/26 81/81/63
f 36/42/26 83/83/17 34/40/16
f 84/84/65 85/85/27 86/86/66
f 85/85/27 84/84/65 87/87/67
f 86/86/66 24/30/16 23/29/15
f 24/30/16 86/86/66 85/85/27
f 78/78/60 33/39/24 32/38/23
f 33/39/24 78/78/60 88/88/66
f 79/79/61 88/88/66 78/78/60
f 88/88/66 79/79/61 89/89/68
f 67/67/50 90/90/69 65/65/48
f 90/90/69 67/67/50 91/91/70
f 13/19/6 67/67/50 11/17/4
f 67/67/50 13/19/6 91/91/70
f 92/92/37 21/27/6 20/26/13
f 21/27/6 92/92/37 93/93/71
f 92/92/37 94/94/42 95/95/69
f 92/92/37 95/95/69 93/93/71
f 96/96/72 97/97/72 98/98/72
f 98/98/72 97/97/72 99/99/72
f 100/100/73 101/101/74 102/102/75
f 101/101/74 100/100/73 103/103/73
f 104/104/76 105/105/77 106/106/78
f 104/104/76 106/106/78 107/107/76
f 105/105/77 108/108/79 106/106/78
f 108/108/79 105/105/77 109/109/79
f 110/110/80 111/111/80 112/112/80
f 112/112/80 113/113/80 110/110/80
f 114/114/81 115/115/82 116/116/83
f 115/115/82 114/114/81 117/117/81
f 118/118/83 119/119/84 120/120/85
f 119/119/84 118/118/83 121/121/82
