# Blender v3.5.1 OBJ File: 'f1.blend'
# www.blender.org
mtllib Mesh_20.mtl
o Mesh_20
v -1.113143 0.868370 3.257625
v -1.159231 0.727290 3.257849
v -1.072447 0.854466 3.257628
v -1.090282 0.697406 3.257900
v -1.161965 0.691359 3.257907
v -1.044972 0.837846 3.257655
v -1.050866 0.844023 3.257639
v -1.039166 0.754302 3.257867
v -1.040994 0.742808 3.257872
v -1.056876 0.714207 3.257864
v -1.050068 0.722727 3.257864
v -1.073077 0.701932 3.257878
v -1.081576 0.698648 3.257890
v -1.064695 0.707183 3.257870
v -1.044669 0.732393 3.257866
v -1.034799 0.806733 3.257737
v -1.036847 0.823105 3.257699
v -1.035014 0.815211 3.257721
v -1.040216 0.830761 3.257676
v -1.057576 0.848989 3.257629
v -1.064739 0.852497 3.257626
v -1.153352 0.804957 3.257736
v -1.129538 0.876944 3.257621
v -1.146164 0.892439 3.257615
vt 66.677200 44.982613
vt 67.830856 41.701775
vt 66.163193 41.693306
vt 71.435509 41.718727
vt 74.494614 43.367142
vt 74.836693 42.582207
vt 73.986069 45.291382
vt 73.308838 46.614159
vt 73.574722 46.321823
vt 69.471207 47.155907
vt 68.934631 47.109154
vt 67.562271 46.469704
vt 67.977875 46.756104
vt 66.942520 45.762062
vt 66.763062 45.380478
vt 67.212395 46.131790
vt 68.441788 46.973625
vt 71.905899 47.185715
vt 72.654968 47.037537
vt 72.296585 47.148033
vt 72.997368 46.856911
vt 73.781937 45.995796
vt 73.920448 45.653656
vt 75.497520 41.763924
vn -0.0000 0.0013 1.0000
vn -0.0000 0.0016 1.0000
vn 0.0005 0.0014 1.0000
vn 0.0004 0.0014 1.0000
vn 0.0001 0.0017 1.0000
vn -0.0003 0.0017 1.0000
vn 0.0000 0.0012 1.0000
vn -0.0006 0.0018 1.0000
vn -0.0007 0.0016 1.0000
vn -0.0009 0.0017 1.0000
vn -0.0007 0.0018 1.0000
vn -0.0006 0.0019 1.0000
vn -0.0006 0.0023 1.0000
vn -0.0008 0.0017 1.0000
vn -0.0009 0.0020 1.0000
vn -0.0008 0.0023 1.0000
vn -0.0004 0.0015 1.0000
vn 0.0008 0.0013 1.0000
usemtl BLACK
s off
f 4/1/1 2/2/2 5/3/2
f 22/4/3 1/5/3 23/6/3
s 1
f 1/5/4 2/2/5 3/7/6
f 2/2/5 4/1/7 3/7/6
f 3/7/6 6/8/8 7/9/9
f 4/1/7 8/10/10 3/7/6
f 4/1/7 9/11/11 8/10/10
f 4/1/7 10/12/11 11/13/11
f 12/14/12 4/1/7 13/15/13
f 4/1/7 12/14/12 14/16/9
f 4/1/7 14/16/9 10/12/11
f 4/1/7 11/13/11 15/17/11
f 9/11/11 4/1/7 15/17/11
f 16/18/12 3/7/6 8/10/10
f 17/19/8 16/18/12 18/20/14
f 19/21/15 16/18/12 17/19/8
f 6/8/8 16/18/12 19/21/15
f 6/8/8 3/7/6 16/18/12
f 20/22/16 3/7/6 7/9/9
f 3/7/6 20/22/16 21/23/17
f 1/5/4 22/4/3 2/2/5
f 22/4/18 23/6/18 24/24/18
