# Blender v3.5.1 OBJ File: 'f1.blend'
# www.blender.org
mtllib Mesh_243.mtl
o Mesh_239_Mesh_243
v 0.395878 0.914108 0.978314
v 0.354229 0.914108 0.978314
v 0.354229 0.884238 0.983879
v 0.395878 0.884238 0.983879
v 0.395659 0.920501 1.012628
v 0.327670 0.920501 1.012628
v 0.327670 0.890631 1.018193
v 0.395659 0.890631 1.018193
v 0.356858 0.923851 1.010585
v 0.329566 0.923851 1.010585
v 0.329566 0.896616 1.015659
v 0.356858 0.896616 1.015659
v 0.366896 0.923851 1.010585
v 0.394188 0.896616 1.015659
v 0.394188 0.923851 1.010585
v 0.366896 0.896616 1.015659
v 0.340340 0.902517 0.896850
v 0.379414 0.902089 0.894821
v 0.379414 0.902517 0.896850
v 0.340340 0.902089 0.894821
vt 0.101025 -0.083876
vt 0.140549 -0.083876
vt 0.140549 -0.114912
vt 0.101025 -0.114912
vt 0.101025 -0.009684
vt 0.165545 -0.009684
vt 0.165545 -0.040720
vt 0.101025 -0.040720
vt 0.211517 -0.184310
vt 0.211517 -0.210209
vt 0.183218 -0.210209
vt 0.183218 -0.184310
vt 0.175670 -0.210209
vt 0.147372 -0.184310
vt 0.175670 -0.184310
vt 0.147372 -0.210209
vt 0.323065 -0.185037
vt 0.248503 -0.189295
vt 0.248503 -0.185037
vt 0.323065 -0.189295
vn 0.0000 0.1832 0.9831
vn 0.0000 -0.9785 0.2064
usemtl gp21_cockpit_details
s off
f 1/1/1 2/2/1 3/3/1
f 1/1/1 3/3/1 4/4/1
f 5/5/1 6/6/1 7/7/1
f 5/5/1 7/7/1 8/8/1
f 9/9/1 10/10/1 11/11/1
f 9/9/1 11/11/1 12/12/1
f 13/13/1 14/14/1 15/15/1
f 14/14/1 13/13/1 16/16/1
f 17/17/2 18/18/2 19/19/2
f 18/18/2 17/17/2 20/20/2
