# Blender v3.5.1 OBJ File: 'f1.blend'
# www.blender.org
mtllib Mesh_25.mtl
o Mesh_25
v 1.969164 0.773839 3.019632
v 1.963635 0.775686 3.017796
v 1.963429 0.778587 3.023064
v 1.968994 0.776232 3.023976
v 1.972208 0.768178 3.022943
v 1.972042 0.770507 3.027173
v 1.952393 0.775883 3.016557
v 1.952146 0.779368 3.022884
v 1.971382 0.766520 3.029566
v 1.971291 0.763671 3.025700
v 1.934672 0.781934 3.020703
v 1.934914 0.778521 3.014507
v 1.926157 0.780820 3.013421
v 1.925946 0.783792 3.018816
v 1.952550 0.769155 3.020390
v 1.936005 0.772727 3.012243
v 1.936186 0.775924 3.010385
v 1.952393 0.775883 3.016557
v 1.963635 0.775686 3.017796
v 1.963957 0.765694 3.023457
v 1.935552 0.780632 3.026154
v 1.952528 0.773054 3.026350
v 1.952146 0.779368 3.022884
v 1.935634 0.783712 3.024527
v 1.963429 0.778587 3.023064
v 1.963895 0.769233 3.028255
v 1.934312 0.778714 3.022413
v 1.934672 0.781934 3.020703
v 1.925946 0.783792 3.018816
v 1.926221 0.781132 3.020338
v 1.926157 0.780820 3.013421
v 1.934914 0.778521 3.014507
v 1.934839 0.775089 3.016438
v 1.926432 0.778108 3.014883
v 1.971382 0.766520 3.029566
v 1.972042 0.770507 3.027173
v 1.968994 0.776232 3.023976
v 1.972208 0.768178 3.022943
v 1.971291 0.763671 3.025700
v 1.969164 0.773839 3.019632
v 1.936186 0.775924 3.010385
v 1.935634 0.783712 3.024527
v 1.973694 0.710021 3.060623
v 1.968481 0.707411 3.062459
v 1.968687 0.704510 3.057191
v 1.973864 0.707628 3.056279
v 1.975908 0.716055 3.057312
v 1.976073 0.713726 3.053081
v 1.957380 0.705628 3.063698
v 1.957628 0.702144 3.057371
v 1.974856 0.717580 3.050689
v 1.974363 0.720387 3.054554
v 1.940691 0.697136 3.059553
v 1.940449 0.700548 3.065749
v 1.932104 0.697035 3.066836
v 1.932315 0.694064 3.061440
v 1.956585 0.712311 3.059865
v 1.940710 0.706438 3.068013
v 1.941342 0.703299 3.069870
v 1.957380 0.705628 3.063698
v 1.968481 0.707411 3.062459
v 1.967389 0.717349 3.056798
v 1.941378 0.698548 3.054102
v 1.957114 0.708448 3.053906
v 1.957628 0.702144 3.057371
v 1.941894 0.695511 3.055728
v 1.968687 0.704510 3.057191
v 1.967827 0.713836 3.052000
v 1.939880 0.700272 3.057843
v 1.940691 0.697136 3.059553
v 1.932315 0.694064 3.061440
v 1.932211 0.696736 3.059918
v 1.932104 0.697035 3.066836
v 1.940449 0.700548 3.065749
v 1.939890 0.703935 3.063818
v 1.931994 0.699759 3.065374
v 1.974856 0.717580 3.050689
v 1.976073 0.713726 3.053081
v 1.973864 0.707628 3.056279
v 1.975908 0.716055 3.057312
v 1.974363 0.720387 3.054554
v 1.973694 0.710021 3.060623
v 1.941342 0.703299 3.069870
v 1.941894 0.695511 3.055728
v 1.985987 0.753358 3.053445
v 1.985573 0.759191 3.044807
v 1.975778 0.766328 3.047061
v 1.976392 0.757685 3.059861
v 1.985597 0.758845 3.034381
v 1.975814 0.765815 3.031613
v 1.986050 0.752453 3.026151
v 1.976486 0.756344 3.019417
v 1.986760 0.742456 3.023258
v 1.977538 0.741531 3.015132
v 1.987455 0.732672 3.026810
v 1.978567 0.727034 3.020394
v 1.987869 0.726840 3.035447
v 1.979180 0.718391 3.033193
v 1.987844 0.727185 3.045873
v 1.979144 0.718903 3.048641
v 1.987391 0.733577 3.054104
v 1.978472 0.728374 3.060837
v 1.986681 0.743574 3.056996
v 1.977421 0.743188 3.065123
v 1.903937 0.772498 3.073130
v 1.904781 0.760604 3.082413
v 1.927335 0.761715 3.081527
v 1.926508 0.773359 3.072438
v 1.903337 0.780949 3.060616
v 1.925920 0.781633 3.060186
v 1.903040 0.785128 3.046096
v 1.925630 0.785725 3.045971
v 1.903075 0.784628 3.030992
v 1.925664 0.785235 3.031183
v 1.903439 0.779496 3.016783
v 1.926021 0.780211 3.017272
v 1.904096 0.770235 3.004859
v 1.926664 0.771144 3.005597
v 1.904982 0.757752 2.996386
v 1.927531 0.758923 2.997302
v 1.906010 0.743270 2.992197
v 1.928538 0.744743 2.993200
v 1.907079 0.728204 2.992699
v 1.929585 0.729993 2.993691
v 1.908085 0.714030 2.997843
v 1.930570 0.716116 2.998728
v 1.908930 0.702136 3.007127
v 1.908085 0.714030 2.997843
v 1.930570 0.716116 2.998728
v 1.931396 0.704470 3.007818
v 1.909530 0.693685 3.019641
v 1.931984 0.696197 3.020070
v 1.909826 0.689505 3.034161
v 1.932274 0.692105 3.034285
v 1.909791 0.690006 3.049265
v 1.932240 0.692595 3.049073
v 1.909427 0.695138 3.063474
v 1.931883 0.697619 3.062985
v 1.908770 0.704398 3.075398
v 1.931240 0.706686 3.074659
v 1.907884 0.716881 3.083870
v 1.930373 0.718907 3.082954
v 1.906856 0.731364 3.088060
v 1.929366 0.733087 3.087056
v 1.905787 0.746430 3.087558
v 1.928320 0.747838 3.086565
v 1.976392 0.757685 3.059861
v 1.975778 0.766328 3.047061
v 1.975814 0.765815 3.031613
v 1.976486 0.756344 3.019417
v 1.977538 0.741531 3.015132
v 1.978567 0.727034 3.020394
v 1.978567 0.727034 3.020394
v 1.979180 0.718391 3.033193
v 1.979144 0.718903 3.048641
v 1.978472 0.728374 3.060837
v 1.977421 0.743188 3.065123
vt 0.852051 -0.409180
vt 0.867188 -0.410400
vt 0.867188 -0.395752
vt 0.852051 -0.396973
vt 0.834473 -0.408936
vt 0.834473 -0.397217
vt 0.894531 -0.411865
vt 0.894531 -0.394287
vt 0.823242 -0.396729
vt 0.821289 -0.408447
vt 0.937988 -0.394531
vt 0.937988 -0.411865
vt 0.960938 -0.410889
vt 0.960938 -0.395508
vt 0.891113 -0.460449
vt 0.867676 -0.471436
vt 0.868164 -0.476562
vt 0.891602 -0.471191
vt 0.906738 -0.469238
vt 0.906738 -0.453369
vt 0.823730 -0.471924
vt 0.800781 -0.461182
vt 0.800781 -0.471191
vt 0.823242 -0.476562
vt 0.785156 -0.469238
vt 0.785645 -0.454590
vt 0.829590 -0.472412
vt 0.829102 -0.477539
vt 0.840820 -0.481689
vt 0.840820 -0.477295
vt 0.849121 -0.481689
vt 0.860840 -0.477295
vt 0.860840 -0.471924
vt 0.849121 -0.477295
vt 0.775391 -0.449951
vt 0.774414 -0.456299
vt 0.777832 -0.465332
vt 0.918457 -0.456299
vt 0.916504 -0.448975
vt 0.914551 -0.465576
vt 0.935547 -0.423828
vt 0.935547 -0.384277
vt 0.852051 -0.409180
vt 0.867188 -0.410400
vt 0.867188 -0.395752
vt 0.852051 -0.396973
vt 0.834473 -0.408936
vt 0.834473 -0.397217
vt 0.894531 -0.411865
vt 0.894531 -0.394287
vt 0.823242 -0.396729
vt 0.821289 -0.408447
vt 0.937988 -0.394531
vt 0.937988 -0.411865
vt 0.960938 -0.410889
vt 0.960938 -0.395508
vt 0.891113 -0.460449
vt 0.867676 -0.471436
vt 0.868164 -0.476562
vt 0.891602 -0.471191
vt 0.906738 -0.469238
vt 0.906738 -0.453369
vt 0.823730 -0.471924
vt 0.800781 -0.461182
vt 0.800781 -0.471191
vt 0.823242 -0.476562
vt 0.785156 -0.469238
vt 0.785645 -0.454590
vt 0.829590 -0.472412
vt 0.829102 -0.477539
vt 0.840820 -0.481689
vt 0.840820 -0.477295
vt 0.849121 -0.481689
vt 0.860840 -0.477295
vt 0.860840 -0.471924
vt 0.849121 -0.477295
vt 0.775391 -0.449951
vt 0.774414 -0.456299
vt 0.777832 -0.465332
vt 0.918457 -0.456299
vt 0.916504 -0.448975
vt 0.914551 -0.465576
vt 0.935547 -0.423828
vt 0.935547 -0.384277
vt 0.256348 -0.729492
vt 0.267822 -0.735840
vt 0.279785 -0.723633
vt 0.258789 -0.712891
vt 0.273682 -0.747070
vt 0.290283 -0.744629
vt 0.271729 -0.760254
vt 0.286621 -0.767578
vt 0.262451 -0.769043
vt 0.270264 -0.784180
vt 0.249756 -0.771484
vt 0.247070 -0.788086
vt 0.238159 -0.765625
vt 0.226196 -0.777344
vt 0.232178 -0.753906
vt 0.215576 -0.756348
vt 0.234253 -0.740723
vt 0.219238 -0.733398
vt 0.243408 -0.731934
vt 0.235840 -0.716797
vt 0.300781 -0.114807
vt 0.287842 -0.114807
vt 0.287842 -0.133423
vt 0.300537 -0.133423
vt 0.313965 -0.114807
vt 0.313477 -0.133545
vt 0.327148 -0.114807
vt 0.326416 -0.133911
vt 0.340820 -0.114807
vt 0.339844 -0.134521
vt 0.354980 -0.114807
vt 0.353271 -0.135254
vt 0.369629 -0.114807
vt 0.367676 -0.136475
vt 0.385254 -0.114807
vt 0.382812 -0.138306
vt 0.402588 -0.114807
vt 0.398926 -0.141235
vt 0.421875 -0.114807
vt 0.416260 -0.145752
vt 0.442383 -0.114807
vt 0.434814 -0.153320
vt 0.151489 -0.114807
vt 0.130493 -0.114807
vt 0.138428 -0.154297
vt 0.157471 -0.146484
vt 0.171265 -0.114807
vt 0.175171 -0.141724
vt 0.188965 -0.114807
vt 0.191528 -0.138794
vt 0.205078 -0.114807
vt 0.207031 -0.136841
vt 0.220093 -0.114807
vt 0.221436 -0.135620
vt 0.234375 -0.114807
vt 0.235474 -0.134644
vt 0.248169 -0.114807
vt 0.248901 -0.134155
vt 0.261475 -0.114807
vt 0.261963 -0.133667
vt 0.274658 -0.114807
vt 0.274902 -0.133423
vt 0.293457 -0.190552
vt 0.314941 -0.191406
vt 0.336426 -0.193848
vt 0.357422 -0.198242
vt 0.377686 -0.205566
vt 0.395752 -0.216919
vt 0.187744 -0.212402
vt 0.207397 -0.202881
vt 0.228394 -0.196777
vt 0.249878 -0.193115
vt 0.271729 -0.191162
vn 0.6947 0.6412 -0.3259
vn 0.2355 0.8552 -0.4617
vn 0.2355 0.8552 -0.4618
vn 0.9891 0.1395 -0.0471
vn 0.9890 0.1426 -0.0399
vn 0.1328 0.8697 -0.4753
vn 0.1321 0.8711 -0.4730
vn 0.9876 -0.1283 0.0910
vn 0.9853 -0.1479 0.0857
vn 0.2176 0.8611 -0.4595
vn 0.2176 0.8563 -0.4685
vn 0.2785 0.8459 -0.4549
vn 0.1694 -0.4863 -0.8572
vn -0.4065 -0.4417 -0.7998
vn -0.5349 -0.4041 -0.7420
vn 0.2114 -0.4795 -0.8517
vn 0.0971 -0.4821 -0.8707
vn 0.0937 -0.4989 -0.8616
vn -0.4299 0.4348 0.7913
vn 0.0869 0.4845 0.8705
vn 0.1226 0.4815 0.8678
vn -0.5753 0.4145 0.7052
vn 0.0312 0.4914 0.8704
vn 0.0208 0.4859 0.8737
vn -0.6903 0.3820 0.6144
vn -0.6171 0.4218 0.6643
vn -0.8242 0.2126 0.5249
vn -0.6545 0.3235 0.6834
vn -0.7835 -0.3570 -0.5086
vn -0.5634 -0.3958 -0.7252
vn -0.6949 -0.3327 -0.6374
vn -0.5975 -0.4268 -0.6788
vn 0.0436 0.4960 0.8672
vn 0.0660 0.5073 0.8592
vn 0.0800 0.5181 0.8516
vn 0.1071 -0.5030 -0.8576
vn 0.1088 -0.5349 -0.8379
vn 0.1476 -0.4390 -0.8863
vn 0.1858 0.8561 -0.4822
vn 0.1846 0.8726 -0.4522
vn 0.7784 -0.5366 0.3259
vn 0.3539 -0.8133 0.4618
vn 0.3539 -0.8133 0.4617
vn 0.7784 -0.5365 0.3259
vn 0.9989 0.0016 0.0470
vn 0.9992 -0.0015 0.0398
vn 0.2544 -0.8422 0.4753
vn 0.2538 -0.8437 0.4730
vn 0.9595 0.2665 -0.0910
vn 0.9545 0.2858 -0.0858
vn 0.3370 -0.8218 0.4595
vn 0.3364 -0.8169 0.4685
vn 0.3952 -0.7981 0.4549
vn 0.0991 0.5053 0.8572
vn -0.4648 0.3798 0.7998
vn -0.5866 0.3245 0.7420
vn 0.1415 0.5045 0.8517
vn 0.0281 0.4910 0.8707
vn 0.0223 0.5071 0.8616
vn -0.3642 -0.4910 -0.7913
vn 0.1545 -0.4674 -0.8705
vn 0.1893 -0.4594 -0.8678
vn -0.5110 -0.4916 -0.7052
vn 0.1003 -0.4820 -0.8704
vn 0.0892 -0.4781 -0.8738
vn -0.6295 -0.4756 -0.6144
vn -0.5513 -0.5047 -0.6643
vn -0.7860 -0.3267 -0.5249
vn -0.6024 -0.4125 -0.6833
vn -0.8261 0.2427 0.5086
vn -0.6136 0.3122 0.7253
vn -0.7349 0.2312 0.6375
vn -0.6518 0.3382 0.6788
vn 0.1132 -0.4849 -0.8672
vn 0.1369 -0.4928 -0.8593
vn 0.1519 -0.5021 -0.8514
vn 0.0350 0.5131 0.8576
vn 0.0322 0.5449 0.8379
vn 0.0842 0.4555 0.8863
vn 0.3049 -0.8213 0.4822
vn 0.3060 -0.8378 0.4522
vn 0.8564 0.3541 0.3757
vn 0.8448 0.5186 0.1320
vn 0.4849 0.8430 0.2327
vn 0.5055 0.5529 0.6624
vn 0.8454 0.5089 -0.1621
vn 0.4861 0.8258 -0.2858
vn 0.8583 0.3285 -0.3943
vn 0.5087 0.5079 -0.6952
vn 0.8783 0.0465 -0.4759
vn 0.5440 0.0107 -0.8390
vn 0.8979 -0.2295 -0.3757
vn 0.5785 -0.4760 -0.6624
vn 0.9095 -0.3941 -0.1320
vn 0.5991 -0.7661 -0.2327
vn 0.9088 -0.3844 0.1621
vn 0.5979 -0.7489 0.2858
vn 0.8961 -0.2040 0.3943
vn 0.5753 -0.4310 0.6952
vn 0.8760 0.0780 0.4759
vn 0.5400 0.0663 0.8390
vn -0.0070 0.7308 0.6825
vn 0.0105 0.4848 0.8746
vn 0.1997 0.4826 0.8528
vn 0.1823 0.7269 0.6621
vn -0.0194 0.9056 0.4237
vn 0.1705 0.8936 0.4152
vn -0.0255 0.9920 0.1234
vn 0.1644 0.9794 0.1171
vn -0.0248 0.9817 -0.1890
vn 0.1651 0.9695 -0.1809
vn -0.0173 0.8755 -0.4829
vn 0.1726 0.8642 -0.4727
vn -0.0037 0.6840 -0.7295
vn 0.1855 0.6815 -0.7079
vn 0.0146 0.4258 -0.9047
vn 0.2037 0.4251 -0.8819
vn 0.0359 0.1263 -0.9913
vn 0.2240 0.1394 -0.9646
vn 0.0580 -0.1853 -0.9810
vn 0.2460 -0.1700 -0.9543
vn 0.0788 -0.4785 -0.8746
vn 0.2658 -0.4496 -0.8528
vn 0.0963 -0.7245 -0.6826
vn 0.2831 -0.6939 -0.6621
vn 0.1087 -0.8992 -0.4237
vn 0.2950 -0.8606 -0.4152
vn 0.1148 -0.9857 -0.1234
vn 0.3011 -0.9464 -0.1171
vn 0.1141 -0.9753 0.1890
vn 0.3004 -0.9365 0.1809
vn 0.1066 -0.8692 0.4828
vn 0.2929 -0.8311 0.4727
vn 0.0930 -0.6777 0.7295
vn 0.2799 -0.6484 0.7079
vn 0.0747 -0.4195 0.9047
vn 0.2618 -0.3921 0.8819
vn 0.0534 -0.1199 0.9913
vn 0.2415 -0.1064 0.9646
vn 0.0313 0.1917 0.9810
vn 0.2195 0.2030 0.9543
vn 0.5785 -0.4759 -0.6624
vn 0.5991 -0.7661 -0.2328
vn 0.5754 -0.4310 0.6952
vn 0.5401 0.0663 0.8390
usemtl chrome
s 1
f 1/1/1 2/2/2 3/3/3
f 3/3/3 4/4/1 1/1/1
f 5/5/4 1/1/1 4/4/1
f 4/4/1 6/6/5 5/5/4
f 2/2/2 7/7/6 8/8/7
f 8/8/7 3/3/3 2/2/2
f 5/5/4 6/6/5 9/9/8
f 9/9/8 10/10/9 5/5/4
f 11/11/10 12/12/11 13/13/12
f 13/13/12 14/14/12 11/11/10
f 15/15/13 16/16/14 17/17/15
f 17/17/15 18/18/16 15/15/13
f 18/18/16 19/19/17 20/20/18
f 20/20/18 15/15/13 18/18/16
f 21/21/19 22/22/20 23/23/21
f 23/23/21 24/24/22 21/21/19
f 25/25/23 23/23/21 22/22/20
f 22/22/20 26/26/24 25/25/23
f 27/27/25 28/28/26 29/29/27
f 29/29/27 30/30/28 27/27/25
f 31/31/29 32/32/30 33/33/31
f 33/33/31 34/34/32 31/31/29
f 29/29/27 31/31/29 34/34/32
f 34/34/32 30/30/28 29/29/27
f 35/35/33 36/36/34 25/25/23
f 25/25/23 26/26/24 35/35/33
f 37/37/35 25/25/23 36/36/34
f 38/38/36 39/39/37 20/20/18
f 20/20/18 19/19/17 38/38/36
f 40/40/38 38/38/36 19/19/17
f 24/24/22 28/28/26 27/27/25
f 27/27/25 21/21/19 24/24/22
f 41/41/39 12/12/11 7/7/6
f 33/33/31 32/32/30 17/17/15
f 17/17/15 16/16/14 33/33/31
f 7/7/6 12/12/11 11/11/10
f 11/11/10 8/8/7 7/7/6
f 8/8/7 11/11/10 42/42/40
f 43/43/41 44/44/42 45/45/43
f 45/45/43 46/46/44 43/43/41
f 47/47/45 43/43/41 46/46/44
f 46/46/44 48/48/46 47/47/45
f 44/44/42 49/49/47 50/50/48
f 50/50/48 45/45/43 44/44/42
f 47/47/45 48/48/46 51/51/49
f 51/51/49 52/52/50 47/47/45
f 53/53/51 54/54/52 55/55/53
f 55/55/53 56/56/53 53/53/51
f 57/57/54 58/58/55 59/59/56
f 59/59/56 60/60/57 57/57/54
f 60/60/57 61/61/58 62/62/59
f 62/62/59 57/57/54 60/60/57
f 63/63/60 64/64/61 65/65/62
f 65/65/62 66/66/63 63/63/60
f 67/67/64 65/65/62 64/64/61
f 64/64/61 68/68/65 67/67/64
f 69/69/66 70/70/67 71/71/68
f 71/71/68 72/72/69 69/69/66
f 73/73/70 74/74/71 75/75/72
f 75/75/72 76/76/73 73/73/70
f 71/71/68 73/73/70 76/76/73
f 76/76/73 72/72/69 71/71/68
f 77/77/74 78/78/75 67/67/64
f 67/67/64 68/68/65 77/77/74
f 79/79/76 67/67/64 78/78/75
f 80/80/77 81/81/78 62/62/59
f 62/62/59 61/61/58 80/80/77
f 82/82/79 80/80/77 61/61/58
f 66/66/63 70/70/67 69/69/66
f 69/69/66 63/63/60 66/66/63
f 83/83/80 54/54/52 49/49/47
f 75/75/72 74/74/71 59/59/56
f 59/59/56 58/58/55 75/75/72
f 49/49/47 54/54/52 53/53/51
f 53/53/51 50/50/48 49/49/47
f 50/50/48 53/53/51 84/84/81
f 85/85/82 86/86/83 87/87/84
f 87/87/84 88/88/85 85/85/82
f 86/86/83 89/89/86 90/90/87
f 90/90/87 87/87/84 86/86/83
f 89/89/86 91/91/88 92/92/89
f 92/92/89 90/90/87 89/89/86
f 91/91/88 93/93/90 94/94/91
f 94/94/91 92/92/89 91/91/88
f 93/93/90 95/95/92 96/96/93
f 96/96/93 94/94/91 93/93/90
f 95/95/92 97/97/94 98/98/95
f 98/98/95 96/96/93 95/95/92
f 97/97/94 99/99/96 100/100/97
f 100/100/97 98/98/95 97/97/94
f 99/99/96 101/101/98 102/102/99
f 102/102/99 100/100/97 99/99/96
f 101/101/98 103/103/100 104/104/101
f 104/104/101 102/102/99 101/101/98
f 103/103/100 85/85/82 88/88/85
f 88/88/85 104/104/101 103/103/100
f 86/86/83 93/93/90 91/91/88
f 91/91/88 89/89/86 86/86/83
f 105/105/102 106/106/103 107/107/104
f 107/107/104 108/108/105 105/105/102
f 109/109/106 105/105/102 108/108/105
f 108/108/105 110/110/107 109/109/106
f 111/111/108 109/109/106 110/110/107
f 110/110/107 112/112/109 111/111/108
f 113/113/110 111/111/108 112/112/109
f 112/112/109 114/114/111 113/113/110
f 115/115/112 113/113/110 114/114/111
f 114/114/111 116/116/113 115/115/112
f 117/117/114 115/115/112 116/116/113
f 116/116/113 118/118/115 117/117/114
f 119/119/116 117/117/114 118/118/115
f 118/118/115 120/120/117 119/119/116
f 121/121/118 119/119/116 120/120/117
f 120/120/117 122/122/119 121/121/118
f 123/123/120 121/121/118 122/122/119
f 122/122/119 124/124/121 123/123/120
f 125/125/122 123/123/120 124/124/121
f 124/124/121 126/126/123 125/125/122
f 127/127/124 128/128/122 129/129/123
f 129/129/123 130/130/125 127/127/124
f 131/131/126 127/127/124 130/130/125
f 130/130/125 132/132/127 131/131/126
f 133/133/128 131/131/126 132/132/127
f 132/132/127 134/134/129 133/133/128
f 135/135/130 133/133/128 134/134/129
f 134/134/129 136/136/131 135/135/130
f 137/137/132 135/135/130 136/136/131
f 136/136/131 138/138/133 137/137/132
f 139/139/134 137/137/132 138/138/133
f 138/138/133 140/140/135 139/139/134
f 141/141/136 139/139/134 140/140/135
f 140/140/135 142/142/137 141/141/136
f 143/143/138 141/141/136 142/142/137
f 142/142/137 144/144/139 143/143/138
f 145/145/140 143/143/138 144/144/139
f 144/144/139 146/146/141 145/145/140
f 106/106/103 145/145/140 146/146/141
f 146/146/141 107/107/104 106/106/103
f 147/147/85 108/108/105 107/107/104
f 147/147/85 148/148/84 110/110/107
f 110/110/107 108/108/105 147/147/85
f 148/148/84 112/112/109 110/110/107
f 148/148/84 149/149/87 114/114/111
f 114/114/111 112/112/109 148/148/84
f 149/149/87 116/116/113 114/114/111
f 149/149/87 150/150/89 118/118/115
f 118/118/115 116/116/113 149/149/87
f 150/150/89 120/120/117 118/118/115
f 150/150/89 151/151/91 122/122/119
f 122/122/119 120/120/117 150/150/89
f 151/151/91 124/124/121 122/122/119
f 151/151/91 152/152/142 126/126/123
f 126/126/123 124/124/121 151/151/91
f 153/153/142 130/130/125 129/129/123
f 153/153/142 154/154/143 132/132/127
f 132/132/127 130/130/125 153/153/142
f 154/154/143 134/134/129 132/132/127
f 154/154/143 155/155/97 136/136/131
f 136/136/131 134/134/129 154/154/143
f 155/155/97 138/138/133 136/136/131
f 155/155/97 156/156/144 140/140/135
f 140/140/135 138/138/133 155/155/97
f 156/156/144 142/142/137 140/140/135
f 156/156/144 157/157/145 144/144/139
f 144/144/139 142/142/137 156/156/144
f 157/157/145 146/146/141 144/144/139
f 157/157/145 147/147/85 107/107/104
f 107/107/104 146/146/141 157/157/145
f 97/97/94 103/103/100 101/101/98
f 101/101/98 99/99/96 97/97/94
f 85/85/82 103/103/100 97/97/94
f 97/97/94 95/95/92 85/85/82
f 85/85/82 95/95/92 93/93/90
f 93/93/90 86/86/83 85/85/82
