# Blender v3.5.1 OBJ File: 'f1.blend'
# www.blender.org
mtllib Mesh_85.mtl
o Mesh_85
v -0.444340 1.036382 0.372005
v -0.437500 1.020557 0.340305
v -0.444340 1.021049 0.341291
v -0.424644 1.034965 0.369167
v -0.430660 1.021049 0.341291
v -0.430660 1.036382 0.372005
v -0.424644 1.022466 0.344129
v -0.454821 1.032795 0.364819
v -0.450356 1.022466 0.344129
v -0.454821 1.024636 0.348477
v -0.437500 1.036874 0.372990
v -0.450356 1.034965 0.369167
v -0.457196 1.030132 0.359486
v -0.457196 1.027299 0.353810
v -0.420179 1.024636 0.348477
v -0.420179 1.032795 0.364819
v -0.417804 1.030132 0.359486
v -0.417804 1.027299 0.353810
vt 0.671010 -0.030154
vt 0.500000 -1.000000
vt 0.671010 -0.969846
vt 0.933013 -0.250000
vt 0.821394 -0.883022
vt 0.933013 -0.750000
vt 0.500000 0.000000
vt 0.821394 -0.116978
vt 0.992404 -0.413176
vt 0.992404 -0.586824
vt 0.328990 -0.030154
vt 0.328990 -0.969846
vt 0.178606 -0.116978
vt 0.066987 -0.750000
vt 0.178606 -0.883022
vt 0.066987 -0.250000
vt 0.007596 -0.413176
vt 0.007596 -0.586824
vn 0.0000 0.8947 -0.4467
vn 0.0000 0.8947 -0.4466
usemtl cables_red
s off
f 1/1/1 2/2/1 3/3/1
f 8/4/1 9/5/1 10/6/1
f 2/2/1 1/1/1 11/7/1
f 1/1/1 3/3/1 12/8/1
f 9/5/1 12/8/1 3/3/1
f 10/6/1 13/9/1 8/4/1
f 13/9/1 10/6/1 14/10/1
f 12/8/1 9/5/1 8/4/1
f 6/11/1 5/12/1 11/7/1
f 4/13/1 15/14/1 7/15/1
f 15/14/2 4/13/2 16/16/2
f 17/17/1 15/14/1 16/16/1
f 15/14/2 17/17/2 18/18/2
f 2/2/1 11/7/1 5/12/1
s 1
f 4/13/1 5/12/1 6/11/1
f 5/12/1 4/13/1 7/15/1
