# Blender v3.5.1 OBJ File: 'f1.blend'
# www.blender.org
mtllib Mesh_208.mtl
o Mesh_208
v -0.163755 1.388002 -0.509608
v 0.000000 0.320123 -0.509607
v 0.000000 1.388002 -0.509608
v -0.356260 0.320123 -0.509608
v -0.599038 1.388002 -0.509608
v -0.599038 0.615259 -0.509608
v 0.163756 1.388002 -0.509608
v 0.356260 0.320123 -0.509607
v 0.599038 1.388002 -0.509608
v 0.599038 0.615259 -0.509608
vt 109.044487 148.633484
vt 98.559586 76.793686
vt 98.559586 148.633484
vt 121.370117 76.793686
vt 136.914703 148.633484
vt 136.914703 95.690559
vt 88.074707 148.633484
vt 75.749054 76.793686
vt 60.204510 148.633484
vt 60.204510 95.690559
vn -0.0000 0.0000 1.0000
vn 0.0000 0.6987 0.7154
vn 0.3805 0.6867 0.6194
vn 0.7515 0.0000 0.6597
vn 0.7715 0.2287 0.5937
vn -0.3807 0.6867 0.6194
vn -0.7516 -0.0000 0.6596
vn -0.7716 0.2286 0.5936
usemtl carbon_cockpit
s 1
f 1/1/1 2/2/2 3/3/1
f 2/2/2 1/1/1 4/4/3
f 5/5/4 6/6/5 1/1/1
f 4/4/3 1/1/1 6/6/5
f 7/7/1 2/2/2 8/8/6
f 2/2/2 7/7/1 3/3/1
f 9/9/7 7/7/1 10/10/8
f 7/7/1 8/8/6 10/10/8
