# Blender v3.5.1 OBJ File: 'f1.blend'
# www.blender.org
mtllib Mesh_94.mtl
o Mesh_94
v -0.285229 1.165335 -0.463823
v -0.210000 1.161308 -0.463175
v -0.210000 1.165335 -0.463823
v -0.285229 1.161308 -0.463175
v -0.285229 1.170060 -0.466072
v -0.210000 1.170060 -0.466072
v -0.285229 1.175641 -0.470305
v -0.210000 1.175641 -0.470305
v -0.285229 1.178651 -0.479171
v -0.210000 1.178651 -0.479171
v -0.285229 1.185836 -0.481824
v -0.210000 1.185836 -0.481824
v -0.210000 1.186428 -0.487683
v -0.285229 1.186427 -0.487683
v -0.210000 1.177999 -0.494412
v -0.285229 1.177999 -0.494412
v -0.210000 1.186428 -0.487683
v -0.285229 1.186427 -0.487683
v -0.210000 1.176685 -0.516146
v -0.285229 1.176685 -0.516146
v -0.210000 1.172493 -0.518792
v -0.285229 1.172493 -0.518792
v -0.210000 1.168378 -0.517528
v -0.285229 1.168378 -0.517528
v -0.210000 1.164480 -0.519147
v -0.285229 1.164480 -0.519147
v -0.210000 1.160575 -0.517447
v -0.285229 1.160575 -0.517447
v -0.210000 1.156704 -0.512586
v -0.285229 1.156704 -0.512586
v -0.285229 1.157532 -0.463742
v -0.210000 1.154036 -0.465499
v -0.210000 1.157532 -0.463742
v -0.285229 1.154036 -0.465499
v -0.285229 1.186427 -0.487683
v -0.285229 1.177999 -0.494412
v -0.285229 1.178651 -0.479171
v -0.285229 1.185836 -0.481824
v -0.292400 1.165335 -0.463823
v -0.292400 1.161308 -0.463175
v -0.292400 1.170060 -0.466072
v -0.292400 1.175641 -0.470305
v -0.292400 1.178651 -0.479171
v -0.292400 1.177999 -0.494412
v -0.292400 1.176685 -0.516146
v -0.292400 1.172493 -0.518792
v -0.292400 1.168378 -0.517528
v -0.292400 1.164480 -0.519147
v -0.292400 1.160575 -0.517447
v -0.292400 1.156704 -0.512586
v -0.292400 1.157532 -0.463742
v -0.292400 1.154036 -0.465499
v -0.292400 1.161308 -0.463175
v -0.292400 1.156704 -0.512586
v -0.292400 1.157532 -0.463742
v -0.292400 1.160575 -0.517447
v -0.292400 1.168378 -0.517528
v -0.292400 1.175641 -0.470305
v -0.292400 1.172493 -0.518792
v -0.292400 1.170060 -0.466072
v -0.292400 1.177999 -0.494412
v -0.292400 1.175641 -0.470305
v -0.292400 1.178651 -0.479171
v -0.292400 1.172493 -0.518792
v -0.292400 1.176685 -0.516146
v -0.292400 1.160575 -0.517447
v -0.292400 1.170060 -0.466072
v -0.292400 1.168378 -0.517528
v -0.292400 1.161308 -0.463175
v -0.292400 1.165335 -0.463823
v -0.292400 1.164480 -0.519147
v -0.134771 1.165335 -0.463823
v -0.134771 1.161308 -0.463175
v -0.134771 1.170060 -0.466072
v -0.134771 1.175641 -0.470305
v -0.134771 1.178651 -0.479171
v -0.134771 1.185836 -0.481824
v -0.134771 1.186428 -0.487683
v -0.134771 1.186428 -0.487683
v -0.134771 1.177999 -0.494412
v -0.134771 1.176685 -0.516146
v -0.134771 1.172493 -0.518792
v -0.134771 1.168378 -0.517528
v -0.134771 1.164480 -0.519147
v -0.134771 1.160575 -0.517447
v -0.134771 1.156704 -0.512586
v -0.134771 1.157532 -0.463742
v -0.134771 1.154036 -0.465499
v -0.134771 1.178651 -0.479171
v -0.134771 1.186428 -0.487683
v -0.134771 1.185836 -0.481824
v -0.134771 1.177999 -0.494412
v -0.127600 1.165335 -0.463823
v -0.127600 1.161308 -0.463175
v -0.127600 1.170060 -0.466072
v -0.127600 1.175641 -0.470305
v -0.127600 1.178651 -0.479171
v -0.127600 1.177999 -0.494412
v -0.127600 1.176685 -0.516146
v -0.127600 1.172493 -0.518792
v -0.127600 1.168378 -0.517528
v -0.127600 1.164480 -0.519147
v -0.127600 1.160575 -0.517447
v -0.127600 1.156704 -0.512586
v -0.127600 1.157532 -0.463742
v -0.127600 1.154036 -0.465499
v -0.127600 1.161308 -0.463175
v -0.127600 1.156704 -0.512586
v -0.127600 1.160575 -0.517447
v -0.127600 1.157532 -0.463742
v -0.127600 1.175641 -0.470305
v -0.127600 1.168378 -0.517528
v -0.127600 1.172493 -0.518792
v -0.127600 1.170060 -0.466072
v -0.127600 1.175641 -0.470305
v -0.127600 1.177999 -0.494412
v -0.127600 1.178651 -0.479171
v -0.127600 1.172493 -0.518792
v -0.127600 1.176685 -0.516146
v -0.127600 1.161308 -0.463175
v -0.127600 1.160575 -0.517447
v -0.127600 1.170060 -0.466072
v -0.127600 1.165335 -0.463823
v -0.127600 1.168378 -0.517528
v -0.127600 1.164480 -0.519147
v 0.285229 1.165335 -0.463823
v 0.210000 1.165335 -0.463823
v 0.210000 1.161308 -0.463175
v 0.285229 1.161308 -0.463175
v 0.210000 1.170060 -0.466072
v 0.285229 1.170060 -0.466072
v 0.210000 1.175641 -0.470305
v 0.285229 1.175641 -0.470305
v 0.285229 1.178651 -0.479171
v 0.210000 1.178651 -0.479171
v 0.210000 1.185836 -0.481824
v 0.285229 1.185836 -0.481824
v 0.285229 1.186428 -0.487683
v 0.210000 1.186428 -0.487683
v 0.210000 1.186428 -0.487683
v 0.285229 1.186428 -0.487683
v 0.285229 1.177999 -0.494412
v 0.210000 1.177999 -0.494412
v 0.210000 1.176685 -0.516146
v 0.285229 1.176685 -0.516146
v 0.285229 1.172493 -0.518792
v 0.210000 1.172493 -0.518792
v 0.285229 1.168379 -0.517528
v 0.210000 1.168379 -0.517528
v 0.285229 1.164480 -0.519147
v 0.210000 1.164480 -0.519147
v 0.285229 1.160575 -0.517447
v 0.210000 1.160575 -0.517447
v 0.210000 1.156704 -0.512586
v 0.285229 1.156704 -0.512586
v 0.210000 1.157532 -0.463742
v 0.285229 1.154036 -0.465499
v 0.285229 1.157532 -0.463742
v 0.210000 1.154036 -0.465499
v 0.285229 1.178651 -0.479171
v 0.285229 1.186428 -0.487683
v 0.285229 1.185836 -0.481824
v 0.285229 1.177999 -0.494412
v 0.292400 1.165335 -0.463823
v 0.292400 1.161308 -0.463175
v 0.292400 1.170060 -0.466072
v 0.292400 1.175641 -0.470305
v 0.292400 1.178651 -0.479171
v 0.292400 1.177999 -0.494412
v 0.292400 1.176685 -0.516146
v 0.292400 1.172493 -0.518792
v 0.292400 1.168379 -0.517528
v 0.292400 1.164480 -0.519147
v 0.292400 1.160575 -0.517447
v 0.292400 1.156704 -0.512586
v 0.292400 1.154036 -0.465499
v 0.292400 1.157532 -0.463742
v 0.292400 1.161308 -0.463175
v 0.292400 1.156704 -0.512586
v 0.292400 1.160575 -0.517447
v 0.292400 1.157532 -0.463742
v 0.292400 1.175641 -0.470305
v 0.292400 1.168379 -0.517528
v 0.292400 1.172493 -0.518792
v 0.292400 1.170060 -0.466072
v 0.292400 1.175641 -0.470305
v 0.292400 1.177999 -0.494412
v 0.292400 1.178651 -0.479171
v 0.292400 1.172493 -0.518792
v 0.292400 1.176685 -0.516146
v 0.292400 1.161308 -0.463175
v 0.292400 1.160575 -0.517447
v 0.292400 1.170060 -0.466072
v 0.292400 1.165335 -0.463823
v 0.292400 1.164480 -0.519147
v 0.134771 1.165335 -0.463823
v 0.134771 1.161308 -0.463175
v 0.134771 1.170060 -0.466072
v 0.134771 1.175641 -0.470305
v 0.134771 1.178651 -0.479171
v 0.134771 1.185836 -0.481824
v 0.134771 1.186428 -0.487683
v 0.134771 1.186428 -0.487683
v 0.134771 1.177999 -0.494412
v 0.134771 1.176685 -0.516146
v 0.134771 1.172493 -0.518792
v 0.134771 1.168379 -0.517528
v 0.134771 1.164480 -0.519147
v 0.134771 1.160575 -0.517447
v 0.134771 1.156704 -0.512586
v 0.134771 1.157532 -0.463742
v 0.134771 1.154036 -0.465499
v 0.134771 1.186428 -0.487683
v 0.134771 1.177999 -0.494412
v 0.134771 1.178651 -0.479171
v 0.134771 1.185836 -0.481824
v 0.127600 1.165335 -0.463823
v 0.127600 1.161308 -0.463175
v 0.127600 1.170060 -0.466072
v 0.127600 1.175641 -0.470305
v 0.127600 1.178651 -0.479171
v 0.127600 1.177999 -0.494412
v 0.127600 1.176685 -0.516146
v 0.127600 1.172493 -0.518792
v 0.127600 1.168379 -0.517528
v 0.127600 1.164480 -0.519147
v 0.127600 1.160575 -0.517447
v 0.127600 1.156704 -0.512586
v 0.127600 1.157532 -0.463742
v 0.127600 1.154036 -0.465499
v 0.127600 1.161308 -0.463175
v 0.127600 1.156704 -0.512586
v 0.127600 1.157532 -0.463742
v 0.127600 1.160575 -0.517447
v 0.127600 1.168379 -0.517528
v 0.127600 1.175641 -0.470305
v 0.127600 1.172493 -0.518792
v 0.127600 1.170060 -0.466072
v 0.127600 1.177999 -0.494412
v 0.127600 1.175641 -0.470305
v 0.127600 1.178651 -0.479171
v 0.127600 1.172493 -0.518792
v 0.127600 1.176685 -0.516146
v 0.127600 1.160575 -0.517447
v 0.127600 1.170060 -0.466072
v 0.127600 1.168379 -0.517528
v 0.127600 1.161308 -0.463175
v 0.127600 1.165335 -0.463823
v 0.127600 1.164480 -0.519147
vt 0.022727 -1.000000
vt 0.068182 -1.000000
vt 0.931818 -1.000000
vt 0.977273 -1.000000
vt 1.022727 0.000000
vt 0.250000 -1.000000
vt 0.340909 -1.000000
vt 0.204545 -1.000000
vt 0.068182 -1.000000
vt 0.750000 -1.000000
vt 0.113636 -1.000000
vt 0.795455 -1.000000
vt 0.068182 -1.000000
vt 0.750000 -1.000000
vt 0.931818 -1.000000
vt 0.159091 -1.000000
vt 0.113636 -1.000000
vt 0.295455 -1.000000
vt 0.840909 -1.000000
vt 0.068182 -1.000000
vt 1.022727 0.000000
vt 0.795455 -1.000000
vt 0.250000 -1.000000
vt 0.931818 -1.000000
vt 0.022727 -1.000000
vt 0.977273 -1.000000
vt 0.068182 -1.000000
vt 1.022727 0.000000
vt 0.250000 -1.000000
vt 0.204545 -1.000000
vt 0.340909 -1.000000
vt 0.750000 -1.000000
vt 0.068182 -1.000000
vt 0.113636 -1.000000
vt 0.795455 -1.000000
vt 0.750000 -1.000000
vt 0.068182 -1.000000
vt 0.931818 -1.000000
vt 0.159091 -1.000000
vt 0.113636 -1.000000
vt 1.022727 0.000000
vt 0.295455 -1.000000
vt 0.840909 -1.000000
vt 0.795455 -1.000000
vt 0.068182 -1.000000
vt 0.250000 -1.000000
vt 0.931818 -1.000000
vt 0.022727 -1.000000
vt 0.977273 -1.000000
vt 0.068182 -1.000000
vt 1.022727 0.000000
vt 0.250000 -1.000000
vt 0.204545 -1.000000
vt 0.340909 -1.000000
vt 0.750000 -1.000000
vt 0.068182 -1.000000
vt 0.113636 -1.000000
vt 0.795455 -1.000000
vt 0.750000 -1.000000
vt 0.068182 -1.000000
vt 0.931818 -1.000000
vt 0.159091 -1.000000
vt 0.113636 -1.000000
vt 1.022727 0.000000
vt 0.295455 -1.000000
vt 0.840909 -1.000000
vt 0.795455 -1.000000
vt 0.250000 -1.000000
vt 0.022727 -1.000000
vt 0.068182 -1.000000
vt 0.931818 -1.000000
vt 0.977273 -1.000000
vt 1.022727 0.000000
vt 0.250000 -1.000000
vt 0.340909 -1.000000
vt 0.204545 -1.000000
vt 0.068182 -1.000000
vt 0.750000 -1.000000
vt 0.113636 -1.000000
vt 0.795455 -1.000000
vt 0.068182 -1.000000
vt 0.750000 -1.000000
vt 0.931818 -1.000000
vt 0.159091 -1.000000
vt 0.113636 -1.000000
vt 0.295455 -1.000000
vt 0.840909 -1.000000
vt 0.068182 -1.000000
vt 1.022727 0.000000
vt 0.795455 -1.000000
vt 0.250000 -1.000000
vt 0.795455 -1.000000
vt 0.750000 0.000000
vt 0.795455 0.000000
vt 0.750000 -1.000000
vt 0.840909 -1.000000
vt 0.840909 0.000000
vt 0.886364 -1.000000
vt 0.886364 0.000000
vt 0.931818 -1.000000
vt 0.931818 0.000000
vt 0.977273 -1.000000
vt 0.977273 0.000000
vt 1.022727 0.000000
vt 1.022727 -1.000000
vt 0.068182 0.000000
vt 0.068182 -1.000000
vt 0.022727 0.000000
vt 0.022727 -1.000000
vt 0.113636 0.000000
vt 0.113636 -1.000000
vt 0.159091 0.000000
vt 0.159091 -1.000000
vt 0.204545 0.000000
vt 0.204545 -1.000000
vt 0.250000 0.000000
vt 0.250000 -1.000000
vt 0.295455 0.000000
vt 0.295455 -1.000000
vt 0.340909 0.000000
vt 0.340909 -1.000000
vt 0.704545 -1.000000
vt 0.659091 0.000000
vt 0.704545 0.000000
vt 0.659091 -1.000000
vt 0.795455 -1.000000
vt 0.750000 -1.000000
vt 0.840909 -1.000000
vt 0.886364 -1.000000
vt 0.931818 -1.000000
vt 0.068182 -1.000000
vt 0.113636 -1.000000
vt 0.159091 -1.000000
vt 0.204545 -1.000000
vt 0.250000 -1.000000
vt 0.295455 -1.000000
vt 0.340909 -1.000000
vt 0.704545 -1.000000
vt 0.659091 -1.000000
vt 0.795455 -1.000000
vt 0.750000 -1.000000
vt 0.840909 -1.000000
vt 0.886364 -1.000000
vt 0.931818 -1.000000
vt 0.977273 -1.000000
vt 1.022727 -1.000000
vt 0.022727 -1.000000
vt 0.068182 -1.000000
vt 0.113636 -1.000000
vt 0.159091 -1.000000
vt 0.204545 -1.000000
vt 0.250000 -1.000000
vt 0.295455 -1.000000
vt 0.340909 -1.000000
vt 0.704545 -1.000000
vt 0.659091 -1.000000
vt 0.795455 -1.000000
vt 0.750000 -1.000000
vt 0.840909 -1.000000
vt 0.886364 -1.000000
vt 0.931818 -1.000000
vt 0.068182 -1.000000
vt 0.113636 -1.000000
vt 0.159091 -1.000000
vt 0.204545 -1.000000
vt 0.250000 -1.000000
vt 0.295455 -1.000000
vt 0.340909 -1.000000
vt 0.704545 -1.000000
vt 0.659091 -1.000000
vt 0.795455 -1.000000
vt 0.795455 0.000000
vt 0.750000 0.000000
vt 0.750000 -1.000000
vt 0.840909 0.000000
vt 0.840909 -1.000000
vt 0.886364 0.000000
vt 0.886364 -1.000000
vt 0.931818 -1.000000
vt 0.931818 0.000000
vt 0.977273 0.000000
vt 0.977273 -1.000000
vt 1.022727 -1.000000
vt 1.022727 0.000000
vt 0.022727 0.000000
vt 0.022727 -1.000000
vt 0.068182 -1.000000
vt 0.068182 0.000000
vt 0.113636 0.000000
vt 0.113636 -1.000000
vt 0.159091 -1.000000
vt 0.159091 0.000000
vt 0.204545 -1.000000
vt 0.204545 0.000000
vt 0.250000 -1.000000
vt 0.250000 0.000000
vt 0.295455 -1.000000
vt 0.295455 0.000000
vt 0.340909 0.000000
vt 0.340909 -1.000000
vt 0.704545 0.000000
vt 0.659091 -1.000000
vt 0.704545 -1.000000
vt 0.659091 0.000000
vt 0.795455 -1.000000
vt 0.750000 -1.000000
vt 0.840909 -1.000000
vt 0.886364 -1.000000
vt 0.931818 -1.000000
vt 0.068182 -1.000000
vt 0.113636 -1.000000
vt 0.159091 -1.000000
vt 0.204545 -1.000000
vt 0.250000 -1.000000
vt 0.295455 -1.000000
vt 0.340909 -1.000000
vt 0.659091 -1.000000
vt 0.704545 -1.000000
vt 0.795455 -1.000000
vt 0.750000 -1.000000
vt 0.840909 -1.000000
vt 0.886364 -1.000000
vt 0.931818 -1.000000
vt 0.977273 -1.000000
vt 1.022727 -1.000000
vt 0.022727 -1.000000
vt 0.068182 -1.000000
vt 0.113636 -1.000000
vt 0.159091 -1.000000
vt 0.204545 -1.000000
vt 0.250000 -1.000000
vt 0.295455 -1.000000
vt 0.340909 -1.000000
vt 0.704545 -1.000000
vt 0.659091 -1.000000
vt 0.795455 -1.000000
vt 0.750000 -1.000000
vt 0.840909 -1.000000
vt 0.886364 -1.000000
vt 0.931818 -1.000000
vt 0.068182 -1.000000
vt 0.113636 -1.000000
vt 0.159091 -1.000000
vt 0.204545 -1.000000
vt 0.250000 -1.000000
vt 0.295455 -1.000000
vt 0.340909 -1.000000
vt 0.704545 -1.000000
vt 0.659091 -1.000000
vn -1.0000 0.0000 -0.0000
vn 1.0000 -0.0000 0.0000
vn -0.0000 0.2974 0.9548
vn 0.0000 0.0053 1.0000
vn -0.0000 0.5197 0.8543
vn -0.0000 0.8112 0.5848
vn -0.0000 0.9033 0.4290
vn -0.0000 0.7164 0.6977
vn -0.0000 0.7907 0.6122
vn 0.0000 0.9217 -0.3878
vn 0.0000 0.9218 -0.3877
vn -0.0000 0.8876 -0.4606
vn -0.0000 0.9676 -0.2526
vn -0.0000 0.9218 -0.3878
vn -0.0000 0.8608 -0.5090
vn 0.0000 0.1322 -0.9912
vn 0.0000 0.0478 -0.9989
vn 0.0000 -0.0085 -1.0000
vn 0.0000 -0.6088 -0.7933
vn 0.0000 -0.7823 -0.6229
vn 0.0000 -0.3025 0.9531
vn 0.0000 -0.4490 0.8935
vn 0.0000 0.9899 0.1418
vn 0.0000 0.9987 -0.0516
vn -0.0000 -0.0086 -1.0000
vn 0.0000 -0.3026 0.9531
vn 0.0000 0.8607 -0.5090
vn -0.0000 -0.6088 -0.7934
vn 0.0000 0.5198 0.8543
usemtl chrome
s off
f 35/1/1 36/2/1 37/3/1
f 35/1/1 37/3/1 38/4/1
f 53/5/1 54/6/1 55/7/1
f 54/6/1 53/5/1 56/8/1
f 57/9/1 58/10/1 59/11/1
f 58/10/1 57/9/1 60/12/1
f 61/13/1 62/14/1 63/15/1
f 64/16/1 62/14/1 61/13/1
f 61/13/1 65/17/1 64/16/1
f 66/18/1 67/19/1 68/20/1
f 67/19/1 69/21/1 70/22/1
f 67/19/1 66/18/1 69/21/1
f 66/18/1 68/20/1 71/23/1
f 89/24/2 90/25/2 91/26/2
f 90/25/2 89/24/2 92/27/2
f 107/28/2 108/29/2 109/30/2
f 108/29/2 107/28/2 110/31/2
f 111/32/2 112/33/2 113/34/2
f 112/33/2 111/32/2 114/35/2
f 115/36/2 116/37/2 117/38/2
f 116/37/2 115/36/2 118/39/2
f 116/37/2 118/39/2 119/40/2
f 120/41/2 121/42/2 122/43/2
f 120/41/2 122/43/2 123/44/2
f 124/45/2 121/42/2 125/46/2
f 121/42/2 124/45/2 122/43/2
f 160/47/2 161/48/2 162/49/2
f 161/48/2 160/47/2 163/50/2
f 178/51/2 179/52/2 180/53/2
f 179/52/2 178/51/2 181/54/2
f 182/55/2 183/56/2 184/57/2
f 183/56/2 182/55/2 185/58/2
f 186/59/2 187/60/2 188/61/2
f 187/60/2 186/59/2 189/62/2
f 187/60/2 189/62/2 190/63/2
f 191/64/2 192/65/2 193/66/2
f 191/64/2 193/66/2 194/67/2
f 183/56/2 192/65/2 195/68/2
f 192/65/2 183/56/2 193/66/2
f 213/69/1 214/70/1 215/71/1
f 213/69/1 215/71/1 216/72/1
f 231/73/1 232/74/1 233/75/1
f 232/74/1 231/73/1 234/76/1
f 235/77/1 236/78/1 237/79/1
f 236/78/1 235/77/1 238/80/1
f 239/81/1 240/82/1 241/83/1
f 242/84/1 240/82/1 239/81/1
f 239/81/1 243/85/1 242/84/1
f 244/86/1 245/87/1 246/88/1
f 245/87/1 247/89/1 248/90/1
f 245/87/1 244/86/1 247/89/1
f 244/86/1 246/88/1 249/91/1
s 1
f 1/92/3 2/93/4 3/94/3
f 2/93/4 1/92/3 4/95/4
f 5/96/5 3/94/3 6/97/5
f 3/94/3 5/96/5 1/92/3
f 7/98/6 6/97/5 8/99/6
f 6/97/5 7/98/6 5/96/5
f 9/100/7 8/99/6 10/101/8
f 8/99/6 9/100/7 7/98/6
f 11/102/9 10/101/8 12/103/9
f 10/101/8 11/102/9 9/100/7
f 13/104/10 11/102/9 12/103/9
f 11/102/9 13/104/10 14/105/11
f 15/106/12 16/107/13 17/108/14
f 18/109/10 17/108/14 16/107/13
f 19/110/15 16/107/13 15/106/12
f 16/107/13 19/110/15 20/111/15
f 21/112/16 20/111/15 19/110/15
f 20/111/15 21/112/16 22/113/16
f 23/114/17 24/115/17 21/112/16
f 22/113/16 21/112/16 24/115/17
f 25/116/18 24/115/17 23/114/17
f 24/115/17 25/116/18 26/117/18
f 27/118/19 26/117/18 25/116/18
f 26/117/18 27/118/19 28/119/19
f 29/120/20 28/119/19 27/118/19
f 28/119/19 29/120/20 30/121/20
f 31/122/21 32/123/22 33/124/21
f 32/123/22 31/122/21 34/125/22
f 2/93/4 31/122/21 33/124/21
f 31/122/21 2/93/4 4/95/4
f 39/126/3 4/95/4 1/92/3
f 4/95/4 39/126/3 40/127/4
f 41/128/5 1/92/3 5/96/5
f 1/92/3 41/128/5 39/126/3
f 42/129/6 5/96/5 7/98/6
f 5/96/5 42/129/6 41/128/5
f 43/130/23 7/98/6 9/100/7
f 7/98/6 43/130/23 42/129/6
f 20/111/15 44/131/24 16/107/13
f 44/131/24 20/111/15 45/132/15
f 45/132/15 22/113/16 46/133/16
f 22/113/16 45/132/15 20/111/15
f 24/115/17 47/134/17 22/113/16
f 46/133/16 22/113/16 47/134/17
f 26/117/18 47/134/17 24/115/17
f 47/134/17 26/117/18 48/135/25
f 28/119/19 48/135/25 26/117/18
f 48/135/25 28/119/19 49/136/19
f 30/121/20 49/136/19 28/119/19
f 49/136/19 30/121/20 50/137/20
f 51/138/26 34/125/22 31/122/21
f 34/125/22 51/138/26 52/139/22
f 4/95/4 51/138/26 31/122/21
f 51/138/26 4/95/4 40/127/4
f 44/131/24 9/100/7 16/107/13
f 9/100/7 44/131/24 43/130/23
f 72/140/3 3/94/3 2/93/4
f 72/140/3 2/93/4 73/141/4
f 74/142/5 6/97/5 3/94/3
f 74/142/5 3/94/3 72/140/3
f 8/99/6 74/142/5 75/143/6
f 74/142/5 8/99/6 6/97/5
f 76/144/7 10/101/8 8/99/6
f 76/144/7 8/99/6 75/143/6
f 12/103/9 76/144/7 77/145/9
f 76/144/7 12/103/9 10/101/8
f 13/104/10 77/145/9 78/146/10
f 77/145/9 13/104/10 12/103/9
f 17/108/14 79/147/10 80/148/13
f 17/108/14 80/148/13 15/106/12
f 19/110/15 80/148/13 81/149/15
f 80/148/13 19/110/15 15/106/12
f 81/149/15 21/112/16 19/110/15
f 21/112/16 81/149/15 82/150/16
f 21/112/16 82/150/16 83/151/17
f 21/112/16 83/151/17 23/114/17
f 83/151/17 25/116/18 23/114/17
f 25/116/18 83/151/17 84/152/18
f 84/152/18 27/118/19 25/116/18
f 27/118/19 84/152/18 85/153/19
f 29/120/20 85/153/19 86/154/20
f 85/153/19 29/120/20 27/118/19
f 87/155/26 33/124/21 32/123/22
f 87/155/26 32/123/22 88/156/22
f 2/93/4 87/155/26 73/141/4
f 87/155/26 2/93/4 33/124/21
f 93/157/3 72/140/3 73/141/4
f 93/157/3 73/141/4 94/158/4
f 95/159/5 74/142/5 72/140/3
f 95/159/5 72/140/3 93/157/3
f 75/143/6 95/159/5 96/160/6
f 95/159/5 75/143/6 74/142/5
f 97/161/23 76/144/7 75/143/6
f 97/161/23 75/143/6 96/160/6
f 81/149/15 98/162/24 99/163/15
f 98/162/24 81/149/15 80/148/13
f 99/163/15 82/150/16 81/149/15
f 82/150/16 99/163/15 100/164/16
f 82/150/16 100/164/16 101/165/17
f 82/150/16 101/165/17 83/151/17
f 101/165/17 84/152/18 83/151/17
f 84/152/18 101/165/17 102/166/18
f 102/166/18 85/153/19 84/152/18
f 85/153/19 102/166/18 103/167/19
f 86/154/20 103/167/19 104/168/20
f 103/167/19 86/154/20 85/153/19
f 105/169/21 87/155/26 88/156/22
f 105/169/21 88/156/22 106/170/22
f 73/141/4 105/169/21 94/158/4
f 105/169/21 73/141/4 87/155/26
f 80/148/13 76/144/7 98/162/24
f 98/162/24 76/144/7 97/161/23
f 126/171/3 127/172/3 128/173/4
f 126/171/3 128/173/4 129/174/4
f 130/175/5 126/171/3 131/176/5
f 126/171/3 130/175/5 127/172/3
f 132/177/6 131/176/5 133/178/6
f 131/176/5 132/177/6 130/175/5
f 134/179/7 135/180/8 132/177/6
f 134/179/7 132/177/6 133/178/6
f 136/181/9 134/179/7 137/182/9
f 134/179/7 136/181/9 135/180/8
f 138/183/10 139/184/10 136/181/9
f 138/183/10 136/181/9 137/182/9
f 140/185/14 141/186/14 142/187/13
f 140/185/14 142/187/13 143/188/12
f 144/189/15 142/187/13 145/190/27
f 142/187/13 144/189/15 143/188/12
f 144/189/15 145/190/27 146/191/16
f 144/189/15 146/191/16 147/192/16
f 147/192/16 146/191/16 148/193/17
f 147/192/16 148/193/17 149/194/17
f 149/194/17 148/193/17 150/195/18
f 149/194/17 150/195/18 151/196/18
f 151/196/18 150/195/18 152/197/19
f 151/196/18 152/197/19 153/198/28
f 154/199/20 152/197/19 155/200/20
f 152/197/19 154/199/20 153/198/28
f 156/201/21 157/202/22 158/203/21
f 157/202/22 156/201/21 159/204/22
f 128/173/4 158/203/21 129/174/4
f 158/203/21 128/173/4 156/201/21
f 164/205/3 126/171/3 129/174/4
f 164/205/3 129/174/4 165/206/4
f 131/176/5 164/205/3 166/207/29
f 164/205/3 131/176/5 126/171/3
f 133/178/6 166/207/29 167/208/6
f 166/207/29 133/178/6 131/176/5
f 168/209/23 134/179/7 133/178/6
f 168/209/23 133/178/6 167/208/6
f 145/190/27 169/210/24 170/211/27
f 169/210/24 145/190/27 142/187/13
f 170/211/27 171/212/16 145/190/27
f 145/190/27 171/212/16 146/191/16
f 146/191/16 171/212/16 172/213/17
f 146/191/16 172/213/17 148/193/17
f 148/193/17 172/213/17 173/214/18
f 148/193/17 173/214/18 150/195/18
f 150/195/18 173/214/18 174/215/19
f 150/195/18 174/215/19 152/197/19
f 155/200/20 174/215/19 175/216/20
f 174/215/19 155/200/20 152/197/19
f 158/203/21 176/217/22 177/218/21
f 176/217/22 158/203/21 157/202/22
f 129/174/4 177/218/21 165/206/4
f 177/218/21 129/174/4 158/203/21
f 142/187/13 134/179/7 169/210/24
f 169/210/24 134/179/7 168/209/23
f 196/219/3 128/173/4 127/172/3
f 128/173/4 196/219/3 197/220/4
f 198/221/5 127/172/3 130/175/5
f 127/172/3 198/221/5 196/219/3
f 199/222/6 130/175/5 132/177/6
f 130/175/5 199/222/6 198/221/5
f 200/223/7 132/177/6 135/180/8
f 132/177/6 200/223/7 199/222/6
f 201/224/9 135/180/8 136/181/9
f 135/180/8 201/224/9 200/223/7
f 139/184/10 201/224/9 136/181/9
f 201/224/9 139/184/10 202/225/10
f 143/188/12 203/226/10 140/185/14
f 203/226/10 143/188/12 204/227/13
f 144/189/15 204/227/13 143/188/12
f 204/227/13 144/189/15 205/228/15
f 147/192/16 205/228/15 144/189/15
f 205/228/15 147/192/16 206/229/16
f 149/194/17 206/229/16 147/192/16
f 206/229/16 149/194/17 207/230/17
f 151/196/18 207/230/17 149/194/17
f 207/230/17 151/196/18 208/231/25
f 153/198/28 208/231/25 151/196/18
f 208/231/25 153/198/28 209/232/19
f 154/199/20 209/232/19 153/198/28
f 209/232/19 154/199/20 210/233/20
f 211/234/26 159/204/22 156/201/21
f 159/204/22 211/234/26 212/235/22
f 197/220/4 156/201/21 128/173/4
f 156/201/21 197/220/4 211/234/26
f 217/236/3 197/220/4 196/219/3
f 197/220/4 217/236/3 218/237/4
f 219/238/5 196/219/3 198/221/5
f 196/219/3 219/238/5 217/236/3
f 220/239/6 198/221/5 199/222/6
f 198/221/5 220/239/6 219/238/5
f 221/240/23 199/222/6 200/223/7
f 199/222/6 221/240/23 220/239/6
f 205/228/15 222/241/24 204/227/13
f 222/241/24 205/228/15 223/242/15
f 223/242/15 206/229/16 224/243/16
f 206/229/16 223/242/15 205/228/15
f 207/230/17 224/243/16 206/229/16
f 224/243/16 207/230/17 225/244/17
f 208/231/25 225/244/17 207/230/17
f 225/244/17 208/231/25 226/245/25
f 209/232/19 226/245/25 208/231/25
f 226/245/25 209/232/19 227/246/19
f 210/233/20 227/246/19 209/232/19
f 227/246/19 210/233/20 228/247/20
f 229/248/26 212/235/22 211/234/26
f 212/235/22 229/248/26 230/249/22
f 197/220/4 229/248/26 211/234/26
f 229/248/26 197/220/4 218/237/4
f 222/241/24 200/223/7 204/227/13
f 200/223/7 222/241/24 221/240/23
