# Blender v3.5.1 OBJ File: 'f1.blend'
# www.blender.org
mtllib Mesh_161.mtl
o Mesh_161
v 0.890473 0.821129 -4.390695
v 0.890103 0.838788 -4.410910
v 0.890538 0.818017 -4.393033
v 0.890064 0.840650 -4.409120
v 0.889823 0.852160 -4.419056
v 0.889779 0.854294 -4.418726
v 0.890024 0.842573 -4.407335
v 0.889781 0.854199 -4.416932
v 0.890407 0.824277 -4.388339
v 0.990458 0.860769 -4.419705
v 0.934211 0.855161 -4.419821
v 0.934013 0.858427 -4.419971
v 0.990763 0.857568 -4.419810
v 1.088453 0.864808 -4.419365
v 1.088894 0.861687 -4.419793
v 0.990660 0.859251 -4.416927
v 1.088453 0.864808 -4.419365
v 0.990458 0.860769 -4.419705
v 1.088674 0.863073 -4.416440
v 0.934201 0.857078 -4.417315
v 0.934013 0.858427 -4.419971
v 0.907678 0.766607 -4.320924
v 0.940389 0.765773 -4.327640
v 0.939914 0.767330 -4.318858
v 0.907724 0.764860 -4.329256
v 0.891530 0.770685 -4.327693
v 0.891601 0.767306 -4.332668
v 0.907199 0.777238 -4.324433
v 0.891530 0.770685 -4.327693
v 0.907678 0.766607 -4.320924
v 0.891366 0.778506 -4.328446
v 0.938950 0.777798 -4.322282
v 0.939914 0.767330 -4.318858
v 0.940389 0.765773 -4.327640
v 0.957962 0.793667 -4.362961
v 0.999095 0.767415 -4.324735
v 0.939029 0.791618 -4.362881
v 1.097584 0.797332 -4.363064
v 1.099951 0.770566 -4.321057
v 1.094368 0.825764 -4.399858
v 0.955580 0.819171 -4.397211
v 0.905862 0.801344 -4.356257
v 0.937536 0.801847 -4.354393
v 0.890910 0.800273 -4.357523
v 0.903509 0.843282 -4.406669
v 0.934201 0.857078 -4.417315
v 0.902786 0.855870 -4.417528
v 0.935046 0.844146 -4.405866
v 0.904529 0.825086 -4.387301
v 0.936169 0.825671 -4.385892
v 0.890024 0.842573 -4.407335
v 0.890407 0.824277 -4.388339
v 0.889781 0.854199 -4.416932
v 0.935618 0.840417 -4.412521
v 0.992638 0.842859 -4.414134
v 0.937304 0.819372 -4.395121
v 1.091358 0.847022 -4.416177
v 0.891530 0.770685 -4.327693
v 0.891010 0.795514 -4.360021
v 0.891601 0.767306 -4.332668
v 0.891109 0.790775 -4.362401
v 0.891366 0.778506 -4.328446
v 0.890910 0.800273 -4.357523
v 0.902747 0.853820 -4.419828
v 0.903894 0.839059 -4.411623
v 0.889823 0.852160 -4.419056
v 0.890103 0.838788 -4.410910
v 0.890538 0.818017 -4.393033
v 0.905252 0.818063 -4.393958
v 0.991724 0.845700 -4.404424
v 1.088674 0.863073 -4.416440
v 0.990660 0.859251 -4.416927
v 1.090016 0.848739 -4.402598
v 1.091565 0.829120 -4.380143
v 0.953709 0.824171 -4.383355
v 0.955135 0.802751 -4.351040
v 1.093065 0.804968 -4.346794
v 0.996014 0.778807 -4.318414
v 1.094790 0.781155 -4.313518
v 0.891601 0.767306 -4.332668
v 0.906610 0.790478 -4.362836
v 0.907724 0.764860 -4.329256
v 0.891109 0.790775 -4.362401
v 1.097728 0.771348 -4.310450
v 0.999095 0.767415 -4.324735
v 1.099951 0.770566 -4.321057
v 0.997847 0.768631 -4.315147
v 0.997847 0.768631 -4.315147
v 1.097728 0.771348 -4.310450
v 0.889779 0.854294 -4.418726
v 0.902605 0.857125 -4.420121
v 0.902786 0.855870 -4.417528
v 0.902605 0.857125 -4.420121
v 0.889781 0.854199 -4.416932
v 0.889779 0.854294 -4.418726
v 0.905862 0.801344 -4.356257
v 0.891109 0.790775 -4.362401
v 0.890910 0.800273 -4.357523
v 0.906610 0.790478 -4.362836
v 0.904529 0.825086 -4.387301
v 0.890538 0.818017 -4.393033
v 0.905252 0.818063 -4.393958
v 0.890407 0.824277 -4.388339
v 0.939029 0.791618 -4.362881
v 0.906610 0.790478 -4.362836
v 0.937536 0.801847 -4.354393
v 0.905862 0.801344 -4.356257
v 0.955135 0.802751 -4.351040
v 0.957962 0.793667 -4.362961
v 0.957962 0.793667 -4.362961
v 0.953709 0.824171 -4.383355
v 0.955580 0.819171 -4.397211
v 0.955135 0.802751 -4.351040
v 0.953709 0.824171 -4.383355
v 0.937304 0.819372 -4.395121
v 0.955580 0.819171 -4.397211
v 0.936169 0.825671 -4.385892
v 0.905252 0.818063 -4.393958
v 0.936169 0.825671 -4.385892
v 0.904529 0.825086 -4.387301
v 0.937304 0.819372 -4.395121
vt -11.798894 -80.188873
vt -13.794350 -80.438103
vt -11.741475 -80.474777
vt -13.809201 -80.245132
vt -14.948246 -80.226425
vt -15.051148 -80.101585
vt -13.827682 -80.049484
vt -14.956305 -80.006027
vt -11.857392 -79.900116
vt 52.494507 -41.300797
vt 55.546597 -41.196487
vt 52.621109 -40.868389
vt 55.458340 -40.809071
vt 52.910721 -41.717178
vt 55.628891 -41.590622
vt -6.992146 -50.083172
vt -2.770691 -50.414959
vt -2.760967 -50.170002
vt -7.009969 -50.323421
vt -14.337847 -49.934399
vt -14.366009 -50.168835
vt 12.746000 27.084055
vt 20.078962 27.266661
vt 12.733268 27.292152
vt 20.092754 27.047529
vt 8.514066 27.113041
vt 8.502082 27.312099
vt 34.200363 -71.134880
vt 36.627327 -71.733513
vt 36.620041 -71.074860
vt 34.176651 -71.758560
vt 32.978390 -71.594345
vt 32.963764 -71.966759
vt -35.043167 -73.028870
vt -36.227005 -73.495049
vt -35.023983 -73.825844
vt -36.227005 -72.909035
vt -32.664265 -73.036774
vt -32.608521 -73.822266
vt -3.093117 -57.119434
vt -4.453050 -55.057812
vt -7.492538 -57.088535
vt -3.031836 -55.181602
vt -14.915855 -55.002430
vt -15.051148 -57.010799
vt -14.719606 -52.867966
vt -4.314656 -53.143959
vt -35.105492 -71.221336
vt -32.732441 -71.233345
vt -36.227005 -71.278122
vt -35.215893 -68.076683
vt -32.895584 -67.091576
vt -35.250359 -67.132744
vt -32.852573 -68.061470
vt -35.168098 -69.441078
vt -32.797436 -69.446884
vt -36.227001 -68.108665
vt -36.227001 -69.479500
vt -36.227001 -67.237518
vt -2.852966 -51.521427
vt -7.127275 -51.427971
vt -2.946151 -53.100277
vt -14.527523 -51.271091
vt -0.412020 -50.466053
vt -0.474790 -51.573387
vt 0.558472 -50.570053
vt 0.558472 -51.572014
vt 0.558472 -53.128338
vt -0.543563 -53.147972
vt -28.605230 -68.034019
vt -21.316889 -66.884941
vt -28.663647 -67.017410
vt -21.238838 -67.960617
vt -21.153584 -69.432404
vt -31.486160 -69.586784
vt -31.412952 -71.193245
vt -21.079138 -71.243576
vt -28.388887 -73.050705
vt -20.987289 -73.029846
vt 0.558479 -56.928051
vt -0.601984 -55.216106
vt -0.645286 -57.136555
vt 0.558479 -55.169559
vt 48.461533 -70.909073
vt 41.031895 -71.688545
vt 48.595501 -71.709579
vt 40.968594 -70.967239
vt -28.267540 -73.815697
vt -20.782637 -73.768913
vt 0.558472 -50.410156
vt -0.406632 -50.218273
vt 6.159293 27.129066
vt 6.147754 27.323271
vt 5.182643 27.084373
vt 5.182643 27.218828
vt 77.780945 -36.051773
vt 78.902458 -36.820202
vt 78.902458 -36.108578
vt 77.741989 -36.866772
vt -42.326469 -84.201736
vt -43.385361 -84.709213
vt -42.283325 -84.728844
vt -43.385361 -84.240173
vt 75.312149 -36.832253
vt 77.741989 -36.866772
vt 75.407890 -36.063778
vt 77.780945 -36.051773
vt 74.088394 -36.023697
vt 73.890938 -36.708462
vt -20.162535 -38.201500
vt -22.729935 -37.205418
vt -23.362110 -38.111027
vt -19.825640 -37.127712
vt 82.211006 82.858932
vt 83.540779 83.591614
vt 82.199524 83.905212
vt 83.535454 82.896194
vt -42.283325 -84.728844
vt -39.955811 -84.207542
vt -42.326469 -84.201736
vt -39.880749 -84.681137
vn -0.9998 -0.0209 -0.0000
vn -0.9998 -0.0210 0.0000
vn -0.9998 -0.0210 0.0003
vn -0.9998 -0.0209 0.0003
vn -0.0351 0.8700 -0.4918
vn 0.0051 -0.2408 -0.9706
vn -0.0338 0.8431 -0.5366
vn 0.0021 -0.1607 -0.9870
vn -0.0354 0.8731 -0.4862
vn 0.0008 -0.1244 -0.9922
vn -0.0358 0.7858 0.6174
vn -0.0354 0.8732 -0.4861
vn -0.0352 0.8700 -0.4918
vn -0.0350 0.7816 0.6227
vn -0.0366 0.7889 0.6134
vn -0.0338 0.8431 -0.5367
vn -0.1960 -0.4950 0.8465
vn 0.0355 -0.9716 -0.2339
vn -0.0408 -0.5195 0.8535
vn -0.0789 -0.9838 -0.1610
vn -0.3652 -0.4190 0.8313
vn -0.1561 -0.9646 -0.2124
vn -0.1385 0.5406 0.8298
vn -0.3651 -0.4190 0.8313
vn -0.1910 0.5696 0.7994
vn -0.0710 0.5695 0.8189
vn 0.0421 -0.8023 -0.5954
vn 0.0321 -0.9707 -0.2383
vn 0.0498 -0.7986 -0.5998
vn 0.0277 -0.8113 -0.5839
vn 0.0302 -0.9657 -0.2579
vn 0.0177 -0.7073 -0.7067
vn -0.0024 -0.6695 -0.7428
vn -0.0761 0.7952 0.6016
vn -0.0649 0.7867 0.6139
vn -0.0979 0.7935 0.6006
vn -0.0542 0.6885 0.7232
vn -0.0710 0.8136 0.5771
vn -0.0367 0.6977 0.7154
vn -0.0607 0.7256 0.6855
vn -0.0387 0.7311 0.6812
vn -0.0709 0.6825 0.7274
vn -0.0821 0.7206 0.6884
vn -0.1028 0.8189 0.5646
vn -0.0020 -0.5297 -0.8482
vn 0.0043 -0.4798 -0.8774
vn -0.0099 -0.6193 -0.7851
vn 0.0075 -0.4661 -0.8847
vn -0.0227 -0.2576 -0.9660
vn -0.0097 -0.5670 -0.8236
vn -0.0473 -0.2769 -0.9597
vn -0.0244 -0.5795 -0.8146
vn -0.0364 -0.6486 -0.7603
vn -0.0173 -0.6446 -0.7643
vn -0.0361 0.7095 0.7038
vn -0.0350 0.7817 0.6227
vn -0.0358 0.7858 0.6175
vn -0.0361 0.7152 0.6980
vn -0.0381 0.7838 0.6198
vn -0.0373 0.7652 0.6427
vn -0.0593 0.7941 0.6049
vn -0.0377 0.8084 0.5874
vn -0.0580 0.5691 0.8202
vn -0.0492 0.5443 0.8374
vn -0.1562 -0.9646 -0.2124
vn 0.0142 -0.7952 -0.6062
vn -0.0109 -0.7904 -0.6125
vn -0.0138 -0.6852 0.7283
vn -0.0311 -0.5404 0.8408
vn -0.0138 -0.6851 0.7283
vn -0.1877 0.7760 -0.6022
vn -0.1152 0.8130 -0.5708
vn -0.1152 0.8130 -0.5707
vn -0.1876 0.7761 -0.6020
vn 0.0113 0.4907 -0.8712
vn 0.0113 0.4907 -0.8713
vn 0.0163 -0.6490 0.7606
vn 0.0162 -0.6490 0.7606
vn 0.0054 0.6600 -0.7512
vn 0.0082 0.5817 -0.8133
vn 0.0055 0.6569 -0.7539
vn 0.0082 0.5818 -0.8133
vn 0.0028 0.7267 -0.6870
vn 0.0028 0.7266 -0.6870
vn -0.9793 -0.1874 -0.0761
vn -0.0482 -0.8996 0.4341
vn -0.0174 -0.8457 0.5334
vn -0.0132 -0.8375 0.5463
vn 0.0203 -0.7649 0.6438
vn -0.0131 -0.8375 0.5463
vn -0.0174 -0.8457 0.5333
usemtl carbon
s off
f 1/1/1 2/2/1 3/3/1
f 2/2/1 1/1/1 4/4/1
f 4/4/1 5/5/1 2/2/1
f 5/5/2 4/4/3 6/6/4
f 7/7/1 8/8/1 4/4/1
f 6/6/1 4/4/1 8/8/1
f 9/9/1 4/4/1 1/1/1
f 4/4/1 9/9/1 7/7/1
f 58/10/1 59/11/1 60/12/1
f 60/12/2 59/11/2 61/13/2
f 62/14/1 59/11/1 58/10/1
f 59/11/1 62/14/1 63/15/1
s 1
f 10/16/5 11/17/6 12/18/7
f 11/17/6 10/16/5 13/19/8
f 14/20/9 13/19/8 10/16/5
f 13/19/8 14/20/9 15/21/10
f 16/22/11 17/23/12 18/24/13
f 17/23/12 16/22/11 19/25/14
f 20/26/15 18/24/13 21/27/16
f 18/24/13 20/26/15 16/22/11
f 22/28/17 23/29/18 24/30/19
f 23/29/18 22/28/17 25/31/20
f 26/32/21 25/31/20 22/28/17
f 25/31/20 26/32/21 27/33/22
f 28/34/23 29/35/24 30/36/17
f 29/35/24 28/34/23 31/37/25
f 32/38/26 30/36/17 33/39/19
f 30/36/17 32/38/26 28/34/23
f 34/40/18 35/41/27 36/42/28
f 35/41/27 34/40/18 37/43/29
f 36/42/28 38/44/30 39/45/31
f 38/44/30 36/42/28 35/41/27
f 35/41/27 40/46/32 38/44/30
f 40/46/32 35/41/27 41/47/33
f 42/48/34 28/34/23 43/49/35
f 43/49/35 28/34/23 32/38/26
f 44/50/36 31/37/25 42/48/34
f 42/48/34 31/37/25 28/34/23
f 45/51/37 46/52/15 47/53/38
f 46/52/15 45/51/37 48/54/39
f 45/51/37 49/55/40 48/54/39
f 48/54/39 49/55/40 50/56/41
f 51/57/42 52/58/43 45/51/37
f 45/51/37 52/58/43 49/55/40
f 53/59/44 45/51/37 47/53/38
f 45/51/37 53/59/44 51/57/42
f 13/19/8 54/60/45 11/17/6
f 54/60/45 13/19/8 55/61/46
f 55/61/46 41/47/33 54/60/45
f 54/60/45 41/47/33 56/62/47
f 40/46/32 41/47/33 55/61/46
f 55/61/46 57/63/48 40/46/32
f 15/21/10 55/61/46 13/19/8
f 55/61/46 15/21/10 57/63/48
f 64/64/49 65/65/50 66/66/51
f 66/66/51 65/65/50 67/67/52
f 65/65/50 68/68/53 67/67/52
f 68/68/53 65/65/50 69/69/54
f 54/60/45 69/69/54 65/65/50
f 69/69/54 54/60/45 56/62/47
f 11/17/6 65/65/50 64/64/49
f 65/65/50 11/17/6 54/60/45
f 70/70/55 71/71/56 72/72/57
f 71/71/56 70/70/55 73/73/58
f 74/74/59 70/70/55 75/75/60
f 70/70/55 74/74/59 73/73/58
f 48/54/39 75/75/60 70/70/55
f 75/75/60 48/54/39 50/56/41
f 48/54/39 72/72/57 46/52/15
f 72/72/57 48/54/39 70/70/55
f 74/74/59 75/75/60 76/76/61
f 74/74/59 76/76/61 77/77/62
f 77/77/62 76/76/61 78/78/63
f 77/77/62 78/78/63 79/79/64
f 43/49/35 32/38/26 76/76/61
f 76/76/61 32/38/26 78/78/63
f 80/80/65 81/81/66 82/82/20
f 81/81/66 80/80/65 83/83/67
f 82/82/20 37/43/29 34/40/18
f 37/43/29 82/82/20 81/81/66
f 84/84/68 85/85/28 86/86/31
f 85/85/28 84/84/68 87/87/69
f 87/87/69 23/29/18 85/85/28
f 23/29/18 87/87/69 24/30/19
f 78/78/63 33/39/19 88/88/69
f 33/39/19 78/78/63 32/38/26
f 88/88/69 79/79/64 78/78/63
f 79/79/64 88/88/69 89/89/70
f 90/90/71 64/64/49 66/66/51
f 64/64/49 90/90/71 91/91/72
f 12/18/7 64/64/49 91/91/72
f 64/64/49 12/18/7 11/17/6
f 92/92/38 21/27/16 93/93/73
f 21/27/16 92/92/38 20/26/15
f 94/94/44 92/92/38 95/95/74
f 93/93/73 95/95/74 92/92/38
f 96/96/75 97/97/76 98/98/76
f 97/97/76 96/96/75 99/99/75
f 100/100/77 101/101/78 102/102/78
f 101/101/78 100/100/77 103/103/77
f 104/104/79 105/105/80 106/106/81
f 107/107/82 106/106/81 105/105/80
f 104/104/79 108/108/83 109/109/84
f 108/108/83 104/104/79 106/106/81
f 110/110/85 111/111/85 112/112/85
f 113/113/85 111/111/85 110/110/85
f 114/114/86 115/115/87 116/116/86
f 115/115/87 114/114/86 117/117/88
f 118/118/89 119/119/90 120/120/89
f 119/119/90 118/118/89 121/121/91
