# Blender v3.5.1 OBJ File: 'f1.blend'
# www.blender.org
mtllib Mesh_24.mtl
o Mesh_24
v 1.957905 0.790053 3.173511
v 1.988095 0.770880 3.193904
v 1.959585 0.766386 3.179968
v 1.986247 0.796917 3.186800
v 1.956327 0.812287 3.163048
v 1.984511 0.821379 3.175288
v 1.953662 0.849827 3.131624
v 1.981579 0.862681 3.140717
v 1.982938 0.843542 3.159787
v 1.954897 0.832431 3.148958
v 1.952669 0.863816 3.111428
v 1.980486 0.878073 3.118496
v 1.979679 0.889430 3.093913
v 1.951936 0.874140 3.089084
v 1.951481 0.880537 3.065310
v 1.979006 0.898902 3.040814
v 1.979179 0.896469 3.067757
v 1.951324 0.882749 3.040821
v 1.951482 0.880516 3.016335
v 1.979180 0.896445 3.013874
v 1.951937 0.874098 2.992566
v 1.979681 0.889384 2.987724
v 1.980489 0.878005 2.963151
v 1.952671 0.863755 2.970231
v 1.953665 0.849748 2.950047
v 1.981582 0.862594 2.940944
v 1.982941 0.843439 2.921890
v 1.954900 0.832337 2.932728
v 1.984515 0.821262 2.906409
v 1.956330 0.812181 2.918656
v 1.957909 0.789937 2.908212
v 1.988100 0.770747 2.887837
v 1.986252 0.796790 2.894918
v 1.959589 0.766265 2.901776
v 1.990009 0.743856 2.885584
v 1.961324 0.741823 2.899729
v 1.963060 0.717360 2.901937
v 1.991919 0.716941 2.888015
v 1.964745 0.693624 2.908270
v 1.966325 0.671364 2.918594
v 1.993772 0.690827 2.894982
v 1.995511 0.666336 2.906340
v 1.969980 0.619882 2.970380
v 2.000347 0.598217 2.987798
v 1.999532 0.609695 2.963315
v 1.970721 0.609449 2.992633
v 1.968977 0.634004 2.950232
v 1.998429 0.625233 2.941149
v 1.967747 0.651328 2.932776
v 1.997076 0.644292 2.921943
v 2.000836 0.591335 3.013955
v 1.971164 0.603194 3.016409
v 2.000998 0.589049 3.040950
v 1.971312 0.601116 3.040945
v 1.971164 0.603215 3.065479
v 1.970719 0.609491 3.089248
v 2.000835 0.591358 3.067942
v 2.000345 0.598263 3.094094
v 1.969978 0.619943 3.111492
v 1.999529 0.609763 3.118567
v 1.968974 0.634083 3.131626
v 1.998425 0.625320 3.140719
v 1.995507 0.666453 3.175492
v 1.967744 0.651422 3.149068
v 1.966321 0.671470 3.163232
v 1.997072 0.644396 3.159908
v 1.993768 0.690954 3.186829
v 1.964741 0.693740 3.173537
v 1.991915 0.717074 3.193773
v 1.963056 0.717481 3.179849
v 1.990004 0.743991 3.196180
v 1.961320 0.741946 3.182037
v 1.992764 0.799474 3.192534
v 1.994685 0.772413 3.199917
v 1.990960 0.824897 3.180570
v 1.989324 0.847931 3.164460
v 1.987912 0.867822 3.144640
v 1.986776 0.883818 3.121546
v 1.985938 0.895622 3.095997
v 1.985238 0.905466 3.040812
v 1.985418 0.902937 3.068813
v 1.985419 0.902912 3.012813
v 1.985940 0.895574 2.985635
v 1.987915 0.867731 2.937017
v 1.986779 0.883748 2.960097
v 1.989328 0.847823 2.917215
v 1.990964 0.824776 2.901125
v 1.994690 0.772275 2.881823
v 1.992768 0.799342 2.889182
v 1.996673 0.744327 2.879482
v 1.998659 0.716355 2.882007
v 2.000585 0.689214 2.889249
v 2.002391 0.663761 2.901053
v 2.006570 0.604895 2.960267
v 2.007417 0.592966 2.985712
v 2.005424 0.621043 2.937230
v 2.004017 0.640851 2.917269
v 2.007926 0.585813 3.012898
v 2.008094 0.583437 3.040953
v 2.007925 0.585838 3.069005
v 2.007416 0.593014 3.096185
v 2.006567 0.604965 3.121620
v 2.005420 0.621133 3.144642
v 2.004014 0.640959 3.164585
v 2.002387 0.663883 3.180782
v 2.000580 0.689346 3.192564
v 1.998654 0.716493 3.199781
v 1.996668 0.744467 3.202283
vt 0.529383 -0.595623
vt 0.543921 -0.580452
vt 0.533980 -0.578699
vt 0.538863 -0.599071
vt 0.521927 -0.611524
vt 0.530660 -0.616565
vt 0.499527 -0.638375
vt 0.506015 -0.646107
vt 0.519611 -0.632417
vt 0.511884 -0.625931
vt 0.485127 -0.648384
vt 0.490172 -0.657119
vt 0.472643 -0.665247
vt 0.469194 -0.655772
vt 0.452240 -0.660354
vt 0.434775 -0.672037
vt 0.453990 -0.670288
vt 0.434775 -0.661943
vt 0.417310 -0.660354
vt 0.415560 -0.670288
vt 0.400356 -0.655772
vt 0.396907 -0.665247
vt 0.379378 -0.657119
vt 0.384423 -0.648384
vt 0.370023 -0.638375
vt 0.363535 -0.646107
vt 0.349939 -0.632416
vt 0.357665 -0.625931
vt 0.338890 -0.616565
vt 0.347623 -0.611523
vt 0.340167 -0.595623
vt 0.325629 -0.580452
vt 0.330687 -0.599071
vt 0.335570 -0.578699
vt 0.324014 -0.561225
vt 0.334102 -0.561223
vt 0.335669 -0.543731
vt 0.325739 -0.541980
vt 0.340179 -0.526758
vt 0.347535 -0.510838
vt 0.330700 -0.523306
vt 0.338793 -0.505791
vt 0.384453 -0.474012
vt 0.396869 -0.457061
vt 0.379411 -0.465275
vt 0.400321 -0.466546
vt 0.370088 -0.484116
vt 0.363606 -0.476392
vt 0.357643 -0.496508
vt 0.349915 -0.490025
vt 0.415523 -0.452132
vt 0.417276 -0.462066
vt 0.434775 -0.450489
vt 0.434775 -0.460572
vt 0.452274 -0.462066
vt 0.469229 -0.466546
vt 0.454027 -0.452132
vt 0.472681 -0.457061
vt 0.485097 -0.474012
vt 0.490139 -0.465275
vt 0.499461 -0.484116
vt 0.505943 -0.476392
vt 0.530756 -0.505791
vt 0.511906 -0.496508
vt 0.522014 -0.510838
vt 0.519635 -0.490025
vt 0.538850 -0.523306
vt 0.529371 -0.526758
vt 0.543811 -0.541980
vt 0.533880 -0.543731
vt 0.545536 -0.561225
vt 0.535448 -0.561223
vt 0.542953 -0.600559
vt 0.548210 -0.581208
vt 0.534427 -0.618741
vt 0.522945 -0.635215
vt 0.508815 -0.649443
vt 0.492349 -0.660888
vt 0.474131 -0.669336
vt 0.434775 -0.676392
vt 0.454745 -0.674574
vt 0.414805 -0.674574
vt 0.395419 -0.669336
vt 0.360735 -0.649443
vt 0.377201 -0.660888
vt 0.346606 -0.635215
vt 0.335123 -0.618741
vt 0.321340 -0.581208
vt 0.326597 -0.600559
vt 0.319662 -0.561226
vt 0.321454 -0.541225
vt 0.326610 -0.521817
vt 0.335022 -0.503614
vt 0.377235 -0.461506
vt 0.395379 -0.452968
vt 0.360810 -0.473059
vt 0.346580 -0.487228
vt 0.414767 -0.447846
vt 0.434775 -0.446138
vt 0.454783 -0.447846
vt 0.474171 -0.452968
vt 0.492315 -0.461506
vt 0.508740 -0.473059
vt 0.522970 -0.487228
vt 0.534528 -0.503614
vt 0.542939 -0.521817
vt 0.548096 -0.541225
vt 0.549888 -0.561226
vn 0.4621 -0.2777 -0.8422
vn 0.5763 -0.1028 -0.8108
vn 0.4515 -0.1245 -0.8835
vn 0.5858 -0.2433 -0.7730
vn 0.4719 -0.4167 -0.7770
vn 0.5947 -0.3710 -0.7132
vn 0.4891 -0.6546 -0.5764
vn 0.6108 -0.5892 -0.5290
vn 0.6031 -0.4864 -0.6322
vn 0.4809 -0.5424 -0.6888
vn 0.4954 -0.7454 -0.4461
vn 0.6163 -0.6727 -0.4095
vn 0.6203 -0.7321 -0.2814
vn 0.4998 -0.8101 -0.3066
vn 0.5028 -0.8499 -0.1580
vn 0.6244 -0.7811 0.0003
vn 0.6231 -0.7686 -0.1450
vn 0.5040 -0.8637 0.0004
vn 0.5028 -0.8497 0.1587
vn 0.6231 -0.7685 0.1457
vn 0.4998 -0.8098 0.3073
vn 0.6203 -0.7319 0.2821
vn 0.6163 -0.6723 0.4101
vn 0.4953 -0.7450 0.4468
vn 0.4891 -0.6541 0.5770
vn 0.6108 -0.5887 0.5295
vn 0.6031 -0.4859 0.6326
vn 0.4809 -0.5418 0.6893
vn 0.5947 -0.3704 0.7136
vn 0.4718 -0.4160 0.7774
vn 0.4621 -0.2769 0.8425
vn 0.5763 -0.1021 0.8109
vn 0.5858 -0.2427 0.7733
vn 0.4515 -0.1238 0.8837
vn 0.5656 0.0428 0.8236
vn 0.4400 0.0342 0.8973
vn 0.4290 0.1871 0.8837
vn 0.5554 0.1832 0.8112
vn 0.4187 0.3353 0.8440
vn 0.4087 0.4791 0.7768
vn 0.5459 0.3193 0.7746
vn 0.5370 0.4511 0.7128
vn 0.3853 0.8053 0.4506
vn 0.5114 0.8120 0.2812
vn 0.5153 0.7507 0.4135
vn 0.3808 0.8724 0.3065
vn 0.3914 0.7172 0.5765
vn 0.5208 0.6698 0.5292
vn 0.3993 0.6089 0.6855
vn 0.5281 0.5703 0.6292
vn 0.5083 0.8497 0.1404
vn 0.3776 0.9132 0.1529
vn 0.5072 0.8618 -0.0004
vn 0.3766 0.9264 -0.0004
vn 0.3776 0.9131 -0.1537
vn 0.3808 0.8721 -0.3073
vn 0.5083 0.8496 -0.1411
vn 0.5114 0.8118 -0.2819
vn 0.3853 0.8049 -0.4513
vn 0.5153 0.7503 -0.4141
vn 0.3914 0.7167 -0.5772
vn 0.5209 0.6693 -0.5298
vn 0.5370 0.4505 -0.7132
vn 0.3993 0.6083 -0.6860
vn 0.4087 0.4784 -0.7772
vn 0.5282 0.5697 -0.6297
vn 0.5460 0.3186 -0.7748
vn 0.4187 0.3346 -0.8442
vn 0.5554 0.1825 -0.8113
vn 0.4291 0.1863 -0.8838
vn 0.5656 0.0421 -0.8236
vn 0.4401 0.0334 -0.8973
vn 0.6907 -0.2063 -0.6930
vn 0.6820 -0.0804 -0.7269
vn 0.6987 -0.3209 -0.6394
vn 0.7062 -0.4244 -0.5667
vn 0.7130 -0.5165 -0.4742
vn 0.7180 -0.5913 -0.3672
vn 0.7217 -0.6446 -0.2523
vn 0.7252 -0.6885 0.0003
vn 0.7242 -0.6773 -0.1299
vn 0.7241 -0.6772 0.1305
vn 0.7217 -0.6444 0.2529
vn 0.7130 -0.5160 0.4747
vn 0.7181 -0.5909 0.3677
vn 0.7062 -0.4239 0.5671
vn 0.6987 -0.3203 0.6397
vn 0.6820 -0.0798 0.7270
vn 0.6907 -0.2057 0.6932
vn 0.6726 0.0501 0.7383
vn 0.6635 0.1760 0.7272
vn 0.6549 0.2981 0.6944
vn 0.6468 0.4162 0.6391
vn 0.6275 0.6848 0.3706
vn 0.6238 0.7398 0.2521
vn 0.6325 0.6123 0.4745
vn 0.6390 0.5229 0.5641
vn 0.6212 0.7735 0.1259
vn 0.6203 0.7844 -0.0003
vn 0.6212 0.7734 -0.1266
vn 0.6238 0.7396 -0.2528
vn 0.6275 0.6844 -0.3712
vn 0.6325 0.6118 -0.4749
vn 0.6390 0.5224 -0.5645
vn 0.6469 0.4156 -0.6394
vn 0.6550 0.2975 -0.6946
vn 0.6636 0.1753 -0.7273
vn 0.6726 0.0494 -0.7383
usemtl caliper_color
s 1
f 1/1/1 2/2/2 3/3/3
f 2/2/2 1/1/1 4/4/4
f 5/5/5 4/4/4 1/1/1
f 4/4/4 5/5/5 6/6/6
f 7/7/7 8/8/8 9/9/9
f 7/7/7 9/9/9 10/10/10
f 10/10/10 9/9/9 6/6/6
f 10/10/10 6/6/6 5/5/5
f 11/11/11 12/12/12 7/7/7
f 8/8/8 7/7/7 12/12/12
f 12/12/12 11/11/11 13/13/13
f 11/11/11 14/14/14 13/13/13
f 15/15/15 16/16/16 17/17/17
f 16/16/16 15/15/15 18/18/18
f 14/14/14 17/17/17 13/13/13
f 17/17/17 14/14/14 15/15/15
f 16/16/16 19/19/19 20/20/20
f 19/19/19 16/16/16 18/18/18
f 20/20/20 21/21/21 22/22/22
f 21/21/21 20/20/20 19/19/19
f 23/23/23 24/24/24 25/25/25
f 23/23/23 25/25/25 26/26/26
f 22/22/22 21/21/21 24/24/24
f 22/22/22 24/24/24 23/23/23
f 25/25/25 27/27/27 26/26/26
f 27/27/27 25/25/25 28/28/28
f 28/28/28 29/29/29 27/27/27
f 29/29/29 28/28/28 30/30/30
f 31/31/31 32/32/32 33/33/33
f 32/32/32 31/31/31 34/34/34
f 30/30/30 33/33/33 29/29/29
f 33/33/33 30/30/30 31/31/31
f 34/34/34 35/35/35 32/32/32
f 35/35/35 34/34/34 36/36/36
f 37/37/37 35/35/35 36/36/36
f 35/35/35 37/37/37 38/38/38
f 39/39/39 40/40/40 41/41/41
f 41/41/41 40/40/40 42/42/42
f 37/37/37 39/39/39 38/38/38
f 38/38/38 39/39/39 41/41/41
f 43/43/43 44/44/44 45/45/45
f 44/44/44 43/43/43 46/46/46
f 47/47/47 45/45/45 48/48/48
f 45/45/45 47/47/47 43/43/43
f 42/42/42 49/49/49 50/50/50
f 49/49/49 42/42/42 40/40/40
f 47/47/47 48/48/48 49/49/49
f 50/50/50 49/49/49 48/48/48
f 46/46/46 51/51/51 44/44/44
f 51/51/51 46/46/46 52/52/52
f 52/52/52 53/53/53 51/51/51
f 53/53/53 52/52/52 54/54/54
f 55/55/55 56/56/56 57/57/57
f 57/57/57 56/56/56 58/58/58
f 55/55/55 53/53/53 54/54/54
f 53/53/53 55/55/55 57/57/57
f 56/56/56 59/59/59 58/58/58
f 58/58/58 59/59/59 60/60/60
f 60/60/60 59/59/59 61/61/61
f 60/60/60 61/61/61 62/62/62
f 63/63/63 64/64/64 65/65/65
f 64/64/64 63/63/63 66/66/66
f 62/62/62 61/61/61 64/64/64
f 62/62/62 64/64/64 66/66/66
f 67/67/67 65/65/65 68/68/68
f 65/65/65 67/67/67 63/63/63
f 69/69/69 68/68/68 70/70/70
f 68/68/68 69/69/69 67/67/67
f 2/2/2 71/71/71 3/3/3
f 3/3/3 71/71/71 72/72/72
f 71/71/71 70/70/70 72/72/72
f 70/70/70 71/71/71 69/69/69
f 73/73/73 74/74/74 4/4/4
f 4/4/4 74/74/74 2/2/2
f 4/4/4 75/75/75 73/73/73
f 75/75/75 4/4/4 6/6/6
f 8/8/8 76/76/76 9/9/9
f 76/76/76 8/8/8 77/77/77
f 9/9/9 75/75/75 6/6/6
f 75/75/75 9/9/9 76/76/76
f 8/8/8 78/78/78 77/77/77
f 78/78/78 8/8/8 12/12/12
f 12/12/12 79/79/79 78/78/78
f 79/79/79 12/12/12 13/13/13
f 17/17/17 80/80/80 81/81/81
f 80/80/80 17/17/17 16/16/16
f 13/13/13 81/81/81 79/79/79
f 81/81/81 13/13/13 17/17/17
f 16/16/16 20/20/20 80/80/80
f 80/80/80 20/20/20 82/82/82
f 20/20/20 22/22/22 82/82/82
f 82/82/82 22/22/22 83/83/83
f 84/84/84 85/85/85 26/26/26
f 26/26/26 85/85/85 23/23/23
f 85/85/85 83/83/83 23/23/23
f 83/83/83 22/22/22 23/23/23
f 86/86/86 26/26/26 27/27/27
f 26/26/26 86/86/86 84/84/84
f 27/27/27 87/87/87 86/86/86
f 87/87/87 27/27/27 29/29/29
f 33/33/33 88/88/88 89/89/89
f 88/88/88 33/33/33 32/32/32
f 33/33/33 87/87/87 29/29/29
f 87/87/87 33/33/33 89/89/89
f 32/32/32 90/90/90 88/88/88
f 90/90/90 32/32/32 35/35/35
f 38/38/38 90/90/90 35/35/35
f 90/90/90 38/38/38 91/91/91
f 41/41/41 42/42/42 92/92/92
f 93/93/93 92/92/92 42/42/42
f 38/38/38 41/41/41 91/91/91
f 91/91/91 41/41/41 92/92/92
f 44/44/44 94/94/94 45/45/45
f 94/94/94 44/44/44 95/95/95
f 45/45/45 96/96/96 48/48/48
f 96/96/96 45/45/45 94/94/94
f 42/42/42 97/97/97 93/93/93
f 97/97/97 42/42/42 50/50/50
f 50/50/50 96/96/96 97/97/97
f 96/96/96 50/50/50 48/48/48
f 44/44/44 98/98/98 95/95/95
f 98/98/98 44/44/44 51/51/51
f 51/51/51 99/99/99 98/98/98
f 99/99/99 51/51/51 53/53/53
f 57/57/57 58/58/58 100/100/100
f 100/100/100 58/58/58 101/101/101
f 53/53/53 57/57/57 99/99/99
f 99/99/99 57/57/57 100/100/100
f 58/58/58 102/102/102 101/101/101
f 102/102/102 58/58/58 60/60/60
f 60/60/60 103/103/103 102/102/102
f 103/103/103 60/60/60 62/62/62
f 104/104/104 63/63/63 105/105/105
f 63/63/63 104/104/104 66/66/66
f 103/103/103 66/66/66 104/104/104
f 66/66/66 103/103/103 62/62/62
f 63/63/63 106/106/106 105/105/105
f 106/106/106 63/63/63 67/67/67
f 107/107/107 67/67/67 69/69/69
f 67/67/67 107/107/107 106/106/106
f 74/74/74 108/108/108 2/2/2
f 2/2/2 108/108/108 71/71/71
f 108/108/108 69/69/69 71/71/71
f 69/69/69 108/108/108 107/107/107
