# Blender v3.5.1 OBJ File: 'f1.blend'
# www.blender.org
mtllib Mesh_56.mtl
o Mesh_56
v -1.680688 0.375297 4.179264
v -1.697306 0.397887 4.047583
v -1.696961 0.369828 4.048322
v -1.680252 0.367002 4.179838
v -1.674105 0.349433 4.335689
v -1.676897 0.362888 4.223661
v -1.676352 0.352073 4.224061
v -1.673430 0.337463 4.336353
v -1.675204 0.374345 4.180139
v -1.691476 0.368876 4.049195
v -1.691822 0.396935 4.048457
v -1.674768 0.366050 4.180712
v -1.667947 0.336511 4.337223
v -1.670868 0.351121 4.224935
v -1.668621 0.349702 4.336560
v -1.671413 0.361935 4.224535
v -1.694564 0.397411 4.048020
v -1.696961 0.369828 4.048322
v -1.697306 0.397887 4.047583
v -1.694218 0.369352 4.048759
v -1.677965 0.375799 4.179677
v -1.694564 0.397411 4.048020
v -1.680688 0.375297 4.179264
v -1.697306 0.397887 4.047583
v -1.694218 0.369352 4.048759
v -1.677491 0.365548 4.180299
v -1.680252 0.367002 4.179838
v -1.696961 0.369828 4.048322
v -1.673585 0.350619 4.224517
v -1.670657 0.336010 4.336820
v -1.673430 0.337463 4.336353
v -1.676352 0.352073 4.224061
v -1.671395 0.349934 4.336093
v -1.674181 0.363389 4.224079
v -1.674105 0.349433 4.335689
v -1.676897 0.362888 4.223661
v -1.691822 0.396935 4.048457
v -1.691476 0.368876 4.049195
v -1.691822 0.396935 4.048457
v -1.675204 0.374345 4.180139
v -1.691476 0.368876 4.049195
v -1.674768 0.366050 4.180712
v -1.670868 0.351121 4.224935
v -1.667947 0.336511 4.337223
v -1.671413 0.361935 4.224535
v -1.668621 0.349702 4.336560
v 1.680252 0.367002 4.179838
v 1.696961 0.369828 4.048322
v 1.680688 0.375297 4.179264
v 1.697306 0.397887 4.047583
v 1.674105 0.349433 4.335689
v 1.676353 0.352073 4.224061
v 1.676897 0.362888 4.223661
v 1.673430 0.337463 4.336353
v 1.675204 0.374345 4.180139
v 1.691822 0.396935 4.048457
v 1.691476 0.368876 4.049195
v 1.674768 0.366050 4.180712
v 1.670868 0.351121 4.224935
v 1.667947 0.336511 4.337223
v 1.668622 0.349702 4.336560
v 1.671413 0.361935 4.224535
v 1.697306 0.397887 4.047583
v 1.696961 0.369828 4.048322
v 1.694564 0.397411 4.048020
v 1.694218 0.369352 4.048759
v 1.694564 0.397411 4.048020
v 1.680688 0.375297 4.179264
v 1.697306 0.397887 4.047583
v 1.677965 0.375799 4.179677
v 1.677491 0.365548 4.180299
v 1.694218 0.369352 4.048759
v 1.680252 0.367002 4.179838
v 1.696961 0.369828 4.048322
v 1.670657 0.336010 4.336820
v 1.673585 0.350619 4.224517
v 1.673430 0.337463 4.336353
v 1.676353 0.352073 4.224061
v 1.674181 0.363389 4.224079
v 1.674105 0.349433 4.335689
v 1.676897 0.362888 4.223661
v 1.671395 0.349934 4.336093
v 1.691822 0.396935 4.048457
v 1.691476 0.368876 4.049195
v 1.691822 0.396935 4.048457
v 1.675204 0.374345 4.180139
v 1.674768 0.366050 4.180712
v 1.691476 0.368876 4.049195
v 1.667947 0.336511 4.337223
v 1.670868 0.351121 4.224935
v 1.671413 0.361935 4.224535
v 1.668622 0.349702 4.336560
vt 0.735114 0.927020
vt 0.734154 0.927020
vt 0.736511 0.927020
vt 0.732757 0.927020
vt 0.733717 0.927021
vt 0.731360 0.927021
vt 0.736511 0.927020
vt 0.734154 0.927020
vt 0.735114 0.927020
vt 0.732757 0.927020
vt 0.733717 0.927021
vt 0.731360 0.927021
vt 0.730524 0.947838
vt 0.736511 0.927020
vt 0.734154 0.927020
vt 0.728307 0.947777
vt 0.720511 0.983851
vt 0.724375 0.969339
vt 0.722305 0.969214
vt 0.718390 0.983851
vt 0.727730 0.947838
vt 0.731360 0.927021
vt 0.733717 0.927021
vt 0.725513 0.947777
vt 0.715597 0.983849
vt 0.719511 0.969214
vt 0.717717 0.983849
vt 0.721581 0.969339
vt 0.729221 0.947841
vt 0.735114 0.927020
vt 0.730524 0.947838
vt 0.736511 0.927020
vt 0.732757 0.927020
vt 0.726816 0.947775
vt 0.728307 0.947777
vt 0.734154 0.927020
vt 0.720811 0.969208
vt 0.716893 0.983850
vt 0.718390 0.983851
vt 0.722305 0.969214
vt 0.719214 0.983850
vt 0.723075 0.969345
vt 0.720511 0.983851
vt 0.724375 0.969339
vt 0.733717 0.927021
vt 0.727730 0.947838
vt 0.731360 0.927021
vt 0.725513 0.947777
vt 0.719511 0.969214
vt 0.715597 0.983849
vt 0.721581 0.969339
vt 0.717717 0.983849
vt 0.728307 0.947777
vt 0.734154 0.927020
vt 0.730524 0.947838
vt 0.736511 0.927020
vt 0.720511 0.983851
vt 0.722305 0.969214
vt 0.724375 0.969339
vt 0.718390 0.983851
vt 0.727730 0.947838
vt 0.733717 0.927021
vt 0.731360 0.927021
vt 0.725513 0.947777
vt 0.719511 0.969214
vt 0.715597 0.983849
vt 0.717717 0.983849
vt 0.721581 0.969339
vt 0.735114 0.927020
vt 0.730524 0.947838
vt 0.736511 0.927020
vt 0.729221 0.947841
vt 0.726816 0.947775
vt 0.732757 0.927020
vt 0.728307 0.947777
vt 0.734154 0.927020
vt 0.716893 0.983850
vt 0.720811 0.969208
vt 0.718390 0.983851
vt 0.722305 0.969214
vt 0.723075 0.969345
vt 0.720511 0.983851
vt 0.724375 0.969339
vt 0.719214 0.983850
vt 0.733717 0.927021
vt 0.727730 0.947838
vt 0.725513 0.947777
vt 0.731360 0.927021
vt 0.715597 0.983849
vt 0.719511 0.969214
vt 0.721581 0.969339
vt 0.717717 0.983849
vn 0.1536 -0.0241 -0.9878
vn 0.1535 -0.0241 -0.9878
vn 0.1528 -0.0241 -0.9880
vn 0.1532 -0.0242 -0.9879
vn 0.1532 -0.0241 -0.9879
vn -0.1536 -0.0241 -0.9878
vn -0.1535 -0.0241 -0.9879
vn -0.1531 -0.0241 -0.9879
vn -0.1532 -0.0241 -0.9879
vn -0.1532 -0.0242 -0.9879
vn -0.1528 -0.0241 -0.9880
vn -0.1535 -0.0241 -0.9878
vn -0.9943 -0.0292 0.1030
vn -0.9922 -0.0169 0.1239
vn -0.9921 -0.0168 0.1240
vn -0.9950 -0.0344 0.0942
vn -0.9984 -0.0525 0.0189
vn -0.9976 -0.0496 0.0491
vn -0.9979 -0.0505 0.0406
vn -0.9984 -0.0526 0.0189
vn 0.9943 0.0292 -0.1030
vn 0.9922 0.0169 -0.1239
vn 0.9921 0.0169 -0.1240
vn 0.9950 0.0344 -0.0942
vn 0.9986 0.0501 -0.0195
vn 0.9980 0.0489 -0.0409
vn 0.9976 0.0485 -0.0493
vn 0.1171 0.9727 0.2002
vn 0.1087 0.9825 0.1512
vn -0.1120 0.9693 0.2188
vn -0.0309 0.9851 0.1693
vn -0.1963 -0.9805 0.0002
vn -0.1476 -0.9761 -0.1594
vn -0.3700 -0.9245 -0.0917
vn -0.3334 -0.9426 0.0186
vn -0.1110 -0.9699 -0.2168
vn -0.0894 -0.9880 -0.1262
vn -0.4481 -0.8879 -0.1038
vn -0.4307 -0.8811 -0.1952
vn 0.0653 0.9913 0.1145
vn 0.0896 0.9782 0.1872
vn -0.1979 0.9726 0.1218
vn -0.2085 0.9553 0.2097
vn 0.3112 0.9429 0.1190
vn 0.3831 0.9071 0.1744
vn 0.0087 -0.9996 -0.0263
vn 0.1315 -0.9703 -0.2030
vn 0.2093 -0.9524 -0.2216
vn 0.1991 -0.9711 -0.1315
vn 0.3381 0.9296 0.1470
vn 0.2738 0.9563 0.1028
vn 0.9950 -0.0344 0.0942
vn 0.9921 -0.0169 0.1240
vn 0.9943 -0.0292 0.1030
vn 0.9984 -0.0526 0.0189
vn 0.9979 -0.0503 0.0406
vn 0.9976 -0.0496 0.0491
vn -0.9943 0.0293 -0.1030
vn -0.9921 0.0168 -0.1240
vn -0.9921 0.0169 -0.1240
vn -0.9950 0.0344 -0.0942
vn -0.9980 0.0488 -0.0409
vn -0.9986 0.0501 -0.0195
vn -0.9986 0.0500 -0.0195
vn -0.9976 0.0485 -0.0493
vn -0.1087 0.9825 0.1512
vn 0.1120 0.9693 0.2188
vn 0.0310 0.9851 0.1693
vn -0.1171 0.9727 0.2001
vn 0.1475 -0.9761 -0.1594
vn 0.1963 -0.9805 0.0002
vn 0.3700 -0.9245 -0.0917
vn 0.3334 -0.9426 0.0186
vn 0.0894 -0.9880 -0.1262
vn 0.1110 -0.9699 -0.2168
vn 0.4481 -0.8879 -0.1038
vn 0.4307 -0.8811 -0.1952
vn -0.0896 0.9782 0.1872
vn 0.1979 0.9726 0.1218
vn 0.2085 0.9553 0.2097
vn -0.0653 0.9913 0.1145
vn -0.3112 0.9429 0.1190
vn -0.3832 0.9071 0.1744
vn -0.1315 -0.9703 -0.2030
vn -0.0087 -0.9996 -0.0263
vn -0.1990 -0.9711 -0.1315
vn -0.2093 -0.9524 -0.2216
vn -0.3381 0.9296 0.1470
vn -0.2738 0.9563 0.1028
usemtl chrome
s off
f 17/1/1 18/2/1 19/3/1
f 18/2/2 17/1/2 20/4/2
f 37/5/3 20/4/4 17/1/4
f 20/4/2 37/5/2 38/6/5
f 63/7/6 64/8/6 65/9/6
f 65/9/7 64/8/7 66/10/8
f 65/9/9 66/10/10 83/11/11
f 83/11/12 66/10/12 84/12/9
s 1
f 1/13/13 2/14/14 3/15/15
f 1/13/13 3/15/15 4/16/16
f 5/17/17 6/18/18 7/19/19
f 5/17/17 7/19/19 8/20/20
f 6/18/18 1/13/13 4/16/16
f 6/18/18 4/16/16 7/19/19
f 9/21/21 10/22/22 11/23/23
f 10/22/22 9/21/21 12/24/24
f 13/25/25 14/26/26 15/27/25
f 16/28/27 15/27/25 14/26/26
f 14/26/26 12/24/24 16/28/27
f 9/21/21 16/28/27 12/24/24
f 21/29/28 22/30/29 23/31/30
f 24/32/31 23/31/30 22/30/29
f 25/33/32 26/34/33 27/35/34
f 27/35/34 28/36/35 25/33/32
f 29/37/36 30/38/37 31/39/38
f 31/39/38 32/40/39 29/37/36
f 33/41/40 34/42/41 35/43/42
f 36/44/43 35/43/42 34/42/41
f 26/34/33 29/37/36 32/40/39
f 32/40/39 27/35/34 26/34/33
f 34/42/41 21/29/28 36/44/43
f 23/31/30 36/44/43 21/29/28
f 22/30/29 21/29/28 39/45/44
f 39/45/44 21/29/28 40/46/45
f 41/47/46 42/48/47 26/34/33
f 26/34/33 25/33/32 41/47/46
f 43/49/48 44/50/49 30/38/37
f 30/38/37 29/37/36 43/49/48
f 34/42/41 33/41/40 45/51/50
f 45/51/50 33/41/40 46/52/51
f 42/48/47 43/49/48 29/37/36
f 29/37/36 26/34/33 42/48/47
f 21/29/28 34/42/41 40/46/45
f 40/46/45 34/42/41 45/51/50
f 47/53/52 48/54/53 49/55/54
f 50/56/53 49/55/54 48/54/53
f 51/57/55 52/58/56 53/59/57
f 54/60/55 52/58/56 51/57/55
f 53/59/57 47/53/52 49/55/54
f 52/58/56 47/53/52 53/59/57
f 55/61/58 56/62/59 57/63/60
f 55/61/58 57/63/60 58/64/61
f 59/65/62 60/66/63 61/67/64
f 61/67/64 62/68/65 59/65/62
f 58/64/61 59/65/62 62/68/65
f 62/68/65 55/61/58 58/64/61
f 67/69/66 68/70/67 69/71/68
f 68/70/67 67/69/66 70/72/69
f 71/73/70 72/74/71 73/75/72
f 73/75/72 72/74/71 74/76/73
f 75/77/74 76/78/75 77/79/76
f 77/79/76 76/78/75 78/80/77
f 79/81/78 80/82/79 81/83/80
f 80/82/79 79/81/78 82/84/81
f 76/78/75 71/73/70 78/80/77
f 78/80/77 71/73/70 73/75/72
f 70/72/69 81/83/80 68/70/67
f 81/83/80 70/72/69 79/81/78
f 70/72/69 67/69/66 85/85/82
f 85/85/82 86/86/83 70/72/69
f 87/87/84 88/88/85 71/73/70
f 71/73/70 88/88/85 72/74/71
f 89/89/86 90/90/87 75/77/74
f 75/77/74 90/90/87 76/78/75
f 82/84/81 79/81/78 91/91/88
f 91/91/88 92/92/89 82/84/81
f 90/90/87 87/87/84 76/78/75
f 76/78/75 87/87/84 71/73/70
f 79/81/78 70/72/69 86/86/83
f 86/86/83 91/91/88 79/81/78
