# Blender v3.5.1 OBJ File: 'f1.blend'
# www.blender.org
mtllib Mesh_193.mtl
o Mesh_193
v -0.106385 0.593791 -3.223374
v -1.158991 0.926156 -3.994945
v -1.157217 0.935589 -3.991029
v -0.108159 0.584357 -3.227289
v -1.158534 0.942495 -3.983419
v -0.107703 0.600696 -3.215764
v -1.162590 0.945022 -3.974153
v -0.111759 0.603224 -3.206498
v -0.107703 0.600696 -3.215764
v -1.158534 0.942495 -3.983419
v -1.168298 0.942494 -3.965715
v -0.117467 0.600696 -3.198059
v -0.123297 0.593789 -3.192709
v -1.168298 0.942494 -3.965715
v -1.174128 0.935588 -3.960365
v -0.117467 0.600696 -3.198059
v -0.127687 0.584356 -3.191881
v -1.178518 0.926154 -3.959536
v -1.180292 0.916721 -3.963452
v -0.129461 0.574922 -3.195796
v -0.127687 0.584356 -3.191881
v -1.178518 0.926154 -3.959536
v -0.128143 0.568017 -3.203407
v -1.178975 0.909815 -3.971062
v -0.124087 0.565489 -3.212673
v -1.178975 0.909815 -3.971062
v -1.174919 0.907288 -3.980328
v -0.128143 0.568017 -3.203407
v -0.118380 0.568017 -3.221111
v -1.169211 0.909816 -3.988766
v -1.163381 0.916722 -3.994117
v -0.112549 0.574923 -3.226461
v -0.118380 0.568017 -3.221111
v -1.169211 0.909816 -3.988766
v -1.158991 0.926156 -3.994945
v -0.108159 0.584357 -3.227289
vt -22.662903 -37.891232
vt 2.821045 -3.847667
vt 3.239025 -4.151912
vt -23.080875 -37.586979
vt 3.488922 -4.608108
vt -22.413006 -38.347427
vt 59.252342 26.650383
vt 19.937309 -26.200123
vt 19.602480 -25.812836
vt 58.917496 27.037676
vt 59.654667 26.327820
vt 20.339638 -26.522686
vt 32.979031 -23.180357
vt 66.371628 21.477451
vt 66.813362 21.358517
vt 32.537281 -23.061413
vt 33.433826 -23.445953
vt 67.268173 21.092915
vt -1.684641 -65.137207
vt 23.092072 -30.563145
vt 23.504469 -30.874924
vt -1.272247 -65.448990
vt 22.583012 -30.456314
vt -2.193710 -65.030373
vt 24.067102 -29.006660
vt 62.775578 24.154921
vt 63.243340 23.946812
vt 23.599352 -28.798553
vt 24.492496 -29.298138
vt 63.668728 23.655323
vt 9.200813 -65.854614
vt 42.012241 -20.556883
vt 42.254185 -20.945143
vt 9.442762 -66.242867
vt 8.814724 -65.496391
vt 41.626156 -20.198681
vn 0.6162 0.4618 -0.6379
vn 0.5740 -0.0681 -0.8160
vn 0.6203 0.4214 -0.6615
vn 0.5810 -0.0397 -0.8130
vn 0.4976 0.8052 -0.3227
vn 0.4777 0.8314 -0.2838
vn 0.2366 0.9658 0.1061
vn 0.2131 0.9671 0.1389
vn 0.4976 0.8051 -0.3227
vn -0.0863 0.8609 0.5015
vn -0.0987 0.8519 0.5144
vn -0.3823 0.5278 0.7584
vn -0.0863 0.8608 0.5015
vn -0.3848 0.5238 0.7600
vn -0.0987 0.8519 0.5143
vn -0.5740 0.0682 0.8160
vn -0.5810 0.0398 0.8129
vn -0.6162 -0.4618 0.6379
vn -0.6203 -0.4214 0.6615
vn -0.5740 0.0681 0.8160
vn -0.5809 0.0397 0.8130
vn -0.4976 -0.8052 0.3227
vn -0.4777 -0.8314 0.2838
vn -0.2366 -0.9658 -0.1061
vn -0.2131 -0.9671 -0.1389
vn -0.4977 -0.8051 0.3227
vn 0.0863 -0.8609 -0.5015
vn 0.0986 -0.8519 -0.5143
vn 0.3823 -0.5279 -0.7584
vn 0.3848 -0.5238 -0.7600
vn 0.0864 -0.8608 -0.5015
vn 0.0986 -0.8519 -0.5144
vn 0.5740 -0.0682 -0.8160
vn 0.5810 -0.0397 -0.8129
usemtl carbon
s 1
f 1/1/1 2/2/2 3/3/3
f 2/2/2 1/1/1 4/4/4
f 5/5/5 6/6/6 1/1/1
f 1/1/1 3/3/3 5/5/5
f 7/7/7 8/8/8 9/9/6
f 9/9/6 10/10/9 7/7/7
f 11/11/10 12/12/11 8/8/8
f 8/8/8 7/7/7 11/11/10
f 13/13/12 14/14/13 15/15/14
f 14/14/13 13/13/12 16/16/15
f 17/17/16 15/15/14 18/18/17
f 15/15/14 17/17/16 13/13/12
f 19/19/18 20/20/19 21/21/20
f 21/21/20 22/22/21 19/19/18
f 23/23/22 19/19/18 24/24/23
f 19/19/18 23/23/22 20/20/19
f 25/25/24 26/26/23 27/27/25
f 26/26/23 25/25/24 28/28/26
f 29/29/27 27/27/25 30/30/28
f 27/27/25 29/29/27 25/25/24
f 31/31/29 32/32/30 33/33/31
f 31/31/29 33/33/31 34/34/32
f 35/35/33 36/36/34 32/32/30
f 32/32/30 31/31/29 35/35/33
