# Blender v3.5.1 OBJ File: 'f1.blend'
# www.blender.org
mtllib Mesh_58.mtl
o Mesh_58
v -1.709770 0.340767 4.475750
v -1.710275 0.355084 4.439275
v -1.710223 0.335762 4.459095
v -1.711441 0.334352 4.413729
v -1.709055 0.363152 4.467827
v -1.709354 0.339024 4.486255
v -1.707858 0.357829 4.500550
v -1.708917 0.335331 4.494700
v -1.707942 0.316894 4.507962
v -1.707013 0.342704 4.520836
v -1.708595 0.329873 4.501490
v -1.706070 0.321244 4.534803
v -1.706575 0.304924 4.510164
v -1.704997 0.303511 4.543354
v -1.704216 0.355166 4.438083
v -1.703711 0.340908 4.474617
v -1.704164 0.335912 4.457969
v -1.705382 0.334461 4.412562
v -1.702996 0.363224 4.466624
v -1.701799 0.357908 4.499355
v -1.703295 0.339167 4.485122
v -1.702858 0.335480 4.493577
v -1.700954 0.342810 4.519668
v -1.701883 0.317084 4.506879
v -1.702536 0.330033 4.500376
v -1.700011 0.321386 4.533671
v -1.700516 0.305168 4.509137
v -1.698938 0.303759 4.542329
v -1.707284 0.356261 4.437272
v -1.708485 0.335251 4.411382
v -1.707120 0.334897 4.460197
v -1.706702 0.339624 4.476513
v -1.704772 0.359315 4.500031
v -1.706020 0.364569 4.466446
v -1.705943 0.334053 4.494155
v -1.706330 0.337709 4.486462
v -1.702928 0.322245 4.535466
v -1.703890 0.344001 4.521070
v -1.705659 0.328857 4.500265
v -1.705024 0.316217 4.506353
v -1.701861 0.302909 4.544426
v -1.703653 0.305719 4.508012
v 1.710275 0.355084 4.439275
v 1.709770 0.340767 4.475750
v 1.710223 0.335762 4.459095
v 1.711441 0.334352 4.413729
v 1.709055 0.363152 4.467827
v 1.707858 0.357829 4.500550
v 1.709354 0.339024 4.486255
v 1.708917 0.335331 4.494700
v 1.707013 0.342704 4.520836
v 1.707942 0.316894 4.507962
v 1.708595 0.329873 4.501490
v 1.706070 0.321244 4.534803
v 1.706575 0.304924 4.510164
v 1.704997 0.303511 4.543354
v 1.703711 0.340908 4.474617
v 1.704216 0.355166 4.438083
v 1.704164 0.335912 4.457969
v 1.705382 0.334461 4.412562
v 1.701799 0.357908 4.499355
v 1.702996 0.363224 4.466624
v 1.703295 0.339167 4.485122
v 1.702858 0.335480 4.493577
v 1.701883 0.317084 4.506879
v 1.700954 0.342810 4.519668
v 1.702536 0.330033 4.500376
v 1.700011 0.321386 4.533671
v 1.700516 0.305168 4.509137
v 1.698938 0.303759 4.542329
v 1.708485 0.335251 4.411382
v 1.707284 0.356261 4.437272
v 1.706702 0.339624 4.476513
v 1.707120 0.334897 4.460197
v 1.706020 0.364569 4.466446
v 1.704772 0.359315 4.500031
v 1.705943 0.334053 4.494155
v 1.706331 0.337709 4.486462
v 1.703890 0.344001 4.521070
v 1.702928 0.322245 4.535466
v 1.705659 0.328857 4.500265
v 1.705024 0.316217 4.506353
v 1.701861 0.302909 4.544426
v 1.703653 0.305719 4.508012
vt 0.609069 1.304497
vt 0.609653 1.299220
vt 0.609246 1.302892
vt 0.610089 1.295285
vt 0.609108 1.304140
vt 0.608854 1.306432
vt 0.608465 1.309952
vt 0.608598 1.308752
vt 0.607875 1.315274
vt 0.607892 1.315122
vt 0.608372 1.310789
vt 0.607215 1.321235
vt 0.606885 1.324221
vt 0.606076 1.331524
vt 0.606623 1.298884
vt 0.606039 1.304161
vt 0.606217 1.302556
vt 0.607059 1.294950
vt 0.606079 1.303804
vt 0.605435 1.309617
vt 0.605825 1.306097
vt 0.605568 1.308416
vt 0.604863 1.314786
vt 0.604846 1.314939
vt 0.605343 1.310453
vt 0.604186 1.320900
vt 0.603855 1.323886
vt 0.603047 1.331188
vt 0.608173 1.298735
vt 0.608622 1.294683
vt 0.607684 1.303158
vt 0.607519 1.304646
vt 0.606942 1.309859
vt 0.607610 1.303825
vt 0.607091 1.308509
vt 0.607323 1.306411
vt 0.605658 1.321450
vt 0.606348 1.315221
vt 0.606887 1.310354
vt 0.606403 1.314724
vt 0.604504 1.331875
vt 0.605427 1.323535
vt 0.609653 1.299220
vt 0.609069 1.304497
vt 0.609246 1.302892
vt 0.610089 1.295285
vt 0.609108 1.304140
vt 0.608465 1.309952
vt 0.608854 1.306432
vt 0.608598 1.308752
vt 0.607892 1.315122
vt 0.607875 1.315274
vt 0.608372 1.310789
vt 0.607215 1.321235
vt 0.606885 1.324221
vt 0.606076 1.331524
vt 0.606039 1.304161
vt 0.606623 1.298884
vt 0.606217 1.302556
vt 0.607059 1.294950
vt 0.605435 1.309617
vt 0.606079 1.303804
vt 0.605825 1.306097
vt 0.605568 1.308416
vt 0.604846 1.314939
vt 0.604863 1.314786
vt 0.605343 1.310453
vt 0.604186 1.320900
vt 0.603855 1.323886
vt 0.603047 1.331188
vt 0.608622 1.294683
vt 0.608173 1.298735
vt 0.607519 1.304646
vt 0.607684 1.303158
vt 0.607610 1.303825
vt 0.606942 1.309859
vt 0.607091 1.308509
vt 0.607323 1.306411
vt 0.606348 1.315221
vt 0.605658 1.321450
vt 0.606887 1.310354
vt 0.606403 1.314724
vt 0.604504 1.331875
vt 0.605427 1.323535
vn -0.8762 -0.4762 0.0741
vn -0.8467 0.4948 -0.1958
vn -0.9440 -0.3075 0.1196
vn -0.7546 0.5257 -0.3926
vn -0.8016 0.5973 0.0249
vn -0.8628 -0.4928 -0.1127
vn -0.7663 0.5696 0.2972
vn -0.8771 -0.4247 -0.2243
vn -0.9024 -0.1865 -0.3885
vn -0.7620 0.4131 0.4987
vn -0.9048 -0.2907 -0.3112
vn -0.7778 0.2623 0.5711
vn -0.9193 -0.1414 -0.3673
vn -0.6433 0.2851 0.7106
vn 0.8094 0.5104 -0.2905
vn 0.8722 -0.4883 0.0280
vn 0.9596 -0.2766 0.0523
vn 0.6489 0.5764 -0.4967
vn 0.8190 0.5704 -0.0624
vn 0.8351 0.5190 0.1820
vn 0.8147 -0.5513 -0.1797
vn 0.8050 -0.4970 -0.3240
vn 0.8623 0.3729 0.3427
vn 0.7917 -0.1547 -0.5910
vn 0.8112 -0.3539 -0.4655
vn 0.8732 0.2817 0.3977
vn 0.8531 -0.0241 -0.5213
vn 0.7765 0.3169 0.5445
vn -0.0807 0.8751 -0.4771
vn -0.0743 0.7760 -0.6263
vn 0.0914 -0.9558 0.2796
vn 0.0145 -0.9999 -0.0001
vn 0.0537 0.9306 0.3621
vn -0.0197 0.9962 -0.0844
vn -0.0791 -0.8377 -0.5403
vn -0.0410 -0.9463 -0.3206
vn 0.1278 0.4930 0.8606
vn 0.1099 0.6964 0.7092
vn -0.1290 -0.6056 -0.7853
vn -0.1603 -0.3090 -0.9374
vn 0.1193 0.4312 0.8943
vn -0.1306 -0.1848 -0.9741
vn 0.8466 0.4948 -0.1958
vn 0.8762 -0.4762 0.0741
vn 0.9440 -0.3075 0.1196
vn 0.7545 0.5257 -0.3928
vn 0.8016 0.5973 0.0249
vn 0.7663 0.5696 0.2972
vn 0.8628 -0.4929 -0.1127
vn 0.8771 -0.4247 -0.2243
vn 0.7620 0.4130 0.4987
vn 0.9024 -0.1865 -0.3885
vn 0.9048 -0.2907 -0.3112
vn 0.7778 0.2623 0.5711
vn 0.9193 -0.1414 -0.3673
vn 0.6433 0.2851 0.7106
vn -0.8722 -0.4883 0.0280
vn -0.8094 0.5104 -0.2904
vn -0.9595 -0.2766 0.0524
vn -0.6489 0.5764 -0.4967
vn -0.8351 0.5190 0.1821
vn -0.8190 0.5704 -0.0624
vn -0.8147 -0.5513 -0.1797
vn -0.8049 -0.4971 -0.3240
vn -0.7917 -0.1547 -0.5910
vn -0.8623 0.3728 0.3427
vn -0.8112 -0.3538 -0.4655
vn -0.8732 0.2817 0.3978
vn -0.8531 -0.0241 -0.5213
vn -0.7765 0.3169 0.5446
vn 0.0743 0.7760 -0.6263
vn 0.0811 0.8751 -0.4771
vn -0.0144 -0.9999 -0.0001
vn -0.0914 -0.9558 0.2796
vn 0.0197 0.9962 -0.0843
vn -0.0537 0.9306 0.3621
vn 0.0791 -0.8377 -0.5403
vn 0.0410 -0.9463 -0.3206
vn -0.1099 0.6964 0.7092
vn -0.1277 0.4930 0.8606
vn 0.1290 -0.6056 -0.7853
vn 0.1603 -0.3090 -0.9374
vn -0.1193 0.4312 0.8943
vn 0.1306 -0.1848 -0.9741
usemtl chrome
s 1
f 1/1/1 2/2/2 3/3/3
f 2/2/2 4/4/4 3/3/3
f 5/5/5 6/6/6 7/7/7
f 7/7/7 6/6/6 8/8/8
f 9/9/9 10/10/10 11/11/11
f 10/10/10 9/9/9 12/12/12
f 13/13/13 12/12/12 9/9/9
f 12/12/12 13/13/13 14/14/14
f 10/10/10 8/8/8 11/11/11
f 8/8/8 10/10/10 7/7/7
f 1/1/1 5/5/5 2/2/2
f 5/5/5 1/1/1 6/6/6
f 15/15/15 16/16/16 17/17/17
f 17/17/17 18/18/18 15/15/15
f 19/19/19 20/20/20 21/21/21
f 21/21/21 20/20/20 22/22/22
f 23/23/23 24/24/24 25/25/25
f 24/24/24 23/23/23 26/26/26
f 26/26/26 27/27/27 24/24/24
f 27/27/27 26/26/26 28/28/28
f 22/22/22 23/23/23 25/25/25
f 23/23/23 22/22/22 20/20/20
f 19/19/19 16/16/16 15/15/15
f 16/16/16 19/19/19 21/21/21
f 29/29/29 30/30/30 4/4/4
f 4/4/4 2/2/2 29/29/29
f 31/31/31 32/32/32 1/1/1
f 1/1/1 3/3/3 31/31/31
f 33/33/33 34/34/34 5/5/5
f 5/5/5 7/7/7 33/33/33
f 35/35/35 6/6/6 36/36/36
f 6/6/6 35/35/35 8/8/8
f 37/37/37 38/38/38 10/10/10
f 10/10/10 12/12/12 37/37/37
f 39/39/39 9/9/9 11/11/11
f 9/9/9 39/39/39 40/40/40
f 41/41/41 37/37/37 12/12/12
f 12/12/12 14/14/14 41/41/41
f 40/40/40 13/13/13 9/9/9
f 13/13/13 40/40/40 42/42/42
f 38/38/38 33/33/33 7/7/7
f 7/7/7 10/10/10 38/38/38
f 39/39/39 8/8/8 35/35/35
f 8/8/8 39/39/39 11/11/11
f 34/34/34 29/29/29 2/2/2
f 2/2/2 5/5/5 34/34/34
f 32/32/32 36/36/36 6/6/6
f 6/6/6 1/1/1 32/32/32
f 30/30/30 29/29/29 18/18/18
f 18/18/18 29/29/29 15/15/15
f 34/34/34 20/20/20 19/19/19
f 20/20/20 34/34/34 33/33/33
f 38/38/38 37/37/37 23/23/23
f 23/23/23 37/37/37 26/26/26
f 37/37/37 41/41/41 26/26/26
f 26/26/26 41/41/41 28/28/28
f 33/33/33 23/23/23 20/20/20
f 23/23/23 33/33/33 38/38/38
f 29/29/29 34/34/34 15/15/15
f 15/15/15 34/34/34 19/19/19
f 32/32/32 31/31/31 16/16/16
f 17/17/17 16/16/16 31/31/31
f 35/35/35 36/36/36 22/22/22
f 21/21/21 22/22/22 36/36/36
f 25/25/25 24/24/24 39/39/39
f 39/39/39 24/24/24 40/40/40
f 24/24/24 42/42/42 40/40/40
f 42/42/42 24/24/24 27/27/27
f 35/35/35 25/25/25 39/39/39
f 25/25/25 35/35/35 22/22/22
f 36/36/36 32/32/32 21/21/21
f 16/16/16 21/21/21 32/32/32
f 43/43/43 44/44/44 45/45/45
f 43/43/43 45/45/45 46/46/46
f 47/47/47 48/48/48 49/49/49
f 48/48/48 50/50/50 49/49/49
f 51/51/51 52/52/52 53/53/53
f 52/52/52 51/51/51 54/54/54
f 54/54/54 55/55/55 52/52/52
f 55/55/55 54/54/54 56/56/56
f 50/50/50 51/51/51 53/53/53
f 51/51/51 50/50/50 48/48/48
f 47/47/47 49/49/49 44/44/44
f 44/44/44 43/43/43 47/47/47
f 57/57/57 58/58/58 59/59/59
f 59/59/59 58/58/58 60/60/60
f 61/61/61 62/62/62 63/63/63
f 61/61/61 63/63/63 64/64/64
f 65/65/65 66/66/66 67/67/67
f 66/66/66 65/65/65 68/68/68
f 69/69/69 68/68/68 65/65/65
f 68/68/68 69/69/69 70/70/70
f 66/66/66 64/64/64 67/67/67
f 64/64/64 66/66/66 61/61/61
f 63/63/63 62/62/62 57/57/57
f 58/58/58 57/57/57 62/62/62
f 71/71/71 72/72/72 46/46/46
f 43/43/43 46/46/46 72/72/72
f 73/73/73 74/74/74 44/44/44
f 45/45/45 44/44/44 74/74/74
f 75/75/75 76/76/76 47/47/47
f 47/47/47 76/76/76 48/48/48
f 77/77/77 49/49/49 50/50/50
f 49/49/49 77/77/77 78/78/78
f 79/79/79 80/80/80 51/51/51
f 54/54/54 51/51/51 80/80/80
f 53/53/53 52/52/52 81/81/81
f 81/81/81 52/52/52 82/82/82
f 80/80/80 83/83/83 54/54/54
f 54/54/54 83/83/83 56/56/56
f 52/52/52 55/55/55 82/82/82
f 55/55/55 84/84/84 82/82/82
f 76/76/76 79/79/79 48/48/48
f 48/48/48 79/79/79 51/51/51
f 81/81/81 50/50/50 53/53/53
f 50/50/50 81/81/81 77/77/77
f 72/72/72 75/75/75 43/43/43
f 47/47/47 43/43/43 75/75/75
f 78/78/78 73/73/73 49/49/49
f 49/49/49 73/73/73 44/44/44
f 72/72/72 71/71/71 60/60/60
f 60/60/60 58/58/58 72/72/72
f 75/75/75 61/61/61 76/76/76
f 61/61/61 75/75/75 62/62/62
f 80/80/80 79/79/79 66/66/66
f 66/66/66 68/68/68 80/80/80
f 83/83/83 80/80/80 68/68/68
f 68/68/68 70/70/70 83/83/83
f 76/76/76 66/66/66 79/79/79
f 66/66/66 76/76/76 61/61/61
f 75/75/75 72/72/72 58/58/58
f 58/58/58 62/62/62 75/75/75
f 74/74/74 73/73/73 57/57/57
f 57/57/57 59/59/59 74/74/74
f 78/78/78 77/77/77 64/64/64
f 64/64/64 63/63/63 78/78/78
f 81/81/81 65/65/65 67/67/67
f 65/65/65 81/81/81 82/82/82
f 84/84/84 65/65/65 82/82/82
f 65/65/65 84/84/84 69/69/69
f 77/77/77 81/81/81 67/67/67
f 67/67/67 64/64/64 77/77/77
f 73/73/73 78/78/78 63/63/63
f 63/63/63 57/57/57 73/73/73
