# Blender v3.5.1 OBJ File: 'f1.blend'
# www.blender.org
mtllib Mesh_95.mtl
o Mesh_95
v -0.126440 1.160575 -0.523394
v -0.126440 1.155578 -0.463742
v -0.126440 1.161308 -0.463175
v -0.126440 1.156704 -0.523394
v -0.126440 1.168378 -0.523394
v -0.126440 1.175641 -0.470305
v -0.126440 1.172493 -0.523396
v -0.126440 1.170060 -0.466072
v -0.126440 1.177999 -0.494412
v -0.126440 1.175641 -0.470305
v -0.126440 1.178651 -0.479171
v -0.126440 1.172493 -0.523396
v -0.126440 1.176685 -0.523470
v -0.126440 1.164480 -0.523396
v -0.126440 1.170060 -0.466072
v -0.126440 1.168378 -0.523394
v -0.126440 1.161308 -0.463175
v -0.126440 1.165335 -0.463823
v -0.126440 1.160575 -0.523394
v -0.126440 1.155578 -0.463742
v -0.000000 1.155578 -0.463742
v -0.126440 1.161308 -0.463175
v -0.000000 1.161308 -0.463175
v -0.126440 1.170060 -0.466072
v -0.000000 1.175641 -0.470305
v -0.126440 1.175641 -0.470305
v -0.000000 1.170060 -0.466072
v -0.000000 1.178651 -0.479171
v -0.126440 1.178651 -0.479171
v -0.126440 1.177999 -0.494412
v -0.000000 1.177999 -0.494412
v -0.126440 1.176685 -0.523470
v -0.000000 1.176685 -0.523470
v -0.000000 1.165335 -0.463823
v -0.126440 1.165335 -0.463823
v -0.000000 1.170060 -0.466072
v -0.126440 1.170060 -0.466072
v 0.126440 1.160575 -0.523394
v 0.126440 1.161308 -0.463175
v 0.126440 1.155578 -0.463742
v 0.126440 1.156704 -0.523394
v 0.126440 1.175641 -0.470305
v 0.126440 1.168379 -0.523394
v 0.126440 1.172493 -0.523396
v 0.126440 1.170060 -0.466072
v 0.126440 1.175641 -0.470305
v 0.126440 1.177999 -0.494412
v 0.126440 1.178651 -0.479171
v 0.126440 1.172493 -0.523396
v 0.126440 1.176685 -0.523470
v 0.126440 1.161308 -0.463175
v 0.126440 1.160575 -0.523394
v 0.126440 1.170060 -0.466072
v 0.126440 1.165335 -0.463823
v 0.126440 1.164480 -0.523396
v 0.126440 1.168379 -0.523394
v 0.126440 1.161308 -0.463175
v 0.126440 1.155578 -0.463742
v 0.126440 1.170060 -0.466072
v 0.126440 1.175641 -0.470305
v 0.126440 1.178651 -0.479171
v 0.126440 1.176685 -0.523470
v 0.126440 1.177999 -0.494412
v 0.126440 1.165335 -0.463823
v 0.126440 1.170060 -0.466072
vt 0.204545 -1.000000
vt 0.340909 -1.000000
vt 1.022727 0.000000
vt 0.250000 -1.000000
vt 0.068182 -1.000000
vt 0.750000 -1.000000
vt 0.113636 -1.000000
vt 0.795455 -1.000000
vt 0.068182 -1.000000
vt 0.750000 -1.000000
vt 0.931818 -1.000000
vt 0.159091 -1.000000
vt 0.113636 -1.000000
vt 0.250000 -1.000000
vt 0.840909 -1.000000
vt 0.068182 -1.000000
vt 1.022727 0.000000
vt 0.795455 -1.000000
vt 0.295455 -1.000000
vt 0.204545 -1.000000
vt 1.022727 0.000000
vt 0.340909 -1.000000
vt 0.250000 -1.000000
vt 0.750000 -1.000000
vt 0.068182 -1.000000
vt 0.113636 -1.000000
vt 0.795455 -1.000000
vt 0.750000 -1.000000
vt 0.068182 -1.000000
vt 0.931818 -1.000000
vt 0.159091 -1.000000
vt 0.113636 -1.000000
vt 1.022727 0.000000
vt 0.295455 -1.000000
vt 0.840909 -1.000000
vt 0.795455 -1.000000
vt 0.250000 -1.000000
vt 0.068182 -1.000000
vt 0.340909 -1.000000
vt 0.340909 -1.000000
vt 1.022727 0.000000
vt 1.022727 0.000000
vt 0.795455 -1.000000
vt 0.750000 -1.000000
vt 0.750000 -1.000000
vt 0.795455 -1.000000
vt 0.931818 -1.000000
vt 0.931818 -1.000000
vt 0.068182 -1.000000
vt 0.068182 -1.000000
vt 0.113636 -1.000000
vt 0.113636 -1.000000
vt 0.795455 -1.000000
vt 0.795455 -1.000000
vt 0.840909 -1.000000
vt 0.840909 -1.000000
vt 1.022727 0.000000
vt 0.340909 -1.000000
vt 0.795455 -1.000000
vt 0.750000 -1.000000
vt 0.931818 -1.000000
vt 0.113636 -1.000000
vt 0.068182 -1.000000
vt 0.795455 -1.000000
vt 0.840909 -1.000000
vn -1.0000 0.0000 0.0000
vn 1.0000 0.0000 0.0000
vn 0.0000 -0.0985 0.9951
vn 0.0000 0.0305 0.9995
vn 0.0000 0.5198 0.8543
vn -0.0000 0.8112 0.5848
vn -0.0000 0.9899 0.1418
vn 0.0000 0.9990 -0.0440
vn 0.0000 0.9990 -0.0452
vn -0.0000 0.2974 0.9548
vn 0.0000 0.5197 0.8543
usemtl black_s
s off
f 1/1/1 2/2/1 3/3/1
f 2/2/1 1/1/1 4/4/1
f 5/5/1 6/6/1 7/7/1
f 6/6/1 5/5/1 8/8/1
f 9/9/1 10/10/1 11/11/1
f 12/12/1 10/10/1 9/9/1
f 9/9/1 13/13/1 12/12/1
f 14/14/1 15/15/1 16/16/1
f 15/15/1 17/17/1 18/18/1
f 15/15/1 19/19/1 17/17/1
f 19/19/1 15/15/1 14/14/1
f 38/20/2 39/21/2 40/22/2
f 38/20/2 40/22/2 41/23/2
f 42/24/2 43/25/2 44/26/2
f 43/25/2 42/24/2 45/27/2
f 46/28/2 47/29/2 48/30/2
f 47/29/2 49/31/2 50/32/2
f 47/29/2 46/28/2 49/31/2
f 51/33/2 52/34/2 53/35/2
f 51/33/2 53/35/2 54/36/2
f 55/37/2 53/35/2 52/34/2
f 56/38/2 53/35/2 55/37/2
s 1
f 20/39/3 21/40/3 22/41/4
f 23/42/4 22/41/4 21/40/3
f 24/43/5 25/44/6 26/45/6
f 25/44/6 24/43/5 27/46/5
f 26/45/6 28/47/7 29/48/7
f 28/47/7 26/45/6 25/44/6
f 30/49/8 31/50/8 32/51/9
f 33/52/9 32/51/9 31/50/8
f 29/48/7 31/50/8 30/49/8
f 31/50/8 29/48/7 28/47/7
f 22/41/4 34/53/10 35/54/10
f 34/53/10 22/41/4 23/42/4
f 35/54/10 36/55/11 37/56/5
f 36/55/11 35/54/10 34/53/10
f 21/40/3 57/57/4 23/42/4
f 57/57/4 21/40/3 58/58/3
f 25/44/6 59/59/5 60/60/6
f 59/59/5 25/44/6 27/46/5
f 61/61/7 28/47/7 25/44/6
f 61/61/7 25/44/6 60/60/6
f 62/62/9 33/52/9 31/50/8
f 62/62/9 31/50/8 63/63/8
f 31/50/8 61/61/7 63/63/8
f 61/61/7 31/50/8 28/47/7
f 34/53/10 57/57/4 64/64/10
f 57/57/4 34/53/10 23/42/4
f 36/55/11 64/64/10 65/65/11
f 64/64/10 36/55/11 34/53/10
