# Blender v3.5.1 OBJ File: 'f1.blend'
# www.blender.org
mtllib Mesh_210.mtl
o Mesh_210
v 0.348893 1.149247 1.046515
v 0.424720 0.774710 1.054031
v 0.348893 0.774710 1.054031
v 0.424720 1.149247 1.046515
v 0.424720 1.151618 1.047150
v 0.425905 1.151300 1.047150
v 0.426773 1.150433 1.047150
v 0.427091 1.149247 1.047150
v 0.427091 0.774710 1.054667
v 0.346522 1.149247 1.047150
v 0.346522 0.774710 1.054666
v 0.346840 1.150433 1.047150
v 0.347708 1.151300 1.047150
v 0.348893 1.151618 1.047150
v 0.425905 1.151300 1.047150
v 0.424720 1.153354 1.048886
v 0.426773 1.152804 1.048886
v 0.424720 1.151618 1.047150
v 0.425905 1.151300 1.047150
v 0.428276 1.151300 1.048886
v 0.426773 1.150433 1.047150
v 0.426773 1.152804 1.048886
v 0.427091 1.149247 1.047150
v 0.428826 1.149247 1.048886
v 0.428826 0.774710 1.056402
v 0.427091 0.774710 1.054667
v 0.346522 1.149247 1.047150
v 0.346522 0.774710 1.054666
v 0.344786 1.149247 1.048886
v 0.344786 0.774710 1.056402
v 0.346840 1.150433 1.047150
v 0.345337 1.151300 1.048886
v 0.347708 1.151300 1.047150
v 0.346840 1.152804 1.048886
v 0.347708 1.151300 1.047150
v 0.348893 1.153354 1.048886
v 0.348893 1.151618 1.047150
v 0.346840 1.152804 1.048886
v 0.424720 1.153989 1.051256
v 0.427091 1.153354 1.051256
v 0.427091 1.153354 1.051256
v 0.428826 1.151618 1.051256
v 0.429462 1.149247 1.051256
v 0.429462 0.774710 1.058773
v 0.344151 1.149247 1.051256
v 0.344151 0.774710 1.058773
v 0.344786 1.151618 1.051256
v 0.346522 1.153354 1.051256
v 0.348893 1.153989 1.051256
v 0.346522 1.153354 1.051256
v 0.427091 1.153354 1.138385
v 0.424720 1.153989 1.138385
v 0.427091 1.153354 1.138385
v 0.428826 1.151618 1.138385
v 0.429462 1.149247 1.138385
v 0.429462 0.774710 1.145901
v 0.344151 1.149247 1.138384
v 0.344151 0.774710 1.145901
v 0.344786 1.151618 1.138384
v 0.346522 1.153354 1.138384
v 0.348893 1.153989 1.138384
v 0.346522 1.153354 1.138384
v 0.424720 1.255204 1.126593
v 0.327714 0.774710 1.134109
v 0.327714 1.255204 1.126593
v 0.424720 0.774710 1.134109
v 0.424720 1.257575 1.127228
v 0.425905 1.257257 1.127228
v 0.426773 1.256390 1.127228
v 0.427091 1.255204 1.127228
v 0.427091 0.774710 1.134745
v 0.325343 0.774710 1.134745
v 0.325343 1.255204 1.127228
v 0.325661 1.256390 1.127228
v 0.326528 1.257257 1.127228
v 0.327714 1.257575 1.127228
v 0.424720 1.259311 1.128964
v 0.426773 1.258761 1.128964
v 0.428276 1.257257 1.128964
v 0.428826 1.255204 1.128964
v 0.428826 0.774710 1.136480
v 0.323607 1.255204 1.128964
v 0.323607 0.774710 1.136480
v 0.324157 1.257257 1.128964
v 0.325661 1.258761 1.128964
v 0.327714 1.259311 1.128964
v 0.426773 1.258761 1.128964
v 0.424720 1.259946 1.131335
v 0.427091 1.259311 1.131335
v 0.424720 1.259311 1.128964
v 0.428826 1.257575 1.131335
v 0.428276 1.257257 1.128964
v 0.429462 1.255204 1.131335
v 0.428826 1.255204 1.128964
v 0.429462 1.255204 1.131335
v 0.428826 0.774710 1.136480
v 0.428826 1.255204 1.128964
v 0.429462 0.774710 1.138851
v 0.323607 1.255204 1.128964
v 0.323607 0.774710 1.136480
v 0.322972 1.255204 1.131335
v 0.322972 0.774710 1.138851
v 0.324157 1.257257 1.128964
v 0.323607 1.257575 1.131335
v 0.325661 1.258761 1.128964
v 0.323607 1.257575 1.131335
v 0.325343 1.259311 1.131335
v 0.324157 1.257257 1.128964
v 0.327714 1.259946 1.131335
v 0.327714 1.259311 1.128964
v 0.297093 1.255204 1.599566
v 0.297093 0.738697 1.599566
v -0.327714 1.255204 1.126593
v -0.424720 0.774710 1.134109
v -0.424720 1.255204 1.126593
v -0.327714 0.774710 1.134109
v -0.425905 1.257257 1.127228
v -0.424720 1.257575 1.127228
v -0.426773 1.256390 1.127228
v -0.427091 1.255204 1.127228
v -0.427091 0.774710 1.134745
v -0.325343 1.255204 1.127228
v -0.325343 0.774710 1.134745
v -0.325661 1.256390 1.127228
v -0.326528 1.257257 1.127228
v -0.327714 1.257575 1.127228
v -0.424720 1.259311 1.128964
v -0.426773 1.258761 1.128964
v -0.428276 1.257257 1.128964
v -0.428826 1.255204 1.128964
v -0.428826 0.774710 1.136480
v -0.323607 1.255204 1.128964
v -0.323607 0.774710 1.136480
v -0.324157 1.257257 1.128964
v -0.325661 1.258761 1.128964
v -0.327714 1.259311 1.128964
v -0.426773 1.258761 1.128964
v -0.424720 1.259946 1.131335
v -0.424720 1.259311 1.128964
v -0.427091 1.259311 1.131335
v -0.428276 1.257257 1.128964
v -0.428826 1.257575 1.131335
v -0.429462 1.255204 1.131335
v -0.428826 1.255204 1.128964
v -0.428826 0.774710 1.136480
v -0.429462 1.255204 1.131335
v -0.428826 1.255204 1.128964
v -0.429462 0.774710 1.138851
v -0.323607 0.774710 1.136480
v -0.323607 1.255204 1.128964
v -0.322972 1.255204 1.131334
v -0.322972 0.774710 1.138851
v -0.324157 1.257257 1.128964
v -0.323607 1.257575 1.131334
v -0.325661 1.258761 1.128964
v -0.323607 1.257575 1.131334
v -0.324157 1.257257 1.128964
v -0.325343 1.259311 1.131334
v -0.327714 1.259311 1.128964
v -0.327714 1.259946 1.131334
v -0.297093 1.255204 1.599566
v -0.297093 0.738697 1.599566
v -0.335252 1.167369 1.115413
v -0.424720 0.774710 1.054031
v -0.424720 1.167369 1.115413
v -0.335252 0.774710 1.054031
v -0.425905 1.169504 1.116360
v -0.424720 1.169834 1.116408
v -0.426773 1.168601 1.116228
v -0.427091 1.167369 1.116048
v -0.427091 0.774710 1.054666
v -0.332881 0.774710 1.054666
v -0.332881 1.167369 1.116048
v -0.333198 1.168601 1.116228
v -0.334066 1.169504 1.116360
v -0.335252 1.169834 1.116408
v -0.424720 1.171639 1.118407
v -0.426773 1.171067 1.118324
v -0.428276 1.169504 1.118096
v -0.428826 1.167369 1.117784
v -0.428826 0.774710 1.056402
v -0.331145 0.774710 1.056402
v -0.331145 1.167369 1.117784
v -0.331695 1.169504 1.118096
v -0.333198 1.171067 1.118324
v -0.335252 1.171639 1.118407
v -0.426773 1.171067 1.118324
v -0.424720 1.172300 1.120874
v -0.424720 1.171639 1.118407
v -0.427091 1.171639 1.120778
v -0.428276 1.169504 1.118096
v -0.428826 1.169834 1.120515
v -0.429462 1.167369 1.120155
v -0.428826 1.167369 1.117784
v -0.428826 1.167369 1.117784
v -0.429462 0.774710 1.058773
v -0.429462 1.167369 1.120155
v -0.428826 0.774710 1.056402
v -0.331145 1.167369 1.117784
v -0.330510 0.774710 1.058773
v -0.331145 0.774710 1.056402
v -0.330510 1.167369 1.120155
v -0.331695 1.169504 1.118096
v -0.331145 1.169834 1.120515
v -0.333198 1.171067 1.118324
v -0.332881 1.171639 1.120778
v -0.331695 1.169504 1.118096
v -0.331145 1.169834 1.120515
v -0.335252 1.171639 1.118407
v -0.335252 1.172300 1.120874
v -0.427091 1.171639 1.207906
v -0.424720 1.172300 1.208002
v -0.428826 1.169834 1.207643
v -0.428826 1.169834 1.120515
v -0.429462 1.167368 1.207283
v -0.428826 1.169834 1.207643
v -0.429462 0.774710 1.145901
v -0.330510 0.774710 1.145901
v -0.330510 1.167368 1.207283
v -0.331145 1.169834 1.207643
v -0.332881 1.171639 1.120778
v -0.332881 1.171639 1.207906
v -0.332881 1.171639 1.207906
v -0.335252 1.172300 1.208002
vt -3.779455 -45.378208
vt -33.405922 -23.939358
vt -29.120090 -19.708473
vt -8.065286 -49.609093
vt -7.933002 -49.743092
vt -8.017726 -49.791294
vt -8.115199 -49.790661
vt -8.199288 -49.741379
vt -33.539925 -24.071644
vt -3.645452 -45.245922
vt -28.986088 -19.576189
vt -3.597257 -45.330639
vt -3.597883 -45.428112
vt -3.647171 -45.512211
vt -23.644861 -38.687634
vt -23.808706 -38.655678
vt -23.692654 -38.541111
vt -23.711863 -38.753780
vt 3.297580 -38.621052
vt 3.199480 -38.717896
vt 3.249158 -38.572002
vt 3.283346 -38.802853
vt 3.183015 -38.505001
vt 3.084915 -38.601841
vt -22.255720 -12.932109
vt -22.157619 -12.835266
vt 5.455803 13.965838
vt 30.796434 -11.703886
vt 5.357702 13.868996
vt 30.698332 -11.800732
vt 5.389660 14.032841
vt 5.243135 13.985051
vt 5.341234 14.081894
vt 5.159267 14.070009
vt -28.064703 -43.050812
vt -28.094530 -42.886551
vt -27.997686 -42.984653
vt -28.210588 -43.001125
vt -23.940994 -38.521664
vt -23.806995 -38.389381
vt 3.180031 -38.966236
vt 3.083189 -38.868137
vt 2.950905 -38.734135
vt -22.389730 -13.064402
vt 5.223696 13.736707
vt 30.564325 -11.933021
vt 5.091408 13.870713
vt 4.994564 13.968814
vt -28.226822 -42.752541
vt -28.360838 -42.884842
vt -28.668463 -33.464779
vt -28.802465 -33.597065
vt -1.744571 -43.827702
vt -1.841413 -43.729603
vt -1.973697 -43.595600
vt -27.314333 -17.925865
vt 0.299099 8.875240
vt 25.639719 -16.794489
vt 0.166808 9.009250
vt 0.069964 9.107350
vt -33.088295 -37.827961
vt -33.222298 -37.960247
vt 20.692827 -33.426422
vt -6.458918 2.644858
vt 25.967363 -27.810553
vt -11.733455 -2.971006
vt 20.830093 -33.555340
vt 20.747244 -33.606689
vt 20.649813 -33.609749
vt 20.563906 -33.563679
vt -11.862369 -3.108264
vt -6.329998 2.782121
vt 26.096270 -27.673285
vt 26.147635 -27.756134
vt 26.150686 -27.853563
vt 26.104628 -27.939466
vt 20.930563 -33.649708
vt 20.787077 -33.738670
vt 20.618328 -33.743958
vt 20.469532 -33.664158
vt -11.956736 -3.208745
vt 26.190645 -27.572805
vt -6.235627 2.882600
vt 26.279608 -27.716307
vt 26.284891 -27.885054
vt 26.205103 -28.033844
vt -21.355415 -41.228058
vt -21.376484 -41.493534
vt -21.507904 -41.349529
vt -21.241611 -41.352764
vt -21.603657 -41.208363
vt -21.438360 -41.105808
vt -21.638119 -41.107845
vt -21.468199 -41.018749
vt 29.512163 -24.338501
vt -1.601793 7.457025
vt 29.650896 -24.201544
vt -1.740529 7.320068
vt -37.950798 37.385544
vt -6.698108 5.726973
vt -38.089539 37.248589
vt -6.836843 5.590016
vt -38.057320 37.509544
vt -38.212536 37.391766
vt -15.741837 -46.606678
vt -15.762087 -46.805428
vt -15.859047 -46.761951
vt -15.657866 -46.644344
vt -15.990889 -46.653706
vt -15.856016 -46.512936
vt -64.031441 11.639268
vt -35.212021 -17.554434
vt 23.134123 30.586115
vt 45.975975 -8.357482
vt 17.251114 25.611288
vt 51.858994 -3.382657
vt 17.073921 25.675020
vt 17.129522 25.755075
vt 17.065798 25.577881
vt 17.107327 25.489693
vt 45.832199 -8.479081
vt 23.277914 30.707708
vt 52.002785 -3.261062
vt 23.197855 30.763306
vt 23.100718 30.771435
vt 23.012537 30.729900
vt 17.040514 25.860331
vt 16.944204 25.721666
vt 16.930136 25.553423
vt 17.002069 25.400690
vt 45.726952 -8.568086
vt 23.383169 30.796717
vt 52.108040 -3.172065
vt 23.244505 30.893019
vt 23.076262 30.907097
vt 22.923532 30.835159
vt -23.923456 -43.769024
vt -23.658573 -43.741467
vt -23.796005 -43.879745
vt -23.805752 -43.613621
vt -24.047695 -43.689110
vt -23.949209 -43.521336
vt -24.050537 -43.489338
vt -24.135443 -43.661407
vt -43.673256 -30.509537
vt -75.064674 1.012082
vt -74.925941 1.149034
vt -43.811989 -30.646488
vt -10.322610 64.924133
vt 20.930082 33.265553
vt 20.791349 33.128601
vt -10.461341 64.787178
vt 21.052696 33.157452
vt 20.932930 33.003769
vt -18.409122 -49.249374
vt -18.210939 -49.224255
vt -18.369436 -49.332386
vt -18.256784 -49.128399
vt -18.505636 -49.137516
vt -18.368214 -48.999249
vt -5.150590 7.519254
vt -33.970016 36.712936
vt -14.379730 -5.676932
vt 7.194077 -37.645504
vt -19.436594 -10.668959
vt 12.250946 -32.653484
vt -19.629108 -10.607960
vt -19.580734 -10.522947
vt -19.627277 -10.707924
vt -19.575718 -10.796063
vt 7.054956 -37.772614
vt 12.379841 -32.516006
vt -14.250831 -5.539454
vt -14.338305 -5.486767
vt -14.438242 -5.483642
vt -14.523872 -5.530918
vt -19.696489 -10.405688
vt -19.780277 -10.552938
vt -19.777103 -10.726085
vt -19.687801 -10.878746
vt 6.942871 -37.855293
vt 12.463957 -32.405003
vt -14.166713 -5.428452
vt -14.318213 -5.337188
vt -14.491309 -5.331775
vt -14.639621 -5.413667
vt -30.815620 -31.666897
vt -31.092171 -31.694134
vt -30.943651 -31.555954
vt -30.944336 -31.822262
vt -30.680929 -31.738865
vt -30.788794 -31.905338
vt -30.667229 -31.921131
vt -30.575642 -31.752537
vt 34.436234 -10.201602
vt 7.050833 15.969828
vt 34.588646 -10.080041
vt 6.898420 15.848264
vt -70.106949 4.684056
vt -45.397629 -24.027504
vt -45.526955 -24.173361
vt -69.977623 4.829934
vt -70.226768 4.807122
vt -70.115967 4.972022
vt -35.716759 -26.399164
vt -35.878746 -26.518755
vt -35.739521 -26.301886
vt -35.905029 -26.406424
vt -35.629700 -26.519388
vt -35.778233 -26.657576
vt -35.532898 -36.703659
vt -35.680733 -36.575539
vt -35.377357 -36.786747
vt 34.723343 -10.225619
vt 39.856361 -5.965055
vt 39.991066 -6.110631
vt 12.318556 20.084810
vt -41.013779 -18.981256
vt -65.593773 9.876155
vt -65.732140 10.018249
vt -70.237343 5.058944
vt -65.853500 10.105174
vt -40.467304 -31.400154
vt -40.366779 -31.538975
vn -0.1087 0.0989 -0.9891
vn 0.1307 -0.0199 -0.9912
vn -0.1307 -0.0199 -0.9912
vn 0.1087 0.0989 -0.9891
vn 0.0699 0.5140 -0.8549
vn 0.2655 0.4599 -0.8474
vn 0.4597 0.2654 -0.8475
vn 0.5137 0.0611 -0.8558
vn 0.5013 -0.0174 -0.8651
vn -0.5136 0.0611 -0.8558
vn -0.5013 -0.0173 -0.8651
vn -0.4597 0.2655 -0.8475
vn -0.2655 0.4599 -0.8474
vn -0.0699 0.5141 -0.8549
vn 0.2655 0.4598 -0.8474
vn 0.1129 0.8653 -0.4884
vn 0.4380 0.7586 -0.4823
vn 0.0698 0.5140 -0.8549
vn 0.7586 0.4380 -0.4823
vn 0.4598 0.2654 -0.8474
vn 0.5136 0.0611 -0.8558
vn 0.8651 0.1079 -0.4899
vn 0.8674 -0.0100 -0.4975
vn 0.5014 -0.0174 -0.8651
vn -0.5137 0.0611 -0.8558
vn -0.8651 0.1079 -0.4899
vn -0.8674 -0.0100 -0.4975
vn -0.4599 0.2654 -0.8474
vn -0.7586 0.4380 -0.4823
vn -0.2655 0.4598 -0.8474
vn -0.4380 0.7586 -0.4823
vn -0.1129 0.8653 -0.4883
vn -0.0698 0.5140 -0.8549
vn 0.1281 0.9834 -0.1282
vn 0.4959 0.8589 -0.1278
vn 0.8589 0.4959 -0.1278
vn 0.9835 0.1268 -0.1290
vn 0.9917 -0.0026 -0.1289
vn -0.9835 0.1268 -0.1290
vn -0.9917 -0.0026 -0.1289
vn -0.8589 0.4959 -0.1278
vn -0.4959 0.8589 -0.1278
vn -0.1281 0.9834 -0.1281
vn -0.4958 0.8589 -0.1278
vn 0.5000 0.8660 -0.0000
vn 0.1305 0.9914 0.0000
vn 0.8660 0.5000 0.0000
vn 0.9916 0.1297 0.0000
vn 1.0000 0.0000 0.0000
vn -0.9916 0.1297 -0.0000
vn -1.0000 0.0000 -0.0000
vn -0.8660 0.5000 -0.0000
vn -0.5000 0.8660 -0.0000
vn -0.1305 0.9914 -0.0000
vn -0.5001 0.8660 -0.0000
vn 0.1087 0.1010 -0.9889
vn -0.1306 -0.0155 -0.9913
vn -0.1087 0.1010 -0.9889
vn 0.1306 -0.0155 -0.9913
vn 0.5137 0.0630 -0.8556
vn 0.5010 -0.0135 -0.8653
vn -0.5010 -0.0135 -0.8653
vn -0.5137 0.0631 -0.8556
vn -0.4598 0.2655 -0.8474
vn 0.1129 0.8653 -0.4883
vn 0.8651 0.1090 -0.4895
vn 0.8671 -0.0078 -0.4981
vn -0.8651 0.1090 -0.4895
vn -0.8671 -0.0078 -0.4981
vn -0.7586 0.4380 -0.4824
vn -0.1130 0.8653 -0.4884
vn 0.4380 0.7586 -0.4824
vn 0.1235 0.9585 -0.2568
vn 0.4829 0.8365 -0.2588
vn 0.8365 0.4830 -0.2588
vn 0.7586 0.4380 -0.4824
vn 0.9588 0.1209 -0.2569
vn 0.8651 0.1090 -0.4896
vn 0.8671 -0.0078 -0.4980
vn 0.9659 -0.0040 -0.2588
vn -0.8651 0.1090 -0.4896
vn -0.8671 -0.0078 -0.4980
vn -0.9784 0.0804 -0.1902
vn -0.9880 -0.0022 -0.1546
vn -0.7587 0.4380 -0.4823
vn -0.8365 0.4829 -0.2588
vn -0.4380 0.7586 -0.4824
vn -0.4830 0.8365 -0.2588
vn -0.1235 0.9585 -0.2569
vn -0.1129 0.8653 -0.4884
vn -0.9985 -0.0004 -0.0556
vn -0.9984 -0.0003 -0.0557
vn -0.1307 -0.0155 -0.9913
vn 0.1307 -0.0155 -0.9913
vn -0.2655 0.4597 -0.8474
vn -0.5011 -0.0135 -0.8653
vn 0.5138 0.0631 -0.8556
vn 0.5011 -0.0135 -0.8653
vn 0.4598 0.2655 -0.8474
vn -0.1130 0.8653 -0.4883
vn -0.8652 0.1090 -0.4895
vn 0.1130 0.8653 -0.4883
vn -0.1235 0.9585 -0.2568
vn -0.4829 0.8365 -0.2588
vn -0.8365 0.4830 -0.2588
vn -0.9588 0.1209 -0.2569
vn -0.9588 0.1209 -0.2570
vn -0.9659 -0.0040 -0.2589
vn 0.8652 0.1090 -0.4895
vn 0.9784 0.0804 -0.1902
vn 0.9880 -0.0022 -0.1546
vn 0.7587 0.4380 -0.4823
vn 0.8365 0.4829 -0.2588
vn 0.4830 0.8365 -0.2588
vn 0.9985 -0.0004 -0.0556
vn 0.9984 -0.0003 -0.0557
vn 0.1081 0.2446 -0.9636
vn -0.1274 0.1532 -0.9800
vn -0.1081 0.2446 -0.9636
vn 0.1274 0.1532 -0.9800
vn -0.2557 0.5360 -0.8045
vn -0.0663 0.5853 -0.8081
vn -0.4467 0.3602 -0.8190
vn -0.5058 0.1902 -0.8414
vn -0.4848 0.1351 -0.8641
vn 0.4848 0.1351 -0.8641
vn 0.5058 0.1902 -0.8414
vn 0.4467 0.3602 -0.8190
vn 0.2557 0.5360 -0.8045
vn 0.0663 0.5852 -0.8081
vn -0.1106 0.8785 -0.4648
vn -0.4291 0.7778 -0.4593
vn -0.7452 0.4764 -0.4666
vn -0.8581 0.1774 -0.4818
vn -0.8522 0.0808 -0.5170
vn 0.8521 0.0808 -0.5170
vn 0.8581 0.1774 -0.4818
vn 0.7452 0.4764 -0.4667
vn 0.4291 0.7778 -0.4592
vn 0.1107 0.8784 -0.4649
vn -0.4290 0.7778 -0.4593
vn -0.1307 0.9833 -0.1265
vn -0.1106 0.8784 -0.4649
vn -0.5012 0.8563 -0.1246
vn -0.8590 0.4963 -0.1254
vn -0.9818 0.1416 -0.1268
vn -0.9895 0.0224 -0.1431
vn -0.9818 0.1417 -0.1268
vn 0.9895 0.0224 -0.1431
vn 0.8522 0.0808 -0.5169
vn 0.9818 0.1417 -0.1268
vn 0.7452 0.4764 -0.4666
vn 0.8590 0.4963 -0.1253
vn 0.4290 0.7778 -0.4593
vn 0.5012 0.8563 -0.1246
vn 0.8590 0.4964 -0.1253
vn 0.1106 0.8784 -0.4649
vn 0.1307 0.9833 -0.1265
vn -0.5017 0.8650 0.0000
vn -0.1337 0.9910 0.0000
vn -0.8629 0.5053 0.0000
vn -0.8590 0.4963 -0.1253
vn -0.9905 0.1376 0.0000
vn -0.8630 0.5053 -0.0000
vn 0.9905 0.1376 -0.0000
vn 0.8629 0.5053 -0.0000
vn 0.5017 0.8650 0.0000
vn 0.1337 0.9910 0.0000
usemtl carbon_cockpit
s 1
f 1/1/1 2/2/2 3/3/3
f 2/2/2 1/1/1 4/4/4
f 4/4/4 5/5/5 6/6/6
f 4/4/4 6/6/6 7/7/7
f 4/4/4 7/7/7 8/8/8
f 8/8/8 9/9/9 4/4/4
f 4/4/4 9/9/9 2/2/2
f 1/1/1 3/3/3 10/10/10
f 10/10/10 3/3/3 11/11/11
f 1/1/1 10/10/10 12/12/12
f 1/1/1 12/12/12 13/13/13
f 1/1/1 13/13/13 14/14/14
f 4/4/4 1/1/1 5/5/5
f 14/14/14 5/5/5 1/1/1
f 15/15/15 16/16/16 17/17/17
f 16/16/16 15/15/15 18/18/18
f 19/19/15 20/20/19 21/21/20
f 20/20/19 19/19/15 22/22/17
f 20/20/19 23/23/21 21/21/20
f 23/23/21 20/20/19 24/24/22
f 24/24/22 25/25/23 23/23/21
f 23/23/21 25/25/23 26/26/24
f 27/27/25 28/28/11 29/29/26
f 29/29/26 28/28/11 30/30/27
f 31/31/28 29/29/26 32/32/29
f 29/29/26 31/31/28 27/27/25
f 32/32/29 33/33/30 31/31/28
f 33/33/30 32/32/29 34/34/31
f 35/35/30 36/36/32 37/37/33
f 36/36/32 35/35/30 38/38/31
f 18/18/18 36/36/32 16/16/16
f 36/36/32 18/18/18 37/37/33
f 17/17/17 39/39/34 40/40/35
f 39/39/34 17/17/17 16/16/16
f 22/22/17 41/41/35 42/42/36
f 22/22/17 42/42/36 20/20/19
f 20/20/19 42/42/36 43/43/37
f 20/20/19 43/43/37 24/24/22
f 43/43/37 25/25/23 24/24/22
f 25/25/23 43/43/37 44/44/38
f 29/29/26 30/30/27 45/45/39
f 45/45/39 30/30/27 46/46/40
f 32/32/29 45/45/39 47/47/41
f 45/45/39 32/32/29 29/29/26
f 32/32/29 48/48/42 34/34/31
f 48/48/42 32/32/29 47/47/41
f 38/38/31 49/49/43 36/36/32
f 49/49/43 38/38/31 50/50/44
f 16/16/16 49/49/43 39/39/34
f 49/49/43 16/16/16 36/36/32
f 39/39/34 51/51/45 40/40/35
f 51/51/45 39/39/34 52/52/46
f 53/53/45 42/42/36 41/41/35
f 42/42/36 53/53/45 54/54/47
f 54/54/47 43/43/37 42/42/36
f 43/43/37 54/54/47 55/55/48
f 55/55/48 44/44/38 43/43/37
f 44/44/38 55/55/48 56/56/49
f 45/45/39 46/46/40 57/57/50
f 57/57/50 46/46/40 58/58/51
f 59/59/52 47/47/41 45/45/39
f 59/59/52 45/45/39 57/57/50
f 47/47/41 60/60/53 48/48/42
f 60/60/53 47/47/41 59/59/52
f 50/50/44 61/61/54 49/49/43
f 61/61/54 50/50/44 62/62/55
f 39/39/34 61/61/54 52/52/46
f 61/61/54 39/39/34 49/49/43
f 63/63/56 64/64/57 65/65/58
f 64/64/57 63/63/56 66/66/59
f 63/63/56 67/67/18 68/68/15
f 63/63/56 68/68/15 69/69/20
f 63/63/56 69/69/20 70/70/60
f 70/70/60 71/71/61 63/63/56
f 63/63/56 71/71/61 66/66/59
f 65/65/58 72/72/62 73/73/63
f 72/72/62 65/65/58 64/64/57
f 65/65/58 73/73/63 74/74/64
f 65/65/58 74/74/64 75/75/30
f 65/65/58 75/75/30 76/76/33
f 63/63/56 65/65/58 67/67/18
f 76/76/33 67/67/18 65/65/58
f 68/68/15 77/77/65 78/78/17
f 77/77/65 68/68/15 67/67/18
f 68/68/15 79/79/19 69/69/20
f 79/79/19 68/68/15 78/78/17
f 80/80/66 69/69/20 79/79/19
f 69/69/20 80/80/66 70/70/60
f 80/80/66 81/81/67 70/70/60
f 70/70/60 81/81/67 71/71/61
f 73/73/63 72/72/62 82/82/68
f 82/82/68 72/72/62 83/83/69
f 74/74/64 82/82/68 84/84/70
f 82/82/68 74/74/64 73/73/63
f 84/84/70 75/75/30 74/74/64
f 75/75/30 84/84/70 85/85/31
f 75/75/30 86/86/71 76/76/33
f 86/86/71 75/75/30 85/85/31
f 67/67/18 76/76/33 77/77/65
f 86/86/71 77/77/65 76/76/33
f 87/87/72 88/88/73 89/89/74
f 88/88/73 87/87/72 90/90/16
f 87/87/72 89/89/74 91/91/75
f 87/87/72 91/91/75 92/92/76
f 92/92/76 91/91/75 93/93/77
f 92/92/76 93/93/77 94/94/78
f 95/95/77 96/96/79 97/97/78
f 96/96/79 95/95/77 98/98/80
f 99/99/81 100/100/82 101/101/83
f 101/101/83 100/100/82 102/102/84
f 103/103/85 101/101/83 104/104/86
f 101/101/83 103/103/85 99/99/81
f 105/105/87 106/106/86 107/107/88
f 106/106/86 105/105/87 108/108/70
f 105/105/87 109/109/89 110/110/90
f 109/109/89 105/105/87 107/107/88
f 110/110/90 88/88/73 90/90/16
f 88/88/73 110/110/90 109/109/89
f 101/101/83 102/102/84 111/111/91
f 111/111/91 102/102/84 112/112/92
f 113/113/56 114/114/93 115/115/58
f 114/114/93 113/113/56 116/116/94
f 115/115/58 117/117/95 118/118/33
f 115/115/58 119/119/64 117/117/95
f 115/115/58 120/120/63 119/119/64
f 115/115/58 121/121/96 120/120/63
f 121/121/96 115/115/58 114/114/93
f 116/116/94 113/113/56 122/122/97
f 122/122/97 123/123/98 116/116/94
f 113/113/56 124/124/99 122/122/97
f 113/113/56 125/125/15 124/124/99
f 113/113/56 126/126/18 125/125/15
f 113/113/56 118/118/33 126/126/18
f 118/118/33 113/113/56 115/115/58
f 127/127/100 118/118/33 128/128/31
f 128/128/31 118/118/33 117/117/95
f 119/119/64 128/128/31 117/117/95
f 128/128/31 119/119/64 129/129/70
f 119/119/64 130/130/101 129/129/70
f 130/130/101 119/119/64 120/120/63
f 121/121/96 130/130/101 120/120/63
f 130/130/101 121/121/96 131/131/82
f 123/123/98 122/122/97 132/132/66
f 132/132/66 133/133/79 123/123/98
f 124/124/99 132/132/66 122/122/97
f 132/132/66 124/124/99 134/134/76
f 135/135/17 124/124/99 125/125/15
f 124/124/99 135/135/17 134/134/76
f 125/125/15 136/136/102 135/135/17
f 136/136/102 125/125/15 126/126/18
f 127/127/100 136/136/102 126/126/18
f 127/127/100 126/126/18 118/118/33
f 137/137/87 138/138/103 139/139/90
f 138/138/103 137/137/87 140/140/104
f 141/141/29 140/140/104 137/137/87
f 140/140/104 141/141/29 142/142/105
f 141/141/29 143/143/106 142/142/105
f 143/143/106 141/141/29 144/144/101
f 145/145/69 146/146/107 147/147/68
f 146/146/107 145/145/69 148/148/108
f 149/149/67 150/150/109 151/151/110
f 151/151/110 152/152/111 149/149/67
f 153/153/112 151/151/110 150/150/109
f 151/151/110 153/153/112 154/154/113
f 155/155/72 156/156/75 157/157/76
f 156/156/75 155/155/72 158/158/114
f 155/155/72 159/159/16 160/160/73
f 155/155/72 160/160/73 158/158/114
f 139/139/90 160/160/73 159/159/16
f 160/160/73 139/139/90 138/138/103
f 151/151/110 161/161/115 152/152/111
f 161/161/115 162/162/116 152/152/111
f 163/163/117 164/164/118 165/165/119
f 164/164/118 163/163/117 166/166/120
f 165/165/119 167/167/121 168/168/122
f 165/165/119 169/169/123 167/167/121
f 165/165/119 170/170/124 169/169/123
f 165/165/119 171/171/125 170/170/124
f 171/171/125 165/165/119 164/164/118
f 163/163/117 172/172/126 166/166/120
f 172/172/126 163/163/117 173/173/127
f 163/163/117 174/174/128 173/173/127
f 163/163/117 175/175/129 174/174/128
f 163/163/117 176/176/130 175/175/129
f 163/163/117 168/168/122 176/176/130
f 168/168/122 163/163/117 165/165/119
f 167/167/121 177/177/131 168/168/122
f 177/177/131 167/167/121 178/178/132
f 169/169/123 179/179/133 167/167/121
f 179/179/133 178/178/132 167/167/121
f 169/169/123 180/180/134 179/179/133
f 180/180/134 169/169/123 170/170/124
f 170/170/124 181/181/135 180/180/134
f 181/181/135 170/170/124 171/171/125
f 173/173/127 182/182/136 172/172/126
f 182/182/136 173/173/127 183/183/137
f 174/174/128 183/183/137 173/173/127
f 183/183/137 174/174/128 184/184/138
f 175/175/129 184/184/138 174/174/128
f 184/184/138 175/175/129 185/185/139
f 176/176/130 186/186/140 175/175/129
f 186/186/140 185/185/139 175/175/129
f 168/168/122 186/186/140 176/176/130
f 186/186/140 168/168/122 177/177/131
f 187/187/141 188/188/142 189/189/143
f 188/188/142 187/187/141 190/190/144
f 191/191/133 190/190/144 187/187/141
f 190/190/144 191/191/133 192/192/145
f 191/191/133 193/193/146 192/192/145
f 193/193/146 191/191/133 194/194/134
f 195/195/134 196/196/147 197/197/148
f 196/196/147 195/195/134 198/198/135
f 199/199/137 200/200/149 201/201/150
f 200/200/149 199/199/137 202/202/151
f 203/203/152 202/202/151 199/199/137
f 202/202/151 203/203/152 204/204/153
f 205/205/154 206/206/155 207/207/152
f 206/206/155 208/208/156 207/207/152
f 205/205/154 209/209/157 210/210/158
f 205/205/154 210/210/158 206/206/155
f 189/189/143 210/210/158 209/209/157
f 210/210/158 189/189/143 188/188/142
f 190/190/144 211/211/159 188/188/142
f 188/188/142 211/211/159 212/212/160
f 190/190/144 213/213/161 211/211/159
f 213/213/161 190/190/144 192/192/145
f 214/214/162 215/215/163 216/216/164
f 215/215/163 214/214/162 197/197/148
f 197/197/148 217/217/51 215/215/163
f 217/217/51 197/197/148 196/196/147
f 202/202/151 218/218/49 200/200/149
f 218/218/49 202/202/151 219/219/165
f 219/219/165 204/204/153 220/220/166
f 204/204/153 219/219/165 202/202/151
f 220/220/166 221/221/155 222/222/167
f 221/221/155 220/220/166 204/204/153
f 210/210/158 223/223/167 206/206/155
f 223/223/167 210/210/158 224/224/168
f 188/188/142 224/224/168 210/210/158
f 224/224/168 188/188/142 212/212/160
