# Blender v3.5.1 OBJ File: 'f1.blend'
# www.blender.org
mtllib Mesh_77.mtl
o Mesh_77
v 0.043937 1.311503 1.016657
v 0.058481 1.307467 1.021823
v 0.058671 1.308358 1.016657
v 0.043747 1.310612 1.021823
v 0.057933 1.304901 1.026366
v 0.043199 1.308047 1.026366
v 0.057094 1.300971 1.031448
v 0.042360 1.304116 1.031448
v 0.056065 1.296150 1.031533
v 0.041331 1.299295 1.031533
v 0.040236 1.294164 1.031533
v 0.054970 1.291019 1.031533
v 0.039207 1.289343 1.033309
v 0.053941 1.286198 1.033309
v 0.053102 1.282268 1.026366
v 0.038368 1.285413 1.026366
v 0.052554 1.279703 1.021823
v 0.037820 1.282848 1.021823
v 0.052364 1.278812 1.016657
v 0.037630 1.281957 1.016657
v 0.037820 1.282848 1.011490
v 0.052554 1.279703 1.011490
v 0.038368 1.285413 1.006947
v 0.053102 1.282268 1.006947
v 0.038754 1.287246 1.003086
v 0.053488 1.284101 1.003086
v 0.040236 1.294164 1.001780
v 0.054970 1.291019 1.001780
v 0.056065 1.296150 1.001780
v 0.041331 1.299295 1.001780
v 0.057094 1.300971 1.000889
v 0.042360 1.304116 1.000889
v 0.043199 1.308047 1.006947
v 0.057933 1.304901 1.006947
v 0.043747 1.310612 1.011490
v 0.058481 1.307467 1.011490
v 0.043937 1.311503 1.016657
v 0.058671 1.308358 1.016657
v -0.058481 1.307467 1.021823
v -0.043937 1.311503 1.016657
v -0.058671 1.308358 1.016657
v -0.043746 1.310612 1.021823
v -0.057933 1.304901 1.026366
v -0.043199 1.308047 1.026366
v -0.057094 1.300971 1.031448
v -0.042360 1.304116 1.031448
v -0.056065 1.296150 1.031533
v -0.041331 1.299295 1.031533
v -0.054970 1.291019 1.031533
v -0.040236 1.294164 1.031533
v -0.053941 1.286198 1.033309
v -0.039207 1.289343 1.033309
v -0.053102 1.282268 1.026366
v -0.038368 1.285413 1.026366
v -0.052554 1.279703 1.021823
v -0.037820 1.282848 1.021823
v -0.052364 1.278812 1.016657
v -0.037630 1.281957 1.016657
v -0.052554 1.279703 1.011490
v -0.037820 1.282848 1.011490
v -0.053102 1.282268 1.006947
v -0.038368 1.285413 1.006947
v -0.053488 1.284101 1.003086
v -0.038754 1.287246 1.003086
v -0.040236 1.294164 1.001780
v -0.054970 1.291019 1.001780
v -0.041331 1.299295 1.001780
v -0.056065 1.296150 1.001780
v -0.057094 1.300971 1.000889
v -0.042360 1.304116 1.000889
v -0.057933 1.304901 1.006947
v -0.043199 1.308047 1.006947
v -0.058481 1.307467 1.011490
v -0.043746 1.310612 1.011490
v -0.058671 1.308358 1.016657
v -0.043937 1.311503 1.016657
v 0.060204 1.382702 1.035206
v 0.057022 1.382140 0.983703
v 0.060204 1.382701 0.983703
v 0.057022 1.382141 1.035206
v 0.054225 1.380525 0.983703
v 0.054225 1.380525 1.035206
v 0.052148 1.378050 1.035206
v 0.052148 1.378050 0.983703
v 0.051043 1.375014 1.035206
v 0.051043 1.375014 0.983703
v 0.051043 1.371784 1.035206
v 0.051043 1.371784 0.983703
v 0.052148 1.368748 0.983703
v 0.052148 1.368748 1.035206
v 0.054225 1.366273 1.035206
v 0.054225 1.366273 0.983703
v 0.057022 1.364658 0.983703
v 0.057022 1.364658 1.035206
v 0.060204 1.364097 1.035206
v 0.060204 1.364097 0.983703
v 0.063386 1.364658 0.983703
v 0.063386 1.364658 1.035206
v 0.066183 1.366273 0.983703
v 0.066183 1.366273 1.035206
v 0.068260 1.368748 1.035206
v 0.068260 1.368748 0.983703
v 0.069365 1.371784 1.035206
v 0.069365 1.371784 0.983703
v 0.069365 1.375014 1.035206
v 0.069365 1.375014 0.983703
v 0.068260 1.378050 1.035206
v 0.068260 1.378050 0.983703
v 0.066183 1.380525 1.035206
v 0.066183 1.380525 0.983703
v 0.063386 1.382140 0.983703
v 0.063386 1.382141 1.035206
v 0.060204 1.382702 1.035206
v 0.060204 1.382701 0.983703
v -0.060204 1.382702 1.035206
v -0.057022 1.382140 0.983703
v -0.057022 1.382141 1.035206
v -0.060204 1.382701 0.983703
v -0.054225 1.380525 0.983703
v -0.054225 1.380525 1.035206
v -0.052148 1.378050 0.983703
v -0.052148 1.378050 1.035206
v -0.051043 1.375014 0.983703
v -0.051043 1.375014 1.035206
v -0.051043 1.371784 0.983703
v -0.051043 1.371784 1.035206
v -0.052148 1.368748 0.983703
v -0.052148 1.368748 1.035206
v -0.054225 1.366273 0.983703
v -0.054225 1.366273 1.035206
v -0.057022 1.364658 0.983703
v -0.057022 1.364658 1.035206
v -0.060204 1.364097 1.035206
v -0.060204 1.364097 0.983703
v -0.063386 1.364658 0.983703
v -0.063386 1.364658 1.035206
v -0.066183 1.366273 0.983703
v -0.066183 1.366273 1.035206
v -0.068260 1.368748 1.035206
v -0.068260 1.368748 0.983703
v -0.069365 1.371784 1.035206
v -0.069365 1.371784 0.983703
v -0.069365 1.375014 1.035206
v -0.069365 1.375014 0.983703
v -0.068260 1.378050 1.035206
v -0.068260 1.378050 0.983703
v -0.066183 1.380525 1.035206
v -0.066183 1.380525 0.983703
v -0.063386 1.382141 1.035206
v -0.063386 1.382140 0.983703
v -0.060204 1.382701 0.983703
v -0.060204 1.382702 1.035206
vt 0.250000 0.000000
vt 0.000000 -0.055556
vt 0.000000 0.000000
vt 0.250000 -0.055556
vt 0.000000 -0.111111
vt 0.250000 -0.111111
vt 0.000000 -0.166667
vt 0.250000 -0.166667
vt 0.000000 -0.222222
vt 0.250000 -0.222222
vt 0.250000 -0.277778
vt 0.000000 -0.277778
vt 0.250000 -0.333333
vt 0.000000 -0.333333
vt 0.000000 -0.388889
vt 0.250000 -0.388889
vt 0.000000 -0.444444
vt 0.250000 -0.444444
vt 0.000000 -0.500000
vt 0.250000 -0.500000
vt 0.250000 -0.555556
vt 0.000000 -0.555556
vt 0.250000 -0.611111
vt 0.000000 -0.611111
vt 0.250000 -0.666667
vt 0.000000 -0.666667
vt 0.250000 -0.722222
vt 0.000000 -0.722222
vt 0.000000 -0.777778
vt 0.250000 -0.777778
vt 0.000000 -0.833333
vt 0.250000 -0.833333
vt 0.250000 -0.888889
vt 0.000000 -0.888889
vt 0.250000 -0.944444
vt 0.000000 -0.944444
vt 0.250000 -1.000000
vt 0.000000 -1.000000
vt 0.000000 -0.055556
vt 0.250000 0.000000
vt 0.000000 0.000000
vt 0.250000 -0.055556
vt 0.000000 -0.111111
vt 0.250000 -0.111111
vt 0.000000 -0.166667
vt 0.250000 -0.166667
vt 0.000000 -0.222222
vt 0.250000 -0.222222
vt 0.000000 -0.277778
vt 0.250000 -0.277778
vt 0.000000 -0.333333
vt 0.250000 -0.333333
vt 0.000000 -0.388889
vt 0.250000 -0.388889
vt 0.000000 -0.444444
vt 0.250000 -0.444444
vt 0.000000 -0.500000
vt 0.250000 -0.500000
vt 0.000000 -0.555556
vt 0.250000 -0.555556
vt 0.000000 -0.611111
vt 0.250000 -0.611111
vt 0.000000 -0.666667
vt 0.250000 -0.666667
vt 0.250000 -0.722222
vt 0.000000 -0.722222
vt 0.250000 -0.777778
vt 0.000000 -0.777778
vt 0.000000 -0.833333
vt 0.250000 -0.833333
vt 0.000000 -0.888889
vt 0.250000 -0.888889
vt 0.000000 -0.944444
vt 0.250000 -0.944444
vt 0.000000 -1.000000
vt 0.250000 -1.000000
vt 0.250000 0.000000
vt 0.000000 -0.055556
vt 0.000000 0.000000
vt 0.250000 -0.055556
vt 0.000000 -0.111111
vt 0.250000 -0.111111
vt 0.250000 -0.166667
vt 0.000000 -0.166667
vt 0.250000 -0.222222
vt 0.000000 -0.222222
vt 0.250000 -0.277778
vt 0.000000 -0.277778
vt 0.000000 -0.333333
vt 0.250000 -0.333333
vt 0.250000 -0.388889
vt 0.000000 -0.388889
vt 0.000000 -0.444444
vt 0.250000 -0.444444
vt 0.250000 -0.500000
vt 0.000000 -0.500000
vt 0.000000 -0.555556
vt 0.250000 -0.555556
vt 0.000000 -0.611111
vt 0.250000 -0.611111
vt 0.250000 -0.666667
vt 0.000000 -0.666667
vt 0.250000 -0.722222
vt 0.000000 -0.722222
vt 0.250000 -0.777778
vt 0.000000 -0.777778
vt 0.250000 -0.833333
vt 0.000000 -0.833333
vt 0.250000 -0.888889
vt 0.000000 -0.888889
vt 0.000000 -0.944444
vt 0.250000 -0.944444
vt 0.250000 -1.000000
vt 0.000000 -1.000000
vt 0.250000 0.000000
vt 0.000000 -0.055556
vt 0.250000 -0.055556
vt 0.000000 0.000000
vt 0.000000 -0.111111
vt 0.250000 -0.111111
vt 0.000000 -0.166667
vt 0.250000 -0.166667
vt 0.000000 -0.222222
vt 0.250000 -0.222222
vt 0.000000 -0.277778
vt 0.250000 -0.277778
vt 0.000000 -0.333333
vt 0.250000 -0.333333
vt 0.000000 -0.388889
vt 0.250000 -0.388889
vt 0.000000 -0.444444
vt 0.250000 -0.444444
vt 0.250000 -0.500000
vt 0.000000 -0.500000
vt 0.000000 -0.555556
vt 0.250000 -0.555556
vt 0.000000 -0.611111
vt 0.250000 -0.611111
vt 0.250000 -0.666667
vt 0.000000 -0.666667
vt 0.250000 -0.722222
vt 0.000000 -0.722222
vt 0.250000 -0.777778
vt 0.000000 -0.777778
vt 0.250000 -0.833333
vt 0.000000 -0.833333
vt 0.250000 -0.888889
vt 0.000000 -0.888889
vt 0.250000 -0.944444
vt 0.000000 -0.944444
vt 0.000000 -1.000000
vt 0.250000 -1.000000
vn 0.2088 0.9780 -0.0000
vn 0.1962 0.9190 0.3420
vn 0.2088 0.9780 0.0001
vn 0.1727 0.8091 0.5617
vn 0.0926 0.4337 0.8963
vn 0.0018 0.0085 1.0000
vn 0.0359 0.1683 0.9851
vn -0.0716 -0.3355 0.9393
vn -0.1807 -0.8467 0.5005
vn -0.1962 -0.9190 0.3420
vn -0.2088 -0.9780 0.0000
vn -0.2087 -0.9780 -0.0000
vn -0.1962 -0.9190 -0.3420
vn -0.1844 -0.8640 -0.4686
vn -0.1265 -0.5924 -0.7957
vn -0.1265 -0.5925 -0.7956
vn -0.0190 -0.0892 -0.9958
vn -0.0190 -0.0891 -0.9958
vn -0.0186 -0.0873 -0.9960
vn 0.0819 0.3836 -0.9198
vn 0.1775 0.8313 -0.5267
vn 0.1962 0.9190 -0.3420
vn 0.2087 0.9780 -0.0001
vn -0.1962 0.9190 0.3420
vn -0.2088 0.9780 -0.0000
vn -0.2087 0.9780 0.0001
vn -0.1727 0.8091 0.5617
vn -0.0926 0.4337 0.8963
vn -0.0018 0.0085 1.0000
vn -0.0359 0.1683 0.9851
vn 0.0716 -0.3355 0.9393
vn 0.0716 -0.3354 0.9393
vn 0.1807 -0.8467 0.5005
vn 0.1962 -0.9190 0.3420
vn 0.2088 -0.9780 -0.0000
vn 0.2087 -0.9780 -0.0000
vn 0.1962 -0.9190 -0.3420
vn 0.1844 -0.8640 -0.4686
vn 0.1265 -0.5926 -0.7955
vn 0.1265 -0.5924 -0.7957
vn 0.0190 -0.0892 -0.9958
vn 0.0190 -0.0891 -0.9958
vn 0.0186 -0.0873 -0.9960
vn -0.0819 0.3836 -0.9198
vn -0.1775 0.8313 -0.5267
vn -0.1962 0.9190 -0.3420
vn -0.2087 0.9780 -0.0001
vn -0.2087 0.9780 0.0000
vn -0.0001 -1.0000 0.0000
vn 0.3420 -0.9397 0.0000
vn 0.0000 -1.0000 0.0000
vn 0.3417 -0.9398 0.0000
vn 0.6428 -0.7661 0.0000
vn 0.6428 -0.7660 0.0000
vn 0.8660 -0.5000 -0.0000
vn 0.9848 -0.1736 0.0000
vn 0.9848 0.1736 0.0000
vn 0.8660 0.5000 0.0000
vn 0.6428 0.7660 0.0000
vn 0.3420 0.9397 0.0000
vn 0.0000 1.0000 0.0000
vn -0.3420 0.9397 0.0000
vn -0.6428 0.7660 -0.0000
vn -0.8660 0.5000 -0.0000
vn -0.9848 0.1736 -0.0000
vn -0.9848 -0.1736 -0.0000
vn -0.8660 -0.5000 0.0000
vn -0.6428 -0.7660 0.0000
vn -0.6428 -0.7661 0.0000
vn -0.3420 -0.9397 0.0000
vn 0.0001 -1.0000 0.0000
vn -0.3417 -0.9398 0.0000
usemtl plastic_interior
s 1
f 1/1/1 2/2/2 3/3/3
f 2/2/2 1/1/1 4/4/2
f 4/4/2 5/5/4 2/2/2
f 5/5/4 4/4/2 6/6/4
f 6/6/4 7/7/5 5/5/4
f 7/7/5 6/6/4 8/8/5
f 8/8/5 9/9/6 7/7/5
f 9/9/6 8/8/5 10/10/6
f 9/9/6 10/10/6 11/11/7
f 9/9/6 11/11/7 12/12/7
f 12/12/7 11/11/7 13/13/8
f 12/12/7 13/13/8 14/14/8
f 13/13/8 15/15/9 14/14/8
f 15/15/9 13/13/8 16/16/9
f 16/16/9 17/17/10 15/15/9
f 17/17/10 16/16/9 18/18/10
f 18/18/10 19/19/11 17/17/10
f 19/19/11 18/18/10 20/20/12
f 19/19/11 20/20/12 21/21/13
f 19/19/11 21/21/13 22/22/13
f 22/22/13 21/21/13 23/23/14
f 22/22/13 23/23/14 24/24/14
f 24/24/14 23/23/14 25/25/15
f 24/24/14 25/25/15 26/26/16
f 27/27/17 28/28/18 26/26/16
f 26/26/16 25/25/15 27/27/17
f 29/29/19 27/27/17 30/30/19
f 27/27/17 29/29/19 28/28/18
f 31/31/20 30/30/19 32/32/20
f 30/30/19 31/31/20 29/29/19
f 31/31/20 32/32/20 33/33/21
f 31/31/20 33/33/21 34/34/21
f 34/34/21 33/33/21 35/35/22
f 34/34/21 35/35/22 36/36/22
f 36/36/22 35/35/22 37/37/1
f 36/36/22 37/37/1 38/38/23
f 39/39/24 40/40/25 41/41/26
f 40/40/25 39/39/24 42/42/24
f 43/43/27 42/42/24 39/39/24
f 42/42/24 43/43/27 44/44/27
f 45/45/28 44/44/27 43/43/27
f 44/44/27 45/45/28 46/46/28
f 47/47/29 46/46/28 45/45/28
f 46/46/28 47/47/29 48/48/29
f 49/49/30 48/48/29 47/47/29
f 48/48/29 49/49/30 50/50/30
f 51/51/31 50/50/30 49/49/30
f 50/50/30 51/51/31 52/52/32
f 53/53/33 52/52/32 51/51/31
f 52/52/32 53/53/33 54/54/33
f 55/55/34 54/54/33 53/53/33
f 54/54/33 55/55/34 56/56/34
f 57/57/35 56/56/34 55/55/34
f 56/56/34 57/57/35 58/58/36
f 59/59/37 60/60/37 57/57/35
f 58/58/36 57/57/35 60/60/37
f 61/61/38 62/62/38 59/59/37
f 60/60/37 59/59/37 62/62/38
f 63/63/39 64/64/40 61/61/38
f 62/62/38 61/61/38 64/64/40
f 65/65/41 63/63/39 66/66/42
f 63/63/39 65/65/41 64/64/40
f 67/67/43 66/66/42 68/68/43
f 66/66/42 67/67/43 65/65/41
f 69/69/44 67/67/43 68/68/43
f 67/67/43 69/69/44 70/70/44
f 71/71/45 72/72/45 69/69/44
f 70/70/44 69/69/44 72/72/45
f 73/73/46 74/74/46 71/71/45
f 72/72/45 71/71/45 74/74/46
f 75/75/47 76/76/48 73/73/46
f 74/74/46 73/73/46 76/76/48
f 77/77/49 78/78/50 79/79/51
f 78/78/50 77/77/49 80/80/52
f 80/80/52 81/81/53 78/78/50
f 81/81/53 80/80/52 82/82/54
f 81/81/53 82/82/54 83/83/55
f 81/81/53 83/83/55 84/84/55
f 84/84/55 83/83/55 85/85/56
f 84/84/55 85/85/56 86/86/56
f 87/87/57 86/86/56 85/85/56
f 86/86/56 87/87/57 88/88/57
f 87/87/57 89/89/58 88/88/57
f 89/89/58 87/87/57 90/90/58
f 89/89/58 90/90/58 91/91/59
f 89/89/58 91/91/59 92/92/59
f 93/93/60 91/91/59 94/94/60
f 91/91/59 93/93/60 92/92/59
f 95/95/61 96/96/61 93/93/60
f 93/93/60 94/94/60 95/95/61
f 97/97/62 95/95/61 98/98/62
f 95/95/61 97/97/62 96/96/61
f 99/99/63 98/98/62 100/100/63
f 98/98/62 99/99/63 97/97/62
f 101/101/64 102/102/64 99/99/63
f 101/101/64 99/99/63 100/100/63
f 103/103/65 104/104/65 102/102/64
f 103/103/65 102/102/64 101/101/64
f 105/105/66 106/106/66 104/104/65
f 105/105/66 104/104/65 103/103/65
f 107/107/67 108/108/67 106/106/66
f 107/107/67 106/106/66 105/105/66
f 109/109/68 110/110/69 108/108/67
f 109/109/68 108/108/67 107/107/67
f 109/109/68 111/111/70 110/110/69
f 111/111/70 109/109/68 112/112/70
f 113/113/71 111/111/70 112/112/70
f 111/111/70 113/113/71 114/114/51
f 115/115/71 116/116/70 117/117/72
f 116/116/70 115/115/71 118/118/51
f 117/117/72 119/119/68 120/120/68
f 119/119/68 117/117/72 116/116/70
f 121/121/67 122/122/67 119/119/68
f 120/120/68 119/119/68 122/122/67
f 123/123/66 122/122/67 121/121/67
f 122/122/67 123/123/66 124/124/66
f 125/125/65 126/126/65 123/123/66
f 124/124/66 123/123/66 126/126/65
f 127/127/64 128/128/64 125/125/65
f 126/126/65 125/125/65 128/128/64
f 129/129/63 130/130/63 127/127/64
f 128/128/64 127/127/64 130/130/63
f 131/131/62 132/132/62 129/129/63
f 129/129/63 132/132/62 130/130/63
f 133/133/61 131/131/62 134/134/61
f 131/131/62 133/133/61 132/132/62
f 135/135/60 136/136/60 134/134/61
f 134/134/61 136/136/60 133/133/61
f 137/137/59 136/136/60 135/135/60
f 136/136/60 137/137/59 138/138/59
f 139/139/58 137/137/59 140/140/58
f 137/137/59 139/139/58 138/138/59
f 141/141/57 140/140/58 142/142/57
f 140/140/58 141/141/57 139/139/58
f 143/143/56 142/142/57 144/144/56
f 142/142/57 143/143/56 141/141/57
f 145/145/55 144/144/56 146/146/55
f 144/144/56 145/145/55 143/143/56
f 147/147/54 146/146/55 148/148/53
f 146/146/55 147/147/54 145/145/55
f 147/147/54 148/148/53 149/149/50
f 149/149/50 148/148/53 150/150/50
f 149/149/50 151/151/49 152/152/51
f 151/151/49 149/149/50 150/150/50
