# Blender v3.5.1 OBJ File: 'f1.blend'
# www.blender.org
mtllib Mesh_133.mtl
o Mesh_133
v -1.031854 1.861746 -4.923880
v -1.031854 1.877344 -4.959531
v -1.031854 1.869823 -4.961060
v -1.031854 1.854879 -4.924988
v -1.031854 1.885088 -4.996469
v -1.031854 1.893295 -4.994605
v -1.031854 1.900717 -5.030547
v -1.031854 1.909656 -5.028525
v -1.031854 1.926460 -5.060714
v -1.031854 1.916727 -5.062633
v -1.031854 1.933113 -5.092060
v -1.031854 1.943711 -5.090593
v -1.031854 1.948789 -5.117934
v -1.031854 1.960034 -5.117105
v -1.031854 1.962699 -5.139362
v -1.031854 1.974084 -5.139188
v -1.031854 1.973815 -5.155450
v -1.031854 1.984546 -5.155782
v -1.031854 1.981130 -5.165304
v -1.031854 1.990126 -5.165828
v -1.031854 1.985604 -5.170438
v -1.031854 1.992052 -5.170918
v -1.031854 1.988193 -5.172362
v -1.031854 1.989856 -5.172593
v -1.031854 1.991552 -5.172642
vt 42.180801 -17.075455
vt 42.341156 -15.221169
vt 42.692032 -15.328987
vt 42.494621 -17.186026
vt 42.860867 -13.492503
vt 42.473515 -13.383058
vt 42.983952 -11.703561
vt 42.562187 -11.583987
vt 42.592716 -9.847583
vt 43.045395 -9.989620
vt 43.030300 -8.378714
vt 42.551609 -8.197904
vt 42.963718 -6.933303
vt 42.472439 -6.710940
vt 42.869614 -5.715063
vt 42.387428 -5.461957
vt 42.770733 -4.785037
vt 42.327572 -4.525618
vt 42.688896 -4.203785
vt 42.323013 -3.976020
vt 42.618412 -3.885825
vt 42.358536 -3.718184
vt 42.553696 -3.745748
vt 42.489098 -3.698013
vt 42.418976 -3.657174
vn -1.0000 0.0000 0.0000
usemtl chrome
s off
f 1/1/1 2/2/1 3/3/1
f 1/1/1 3/3/1 4/4/1
f 5/5/1 2/2/1 6/6/1
f 2/2/1 5/5/1 3/3/1
f 7/7/1 6/6/1 8/8/1
f 6/6/1 7/7/1 5/5/1
f 8/8/1 9/9/1 10/10/1
f 8/8/1 10/10/1 7/7/1
f 9/9/1 11/11/1 10/10/1
f 9/9/1 12/12/1 11/11/1
f 12/12/1 13/13/1 11/11/1
f 12/12/1 14/14/1 13/13/1
f 14/14/1 15/15/1 13/13/1
f 14/14/1 16/16/1 15/15/1
f 16/16/1 17/17/1 15/15/1
f 16/16/1 18/18/1 17/17/1
f 18/18/1 19/19/1 17/17/1
f 18/18/1 20/20/1 19/19/1
f 20/20/1 21/21/1 19/19/1
f 20/20/1 22/22/1 21/21/1
f 23/23/1 21/21/1 22/22/1
f 24/24/1 22/22/1 25/25/1
f 23/23/1 22/22/1 24/24/1
