# Blender v3.5.1 OBJ File: 'f1.blend'
# www.blender.org
mtllib Mesh_266.mtl
o Mesh_259_Mesh_266
v -1.008385 0.949559 3.231623
v -0.921157 0.951843 3.261900
v -0.916195 0.953023 3.239073
v -1.012432 0.948686 3.254497
v -0.923295 0.948748 3.272009
v -1.014168 0.945794 3.264469
v -0.925160 0.943970 3.280985
v -1.015630 0.941055 3.272902
v -0.629695 0.958358 3.281918
v -0.583727 0.954824 3.294774
v -0.582432 0.959040 3.284960
v -0.631429 0.954307 3.291821
v -0.625398 0.961161 3.260303
v -0.579069 0.962126 3.263602
v -0.704073 0.957075 3.276774
v -0.698997 0.959428 3.254883
v -0.706222 0.953287 3.286722
v -0.584936 0.949054 3.303991
v -0.633013 0.948721 3.301106
v -0.708148 0.947968 3.295972
v -0.999986 0.948237 3.185006
v -0.905864 0.952055 3.192908
v -0.811653 0.951341 3.279597
v -0.809362 0.954772 3.269575
v -0.804036 0.956515 3.247250
v -0.813683 0.946331 3.288759
v -0.792923 0.956459 3.202849
v -0.688326 0.960442 3.212209
v -0.616161 0.963007 3.218623
v -0.571687 0.964504 3.222476
vt 0.574159 -0.681042
vt 0.619712 -0.674018
vt 0.620216 -0.685498
vt 0.574109 -0.669652
vt 0.619517 -0.668636
vt 0.574101 -0.664393
vt 0.619361 -0.663621
vt 0.574097 -0.659676
vt 0.765023 -0.689272
vt 0.788765 -0.686496
vt 0.788569 -0.691799
vt 0.765010 -0.683910
vt 0.765303 -0.700307
vt 0.788411 -0.702668
vt 0.727938 -0.685441
vt 0.728579 -0.696620
vt 0.727725 -0.680054
vt 0.788953 -0.681303
vt 0.765019 -0.678675
vt 0.727562 -0.674839
vt 0.574335 -0.703904
vt 0.621383 -0.708344
vt 0.675171 -0.674528
vt 0.675448 -0.679921
vt 0.676175 -0.691257
vt 0.674949 -0.669384
vt 0.677876 -0.713430
vt 0.730209 -0.718056
vt 0.766312 -0.721247
vt 0.788553 -0.723251
vn -0.0378 0.9993 0.0046
vn -0.0429 0.9847 0.1690
vn -0.0353 0.9993 0.0110
vn -0.0478 0.9852 0.1649
vn -0.0550 0.9238 0.3788
vn -0.0626 0.9229 0.3799
vn -0.0609 0.8821 0.4671
vn -0.0689 0.8809 0.4684
vn -0.0326 0.9681 0.2483
vn -0.0375 0.8930 0.4485
vn -0.0311 0.9672 0.2523
vn -0.0397 0.8963 0.4416
vn -0.0292 0.9965 0.0785
vn -0.0287 0.9959 0.0854
vn -0.0352 0.9740 0.2240
vn -0.0309 0.9979 0.0566
vn -0.0433 0.9068 0.4194
vn -0.0392 0.8542 0.5184
vn -0.0416 0.8598 0.5090
vn -0.0462 0.8706 0.4898
vn -0.0364 0.9988 -0.0320
vn -0.0348 0.9991 -0.0251
vn -0.0463 0.9174 0.3953
vn -0.0375 0.9801 0.1949
vn -0.0324 0.9990 0.0315
vn -0.0498 0.8799 0.4725
vn -0.0334 0.9994 -0.0069
vn -0.0323 0.9994 0.0158
vn -0.0311 0.9989 0.0364
vn -0.0306 0.9985 0.0448
usemtl decals
s 1
f 1/1/1 2/2/2 3/3/3
f 2/2/2 1/1/1 4/4/4
f 4/4/4 5/5/5 2/2/2
f 5/5/5 4/4/4 6/6/6
f 6/6/6 7/7/7 5/5/5
f 7/7/7 6/6/6 8/8/8
f 9/9/9 10/10/10 11/11/11
f 10/10/10 9/9/9 12/12/12
f 13/13/13 11/11/11 14/14/14
f 11/11/11 13/13/13 9/9/9
f 15/15/15 9/9/9 16/16/16
f 13/13/13 16/16/16 9/9/9
f 17/17/17 12/12/12 15/15/15
f 9/9/9 15/15/15 12/12/12
f 12/12/12 18/18/18 10/10/10
f 18/18/18 12/12/12 19/19/19
f 20/20/20 19/19/19 17/17/17
f 12/12/12 17/17/17 19/19/19
f 21/21/21 3/3/3 22/22/22
f 3/3/3 21/21/21 1/1/1
f 2/2/2 23/23/23 24/24/24
f 23/23/23 2/2/2 5/5/5
f 24/24/24 17/17/17 15/15/15
f 17/17/17 24/24/24 23/23/23
f 25/25/25 15/15/15 16/16/16
f 15/15/15 25/25/25 24/24/24
f 3/3/3 24/24/24 25/25/25
f 24/24/24 3/3/3 2/2/2
f 23/23/23 20/20/20 17/17/17
f 20/20/20 23/23/23 26/26/26
f 5/5/5 26/26/26 23/23/23
f 26/26/26 5/5/5 7/7/7
f 22/22/22 25/25/25 27/27/27
f 25/25/25 22/22/22 3/3/3
f 27/27/27 16/16/16 28/28/28
f 16/16/16 27/27/27 25/25/25
f 29/29/29 14/14/14 30/30/30
f 14/14/14 29/29/29 13/13/13
f 29/29/29 28/28/28 13/13/13
f 28/28/28 16/16/16 13/13/13
