# Blender v3.5.1 OBJ File: 'f1.blend'
# www.blender.org
mtllib Mesh_194.mtl
o Mesh_194
v 0.106386 0.593788 -3.223373
v 1.158982 0.926183 -3.994944
v 0.108161 0.584354 -3.227288
v 1.157208 0.935616 -3.991029
v 0.107704 0.600693 -3.215763
v 1.158525 0.942522 -3.983418
v 0.111760 0.603221 -3.206497
v 1.162581 0.945050 -3.974153
v 0.107704 0.600693 -3.215763
v 1.158525 0.942522 -3.983418
v 1.168289 0.942522 -3.965714
v 0.117467 0.600693 -3.198059
v 0.123298 0.593787 -3.192708
v 1.168289 0.942522 -3.965714
v 0.117467 0.600693 -3.198059
v 1.174119 0.935616 -3.960364
v 0.127688 0.584354 -3.191880
v 1.178509 0.926182 -3.959536
v 0.129462 0.574920 -3.195796
v 1.180284 0.916749 -3.963451
v 0.127688 0.584354 -3.191880
v 1.178509 0.926182 -3.959536
v 0.128145 0.568015 -3.203406
v 1.178966 0.909843 -3.971062
v 1.178966 0.909843 -3.971062
v 0.124089 0.565487 -3.212672
v 1.174910 0.907316 -3.980327
v 0.128145 0.568015 -3.203406
v 0.118381 0.568015 -3.221110
v 1.169203 0.909844 -3.988766
v 1.163372 0.916750 -3.994116
v 0.118381 0.568015 -3.221110
v 0.112551 0.574921 -3.226460
v 1.169203 0.909844 -3.988766
v 1.158982 0.926183 -3.994944
v 0.108161 0.584354 -3.227288
vt -22.662903 -37.891232
vt 2.821045 -3.847667
vt -23.080875 -37.586979
vt 3.239025 -4.151912
vt -22.413006 -38.347427
vt 3.488922 -4.608108
vt 19.937309 -26.200123
vt 59.252342 26.650383
vt 19.602480 -25.812836
vt 58.917496 27.037676
vt 59.654667 26.327820
vt 20.339638 -26.522686
vt 32.979031 -23.180357
vt 66.371628 21.477451
vt 32.537281 -23.061413
vt 66.813362 21.358517
vt 33.433826 -23.445953
vt 67.268173 21.092915
vt 23.092072 -30.563145
vt -1.684641 -65.137207
vt 23.504469 -30.874924
vt -1.272247 -65.448990
vt 22.583012 -30.456314
vt -2.193710 -65.030373
vt 62.775578 24.154921
vt 24.067102 -29.006660
vt 63.243340 23.946812
vt 23.599352 -28.798553
vt 24.492496 -29.298138
vt 63.668728 23.655323
vt 9.200813 -65.854614
vt 42.254185 -20.945143
vt 42.012241 -20.556883
vt 9.442762 -66.242867
vt 8.814724 -65.496391
vt 41.626156 -20.198681
vn -0.6163 0.4618 -0.6379
vn -0.5739 -0.0681 -0.8161
vn -0.5810 -0.0398 -0.8130
vn -0.6203 0.4214 -0.6615
vn -0.4778 0.8314 -0.2838
vn -0.4976 0.8051 -0.3227
vn -0.2131 0.9671 0.1389
vn -0.2366 0.9658 0.1061
vn 0.0863 0.8608 0.5015
vn 0.0986 0.8519 0.5143
vn 0.3823 0.5279 0.7584
vn 0.3848 0.5239 0.7600
vn 0.5740 0.0681 0.8160
vn 0.5810 0.0397 0.8130
vn 0.6203 -0.4214 0.6615
vn 0.6163 -0.4618 0.6379
vn 0.5810 0.0398 0.8130
vn 0.4976 -0.8051 0.3227
vn 0.4778 -0.8314 0.2838
vn 0.2366 -0.9658 -0.1061
vn 0.2131 -0.9671 -0.1389
vn 0.4977 -0.8051 0.3227
vn -0.0863 -0.8609 -0.5015
vn -0.0986 -0.8519 -0.5144
vn -0.3823 -0.5279 -0.7584
vn -0.0864 -0.8608 -0.5015
vn -0.3848 -0.5239 -0.7600
vn -0.0987 -0.8519 -0.5143
vn -0.5740 -0.0681 -0.8160
vn -0.5809 -0.0398 -0.8130
usemtl carbon
s 1
f 1/1/1 2/2/2 3/3/3
f 2/2/2 1/1/1 4/4/4
f 5/5/5 6/6/6 1/1/1
f 4/4/4 1/1/1 6/6/6
f 7/7/7 8/8/8 9/9/5
f 9/9/5 8/8/8 10/10/6
f 11/11/9 7/7/7 12/12/10
f 7/7/7 11/11/9 8/8/8
f 13/13/11 14/14/9 15/15/10
f 14/14/9 13/13/11 16/16/12
f 17/17/13 16/16/12 13/13/11
f 16/16/12 17/17/13 18/18/14
f 19/19/15 20/20/16 21/21/13
f 22/22/17 21/21/13 20/20/16
f 20/20/16 23/23/18 24/24/19
f 23/23/18 20/20/16 19/19/15
f 25/25/19 26/26/20 27/27/21
f 26/26/20 25/25/19 28/28/22
f 27/27/21 29/29/23 30/30/24
f 29/29/23 27/27/21 26/26/20
f 31/31/25 32/32/26 33/33/27
f 34/34/28 32/32/26 31/31/25
f 35/35/29 33/33/27 36/36/30
f 33/33/27 35/35/29 31/31/25
