# Blender v3.5.1 OBJ File: 'f1.blend'
# www.blender.org
mtllib Mesh_170.mtl
o Mesh_170
v -0.890104 0.838788 -4.410912
v -0.890473 0.821129 -4.390697
v -0.890539 0.818017 -4.393034
v -0.890064 0.840650 -4.409122
v -0.889823 0.852160 -4.419057
v -0.889779 0.854294 -4.418728
v -0.889781 0.854199 -4.416933
v -0.890024 0.842572 -4.407337
v -0.890407 0.824277 -4.388340
v -0.990458 0.860769 -4.419707
v -0.934211 0.855161 -4.419823
v -0.990763 0.857568 -4.419812
v -0.934013 0.858427 -4.419973
v -1.088453 0.864808 -4.419366
v -1.088895 0.861687 -4.419795
v -0.990660 0.859251 -4.416929
v -1.088453 0.864808 -4.419366
v -1.088674 0.863073 -4.416441
v -0.990458 0.860769 -4.419707
v -0.934201 0.857078 -4.417316
v -0.934013 0.858427 -4.419973
v -0.907678 0.766607 -4.320926
v -0.939914 0.767330 -4.318859
v -0.940389 0.765773 -4.327641
v -0.907725 0.764860 -4.329257
v -0.891530 0.770685 -4.327694
v -0.891601 0.767306 -4.332669
v -0.907199 0.777238 -4.324435
v -0.891530 0.770685 -4.327694
v -0.891366 0.778506 -4.328448
v -0.907678 0.766607 -4.320926
v -0.938950 0.777798 -4.322284
v -0.939914 0.767330 -4.318859
v -0.940389 0.765773 -4.327641
v -0.957962 0.793667 -4.362963
v -0.939029 0.791618 -4.362882
v -0.999095 0.767415 -4.324736
v -1.097584 0.797331 -4.363066
v -1.099951 0.770566 -4.321058
v -1.094368 0.825763 -4.399859
v -0.955580 0.819171 -4.397212
v -0.937536 0.801847 -4.354394
v -0.905862 0.801344 -4.356258
v -0.890910 0.800272 -4.357525
v -0.935046 0.844146 -4.405868
v -0.903510 0.843282 -4.406670
v -0.934201 0.857078 -4.417316
v -0.902786 0.855870 -4.417530
v -0.904529 0.825086 -4.387302
v -0.936170 0.825671 -4.385893
v -0.890407 0.824277 -4.388340
v -0.890024 0.842572 -4.407337
v -0.889781 0.854199 -4.416933
v -0.935619 0.840417 -4.412523
v -0.992638 0.842859 -4.414135
v -0.937304 0.819372 -4.395123
v -1.091358 0.847022 -4.416178
v -0.891010 0.795514 -4.360023
v -0.891601 0.767306 -4.332669
v -0.891109 0.790775 -4.362402
v -0.891530 0.770685 -4.327694
v -0.891366 0.778506 -4.328448
v -0.890910 0.800272 -4.357525
v -0.903894 0.839059 -4.411624
v -0.889823 0.852160 -4.419057
v -0.890104 0.838788 -4.410912
v -0.902747 0.853820 -4.419830
v -0.890539 0.818017 -4.393034
v -0.905252 0.818063 -4.393959
v -1.090016 0.848738 -4.402600
v -0.991724 0.845699 -4.404426
v -1.088674 0.863073 -4.416441
v -0.990660 0.859251 -4.416929
v -1.091565 0.829120 -4.380144
v -0.953709 0.824171 -4.383357
v -0.955135 0.802751 -4.351041
v -1.093065 0.804968 -4.346795
v -0.996014 0.778807 -4.318416
v -1.094790 0.781155 -4.313519
v -0.891601 0.767306 -4.332669
v -0.906610 0.790478 -4.362837
v -0.891109 0.790775 -4.362402
v -0.907725 0.764860 -4.329257
v -1.097728 0.771348 -4.310451
v -0.999095 0.767415 -4.324736
v -0.997847 0.768631 -4.315148
v -1.099951 0.770566 -4.321058
v -0.997847 0.768631 -4.315148
v -1.097728 0.771348 -4.310451
v -0.889779 0.854294 -4.418728
v -0.902605 0.857125 -4.420122
v -0.902786 0.855870 -4.417530
v -0.902605 0.857125 -4.420122
v -0.889781 0.854199 -4.416933
v -0.889779 0.854294 -4.418728
v -0.906610 0.790478 -4.362837
v -0.905862 0.801344 -4.356258
v -0.891109 0.790775 -4.362402
v -0.890910 0.800272 -4.357525
v -0.904529 0.825086 -4.387302
v -0.890539 0.818017 -4.393034
v -0.890407 0.824277 -4.388340
v -0.905252 0.818063 -4.393959
v -0.906610 0.790478 -4.362837
v -0.939029 0.791618 -4.362882
v -0.937536 0.801847 -4.354394
v -0.905862 0.801344 -4.356258
v -0.955135 0.802751 -4.351041
v -0.957962 0.793667 -4.362963
v -0.957962 0.793667 -4.362963
v -0.955580 0.819171 -4.397212
v -0.953709 0.824171 -4.383357
v -0.955135 0.802751 -4.351041
v -0.953709 0.824171 -4.383357
v -0.937304 0.819372 -4.395123
v -0.936170 0.825671 -4.385893
v -0.955580 0.819171 -4.397212
v -0.936170 0.825671 -4.385893
v -0.905252 0.818063 -4.393959
v -0.904529 0.825086 -4.387302
v -0.937304 0.819372 -4.395123
vt -13.794350 -80.438103
vt -11.798894 -80.188873
vt -11.741475 -80.474777
vt -13.809201 -80.245132
vt -14.948246 -80.226425
vt -15.051148 -80.101585
vt -14.956305 -80.006027
vt -13.827682 -80.049484
vt -11.857392 -79.900116
vt 55.546597 -41.196487
vt 52.621109 -40.868389
vt 55.458340 -40.809071
vt 52.494507 -41.300797
vt 52.910721 -41.717178
vt 55.628891 -41.590622
vt -6.992146 -50.083172
vt -2.770691 -50.414959
vt -7.009969 -50.323421
vt -2.760967 -50.170002
vt -14.337847 -49.934399
vt -14.366009 -50.168835
vt 12.746000 27.084055
vt 20.078962 27.266661
vt 20.092754 27.047529
vt 12.733268 27.292152
vt 8.514066 27.113041
vt 8.502082 27.312099
vt 34.200363 -71.134880
vt 36.620041 -71.074860
vt 36.627327 -71.733513
vt 34.176651 -71.758560
vt 32.978390 -71.594345
vt 32.963764 -71.966759
vt -35.043167 -73.028870
vt -36.227005 -73.495049
vt -36.227005 -72.909035
vt -35.023983 -73.825844
vt -32.664265 -73.036774
vt -32.608521 -73.822266
vt -3.093117 -57.119434
vt -4.453050 -55.057812
vt -3.031836 -55.181602
vt -7.492538 -57.088535
vt -14.915855 -55.002430
vt -15.051148 -57.010799
vt -14.719606 -52.867966
vt -4.314656 -53.143959
vt -32.732441 -71.233345
vt -35.105492 -71.221336
vt -36.227005 -71.278122
vt -32.852573 -68.061470
vt -35.215893 -68.076683
vt -32.895584 -67.091576
vt -35.250359 -67.132744
vt -35.168098 -69.441078
vt -32.797436 -69.446884
vt -36.227001 -69.479500
vt -36.227001 -68.108665
vt -36.227001 -67.237518
vt -2.852966 -51.521427
vt -7.127275 -51.427971
vt -2.946151 -53.100277
vt -14.527523 -51.271091
vt -0.474790 -51.573387
vt 0.558472 -50.570053
vt 0.558472 -51.572014
vt -0.412020 -50.466053
vt 0.558472 -53.128338
vt -0.543563 -53.147972
vt -21.238838 -67.960617
vt -28.605230 -68.034019
vt -21.316889 -66.884941
vt -28.663647 -67.017410
vt -21.153584 -69.432404
vt -31.486160 -69.586784
vt -31.412952 -71.193245
vt -21.079138 -71.243576
vt -28.388887 -73.050705
vt -20.987289 -73.029846
vt 0.558479 -56.928051
vt -0.601984 -55.216106
vt 0.558479 -55.169559
vt -0.645286 -57.136555
vt 48.461533 -70.909073
vt 41.031895 -71.688545
vt 40.968594 -70.967239
vt 48.595501 -71.709579
vt -28.267540 -73.815697
vt -20.782637 -73.768913
vt 0.558472 -50.410156
vt -0.406632 -50.218273
vt 6.159293 27.129066
vt 6.147754 27.323271
vt 5.182643 27.084373
vt 5.182643 27.218828
vt 77.741989 -36.866772
vt 77.780945 -36.051773
vt 78.902458 -36.820202
vt 78.902458 -36.108578
vt -42.326469 -84.201736
vt -43.385361 -84.709213
vt -43.385361 -84.240173
vt -42.283325 -84.728844
vt 77.741989 -36.866772
vt 75.312149 -36.832253
vt 75.407890 -36.063778
vt 77.780945 -36.051773
vt 74.088394 -36.023697
vt 73.890938 -36.708462
vt -20.162535 -38.201500
vt -23.362110 -38.111027
vt -22.729935 -37.205418
vt -19.825640 -37.127712
vt 82.211006 82.858932
vt 83.540779 83.591614
vt 83.535454 82.896194
vt 82.199524 83.905212
vt -39.955811 -84.207542
vt -42.283325 -84.728844
vt -42.326469 -84.201736
vt -39.880749 -84.681137
vn 0.9998 -0.0209 -0.0000
vn 0.9998 -0.0210 -0.0000
vn 0.0351 0.8699 -0.4919
vn -0.0050 -0.2408 -0.9706
vn -0.0021 -0.1608 -0.9870
vn 0.0338 0.8432 -0.5366
vn 0.0354 0.8732 -0.4862
vn -0.0008 -0.1243 -0.9922
vn 0.0358 0.7858 0.6174
vn 0.0354 0.8731 -0.4862
vn 0.0350 0.7817 0.6227
vn 0.0351 0.8700 -0.4918
vn 0.0366 0.7889 0.6134
vn 0.0338 0.8431 -0.5367
vn 0.1960 -0.4950 0.8465
vn 0.0407 -0.5195 0.8535
vn -0.0355 -0.9716 -0.2339
vn 0.0789 -0.9838 -0.1610
vn 0.3652 -0.4191 0.8313
vn 0.1561 -0.9646 -0.2125
vn 0.1385 0.5406 0.8298
vn 0.3651 -0.4190 0.8313
vn 0.1910 0.5696 0.7994
vn 0.0709 0.5695 0.8189
vn 0.0408 -0.5195 0.8535
vn -0.0421 -0.8023 -0.5954
vn -0.0498 -0.7986 -0.5998
vn -0.0321 -0.9707 -0.2383
vn -0.0277 -0.8113 -0.5839
vn -0.0302 -0.9657 -0.2579
vn -0.0177 -0.7073 -0.7067
vn 0.0024 -0.6695 -0.7428
vn 0.0649 0.7867 0.6139
vn 0.0758 0.7952 0.6016
vn 0.0979 0.7935 0.6006
vn 0.0367 0.6977 0.7155
vn 0.0542 0.6885 0.7232
vn 0.0367 0.7889 0.6134
vn 0.0709 0.8136 0.5771
vn 0.0606 0.7255 0.6855
vn 0.0387 0.7310 0.6813
vn 0.0822 0.7206 0.6884
vn 0.0710 0.6825 0.7274
vn 0.1028 0.8189 0.5647
vn 0.0020 -0.5297 -0.8482
vn -0.0043 -0.4798 -0.8774
vn 0.0098 -0.6193 -0.7851
vn -0.0075 -0.4661 -0.8847
vn 0.0097 -0.5670 -0.8236
vn 0.0473 -0.2765 -0.9598
vn 0.0244 -0.5795 -0.8146
vn 0.0227 -0.2575 -0.9660
vn 0.0364 -0.6486 -0.7603
vn 0.0173 -0.6446 -0.7643
vn 0.0361 0.7152 0.6980
vn 0.0361 0.7095 0.7038
vn 0.0381 0.7838 0.6198
vn 0.0373 0.7652 0.6427
vn 0.0593 0.7941 0.6049
vn 0.0377 0.8084 0.5874
vn 0.0580 0.5691 0.8202
vn 0.0492 0.5443 0.8375
vn -0.0142 -0.7952 -0.6062
vn 0.0109 -0.7904 -0.6125
vn 0.0138 -0.6852 0.7283
vn 0.0311 -0.5404 0.8408
vn 0.0138 -0.6852 0.7282
vn 0.1876 0.7765 -0.6015
vn 0.1152 0.8131 -0.5707
vn 0.1152 0.8130 -0.5707
vn 0.1028 0.8189 0.5646
vn 0.1876 0.7761 -0.6020
vn -0.0113 0.4906 -0.8713
vn -0.0113 0.4907 -0.8713
vn -0.0113 0.4908 -0.8712
vn -0.0163 -0.6490 0.7606
vn -0.0081 0.5818 -0.8133
vn -0.0054 0.6600 -0.7512
vn -0.0055 0.6569 -0.7539
vn -0.0028 0.7266 -0.6870
vn 0.9793 -0.1874 -0.0761
vn 0.0481 -0.8996 0.4341
vn 0.0173 -0.8457 0.5334
vn 0.0132 -0.8375 0.5463
vn -0.0202 -0.7649 0.6438
vn -0.0203 -0.7649 0.6438
vn 0.0174 -0.8457 0.5334
usemtl carbon
s off
f 1/1/1 2/2/1 3/3/1
f 2/2/2 1/1/2 4/4/2
f 5/5/1 4/4/1 1/1/1
f 4/4/2 5/5/2 6/6/2
f 7/7/1 4/4/1 6/6/1
f 4/4/2 7/7/2 8/8/2
f 4/4/2 9/9/2 2/2/2
f 9/9/1 4/4/1 8/8/1
f 58/10/2 59/11/2 60/12/2
f 59/11/2 58/10/2 61/13/2
f 58/10/1 62/14/1 61/13/1
f 62/14/1 58/10/1 63/15/1
s 1
f 10/16/3 11/17/4 12/18/5
f 11/17/4 10/16/3 13/19/6
f 14/20/7 12/18/5 15/21/8
f 12/18/5 14/20/7 10/16/3
f 16/22/9 17/23/10 18/24/11
f 17/23/10 16/22/9 19/25/12
f 20/26/13 19/25/12 16/22/9
f 19/25/12 20/26/13 21/27/14
f 22/28/15 23/29/16 24/30/17
f 22/28/15 24/30/17 25/31/18
f 26/32/19 22/28/15 25/31/18
f 26/32/19 25/31/18 27/33/20
f 28/34/21 29/35/22 30/36/23
f 29/35/22 28/34/21 31/37/15
f 32/38/24 31/37/15 28/34/21
f 31/37/15 32/38/24 33/39/25
f 34/40/17 35/41/26 36/42/27
f 35/41/26 34/40/17 37/43/28
f 38/44/29 37/43/28 39/45/30
f 37/43/28 38/44/29 35/41/26
f 35/41/26 40/46/31 41/47/32
f 40/46/31 35/41/26 38/44/29
f 28/34/21 42/48/33 32/38/24
f 42/48/33 28/34/21 43/49/34
f 30/36/23 43/49/34 28/34/21
f 43/49/34 30/36/23 44/50/35
f 45/51/36 46/52/37 47/53/38
f 48/54/39 47/53/38 46/52/37
f 49/55/40 45/51/36 50/56/41
f 45/51/36 49/55/40 46/52/37
f 51/57/42 46/52/37 49/55/40
f 46/52/37 51/57/42 52/58/43
f 53/59/44 46/52/37 52/58/43
f 46/52/37 53/59/44 48/54/39
f 54/60/45 12/18/5 11/17/4
f 12/18/5 54/60/45 55/61/46
f 41/47/32 54/60/45 56/62/47
f 55/61/46 54/60/45 41/47/32
f 41/47/32 40/46/31 55/61/46
f 55/61/46 40/46/31 57/63/48
f 55/61/46 15/21/8 12/18/5
f 15/21/8 55/61/46 57/63/48
f 64/64/49 65/65/50 66/66/51
f 65/65/50 64/64/49 67/67/52
f 68/68/53 64/64/49 66/66/51
f 64/64/49 68/68/53 69/69/54
f 69/69/54 54/60/45 64/64/49
f 54/60/45 69/69/54 56/62/47
f 64/64/49 11/17/4 67/67/52
f 11/17/4 64/64/49 54/60/45
f 70/70/55 71/71/56 72/72/11
f 73/73/9 72/72/11 71/71/56
f 74/74/57 71/71/56 70/70/55
f 71/71/56 74/74/57 75/75/58
f 45/51/36 75/75/58 50/56/41
f 75/75/58 45/51/36 71/71/56
f 71/71/56 45/51/36 73/73/9
f 47/53/38 73/73/9 45/51/36
f 76/76/59 74/74/57 77/77/60
f 74/74/57 76/76/59 75/75/58
f 78/78/61 77/77/60 79/79/62
f 77/77/60 78/78/61 76/76/59
f 78/78/61 32/38/24 76/76/59
f 76/76/59 32/38/24 42/48/33
f 80/80/20 81/81/63 82/82/64
f 81/81/63 80/80/20 83/83/18
f 83/83/18 36/42/27 81/81/63
f 36/42/27 83/83/18 34/40/17
f 84/84/65 85/85/28 86/86/66
f 85/85/28 84/84/65 87/87/30
f 86/86/66 24/30/17 23/29/16
f 24/30/17 86/86/66 85/85/28
f 78/78/61 33/39/25 32/38/24
f 33/39/25 78/78/61 88/88/66
f 79/79/62 88/88/66 78/78/61
f 88/88/66 79/79/62 89/89/67
f 67/67/52 90/90/68 65/65/50
f 90/90/68 67/67/52 91/91/69
f 13/19/6 67/67/52 11/17/4
f 67/67/52 13/19/6 91/91/69
f 92/92/39 21/27/14 20/26/13
f 21/27/14 92/92/39 93/93/70
f 92/92/39 94/94/71 95/95/72
f 92/92/39 95/95/72 93/93/70
f 96/96/73 97/97/74 98/98/74
f 98/98/74 97/97/74 99/99/75
f 100/100/76 101/101/76 102/102/76
f 101/101/76 100/100/76 103/103/76
f 104/104/77 105/105/78 106/106/79
f 104/104/77 106/106/79 107/107/77
f 105/105/78 108/108/80 106/106/79
f 108/108/80 105/105/78 109/109/80
f 110/110/81 111/111/81 112/112/81
f 112/112/81 113/113/81 110/110/81
f 114/114/82 115/115/83 116/116/84
f 115/115/83 114/114/82 117/117/82
f 118/118/84 119/119/85 120/120/86
f 119/119/85 118/118/84 121/121/87
