# Blender v3.5.1 OBJ File: 'f1.blend'
# www.blender.org
mtllib Mesh_48.mtl
o Mesh_48
v 0.326217 1.105986 2.856803
v 0.333449 1.121928 2.761925
v 0.322730 1.127771 2.861185
v 0.324948 1.112586 2.860331
v 0.322871 1.126327 2.861638
v 0.330104 1.144726 2.762599
v -0.333371 1.121928 2.761925
v -0.322651 1.127771 2.861185
v -0.330025 1.144726 2.762599
v -0.324869 1.112586 2.860332
v -0.322792 1.126327 2.861638
v -0.326139 1.105985 2.856804
v -0.323084 1.162807 2.782435
v -0.318266 1.151284 2.848425
v -0.316300 1.167600 2.816458
v -0.316533 1.158824 2.839554
v -0.315777 1.164662 2.828419
v 0.318344 1.151284 2.848426
v 0.316378 1.167600 2.816458
v 0.316612 1.158824 2.839555
v 0.323162 1.162807 2.782434
v 0.315856 1.164662 2.828419
v 0.320298 1.139184 2.857607
v 0.327523 1.154723 2.762867
v 0.318449 1.150221 2.849675
v -0.327445 1.154723 2.762867
v -0.320219 1.139184 2.857607
v -0.318370 1.150221 2.849675
v -0.330927 1.146831 2.749662
v 0.331006 1.146831 2.749661
v -0.332958 1.139184 2.739784
v -0.335579 1.126834 2.731188
v 0.333037 1.139184 2.739784
v 0.335657 1.126834 2.731187
v -0.337164 1.101673 2.733817
v -0.335150 1.097425 2.761184
v -0.336785 1.112586 2.729059
v -0.335627 1.126327 2.730834
v 0.336863 1.112586 2.729059
v 0.337242 1.101673 2.733816
v 0.335228 1.097425 2.761184
v 0.335706 1.126327 2.730834
v -0.337139 1.099181 2.734903
v -0.336523 1.087475 2.747392
v -0.335675 1.080764 2.760697
v 0.336601 1.087475 2.747392
v 0.337218 1.099180 2.734903
v 0.335753 1.080764 2.760696
v -0.330520 1.078786 2.824037
v -0.329345 1.085177 2.836264
v -0.332231 1.074153 2.804773
v -0.335402 1.078786 2.764619
v -0.333905 1.074153 2.784405
v 0.330599 1.078786 2.824036
v 0.332310 1.074153 2.804773
v 0.333983 1.074153 2.784405
v 0.335481 1.078786 2.764619
v 0.329423 1.085177 2.836263
v -0.328808 1.087475 2.840662
v -0.326908 1.099181 2.853167
v 0.328886 1.087475 2.840661
v 0.326987 1.099180 2.853166
vt 0.880340 -0.270455
vt 0.870407 -0.269912
vt 0.880011 -0.273322
vt 0.880458 -0.271382
vt 0.880107 -0.273152
vt 0.869724 -0.272718
vt 0.870407 -0.269912
vt 0.880011 -0.273322
vt 0.869724 -0.272718
vt 0.880458 -0.271382
vt 0.880107 -0.273152
vt 0.880340 -0.270455
vt 0.871140 -0.275406
vt 0.877947 -0.275977
vt 0.874441 -0.276738
vt 0.876939 -0.276422
vt 0.875705 -0.276727
vt 0.877947 -0.275977
vt 0.875512 -0.276747
vt 0.878528 -0.276435
vt 0.871140 -0.275406
vt 0.876867 -0.276736
vt 0.879272 -0.274672
vt 0.869458 -0.273893
vt 0.878106 -0.275877
vt 0.869458 -0.273893
vt 0.879272 -0.274672
vt 0.878106 -0.275877
vt 0.868375 -0.272644
vt 0.868375 -0.272644
vt 0.867649 -0.271456
vt 0.867197 -0.269736
vt 0.867649 -0.271456
vt 0.867197 -0.269736
vt 0.868293 -0.266773
vt 0.871152 -0.266940
vt 0.867459 -0.267969
vt 0.867179 -0.269666
vt 0.867503 -0.267972
vt 0.868293 -0.266773
vt 0.871152 -0.266940
vt 0.867286 -0.269674
vt 0.868481 -0.266514
vt 0.870098 -0.265471
vt 0.871636 -0.265019
vt 0.870157 -0.265480
vt 0.868596 -0.266532
vt 0.871636 -0.265019
vt 0.877958 -0.266358
vt 0.879020 -0.267387
vt 0.876437 -0.265410
vt 0.872091 -0.264889
vt 0.874466 -0.264926
vt 0.878009 -0.266354
vt 0.876241 -0.265348
vt 0.874213 -0.264846
vt 0.872091 -0.264889
vt 0.879020 -0.267387
vt 0.879380 -0.267777
vt 0.880215 -0.269531
vt 0.879380 -0.267777
vt 0.880215 -0.269530
vn 0.9893 0.1116 0.0941
vn 0.9903 0.1056 0.0906
vn 0.9787 0.1769 0.1037
vn 0.9853 0.1399 0.0982
vn 0.9853 0.1399 0.0981
vn 0.9757 0.1935 0.1029
vn -0.9902 0.1060 0.0906
vn -0.9787 0.1769 0.1038
vn -0.9757 0.1934 0.1030
vn -0.9853 0.1398 0.0982
vn -0.9853 0.1398 0.0983
vn -0.9893 0.1116 0.0941
vn -0.9592 0.2579 0.1156
vn -0.9568 0.2661 0.1168
vn -0.9203 0.3684 0.1314
vn -0.9205 0.3681 0.1312
vn -0.9205 0.3680 0.1312
vn 0.9568 0.2661 0.1169
vn 0.9203 0.3684 0.1314
vn 0.9205 0.3680 0.1312
vn 0.9593 0.2577 0.1156
vn 0.9205 0.3683 0.1310
vn 0.9633 0.2432 0.1134
vn 0.9634 0.2440 0.1114
vn 0.9633 0.2430 0.1136
vn -0.9633 0.2442 0.1114
vn -0.9633 0.2432 0.1135
vn -0.9634 0.2428 0.1132
vn -0.9813 0.1668 0.0960
vn 0.9813 0.1670 0.0962
vn -0.9854 0.1428 0.0928
vn -0.9916 0.0963 0.0867
vn 0.9854 0.1428 0.0928
vn 0.9916 0.0963 0.0866
vn -0.9950 0.0573 0.0815
vn -0.9953 0.0493 0.0831
vn -0.9940 0.0706 0.0832
vn -0.9940 0.0706 0.0835
vn 0.9940 0.0706 0.0832
vn 0.9950 0.0572 0.0815
vn 0.9953 0.0493 0.0831
vn 0.9941 0.0705 0.0830
vn -0.9966 0.0291 0.0777
vn -0.9965 0.0294 0.0777
vn -0.9964 0.0284 0.0804
vn 0.9966 0.0288 0.0777
vn 0.9966 0.0290 0.0777
vn 0.9964 0.0284 0.0803
vn -0.9962 0.0282 0.0819
vn -0.9945 0.0599 0.0863
vn -0.9963 0.0282 0.0817
vn -0.9963 0.0280 0.0817
vn -0.9963 0.0280 0.0818
vn 0.9963 0.0275 0.0815
vn 0.9963 0.0282 0.0818
vn 0.9962 0.0284 0.0819
vn 0.9963 0.0280 0.0818
vn 0.9945 0.0599 0.0863
vn -0.9938 0.0682 0.0876
vn 0.9938 0.0681 0.0876
vn 0.9938 0.0682 0.0876
usemtl BLACK
s 1
f 1/1/1 2/2/2 3/3/3
f 4/4/4 3/3/3 5/5/5
f 1/1/1 3/3/3 4/4/4
f 6/6/6 3/3/3 2/2/2
f 7/7/7 8/8/8 9/9/9
f 8/8/8 10/10/10 11/11/11
f 12/12/12 8/8/8 7/7/7
f 10/10/10 8/8/8 12/12/12
f 13/13/13 14/14/14 15/15/15
f 15/15/15 14/14/14 16/16/16
f 15/15/15 16/16/16 17/17/17
f 18/18/18 19/19/19 20/20/20
f 18/18/18 21/21/21 19/19/19
f 20/20/20 19/19/19 22/22/22
f 3/3/3 18/18/18 23/23/23
f 24/24/24 21/21/21 6/6/6
f 18/18/18 3/3/3 6/6/6
f 18/18/18 6/6/6 21/21/21
f 23/23/23 18/18/18 25/25/25
f 9/9/9 13/13/13 26/26/26
f 14/14/14 9/9/9 8/8/8
f 14/14/14 8/8/8 27/27/27
f 14/14/14 27/27/27 28/28/28
f 13/13/13 9/9/9 14/14/14
f 29/29/29 9/9/9 26/26/26
f 24/24/24 6/6/6 30/30/30
f 7/7/7 29/29/29 31/31/31
f 29/29/29 7/7/7 9/9/9
f 31/31/31 32/32/32 7/7/7
f 2/2/2 30/30/30 6/6/6
f 2/2/2 33/33/33 30/30/30
f 33/33/33 2/2/2 34/34/34
f 7/7/7 35/35/35 36/36/36
f 35/35/35 7/7/7 37/37/37
f 37/37/37 32/32/32 38/38/38
f 37/37/37 7/7/7 32/32/32
f 39/39/39 34/34/34 2/2/2
f 40/40/40 2/2/2 41/41/41
f 34/34/34 39/39/39 42/42/42
f 39/39/39 2/2/2 40/40/40
f 36/36/36 43/43/43 44/44/44
f 36/36/36 44/44/44 45/45/45
f 43/43/43 36/36/36 35/35/35
f 41/41/41 46/46/46 47/47/47
f 40/40/40 41/41/41 47/47/47
f 46/46/46 41/41/41 48/48/48
f 36/36/36 49/49/49 50/50/50
f 36/36/36 51/51/51 49/49/49
f 36/36/36 52/52/52 53/53/53
f 52/52/52 36/36/36 45/45/45
f 51/51/51 36/36/36 53/53/53
f 41/41/41 54/54/54 55/55/55
f 41/41/41 55/55/55 56/56/56
f 57/57/57 41/41/41 56/56/56
f 41/41/41 57/57/57 48/48/48
f 54/54/54 41/41/41 58/58/58
f 12/12/12 7/7/7 50/50/50
f 59/59/59 12/12/12 50/50/50
f 12/12/12 59/59/59 60/60/59
f 50/50/50 7/7/7 36/36/36
f 1/1/1 58/58/58 2/2/2
f 58/58/58 1/1/1 61/61/60
f 2/2/2 58/58/58 41/41/41
f 61/61/60 1/1/1 62/62/61
