# Blender v3.5.1 OBJ File: 'f1.blend'
# www.blender.org
mtllib Mesh_270.mtl
o Mesh_263_Mesh_270
v -0.264731 0.617958 4.320377
v -0.265611 0.620620 4.264914
v -0.264706 0.604922 4.320161
v -0.265634 0.633586 4.265184
v -0.266409 0.642004 4.230224
v -0.266381 0.628875 4.230224
v -0.263932 0.587153 4.374640
v -0.263956 0.600383 4.374887
v -0.263972 0.613798 4.375058
v -0.264749 0.630860 4.320523
v -0.265651 0.647720 4.265386
v -0.266430 0.657053 4.230224
v -0.259496 0.726426 4.321313
v -0.263178 0.722762 4.266187
v -0.262150 0.705447 4.321152
v -0.260655 0.743930 4.266397
v -0.261668 0.754660 4.230224
v -0.264077 0.733258 4.230224
v -0.261280 0.686888 4.375745
v -0.263733 0.682164 4.320975
v -0.262917 0.663942 4.375552
v -0.264513 0.658525 4.320786
v -0.263724 0.640636 4.375344
v -0.263978 0.618830 4.375122
v -0.264756 0.636474 4.320586
v -0.258539 0.707617 4.375922
v -0.264683 0.699053 4.265957
v -0.265513 0.709067 4.230224
v -0.265424 0.674893 4.265711
v -0.266218 0.684314 4.230224
v -0.265657 0.652374 4.265451
v -0.266436 0.661221 4.230224
v 0.264808 0.617958 4.320377
v 0.265687 0.620620 4.264914
v 0.265711 0.633586 4.265184
v 0.264782 0.604922 4.320161
v 0.266458 0.628875 4.230224
v 0.266485 0.642004 4.230224
v 0.264009 0.587153 4.374640
v 0.264032 0.600383 4.374887
v 0.264049 0.613798 4.375058
v 0.264825 0.630860 4.320523
v 0.265728 0.647720 4.265386
v 0.266507 0.657053 4.230224
v 0.259572 0.726426 4.321313
v 0.263255 0.722762 4.266187
v 0.260732 0.743930 4.266397
v 0.262227 0.705447 4.321152
v 0.264154 0.733258 4.230224
v 0.261744 0.754660 4.230224
v 0.261357 0.686888 4.375745
v 0.263810 0.682164 4.320975
v 0.262993 0.663942 4.375552
v 0.264589 0.658525 4.320786
v 0.263801 0.640636 4.375344
v 0.264055 0.618830 4.375122
v 0.264833 0.636474 4.320586
v 0.258615 0.707617 4.375922
v 0.264759 0.699053 4.265957
v 0.265590 0.709067 4.230224
v 0.265501 0.674893 4.265711
v 0.266295 0.684314 4.230224
v 0.265733 0.652374 4.265451
v 0.266512 0.661221 4.230224
vt 0.721638 -0.754684
vt 0.704423 -0.755510
vt 0.721571 -0.750638
vt 0.704508 -0.759534
vt 0.693657 -0.762147
vt 0.693657 -0.758072
vt 0.738481 -0.745122
vt 0.738557 -0.749229
vt 0.738610 -0.753392
vt 0.721684 -0.758688
vt 0.704570 -0.763921
vt 0.693657 -0.766818
vt 0.721929 -0.788350
vt 0.704819 -0.787213
vt 0.721879 -0.781838
vt 0.704884 -0.793783
vt 0.693657 -0.797113
vt 0.693657 -0.790471
vt 0.738824 -0.776078
vt 0.721824 -0.774612
vt 0.738764 -0.768956
vt 0.721765 -0.767275
vt 0.738699 -0.761723
vt 0.738630 -0.754954
vt 0.721703 -0.760431
vt 0.738879 -0.782512
vt 0.704747 -0.779854
vt 0.693657 -0.782962
vt 0.704671 -0.772355
vt 0.693657 -0.775279
vt 0.704591 -0.765366
vt 0.693657 -0.768112
vt 0.766355 -0.753400
vt 0.783570 -0.754226
vt 0.783486 -0.758251
vt 0.766422 -0.749354
vt 0.794337 -0.756788
vt 0.794337 -0.760863
vt 0.749513 -0.743839
vt 0.749436 -0.747945
vt 0.749383 -0.752109
vt 0.766310 -0.757405
vt 0.783423 -0.762638
vt 0.794337 -0.765534
vt 0.766065 -0.787066
vt 0.783175 -0.785929
vt 0.783109 -0.792499
vt 0.766115 -0.780555
vt 0.794337 -0.789187
vt 0.794337 -0.795830
vt 0.749170 -0.774795
vt 0.766169 -0.773328
vt 0.749230 -0.767672
vt 0.766228 -0.765991
vt 0.749294 -0.760439
vt 0.749363 -0.753671
vt 0.766290 -0.759147
vt 0.749115 -0.781228
vt 0.783246 -0.778570
vt 0.794337 -0.781678
vt 0.783322 -0.771072
vt 0.794337 -0.773996
vt 0.783403 -0.764082
vt 0.794337 -0.766828
vn -0.9999 -0.0019 0.0147
vn -0.9998 -0.0022 0.0183
vn -0.9999 -0.0022 0.0144
vn -0.9998 -0.0018 0.0188
vn -0.9998 -0.0017 0.0217
vn -0.9998 -0.0021 0.0217
vn -0.9999 -0.0020 0.0135
vn -0.9999 -0.0018 0.0136
vn -0.9999 -0.0014 0.0138
vn -0.9999 -0.0015 0.0148
vn -0.9998 -0.0015 0.0189
vn -0.9998 -0.0014 0.0218
vn -0.9906 0.1235 0.0590
vn -0.9947 0.0905 0.0495
vn -0.9941 0.0964 0.0489
vn -0.9913 0.1172 0.0592
vn -0.9916 0.1146 0.0600
vn -0.9943 0.0926 0.0525
vn -0.9946 0.0927 0.0473
vn -0.9982 0.0503 0.0323
vn -0.9984 0.0480 0.0309
vn -0.9995 0.0220 0.0225
vn -0.9996 0.0206 0.0211
vn -0.9999 0.0038 0.0155
vn -0.9998 0.0048 0.0168
vn -0.9900 0.1276 0.0602
vn -0.9983 0.0469 0.0342
vn -0.9982 0.0479 0.0371
vn -0.9995 0.0204 0.0254
vn -0.9994 0.0209 0.0284
vn -0.9998 0.0044 0.0205
vn -0.9997 0.0050 0.0235
vn 0.9999 -0.0019 0.0147
vn 0.9998 -0.0022 0.0183
vn 0.9998 -0.0018 0.0188
vn 0.9999 -0.0022 0.0144
vn 0.9998 -0.0021 0.0217
vn 0.9998 -0.0017 0.0217
vn 0.9999 -0.0020 0.0135
vn 0.9999 -0.0018 0.0136
vn 0.9999 -0.0014 0.0138
vn 0.9999 -0.0015 0.0148
vn 0.9998 -0.0015 0.0188
vn 0.9998 -0.0014 0.0218
vn 0.9905 0.1240 0.0589
vn 0.9947 0.0905 0.0495
vn 0.9913 0.1173 0.0592
vn 0.9941 0.0964 0.0489
vn 0.9943 0.0925 0.0525
vn 0.9916 0.1146 0.0600
vn 0.9946 0.0927 0.0473
vn 0.9982 0.0498 0.0324
vn 0.9984 0.0478 0.0310
vn 0.9995 0.0220 0.0225
vn 0.9996 0.0206 0.0211
vn 0.9999 0.0038 0.0155
vn 0.9998 0.0048 0.0168
vn 0.9900 0.1276 0.0602
vn 0.9983 0.0469 0.0342
vn 0.9982 0.0480 0.0371
vn 0.9995 0.0204 0.0254
vn 0.9994 0.0209 0.0284
vn 0.9998 0.0044 0.0205
vn 0.9997 0.0050 0.0235
usemtl decals
s 1
f 1/1/1 2/2/2 3/3/3
f 2/2/2 1/1/1 4/4/4
f 4/4/4 5/5/5 6/6/6
f 4/4/4 6/6/6 2/2/2
f 3/3/3 7/7/7 8/8/8
f 8/8/8 1/1/1 3/3/3
f 1/1/1 9/9/9 10/10/10
f 9/9/9 1/1/1 8/8/8
f 4/4/4 10/10/10 11/11/11
f 10/10/10 4/4/4 1/1/1
f 11/11/11 5/5/5 4/4/4
f 5/5/5 11/11/11 12/12/12
f 13/13/13 14/14/14 15/15/15
f 14/14/14 13/13/13 16/16/16
f 16/16/16 17/17/17 18/18/18
f 16/16/16 18/18/18 14/14/14
f 19/19/19 20/20/20 21/21/21
f 20/20/20 19/19/19 15/15/15
f 21/21/21 22/22/22 23/23/23
f 22/22/22 21/21/21 20/20/20
f 10/10/10 24/24/24 25/25/25
f 24/24/24 10/10/10 9/9/9
f 23/23/23 25/25/25 24/24/24
f 25/25/25 23/23/23 22/22/22
f 26/26/26 13/13/13 15/15/15
f 26/26/26 15/15/15 19/19/19
f 15/15/15 14/14/14 27/27/27
f 15/15/15 27/27/27 20/20/20
f 14/14/14 18/18/18 28/28/28
f 14/14/14 28/28/28 27/27/27
f 20/20/20 27/27/27 29/29/29
f 20/20/20 29/29/29 22/22/22
f 27/27/27 28/28/28 30/30/30
f 27/27/27 30/30/30 29/29/29
f 25/25/25 11/11/11 10/10/10
f 11/11/11 25/25/25 31/31/31
f 22/22/22 29/29/29 31/31/31
f 22/22/22 31/31/31 25/25/25
f 29/29/29 30/30/30 32/32/32
f 29/29/29 32/32/32 31/31/31
f 12/12/12 11/11/11 31/31/31
f 31/31/31 32/32/32 12/12/12
f 33/33/33 34/34/34 35/35/35
f 34/34/34 33/33/33 36/36/36
f 35/35/35 37/37/37 38/38/38
f 37/37/37 35/35/35 34/34/34
f 39/39/39 36/36/36 40/40/40
f 33/33/33 40/40/40 36/36/36
f 41/41/41 33/33/33 42/42/42
f 33/33/33 41/41/41 40/40/40
f 42/42/42 35/35/35 43/43/43
f 35/35/35 42/42/42 33/33/33
f 43/43/43 38/38/38 44/44/44
f 38/38/38 43/43/43 35/35/35
f 45/45/45 46/46/46 47/47/47
f 46/46/46 45/45/45 48/48/48
f 47/47/47 49/49/49 50/50/50
f 49/49/49 47/47/47 46/46/46
f 51/51/51 52/52/52 48/48/48
f 52/52/52 51/51/51 53/53/53
f 53/53/53 54/54/54 52/52/52
f 54/54/54 53/53/53 55/55/55
f 56/56/56 42/42/42 57/57/57
f 42/42/42 56/56/56 41/41/41
f 55/55/55 57/57/57 54/54/54
f 57/57/57 55/55/55 56/56/56
f 58/58/58 48/48/48 45/45/45
f 48/48/48 58/58/58 51/51/51
f 52/52/52 59/59/59 48/48/48
f 46/46/46 48/48/48 59/59/59
f 46/46/46 60/60/60 49/49/49
f 60/60/60 46/46/46 59/59/59
f 54/54/54 61/61/61 52/52/52
f 59/59/59 52/52/52 61/61/61
f 59/59/59 62/62/62 60/60/60
f 62/62/62 59/59/59 61/61/61
f 57/57/57 43/43/43 63/63/63
f 43/43/43 57/57/57 42/42/42
f 54/54/54 63/63/63 61/61/61
f 63/63/63 54/54/54 57/57/57
f 63/63/63 64/64/64 61/61/61
f 62/62/62 61/61/61 64/64/64
f 43/43/43 44/44/44 63/63/63
f 64/64/64 63/63/63 44/44/44
