# Blender v3.1.2 OBJ File: 'track.blend'
# www.blender.org
mtllib _0AD_BANNER_EMIRATES_01_SUB1.mtl
o _0AD_BANNER_EMIRATES_01_SUB1_Scene.001
v 22834.890625 92812.851562 -1225.393921
v 22828.058594 92808.914062 -1225.393921
v 22828.058594 92808.914062 -240.170792
v 22834.890625 92812.851562 -240.170792
v 22834.890625 92820.742188 -1225.393921
v 22834.890625 92820.742188 -240.170792
v 22828.058594 92824.679688 -1225.393921
v 22828.058594 92824.679688 -240.170792
v 22821.230469 92820.742188 -1225.393921
v 22821.230469 92820.742188 -240.170792
v 22821.230469 92812.851562 -1225.393921
v 22821.230469 92812.851562 -240.170792
v 21677.669922 93878.273438 -1225.393921
v 21670.849609 93874.328125 -1225.393921
v 21670.849609 93874.328125 -240.170792
v 21677.669922 93878.273438 -240.170792
v 21677.669922 93886.156250 -1225.393921
v 21677.669922 93886.156250 -240.170792
v 21670.849609 93890.085938 -1225.393921
v 21670.849609 93890.085938 -240.170792
v 21664.019531 93886.156250 -1225.393921
v 21664.019531 93886.156250 -240.170792
v 21664.019531 93878.273438 -1225.393921
v 21664.019531 93878.273438 -240.170792
v 23304.589844 93737.406250 -269.709717
v 23302.939453 93739.078125 -266.012817
v 22826.970703 92817.898438 -1220.505981
v 22828.619141 92816.218750 -1224.203003
v 22830.269531 92814.562500 -1220.505981
v 23306.230469 93735.750000 -266.012817
v 22147.880859 92077.320312 -269.709625
v 22149.529297 92075.648438 -266.012695
v 22827.099609 92811.109375 -1220.505981
v 22825.449219 92812.765625 -1224.203003
v 22823.800781 92814.437500 -1220.505981
v 22146.230469 92078.992188 -266.012695
v 20989.619141 93144.375000 -269.709625
v 20991.269531 93142.710938 -266.012695
v 21668.851562 93878.164062 -1220.505981
v 21667.199219 93879.828125 -1224.203003
v 21665.550781 93881.500000 -1220.505981
v 20987.970703 93146.054688 -266.012695
v 22640.099609 94143.843750 -269.709717
v 21673.308594 93888.687500 -1220.505981
v 21673.810547 93886.398438 -1224.203003
v 22639.599609 94146.148438 -266.012817
v 21674.310547 93884.109375 -1220.505981
v 22640.601562 94141.562500 -266.012817
vt 0.561067 -0.852047
vt 0.508817 2.914079
vt 0.508817 -0.852047
vt 0.561067 2.914079
vt 0.665568 -0.852047
vt 0.665567 2.914079
vt 0.717818 -0.852047
vt 0.717818 2.914079
vt 0.456566 2.914079
vt 0.508816 -0.852046
vt 0.508817 2.914079
vt 0.456566 -0.852046
vt 0.352066 2.914079
vt 0.352065 -0.852047
vt 0.299816 2.914079
vt 0.299815 -0.852047
vt 0.118815 2.899009
vt 0.299815 2.899009
vt 0.209315 2.914079
vt 0.118815 2.868870
vt 0.299815 2.868870
vt 0.209315 2.853800
vt 0.561067 -0.852047
vt 0.508817 2.914079
vt 0.508817 -0.852047
vt 0.561067 2.914079
vt 0.665568 -0.852047
vt 0.665567 2.914079
vt 0.717818 -0.852047
vt 0.717818 2.914079
vt 0.456566 2.914079
vt 0.508816 -0.852046
vt 0.508817 2.914079
vt 0.456566 -0.852046
vt 0.352066 2.914079
vt 0.352065 -0.852047
vt 0.299816 2.914079
vt 0.299815 -0.852047
vt 0.118815 2.899009
vt 0.299815 2.899009
vt 0.209315 2.914079
vt 0.118815 2.868870
vt 0.299815 2.868870
vt 0.209315 2.853800
vt -3.132153 1.416025
vt 4.131825 1.440725
vt -3.145915 1.440726
vt 4.145588 1.416024
vt 4.132606 1.390815
vt -3.145179 1.390730
vt 4.131825 1.440725
vt 4.132606 1.390815
vt -3.145915 1.440726
vt -3.145179 1.390730
vt -3.132153 1.416025
vt 4.131825 1.440725
vt -3.145915 1.440726
vt 4.145588 1.416024
vt 4.132606 1.390815
vt -3.145179 1.390730
vt -3.145179 1.390730
vt -3.145915 1.440726
vt 4.132606 1.390815
vt 4.131825 1.440725
vt -3.132153 1.416025
vt 4.131825 1.440725
vt -3.145915 1.440726
vt 4.145588 1.416024
vt 4.132606 1.390815
vt -3.145179 1.390730
vt -3.145179 1.390730
vt -3.145915 1.440726
vt 4.132606 1.390815
vt 4.131825 1.440725
vt -3.132153 1.416025
vt 4.145588 1.416024
vt 4.131825 1.440725
vt -3.145915 1.440726
vt 4.132606 1.390815
vt -3.145179 1.390730
vt 4.131825 1.440725
vt 4.132606 1.390815
vt -3.145915 1.440726
vt -3.145179 1.390730
vn 0.8658 -0.5004 0.0000
vn 0.0010 -1.0000 0.0000
vn -0.0008 -1.0000 -0.0000
vn 0.8662 -0.4997 -0.0000
vn 0.8664 0.4994 0.0000
vn 0.8658 0.5004 0.0000
vn 0.0010 1.0000 -0.0000
vn -0.0008 1.0000 0.0000
vn -0.8659 0.5002 0.0000
vn -0.8662 -0.4997 0.0000
vn -0.8656 -0.5007 0.0000
vn 0.0000 0.0000 -1.0000
vn 0.0003 -1.0000 0.0000
vn -0.0001 -1.0000 0.0000
vn 0.8660 0.5000 -0.0000
vn 0.0003 1.0000 0.0000
vn -0.0001 1.0000 -0.0000
vn -0.8657 0.5006 0.0000
vn -0.8659 -0.5002 0.0000
vn -0.4030 0.7533 -0.5197
vn -0.4108 0.7487 -0.5203
vn 0.9071 -0.0338 -0.4196
vn 0.9067 -0.0339 -0.4204
vn -0.4974 -0.4891 0.7165
vn -0.4924 -0.4890 0.7200
vn 0.2366 -0.8421 -0.4846
vn 0.2304 -0.8440 -0.4844
vn -0.8651 0.1866 -0.4656
vn -0.8610 0.1865 -0.4731
vn 0.4878 0.4863 0.7249
vn 0.4920 0.4864 0.7221
vn 0.2322 -0.8444 -0.4828
vn 0.2349 -0.8423 -0.4851
vn -0.8637 0.1864 -0.4682
vn -0.8619 0.1858 -0.4719
vn -0.8638 0.1864 -0.4682
vn 0.4886 0.4856 0.7249
vn 0.2586 0.8364 -0.4833
vn 0.2539 0.8359 -0.4867
vn 0.2540 0.8359 -0.4867
vn 0.6271 -0.6212 -0.4699
vn 0.6290 -0.6196 -0.4695
vn -0.6734 -0.1468 0.7245
vn -0.6759 -0.1476 0.7221
vn -0.6758 -0.1477 0.7221
usemtl ZinkMat
s 1
f 1/1/1 3/2/2 2/3/3
f 3/2/2 1/1/1 4/4/4
f 5/5/5 4/4/4 1/1/1
f 4/4/4 5/5/5 6/6/6
f 7/7/7 6/6/6 5/5/5
f 6/6/6 7/7/7 8/8/8
f 9/9/9 8/10/8 7/11/7
f 8/10/8 9/9/9 10/12/9
f 11/13/10 10/12/9 9/9/9
f 10/12/9 11/13/10 12/14/11
f 2/15/3 12/14/11 11/13/10
f 12/14/11 2/15/3 3/16/2
f 11/17/12 1/18/12 2/19/12
f 9/20/12 1/18/12 11/17/12
f 1/18/12 9/20/12 5/21/12
f 5/21/12 9/20/12 7/22/12
f 13/23/4 15/24/13 14/25/14
f 15/24/13 13/23/4 16/26/4
f 17/27/15 16/26/4 13/23/4
f 16/26/4 17/27/15 18/28/15
f 19/29/16 18/28/15 17/27/15
f 18/28/15 19/29/16 20/30/17
f 21/31/9 20/32/17 19/33/16
f 20/32/17 21/31/9 22/34/18
f 23/35/19 22/34/18 21/31/9
f 22/34/18 23/35/19 24/36/19
f 14/37/14 24/36/19 23/35/19
f 24/36/19 14/37/14 15/38/13
f 23/39/12 13/40/12 14/41/12
f 21/42/12 13/40/12 23/39/12
f 13/40/12 21/42/12 17/43/12
f 17/43/12 21/42/12 19/44/12
f 25/45/20 27/46/20 26/47/20
f 25/45/21 28/48/21 27/46/21
f 29/49/22 25/45/23 30/50/23
f 25/45/23 29/49/22 28/48/22
f 26/51/24 27/52/25 30/53/24
f 30/53/24 27/52/25 29/54/25
f 31/55/26 33/56/26 32/57/26
f 31/55/27 34/58/27 33/56/27
f 35/59/28 31/55/29 36/60/29
f 31/55/29 35/59/28 34/58/28
f 35/61/30 36/62/31 33/63/30
f 33/63/30 36/62/31 32/64/31
f 37/65/32 39/66/32 38/67/32
f 37/65/33 40/68/33 39/66/33
f 41/69/34 37/65/35 42/70/35
f 37/65/35 41/69/34 40/68/36
f 41/71/37 42/72/31 39/73/37
f 39/73/37 42/72/31 38/74/31
f 43/75/38 45/76/38 44/77/38
f 44/77/39 46/78/39 43/75/40
f 47/79/41 43/75/42 48/80/42
f 43/75/42 47/79/41 45/76/41
f 46/81/43 44/82/44 48/83/43
f 47/84/45 48/83/43 44/82/44
