# Blender v3.4.1 OBJ File: 'track.blend'
# www.blender.org
mtllib _0AD_SHELL_003_Scene.014.mtl
o _0AD_SHELL_003_Scene.014
v -38.178749 694.416321 -5.418032
v -41.106522 690.854614 -5.278337
v -41.106522 690.854614 -6.804306
v -38.178749 694.416321 -6.944001
v -35.823689 697.324890 -5.540098
v -35.858780 697.300476 -7.065508
v -33.244282 700.426208 -5.662718
v -33.279369 700.401917 -7.188128
v -38.214500 694.429077 -5.385799
v -41.142269 690.867310 -5.246104
v -35.845829 697.355713 -5.507839
v -33.266430 700.457153 -5.630460
v -38.214500 694.429077 -4.142747
v -41.142269 690.867310 -4.003052
v -35.822720 697.371765 -4.265155
v -33.243309 700.473328 -4.387776
v -30.696589 703.617981 -5.753842
v -30.673468 703.634216 -4.511158
v -31.348827 702.815796 -5.722527
v -31.325710 702.831848 -4.479844
v -32.926460 700.875366 -5.646781
v -32.903339 700.891418 -4.404098
v -30.674440 703.587158 -5.786100
v -31.326679 702.784973 -5.754786
v -32.904320 700.844421 -5.679040
v -30.709528 703.562805 -7.311512
v -31.361769 702.760620 -7.280197
v -28.061211 706.862488 -4.647138
v -28.084328 706.846375 -5.889822
v -25.625130 710.039734 -4.751292
v -25.648239 710.023682 -5.993976
v -23.409651 713.029114 -4.867046
v -23.432768 713.013123 -6.109730
v -28.062180 706.815613 -5.922080
v -25.626101 709.992859 -6.026234
v -23.410629 712.982239 -6.141987
v -28.097267 706.791077 -7.447491
v -25.661188 709.968323 -7.551645
v -23.445707 712.957886 -7.667398
v -20.966488 716.753723 -4.995260
v -20.989611 716.737610 -6.237944
v -20.967461 716.706787 -6.270202
v -21.002550 716.682312 -7.795613
v -19.191980 719.947327 -5.064669
v -19.215099 719.931213 -6.307353
v -17.694851 723.482727 -6.380174
v -17.688391 723.510071 -5.137490
v -16.819750 726.552979 -6.446812
v -16.808300 726.578796 -5.204128
v -19.192959 719.900269 -6.339611
v -17.657780 723.474426 -6.412432
v -16.784849 726.538086 -6.479070
v -19.228041 719.875916 -7.865022
v -17.667589 723.432861 -7.937843
v -16.802210 726.499023 -8.004480
v -16.362169 730.455627 -6.485363
v -16.350731 730.481384 -5.242679
v -16.327271 730.440674 -6.517621
v -16.344641 730.401611 -8.043033
v -32.939400 700.820129 -7.204452
v -16.362860 734.048950 -8.086427
v -16.341249 734.085754 -6.561015
v -16.717230 737.758423 -8.159247
v -16.725771 737.800293 -6.633835
v -17.302389 741.010437 -6.737710
v -17.306219 740.967896 -8.263120
v -17.340240 741.013245 -6.705451
v -17.337721 741.041382 -5.462767
v -16.762850 737.792175 -6.601578
v -16.768480 737.819824 -5.358895
v -16.374281 734.104492 -6.528757
v -16.360050 734.128723 -5.286073
v -18.201700 744.776917 -5.562950
v -18.204210 744.748901 -6.805634
v -18.166361 744.745911 -6.837892
v -18.170191 744.703430 -8.363303
v -19.091749 748.291687 -6.975591
v -19.102858 748.250427 -8.501002
v -20.213570 752.102783 -7.092227
v -20.194281 752.064575 -8.617639
v -21.054470 755.137573 -7.177440
v -21.042599 755.096497 -8.702851
v -21.090780 755.126526 -7.145182
v -21.098600 755.153564 -5.902498
v -20.247200 752.085205 -7.059968
v -20.259911 752.110352 -5.817285
v -19.128540 748.301086 -6.943333
v -19.121220 748.328247 -5.700649
v -22.263178 758.963684 -6.014255
v -22.270981 758.936523 -7.256938
v -22.234360 758.926575 -7.289196
v -22.246189 758.885437 -8.814607
v -23.240820 762.224182 -7.405381
v -23.257151 762.184814 -8.930791
v -24.308468 765.764526 -7.529993
v -24.294250 765.724121 -9.055404
v -25.141048 769.048889 -7.612069
v -25.138998 769.006226 -9.137481
v -25.178940 769.046448 -7.579812
v -25.180300 769.074585 -6.337127
v -24.344080 765.751221 -7.497734
v -24.353449 765.777893 -6.255051
v -23.276100 762.238281 -7.373123
v -23.265341 762.264282 -6.130439
v -25.757380 772.460388 -7.631822
v -25.758739 772.488586 -6.389139
v -25.596300 771.187317 -6.369277
v -25.594940 771.159180 -7.611961
v -25.719490 772.462769 -7.664081
v -25.557060 771.161621 -7.644219
v -25.717428 772.419983 -9.189491
v -25.555000 771.118896 -9.169630
v -25.858898 774.012817 -9.218175
v -25.857628 774.055359 -7.692764
v -25.768049 775.690125 -9.246857
v -25.763439 775.732544 -7.721447
v -25.484909 777.436523 -9.256565
v -25.477438 777.478577 -7.731153
v -24.971039 779.139771 -9.266273
v -24.960697 779.181213 -7.740862
v -24.254328 780.966797 -9.290752
v -24.238251 781.005981 -7.765342
v -23.238798 782.696228 -9.315231
v -23.216980 782.732971 -7.789821
v -23.249918 782.751831 -7.757562
v -23.235538 782.776062 -6.514879
v -24.262590 781.045471 -6.490400
v -24.273188 781.019653 -7.733084
v -24.990839 779.217224 -6.465920
v -24.997658 779.189819 -7.708604
v -25.509890 777.512390 -6.456212
v -25.514818 777.484680 -7.698896
v -25.798201 775.764221 -6.446504
v -25.801239 775.736084 -7.689188
v -25.894630 774.083984 -6.417822
v -25.895468 774.055969 -7.660506
v -21.236149 785.460815 -7.822012
v -21.221779 785.485046 -6.579327
v -22.087780 784.487305 -6.561173
v -22.102140 784.463013 -7.803857
v -22.069208 784.444214 -7.836115
v -21.203220 785.442017 -7.854270
v -21.225031 785.405212 -9.379681
v -22.091021 784.407410 -9.361526
vt 0.292439 1.854431
vt 0.251590 1.873032
vt 0.251590 1.854431
vt 0.292439 1.873032
vt 0.333302 1.854431
vt 0.333302 1.873032
vt 0.374469 1.854431
vt 0.374469 1.873032
vt 0.292439 1.853866
vt 0.251590 1.853866
vt 0.333302 1.853866
vt 0.374469 1.853866
vt 0.292439 1.841609
vt 0.251590 1.841609
vt 0.333302 1.841609
vt 0.374469 1.841609
vt 0.338273 1.872494
vt 0.330663 1.872494
vt 0.338273 1.863699
vt 0.330663 1.863699
vt 0.312257 1.872494
vt 0.312257 1.863700
vt 0.308290 1.872494
vt 0.308290 1.863699
vt 0.338273 1.872899
vt 0.330663 1.872899
vt 0.312257 1.872899
vt 0.308290 1.872899
vt 0.338273 1.860733
vt 0.330663 1.860733
vt 0.251568 1.841609
vt 0.292439 1.841609
vt 0.251568 1.853866
vt 0.292439 1.853866
vt 0.333302 1.841609
vt 0.333302 1.853866
vt 0.374469 1.841608
vt 0.374469 1.853866
vt 0.292439 1.854431
vt 0.251568 1.854431
vt 0.333302 1.854431
vt 0.374469 1.854431
vt 0.251568 1.873032
vt 0.292439 1.873032
vt 0.333302 1.873032
vt 0.374469 1.873032
vt 0.332775 1.862241
vt 0.362270 1.862241
vt 0.332775 1.871035
vt 0.362270 1.871035
vt 0.362270 1.871441
vt 0.332775 1.871441
vt 0.332775 1.859325
vt 0.362270 1.859325
vt 0.251600 1.841609
vt 0.292439 1.841609
vt 0.251600 1.853866
vt 0.292439 1.853866
vt 0.333302 1.853866
vt 0.333302 1.841609
vt 0.374469 1.853866
vt 0.374469 1.841609
vt 0.292439 1.854431
vt 0.251600 1.854431
vt 0.333302 1.854431
vt 0.374469 1.854431
vt 0.292439 1.873032
vt 0.251600 1.873032
vt 0.333302 1.873032
vt 0.374469 1.873032
vt 0.322980 1.863198
vt 0.351403 1.871992
vt 0.322980 1.871992
vt 0.351403 1.863198
vt 0.351403 1.872397
vt 0.322980 1.872397
vt 0.351403 1.860492
vt 0.322980 1.860492
vt 0.312257 1.860733
vt 0.308290 1.860733
vt 0.251600 1.854431
vt 0.292439 1.873032
vt 0.251600 1.873032
vt 0.292439 1.854431
vt 0.333302 1.873032
vt 0.333302 1.854431
vt 0.374469 1.854431
vt 0.374469 1.873032
vt 0.374469 1.853866
vt 0.333302 1.853866
vt 0.374469 1.841609
vt 0.333302 1.841609
vt 0.292439 1.853866
vt 0.292439 1.841609
vt 0.251600 1.841609
vt 0.251600 1.853866
vt 0.322980 1.863198
vt 0.351403 1.863198
vt 0.322980 1.871992
vt 0.351403 1.871992
vt 0.351403 1.872397
vt 0.322980 1.872397
vt 0.322980 1.860492
vt 0.351403 1.860492
vt 0.251600 1.854431
vt 0.292439 1.854431
vt 0.251600 1.873032
vt 0.292439 1.873032
vt 0.333302 1.854431
vt 0.333302 1.873032
vt 0.374469 1.854431
vt 0.374469 1.873032
vt 0.374469 1.853866
vt 0.333302 1.853866
vt 0.374469 1.841609
vt 0.333302 1.841609
vt 0.292439 1.853866
vt 0.292439 1.841609
vt 0.251600 1.853866
vt 0.251600 1.841609
vt 0.322980 1.863198
vt 0.351403 1.863198
vt 0.322980 1.871992
vt 0.351403 1.871992
vt 0.351403 1.872397
vt 0.322980 1.872397
vt 0.322980 1.860492
vt 0.351403 1.860492
vt 0.251600 1.854431
vt 0.292439 1.854431
vt 0.251600 1.873032
vt 0.292439 1.873032
vt 0.333302 1.854431
vt 0.333302 1.873032
vt 0.374469 1.854431
vt 0.374469 1.873032
vt 0.374469 1.853866
vt 0.333302 1.853866
vt 0.374469 1.841609
vt 0.333302 1.841609
vt 0.292439 1.853866
vt 0.292439 1.841609
vt 0.251600 1.853866
vt 0.251600 1.841609
vt 0.351403 1.871992
vt 0.340549 1.863198
vt 0.351403 1.863198
vt 0.340549 1.871992
vt 0.322980 1.863198
vt 0.322980 1.871992
vt 0.351403 1.872397
vt 0.340549 1.872397
vt 0.322980 1.872397
vt 0.351403 1.860492
vt 0.340549 1.860492
vt 0.322980 1.860492
vt 0.251600 1.854431
vt 0.272020 1.873032
vt 0.251600 1.873032
vt 0.272020 1.854431
vt 0.292439 1.873032
vt 0.292439 1.854431
vt 0.312871 1.873032
vt 0.312871 1.854431
vt 0.333302 1.873032
vt 0.333302 1.854431
vt 0.353885 1.873032
vt 0.353885 1.854431
vt 0.374469 1.873032
vt 0.374469 1.854431
vt 0.374469 1.853866
vt 0.353885 1.841609
vt 0.374469 1.841609
vt 0.353885 1.853866
vt 0.333302 1.841609
vt 0.333302 1.853866
vt 0.312871 1.841609
vt 0.312871 1.853866
vt 0.292439 1.841609
vt 0.292439 1.853866
vt 0.272020 1.841609
vt 0.272020 1.853866
vt 0.251600 1.841609
vt 0.251600 1.853866
vt 0.351403 1.871992
vt 0.340549 1.863198
vt 0.351403 1.863198
vt 0.340549 1.871992
vt 0.322980 1.871992
vt 0.322980 1.863198
vt 0.340549 1.872397
vt 0.351403 1.872397
vt 0.322980 1.872397
vt 0.351403 1.860492
vt 0.340549 1.860492
vt 0.322980 1.860492
vn -0.7753 0.6316 0.0019
vn -0.7725 0.6350 0.0000
vn -0.7754 0.6315 0.0019
vn -0.7734 0.6339 0.0056
vn -0.7734 0.6339 0.0057
vn -0.7722 0.6353 0.0076
vn -0.7723 0.6353 0.0076
vn -0.5293 0.4022 -0.7470
vn -0.5283 0.4049 -0.7463
vn -0.5284 0.4051 -0.7462
vn -0.5300 0.4013 -0.7470
vn -0.5273 0.4030 -0.7480
vn -0.5281 0.4021 -0.7480
vn -0.5268 0.4043 -0.7477
vn -0.5276 0.4038 -0.7474
vn -0.7745 0.6326 0.0015
vn -0.7746 0.6325 0.0015
vn -0.7727 0.6348 0.0043
vn -0.7727 0.6348 0.0046
vn -0.7722 0.6353 0.0061
vn -0.7723 0.6352 0.0061
vn -0.7765 0.6301 0.0063
vn -0.7758 0.6310 0.0062
vn -0.7758 0.6309 0.0062
vn -0.7758 0.6310 0.0063
vn -0.5305 0.4002 -0.7473
vn -0.5296 0.4015 -0.7472
vn -0.5309 0.4000 -0.7471
vn -0.5298 0.4016 -0.7470
vn -0.5287 0.4007 -0.7483
vn -0.5289 0.4007 -0.7481
vn -0.5291 0.4012 -0.7477
vn -0.5290 0.4011 -0.7479
vn -0.7765 0.6301 0.0078
vn -0.7757 0.6310 0.0078
vn -0.7854 0.6190 0.0066
vn -0.7855 0.6189 0.0066
vn -0.7984 0.6021 0.0070
vn -0.7984 0.6021 0.0071
vn -0.8199 0.5725 0.0079
vn -0.8201 0.5722 0.0079
vn -0.5367 0.3958 -0.7452
vn -0.5378 0.3948 -0.7449
vn -0.5459 0.3862 -0.7435
vn -0.5476 0.3849 -0.7430
vn -0.5621 0.3685 -0.7404
vn -0.5661 0.3646 -0.7393
vn -0.7854 0.6190 0.0081
vn -0.7983 0.6021 0.0087
vn -0.7984 0.6021 0.0087
vn -0.8199 0.5724 0.0097
vn -0.8200 0.5723 0.0097
vn -0.8555 0.5177 0.0092
vn -0.8556 0.5175 0.0092
vn -0.5906 0.3412 -0.7313
vn -0.5958 0.3352 -0.7298
vn -0.8555 0.5176 0.0114
vn -0.8555 0.5177 0.0113
vn -0.8984 0.4391 0.0070
vn -0.8984 0.4392 0.0070
vn -0.9426 0.3338 0.0025
vn -0.9427 0.3336 0.0025
vn -0.9804 0.1968 0.0041
vn -0.9806 0.1961 0.0040
vn -0.6175 0.2969 -0.7284
vn -0.6225 0.2817 -0.7301
vn -0.6305 0.2061 -0.7483
vn -0.6307 0.2124 -0.7464
vn -0.6443 0.1212 -0.7551
vn -0.6474 0.1125 -0.7538
vn -0.8966 0.4428 0.0088
vn -0.8967 0.4425 0.0087
vn -0.9416 0.3366 0.0030
vn -0.9419 0.3360 0.0030
vn -0.9806 0.1959 0.0048
vn -0.9808 0.1948 0.0049
vn -0.9983 0.0573 0.0084
vn -0.9984 0.0564 0.0083
vn -0.6743 0.0363 -0.7376
vn -0.6792 0.0231 -0.7336
vn -0.9983 0.0567 0.0104
vn -0.9984 0.0555 0.0103
vn -0.7758 0.6309 0.0078
vn -0.9986 -0.0514 0.0099
vn -0.9986 -0.0519 0.0098
vn -0.9903 -0.1388 0.0051
vn -0.9903 -0.1389 0.0051
vn -0.9794 -0.2020 0.0064
vn -0.9794 -0.2019 0.0061
vn -0.9797 -0.2003 0.0049
vn -0.9900 -0.1413 0.0042
vn -0.9798 -0.2001 0.0048
vn -0.9900 -0.1412 0.0042
vn -0.9985 -0.0550 0.0079
vn -0.9984 -0.0552 0.0080
vn -0.6431 -0.1525 -0.7504
vn -0.6624 -0.1112 -0.7408
vn -0.6438 -0.1562 -0.7491
vn -0.6605 -0.1137 -0.7422
vn -0.6858 -0.0579 -0.7255
vn -0.6884 -0.0383 -0.7244
vn -0.9713 -0.2379 0.0080
vn -0.9712 -0.2381 0.0080
vn -0.6521 -0.1826 -0.7358
vn -0.6539 -0.1868 -0.7331
vn -0.9710 -0.2390 0.0100
vn -0.9710 -0.2389 0.0096
vn -0.9640 -0.2657 0.0082
vn -0.9640 -0.2659 0.0082
vn -0.9619 -0.2735 0.0009
vn -0.9588 -0.2841 0.0025
vn -0.9588 -0.2840 0.0019
vn -0.9599 -0.2803 0.0018
vn -0.9611 -0.2761 0.0008
vn -0.9599 -0.2802 0.0020
vn -0.9611 -0.2762 0.0008
vn -0.9633 -0.2685 0.0066
vn -0.9633 -0.2682 0.0067
vn -0.6327 -0.2077 -0.7460
vn -0.6325 -0.2023 -0.7477
vn -0.6324 -0.2073 -0.7464
vn -0.6352 -0.2045 -0.7448
vn -0.6513 -0.2081 -0.7298
vn -0.6543 -0.2050 -0.7279
vn -0.9563 -0.2922 0.0099
vn -0.6619 -0.2266 -0.7145
vn -0.6737 -0.2299 -0.7023
vn -0.9551 -0.2959 0.0122
vn -0.9552 -0.2958 0.0123
vn -0.9575 -0.2883 0.0124
vn -0.9575 -0.2883 0.0123
vn -0.9639 -0.2661 0.0048
vn -0.9754 -0.2202 0.0029
vn -0.9754 -0.2205 0.0028
vn -0.9757 -0.2189 0.0022
vn -0.9632 -0.2687 0.0039
vn -0.9758 -0.2188 0.0022
vn -0.9632 -0.2689 0.0040
vn -0.9564 -0.2918 0.0101
vn -0.9564 -0.2917 0.0101
vn -0.6325 -0.1590 -0.7581
vn -0.6436 -0.2025 -0.7381
vn -0.6330 -0.1561 -0.7583
vn -0.6421 -0.2001 -0.7401
vn -0.6694 -0.2282 -0.7070
vn -0.6799 -0.2313 -0.6959
vn -0.9945 -0.1051 0.0013
vn -0.9874 -0.1584 0.0025
vn -0.9945 -0.1047 0.0017
vn -0.9873 -0.1588 0.0025
vn -0.6442 -0.0809 -0.7606
vn -0.6399 -0.1135 -0.7600
vn -0.6443 -0.0806 -0.7605
vn -0.6397 -0.1153 -0.7599
vn -0.9944 -0.1057 0.0022
vn -0.9874 -0.1583 0.0031
vn -0.9944 -0.1055 0.0021
vn -0.9873 -0.1589 0.0031
vn -0.9999 -0.0166 0.0013
vn -0.9999 -0.0159 0.0011
vn -0.9942 0.1072 -0.0005
vn -0.9940 0.1091 0.0004
vn -0.9745 0.2244 -0.0019
vn -0.9739 0.2270 -0.0011
vn -0.9447 0.3279 -0.0021
vn -0.9443 0.3291 -0.0017
vn -0.8991 0.4378 -0.0017
vn -0.8984 0.4393 -0.0016
vn -0.8464 0.5325 -0.0016
vn -0.8463 0.5327 -0.0018
vn -0.8458 0.5335 -0.0012
vn -0.8975 0.4410 -0.0016
vn -0.8457 0.5337 -0.0012
vn -0.8980 0.4401 -0.0017
vn -0.9438 0.3306 -0.0015
vn -0.9440 0.3299 -0.0016
vn -0.9737 0.2279 -0.0009
vn -0.9741 0.2261 -0.0015
vn -0.9939 0.1102 0.0002
vn -0.9940 0.1090 -0.0004
vn -0.9999 -0.0140 0.0013
vn -0.9999 -0.0150 0.0006
vn -0.5871 0.2795 -0.7597
vn -0.5574 0.3352 -0.7596
vn -0.5569 0.3358 -0.7597
vn -0.5890 0.2755 -0.7597
vn -0.6161 0.2092 -0.7594
vn -0.6166 0.2066 -0.7597
vn -0.6320 0.1442 -0.7614
vn -0.6327 0.1413 -0.7614
vn -0.6446 0.0625 -0.7620
vn -0.6447 0.0616 -0.7620
vn -0.6479 -0.0235 -0.7614
vn -0.6478 -0.0228 -0.7615
vn -0.7552 0.6554 -0.0041
vn -0.7943 0.6075 -0.0027
vn -0.7553 0.6554 -0.0040
vn -0.7945 0.6072 -0.0027
vn -0.5230 0.3867 -0.7596
vn -0.5009 0.4210 -0.7563
vn -0.5011 0.4211 -0.7560
vn -0.5265 0.3813 -0.7599
vn -0.7553 0.6554 -0.0050
vn -0.7942 0.6077 -0.0033
vn -0.7553 0.6554 -0.0051
vn -0.7946 0.6071 -0.0033
usemtl EnvironmentMat
s 1
f 1/1/1 3/2/2 2/3/2
f 3/2/2 1/1/1 4/4/3
f 1/1/1 5/5/4 4/4/3
f 6/6/5 4/4/3 5/5/4
f 5/5/4 7/7/6 6/6/5
f 8/8/7 6/6/5 7/7/6
f 9/9/8 2/3/9 10/10/10
f 2/3/9 9/9/8 1/1/11
f 9/9/8 11/11/12 1/1/11
f 1/1/11 11/11/12 5/5/13
f 11/11/12 7/7/14 5/5/13
f 7/7/14 11/11/12 12/12/15
f 13/13/16 10/10/2 14/14/2
f 10/10/2 13/13/16 9/9/17
f 13/13/16 15/15/18 9/9/17
f 11/11/19 9/9/17 15/15/18
f 15/15/18 16/16/20 11/11/19
f 12/12/21 11/11/19 16/16/20
f 17/17/22 19/18/23 18/19/22
f 19/18/23 20/20/24 18/19/22
f 19/18/23 21/21/24 20/20/24
f 22/22/25 20/20/24 21/21/24
f 22/22/25 21/21/24 12/23/21
f 12/23/21 16/24/20 22/22/25
f 23/25/26 19/18/27 17/17/28
f 19/18/27 23/25/26 24/26/29
f 24/26/29 21/21/30 19/18/27
f 21/21/30 24/26/29 25/27/31
f 25/27/32 12/23/15 21/21/33
f 12/23/15 25/27/32 7/28/14
f 26/29/34 27/30/35 23/25/34
f 27/30/35 24/26/35 23/25/34
f 18/31/22 28/32/36 17/33/22
f 29/34/37 17/33/22 28/32/36
f 28/32/36 30/35/38 29/34/37
f 31/36/39 29/34/37 30/35/38
f 30/35/38 32/37/40 31/36/39
f 33/38/41 31/36/39 32/37/40
f 17/33/28 34/39/42 23/40/26
f 34/39/42 17/33/28 29/34/43
f 29/34/43 35/41/44 34/39/42
f 35/41/44 29/34/43 31/36/45
f 31/36/45 36/42/46 35/41/44
f 36/42/46 31/36/45 33/38/47
f 23/40/34 34/39/48 26/43/34
f 37/44/48 26/43/34 34/39/48
f 34/39/48 35/41/49 37/44/48
f 38/45/50 37/44/48 35/41/49
f 35/41/49 36/42/51 38/45/50
f 39/46/52 38/45/50 36/42/51
f 32/47/40 40/48/53 33/49/41
f 41/50/54 33/49/41 40/48/53
f 33/49/47 42/51/55 36/52/46
f 42/51/55 33/49/47 41/50/56
f 36/52/51 42/51/57 39/53/52
f 43/54/58 39/53/52 42/51/57
f 40/55/53 44/56/59 41/57/54
f 45/58/60 41/57/54 44/56/59
f 44/56/59 46/59/61 45/58/60
f 46/59/61 44/56/59 47/60/62
f 47/60/62 48/61/63 46/59/61
f 48/61/63 47/60/62 49/62/64
f 41/57/56 50/63/65 42/64/55
f 50/63/65 41/57/56 45/58/66
f 45/58/66 51/65/67 50/63/65
f 51/65/67 45/58/66 46/59/68
f 46/59/68 52/66/69 51/65/67
f 52/66/69 46/59/68 48/61/70
f 42/64/57 53/67/71 43/68/58
f 53/67/71 42/64/57 50/63/72
f 50/63/72 54/69/73 53/67/71
f 54/69/73 50/63/72 51/65/74
f 51/65/74 55/70/75 54/69/73
f 55/70/75 51/65/74 52/66/76
f 49/71/64 56/72/77 48/73/63
f 56/72/77 49/71/64 57/74/78
f 48/73/70 58/75/79 52/76/69
f 58/75/79 48/73/70 56/72/80
f 52/76/76 59/77/81 55/78/75
f 59/77/81 52/76/76 58/75/82
f 25/27/83 60/79/83 8/80/7
f 8/80/7 7/28/6 25/27/83
f 58/81/82 61/82/84 59/83/81
f 61/82/84 58/81/82 62/84/85
f 62/84/85 63/85/86 61/82/84
f 63/85/86 62/84/85 64/86/87
f 64/86/87 65/87/88 63/85/86
f 66/88/89 63/85/86 65/87/88
f 67/89/90 69/90/91 68/91/92
f 70/92/93 68/91/92 69/90/91
f 69/90/91 71/93/94 70/92/93
f 72/94/95 70/92/93 71/93/94
f 71/93/94 57/95/78 72/94/95
f 57/95/78 71/93/94 56/96/77
f 65/87/96 69/90/97 67/89/98
f 69/90/97 65/87/96 64/86/99
f 64/86/99 71/93/100 69/90/97
f 71/93/100 64/86/99 62/84/101
f 62/84/101 56/96/80 71/93/100
f 56/96/80 62/84/101 58/81/79
f 68/97/92 73/98/102 67/99/90
f 74/100/103 67/99/90 73/98/102
f 67/99/98 75/101/104 65/102/96
f 75/101/104 67/99/98 74/100/105
f 65/102/88 75/101/106 66/103/89
f 76/104/107 66/103/89 75/101/106
f 75/105/106 77/106/108 76/107/107
f 78/108/109 76/107/107 77/106/108
f 77/106/108 79/109/110 78/108/109
f 80/110/110 78/108/109 79/109/110
f 79/109/110 81/111/111 80/110/110
f 82/112/112 80/110/110 81/111/111
f 83/113/113 85/114/114 84/115/115
f 86/116/116 84/115/115 85/114/114
f 85/114/114 87/117/117 86/116/116
f 88/118/118 86/116/116 87/117/117
f 87/117/117 74/119/103 88/118/118
f 73/120/102 88/118/118 74/119/103
f 81/111/119 79/109/120 83/113/121
f 85/114/122 83/113/121 79/109/120
f 79/109/120 87/117/123 85/114/122
f 87/117/123 79/109/120 77/106/124
f 77/106/124 74/119/105 87/117/123
f 74/119/105 77/106/124 75/105/104
f 84/121/115 89/122/125 83/123/113
f 90/124/125 83/123/113 89/122/125
f 83/123/121 91/125/126 81/126/119
f 91/125/126 83/123/121 90/124/127
f 81/126/111 91/125/128 82/127/112
f 92/128/129 82/127/112 91/125/128
f 91/129/128 93/130/130 92/131/129
f 94/132/131 92/131/129 93/130/130
f 93/130/130 95/133/132 94/132/131
f 96/134/132 94/132/131 95/133/132
f 95/133/132 97/135/133 96/134/132
f 98/136/134 96/134/132 97/135/133
f 99/137/135 101/138/136 100/139/137
f 102/140/138 100/139/137 101/138/136
f 101/138/136 103/141/139 102/140/138
f 104/142/140 102/140/138 103/141/139
f 103/141/139 90/143/125 104/142/140
f 89/144/125 104/142/140 90/143/125
f 97/135/141 101/138/142 99/137/143
f 101/138/142 97/135/141 95/133/144
f 95/133/144 103/141/145 101/138/142
f 103/141/145 95/133/144 93/130/146
f 93/130/146 90/143/127 103/141/145
f 90/143/127 93/130/146 91/129/126
f 105/145/147 107/146/148 106/147/149
f 107/146/148 105/145/147 108/148/150
f 108/148/150 100/149/137 107/146/148
f 100/149/137 108/148/150 99/150/135
f 109/151/151 108/148/152 105/145/153
f 108/148/152 109/151/151 110/152/154
f 110/152/154 99/150/143 108/148/152
f 99/150/143 110/152/154 97/153/141
f 111/154/155 110/152/156 109/151/157
f 110/152/156 111/154/155 112/155/158
f 112/155/158 97/153/133 110/152/156
f 97/153/133 112/155/158 98/156/134
f 109/157/157 113/158/159 111/159/155
f 113/158/159 109/157/157 114/160/160
f 114/160/160 115/161/161 113/158/159
f 115/161/161 114/160/160 116/162/162
f 116/162/162 117/163/163 115/161/161
f 117/163/163 116/162/162 118/164/164
f 118/164/164 119/165/165 117/163/163
f 119/165/165 118/164/164 120/166/166
f 120/166/166 121/167/167 119/165/165
f 121/167/167 120/166/166 122/168/168
f 122/168/168 123/169/169 121/167/167
f 123/169/169 122/168/168 124/170/170
f 125/171/171 127/172/172 126/173/173
f 127/172/172 125/171/171 128/174/174
f 128/174/174 129/175/175 127/172/172
f 129/175/175 128/174/174 130/176/176
f 130/176/176 131/177/177 129/175/175
f 131/177/177 130/176/176 132/178/178
f 132/178/178 133/179/179 131/177/177
f 133/179/179 132/178/178 134/180/180
f 134/180/180 135/181/181 133/179/179
f 135/181/181 134/180/180 136/182/182
f 136/182/182 106/183/149 135/181/181
f 106/183/149 136/182/182 105/184/147
f 122/168/183 125/171/184 124/170/185
f 128/174/186 125/171/184 122/168/183
f 120/166/187 128/174/186 122/168/183
f 130/176/188 128/174/186 120/166/187
f 118/164/189 130/176/188 120/166/187
f 132/178/190 130/176/188 118/164/189
f 116/162/191 132/178/190 118/164/189
f 134/180/192 132/178/190 116/162/191
f 114/160/193 134/180/192 116/162/191
f 136/182/194 134/180/192 114/160/193
f 114/160/193 105/184/153 136/182/194
f 105/184/153 114/160/193 109/157/151
f 137/185/195 139/186/196 138/187/195
f 139/186/196 137/185/197 140/188/198
f 140/188/198 125/189/171 139/186/196
f 125/189/171 126/190/173 139/186/196
f 141/191/199 137/185/200 142/192/201
f 137/185/200 141/191/199 140/188/202
f 124/193/185 140/188/202 141/191/199
f 140/188/202 124/193/185 125/189/184
f 143/194/203 141/191/204 142/192/205
f 141/191/204 143/194/203 144/195/206
f 144/195/206 124/193/170 141/191/204
f 124/193/170 144/195/206 123/196/169
