# Blender v3.4.1 OBJ File: 'track.blend'
# www.blender.org
mtllib _0AD_tower_rolex_001_SUB1_Scene.016.mtl
o _0AD_tower_rolex_001_SUB1_Scene.016
v -144.636398 -555.949280 -1.345220
v -144.607300 -556.083618 -8.215792
v -144.636398 -555.949280 -8.215792
v -144.607300 -556.083618 -1.345220
v -144.430496 -555.904724 -8.215792
v -144.401398 -556.038879 -8.215792
v -144.430496 -555.904724 -1.345220
v -144.401398 -556.038879 -1.345220
v -144.607697 -556.047424 -7.658953
v -149.425598 -557.023621 -7.658955
v -149.411499 -557.088501 -7.658955
v -144.621689 -555.982422 -7.658953
v -149.425598 -557.023621 -7.609028
v -144.621689 -555.982422 -7.609025
v -144.607697 -556.047424 -7.609025
v -149.411499 -557.088501 -7.609028
v -144.557602 -556.020996 -8.212482
v -149.275986 -557.006714 -7.652592
v -149.268295 -557.041870 -7.652592
v -144.565201 -555.985718 -8.212482
v -149.272202 -557.005920 -7.633275
v -144.561493 -555.984924 -8.193164
v -144.553802 -556.020081 -8.193164
v -149.264603 -557.041077 -7.633275
vt 0.516657 3.180547
vt 0.516656 0.383379
vt 0.602885 0.383379
vt 0.602886 3.180547
vt 0.602886 3.180547
vt 0.602886 0.383379
vt 0.689116 3.180547
vt 0.689116 0.383379
vt 0.775345 0.465394
vt 0.775345 0.547409
vt 0.689116 0.465394
vt 0.689116 0.547409
vt 0.314904 3.180547
vt 0.314903 0.383379
vt 0.415779 0.383379
vt 0.415780 3.180547
vt 0.775345 0.383379
vt 0.775345 0.465394
vt 0.689116 0.383379
vt 0.689116 0.465394
vt 0.516656 0.383379
vt 0.415780 3.180547
vt 0.415780 0.383379
vt 0.516656 3.180547
vt 0.602885 0.383379
vt 0.602886 3.180547
vt 0.516657 3.180547
vt 0.516656 0.383379
vt 0.602886 0.383379
vt 0.689116 3.180547
vt 0.602886 3.180547
vt 0.689116 0.383379
vt 0.689116 0.547409
vt 0.689116 0.465394
vt 0.775345 0.547409
vt 0.775345 0.465394
vt 0.415779 0.383379
vt 0.415780 3.180547
vt 0.314904 3.180547
vt 0.314903 0.383379
vt 0.689116 0.465394
vt 0.689116 0.383379
vt 0.775345 0.465394
vt 0.775345 0.383379
vt 0.415780 0.383379
vt 0.516656 3.180547
vt 0.415780 3.180547
vt 0.516656 0.383379
vt 0.602885 0.383379
vt 0.602886 3.180547
vt 0.516657 3.180547
vt 0.516656 0.383379
vt 0.602886 0.383379
vt 0.689116 3.180547
vt 0.602886 3.180547
vt 0.689116 0.383379
vt 0.775345 0.547409
vt 0.689116 0.547409
vt 0.689116 0.465394
vt 0.775345 0.465394
vt 0.314904 3.180547
vt 0.415779 0.383379
vt 0.415780 3.180547
vt 0.314903 0.383379
vt 0.775345 0.465394
vt 0.689116 0.465394
vt 0.689116 0.383379
vt 0.775345 0.383379
vt 0.516656 3.180547
vt 0.415780 0.383379
vt 0.516656 0.383379
vt 0.415780 3.180547
vn -0.9773 -0.2118 0.0000
vn -0.9774 -0.2116 0.0000
vn 0.9773 0.2119 0.0000
vn 0.9772 0.2121 0.0000
vn 0.0000 0.0000 1.0000
vn -0.2115 0.9774 0.0000
vn 0.0000 0.0000 -1.0000
vn 0.2123 -0.9772 0.0000
vn 0.2115 -0.9774 -0.0000
vn 0.2114 -0.9774 0.0000
vn -0.9772 -0.2123 0.0000
vn -0.2118 0.9773 0.0000
vn 0.9774 0.2116 0.0000
vn 0.9774 0.2115 -0.0000
vn 0.9774 0.2114 0.0000
vn 0.2118 -0.9773 0.0000
vn -0.1129 -0.0242 -0.9933
vn -0.1127 -0.0247 -0.9933
vn 0.1127 0.0242 0.9933
vn 0.1128 0.0247 0.9933
vn -0.9585 -0.2079 0.1953
vn -0.9584 -0.2078 0.1956
vn -0.9584 -0.2078 0.1955
vn -0.9584 -0.2076 0.1956
vn -0.2122 0.9772 0.0031
vn -0.2113 0.9774 -0.0008
vn -0.2121 0.9772 0.0031
vn -0.2113 0.9774 -0.0010
vn 0.9584 0.2077 -0.1959
vn 0.9584 0.2086 -0.1947
vn 0.9584 0.2082 -0.1952
vn 0.9583 0.2074 -0.1965
vn 0.2114 -0.9774 0.0050
vn 0.2118 -0.9773 -0.0054
vn 0.2118 -0.9773 -0.0056
usemtl ZinkMat
s 1
f 1/1/1 3/2/2 2/3/2
f 2/3/2 4/4/1 1/1/1
f 5/5/3 7/6/4 6/7/3
f 6/7/3 7/6/4 8/8/4
f 7/9/5 1/10/5 8/11/5
f 1/10/5 4/12/5 8/11/5
f 7/13/6 5/14/6 3/15/6
f 3/15/6 1/16/6 7/13/6
f 6/17/7 2/18/7 5/19/7
f 2/18/7 3/20/7 5/19/7
f 6/21/8 4/22/9 2/23/8
f 4/22/9 6/21/8 8/24/10
f 9/25/7 11/26/7 10/27/7
f 9/25/7 10/27/7 12/28/7
f 13/29/5 15/30/5 14/31/5
f 15/30/5 13/29/5 16/32/5
f 11/33/11 16/34/11 10/35/11
f 10/35/11 16/34/11 13/36/11
f 12/37/12 10/38/12 13/39/12
f 12/37/12 13/39/12 14/40/12
f 12/41/13 14/42/14 9/43/14
f 9/43/14 14/42/14 15/44/15
f 9/45/16 16/46/16 11/47/16
f 16/46/16 9/45/16 15/48/16
f 17/49/17 19/50/18 18/51/18
f 17/49/17 18/51/18 20/52/17
f 21/53/19 23/54/20 22/55/20
f 23/54/20 21/53/19 24/56/19
f 18/57/21 19/58/22 24/59/23
f 18/57/21 24/59/23 21/60/24
f 21/61/25 20/62/26 18/63/27
f 20/62/26 21/61/25 22/64/28
f 17/65/29 20/66/30 22/67/31
f 17/65/29 22/67/31 23/68/32
f 24/69/33 17/70/34 23/71/35
f 17/70/34 24/69/33 19/72/33
