# Blender v3.4.1 OBJ File: 'track.blend'
# www.blender.org
mtllib _0AD_emirates_003_Scene.004.mtl
o _0AD_emirates_003_Scene.004
v -343.132996 -37.313869 -5.677611
v -343.132996 -37.313869 -7.013369
v -342.880371 -41.257347 -6.980533
v -342.880371 -41.257347 -5.644776
v -342.615997 -45.313549 -5.650341
v -342.615997 -45.313549 -6.986099
v -342.343811 -49.301762 -6.966571
v -342.343811 -49.301762 -5.630813
v -343.096008 -37.322399 -5.645378
v -342.843384 -41.265877 -5.612543
v -342.579010 -45.322071 -5.618108
v -342.306793 -49.310291 -5.598580
v -343.096008 -37.322399 -4.487033
v -342.843384 -41.265877 -4.454198
v -342.579010 -45.322071 -4.459762
v -342.306793 -49.310291 -4.440235
v -342.008698 -53.376350 -5.573968
v -342.008698 -53.376350 -4.415624
v -342.045685 -53.367821 -5.606202
v -342.045685 -53.367821 -6.941959
v -341.698456 -57.399616 -5.552793
v -341.698456 -57.399616 -4.394447
v -341.389008 -61.280945 -5.531525
v -341.389008 -61.280945 -4.373179
v -341.071289 -65.217323 -5.525740
v -341.071289 -65.217323 -4.367393
v -341.735504 -57.391102 -5.585026
v -341.426086 -61.272415 -5.563757
v -341.108307 -65.208794 -5.557971
v -341.735504 -57.391102 -6.920784
v -341.425964 -61.272415 -6.899516
v -341.108307 -65.208794 -6.893730
v -340.726471 -69.215408 -5.518304
v -340.726471 -69.215408 -4.359960
v -340.763458 -69.206879 -5.550538
v -340.763458 -69.206879 -6.886295
v -343.229614 -34.991440 -5.645377
v -343.229614 -34.991440 -4.487033
v -343.266602 -34.982910 -5.677610
v -343.266602 -34.982910 -7.013369
vt 0.000607 1.842747
vt 0.041148 1.861348
vt 0.000607 1.861348
vt 0.041148 1.842747
vt 0.082869 1.842747
vt 0.082869 1.861348
vt 0.123911 1.861348
vt 0.123911 1.842747
vt 0.000607 1.842182
vt 0.041148 1.842182
vt 0.082869 1.842182
vt 0.123911 1.842182
vt 0.000607 1.829925
vt 0.041148 1.829925
vt 0.082869 1.829925
vt 0.123911 1.829925
vt 0.045205 1.859889
vt 0.086992 1.872145
vt 0.045205 1.872145
vt 0.086992 1.859889
vt 0.086992 1.872710
vt 0.045205 1.872710
vt 0.086992 1.855754
vt 0.045205 1.855754
vt 0.000585 1.829925
vt 0.041891 1.842182
vt 0.000585 1.842182
vt 0.041891 1.829925
vt 0.081774 1.842182
vt 0.081774 1.829925
vt 0.122225 1.842182
vt 0.122225 1.829924
vt 0.041891 1.842747
vt 0.000585 1.842747
vt 0.081774 1.842747
vt 0.122225 1.842747
vt 0.041891 1.861348
vt 0.000585 1.861348
vt 0.081774 1.861348
vt 0.122225 1.861348
vt 0.079329 1.857856
vt 0.120437 1.870113
vt 0.079329 1.870113
vt 0.120437 1.857856
vt 0.120437 1.870678
vt 0.079329 1.870678
vt 0.120437 1.853791
vt 0.079329 1.853791
vt 0.064332 1.873900
vt 0.095090 1.861644
vt 0.095090 1.873900
vt 0.064333 1.861644
vt 0.095090 1.874465
vt 0.064332 1.874465
vt 0.064332 1.855278
vt 0.095090 1.855278
vn 0.9982 0.0606 0.0000
vn 0.9979 0.0645 0.0000
vn 0.9978 0.0666 0.0000
vn 0.9975 0.0706 0.0000
vn 0.6614 0.0369 -0.7492
vn 0.6616 0.0396 -0.7488
vn 0.6614 0.0371 -0.7491
vn 0.6618 0.0407 -0.7486
vn 0.6620 0.0430 -0.7483
vn 0.6620 0.0426 -0.7483
vn 0.6616 0.0426 -0.7486
vn 0.6617 0.0429 -0.7486
vn 0.9972 0.0750 0.0000
vn 0.6622 0.0453 -0.7479
vn 0.6623 0.0458 -0.7478
vn 0.9969 0.0782 0.0000
vn 0.9968 0.0800 0.0000
vn 0.9965 0.0832 0.0000
vn 0.9965 0.0834 -0.0000
vn 0.6623 0.0478 -0.7477
vn 0.6623 0.0480 -0.7477
vn 0.6618 0.0502 -0.7480
vn 0.6618 0.0508 -0.7479
vn 0.6630 0.0538 -0.7467
vn 0.6628 0.0543 -0.7468
vn 0.9968 0.0800 0.0001
vn 0.9963 0.0859 0.0000
vn 0.6629 0.0558 -0.7466
vn 0.6626 0.0557 -0.7469
vn 0.6626 0.0544 -0.7470
vn 0.9984 0.0572 0.0000
vn 0.6611 0.0379 -0.7493
vn 0.6608 0.0371 -0.7496
vn 0.6615 0.0379 -0.7490
usemtl EnvironmentMat
s 1
f 1/1/1 3/2/2 2/3/1
f 3/2/2 1/1/1 4/4/2
f 4/4/2 5/5/3 3/2/2
f 6/6/3 3/2/2 5/5/3
f 5/5/3 7/7/4 6/6/3
f 7/7/4 5/5/3 8/8/4
f 9/9/5 4/4/6 1/1/7
f 4/4/6 9/9/5 10/10/8
f 10/10/8 5/5/9 4/4/6
f 5/5/9 10/10/8 11/11/10
f 11/11/10 8/8/11 5/5/9
f 8/8/11 11/11/10 12/12/12
f 10/10/2 9/9/1 13/13/1
f 10/10/2 13/13/1 14/14/2
f 14/14/2 15/15/3 10/10/2
f 11/11/3 10/10/2 15/15/3
f 15/15/3 12/12/4 11/11/3
f 12/12/4 15/15/3 16/16/4
f 16/17/4 17/18/13 12/19/4
f 17/18/13 16/17/4 18/20/13
f 12/19/12 19/21/14 8/22/11
f 19/21/14 12/19/12 17/18/15
f 8/22/4 20/23/13 7/24/4
f 20/23/13 8/22/4 19/21/13
f 18/25/13 21/26/16 17/27/13
f 21/26/16 18/25/13 22/28/16
f 22/28/16 23/29/17 21/26/16
f 23/29/17 22/28/16 24/30/17
f 24/30/17 25/31/18 23/29/17
f 25/31/18 24/30/17 26/32/19
f 17/27/15 27/33/20 19/34/14
f 27/33/20 17/27/15 21/26/21
f 21/26/21 28/35/22 27/33/20
f 28/35/22 21/26/21 23/29/23
f 23/29/23 29/36/24 28/35/22
f 29/36/24 23/29/23 25/31/25
f 19/34/13 30/37/16 20/38/13
f 30/37/16 19/34/13 27/33/16
f 27/33/16 31/39/26 30/37/16
f 31/39/26 27/33/16 28/35/26
f 28/35/26 32/40/18 31/39/26
f 32/40/18 28/35/26 29/36/18
f 26/41/19 33/42/27 25/43/18
f 33/42/27 26/41/18 34/44/27
f 25/43/25 35/45/28 29/46/24
f 35/45/29 25/43/30 33/42/29
f 29/46/18 36/47/27 32/48/18
f 36/47/27 29/46/18 35/45/27
f 37/49/31 13/50/1 9/51/1
f 13/50/1 37/49/31 38/52/31
f 37/49/32 1/53/33 39/54/32
f 1/53/7 37/49/34 9/51/5
f 40/55/31 1/53/1 2/56/1
f 1/53/1 40/55/31 39/54/31
