# Blender v3.4.1 OBJ File: 'track.blend'
# www.blender.org
mtllib _0AD_UBS_Scene.021.mtl
o _0AD_UBS_Scene.021
v -317.909485 292.209808 -7.910912
v -317.909485 292.209808 -6.372114
v -316.167114 299.568207 -6.373520
v -332.858459 220.617783 -7.925687
v -332.858459 220.617783 -6.386888
v -331.548004 228.420700 -6.396825
v -319.438385 285.674408 -7.901975
v -321.205505 278.034210 -7.902559
v -321.205505 278.034210 -6.363762
v -322.681580 271.466797 -7.926682
v -324.398804 263.805115 -7.948377
v -324.398804 263.805115 -6.409578
v -338.431213 176.034103 -7.800590
v -338.431213 176.034103 -6.261791
v -337.620178 184.014603 -6.287433
v -337.620178 184.014603 -7.826231
v -335.024475 205.907181 -7.884811
v -335.024475 205.907104 -6.346013
v -333.889557 213.772598 -6.366919
v -325.861908 257.229889 -7.953161
v -327.524506 249.554092 -7.954704
v -327.524506 249.554092 -6.415906
v -330.368011 235.171478 -7.939814
v -330.368011 235.171478 -6.401016
v -328.866791 242.904480 -6.408522
v -336.878693 191.046982 -7.851520
v -336.878693 191.046982 -6.312722
v -335.913696 198.970703 -6.332135
v -339.613007 163.162994 -7.771918
v -339.613007 163.162994 -6.233120
v -339.092682 168.829681 -6.245742
v -339.092682 168.829681 -7.784540
v -314.731110 305.549805 -7.907293
v -314.067413 308.557404 -6.381139
v -314.067413 308.557404 -7.919938
v -314.731110 305.549805 -6.368495
v -316.167114 299.568207 -7.912317
v -331.548004 228.420700 -7.935624
v -319.438385 285.674408 -6.363178
v -322.681580 271.466797 -6.387885
v -333.889557 213.772598 -7.905717
v -328.866791 242.904480 -7.947319
v -325.861908 257.229889 -6.414361
v -335.913696 198.970703 -7.870933
vt 0.123203 1.752794
vt 0.123081 1.755052
vt 0.123203 1.804422
vt 0.123203 1.752794
vt 0.123081 1.755052
vt 0.123203 1.804422
vt 0.123081 1.806681
vt 0.123203 1.804422
vt 0.123203 1.752794
vt 0.123081 1.806681
vt 0.123203 1.804422
vt 0.123203 1.752794
vt 0.123203 1.752794
vt 0.123291 1.755052
vt 0.123203 1.804422
vt 0.123291 1.806681
vt 0.123203 1.752794
vt 0.123081 1.755052
vt 0.123203 1.804422
vt 0.123081 1.806681
vt 0.123203 1.804422
vt 0.123203 1.752794
vt 0.123203 1.752794
vt 0.123081 1.755052
vt 0.123203 1.804422
vt 0.123203 1.752794
vt 0.123081 1.755052
vt 0.123203 1.804422
vt 0.123806 1.806681
vt 0.121927 1.755052
vt 0.123806 1.755052
vt 0.121927 1.806681
vt 0.001376 1.755052
vt 0.001376 1.806681
vt 0.001376 1.755052
vt 0.001376 1.806681
vt 0.001376 1.755052
vt 0.001376 1.755052
vt 0.123081 1.806681
vt 0.001376 1.806681
vt 0.123081 1.806681
vt 0.001376 1.755052
vt 0.001376 1.806681
vt 0.123081 1.755052
vt 0.001376 1.755052
vt 0.001376 1.806681
vt 0.123081 1.755052
vt 0.001376 1.806681
vt 0.001376 1.755052
vt 0.123081 1.806681
vt 0.001376 1.755052
vt 0.001376 1.806681
vt 0.123356 1.806681
vt 0.001376 1.806681
vt 0.001376 1.755052
vt 0.123356 1.755052
vt 0.123081 1.806681
vt 0.001376 1.806681
vt 0.001376 1.755052
vt 0.123081 1.755052
vt 0.001376 1.806681
vt 0.001376 1.755052
vt 0.123081 1.806681
vt 0.001376 1.755052
vt 0.001376 1.806681
vn 0.9734 -0.2291 0.0000
vn 0.9727 -0.2319 0.0000
vn 0.9876 -0.1573 0.0000
vn 0.9856 -0.1689 0.0000
vn 0.9740 -0.2266 0.0000
vn 0.9750 -0.2223 0.0000
vn 0.9757 -0.2190 0.0000
vn 0.9760 -0.2180 0.0000
vn 0.9954 -0.0963 0.0000
vn 0.9947 -0.1030 0.0000
vn 0.9908 -0.1350 -0.0000
vn 0.9893 -0.1459 -0.0000
vn 0.9767 -0.2144 0.0000
vn 0.9788 -0.2048 0.0000
vn 0.9834 -0.1814 0.0000
vn 0.9810 -0.1942 0.0000
vn 0.9936 -0.1129 0.0000
vn 0.9923 -0.1240 0.0000
vn 0.9958 -0.0914 0.0000
vn 0.9745 -0.2245 0.0000
vn 0.9765 -0.2155 0.0000
usemtl EnvironmentMat
s 1
f 1/1/1 3/2/2 2/3/1
f 4/4/3 6/5/4 5/6/3
f 7/7/5 9/8/6 8/9/6
f 10/10/7 12/11/8 11/12/8
f 13/13/9 15/14/10 14/15/9
f 15/14/10 13/13/9 16/16/10
f 17/17/11 19/18/12 18/19/11
f 20/20/13 22/21/14 21/22/14
f 23/23/15 25/24/16 24/25/15
f 26/26/17 28/27/18 27/28/17
f 29/29/19 31/30/19 30/31/19
f 29/29/19 32/32/19 31/30/19
f 32/32/19 14/33/9 31/30/19
f 32/32/19 13/34/9 14/33/9
f 33/35/20 35/36/21 34/37/21
f 33/35/20 34/37/21 36/38/20
f 3/2/2 1/1/1 37/39/2
f 33/40/20 3/2/2 37/39/2
f 3/2/2 33/40/20 36/38/20
f 6/5/4 4/4/3 38/41/4
f 38/41/4 24/42/15 6/5/4
f 38/41/4 23/43/15 24/42/15
f 9/8/6 7/7/5 39/44/5
f 7/7/5 2/45/1 39/44/5
f 7/7/5 1/46/1 2/45/1
f 12/11/8 10/10/7 40/47/7
f 8/48/6 40/47/7 10/10/7
f 40/47/7 8/48/6 9/49/6
f 19/18/12 17/17/11 41/50/12
f 41/50/12 5/51/3 19/18/12
f 41/50/12 4/52/3 5/51/3
f 16/53/10 26/54/17 27/55/17
f 16/53/10 27/55/17 15/56/10
f 42/57/16 21/58/14 22/59/14
f 42/57/16 22/59/14 25/24/16
f 25/24/16 23/23/15 42/57/16
f 43/60/13 11/61/8 12/62/8
f 11/61/8 43/60/13 20/20/13
f 22/21/14 20/20/13 43/60/13
f 28/27/18 26/26/17 44/63/18
f 44/63/18 18/64/11 28/27/18
f 44/63/18 17/65/11 18/64/11
