# Blender v3.4.1 OBJ File: 'track.blend'
# www.blender.org
mtllib _0AD_UBS_001_Scene.022.mtl
o _0AD_UBS_001_Scene.022
v -186.525208 341.760895 -4.339326
v -186.632004 346.633911 -4.263279
v -186.632004 346.616089 -3.120725
v -186.525284 341.743011 -3.196774
v -185.868301 311.771698 -4.807331
v -185.977783 316.769897 -4.729331
v -185.977905 316.752106 -3.586778
v -185.868393 311.753906 -3.664779
v -186.196793 326.766296 -4.573328
v -186.306305 331.764496 -4.495328
v -186.306396 331.746704 -3.352775
v -186.196884 326.748474 -3.430777
v -186.415695 336.762695 -4.417327
v -186.415802 336.744904 -3.274774
v -186.087296 321.768097 -4.651330
v -186.087402 321.750305 -3.508777
v -185.758881 306.773499 -4.885332
v -185.759003 306.755707 -3.742780
vt 0.001376 1.806681
vt 0.123081 1.755052
vt 0.123081 1.806681
vt 0.001376 1.755052
vt 0.001376 1.806681
vt 0.123081 1.755052
vt 0.123081 1.806681
vt 0.001376 1.755052
vt 0.001376 1.806681
vt 0.123081 1.755052
vt 0.123081 1.806681
vt 0.001376 1.755052
vt 0.001376 1.806681
vt 0.123081 1.755052
vt 0.123081 1.806681
vt 0.001376 1.755052
vt 0.001376 1.806681
vt 0.123081 1.755052
vt 0.123081 1.806681
vt 0.001376 1.755052
vt 0.001376 1.806681
vt 0.123081 1.755052
vt 0.123081 1.806681
vt 0.001376 1.755052
vt 0.001376 1.806681
vt 0.123081 1.755052
vt 0.123081 1.806681
vt 0.001376 1.755052
vt 0.001376 1.806681
vt 0.123081 1.755052
vt 0.123081 1.806681
vt 0.001376 1.755052
vn -0.9998 -0.0219 -0.0004
vn -0.9998 -0.0219 -0.0003
usemtl EnvironmentMat
s 1
f 1/1/1 3/2/1 2/3/2
f 3/2/1 1/1/1 4/4/1
f 5/5/1 7/6/1 6/7/1
f 7/6/1 5/5/1 8/8/1
f 9/9/1 11/10/1 10/11/1
f 11/10/1 9/9/1 12/12/1
f 13/13/1 4/14/1 1/15/1
f 4/14/1 13/13/1 14/16/1
f 10/17/1 14/18/1 13/19/1
f 14/18/1 10/17/1 11/20/1
f 15/21/1 12/22/1 9/23/1
f 12/22/1 15/21/1 16/24/1
f 6/25/1 16/26/1 15/27/1
f 16/26/1 6/25/1 7/28/1
f 17/29/1 8/30/1 5/31/1
f 8/30/1 17/29/1 18/32/1
