# Blender v3.1.2 OBJ File: 'track.blend'
# www.blender.org
mtllib _0AD_BANNER_EMIRATES_01_SUB0.mtl
o _0AD_BANNER_EMIRATES_01_SUB0_Scene
v 21670.449219 93876.312500 -830.910950
v 21670.449219 93876.312500 -1234.329956
v 21677.201172 93883.640625 -1234.329956
v 21677.201172 93883.640625 -830.910950
v 22821.640625 92815.695312 -830.910950
v 22821.640625 92815.695312 -1234.329956
v 22828.390625 92823.031250 -830.910950
v 22828.390625 92823.031250 -1234.329956
vt 0.068402 1.826851
vt 0.068402 1.826851
vt 0.068402 1.826851
vt 0.068402 1.826851
vt 0.124154 1.863017
vt 0.000240 1.863017
vt 0.000240 1.827441
vt 0.124154 1.827441
vt 0.068402 1.826851
vt 0.068402 1.826851
vt 0.068402 1.826851
vt 0.068402 1.826851
vt 0.124154 1.863017
vt 0.000240 1.863017
vt 0.000240 1.827441
vt 0.124154 1.827441
vn -0.7359 0.6771 -0.0000
vn -0.7351 0.6780 0.0000
vn -0.7358 0.6772 0.0000
vn -0.6776 -0.7354 0.0000
vn 0.7363 -0.6766 -0.0000
vn 0.7344 -0.6787 0.0000
vn 0.7365 -0.6765 0.0000
vn 0.6776 0.7354 0.0000
vn 0.0000 0.0000 1.0000
vn 0.0000 0.0000 -1.0000
usemtl EnvironmentMat
s 1
f 1/1/1 3/2/2 2/3/2
f 3/2/2 1/1/1 4/4/3
f 2/5/4 6/6/4 5/7/4
f 2/5/4 5/7/4 1/8/4
f 7/9/5 6/10/6 8/11/6
f 6/10/6 7/9/5 5/12/7
f 8/13/8 3/14/8 4/15/8
f 8/13/8 4/15/8 7/16/8
f 1/1/9 5/12/9 4/4/9
f 7/9/9 4/4/9 5/12/9
f 2/3/10 8/11/10 6/10/10
f 8/11/10 2/3/10 3/2/10
