# Blender v3.1.2 OBJ File: 'track.blend'
# www.blender.org
mtllib _0AD_SHELL_001.mtl
o _0AD_SHELL_001_Scene.012
v -5690.013184 77867.921875 -1058.481934
v -5690.013672 77867.921875 -824.561218
v -4878.823242 78632.656250 -825.693115
v -4878.823242 78632.656250 -1059.614014
v -4066.775146 79395.773438 -826.825134
v -4066.773926 79395.773438 -1060.745972
vt 0.374900 1.869985
vt 0.250817 1.842179
vt 0.374900 1.842179
vt 0.250817 1.869985
vt 0.374900 1.869985
vt 0.250817 1.842179
vt 0.374900 1.842179
vt 0.250817 1.869985
vn 0.6860 -0.7276 -0.0000
vn 0.6854 -0.7282 -0.0000
vn 0.6848 -0.7287 -0.0000
usemtl EnvironmentMat
s 1
f 1/1/1 3/2/2 2/3/1
f 3/2/2 1/1/1 4/4/2
f 4/5/2 5/6/3 3/7/2
f 5/6/3 4/5/2 6/8/3
