# Blender v3.1.2 OBJ File: 'track.blend'
# www.blender.org
mtllib _0AD_emirates_005.mtl
o _0AD_emirates_005_Scene.006
v 12028.280273 93138.734375 -752.366333
v 12028.280273 93138.734375 -868.218262
v 11703.320312 92880.296875 -753.063477
v 11703.320312 92880.296875 -868.915466
v 12026.899414 93142.273438 -871.441467
v 11701.930664 92883.835938 -872.138672
v 12026.899414 93142.273438 -1035.363037
v 11701.930664 92883.835938 -1036.060059
v 11387.629883 92626.265625 -867.155273
v 11387.629883 92626.265625 -751.303284
v 11083.339844 92382.500000 -751.658203
v 11083.339844 92382.500000 -867.510254
v 10775.459961 92133.804688 -751.836121
v 10775.459961 92133.804688 -867.688110
v 11386.239258 92629.812500 -870.378479
v 11081.950195 92386.031250 -870.733521
v 10774.070312 92137.343750 -870.911316
v 11386.239258 92629.812500 -1034.300049
v 11081.950195 92386.031250 -1034.655029
v 10774.070312 92137.343750 -1034.833008
v 10461.509766 91881.929688 -753.006226
v 10461.509766 91881.929688 -868.858154
v 10460.119141 91885.468750 -872.081482
v 10460.119141 91885.468750 -1036.003052
v 10151.349609 91632.101562 -753.488708
v 10151.349609 91632.101562 -869.340698
v 9842.220703 91380.875000 -868.189697
v 9842.220703 91380.875000 -752.337708
v 9518.855469 91118.320312 -867.854309
v 9518.855469 91118.320312 -752.002258
v 10149.970703 91635.632812 -872.563965
v 9840.835938 91384.398438 -871.412964
v 9517.471680 91121.851562 -871.077637
v 10149.970703 91635.632812 -1036.484985
v 9840.835938 91384.398438 -1035.333984
v 9517.471680 91121.851562 -1034.999023
v 9220.670898 90876.437500 -752.999512
v 9220.670898 90876.437500 -868.851440
v 9219.287109 90879.968750 -872.074707
v 9219.287109 90879.968750 -1035.995972
v 16290.530273 93994.570312 -667.758179
v 16290.530273 93994.570312 -786.743713
v 15897.580078 93860.429688 -675.898499
v 15897.580078 93860.429688 -794.883911
v 16290.410156 93998.359375 -789.967041
v 15897.458984 93864.226562 -798.107178
v 16290.410156 93998.359375 -953.888245
v 15897.458984 93864.226562 -962.028381
v 15514.160156 93729.054688 -683.248901
v 15514.160156 93729.054688 -802.234253
v 15145.599609 93601.757812 -691.510986
v 15145.599609 93601.757812 -810.496399
v 14771.389648 93472.617188 -702.963562
v 14771.389648 93472.617188 -821.948975
v 15514.040039 93732.843750 -805.457581
v 15145.480469 93605.562500 -813.719666
v 14771.270508 93476.421875 -825.172302
v 15514.040039 93732.843750 -969.378845
v 15145.480469 93605.562500 -977.640930
v 14771.270508 93476.421875 -989.093506
v 14390.250000 93342.937500 -710.845276
v 14390.250000 93342.937500 -829.830750
v 14390.130859 93346.726562 -833.053955
v 14390.130859 93346.726562 -996.975220
v 14013.240234 93214.187500 -718.114685
v 14013.240234 93214.187500 -837.100098
v 13637.150391 93086.984375 -724.729370
v 13637.150391 93086.984375 -843.714783
v 13247.000000 92950.125000 -728.133850
v 13247.000000 92950.125000 -847.119263
v 14013.119141 93217.984375 -840.323364
v 13637.030273 93090.773438 -846.938110
v 13246.879883 92953.921875 -850.342529
v 14013.119141 93217.984375 -1004.244995
v 13637.030273 93090.773438 -1010.859009
v 13246.879883 92953.921875 -1014.264038
v 12881.610352 92817.984375 -729.130859
v 12881.610352 92817.984375 -848.116394
v 12881.489258 92821.781250 -851.339722
v 12881.489258 92821.781250 -1015.260986
vt 0.045205 1.859889
vt 0.086992 1.859889
vt 0.045205 1.872145
vt 0.086992 1.872145
vt 0.086992 1.872710
vt 0.045205 1.872710
vt 0.045205 1.855754
vt 0.086992 1.855754
vt 0.000585 1.823774
vt 0.041891 1.836030
vt 0.000585 1.836030
vt 0.041891 1.823774
vt 0.081774 1.823774
vt 0.081774 1.836030
vt 0.122225 1.823773
vt 0.122225 1.836030
vt 0.041891 1.836596
vt 0.000585 1.836596
vt 0.081774 1.836596
vt 0.122225 1.836596
vt 0.041891 1.855197
vt 0.000585 1.855197
vt 0.081774 1.855197
vt 0.122225 1.855197
vt 0.079329 1.857856
vt 0.120437 1.857856
vt 0.079329 1.870113
vt 0.120437 1.870113
vt 0.120437 1.870678
vt 0.079329 1.870678
vt 0.079329 1.853791
vt 0.120437 1.853791
vt 0.000617 1.823774
vt 0.041328 1.823774
vt 0.000617 1.836030
vt 0.041328 1.836030
vt 0.082314 1.836030
vt 0.082314 1.823774
vt 0.124321 1.836030
vt 0.124321 1.823774
vt 0.041328 1.836596
vt 0.000617 1.836596
vt 0.082314 1.836596
vt 0.124321 1.836596
vt 0.000617 1.855197
vt 0.041328 1.855197
vt 0.082314 1.855197
vt 0.124321 1.855197
vt 0.065678 1.859189
vt 0.105291 1.859189
vt 0.065678 1.871446
vt 0.105291 1.871446
vt 0.105291 1.872011
vt 0.065678 1.872011
vt 0.065678 1.855418
vt 0.105291 1.855419
vt 0.045205 1.859889
vt 0.086992 1.859889
vt 0.045205 1.872145
vt 0.086992 1.872145
vt 0.086992 1.872710
vt 0.045205 1.872710
vt 0.045205 1.855754
vt 0.086992 1.855754
vt 0.000585 1.823774
vt 0.041891 1.823774
vt 0.000585 1.836030
vt 0.041891 1.836030
vt 0.081774 1.823774
vt 0.081774 1.836030
vt 0.122225 1.823773
vt 0.122225 1.836030
vt 0.041891 1.836596
vt 0.000585 1.836596
vt 0.081774 1.836596
vt 0.122225 1.836596
vt 0.000585 1.855197
vt 0.041891 1.855197
vt 0.081774 1.855197
vt 0.122225 1.855197
vt 0.079329 1.857856
vt 0.120437 1.857856
vt 0.079329 1.870113
vt 0.120437 1.870113
vt 0.120437 1.870678
vt 0.079329 1.870678
vt 0.079329 1.853791
vt 0.120437 1.853791
vt 0.000617 1.823774
vt 0.041328 1.823774
vt 0.000617 1.836030
vt 0.041328 1.836030
vt 0.082314 1.823774
vt 0.082314 1.836030
vt 0.124321 1.823774
vt 0.124321 1.836030
vt 0.041328 1.836596
vt 0.000617 1.836596
vt 0.082314 1.836596
vt 0.124321 1.836596
vt 0.000617 1.855197
vt 0.041328 1.855197
vt 0.082314 1.855197
vt 0.124321 1.855197
vt 0.065678 1.859189
vt 0.105291 1.859189
vt 0.065678 1.871446
vt 0.105291 1.871446
vt 0.105291 1.872011
vt 0.065678 1.872011
vt 0.065678 1.855418
vt 0.105291 1.855419
vn 0.6224 -0.7827 0.0000
vn 0.6247 -0.7809 0.0000
vn 0.4143 -0.5189 -0.7477
vn 0.4139 -0.5190 -0.7479
vn 0.4147 -0.5195 -0.7471
vn 0.4137 -0.5188 -0.7481
vn 0.6261 -0.7798 0.0000
vn 0.6268 -0.7792 0.0000
vn 0.6271 -0.7790 0.0000
vn 0.4150 -0.5192 -0.7471
vn 0.4153 -0.5190 -0.7471
vn 0.4168 -0.5177 -0.7472
vn 0.4170 -0.5174 -0.7473
vn 0.4186 -0.5179 -0.7460
vn 0.4185 -0.5179 -0.7461
vn 0.6265 -0.7794 0.0000
vn 0.4175 -0.5170 -0.7473
vn 0.4177 -0.5171 -0.7471
vn 0.6290 -0.7774 0.0000
vn 0.6305 -0.7762 0.0000
vn 0.6302 -0.7765 0.0000
vn 0.4176 -0.5171 -0.7471
vn 0.4179 -0.5168 -0.7472
vn 0.4179 -0.5166 -0.7473
vn 0.4197 -0.5163 -0.7465
vn 0.4204 -0.5166 -0.7459
vn 0.6301 -0.7765 0.0000
vn 0.6300 -0.7766 0.0000
vn 0.4215 -0.5165 -0.7453
vn 0.4207 -0.5156 -0.7464
vn 0.4199 -0.5161 -0.7465
vn 0.3231 -0.9464 0.0000
vn 0.3236 -0.9462 0.0000
vn 0.2284 -0.6241 -0.7472
vn 0.2283 -0.6241 -0.7472
vn 0.2294 -0.6271 -0.7444
vn 0.2294 -0.6267 -0.7447
vn 0.2295 -0.6274 -0.7441
vn 0.3230 -0.9464 0.0000
vn 0.3253 -0.9456 0.0000
vn 0.3263 -0.9453 0.0000
vn 0.3242 -0.9460 0.0000
vn 0.3241 -0.9460 0.0000
vn 0.2304 -0.6256 -0.7454
vn 0.2311 -0.6258 -0.7449
vn 0.2347 -0.6238 -0.7455
vn 0.2355 -0.6239 -0.7452
vn 0.2339 -0.6250 -0.7448
vn 0.2326 -0.6252 -0.7450
vn 0.3226 -0.9465 0.0000
vn 0.2280 -0.6250 -0.7466
vn 0.2279 -0.6250 -0.7466
vn 0.3227 -0.9465 0.0000
vn 0.3218 -0.9468 0.0000
vn 0.3257 -0.9455 0.0000
vn 0.3258 -0.9455 0.0000
vn 0.3355 -0.9420 0.0000
vn 0.3356 -0.9420 0.0000
vn 0.2268 -0.6263 -0.7458
vn 0.2265 -0.6265 -0.7458
vn 0.2254 -0.6260 -0.7465
vn 0.2258 -0.6266 -0.7459
vn 0.2266 -0.6248 -0.7472
vn 0.2270 -0.6247 -0.7471
vn 0.3401 -0.9404 0.0000
vn 0.2279 -0.6247 -0.7469
vn 0.2287 -0.6267 -0.7450
vn 0.2278 -0.6269 -0.7450
usemtl EnvironmentMat
s 1
f 1/1/1 3/2/2 2/3/1
f 4/4/2 2/3/1 3/2/2
f 2/3/3 6/5/3 5/6/3
f 6/5/4 2/3/5 4/4/6
f 5/6/1 6/5/2 7/7/1
f 8/8/2 7/7/1 6/5/2
f 3/9/2 9/10/7 4/11/2
f 9/10/7 3/9/2 10/12/7
f 10/12/7 11/13/8 9/10/7
f 12/14/8 9/10/7 11/13/8
f 11/13/8 13/15/9 12/14/8
f 14/16/9 12/14/8 13/15/9
f 4/11/6 15/17/10 6/18/4
f 15/17/10 4/11/6 9/10/11
f 9/10/11 16/19/12 15/17/10
f 16/19/12 9/10/11 12/14/13
f 12/14/13 17/20/14 16/19/12
f 17/20/14 12/14/13 14/16/15
f 6/18/2 18/21/7 8/22/2
f 18/21/7 6/18/2 15/17/7
f 15/17/7 16/19/8 18/21/7
f 19/23/8 18/21/7 16/19/8
f 16/19/8 17/20/9 19/23/8
f 20/24/9 19/23/8 17/20/9
f 13/25/9 21/26/16 14/27/9
f 22/28/16 14/27/9 21/26/16
f 14/27/15 23/29/17 17/30/14
f 23/29/17 14/27/15 22/28/18
f 17/30/9 23/29/16 20/31/9
f 24/32/16 20/31/9 23/29/16
f 21/33/16 25/34/19 22/35/16
f 26/36/19 22/35/16 25/34/19
f 25/34/19 27/37/20 26/36/19
f 27/37/20 25/34/19 28/38/20
f 28/38/20 29/39/21 27/37/20
f 29/39/21 28/38/20 30/40/21
f 22/35/18 31/41/22 23/42/17
f 31/41/22 22/35/18 26/36/22
f 26/36/22 32/43/23 31/41/22
f 32/43/23 26/36/22 27/37/24
f 27/37/24 33/44/25 32/43/23
f 33/44/25 27/37/24 29/39/26
f 23/42/16 31/41/19 24/45/16
f 34/46/19 24/45/16 31/41/19
f 31/41/19 35/47/20 34/46/19
f 35/47/20 31/41/19 32/43/20
f 32/43/20 36/48/27 35/47/20
f 36/48/27 32/43/20 33/44/27
f 30/49/21 37/50/28 29/51/21
f 38/52/28 29/51/21 37/50/28
f 29/51/26 39/53/29 33/54/25
f 39/53/30 29/51/31 38/52/30
f 33/54/27 39/53/28 36/55/27
f 40/56/28 36/55/27 39/53/28
f 41/57/32 43/58/33 42/59/32
f 44/60/33 42/59/32 43/58/33
f 42/59/34 46/61/35 45/62/34
f 46/61/36 42/59/37 44/60/38
f 45/62/39 46/61/33 47/63/39
f 48/64/33 47/63/39 46/61/33
f 43/65/33 49/66/40 44/67/33
f 50/68/40 44/67/33 49/66/40
f 49/66/40 51/69/41 50/68/40
f 52/70/41 50/68/40 51/69/41
f 51/69/41 53/71/42 52/70/41
f 54/72/43 52/70/41 53/71/42
f 44/67/38 55/73/44 46/74/36
f 55/73/44 44/67/38 50/68/45
f 50/68/45 56/75/46 55/73/44
f 56/75/46 50/68/45 52/70/47
f 52/70/47 57/76/48 56/75/46
f 57/76/48 52/70/47 54/72/49
f 46/74/33 55/73/40 48/77/33
f 58/78/40 48/77/33 55/73/40
f 55/73/40 56/75/41 58/78/40
f 59/79/41 58/78/40 56/75/41
f 56/75/41 57/76/42 59/79/41
f 60/80/42 59/79/41 57/76/42
f 53/81/42 61/82/50 54/83/43
f 62/84/50 54/83/43 61/82/50
f 54/83/49 63/85/51 57/86/48
f 63/85/51 54/83/49 62/84/52
f 57/86/42 63/85/50 60/87/42
f 64/88/53 60/87/42 63/85/50
f 61/89/50 65/90/54 62/91/50
f 66/92/54 62/91/50 65/90/54
f 65/90/54 67/93/55 66/92/54
f 68/94/56 66/92/54 67/93/55
f 67/93/55 69/95/57 68/94/56
f 70/96/58 68/94/56 69/95/57
f 62/91/52 71/97/59 63/98/51
f 71/97/59 62/91/52 66/92/60
f 66/92/60 72/99/61 71/97/59
f 72/99/61 66/92/60 68/94/62
f 68/94/62 73/100/63 72/99/61
f 73/100/63 68/94/62 70/96/64
f 63/98/50 71/97/54 64/101/53
f 74/102/54 64/101/53 71/97/54
f 71/97/54 72/99/55 74/102/54
f 75/103/56 74/102/54 72/99/55
f 72/99/55 73/100/57 75/103/56
f 76/104/58 75/103/56 73/100/57
f 69/105/57 77/106/65 70/107/58
f 78/108/65 70/107/58 77/106/65
f 70/107/64 79/109/66 73/110/63
f 79/109/67 70/107/68 78/108/67
f 73/110/57 79/109/65 76/111/58
f 80/112/65 76/111/58 79/109/65
