# Blender v3.1.2 OBJ File: 'track.blend'
# www.blender.org
mtllib _0AD_tower_rolex_002_SUB1.mtl
o _0AD_tower_rolex_002_SUB1_Scene.018
v -13131.469727 -62839.890625 -134.512909
v -13129.429688 -62853.472656 -821.570129
v -13131.469727 -62839.890625 -821.570129
v -13129.429688 -62853.472656 -134.512909
v -13110.639648 -62836.765625 -821.570129
v -13108.610352 -62850.347656 -821.570129
v -13110.639648 -62836.765625 -134.512909
v -13108.610352 -62850.347656 -134.512909
v -13129.240234 -62849.859375 -765.886230
v -13616.340820 -62916.132812 -765.886414
v -13615.350586 -62922.699219 -765.886414
v -13130.219727 -62843.292969 -765.886230
v -13616.340820 -62916.132812 -760.893799
v -13130.219727 -62843.292969 -760.893494
v -13129.240234 -62849.859375 -760.893494
v -13615.350586 -62922.699219 -760.893799
v -13124.070312 -62847.550781 -821.239197
v -13601.299805 -62915.410156 -765.250183
v -13600.759766 -62918.980469 -765.250183
v -13124.609375 -62843.980469 -821.239197
v -13600.919922 -62915.351562 -763.318420
v -13124.229492 -62843.925781 -819.307312
v -13123.689453 -62847.492188 -819.307312
v -13600.379883 -62918.910156 -763.318420
vt 0.516657 3.180547
vt 0.516656 0.383379
vt 0.602885 0.383379
vt 0.602886 3.180547
vt 0.602886 3.180547
vt 0.602886 0.383379
vt 0.689116 3.180547
vt 0.689116 0.383379
vt 0.775345 0.465394
vt 0.775345 0.547409
vt 0.689116 0.465394
vt 0.689116 0.547409
vt 0.314904 3.180547
vt 0.314903 0.383379
vt 0.415779 0.383379
vt 0.415780 3.180547
vt 0.775345 0.383379
vt 0.775345 0.465394
vt 0.689116 0.383379
vt 0.689116 0.465394
vt 0.516656 0.383379
vt 0.415780 3.180547
vt 0.415780 0.383379
vt 0.516656 3.180547
vt 0.602885 0.383379
vt 0.602886 3.180547
vt 0.516657 3.180547
vt 0.516656 0.383379
vt 0.602886 0.383379
vt 0.689116 3.180547
vt 0.602886 3.180547
vt 0.689116 0.383379
vt 0.689116 0.547409
vt 0.689116 0.465394
vt 0.775345 0.547409
vt 0.775345 0.465394
vt 0.415779 0.383379
vt 0.415780 3.180547
vt 0.314904 3.180547
vt 0.314903 0.383379
vt 0.689116 0.465394
vt 0.689116 0.383379
vt 0.775345 0.465394
vt 0.775345 0.383379
vt 0.415780 0.383379
vt 0.516656 3.180547
vt 0.415780 3.180547
vt 0.516656 0.383379
vt 0.602885 0.383379
vt 0.602886 3.180547
vt 0.516657 3.180547
vt 0.516656 0.383379
vt 0.602886 0.383379
vt 0.689116 3.180547
vt 0.602886 3.180547
vt 0.689116 0.383379
vt 0.775345 0.547409
vt 0.689116 0.547409
vt 0.689116 0.465394
vt 0.775345 0.465394
vt 0.314904 3.180547
vt 0.415779 0.383379
vt 0.415780 3.180547
vt 0.314903 0.383379
vt 0.775345 0.465394
vt 0.689116 0.465394
vt 0.689116 0.383379
vt 0.775345 0.383379
vt 0.516656 3.180547
vt 0.415780 0.383379
vt 0.516656 0.383379
vt 0.415780 3.180547
vn -0.9890 -0.1480 -0.0000
vn -0.9890 -0.1482 0.0000
vn -0.9889 -0.1484 0.0000
vn 0.9890 0.1477 0.0000
vn 0.9890 0.1482 -0.0000
vn 0.9890 0.1481 0.0000
vn 0.0000 0.0000 1.0000
vn -0.1478 0.9890 -0.0000
vn -0.1484 0.9889 0.0000
vn -0.1479 0.9890 0.0000
vn 0.0000 0.0000 -1.0000
vn 0.1478 -0.9890 -0.0000
vn 0.1485 -0.9889 0.0000
vn 0.1479 -0.9890 0.0000
vn -0.9890 -0.1481 0.0000
vn -0.1482 0.9890 0.0000
vn 0.9890 0.1480 0.0000
vn 0.9890 0.1479 0.0000
vn 0.1482 -0.9890 0.0000
vn -0.1141 -0.0173 -0.9933
vn -0.1139 -0.0172 -0.9933
vn -0.1140 -0.0170 -0.9933
vn 0.1135 0.0168 0.9934
vn 0.1146 0.0171 0.9933
vn 0.1138 0.0172 0.9934
vn -0.9699 -0.1449 0.1955
vn -0.9700 -0.1451 0.1952
vn -0.9700 -0.1451 0.1953
vn -0.9699 -0.1447 0.1956
vn -0.1484 0.9889 0.0006
vn -0.1487 0.9889 -0.0011
vn -0.1484 0.9889 0.0007
vn -0.1487 0.9889 -0.0012
vn 0.9701 0.1454 -0.1945
vn 0.9696 0.1457 -0.1965
vn 0.9698 0.1456 -0.1955
vn 0.9703 0.1453 -0.1935
vn 0.1482 -0.9890 0.0021
vn 0.1483 -0.9889 -0.0049
vn 0.1483 -0.9889 -0.0050
usemtl ZinkMat
s 1
f 1/1/1 3/2/2 2/3/2
f 2/3/2 4/4/3 1/1/1
f 5/5/4 7/6/5 6/7/4
f 6/7/4 7/6/5 8/8/6
f 7/9/7 1/10/7 8/11/7
f 1/10/7 4/12/7 8/11/7
f 7/13/8 5/14/9 3/15/9
f 3/15/9 1/16/10 7/13/8
f 6/17/11 2/18/11 5/19/11
f 2/18/11 3/20/11 5/19/11
f 6/21/12 4/22/13 2/23/14
f 4/22/13 6/21/12 8/24/13
f 9/25/11 11/26/11 10/27/11
f 9/25/11 10/27/11 12/28/11
f 13/29/7 15/30/7 14/31/7
f 15/30/7 13/29/7 16/32/7
f 11/33/1 16/34/1 10/35/15
f 10/35/15 16/34/1 13/36/15
f 12/37/16 10/38/16 13/39/16
f 12/37/16 13/39/16 14/40/16
f 12/41/5 14/42/6 9/43/17
f 9/43/17 14/42/6 15/44/18
f 9/45/19 16/46/19 11/47/19
f 16/46/19 9/45/19 15/48/19
f 17/49/20 19/50/21 18/51/21
f 17/49/20 18/51/21 20/52/22
f 21/53/23 23/54/24 22/55/24
f 23/54/24 21/53/23 24/56/25
f 18/57/26 19/58/27 24/59/28
f 18/57/26 24/59/28 21/60/29
f 21/61/30 20/62/31 18/63/32
f 20/62/31 21/61/30 22/64/33
f 17/65/34 20/66/35 22/67/36
f 17/65/34 22/67/36 23/68/37
f 24/69/38 17/70/39 23/71/40
f 17/70/39 24/69/38 19/72/38
