# Blender v3.4.1 OBJ File: 'track.blend'
# www.blender.org
mtllib _0AD_UBS_002_Scene.023.mtl
o _0AD_UBS_002_Scene.023
v -180.516495 320.101013 -4.649376
v -180.623199 324.973999 -4.573328
v -180.623291 324.956207 -3.430776
v -180.516602 320.083099 -3.506824
v -179.969101 295.109985 -5.039380
v -179.908783 290.094513 -3.974828
v -179.908203 290.112305 -5.117381
v -179.969193 295.092194 -3.896828
v -180.188004 305.106384 -4.883379
v -180.297501 310.104614 -4.805377
v -180.297607 310.086792 -3.662825
v -180.188080 305.088593 -3.740826
v -180.406982 315.102814 -4.727376
v -180.407104 315.084991 -3.584825
v -180.078506 300.108185 -4.961379
v -180.078583 300.090393 -3.818827
v -179.953293 285.095306 -4.052830
v -179.952591 285.113098 -5.195382
vt 0.001376 1.806681
vt 0.123081 1.755052
vt 0.123081 1.806681
vt 0.001376 1.755052
vt 0.123081 1.806681
vt 0.001376 1.806681
vt 0.001376 1.755052
vt 0.123081 1.755052
vt 0.001376 1.806681
vt 0.123081 1.755052
vt 0.123081 1.806681
vt 0.001376 1.755052
vt 0.001376 1.806681
vt 0.123081 1.755052
vt 0.123081 1.806681
vt 0.001376 1.755052
vt 0.001376 1.806681
vt 0.123081 1.755052
vt 0.123081 1.806681
vt 0.001376 1.755052
vt 0.001376 1.806681
vt 0.123081 1.755052
vt 0.123081 1.806681
vt 0.001376 1.755052
vt 0.001376 1.806681
vt 0.123081 1.755052
vt 0.123081 1.806681
vt 0.001376 1.755052
vt 0.123081 1.806681
vt 0.001376 1.806681
vt 0.001376 1.755052
vt 0.123081 1.755052
vn -0.9998 -0.0219 -0.0004
vn -0.9999 -0.0170 -0.0004
vn -1.0000 -0.0016 -0.0005
vn -0.9999 -0.0170 -0.0007
vn -1.0000 0.0089 -0.0005
usemtl EnvironmentMat
s 1
f 1/1/1 3/2/1 2/3/1
f 3/2/1 1/1/1 4/4/1
f 5/5/2 7/6/3 6/7/3
f 5/5/2 6/7/3 8/8/4
f 9/9/1 11/10/1 10/11/1
f 11/10/1 9/9/1 12/12/1
f 13/13/1 4/14/1 1/15/1
f 4/14/1 13/13/1 14/16/1
f 10/17/1 14/18/1 13/19/1
f 14/18/1 10/17/1 11/20/1
f 15/21/1 12/22/1 9/23/1
f 12/22/1 15/21/1 16/24/1
f 5/25/2 16/26/1 15/27/1
f 16/26/1 5/25/2 8/28/4
f 7/29/3 18/30/5 17/31/5
f 7/29/3 17/31/5 6/32/3
