# Blender v3.1.2 OBJ File: 'track.blend'
# www.blender.org
mtllib _0AD_tower_rolex_002_SUB0.mtl
o _0AD_tower_rolex_002_SUB0_Scene.017
v -13655.070312 -62927.062500 -762.275146
v -13655.588867 -62923.601562 -762.275146
v -13655.070312 -62927.062500 -606.158997
v -13655.588867 -62923.601562 -606.158997
v -13127.040039 -62847.937500 -606.158997
v -13127.040039 -62847.937500 -762.275146
v -13127.549805 -62844.484375 -762.275146
v -13127.549805 -62844.484375 -606.158997
vt 0.779720 1.993533
vt 0.779720 1.993533
vt 0.779720 1.993533
vt 0.779720 1.993533
vt 0.863806 1.998600
vt 0.754070 1.998600
vt 0.754070 1.964560
vt 0.863806 1.964560
vt 0.779720 1.993533
vt 0.779720 1.993533
vt 0.779720 1.993533
vt 0.779720 1.993533
vt 0.863806 1.998600
vt 0.754070 1.998600
vt 0.754070 1.964560
vt 0.863806 1.964560
vn -0.9889 -0.1483 0.0000
vn -0.9889 -0.1487 -0.0000
vn -0.9889 -0.1486 0.0000
vn 0.1482 -0.9890 0.0000
vn 0.9890 0.1477 0.0000
vn 0.9889 0.1483 -0.0000
vn -0.1482 0.9890 0.0000
vn 0.0000 0.0000 1.0000
vn 0.0000 0.0000 -1.0000
usemtl EnvironmentMat
s 1
f 1/1/1 3/2/2 2/3/1
f 2/3/1 3/2/2 4/4/3
f 1/5/4 6/6/4 5/7/4
f 1/5/4 5/7/4 3/8/4
f 7/9/5 8/10/6 6/11/5
f 6/11/5 8/10/6 5/12/6
f 7/13/7 2/14/7 4/15/7
f 7/13/7 4/15/7 8/16/7
f 3/2/8 5/12/8 4/4/8
f 8/10/8 4/4/8 5/12/8
f 6/11/9 2/3/9 7/9/9
f 2/3/9 6/11/9 1/1/9
