# Blender v3.1.2 OBJ File: 'track.blend'
# www.blender.org
mtllib _0AD_SHELL.mtl
o _0AD_SHELL_Scene.011
v -3220.956055 80174.015625 -1064.349976
v -3220.956055 80174.015625 -830.429443
v -2402.879883 80931.375000 -831.561096
v -2402.878906 80931.375000 -1065.482056
v -1583.958984 81687.125000 -832.692810
v -1583.958008 81687.125000 -1066.614014
vt 0.374900 1.869985
vt 0.250817 1.842179
vt 0.374900 1.842179
vt 0.250817 1.869985
vt 0.374900 1.869985
vt 0.250817 1.842179
vt 0.374900 1.842179
vt 0.250817 1.869985
vn 0.6794 -0.7338 0.0000
vn 0.6788 -0.7343 0.0000
vn 0.6782 -0.7349 0.0000
usemtl EnvironmentMat
s 1
f 1/1/1 3/2/2 2/3/1
f 3/2/2 1/1/1 4/4/2
f 4/5/2 5/6/3 3/7/2
f 5/6/3 4/5/2 6/8/3
