# Blender v3.4.1 OBJ File: 'track.blend'
# www.blender.org
mtllib _0AD_tower_rolex_002_SUB0_Scene.017.mtl
o _0AD_tower_rolex_002_SUB0_Scene.017
v -136.550705 -629.270630 -7.622854
v -136.555893 -629.236023 -7.622854
v -136.550705 -629.270630 -6.061692
v -136.555893 -629.236023 -6.061692
v -131.270401 -628.479370 -6.061692
v -131.270401 -628.479370 -7.622854
v -131.275497 -628.444824 -7.622854
v -131.275497 -628.444824 -6.061692
vt 0.779720 1.993533
vt 0.779720 1.993533
vt 0.779720 1.993533
vt 0.779720 1.993533
vt 0.863806 1.998600
vt 0.754070 1.998600
vt 0.754070 1.964560
vt 0.863806 1.964560
vt 0.779720 1.993533
vt 0.779720 1.993533
vt 0.779720 1.993533
vt 0.779720 1.993533
vt 0.863806 1.998600
vt 0.754070 1.998600
vt 0.754070 1.964560
vt 0.863806 1.964560
vn -0.9889 -0.1486 0.0000
vn -0.9890 -0.1480 0.0000
vn 0.1482 -0.9890 0.0000
vn 0.9890 0.1479 0.0000
vn 0.9890 0.1482 -0.0000
vn 0.9890 0.1481 0.0000
vn -0.1482 0.9890 0.0000
vn 0.0000 0.0000 1.0000
vn 0.0000 0.0000 -1.0000
usemtl EnvironmentMat
s 1
f 1/1/1 3/2/1 2/3/1
f 2/3/1 3/2/1 4/4/2
f 1/5/3 6/6/3 5/7/3
f 1/5/3 5/7/3 3/8/3
f 7/9/4 8/10/5 6/11/4
f 6/11/4 8/10/5 5/12/6
f 7/13/7 2/14/7 4/15/7
f 7/13/7 4/15/7 8/16/7
f 3/2/8 5/12/8 4/4/8
f 8/10/8 4/4/8 5/12/8
f 6/11/9 2/3/9 7/9/9
f 2/3/9 6/11/9 1/1/9
