# Blender v3.4.1 OBJ File: 'track.blend'
# www.blender.org
mtllib _0AD_BANNER_EMIRATES_01_SUB1_Scene.001.mtl
o _0AD_BANNER_EMIRATES_01_SUB1_Scene.001
v 228.348907 928.128479 -12.253787
v 228.280579 928.089111 -12.253787
v 228.280579 928.089111 -2.401557
v 228.348907 928.128479 -2.401557
v 228.348907 928.207397 -12.253787
v 228.348907 928.207397 -2.401557
v 228.280579 928.246765 -12.253787
v 228.280579 928.246765 -2.401557
v 228.212296 928.207397 -12.253787
v 228.212296 928.207397 -2.401557
v 228.212296 928.128479 -12.253787
v 228.212296 928.128479 -2.401557
v 216.776688 938.782715 -12.253786
v 216.708496 938.743286 -12.253786
v 216.708496 938.743286 -2.401555
v 216.776688 938.782715 -2.401555
v 216.776688 938.861511 -12.253786
v 216.776688 938.861511 -2.401555
v 216.708496 938.900818 -12.253786
v 216.708496 938.900818 -2.401555
v 216.640198 938.861511 -12.253786
v 216.640198 938.861511 -2.401555
v 216.640198 938.782715 -12.253786
v 216.640198 938.782715 -2.401555
v 233.045898 937.374023 -2.696944
v 233.029388 937.390747 -2.659975
v 228.269699 928.178955 -12.204908
v 228.286194 928.162170 -12.241879
v 228.302689 928.145630 -12.204908
v 233.062302 937.357483 -2.659975
v 221.478806 920.773193 -2.696946
v 221.495285 920.756470 -2.659977
v 228.270996 928.111084 -12.204908
v 228.254486 928.127625 -12.241879
v 228.238007 928.144348 -12.204908
v 221.462296 920.789917 -2.659977
v 209.896179 931.443726 -2.696944
v 209.912689 931.427063 -2.659975
v 216.688507 938.781616 -12.204907
v 216.671982 938.798279 -12.241878
v 216.655502 938.815002 -12.204907
v 209.879700 931.460510 -2.659975
v 226.400986 941.438416 -2.696944
v 216.733078 938.886841 -12.204907
v 216.738098 938.863953 -12.241878
v 226.395996 941.461487 -2.659975
v 216.743103 938.841064 -12.204907
v 226.406006 941.415588 -2.659975
vt 0.561067 -0.852047
vt 0.508817 2.914079
vt 0.508817 -0.852047
vt 0.561067 2.914079
vt 0.665568 -0.852047
vt 0.665567 2.914079
vt 0.717818 -0.852047
vt 0.717818 2.914079
vt 0.456566 2.914079
vt 0.508816 -0.852046
vt 0.508817 2.914079
vt 0.456566 -0.852046
vt 0.352066 2.914079
vt 0.352065 -0.852047
vt 0.299816 2.914079
vt 0.299815 -0.852047
vt 0.118815 2.899009
vt 0.299815 2.899009
vt 0.209315 2.914079
vt 0.118815 2.868870
vt 0.299815 2.868870
vt 0.209315 2.853800
vt 0.561067 -0.852047
vt 0.508817 2.914079
vt 0.508817 -0.852047
vt 0.561067 2.914079
vt 0.665568 -0.852047
vt 0.665567 2.914079
vt 0.717818 -0.852047
vt 0.717818 2.914079
vt 0.456566 2.914079
vt 0.508816 -0.852046
vt 0.508817 2.914079
vt 0.456566 -0.852046
vt 0.352066 2.914079
vt 0.352065 -0.852047
vt 0.299816 2.914079
vt 0.299815 -0.852047
vt 0.118815 2.899009
vt 0.299815 2.899009
vt 0.209315 2.914079
vt 0.118815 2.868870
vt 0.299815 2.868870
vt 0.209315 2.853800
vt -3.132153 1.416025
vt 4.131825 1.440725
vt -3.145915 1.440726
vt 4.145588 1.416024
vt 4.132606 1.390815
vt -3.145179 1.390730
vt 4.131825 1.440725
vt 4.132606 1.390815
vt -3.145915 1.440726
vt -3.145179 1.390730
vt -3.132153 1.416025
vt 4.131825 1.440725
vt -3.145915 1.440726
vt 4.145588 1.416024
vt 4.132606 1.390815
vt -3.145179 1.390730
vt -3.145179 1.390730
vt -3.145915 1.440726
vt 4.132606 1.390815
vt 4.131825 1.440725
vt -3.132153 1.416025
vt 4.131825 1.440725
vt -3.145915 1.440726
vt 4.145588 1.416024
vt 4.132606 1.390815
vt -3.145179 1.390730
vt -3.145179 1.390730
vt -3.145915 1.440726
vt 4.132606 1.390815
vt 4.131825 1.440725
vt -3.132153 1.416025
vt 4.145588 1.416024
vt 4.131825 1.440725
vt -3.145915 1.440726
vt 4.132606 1.390815
vt -3.145179 1.390730
vt 4.131825 1.440725
vt 4.132606 1.390815
vt -3.145915 1.440726
vt -3.145179 1.390730
vn 0.8658 -0.5004 0.0000
vn 0.0007 -1.0000 -0.0000
vn -0.0009 -1.0000 0.0000
vn 0.8661 -0.4999 -0.0000
vn 0.8663 0.4996 -0.0000
vn 0.8658 0.5004 0.0000
vn 0.0007 1.0000 -0.0000
vn -0.0009 1.0000 -0.0000
vn -0.8659 0.5003 0.0000
vn -0.8659 0.5002 0.0000
vn -0.8663 -0.4995 -0.0000
vn -0.8659 -0.5003 0.0000
vn 0.0000 0.0000 -1.0000
vn 0.8663 -0.4996 0.0000
vn 0.0003 -1.0000 0.0000
vn 0.8662 -0.4997 0.0000
vn 0.8662 0.4998 0.0000
vn 0.8661 0.4999 0.0000
vn 0.0003 1.0000 0.0000
vn -0.8656 0.5007 0.0000
vn -0.8658 -0.5004 0.0000
vn -0.4022 0.7527 -0.5212
vn -0.4112 0.7488 -0.5198
vn 0.9068 -0.0334 -0.4203
vn 0.9074 -0.0332 -0.4190
vn 0.9066 -0.0334 -0.4206
vn -0.4967 -0.4886 0.7174
vn -0.4924 -0.4904 0.7191
vn -0.4966 -0.4886 0.7174
vn 0.2368 -0.8427 -0.4836
vn 0.2369 -0.8426 -0.4836
vn 0.2275 -0.8446 -0.4847
vn 0.2276 -0.8446 -0.4847
vn -0.8638 0.1859 -0.4683
vn -0.8608 0.1884 -0.4727
vn -0.8609 0.1884 -0.4726
vn -0.8638 0.1858 -0.4683
vn 0.4878 0.4860 0.7251
vn 0.4921 0.4859 0.7223
vn 0.4879 0.4860 0.7251
vn 0.4922 0.4861 0.7221
vn 0.2315 -0.8438 -0.4841
vn 0.2344 -0.8425 -0.4851
vn -0.8633 0.1863 -0.4691
vn -0.8621 0.1871 -0.4709
vn -0.8633 0.1864 -0.4691
vn 0.4893 0.4862 0.7240
vn 0.4911 0.4855 0.7233
vn 0.2587 0.8365 -0.4830
vn 0.2586 0.8365 -0.4830
vn 0.2545 0.8358 -0.4865
vn 0.2545 0.8357 -0.4866
vn 0.6277 -0.6214 -0.4689
vn 0.6275 -0.6192 -0.4721
vn 0.6275 -0.6191 -0.4721
vn -0.6750 -0.1471 0.7230
vn -0.6734 -0.1459 0.7248
vn -0.6750 -0.1472 0.7230
vn -0.6733 -0.1460 0.7249
usemtl ZinkMat
s 1
f 1/1/1 3/2/2 2/3/3
f 3/2/2 1/1/1 4/4/4
f 5/5/5 4/4/4 1/1/1
f 4/4/4 5/5/5 6/6/6
f 7/7/7 6/6/6 5/5/5
f 6/6/6 7/7/7 8/8/8
f 9/9/9 8/10/8 7/11/7
f 8/10/8 9/9/9 10/12/10
f 11/13/11 10/12/10 9/9/9
f 10/12/10 11/13/11 12/14/12
f 2/15/3 12/14/12 11/13/11
f 12/14/12 2/15/3 3/16/2
f 11/17/13 1/18/13 2/19/13
f 9/20/13 1/18/13 11/17/13
f 1/18/13 9/20/13 5/21/13
f 5/21/13 9/20/13 7/22/13
f 13/23/14 15/24/15 14/25/15
f 15/24/15 13/23/14 16/26/16
f 17/27/17 16/26/16 13/23/14
f 16/26/16 17/27/17 18/28/18
f 19/29/19 18/28/18 17/27/17
f 18/28/18 19/29/19 20/30/19
f 21/31/9 20/32/19 19/33/19
f 20/32/19 21/31/9 22/34/20
f 23/35/21 22/34/20 21/31/9
f 22/34/20 23/35/21 24/36/12
f 14/37/15 24/36/12 23/35/21
f 24/36/12 14/37/15 15/38/15
f 23/39/13 13/40/13 14/41/13
f 21/42/13 13/40/13 23/39/13
f 13/40/13 21/42/13 17/43/13
f 17/43/13 21/42/13 19/44/13
f 25/45/22 27/46/22 26/47/22
f 25/45/23 28/48/23 27/46/23
f 29/49/24 25/45/25 30/50/25
f 25/45/25 29/49/24 28/48/26
f 26/51/27 27/52/28 30/53/29
f 30/53/29 27/52/28 29/54/28
f 31/55/30 33/56/31 32/57/31
f 31/55/32 34/58/33 33/56/33
f 35/59/34 31/55/35 36/60/36
f 31/55/35 35/59/34 34/58/37
f 35/61/38 36/62/39 33/63/40
f 33/63/40 36/62/39 32/64/41
f 37/65/42 39/66/42 38/67/42
f 37/65/43 40/68/43 39/66/43
f 41/69/44 37/65/45 42/70/45
f 37/65/45 41/69/44 40/68/46
f 41/71/47 42/72/48 39/73/47
f 39/73/47 42/72/48 38/74/48
f 43/75/49 45/76/50 44/77/49
f 44/77/51 46/78/51 43/75/52
f 47/79/53 43/75/54 48/80/55
f 43/75/54 47/79/53 45/76/53
f 46/81/56 44/82/57 48/83/58
f 47/84/59 48/83/58 44/82/57
