# Blender v3.4.1 OBJ File: 'track.blend'
# www.blender.org
mtllib _0AD_emirates_005_Scene.006.mtl
o _0AD_emirates_005_Scene.006
v 120.282799 931.387329 -7.523511
v 120.282799 931.387329 -8.682031
v 117.033203 928.802917 -7.530483
v 117.033203 928.802917 -8.689003
v 120.268990 931.422729 -8.714263
v 117.019302 928.838318 -8.721235
v 120.268990 931.422729 -10.353478
v 117.019302 928.838318 -10.360449
v 113.876297 926.262634 -8.671402
v 113.876297 926.262634 -7.512882
v 110.833397 923.824951 -7.516431
v 110.833397 923.824951 -8.674952
v 107.754601 921.338013 -7.518211
v 107.754601 921.338013 -8.676731
v 113.862389 926.298096 -8.703634
v 110.819496 923.860291 -8.707185
v 107.740700 921.373413 -8.708963
v 113.862389 926.298096 -10.342850
v 110.819496 923.860291 -10.346399
v 107.740700 921.373413 -10.348180
v 104.615097 918.819275 -7.529912
v 104.615097 918.819275 -8.688432
v 104.601189 918.854675 -8.720665
v 104.601189 918.854675 -10.359880
v 101.513496 916.320984 -7.534738
v 101.513496 916.320984 -8.693257
v 98.422203 913.808716 -8.681748
v 98.422203 913.808716 -7.523228
v 95.188553 911.183167 -8.678394
v 95.188553 911.183167 -7.519874
v 101.499702 916.356323 -8.725490
v 98.408356 913.843994 -8.713981
v 95.174713 911.218506 -8.710628
v 101.499702 916.356323 -10.364700
v 98.408356 913.843994 -10.353190
v 95.174713 911.218506 -10.349841
v 92.206703 908.764343 -7.529847
v 92.206703 908.764343 -8.688366
v 92.192871 908.799683 -8.720599
v 92.192871 908.799683 -10.359812
v 162.905304 939.945679 -6.677429
v 162.905304 939.945679 -7.867284
v 158.975800 938.604248 -6.758832
v 158.975800 938.604248 -7.948686
v 162.904099 939.983582 -7.899517
v 158.974579 938.642273 -7.980918
v 162.904099 939.983582 -9.538729
v 158.974579 938.642273 -9.620131
v 155.141602 937.290527 -6.832336
v 155.141602 937.290527 -8.022190
v 151.455994 936.017578 -6.914957
v 151.455994 936.017578 -8.104812
v 147.713898 934.726135 -7.029483
v 147.713898 934.726135 -8.219337
v 155.140396 937.328430 -8.054423
v 151.454803 936.055603 -8.137044
v 147.712708 934.764221 -8.251571
v 155.140396 937.328430 -9.693636
v 151.454803 936.055603 -9.776257
v 147.712708 934.764221 -9.890782
v 143.902496 933.429382 -7.108301
v 143.902496 933.429382 -8.298156
v 143.901306 933.467224 -8.330388
v 143.901306 933.467224 -9.969601
v 140.132401 932.141846 -7.180995
v 140.132401 932.141846 -8.370850
v 136.371506 930.869812 -7.247142
v 136.371506 930.869812 -8.436996
v 132.470001 929.501221 -7.281187
v 132.470001 929.501221 -8.471041
v 140.131195 932.179810 -8.403082
v 136.370300 930.907715 -8.469230
v 132.468796 929.539185 -8.503273
v 140.131195 932.179810 -10.042298
v 136.370300 930.907715 -10.108438
v 132.468796 929.539185 -10.142488
v 128.816101 928.179810 -7.291157
v 128.816101 928.179810 -8.481012
v 128.814896 928.217773 -8.513246
v 128.814896 928.217773 -10.152458
vt 0.045205 1.859889
vt 0.086992 1.859889
vt 0.045205 1.872145
vt 0.086992 1.872145
vt 0.086992 1.872710
vt 0.045205 1.872710
vt 0.045205 1.855754
vt 0.086992 1.855754
vt 0.000585 1.823774
vt 0.041891 1.836030
vt 0.000585 1.836030
vt 0.041891 1.823774
vt 0.081774 1.823774
vt 0.081774 1.836030
vt 0.122225 1.823773
vt 0.122225 1.836030
vt 0.041891 1.836596
vt 0.000585 1.836596
vt 0.081774 1.836596
vt 0.122225 1.836596
vt 0.041891 1.855197
vt 0.000585 1.855197
vt 0.081774 1.855197
vt 0.122225 1.855197
vt 0.079329 1.857856
vt 0.120437 1.857856
vt 0.079329 1.870113
vt 0.120437 1.870113
vt 0.120437 1.870678
vt 0.079329 1.870678
vt 0.079329 1.853791
vt 0.120437 1.853791
vt 0.000617 1.823774
vt 0.041328 1.823774
vt 0.000617 1.836030
vt 0.041328 1.836030
vt 0.082314 1.836030
vt 0.082314 1.823774
vt 0.124321 1.836030
vt 0.124321 1.823774
vt 0.041328 1.836596
vt 0.000617 1.836596
vt 0.082314 1.836596
vt 0.124321 1.836596
vt 0.000617 1.855197
vt 0.041328 1.855197
vt 0.082314 1.855197
vt 0.124321 1.855197
vt 0.065678 1.859189
vt 0.105291 1.859189
vt 0.065678 1.871446
vt 0.105291 1.871446
vt 0.105291 1.872011
vt 0.065678 1.872011
vt 0.065678 1.855418
vt 0.105291 1.855419
vt 0.045205 1.859889
vt 0.086992 1.859889
vt 0.045205 1.872145
vt 0.086992 1.872145
vt 0.086992 1.872710
vt 0.045205 1.872710
vt 0.045205 1.855754
vt 0.086992 1.855754
vt 0.000585 1.823774
vt 0.041891 1.823774
vt 0.000585 1.836030
vt 0.041891 1.836030
vt 0.081774 1.823774
vt 0.081774 1.836030
vt 0.122225 1.823773
vt 0.122225 1.836030
vt 0.041891 1.836596
vt 0.000585 1.836596
vt 0.081774 1.836596
vt 0.122225 1.836596
vt 0.000585 1.855197
vt 0.041891 1.855197
vt 0.081774 1.855197
vt 0.122225 1.855197
vt 0.079329 1.857856
vt 0.120437 1.857856
vt 0.079329 1.870113
vt 0.120437 1.870113
vt 0.120437 1.870678
vt 0.079329 1.870678
vt 0.079329 1.853791
vt 0.120437 1.853791
vt 0.000617 1.823774
vt 0.041328 1.823774
vt 0.000617 1.836030
vt 0.041328 1.836030
vt 0.082314 1.823774
vt 0.082314 1.836030
vt 0.124321 1.823774
vt 0.124321 1.836030
vt 0.041328 1.836596
vt 0.000617 1.836596
vt 0.082314 1.836596
vt 0.124321 1.836596
vt 0.000617 1.855197
vt 0.041328 1.855197
vt 0.082314 1.855197
vt 0.124321 1.855197
vt 0.065678 1.859189
vt 0.105291 1.859189
vt 0.065678 1.871446
vt 0.105291 1.871446
vt 0.105291 1.872011
vt 0.065678 1.872011
vt 0.065678 1.855418
vt 0.105291 1.855419
vn 0.6225 -0.7827 0.0000
vn 0.6247 -0.7809 0.0000
vn 0.4141 -0.5188 -0.7479
vn 0.4143 -0.5194 -0.7474
vn 0.4146 -0.5193 -0.7473
vn 0.4142 -0.5194 -0.7474
vn 0.6224 -0.7827 0.0000
vn 0.6261 -0.7798 0.0000
vn 0.6268 -0.7792 0.0000
vn 0.6271 -0.7790 0.0000
vn 0.4143 -0.5183 -0.7481
vn 0.4149 -0.5183 -0.7478
vn 0.4168 -0.5177 -0.7472
vn 0.4173 -0.5176 -0.7470
vn 0.4176 -0.5167 -0.7474
vn 0.4172 -0.5163 -0.7479
vn 0.6265 -0.7794 0.0000
vn 0.4177 -0.5172 -0.7470
vn 0.4178 -0.5173 -0.7469
vn 0.6290 -0.7774 0.0000
vn 0.6305 -0.7762 0.0000
vn 0.6302 -0.7765 0.0000
vn 0.4178 -0.5175 -0.7468
vn 0.4179 -0.5176 -0.7466
vn 0.4177 -0.5166 -0.7474
vn 0.4180 -0.5167 -0.7472
vn 0.4205 -0.5174 -0.7453
vn 0.4207 -0.5171 -0.7454
vn 0.6300 -0.7766 0.0000
vn 0.4212 -0.5162 -0.7458
vn 0.4204 -0.5151 -0.7469
vn 0.4195 -0.5153 -0.7473
vn 0.3231 -0.9464 0.0000
vn 0.3236 -0.9462 0.0000
vn 0.2287 -0.6248 -0.7465
vn 0.2285 -0.6249 -0.7465
vn 0.2288 -0.6253 -0.7461
vn 0.2290 -0.6256 -0.7458
vn 0.2287 -0.6253 -0.7461
vn 0.3230 -0.9464 0.0000
vn 0.3253 -0.9456 0.0000
vn 0.3263 -0.9452 0.0000
vn 0.3263 -0.9453 0.0000
vn 0.3242 -0.9460 0.0000
vn 0.3241 -0.9460 0.0000
vn 0.2306 -0.6260 -0.7449
vn 0.2314 -0.6268 -0.7440
vn 0.2350 -0.6246 -0.7447
vn 0.2359 -0.6248 -0.7442
vn 0.2338 -0.6244 -0.7453
vn 0.2324 -0.6242 -0.7459
vn 0.3226 -0.9465 0.0000
vn 0.2285 -0.6264 -0.7452
vn 0.2284 -0.6264 -0.7453
vn 0.3227 -0.9465 0.0000
vn 0.3218 -0.9468 0.0000
vn 0.3257 -0.9455 0.0000
vn 0.3258 -0.9455 0.0000
vn 0.3355 -0.9420 0.0000
vn 0.3356 -0.9420 0.0000
vn 0.2270 -0.6268 -0.7454
vn 0.2265 -0.6266 -0.7457
vn 0.2256 -0.6265 -0.7461
vn 0.2258 -0.6266 -0.7459
vn 0.2272 -0.6262 -0.7458
vn 0.2274 -0.6260 -0.7460
vn 0.3401 -0.9404 0.0000
vn 0.2281 -0.6251 -0.7465
vn 0.2273 -0.6254 -0.7465
usemtl EnvironmentMat
s 1
f 1/1/1 3/2/2 2/3/1
f 4/4/2 2/3/1 3/2/2
f 2/3/3 6/5/3 5/6/3
f 6/5/4 2/3/5 4/4/6
f 5/6/7 6/5/2 7/7/7
f 8/8/2 7/7/7 6/5/2
f 3/9/2 9/10/8 4/11/2
f 9/10/8 3/9/2 10/12/8
f 10/12/8 11/13/9 9/10/8
f 12/14/9 9/10/8 11/13/9
f 11/13/9 13/15/10 12/14/9
f 14/16/10 12/14/9 13/15/10
f 4/11/6 15/17/11 6/18/4
f 15/17/11 4/11/6 9/10/12
f 9/10/12 16/19/13 15/17/11
f 16/19/13 9/10/12 12/14/14
f 12/14/14 17/20/15 16/19/13
f 17/20/15 12/14/14 14/16/16
f 6/18/2 18/21/8 8/22/2
f 18/21/8 6/18/2 15/17/8
f 15/17/8 16/19/9 18/21/8
f 19/23/9 18/21/8 16/19/9
f 16/19/9 17/20/10 19/23/9
f 20/24/10 19/23/9 17/20/10
f 13/25/10 21/26/17 14/27/10
f 22/28/17 14/27/10 21/26/17
f 14/27/16 23/29/18 17/30/15
f 23/29/18 14/27/16 22/28/19
f 17/30/10 23/29/17 20/31/10
f 24/32/17 20/31/10 23/29/17
f 21/33/17 25/34/20 22/35/17
f 26/36/20 22/35/17 25/34/20
f 25/34/20 27/37/21 26/36/20
f 27/37/21 25/34/20 28/38/21
f 28/38/21 29/39/22 27/37/21
f 29/39/22 28/38/21 30/40/22
f 22/35/19 31/41/23 23/42/18
f 31/41/23 22/35/19 26/36/24
f 26/36/24 32/43/25 31/41/23
f 32/43/25 26/36/24 27/37/26
f 27/37/26 33/44/27 32/43/25
f 33/44/27 27/37/26 29/39/28
f 23/42/17 31/41/20 24/45/17
f 34/46/20 24/45/17 31/41/20
f 31/41/20 35/47/21 34/46/20
f 35/47/21 31/41/20 32/43/21
f 32/43/21 36/48/22 35/47/21
f 36/48/22 32/43/21 33/44/22
f 30/49/22 37/50/29 29/51/22
f 38/52/29 29/51/22 37/50/29
f 29/51/28 39/53/30 33/54/27
f 39/53/31 29/51/32 38/52/31
f 33/54/22 39/53/29 36/55/22
f 40/56/29 36/55/22 39/53/29
f 41/57/33 43/58/34 42/59/33
f 44/60/34 42/59/33 43/58/34
f 42/59/35 46/61/36 45/62/35
f 46/61/37 42/59/38 44/60/39
f 45/62/40 46/61/34 47/63/40
f 48/64/34 47/63/40 46/61/34
f 43/65/34 49/66/41 44/67/34
f 50/68/41 44/67/34 49/66/41
f 49/66/41 51/69/42 50/68/41
f 52/70/43 50/68/41 51/69/42
f 51/69/42 53/71/44 52/70/43
f 54/72/45 52/70/43 53/71/44
f 44/67/39 55/73/46 46/74/37
f 55/73/46 44/67/39 50/68/47
f 50/68/47 56/75/48 55/73/46
f 56/75/48 50/68/47 52/70/49
f 52/70/49 57/76/50 56/75/48
f 57/76/50 52/70/49 54/72/51
f 46/74/34 55/73/41 48/77/34
f 58/78/41 48/77/34 55/73/41
f 55/73/41 56/75/43 58/78/41
f 59/79/43 58/78/41 56/75/43
f 56/75/43 57/76/44 59/79/43
f 60/80/44 59/79/43 57/76/44
f 53/81/44 61/82/52 54/83/45
f 62/84/52 54/83/45 61/82/52
f 54/83/51 63/85/53 57/86/50
f 63/85/53 54/83/51 62/84/54
f 57/86/44 63/85/52 60/87/44
f 64/88/55 60/87/44 63/85/52
f 61/89/52 65/90/56 62/91/52
f 66/92/56 62/91/52 65/90/56
f 65/90/56 67/93/57 66/92/56
f 68/94/58 66/92/56 67/93/57
f 67/93/57 69/95/59 68/94/58
f 70/96/60 68/94/58 69/95/59
f 62/91/54 71/97/61 63/98/53
f 71/97/61 62/91/54 66/92/62
f 66/92/62 72/99/63 71/97/61
f 72/99/63 66/92/62 68/94/64
f 68/94/64 73/100/65 72/99/63
f 73/100/65 68/94/64 70/96/66
f 63/98/52 71/97/56 64/101/55
f 74/102/56 64/101/55 71/97/56
f 71/97/56 72/99/57 74/102/56
f 75/103/58 74/102/56 72/99/57
f 72/99/57 73/100/59 75/103/58
f 76/104/60 75/103/58 73/100/59
f 69/105/59 77/106/67 70/107/60
f 78/108/67 70/107/60 77/106/67
f 70/107/66 79/109/68 73/110/65
f 79/109/68 70/107/69 78/108/68
f 73/110/59 79/109/67 76/111/60
f 80/112/67 76/111/60 79/109/67
