# Blender v3.4.1 OBJ File: 'track.blend'
# www.blender.org
mtllib _0AD_emirates_004_Scene.005.mtl
o _0AD_emirates_004_Scene.005
v -15.223960 792.002197 -7.908569
v -17.939270 789.167480 -7.896545
v -17.939270 789.167480 -9.535757
v -15.223960 792.002197 -9.547782
v -12.345059 794.950012 -7.957712
v -12.345059 794.950012 -9.596923
v -9.468209 797.843018 -7.981763
v -9.468210 797.843018 -9.620977
v -17.956249 789.201416 -7.864312
v -15.240939 792.036072 -7.876337
v -12.362040 794.983948 -7.925479
v -9.485193 797.876831 -7.949532
v -15.240939 792.036072 -6.717817
v -17.956249 789.201416 -6.705792
v -12.362040 794.983948 -6.766959
v -9.485193 797.876831 -6.791012
v -6.600318 800.785828 -6.814019
v -6.600318 800.785828 -7.972539
v -6.583336 800.751831 -8.004771
v -6.583336 800.751831 -9.643983
v -3.739630 803.642151 -6.834414
v -3.739630 803.642151 -7.992933
v -0.961702 806.369202 -6.859267
v -0.961702 806.369202 -8.017787
v 1.861575 809.143127 -6.896196
v 1.861575 809.143127 -8.054715
v -3.722647 803.608215 -8.025167
v -0.944719 806.335266 -8.050019
v 1.878559 809.109070 -8.086949
v -3.722648 803.608215 -9.664379
v -0.944720 806.335266 -9.689231
v 1.878558 809.109070 -9.726162
v 4.741111 811.944580 -6.907897
v 4.741111 811.944580 -8.066418
v 4.758094 811.910706 -8.098650
v 4.758093 811.910706 -9.737863
v 7.603697 814.713562 -6.936245
v 7.603697 814.713562 -8.094766
v 10.483810 817.473328 -6.963239
v 10.483810 817.473328 -8.121758
v 13.492990 820.348877 -8.106989
v 13.492990 820.348877 -6.948469
v 7.620680 814.679565 -8.126999
v 10.500790 817.439270 -8.153991
v 13.509969 820.314819 -8.139221
v 7.620680 814.679565 -9.766211
v 10.500790 817.439270 -9.793203
v 13.509969 820.314819 -9.778434
v 16.267460 822.977173 -6.948469
v 16.267460 822.977173 -8.106988
v 16.284437 822.943176 -8.139220
v 16.284437 822.943176 -9.778433
v 19.204479 825.749573 -6.950861
v 19.204479 825.749573 -8.109382
v 22.100510 828.471680 -6.963238
v 22.100510 828.471680 -8.121758
v 25.161030 831.305664 -8.106987
v 25.161030 831.305664 -6.948467
v 19.221020 825.715393 -8.141614
v 22.117060 828.437500 -8.153990
v 25.177580 831.271484 -8.139220
v 25.177570 831.271484 -9.778432
v 22.117060 828.437500 -9.793202
v 19.221020 825.715393 -9.780827
v 27.999437 833.891479 -6.948467
v 27.999437 833.891479 -8.106987
v 28.015987 833.857422 -8.139220
v 28.015987 833.857422 -9.778433
vt 0.041148 1.836596
vt 0.000607 1.855196
vt 0.000607 1.836596
vt 0.041148 1.855196
vt 0.082869 1.836596
vt 0.082869 1.855197
vt 0.123911 1.836596
vt 0.123911 1.855197
vt 0.000607 1.836030
vt 0.041148 1.836030
vt 0.082869 1.836030
vt 0.123911 1.836030
vt 0.041148 1.823774
vt 0.000607 1.823774
vt 0.082869 1.823774
vt 0.123911 1.823774
vt 0.045205 1.859889
vt 0.086992 1.859889
vt 0.045205 1.872145
vt 0.086992 1.872145
vt 0.086992 1.872710
vt 0.045205 1.872710
vt 0.045205 1.855754
vt 0.086992 1.855754
vt 0.000585 1.823774
vt 0.041891 1.823774
vt 0.000585 1.836030
vt 0.041891 1.836030
vt 0.081774 1.823774
vt 0.081774 1.836030
vt 0.122225 1.823773
vt 0.122225 1.836030
vt 0.041891 1.836596
vt 0.000585 1.836596
vt 0.081774 1.836596
vt 0.122225 1.836596
vt 0.000585 1.855197
vt 0.041891 1.855197
vt 0.081774 1.855197
vt 0.122225 1.855197
vt 0.079329 1.857856
vt 0.120437 1.857856
vt 0.079329 1.870113
vt 0.120437 1.870113
vt 0.120437 1.870678
vt 0.079329 1.870678
vt 0.079329 1.853791
vt 0.120437 1.853791
vt 0.000617 1.823774
vt 0.041328 1.823774
vt 0.000617 1.836030
vt 0.041328 1.836030
vt 0.082314 1.823774
vt 0.082314 1.836030
vt 0.124321 1.836030
vt 0.124321 1.823774
vt 0.041328 1.836596
vt 0.000617 1.836596
vt 0.082314 1.836596
vt 0.124321 1.836596
vt 0.000617 1.855197
vt 0.041328 1.855197
vt 0.082314 1.855197
vt 0.124321 1.855197
vt 0.065678 1.859189
vt 0.105291 1.859189
vt 0.065678 1.871446
vt 0.105291 1.871446
vt 0.105291 1.872011
vt 0.065678 1.872011
vt 0.065678 1.855418
vt 0.105291 1.855419
vt 0.000617 1.823774
vt 0.041328 1.823774
vt 0.000617 1.836030
vt 0.041328 1.836030
vt 0.082314 1.823774
vt 0.082314 1.836030
vt 0.124321 1.836030
vt 0.124321 1.823774
vt 0.041328 1.836596
vt 0.000617 1.836596
vt 0.082314 1.836596
vt 0.124321 1.836596
vt 0.124321 1.855197
vt 0.082314 1.855197
vt 0.041328 1.855197
vt 0.000617 1.855197
vt 0.065678 1.859189
vt 0.105291 1.859189
vt 0.065678 1.871446
vt 0.105291 1.871446
vt 0.105291 1.872011
vt 0.065678 1.872011
vt 0.065678 1.855418
vt 0.105291 1.855419
vn -0.7188 0.6952 0.0000
vn -0.7222 0.6917 0.0000
vn -0.7123 0.7019 0.0000
vn -0.7122 0.7019 0.0000
vn -0.7096 0.7047 0.0000
vn -0.4858 0.4622 -0.7418
vn -0.4856 0.4619 -0.7422
vn -0.4855 0.4620 -0.7422
vn -0.4855 0.4618 -0.7423
vn -0.4819 0.4645 -0.7429
vn -0.4807 0.4656 -0.7431
vn -0.4764 0.4672 -0.7448
vn -0.4766 0.4673 -0.7446
vn -0.7221 0.6917 0.0000
vn -0.7096 0.7046 0.0000
vn -0.7083 0.7059 0.0000
vn -0.4757 0.4681 -0.7448
vn -0.4751 0.4683 -0.7449
vn -0.7036 0.7106 0.0000
vn -0.7035 0.7106 0.0000
vn -0.7007 0.7135 0.0000
vn -0.6991 0.7150 0.0000
vn -0.4729 0.4711 -0.7446
vn -0.4720 0.4712 -0.7451
vn -0.4712 0.4717 -0.7453
vn -0.4715 0.4714 -0.7453
vn -0.4698 0.4732 -0.7452
vn -0.4688 0.4738 -0.7455
vn -0.6963 0.7178 0.0000
vn -0.4670 0.4761 -0.7451
vn -0.4669 0.4758 -0.7454
vn -0.6936 0.7204 0.0000
vn -0.6914 0.7225 0.0000
vn -0.6893 0.7245 0.0000
vn -0.4653 0.4755 -0.7466
vn -0.4650 0.4758 -0.7466
vn -0.4603 0.4784 -0.7478
vn -0.4595 0.4794 -0.7477
vn -0.4562 0.4813 -0.7485
vn -0.4564 0.4816 -0.7482
vn -0.6935 0.7204 0.0000
vn -0.6871 0.7266 0.0000
vn -0.4557 0.4815 -0.7487
vn -0.4558 0.4818 -0.7484
vn -0.6857 0.7279 0.0000
vn -0.6822 0.7312 0.0000
vn -0.6764 0.7365 0.0000
vn -0.4567 0.4829 -0.7472
vn -0.4568 0.4829 -0.7471
vn -0.4533 0.4850 -0.7479
vn -0.4520 0.4858 -0.7482
vn -0.4476 0.4890 -0.7487
vn -0.4472 0.4891 -0.7489
vn -0.6765 0.7365 0.0000
vn -0.6734 0.7392 0.0000
vn -0.4461 0.4897 -0.7492
vn -0.4461 0.4896 -0.7492
vn -0.4470 0.4891 -0.7489
vn -0.6735 0.7392 0.0000
usemtl EnvironmentMat
s 1
f 1/1/1 3/2/2 2/3/2
f 3/2/2 1/1/1 4/4/1
f 1/1/1 5/5/3 4/4/1
f 6/6/4 4/4/1 5/5/3
f 5/5/3 7/7/5 6/6/4
f 8/8/5 6/6/4 7/7/5
f 9/9/6 1/1/7 2/3/6
f 1/1/7 9/9/8 10/10/9
f 10/10/9 5/5/10 1/1/7
f 5/5/10 10/10/9 11/11/11
f 11/11/11 7/7/12 5/5/10
f 7/7/12 11/11/11 12/12/13
f 13/13/1 9/9/14 14/14/14
f 9/9/14 13/13/1 10/10/1
f 13/13/1 15/15/3 10/10/1
f 11/11/4 10/10/1 15/15/3
f 15/15/3 16/16/15 11/11/4
f 12/12/15 11/11/4 16/16/15
f 16/17/15 17/18/16 12/19/15
f 18/20/16 12/19/15 17/18/16
f 12/19/13 19/21/17 7/22/12
f 19/21/17 12/19/13 18/20/18
f 7/22/5 19/21/16 8/23/5
f 20/24/16 8/23/5 19/21/16
f 17/25/16 21/26/19 18/27/16
f 22/28/20 18/27/16 21/26/19
f 21/26/19 23/29/21 22/28/20
f 24/30/21 22/28/20 23/29/21
f 23/29/21 25/31/22 24/30/21
f 26/32/22 24/30/21 25/31/22
f 18/27/18 27/33/23 19/34/17
f 27/33/23 18/27/18 22/28/24
f 22/28/24 28/35/25 27/33/23
f 28/35/25 22/28/24 24/30/26
f 24/30/26 29/36/27 28/35/25
f 29/36/27 24/30/26 26/32/28
f 19/34/16 27/33/19 20/37/16
f 30/38/19 20/37/16 27/33/19
f 27/33/19 28/35/21 30/38/19
f 31/39/21 30/38/19 28/35/21
f 28/35/21 29/36/22 31/39/21
f 32/40/22 31/39/21 29/36/22
f 25/41/22 33/42/29 26/43/22
f 34/44/29 26/43/22 33/42/29
f 26/43/28 35/45/30 29/46/27
f 35/45/30 26/43/28 34/44/31
f 29/46/22 35/45/29 32/47/22
f 36/48/29 32/47/22 35/45/29
f 33/49/29 37/50/32 34/51/29
f 38/52/32 34/51/29 37/50/32
f 37/50/32 39/53/33 38/52/32
f 40/54/33 38/52/32 39/53/33
f 39/53/33 41/55/34 40/54/33
f 41/55/34 39/53/33 42/56/34
f 34/51/31 43/57/35 35/58/30
f 43/57/35 34/51/31 38/52/36
f 38/52/36 44/59/37 43/57/35
f 44/59/37 38/52/36 40/54/38
f 40/54/38 45/60/39 44/59/37
f 45/60/39 40/54/38 41/55/40
f 35/58/29 43/57/32 36/61/29
f 46/62/41 36/61/29 43/57/32
f 43/57/32 44/59/33 46/62/41
f 47/63/33 46/62/41 44/59/33
f 44/59/33 48/64/34 47/63/33
f 48/64/34 44/59/33 45/60/34
f 42/65/34 49/66/42 41/67/34
f 50/68/42 41/67/34 49/66/42
f 41/67/40 51/69/43 45/70/39
f 51/69/43 41/67/40 50/68/44
f 45/70/34 51/69/42 48/71/34
f 52/72/42 48/71/34 51/69/42
f 49/73/42 53/74/45 50/75/42
f 54/76/45 50/75/42 53/74/45
f 53/74/45 55/77/46 54/76/45
f 56/78/46 54/76/45 55/77/46
f 55/77/46 57/79/47 56/78/46
f 57/79/47 55/77/46 58/80/47
f 50/75/44 59/81/48 51/82/43
f 59/81/48 50/75/44 54/76/49
f 54/76/49 60/83/50 59/81/48
f 60/83/50 54/76/49 56/78/51
f 56/78/51 61/84/52 60/83/50
f 61/84/52 56/78/51 57/79/53
f 62/85/54 60/83/46 61/84/54
f 60/83/46 62/85/54 63/86/46
f 63/86/46 64/87/45 60/83/46
f 59/81/45 60/83/46 64/87/45
f 64/87/45 52/88/42 59/81/45
f 51/82/42 59/81/45 52/88/42
f 58/89/47 65/90/55 57/91/47
f 66/92/55 57/91/47 65/90/55
f 57/91/53 67/93/56 61/94/52
f 67/93/57 57/91/58 66/92/57
f 61/94/54 67/93/59 62/95/54
f 68/96/59 62/95/54 67/93/59
