# Blender v3.1.2 OBJ File: 'track.blend'
# www.blender.org
mtllib _0AD_tower_rolex_001_SUB1.mtl
o _0AD_tower_rolex_001_SUB1_Scene.016
v -14463.639648 -55594.929688 -134.512909
v -14460.730469 -55608.363281 -821.570129
v -14463.639648 -55594.929688 -821.570129
v -14460.730469 -55608.363281 -134.512909
v -14443.049805 -55590.472656 -821.570129
v -14440.139648 -55603.886719 -821.570129
v -14443.049805 -55590.472656 -134.512909
v -14440.139648 -55603.886719 -134.512909
v -14460.769531 -55604.742188 -765.886230
v -14942.559570 -55702.363281 -765.886414
v -14941.150391 -55708.851562 -765.886414
v -14462.169922 -55598.242188 -765.886230
v -14942.559570 -55702.363281 -760.893799
v -14462.169922 -55598.242188 -760.893494
v -14460.769531 -55604.742188 -760.893494
v -14941.150391 -55708.851562 -760.893799
v -14455.759766 -55602.101562 -821.239197
v -14927.599609 -55700.671875 -765.250183
v -14926.829102 -55704.187500 -765.250183
v -14456.520508 -55598.570312 -821.239197
v -14927.219727 -55700.593750 -763.318420
v -14456.149414 -55598.492188 -819.307312
v -14455.379883 -55602.007812 -819.307312
v -14926.459961 -55704.109375 -763.318420
vt 0.516657 3.180547
vt 0.516656 0.383379
vt 0.602885 0.383379
vt 0.602886 3.180547
vt 0.602886 3.180547
vt 0.602886 0.383379
vt 0.689116 3.180547
vt 0.689116 0.383379
vt 0.775345 0.465394
vt 0.775345 0.547409
vt 0.689116 0.465394
vt 0.689116 0.547409
vt 0.314904 3.180547
vt 0.314903 0.383379
vt 0.415779 0.383379
vt 0.415780 3.180547
vt 0.775345 0.383379
vt 0.775345 0.465394
vt 0.689116 0.383379
vt 0.689116 0.465394
vt 0.516656 0.383379
vt 0.415780 3.180547
vt 0.415780 0.383379
vt 0.516656 3.180547
vt 0.602885 0.383379
vt 0.602886 3.180547
vt 0.516657 3.180547
vt 0.516656 0.383379
vt 0.602886 0.383379
vt 0.689116 3.180547
vt 0.602886 3.180547
vt 0.689116 0.383379
vt 0.689116 0.547409
vt 0.689116 0.465394
vt 0.775345 0.547409
vt 0.775345 0.465394
vt 0.415779 0.383379
vt 0.415780 3.180547
vt 0.314904 3.180547
vt 0.314903 0.383379
vt 0.689116 0.465394
vt 0.689116 0.383379
vt 0.775345 0.465394
vt 0.775345 0.383379
vt 0.415780 0.383379
vt 0.516656 3.180547
vt 0.415780 3.180547
vt 0.516656 0.383379
vt 0.602885 0.383379
vt 0.602886 3.180547
vt 0.516657 3.180547
vt 0.516656 0.383379
vt 0.602886 0.383379
vt 0.689116 3.180547
vt 0.602886 3.180547
vt 0.689116 0.383379
vt 0.775345 0.547409
vt 0.689116 0.547409
vt 0.689116 0.465394
vt 0.775345 0.465394
vt 0.314904 3.180547
vt 0.415779 0.383379
vt 0.415780 3.180547
vt 0.314903 0.383379
vt 0.775345 0.465394
vt 0.689116 0.465394
vt 0.689116 0.383379
vt 0.775345 0.383379
vt 0.516656 3.180547
vt 0.415780 0.383379
vt 0.516656 0.383379
vt 0.415780 3.180547
vn -0.9774 -0.2116 0.0000
vn 0.9773 0.2121 0.0000
vn 0.9773 0.2119 0.0000
vn 0.0000 0.0000 1.0000
vn -0.2116 0.9774 0.0000
vn 0.0000 0.0000 -1.0000
vn 0.2125 -0.9772 0.0000
vn 0.2116 -0.9774 -0.0000
vn -0.9771 -0.2126 0.0000
vn -0.9772 -0.2124 0.0000
vn -0.9772 -0.2123 0.0000
vn -0.9772 -0.2121 0.0000
vn -0.2118 0.9773 0.0000
vn 0.9774 0.2114 0.0000
vn 0.9774 0.2115 -0.0000
vn 0.2118 -0.9773 0.0000
vn -0.1129 -0.0244 -0.9933
vn -0.1127 -0.0246 -0.9933
vn 0.1128 0.0244 0.9933
vn 0.1126 0.0247 0.9933
vn 0.1126 0.0244 0.9933
vn -0.9583 -0.2081 0.1960
vn -0.9584 -0.2078 0.1956
vn -0.9583 -0.2080 0.1958
vn -0.9582 -0.2081 0.1964
vn -0.2114 0.9774 -0.0020
vn -0.2119 0.9773 0.0033
vn -0.2114 0.9774 -0.0021
vn 0.9583 0.2078 -0.1962
vn 0.9586 0.2073 -0.1951
vn 0.9585 0.2075 -0.1956
vn 0.9581 0.2081 -0.1968
vn 0.2115 -0.9774 -0.0002
vn 0.2119 -0.9773 -0.0011
usemtl ZinkMat
s 1
f 1/1/1 3/2/1 2/3/1
f 2/3/1 4/4/1 1/1/1
f 5/5/2 7/6/3 6/7/2
f 6/7/2 7/6/3 8/8/3
f 7/9/4 1/10/4 8/11/4
f 1/10/4 4/12/4 8/11/4
f 7/13/5 5/14/5 3/15/5
f 3/15/5 1/16/5 7/13/5
f 6/17/6 2/18/6 5/19/6
f 2/18/6 3/20/6 5/19/6
f 6/21/7 4/22/8 2/23/7
f 4/22/8 6/21/7 8/24/8
f 9/25/6 11/26/6 10/27/6
f 9/25/6 10/27/6 12/28/6
f 13/29/4 15/30/4 14/31/4
f 15/30/4 13/29/4 16/32/4
f 11/33/9 16/34/10 10/35/11
f 10/35/11 16/34/10 13/36/12
f 12/37/13 10/38/13 13/39/13
f 12/37/13 13/39/13 14/40/13
f 12/41/14 14/42/15 9/43/15
f 9/43/15 14/42/15 15/44/14
f 9/45/16 16/46/16 11/47/16
f 16/46/16 9/45/16 15/48/16
f 17/49/17 19/50/18 18/51/18
f 17/49/17 18/51/18 20/52/17
f 21/53/19 23/54/20 22/55/21
f 23/54/20 21/53/19 24/56/19
f 18/57/22 19/58/23 24/59/24
f 18/57/22 24/59/24 21/60/25
f 21/61/26 20/62/27 18/63/28
f 20/62/27 21/61/26 22/64/27
f 17/65/29 20/66/30 22/67/31
f 17/65/29 22/67/31 23/68/32
f 24/69/33 17/70/34 23/71/34
f 17/70/34 24/69/33 19/72/33
