# Blender v3.1.2 OBJ File: 'track.blend'
# www.blender.org
mtllib _0AD_emirates_001.mtl
o _0AD_emirates_001_Scene.002
v -28475.519531 -27447.242188 -1145.351929
v -28977.621094 -27551.941406 -781.582520
v -28475.519531 -27447.242188 -778.865906
v -28977.621094 -27551.941406 -1148.068970
v -29461.708984 -27652.880859 -784.893005
v -29461.708984 -27652.880859 -1151.379028
v -29952.539062 -27755.230469 -787.392883
v -29952.539062 -27755.230469 -1153.879028
v -30118.830078 -27789.898438 -787.393005
v -30118.830078 -27789.898438 -1153.879028
v -28309.240234 -27412.570312 -1145.351929
v -28309.240234 -27412.570312 -778.865845
v -28477.339844 -27438.541016 -1145.351929
v -28477.339844 -27438.541016 -778.865906
v -28979.439453 -27543.240234 -781.582520
v -28979.439453 -27543.240234 -1148.068970
v -29463.519531 -27644.179688 -784.893005
v -29463.519531 -27644.179688 -1151.379028
v -29954.361328 -27746.529297 -787.392883
v -29954.361328 -27746.529297 -1153.879028
v -30120.638672 -27781.201172 -1153.879028
v -30120.638672 -27781.201172 -787.393005
v -28311.050781 -27403.869141 -1145.351929
v -28311.058594 -27403.869141 -778.865845
vt 0.000527 1.860080
vt 0.000527 1.828092
vt 0.042575 1.828092
vt 0.042575 1.860080
vt 0.083176 1.828092
vt 0.083176 1.860080
vt 0.124354 1.828091
vt 0.124354 1.860080
vt 0.116587 1.828091
vt 0.116587 1.860080
vt 0.067531 1.857587
vt 0.035543 1.868373
vt 0.067531 1.868374
vt 0.035543 1.857587
vt 0.000527 1.860080
vt 0.042575 1.828092
vt 0.000527 1.828092
vt 0.042575 1.860080
vt 0.083176 1.828092
vt 0.083176 1.860080
vt 0.124354 1.828091
vt 0.124354 1.860080
vt 0.116587 1.860080
vt 0.116587 1.828091
vt 0.067531 1.868374
vt 0.035543 1.868373
vt 0.067531 1.857587
vt 0.035543 1.857587
vn 0.2041 -0.9789 0.0000
vn 0.2041 -0.9790 0.0000
vn -0.2041 0.9789 0.0000
vn -0.0000 0.0000 -1.0000
vn 0.0026 0.0005 -1.0000
vn -0.0026 -0.0005 1.0000
vn -0.0000 -0.0000 1.0000
vn -0.0024 -0.0005 1.0000
vn -0.0057 -0.0012 1.0000
vn -0.0059 -0.0012 1.0000
vn 0.0024 0.0005 -1.0000
vn 0.0057 0.0012 -1.0000
vn 0.0059 0.0012 -1.0000
vn -0.9789 -0.2044 0.0000
vn -0.9790 -0.2040 -0.0000
vn -0.9788 -0.2046 0.0000
vn -0.9790 -0.2039 0.0000
vn 0.9788 0.2048 0.0000
vn 0.9791 0.2035 0.0000
vn 0.9790 0.2039 0.0000
usemtl EnvironmentMat
s 1
f 1/1/1 3/2/1 2/3/1
f 4/4/1 1/1/1 2/3/1
f 4/4/1 2/3/1 5/5/1
f 6/6/1 4/4/1 5/5/1
f 6/6/1 5/5/1 7/7/1
f 8/8/1 6/6/1 7/7/1
f 9/9/2 10/10/2 8/8/1
f 8/8/1 7/7/1 9/9/2
f 11/11/1 3/12/1 1/13/1
f 3/12/1 11/11/1 12/14/1
f 13/15/3 15/16/3 14/17/3
f 16/18/3 15/16/3 13/15/3
f 16/18/3 17/19/3 15/16/3
f 18/20/3 17/19/3 16/18/3
f 18/20/3 19/21/3 17/19/3
f 20/22/3 19/21/3 18/20/3
f 21/23/3 22/24/3 20/22/3
f 20/22/3 22/24/3 19/21/3
f 13/25/3 14/26/3 23/27/3
f 23/27/3 14/26/3 24/28/3
f 11/11/4 1/13/5 23/27/4
f 23/27/4 1/13/5 13/25/5
f 3/12/6 24/28/7 14/26/6
f 24/28/7 3/12/6 12/14/7
f 9/9/7 19/21/8 22/24/7
f 19/21/8 9/9/7 7/7/8
f 7/7/8 17/19/9 19/21/8
f 17/19/9 7/7/8 5/5/9
f 5/5/9 15/16/10 17/19/9
f 15/16/10 5/5/9 2/3/10
f 2/3/10 14/17/6 15/16/10
f 14/17/6 2/3/10 3/2/6
f 20/22/11 10/10/4 21/23/4
f 8/8/11 10/10/4 20/22/11
f 18/20/12 8/8/11 20/22/11
f 6/6/12 8/8/11 18/20/12
f 16/18/13 6/6/12 18/20/12
f 4/4/13 6/6/12 16/18/13
f 13/15/5 4/4/13 16/18/13
f 1/1/5 4/4/13 13/15/5
f 10/10/14 9/9/15 21/23/16
f 21/23/16 9/9/15 22/24/17
f 23/27/18 24/28/19 11/11/18
f 11/11/18 24/28/19 12/14/20
