# Blender v3.4.1 OBJ File: 'track.blend'
# www.blender.org
mtllib _0BUILDING_COMMENTATORBOX_SUB1_Scene.027.mtl
o _0BUILDING_COMMENTATORBOX_SUB1_Scene.027
v 141.763000 156.580780 -16.453375
v 141.763000 156.580780 -16.380165
v 125.473793 191.513107 -16.380159
v 125.473793 191.513107 -16.453369
v 137.045395 154.380997 -16.453375
v 120.756195 189.313293 -16.453369
v 120.756195 189.313293 -16.380159
v 137.045395 154.380997 -16.380165
v 123.114998 190.413177 -16.453369
v 123.114998 190.413177 -16.380159
v 139.404205 155.480896 -16.453375
v 139.404205 155.480896 -16.380165
v 140.928101 156.988388 -16.453375
v 139.098999 156.135498 -16.453375
v 137.269806 155.282501 -16.453375
v 125.205589 190.705505 -16.453369
v 121.547302 188.999481 -16.453369
v 123.376503 189.852493 -16.453369
vt 8.896910 5.049400
vt -4.191162 -1.615432
vt 8.907955 5.027621
vt -4.202207 -1.593652
vt -4.213253 -1.571872
vt 8.896910 5.049400
vt 8.885864 5.071180
vt -4.202208 -1.593651
vt -2.513193 -0.764471
vt -3.341132 -1.211732
vt -2.502148 -0.786252
vt -3.352177 -1.189952
vt -4.180117 -1.637212
vt -2.502147 -0.786252
vt -3.330086 -1.233511
vt -2.491102 -0.808031
vt -3.341132 -1.211732
vt -4.169071 -1.658991
vt -4.180117 -1.637212
vt 8.552249 5.120563
vt 8.493187 5.845478
vt 8.247744 5.721004
vt 7.943237 6.321445
vt 8.885862 5.071180
vt 8.100512 6.619776
vt -4.213254 -1.571870
vt -4.998604 -0.023275
vt -4.055978 -1.273539
vt -4.664990 -0.072658
vt -4.605929 -0.797573
vt -4.360484 -0.673098
vn 0.9063 0.4226 0.0000
vn -0.9063 -0.4226 0.0000
vn -0.4226 0.9063 0.0000
vn 0.4226 -0.9063 0.0000
vn -0.0000 0.0000 -1.0000
usemtl ZinkMat
s 1
f 1/1/1 3/2/1 2/3/1
f 3/2/1 1/1/1 4/4/1
f 5/5/2 7/6/2 6/7/2
f 7/6/2 5/5/2 8/8/2
f 7/9/3 9/10/3 6/11/3
f 9/10/3 7/9/3 10/12/3
f 10/12/3 4/13/3 9/10/3
f 4/13/3 10/12/3 3/2/3
f 2/14/4 11/15/4 1/16/4
f 11/15/4 2/14/4 12/17/4
f 12/17/4 5/18/4 11/15/4
f 5/18/4 12/17/4 8/19/4
f 13/20/5 11/21/5 14/22/5
f 11/21/5 15/23/5 14/22/5
f 11/21/5 13/20/5 1/24/5
f 11/21/5 5/25/5 15/23/5
f 4/26/5 1/24/5 13/20/5
f 6/27/5 15/23/5 5/25/5
f 4/26/5 13/20/5 16/28/5
f 15/23/5 6/27/5 17/29/5
f 16/28/5 9/30/5 4/26/5
f 9/30/5 17/29/5 6/27/5
f 16/28/5 18/31/5 9/30/5
f 17/29/5 9/30/5 18/31/5
