# Blender v3.1.2 OBJ File: 'track.blend'
# www.blender.org
mtllib _0BUILDING_CORNER13_SUB1.mtl
o _0BUILDING_CORNER13_SUB1_Scene.030
v 126.293304 -62588.453125 -602.545044
v 102.005806 -62597.246094 -780.564697
v 109.449806 -62561.902344 -780.564697
v 122.638405 -62601.867188 -602.545044
v -244.163986 -64145.140625 -780.558105
v -222.061890 -64144.218750 -602.538330
v -261.517609 -64321.558594 -602.538330
v -283.916321 -64322.496094 -780.558105
v -179.920395 -64991.089844 -780.580627
v -367.319000 -64949.199219 -780.580627
v -362.469604 -64927.507812 -602.560791
v -175.070999 -64969.398438 -602.560791
v -373.144287 -64720.617188 -780.581909
v -350.096619 -64719.648438 -602.562073
v -387.727997 -64887.902344 -602.562073
v -409.448486 -64883.050781 -780.581909
v 13.805389 -62994.203125 -780.499817
v 33.991413 -62993.359375 -602.479980
v -5.464506 -63170.695312 -602.479980
v -25.947189 -63171.558594 -780.499817
v -115.179298 -63569.671875 -780.529053
v -94.035240 -63568.792969 -602.509216
v -133.490997 -63746.128906 -602.509216
v -154.931702 -63747.027344 -780.529053
v -330.153900 -64528.789062 -780.577515
v -307.413208 -64527.839844 -602.557678
v -346.868805 -64705.183594 -602.557678
v -369.906097 -64706.152344 -780.577515
v -201.169113 -63953.320312 -780.548279
v -179.386398 -63952.410156 -602.528625
v -218.842102 -64129.750000 -602.528625
v -240.921494 -64130.683594 -780.548401
v -158.174103 -63761.492188 -780.538696
v -136.710800 -63760.601562 -602.518921
v -176.166611 -63937.937500 -602.518921
v -197.926498 -63938.847656 -780.538696
v -72.184372 -63377.851562 -780.519226
v -51.359703 -63376.976562 -602.499390
v -90.815536 -63554.320312 -602.499512
v -111.936905 -63555.210938 -780.519226
v 56.800270 -62802.367188 -780.489990
v 76.666985 -62801.539062 -602.470276
v 37.210941 -62978.886719 -602.470276
v 17.047640 -62979.742188 -780.490112
v -287.158997 -64336.968750 -780.567810
v -264.737518 -64336.027344 -602.547974
v -304.193298 -64513.371094 -602.547974
v -326.911224 -64514.320312 -780.567810
v 98.893089 -62611.710938 -780.508911
v 119.049095 -62616.218750 -602.489075
v 79.926201 -62787.097656 -602.489075
v 60.013683 -62787.921875 -780.508911
v -143.948700 -64999.128906 -780.580627
v -165.463394 -64994.316406 -780.580627
v -160.613998 -64972.632812 -602.560791
v -139.099304 -64977.441406 -602.560791
v 420.429291 -62629.054688 -780.580383
v 449.564789 -62635.558594 -780.580383
v 444.715393 -62657.250000 -602.560608
v 415.579895 -62650.738281 -602.560608
v 159.147293 -62570.640625 -780.580383
v 406.989014 -62626.039062 -780.580383
v 402.139709 -62647.742188 -602.560608
v 154.297897 -62592.328125 -602.560608
v -381.774902 -64945.972656 -780.580688
v -419.079224 -64937.621094 -780.580688
v -392.536896 -64920.781250 -602.560913
v -376.925293 -64924.265625 -602.560913
v 144.690201 -62567.406250 -780.580383
v 139.840805 -62589.097656 -602.560608
v 127.448105 -62586.328125 -602.560608
v 110.604599 -62559.777344 -780.580383
v -29.189491 -63186.023438 -780.509521
v -8.684111 -63185.167969 -602.489807
v -48.140049 -63362.511719 -602.489807
v -68.942024 -63363.390625 -780.509521
v -412.678619 -64897.496094 -780.580933
v -390.966095 -64902.363281 -602.561096
v -394.557007 -64918.371094 -602.561096
v -421.099274 -64935.210938 -780.580933
v 126.293304 -62588.453125 -202.544998
v 102.005806 -62597.246094 -380.564697
v 109.449806 -62561.902344 -380.564697
v 122.638405 -62601.867188 -202.544998
v -244.163986 -64145.140625 -380.558105
v -222.061890 -64144.218750 -202.538300
v -261.517609 -64321.558594 -202.538300
v -283.916321 -64322.496094 -380.558105
v -373.144287 -64720.617188 -380.581818
v -350.096619 -64719.648438 -202.562088
v -387.727997 -64887.902344 -202.562088
v -409.448486 -64883.050781 -380.581909
v 13.805370 -62994.203125 -380.499786
v 33.991413 -62993.359375 -202.480011
v -5.464506 -63170.695312 -202.480011
v -25.947189 -63171.558594 -380.499786
v -115.179298 -63569.671875 -380.528992
v -94.035240 -63568.792969 -202.509186
v -133.490997 -63746.128906 -202.509186
v -154.931702 -63747.027344 -380.528992
v -330.153900 -64528.789062 -380.577484
v -307.413208 -64527.839844 -202.557709
v -346.868805 -64705.183594 -202.557709
v -369.906097 -64706.152344 -380.577484
v -201.169113 -63953.320312 -380.548401
v -179.386398 -63952.410156 -202.528595
v -218.842102 -64129.750000 -202.528595
v -240.921494 -64130.683594 -380.548401
v -158.174103 -63761.492188 -380.538696
v -136.710800 -63760.601562 -202.518890
v -176.166611 -63937.937500 -202.518890
v -197.926498 -63938.847656 -380.538696
v -72.184372 -63377.851562 -380.519196
v -51.359703 -63376.976562 -202.499512
v -90.815536 -63554.320312 -202.499512
v -111.936905 -63555.210938 -380.519196
v 56.800251 -62802.367188 -380.489990
v 76.666985 -62801.539062 -202.470306
v 37.210941 -62978.886719 -202.470306
v 17.047619 -62979.742188 -380.489990
v -287.158997 -64336.968750 -380.567780
v -264.737518 -64336.027344 -202.548004
v -304.193298 -64513.371094 -202.548004
v -326.911224 -64514.320312 -380.567780
v 98.893066 -62611.710938 -380.508911
v 119.049095 -62616.218750 -202.489090
v 79.926201 -62787.097656 -202.489212
v 60.013653 -62787.921875 -380.508911
v 420.429291 -62629.054688 -380.580414
v 449.564789 -62635.558594 -380.580414
v 444.715393 -62657.250000 -202.560593
v 415.579895 -62650.738281 -202.560593
v 159.147293 -62570.640625 -380.580414
v 406.989014 -62626.039062 -380.580414
v 402.139709 -62647.742188 -202.560593
v 154.297897 -62592.328125 -202.560593
v -381.774902 -64945.972656 -380.580719
v -419.079224 -64937.621094 -380.580719
v -392.536896 -64920.781250 -202.560898
v -376.925293 -64924.265625 -202.560898
v 144.690094 -62567.406250 -380.580414
v 139.840805 -62589.097656 -202.560593
v 127.448105 -62586.328125 -202.560593
v 110.604599 -62559.777344 -380.580414
v -29.189491 -63186.023438 -380.509491
v -8.684111 -63185.167969 -202.489807
v -48.140049 -63362.511719 -202.489807
v -68.942024 -63363.390625 -380.509491
v -412.678619 -64897.496094 -380.580902
v -390.966095 -64902.363281 -202.561096
v -394.557007 -64918.371094 -202.561096
v -421.099274 -64935.210938 -380.580902
v 795.277710 -63516.136719 -1276.479004
v 784.586975 -63563.957031 -1276.479004
v 768.551697 -63538.703125 -1032.791016
v 774.625793 -63511.515625 -1032.791016
v -23.287491 -63149.406250 -1276.479004
v -2.635622 -63154.023438 -1032.791016
v -38.592239 -63314.867188 -1032.791016
v -59.244110 -63310.246094 -1276.479004
v 711.879700 -63552.128906 -1276.479004
v 716.496399 -63531.480469 -1032.791016
v 763.301880 -63541.937500 -1032.791016
v 779.337097 -63567.210938 -1276.479004
v 180.636902 -62574.265625 -1276.479004
v 176.020203 -62594.921875 -1032.791016
v 126.928307 -62583.949219 -1032.791016
v 110.892998 -62558.679688 -1276.479004
v -62.408211 -63324.406250 -1276.479004
v -41.756340 -63329.023438 -1032.791016
v -48.417137 -63358.820312 -1032.791016
v -73.685684 -63374.847656 -1276.479004
v 697.725464 -63548.960938 -1276.479004
v 536.880127 -63513.011719 -1276.479004
v 541.496826 -63492.351562 -1032.791016
v 702.342163 -63528.308594 -1032.791016
v 194.791107 -62577.441406 -1276.479004
v 355.636414 -62613.390625 -1276.479004
v 351.019684 -62634.039062 -1032.791016
v 190.174301 -62598.078125 -1032.791016
v 798.441772 -63501.988281 -1276.479004
v 777.789856 -63497.371094 -1032.791016
v 813.746460 -63336.515625 -1032.791016
v 834.398438 -63341.136719 -1276.479004
v 11.881730 -63395.640625 -1276.479004
v 16.498400 -63374.988281 -1032.791016
v 177.343796 -63410.949219 -1032.791016
v 172.727203 -63431.597656 -1276.479004
v 94.074753 -62624.406250 -1276.479004
v 114.726700 -62629.027344 -1032.791016
v 78.770020 -62789.867188 -1032.791016
v 58.118130 -62785.246094 -1276.479004
v 880.634766 -62730.750000 -1276.479004
v 876.018127 -62751.398438 -1032.791016
v 715.172729 -62715.449219 -1032.791016
v 719.789429 -62694.789062 -1276.479004
v 915.804016 -62976.988281 -1276.479004
v 895.152100 -62972.371094 -1032.791016
v 951.760681 -62816.136719 -1276.479004
v 931.108643 -62811.515625 -1032.791016
v 97.238899 -62610.246094 -1276.479004
v 108.562897 -62559.601562 -1276.479004
v 124.598099 -62584.871094 -1032.791016
v 117.890800 -62614.867188 -1032.791016
v 54.954029 -62799.406250 -1276.479004
v 75.605927 -62804.027344 -1032.791016
v 39.649269 -62964.867188 -1032.791016
v 18.997379 -62960.246094 -1276.479004
v 15.833280 -62974.406250 -1276.479004
v 36.485172 -62979.023438 -1032.791016
v 0.528526 -63139.867188 -1032.791016
v -20.123390 -63135.246094 -1276.479004
v 876.683228 -63151.988281 -1276.479004
v 856.031433 -63147.371094 -1032.791016
v 912.639893 -62991.136719 -1276.479004
v 891.987976 -62986.515625 -1032.791016
v 954.924805 -62801.988281 -1276.479004
v 934.272888 -62797.382812 -1032.791016
v 940.836426 -62768.011719 -1032.791016
v 966.105103 -62751.976562 -1276.479004
v 837.562561 -63326.988281 -1276.479004
v 816.910522 -63322.371094 -1032.791016
v 852.867249 -63161.515625 -1032.791016
v 873.519165 -63166.136719 -1276.479004
v 894.788635 -62733.917969 -1276.479004
v 961.738403 -62748.875000 -1276.479004
v 936.469849 -62764.917969 -1032.791016
v 890.171997 -62754.570312 -1032.791016
v 705.635376 -62691.632812 -1276.479004
v 701.018738 -62712.281250 -1032.791016
v 540.173218 -62676.320312 -1032.791016
v 544.789917 -62655.683594 -1276.479004
v 369.790497 -62616.554688 -1276.479004
v 530.635864 -62652.507812 -1276.479004
v 526.019165 -62673.164062 -1032.791016
v 365.173798 -62637.207031 -1032.791016
v -2.272415 -63392.480469 -1276.479004
v -68.670990 -63377.644531 -1276.479004
v -43.402431 -63361.601562 -1032.791016
v 2.344227 -63371.832031 -1032.791016
v 186.881195 -63434.773438 -1276.479004
v 191.497894 -63414.109375 -1032.791016
v 352.343292 -63450.066406 -1032.791016
v 347.726593 -63470.722656 -1276.479004
v 522.726135 -63509.839844 -1276.479004
v 361.880707 -63473.875000 -1276.479004
v 366.497314 -63453.230469 -1032.791016
v 527.342712 -63489.191406 -1032.791016
v -203.767487 -64979.058594 -348.575592
v -231.574707 -64972.851562 -348.575592
v -231.574707 -64972.851562 -249.184204
v -203.767487 -64979.058594 -249.184204
v -263.648621 -64965.667969 -348.575592
v -291.455780 -64959.460938 -348.575592
v -291.455780 -64959.460938 -249.184204
v -263.648499 -64965.667969 -249.184204
vt 0.814106 1.896347
vt 0.814106 1.896898
vt 0.814106 1.896898
vt 0.814106 1.896347
vt 0.814106 1.896898
vt 0.814106 1.896347
vt 0.814106 1.896347
vt 0.814106 1.896898
vt 0.814106 1.896898
vt 0.814106 1.896347
vt 0.814106 1.896898
vt 0.814106 1.896347
vt 0.814106 1.896898
vt 0.814106 1.896347
vt 0.814106 1.896347
vt 0.814106 1.896898
vt 0.814106 1.896898
vt 0.814106 1.896347
vt 0.814106 1.896347
vt 0.814106 1.896898
vt 0.814106 1.896898
vt 0.814106 1.896347
vt 0.814106 1.896347
vt 0.814106 1.896898
vt 0.814106 1.896898
vt 0.814106 1.896347
vt 0.814106 1.896347
vt 0.814106 1.896898
vt 0.814106 1.896898
vt 0.814106 1.896347
vt 0.814106 1.896347
vt 0.814106 1.896898
vt 0.814106 1.896898
vt 0.814106 1.896347
vt 0.814106 1.896347
vt 0.814106 1.896898
vt 0.814106 1.896898
vt 0.814106 1.896347
vt 0.814106 1.896347
vt 0.814106 1.896898
vt 0.814106 1.896898
vt 0.814106 1.896347
vt 0.814106 1.896347
vt 0.814106 1.896898
vt 0.814106 1.896898
vt 0.814106 1.896347
vt 0.814106 1.896347
vt 0.814106 1.896898
vt 0.814106 1.896898
vt 0.814106 1.896347
vt 0.814106 1.896347
vt 0.814106 1.896898
vt 0.814106 1.896898
vt 0.814106 1.896347
vt 0.814106 1.896898
vt 0.814106 1.896347
vt 0.814106 1.896898
vt 0.814106 1.896347
vt 0.814106 1.896898
vt 0.814106 1.896347
vt 0.814106 1.896898
vt 0.814106 1.896347
vt 0.814106 1.896898
vt 0.814106 1.896347
vt 0.814106 1.896898
vt 0.814106 1.896347
vt 0.814106 1.896898
vt 0.814106 1.896347
vt 0.814106 1.896898
vt 0.814106 1.896347
vt 0.814106 1.896347
vt 0.814106 1.896898
vt 0.814106 1.896898
vt 0.814106 1.896347
vt 0.814106 1.896347
vt 0.814106 1.896898
vt 0.814106 1.896898
vt 0.814106 1.896347
vt 0.814106 1.896347
vt 0.814106 1.896898
vt 0.814106 1.896352
vt 0.814106 1.896903
vt 0.814106 1.896903
vt 0.814106 1.896352
vt 0.814106 1.896903
vt 0.814106 1.896352
vt 0.814106 1.896352
vt 0.814106 1.896903
vt 0.814106 1.896903
vt 0.814106 1.896352
vt 0.814106 1.896352
vt 0.814106 1.896903
vt 0.814106 1.896902
vt 0.814106 1.896352
vt 0.814106 1.896352
vt 0.814106 1.896902
vt 0.814106 1.896902
vt 0.814106 1.896352
vt 0.814106 1.896352
vt 0.814106 1.896902
vt 0.814106 1.896903
vt 0.814106 1.896352
vt 0.814106 1.896352
vt 0.814106 1.896903
vt 0.814106 1.896903
vt 0.814106 1.896352
vt 0.814106 1.896352
vt 0.814106 1.896903
vt 0.814106 1.896902
vt 0.814106 1.896352
vt 0.814106 1.896352
vt 0.814106 1.896902
vt 0.814106 1.896902
vt 0.814106 1.896352
vt 0.814106 1.896352
vt 0.814106 1.896902
vt 0.814106 1.896902
vt 0.814106 1.896352
vt 0.814106 1.896352
vt 0.814106 1.896902
vt 0.814106 1.896903
vt 0.814106 1.896352
vt 0.814106 1.896352
vt 0.814106 1.896903
vt 0.814106 1.896902
vt 0.814106 1.896352
vt 0.814106 1.896352
vt 0.814106 1.896902
vt 0.814106 1.896903
vt 0.814106 1.896352
vt 0.814106 1.896903
vt 0.814106 1.896352
vt 0.814106 1.896903
vt 0.814106 1.896352
vt 0.814106 1.896903
vt 0.814106 1.896352
vt 0.814106 1.896903
vt 0.814106 1.896352
vt 0.814106 1.896903
vt 0.814106 1.896352
vt 0.814106 1.896903
vt 0.814106 1.896352
vt 0.814106 1.896352
vt 0.814106 1.896903
vt 0.814106 1.896902
vt 0.814106 1.896352
vt 0.814106 1.896352
vt 0.814106 1.896902
vt 0.814106 1.896903
vt 0.814106 1.896352
vt 0.814106 1.896352
vt 0.814106 1.896903
vt 0.814107 1.896880
vt 0.814107 1.896355
vt 0.814107 1.896880
vt 0.814107 1.896355
vt 0.814107 1.896880
vt 0.814107 1.896355
vt 0.814107 1.896355
vt 0.814107 1.896880
vt 0.814107 1.896880
vt 0.814107 1.896355
vt 0.814107 1.896355
vt 0.814107 1.896880
vt 0.814107 1.896880
vt 0.814107 1.896355
vt 0.814107 1.896355
vt 0.814107 1.896880
vt 0.814107 1.896880
vt 0.814107 1.896355
vt 0.814107 1.896355
vt 0.814107 1.896880
vt 0.814107 1.896880
vt 0.814107 1.896355
vt 0.814107 1.896880
vt 0.814107 1.896355
vt 0.814107 1.896880
vt 0.814107 1.896355
vt 0.814107 1.896880
vt 0.814107 1.896355
vt 0.814107 1.896880
vt 0.814107 1.896355
vt 0.814107 1.896355
vt 0.814107 1.896880
vt 0.814107 1.896880
vt 0.814107 1.896355
vt 0.814107 1.896355
vt 0.814107 1.896880
vt 0.814107 1.896880
vt 0.814107 1.896355
vt 0.814107 1.896355
vt 0.814107 1.896880
vt 0.814107 1.896880
vt 0.814107 1.896355
vt 0.814107 1.896355
vt 0.814107 1.896880
vt 0.814107 1.896880
vt 0.814107 1.896880
vt 0.814107 1.896355
vt 0.814107 1.896355
vt 0.814107 1.896880
vt 0.814107 1.896355
vt 0.814107 1.896880
vt 0.814107 1.896355
vt 0.814107 1.896880
vt 0.814107 1.896355
vt 0.814107 1.896355
vt 0.814107 1.896880
vt 0.814107 1.896880
vt 0.814107 1.896355
vt 0.814107 1.896355
vt 0.814107 1.896880
vt 0.814107 1.896880
vt 0.814107 1.896880
vt 0.814107 1.896355
vt 0.814107 1.896355
vt 0.814107 1.896880
vt 0.814107 1.896355
vt 0.814107 1.896355
vt 0.814107 1.896880
vt 0.814107 1.896880
vt 0.814107 1.896355
vt 0.814107 1.896355
vt 0.814107 1.896880
vt 0.814107 1.896880
vt 0.814107 1.896355
vt 0.814107 1.896880
vt 0.814107 1.896355
vt 0.814107 1.896880
vt 0.814107 1.896355
vt 0.814107 1.896355
vt 0.814107 1.896880
vt 0.814107 1.896880
vt 0.814107 1.896355
vt 0.814107 1.896880
vt 0.814107 1.896355
vt 0.814107 1.896880
vt 0.814107 1.896355
vt 0.814107 1.896880
vt 0.814107 1.896355
vt 0.814107 1.896880
vt 0.814107 1.896355
vt 0.814107 1.896355
vt 0.814107 1.896880
vt 0.814107 1.896880
vt 0.814107 1.896355
vt 0.814107 1.896880
vt 0.814107 1.896355
vt 0.814106 1.896804
vt 0.814106 1.896496
vt 0.814106 1.896804
vt 0.814106 1.896496
vt 0.814106 1.896804
vt 0.814106 1.896496
vt 0.814106 1.896804
vt 0.814106 1.896496
vn -0.9679 0.2201 0.1210
vn -0.9679 0.2203 0.1211
vn -0.9679 0.2202 0.1211
vn -0.9680 0.2201 0.1210
vn -0.9689 0.2164 0.1200
vn -0.9690 0.2163 0.1198
vn -0.9689 0.2165 0.1201
vn -0.2165 -0.9684 0.1239
vn -0.2165 -0.9684 0.1238
vn -0.9684 0.2165 0.1241
vn -0.9683 0.2166 0.1242
vn -0.9684 0.2164 0.1241
vn -0.9701 0.2166 0.1098
vn -0.9701 0.2166 0.1097
vn -0.9695 0.2165 0.1149
vn -0.9695 0.2165 0.1148
vn -0.9685 0.2163 0.1234
vn -0.9685 0.2163 0.1233
vn -0.9691 0.2164 0.1183
vn -0.9691 0.2163 0.1182
vn -0.9693 0.2165 0.1166
vn -0.9693 0.2165 0.1165
vn -0.9697 0.2165 0.1132
vn -0.9697 0.2165 0.1131
vn -0.9696 0.2167 0.1133
vn -0.9703 0.2166 0.1081
vn -0.9702 0.2167 0.1081
vn -0.9703 0.2167 0.1080
vn -0.9687 0.2163 0.1217
vn -0.9687 0.2163 0.1216
vn -0.9696 0.2179 0.1114
vn -0.2166 -0.9684 0.1238
vn -0.2164 -0.9684 0.1238
vn 0.2162 0.9685 0.1239
vn 0.2164 0.9684 0.1238
vn 0.2165 0.9684 0.1239
vn 0.2165 0.9684 0.1240
vn -0.2167 -0.9683 0.1239
vn -0.2162 -0.9684 0.1240
vn -0.2168 -0.9683 0.1239
vn 0.2167 0.9683 0.1239
vn 0.2169 0.9683 0.1238
vn 0.2170 0.9683 0.1238
vn -0.9699 0.2166 0.1115
vn -0.9699 0.2166 0.1114
vn -0.9684 0.2163 0.1239
vn -0.9683 0.2167 0.1240
vn -0.9683 0.2169 0.1240
vn -0.9684 0.2162 0.1239
vn -0.9690 0.2162 0.1198
vn -0.9691 0.2164 0.1182
vn -0.9703 0.2166 0.1079
vn -0.2166 -0.9684 0.1239
vn 0.2170 0.9683 0.1239
vn -0.9682 0.2171 0.1240
vn 0.9723 -0.2173 0.0865
vn 0.9723 -0.2172 0.0865
vn 0.9723 -0.2174 0.0865
vn -0.9723 0.2174 0.0865
vn -0.9723 0.2173 0.0865
vn -0.2174 -0.9723 0.0865
vn -0.2177 -0.9722 0.0865
vn -0.2175 -0.9722 0.0865
vn -0.2174 -0.9722 0.0865
vn 0.2173 0.9723 0.0866
vn -0.9722 0.2174 0.0865
vn -0.2173 -0.9723 0.0865
vn -0.2173 -0.9722 0.0866
vn 0.2173 0.9723 0.0865
vn 0.2174 0.9723 0.0864
vn -0.2174 -0.9722 0.0866
vn -0.2173 -0.9723 0.0864
vn 0.2174 0.9722 0.0865
vn 0.2172 0.9723 0.0865
vn 0.2174 0.9723 0.0865
vn -0.2172 -0.9723 0.0865
vn -0.2173 -0.9723 0.0866
vn -0.2183 -0.9759 -0.0000
vn -0.2179 -0.9760 0.0000
vn -0.2182 -0.9759 0.0000
usemtl Glass_Black
s 1
f 1/1/1 3/2/2 2/3/3
f 2/3/3 4/4/4 1/1/1
f 5/5/5 7/6/5 6/7/6
f 7/6/5 5/5/5 8/8/7
f 9/9/8 11/10/8 10/11/8
f 11/10/8 9/9/8 12/12/9
f 13/13/10 15/14/10 14/15/11
f 15/14/10 13/13/10 16/16/12
f 17/17/13 19/18/13 18/19/14
f 19/18/13 17/17/13 20/20/13
f 21/21/15 23/22/15 22/23/16
f 23/22/15 21/21/15 24/24/15
f 25/25/17 27/26/17 26/27/18
f 27/26/17 25/25/17 28/28/17
f 29/29/19 31/30/19 30/31/20
f 31/30/19 29/29/19 32/32/19
f 33/33/21 35/34/21 34/35/22
f 35/34/21 33/33/21 36/36/21
f 37/37/23 39/38/23 38/39/24
f 39/38/23 37/37/23 40/40/25
f 41/41/26 43/42/27 42/43/27
f 43/42/27 41/41/26 44/44/28
f 45/45/29 47/46/29 46/47/30
f 47/46/29 45/45/29 48/48/30
f 49/49/31 51/50/31 50/51/31
f 51/50/31 49/49/31 52/52/31
f 53/53/32 55/54/9 54/55/32
f 55/54/9 53/53/32 56/56/33
f 57/57/34 59/58/35 58/59/34
f 59/58/35 57/57/34 60/60/35
f 61/61/36 63/62/36 62/63/37
f 63/62/36 61/61/36 64/64/36
f 65/65/38 67/66/39 66/67/40
f 67/66/39 65/65/38 68/68/8
f 69/69/41 71/70/42 70/71/43
f 71/70/42 69/69/41 72/72/41
f 73/73/44 75/74/44 74/75/44
f 75/74/44 73/73/44 76/76/45
f 77/77/46 79/78/47 78/79/48
f 79/78/47 77/77/46 80/80/49
f 81/81/1 83/82/2 82/83/3
f 82/83/3 84/84/4 81/81/1
f 85/85/5 87/86/5 86/87/50
f 87/86/5 85/85/5 88/88/7
f 89/89/10 91/90/10 90/91/11
f 91/90/10 89/89/10 92/92/12
f 93/93/13 95/94/13 94/95/13
f 95/94/13 93/93/13 96/96/14
f 97/97/15 99/98/15 98/99/16
f 99/98/15 97/97/15 100/100/15
f 101/101/17 103/102/17 102/103/17
f 103/102/17 101/101/17 104/104/18
f 105/105/19 107/106/19 106/107/19
f 107/106/19 105/105/19 108/108/51
f 109/109/21 111/110/21 110/111/22
f 111/110/21 109/109/21 112/112/21
f 113/113/23 115/114/23 114/115/24
f 115/114/23 113/113/23 116/116/25
f 117/117/26 119/118/27 118/119/28
f 119/118/27 117/117/26 120/120/52
f 121/121/29 123/122/29 122/123/30
f 123/122/29 121/121/29 124/124/30
f 125/125/31 127/126/31 126/127/31
f 127/126/31 125/125/31 128/128/31
f 129/129/34 131/130/35 130/131/34
f 131/130/35 129/129/34 132/132/35
f 133/133/36 135/134/36 134/135/37
f 135/134/36 133/133/36 136/136/36
f 137/137/38 139/138/53 138/139/40
f 139/138/53 137/137/38 140/140/8
f 141/141/41 143/142/36 142/143/54
f 143/142/36 141/141/41 144/144/41
f 145/145/44 147/146/44 146/147/45
f 147/146/44 145/145/44 148/148/45
f 149/149/46 151/150/55 150/151/48
f 151/150/55 149/149/46 152/152/49
f 153/153/56 155/154/57 154/155/58
f 155/154/57 153/153/56 156/156/57
f 157/157/59 159/158/60 158/159/60
f 159/158/60 157/157/59 160/160/59
f 161/161/61 163/162/62 162/163/63
f 163/162/62 161/161/61 164/164/64
f 165/165/65 167/166/65 166/167/65
f 167/166/65 165/165/65 168/168/65
f 169/169/66 171/170/60 170/171/60
f 171/170/60 169/169/66 172/172/66
f 173/173/67 175/174/67 174/175/67
f 175/174/67 173/173/67 176/176/68
f 177/177/69 179/178/69 178/179/69
f 179/178/69 177/177/69 180/180/70
f 181/181/56 183/182/56 182/183/56
f 183/182/56 181/181/56 184/184/56
f 185/185/61 187/186/64 186/187/71
f 187/186/64 185/185/61 188/188/72
f 189/189/59 191/190/59 190/191/59
f 191/190/59 189/189/59 192/192/59
f 193/193/69 195/194/69 194/195/69
f 195/194/69 193/193/69 196/196/73
f 197/197/56 199/198/56 198/199/56
f 199/198/56 200/200/56 198/199/56
f 201/201/66 203/202/66 202/203/66
f 203/202/66 201/201/66 204/204/66
f 205/205/59 207/206/59 206/207/59
f 207/206/59 205/205/59 208/208/59
f 209/209/59 211/210/60 210/211/60
f 211/210/60 209/209/59 212/212/59
f 213/213/56 215/214/56 214/215/56
f 215/214/56 216/216/56 214/215/56
f 217/217/56 219/218/56 218/219/56
f 219/218/56 217/217/56 220/220/56
f 221/221/56 223/222/56 222/223/56
f 223/222/56 221/221/56 224/224/56
f 225/225/74 227/226/69 226/227/74
f 227/226/69 225/225/74 228/228/69
f 229/229/69 231/230/69 230/231/75
f 231/230/69 229/229/69 232/232/69
f 233/233/69 235/234/69 234/235/69
f 235/234/69 233/233/69 236/236/69
f 237/237/67 239/238/64 238/239/76
f 239/238/64 237/237/67 240/240/64
f 241/241/77 243/242/77 242/243/68
f 243/242/77 241/241/77 244/244/77
f 245/245/64 247/246/64 246/247/64
f 247/246/64 245/245/64 248/248/64
f 249/249/78 251/250/79 250/251/78
f 251/250/79 249/249/78 252/252/79
f 253/253/79 255/254/80 254/255/79
f 255/254/80 253/253/79 256/256/79
