# Blender v3.4.1 OBJ File: 'track.blend'
# www.blender.org
mtllib _0BUILDING_CORNER13_SUB1_Scene.030.mtl
o _0BUILDING_CORNER13_SUB1_Scene.030
v 1.262933 -625.884521 -6.025552
v 1.020058 -625.972473 -7.805749
v 1.094498 -625.619019 -7.805749
v 1.226384 -626.018677 -6.025552
v -2.441640 -641.451416 -7.805686
v -2.220619 -641.442200 -6.025487
v -2.615176 -643.215576 -6.025488
v -2.839163 -643.224976 -7.805686
v -1.799204 -649.910889 -7.805912
v -3.673190 -649.492004 -7.805912
v -3.624696 -649.275085 -6.025713
v -1.750710 -649.693970 -6.025713
v -3.731443 -647.206177 -7.805924
v -3.500966 -647.196472 -6.025726
v -3.877280 -648.879028 -6.025726
v -4.094485 -648.830505 -7.805925
v 0.138054 -629.942017 -7.805100
v 0.339914 -629.933594 -6.024902
v -0.054645 -631.706909 -6.024903
v -0.259472 -631.715576 -7.805101
v -1.151793 -635.696716 -7.805394
v -0.940352 -635.687927 -6.025196
v -1.334910 -637.461304 -6.025196
v -1.549317 -637.470276 -7.805394
v -3.301539 -645.287903 -7.805880
v -3.074132 -645.278381 -6.025681
v -3.468688 -647.051819 -6.025682
v -3.699061 -647.061523 -7.805881
v -2.011691 -639.533203 -7.805587
v -1.793864 -639.524109 -6.025391
v -2.188421 -641.297485 -6.025391
v -2.409215 -641.306824 -7.805588
v -1.581741 -637.614929 -7.805491
v -1.367108 -637.606018 -6.025293
v -1.761666 -639.379333 -6.025293
v -1.979265 -639.388489 -7.805491
v -0.721844 -633.778503 -7.805295
v -0.513597 -633.769775 -6.025097
v -0.908155 -635.543213 -6.025098
v -1.119369 -635.552124 -7.805295
v 0.568003 -628.023682 -7.805002
v 0.766670 -628.015381 -6.024805
v 0.372109 -629.788879 -6.024805
v 0.170476 -629.797424 -7.805004
v -2.871590 -643.369690 -7.805783
v -2.647375 -643.360229 -6.025585
v -3.041933 -645.133667 -6.025585
v -3.269112 -645.143188 -7.805783
v 0.988931 -626.117065 -7.805191
v 1.190491 -626.162170 -6.024992
v 0.799262 -627.870972 -6.024993
v 0.600137 -627.879211 -7.805192
v -1.439487 -649.991272 -7.805912
v -1.654634 -649.943176 -7.805912
v -1.606140 -649.726318 -6.025713
v -1.390993 -649.774414 -6.025713
v 4.204293 -626.290527 -7.805906
v 4.495648 -626.355591 -7.805906
v 4.447154 -626.572510 -6.025708
v 4.155799 -626.507385 -6.025708
v 1.591473 -625.706421 -7.805906
v 4.069890 -626.260376 -7.805906
v 4.021397 -626.477417 -6.025708
v 1.542979 -625.923279 -6.025708
v -3.817749 -649.459717 -7.805912
v -4.190792 -649.376221 -7.805912
v -3.925369 -649.207825 -6.025715
v -3.769253 -649.242615 -6.025715
v 1.446902 -625.674072 -7.805906
v 1.398408 -625.890991 -6.025708
v 1.274481 -625.863281 -6.025708
v 1.106046 -625.597778 -7.805906
v -0.291895 -631.860229 -7.805198
v -0.086841 -631.851685 -6.025001
v -0.481400 -633.625122 -6.025001
v -0.689420 -633.633911 -7.805198
v -4.126786 -648.974976 -7.805915
v -3.909661 -649.023621 -6.025717
v -3.945570 -649.183716 -6.025717
v -4.210993 -649.352112 -7.805915
v 1.262933 -625.884521 -2.025552
v 1.020058 -625.972473 -3.805749
v 1.094498 -625.619019 -3.805749
v 1.226384 -626.018677 -2.025552
v -2.441640 -641.451416 -3.805685
v -2.220619 -641.442200 -2.025487
v -2.615176 -643.215576 -2.025488
v -2.839163 -643.224976 -3.805686
v -3.731443 -647.206177 -3.805923
v -3.500966 -647.196472 -2.025726
v -3.877280 -648.879028 -2.025727
v -4.094485 -648.830505 -3.805925
v 0.138054 -629.942017 -3.805100
v 0.339914 -629.933594 -2.024903
v -0.054645 -631.706909 -2.024903
v -0.259472 -631.715576 -3.805101
v -1.151793 -635.696716 -3.805393
v -0.940352 -635.687927 -2.025195
v -1.334910 -637.461304 -2.025196
v -1.549317 -637.470276 -3.805394
v -3.301539 -645.287903 -3.805880
v -3.074132 -645.278381 -2.025682
v -3.468688 -647.051819 -2.025682
v -3.699061 -647.061523 -3.805880
v -2.011691 -639.533203 -3.805588
v -1.793864 -639.524109 -2.025390
v -2.188421 -641.297485 -2.025390
v -2.409215 -641.306824 -3.805588
v -1.581741 -637.614929 -3.805491
v -1.367108 -637.606018 -2.025293
v -1.761666 -639.379333 -2.025293
v -1.979265 -639.388489 -3.805491
v -0.721844 -633.778503 -3.805295
v -0.513597 -633.769775 -2.025098
v -0.908155 -635.543213 -2.025099
v -1.119369 -635.552124 -3.805295
v 0.568003 -628.023682 -3.805002
v 0.766670 -628.015381 -2.024805
v 0.372109 -629.788879 -2.024806
v 0.170476 -629.797424 -3.805002
v -2.871590 -643.369690 -3.805783
v -2.647375 -643.360229 -2.025585
v -3.041933 -645.133667 -2.025585
v -3.269112 -645.143188 -3.805783
v 0.988931 -626.117065 -3.805191
v 1.190491 -626.162170 -2.024993
v 0.799262 -627.870972 -2.024994
v 0.600137 -627.879211 -3.805191
v 4.204293 -626.290527 -3.805906
v 4.495648 -626.355591 -3.805906
v 4.447154 -626.572510 -2.025708
v 4.155799 -626.507385 -2.025708
v 1.591473 -625.706421 -3.805906
v 4.069890 -626.260376 -3.805906
v 4.021397 -626.477417 -2.025708
v 1.542979 -625.923279 -2.025708
v -3.817749 -649.459717 -3.805913
v -4.190792 -649.376221 -3.805913
v -3.925369 -649.207825 -2.025715
v -3.769253 -649.242615 -2.025715
v 1.446901 -625.674072 -3.805906
v 1.398408 -625.890991 -2.025708
v 1.274481 -625.863281 -2.025708
v 1.106046 -625.597778 -3.805906
v -0.291895 -631.860229 -3.805198
v -0.086841 -631.851685 -2.025001
v -0.481400 -633.625122 -2.025001
v -0.689420 -633.633911 -3.805198
v -4.126786 -648.974976 -3.805915
v -3.909661 -649.023621 -2.025717
v -3.945570 -649.183716 -2.025717
v -4.210993 -649.352112 -3.805915
v 7.952777 -635.161377 -12.764894
v 7.845870 -635.639526 -12.764894
v 7.685517 -635.387024 -10.328013
v 7.746258 -635.115112 -10.328012
v -0.232875 -631.494019 -12.764893
v -0.026356 -631.540222 -10.328012
v -0.385922 -633.148682 -10.328012
v -0.592441 -633.102417 -12.764893
v 7.118797 -635.521301 -12.764894
v 7.164964 -635.314819 -10.328013
v 7.633018 -635.419373 -10.328013
v 7.793371 -635.672119 -12.764894
v 1.806369 -625.742615 -12.764892
v 1.760202 -625.949219 -10.328012
v 1.269283 -625.839478 -10.328012
v 1.108930 -625.586792 -12.764892
v -0.624082 -633.244019 -12.764893
v -0.417563 -633.290222 -10.328012
v -0.484171 -633.588196 -10.328012
v -0.736857 -633.748474 -12.764893
v 6.977254 -635.489624 -12.764894
v 5.368801 -635.130127 -12.764894
v 5.414968 -634.923523 -10.328012
v 7.023421 -635.283081 -10.328013
v 1.947911 -625.774414 -12.764892
v 3.556364 -626.133911 -12.764892
v 3.510197 -626.340393 -10.328012
v 1.901743 -625.980774 -10.328012
v 7.984417 -635.019897 -12.764893
v 7.777898 -634.973694 -10.328012
v 8.137465 -633.365112 -10.328012
v 8.343985 -633.411377 -12.764893
v 0.118817 -633.956421 -12.764893
v 0.164984 -633.749878 -10.328012
v 1.773438 -634.109497 -10.328012
v 1.727272 -634.315979 -12.764893
v 0.940747 -626.244019 -12.764892
v 1.147267 -626.290283 -10.328012
v 0.787700 -627.898682 -10.328012
v 0.581181 -627.852417 -12.764892
v 8.806348 -627.307495 -12.764892
v 8.760181 -627.513977 -10.328012
v 7.151727 -627.154480 -10.328012
v 7.197894 -626.947876 -12.764892
v 9.158040 -629.769897 -12.764893
v 8.951521 -629.723694 -10.328012
v 9.517607 -628.161377 -12.764892
v 9.311087 -628.115112 -10.328012
v 0.972389 -626.102417 -12.764892
v 1.085629 -625.596008 -12.764892
v 1.245981 -625.848694 -10.328012
v 1.178908 -626.148682 -10.328012
v 0.549540 -627.994019 -12.764892
v 0.756059 -628.040283 -10.328012
v 0.396493 -629.648682 -10.328012
v 0.189974 -629.602417 -12.764893
v 0.158333 -629.744019 -12.764893
v 0.364852 -629.790222 -10.328012
v 0.005285 -631.398682 -10.328012
v -0.201234 -631.352417 -12.764893
v 8.766832 -631.519897 -12.764893
v 8.560314 -631.473694 -10.328012
v 9.126399 -629.911377 -12.764893
v 8.919880 -629.865112 -10.328012
v 9.549248 -628.019897 -12.764892
v 9.342729 -627.973816 -10.328012
v 9.408364 -627.680115 -10.328012
v 9.661051 -627.519775 -12.764892
v 8.375626 -633.269897 -12.764893
v 8.169105 -633.223694 -10.328012
v 8.528672 -631.615112 -10.328012
v 8.735191 -631.661377 -12.764893
v 8.947886 -627.339172 -12.764892
v 9.617384 -627.488708 -12.764892
v 9.364698 -627.649170 -10.328012
v 8.901720 -627.545715 -10.328012
v 7.056354 -626.916321 -12.764892
v 7.010187 -627.122803 -10.328012
v 5.401732 -626.763184 -10.328012
v 5.447899 -626.556824 -12.764892
v 3.697905 -626.165527 -12.764892
v 5.306358 -626.525085 -12.764892
v 5.260191 -626.731628 -10.328012
v 3.651738 -626.372070 -10.328012
v -0.022724 -633.924805 -12.764893
v -0.686710 -633.776428 -12.764893
v -0.434024 -633.616028 -10.328012
v 0.023442 -633.718323 -10.328012
v 1.868812 -634.347717 -12.764893
v 1.914979 -634.141052 -10.328012
v 3.523433 -634.500671 -10.328012
v 3.477266 -634.707214 -12.764893
v 5.227261 -635.098389 -12.764893
v 3.618807 -634.738708 -12.764893
v 3.664973 -634.532288 -10.328012
v 5.273427 -634.891907 -10.328012
v -2.037675 -649.790588 -3.485862
v -2.315747 -649.728516 -3.485862
v -2.315747 -649.728516 -2.491948
v -2.037675 -649.790588 -2.491948
v -2.636486 -649.656677 -3.485862
v -2.914558 -649.594604 -3.485862
v -2.914558 -649.594604 -2.491948
v -2.636485 -649.656677 -2.491948
vt 0.814106 1.896347
vt 0.814106 1.896898
vt 0.814106 1.896898
vt 0.814106 1.896347
vt 0.814106 1.896898
vt 0.814106 1.896347
vt 0.814106 1.896347
vt 0.814106 1.896898
vt 0.814106 1.896898
vt 0.814106 1.896347
vt 0.814106 1.896898
vt 0.814106 1.896347
vt 0.814106 1.896898
vt 0.814106 1.896347
vt 0.814106 1.896347
vt 0.814106 1.896898
vt 0.814106 1.896898
vt 0.814106 1.896347
vt 0.814106 1.896347
vt 0.814106 1.896898
vt 0.814106 1.896898
vt 0.814106 1.896347
vt 0.814106 1.896347
vt 0.814106 1.896898
vt 0.814106 1.896898
vt 0.814106 1.896347
vt 0.814106 1.896347
vt 0.814106 1.896898
vt 0.814106 1.896898
vt 0.814106 1.896347
vt 0.814106 1.896347
vt 0.814106 1.896898
vt 0.814106 1.896898
vt 0.814106 1.896347
vt 0.814106 1.896347
vt 0.814106 1.896898
vt 0.814106 1.896898
vt 0.814106 1.896347
vt 0.814106 1.896347
vt 0.814106 1.896898
vt 0.814106 1.896898
vt 0.814106 1.896347
vt 0.814106 1.896347
vt 0.814106 1.896898
vt 0.814106 1.896898
vt 0.814106 1.896347
vt 0.814106 1.896347
vt 0.814106 1.896898
vt 0.814106 1.896898
vt 0.814106 1.896347
vt 0.814106 1.896347
vt 0.814106 1.896898
vt 0.814106 1.896898
vt 0.814106 1.896347
vt 0.814106 1.896898
vt 0.814106 1.896347
vt 0.814106 1.896898
vt 0.814106 1.896347
vt 0.814106 1.896898
vt 0.814106 1.896347
vt 0.814106 1.896898
vt 0.814106 1.896347
vt 0.814106 1.896898
vt 0.814106 1.896347
vt 0.814106 1.896898
vt 0.814106 1.896347
vt 0.814106 1.896898
vt 0.814106 1.896347
vt 0.814106 1.896898
vt 0.814106 1.896347
vt 0.814106 1.896347
vt 0.814106 1.896898
vt 0.814106 1.896898
vt 0.814106 1.896347
vt 0.814106 1.896347
vt 0.814106 1.896898
vt 0.814106 1.896898
vt 0.814106 1.896347
vt 0.814106 1.896347
vt 0.814106 1.896898
vt 0.814106 1.896352
vt 0.814106 1.896903
vt 0.814106 1.896903
vt 0.814106 1.896352
vt 0.814106 1.896903
vt 0.814106 1.896352
vt 0.814106 1.896352
vt 0.814106 1.896903
vt 0.814106 1.896903
vt 0.814106 1.896352
vt 0.814106 1.896352
vt 0.814106 1.896903
vt 0.814106 1.896902
vt 0.814106 1.896352
vt 0.814106 1.896352
vt 0.814106 1.896902
vt 0.814106 1.896902
vt 0.814106 1.896352
vt 0.814106 1.896352
vt 0.814106 1.896902
vt 0.814106 1.896903
vt 0.814106 1.896352
vt 0.814106 1.896352
vt 0.814106 1.896903
vt 0.814106 1.896903
vt 0.814106 1.896352
vt 0.814106 1.896352
vt 0.814106 1.896903
vt 0.814106 1.896902
vt 0.814106 1.896352
vt 0.814106 1.896352
vt 0.814106 1.896902
vt 0.814106 1.896902
vt 0.814106 1.896352
vt 0.814106 1.896352
vt 0.814106 1.896902
vt 0.814106 1.896902
vt 0.814106 1.896352
vt 0.814106 1.896352
vt 0.814106 1.896902
vt 0.814106 1.896903
vt 0.814106 1.896352
vt 0.814106 1.896352
vt 0.814106 1.896903
vt 0.814106 1.896902
vt 0.814106 1.896352
vt 0.814106 1.896352
vt 0.814106 1.896902
vt 0.814106 1.896903
vt 0.814106 1.896352
vt 0.814106 1.896903
vt 0.814106 1.896352
vt 0.814106 1.896903
vt 0.814106 1.896352
vt 0.814106 1.896903
vt 0.814106 1.896352
vt 0.814106 1.896903
vt 0.814106 1.896352
vt 0.814106 1.896903
vt 0.814106 1.896352
vt 0.814106 1.896903
vt 0.814106 1.896352
vt 0.814106 1.896352
vt 0.814106 1.896903
vt 0.814106 1.896902
vt 0.814106 1.896352
vt 0.814106 1.896352
vt 0.814106 1.896902
vt 0.814106 1.896903
vt 0.814106 1.896352
vt 0.814106 1.896352
vt 0.814106 1.896903
vt 0.814107 1.896880
vt 0.814107 1.896355
vt 0.814107 1.896880
vt 0.814107 1.896355
vt 0.814107 1.896880
vt 0.814107 1.896355
vt 0.814107 1.896355
vt 0.814107 1.896880
vt 0.814107 1.896880
vt 0.814107 1.896355
vt 0.814107 1.896355
vt 0.814107 1.896880
vt 0.814107 1.896880
vt 0.814107 1.896355
vt 0.814107 1.896355
vt 0.814107 1.896880
vt 0.814107 1.896880
vt 0.814107 1.896355
vt 0.814107 1.896355
vt 0.814107 1.896880
vt 0.814107 1.896880
vt 0.814107 1.896355
vt 0.814107 1.896880
vt 0.814107 1.896355
vt 0.814107 1.896880
vt 0.814107 1.896355
vt 0.814107 1.896880
vt 0.814107 1.896355
vt 0.814107 1.896880
vt 0.814107 1.896355
vt 0.814107 1.896355
vt 0.814107 1.896880
vt 0.814107 1.896880
vt 0.814107 1.896355
vt 0.814107 1.896355
vt 0.814107 1.896880
vt 0.814107 1.896880
vt 0.814107 1.896355
vt 0.814107 1.896355
vt 0.814107 1.896880
vt 0.814107 1.896880
vt 0.814107 1.896355
vt 0.814107 1.896355
vt 0.814107 1.896880
vt 0.814107 1.896880
vt 0.814107 1.896880
vt 0.814107 1.896355
vt 0.814107 1.896355
vt 0.814107 1.896880
vt 0.814107 1.896355
vt 0.814107 1.896880
vt 0.814107 1.896355
vt 0.814107 1.896880
vt 0.814107 1.896355
vt 0.814107 1.896355
vt 0.814107 1.896880
vt 0.814107 1.896880
vt 0.814107 1.896355
vt 0.814107 1.896355
vt 0.814107 1.896880
vt 0.814107 1.896880
vt 0.814107 1.896880
vt 0.814107 1.896355
vt 0.814107 1.896355
vt 0.814107 1.896880
vt 0.814107 1.896355
vt 0.814107 1.896355
vt 0.814107 1.896880
vt 0.814107 1.896880
vt 0.814107 1.896355
vt 0.814107 1.896355
vt 0.814107 1.896880
vt 0.814107 1.896880
vt 0.814107 1.896355
vt 0.814107 1.896880
vt 0.814107 1.896355
vt 0.814107 1.896880
vt 0.814107 1.896355
vt 0.814107 1.896355
vt 0.814107 1.896880
vt 0.814107 1.896880
vt 0.814107 1.896355
vt 0.814107 1.896880
vt 0.814107 1.896355
vt 0.814107 1.896880
vt 0.814107 1.896355
vt 0.814107 1.896880
vt 0.814107 1.896355
vt 0.814107 1.896880
vt 0.814107 1.896355
vt 0.814107 1.896355
vt 0.814107 1.896880
vt 0.814107 1.896880
vt 0.814107 1.896355
vt 0.814107 1.896880
vt 0.814107 1.896355
vt 0.814106 1.896804
vt 0.814106 1.896496
vt 0.814106 1.896804
vt 0.814106 1.896496
vt 0.814106 1.896804
vt 0.814106 1.896496
vt 0.814106 1.896804
vt 0.814106 1.896496
vn -0.9679 0.2201 0.1212
vn -0.9679 0.2203 0.1211
vn -0.9679 0.2202 0.1211
vn -0.9679 0.2200 0.1212
vn -0.9689 0.2164 0.1200
vn -0.9690 0.2161 0.1198
vn -0.9689 0.2165 0.1201
vn -0.2165 -0.9684 0.1239
vn -0.2165 -0.9684 0.1238
vn -0.2165 -0.9684 0.1240
vn -0.9684 0.2165 0.1241
vn -0.9683 0.2166 0.1242
vn -0.9684 0.2164 0.1241
vn -0.9701 0.2166 0.1098
vn -0.9700 0.2167 0.1098
vn -0.9701 0.2165 0.1096
vn -0.9695 0.2165 0.1149
vn -0.9695 0.2166 0.1150
vn -0.9685 0.2163 0.1234
vn -0.9685 0.2162 0.1232
vn -0.9685 0.2164 0.1235
vn -0.9691 0.2164 0.1182
vn -0.9691 0.2164 0.1183
vn -0.9691 0.2163 0.1182
vn -0.9693 0.2165 0.1166
vn -0.9693 0.2164 0.1164
vn -0.9693 0.2166 0.1167
vn -0.9697 0.2165 0.1132
vn -0.9698 0.2164 0.1130
vn -0.9696 0.2168 0.1135
vn -0.9703 0.2166 0.1081
vn -0.9702 0.2167 0.1081
vn -0.9702 0.2167 0.1080
vn -0.9687 0.2163 0.1217
vn -0.9687 0.2163 0.1216
vn -0.9696 0.2179 0.1114
vn -0.9696 0.2178 0.1113
vn -0.2169 -0.9683 0.1240
vn -0.2162 -0.9685 0.1238
vn -0.2171 -0.9682 0.1240
vn -0.2159 -0.9685 0.1239
vn 0.2163 0.9684 0.1239
vn 0.2164 0.9684 0.1239
vn 0.2165 0.9684 0.1238
vn 0.2165 0.9684 0.1239
vn 0.2164 0.9684 0.1240
vn -0.2167 -0.9683 0.1240
vn -0.2159 -0.9685 0.1240
vn -0.2171 -0.9683 0.1240
vn -0.2158 -0.9685 0.1240
vn 0.2167 0.9683 0.1239
vn 0.2170 0.9683 0.1239
vn -0.9699 0.2166 0.1115
vn -0.9698 0.2167 0.1115
vn -0.9684 0.2163 0.1240
vn -0.9684 0.2166 0.1240
vn -0.9682 0.2172 0.1241
vn -0.9684 0.2162 0.1240
vn -0.9690 0.2162 0.1198
vn -0.9691 0.2165 0.1184
vn -0.9693 0.2164 0.1165
vn -0.9697 0.2165 0.1131
vn -0.9696 0.2168 0.1134
vn -0.9703 0.2167 0.1080
vn -0.9703 0.2166 0.1080
vn -0.9687 0.2162 0.1215
vn -0.2155 -0.9686 0.1239
vn 0.2166 0.9684 0.1239
vn 0.2171 0.9683 0.1239
vn -0.9699 0.2166 0.1114
vn -0.9682 0.2170 0.1241
vn 0.9722 -0.2174 0.0865
vn 0.9723 -0.2172 0.0865
vn -0.9723 0.2173 0.0865
vn -0.9723 0.2174 0.0865
vn -0.2173 -0.9723 0.0865
vn -0.2178 -0.9722 0.0865
vn -0.2175 -0.9722 0.0865
vn -0.2174 -0.9722 0.0865
vn 0.2172 0.9723 0.0865
vn 0.2173 0.9723 0.0866
vn 0.2173 0.9722 0.0866
vn 0.2176 0.9722 0.0865
vn -0.9723 0.2173 0.0866
vn -0.2173 -0.9723 0.0866
vn 0.2173 0.9723 0.0865
vn 0.2174 0.9723 0.0865
vn 0.9723 -0.2173 0.0865
vn -0.2174 -0.9723 0.0865
vn 0.2173 0.9722 0.0865
vn 0.2174 0.9722 0.0866
vn -0.9722 0.2174 0.0865
vn 0.9723 -0.2174 0.0865
vn 0.2174 0.9722 0.0865
vn 0.2173 0.9723 0.0864
vn -0.2179 -0.9760 0.0000
vn -0.2183 -0.9759 0.0000
usemtl Glass_Black
s 1
f 1/1/1 3/2/2 2/3/3
f 2/3/3 4/4/4 1/1/1
f 5/5/5 7/6/5 6/7/6
f 7/6/5 5/5/5 8/8/7
f 9/9/8 11/10/8 10/11/9
f 11/10/8 9/9/8 12/12/10
f 13/13/11 15/14/11 14/15/12
f 15/14/11 13/13/11 16/16/13
f 17/17/14 19/18/14 18/19/15
f 19/18/14 17/17/14 20/20/16
f 21/21/17 23/22/17 22/23/18
f 23/22/17 21/21/17 24/24/17
f 25/25/19 27/26/19 26/27/20
f 27/26/19 25/25/19 28/28/21
f 29/29/22 31/30/23 30/31/24
f 31/30/23 29/29/22 32/32/23
f 33/33/25 35/34/25 34/35/26
f 35/34/25 33/33/25 36/36/27
f 37/37/28 39/38/28 38/39/29
f 39/38/28 37/37/28 40/40/30
f 41/41/31 43/42/32 42/43/33
f 43/42/32 41/41/31 44/44/33
f 45/45/34 47/46/34 46/47/34
f 47/46/34 45/45/34 48/48/35
f 49/49/36 51/50/36 50/51/36
f 51/50/36 49/49/36 52/52/37
f 53/53/38 55/54/39 54/55/40
f 55/54/39 53/53/38 56/56/41
f 57/57/42 59/58/43 58/59/42
f 59/58/43 57/57/42 60/60/44
f 61/61/45 63/62/45 62/63/46
f 63/62/45 61/61/45 64/64/44
f 65/65/47 67/66/48 66/67/49
f 67/66/48 65/65/47 68/68/50
f 69/69/51 71/70/52 70/71/52
f 71/70/52 69/69/51 72/72/51
f 73/73/53 75/74/53 74/75/53
f 75/74/53 73/73/53 76/76/54
f 77/77/55 79/78/56 78/79/57
f 79/78/56 77/77/55 80/80/58
f 81/81/1 83/82/2 82/83/3
f 82/83/3 84/84/4 81/81/1
f 85/85/5 87/86/5 86/87/59
f 87/86/5 85/85/5 88/88/7
f 89/89/11 91/90/11 90/91/12
f 91/90/11 89/89/11 92/92/13
f 93/93/14 95/94/14 94/95/15
f 95/94/14 93/93/14 96/96/14
f 97/97/17 99/98/17 98/99/17
f 99/98/17 97/97/17 100/100/17
f 101/101/19 103/102/19 102/103/19
f 103/102/19 101/101/19 104/104/19
f 105/105/22 107/106/23 106/107/23
f 107/106/23 105/105/22 108/108/60
f 109/109/25 111/110/25 110/111/61
f 111/110/25 109/109/25 112/112/27
f 113/113/28 115/114/28 114/115/62
f 115/114/28 113/113/28 116/116/63
f 117/117/31 119/118/32 118/119/64
f 119/118/32 117/117/31 120/120/65
f 121/121/34 123/122/34 122/123/66
f 123/122/34 121/121/34 124/124/35
f 125/125/36 127/126/36 126/127/36
f 127/126/36 125/125/36 128/128/37
f 129/129/42 131/130/43 130/131/42
f 131/130/43 129/129/42 132/132/44
f 133/133/45 135/134/45 134/135/46
f 135/134/45 133/133/45 136/136/44
f 137/137/47 139/138/48 138/139/47
f 139/138/48 137/137/47 140/140/67
f 141/141/51 143/142/68 142/143/69
f 143/142/68 141/141/51 144/144/51
f 145/145/53 147/146/53 146/147/70
f 147/146/53 145/145/53 148/148/54
f 149/149/55 151/150/71 150/151/57
f 151/150/71 149/149/55 152/152/58
f 153/153/72 155/154/73 154/155/72
f 155/154/73 153/153/72 156/156/73
f 157/157/74 159/158/74 158/159/74
f 159/158/74 157/157/74 160/160/75
f 161/161/76 163/162/77 162/163/78
f 163/162/77 161/161/76 164/164/79
f 165/165/80 167/166/81 166/167/82
f 167/166/81 165/165/80 168/168/83
f 169/169/75 171/170/84 170/171/84
f 171/170/84 169/169/75 172/172/75
f 173/173/85 175/174/76 174/175/85
f 175/174/76 173/173/85 176/176/76
f 177/177/86 179/178/86 178/179/86
f 179/178/86 177/177/86 180/180/87
f 181/181/88 183/182/88 182/183/88
f 183/182/88 181/181/88 184/184/88
f 185/185/89 187/186/79 186/187/79
f 187/186/79 185/185/89 188/188/76
f 189/189/75 191/190/75 190/191/75
f 191/190/75 189/189/75 192/192/75
f 193/193/90 195/194/86 194/195/86
f 195/194/86 193/193/90 196/196/91
f 197/197/88 199/198/88 198/199/88
f 199/198/88 200/200/88 198/199/88
f 201/201/92 203/202/92 202/203/92
f 203/202/92 201/201/92 204/204/75
f 205/205/75 207/206/75 206/207/75
f 207/206/75 205/205/75 208/208/75
f 209/209/74 211/210/74 210/211/74
f 211/210/74 209/209/74 212/212/75
f 213/213/88 215/214/88 214/215/88
f 215/214/88 216/216/88 214/215/88
f 217/217/88 219/218/88 218/219/88
f 219/218/88 217/217/88 220/220/93
f 221/221/88 223/222/88 222/223/88
f 223/222/88 221/221/88 224/224/88
f 225/225/80 227/226/80 226/227/80
f 227/226/80 225/225/80 228/228/86
f 229/229/86 231/230/86 230/231/94
f 231/230/86 229/229/86 232/232/95
f 233/233/86 235/234/86 234/235/86
f 235/234/86 233/233/86 236/236/86
f 237/237/76 239/238/79 238/239/76
f 239/238/79 237/237/76 240/240/79
f 241/241/76 243/242/76 242/243/79
f 243/242/76 241/241/76 244/244/76
f 245/245/79 247/246/79 246/247/79
f 247/246/79 245/245/79 248/248/89
f 249/249/96 251/250/96 250/251/97
f 251/250/96 249/249/96 252/252/96
f 253/253/96 255/254/97 254/255/96
f 255/254/97 253/253/96 256/256/96
