# Blender v3.4.1 OBJ File: 'track.blend'
# www.blender.org
mtllib _0FLAG_AC_003_Scene.036.mtl
o _0FLAG_AC_003_Scene.036
v -260.630890 278.915497 -8.376572
v -260.923004 278.765015 -8.376572
v -260.626709 278.890503 -5.615294
v -260.923004 278.765015 -5.615294
v -261.534302 278.795013 -10.382004
v -261.534302 278.795013 -10.432804
v -261.542694 278.845093 -10.432804
v -261.542694 278.845093 -10.382004
v -261.503204 278.667511 -8.684840
v -261.482910 278.546906 -5.282965
v -261.231812 278.713104 -5.615293
v -261.231812 278.713104 -8.376570
v -260.913910 278.766510 -5.282965
v -260.350311 279.018188 -5.282965
v -260.350311 279.018188 -8.684841
v -260.919159 278.797913 -8.684841
v -260.939514 278.919159 -10.381044
v -260.464203 278.998993 -10.217144
v -260.350311 279.018188 -10.381044
v -260.939514 278.919159 -10.217144
v -261.414886 278.839386 -10.217144
v -261.528809 278.820312 -10.381044
v -261.392090 278.720612 -8.848743
v -260.928314 278.851898 -8.848743
v -260.464386 278.983185 -8.848743
v -260.730408 275.533813 -8.376573
v -261.056610 275.494110 -8.376571
v -260.735107 275.508911 -5.615293
v -261.056610 275.494110 -5.615293
v -261.619354 275.734589 -10.432805
v -261.609894 275.784485 -10.432805
v -261.619354 275.734589 -10.382005
v -261.609894 275.784485 -10.382005
v -261.657410 275.484192 -5.282964
v -261.364105 275.552795 -8.376571
v -261.634491 275.604309 -8.684841
v -261.364105 275.552795 -5.615293
v -261.047485 275.492401 -5.282965
v -260.431610 275.532593 -5.282965
v -260.431610 275.532593 -8.684842
v -261.041595 275.523712 -8.684842
v -261.018494 275.644501 -10.381045
v -260.545013 275.554199 -10.217145
v -260.431610 275.532593 -10.381045
v -261.018494 275.644501 -10.217145
v -261.492004 275.734802 -10.217145
v -261.605499 275.756409 -10.381045
v -261.511810 275.615509 -8.848744
v -261.031311 275.577515 -8.848744
v -260.550812 275.539612 -8.848744
v -261.046295 270.256287 -8.376574
v -261.338409 270.105682 -8.376572
v -261.042114 270.231293 -5.615294
v -261.338409 270.105682 -5.615294
v -261.949707 270.135803 -10.432806
v -261.958099 270.185913 -10.432806
v -261.949707 270.135803 -10.382006
v -261.958099 270.185913 -10.382006
v -261.918610 270.008301 -8.684842
v -261.898285 269.887695 -5.282965
v -261.647186 270.053894 -5.615294
v -261.647186 270.053894 -8.376572
v -261.329315 270.107208 -5.282965
v -260.765686 270.358887 -5.282965
v -260.765686 270.358887 -8.684843
v -261.334595 270.138611 -8.684842
v -261.355011 270.259888 -10.381046
v -260.879608 270.339813 -10.217146
v -260.765686 270.358887 -10.381046
v -261.355011 270.259888 -10.217146
v -261.830414 270.180115 -10.217146
v -261.944214 270.161011 -10.381046
v -261.807495 270.061401 -8.848744
v -261.343689 270.192688 -8.848745
v -260.879913 270.324005 -8.848745
v -260.953888 272.789093 -8.376573
v -261.281891 272.768585 -8.376571
v -260.960114 272.764496 -5.615294
v -261.281891 272.768585 -5.615294
v -261.829590 273.041687 -10.432805
v -261.817200 273.091003 -10.432805
v -261.829590 273.041687 -10.382005
v -261.817200 273.091003 -10.382005
v -261.882202 272.793915 -5.282965
v -261.585388 272.845215 -8.376571
v -261.852295 272.912506 -8.684841
v -261.585388 272.845215 -5.615294
v -261.272888 272.766388 -5.282966
v -260.655609 272.770386 -5.282966
v -260.655609 272.770386 -8.684842
v -261.265106 272.797211 -8.684841
v -261.234985 272.916504 -10.381045
v -260.767609 272.798615 -10.217145
v -260.655609 272.770386 -10.381045
v -261.234985 272.916504 -10.217145
v -261.702515 273.034393 -10.217145
v -261.814392 273.062592 -10.381045
v -261.729187 272.916412 -8.848743
v -261.251709 272.850403 -8.848744
v -260.774200 272.784302 -8.848744
v -260.305511 279.001312 -10.432804
v -260.313904 279.051514 -10.432804
v -260.355103 278.993011 -10.382004
v -260.363495 279.043091 -10.382004
v -260.363190 279.043182 -4.432311
v -260.354797 278.993103 -4.432311
v -260.313110 279.051605 -4.432311
v -260.304688 279.001495 -4.432311
v -260.395386 275.501312 -10.432805
v -260.385895 275.551208 -10.432805
v -260.444794 275.510712 -10.382005
v -260.435303 275.560608 -10.382005
v -260.434998 275.560486 -4.432311
v -260.444489 275.510712 -4.432311
v -260.394592 275.501099 -4.432311
v -260.385101 275.551086 -4.432311
v -260.720886 270.342102 -10.432806
v -260.729309 270.392212 -10.432806
v -260.770508 270.333801 -10.382006
v -260.778900 270.383911 -10.382006
v -260.778595 270.383911 -4.432312
v -260.770203 270.333801 -4.432312
v -260.728485 270.392303 -4.432312
v -260.720093 270.342194 -4.432312
v -260.621399 272.737000 -10.432805
v -260.609009 272.786285 -10.432805
v -260.657715 272.798615 -10.382005
v -260.670105 272.749298 -10.382005
v -260.657410 272.798492 -4.432312
v -260.669891 272.749207 -4.432312
v -260.620605 272.736786 -4.432312
v -260.608185 272.786102 -4.432312
vt 0.840936 1.887458
vt 0.792311 1.892971
vt 0.792311 1.887458
vt 0.818741 1.891814
vt 0.818741 1.891814
vt 0.818741 1.891814
vt 0.818741 1.891814
vt 0.788982 1.917287
vt 0.788982 1.917287
vt 0.788982 1.917287
vt 0.788982 1.917287
vt 0.788982 1.917287
vt 0.788982 1.917287
vt 0.788982 1.917287
vt 0.788982 1.917287
vt 0.788982 1.917287
vt 0.788982 1.917287
vt 0.788982 1.917287
vt 0.788982 1.917287
vt 0.788982 1.917287
vt 0.788982 1.917287
vt 0.788982 1.917287
vt 0.847886 1.908420
vt 0.781225 1.884937
vt 0.847886 1.884937
vt 0.781225 1.931903
vt 0.781225 1.908420
vt 0.847886 1.931902
vt 0.788982 1.917287
vt 0.788982 1.917287
vt 0.788982 1.917287
vt 0.818741 1.891814
vt 0.818741 1.891814
vt 0.818741 1.891814
vt 0.818741 1.891814
vt 0.788982 1.917287
vt 0.788982 1.917287
vt 0.788982 1.917287
vt 0.788982 1.917287
vt 0.788982 1.917287
vt 0.788982 1.917287
vt 0.788982 1.917287
vt 0.788982 1.917287
vt 0.788982 1.917287
vt 0.788982 1.917287
vt 0.788982 1.917287
vt 0.788982 1.917287
vt 0.788982 1.917287
vt 0.788982 1.917287
vt 0.847886 1.908420
vt 0.781225 1.931903
vt 0.781225 1.908420
vt 0.788982 1.917287
vt 0.788982 1.917287
vt 0.788982 1.917287
vt 0.788982 1.917287
vt 0.788982 1.917287
vt 0.840936 1.887458
vt 0.792311 1.887458
vt 0.840936 1.881946
vt 0.840936 1.892971
vt 0.792311 1.892971
vt 0.840936 1.887458
vt 0.818741 1.891814
vt 0.818741 1.891814
vt 0.818741 1.891814
vt 0.818741 1.891814
vt 0.788982 1.917287
vt 0.788982 1.917287
vt 0.788982 1.917287
vt 0.788982 1.917287
vt 0.788982 1.917287
vt 0.788982 1.917287
vt 0.788982 1.917287
vt 0.788982 1.917287
vt 0.788982 1.917287
vt 0.788982 1.917287
vt 0.788982 1.917287
vt 0.788982 1.917287
vt 0.788982 1.917287
vt 0.788982 1.917287
vt 0.788982 1.917287
vt 0.847886 1.908420
vt 0.781225 1.884937
vt 0.847886 1.884937
vt 0.847886 1.931902
vt 0.781225 1.931903
vt 0.788982 1.917287
vt 0.788982 1.917287
vt 0.792311 1.887458
vt 0.840936 1.881946
vt 0.792311 1.881946
vt 0.840936 1.887458
vt 0.792311 1.892971
vt 0.792311 1.887458
vt 0.818741 1.891814
vt 0.818741 1.891814
vt 0.818741 1.891814
vt 0.818741 1.891814
vt 0.788982 1.917287
vt 0.788982 1.917287
vt 0.788982 1.917287
vt 0.788982 1.917287
vt 0.788982 1.917287
vt 0.788982 1.917287
vt 0.788982 1.917287
vt 0.788982 1.917287
vt 0.788982 1.917287
vt 0.788982 1.917287
vt 0.788982 1.917287
vt 0.788982 1.917287
vt 0.788982 1.917287
vt 0.788982 1.917287
vt 0.788982 1.917287
vt 0.788982 1.917287
vt 0.847886 1.884937
vt 0.781225 1.908420
vt 0.781225 1.884937
vt 0.847886 1.908420
vt 0.781225 1.931903
vt 0.788982 1.917287
vt 0.788982 1.917287
vt 0.788982 1.917287
vt 0.788982 1.917287
vt 0.840936 1.881946
vt 0.792311 1.881946
vt 0.840936 1.892971
vt 0.792310 1.892971
vt 0.792310 1.887458
vt 0.788982 1.917287
vt 0.788982 1.917287
vt 0.788982 1.917287
vt 0.781225 1.908420
vt 0.847886 1.884937
vt 0.847886 1.908420
vt 0.840936 1.887458
vt 0.792310 1.881946
vt 0.840936 1.881946
vt 0.840936 1.892971
vt 0.792310 1.892971
vt 0.792310 1.887458
vt 0.840936 1.887458
vt 0.788982 1.917287
vt 0.788982 1.917287
vt 0.847886 1.908420
vt 0.781225 1.884937
vt 0.847886 1.884937
vt 0.781225 1.908420
vt 0.847886 1.931903
vt 0.781225 1.931902
vt 0.792310 1.881946
vt 0.840936 1.881946
vt 0.792310 1.887458
vt 0.840936 1.887458
vt 0.840936 1.892971
vt 0.788982 1.917287
vt 0.788982 1.917287
vt 0.781225 1.908420
vt 0.847886 1.884937
vt 0.847886 1.908420
vt 0.847886 1.931903
vt 0.788982 1.917287
vt 0.788982 1.917287
vt 0.840936 1.892971
vt 0.792310 1.892971
vt 0.792310 1.887458
vt 0.788982 1.917287
vt 0.781225 1.908420
vt 0.847886 1.931903
vt 0.781225 1.931902
vt 0.818741 1.891814
vt 0.818741 1.891814
vt 0.818741 1.891814
vt 0.818741 1.891814
vt 0.818741 1.891814
vt 0.818741 1.891814
vt 0.818741 1.891814
vt 0.818741 1.891814
vt 0.818741 1.891814
vt 0.818741 1.891814
vt 0.818741 1.891814
vt 0.818741 1.891814
vt 0.818741 1.891814
vt 0.818741 1.891814
vt 0.818741 1.891814
vt 0.818741 1.891814
vt 0.818741 1.891814
vt 0.818741 1.891814
vt 0.818741 1.891814
vt 0.818741 1.891814
vt 0.818741 1.891814
vt 0.818741 1.891814
vt 0.818741 1.891814
vt 0.818741 1.891814
vt 0.818741 1.891814
vt 0.818741 1.891814
vt 0.818741 1.891814
vt 0.818741 1.891814
vt 0.818741 1.891814
vt 0.818741 1.891814
vt 0.818741 1.891814
vt 0.818741 1.891814
vn 0.4247 -0.9053 -0.0044
vn -0.9862 -0.1653 0.0000
vn -0.9861 -0.1663 0.0000
vn -0.9864 -0.1642 0.0000
vn 0.3748 -0.9269 -0.0194
vn 0.3823 -0.9240 -0.0040
vn 0.4017 -0.9158 0.0054
vn 0.3824 -0.9240 -0.0040
vn 0.3954 -0.9183 -0.0195
vn 0.1994 -0.9776 -0.0666
vn 0.1658 -0.9862 -0.0005
vn 0.1656 -0.9862 -0.0001
vn 0.1656 -0.9862 0.0000
vn 0.1654 -0.9862 -0.0004
vn 0.1654 -0.9862 -0.0005
vn 0.2188 -0.9733 -0.0689
vn 0.2189 -0.9733 -0.0689
vn 0.2193 -0.9752 -0.0304
vn 0.2192 -0.9752 -0.0305
vn 0.3043 -0.9484 -0.0888
vn 0.3044 -0.9484 -0.0888
vn 0.3043 -0.9484 -0.0889
vn 0.3174 -0.9322 -0.1739
vn 0.3174 -0.9322 -0.1738
vn 0.3174 -0.9322 -0.1737
vn 0.3174 -0.9322 -0.1740
vn -0.9823 0.1872 -0.0000
vn -0.9824 0.1866 0.0000
vn -0.9824 0.1868 0.0000
vn -0.9824 0.1870 -0.0000
vn 0.0295 -0.9994 -0.0194
vn 0.0374 -0.9993 -0.0040
vn 0.0585 -0.9983 0.0054
vn 0.0375 -0.9993 -0.0040
vn 0.0519 -0.9985 -0.0194
vn 0.0375 -0.9993 -0.0039
vn -0.1525 -0.9861 -0.0666
vn -0.1522 -0.9861 -0.0663
vn -0.1524 -0.9861 -0.0665
vn -0.1526 -0.9860 -0.0667
vn -0.1872 -0.9823 0.0003
vn -0.1329 -0.9887 -0.0689
vn -0.1331 -0.9906 -0.0305
vn -0.1216 -0.9926 -0.0050
vn -0.1068 -0.9662 -0.2347
vn -0.1068 -0.9661 -0.2349
vn -0.0437 -0.9951 -0.0889
vn -0.0261 -0.9845 -0.1735
vn -0.0261 -0.9844 -0.1741
vn -0.0261 -0.9844 -0.1742
vn -0.0544 -0.9903 -0.1280
vn -0.1875 -0.9823 0.0000
vn -0.9862 -0.1655 0.0000
vn -0.9863 -0.1652 0.0000
vn -0.9863 -0.1648 0.0000
vn 0.3749 -0.9269 -0.0194
vn 0.4017 -0.9157 0.0053
vn 0.3822 -0.9241 -0.0041
vn 0.3825 -0.9240 -0.0040
vn 0.3955 -0.9182 -0.0194
vn 0.1995 -0.9776 -0.0666
vn 0.1658 -0.9862 0.0000
vn 0.1655 -0.9862 0.0000
vn 0.2188 -0.9733 -0.0688
vn 0.2193 -0.9752 -0.0305
vn 0.2302 -0.9731 -0.0050
vn 0.3046 -0.9483 -0.0888
vn 0.3039 -0.9485 -0.0889
vn 0.3047 -0.9483 -0.0888
vn 0.1654 -0.9862 0.0000
vn 0.0253 -0.9997 -0.0044
vn -0.9697 0.2444 -0.0000
vn -0.9696 0.2446 0.0000
vn -0.9696 0.2447 -0.0000
vn -0.0210 -0.9998 -0.0041
vn 0.0001 -1.0000 0.0053
vn -0.0001 -1.0000 0.0053
vn -0.0213 -0.9998 -0.0040
vn -0.0213 -0.9998 -0.0041
vn -0.0212 -0.9998 -0.0040
vn -0.0068 -0.9998 -0.0194
vn -0.0212 -0.9998 -0.0039
vn -0.2101 -0.9754 -0.0665
vn -0.2100 -0.9754 -0.0667
vn -0.2446 -0.9696 -0.0001
vn -0.2446 -0.9696 -0.0004
vn -0.2446 -0.9696 0.0000
vn -0.2445 -0.9697 -0.0001
vn -0.2445 -0.9697 -0.0000
vn -0.2445 -0.9696 0.0000
vn -0.2445 -0.9697 -0.0002
vn -0.1906 -0.9792 -0.0689
vn -0.1906 -0.9793 -0.0689
vn -0.1910 -0.9811 -0.0305
vn -0.1799 -0.9837 -0.0050
vn -0.1632 -0.9582 -0.2350
vn -0.0839 -0.9812 -0.1739
vn -0.0839 -0.9812 -0.1738
vn -0.0840 -0.9812 -0.1738
vn -0.1124 -0.9854 -0.1280
vn -0.1125 -0.9854 -0.1281
vn -0.2448 -0.9696 0.0000
vn -0.4246 0.9054 0.0044
vn -0.3748 0.9269 0.0194
vn -0.3823 0.9240 0.0040
vn -0.4018 0.9157 -0.0054
vn -0.3822 0.9241 0.0040
vn -0.3822 0.9241 0.0038
vn -0.3954 0.9183 0.0193
vn -0.1996 0.9776 0.0662
vn -0.2187 0.9734 0.0689
vn -0.2187 0.9733 0.0689
vn -0.2302 0.9731 0.0050
vn -0.2304 0.9731 0.0050
vn -0.2305 0.9731 0.0050
vn -0.2355 0.9431 0.2348
vn -0.2355 0.9431 0.2346
vn -0.2355 0.9431 0.2345
vn -0.2928 0.9475 0.1282
vn -0.2929 0.9475 0.1279
vn -0.2930 0.9475 0.1278
vn -0.1658 0.9862 0.0000
vn -0.0838 0.9965 0.0044
vn -0.0837 0.9965 0.0044
vn -0.0294 0.9994 0.0194
vn -0.0374 0.9993 0.0040
vn -0.0586 0.9983 -0.0054
vn -0.0375 0.9993 0.0040
vn -0.0373 0.9993 0.0040
vn -0.0517 0.9985 0.0195
vn 0.1873 0.9823 -0.0003
vn 0.1873 0.9823 0.0000
vn 0.1329 0.9887 0.0689
vn 0.1330 0.9887 0.0689
vn 0.1328 0.9887 0.0689
vn 0.1331 0.9887 0.0689
vn 0.1332 0.9906 0.0305
vn 0.1220 0.9925 0.0050
vn 0.0445 0.9951 0.0888
vn 0.0543 0.9903 0.1282
vn 0.1875 0.9823 0.0000
vn -0.4247 0.9053 0.0044
vn -0.4016 0.9158 -0.0055
vn -0.3822 0.9241 0.0039
vn -0.3820 0.9242 0.0040
vn -0.3821 0.9241 0.0041
vn -0.3953 0.9183 0.0196
vn -0.1995 0.9776 0.0665
vn -0.1657 0.9862 -0.0006
vn -0.1655 0.9862 0.0000
vn -0.2188 0.9733 0.0689
vn -0.2188 0.9733 0.0690
vn -0.2192 0.9752 0.0305
vn -0.2308 0.9730 0.0050
vn -0.2309 0.9730 0.0050
vn -0.2355 0.9430 0.2350
vn -0.2354 0.9431 0.2348
vn -0.2354 0.9431 0.2349
vn -0.2356 0.9430 0.2350
vn -0.3174 0.9322 0.1739
vn -0.3174 0.9322 0.1740
vn -0.2930 0.9475 0.1279
vn -0.2930 0.9475 0.1283
vn -0.0254 0.9997 0.0044
vn 0.0292 0.9994 0.0194
vn 0.0293 0.9994 0.0194
vn 0.0212 0.9998 0.0040
vn 0.0212 0.9998 0.0042
vn 0.0068 0.9998 0.0197
vn 0.1906 0.9792 0.0689
vn 0.1909 0.9811 0.0305
vn 0.1802 0.9836 0.0050
vn 0.1632 0.9583 0.2347
vn 0.1024 0.9908 0.0888
vn 0.1026 0.9907 0.0888
vn 0.0838 0.9813 0.1734
vn 0.0838 0.9813 0.1733
vn 0.1123 0.9854 0.1280
vn 0.1171 -0.6974 -0.7070
vn -0.0745 0.4436 -0.8931
vn 0.0744 -0.4432 -0.8933
vn 0.1377 -0.8200 0.5556
vn -0.1171 0.6973 -0.7072
vn 0.1171 -0.6974 0.7070
vn -0.1377 0.8204 0.5550
vn -0.1171 0.6973 0.7072
vn -0.6839 0.7296 -0.0000
vn -0.5804 -0.8143 0.0000
vn -0.8148 0.5797 0.0000
vn 0.5801 0.8146 -0.0001
vn -0.4089 -0.9126 0.0000
vn 0.8097 0.5868 -0.0001
vn 0.8144 -0.5803 -0.0001
vn 0.9568 -0.2907 -0.0001
vn -0.1323 -0.6944 -0.7073
vn 0.0841 0.4415 -0.8933
vn -0.0842 -0.4416 -0.8932
vn -0.1557 -0.8169 0.5554
vn 0.1324 0.6948 -0.7069
vn -0.1323 -0.6944 0.7073
vn 0.1557 0.8170 0.5552
vn 0.1324 0.6948 0.7069
vn -0.5618 0.8273 0.0000
vn -0.7002 -0.7139 0.0000
vn -0.8272 -0.5619 0.0000
vn 0.5624 -0.8268 -0.0001
vn -0.3889 0.9213 0.0000
vn 0.7963 -0.6049 -0.0001
vn 0.8269 0.5624 -0.0001
vn 0.9631 0.2690 -0.0001
vn -0.0744 0.4431 -0.8934
vn 0.0744 -0.4433 -0.8933
vn -0.1171 0.6972 -0.7072
vn -0.1377 0.8204 0.5549
vn -0.6835 0.7300 0.0000
vn -0.5802 -0.8145 0.0000
vn -0.8145 0.5802 0.0000
vn 0.5811 0.8138 -0.0001
vn -0.4083 -0.9129 0.0000
vn 0.8099 0.5865 -0.0001
vn 0.8139 -0.5810 -0.0001
vn 0.9568 -0.2906 -0.0001
vn -0.1101 -0.4364 -0.8930
vn 0.1729 0.6858 -0.7069
vn 0.1099 0.4357 -0.8933
vn 0.2034 0.8064 0.5553
vn -0.1729 -0.6855 -0.7073
vn 0.1729 0.6858 0.7069
vn -0.2033 -0.8060 0.5559
vn -0.1728 -0.6855 0.7073
vn -0.5129 0.8584 0.0000
vn -0.7400 -0.6726 -0.0000
vn -0.8586 -0.5127 0.0000
vn 0.5128 -0.8585 -0.0001
vn -0.3335 0.9428 -0.0000
vn 0.7595 -0.6505 -0.0001
vn 0.8581 0.5135 -0.0001
vn 0.9773 0.2117 -0.0001
usemtl EnvironmentMat
s 1
f 2/1/1 3/2/1 4/3/1
f 5/4/2 7/5/2 6/6/3
f 7/5/2 5/4/2 8/7/4
f 11/8/5 9/9/5 12/10/5
f 3/11/6 13/12/7 4/13/7
f 15/14/6 3/11/8 1/15/8
f 16/16/9 15/14/6 1/15/8
f 16/16/10 12/10/10 9/9/10
f 17/17/11 19/18/11 18/19/11
f 17/17/12 18/19/13 20/20/13
f 21/21/14 17/17/12 20/20/13
f 17/17/12 21/21/14 22/22/15
f 20/23/16 23/24/16 21/25/16
f 20/23/17 25/26/18 24/27/17
f 18/28/19 25/26/19 20/23/16
f 9/9/20 22/22/21 21/21/21
f 9/9/20 21/21/21 23/29/22
f 25/30/23 16/16/24 24/31/25
f 16/16/24 25/30/23 15/14/26
f 30/32/27 32/33/28 31/34/29
f 31/34/29 32/33/28 33/35/30
f 34/36/31 35/37/31 37/38/31
f 28/39/32 38/40/33 29/41/33
f 40/42/34 28/39/34 26/43/34
f 41/44/35 26/43/36 27/45/35
f 41/44/37 35/37/38 36/46/39
f 35/37/38 41/44/37 27/45/40
f 42/47/41 46/48/41 47/49/41
f 45/50/42 50/51/43 49/52/42
f 40/42/44 43/53/44 44/54/44
f 48/55/45 49/56/46 41/44/45
f 41/44/45 36/46/45 48/55/45
f 47/49/47 48/55/47 36/46/47
f 50/57/48 41/44/48 49/56/48
f 41/44/49 50/57/50 40/42/50
f 37/38/51 38/40/51 34/36/51
f 27/58/52 29/59/52 35/60/52
f 51/61/1 53/62/1 52/63/1
f 55/64/53 57/65/54 56/66/54
f 56/66/54 57/65/54 58/67/55
f 61/68/5 59/69/56 62/70/5
f 63/71/57 53/72/58 64/73/58
f 65/74/6 53/72/59 51/75/8
f 66/76/60 65/74/6 51/75/8
f 62/70/61 66/76/61 52/77/61
f 67/78/62 68/79/62 70/80/62
f 67/78/63 71/81/63 72/82/63
f 70/83/64 73/84/64 71/85/64
f 68/86/65 75/87/65 70/83/17
f 65/74/66 68/79/66 69/88/66
f 59/69/67 72/82/68 71/81/68
f 59/69/67 71/81/68 73/89/69
f 52/63/70 54/90/70 62/91/70
f 62/91/70 54/90/70 61/92/70
f 77/93/71 78/94/71 79/95/71
f 80/96/72 82/97/73 81/98/73
f 81/98/73 82/97/73 83/99/74
f 78/100/75 88/101/76 79/102/76
f 88/101/77 78/100/78 89/103/79
f 90/104/80 89/103/79 78/100/78
f 91/105/81 76/106/82 77/107/81
f 91/105/83 85/108/83 86/109/83
f 85/108/84 91/105/84 77/107/84
f 92/110/85 94/111/86 93/112/86
f 92/110/85 93/112/86 95/113/87
f 96/114/88 92/110/89 95/113/90
f 92/110/89 96/114/88 97/115/91
f 96/116/92 99/117/92 98/118/92
f 95/119/93 99/117/93 96/116/93
f 95/119/92 100/120/94 99/117/92
f 93/112/95 90/104/95 100/121/95
f 98/122/96 99/123/96 91/105/96
f 91/105/97 100/121/98 90/104/99
f 79/102/100 88/101/100 87/124/101
f 77/93/102 79/95/102 85/125/102
f 85/125/102 79/95/102 87/126/102
f 3/127/103 1/128/103 2/129/103
f 11/8/104 9/9/104 10/130/104
f 3/11/105 13/12/106 14/131/107
f 14/131/107 15/14/107 3/11/105
f 1/15/108 16/16/109 2/132/109
f 16/16/110 12/10/110 2/132/110
f 20/133/111 23/134/111 24/135/112
f 18/19/113 15/14/114 19/18/113
f 15/14/114 18/19/113 25/30/115
f 23/29/116 16/16/117 24/31/118
f 16/16/117 23/29/116 9/9/116
f 4/13/119 11/8/120 13/12/120
f 11/8/120 10/130/121 13/12/120
f 4/136/122 2/129/122 12/137/122
f 12/137/122 11/138/122 4/136/122
f 28/139/123 26/140/124 27/141/124
f 27/141/124 29/142/123 28/139/123
f 36/46/125 34/36/125 35/37/125
f 28/39/126 38/40/127 39/143/128
f 40/42/129 28/39/126 39/143/128
f 40/42/126 41/44/130 26/43/126
f 44/54/131 42/47/132 43/53/132
f 45/144/132 43/53/132 42/47/132
f 42/47/132 46/48/132 45/144/132
f 49/145/133 46/146/133 48/147/134
f 46/146/133 49/145/133 45/148/135
f 45/148/136 50/149/137 43/150/137
f 40/42/138 43/53/138 50/57/138
f 47/49/139 48/55/139 46/48/139
f 29/41/140 37/38/140 38/40/140
f 35/151/141 37/152/141 29/142/141
f 52/153/142 54/154/142 53/155/142
f 61/68/104 59/69/104 60/156/104
f 63/71/143 53/72/144 54/157/143
f 64/73/145 65/74/145 53/72/145
f 51/75/146 66/76/147 52/77/147
f 62/70/148 66/76/148 59/69/148
f 69/88/149 67/78/149 68/79/149
f 67/78/150 71/81/150 70/80/150
f 70/158/151 73/159/152 74/160/151
f 75/161/153 70/158/151 74/160/151
f 65/74/154 68/79/155 75/162/155
f 73/89/156 66/76/157 74/163/158
f 66/76/157 73/89/156 59/69/159
f 66/76/160 75/162/161 74/163/160
f 75/162/161 66/76/160 65/74/161
f 54/157/162 61/68/162 63/71/162
f 61/68/163 60/156/163 63/71/163
f 78/164/164 76/165/164 77/166/164
f 86/109/165 84/167/165 85/108/165
f 85/108/166 84/167/165 87/124/166
f 78/100/167 90/104/167 76/106/167
f 90/104/168 91/105/169 76/106/168
f 95/168/170 100/169/171 93/170/171
f 93/112/172 90/104/172 94/111/172
f 91/105/173 98/122/173 86/109/173
f 97/115/174 98/122/175 96/114/174
f 98/122/175 97/115/174 86/109/175
f 91/105/176 100/121/177 99/123/177
f 87/124/178 84/167/178 88/101/178
f 6/6/179 102/171/180 101/172/181
f 103/173/182 6/6/179 101/172/181
f 102/171/180 6/6/179 7/5/183
f 6/6/179 103/173/182 5/4/184
f 102/171/180 7/5/183 104/174/185
f 103/173/182 8/7/186 5/4/184
f 8/7/186 103/173/182 104/174/185
f 104/174/185 7/5/183 8/7/186
f 104/174/187 106/175/188 105/176/189
f 107/177/190 104/174/187 105/176/189
f 103/173/191 106/175/188 104/174/187
f 104/174/187 107/177/190 102/171/192
f 103/173/191 108/178/193 106/175/188
f 107/177/190 101/172/194 102/171/192
f 101/172/194 108/178/193 103/173/191
f 101/172/194 107/177/190 108/178/193
f 30/32/195 110/179/196 109/180/197
f 111/181/198 30/32/195 109/180/197
f 31/34/199 110/179/196 30/32/195
f 30/32/195 111/181/198 32/33/200
f 110/179/196 31/34/199 112/182/201
f 112/182/201 32/33/200 111/181/198
f 112/182/201 31/34/199 33/35/202
f 32/33/200 112/182/201 33/35/202
f 113/183/203 111/181/204 114/184/205
f 111/181/204 115/185/206 114/184/205
f 111/181/204 113/183/203 112/182/207
f 109/180/208 115/185/206 111/181/204
f 116/186/209 112/182/207 113/183/203
f 109/180/208 116/186/209 115/185/206
f 112/182/207 116/186/209 110/179/210
f 110/179/210 116/186/209 109/180/208
f 55/64/179 118/187/211 117/188/212
f 119/189/182 55/64/179 117/188/212
f 118/187/211 55/64/179 56/66/213
f 55/64/179 119/189/182 57/65/184
f 118/187/211 56/66/213 120/190/214
f 119/189/182 58/67/186 57/65/184
f 58/67/186 119/189/182 120/190/214
f 120/190/214 56/66/213 58/67/186
f 120/190/215 122/191/216 121/192/217
f 123/193/218 120/190/215 121/192/217
f 119/189/219 122/191/216 120/190/215
f 120/190/215 123/193/218 118/187/220
f 119/189/219 124/194/221 122/191/216
f 123/193/218 117/188/222 118/187/220
f 117/188/222 124/194/221 119/189/219
f 117/188/222 123/193/218 124/194/221
f 125/195/223 81/98/224 126/196/225
f 126/196/225 81/98/224 127/197/226
f 81/98/224 125/195/223 80/96/227
f 127/197/226 81/98/224 83/99/228
f 128/198/229 80/96/227 125/195/223
f 83/99/228 128/198/229 127/197/226
f 80/96/227 128/198/229 82/97/230
f 128/198/229 83/99/228 82/97/230
f 129/199/231 128/198/232 130/200/233
f 128/198/232 131/201/234 130/200/233
f 128/198/232 129/199/231 127/197/235
f 125/195/236 131/201/234 128/198/232
f 132/202/237 127/197/235 129/199/231
f 125/195/236 132/202/237 131/201/234
f 127/197/235 132/202/237 126/196/238
f 126/196/238 132/202/237 125/195/236
