# Blender v3.4.1 OBJ File: 'track.blend'
# www.blender.org
mtllib _0FLAG_AC_000_Scene.034.mtl
o _0FLAG_AC_000_Scene.034
v 262.167603 647.811279 -6.686696
v 261.856812 647.704590 -6.686696
v 262.168091 647.786011 -3.925418
v 261.856812 647.704590 -3.925418
v 261.256195 647.822510 -8.692126
v 261.256195 647.822510 -8.742930
v 261.255096 647.873291 -8.742930
v 261.255096 647.873291 -8.692126
v 261.268585 647.691833 -6.994965
v 261.271301 647.569580 -3.593088
v 261.543793 647.697815 -3.925418
v 261.543793 647.697815 -6.686696
v 261.865997 647.704773 -3.593088
v 262.460114 647.872375 -3.593088
v 262.460114 647.872375 -6.994967
v 261.865295 647.736572 -6.994965
v 261.862701 647.859619 -8.691173
v 262.344604 647.869995 -8.527270
v 262.460114 647.872375 -8.691173
v 261.862701 647.859619 -8.527270
v 261.380707 647.849182 -8.527270
v 261.265289 647.846680 -8.691173
v 261.386200 647.728271 -7.158868
v 261.864105 647.791382 -7.158868
v 262.342102 647.854370 -7.158868
v 261.581207 644.479370 -6.686697
v 261.252686 644.487183 -6.686696
v 261.572906 644.455505 -3.925418
v 261.252686 644.487183 -3.925418
v 260.730499 644.806519 -8.742931
v 260.747101 644.854370 -8.742931
v 260.730499 644.806519 -8.692127
v 260.747101 644.854370 -8.692127
v 260.656708 644.564026 -3.593089
v 260.956787 644.589600 -6.686696
v 260.696686 644.679565 -6.994966
v 260.956787 644.589600 -3.925418
v 261.261414 644.484192 -3.593089
v 261.876709 644.435120 -3.593089
v 261.876709 644.435120 -6.994966
v 261.271790 644.514282 -6.994966
v 261.312012 644.630615 -8.691174
v 261.767609 644.472900 -8.527271
v 261.876709 644.435120 -8.691174
v 261.312012 644.630615 -8.527271
v 260.856506 644.788208 -8.527270
v 260.747406 644.825989 -8.691174
v 260.819702 644.672974 -7.158868
v 261.289703 644.566101 -7.158869
v 261.759796 644.459229 -7.158869
v 260.506989 639.302612 -6.686697
v 260.196289 639.195923 -6.686696
v 260.507599 639.277222 -3.925418
v 260.196289 639.195923 -3.925418
v 259.595703 639.313782 -8.742930
v 259.594604 639.364624 -8.742930
v 259.595703 639.313782 -8.692127
v 259.594604 639.364624 -8.692127
v 259.608093 639.183228 -6.994966
v 259.610687 639.060913 -3.593089
v 259.883301 639.189087 -3.925418
v 259.883301 639.189087 -6.686696
v 260.205505 639.196106 -3.593089
v 260.799500 639.363708 -3.593089
v 260.799500 639.363708 -6.994966
v 260.204803 639.227905 -6.994966
v 260.202087 639.350891 -8.691175
v 260.684113 639.361328 -8.527271
v 260.799500 639.363708 -8.691175
v 260.202087 639.350891 -8.527271
v 259.720215 639.340515 -8.527270
v 259.604797 639.338013 -8.691173
v 259.725708 639.219727 -7.158869
v 260.203613 639.282715 -7.158869
v 260.681488 639.345703 -7.158869
v 260.963989 641.795715 -6.686697
v 260.636505 641.822815 -6.686697
v 260.954315 641.772278 -3.925418
v 260.636505 641.822815 -3.925418
v 260.133911 642.171997 -8.742930
v 260.153290 642.218872 -8.742930
v 260.133911 642.171997 -8.692127
v 260.153290 642.218872 -8.692127
v 260.046112 641.934326 -3.593088
v 260.347198 641.942261 -6.686697
v 260.092804 642.047424 -6.994966
v 260.347198 641.942261 -3.925418
v 260.644989 641.819214 -3.593089
v 261.256409 641.734070 -3.593089
v 261.256409 641.734070 -6.994966
v 260.657196 641.848511 -6.994966
v 260.704193 641.962280 -8.691174
v 261.149689 641.778320 -8.527270
v 261.256409 641.734070 -8.691174
v 260.704193 641.962280 -8.527270
v 260.258606 642.146362 -8.527270
v 260.151886 642.190491 -8.691174
v 260.215057 642.033630 -7.158869
v 260.678101 641.899292 -7.158869
v 261.141113 641.765015 -7.158869
v 262.502014 647.849426 -8.742930
v 262.500885 647.900085 -8.742930
v 262.451691 647.848328 -8.692127
v 262.450592 647.898987 -8.692127
v 262.450897 647.899109 -2.742435
v 262.451996 647.848328 -2.742435
v 262.501709 647.900085 -2.742435
v 262.502686 647.849426 -2.742435
v 261.907898 644.398865 -8.742931
v 261.924591 644.447021 -8.742931
v 261.860413 644.415283 -8.692127
v 261.877014 644.463318 -8.692127
v 261.877289 644.463318 -2.742436
v 261.860687 644.415283 -2.742436
v 261.908691 644.398682 -2.742436
v 261.925293 644.446716 -2.742436
v 260.841400 639.340698 -8.742931
v 260.840302 639.391479 -8.742931
v 260.791199 639.339600 -8.692128
v 260.790100 639.390381 -8.692128
v 260.790314 639.390381 -2.742436
v 260.791412 639.339600 -2.742436
v 260.841095 639.391479 -2.742436
v 260.842194 639.340698 -2.742436
v 261.285492 641.696167 -8.742931
v 261.304901 641.743042 -8.742931
v 261.258392 641.762329 -8.692127
v 261.239014 641.715393 -8.692127
v 261.258698 641.762146 -2.742435
v 261.239288 641.715271 -2.742435
v 261.286194 641.695923 -2.742435
v 261.305603 641.742798 -2.742435
vt 0.840936 1.887458
vt 0.792311 1.892971
vt 0.792311 1.887458
vt 0.818741 1.891814
vt 0.818741 1.891814
vt 0.818741 1.891814
vt 0.818741 1.891814
vt 0.788982 1.917287
vt 0.788982 1.917287
vt 0.788982 1.917287
vt 0.788982 1.917287
vt 0.788982 1.917287
vt 0.788982 1.917287
vt 0.788982 1.917287
vt 0.788982 1.917287
vt 0.788982 1.917287
vt 0.788982 1.917287
vt 0.788982 1.917287
vt 0.788982 1.917287
vt 0.788982 1.917287
vt 0.788982 1.917287
vt 0.788982 1.917287
vt 0.847886 1.908420
vt 0.781225 1.884937
vt 0.847886 1.884937
vt 0.781225 1.931903
vt 0.781225 1.908420
vt 0.847886 1.931902
vt 0.788982 1.917287
vt 0.788982 1.917287
vt 0.788982 1.917287
vt 0.818741 1.891814
vt 0.818741 1.891814
vt 0.818741 1.891814
vt 0.818741 1.891814
vt 0.788982 1.917287
vt 0.788982 1.917287
vt 0.788982 1.917287
vt 0.788982 1.917287
vt 0.788982 1.917287
vt 0.788982 1.917287
vt 0.788982 1.917287
vt 0.788982 1.917287
vt 0.788982 1.917287
vt 0.788982 1.917287
vt 0.788982 1.917287
vt 0.788982 1.917287
vt 0.788982 1.917287
vt 0.788982 1.917287
vt 0.847886 1.908420
vt 0.781225 1.931903
vt 0.781225 1.908420
vt 0.788982 1.917287
vt 0.788982 1.917287
vt 0.788982 1.917287
vt 0.788982 1.917287
vt 0.788982 1.917287
vt 0.840936 1.887458
vt 0.792311 1.887458
vt 0.840936 1.881946
vt 0.840936 1.892971
vt 0.792311 1.892971
vt 0.840936 1.887458
vt 0.818741 1.891814
vt 0.818741 1.891814
vt 0.818741 1.891814
vt 0.818741 1.891814
vt 0.788982 1.917287
vt 0.788982 1.917287
vt 0.788982 1.917287
vt 0.788982 1.917287
vt 0.788982 1.917287
vt 0.788982 1.917287
vt 0.788982 1.917287
vt 0.788982 1.917287
vt 0.788982 1.917287
vt 0.788982 1.917287
vt 0.788982 1.917287
vt 0.788982 1.917287
vt 0.788982 1.917287
vt 0.788982 1.917287
vt 0.788982 1.917287
vt 0.847886 1.908420
vt 0.781225 1.884937
vt 0.847886 1.884937
vt 0.847886 1.931902
vt 0.781225 1.931903
vt 0.788982 1.917287
vt 0.788982 1.917287
vt 0.792311 1.887458
vt 0.840936 1.881946
vt 0.792311 1.881946
vt 0.840936 1.887458
vt 0.792311 1.892971
vt 0.792311 1.887458
vt 0.818741 1.891814
vt 0.818741 1.891814
vt 0.818741 1.891814
vt 0.818741 1.891814
vt 0.788982 1.917287
vt 0.788982 1.917287
vt 0.788982 1.917287
vt 0.788982 1.917287
vt 0.788982 1.917287
vt 0.788982 1.917287
vt 0.788982 1.917287
vt 0.788982 1.917287
vt 0.788982 1.917287
vt 0.788982 1.917287
vt 0.788982 1.917287
vt 0.788982 1.917287
vt 0.788982 1.917287
vt 0.788982 1.917287
vt 0.788982 1.917287
vt 0.788982 1.917287
vt 0.847886 1.884937
vt 0.781225 1.908420
vt 0.781225 1.884937
vt 0.847886 1.908420
vt 0.781225 1.931903
vt 0.788982 1.917287
vt 0.788982 1.917287
vt 0.788982 1.917287
vt 0.788982 1.917287
vt 0.840936 1.881946
vt 0.792311 1.881946
vt 0.840936 1.892971
vt 0.792310 1.892971
vt 0.792310 1.887458
vt 0.788982 1.917287
vt 0.788982 1.917287
vt 0.788982 1.917287
vt 0.781225 1.908420
vt 0.847886 1.884937
vt 0.847886 1.908420
vt 0.840936 1.887458
vt 0.792310 1.881946
vt 0.840936 1.881946
vt 0.840936 1.892971
vt 0.792310 1.892971
vt 0.792310 1.887458
vt 0.840936 1.887458
vt 0.788982 1.917287
vt 0.788982 1.917287
vt 0.847886 1.908420
vt 0.781225 1.884937
vt 0.847886 1.884937
vt 0.781225 1.908420
vt 0.847886 1.931903
vt 0.781225 1.931902
vt 0.792310 1.881946
vt 0.840936 1.881946
vt 0.792310 1.887458
vt 0.840936 1.887458
vt 0.840936 1.892971
vt 0.788982 1.917287
vt 0.788982 1.917287
vt 0.781225 1.908420
vt 0.847886 1.884937
vt 0.847886 1.908420
vt 0.847886 1.931903
vt 0.788982 1.917287
vt 0.788982 1.917287
vt 0.840936 1.892971
vt 0.792310 1.892971
vt 0.792310 1.887458
vt 0.788982 1.917287
vt 0.781225 1.908420
vt 0.847886 1.931903
vt 0.781225 1.931902
vt 0.818741 1.891814
vt 0.818741 1.891814
vt 0.818741 1.891814
vt 0.818741 1.891814
vt 0.818741 1.891814
vt 0.818741 1.891814
vt 0.818741 1.891814
vt 0.818741 1.891814
vt 0.818741 1.891814
vt 0.818741 1.891814
vt 0.818741 1.891814
vt 0.818741 1.891814
vt 0.818741 1.891814
vt 0.818741 1.891814
vt 0.818741 1.891814
vt 0.818741 1.891814
vt 0.818741 1.891814
vt 0.818741 1.891814
vt 0.818741 1.891814
vt 0.818741 1.891814
vt 0.818741 1.891814
vt 0.818741 1.891814
vt 0.818741 1.891814
vt 0.818741 1.891814
vt 0.818741 1.891814
vt 0.818741 1.891814
vt 0.818741 1.891814
vt 0.818741 1.891814
vt 0.818741 1.891814
vt 0.818741 1.891814
vt 0.818741 1.891814
vt 0.818741 1.891814
vn 0.2897 -0.9571 -0.0044
vn -0.9998 -0.0218 0.0000
vn -0.9998 -0.0214 0.0000
vn -0.9998 -0.0222 0.0000
vn 0.2367 -0.9714 -0.0194
vn 0.2366 -0.9714 -0.0194
vn 0.2449 -0.9695 -0.0040
vn 0.2654 -0.9641 0.0054
vn 0.2446 -0.9696 -0.0039
vn 0.2445 -0.9696 -0.0039
vn 0.2585 -0.9658 -0.0194
vn 0.0565 -0.9962 -0.0665
vn 0.0213 -0.9998 0.0009
vn 0.0216 -0.9998 -0.0000
vn 0.0215 -0.9998 0.0000
vn 0.0217 -0.9998 -0.0001
vn 0.0217 -0.9998 -0.0002
vn 0.0760 -0.9947 -0.0688
vn 0.0757 -0.9947 -0.0689
vn 0.0759 -0.9966 -0.0305
vn 0.0761 -0.9966 -0.0304
vn 0.1635 -0.9825 -0.0887
vn 0.1648 -0.9823 -0.0889
vn 0.1634 -0.9826 -0.0887
vn 0.1795 -0.9682 -0.1743
vn -0.9450 0.3270 0.0000
vn -0.9448 0.3277 -0.0000
vn -0.1156 -0.9931 -0.0194
vn -0.1069 -0.9943 -0.0039
vn -0.0859 -0.9963 0.0055
vn -0.1071 -0.9942 -0.0040
vn -0.1071 -0.9942 -0.0041
vn -0.0928 -0.9955 -0.0196
vn -0.0927 -0.9955 -0.0196
vn -0.2932 -0.9537 -0.0665
vn -0.2931 -0.9538 -0.0665
vn -0.2932 -0.9537 -0.0666
vn -0.3270 -0.9450 0.0003
vn -0.2742 -0.9592 -0.0688
vn -0.2747 -0.9610 -0.0303
vn -0.2640 -0.9645 -0.0050
vn -0.2451 -0.9406 -0.2350
vn -0.2450 -0.9407 -0.2346
vn -0.2451 -0.9407 -0.2347
vn -0.2450 -0.9406 -0.2351
vn -0.1868 -0.9784 -0.0889
vn -0.1677 -0.9703 -0.1743
vn -0.1677 -0.9703 -0.1744
vn -0.1680 -0.9704 -0.1737
vn -0.1966 -0.9721 -0.1278
vn -0.1967 -0.9721 -0.1278
vn -0.3271 -0.9450 0.0000
vn 0.2894 -0.9572 -0.0044
vn -0.9998 -0.0221 0.0000
vn 0.2370 -0.9713 -0.0194
vn 0.2653 -0.9641 0.0054
vn 0.2449 -0.9695 -0.0041
vn 0.2450 -0.9695 -0.0040
vn 0.2587 -0.9658 -0.0196
vn 0.0564 -0.9962 -0.0665
vn 0.0760 -0.9947 -0.0690
vn 0.0761 -0.9947 -0.0690
vn 0.0760 -0.9966 -0.0305
vn 0.0761 -0.9966 -0.0305
vn 0.0759 -0.9947 -0.0689
vn 0.0874 -0.9962 -0.0050
vn 0.1639 -0.9825 -0.0887
vn 0.1638 -0.9825 -0.0889
vn 0.1637 -0.9825 -0.0889
vn 0.0213 -0.9998 -0.0000
vn 0.0218 -0.9998 0.0000
vn -0.1192 -0.9929 -0.0044
vn -0.9239 0.3826 0.0000
vn -0.9242 0.3820 0.0000
vn -0.9244 0.3813 0.0000
vn -0.1651 -0.9863 -0.0037
vn -0.1443 -0.9895 0.0057
vn -0.1443 -0.9895 0.0051
vn -0.1653 -0.9862 -0.0041
vn -0.1653 -0.9862 -0.0042
vn -0.1653 -0.9862 -0.0040
vn -0.1507 -0.9884 -0.0196
vn -0.1650 -0.9863 -0.0041
vn -0.1507 -0.9884 -0.0197
vn -0.3487 -0.9349 -0.0665
vn -0.3485 -0.9349 -0.0665
vn -0.3817 -0.9243 0.0003
vn -0.3817 -0.9243 0.0008
vn -0.3818 -0.9242 0.0009
vn -0.3820 -0.9242 -0.0000
vn -0.3819 -0.9242 -0.0005
vn -0.3818 -0.9242 -0.0001
vn -0.3818 -0.9243 0.0000
vn -0.3819 -0.9242 -0.0006
vn -0.3300 -0.9415 -0.0689
vn -0.3298 -0.9415 -0.0688
vn -0.3299 -0.9415 -0.0690
vn -0.3305 -0.9433 -0.0306
vn -0.3194 -0.9476 -0.0050
vn -0.3195 -0.9476 -0.0050
vn -0.2999 -0.9246 -0.2351
vn -0.2998 -0.9246 -0.2351
vn -0.2244 -0.9587 -0.1746
vn -0.2528 -0.9590 -0.1284
vn -0.3816 -0.9243 0.0000
vn -0.2901 0.9570 0.0044
vn -0.2371 0.9713 0.0194
vn -0.2453 0.9694 0.0041
vn -0.2651 0.9642 -0.0052
vn -0.2451 0.9695 0.0041
vn -0.2456 0.9694 0.0040
vn -0.2450 0.9695 0.0040
vn -0.2589 0.9657 0.0194
vn -0.2589 0.9657 0.0195
vn -0.0565 0.9962 0.0665
vn -0.0765 0.9947 0.0689
vn -0.0869 0.9962 0.0050
vn -0.0887 0.9960 0.0050
vn -0.0867 0.9962 0.0050
vn -0.0889 0.9960 0.0050
vn -0.0970 0.9672 0.2348
vn -0.0968 0.9671 0.2351
vn -0.0967 0.9671 0.2352
vn -0.1533 0.9799 0.1277
vn -0.1531 0.9799 0.1279
vn -0.1531 0.9799 0.1278
vn -0.1531 0.9799 0.1280
vn -0.0216 0.9998 0.0000
vn 0.0608 0.9981 0.0044
vn 0.0610 0.9981 0.0044
vn 0.0607 0.9981 0.0044
vn 0.1148 0.9932 0.0193
vn 0.1147 0.9932 0.0193
vn 0.1072 0.9942 0.0038
vn 0.0862 0.9963 -0.0058
vn 0.1073 0.9942 0.0038
vn 0.1073 0.9942 0.0040
vn 0.1071 0.9942 0.0039
vn 0.0928 0.9955 0.0194
vn 0.3272 0.9450 0.0000
vn 0.3271 0.9450 0.0000
vn 0.3270 0.9450 0.0000
vn 0.2741 0.9592 0.0689
vn 0.2741 0.9592 0.0690
vn 0.2742 0.9592 0.0689
vn 0.2740 0.9592 0.0690
vn 0.2747 0.9611 0.0304
vn 0.2747 0.9611 0.0305
vn 0.2647 0.9643 0.0050
vn 0.2646 0.9643 0.0050
vn 0.1886 0.9780 0.0889
vn 0.1970 0.9720 0.1281
vn 0.1970 0.9720 0.1280
vn -0.2897 0.9571 0.0044
vn -0.2655 0.9641 -0.0054
vn -0.2448 0.9696 0.0039
vn -0.2587 0.9658 0.0194
vn -0.0564 0.9962 0.0665
vn -0.0215 0.9998 0.0000
vn -0.0762 0.9947 0.0689
vn -0.0763 0.9947 0.0689
vn -0.0763 0.9966 0.0305
vn -0.0876 0.9961 0.0050
vn -0.0970 0.9671 0.2352
vn -0.0970 0.9672 0.2346
vn -0.0971 0.9673 0.2344
vn -0.0969 0.9671 0.2354
vn -0.1795 0.9683 0.1737
vn -0.1794 0.9682 0.1744
vn -0.1795 0.9684 0.1734
vn -0.1794 0.9682 0.1745
vn -0.1529 0.9800 0.1277
vn -0.1529 0.9800 0.1276
vn -0.1531 0.9799 0.1282
vn 0.1193 0.9928 0.0044
vn 0.1734 0.9847 0.0195
vn 0.1733 0.9847 0.0195
vn 0.1734 0.9847 0.0194
vn 0.1731 0.9847 0.0194
vn 0.1732 0.9847 0.0194
vn 0.1654 0.9862 0.0040
vn 0.1652 0.9863 0.0036
vn 0.1510 0.9883 0.0191
vn 0.1652 0.9862 0.0036
vn 0.3302 0.9414 0.0689
vn 0.3307 0.9432 0.0304
vn 0.3308 0.9432 0.0304
vn 0.3204 0.9473 0.0050
vn 0.2997 0.9248 0.2345
vn 0.2996 0.9248 0.2345
vn 0.2446 0.9655 0.0888
vn 0.2435 0.9658 0.0888
vn 0.2449 0.9655 0.0888
vn 0.2436 0.9658 0.0888
vn 0.2247 0.9588 0.1739
vn 0.2535 0.9589 0.1277
vn 0.0153 -0.7070 -0.7071
vn -0.0097 0.4499 -0.8930
vn 0.0097 -0.4497 -0.8931
vn 0.0179 -0.8304 0.5569
vn -0.0152 0.7070 -0.7070
vn 0.0153 -0.7069 0.7071
vn -0.0178 0.8298 0.5577
vn -0.0152 0.7070 0.7071
vn -0.5705 0.8213 -0.0000
vn -0.6915 -0.7224 0.0000
vn -0.7228 0.6911 -0.0000
vn 0.6910 0.7229 -0.0001
vn -0.5356 -0.8444 0.0000
vn 0.8856 0.4644 -0.0001
vn 0.7230 -0.6909 -0.0001
vn 0.9054 -0.4245 -0.0001
vn -0.2314 -0.6683 -0.7070
vn 0.1471 0.4253 -0.8930
vn -0.1471 -0.4249 -0.8932
vn -0.2719 -0.7854 0.5561
vn 0.2312 0.6681 -0.7073
vn -0.2314 -0.6683 0.7070
vn 0.2718 0.7853 0.5563
vn 0.2312 0.6681 0.7073
vn -0.4381 0.8989 -0.0000
vn -0.7962 -0.6051 -0.0000
vn -0.8994 -0.4372 -0.0000
vn 0.4365 -0.8997 -0.0001
vn -0.2501 0.9682 0.0000
vn 0.7012 -0.7129 -0.0001
vn 0.8991 0.4377 -0.0001
vn 0.9917 0.1286 -0.0001
vn 0.0153 -0.7069 -0.7071
vn -0.0097 0.4497 -0.8931
vn 0.0097 -0.4491 -0.8934
vn 0.0180 -0.8327 0.5535
vn -0.0152 0.7070 -0.7071
vn -0.0179 0.8312 0.5557
vn -0.5708 0.8211 0.0000
vn -0.6921 -0.7218 0.0000
vn 0.6913 0.7226 -0.0001
vn -0.5356 -0.8445 0.0000
vn 0.8859 0.4639 -0.0001
vn 0.7217 -0.6922 -0.0001
vn 0.9050 -0.4254 -0.0001
vn -0.1717 -0.4156 -0.8932
vn 0.2700 0.6535 -0.7072
vn 0.1715 0.4150 -0.8935
vn 0.3177 0.7690 0.5547
vn -0.2700 -0.6536 -0.7070
vn 0.2700 0.6535 0.7072
vn -0.3173 -0.7679 0.5565
vn -0.2700 -0.6536 0.7071
vn -0.3833 0.9236 0.0000
vn -0.8307 -0.5567 0.0000
vn -0.9233 -0.3840 -0.0000
vn 0.3833 -0.9236 -0.0001
vn -0.1929 0.9812 0.0000
vn 0.6576 -0.7534 -0.0001
vn 0.9238 0.3829 -0.0001
vn 0.9976 0.0691 -0.0001
usemtl EnvironmentMat
s 1
f 2/1/1 3/2/1 4/3/1
f 5/4/2 7/5/2 6/6/3
f 7/5/2 5/4/2 8/7/4
f 11/8/5 9/9/5 12/10/6
f 3/11/7 13/12/8 4/13/8
f 15/14/9 3/11/10 1/15/10
f 16/16/11 15/14/9 1/15/10
f 16/16/12 12/10/12 9/9/12
f 17/17/13 19/18/13 18/19/13
f 17/17/14 18/19/15 20/20/14
f 21/21/16 17/17/14 20/20/14
f 17/17/14 21/21/16 22/22/17
f 20/23/18 23/24/18 21/25/18
f 20/23/19 25/26/20 24/27/19
f 18/28/21 25/26/21 20/23/18
f 9/9/22 22/22/23 21/21/23
f 9/9/22 21/21/23 23/29/24
f 25/30/25 16/16/25 24/31/25
f 16/16/25 25/30/25 15/14/25
f 30/32/26 32/33/27 31/34/27
f 31/34/27 32/33/27 33/35/27
f 34/36/28 35/37/28 37/38/28
f 28/39/29 38/40/30 29/41/30
f 40/42/31 28/39/32 26/43/31
f 41/44/33 26/43/32 27/45/34
f 41/44/35 35/37/36 36/46/35
f 35/37/36 41/44/35 27/45/37
f 42/47/38 46/48/38 47/49/38
f 45/50/39 50/51/40 49/52/39
f 40/42/41 43/53/41 44/54/41
f 48/55/42 49/56/43 41/44/44
f 41/44/44 36/46/45 48/55/42
f 47/49/46 48/55/46 36/46/46
f 50/57/47 41/44/48 49/56/47
f 41/44/49 50/57/49 40/42/49
f 37/38/50 38/40/51 34/36/50
f 27/58/52 29/59/52 35/60/52
f 51/61/53 53/62/53 52/63/53
f 55/64/54 57/65/2 56/66/2
f 56/66/2 57/65/2 58/67/3
f 61/68/55 59/69/55 62/70/55
f 63/71/56 53/72/7 64/73/7
f 65/74/57 53/72/58 51/75/57
f 66/76/59 65/74/57 51/75/57
f 62/70/60 66/76/60 52/77/60
f 67/78/14 68/79/14 70/80/14
f 67/78/14 71/81/14 72/82/14
f 70/83/61 73/84/62 71/85/62
f 68/86/63 75/87/64 70/83/65
f 65/74/66 68/79/66 69/88/66
f 59/69/67 72/82/68 71/81/69
f 59/69/67 71/81/69 73/89/67
f 52/63/70 54/90/71 62/91/70
f 62/91/70 54/90/71 61/92/71
f 77/93/72 78/94/72 79/95/72
f 80/96/73 82/97/74 81/98/74
f 81/98/74 82/97/74 83/99/75
f 78/100/76 88/101/77 79/102/77
f 88/101/78 78/100/79 89/103/80
f 90/104/81 89/103/80 78/100/79
f 91/105/82 76/106/83 77/107/84
f 91/105/85 85/108/85 86/109/85
f 85/108/86 91/105/86 77/107/86
f 92/110/87 94/111/88 93/112/89
f 92/110/87 93/112/89 95/113/90
f 96/114/91 92/110/92 95/113/93
f 92/110/92 96/114/91 97/115/94
f 96/116/95 99/117/95 98/118/95
f 95/119/96 99/117/96 96/116/96
f 95/119/97 100/120/98 99/117/97
f 93/112/99 90/104/100 100/121/99
f 98/122/101 99/123/102 91/105/102
f 91/105/103 100/121/103 90/104/103
f 79/102/104 88/101/104 87/124/104
f 77/93/105 79/95/105 85/125/105
f 85/125/105 79/95/105 87/126/105
f 3/127/106 1/128/106 2/129/106
f 11/8/107 9/9/107 10/130/107
f 3/11/108 13/12/109 14/131/110
f 14/131/110 15/14/111 3/11/108
f 1/15/112 16/16/113 2/132/114
f 16/16/115 12/10/115 2/132/115
f 20/133/116 23/134/116 24/135/116
f 18/19/117 15/14/118 19/18/119
f 15/14/118 18/19/117 25/30/120
f 23/29/121 16/16/122 24/31/123
f 16/16/122 23/29/121 9/9/121
f 4/13/124 11/8/125 13/12/126
f 11/8/125 10/130/127 13/12/126
f 4/136/128 2/129/128 12/137/128
f 12/137/128 11/138/128 4/136/128
f 28/139/129 26/140/130 27/141/130
f 27/141/130 29/142/131 28/139/129
f 36/46/132 34/36/133 35/37/132
f 28/39/134 38/40/135 39/143/136
f 40/42/137 28/39/134 39/143/136
f 40/42/138 41/44/139 26/43/138
f 44/54/140 42/47/141 43/53/140
f 45/144/141 43/53/140 42/47/141
f 42/47/141 46/48/142 45/144/141
f 49/145/143 46/146/144 48/147/145
f 46/146/144 49/145/143 45/148/146
f 45/148/145 50/149/147 43/150/148
f 40/42/149 43/53/149 50/57/150
f 47/49/151 48/55/151 46/48/151
f 29/41/152 37/38/152 38/40/153
f 35/151/141 37/152/141 29/142/141
f 52/153/154 54/154/154 53/155/154
f 61/68/107 59/69/107 60/156/107
f 63/71/155 53/72/110 54/157/155
f 64/73/112 65/74/112 53/72/112
f 51/75/156 66/76/157 52/77/157
f 62/70/158 66/76/158 59/69/158
f 69/88/159 67/78/159 68/79/159
f 67/78/159 71/81/159 70/80/159
f 70/158/160 73/159/161 74/160/160
f 75/161/162 70/158/160 74/160/160
f 65/74/163 68/79/163 75/162/163
f 73/89/164 66/76/165 74/163/166
f 66/76/165 73/89/164 59/69/167
f 66/76/168 75/162/169 74/163/170
f 75/162/169 66/76/168 65/74/171
f 54/157/172 61/68/173 63/71/173
f 61/68/174 60/156/174 63/71/174
f 78/164/175 76/165/175 77/166/175
f 86/109/176 84/167/177 85/108/178
f 85/108/179 84/167/180 87/124/179
f 78/100/181 90/104/181 76/106/181
f 90/104/182 91/105/183 76/106/184
f 95/168/185 100/169/186 93/170/187
f 93/112/188 90/104/188 94/111/188
f 91/105/189 98/122/190 86/109/189
f 97/115/191 98/122/192 96/114/193
f 98/122/192 97/115/191 86/109/194
f 91/105/195 100/121/195 99/123/195
f 87/124/196 84/167/196 88/101/196
f 6/6/197 102/171/198 101/172/199
f 103/173/200 6/6/197 101/172/199
f 102/171/198 6/6/197 7/5/201
f 6/6/197 103/173/200 5/4/202
f 102/171/198 7/5/201 104/174/203
f 103/173/200 8/7/204 5/4/202
f 8/7/204 103/173/200 104/174/203
f 104/174/203 7/5/201 8/7/204
f 104/174/205 106/175/206 105/176/207
f 107/177/208 104/174/205 105/176/207
f 103/173/209 106/175/206 104/174/205
f 104/174/205 107/177/208 102/171/210
f 103/173/209 108/178/211 106/175/206
f 107/177/208 101/172/212 102/171/210
f 101/172/212 108/178/211 103/173/209
f 101/172/212 107/177/208 108/178/211
f 30/32/213 110/179/214 109/180/215
f 111/181/216 30/32/213 109/180/215
f 31/34/217 110/179/214 30/32/213
f 30/32/213 111/181/216 32/33/218
f 110/179/214 31/34/217 112/182/219
f 112/182/219 32/33/218 111/181/216
f 112/182/219 31/34/217 33/35/220
f 32/33/218 112/182/219 33/35/220
f 113/183/221 111/181/222 114/184/223
f 111/181/222 115/185/224 114/184/223
f 111/181/222 113/183/221 112/182/225
f 109/180/226 115/185/224 111/181/222
f 116/186/227 112/182/225 113/183/221
f 109/180/226 116/186/227 115/185/224
f 112/182/225 116/186/227 110/179/228
f 110/179/228 116/186/227 109/180/226
f 55/64/229 118/187/230 117/188/231
f 119/189/232 55/64/229 117/188/231
f 118/187/230 55/64/229 56/66/233
f 55/64/229 119/189/232 57/65/202
f 118/187/230 56/66/233 120/190/234
f 119/189/232 58/67/204 57/65/202
f 58/67/204 119/189/232 120/190/234
f 120/190/234 56/66/233 58/67/204
f 120/190/235 122/191/236 121/192/207
f 123/193/237 120/190/235 121/192/207
f 119/189/238 122/191/236 120/190/235
f 120/190/235 123/193/237 118/187/239
f 119/189/238 124/194/240 122/191/236
f 123/193/237 117/188/241 118/187/239
f 117/188/241 124/194/240 119/189/238
f 117/188/241 123/193/237 124/194/240
f 125/195/242 81/98/243 126/196/244
f 126/196/244 81/98/243 127/197/245
f 81/98/243 125/195/242 80/96/246
f 127/197/245 81/98/243 83/99/247
f 128/198/248 80/96/246 125/195/242
f 83/99/247 128/198/248 127/197/245
f 80/96/246 128/198/248 82/97/249
f 128/198/248 83/99/247 82/97/249
f 129/199/250 128/198/251 130/200/252
f 128/198/251 131/201/253 130/200/252
f 128/198/251 129/199/250 127/197/254
f 125/195/255 131/201/253 128/198/251
f 132/202/256 127/197/254 129/199/250
f 125/195/255 132/202/256 131/201/253
f 127/197/254 132/202/256 126/196/257
f 126/196/257 132/202/256 125/195/255
