# Blender v3.1.2 OBJ File: 'track.blend'
# www.blender.org
mtllib _0FLOOR_mark_line.mtl
o _0FLOOR_mark_line_Scene.041
v 823.703003 -56717.140625 -43.461250
v 829.961792 -56702.699219 -43.350048
v 233.629700 -56479.761719 -41.888172
v 227.368896 -56494.203125 -41.998928
v -362.704407 -56256.816406 -40.321041
v -368.964600 -56271.257812 -40.431049
vt 18.943371 1.996568
vt 18.115150 1.976401
vt 18.944361 1.976401
vt 18.114170 1.996568
vt 17.285940 1.976401
vt 17.284960 1.996568
vn 0.0004 0.0075 -1.0000
vn 0.0003 0.0075 -1.0000
vn 0.0002 0.0075 -1.0000
usemtl MarksMat
s 1
f 1/1/1 3/2/2 2/3/1
f 3/2/2 1/1/1 4/4/2
f 4/4/2 5/5/3 3/2/2
f 5/5/3 4/4/2 6/6/3
