# Blender v3.4.1 OBJ File: 'track.blend'
# www.blender.org
mtllib _0FLOOR_mark_line_001_Scene.042.mtl
o _0FLOOR_mark_line_001_Scene.042
v -120.565094 -947.440430 -0.026172
v -120.528702 -947.287170 -0.026182
v -127.017197 -946.101929 -0.023217
v -127.053589 -946.255310 -0.023143
v -133.505707 -944.916870 -0.019649
v -133.542099 -945.070129 -0.019525
vt 18.943371 1.996568
vt 18.115150 1.976401
vt 18.944361 1.976401
vt 18.114170 1.996568
vt 17.285940 1.976401
vt 17.284960 1.996568
vn -0.0005 0.0000 -1.0000
vn -0.0006 -0.0003 -1.0000
vn -0.0004 0.0000 -1.0000
vn -0.0007 -0.0006 -1.0000
usemtl MarksMat
s 1
f 1/1/1 3/2/2 2/3/3
f 3/2/2 1/1/1 4/4/2
f 4/4/2 5/5/4 3/2/2
f 5/5/4 4/4/2 6/6/4
