# Blender v3.1.2 OBJ File: 'track.blend'
# www.blender.org
mtllib _0FLOOR_mark_pitexit.mtl
o _0FLOOR_mark_pitexit_Scene.044
v 28400.087891 91981.921875 -333.793396
v 28427.570312 92125.218750 -333.814697
v 28411.910156 92126.687500 -333.870209
v 28384.878906 91985.906250 -333.848083
v 28308.332031 91652.578125 -333.911804
v 28323.550781 91648.593750 -333.857483
v 28235.818359 91336.265625 -333.903015
v 28251.041016 91332.281250 -333.849396
v 28163.308594 91019.960938 -333.738586
v 28178.519531 91015.976562 -333.686707
v 28090.789062 90703.648438 -333.407806
v 28106.009766 90699.656250 -333.359497
v 28018.279297 90387.343750 -332.927490
v 28033.490234 90383.351562 -332.883820
v 27945.761719 90071.031250 -332.303314
v 27960.970703 90067.039062 -332.263214
v 27873.251953 89754.718750 -331.573303
v 27888.460938 89750.734375 -331.537781
v 27800.728516 89438.421875 -330.822388
v 27815.949219 89434.414062 -330.844391
v 27789.638672 92133.085938 -336.047516
v 27788.970703 92117.367188 -336.031708
v 29145.318359 92127.718750 -331.312714
v 29146.000000 92143.437500 -331.323303
v 28333.019531 92834.414062 -335.288391
v 28368.320312 92685.242188 -334.796295
v 28383.890625 92687.460938 -334.741486
v 28347.917969 92839.429688 -335.242401
v 28293.740234 92972.085938 -335.931000
v 28308.638672 92977.101562 -335.887085
v 28243.429688 93121.976562 -336.858398
v 28258.332031 93127.007812 -336.814087
v 28207.417969 93260.750000 -337.942413
v 28192.498047 93255.734375 -337.988983
v 28144.291016 93408.578125 -339.533295
v 28130.152344 93401.718750 -339.559998
v 28434.099609 92238.625000 -333.888184
v 28418.439453 92240.101562 -333.944000
v 28067.679688 93530.351562 -341.393402
v 28081.839844 93537.203125 -341.367706
v 27995.470703 93662.421875 -343.707886
v 28008.859375 93670.671875 -343.707306
v 27921.371094 93784.726562 -346.395599
v 27934.769531 93792.968750 -346.396790
v 27858.939453 93878.164062 -348.898926
v 27871.689453 93887.375000 -348.927094
v 27787.189453 94002.742188 -352.259399
v 27774.451172 93993.515625 -352.230194
v 27650.689453 94148.078125 -357.708313
v 27662.289062 94158.726562 -357.788300
v 27556.240234 94255.507812 -361.925110
v 27567.832031 94266.132812 -362.005798
v 27457.238281 94358.132812 -366.413391
v 27467.730469 94369.859375 -366.542999
v 27352.800781 94455.859375 -371.064087
v 27363.281250 94467.578125 -371.193909
v 27194.558594 94609.976562 -378.634094
v 27184.580078 94597.812500 -378.481781
v 28429.291016 92382.710938 -334.064392
v 28413.541016 92384.195312 -334.123108
v 28393.662109 92544.406250 -334.430298
v 28409.148438 92546.617188 -334.377686
vt 18.943371 1.996568
vt 19.299450 1.976401
vt 19.298470 1.996568
vt 18.944361 1.976401
vt 18.115150 1.976401
vt 18.114170 1.996568
vt 17.285940 1.976401
vt 17.284960 1.996568
vt 16.456739 1.976401
vt 16.455750 1.996568
vt 15.627530 1.976401
vt 15.626550 1.996568
vt 14.798320 1.976401
vt 14.797340 1.996568
vt 13.969120 1.976401
vt 13.968130 1.996568
vt 13.139910 1.976401
vt 13.138920 1.996568
vt 12.310700 1.976401
vt 12.309720 1.996568
vt 18.943371 1.996568
vt 17.285940 1.976401
vt 18.944361 1.976401
vt 17.284960 1.996568
vt 21.064430 1.976401
vt 20.683550 1.996568
vt 20.684530 1.976401
vt 21.063440 1.996568
vt 21.415899 1.976401
vt 21.414909 1.996568
vt 21.804110 1.976401
vt 21.803129 1.996568
vt 22.154480 1.996568
vt 22.155460 1.976401
vt 22.546690 1.996568
vt 22.547680 1.976401
vt 19.577351 1.996568
vt 19.578341 1.976401
vt 22.898760 1.976401
vt 23.270241 1.976401
vt 22.897770 1.996568
vt 23.269251 1.996568
vt 23.621330 1.976401
vt 23.620340 1.996568
vt 23.898640 1.976401
vt 23.897650 1.996568
vt 24.248739 1.996568
vt 24.249720 1.976401
vt 24.738091 1.976401
vt 24.737110 1.996568
vt 25.089251 1.976401
vt 25.088270 1.996568
vt 25.441259 1.976401
vt 25.440269 1.996568
vt 25.792431 1.976401
vt 26.332670 1.996568
vt 25.791439 1.996568
vt 26.333651 1.976401
vt 19.931320 1.996568
vt 19.932310 1.976401
vt 20.333220 1.976401
vt 20.332239 1.996568
vn 0.0034 -0.0007 -1.0000
vn 0.0035 -0.0008 -1.0000
vn 0.0033 -0.0010 -1.0000
vn 0.0030 -0.0015 -1.0000
vn 0.0027 -0.0019 -1.0000
vn 0.0023 -0.0022 -1.0000
vn 0.0021 -0.0025 -1.0000
vn 0.0015 -0.0029 -1.0000
vn 0.0017 -0.0028 -1.0000
vn -0.0001 -0.0023 -1.0000
vn -0.0002 -0.0022 -1.0000
vn 0.0035 -0.0012 -1.0000
vn 0.0039 -0.0024 -1.0000
vn 0.0038 -0.0021 -1.0000
vn 0.0038 -0.0022 -1.0000
vn 0.0045 -0.0045 -1.0000
vn 0.0045 -0.0046 -1.0000
vn 0.0046 -0.0048 -1.0000
vn 0.0045 -0.0047 -1.0000
vn 0.0059 -0.0081 -0.9999
vn 0.0059 -0.0082 -0.9999
vn 0.0059 -0.0083 -0.9999
vn 0.0071 -0.0108 -0.9999
vn 0.0035 -0.0010 -1.0000
vn 0.0076 -0.0120 -0.9999
vn 0.0081 -0.0131 -0.9999
vn 0.0076 -0.0119 -0.9999
vn 0.0082 -0.0131 -0.9999
vn 0.0116 -0.0190 -0.9998
vn 0.0119 -0.0195 -0.9997
vn 0.0117 -0.0192 -0.9997
vn 0.0148 -0.0236 -0.9996
vn 0.0148 -0.0237 -0.9996
vn 0.0175 -0.0267 -0.9995
vn 0.0175 -0.0266 -0.9995
vn 0.0177 -0.0269 -0.9995
vn 0.0185 -0.0276 -0.9994
vn 0.0192 -0.0282 -0.9994
vn 0.0198 -0.0288 -0.9994
vn 0.0036 -0.0013 -1.0000
vn 0.0036 -0.0017 -1.0000
usemtl MarksMat
s 1
f 1/1/1 3/2/2 2/3/2
f 3/2/2 1/1/1 4/4/1
f 1/1/1 5/5/1 4/4/1
f 5/5/1 1/1/1 6/6/1
f 6/6/1 7/7/3 5/5/1
f 7/7/3 6/6/1 8/8/3
f 8/8/3 9/9/4 7/7/3
f 9/9/4 8/8/3 10/10/4
f 10/10/4 11/11/5 9/9/4
f 11/11/5 10/10/4 12/12/6
f 12/12/6 13/13/7 11/11/5
f 13/13/7 12/12/6 14/14/7
f 14/14/7 15/15/8 13/13/7
f 15/15/8 14/14/7 16/16/9
f 16/16/9 17/17/10 15/15/8
f 17/17/10 16/16/9 18/18/10
f 18/18/10 19/19/11 17/17/10
f 19/19/11 18/18/10 20/20/11
f 21/21/2 23/22/12 22/23/12
f 23/22/12 21/21/2 24/24/2
f 25/25/13 27/26/14 26/27/15
f 27/26/14 25/25/13 28/28/13
f 25/25/13 29/29/16 28/28/13
f 29/29/16 30/30/17 28/28/13
f 29/29/16 31/31/18 30/30/17
f 30/30/17 31/31/18 32/32/19
f 31/31/18 33/33/20 32/32/19
f 33/33/20 31/31/18 34/34/21
f 34/34/21 35/35/22 33/33/20
f 35/35/22 34/34/21 36/36/23
f 3/2/2 37/37/24 2/3/2
f 37/37/24 3/2/2 38/38/24
f 39/39/25 41/40/26 40/41/27
f 40/41/27 41/40/26 42/42/28
f 41/40/26 43/43/29 42/42/28
f 42/42/28 43/43/29 44/44/29
f 43/43/29 45/45/30 44/44/29
f 46/46/31 44/44/29 45/45/30
f 45/45/30 47/47/32 46/46/31
f 47/47/32 45/45/30 48/48/32
f 48/48/32 49/49/32 47/47/32
f 50/50/33 47/47/32 49/49/32
f 49/49/32 51/51/34 50/50/33
f 50/50/33 51/51/34 52/52/35
f 51/51/34 53/53/36 52/52/35
f 54/54/37 52/52/35 53/53/36
f 55/55/38 57/56/39 56/57/38
f 57/56/39 55/55/38 58/58/39
f 59/59/40 38/38/24 60/60/40
f 38/38/24 59/59/40 37/37/24
f 27/26/14 61/61/41 26/27/15
f 61/61/41 27/26/14 62/62/41
f 36/36/23 40/41/27 35/35/22
f 40/41/27 36/36/23 39/39/25
f 54/54/37 55/55/38 56/57/38
f 55/55/38 54/54/37 53/53/36
f 60/60/40 62/62/41 59/59/40
f 62/62/41 60/60/40 61/61/41
