# Blender v3.4.1 OBJ File: 'track.blend'
# www.blender.org
mtllib _0FLOOR_mark_pitexit_Scene.044.mtl
o _0FLOOR_mark_pitexit_Scene.044
v 284.000885 919.819214 -3.337784
v 284.275696 921.252197 -3.337997
v 284.119110 921.266846 -3.338552
v 283.848785 919.859070 -3.338331
v 283.083313 916.525757 -3.338969
v 283.235504 916.485901 -3.338425
v 282.358185 913.362610 -3.338881
v 282.510406 913.322815 -3.338345
v 281.633087 910.199585 -3.337238
v 281.785187 910.159729 -3.336719
v 280.907898 907.036438 -3.333930
v 281.060089 906.996521 -3.333447
v 280.182800 903.873413 -3.329128
v 280.334900 903.833496 -3.328691
v 279.457611 900.710266 -3.322886
v 279.609711 900.670349 -3.322485
v 278.732513 897.547180 -3.315587
v 278.884613 897.507324 -3.315232
v 278.007294 894.384216 -3.308078
v 278.159485 894.344116 -3.308298
v 277.896393 921.330811 -3.360325
v 277.889709 921.173645 -3.360167
v 291.453186 921.277161 -3.312977
v 291.459991 921.434326 -3.313083
v 283.330200 928.344116 -3.352733
v 283.683197 926.852417 -3.347812
v 283.838898 926.874573 -3.347264
v 283.479187 928.394287 -3.352273
v 282.937408 929.720825 -3.359159
v 283.086395 929.770996 -3.358719
v 282.434296 931.219727 -3.368432
v 282.583313 931.270081 -3.367989
v 282.074188 932.607483 -3.379272
v 281.924988 932.557312 -3.379738
v 281.442902 934.085754 -3.395181
v 281.301514 934.017151 -3.395448
v 284.341003 922.386230 -3.338732
v 284.184387 922.401001 -3.339290
v 280.676788 935.303467 -3.413782
v 280.818390 935.372009 -3.413525
v 279.954712 936.624207 -3.436926
v 280.088593 936.706726 -3.436920
v 279.213715 937.847229 -3.463803
v 279.347687 937.929688 -3.463815
v 278.589386 938.781616 -3.488836
v 278.716888 938.873718 -3.489118
v 277.871887 940.027405 -3.522441
v 277.744507 939.935120 -3.522149
v 276.506897 941.480774 -3.576930
v 276.622894 941.587219 -3.577730
v 275.562408 942.555054 -3.619097
v 275.678314 942.661316 -3.619904
v 274.572388 943.581299 -3.663980
v 274.677307 943.698547 -3.665276
v 273.528015 944.558594 -3.710487
v 273.632812 944.675781 -3.711785
v 271.945587 946.099731 -3.786187
v 271.845795 945.978088 -3.784664
v 284.292908 923.827087 -3.340493
v 284.135406 923.841919 -3.341081
v 283.936615 925.444031 -3.344152
v 284.091492 925.466125 -3.343626
vt 18.943371 1.996568
vt 19.299450 1.976401
vt 19.298470 1.996568
vt 18.944361 1.976401
vt 18.115150 1.976401
vt 18.114170 1.996568
vt 17.285940 1.976401
vt 17.284960 1.996568
vt 16.456739 1.976401
vt 16.455750 1.996568
vt 15.627530 1.976401
vt 15.626550 1.996568
vt 14.798320 1.976401
vt 14.797340 1.996568
vt 13.969120 1.976401
vt 13.968130 1.996568
vt 13.139910 1.976401
vt 13.138920 1.996568
vt 12.310700 1.976401
vt 12.309720 1.996568
vt 18.943371 1.996568
vt 17.285940 1.976401
vt 18.944361 1.976401
vt 17.284960 1.996568
vt 21.064430 1.976401
vt 20.683550 1.996568
vt 20.684530 1.976401
vt 21.063440 1.996568
vt 21.415899 1.976401
vt 21.414909 1.996568
vt 21.804110 1.976401
vt 21.803129 1.996568
vt 22.154480 1.996568
vt 22.155460 1.976401
vt 22.546690 1.996568
vt 22.547680 1.976401
vt 19.577351 1.996568
vt 19.578341 1.976401
vt 22.898760 1.976401
vt 23.270241 1.976401
vt 22.897770 1.996568
vt 23.269251 1.996568
vt 23.621330 1.976401
vt 23.620340 1.996568
vt 23.898640 1.976401
vt 23.897650 1.996568
vt 24.248739 1.996568
vt 24.249720 1.976401
vt 24.738091 1.976401
vt 24.737110 1.996568
vt 25.089251 1.976401
vt 25.088270 1.996568
vt 25.441259 1.976401
vt 25.440269 1.996568
vt 25.792431 1.976401
vt 26.332670 1.996568
vt 25.791439 1.996568
vt 26.333651 1.976401
vt 19.931320 1.996568
vt 19.932310 1.976401
vt 20.333220 1.976401
vt 20.332239 1.996568
vn 0.0034 -0.0007 -1.0000
vn 0.0035 -0.0008 -1.0000
vn 0.0033 -0.0010 -1.0000
vn 0.0030 -0.0015 -1.0000
vn 0.0027 -0.0019 -1.0000
vn 0.0024 -0.0021 -1.0000
vn 0.0023 -0.0023 -1.0000
vn 0.0014 -0.0030 -1.0000
vn 0.0020 -0.0026 -1.0000
vn -0.0001 -0.0023 -1.0000
vn -0.0003 -0.0022 -1.0000
vn -0.0002 -0.0022 -1.0000
vn 0.0035 -0.0012 -1.0000
vn 0.0039 -0.0024 -1.0000
vn 0.0038 -0.0021 -1.0000
vn 0.0038 -0.0022 -1.0000
vn 0.0039 -0.0023 -1.0000
vn 0.0045 -0.0044 -1.0000
vn 0.0045 -0.0046 -1.0000
vn 0.0046 -0.0048 -1.0000
vn 0.0058 -0.0080 -1.0000
vn 0.0059 -0.0082 -0.9999
vn 0.0059 -0.0083 -0.9999
vn 0.0071 -0.0108 -0.9999
vn 0.0035 -0.0010 -1.0000
vn 0.0076 -0.0120 -0.9999
vn 0.0081 -0.0131 -0.9999
vn 0.0076 -0.0119 -0.9999
vn 0.0082 -0.0131 -0.9999
vn 0.0116 -0.0190 -0.9998
vn 0.0119 -0.0195 -0.9997
vn 0.0148 -0.0236 -0.9996
vn 0.0149 -0.0236 -0.9996
vn 0.0149 -0.0237 -0.9996
vn 0.0176 -0.0268 -0.9995
vn 0.0174 -0.0265 -0.9995
vn 0.0181 -0.0272 -0.9995
vn 0.0185 -0.0276 -0.9994
vn 0.0192 -0.0282 -0.9994
vn 0.0198 -0.0288 -0.9994
vn 0.0036 -0.0013 -1.0000
vn 0.0036 -0.0017 -1.0000
usemtl MarksMat
s 1
f 1/1/1 3/2/2 2/3/2
f 3/2/2 1/1/1 4/4/1
f 1/1/1 5/5/1 4/4/1
f 5/5/1 1/1/1 6/6/1
f 6/6/1 7/7/3 5/5/1
f 7/7/3 6/6/1 8/8/3
f 8/8/3 9/9/4 7/7/3
f 9/9/4 8/8/3 10/10/4
f 10/10/4 11/11/5 9/9/4
f 11/11/5 10/10/4 12/12/6
f 12/12/6 13/13/7 11/11/5
f 13/13/7 12/12/6 14/14/7
f 14/14/7 15/15/8 13/13/7
f 15/15/8 14/14/7 16/16/9
f 16/16/9 17/17/10 15/15/8
f 17/17/10 16/16/9 18/18/10
f 18/18/10 19/19/11 17/17/10
f 19/19/11 18/18/10 20/20/12
f 21/21/2 23/22/13 22/23/13
f 23/22/13 21/21/2 24/24/2
f 25/25/14 27/26/15 26/27/16
f 27/26/15 25/25/14 28/28/17
f 25/25/14 29/29/18 28/28/17
f 29/29/18 30/30/19 28/28/17
f 29/29/18 31/31/20 30/30/19
f 30/30/19 31/31/20 32/32/20
f 31/31/20 33/33/21 32/32/20
f 33/33/21 31/31/20 34/34/22
f 34/34/22 35/35/23 33/33/21
f 35/35/23 34/34/22 36/36/24
f 3/2/2 37/37/25 2/3/2
f 37/37/25 3/2/2 38/38/25
f 39/39/26 41/40/27 40/41/28
f 40/41/28 41/40/27 42/42/29
f 41/40/27 43/43/30 42/42/29
f 42/42/29 43/43/30 44/44/30
f 43/43/30 45/45/31 44/44/30
f 46/46/31 44/44/30 45/45/31
f 45/45/31 47/47/32 46/46/31
f 47/47/32 45/45/31 48/48/32
f 48/48/32 49/49/33 47/47/32
f 50/50/34 47/47/32 49/49/33
f 49/49/33 51/51/35 50/50/34
f 50/50/34 51/51/35 52/52/36
f 51/51/35 53/53/37 52/52/36
f 54/54/38 52/52/36 53/53/37
f 55/55/39 57/56/40 56/57/39
f 57/56/40 55/55/39 58/58/40
f 59/59/41 38/38/25 60/60/41
f 38/38/25 59/59/41 37/37/25
f 27/26/15 61/61/42 26/27/16
f 61/61/42 27/26/15 62/62/42
f 36/36/24 40/41/28 35/35/23
f 40/41/28 36/36/24 39/39/26
f 54/54/38 55/55/39 56/57/39
f 55/55/39 54/54/38 53/53/37
f 60/60/41 62/62/42 59/59/41
f 62/62/42 60/60/41 61/61/42
