# Blender v3.4.1 OBJ File: 'track.blend'
# www.blender.org
mtllib _0GRASS_terrain_SUB2_Scene.049.mtl
o _0GRASS_terrain_SUB2_Scene.049
v 282.688202 611.866821 1.451297
v 437.253693 842.612854 1.451296
v 336.417877 865.333801 1.451296
v 219.382004 313.222992 1.451296
v 42.806595 -519.761475 1.451296
v -19.014828 -1309.857056 1.451297
v 33.206108 -565.046875 1.451297
v 27.994040 -589.632080 1.451297
v 26.750877 -595.495972 1.451297
v 24.054550 -608.214600 1.451297
v 5.882431 -693.932068 1.451297
v -27.910549 -853.332947 1.451297
v -119.855095 -1287.034058 1.451296
v 660.902710 795.315430 1.451297
v 677.549072 928.288574 1.451296
v 596.298828 960.986755 1.451296
v 500.012360 783.899658 1.451297
v 595.387390 1122.512939 1.451297
v 613.143372 1121.505005 1.451297
v 703.311401 1518.838989 1.451296
v 496.812958 1105.229980 1.451332
v 443.685303 1100.109985 1.451338
v 316.634399 1063.808960 1.451349
v 639.795715 1911.010864 1.451296
v 728.994568 1604.449951 1.451296
v 314.890686 1062.224976 1.451296
v -910.144653 2165.959961 1.451297
v -1221.259033 1612.614990 1.451297
v 308.420990 1058.760986 1.451296
v 304.619812 1056.724976 1.451296
v 290.977112 1049.420044 1.451297
v 273.533203 1040.078979 1.451296
v 256.089294 1030.739014 1.451296
v 249.234299 1027.067993 1.451296
v 238.645401 1021.398010 1.451296
v 221.121887 1012.014954 1.451297
v 203.983902 1002.838013 1.451296
v 193.848907 997.410522 1.451296
v 169.501907 984.373413 1.451296
v 151.425995 974.694214 1.451297
v 138.463486 967.753174 1.451297
v 110.770798 952.924377 1.451296
v 96.046951 945.040222 1.451296
v -48.054031 815.208130 1.451297
v -176.460892 642.572083 1.451297
v -1338.024048 343.848511 1.451298
v -300.587494 414.293396 1.451296
v -363.364166 205.988998 1.451297
v -371.924591 -32.277039 1.451297
v -364.717407 -77.826569 1.451296
v -629.969116 -70.970093 1.451296
v -561.487122 -113.771393 1.451296
v -361.403381 -98.770836 1.451297
v -530.670227 -199.373901 1.451297
v -361.227173 -99.884644 1.451297
v -360.005066 -107.608200 1.451296
v -676.194519 -79.530273 1.451297
v -736.116211 -129.179794 1.451297
v -830.278870 -320.929413 1.451297
v -357.409912 -124.009903 1.451297
v -1353.969971 -266.644501 1.451298
v -354.246796 -144.000793 1.451297
v -353.416412 -149.248901 1.451297
v -350.756592 -166.058899 1.451297
v -349.422913 -174.488007 1.451297
v -347.266388 -188.117004 1.451296
v -345.429413 -199.727005 1.451296
v -343.776215 -210.174988 1.451297
v -341.435883 -224.965988 1.451296
v -338.306793 -244.741882 1.451296
v -337.442291 -250.205093 1.451296
v -336.256012 -257.702362 1.451297
v -332.312408 -271.345093 1.451297
v -331.374603 -274.589386 1.451296
v -331.127563 -275.444214 1.451297
v -325.600311 -294.565704 1.451297
v -323.831909 -300.683197 1.451297
v -320.798615 -311.176910 1.451296
v -316.536285 -325.922302 1.451297
v -310.893402 -345.443512 1.451297
v -309.240601 -351.161285 1.451297
v -304.619812 -367.146912 1.451296
v -397.130188 -629.098389 1.451296
v -302.502686 -374.470886 1.451296
v -301.944885 -376.400299 1.451297
v -300.988190 -379.710114 1.451296
v -294.649292 -401.639404 1.451297
v -291.083008 -413.976715 1.451296
v -287.353607 -426.878387 1.451296
v -283.466614 -440.325378 1.451296
v -280.492615 -448.867889 1.451297
v -279.361206 -452.117493 1.451296
v -276.926971 -459.109283 1.451296
v -270.574310 -477.356506 1.451296
v -267.621704 -485.837402 1.451297
v -261.787415 -502.595612 1.451296
v -254.750793 -522.806885 1.451297
v -253.000381 -527.834595 1.451297
v -249.234299 -538.652100 1.451296
v -244.213486 -553.073730 1.451297
v -241.879898 -559.776428 1.451297
v -235.426590 -578.312683 1.451297
v -229.009094 -596.745972 1.451297
v -226.639603 -603.551819 1.451297
v -221.541595 -618.195007 1.451296
v -217.852707 -628.790771 1.451296
v -213.953506 -654.029907 1.451296
v -216.340286 -633.531311 1.451297
v -216.409698 -632.935730 1.451297
v -213.052597 -661.766724 1.451296
v -211.014679 -679.268921 1.451296
v -209.764877 -690.002197 1.451297
v -208.075897 -704.507935 1.451296
v -381.721802 -827.696228 1.451296
v -206.477203 -718.237610 1.451297
v -205.137100 -729.747009 1.451296
v -203.189484 -746.473022 1.451296
v -202.198303 -754.986084 1.451297
v -199.901794 -774.708496 1.451297
v -199.259506 -780.225037 1.451297
v -198.001785 -801.679199 1.451296
v -197.544891 -794.950134 1.451297
v -198.258804 -805.464111 1.451297
v -199.615692 -825.447388 1.451296
v -199.972595 -830.703186 1.451297
v -359.465057 -891.042114 1.451297
v -201.229584 -849.215515 1.451296
v -201.686401 -855.942322 1.451296
v -202.843506 -872.983582 1.451297
v -203.400101 -881.181213 1.451296
v -204.457397 -896.751770 1.451297
v -205.113907 -906.420288 1.451296
v -206.071304 -920.519958 1.451297
v -206.827591 -931.659424 1.451296
v -330.360260 -986.916870 1.451296
v -207.685196 -944.288208 1.451296
v -208.443588 -955.457458 1.451296
v -208.541595 -956.898315 1.451296
v -209.300705 -968.054810 1.451296
v -210.258881 -982.137573 1.451297
v -210.917694 -991.820129 1.451296
v -211.976181 -1007.377014 1.451297
v -212.534698 -1015.584961 1.451297
v -325.224060 -1041.703003 1.451296
v -213.693497 -1032.615967 1.451297
v -214.151688 -1039.350952 1.451297
v -215.410797 -1057.854980 1.451297
v -215.768784 -1063.115967 1.451297
v -217.128098 -1083.093994 1.451296
v -217.385803 -1086.880981 1.451297
v -218.845383 -1108.332886 1.451296
v -219.002808 -1110.646973 1.451297
v -344.056702 -1168.394043 1.451297
v -220.562683 -1133.572021 1.451296
v -220.619797 -1134.411987 1.451296
v -236.018295 -1360.722900 1.451296
v -364.601288 -1384.112915 1.451296
v -388.569885 -1457.730957 1.451296
v -270.924805 -1767.383057 1.451295
v -422.811005 -1526.212891 1.451296
v -445.067566 -1707.689941 1.451297
v -445.067566 -1954.224976 1.451297
v -151.079407 -1797.635010 1.451294
v -470.748383 -2149.398926 1.451297
v -208.985001 -2231.927002 1.451289
v -484.444794 -2294.923096 1.451296
v -483.018066 -2510.354980 1.451297
v -72.961548 -2588.637939 1.451296
v -163.143005 -2210.211914 1.451293
v 24.061979 -1782.486938 1.451296
v 14.933760 -1360.722900 1.451296
v 377.915192 -167.793304 1.451297
v 347.233887 189.626007 1.451297
v 427.854156 -0.141113 1.451297
v 365.275299 188.201691 1.451297
v 612.152771 361.321991 1.451297
v 670.414917 558.700012 1.451297
v 700.140442 722.785217 1.451297
v 683.494263 789.370361 1.451296
v 777.427002 917.784912 1.451296
v 728.677063 921.352112 1.451297
v -505.845490 -2815.102051 1.451296
v -112.912399 -3146.522705 1.451296
v -491.578186 -2621.637695 1.451297
v -494.431580 -2578.836914 1.451297
v -507.271973 -2541.742920 1.451297
v -548.646423 -2541.742920 1.451297
v -527.245789 -2531.756104 1.451296
v -535.806091 -2457.568115 1.451296
v -614.274719 -2527.476074 1.451296
v -632.821777 -2294.923096 1.451296
v -648.515503 -2547.449951 1.451297
v -525.819214 -2246.415771 1.451297
v 858.837402 1721.451050 1.451296
v 915.340698 1915.787964 1.451296
v 748.970520 1601.595947 1.451297
v 867.398560 1678.645874 1.451296
v 814.605225 1568.779053 1.451296
v 750.397156 1587.327881 1.451297
v 1095.124023 2226.555908 1.451297
v 1050.605957 2221.418945 1.451297
v 1026.635010 2137.520996 1.451296
v 1048.894043 2106.700928 1.451296
v 1211.633057 2042.544922 1.451297
v 1000.952026 1896.097046 1.451297
v 1119.094971 2250.527100 1.451297
v 1087.494995 1742.902954 1.451297
v 1300.098999 2417.811035 1.451297
v 910.204041 1661.522949 1.451297
v 1120.807007 2336.138916 1.451297
v 1175.598022 2457.706055 1.451296
v 1004.737000 1624.472900 1.451297
v 1184.159058 2534.756104 1.451297
v 963.450745 1596.397949 1.451296
v 1399.979004 2851.579102 1.451297
v 1245.798950 2824.122070 1.451296
v 1238.950928 2858.365967 1.451297
v 1160.187988 2579.273926 1.451296
v 898.218567 1594.745850 1.451297
v 889.657471 1661.522949 1.451297
v 867.398560 1613.581055 1.451297
v 937.853333 1480.796997 1.451296
v 867.356384 1476.674927 1.451297
v 853.465515 1150.677002 1.451296
v 789.950989 1146.483032 1.451297
v 823.739929 1142.354004 1.451296
v 810.660522 1075.769043 1.451296
v 775.682861 1079.896973 1.451297
v -1683.957886 11.393090 1.451298
v -2058.872070 38.285660 1.451298
v -1982.582031 -119.491295 1.451299
v -1646.900879 -143.569702 1.451298
v -1406.362915 -266.644501 1.451298
v -1691.510010 116.214195 1.451298
v -1630.462036 -253.653900 1.451298
v -1513.427002 639.983215 1.451297
v -1621.717041 -406.585785 1.451298
v -1875.011963 -388.416992 1.451298
v -1951.302002 -230.639999 1.451298
v -939.850220 -502.406708 1.451296
v -1554.232910 -765.599915 1.451297
v -987.787537 -742.093811 1.451296
v -1030.588989 -904.738525 1.451297
v -1612.269043 -1065.228027 1.451297
v -1621.717041 -806.090210 1.451298
v -1004.908020 -1301.933960 1.451297
v -1828.217041 -510.510956 1.451298
v -1743.187988 -511.860565 1.451297
v -1474.666992 -1790.554932 1.451297
v -998.059814 -1509.092041 1.451296
v -1092.223022 -1880.606934 1.451297
v -1069.395020 -2070.358887 1.451297
v -998.059814 -2304.340088 1.451296
v -1194.797974 -2993.991699 1.451297
v -893.909973 -2491.239014 1.451296
v -701.304382 -2855.049072 1.451297
v -1767.799927 273.991089 1.451298
v -2106.928955 298.316895 1.451299
v -2079.902100 144.073502 1.451298
v -1767.799927 357.832672 1.451297
v -1750.334961 617.203552 1.451298
v -1843.730957 653.650818 1.451297
v -2112.656982 402.126312 1.451299
v -2077.854980 659.978577 1.451298
vt -14.326010 22.564030
vt -16.029530 30.600269
vt -19.226561 29.879900
vt -12.318880 13.095460
vt -6.720504 -13.314540
vt -4.760450 -38.364731
vt -6.416115 -14.750310
vt -6.250875 -15.529800
vt -6.211453 -15.715730
vt -6.125971 -16.118971
vt -5.549819 -18.836660
vt -4.478411 -23.890499
vt -1.563286 -37.641090
vt -26.317410 28.380320
vt -24.269131 33.632969
vt -26.845181 32.596272
vt -21.216339 28.018379
vt -24.240231 38.754200
vt -24.803181 38.722252
vt -27.662001 51.319809
vt -21.114901 38.206249
vt -19.430490 38.043900
vt -15.402280 36.892990
vt -25.648220 63.753731
vt -28.476290 54.034130
vt -15.346990 36.842770
vt 23.493059 71.836967
vt 33.357010 54.293018
vt -15.141880 36.732929
vt -15.021350 36.668400
vt -14.588820 36.436779
vt -14.035760 36.140629
vt -13.482700 35.844479
vt -13.265350 35.728100
vt -12.929620 35.548328
vt -12.374030 35.250832
vt -11.830680 34.959869
vt -11.509340 34.787788
vt -10.737410 34.374451
vt -10.164320 34.067570
vt -9.753340 33.847500
vt -8.875327 33.377350
vt -8.408504 33.127380
vt -3.839748 29.011021
vt 0.231422 23.537560
vt 37.059101 14.066440
vt 4.166882 16.299919
vt 6.157247 9.695573
vt 6.428653 2.141280
vt 6.200147 0.697127
vt 14.610030 0.914511
vt 12.438790 -0.442512
vt 6.095065 0.033080
vt 11.461720 -3.156566
vt 6.089485 -0.002229
vt 6.050750 -0.247101
vt 16.075609 0.643112
vt 17.975451 -0.931038
vt 20.960899 -7.010517
vt 5.968454 -0.767120
vt 37.564671 -5.289397
vt 5.868173 -1.400943
vt 5.841842 -1.567340
vt 5.757511 -2.100300
vt 5.715232 -2.367540
vt 5.646861 -2.799657
vt 5.588606 -3.167760
vt 5.536199 -3.499014
vt 5.461996 -3.967961
vt 5.362786 -4.594973
vt 5.335384 -4.768180
vt 5.297775 -5.005877
vt 5.172737 -5.438430
vt 5.143008 -5.541291
vt 5.135166 -5.568394
vt 4.959928 -6.174644
vt 4.903856 -6.368600
vt 4.807688 -6.701308
vt 4.672547 -7.168814
vt 4.493646 -7.787734
vt 4.441237 -7.969022
vt 4.294737 -8.475844
vt 7.227808 -16.781090
vt 4.227610 -8.708059
vt 4.209928 -8.769236
vt 4.179591 -8.874171
vt 3.978619 -9.569443
vt 3.865549 -9.960602
vt 3.747296 -10.369660
vt 3.624070 -10.795990
vt 3.529766 -11.066830
vt 3.493915 -11.169860
vt 3.416723 -11.391540
vt 3.215315 -11.970080
vt 3.121699 -12.238960
vt 2.936714 -12.770290
vt 2.713631 -13.411090
vt 2.658128 -13.570500
vt 2.538724 -13.913470
vt 2.379541 -14.370700
vt 2.305550 -14.583220
vt 2.100954 -15.170920
vt 1.897482 -15.755350
vt 1.822353 -15.971130
vt 1.660724 -16.435381
vt 1.543767 -16.771339
vt 1.420145 -17.571541
vt 1.495815 -16.921640
vt 1.498010 -16.902760
vt 1.391579 -17.816851
vt 1.326965 -18.371750
vt 1.287344 -18.712061
vt 1.233785 -19.171970
vt 6.739282 -23.077690
vt 1.183109 -19.607269
vt 1.140605 -19.972179
vt 1.078860 -20.502489
vt 1.047439 -20.772381
vt 0.974625 -21.397699
vt 0.954259 -21.572599
vt 0.914387 -22.252810
vt 0.899893 -22.039459
vt 0.922534 -22.372810
vt 0.965553 -23.006380
vt 0.976873 -23.173019
vt 6.033623 -25.086081
vt 1.016732 -23.759970
vt 1.031212 -23.973221
vt 1.067897 -24.513531
vt 1.085538 -24.773439
vt 1.119063 -25.267111
vt 1.139865 -25.573660
vt 1.170228 -26.020691
vt 1.194204 -26.373859
vt 5.110846 -28.125820
vt 1.221407 -26.774269
vt 1.245449 -27.128380
vt 1.248557 -27.174061
vt 1.272625 -27.527769
vt 1.303002 -27.974270
vt 1.323883 -28.281269
vt 1.357447 -28.774509
vt 1.375155 -29.034760
vt 4.948000 -29.862810
vt 1.411892 -29.574711
vt 1.426426 -29.788250
vt 1.466337 -30.374920
vt 1.477697 -30.541731
vt 1.520796 -31.175131
vt 1.528969 -31.295210
vt 1.575227 -31.975340
vt 1.580227 -32.048698
vt 5.545098 -33.879601
vt 1.629673 -32.775551
vt 1.631498 -32.802181
vt 2.119719 -39.977440
vt 6.196456 -40.719009
vt 6.956401 -43.053101
vt 3.226423 -52.870701
vt 8.042013 -45.224339
vt 8.747671 -50.978119
vt 8.747671 -58.794579
vt -0.573301 -53.829849
vt 9.561889 -64.982597
vt 1.262601 -67.599167
vt 9.996130 -69.596512
vt 9.950901 -76.426826
vt -3.050048 -78.908791
vt -0.190822 -66.910721
vt -6.126208 -53.349579
vt -5.836791 -39.977440
vt -17.345200 -2.155288
vt -16.372459 9.176784
vt -18.928539 3.160167
vt -16.944469 9.131615
vt -24.771770 14.620440
vt -26.618999 20.878361
vt -27.561440 26.080730
vt -27.033680 28.191830
vt -30.011850 32.263241
vt -28.466221 32.376339
vt -1.783394 -96.596687
vt 10.674650 -86.088867
vt 10.222290 -79.955063
vt 10.312780 -78.598053
vt 10.719880 -77.421967
vt 12.031650 -77.421967
vt 11.353160 -77.105324
vt 11.624550 -74.753159
vt 14.112420 -76.969643
vt 14.700460 -69.596512
vt 15.198030 -77.602921
vt 11.307920 -68.058563
vt -32.592979 57.743690
vt -34.384430 63.905190
vt -29.109619 53.943661
vt -32.864399 56.386539
vt -31.190599 52.903179
vt -29.154860 53.491268
vt -40.084499 73.758186
vt -37.913052 70.935287
vt -38.673061 73.595337
vt -38.618759 69.958138
vt -43.778450 67.924057
vt -37.098751 63.280880
vt -40.844509 74.518204
vt -39.842640 58.423828
vt -46.583279 79.821983
vt -34.221569 55.843639
vt -40.898788 77.232536
vt -42.635948 81.086861
vt -37.218750 54.668961
vt -42.907379 83.529747
vt -35.909771 53.778851
vt -49.750050 93.574707
vt -44.861710 92.704147
vt -44.644569 93.789886
vt -42.147381 84.941200
vt -33.841579 53.726490
vt -33.570148 55.843639
vt -32.864399 54.323639
vt -35.098190 50.113682
vt -32.863091 49.982990
vt -32.422661 39.647160
vt -30.408930 39.514179
vt -31.480200 39.383270
vt -31.065519 37.272171
vt -29.956530 37.403069
vt 48.027012 3.525857
vt 57.494968 -0.623859
vt 59.913761 4.378500
vt 46.852100 -1.387276
vt 39.225788 -5.289397
vt 48.266441 6.849236
vt 46.330898 -4.877528
vt 42.620289 23.455469
vt 46.053638 -9.726272
vt 54.084419 -9.150226
vt 56.503220 -4.147866
vt 24.434879 -12.764300
vt 43.914040 -21.108910
vt 25.954750 -20.363640
vt 27.311781 -25.520330
vt 45.754101 -30.608700
vt 46.053638 -22.392660
vt 26.497561 -38.113529
vt 52.600788 -13.021240
vt 49.904911 -13.064040
vt 41.391380 -53.605389
vt 26.280420 -44.681519
vt 29.265881 -56.460499
vt 28.542139 -62.476639
vt 26.280420 -69.895027
vt 32.518059 -91.760651
vt 22.978340 -75.820709
vt 16.871719 -87.355431
vt 50.685230 11.851590
vt 60.580521 7.732532
vt 61.437408 12.622860
vt 50.685230 14.509820
vt 50.131512 22.733240
vt 53.092670 23.888809
vt 61.619030 15.914160
vt 60.515629 24.089430
vn -0.0000 0.0000 -1.0000
vn -0.0137 0.0075 -0.9999
usemtl Water
s 1
f 1/1/1 3/2/1 2/3/1
f 2/3/1 4/4/1 1/1/1
f 2/3/1 5/5/1 4/4/1
f 5/5/1 2/3/1 6/6/1
f 5/5/1 6/6/1 7/7/1
f 6/6/1 8/8/1 7/7/1
f 6/6/1 9/9/1 8/8/1
f 9/9/1 6/6/1 10/10/1
f 6/6/1 11/11/1 10/10/1
f 11/11/1 6/6/1 12/12/1
f 6/6/1 13/13/1 12/12/1
f 14/14/1 16/15/1 15/16/1
f 16/15/1 14/14/1 17/17/1
f 17/17/1 18/18/1 16/15/1
f 19/19/1 16/15/1 18/18/1
f 20/20/1 19/19/1 18/18/1
f 20/20/1 18/18/1 21/21/2
f 20/20/1 21/21/2 22/22/1
f 20/20/1 22/22/1 23/23/1
f 24/24/1 20/20/1 23/23/1
f 25/25/1 20/20/1 24/24/1
f 23/23/1 26/26/1 24/24/1
f 26/26/1 27/27/1 24/24/1
f 27/27/1 26/26/1 28/28/1
f 28/28/1 26/26/1 29/29/1
f 30/30/1 28/28/1 29/29/1
f 28/28/1 30/30/1 31/31/1
f 28/28/1 31/31/1 32/32/1
f 28/28/1 32/32/1 33/33/1
f 28/28/1 33/33/1 34/34/1
f 35/35/1 28/28/1 34/34/1
f 28/28/1 35/35/1 36/36/1
f 28/28/1 36/36/1 37/37/1
f 38/38/1 28/28/1 37/37/1
f 28/28/1 38/38/1 39/39/1
f 40/40/1 28/28/1 39/39/1
f 28/28/1 40/40/1 41/41/1
f 28/28/1 41/41/1 42/42/1
f 28/28/1 42/42/1 43/43/1
f 28/28/1 43/43/1 44/44/1
f 45/45/1 28/28/1 44/44/1
f 46/46/1 28/28/1 45/45/1
f 46/46/1 45/45/1 47/47/1
f 46/46/1 47/47/1 48/48/1
f 49/49/1 46/46/1 48/48/1
f 50/50/1 46/46/1 49/49/1
f 46/46/1 50/50/1 51/51/1
f 50/50/1 52/52/1 51/51/1
f 52/52/1 50/50/1 53/53/1
f 53/53/1 54/54/1 52/52/1
f 55/55/1 54/54/1 53/53/1
f 54/54/1 55/55/1 56/56/1
f 46/46/1 51/51/1 57/57/1
f 58/58/1 46/46/1 57/57/1
f 46/46/1 58/58/1 59/59/1
f 60/60/1 54/54/1 56/56/1
f 59/59/1 61/61/1 46/46/1
f 54/54/1 60/60/1 62/62/1
f 63/63/1 54/54/1 62/62/1
f 64/64/1 54/54/1 63/63/1
f 65/65/1 54/54/1 64/64/1
f 66/66/1 54/54/1 65/65/1
f 67/67/1 54/54/1 66/66/1
f 68/68/1 54/54/1 67/67/1
f 69/69/1 54/54/1 68/68/1
f 70/70/1 54/54/1 69/69/1
f 71/71/1 54/54/1 70/70/1
f 72/72/1 54/54/1 71/71/1
f 73/73/1 54/54/1 72/72/1
f 74/74/1 54/54/1 73/73/1
f 75/75/1 54/54/1 74/74/1
f 76/76/1 54/54/1 75/75/1
f 77/77/1 54/54/1 76/76/1
f 78/78/1 54/54/1 77/77/1
f 79/79/1 54/54/1 78/78/1
f 80/80/1 54/54/1 79/79/1
f 81/81/1 54/54/1 80/80/1
f 82/82/1 54/54/1 81/81/1
f 54/54/1 82/82/1 83/83/1
f 84/84/1 83/83/1 82/82/1
f 85/85/1 83/83/1 84/84/1
f 86/86/1 83/83/1 85/85/1
f 87/87/1 83/83/1 86/86/1
f 88/88/1 83/83/1 87/87/1
f 89/89/1 83/83/1 88/88/1
f 90/90/1 83/83/1 89/89/1
f 91/91/1 83/83/1 90/90/1
f 92/92/1 83/83/1 91/91/1
f 93/93/1 83/83/1 92/92/1
f 94/94/1 83/83/1 93/93/1
f 95/95/1 83/83/1 94/94/1
f 96/96/1 83/83/1 95/95/1
f 97/97/1 83/83/1 96/96/1
f 98/98/1 83/83/1 97/97/1
f 99/99/1 83/83/1 98/98/1
f 100/100/1 83/83/1 99/99/1
f 101/101/1 83/83/1 100/100/1
f 102/102/1 83/83/1 101/101/1
f 103/103/1 83/83/1 102/102/1
f 104/104/1 83/83/1 103/103/1
f 105/105/1 83/83/1 104/104/1
f 106/106/1 83/83/1 105/105/1
f 83/83/1 106/106/1 107/107/1
f 107/107/1 106/106/1 108/108/1
f 106/106/1 109/109/1 108/108/1
f 110/110/1 83/83/1 107/107/1
f 111/111/1 83/83/1 110/110/1
f 112/112/1 83/83/1 111/111/1
f 113/113/1 83/83/1 112/112/1
f 83/83/1 113/113/1 114/114/1
f 115/115/1 114/114/1 113/113/1
f 116/116/1 114/114/1 115/115/1
f 117/117/1 114/114/1 116/116/1
f 114/114/1 117/117/1 118/118/1
f 114/114/1 118/118/1 119/119/1
f 120/120/1 114/114/1 119/119/1
f 120/120/1 121/121/1 114/114/1
f 121/121/1 120/120/1 122/122/1
f 114/114/1 121/121/1 123/123/1
f 114/114/1 123/123/1 124/124/1
f 125/125/1 114/114/1 124/124/1
f 125/125/1 126/126/1 114/114/1
f 126/126/1 125/125/1 127/127/1
f 126/126/1 127/127/1 128/128/1
f 126/126/1 128/128/1 129/129/1
f 126/126/1 129/129/1 130/130/1
f 126/126/1 130/130/1 131/131/1
f 132/132/1 126/126/1 131/131/1
f 133/133/1 126/126/1 132/132/1
f 134/134/1 126/126/1 133/133/1
f 126/126/1 134/134/1 135/135/1
f 136/136/1 135/135/1 134/134/1
f 137/137/1 135/135/1 136/136/1
f 138/138/1 135/135/1 137/137/1
f 139/139/1 135/135/1 138/138/1
f 140/140/1 135/135/1 139/139/1
f 141/141/1 135/135/1 140/140/1
f 142/142/1 135/135/1 141/141/1
f 143/143/1 135/135/1 142/142/1
f 135/135/1 143/143/1 144/144/1
f 145/145/1 144/144/1 143/143/1
f 146/146/1 144/144/1 145/145/1
f 147/147/1 144/144/1 146/146/1
f 148/148/1 144/144/1 147/147/1
f 149/149/1 144/144/1 148/148/1
f 150/150/1 144/144/1 149/149/1
f 151/151/1 144/144/1 150/150/1
f 152/152/1 144/144/1 151/151/1
f 144/144/1 152/152/1 153/153/1
f 153/153/1 152/152/1 154/154/1
f 155/155/1 153/153/1 154/154/1
f 156/156/1 153/153/1 155/155/1
f 153/153/1 156/156/1 157/157/1
f 157/157/1 156/156/1 158/158/1
f 159/159/1 158/158/1 156/156/1
f 158/158/1 159/159/1 160/160/1
f 160/160/1 159/159/1 161/161/1
f 161/161/1 159/159/1 162/162/1
f 163/163/1 162/162/1 159/159/1
f 162/162/1 163/163/1 164/164/1
f 165/165/1 164/164/1 163/163/1
f 164/164/1 165/165/1 166/166/1
f 166/166/1 165/165/1 167/167/1
f 165/165/1 168/168/1 167/167/1
f 168/168/1 165/165/1 169/169/1
f 170/170/1 168/168/1 169/169/1
f 169/169/1 171/171/1 170/170/1
f 172/172/1 170/170/1 171/171/1
f 173/173/1 172/172/1 171/171/1
f 173/173/1 174/174/1 172/172/1
f 174/174/1 173/173/1 175/175/1
f 175/175/1 176/176/1 174/174/1
f 175/175/1 17/17/1 176/176/1
f 176/176/1 17/17/1 177/177/1
f 177/177/1 17/17/1 178/178/1
f 178/178/1 17/17/1 14/14/1
f 178/178/1 14/14/1 179/179/1
f 179/179/1 180/180/1 178/178/1
f 180/180/1 179/179/1 181/181/1
f 168/168/1 183/182/1 182/183/1
f 168/168/1 182/183/1 184/184/1
f 185/185/1 168/168/1 184/184/1
f 168/168/1 185/185/1 167/167/1
f 186/186/1 167/167/1 185/185/1
f 187/187/1 186/186/1 185/185/1
f 186/186/1 187/187/1 188/188/1
f 187/187/1 189/189/1 188/188/1
f 189/189/1 187/187/1 190/190/1
f 190/190/1 191/191/1 189/189/1
f 192/192/1 191/191/1 190/190/1
f 193/193/1 189/189/1 191/191/1
f 194/194/1 24/24/1 195/195/1
f 24/24/1 194/194/1 25/25/1
f 25/25/1 194/194/1 196/196/1
f 196/196/1 194/194/1 197/197/1
f 196/196/1 197/197/1 198/198/1
f 199/199/1 196/196/1 198/198/1
f 200/200/1 202/201/1 201/202/1
f 202/201/1 200/200/1 203/203/1
f 203/203/1 200/200/1 204/204/1
f 204/204/1 205/205/1 203/203/1
f 206/206/1 204/204/1 200/200/1
f 205/205/1 204/204/1 207/207/1
f 204/204/1 206/206/1 208/208/1
f 207/207/1 209/209/1 205/205/1
f 210/210/1 208/208/1 206/206/1
f 208/208/1 210/210/1 211/211/1
f 207/207/1 212/212/1 209/209/1
f 213/213/1 208/208/1 211/211/1
f 214/214/1 209/209/1 212/212/1
f 213/213/1 215/215/1 208/208/1
f 215/215/1 213/213/1 216/216/1
f 217/217/1 215/215/1 216/216/1
f 218/218/1 216/216/1 213/213/1
f 219/219/1 209/209/1 214/214/1
f 209/209/1 219/219/1 220/220/1
f 220/220/1 219/219/1 221/221/1
f 222/222/1 219/219/1 214/214/1
f 222/222/1 223/223/1 219/219/1
f 224/224/1 223/223/1 222/222/1
f 223/223/1 224/224/1 225/225/1
f 225/225/1 224/224/1 226/226/1
f 227/227/1 225/225/1 226/226/1
f 225/225/1 227/227/1 228/228/1
f 229/229/1 231/230/1 230/231/1
f 231/230/1 229/229/1 232/232/1
f 229/229/1 233/233/1 232/232/1
f 233/233/1 229/229/1 234/234/1
f 232/232/1 233/233/1 235/235/1
f 236/236/1 233/233/1 234/234/1
f 233/233/1 237/237/1 235/235/1
f 61/61/1 237/237/1 233/233/1
f 238/238/1 235/235/1 237/237/1
f 235/235/1 238/238/1 239/239/1
f 237/237/1 61/61/1 240/240/1
f 61/61/1 59/59/1 240/240/1
f 240/240/1 241/241/1 237/237/1
f 241/241/1 240/240/1 242/242/1
f 243/243/1 241/241/1 242/242/1
f 241/241/1 243/243/1 244/244/1
f 241/241/1 244/244/1 245/245/1
f 246/246/1 244/244/1 243/243/1
f 247/247/1 245/245/1 244/244/1
f 245/245/1 247/247/1 248/248/1
f 244/244/1 246/246/1 249/249/1
f 250/250/1 249/249/1 246/246/1
f 249/249/1 250/250/1 251/251/1
f 252/252/1 249/249/1 251/251/1
f 253/253/1 249/249/1 252/252/1
f 249/249/1 253/253/1 254/254/1
f 255/255/1 254/254/1 253/253/1
f 254/254/1 255/255/1 256/256/1
f 257/257/1 259/258/1 258/259/1
f 259/258/1 257/257/1 234/234/1
f 260/260/1 234/234/1 257/257/1
f 234/234/1 260/260/1 236/236/1
f 236/236/1 260/260/1 261/261/1
f 260/260/1 262/262/1 261/261/1
f 262/262/1 260/260/1 263/263/1
f 262/262/1 263/263/1 264/264/1
