# Blender v3.4.1 OBJ File: 'track.blend'
# www.blender.org
mtllib _0LAMP_corner_04_006_Scene.058.mtl
o _0LAMP_corner_04_006_Scene.058
v -43.851631 793.333130 -13.571430
v -43.930130 793.420288 -13.571430
v -43.851631 793.333130 -7.550668
v -43.930141 793.420288 -7.550668
v -43.764301 793.411621 -13.571430
v -43.764301 793.411621 -7.550668
v -43.842796 793.498901 -13.571430
v -43.842796 793.498901 -7.550668
v -43.359112 792.828247 -13.531422
v -43.833809 793.356384 -13.531421
v -43.833809 793.356384 -13.471709
v -43.359112 792.828247 -13.471710
v -43.314705 792.868164 -13.531422
v -43.789410 793.396301 -13.531421
v -43.789410 793.396301 -13.471709
v -43.314705 792.868164 -13.471710
v -43.267395 793.029602 -13.326381
v -43.287182 793.011780 -13.471722
v -43.210911 792.926880 -13.585801
v -43.010010 792.703491 -13.585801
v -42.930382 792.654663 -13.518332
v -43.227615 792.507874 -13.585801
v -43.187550 792.423523 -13.518332
v -43.428528 792.731323 -13.585801
v -43.504799 792.816223 -13.471722
v -43.524570 792.798401 -13.326381
v -43.071751 792.705872 -13.498112
v -43.305359 792.965759 -13.365060
v -43.223480 792.569519 -13.498112
v -43.457081 792.829346 -13.365060
v -43.264420 792.767578 -13.431591
vt 0.487913 1.763667
vt 0.384907 1.763667
vt 0.487913 1.770191
vt 0.384907 1.770191
vt 0.384907 1.763618
vt 0.487913 1.763618
vt 0.384907 1.770191
vt 0.487913 1.770191
vt 0.384907 1.770191
vt 0.487913 1.770191
vt 0.384907 1.763667
vt 0.487913 1.763667
vt 0.458985 1.775614
vt 0.455340 1.775614
vt 0.458985 1.774532
vt 0.455340 1.774532
vt 0.457749 1.775614
vt 0.456575 1.776695
vt 0.456575 1.775614
vt 0.457749 1.776695
vt 0.384907 1.763667
vt 0.487913 1.770191
vt 0.487913 1.763667
vt 0.384907 1.770191
vt 0.487913 1.770191
vt 0.384907 1.770191
vt 0.487913 1.763618
vt 0.384907 1.763618
vt 0.384907 1.770191
vt 0.487913 1.770191
vt 0.384907 1.763667
vt 0.487913 1.763667
vt 0.823136 1.910260
vt 0.823136 1.910260
vt 0.823136 1.910260
vt 0.823136 1.910260
vt 0.823136 1.910260
vt 0.823136 1.910260
vt 0.823136 1.910260
vt 0.823136 1.910260
vt 0.823136 1.910260
vt 0.823136 1.910260
vt 0.492074 1.825578
vt 0.491302 1.819964
vt 0.492074 1.819964
vt 0.491302 1.825578
vt 0.492074 1.829223
vt 0.491302 1.829223
vt 0.491302 1.834838
vt 0.492074 1.834838
vt 0.491302 1.838482
vt 0.492074 1.838482
vt 0.829249 1.930272
vt 0.829249 1.930272
vt 0.829256 1.930104
vt 0.829249 1.930272
vt 0.829249 1.930272
vn -0.7437 -0.6685 -0.0000
vn -0.7436 -0.6687 0.0000
vn -0.7438 -0.6684 0.0000
vn -0.7436 -0.6686 0.0000
vn 0.6680 -0.7442 -0.0000
vn 0.6688 -0.7434 -0.0000
vn 0.6677 -0.7445 0.0000
vn 0.6689 -0.7433 0.0000
vn 0.7441 0.6680 -0.0000
vn 0.7435 0.6687 0.0000
vn 0.7440 0.6682 0.0000
vn -0.6683 0.7439 0.0000
vn -0.6690 0.7432 0.0000
vn 0.0000 0.0000 1.0000
vn 0.0000 0.0000 -1.0000
vn 0.7437 0.6685 0.0000
vn 0.6957 0.6991 -0.1650
vn 0.6956 0.6992 -0.1650
vn 0.6962 0.6987 -0.1648
vn 0.6957 0.6990 -0.1654
vn 0.6958 0.6989 -0.1655
vn 0.2266 -0.2521 -0.9408
vn 0.4022 -0.4474 -0.7988
vn -0.2556 0.2844 -0.9240
vn -0.2558 0.2846 -0.9239
vn -0.6232 0.6933 -0.3619
vn -0.6231 0.6934 -0.3617
vn -0.6684 0.7438 -0.0002
vn -0.6685 0.7437 0.0000
vn -0.7689 -0.6176 -0.1654
vn -0.7688 -0.6177 -0.1652
vn -0.7685 -0.6182 -0.1649
vn -0.7691 -0.6173 -0.1653
vn 0.0141 -0.3332 0.9428
vn 0.1647 -0.5810 0.7970
vn 0.3278 -0.6250 0.7085
vn 0.0509 -0.2418 0.9690
vn 0.3298 -0.0494 0.9428
vn 0.2350 -0.0763 0.9690
vn 0.5598 -0.2251 0.7975
vn 0.5857 -0.3912 0.7099
vn 0.2379 -0.2646 0.9345
vn 0.2380 -0.2647 0.9345
vn 0.2379 -0.2648 0.9345
usemtl EnvironmentMat
s 1
f 1/1/1 3/2/2 2/3/3
f 2/3/3 3/2/2 4/4/4
f 5/5/5 6/6/6 1/7/7
f 1/7/7 6/6/6 3/8/8
f 7/9/9 8/10/10 5/5/11
f 5/5/11 8/10/10 6/6/10
f 2/11/12 4/12/13 7/9/12
f 7/9/12 4/12/13 8/10/13
f 8/13/14 4/14/14 6/15/14
f 4/14/14 3/16/14 6/15/14
f 1/17/15 7/18/15 5/19/15
f 7/18/15 1/17/15 2/20/15
f 9/21/1 11/22/1 10/23/1
f 11/22/1 9/21/1 12/24/1
f 9/25/15 10/26/15 13/27/15
f 13/27/15 10/26/15 14/28/15
f 15/29/16 16/30/16 14/28/16
f 13/27/16 14/28/16 16/30/16
f 11/31/14 12/32/14 15/29/14
f 15/29/14 12/32/14 16/30/14
f 17/33/17 19/34/18 18/35/19
f 17/33/17 20/36/20 19/34/18
f 20/36/20 17/33/17 21/37/21
f 22/38/22 21/37/23 23/39/23
f 21/37/23 22/38/22 20/36/22
f 20/36/22 22/38/22 24/40/24
f 20/36/22 24/40/24 19/34/25
f 19/34/25 24/40/24 25/41/26
f 19/34/25 25/41/26 18/35/27
f 25/41/26 17/33/28 18/35/27
f 17/33/28 25/41/26 26/42/29
f 24/40/30 26/42/31 25/41/32
f 22/38/33 26/42/31 24/40/30
f 23/39/33 26/42/31 22/38/33
f 27/43/34 17/44/35 28/45/36
f 17/44/35 27/43/34 21/46/37
f 29/47/38 21/46/37 27/43/34
f 21/46/37 29/47/38 23/48/39
f 26/49/40 23/48/39 29/47/38
f 26/49/40 29/47/38 30/50/41
f 17/51/35 26/49/40 30/50/41
f 17/51/35 30/50/41 28/52/36
f 28/53/42 30/54/42 31/55/42
f 27/56/43 28/53/42 31/55/42
f 30/54/42 29/57/44 31/55/42
f 29/57/44 27/56/43 31/55/42
