# Blender v3.1.2 OBJ File: 'track.blend'
# www.blender.org
mtllib _0LAMP_corner_04_006.mtl
o _0LAMP_corner_04_006_Scene.057
v -4385.163086 79333.312500 -1357.156006
v -4393.013184 79342.031250 -1357.156006
v -4385.163086 79333.312500 -755.079712
v -4393.014160 79342.031250 -755.079712
v -4376.430176 79341.164062 -1357.156006
v -4376.430176 79341.164062 -755.079712
v -4384.279785 79349.890625 -1357.156006
v -4384.279785 79349.890625 -755.079712
v -4335.911133 79282.828125 -1353.155029
v -4383.380859 79335.640625 -1353.155029
v -4383.380859 79335.640625 -1347.183960
v -4335.911133 79282.828125 -1347.183960
v -4331.470703 79286.820312 -1353.155029
v -4378.940918 79339.632812 -1353.155029
v -4378.940918 79339.632812 -1347.183960
v -4331.470703 79286.820312 -1347.183960
v -4326.739746 79302.960938 -1332.651001
v -4328.718262 79301.179688 -1347.185059
v -4321.091309 79292.687500 -1358.593018
v -4301.000977 79270.351562 -1358.593018
v -4293.038086 79265.468750 -1351.846069
v -4322.761719 79250.789062 -1358.593018
v -4318.754883 79242.351562 -1351.846069
v -4342.853027 79273.132812 -1358.593018
v -4350.479980 79281.625000 -1347.185059
v -4352.457031 79279.843750 -1332.651001
v -4307.175293 79270.585938 -1349.824097
v -4330.536133 79296.578125 -1336.518921
v -4322.348145 79256.953125 -1349.824097
v -4345.708008 79282.937500 -1336.518921
v -4326.441895 79276.757812 -1343.171997
vt 0.487913 1.763667
vt 0.384907 1.763667
vt 0.487913 1.770191
vt 0.384907 1.770191
vt 0.384907 1.763618
vt 0.487913 1.763618
vt 0.384907 1.770191
vt 0.487913 1.770191
vt 0.384907 1.770191
vt 0.487913 1.770191
vt 0.384907 1.763667
vt 0.487913 1.763667
vt 0.458985 1.775614
vt 0.455340 1.775614
vt 0.458985 1.774532
vt 0.455340 1.774532
vt 0.457749 1.775614
vt 0.456575 1.776695
vt 0.456575 1.775614
vt 0.457749 1.776695
vt 0.384907 1.763667
vt 0.487913 1.770191
vt 0.487913 1.763667
vt 0.384907 1.770191
vt 0.487913 1.770191
vt 0.384907 1.770191
vt 0.487913 1.763618
vt 0.384907 1.763618
vt 0.384907 1.770191
vt 0.487913 1.770191
vt 0.384907 1.763667
vt 0.487913 1.763667
vt 0.823136 1.910260
vt 0.823136 1.910260
vt 0.823136 1.910260
vt 0.823136 1.910260
vt 0.823136 1.910260
vt 0.823136 1.910260
vt 0.823136 1.910260
vt 0.823136 1.910260
vt 0.823136 1.910260
vt 0.823136 1.910260
vt 0.492074 1.825578
vt 0.491302 1.819964
vt 0.492074 1.819964
vt 0.491302 1.825578
vt 0.492074 1.829223
vt 0.491302 1.829223
vt 0.491302 1.834838
vt 0.492074 1.834838
vt 0.491302 1.838482
vt 0.492074 1.838482
vt 0.829249 1.930272
vt 0.829249 1.930272
vt 0.829256 1.930104
vt 0.829249 1.930272
vt 0.829249 1.930272
vn -0.7438 -0.6684 -0.0000
vn -0.7437 -0.6685 -0.0000
vn 0.6678 -0.7443 -0.0000
vn 0.6691 -0.7432 -0.0000
vn 0.6677 -0.7444 0.0000
vn 0.7441 0.6681 -0.0000
vn 0.7434 0.6688 0.0000
vn -0.6681 0.7440 0.0000
vn -0.6689 0.7433 0.0000
vn -0.6682 0.7440 0.0000
vn 0.0000 0.0000 1.0000
vn 0.0000 0.0000 -1.0000
vn 0.7437 0.6685 0.0000
vn 0.6958 0.6990 -0.1651
vn 0.6955 0.6992 -0.1653
vn 0.6964 0.6985 -0.1648
vn 0.6957 0.6991 -0.1651
vn 0.6958 0.6990 -0.1650
vn 0.2269 -0.2521 -0.9407
vn 0.4021 -0.4473 -0.7989
vn 0.4022 -0.4474 -0.7988
vn 0.2266 -0.2520 -0.9408
vn -0.2555 0.2843 -0.9240
vn -0.2556 0.2844 -0.9240
vn -0.6231 0.6933 -0.3621
vn -0.6230 0.6933 -0.3621
vn -0.6684 0.7438 -0.0003
vn -0.6685 0.7437 0.0001
vn -0.7689 -0.6176 -0.1652
vn -0.7689 -0.6177 -0.1650
vn -0.7687 -0.6180 -0.1649
vn -0.7692 -0.6174 -0.1649
vn -0.7693 -0.6173 -0.1648
vn 0.0142 -0.3331 0.9428
vn 0.1641 -0.5801 0.7979
vn 0.3262 -0.6230 0.7110
vn 0.0510 -0.2419 0.9690
vn 0.3298 -0.0494 0.9428
vn 0.2350 -0.0763 0.9690
vn 0.5601 -0.2251 0.7972
vn 0.5860 -0.3914 0.7095
vn 0.2379 -0.2646 0.9345
vn 0.2379 -0.2647 0.9345
vn 0.2379 -0.2648 0.9345
usemtl EnvironmentMat
s 1
f 1/1/1 3/2/2 2/3/1
f 2/3/1 3/2/2 4/4/2
f 5/5/3 6/6/4 1/7/5
f 1/7/5 6/6/4 3/8/4
f 7/9/6 8/10/7 5/5/6
f 5/5/6 8/10/7 6/6/7
f 2/11/8 4/12/9 7/9/10
f 7/9/10 4/12/9 8/10/9
f 8/13/11 4/14/11 6/15/11
f 4/14/11 3/16/11 6/15/11
f 1/17/12 7/18/12 5/19/12
f 7/18/12 1/17/12 2/20/12
f 9/21/2 11/22/2 10/23/2
f 11/22/2 9/21/2 12/24/2
f 9/25/12 10/26/12 13/27/12
f 13/27/12 10/26/12 14/28/12
f 15/29/13 16/30/13 14/28/13
f 13/27/13 14/28/13 16/30/13
f 11/31/11 12/32/11 15/29/11
f 15/29/11 12/32/11 16/30/11
f 17/33/14 19/34/15 18/35/16
f 17/33/14 20/36/17 19/34/15
f 20/36/17 17/33/14 21/37/18
f 22/38/19 21/37/20 23/39/21
f 21/37/20 22/38/19 20/36/22
f 20/36/22 22/38/19 24/40/23
f 20/36/22 24/40/23 19/34/24
f 19/34/24 24/40/23 25/41/25
f 19/34/24 25/41/25 18/35/26
f 25/41/25 17/33/27 18/35/26
f 17/33/27 25/41/25 26/42/28
f 24/40/29 26/42/30 25/41/31
f 22/38/32 26/42/30 24/40/29
f 23/39/33 26/42/30 22/38/32
f 27/43/34 17/44/35 28/45/36
f 17/44/35 27/43/34 21/46/37
f 29/47/38 21/46/37 27/43/34
f 21/46/37 29/47/38 23/48/39
f 26/49/40 23/48/39 29/47/38
f 26/49/40 29/47/38 30/50/41
f 17/51/35 26/49/40 30/50/41
f 17/51/35 30/50/41 28/52/36
f 28/53/42 30/54/43 31/55/43
f 27/56/43 28/53/42 31/55/43
f 30/54/43 29/57/44 31/55/43
f 29/57/44 27/56/43 31/55/43
