# Blender v3.4.1 OBJ File: 'track.blend'
# www.blender.org
mtllib _0LAMP_corner_04_005_Scene.057.mtl
o _0LAMP_corner_04_005_Scene.057
v -0.217424 834.606873 -13.571424
v -0.294210 834.695740 -13.571424
v -0.217424 834.606873 -7.550661
v -0.294209 834.695740 -7.550661
v -0.128574 834.683716 -13.571424
v -0.128574 834.683716 -7.550661
v -0.205360 834.772583 -13.571424
v -0.205359 834.772583 -7.550661
v 0.265137 834.092712 -13.531415
v -0.199154 834.629822 -13.531414
v -0.199154 834.629822 -13.471703
v 0.265137 834.092712 -13.471704
v 0.310313 834.131775 -13.531415
v -0.153978 834.668945 -13.531414
v -0.153978 834.668945 -13.471703
v 0.310313 834.131775 -13.471704
v 0.360763 834.292114 -13.326373
v 0.340645 834.274719 -13.471714
v 0.415239 834.188416 -13.585793
v 0.611739 833.961060 -13.585794
v 0.690399 833.910706 -13.518325
v 0.390340 833.769653 -13.585794
v 0.428765 833.684509 -13.518325
v 0.193841 833.997009 -13.585794
v 0.119247 834.083313 -13.471715
v 0.099129 834.065979 -13.326374
v 0.550050 833.964661 -13.498105
v 0.321567 834.229126 -13.365052
v 0.395691 833.831299 -13.498105
v 0.167208 834.095703 -13.365053
v 0.358629 834.030212 -13.431584
vt 0.487913 1.763667
vt 0.384907 1.763667
vt 0.487913 1.770191
vt 0.384907 1.770191
vt 0.384907 1.763618
vt 0.487913 1.763618
vt 0.384907 1.770191
vt 0.487913 1.770191
vt 0.384907 1.770191
vt 0.487913 1.770191
vt 0.384907 1.763667
vt 0.487913 1.763667
vt 0.458985 1.775614
vt 0.455340 1.775614
vt 0.458985 1.774532
vt 0.455340 1.774532
vt 0.457749 1.775614
vt 0.456575 1.776695
vt 0.456575 1.775614
vt 0.457749 1.776695
vt 0.384907 1.763667
vt 0.487913 1.770191
vt 0.487913 1.763667
vt 0.384907 1.770191
vt 0.487913 1.770191
vt 0.384907 1.770191
vt 0.487913 1.763618
vt 0.384907 1.763618
vt 0.384907 1.770191
vt 0.487913 1.770191
vt 0.384907 1.763667
vt 0.487913 1.763667
vt 0.823136 1.910260
vt 0.823136 1.910260
vt 0.823136 1.910260
vt 0.823136 1.910260
vt 0.823136 1.910260
vt 0.823136 1.910260
vt 0.823136 1.910260
vt 0.823136 1.910260
vt 0.823136 1.910260
vt 0.823136 1.910260
vt 0.492074 1.825578
vt 0.491302 1.819964
vt 0.492074 1.819964
vt 0.491302 1.825578
vt 0.492074 1.829223
vt 0.491302 1.829223
vt 0.491302 1.834838
vt 0.492074 1.834838
vt 0.491302 1.838482
vt 0.492074 1.838482
vt 0.829249 1.930272
vt 0.829249 1.930272
vt 0.829256 1.930104
vt 0.829249 1.930272
vt 0.829249 1.930272
vn -0.7567 -0.6538 0.0000
vn -0.7561 -0.6544 -0.0000
vn -0.7560 -0.6545 -0.0000
vn 0.6542 -0.7564 0.0000
vn 0.6534 -0.7570 0.0000
vn 0.7560 0.6545 0.0000
vn 0.7567 0.6538 0.0000
vn 0.7561 0.6545 0.0000
vn -0.6542 0.7564 0.0000
vn 0.0000 0.0000 1.0000
vn 0.0000 0.0000 -1.0000
vn -0.7565 -0.6540 0.0000
vn 0.7566 0.6539 0.0000
vn 0.7091 0.6855 -0.1652
vn 0.7090 0.6856 -0.1655
vn 0.7091 0.6856 -0.1649
vn 0.7093 0.6854 -0.1647
vn 0.7095 0.6853 -0.1645
vn 0.2218 -0.2565 -0.9408
vn 0.3935 -0.4552 -0.7987
vn 0.2217 -0.2564 -0.9408
vn -0.2503 0.2895 -0.9239
vn -0.6096 0.7052 -0.3620
vn -0.6097 0.7052 -0.3620
vn -0.6540 0.7565 -0.0005
vn -0.6539 0.7566 -0.0004
vn -0.7810 -0.6024 -0.1647
vn -0.7811 -0.6023 -0.1647
vn -0.7814 -0.6019 -0.1646
vn -0.7811 -0.6021 -0.1652
vn -0.7812 -0.6020 -0.1652
vn 0.0076 -0.3336 0.9427
vn 0.1524 -0.5836 0.7976
vn 0.3139 -0.6299 0.7105
vn 0.0462 -0.2429 0.9690
vn 0.3290 -0.0558 0.9427
vn 0.2337 -0.0809 0.9689
vn 0.5554 -0.2357 0.7975
vn 0.5779 -0.4026 0.7099
vn 0.2328 -0.2694 0.9345
vn 0.2328 -0.2693 0.9345
vn 0.2327 -0.2692 0.9346
vn 0.2326 -0.2692 0.9346
usemtl EnvironmentMat
s 1
f 1/1/1 3/2/2 2/3/1
f 2/3/1 3/2/2 4/4/3
f 5/5/4 6/6/5 1/7/4
f 1/7/4 6/6/5 3/8/5
f 7/9/6 8/10/7 5/5/8
f 5/5/8 8/10/7 6/6/7
f 2/11/9 4/12/9 7/9/9
f 7/9/9 4/12/9 8/10/9
f 8/13/10 4/14/10 6/15/10
f 4/14/10 3/16/10 6/15/10
f 1/17/11 7/18/11 5/19/11
f 7/18/11 1/17/11 2/20/11
f 9/21/12 11/22/12 10/23/12
f 11/22/12 9/21/12 12/24/12
f 9/25/11 10/26/11 13/27/11
f 13/27/11 10/26/11 14/28/11
f 15/29/13 16/30/13 14/28/13
f 13/27/13 14/28/13 16/30/13
f 11/31/10 12/32/10 15/29/10
f 15/29/10 12/32/10 16/30/10
f 17/33/14 19/34/15 18/35/16
f 17/33/14 20/36/17 19/34/15
f 20/36/17 17/33/14 21/37/18
f 22/38/19 21/37/20 23/39/20
f 21/37/20 22/38/19 20/36/21
f 20/36/21 22/38/19 24/40/22
f 20/36/21 24/40/22 19/34/22
f 19/34/22 24/40/22 25/41/23
f 19/34/22 25/41/23 18/35/24
f 25/41/23 17/33/25 18/35/24
f 17/33/25 25/41/23 26/42/26
f 24/40/27 26/42/28 25/41/29
f 22/38/30 26/42/28 24/40/27
f 23/39/31 26/42/28 22/38/30
f 27/43/32 17/44/33 28/45/34
f 17/44/33 27/43/32 21/46/35
f 29/47/36 21/46/35 27/43/32
f 21/46/35 29/47/36 23/48/37
f 26/49/38 23/48/37 29/47/36
f 26/49/38 29/47/36 30/50/39
f 17/51/33 26/49/38 30/50/39
f 17/51/33 30/50/39 28/52/34
f 28/53/40 30/54/41 31/55/42
f 27/56/43 28/53/40 31/55/42
f 30/54/41 29/57/43 31/55/42
f 29/57/43 27/56/43 31/55/42
