# Blender v3.4.1 OBJ File: 'track.blend'
# www.blender.org
mtllib _0LAMP_corner_04_001_Scene.053.mtl
o _0LAMP_corner_04_001_Scene.053
v 91.626099 911.840088 -13.571411
v 91.550621 911.930054 -13.571411
v 91.626099 911.840088 -7.550648
v 91.550621 911.930054 -7.550648
v 91.716072 911.915588 -13.571411
v 91.716072 911.915588 -7.550648
v 91.640587 912.005432 -13.571411
v 91.640587 912.005432 -7.550648
v 92.101143 911.318726 -13.531402
v 91.644707 911.862793 -13.531402
v 91.644707 911.862793 -13.471690
v 92.101143 911.318726 -13.471690
v 92.146881 911.357178 -13.531402
v 91.690460 911.901123 -13.531402
v 91.690460 911.901123 -13.471690
v 92.146881 911.357178 -13.471690
v 92.199654 911.516846 -13.326361
v 92.179283 911.499817 -13.471702
v 92.252617 911.412415 -13.585781
v 92.445786 911.182190 -13.585781
v 92.523697 911.130676 -13.518312
v 92.221626 910.994019 -13.585781
v 92.258804 910.908325 -13.518312
v 92.028458 911.224304 -13.585781
v 91.955124 911.311707 -13.471702
v 91.934761 911.294617 -13.326361
v 92.384155 911.186707 -13.498092
v 92.159546 911.454346 -13.365040
v 92.227867 911.055603 -13.498092
v 92.003273 911.323181 -13.365040
v 92.193710 911.255005 -13.431571
vt 0.487913 1.763667
vt 0.384907 1.763667
vt 0.487913 1.770191
vt 0.384907 1.770191
vt 0.384907 1.763618
vt 0.487913 1.763618
vt 0.384907 1.770191
vt 0.487913 1.770191
vt 0.384907 1.770191
vt 0.487913 1.770191
vt 0.384907 1.763667
vt 0.487913 1.763667
vt 0.458985 1.775614
vt 0.455340 1.775614
vt 0.458985 1.774532
vt 0.455340 1.774532
vt 0.457749 1.775614
vt 0.456575 1.776695
vt 0.456575 1.775614
vt 0.457749 1.776695
vt 0.384907 1.763667
vt 0.487913 1.770191
vt 0.487913 1.763667
vt 0.384907 1.770191
vt 0.487913 1.770191
vt 0.384907 1.770191
vt 0.487913 1.763618
vt 0.384907 1.763618
vt 0.384907 1.770191
vt 0.487913 1.770191
vt 0.384907 1.763667
vt 0.487913 1.763667
vt 0.823136 1.910260
vt 0.823136 1.910260
vt 0.823136 1.910260
vt 0.823136 1.910260
vt 0.823136 1.910260
vt 0.823136 1.910260
vt 0.823136 1.910260
vt 0.823136 1.910260
vt 0.823136 1.910260
vt 0.823136 1.910260
vt 0.492074 1.825578
vt 0.491302 1.819964
vt 0.492074 1.819964
vt 0.491302 1.825578
vt 0.492074 1.829223
vt 0.491302 1.829223
vt 0.491302 1.834838
vt 0.492074 1.834838
vt 0.491302 1.838482
vt 0.492074 1.838482
vt 0.829249 1.930272
vt 0.829249 1.930272
vt 0.829256 1.930104
vt 0.829249 1.930272
vt 0.829249 1.930272
vn -0.7657 -0.6432 0.0000
vn -0.7661 -0.6428 0.0000
vn -0.7656 -0.6433 0.0000
vn 0.6424 -0.7664 -0.0000
vn 0.6428 -0.7661 0.0000
vn 0.7662 0.6426 -0.0000
vn 0.7656 0.6433 0.0000
vn 0.7660 0.6429 0.0000
vn -0.6423 0.7665 0.0000
vn -0.6429 0.7659 -0.0000
vn -0.0000 0.0000 1.0000
vn 0.0000 0.0000 -1.0000
vn -0.7661 -0.6427 0.0000
vn 0.7660 0.6428 0.0000
vn 0.7661 0.6428 0.0000
vn 0.7193 0.6749 -0.1648
vn 0.7191 0.6751 -0.1648
vn 0.7200 0.6740 -0.1652
vn 0.7188 0.6755 -0.1646
vn 0.7188 0.6755 -0.1645
vn 0.2180 -0.2598 -0.9407
vn 0.3871 -0.4611 -0.7985
vn 0.3868 -0.4608 -0.7987
vn 0.2181 -0.2598 -0.9407
vn -0.2460 0.2931 -0.9239
vn -0.5992 0.7142 -0.3618
vn -0.5993 0.7141 -0.3619
vn -0.6426 0.7662 -0.0006
vn -0.6427 0.7661 0.0001
vn -0.7898 -0.5906 -0.1653
vn -0.7897 -0.5908 -0.1651
vn -0.7897 -0.5908 -0.1653
vn -0.7896 -0.5911 -0.1646
vn -0.7895 -0.5913 -0.1644
vn 0.0027 -0.3338 0.9426
vn 0.1445 -0.5862 0.7972
vn 0.3056 -0.6350 0.7095
vn 0.0427 -0.2435 0.9689
vn 0.3280 -0.0606 0.9427
vn 0.2324 -0.0843 0.9690
vn 0.5523 -0.2443 0.7971
vn 0.5724 -0.4112 0.7094
vn 0.2287 -0.2725 0.9346
vn 0.2289 -0.2726 0.9345
vn 0.2287 -0.2726 0.9346
vn 0.2286 -0.2726 0.9346
vn 0.2288 -0.2726 0.9345
usemtl EnvironmentMat
s 1
f 1/1/1 3/2/2 2/3/3
f 2/3/3 3/2/2 4/4/2
f 5/5/4 6/6/5 1/7/4
f 1/7/4 6/6/5 3/8/5
f 7/9/6 8/10/7 5/5/8
f 5/5/8 8/10/7 6/6/7
f 2/11/9 4/12/10 7/9/9
f 7/9/9 4/12/10 8/10/10
f 8/13/11 4/14/11 6/15/11
f 4/14/11 3/16/11 6/15/11
f 1/17/12 7/18/12 5/19/12
f 7/18/12 1/17/12 2/20/12
f 9/21/13 11/22/13 10/23/13
f 11/22/13 9/21/13 12/24/13
f 9/25/12 10/26/12 13/27/12
f 13/27/12 10/26/12 14/28/12
f 15/29/14 16/30/15 14/28/14
f 13/27/15 14/28/14 16/30/15
f 11/31/11 12/32/11 15/29/11
f 15/29/11 12/32/11 16/30/11
f 17/33/16 19/34/17 18/35/18
f 17/33/16 20/36/19 19/34/17
f 20/36/19 17/33/16 21/37/20
f 22/38/21 21/37/22 23/39/23
f 21/37/22 22/38/21 20/36/24
f 20/36/24 22/38/21 24/40/25
f 20/36/24 24/40/25 19/34/25
f 19/34/25 24/40/25 25/41/26
f 19/34/25 25/41/26 18/35/27
f 25/41/26 17/33/28 18/35/27
f 17/33/28 25/41/26 26/42/29
f 24/40/30 26/42/31 25/41/32
f 22/38/33 26/42/31 24/40/30
f 23/39/34 26/42/31 22/38/33
f 27/43/35 17/44/36 28/45/37
f 17/44/36 27/43/35 21/46/38
f 29/47/39 21/46/38 27/43/35
f 21/46/38 29/47/39 23/48/40
f 26/49/41 23/48/40 29/47/39
f 26/49/41 29/47/39 30/50/42
f 17/51/36 26/49/41 30/50/42
f 17/51/36 30/50/42 28/52/37
f 28/53/43 30/54/44 31/55/45
f 27/56/46 28/53/43 31/55/45
f 30/54/44 29/57/47 31/55/45
f 29/57/47 27/56/46 31/55/45
