# Blender v3.4.1 OBJ File: 'track.blend'
# www.blender.org
mtllib _0PITBOX_BUILDING01_01_SUB1_Scene.064.mtl
o _0PITBOX_BUILDING01_01_SUB1_Scene.064
v 251.843399 617.362183 -10.725279
v 252.012695 617.042175 -7.887073
v 250.894897 612.809326 -10.725279
v 251.121094 612.762146 -7.887074
v 249.938400 608.217651 -10.725280
v 250.164505 608.170593 -7.887073
v 249.207977 603.578979 -7.887073
v 248.981796 603.626099 -10.725281
v 248.316299 599.299011 -7.887072
v 248.033295 599.073181 -10.725272
v 251.903595 617.401672 -10.725279
v 256.390991 616.466919 -10.725279
v 252.072998 617.081726 -7.887073
v 256.566315 616.145630 -7.887073
v 260.906708 615.526001 -10.725279
v 260.849915 615.253174 -7.887073
v 265.133514 614.360779 -7.887073
v 265.422485 614.585388 -10.725279
v 269.626801 613.424683 -7.887073
v 269.909912 613.650513 -10.725279
v 251.843399 617.362183 -14.725279
v 252.012695 617.042175 -11.887070
v 250.894897 612.809326 -14.725279
v 251.121094 612.762146 -11.887070
v 249.938400 608.217651 -14.725280
v 250.164505 608.170593 -11.887071
v 249.207977 603.578979 -11.887072
v 248.981796 603.626099 -14.725281
v 248.316299 599.299011 -11.887073
v 248.033295 599.073181 -14.725272
v 251.903595 617.401672 -14.725279
v 256.390991 616.466919 -14.725279
v 252.072998 617.081726 -11.887070
v 256.566315 616.145630 -11.887070
v 260.906708 615.526001 -14.725279
v 260.849915 615.253174 -11.887070
v 265.133514 614.360779 -11.887070
v 265.422485 614.585388 -14.725279
v 269.626801 613.424683 -11.887070
v 269.909912 613.650513 -14.725279
v 251.843399 617.362183 -18.725279
v 252.012695 617.042175 -15.887070
v 250.894897 612.809326 -18.725281
v 251.121094 612.762146 -15.887070
v 249.938400 608.217651 -18.725281
v 250.164505 608.170593 -15.887071
v 249.207977 603.578979 -15.887072
v 248.981796 603.626099 -18.725281
v 248.316299 599.299011 -15.887073
v 248.033295 599.073181 -18.725273
v 251.903595 617.401672 -18.725279
v 256.390991 616.466919 -18.725279
v 252.072998 617.081726 -15.887070
v 256.566315 616.145630 -15.887070
v 260.906708 615.526001 -18.725279
v 260.849915 615.253174 -15.887070
v 265.133514 614.360779 -15.887070
v 265.422485 614.585388 -18.725281
v 269.626801 613.424683 -15.887070
v 269.909912 613.650513 -18.725281
v 269.949310 613.590271 -10.725279
v 269.000793 609.037415 -10.725280
v 269.666290 613.364380 -7.887073
v 268.774597 609.084412 -7.887074
v 268.044312 604.445679 -10.725281
v 267.818115 604.492920 -7.887074
v 266.861511 599.901184 -7.887073
v 267.087708 599.854126 -10.725282
v 265.969910 595.621277 -7.887073
v 266.139191 595.301208 -10.725272
v 269.949310 613.590271 -14.725279
v 269.000793 609.037415 -14.725280
v 269.666290 613.364380 -11.887070
v 268.774597 609.084412 -11.887071
v 268.044312 604.445679 -14.725281
v 267.818115 604.492920 -11.887072
v 266.861511 599.901184 -11.887073
v 267.087708 599.854126 -14.725282
v 265.969910 595.621277 -11.887073
v 266.139191 595.301208 -14.725272
v 269.949310 613.590271 -18.725281
v 269.000793 609.037415 -18.725281
v 269.666290 613.364380 -15.887070
v 268.774597 609.084412 -15.887071
v 268.044312 604.445679 -18.725281
v 267.818115 604.492920 -15.887072
v 266.861511 599.901184 -15.887073
v 267.087708 599.854126 -18.725283
v 265.969910 595.621277 -15.887073
v 266.139191 595.301208 -18.725273
v 248.072693 599.012878 -10.725272
v 248.355789 599.238708 -7.887072
v 252.560089 598.078125 -10.725272
v 252.849091 598.302673 -7.887073
v 257.075897 597.137512 -10.725272
v 257.132690 597.410278 -7.887073
v 261.416290 596.517883 -7.887073
v 261.591614 596.196472 -10.725272
v 265.909607 595.581787 -7.887073
v 266.078888 595.261719 -10.725272
v 248.072693 599.012878 -14.725272
v 248.355789 599.238708 -11.887073
v 252.560089 598.078125 -14.725282
v 252.849091 598.302673 -11.887073
v 257.075897 597.137512 -14.725272
v 257.132690 597.410278 -11.887073
v 261.416290 596.517883 -11.887073
v 261.591614 596.196472 -14.725282
v 265.909607 595.581787 -11.887073
v 266.078888 595.261719 -14.725272
v 248.072693 599.012878 -18.725273
v 248.355789 599.238708 -15.887073
v 252.560089 598.078125 -18.725283
v 252.849091 598.302673 -15.887073
v 257.075897 597.137512 -18.725273
v 257.132690 597.410278 -15.887073
v 261.416290 596.517883 -15.887073
v 261.591614 596.196472 -18.725283
v 265.909607 595.581787 -15.887073
v 266.078888 595.261719 -18.725273
vt 0.814128 1.896881
vt 0.814128 1.896881
vt 0.814128 1.896392
vt 0.814128 1.896392
vt 0.814128 1.896881
vt 0.814128 1.896392
vt 0.814128 1.896392
vt 0.814128 1.896881
vt 0.814128 1.896392
vt 0.814128 1.896881
vt 0.814128 1.896881
vt 0.814128 1.896392
vt 0.814128 1.896881
vt 0.814128 1.896392
vt 0.814128 1.896881
vt 0.814128 1.896392
vt 0.814128 1.896392
vt 0.814128 1.896881
vt 0.814128 1.896392
vt 0.814128 1.896881
vt 0.814128 1.896881
vt 0.814128 1.896881
vt 0.814128 1.896392
vt 0.814128 1.896392
vt 0.814128 1.896881
vt 0.814128 1.896392
vt 0.814128 1.896392
vt 0.814128 1.896881
vt 0.814128 1.896392
vt 0.814128 1.896881
vt 0.814128 1.896881
vt 0.814128 1.896392
vt 0.814128 1.896881
vt 0.814128 1.896392
vt 0.814128 1.896881
vt 0.814128 1.896392
vt 0.814128 1.896392
vt 0.814128 1.896881
vt 0.814128 1.896392
vt 0.814128 1.896881
vt 0.814128 1.896881
vt 0.814128 1.896881
vt 0.814128 1.896392
vt 0.814128 1.896392
vt 0.814128 1.896881
vt 0.814128 1.896392
vt 0.814128 1.896392
vt 0.814128 1.896881
vt 0.814128 1.896392
vt 0.814128 1.896881
vt 0.814128 1.896881
vt 0.814128 1.896392
vt 0.814128 1.896881
vt 0.814128 1.896392
vt 0.814128 1.896881
vt 0.814128 1.896392
vt 0.814128 1.896392
vt 0.814128 1.896881
vt 0.814128 1.896392
vt 0.814128 1.896881
vt 0.814128 1.896881
vt 0.814128 1.896392
vt 0.814128 1.896881
vt 0.814128 1.896392
vt 0.814128 1.896881
vt 0.814128 1.896392
vt 0.814128 1.896392
vt 0.814128 1.896881
vt 0.814128 1.896392
vt 0.814128 1.896881
vt 0.814128 1.896881
vt 0.814128 1.896392
vt 0.814128 1.896881
vt 0.814128 1.896392
vt 0.814128 1.896881
vt 0.814128 1.896392
vt 0.814128 1.896392
vt 0.814128 1.896881
vt 0.814128 1.896392
vt 0.814128 1.896881
vt 0.814128 1.896881
vt 0.814128 1.896392
vt 0.814128 1.896881
vt 0.814128 1.896392
vt 0.814128 1.896881
vt 0.814128 1.896392
vt 0.814128 1.896392
vt 0.814128 1.896881
vt 0.814128 1.896392
vt 0.814128 1.896881
vt 0.814128 1.896881
vt 0.814128 1.896881
vt 0.814128 1.896392
vt 0.814128 1.896392
vt 0.814128 1.896881
vt 0.814128 1.896392
vt 0.814128 1.896392
vt 0.814128 1.896881
vt 0.814128 1.896392
vt 0.814128 1.896881
vt 0.814128 1.896881
vt 0.814128 1.896881
vt 0.814128 1.896392
vt 0.814128 1.896392
vt 0.814128 1.896881
vt 0.814128 1.896392
vt 0.814128 1.896392
vt 0.814128 1.896881
vt 0.814128 1.896392
vt 0.814128 1.896881
vt 0.814128 1.896881
vt 0.814128 1.896881
vt 0.814128 1.896392
vt 0.814128 1.896392
vt 0.814128 1.896881
vt 0.814128 1.896392
vt 0.814128 1.896392
vt 0.814128 1.896881
vt 0.814128 1.896392
vt 0.814128 1.896881
vn -0.9758 0.2033 0.0811
vn -0.9758 0.2033 0.0804
vn 0.2030 0.9743 0.0982
vn 0.2030 0.9742 0.0982
vn 0.2030 0.9742 0.0987
vn 0.2030 0.9743 0.0978
vn 0.2030 0.9742 0.0986
vn 0.2030 0.9743 0.0977
vn 0.2030 0.9743 0.0981
vn 0.2029 0.9743 0.0982
vn -0.9758 0.2033 0.0808
vn 0.2030 0.9742 0.0988
vn 0.2030 0.9742 0.0983
vn 0.2030 0.9742 0.0985
vn -0.9758 0.2033 0.0806
vn 0.2029 0.9743 0.0981
vn 0.9758 -0.2033 0.0811
vn 0.9758 -0.2033 0.0808
vn -0.2029 -0.9743 0.0981
vn -0.2030 -0.9742 0.0983
vn -0.2030 -0.9743 0.0978
vn -0.2030 -0.9743 0.0977
vn -0.2030 -0.9742 0.0986
vn -0.2030 -0.9742 0.0984
vn -0.2030 -0.9742 0.0982
vn -0.2030 -0.9743 0.0981
vn -0.2029 -0.9743 0.0978
usemtl Glass_Black
s 1
f 1/1/1 3/2/1 2/3/1
f 3/2/1 4/4/1 2/3/1
f 3/2/1 5/5/2 4/4/1
f 5/5/2 6/6/1 4/4/1
f 5/5/2 7/7/1 6/6/1
f 8/8/1 7/7/1 5/5/2
f 8/8/1 9/9/1 7/7/1
f 10/10/1 9/9/1 8/8/1
f 11/11/3 13/12/4 12/13/5
f 12/13/5 13/12/4 14/14/6
f 12/13/5 14/14/6 15/15/7
f 15/15/7 14/14/6 16/16/8
f 15/15/7 16/16/8 17/17/9
f 18/18/10 15/15/7 17/17/9
f 18/18/10 17/17/9 19/19/6
f 20/20/4 18/18/10 19/19/6
f 21/21/1 23/22/1 22/23/11
f 23/22/1 24/24/1 22/23/11
f 23/22/1 25/25/1 24/24/1
f 25/25/1 26/26/1 24/24/1
f 25/25/1 27/27/1 26/26/1
f 28/28/1 27/27/1 25/25/1
f 28/28/1 29/29/1 27/27/1
f 30/30/1 29/29/1 28/28/1
f 31/31/4 33/32/4 32/33/5
f 32/33/5 33/32/4 34/34/9
f 32/33/5 34/34/9 35/35/12
f 35/35/12 34/34/9 36/36/13
f 35/35/12 36/36/13 37/37/9
f 38/38/4 35/35/12 37/37/9
f 38/38/4 37/37/9 39/39/14
f 40/40/6 38/38/4 39/39/14
f 41/41/1 43/42/1 42/43/15
f 43/42/1 44/44/1 42/43/15
f 43/42/1 45/45/1 44/44/1
f 45/45/1 46/46/1 44/44/1
f 45/45/1 47/47/1 46/46/1
f 48/48/1 47/47/1 45/45/1
f 48/48/1 49/49/1 47/47/1
f 50/50/1 49/49/1 48/48/1
f 51/51/13 53/52/13 52/53/4
f 52/53/4 53/52/13 54/54/9
f 52/53/4 54/54/9 55/55/7
f 55/55/7 54/54/9 56/56/13
f 55/55/7 56/56/13 57/57/4
f 58/58/13 55/55/7 57/57/4
f 58/58/13 57/57/4 59/59/16
f 60/60/10 58/58/13 59/59/16
f 61/61/17 63/62/17 62/63/17
f 62/63/17 63/62/17 64/64/17
f 62/63/17 64/64/17 65/65/18
f 65/65/18 64/64/17 66/66/18
f 65/65/18 66/66/18 67/67/17
f 68/68/17 65/65/18 67/67/17
f 68/68/17 67/67/17 69/69/17
f 70/70/17 68/68/17 69/69/17
f 71/71/17 73/72/17 72/73/17
f 72/73/17 73/72/17 74/74/17
f 72/73/17 74/74/17 75/75/17
f 75/75/17 74/74/17 76/76/17
f 75/75/17 76/76/17 77/77/17
f 78/78/17 75/75/17 77/77/17
f 78/78/17 77/77/17 79/79/17
f 80/80/17 78/78/17 79/79/17
f 81/81/17 83/82/17 82/83/17
f 82/83/17 83/82/17 84/84/17
f 82/83/17 84/84/17 85/85/17
f 85/85/17 84/84/17 86/86/17
f 85/85/17 86/86/17 87/87/17
f 88/88/17 85/85/17 87/87/17
f 88/88/17 87/87/17 89/89/17
f 90/90/18 88/88/17 89/89/17
f 91/91/19 93/92/20 92/93/21
f 93/92/20 94/94/22 92/93/21
f 93/92/20 95/95/23 94/94/22
f 95/95/23 96/96/20 94/94/22
f 95/95/23 97/97/21 96/96/20
f 98/98/24 97/97/21 95/95/23
f 98/98/24 99/99/21 97/97/21
f 100/100/20 99/99/21 98/98/24
f 101/101/21 103/102/25 102/103/26
f 103/102/25 104/104/19 102/103/26
f 103/102/25 105/105/23 104/104/19
f 105/105/23 106/106/25 104/104/19
f 105/105/23 107/107/21 106/106/25
f 108/108/23 107/107/21 105/105/23
f 108/108/23 109/109/21 107/107/21
f 110/110/21 109/109/21 108/108/23
f 111/111/27 113/112/26 112/113/21
f 113/112/26 114/114/22 112/113/21
f 113/112/26 115/115/24 114/114/22
f 115/115/24 116/116/25 114/114/22
f 115/115/24 117/117/21 116/116/25
f 118/118/24 117/117/21 115/115/24
f 118/118/24 119/119/21 117/117/21
f 120/120/26 119/119/21 118/118/24
