# Blender v3.1.2 OBJ File: 'track.blend'
# www.blender.org
mtllib _0PITTENT02_01_SUB2.mtl
o _0PITTENT02_01_SUB2_Scene.070
v 31618.921875 83732.718750 -888.207825
v 31618.900391 83732.609375 -994.842834
v 31865.908203 84898.632812 -994.842529
v 31865.890625 84898.523438 -888.207642
v 31366.488281 82541.164062 -888.207825
v 31366.470703 82541.054688 -994.842712
v 31613.488281 83707.070312 -994.842529
v 31613.460938 83706.960938 -888.207520
v 31114.068359 81349.593750 -888.207703
v 31114.050781 81349.500000 -994.842712
v 31361.058594 82515.523438 -994.842407
v 31361.041016 82515.414062 -888.207458
v 30861.638672 80158.046875 -888.207642
v 30861.621094 80157.937500 -994.842651
v 31108.638672 81323.960938 -994.842346
v 31108.609375 81323.851562 -888.207458
v 30609.218750 78966.492188 -888.207642
v 30609.201172 78966.382812 -994.842529
v 30856.210938 80132.398438 -994.842346
v 30856.189453 80132.289062 -888.207336
v 30356.791016 77774.937500 -888.207520
v 30356.769531 77774.828125 -994.842529
v 30603.781250 78940.835938 -994.842224
v 30603.759766 78940.726562 -888.207336
v 30104.371094 76583.382812 -888.207520
v 30104.349609 76583.273438 -994.842407
v 30351.361328 77749.289062 -994.842224
v 30351.339844 77749.179688 -888.207275
v 29851.941406 75391.820312 -888.207458
v 29851.919922 75391.718750 -994.842407
v 30098.929688 76557.726562 -994.842041
v 30098.910156 76557.617188 -888.207275
v 29599.521484 74200.265625 -888.207458
v 29599.500000 74200.156250 -994.842346
v 29846.507812 75366.171875 -994.842041
v 29846.490234 75366.054688 -888.207031
v 29347.087891 73008.710938 -888.207336
v 29347.070312 73008.601562 -994.842346
v 29594.087891 74174.625000 -994.842041
v 29594.060547 74174.515625 -888.207031
v 29094.667969 71817.148438 -888.207275
v 29094.650391 71817.046875 -994.842224
v 29341.660156 72983.062500 -994.842041
v 29341.640625 72982.953125 -888.207031
v 28842.248047 70625.601562 -888.207275
v 28842.220703 70625.484375 -994.842041
v 29089.240234 71791.500000 -994.841980
v 29089.208984 71791.398438 -888.207031
v 28589.820312 69434.039062 -888.207031
v 28589.800781 69433.945312 -994.842041
v 28836.810547 70599.953125 -994.841858
v 28836.789062 70599.843750 -888.206970
v 28337.398438 68242.484375 -888.207031
v 28337.369141 68242.382812 -994.842041
v 28584.390625 69408.390625 -994.841858
v 28584.359375 69408.281250 -888.206848
v 28084.970703 67050.929688 -888.207031
v 28084.949219 67050.820312 -994.842041
v 28331.960938 68216.828125 -994.841797
v 28331.939453 68216.726562 -888.206848
v 27832.541016 65859.367188 -888.207031
v 27832.519531 65859.273438 -994.841980
v 28079.541016 67025.281250 -994.841797
v 28079.509766 67025.171875 -888.206787
v 27580.121094 64667.808594 -888.206970
v 27580.099609 64667.710938 -994.841980
v 27827.109375 65833.718750 -994.841675
v 27827.089844 65833.609375 -888.206787
vt 13.713560 1.041076
vt -12.713880 1.305557
vt 13.713560 1.305557
vt -12.713240 1.041076
vt 13.713560 1.041076
vt -12.713880 1.305557
vt 13.713560 1.305557
vt -12.713240 1.041076
vt 13.713560 1.041076
vt -12.713880 1.305557
vt 13.713560 1.305557
vt -12.713240 1.041076
vt 13.713560 1.041076
vt -12.713880 1.305557
vt 13.713560 1.305557
vt -12.713240 1.041076
vt 13.713560 1.041076
vt -12.713880 1.305557
vt 13.713560 1.305557
vt -12.713240 1.041076
vt 13.713560 1.041076
vt -12.713880 1.305557
vt 13.713560 1.305557
vt -12.713240 1.041076
vt 13.713560 1.041076
vt -12.713880 1.305557
vt 13.713560 1.305557
vt -12.713240 1.041076
vt 13.713560 1.041076
vt -12.713880 1.305557
vt 13.713560 1.305557
vt -12.713240 1.041076
vt 13.713560 1.041076
vt -12.713880 1.305557
vt 13.713560 1.305557
vt -12.713240 1.041076
vt 13.713560 1.041076
vt -12.713880 1.305557
vt 13.713560 1.305557
vt -12.713240 1.041076
vt 13.713560 1.041076
vt -12.713880 1.305557
vt 13.713560 1.305557
vt -12.713240 1.041076
vt 13.713560 1.041076
vt -12.713880 1.305557
vt 13.713560 1.305557
vt -12.713240 1.041076
vt 13.713560 1.041076
vt -12.713880 1.305557
vt 13.713560 1.305557
vt -12.713240 1.041076
vt 13.713560 1.041076
vt -12.713880 1.305557
vt 13.713560 1.305557
vt -12.713240 1.041076
vt 13.713560 1.041076
vt -12.713880 1.305557
vt 13.713560 1.305557
vt -12.713240 1.041076
vt 13.713560 1.041076
vt -12.713880 1.305557
vt 13.713560 1.305557
vt -12.713240 1.041076
vt 13.713560 1.041076
vt -12.713880 1.305557
vt 13.713560 1.305557
vt -12.713240 1.041076
vn -0.9783 0.2072 0.0000
vn -0.9783 0.2073 -0.0000
vn -0.9783 0.2072 0.0001
vn -0.9783 0.2072 -0.0001
vn -0.9783 0.2073 0.0001
usemtl GitterMat
s 1
f 1/1/1 3/2/1 2/3/1
f 3/2/1 1/1/1 4/4/1
f 5/5/1 7/6/2 6/7/1
f 7/6/2 5/5/1 8/8/2
f 9/9/1 11/10/3 10/11/1
f 11/10/3 9/9/1 12/12/3
f 13/13/4 15/14/4 14/15/4
f 15/14/4 13/13/4 16/16/4
f 17/17/4 19/18/1 18/19/4
f 19/18/1 17/17/4 20/20/1
f 21/21/1 23/22/3 22/23/1
f 23/22/3 21/21/1 24/24/3
f 25/25/1 27/26/1 26/27/1
f 27/26/1 25/25/1 28/28/1
f 29/29/1 31/30/1 30/31/1
f 31/30/1 29/29/1 32/32/1
f 33/33/1 35/34/3 34/35/1
f 35/34/3 33/33/1 36/36/3
f 37/37/4 39/38/1 38/39/4
f 39/38/1 37/37/4 40/40/1
f 41/41/4 43/42/3 42/43/4
f 43/42/3 41/41/4 44/44/5
f 45/45/1 47/46/4 46/47/1
f 47/46/4 45/45/1 48/48/4
f 49/49/1 51/50/3 50/51/1
f 51/50/3 49/49/1 52/52/3
f 53/53/5 55/54/4 54/55/5
f 55/54/4 53/53/5 56/56/4
f 57/57/1 59/58/1 58/59/1
f 59/58/1 57/57/1 60/60/1
f 61/61/2 63/62/1 62/63/2
f 63/62/1 61/61/2 64/64/1
f 65/65/1 67/66/1 66/67/1
f 67/66/1 65/65/1 68/68/1
