# Blender v3.4.1 OBJ File: 'track.blend'
# www.blender.org
mtllib _0PITBOX_BUILDING01_01_SUB2_Scene.065.mtl
o _0PITBOX_BUILDING01_01_SUB2_Scene.065
v 265.760803 612.918518 -21.531731
v 264.301971 613.222412 -21.531731
v 263.821198 610.914612 -21.531731
v 265.279999 610.610596 -21.531731
v 267.219604 612.614624 -21.531731
v 266.738800 610.306702 -21.531731
v 267.219604 612.614624 -19.815010
v 266.738800 610.306702 -19.815010
v 263.821198 610.914612 -19.815010
v 265.279999 610.610596 -19.815010
v 264.301971 613.222412 -19.815010
v 265.715698 612.927917 -21.484968
v 264.339508 613.176819 -21.484968
v 264.346985 613.213013 -21.484968
v 265.708191 612.891602 -21.484968
v 265.715698 612.927917 -19.861771
v 265.708191 612.891602 -19.861771
v 264.339508 613.176819 -19.861771
v 264.346985 613.213013 -19.861771
v 265.803314 612.871826 -19.866980
v 265.810913 612.908020 -21.479761
v 265.803314 612.871826 -21.479761
v 265.810913 612.908020 -19.866980
v 267.161987 612.588684 -21.479761
v 267.169495 612.625000 -21.479761
v 267.169495 612.625000 -19.866980
v 267.161987 612.588684 -19.866980
v 263.953796 596.937683 -21.531733
v 264.434601 599.245483 -21.531733
v 262.975800 599.549500 -21.531733
v 262.494995 597.241577 -21.531733
v 261.036194 597.545471 -21.531733
v 261.516998 599.853394 -21.531733
v 261.036194 597.545471 -19.815012
v 261.516998 599.853394 -19.815012
v 264.434601 599.245483 -19.815012
v 262.975800 599.549500 -19.815012
v 263.953796 596.937683 -19.815012
v 262.547607 597.268494 -21.484970
v 263.916290 596.983276 -21.484970
v 263.908691 596.947083 -21.484970
v 262.540009 597.232178 -21.484970
v 262.540009 597.232178 -19.861773
v 262.547607 597.268494 -19.861773
v 263.916290 596.983276 -19.861773
v 263.908691 596.947083 -19.861773
v 262.452362 597.288330 -19.866982
v 262.444885 597.252075 -21.479763
v 262.452362 597.288330 -21.479763
v 262.444885 597.252075 -19.866982
v 261.093811 597.571411 -21.479763
v 261.086212 597.535095 -21.479763
v 261.086212 597.535095 -19.866982
v 261.093811 597.571411 -19.866982
v 262.494995 597.241577 -19.815012
v 265.760803 612.918518 -19.815010
vt 0.000000 1.279172
vt 0.410931 1.558344
vt 0.000000 1.558344
vt 0.410931 1.279172
vt 0.000000 1.000000
vt 0.410931 1.000000
vt 0.410932 2.000000
vt 0.410931 1.558344
vt 0.705466 1.558344
vt 0.705466 2.000000
vt 0.705465 1.279172
vt 0.705466 1.558344
vt 0.705466 1.000000
vt 0.116397 2.000000
vt 0.116397 1.558344
vt 0.410931 1.558344
vt 0.410931 2.000000
vt 0.103496 1.558344
vt 0.103496 1.820269
vt 0.097045 1.820269
vt 0.097045 1.558344
vt 0.006450 1.558344
vt 0.000000 1.857653
vt 0.000000 1.558344
vt 0.006450 1.857653
vt 0.109946 1.857653
vt 0.109946 1.558344
vt 0.116397 1.558344
vt 0.116397 1.857653
vt 0.103496 1.855733
vt 0.103496 1.558344
vt 0.109946 1.558344
vt 0.109946 1.855733
vt 0.012901 1.558344
vt 0.006450 1.855733
vt 0.006450 1.558344
vt 0.012901 1.855733
vt 0.097045 1.558344
vt 0.097045 1.818349
vt 0.090594 1.818349
vt 0.090595 1.558344
vt 0.012901 1.820269
vt 0.012901 1.558344
vt 0.019351 1.558344
vt 0.019351 1.820269
vt 0.025802 1.558344
vt 0.025802 1.818349
vt 0.019351 1.818349
vt 0.019352 1.558344
vt 0.000000 1.558344
vt 0.410931 1.279172
vt 0.410931 1.558344
vt 0.000000 1.279172
vt 0.000000 1.000000
vt 0.410931 1.000000
vt 0.410932 2.000000
vt 0.410931 1.558344
vt 0.705466 1.558344
vt 0.705466 2.000000
vt 0.705465 1.279172
vt 0.705466 1.558344
vt 0.705466 1.000000
vt 0.116397 2.000000
vt 0.116397 1.558344
vt 0.410931 1.558344
vt 0.410931 2.000000
vt 0.097045 1.558344
vt 0.103496 1.820269
vt 0.097045 1.820269
vt 0.103496 1.558344
vt 0.006450 1.558344
vt 0.000000 1.857653
vt 0.000000 1.558344
vt 0.006450 1.857653
vt 0.109946 1.857653
vt 0.109946 1.558344
vt 0.116397 1.558344
vt 0.116397 1.857653
vt 0.103496 1.855733
vt 0.103496 1.558344
vt 0.109946 1.558344
vt 0.109946 1.855733
vt 0.012901 1.558344
vt 0.006450 1.855733
vt 0.006450 1.558344
vt 0.012901 1.855733
vt 0.090595 1.558344
vt 0.097045 1.818349
vt 0.090594 1.818349
vt 0.097045 1.558344
vt 0.012901 1.820269
vt 0.019351 1.558344
vt 0.019351 1.820269
vt 0.012901 1.558344
vt 0.025802 1.558344
vt 0.019351 1.818349
vt 0.019352 1.558344
vt 0.025802 1.818349
vt 0.714382 1.548760
vt 0.705466 1.279172
vt 0.714382 1.288755
vt 0.991083 1.288755
vt 0.705466 1.558344
vt 1.000000 1.558344
vt 0.991083 1.548760
vt 1.000000 1.279172
vt 0.713489 1.270549
vt 0.991976 1.270549
vt 0.713489 1.008623
vt 1.000000 1.000000
vt 0.705466 1.000000
vt 0.991976 1.008623
vt 0.705466 1.000000
vt 0.991976 1.008623
vt 0.713489 1.008623
vt 0.713489 1.270549
vt 1.000000 1.000000
vt 0.991976 1.270549
vt 1.000000 1.279172
vt 0.705466 1.279172
vt 0.991083 1.288755
vt 0.714382 1.288755
vt 0.991083 1.548760
vt 0.705466 1.558344
vt 1.000000 1.558344
vt 0.714382 1.548760
vn -0.0000 0.0000 -1.0000
vn 0.9790 -0.2039 0.0000
vn 0.9790 -0.2040 0.0000
vn -0.2040 -0.9790 0.0000
vn -0.2037 -0.9790 0.0000
vn -0.2039 -0.9790 0.0000
vn -0.9790 0.2039 0.0000
vn -0.9790 0.2040 0.0000
vn 0.0000 0.0000 1.0000
vn -0.9792 0.2031 -0.0000
vn -0.9789 0.2041 -0.0000
vn -0.9791 0.2033 0.0000
vn -0.9790 0.2041 0.0000
vn 0.9791 -0.2031 -0.0000
vn 0.9791 -0.2034 0.0000
vn 0.9791 -0.2035 -0.0000
vn 0.9792 -0.2030 0.0000
vn 0.9792 -0.2027 0.0000
vn 0.9789 -0.2043 0.0000
vn 0.9789 -0.2044 0.0000
vn 0.9793 -0.2026 -0.0000
vn -0.9790 0.2038 -0.0000
vn 0.2040 0.9790 0.0000
vn 0.2035 0.9791 0.0000
vn 0.2039 0.9790 0.0000
vn 0.9788 -0.2046 0.0000
vn 0.9794 -0.2019 0.0000
vn -0.9787 0.2051 0.0000
vn -0.9788 0.2049 0.0000
vn -0.9791 0.2032 -0.0000
vn -0.9791 0.2035 0.0000
vn -0.9791 0.2036 -0.0000
vn 0.9787 -0.2054 0.0000
vn 0.9791 -0.2036 0.0000
vn 0.9786 -0.2057 0.0000
vn -0.2038 -0.9790 -0.0007
vn -0.2043 -0.9789 -0.0006
vn -0.2047 -0.9788 0.0001
vn -0.2038 -0.9790 -0.0001
vn -0.2032 -0.9791 0.0000
vn -0.2039 -0.9790 0.0019
vn -0.2034 -0.9791 0.0001
vn -0.2039 -0.9790 0.0022
vn -0.2047 -0.9788 -0.0018
vn -0.2031 -0.9792 0.0000
vn -0.2054 -0.9787 0.0013
vn -0.2038 -0.9790 0.0001
vn -0.2054 -0.9787 0.0014
vn -0.2040 -0.9790 0.0006
vn 0.2030 0.9792 0.0013
vn 0.2049 0.9788 -0.0014
vn 0.2030 0.9792 0.0014
vn 0.2043 0.9789 -0.0009
vn 0.2049 0.9788 -0.0013
vn 0.2044 0.9789 0.0006
vn 0.2042 0.9789 0.0004
vn 0.2034 0.9791 -0.0003
vn 0.2044 0.9789 0.0009
vn 0.2025 0.9793 0.0004
vn 0.2040 0.9790 -0.0039
vn 0.2042 0.9789 0.0011
vn 0.2040 0.9790 -0.0041
vn 0.2041 0.9790 0.0012
vn 0.2032 0.9791 0.0000
vn 0.2028 0.9792 0.0000
usemtl ZinkMat
s 1
f 1/1/1 3/2/1 2/3/1
f 3/2/1 1/1/1 4/4/1
f 5/5/1 4/4/1 1/1/1
f 4/4/1 5/5/1 6/6/1
f 6/7/2 5/8/3 7/9/3
f 6/7/2 7/9/3 8/10/2
f 3/2/4 10/11/4 9/12/5
f 3/2/4 4/4/4 10/11/4
f 4/4/4 8/13/6 10/11/4
f 4/4/4 6/6/6 8/13/6
f 2/14/7 3/15/7 9/16/7
f 2/14/7 9/16/7 11/17/8
f 12/18/9 14/19/9 13/20/9
f 12/18/9 13/20/9 15/21/9
f 15/22/10 16/23/11 12/24/12
f 16/23/11 15/22/10 17/25/13
f 18/26/14 13/27/15 14/28/16
f 14/28/16 19/29/17 18/26/14
f 20/30/18 22/31/19 21/32/20
f 21/32/20 23/33/21 20/30/18
f 24/34/22 26/35/7 25/36/7
f 26/35/7 24/34/22 27/37/7
f 25/38/9 21/39/9 22/40/9
f 25/38/9 22/40/9 24/41/9
f 17/42/1 18/43/1 19/44/1
f 17/42/1 19/44/1 16/45/1
f 27/46/1 20/47/1 23/48/1
f 27/46/1 23/48/1 26/49/1
f 28/50/1 30/51/1 29/52/1
f 30/51/1 28/50/1 31/53/1
f 31/53/1 32/54/1 30/51/1
f 32/54/1 33/55/1 30/51/1
f 33/56/7 32/57/8 34/58/7
f 33/56/7 34/58/7 35/59/7
f 29/52/23 37/60/23 36/61/24
f 29/52/23 30/51/23 37/60/23
f 30/51/23 35/62/25 37/60/23
f 30/51/23 33/55/25 35/62/25
f 28/63/3 29/64/3 36/65/3
f 28/63/3 36/65/3 38/66/3
f 39/67/9 41/68/9 40/69/9
f 41/68/9 39/67/9 42/70/9
f 39/71/26 43/72/27 42/73/26
f 43/72/27 39/71/26 44/74/27
f 45/75/10 40/76/28 41/77/29
f 41/77/29 46/78/10 45/75/10
f 47/79/30 49/80/31 48/81/32
f 48/81/32 50/82/30 47/79/30
f 51/83/33 53/84/34 52/85/35
f 53/84/34 51/83/33 54/86/15
f 51/87/9 48/88/9 49/89/9
f 48/88/9 51/87/9 52/90/9
f 44/91/1 46/92/1 43/93/1
f 46/92/1 44/91/1 45/94/1
f 54/95/1 50/96/1 53/97/1
f 50/96/1 54/95/1 47/98/1
f 52/99/36 31/100/37 48/101/38
f 31/100/37 50/102/39 48/101/38
f 31/100/37 52/99/36 32/103/36
f 34/104/40 32/103/36 52/99/36
f 34/104/40 52/99/36 53/105/40
f 53/105/41 55/106/42 34/104/43
f 53/105/41 50/102/39 55/106/42
f 31/100/37 55/106/42 50/102/39
f 55/106/42 31/100/37 42/107/44
f 55/106/42 42/107/44 43/108/45
f 31/100/37 41/109/46 42/107/44
f 43/108/45 38/110/47 55/106/42
f 31/100/37 28/111/48 41/109/46
f 43/108/45 46/112/49 38/110/47
f 28/111/48 46/112/49 41/109/46
f 28/111/48 38/110/47 46/112/49
f 2/113/50 19/114/51 14/115/52
f 12/116/53 2/113/50 14/115/52
f 2/113/50 11/117/54 19/114/51
f 16/118/55 19/114/51 11/117/54
f 16/118/55 11/117/54 56/119/56
f 56/119/56 12/116/53 16/118/55
f 2/113/50 12/116/53 1/120/57
f 56/119/56 1/120/57 12/116/53
f 1/120/57 56/119/56 23/121/58
f 1/120/57 23/121/58 21/122/59
f 56/119/56 26/123/60 23/121/58
f 5/124/61 1/120/57 21/122/59
f 26/123/60 56/119/56 7/125/62
f 5/124/61 21/122/59 25/126/63
f 7/125/64 25/126/63 26/123/65
f 7/125/64 5/124/61 25/126/63
