# Blender v3.4.1 OBJ File: 'track.blend'
# www.blender.org
mtllib _0SIGN_AD01_12_001_Scene.100.mtl
o _0SIGN_AD01_12_001_Scene.100
v -297.835175 309.437805 -9.193028
v -295.215912 312.202789 -9.193028
v -297.835175 309.437805 -6.193028
v -295.215912 312.202789 -6.193028
v -292.448914 314.810913 -9.193027
v -292.448914 314.810913 -6.193027
v -289.533905 317.262207 -9.193027
v -289.533905 317.262207 -6.193027
v -297.820007 309.421692 -9.193028
v -297.820007 309.421692 -6.193028
v -289.518768 317.246094 -9.193027
v -292.433685 314.794800 -9.193027
v -289.518768 317.246094 -6.193027
v -292.433685 314.794800 -6.193027
v -295.200806 312.186707 -9.193028
v -295.200806 312.186707 -6.193028
vt 0.044709 1.801094
vt 0.048841 1.801094
vt 0.044709 1.804021
vt 0.048841 1.804021
vt 0.044709 1.806948
vt 0.048841 1.806948
vt 0.044709 1.809875
vt 0.048841 1.809875
vt 0.049357 1.803403
vt 0.049357 1.805712
vt 0.049185 1.803403
vt 0.049185 1.805712
vt 0.000404 1.809430
vt 0.000404 1.751420
vt 0.041490 1.809430
vt 0.041490 1.751420
vt 0.082576 1.809430
vt 0.082576 1.751420
vt 0.123661 1.809430
vt 0.123661 1.751420
vt 0.049357 1.801094
vt 0.049357 1.803403
vt 0.049185 1.801094
vt 0.049185 1.803403
vt 0.049185 1.804021
vt 0.049013 1.801094
vt 0.049185 1.801094
vt 0.049013 1.804021
vt 0.049185 1.806948
vt 0.049013 1.806948
vt 0.049013 1.809875
vt 0.049185 1.809875
vt 0.048841 1.809875
vt 0.049013 1.806948
vt 0.049013 1.809875
vt 0.048841 1.806948
vt 0.049013 1.804021
vt 0.048841 1.804021
vt 0.048841 1.801094
vt 0.049013 1.801094
vn -0.7260 0.6877 0.0000
vn -0.7062 0.7080 0.0000
vn -0.6650 0.7468 0.0000
vn -0.6436 0.7654 0.0000
vn -0.7288 -0.6847 0.0000
vn -0.7281 -0.6854 0.0000
vn -0.7282 -0.6854 -0.0000
vn 0.6436 -0.7653 0.0000
vn 0.6650 -0.7468 0.0000
vn 0.7062 -0.7080 0.0000
vn 0.7260 -0.6877 0.0000
vn 0.7269 0.6867 0.0000
vn 0.7283 0.6853 -0.0000
vn 0.7269 0.6868 0.0000
vn 0.7284 0.6852 0.0000
vn -0.0000 -0.0000 1.0000
vn 0.0000 0.0000 -1.0000
usemtl EnvironmentMat
s 1
f 1/1/1 3/2/1 2/3/2
f 2/3/2 3/2/1 4/4/2
f 2/3/2 4/4/2 5/5/3
f 5/5/3 4/4/2 6/6/3
f 5/5/3 6/6/3 7/7/4
f 7/7/4 6/6/3 8/8/4
f 9/9/5 10/10/6 1/11/5
f 1/11/5 10/10/6 3/12/7
f 11/13/8 13/14/8 12/15/9
f 12/15/9 13/14/8 14/16/9
f 12/15/9 14/16/9 15/17/10
f 15/17/10 14/16/9 16/18/10
f 15/17/10 16/18/10 9/19/11
f 9/19/11 16/18/10 10/20/11
f 7/21/12 8/22/13 11/23/14
f 11/23/14 8/22/13 13/24/15
f 16/25/16 3/26/16 10/27/16
f 3/26/16 16/25/16 4/28/16
f 14/29/16 4/28/16 16/25/16
f 4/28/16 14/29/16 6/30/16
f 8/31/16 6/30/16 14/29/16
f 14/29/16 13/32/16 8/31/16
f 1/33/17 15/34/17 9/35/17
f 15/34/17 1/33/17 2/36/17
f 2/36/17 12/37/17 15/34/17
f 12/37/17 2/36/17 5/38/17
f 7/39/17 12/37/17 5/38/17
f 12/37/17 7/39/17 11/40/17
