# Blender v3.1.2 OBJ File: 'track.blend'
# www.blender.org
mtllib _0SIGN_100M_03.mtl
o _0SIGN_100M_03_Scene.079
v -18806.759766 42661.718750 -520.394897
v -18876.390625 42662.882812 -520.394775
v -18876.441406 42659.921875 -520.394775
v -18806.810547 42658.757812 -520.394897
v -18806.759766 42661.718750 -370.394897
v -18876.390625 42662.882812 -370.394806
v -18806.810547 42658.757812 -370.394897
v -18876.441406 42659.921875 -370.394806
v -18845.419922 42657.972656 -495.526215
v -18845.419922 42657.972656 -469.601593
v -18836.650391 42657.820312 -469.601593
v -18836.650391 42657.820312 -495.526306
v -18845.419922 42657.972656 -504.589325
v -18836.650391 42657.820312 -504.589417
v -18829.789062 42657.707031 -504.589417
v -18829.789062 42657.707031 -495.526306
v -18835.919922 42663.800781 -495.526215
v -18835.919922 42663.800781 -469.601593
v -18844.689453 42663.949219 -469.601593
v -18844.689453 42663.949219 -495.526306
v -18835.919922 42663.800781 -504.589325
v -18844.689453 42663.949219 -504.589417
v -18851.550781 42664.058594 -504.589417
v -18851.550781 42664.058594 -495.526306
v -18849.589844 42658.042969 -389.219391
v -18849.589844 42658.042969 -415.460205
v -18858.359375 42658.191406 -419.833618
v -18858.359375 42658.191406 -384.845886
v -18825.570312 42657.636719 -419.833710
v -18834.339844 42657.792969 -389.219391
v -18834.339844 42657.792969 -415.460205
v -18825.570312 42657.636719 -384.845886
v -18834.339844 42657.792969 -459.649078
v -18834.339844 42657.792969 -433.408295
v -18825.570312 42657.636719 -429.034912
v -18825.570312 42657.636719 -464.022491
v -18858.359375 42658.191406 -429.034790
v -18849.589844 42658.042969 -459.649078
v -18849.589844 42658.042969 -433.408295
v -18858.359375 42658.191406 -464.022491
v -18831.740234 42663.730469 -389.219391
v -18831.740234 42663.730469 -415.460205
v -18822.980469 42663.589844 -419.833618
v -18822.980469 42663.589844 -384.845886
v -18855.759766 42664.128906 -419.833710
v -18847.000000 42663.988281 -389.219391
v -18847.000000 42663.988281 -415.460205
v -18855.759766 42664.128906 -384.845886
v -18847.000000 42663.988281 -459.649078
v -18847.000000 42663.988281 -433.408295
v -18855.759766 42664.128906 -429.034912
v -18855.759766 42664.128906 -464.022491
v -18822.980469 42663.589844 -429.034790
v -18831.740234 42663.730469 -459.649078
v -18831.740234 42663.730469 -433.408295
v -18822.980469 42663.589844 -464.022491
vt 1.000000 2.000000
vt 0.000000 1.000000
vt 1.000000 1.000000
vt 0.000000 2.000000
vt 1.000000 2.000000
vt 0.000000 2.000000
vt 0.000000 1.000000
vt 1.000000 1.000000
vt 1.000000 2.000000
vt 0.000000 1.000000
vt 1.000000 1.000000
vt 0.000000 2.000000
vt 1.000000 1.000000
vt 0.000000 2.000000
vt 0.000000 1.000000
vt 1.000000 2.000000
vt 1.000000 1.000000
vt 0.000000 1.000000
vt 0.000000 2.000000
vt 1.000000 2.000000
vt 0.042236 1.025888
vt 0.042236 1.025888
vt 0.042236 1.025888
vt 0.042236 1.025888
vt 0.042236 1.025888
vt 0.042236 1.025888
vt 0.042236 1.025888
vt 0.042236 1.025888
vt 0.042236 1.025888
vt 0.042236 1.025888
vt 0.042236 1.025888
vt 0.042236 1.025888
vt 0.042236 1.025888
vt 0.042236 1.025888
vt 0.042236 1.025888
vt 0.042236 1.025888
vt 0.042236 1.025888
vt 0.042236 1.025888
vt 0.042236 1.025888
vt 0.042236 1.025888
vt 0.042236 1.025888
vt 0.042236 1.025888
vt 0.042236 1.025888
vt 0.042236 1.025888
vt 0.042236 1.025888
vt 0.042236 1.025888
vt 0.042236 1.025888
vt 0.042236 1.025888
vt 0.042236 1.025888
vt 0.042236 1.025888
vt 0.042236 1.025888
vt 0.042236 1.025888
vt 0.042236 1.025888
vt 0.042236 1.025888
vt 0.042236 1.025888
vt 0.042236 1.025888
vt 0.042236 1.025888
vt 0.042236 1.025888
vt 0.042236 1.025888
vt 0.042236 1.025888
vt 0.042236 1.025888
vt 0.042236 1.025888
vt 0.042236 1.025888
vt 0.042236 1.025888
vt 0.042236 1.025888
vt 0.042236 1.025888
vt 0.042236 1.025888
vt 0.042236 1.025888
vn -0.0000 0.0000 -1.0000
vn 0.0167 0.9999 0.0000
vn 0.0000 -0.0000 1.0000
vn -0.0167 -0.9999 0.0000
vn 0.9999 -0.0164 0.0000
vn 0.9999 -0.0165 -0.0000
vn -0.9998 0.0175 0.0000
vn -0.9999 0.0164 -0.0000
vn -0.0170 -0.9999 0.0000
vn -0.0174 -0.9998 0.0000
vn -0.0165 -0.9999 0.0000
vn -0.0168 -0.9999 -0.0000
vn -0.0166 -0.9999 0.0000
vn -0.0160 -0.9999 -0.0000
vn 0.0169 0.9999 0.0000
vn 0.0164 0.9999 -0.0000
vn 0.0161 0.9999 0.0000
vn 0.0171 0.9999 0.0000
vn 0.0170 0.9999 -0.0000
vn 0.0166 0.9999 0.0000
vn -0.0167 -0.9999 0.0005
vn -0.0169 -0.9999 0.0001
vn -0.0165 -0.9999 0.0001
vn -0.0169 -0.9999 0.0000
vn -0.0167 -0.9999 -0.0002
vn -0.0167 -0.9999 -0.0001
vn -0.0166 -0.9999 -0.0001
vn -0.0169 -0.9999 -0.0001
vn -0.0170 -0.9999 -0.0001
vn 0.0167 0.9999 0.0004
vn 0.0169 0.9999 -0.0001
vn 0.0168 0.9999 -0.0002
vn 0.0165 0.9999 0.0002
vn 0.0168 0.9999 -0.0003
vn 0.0163 0.9999 0.0007
vn 0.0168 0.9999 -0.0006
vn 0.0162 0.9999 0.0004
vn 0.0167 0.9999 -0.0007
vn 0.0166 0.9999 0.0003
vn 0.0167 0.9999 -0.0003
vn 0.0172 0.9999 0.0002
vn 0.0164 0.9999 -0.0002
vn 0.0169 0.9999 0.0005
vn 0.0164 0.9999 -0.0001
usemtl EmptyMat
s 1
f 1/1/1 3/2/1 2/3/1
f 3/2/1 1/1/1 4/4/1
f 5/5/2 1/6/2 2/7/2
f 2/7/2 6/8/2 5/5/2
f 7/9/3 6/10/3 8/11/3
f 6/10/3 7/9/3 5/12/3
f 3/13/4 7/14/4 8/15/4
f 7/14/4 3/13/4 4/16/4
f 1/17/5 5/5/6 4/18/6
f 4/18/6 5/5/6 7/14/5
f 3/19/7 8/15/8 2/20/7
f 2/20/7 8/15/8 6/8/8
f 9/21/9 11/22/10 10/23/10
f 11/22/10 9/21/9 12/24/11
f 13/25/12 12/24/11 9/21/9
f 12/24/11 13/25/12 14/26/13
f 15/27/11 12/24/11 14/26/13
f 12/24/11 15/27/11 16/28/14
f 17/29/15 19/30/16 18/31/17
f 19/30/16 17/29/15 20/32/18
f 21/33/15 20/32/18 17/29/15
f 20/32/18 21/33/15 22/34/19
f 23/35/18 20/32/18 22/34/19
f 20/32/18 23/35/18 24/36/20
f 25/37/21 27/38/13 26/39/22
f 28/40/23 27/38/13 25/37/21
f 29/41/24 26/39/22 27/38/13
f 30/42/25 28/40/23 25/37/21
f 26/39/22 29/41/24 31/43/26
f 28/40/23 30/42/25 32/44/27
f 31/43/26 32/44/27 30/42/25
f 32/44/27 31/43/26 29/41/24
f 33/45/28 35/46/29 34/47/28
f 35/46/29 33/45/28 36/48/24
f 37/49/23 34/47/28 35/46/29
f 38/50/22 36/48/24 33/45/28
f 34/47/28 37/49/23 39/51/21
f 36/48/24 38/50/22 40/52/24
f 39/51/21 40/52/24 38/50/22
f 37/49/23 40/52/24 39/51/21
f 41/53/30 43/54/31 42/55/32
f 44/56/33 43/54/31 41/53/30
f 45/57/34 42/55/32 43/54/31
f 46/58/35 44/56/33 41/53/30
f 42/55/32 45/57/34 47/59/36
f 44/56/33 46/58/35 48/60/37
f 47/59/36 48/60/37 46/58/35
f 48/60/37 47/59/36 45/57/34
f 49/61/38 51/62/33 50/63/39
f 51/62/33 49/61/38 52/64/40
f 53/65/41 50/63/39 51/62/33
f 54/66/42 52/64/40 49/61/38
f 50/63/39 53/65/41 55/67/43
f 52/64/40 54/66/42 56/68/44
f 55/67/43 56/68/44 54/66/42
f 53/65/41 56/68/44 55/67/43
