# Blender v3.4.1 OBJ File: 'track.blend'
# www.blender.org
mtllib _0SIGN_150M_03_Scene.086.mtl
o _0SIGN_150M_03_Scene.086
v 143.154297 30.601288 -3.803388
v 143.154297 30.601288 -3.756305
v 143.069199 30.622290 -3.756305
v 143.069199 30.622290 -3.803388
v 143.154297 30.601288 -3.955173
v 142.841293 30.678497 -3.803388
v 142.841293 30.678497 -3.756305
v 143.069199 30.622290 -3.955173
v 143.154297 30.601288 -4.005773
v 143.069199 30.622290 -4.005773
v 142.924805 30.657909 -4.005773
v 142.924805 30.657909 -3.955173
v 142.841904 30.678368 -4.005773
v 142.841904 30.678368 -3.955173
v 142.924805 30.657909 -4.070075
v 142.841904 30.678368 -4.070075
v 142.924805 30.657909 -4.106098
v 142.841904 30.678368 -4.106098
v 143.156296 30.600821 -4.070075
v 143.156296 30.600821 -4.106098
v 142.646591 30.681698 -4.671124
v 143.322800 30.514889 -4.671123
v 143.329895 30.543631 -4.671123
v 142.653702 30.710440 -4.671124
v 142.646591 30.681698 -3.171124
v 143.322800 30.514889 -3.171123
v 142.653702 30.710440 -3.171124
v 143.329895 30.543631 -3.171123
v 143.031799 30.631927 -4.422437
v 143.031799 30.631927 -4.163191
v 142.946701 30.652941 -4.163191
v 142.946701 30.652941 -4.422437
v 143.031799 30.631927 -4.513068
v 142.946701 30.652941 -4.513068
v 142.880096 30.669359 -4.513068
v 142.880096 30.669359 -4.422437
v 143.056396 30.563297 -3.955173
v 143.139297 30.542850 -3.955173
v 143.139297 30.542850 -4.005773
v 143.056396 30.563297 -4.005773
v 142.912003 30.598921 -3.955173
v 143.056396 30.563297 -4.070075
v 142.912003 30.598921 -4.005773
v 142.826797 30.619921 -4.005773
v 142.826797 30.619921 -3.955173
v 142.912003 30.598921 -3.803388
v 143.139297 30.542850 -4.070075
v 142.826797 30.619921 -3.803388
v 143.056396 30.563297 -4.106098
v 143.139297 30.542850 -4.106098
v 142.824905 30.620399 -4.070075
v 142.824905 30.620399 -4.106098
v 142.912003 30.598921 -3.756305
v 142.826797 30.619921 -3.756305
v 143.139801 30.542709 -3.803388
v 143.139801 30.542709 -3.756305
v 142.926193 30.596300 -4.422437
v 142.926193 30.596300 -4.163191
v 143.011398 30.575291 -4.163191
v 143.011398 30.575291 -4.422437
v 142.926193 30.596300 -4.513068
v 143.011398 30.575291 -4.513068
v 143.077896 30.558868 -4.513068
v 143.077896 30.558868 -4.422437
v 143.072403 30.621927 -3.359369
v 143.072403 30.621927 -3.621777
v 143.157501 30.600929 -3.665511
v 143.157501 30.600929 -3.315634
v 142.839096 30.679461 -3.665511
v 142.924301 30.658459 -3.359369
v 142.924301 30.658459 -3.621777
v 142.839096 30.679461 -3.315634
v 142.885696 30.606300 -3.359369
v 142.885696 30.606300 -3.621777
v 142.800507 30.627310 -3.665511
v 142.800507 30.627310 -3.315634
v 143.118896 30.548771 -3.665511
v 143.033798 30.569769 -3.359369
v 143.033798 30.569769 -3.621777
v 143.118896 30.548771 -3.315634
vt 0.042236 1.025888
vt 0.042236 1.025888
vt 0.042236 1.025888
vt 0.042236 1.025888
vt 0.042236 1.025888
vt 0.042236 1.025888
vt 0.042236 1.025888
vt 0.042236 1.025888
vt 0.042236 1.025888
vt 0.042236 1.025888
vt 0.042236 1.025888
vt 0.042236 1.025888
vt 0.042236 1.025888
vt 0.042236 1.025888
vt 0.042236 1.025888
vt 0.042236 1.025888
vt 0.042236 1.025888
vt 0.042236 1.025888
vt 0.042236 1.025888
vt 0.042236 1.025888
vt 1.000000 2.000000
vt 0.000000 1.000000
vt 1.000000 1.000000
vt 0.000000 2.000000
vt 1.000000 2.000000
vt 0.000000 2.000000
vt 0.000000 1.000000
vt 1.000000 1.000000
vt 1.000000 2.000000
vt 0.000000 1.000000
vt 1.000000 1.000000
vt 0.000000 2.000000
vt 1.000000 1.000000
vt 0.000000 2.000000
vt 0.000000 1.000000
vt 1.000000 2.000000
vt 1.000000 1.000000
vt 0.000000 1.000000
vt 0.000000 2.000000
vt 1.000000 2.000000
vt 0.042236 1.025888
vt 0.042236 1.025888
vt 0.042236 1.025888
vt 0.042236 1.025888
vt 0.042236 1.025888
vt 0.042236 1.025888
vt 0.042236 1.025888
vt 0.042236 1.025888
vt 0.042236 1.025888
vt 0.042236 1.025888
vt 0.042236 1.025888
vt 0.042236 1.025888
vt 0.042236 1.025888
vt 0.042236 1.025888
vt 0.042236 1.025888
vt 0.042236 1.025888
vt 0.042236 1.025888
vt 0.042236 1.025888
vt 0.042236 1.025888
vt 0.042236 1.025888
vt 0.042236 1.025888
vt 0.042236 1.025888
vt 0.042236 1.025888
vt 0.042236 1.025888
vt 0.042236 1.025888
vt 0.042236 1.025888
vt 0.042236 1.025888
vt 0.042236 1.025888
vt 0.042236 1.025888
vt 0.042236 1.025888
vt 0.042236 1.025888
vt 0.042236 1.025888
vt 0.042236 1.025888
vt 0.042236 1.025888
vt 0.042236 1.025888
vt 0.042236 1.025888
vt 0.042236 1.025888
vt 0.042236 1.025888
vt 0.042236 1.025888
vt 0.042236 1.025888
vt 0.042236 1.025888
vt 0.042236 1.025888
vt 0.042236 1.025888
vt 0.042236 1.025888
vt 0.042236 1.025888
vt 0.042236 1.025888
vt 0.042236 1.025888
vt 0.042236 1.025888
vt 0.042236 1.025888
vt 0.042236 1.025888
vt 0.042236 1.025888
vt 0.042236 1.025888
vn 0.2396 0.9709 0.0000
vn 0.2395 0.9709 0.0000
vn 0.2394 0.9709 0.0000
vn 0.0000 -0.0000 -1.0000
vn -0.2395 -0.9709 0.0000
vn -0.0000 0.0000 1.0000
vn -0.9707 0.2405 0.0000
vn 0.9710 -0.2392 0.0000
vn 0.9707 -0.2405 0.0000
vn 0.2397 0.9708 0.0000
vn 0.2398 0.9708 0.0000
vn -0.2394 -0.9709 0.0000
vn -0.2393 -0.9709 0.0000
vn -0.2396 -0.9709 0.0000
vn -0.2398 -0.9708 0.0000
vn -0.2397 -0.9708 0.0000
vn 0.2395 0.9709 0.0001
vn 0.2395 0.9709 -0.0001
vn 0.2395 0.9709 -0.0002
vn 0.2396 0.9709 0.0001
vn 0.2394 0.9709 -0.0001
vn 0.2394 0.9709 0.0002
vn 0.2394 0.9709 -0.0002
vn 0.2394 0.9709 0.0001
vn -0.2395 -0.9709 -0.0001
vn -0.2395 -0.9709 0.0001
usemtl EmptyMat
s 1
f 1/1/1 3/2/2 2/3/1
f 1/1/1 4/4/2 3/2/2
f 5/5/1 4/4/2 1/1/1
f 6/6/2 3/2/2 4/4/2
f 3/2/2 6/6/2 7/7/2
f 4/4/2 5/5/1 8/8/1
f 9/9/1 8/8/1 5/5/1
f 8/8/1 9/9/1 10/10/1
f 11/11/1 8/8/1 10/10/1
f 8/8/1 11/11/1 12/12/2
f 13/13/1 12/12/2 11/11/1
f 12/12/2 13/13/1 14/14/2
f 15/15/1 13/13/1 11/11/1
f 15/15/1 16/16/1 13/13/1
f 17/17/2 16/16/1 15/15/1
f 17/17/2 18/18/2 16/16/1
f 15/15/1 19/19/3 17/17/2
f 20/20/3 17/17/2 19/19/3
f 21/21/4 23/22/4 22/23/4
f 23/22/4 21/21/4 24/24/4
f 25/25/5 21/26/5 22/27/5
f 22/27/5 26/28/5 25/25/5
f 27/29/6 26/30/6 28/31/6
f 26/30/6 27/29/6 25/32/6
f 23/33/2 27/34/2 28/35/2
f 27/34/2 23/33/2 24/36/2
f 21/37/7 25/25/7 24/38/7
f 24/38/7 25/25/7 27/34/7
f 23/39/8 28/35/9 22/40/8
f 22/40/8 28/35/9 26/28/9
f 29/41/10 31/42/11 30/43/11
f 31/42/11 29/41/10 32/44/1
f 33/45/10 32/44/1 29/41/10
f 32/44/1 33/45/10 34/46/2
f 35/47/3 32/44/1 34/46/2
f 32/44/1 35/47/3 36/48/10
f 37/49/5 39/50/12 38/51/12
f 39/50/12 37/49/5 40/52/5
f 41/53/12 40/52/5 37/49/5
f 42/54/5 39/50/12 40/52/5
f 40/52/5 41/53/12 43/55/12
f 41/53/12 44/56/13 43/55/12
f 44/56/13 41/53/12 45/57/13
f 46/58/12 45/57/13 41/53/12
f 42/54/5 47/59/12 39/50/12
f 45/57/13 46/58/12 48/60/13
f 49/61/5 47/59/12 42/54/5
f 49/61/5 50/62/12 47/59/12
f 42/54/5 51/63/5 49/61/5
f 52/64/5 49/61/5 51/63/5
f 48/60/13 46/58/12 53/65/12
f 48/60/13 53/65/12 54/66/13
f 55/67/14 53/65/12 46/58/12
f 53/65/12 55/67/14 56/68/14
f 57/69/12 59/70/12 58/71/12
f 59/70/12 57/69/12 60/72/5
f 61/73/12 60/72/5 57/69/12
f 60/72/5 61/73/12 62/74/14
f 63/75/15 60/72/5 62/74/14
f 60/72/5 63/75/15 64/76/16
f 65/77/17 67/78/18 66/79/19
f 68/80/20 67/78/18 65/77/17
f 69/81/21 66/79/19 67/78/18
f 70/82/22 68/80/20 65/77/17
f 66/79/19 69/81/21 71/83/23
f 68/80/20 70/82/22 72/84/24
f 71/83/23 72/84/24 70/82/22
f 72/84/24 71/83/23 69/81/21
f 73/85/25 75/86/26 74/87/26
f 76/88/25 75/86/26 73/85/25
f 77/89/26 74/87/26 75/86/26
f 78/90/25 76/88/25 73/85/25
f 74/87/26 77/89/26 79/91/26
f 76/88/25 78/90/25 80/92/25
f 79/91/26 80/92/25 78/90/25
f 80/92/25 79/91/26 77/89/26
