# Blender v3.1.2 OBJ File: 'track.blend'
# www.blender.org
mtllib _0SIGN_100M_06.mtl
o _0SIGN_100M_06_Scene.082
v 21894.451172 75801.203125 -582.146240
v 21964.070312 75803.304688 -582.146118
v 21963.980469 75806.265625 -582.146118
v 21894.359375 75804.164062 -582.146240
v 21894.451172 75801.203125 -432.146210
v 21964.070312 75803.304688 -432.146118
v 21894.359375 75804.164062 -432.146210
v 21963.980469 75806.265625 -432.146118
v 21932.900391 75806.750000 -557.277466
v 21932.900391 75806.750000 -531.352905
v 21924.130859 75806.484375 -531.352905
v 21924.130859 75806.484375 -557.277466
v 21932.900391 75806.750000 -566.340576
v 21924.130859 75806.484375 -566.340576
v 21917.281250 75806.281250 -566.340576
v 21917.281250 75806.281250 -557.277466
v 21923.689453 75800.484375 -557.277466
v 21923.689453 75800.484375 -531.352905
v 21932.449219 75800.742188 -531.352905
v 21932.449219 75800.742188 -557.277466
v 21923.689453 75800.484375 -566.340576
v 21932.449219 75800.742188 -566.340576
v 21939.310547 75800.953125 -566.340576
v 21939.310547 75800.953125 -557.277466
v 21937.070312 75806.875000 -450.970612
v 21937.070312 75806.875000 -477.211517
v 21945.839844 75807.140625 -481.584869
v 21945.839844 75807.140625 -446.597198
v 21913.060547 75806.156250 -481.584869
v 21921.830078 75806.421875 -450.970612
v 21921.830078 75806.421875 -477.211365
v 21913.060547 75806.156250 -446.597198
v 21921.830078 75806.421875 -521.400391
v 21921.830078 75806.421875 -495.159485
v 21913.060547 75806.156250 -490.786133
v 21913.060547 75806.156250 -525.773804
v 21945.839844 75807.140625 -490.786133
v 21937.070312 75806.875000 -521.400391
v 21937.070312 75806.875000 -495.159576
v 21945.839844 75807.140625 -525.773804
v 21919.509766 75800.359375 -450.970612
v 21919.509766 75800.359375 -477.211517
v 21910.750000 75800.093750 -481.584869
v 21910.750000 75800.093750 -446.597198
v 21943.519531 75801.078125 -481.584869
v 21934.759766 75800.820312 -450.970612
v 21934.759766 75800.820312 -477.211365
v 21943.519531 75801.078125 -446.597198
v 21934.759766 75800.820312 -521.400391
v 21934.759766 75800.820312 -495.159485
v 21943.519531 75801.078125 -490.786133
v 21943.519531 75801.078125 -525.773804
v 21910.750000 75800.093750 -490.786133
v 21919.509766 75800.359375 -521.400391
v 21919.509766 75800.359375 -495.159576
v 21910.750000 75800.093750 -525.773804
vt 1.000000 2.000000
vt 0.000000 1.000000
vt 1.000000 1.000000
vt 0.000000 2.000000
vt 1.000000 2.000000
vt 0.000000 2.000000
vt 0.000000 1.000000
vt 1.000000 1.000000
vt 1.000000 2.000000
vt 0.000000 1.000000
vt 1.000000 1.000000
vt 0.000000 2.000000
vt 1.000000 1.000000
vt 0.000000 2.000000
vt 0.000000 1.000000
vt 1.000000 2.000000
vt 1.000000 1.000000
vt 0.000000 1.000000
vt 0.000000 2.000000
vt 1.000000 2.000000
vt 0.042236 1.025888
vt 0.042236 1.025888
vt 0.042236 1.025888
vt 0.042236 1.025888
vt 0.042236 1.025888
vt 0.042236 1.025888
vt 0.042236 1.025888
vt 0.042236 1.025888
vt 0.042236 1.025888
vt 0.042236 1.025888
vt 0.042236 1.025888
vt 0.042236 1.025888
vt 0.042236 1.025888
vt 0.042236 1.025888
vt 0.042236 1.025888
vt 0.042236 1.025888
vt 0.042236 1.025888
vt 0.042236 1.025888
vt 0.042236 1.025888
vt 0.042236 1.025888
vt 0.042236 1.025888
vt 0.042236 1.025888
vt 0.042236 1.025888
vt 0.042236 1.025888
vt 0.042236 1.025888
vt 0.042236 1.025888
vt 0.042236 1.025888
vt 0.042236 1.025888
vt 0.042236 1.025888
vt 0.042236 1.025888
vt 0.042236 1.025888
vt 0.042236 1.025888
vt 0.042236 1.025888
vt 0.042236 1.025888
vt 0.042236 1.025888
vt 0.042236 1.025888
vt 0.042236 1.025888
vt 0.042236 1.025888
vt 0.042236 1.025888
vt 0.042236 1.025888
vt 0.042236 1.025888
vt 0.042236 1.025888
vt 0.042236 1.025888
vt 0.042236 1.025888
vt 0.042236 1.025888
vt 0.042236 1.025888
vt 0.042236 1.025888
vt 0.042236 1.025888
vn 0.0000 0.0000 -1.0000
vn 0.0302 -0.9995 0.0000
vn -0.0000 -0.0000 1.0000
vn -0.0302 0.9995 0.0000
vn -0.9996 -0.0297 -0.0000
vn -0.9995 -0.0307 0.0000
vn -0.9996 -0.0296 0.0000
vn -0.9995 -0.0308 -0.0000
vn 0.9995 0.0304 0.0000
vn 0.9995 0.0300 0.0000
vn -0.0303 0.9995 0.0000
vn -0.0308 0.9995 0.0000
vn -0.0301 0.9995 0.0000
vn -0.0300 0.9996 0.0000
vn -0.0296 0.9996 0.0000
vn 0.0294 -0.9996 0.0000
vn 0.0307 -0.9995 -0.0000
vn 0.0309 -0.9995 0.0000
vn 0.0301 -0.9995 0.0000
vn -0.0299 0.9996 0.0014
vn -0.0302 0.9995 0.0008
vn -0.0304 0.9995 0.0011
vn -0.0298 0.9996 0.0002
vn -0.0301 0.9995 -0.0004
vn -0.0301 0.9995 -0.0009
vn -0.0299 0.9996 -0.0016
vn -0.0299 0.9996 -0.0006
vn -0.0299 0.9996 -0.0017
vn -0.0302 0.9995 -0.0005
vn -0.0308 0.9995 0.0003
vn -0.0301 0.9995 0.0012
vn -0.0303 0.9995 0.0016
vn 0.0303 -0.9995 -0.0021
vn 0.0302 -0.9995 -0.0003
vn 0.0302 -0.9995 0.0001
vn 0.0299 -0.9996 -0.0005
vn 0.0295 -0.9996 0.0008
vn 0.0299 -0.9996 0.0002
vn 0.0296 -0.9996 0.0003
vn 0.0292 -0.9996 0.0005
vn 0.0291 -0.9996 0.0009
vn 0.0305 -0.9995 0.0000
vn 0.0308 -0.9995 -0.0004
vn 0.0301 -0.9995 0.0001
vn 0.0310 -0.9995 -0.0020
usemtl EmptyMat
s 1
f 1/1/1 3/2/1 2/3/1
f 3/2/1 1/1/1 4/4/1
f 5/5/2 1/6/2 2/7/2
f 2/7/2 6/8/2 5/5/2
f 7/9/3 6/10/3 8/11/3
f 6/10/3 7/9/3 5/12/3
f 3/13/4 7/14/4 8/15/4
f 7/14/4 3/13/4 4/16/4
f 1/17/5 5/5/6 4/18/7
f 4/18/7 5/5/6 7/14/8
f 3/19/9 8/15/10 2/20/9
f 2/20/9 8/15/10 6/8/9
f 9/21/11 11/22/11 10/23/12
f 11/22/11 9/21/11 12/24/13
f 13/25/11 12/24/13 9/21/11
f 12/24/13 13/25/11 14/26/14
f 15/27/15 12/24/13 14/26/14
f 12/24/13 15/27/15 16/28/15
f 17/29/16 19/30/17 18/31/18
f 19/30/17 17/29/16 20/32/2
f 21/33/16 20/32/2 17/29/16
f 20/32/2 21/33/16 22/34/19
f 23/35/17 20/32/2 22/34/19
f 20/32/2 23/35/17 24/36/17
f 25/37/20 27/38/21 26/39/22
f 28/40/23 27/38/21 25/37/20
f 29/41/24 26/39/22 27/38/21
f 30/42/25 28/40/23 25/37/20
f 26/39/22 29/41/24 31/43/26
f 28/40/23 30/42/25 32/44/27
f 31/43/26 32/44/27 30/42/25
f 32/44/27 31/43/26 29/41/24
f 33/45/28 35/46/29 34/47/25
f 35/46/29 33/45/28 36/48/24
f 37/49/30 34/47/25 35/46/29
f 38/50/31 36/48/24 33/45/28
f 34/47/25 37/49/30 39/51/32
f 36/48/24 38/50/31 40/52/21
f 39/51/32 40/52/21 38/50/31
f 37/49/30 40/52/21 39/51/32
f 41/53/33 43/54/34 42/55/35
f 44/56/36 43/54/34 41/53/33
f 45/57/2 42/55/35 43/54/34
f 46/58/37 44/56/36 41/53/33
f 42/55/35 45/57/2 47/59/38
f 44/56/36 46/58/37 48/60/39
f 47/59/38 48/60/39 46/58/37
f 48/60/39 47/59/38 45/57/2
f 49/61/38 51/62/40 50/63/41
f 51/62/40 49/61/38 52/64/42
f 53/65/43 50/63/41 51/62/40
f 54/66/44 52/64/42 49/61/38
f 50/63/41 53/65/43 55/67/45
f 52/64/42 54/66/44 56/68/2
f 55/67/45 56/68/2 54/66/44
f 53/65/43 56/68/2 55/67/45
