# Blender v3.4.1 OBJ File: 'track.blend'
# www.blender.org
mtllib _0SIGN_50M_06_Scene.077.mtl
o _0SIGN_50M_06_Scene.077
v 213.058899 808.885132 -6.029273
v 213.755096 808.906128 -6.029271
v 213.754196 808.935791 -6.029271
v 213.057999 808.914734 -6.029273
v 213.058899 808.885132 -4.529273
v 213.755096 808.906128 -4.529272
v 213.057999 808.914734 -4.529273
v 213.754196 808.935791 -4.529272
v 213.565994 808.944519 -5.392814
v 213.565994 808.944519 -5.345730
v 213.478302 808.941772 -5.345731
v 213.478302 808.941772 -5.392814
v 213.565994 808.944519 -5.544600
v 213.243683 808.934814 -5.392814
v 213.243683 808.934814 -5.345731
v 213.478302 808.941772 -5.544600
v 213.565994 808.944519 -5.595200
v 213.478302 808.941772 -5.595200
v 213.329681 808.937317 -5.595200
v 213.329681 808.937317 -5.544600
v 213.244293 808.934814 -5.595200
v 213.244293 808.934814 -5.544600
v 213.329681 808.937317 -5.659503
v 213.244293 808.934814 -5.659503
v 213.329681 808.937317 -5.695524
v 213.244293 808.934814 -5.695524
v 213.567978 808.944519 -5.659503
v 213.567978 808.944519 -5.695524
v 213.245987 808.885376 -5.392814
v 213.245987 808.885376 -5.345730
v 213.333588 808.888123 -5.345731
v 213.333588 808.888123 -5.392814
v 213.245987 808.885376 -5.544600
v 213.568192 808.895081 -5.392814
v 213.568192 808.895081 -5.345731
v 213.333588 808.888123 -5.544600
v 213.245987 808.885376 -5.595200
v 213.333588 808.888123 -5.595200
v 213.482300 808.892456 -5.595200
v 213.482300 808.892456 -5.544600
v 213.567688 808.895081 -5.595200
v 213.567688 808.895081 -5.544600
v 213.482300 808.892456 -5.659503
v 213.567688 808.895081 -5.659503
v 213.482300 808.892456 -5.695524
v 213.567688 808.895081 -5.695524
v 213.244003 808.885315 -5.659503
v 213.244003 808.885315 -5.695524
v 213.482498 808.942017 -4.916627
v 213.482498 808.942017 -5.179035
v 213.570099 808.944580 -5.222770
v 213.570099 808.944580 -4.872892
v 213.242401 808.934692 -5.222770
v 213.330002 808.937317 -4.916627
v 213.330002 808.937317 -5.179035
v 213.242401 808.934692 -4.872893
v 213.329483 808.887878 -4.916627
v 213.329483 808.887878 -5.179035
v 213.241791 808.885315 -5.222770
v 213.241791 808.885315 -4.872892
v 213.569580 808.895081 -5.222770
v 213.481995 808.892456 -4.916627
v 213.481995 808.892456 -5.179035
v 213.569580 808.895081 -4.872893
vt 1.000000 2.000000
vt 0.000000 1.000000
vt 1.000000 1.000000
vt 0.000000 2.000000
vt 1.000000 2.000000
vt 0.000000 2.000000
vt 0.000000 1.000000
vt 1.000000 1.000000
vt 1.000000 2.000000
vt 0.000000 1.000000
vt 1.000000 1.000000
vt 0.000000 2.000000
vt 1.000000 1.000000
vt 0.000000 2.000000
vt 0.000000 1.000000
vt 1.000000 2.000000
vt 1.000000 1.000000
vt 0.000000 1.000000
vt 0.000000 2.000000
vt 1.000000 2.000000
vt 0.042236 1.025888
vt 0.042236 1.025888
vt 0.042236 1.025888
vt 0.042236 1.025888
vt 0.042236 1.025888
vt 0.042236 1.025888
vt 0.042236 1.025888
vt 0.042236 1.025888
vt 0.042236 1.025888
vt 0.042236 1.025888
vt 0.042236 1.025888
vt 0.042236 1.025888
vt 0.042236 1.025888
vt 0.042236 1.025888
vt 0.042236 1.025888
vt 0.042236 1.025888
vt 0.042236 1.025888
vt 0.042236 1.025888
vt 0.042236 1.025888
vt 0.042236 1.025888
vt 0.042236 1.025888
vt 0.042236 1.025888
vt 0.042236 1.025888
vt 0.042236 1.025888
vt 0.042236 1.025888
vt 0.042236 1.025888
vt 0.042236 1.025888
vt 0.042236 1.025888
vt 0.042236 1.025888
vt 0.042236 1.025888
vt 0.042236 1.025888
vt 0.042236 1.025888
vt 0.042236 1.025888
vt 0.042236 1.025888
vt 0.042236 1.025888
vt 0.042236 1.025888
vt 0.042236 1.025888
vt 0.042236 1.025888
vt 0.042236 1.025888
vt 0.042236 1.025888
vt 0.042236 1.025888
vt 0.042236 1.025888
vt 0.042236 1.025888
vt 0.042236 1.025888
vt 0.042236 1.025888
vt 0.042236 1.025888
vt 0.042236 1.025888
vt 0.042236 1.025888
vt 0.042236 1.025888
vt 0.042236 1.025888
vt 0.042236 1.025888
vt 0.042236 1.025888
vt 0.042236 1.025888
vt 0.042236 1.025888
vt 0.042236 1.025888
vt 0.042236 1.025888
vn 0.0000 0.0000 -1.0000
vn 0.0301 -0.9995 0.0000
vn 0.0297 -0.9996 -0.0000
vn -0.0000 -0.0000 1.0000
vn -0.0302 0.9995 0.0000
vn -0.9995 -0.0316 0.0000
vn -0.9996 -0.0289 0.0000
vn 0.9996 0.0288 0.0000
vn 0.9995 0.0309 0.0000
vn 0.9995 0.0315 0.0000
vn -0.0303 0.9995 0.0000
vn -0.0305 0.9995 0.0000
vn -0.0313 0.9995 0.0000
vn -0.0301 0.9995 0.0000
vn -0.0309 0.9995 0.0000
vn -0.0298 0.9996 0.0000
vn -0.0306 0.9995 0.0000
vn -0.0295 0.9996 0.0000
vn -0.0296 0.9996 0.0000
vn -0.0293 0.9996 0.0000
vn -0.0297 0.9996 0.0000
vn 0.0313 -0.9995 0.0000
vn 0.0305 -0.9995 0.0000
vn 0.0308 -0.9995 0.0000
vn 0.0303 -0.9995 0.0000
vn 0.0291 -0.9996 -0.0000
vn 0.0311 -0.9995 -0.0000
vn 0.0299 -0.9996 0.0000
vn 0.0307 -0.9995 0.0000
vn 0.0309 -0.9995 0.0000
vn 0.0300 -0.9996 -0.0000
vn 0.0284 -0.9996 -0.0000
vn 0.0295 -0.9996 0.0000
vn -0.0299 0.9995 0.0039
vn -0.0307 0.9995 0.0001
vn -0.0307 0.9995 0.0002
vn -0.0298 0.9996 0.0009
vn -0.0285 0.9996 -0.0005
vn -0.0301 0.9995 -0.0008
vn -0.0298 0.9996 -0.0016
vn -0.0297 0.9996 -0.0006
vn 0.0295 -0.9996 0.0004
vn 0.0286 -0.9996 -0.0009
vn 0.0291 -0.9996 -0.0014
vn 0.0294 -0.9996 0.0005
vn 0.0304 -0.9995 0.0001
vn 0.0303 -0.9995 0.0009
vn 0.0301 -0.9995 0.0004
vn 0.0304 -0.9995 0.0004
usemtl EmptyMat
s 1
f 1/1/1 3/2/1 2/3/1
f 3/2/1 1/1/1 4/4/1
f 5/5/2 1/6/2 2/7/2
f 2/7/2 6/8/3 5/5/2
f 7/9/4 6/10/4 8/11/4
f 6/10/4 7/9/4 5/12/4
f 3/13/5 7/14/5 8/15/5
f 7/14/5 3/13/5 4/16/5
f 1/17/6 5/5/7 4/18/6
f 4/18/6 5/5/7 7/14/7
f 3/19/8 8/15/9 2/20/8
f 2/20/8 8/15/9 6/8/10
f 9/21/11 11/22/12 10/23/13
f 9/21/11 12/24/11 11/22/12
f 13/25/5 12/24/11 9/21/11
f 14/26/14 11/22/12 12/24/11
f 11/22/12 14/26/14 15/27/14
f 12/24/11 13/25/5 16/28/15
f 17/29/16 16/28/15 13/25/5
f 16/28/15 17/29/16 18/30/17
f 19/31/18 16/28/15 18/30/17
f 16/28/15 19/31/18 20/32/5
f 21/33/5 20/32/5 19/31/18
f 20/32/5 21/33/5 22/34/12
f 23/35/19 21/33/5 19/31/18
f 23/35/19 24/36/20 21/33/5
f 25/37/16 24/36/20 23/35/19
f 25/37/16 26/38/15 24/36/20
f 23/35/19 27/39/5 25/37/16
f 28/40/21 25/37/16 27/39/5
f 29/41/22 31/42/23 30/43/22
f 29/41/22 32/44/24 31/42/23
f 33/45/22 32/44/24 29/41/22
f 34/46/3 31/42/23 32/44/24
f 31/42/23 34/46/3 35/47/3
f 32/44/24 33/45/22 36/48/25
f 37/49/22 36/48/25 33/45/22
f 36/48/25 37/49/22 38/50/26
f 39/51/27 36/48/25 38/50/26
f 36/48/25 39/51/27 40/52/28
f 41/53/29 40/52/28 39/51/27
f 40/52/28 41/53/29 42/54/26
f 43/55/30 41/53/29 39/51/27
f 43/55/30 44/56/31 41/53/29
f 45/57/25 44/56/31 43/55/30
f 45/57/25 46/58/32 44/56/31
f 43/55/30 47/59/31 45/57/25
f 48/60/33 45/57/25 47/59/31
f 49/61/34 51/62/35 50/63/36
f 52/64/37 51/62/35 49/61/34
f 53/65/38 50/63/36 51/62/35
f 54/66/39 52/64/37 49/61/34
f 50/63/36 53/65/38 55/67/40
f 52/64/37 54/66/39 56/68/41
f 55/67/40 56/68/41 54/66/39
f 56/68/41 55/67/40 53/65/38
f 57/69/42 59/70/43 58/71/44
f 60/72/45 59/70/43 57/69/42
f 61/73/46 58/71/44 59/70/43
f 62/74/47 60/72/45 57/69/42
f 58/71/44 61/73/46 63/75/48
f 60/72/45 62/74/47 64/76/49
f 63/75/48 64/76/49 62/74/47
f 64/76/49 63/75/48 61/73/46
