# Blender v3.4.1 OBJ File: 'track.blend'
# www.blender.org
mtllib _0SIGN_AD01_08_Scene.096.mtl
o _0SIGN_AD01_08_Scene.096
v -258.064392 328.928894 -8.661553
v -258.064209 328.950958 -8.661553
v -258.064392 328.928894 -5.661553
v -258.064301 328.950958 -5.661553
v -246.656906 328.882874 -8.661507
v -246.656982 328.860809 -8.661507
v -246.656906 328.882874 -5.661507
v -246.657104 328.860809 -5.661507
vt 0.049357 1.803403
vt 0.049357 1.805712
vt 0.049185 1.803403
vt 0.049185 1.805712
vt 0.049357 1.801094
vt 0.049357 1.803403
vt 0.049185 1.801094
vt 0.049185 1.803403
vt 0.048841 1.809875
vt 0.049013 1.801094
vt 0.049013 1.809875
vt 0.048841 1.801094
vt 0.049185 1.809875
vt 0.049013 1.801094
vt 0.049185 1.801094
vt 0.049013 1.809875
vt 0.123661 1.809430
vt 0.000404 1.809430
vt 0.000404 1.751420
vt 0.123661 1.751420
vt 0.044709 1.809875
vt 0.044709 1.801094
vt 0.048841 1.801094
vt 0.048841 1.809875
vn -1.0000 0.0055 0.0000
vn -1.0000 0.0052 -0.0000
vn 1.0000 -0.0080 -0.0000
vn 1.0000 -0.0046 -0.0000
vn 1.0000 -0.0079 0.0000
vn 1.0000 -0.0045 -0.0000
vn 0.0000 -0.0000 -1.0000
vn -0.0000 0.0000 1.0000
vn -0.0060 -1.0000 0.0000
vn 0.0060 1.0000 -0.0000
usemtl EnvironmentMat
s 1
f 1/1/1 3/2/2 2/3/1
f 2/3/1 3/2/2 4/4/2
f 5/5/3 7/6/4 6/7/5
f 6/7/5 7/6/4 8/8/6
f 2/9/7 6/10/7 1/11/7
f 6/10/7 2/9/7 5/12/7
f 8/13/8 4/14/8 3/15/8
f 4/14/8 8/13/8 7/16/8
f 1/17/9 6/18/9 8/19/9
f 1/17/9 8/19/9 3/20/9
f 5/21/10 2/22/10 4/23/10
f 5/21/10 4/23/10 7/24/10
