# Blender v3.1.2 OBJ File: 'track.blend'
# www.blender.org
mtllib _0SIGN_100M_04.mtl
o _0SIGN_100M_04_Scene.080
v -30689.349609 -24881.669922 -691.269226
v -30622.730469 -24861.369141 -691.269104
v -30623.589844 -24858.541016 -691.269104
v -30690.218750 -24878.839844 -691.269226
v -30689.349609 -24881.669922 -541.269226
v -30622.730469 -24861.369141 -541.269104
v -30690.218750 -24878.839844 -541.269226
v -30623.589844 -24858.541016 -541.269104
v -30653.710938 -24866.220703 -666.400452
v -30653.710938 -24866.220703 -640.475769
v -30662.099609 -24868.769531 -640.475891
v -30662.099609 -24868.769531 -666.400452
v -30653.710938 -24866.220703 -675.463562
v -30662.099609 -24868.769531 -675.463562
v -30668.662109 -24870.769531 -675.463562
v -30668.662109 -24870.769531 -666.400452
v -30660.958984 -24874.689453 -666.400452
v -30660.958984 -24874.689453 -640.475769
v -30652.570312 -24872.128906 -640.475891
v -30652.570312 -24872.128906 -666.400452
v -30660.958984 -24874.689453 -675.463562
v -30652.570312 -24872.128906 -675.463562
v -30646.011719 -24870.128906 -675.463562
v -30646.011719 -24870.128906 -666.400452
v -30649.718750 -24865.000000 -560.093567
v -30649.718750 -24865.000000 -586.334412
v -30641.330078 -24862.449219 -590.707947
v -30641.330078 -24862.449219 -555.720093
v -30672.699219 -24872.000000 -590.707947
v -30664.310547 -24869.451172 -560.093567
v -30664.310547 -24869.451172 -586.334412
v -30672.699219 -24872.000000 -555.720215
v -30664.310547 -24869.451172 -630.523315
v -30664.310547 -24869.451172 -604.282532
v -30672.699219 -24872.000000 -599.909119
v -30672.699219 -24872.000000 -634.896912
v -30641.330078 -24862.449219 -599.909119
v -30649.718750 -24865.000000 -630.523315
v -30649.718750 -24865.000000 -604.282593
v -30641.330078 -24862.449219 -634.896790
v -30664.951172 -24875.900391 -560.093567
v -30664.951172 -24875.900391 -586.334412
v -30673.339844 -24878.460938 -590.707947
v -30673.339844 -24878.460938 -555.720093
v -30641.970703 -24868.900391 -590.707947
v -30650.359375 -24871.460938 -560.093567
v -30650.359375 -24871.460938 -586.334412
v -30641.970703 -24868.900391 -555.720215
v -30650.359375 -24871.460938 -630.523315
v -30650.359375 -24871.460938 -604.282532
v -30641.970703 -24868.900391 -599.909119
v -30641.970703 -24868.900391 -634.896912
v -30673.339844 -24878.460938 -599.909119
v -30664.951172 -24875.900391 -630.523315
v -30664.951172 -24875.900391 -604.282593
v -30673.339844 -24878.460938 -634.896790
vt 1.000000 2.000000
vt 0.000000 1.000000
vt 1.000000 1.000000
vt 0.000000 2.000000
vt 1.000000 2.000000
vt 0.000000 2.000000
vt 0.000000 1.000000
vt 1.000000 1.000000
vt 1.000000 2.000000
vt 0.000000 1.000000
vt 1.000000 1.000000
vt 0.000000 2.000000
vt 1.000000 1.000000
vt 0.000000 2.000000
vt 0.000000 1.000000
vt 1.000000 2.000000
vt 1.000000 1.000000
vt 0.000000 1.000000
vt 0.000000 2.000000
vt 1.000000 2.000000
vt 0.042236 1.025888
vt 0.042236 1.025888
vt 0.042236 1.025888
vt 0.042236 1.025888
vt 0.042236 1.025888
vt 0.042236 1.025888
vt 0.042236 1.025888
vt 0.042236 1.025888
vt 0.042236 1.025888
vt 0.042236 1.025888
vt 0.042236 1.025888
vt 0.042236 1.025888
vt 0.042236 1.025888
vt 0.042236 1.025888
vt 0.042236 1.025888
vt 0.042236 1.025888
vt 0.042236 1.025888
vt 0.042236 1.025888
vt 0.042236 1.025888
vt 0.042236 1.025888
vt 0.042236 1.025888
vt 0.042236 1.025888
vt 0.042236 1.025888
vt 0.042236 1.025888
vt 0.042236 1.025888
vt 0.042236 1.025888
vt 0.042236 1.025888
vt 0.042236 1.025888
vt 0.042236 1.025888
vt 0.042236 1.025888
vt 0.042236 1.025888
vt 0.042236 1.025888
vt 0.042236 1.025888
vt 0.042236 1.025888
vt 0.042236 1.025888
vt 0.042236 1.025888
vt 0.042236 1.025888
vt 0.042236 1.025888
vt 0.042236 1.025888
vt 0.042236 1.025888
vt 0.042236 1.025888
vt 0.042236 1.025888
vt 0.042236 1.025888
vt 0.042236 1.025888
vt 0.042236 1.025888
vt 0.042236 1.025888
vt 0.042236 1.025888
vt 0.042236 1.025888
vn 0.0000 0.0000 -1.0000
vn 0.2915 -0.9566 0.0000
vn -0.0000 -0.0000 1.0000
vn -0.2914 0.9566 0.0000
vn -0.9561 -0.2931 -0.0000
vn -0.9569 -0.2905 0.0000
vn -0.9569 -0.2904 -0.0000
vn 0.9566 0.2914 0.0000
vn 0.9566 0.2915 -0.0000
vn -0.2912 0.9567 0.0000
vn -0.2907 0.9568 0.0000
vn -0.2910 0.9567 0.0000
vn -0.2913 0.9566 0.0000
vn -0.2916 0.9565 0.0000
vn 0.2917 -0.9565 0.0000
vn 0.2920 -0.9564 0.0000
vn 0.2918 -0.9565 0.0000
vn 0.2916 -0.9565 0.0000
vn -0.2916 0.9565 -0.0003
vn -0.2911 0.9567 0.0001
vn -0.2915 0.9566 -0.0001
vn -0.2914 0.9566 0.0002
vn -0.2913 0.9566 -0.0004
vn -0.2914 0.9566 -0.0001
vn -0.2913 0.9566 -0.0002
vn -0.2912 0.9567 -0.0003
vn -0.2913 0.9566 -0.0003
vn -0.2916 0.9565 0.0001
vn -0.2915 0.9566 -0.0003
vn -0.2913 0.9566 0.0002
vn 0.2919 -0.9565 0.0000
vn 0.2916 -0.9565 -0.0002
vn 0.2917 -0.9565 -0.0002
vn 0.2914 -0.9566 0.0002
vn 0.2914 -0.9566 0.0000
vn 0.2918 -0.9565 0.0004
vn 0.2915 -0.9566 0.0001
vn 0.2915 -0.9566 -0.0001
vn 0.2916 -0.9566 -0.0002
usemtl EmptyMat
s 1
f 1/1/1 3/2/1 2/3/1
f 3/2/1 1/1/1 4/4/1
f 5/5/2 1/6/2 2/7/2
f 2/7/2 6/8/2 5/5/2
f 7/9/3 6/10/3 8/11/3
f 6/10/3 7/9/3 5/12/3
f 3/13/4 7/14/4 8/15/4
f 7/14/4 3/13/4 4/16/4
f 1/17/5 5/5/6 4/18/5
f 4/18/5 5/5/6 7/14/7
f 3/19/8 8/15/9 2/20/9
f 2/20/9 8/15/9 6/8/8
f 9/21/10 11/22/11 10/23/11
f 11/22/11 9/21/10 12/24/12
f 13/25/12 12/24/12 9/21/10
f 12/24/12 13/25/12 14/26/13
f 15/27/14 12/24/12 14/26/13
f 12/24/12 15/27/14 16/28/4
f 17/29/15 19/30/16 18/31/16
f 19/30/16 17/29/15 20/32/17
f 21/33/18 20/32/17 17/29/15
f 20/32/17 21/33/18 22/34/17
f 23/35/15 20/32/17 22/34/17
f 20/32/17 23/35/15 24/36/15
f 25/37/19 27/38/12 26/39/20
f 28/40/21 27/38/12 25/37/19
f 29/41/22 26/39/20 27/38/12
f 30/42/23 28/40/21 25/37/19
f 26/39/20 29/41/22 31/43/24
f 28/40/21 30/42/23 32/44/25
f 31/43/24 32/44/25 30/42/23
f 32/44/25 31/43/24 29/41/22
f 33/45/21 35/46/26 34/47/27
f 35/46/26 33/45/21 36/48/28
f 37/49/21 34/47/27 35/46/26
f 38/50/20 36/48/28 33/45/21
f 34/47/27 37/49/21 39/51/29
f 36/48/28 38/50/20 40/52/30
f 39/51/29 40/52/30 38/50/20
f 37/49/21 40/52/30 39/51/29
f 41/53/2 43/54/31 42/55/17
f 44/56/32 43/54/31 41/53/2
f 45/57/33 42/55/17 43/54/31
f 46/58/34 44/56/32 41/53/2
f 42/55/17 45/57/33 47/59/35
f 44/56/32 46/58/34 48/60/36
f 47/59/35 48/60/36 46/58/34
f 48/60/36 47/59/35 45/57/33
f 49/61/37 51/62/36 50/63/34
f 51/62/36 49/61/37 52/64/33
f 53/65/35 50/63/34 51/62/36
f 54/66/15 52/64/33 49/61/37
f 50/63/34 53/65/35 55/67/38
f 52/64/33 54/66/15 56/68/39
f 55/67/38 56/68/39 54/66/15
f 53/65/35 56/68/39 55/67/38
