# Blender v3.4.1 OBJ File: 'track.blend'
# www.blender.org
mtllib _0SIGN_50M_02_Scene.073.mtl
o _0SIGN_50M_02_Scene.073
v -13.306699 819.244812 -9.918741
v -12.829670 818.737427 -9.918741
v -12.808099 818.757629 -9.918741
v -13.285119 819.265198 -9.918741
v -13.306699 819.244812 -8.418741
v -12.829670 818.737427 -8.418741
v -13.285130 819.265198 -8.418741
v -12.808099 818.757629 -8.418741
v -12.926329 818.904419 -9.282285
v -12.926329 818.904419 -9.235201
v -12.986390 818.968323 -9.235201
v -12.986390 818.968323 -9.282285
v -12.926329 818.904419 -9.434069
v -13.147140 819.139282 -9.282285
v -13.147140 819.139282 -9.235201
v -12.986390 818.968323 -9.434069
v -12.926329 818.904419 -9.484670
v -12.986390 818.968323 -9.484670
v -13.088259 819.076721 -9.484670
v -13.088259 819.076721 -9.434069
v -13.146739 819.138916 -9.484670
v -13.146739 819.138916 -9.434069
v -13.088259 819.076721 -9.548971
v -13.146739 819.138916 -9.548971
v -13.088259 819.076721 -9.584993
v -13.146739 819.138916 -9.584993
v -12.924980 818.903015 -9.548971
v -12.924980 818.903015 -9.584993
v -13.182610 819.104980 -9.282285
v -13.182610 819.104980 -9.235201
v -13.122550 819.041077 -9.235201
v -13.122550 819.041077 -9.282285
v -13.182610 819.104980 -9.434069
v -12.961799 818.870117 -9.282285
v -12.961799 818.870117 -9.235201
v -13.122550 819.041077 -9.434069
v -13.182610 819.104980 -9.484670
v -13.122550 819.041077 -9.484670
v -13.020679 818.932617 -9.484670
v -13.020679 818.932617 -9.434069
v -12.962190 818.870422 -9.484670
v -12.962190 818.870422 -9.434069
v -13.020679 818.932617 -9.548971
v -12.962190 818.870422 -9.548971
v -13.020679 818.932617 -9.584993
v -12.962190 818.870422 -9.584993
v -13.183960 819.106384 -9.548971
v -13.183960 819.106384 -9.584993
v -12.983549 818.965210 -8.806097
v -12.983549 818.965210 -9.068505
v -12.923490 818.901367 -9.112239
v -12.923490 818.901367 -8.762362
v -13.148090 819.140381 -9.112239
v -13.088030 819.076477 -8.806097
v -13.088030 819.076477 -9.068505
v -13.148090 819.140381 -8.762362
v -13.125390 819.044128 -8.806097
v -13.125390 819.044128 -9.068505
v -13.185449 819.107971 -9.112239
v -13.185449 819.107971 -8.762362
v -12.960850 818.869019 -9.112239
v -13.020910 818.932861 -8.806097
v -13.020910 818.932861 -9.068505
v -12.960850 818.869019 -8.762362
vt 1.000000 2.000000
vt 0.000000 1.000000
vt 1.000000 1.000000
vt 0.000000 2.000000
vt 1.000000 2.000000
vt 0.000000 2.000000
vt 0.000000 1.000000
vt 1.000000 1.000000
vt 1.000000 2.000000
vt 0.000000 1.000000
vt 1.000000 1.000000
vt 0.000000 2.000000
vt 1.000000 1.000000
vt 0.000000 2.000000
vt 0.000000 1.000000
vt 1.000000 2.000000
vt 1.000000 1.000000
vt 0.000000 1.000000
vt 0.000000 2.000000
vt 1.000000 2.000000
vt 0.042236 1.025888
vt 0.042236 1.025888
vt 0.042236 1.025888
vt 0.042236 1.025888
vt 0.042236 1.025888
vt 0.042236 1.025888
vt 0.042236 1.025888
vt 0.042236 1.025888
vt 0.042236 1.025888
vt 0.042236 1.025888
vt 0.042236 1.025888
vt 0.042236 1.025888
vt 0.042236 1.025888
vt 0.042236 1.025888
vt 0.042236 1.025888
vt 0.042236 1.025888
vt 0.042236 1.025888
vt 0.042236 1.025888
vt 0.042236 1.025888
vt 0.042236 1.025888
vt 0.042236 1.025888
vt 0.042236 1.025888
vt 0.042236 1.025888
vt 0.042236 1.025888
vt 0.042236 1.025888
vt 0.042236 1.025888
vt 0.042236 1.025888
vt 0.042236 1.025888
vt 0.042236 1.025888
vt 0.042236 1.025888
vt 0.042236 1.025888
vt 0.042236 1.025888
vt 0.042236 1.025888
vt 0.042236 1.025888
vt 0.042236 1.025888
vt 0.042236 1.025888
vt 0.042236 1.025888
vt 0.042236 1.025888
vt 0.042236 1.025888
vt 0.042236 1.025888
vt 0.042236 1.025888
vt 0.042236 1.025888
vt 0.042236 1.025888
vt 0.042236 1.025888
vt 0.042236 1.025888
vt 0.042236 1.025888
vt 0.042236 1.025888
vt 0.042236 1.025888
vt 0.042236 1.025888
vt 0.042236 1.025888
vt 0.042236 1.025888
vt 0.042236 1.025888
vt 0.042236 1.025888
vt 0.042236 1.025888
vt 0.042236 1.025888
vt 0.042236 1.025888
vn 0.0000 0.0000 -1.0000
vn -0.7286 -0.6850 0.0000
vn -0.0000 0.0000 1.0000
vn 0.7287 0.6848 0.0000
vn 0.7284 0.6852 -0.0000
vn -0.6870 0.7266 0.0000
vn -0.6824 0.7310 0.0000
vn -0.6822 0.7312 0.0000
vn 0.6814 -0.7319 -0.0000
vn 0.6860 -0.7276 -0.0000
vn 0.6815 -0.7318 0.0000
vn 0.6861 -0.7275 0.0000
vn 0.7287 0.6849 0.0000
vn 0.7286 0.6849 0.0000
vn 0.7285 0.6850 0.0000
vn 0.7286 0.6850 0.0000
vn 0.7288 0.6847 -0.0000
vn 0.7282 0.6854 0.0000
vn 0.7290 0.6845 -0.0000
vn -0.7287 -0.6848 0.0000
vn -0.7286 -0.6849 0.0000
vn -0.7282 -0.6853 0.0000
vn -0.7285 -0.6850 0.0000
vn -0.7288 -0.6848 0.0000
vn -0.7288 -0.6847 0.0000
vn -0.7285 -0.6851 0.0000
vn -0.7282 -0.6854 0.0000
vn 0.7287 0.6848 0.0010
vn 0.7285 0.6851 0.0009
vn 0.7285 0.6850 0.0013
vn 0.7289 0.6846 0.0001
vn 0.7287 0.6848 -0.0011
vn 0.7289 0.6847 -0.0013
vn 0.7287 0.6848 -0.0006
vn -0.7285 -0.6850 -0.0023
vn -0.7285 -0.6851 -0.0005
vn -0.7285 -0.6850 -0.0008
vn -0.7285 -0.6850 -0.0007
vn -0.7285 -0.6850 0.0002
vn -0.7286 -0.6849 0.0012
vn -0.7286 -0.6849 0.0021
vn -0.7284 -0.6851 0.0009
usemtl EmptyMat
s 1
f 1/1/1 3/2/1 2/3/1
f 3/2/1 1/1/1 4/4/1
f 5/5/2 1/6/2 2/7/2
f 2/7/2 6/8/2 5/5/2
f 7/9/3 6/10/3 8/11/3
f 6/10/3 7/9/3 5/12/3
f 3/13/4 7/14/4 8/15/4
f 7/14/4 3/13/4 4/16/5
f 1/17/6 5/5/7 4/18/6
f 4/18/6 5/5/7 7/14/8
f 3/19/9 8/15/10 2/20/11
f 2/20/11 8/15/10 6/8/12
f 9/21/13 11/22/14 10/23/13
f 9/21/13 12/24/14 11/22/14
f 13/25/13 12/24/14 9/21/13
f 14/26/15 11/22/14 12/24/14
f 11/22/14 14/26/15 15/27/15
f 12/24/14 13/25/13 16/28/4
f 17/29/13 16/28/4 13/25/13
f 16/28/4 17/29/13 18/30/4
f 19/31/14 16/28/4 18/30/4
f 16/28/4 19/31/14 20/32/14
f 21/33/15 20/32/14 19/31/14
f 20/32/14 21/33/15 22/34/15
f 23/35/16 21/33/15 19/31/14
f 23/35/16 24/36/17 21/33/15
f 25/37/16 24/36/17 23/35/16
f 25/37/16 26/38/18 24/36/17
f 23/35/16 27/39/19 25/37/16
f 28/40/19 25/37/16 27/39/19
f 29/41/20 31/42/21 30/43/22
f 29/41/20 32/44/21 31/42/21
f 33/45/20 32/44/21 29/41/20
f 34/46/23 31/42/21 32/44/21
f 31/42/21 34/46/23 35/47/23
f 32/44/21 33/45/20 36/48/24
f 37/49/20 36/48/24 33/45/20
f 36/48/24 37/49/20 38/50/25
f 39/51/21 36/48/24 38/50/25
f 36/48/24 39/51/21 40/52/20
f 41/53/26 40/52/20 39/51/21
f 40/52/20 41/53/26 42/54/26
f 43/55/2 41/53/26 39/51/21
f 43/55/2 44/56/26 41/53/26
f 45/57/21 44/56/26 43/55/2
f 45/57/21 46/58/27 44/56/26
f 43/55/2 47/59/24 45/57/21
f 48/60/24 45/57/21 47/59/24
f 49/61/28 51/62/29 50/63/30
f 52/64/31 51/62/29 49/61/28
f 53/65/4 50/63/30 51/62/29
f 54/66/32 52/64/31 49/61/28
f 50/63/30 53/65/4 55/67/33
f 52/64/31 54/66/32 56/68/34
f 55/67/33 56/68/34 54/66/32
f 56/68/34 55/67/33 53/65/4
f 57/69/35 59/70/36 58/71/37
f 60/72/38 59/70/36 57/69/35
f 61/73/39 58/71/37 59/70/36
f 62/74/40 60/72/38 57/69/35
f 58/71/37 61/73/39 63/75/41
f 60/72/38 62/74/40 64/76/42
f 63/75/41 64/76/42 62/74/40
f 64/76/42 63/75/41 61/73/39
