# Blender v3.1.2 OBJ File: 'track.blend'
# www.blender.org
mtllib _0SIGN_50M_01.mtl
o _0SIGN_50M_01_Scene.071
v -16519.669922 -91505.601562 -303.697388
v -16452.048828 -91522.281250 -303.697388
v -16451.339844 -91519.398438 -303.697388
v -16518.960938 -91502.718750 -303.697388
v -16519.669922 -91505.601562 -153.697388
v -16452.048828 -91522.281250 -153.697388
v -16518.960938 -91502.718750 -153.697388
v -16451.339844 -91519.398438 -153.697388
v -16469.240234 -91513.507812 -240.051697
v -16469.240234 -91513.507812 -235.343414
v -16477.750000 -91511.406250 -235.343414
v -16477.750000 -91511.406250 -240.051697
v -16469.240234 -91513.507812 -255.230194
v -16500.541016 -91505.789062 -240.051697
v -16500.541016 -91505.789062 -235.343414
v -16477.750000 -91511.406250 -255.230194
v -16469.240234 -91513.507812 -260.290192
v -16477.750000 -91511.406250 -260.290192
v -16492.191406 -91507.851562 -260.290192
v -16492.191406 -91507.851562 -255.230194
v -16500.480469 -91505.796875 -260.290192
v -16500.480469 -91505.796875 -255.230194
v -16492.191406 -91507.851562 -266.720398
v -16500.480469 -91505.796875 -266.720398
v -16492.191406 -91507.851562 -270.322693
v -16500.480469 -91505.796875 -270.322693
v -16469.050781 -91513.562500 -266.720398
v -16469.050781 -91513.562500 -270.322693
v -16501.650391 -91510.609375 -240.051697
v -16501.650391 -91510.609375 -235.343414
v -16493.140625 -91512.710938 -235.343414
v -16493.140625 -91512.710938 -240.051697
v -16501.650391 -91510.609375 -255.230194
v -16470.351562 -91518.328125 -240.051697
v -16470.351562 -91518.328125 -235.343414
v -16493.140625 -91512.710938 -255.230194
v -16501.650391 -91510.609375 -260.290192
v -16493.140625 -91512.710938 -260.290192
v -16478.701172 -91516.273438 -260.290192
v -16478.701172 -91516.273438 -255.230194
v -16470.400391 -91518.312500 -260.290192
v -16470.400391 -91518.312500 -255.230194
v -16478.701172 -91516.273438 -266.720398
v -16470.400391 -91518.312500 -266.720398
v -16478.701172 -91516.273438 -270.322693
v -16470.400391 -91518.312500 -270.322693
v -16501.839844 -91510.562500 -266.720398
v -16501.839844 -91510.562500 -270.322693
v -16477.349609 -91511.507812 -192.432999
v -16477.349609 -91511.507812 -218.673798
v -16468.839844 -91513.609375 -223.047302
v -16468.839844 -91513.609375 -188.059601
v -16500.669922 -91505.765625 -223.047302
v -16492.160156 -91507.859375 -192.432999
v -16492.160156 -91507.859375 -218.673798
v -16500.669922 -91505.765625 -188.059601
v -16493.539062 -91512.593750 -192.432999
v -16493.539062 -91512.593750 -218.673798
v -16502.048828 -91510.500000 -223.047302
v -16502.048828 -91510.500000 -188.059601
v -16470.210938 -91518.359375 -223.047302
v -16478.728516 -91516.257812 -192.432999
v -16478.728516 -91516.257812 -218.673798
v -16470.210938 -91518.359375 -188.059601
vt 1.000000 2.000000
vt 0.000000 1.000000
vt 1.000000 1.000000
vt 0.000000 2.000000
vt 1.000000 2.000000
vt 0.000000 2.000000
vt 0.000000 1.000000
vt 1.000000 1.000000
vt 1.000000 2.000000
vt 0.000000 1.000000
vt 1.000000 1.000000
vt 0.000000 2.000000
vt 1.000000 1.000000
vt 0.000000 2.000000
vt 0.000000 1.000000
vt 1.000000 2.000000
vt 1.000000 1.000000
vt 0.000000 1.000000
vt 0.000000 2.000000
vt 1.000000 2.000000
vt 0.042236 1.025888
vt 0.042236 1.025888
vt 0.042236 1.025888
vt 0.042236 1.025888
vt 0.042236 1.025888
vt 0.042236 1.025888
vt 0.042236 1.025888
vt 0.042236 1.025888
vt 0.042236 1.025888
vt 0.042236 1.025888
vt 0.042236 1.025888
vt 0.042236 1.025888
vt 0.042236 1.025888
vt 0.042236 1.025888
vt 0.042236 1.025888
vt 0.042236 1.025888
vt 0.042236 1.025888
vt 0.042236 1.025888
vt 0.042236 1.025888
vt 0.042236 1.025888
vt 0.042236 1.025888
vt 0.042236 1.025888
vt 0.042236 1.025888
vt 0.042236 1.025888
vt 0.042236 1.025888
vt 0.042236 1.025888
vt 0.042236 1.025888
vt 0.042236 1.025888
vt 0.042236 1.025888
vt 0.042236 1.025888
vt 0.042236 1.025888
vt 0.042236 1.025888
vt 0.042236 1.025888
vt 0.042236 1.025888
vt 0.042236 1.025888
vt 0.042236 1.025888
vt 0.042236 1.025888
vt 0.042236 1.025888
vt 0.042236 1.025888
vt 0.042236 1.025888
vt 0.042236 1.025888
vt 0.042236 1.025888
vt 0.042236 1.025888
vt 0.042236 1.025888
vt 0.042236 1.025888
vt 0.042236 1.025888
vt 0.042236 1.025888
vt 0.042236 1.025888
vt 0.042236 1.025888
vt 0.042236 1.025888
vt 0.042236 1.025888
vt 0.042236 1.025888
vt 0.042236 1.025888
vt 0.042236 1.025888
vt 0.042236 1.025888
vt 0.042236 1.025888
vn -0.0000 0.0000 -1.0000
vn -0.2395 -0.9709 0.0000
vn -0.0000 0.0000 1.0000
vn 0.2395 0.9709 0.0000
vn -0.9709 0.2396 -0.0000
vn -0.9711 0.2386 -0.0000
vn -0.9709 0.2395 0.0000
vn -0.9711 0.2387 0.0000
vn 0.9706 -0.2406 -0.0000
vn 0.9714 -0.2375 -0.0000
vn 0.9714 -0.2376 0.0000
vn 0.2394 0.9709 0.0000
vn 0.2399 0.9708 0.0000
vn 0.2384 0.9712 0.0000
vn 0.2400 0.9708 -0.0000
vn 0.2391 0.9710 0.0000
vn 0.2393 0.9710 0.0000
vn 0.2392 0.9710 0.0000
vn 0.2397 0.9708 -0.0000
vn 0.2404 0.9707 -0.0000
vn 0.2398 0.9708 0.0000
vn 0.2388 0.9711 -0.0000
vn 0.2386 0.9711 -0.0000
vn 0.2378 0.9713 -0.0000
vn 0.2401 0.9707 0.0000
vn 0.2390 0.9710 0.0000
vn -0.2406 -0.9706 0.0000
vn -0.2396 -0.9709 0.0000
vn -0.2413 -0.9704 -0.0000
vn -0.2402 -0.9707 0.0000
vn -0.2398 -0.9708 -0.0000
vn -0.2393 -0.9710 0.0000
vn -0.2400 -0.9708 0.0000
vn -0.2392 -0.9710 0.0000
vn -0.2381 -0.9712 -0.0000
vn -0.2390 -0.9710 0.0000
vn -0.2410 -0.9705 0.0000
vn -0.2394 -0.9709 0.0000
vn -0.2407 -0.9706 -0.0000
vn -0.2404 -0.9707 -0.0000
vn -0.2391 -0.9710 0.0000
vn 0.2392 0.9710 0.0003
vn 0.2392 0.9710 0.0001
vn 0.2395 0.9709 -0.0001
vn 0.2401 0.9708 0.0001
vn 0.2397 0.9708 -0.0004
vn 0.2395 0.9709 0.0004
vn 0.2397 0.9709 -0.0002
vn -0.2394 -0.9709 0.0004
vn -0.2395 -0.9709 0.0004
vn -0.2396 -0.9709 0.0008
vn -0.2390 -0.9710 -0.0001
vn -0.2402 -0.9707 0.0003
vn -0.2390 -0.9710 -0.0010
vn -0.2396 -0.9709 0.0006
vn -0.2396 -0.9709 -0.0005
usemtl EmptyMat
s 1
f 1/1/1 3/2/1 2/3/1
f 3/2/1 1/1/1 4/4/1
f 5/5/2 1/6/2 2/7/2
f 2/7/2 6/8/2 5/5/2
f 7/9/3 6/10/3 8/11/3
f 6/10/3 7/9/3 5/12/3
f 3/13/4 7/14/4 8/15/4
f 7/14/4 3/13/4 4/16/4
f 1/17/5 5/5/6 4/18/7
f 4/18/7 5/5/6 7/14/8
f 3/19/9 8/15/10 2/20/9
f 2/20/9 8/15/10 6/8/11
f 9/21/12 11/22/13 10/23/14
f 9/21/12 12/24/15 11/22/13
f 13/25/16 12/24/15 9/21/12
f 14/26/17 11/22/13 12/24/15
f 11/22/13 14/26/17 15/27/17
f 12/24/15 13/25/16 16/28/13
f 17/29/18 16/28/13 13/25/16
f 16/28/13 17/29/18 18/30/19
f 19/31/20 16/28/13 18/30/19
f 16/28/13 19/31/20 20/32/21
f 21/33/22 20/32/21 19/31/20
f 20/32/21 21/33/22 22/34/23
f 23/35/13 21/33/22 19/31/20
f 23/35/13 24/36/24 21/33/22
f 25/37/25 24/36/24 23/35/13
f 25/37/25 26/38/14 24/36/24
f 23/35/13 27/39/17 25/37/25
f 28/40/26 25/37/25 27/39/17
f 29/41/27 31/42/28 30/43/29
f 29/41/27 32/44/28 31/42/28
f 33/45/30 32/44/28 29/41/27
f 34/46/31 31/42/28 32/44/28
f 31/42/28 34/46/31 35/47/28
f 32/44/28 33/45/30 36/48/32
f 37/49/33 36/48/32 33/45/30
f 36/48/32 37/49/33 38/50/34
f 39/51/35 36/48/32 38/50/34
f 36/48/32 39/51/35 40/52/36
f 41/53/31 40/52/36 39/51/35
f 40/52/36 41/53/31 42/54/37
f 43/55/38 41/53/31 39/51/35
f 43/55/38 44/56/39 41/53/31
f 45/57/28 44/56/39 43/55/38
f 45/57/28 46/58/40 44/56/39
f 43/55/38 47/59/41 45/57/28
f 48/60/36 45/57/28 47/59/41
f 49/61/42 51/62/12 50/63/43
f 52/64/44 51/62/12 49/61/42
f 53/65/45 50/63/43 51/62/12
f 54/66/46 52/64/44 49/61/42
f 50/63/43 53/65/45 55/67/47
f 52/64/44 54/66/46 56/68/48
f 55/67/47 56/68/48 54/66/46
f 56/68/48 55/67/47 53/65/45
f 57/69/49 59/70/50 58/71/51
f 60/72/52 59/70/50 57/69/49
f 61/73/53 58/71/51 59/70/50
f 62/74/54 60/72/52 57/69/49
f 58/71/51 61/73/53 63/75/55
f 60/72/52 62/74/54 64/76/56
f 63/75/55 64/76/56 62/74/54
f 64/76/56 63/75/55 61/73/53
