# Blender v3.4.1 OBJ File: 'track.blend'
# www.blender.org
mtllib _0SIGN_100M_02_Scene.079.mtl
o _0SIGN_100M_02_Scene.079
v 22.572968 851.146301 -10.135821
v 23.030758 850.621399 -10.135821
v 23.053070 850.640930 -10.135821
v 22.595280 851.165771 -10.135821
v 22.572968 851.146301 -8.635822
v 23.030758 850.621399 -8.635822
v 22.595280 851.165771 -8.635822
v 23.053070 850.640930 -8.635822
v 22.859760 850.884277 -9.887136
v 22.859760 850.884277 -9.627890
v 22.802118 850.950378 -9.627890
v 22.802118 850.950378 -9.887136
v 22.859760 850.884277 -9.977767
v 22.802118 850.950378 -9.977767
v 22.757057 851.002075 -9.977767
v 22.757057 851.002075 -9.887136
v 22.752871 850.915771 -9.887136
v 22.752871 850.915771 -9.627890
v 22.810511 850.849670 -9.627890
v 22.810511 850.849670 -9.887136
v 22.752871 850.915771 -9.977767
v 22.810511 850.849670 -9.977767
v 22.855568 850.797974 -9.977767
v 22.855568 850.797974 -9.887136
v 22.887218 850.852783 -8.824068
v 22.887218 850.852783 -9.086475
v 22.944860 850.786682 -9.130209
v 22.944860 850.786682 -8.780333
v 22.729309 851.033875 -9.130209
v 22.786947 850.967773 -8.824067
v 22.786947 850.967773 -9.086475
v 22.729309 851.033875 -8.780333
v 22.786947 850.967773 -9.528363
v 22.786947 850.967773 -9.265957
v 22.729309 851.033875 -9.222222
v 22.729309 851.033875 -9.572100
v 22.944860 850.786682 -9.222222
v 22.887218 850.852783 -9.528365
v 22.887218 850.852783 -9.265957
v 22.944860 850.786682 -9.572100
v 22.725410 850.947327 -8.824068
v 22.725410 850.947327 -9.086475
v 22.667770 851.013428 -9.130209
v 22.667770 851.013428 -8.780333
v 22.883310 850.766174 -9.130209
v 22.825670 850.832275 -8.824067
v 22.825670 850.832275 -9.086475
v 22.883310 850.766174 -8.780333
v 22.825670 850.832275 -9.528363
v 22.825670 850.832275 -9.265957
v 22.883310 850.766174 -9.222222
v 22.883310 850.766174 -9.572100
v 22.667770 851.013428 -9.222222
v 22.725410 850.947327 -9.528365
v 22.725410 850.947327 -9.265957
v 22.667770 851.013428 -9.572100
vt 1.000000 2.000000
vt 0.000000 1.000000
vt 1.000000 1.000000
vt 0.000000 2.000000
vt 1.000000 2.000000
vt 0.000000 2.000000
vt 0.000000 1.000000
vt 1.000000 1.000000
vt 1.000000 2.000000
vt 0.000000 1.000000
vt 1.000000 1.000000
vt 0.000000 2.000000
vt 1.000000 1.000000
vt 0.000000 2.000000
vt 0.000000 1.000000
vt 1.000000 2.000000
vt 1.000000 1.000000
vt 0.000000 1.000000
vt 0.000000 2.000000
vt 1.000000 2.000000
vt 0.042236 1.025888
vt 0.042236 1.025888
vt 0.042236 1.025888
vt 0.042236 1.025888
vt 0.042236 1.025888
vt 0.042236 1.025888
vt 0.042236 1.025888
vt 0.042236 1.025888
vt 0.042236 1.025888
vt 0.042236 1.025888
vt 0.042236 1.025888
vt 0.042236 1.025888
vt 0.042236 1.025888
vt 0.042236 1.025888
vt 0.042236 1.025888
vt 0.042236 1.025888
vt 0.042236 1.025888
vt 0.042236 1.025888
vt 0.042236 1.025888
vt 0.042236 1.025888
vt 0.042236 1.025888
vt 0.042236 1.025888
vt 0.042236 1.025888
vt 0.042236 1.025888
vt 0.042236 1.025888
vt 0.042236 1.025888
vt 0.042236 1.025888
vt 0.042236 1.025888
vt 0.042236 1.025888
vt 0.042236 1.025888
vt 0.042236 1.025888
vt 0.042236 1.025888
vt 0.042236 1.025888
vt 0.042236 1.025888
vt 0.042236 1.025888
vt 0.042236 1.025888
vt 0.042236 1.025888
vt 0.042236 1.025888
vt 0.042236 1.025888
vt 0.042236 1.025888
vt 0.042236 1.025888
vt 0.042236 1.025888
vt 0.042236 1.025888
vt 0.042236 1.025888
vt 0.042236 1.025888
vt 0.042236 1.025888
vt 0.042236 1.025888
vt 0.042236 1.025888
vn -0.0000 0.0000 -1.0000
vn -0.7536 -0.6573 0.0000
vn 0.0000 0.0000 1.0000
vn 0.7536 0.6573 0.0000
vn -0.6575 0.7535 0.0000
vn -0.6599 0.7514 -0.0000
vn 0.6560 -0.7548 -0.0000
vn 0.6587 -0.7524 0.0000
vn 0.6560 -0.7547 0.0000
vn 0.7537 0.6572 0.0000
vn 0.7538 0.6572 0.0000
vn 0.7538 0.6571 0.0000
vn -0.7535 -0.6575 0.0000
vn -0.7537 -0.6572 0.0000
vn -0.7538 -0.6572 0.0000
vn -0.7538 -0.6571 0.0000
vn -0.7539 -0.6570 0.0000
vn 0.7537 0.6572 0.0007
vn 0.7537 0.6572 0.0002
vn 0.7537 0.6572 0.0003
vn 0.7537 0.6572 -0.0008
vn 0.7537 0.6572 -0.0005
vn 0.7537 0.6572 0.0006
vn 0.7537 0.6573 0.0000
vn -0.7533 -0.6576 0.0012
vn -0.7537 -0.6572 0.0002
vn -0.7538 -0.6571 0.0002
vn -0.7538 -0.6572 0.0002
vn -0.7540 -0.6569 -0.0003
vn -0.7540 -0.6569 -0.0009
vn -0.7541 -0.6568 -0.0009
vn -0.7537 -0.6572 -0.0004
vn -0.7536 -0.6573 0.0010
usemtl EmptyMat
s 1
f 1/1/1 3/2/1 2/3/1
f 3/2/1 1/1/1 4/4/1
f 5/5/2 1/6/2 2/7/2
f 2/7/2 6/8/2 5/5/2
f 7/9/3 6/10/3 8/11/3
f 6/10/3 7/9/3 5/12/3
f 3/13/4 7/14/4 8/15/4
f 7/14/4 3/13/4 4/16/4
f 1/17/5 5/5/6 4/18/5
f 4/18/5 5/5/6 7/14/6
f 3/19/7 8/15/8 2/20/9
f 2/20/9 8/15/8 6/8/8
f 9/21/10 11/22/10 10/23/10
f 11/22/10 9/21/10 12/24/10
f 13/25/10 12/24/10 9/21/10
f 12/24/10 13/25/10 14/26/11
f 15/27/12 12/24/10 14/26/11
f 12/24/10 15/27/12 16/28/4
f 17/29/13 19/30/14 18/31/14
f 19/30/14 17/29/13 20/32/15
f 21/33/14 20/32/15 17/29/13
f 20/32/15 21/33/14 22/34/16
f 23/35/17 20/32/15 22/34/16
f 20/32/15 23/35/17 24/36/17
f 25/37/18 27/38/19 26/39/20
f 28/40/10 27/38/19 25/37/18
f 29/41/20 26/39/20 27/38/19
f 30/42/21 28/40/10 25/37/18
f 26/39/20 29/41/20 31/43/18
f 28/40/10 30/42/21 32/44/22
f 31/43/18 32/44/22 30/42/21
f 32/44/22 31/43/18 29/41/20
f 33/45/23 35/46/22 34/47/21
f 35/46/22 33/45/23 36/48/20
f 37/49/24 34/47/21 35/46/22
f 38/50/20 36/48/20 33/45/23
f 34/47/21 37/49/24 39/51/18
f 36/48/20 38/50/20 40/52/19
f 39/51/18 40/52/19 38/50/20
f 37/49/24 40/52/19 39/51/18
f 41/53/25 43/54/26 42/55/27
f 44/56/28 43/54/26 41/53/25
f 45/57/29 42/55/27 43/54/26
f 46/58/15 44/56/28 41/53/25
f 42/55/27 45/57/29 47/59/30
f 44/56/28 46/58/15 48/60/14
f 47/59/30 48/60/14 46/58/15
f 48/60/14 47/59/30 45/57/29
f 49/61/31 51/62/14 50/63/15
f 51/62/14 49/61/31 52/64/32
f 53/65/26 50/63/15 51/62/14
f 54/66/28 52/64/32 49/61/31
f 50/63/15 53/65/26 55/67/33
f 52/64/32 54/66/28 56/68/26
f 55/67/33 56/68/26 54/66/28
f 53/65/26 56/68/26 55/67/33
