# Blender v3.4.1 OBJ File: 'track.blend'
# www.blender.org
mtllib _0SIGN_150M_02_Scene.085.mtl
o _0SIGN_150M_02_Scene.085
v -318.708313 -200.564804 -5.791112
v -318.708313 -200.564804 -5.744028
v -318.792206 -200.590393 -5.744028
v -318.792206 -200.590393 -5.791112
v -318.708313 -200.564804 -5.942896
v -319.016693 -200.658783 -5.791112
v -319.016693 -200.658783 -5.744028
v -318.792206 -200.590393 -5.942896
v -318.708313 -200.564804 -5.993496
v -318.792206 -200.590393 -5.993496
v -318.934509 -200.633804 -5.993496
v -318.934509 -200.633804 -5.942896
v -319.016205 -200.658585 -5.993496
v -319.016205 -200.658585 -5.942896
v -318.934509 -200.633804 -6.057799
v -319.016205 -200.658585 -6.057799
v -318.934509 -200.633804 -6.093821
v -319.016205 -200.658585 -6.093821
v -318.706482 -200.564285 -6.057799
v -318.706482 -200.564285 -6.093821
v -319.185608 -200.755798 -6.658847
v -318.519409 -200.552795 -6.658845
v -318.528015 -200.524506 -6.658845
v -319.194275 -200.727493 -6.658847
v -319.185608 -200.755798 -5.158847
v -318.519409 -200.552795 -5.158845
v -319.194275 -200.727493 -5.158847
v -318.528015 -200.524506 -5.158845
v -318.829315 -200.601303 -6.410161
v -318.829315 -200.601303 -6.150914
v -318.913086 -200.626785 -6.150915
v -318.913086 -200.626785 -6.410161
v -318.829315 -200.601303 -6.500792
v -318.913086 -200.626785 -6.500792
v -318.978699 -200.646790 -6.500792
v -318.978699 -200.646790 -6.410161
v -318.773010 -200.647598 -5.942896
v -318.691315 -200.622803 -5.942896
v -318.691315 -200.622803 -5.993496
v -318.773010 -200.647598 -5.993496
v -318.915314 -200.690994 -5.942896
v -318.773010 -200.647598 -6.057799
v -318.915314 -200.690994 -5.993496
v -318.999207 -200.716599 -5.993496
v -318.999207 -200.716599 -5.942896
v -318.915314 -200.690994 -5.791112
v -318.691315 -200.622803 -6.057799
v -318.999207 -200.716599 -5.791112
v -318.773010 -200.647598 -6.093821
v -318.691315 -200.622803 -6.093821
v -319.001099 -200.717102 -6.057799
v -319.001099 -200.717102 -6.093821
v -318.915314 -200.690994 -5.744028
v -318.999207 -200.716599 -5.744028
v -318.690796 -200.622589 -5.791112
v -318.690796 -200.622589 -5.744028
v -318.901703 -200.685898 -6.410161
v -318.901703 -200.685898 -6.150914
v -318.817810 -200.660385 -6.150915
v -318.817810 -200.660385 -6.410161
v -318.901703 -200.685898 -6.500792
v -318.817810 -200.660385 -6.500792
v -318.752167 -200.640381 -6.500792
v -318.752167 -200.640381 -6.410161
v -318.789276 -200.589096 -5.347092
v -318.789276 -200.589096 -5.609500
v -318.705414 -200.563507 -5.653234
v -318.705414 -200.563507 -5.303358
v -319.019104 -200.659103 -5.653234
v -318.935211 -200.633606 -5.347092
v -318.935211 -200.633606 -5.609500
v -319.019104 -200.659103 -5.303358
v -318.941711 -200.698105 -5.347092
v -318.941711 -200.698105 -5.609500
v -319.025513 -200.723694 -5.653234
v -319.025513 -200.723694 -5.303358
v -318.711914 -200.628098 -5.653234
v -318.795685 -200.653702 -5.347092
v -318.795685 -200.653702 -5.609500
v -318.711914 -200.628098 -5.303358
vt 0.042236 1.025888
vt 0.042236 1.025888
vt 0.042236 1.025888
vt 0.042236 1.025888
vt 0.042236 1.025888
vt 0.042236 1.025888
vt 0.042236 1.025888
vt 0.042236 1.025888
vt 0.042236 1.025888
vt 0.042236 1.025888
vt 0.042236 1.025888
vt 0.042236 1.025888
vt 0.042236 1.025888
vt 0.042236 1.025888
vt 0.042236 1.025888
vt 0.042236 1.025888
vt 0.042236 1.025888
vt 0.042236 1.025888
vt 0.042236 1.025888
vt 0.042236 1.025888
vt 1.000000 2.000000
vt 0.000000 1.000000
vt 1.000000 1.000000
vt 0.000000 2.000000
vt 1.000000 2.000000
vt 0.000000 2.000000
vt 0.000000 1.000000
vt 1.000000 1.000000
vt 1.000000 2.000000
vt 0.000000 1.000000
vt 1.000000 1.000000
vt 0.000000 2.000000
vt 1.000000 1.000000
vt 0.000000 2.000000
vt 0.000000 1.000000
vt 1.000000 2.000000
vt 1.000000 1.000000
vt 0.000000 1.000000
vt 0.000000 2.000000
vt 1.000000 2.000000
vt 0.042236 1.025888
vt 0.042236 1.025888
vt 0.042236 1.025888
vt 0.042236 1.025888
vt 0.042236 1.025888
vt 0.042236 1.025888
vt 0.042236 1.025888
vt 0.042236 1.025888
vt 0.042236 1.025888
vt 0.042236 1.025888
vt 0.042236 1.025888
vt 0.042236 1.025888
vt 0.042236 1.025888
vt 0.042236 1.025888
vt 0.042236 1.025888
vt 0.042236 1.025888
vt 0.042236 1.025888
vt 0.042236 1.025888
vt 0.042236 1.025888
vt 0.042236 1.025888
vt 0.042236 1.025888
vt 0.042236 1.025888
vt 0.042236 1.025888
vt 0.042236 1.025888
vt 0.042236 1.025888
vt 0.042236 1.025888
vt 0.042236 1.025888
vt 0.042236 1.025888
vt 0.042236 1.025888
vt 0.042236 1.025888
vt 0.042236 1.025888
vt 0.042236 1.025888
vt 0.042236 1.025888
vt 0.042236 1.025888
vt 0.042236 1.025888
vt 0.042236 1.025888
vt 0.042236 1.025888
vt 0.042236 1.025888
vt 0.042236 1.025888
vt 0.042236 1.025888
vt 0.042236 1.025888
vt 0.042236 1.025888
vt 0.042236 1.025888
vt 0.042236 1.025888
vt 0.042236 1.025888
vt 0.042236 1.025888
vt 0.042236 1.025888
vt 0.042236 1.025888
vt 0.042236 1.025888
vt 0.042236 1.025888
vt 0.042236 1.025888
vt 0.042236 1.025888
vn -0.2919 0.9565 0.0000
vn -0.2916 0.9566 0.0000
vn -0.2916 0.9565 0.0000
vn -0.2918 0.9565 0.0000
vn -0.2914 0.9566 0.0000
vn -0.2915 0.9566 0.0000
vn -0.2917 0.9565 0.0000
vn -0.2909 0.9568 0.0000
vn -0.2910 0.9567 0.0000
vn -0.2907 0.9568 0.0000
vn -0.2909 0.9567 0.0000
vn -0.0000 0.0000 -1.0000
vn 0.2915 -0.9566 0.0000
vn 0.0000 -0.0000 1.0000
vn -0.9567 -0.2910 -0.0000
vn -0.9569 -0.2904 0.0000
vn 0.9569 0.2904 0.0000
vn 0.9563 0.2925 -0.0000
vn 0.9567 0.2910 0.0000
vn 0.9562 0.2927 0.0000
vn -0.2912 0.9566 0.0000
vn -0.2911 0.9567 0.0000
vn 0.2911 -0.9567 0.0000
vn 0.2917 -0.9565 -0.0000
vn 0.2916 -0.9565 -0.0000
vn 0.2918 -0.9565 0.0000
vn 0.2912 -0.9567 0.0000
vn 0.2923 -0.9563 0.0000
vn 0.2920 -0.9564 0.0000
vn 0.2910 -0.9567 0.0000
vn 0.2908 -0.9568 0.0000
vn -0.2914 0.9566 0.0003
vn -0.2917 0.9565 0.0007
vn -0.2919 0.9565 -0.0002
vn -0.2920 0.9564 0.0001
vn -0.2913 0.9566 -0.0003
vn -0.2918 0.9565 0.0002
vn 0.2917 -0.9565 0.0005
vn 0.2919 -0.9564 0.0005
vn 0.2917 -0.9565 0.0007
vn 0.2921 -0.9564 -0.0003
vn 0.2914 -0.9566 -0.0005
vn 0.2914 -0.9566 -0.0001
vn 0.2914 -0.9566 -0.0003
usemtl EmptyMat
s 1
f 1/1/1 3/2/2 2/3/1
f 1/1/1 4/4/3 3/2/2
f 5/5/4 4/4/3 1/1/1
f 6/6/5 3/2/2 4/4/3
f 3/2/2 6/6/5 7/7/6
f 4/4/3 5/5/4 8/8/7
f 9/9/6 8/8/7 5/5/4
f 8/8/7 9/9/6 10/10/7
f 11/11/8 8/8/7 10/10/7
f 8/8/7 11/11/8 12/12/9
f 13/13/6 12/12/9 11/11/8
f 12/12/9 13/13/6 14/14/4
f 15/15/10 13/13/6 11/11/8
f 15/15/10 16/16/3 13/13/6
f 17/17/11 16/16/3 15/15/10
f 17/17/11 18/18/6 16/16/3
f 15/15/10 19/19/3 17/17/11
f 20/20/3 17/17/11 19/19/3
f 21/21/12 23/22/12 22/23/12
f 23/22/12 21/21/12 24/24/12
f 25/25/13 21/26/13 22/27/13
f 22/27/13 26/28/13 25/25/13
f 27/29/14 26/30/14 28/31/14
f 26/30/14 27/29/14 25/32/14
f 23/33/5 27/34/5 28/35/5
f 27/34/5 23/33/5 24/36/5
f 21/37/15 25/25/16 24/38/15
f 24/38/15 25/25/16 27/34/16
f 23/39/17 28/35/18 22/40/19
f 22/40/19 28/35/18 26/28/20
f 29/41/9 31/42/11 30/43/11
f 31/42/11 29/41/9 32/44/21
f 33/45/22 32/44/21 29/41/9
f 32/44/21 33/45/22 34/46/5
f 35/47/3 32/44/21 34/46/5
f 32/44/21 35/47/3 36/48/3
f 37/49/23 39/50/24 38/51/25
f 39/50/24 37/49/23 40/52/13
f 41/53/26 40/52/13 37/49/23
f 42/54/27 39/50/24 40/52/13
f 40/52/13 41/53/26 43/55/24
f 41/53/26 44/56/28 43/55/24
f 44/56/28 41/53/26 45/57/29
f 46/58/24 45/57/29 41/53/26
f 42/54/27 47/59/25 39/50/24
f 45/57/29 46/58/24 48/60/24
f 49/61/25 47/59/25 42/54/27
f 49/61/25 50/62/13 47/59/25
f 42/54/27 51/63/13 49/61/25
f 52/64/13 49/61/25 51/63/13
f 48/60/24 46/58/24 53/65/25
f 48/60/24 53/65/25 54/66/29
f 55/67/13 53/65/25 46/58/24
f 53/65/25 55/67/13 56/68/13
f 57/69/30 59/70/31 58/71/31
f 59/70/31 57/69/30 60/72/27
f 61/73/30 60/72/27 57/69/30
f 60/72/27 61/73/30 62/74/27
f 63/75/13 60/72/27 62/74/27
f 60/72/27 63/75/13 64/76/25
f 65/77/4 67/78/32 66/79/33
f 68/80/34 67/78/32 65/77/4
f 69/81/35 66/79/33 67/78/32
f 70/82/36 68/80/34 65/77/4
f 66/79/33 69/81/35 71/83/37
f 68/80/34 70/82/36 72/84/36
f 71/83/37 72/84/36 70/82/36
f 72/84/36 71/83/37 69/81/35
f 73/85/38 75/86/39 74/87/40
f 76/88/41 75/86/39 73/85/38
f 77/89/25 74/87/40 75/86/39
f 78/90/42 76/88/41 73/85/38
f 74/87/40 77/89/25 79/91/43
f 76/88/41 78/90/42 80/92/44
f 79/91/43 80/92/44 78/90/42
f 80/92/44 79/91/43 77/89/25
