# Blender v3.4.1 OBJ File: 'track.blend'
# www.blender.org
mtllib _0SIGN_50M_04_Scene.075.mtl
o _0SIGN_50M_04_Scene.075
v -295.715912 -296.232605 -6.461985
v -295.049713 -296.029602 -6.461984
v -295.058289 -296.001312 -6.461984
v -295.724609 -296.204315 -6.461985
v -295.715912 -296.232605 -4.961985
v -295.049713 -296.029602 -4.961984
v -295.724609 -296.204315 -4.961985
v -295.058289 -296.001312 -4.961984
v -295.242188 -296.042297 -5.825528
v -295.242188 -296.042297 -5.778444
v -295.326111 -296.067902 -5.778445
v -295.326111 -296.067902 -5.825528
v -295.242188 -296.042297 -5.977313
v -295.550598 -296.136292 -5.825528
v -295.550598 -296.136292 -5.778445
v -295.326111 -296.067902 -5.977313
v -295.242188 -296.042297 -6.027913
v -295.326111 -296.067902 -6.027913
v -295.468414 -296.111206 -6.027913
v -295.468414 -296.111206 -5.977313
v -295.550110 -296.136108 -6.027913
v -295.550110 -296.136108 -5.977313
v -295.468414 -296.111206 -6.092215
v -295.550110 -296.136108 -6.092215
v -295.468414 -296.111206 -6.128238
v -295.550110 -296.136108 -6.128238
v -295.240295 -296.041687 -6.092215
v -295.240295 -296.041687 -6.128238
v -295.535492 -296.183289 -5.825528
v -295.535492 -296.183289 -5.778444
v -295.451599 -296.157715 -5.778445
v -295.451599 -296.157715 -5.825528
v -295.535492 -296.183289 -5.977313
v -295.227112 -296.089294 -5.825528
v -295.227112 -296.089294 -5.778445
v -295.451599 -296.157715 -5.977313
v -295.535492 -296.183289 -6.027913
v -295.451599 -296.157715 -6.027913
v -295.309387 -296.114410 -6.027913
v -295.309387 -296.114410 -5.977313
v -295.227692 -296.089508 -6.027913
v -295.227692 -296.089508 -5.977313
v -295.309387 -296.114410 -6.092215
v -295.227692 -296.089508 -6.092215
v -295.309387 -296.114410 -6.128238
v -295.227692 -296.089508 -6.128238
v -295.537415 -296.183899 -6.092215
v -295.537415 -296.183899 -6.128238
v -295.322113 -296.066711 -5.349341
v -295.322113 -296.066711 -5.611749
v -295.238312 -296.041107 -5.655484
v -295.238312 -296.041107 -5.305606
v -295.551910 -296.136688 -5.655484
v -295.467987 -296.111115 -5.349341
v -295.467987 -296.111115 -5.611749
v -295.551910 -296.136688 -5.305607
v -295.455597 -296.158997 -5.349341
v -295.455597 -296.158997 -5.611749
v -295.539490 -296.184509 -5.655484
v -295.539490 -296.184509 -5.305606
v -295.225800 -296.088898 -5.655484
v -295.309692 -296.114471 -5.349341
v -295.309692 -296.114471 -5.611749
v -295.225800 -296.088898 -5.305607
vt 1.000000 2.000000
vt 0.000000 1.000000
vt 1.000000 1.000000
vt 0.000000 2.000000
vt 1.000000 2.000000
vt 0.000000 2.000000
vt 0.000000 1.000000
vt 1.000000 1.000000
vt 1.000000 2.000000
vt 0.000000 1.000000
vt 1.000000 1.000000
vt 0.000000 2.000000
vt 1.000000 1.000000
vt 0.000000 2.000000
vt 0.000000 1.000000
vt 1.000000 2.000000
vt 1.000000 1.000000
vt 0.000000 1.000000
vt 0.000000 2.000000
vt 1.000000 2.000000
vt 0.042236 1.025888
vt 0.042236 1.025888
vt 0.042236 1.025888
vt 0.042236 1.025888
vt 0.042236 1.025888
vt 0.042236 1.025888
vt 0.042236 1.025888
vt 0.042236 1.025888
vt 0.042236 1.025888
vt 0.042236 1.025888
vt 0.042236 1.025888
vt 0.042236 1.025888
vt 0.042236 1.025888
vt 0.042236 1.025888
vt 0.042236 1.025888
vt 0.042236 1.025888
vt 0.042236 1.025888
vt 0.042236 1.025888
vt 0.042236 1.025888
vt 0.042236 1.025888
vt 0.042236 1.025888
vt 0.042236 1.025888
vt 0.042236 1.025888
vt 0.042236 1.025888
vt 0.042236 1.025888
vt 0.042236 1.025888
vt 0.042236 1.025888
vt 0.042236 1.025888
vt 0.042236 1.025888
vt 0.042236 1.025888
vt 0.042236 1.025888
vt 0.042236 1.025888
vt 0.042236 1.025888
vt 0.042236 1.025888
vt 0.042236 1.025888
vt 0.042236 1.025888
vt 0.042236 1.025888
vt 0.042236 1.025888
vt 0.042236 1.025888
vt 0.042236 1.025888
vt 0.042236 1.025888
vt 0.042236 1.025888
vt 0.042236 1.025888
vt 0.042236 1.025888
vt 0.042236 1.025888
vt 0.042236 1.025888
vt 0.042236 1.025888
vt 0.042236 1.025888
vt 0.042236 1.025888
vt 0.042236 1.025888
vt 0.042236 1.025888
vt 0.042236 1.025888
vt 0.042236 1.025888
vt 0.042236 1.025888
vt 0.042236 1.025888
vt 0.042236 1.025888
vn -0.0000 0.0000 -1.0000
vn 0.2915 -0.9566 0.0000
vn -0.0000 -0.0000 1.0000
vn -0.2914 0.9566 0.0000
vn -0.9561 -0.2931 -0.0000
vn -0.9567 -0.2912 0.0000
vn 0.9567 0.2910 0.0000
vn 0.9566 0.2915 -0.0000
vn 0.9565 0.2916 0.0000
vn -0.2918 0.9565 0.0000
vn -0.2916 0.9565 0.0000
vn -0.2919 0.9565 0.0000
vn -0.2917 0.9565 0.0000
vn -0.2915 0.9566 0.0000
vn -0.2922 0.9564 0.0000
vn 0.2916 -0.9565 0.0000
vn 0.2914 -0.9566 0.0000
vn 0.2918 -0.9565 -0.0000
vn 0.2920 -0.9564 0.0000
vn -0.2912 0.9567 -0.0006
vn -0.2916 0.9565 -0.0001
vn -0.2912 0.9567 -0.0002
vn -0.2914 0.9566 0.0003
vn -0.2920 0.9564 -0.0001
vn -0.2913 0.9566 0.0007
vn -0.2916 0.9566 0.0000
vn 0.2915 -0.9566 0.0007
vn 0.2916 -0.9565 -0.0001
vn 0.2914 -0.9566 -0.0004
vn 0.2912 -0.9566 0.0003
vn 0.2916 -0.9565 0.0004
vn 0.2921 -0.9564 -0.0005
vn 0.2918 -0.9565 0.0020
vn 0.2916 -0.9565 -0.0003
usemtl EmptyMat
s 1
f 1/1/1 3/2/1 2/3/1
f 3/2/1 1/1/1 4/4/1
f 5/5/2 1/6/2 2/7/2
f 2/7/2 6/8/2 5/5/2
f 7/9/3 6/10/3 8/11/3
f 6/10/3 7/9/3 5/12/3
f 3/13/4 7/14/4 8/15/4
f 7/14/4 3/13/4 4/16/4
f 1/17/5 5/5/6 4/18/5
f 4/18/5 5/5/6 7/14/6
f 3/19/7 8/15/8 2/20/7
f 2/20/7 8/15/8 6/8/9
f 9/21/10 11/22/11 10/23/12
f 9/21/10 12/24/13 11/22/11
f 13/25/12 12/24/13 9/21/10
f 14/26/4 11/22/11 12/24/13
f 11/22/11 14/26/4 15/27/4
f 12/24/13 13/25/12 16/28/11
f 17/29/14 16/28/11 13/25/12
f 16/28/11 17/29/14 18/30/4
f 19/31/4 16/28/11 18/30/4
f 16/28/11 19/31/4 20/32/4
f 21/33/11 20/32/4 19/31/4
f 20/32/4 21/33/11 22/34/11
f 23/35/14 21/33/11 19/31/4
f 23/35/14 24/36/11 21/33/11
f 25/37/14 24/36/11 23/35/14
f 25/37/14 26/38/15 24/36/11
f 23/35/14 27/39/14 25/37/14
f 28/40/14 25/37/14 27/39/14
f 29/41/2 31/42/16 30/43/17
f 29/41/2 32/44/16 31/42/16
f 33/45/16 32/44/16 29/41/2
f 34/46/2 31/42/16 32/44/16
f 31/42/16 34/46/2 35/47/18
f 32/44/16 33/45/16 36/48/2
f 37/49/16 36/48/2 33/45/16
f 36/48/2 37/49/16 38/50/2
f 39/51/2 36/48/2 38/50/2
f 36/48/2 39/51/2 40/52/2
f 41/53/2 40/52/2 39/51/2
f 40/52/2 41/53/2 42/54/2
f 43/55/16 41/53/2 39/51/2
f 43/55/16 44/56/2 41/53/2
f 45/57/16 44/56/2 43/55/16
f 45/57/16 46/58/19 44/56/2
f 43/55/16 47/59/2 45/57/16
f 48/60/2 45/57/16 47/59/2
f 49/61/20 51/62/21 50/63/21
f 52/64/22 51/62/21 49/61/20
f 53/65/23 50/63/21 51/62/21
f 54/66/24 52/64/22 49/61/20
f 50/63/21 53/65/23 55/67/25
f 52/64/22 54/66/24 56/68/26
f 55/67/25 56/68/26 54/66/24
f 56/68/26 55/67/25 53/65/23
f 57/69/27 59/70/28 58/71/29
f 60/72/30 59/70/28 57/69/27
f 61/73/31 58/71/29 59/70/28
f 62/74/32 60/72/30 57/69/27
f 58/71/29 61/73/31 63/75/33
f 60/72/30 62/74/32 64/76/34
f 63/75/33 64/76/34 62/74/32
f 64/76/34 63/75/33 61/73/31
