# Blender v3.4.1 OBJ File: 'track.blend'
# www.blender.org
mtllib _0SIGN_100M_01_Scene.078.mtl
o _0SIGN_100M_01_Scene.078
v -155.004501 -868.152588 -3.280342
v -154.328201 -868.319336 -3.280341
v -154.321198 -868.290588 -3.280341
v -154.997406 -868.123718 -3.280342
v -155.004501 -868.152588 -1.780342
v -154.328201 -868.319336 -1.780342
v -154.997406 -868.123718 -1.780342
v -154.321198 -868.290588 -1.780342
v -154.619202 -868.202393 -3.031656
v -154.619202 -868.202393 -2.772409
v -154.704407 -868.181396 -2.772409
v -154.704407 -868.181396 -3.031656
v -154.619202 -868.202393 -3.122286
v -154.704407 -868.181396 -3.122287
v -154.770905 -868.164978 -3.122287
v -154.770905 -868.164978 -3.031656
v -154.724792 -868.237976 -3.031656
v -154.724792 -868.237976 -2.772409
v -154.639694 -868.258972 -2.772409
v -154.639694 -868.258972 -3.031656
v -154.724792 -868.237976 -3.122286
v -154.639694 -868.258972 -3.122287
v -154.573105 -868.275513 -3.122287
v -154.573105 -868.275513 -3.031656
v -154.578705 -868.212402 -1.968588
v -154.578705 -868.212402 -2.230995
v -154.493500 -868.233398 -2.274730
v -154.493500 -868.233398 -1.924852
v -154.811905 -868.154724 -2.274730
v -154.726807 -868.175781 -1.968588
v -154.726807 -868.175781 -2.230995
v -154.811905 -868.154724 -1.924852
v -154.726807 -868.175781 -2.672884
v -154.726807 -868.175781 -2.410476
v -154.811905 -868.154724 -2.366742
v -154.811905 -868.154724 -2.716619
v -154.493500 -868.233398 -2.366742
v -154.578705 -868.212402 -2.672884
v -154.578705 -868.212402 -2.410476
v -154.493500 -868.233398 -2.716619
v -154.765396 -868.228027 -1.968588
v -154.765396 -868.228027 -2.230995
v -154.850494 -868.206909 -2.274730
v -154.850494 -868.206909 -1.924852
v -154.532104 -868.285522 -2.274730
v -154.617294 -868.264526 -1.968588
v -154.617294 -868.264526 -2.230995
v -154.532104 -868.285522 -1.924852
v -154.617294 -868.264526 -2.672884
v -154.617294 -868.264526 -2.410476
v -154.532104 -868.285522 -2.366742
v -154.532104 -868.285522 -2.716619
v -154.850494 -868.206909 -2.366742
v -154.765396 -868.228027 -2.672884
v -154.765396 -868.228027 -2.410476
v -154.850494 -868.206909 -2.716619
vt 1.000000 2.000000
vt 0.000000 1.000000
vt 1.000000 1.000000
vt 0.000000 2.000000
vt 1.000000 2.000000
vt 0.000000 2.000000
vt 0.000000 1.000000
vt 1.000000 1.000000
vt 1.000000 2.000000
vt 0.000000 1.000000
vt 1.000000 1.000000
vt 0.000000 2.000000
vt 1.000000 1.000000
vt 0.000000 2.000000
vt 0.000000 1.000000
vt 1.000000 2.000000
vt 1.000000 1.000000
vt 0.000000 1.000000
vt 0.000000 2.000000
vt 1.000000 2.000000
vt 0.042236 1.025888
vt 0.042236 1.025888
vt 0.042236 1.025888
vt 0.042236 1.025888
vt 0.042236 1.025888
vt 0.042236 1.025888
vt 0.042236 1.025888
vt 0.042236 1.025888
vt 0.042236 1.025888
vt 0.042236 1.025888
vt 0.042236 1.025888
vt 0.042236 1.025888
vt 0.042236 1.025888
vt 0.042236 1.025888
vt 0.042236 1.025888
vt 0.042236 1.025888
vt 0.042236 1.025888
vt 0.042236 1.025888
vt 0.042236 1.025888
vt 0.042236 1.025888
vt 0.042236 1.025888
vt 0.042236 1.025888
vt 0.042236 1.025888
vt 0.042236 1.025888
vt 0.042236 1.025888
vt 0.042236 1.025888
vt 0.042236 1.025888
vt 0.042236 1.025888
vt 0.042236 1.025888
vt 0.042236 1.025888
vt 0.042236 1.025888
vt 0.042236 1.025888
vt 0.042236 1.025888
vt 0.042236 1.025888
vt 0.042236 1.025888
vt 0.042236 1.025888
vt 0.042236 1.025888
vt 0.042236 1.025888
vt 0.042236 1.025888
vt 0.042236 1.025888
vt 0.042236 1.025888
vt 0.042236 1.025888
vt 0.042236 1.025888
vt 0.042236 1.025888
vt 0.042236 1.025888
vt 0.042236 1.025888
vt 0.042236 1.025888
vt 0.042236 1.025888
vn 0.0000 -0.0000 -1.0000
vn -0.2394 -0.9709 0.0000
vn -0.0000 0.0000 1.0000
vn 0.2396 0.9709 0.0000
vn -0.9708 0.2399 -0.0000
vn -0.9708 0.2397 0.0000
vn -0.9709 0.2395 0.0000
vn 0.9707 -0.2405 -0.0000
vn 0.9711 -0.2388 0.0000
vn 0.9707 -0.2404 0.0000
vn 0.9711 -0.2387 -0.0000
vn 0.2389 0.9710 0.0000
vn 0.2400 0.9708 0.0000
vn 0.2406 0.9706 -0.0000
vn 0.2391 0.9710 0.0000
vn 0.2393 0.9710 0.0000
vn 0.2395 0.9709 0.0000
vn 0.2397 0.9709 0.0000
vn -0.2392 -0.9710 0.0000
vn -0.2415 -0.9704 0.0000
vn -0.2425 -0.9702 -0.0000
vn -0.2389 -0.9710 0.0000
vn -0.2395 -0.9709 0.0000
vn 0.2395 0.9709 -0.0005
vn 0.2387 0.9711 0.0001
vn 0.2386 0.9711 0.0001
vn 0.2404 0.9707 -0.0002
vn 0.2401 0.9707 0.0001
vn 0.2400 0.9708 -0.0001
vn 0.2401 0.9707 0.0000
vn 0.2397 0.9708 0.0006
vn 0.2397 0.9709 -0.0001
vn 0.2398 0.9708 0.0001
vn 0.2395 0.9709 -0.0004
vn 0.2388 0.9711 0.0002
vn 0.2391 0.9710 -0.0007
vn -0.2391 -0.9710 0.0009
vn -0.2402 -0.9707 -0.0003
vn -0.2401 -0.9708 -0.0004
vn -0.2393 -0.9709 0.0002
vn -0.2396 -0.9709 -0.0004
vn -0.2393 -0.9709 0.0013
vn -0.2390 -0.9710 -0.0003
vn -0.2398 -0.9708 -0.0003
vn -0.2395 -0.9709 -0.0004
vn -0.2386 -0.9711 0.0003
vn -0.2379 -0.9713 0.0002
vn -0.2400 -0.9708 -0.0003
vn -0.2384 -0.9712 0.0009
vn -0.2394 -0.9709 -0.0001
usemtl EmptyMat
s 1
f 1/1/1 3/2/1 2/3/1
f 3/2/1 1/1/1 4/4/1
f 5/5/2 1/6/2 2/7/2
f 2/7/2 6/8/2 5/5/2
f 7/9/3 6/10/3 8/11/3
f 6/10/3 7/9/3 5/12/3
f 3/13/4 7/14/4 8/15/4
f 7/14/4 3/13/4 4/16/4
f 1/17/5 5/5/6 4/18/7
f 4/18/7 5/5/6 7/14/5
f 3/19/8 8/15/9 2/20/10
f 2/20/10 8/15/9 6/8/11
f 9/21/12 11/22/13 10/23/14
f 11/22/13 9/21/12 12/24/15
f 13/25/16 12/24/15 9/21/12
f 12/24/15 13/25/16 14/26/17
f 15/27/18 12/24/15 14/26/17
f 12/24/15 15/27/18 16/28/18
f 17/29/19 19/30/20 18/31/21
f 19/30/20 17/29/19 20/32/22
f 21/33/23 20/32/22 17/29/19
f 20/32/22 21/33/23 22/34/19
f 23/35/2 20/32/22 22/34/19
f 20/32/22 23/35/2 24/36/2
f 25/37/24 27/38/25 26/39/26
f 28/40/27 27/38/25 25/37/24
f 29/41/28 26/39/26 27/38/25
f 30/42/29 28/40/27 25/37/24
f 26/39/26 29/41/28 31/43/30
f 28/40/27 30/42/29 32/44/30
f 31/43/30 32/44/30 30/42/29
f 32/44/30 31/43/30 29/41/28
f 33/45/31 35/46/32 34/47/29
f 35/46/32 33/45/31 36/48/33
f 37/49/34 34/47/29 35/46/32
f 38/50/35 36/48/33 33/45/31
f 34/47/29 37/49/34 39/51/36
f 36/48/33 38/50/35 40/52/25
f 39/51/36 40/52/25 38/50/35
f 37/49/34 40/52/25 39/51/36
f 41/53/37 43/54/38 42/55/39
f 44/56/40 43/54/38 41/53/37
f 45/57/40 42/55/39 43/54/38
f 46/58/41 44/56/40 41/53/37
f 42/55/39 45/57/40 47/59/42
f 44/56/40 46/58/41 48/60/43
f 47/59/42 48/60/43 46/58/41
f 48/60/43 47/59/42 45/57/40
f 49/61/42 51/62/44 50/63/45
f 51/62/44 49/61/42 52/64/46
f 53/65/47 50/63/45 51/62/44
f 54/66/48 52/64/46 49/61/42
f 50/63/45 53/65/47 55/67/49
f 52/64/46 54/66/48 56/68/50
f 55/67/49 56/68/50 54/66/48
f 53/65/47 56/68/50 55/67/49
