# Blender v3.1.2 OBJ File: 'track.blend'
# www.blender.org
mtllib _0SIGN_50M_05.mtl
o _0SIGN_50M_05_Scene.075
v 16303.830078 12855.200195 -496.748199
v 16371.969727 12840.759766 -496.748108
v 16372.580078 12843.660156 -496.748108
v 16304.440430 12858.099609 -496.748199
v 16303.830078 12855.200195 -346.748199
v 16371.969727 12840.759766 -346.748077
v 16304.440430 12858.099609 -346.748199
v 16372.580078 12843.660156 -346.748077
v 16354.500000 12848.958984 -433.102509
v 16354.500000 12848.958984 -428.394073
v 16345.919922 12850.779297 -428.394073
v 16345.919922 12850.779297 -433.102509
v 16354.500000 12848.958984 -448.281006
v 16322.959961 12855.639648 -433.102509
v 16322.959961 12855.639648 -428.394073
v 16345.919922 12850.779297 -448.281006
v 16354.500000 12848.958984 -453.341003
v 16345.919922 12850.779297 -453.341003
v 16331.370117 12853.860352 -453.341003
v 16331.370117 12853.860352 -448.281006
v 16323.009766 12855.630859 -453.341003
v 16323.009766 12855.630859 -448.281006
v 16331.370117 12853.860352 -459.771210
v 16323.009766 12855.630859 -459.771210
v 16331.370117 12853.860352 -463.373413
v 16323.009766 12855.630859 -463.373413
v 16354.690430 12848.919922 -459.771210
v 16354.690430 12848.919922 -463.373413
v 16322.009766 12850.799805 -433.102509
v 16322.009766 12850.799805 -428.394073
v 16330.588867 12848.980469 -428.394073
v 16330.588867 12848.980469 -433.102509
v 16322.009766 12850.799805 -448.281006
v 16353.550781 12844.110352 -433.102509
v 16353.550781 12844.110352 -428.394073
v 16330.588867 12848.980469 -448.281006
v 16322.009766 12850.799805 -453.341003
v 16330.588867 12848.980469 -453.341003
v 16345.139648 12845.889648 -453.341003
v 16345.139648 12845.889648 -448.281006
v 16353.489258 12844.119141 -453.341003
v 16353.489258 12844.119141 -448.281006
v 16345.139648 12845.889648 -459.771210
v 16353.489258 12844.119141 -459.771210
v 16345.139648 12845.889648 -463.373413
v 16353.489258 12844.119141 -463.373413
v 16321.820312 12850.840820 -459.771210
v 16321.820312 12850.840820 -463.373413
v 16346.319336 12850.689453 -385.483795
v 16346.319336 12850.689453 -411.724609
v 16354.899414 12848.869141 -416.098022
v 16354.899414 12848.869141 -381.110321
v 16322.819336 12855.669922 -416.098022
v 16331.399414 12853.849609 -385.483795
v 16331.399414 12853.849609 -411.724609
v 16322.819336 12855.669922 -381.110321
v 16330.180664 12849.060547 -385.483795
v 16330.180664 12849.060547 -411.724609
v 16321.600586 12850.880859 -416.098022
v 16321.600586 12850.880859 -381.110321
v 16353.680664 12844.080078 -416.098022
v 16345.100586 12845.900391 -385.483795
v 16345.100586 12845.900391 -411.724609
v 16353.680664 12844.080078 -381.110321
vt 1.000000 2.000000
vt 0.000000 1.000000
vt 1.000000 1.000000
vt 0.000000 2.000000
vt 1.000000 2.000000
vt 0.000000 2.000000
vt 0.000000 1.000000
vt 1.000000 1.000000
vt 1.000000 2.000000
vt 0.000000 1.000000
vt 1.000000 1.000000
vt 0.000000 2.000000
vt 1.000000 1.000000
vt 0.000000 2.000000
vt 0.000000 1.000000
vt 1.000000 2.000000
vt 1.000000 1.000000
vt 0.000000 1.000000
vt 0.000000 2.000000
vt 1.000000 2.000000
vt 0.042236 1.025888
vt 0.042236 1.025888
vt 0.042236 1.025888
vt 0.042236 1.025888
vt 0.042236 1.025888
vt 0.042236 1.025888
vt 0.042236 1.025888
vt 0.042236 1.025888
vt 0.042236 1.025888
vt 0.042236 1.025888
vt 0.042236 1.025888
vt 0.042236 1.025888
vt 0.042236 1.025888
vt 0.042236 1.025888
vt 0.042236 1.025888
vt 0.042236 1.025888
vt 0.042236 1.025888
vt 0.042236 1.025888
vt 0.042236 1.025888
vt 0.042236 1.025888
vt 0.042236 1.025888
vt 0.042236 1.025888
vt 0.042236 1.025888
vt 0.042236 1.025888
vt 0.042236 1.025888
vt 0.042236 1.025888
vt 0.042236 1.025888
vt 0.042236 1.025888
vt 0.042236 1.025888
vt 0.042236 1.025888
vt 0.042236 1.025888
vt 0.042236 1.025888
vt 0.042236 1.025888
vt 0.042236 1.025888
vt 0.042236 1.025888
vt 0.042236 1.025888
vt 0.042236 1.025888
vt 0.042236 1.025888
vt 0.042236 1.025888
vt 0.042236 1.025888
vt 0.042236 1.025888
vt 0.042236 1.025888
vt 0.042236 1.025888
vt 0.042236 1.025888
vt 0.042236 1.025888
vt 0.042236 1.025888
vt 0.042236 1.025888
vt 0.042236 1.025888
vt 0.042236 1.025888
vt 0.042236 1.025888
vt 0.042236 1.025888
vt 0.042236 1.025888
vt 0.042236 1.025888
vt 0.042236 1.025888
vt 0.042236 1.025888
vt 0.042236 1.025888
vn -0.0000 -0.0000 -1.0000
vn -0.2073 -0.9783 0.0000
vn 0.0000 0.0000 1.0000
vn 0.2073 0.9783 0.0000
vn -0.9783 0.2072 -0.0000
vn 0.9783 -0.2071 -0.0000
vn 0.2075 0.9782 0.0000
vn 0.2074 0.9783 0.0000
vn 0.2076 0.9782 0.0000
vn 0.2071 0.9783 0.0000
vn 0.2072 0.9783 0.0000
vn -0.2075 -0.9782 0.0000
vn -0.2076 -0.9782 0.0000
vn -0.2074 -0.9782 0.0000
vn -0.2074 -0.9783 0.0000
vn 0.2074 0.9783 0.0005
vn 0.2075 0.9782 -0.0001
vn 0.2074 0.9782 -0.0001
vn 0.2075 0.9782 0.0001
vn 0.2074 0.9782 -0.0002
vn 0.2074 0.9783 0.0003
vn -0.2074 -0.9783 0.0005
vn -0.2075 -0.9782 -0.0001
vn -0.2074 -0.9782 -0.0002
vn -0.2075 -0.9782 0.0001
vn -0.2074 -0.9782 -0.0001
vn -0.2074 -0.9783 0.0004
usemtl EmptyMat
s 1
f 1/1/1 3/2/1 2/3/1
f 3/2/1 1/1/1 4/4/1
f 5/5/2 1/6/2 2/7/2
f 2/7/2 6/8/2 5/5/2
f 7/9/3 6/10/3 8/11/3
f 6/10/3 7/9/3 5/12/3
f 3/13/4 7/14/4 8/15/4
f 7/14/4 3/13/4 4/16/4
f 1/17/5 5/5/5 4/18/5
f 4/18/5 5/5/5 7/14/5
f 3/19/6 8/15/6 2/20/6
f 2/20/6 8/15/6 6/8/6
f 9/21/7 11/22/4 10/23/7
f 9/21/7 12/24/8 11/22/4
f 13/25/9 12/24/8 9/21/7
f 14/26/10 11/22/4 12/24/8
f 11/22/4 14/26/10 15/27/10
f 12/24/8 13/25/9 16/28/8
f 17/29/9 16/28/8 13/25/9
f 16/28/8 17/29/9 18/30/4
f 19/31/11 16/28/8 18/30/4
f 16/28/8 19/31/11 20/32/11
f 21/33/11 20/32/11 19/31/11
f 20/32/11 21/33/11 22/34/11
f 23/35/11 21/33/11 19/31/11
f 23/35/11 24/36/11 21/33/11
f 25/37/11 24/36/11 23/35/11
f 25/37/11 26/38/7 24/36/11
f 23/35/11 27/39/11 25/37/11
f 28/40/11 25/37/11 27/39/11
f 29/41/12 31/42/12 30/43/12
f 29/41/12 32/44/12 31/42/12
f 33/45/12 32/44/12 29/41/12
f 34/46/12 31/42/12 32/44/12
f 31/42/12 34/46/12 35/47/12
f 32/44/12 33/45/12 36/48/13
f 37/49/14 36/48/13 33/45/12
f 36/48/13 37/49/14 38/50/2
f 39/51/13 36/48/13 38/50/2
f 36/48/13 39/51/13 40/52/13
f 41/53/15 40/52/13 39/51/13
f 40/52/13 41/53/15 42/54/14
f 43/55/12 41/53/15 39/51/13
f 43/55/12 44/56/15 41/53/15
f 45/57/13 44/56/15 43/55/12
f 45/57/13 46/58/15 44/56/15
f 43/55/12 47/59/2 45/57/13
f 48/60/2 45/57/13 47/59/2
f 49/61/16 51/62/17 50/63/18
f 52/64/19 51/62/17 49/61/16
f 53/65/19 50/63/18 51/62/17
f 54/66/20 52/64/19 49/61/16
f 50/63/18 53/65/19 55/67/21
f 52/64/19 54/66/20 56/68/17
f 55/67/21 56/68/17 54/66/20
f 56/68/17 55/67/21 53/65/19
f 57/69/22 59/70/23 58/71/24
f 60/72/25 59/70/23 57/69/22
f 61/73/25 58/71/24 59/70/23
f 62/74/26 60/72/25 57/69/22
f 58/71/24 61/73/25 63/75/27
f 60/72/25 62/74/26 64/76/23
f 63/75/27 64/76/23 62/74/26
f 64/76/23 63/75/27 61/73/25
