# Blender v3.4.1 OBJ File: 'track.blend'
# www.blender.org
mtllib _0SIGN_AD01_06_Scene.094.mtl
o _0SIGN_AD01_06_Scene.094
v -235.033997 328.758698 -8.291710
v -235.033295 328.780762 -8.291710
v -235.033997 328.758698 -5.291709
v -235.033295 328.780762 -5.291709
v -223.632004 328.404358 -8.291709
v -223.632706 328.382385 -8.291709
v -223.632004 328.404358 -5.291708
v -223.632706 328.382385 -5.291708
vt 0.049357 1.803403
vt 0.049357 1.805712
vt 0.049185 1.803403
vt 0.049185 1.805712
vt 0.049357 1.801094
vt 0.049357 1.803403
vt 0.049185 1.801094
vt 0.049185 1.803403
vt 0.048841 1.809875
vt 0.049013 1.801094
vt 0.049013 1.809875
vt 0.048841 1.801094
vt 0.049185 1.809875
vt 0.049013 1.801094
vt 0.049185 1.801094
vt 0.049013 1.809875
vt 0.123661 1.809430
vt 0.000404 1.809430
vt 0.000404 1.751420
vt 0.123661 1.751420
vt 0.044709 1.809875
vt 0.044709 1.801094
vt 0.048841 1.801094
vt 0.048841 1.809875
vn -0.9994 0.0345 -0.0000
vn -0.9995 0.0324 0.0000
vn -0.9994 0.0344 0.0000
vn 0.9995 -0.0326 -0.0000
vn 0.0000 -0.0000 -1.0000
vn 0.0000 0.0000 1.0000
vn -0.0330 -0.9995 0.0000
vn 0.0330 0.9995 0.0000
usemtl EnvironmentMat
s 1
f 1/1/1 3/2/2 2/3/3
f 2/3/3 3/2/2 4/4/2
f 5/5/4 7/6/4 6/7/4
f 6/7/4 7/6/4 8/8/4
f 2/9/5 6/10/5 1/11/5
f 6/10/5 2/9/5 5/12/5
f 8/13/6 4/14/6 3/15/6
f 4/14/6 8/13/6 7/16/6
f 1/17/7 6/18/7 8/19/7
f 1/17/7 8/19/7 3/20/7
f 5/21/8 2/22/8 4/23/8
f 5/21/8 4/23/8 7/24/8
