# Blender v3.4.1 OBJ File: 'track.blend'
# www.blender.org
mtllib _0SIGN_50M_03_Scene.074.mtl
o _0SIGN_50M_03_Scene.074
v -187.130890 378.639160 -5.551915
v -187.827301 378.650787 -5.551913
v -187.827805 378.621155 -5.551913
v -187.131378 378.609558 -5.551915
v -187.130890 378.639160 -4.051915
v -187.827301 378.650787 -4.051913
v -187.131378 378.609558 -4.051915
v -187.827805 378.621155 -4.051913
v -187.640198 378.603790 -4.915457
v -187.640198 378.603790 -4.868373
v -187.552490 378.602295 -4.868373
v -187.552490 378.602295 -4.915457
v -187.640198 378.603790 -5.067243
v -187.317795 378.598389 -4.915457
v -187.317795 378.598389 -4.868373
v -187.552490 378.602295 -5.067243
v -187.640198 378.603790 -5.117842
v -187.552490 378.602295 -5.117842
v -187.403778 378.599792 -5.117842
v -187.403778 378.599792 -5.067243
v -187.318390 378.598389 -5.117842
v -187.318390 378.598389 -5.067243
v -187.403778 378.599792 -5.182145
v -187.318390 378.598389 -5.182145
v -187.403778 378.599792 -5.218166
v -187.318390 378.598389 -5.218166
v -187.642181 378.603790 -5.182145
v -187.642181 378.603790 -5.218166
v -187.317688 378.647797 -4.915457
v -187.317688 378.647797 -4.868373
v -187.405380 378.649200 -4.868373
v -187.405380 378.649200 -4.915457
v -187.317688 378.647797 -5.067243
v -187.640091 378.653198 -4.915457
v -187.640091 378.653198 -4.868373
v -187.405380 378.649200 -5.067243
v -187.317688 378.647797 -5.117842
v -187.405380 378.649200 -5.117842
v -187.554199 378.651703 -5.117842
v -187.554199 378.651703 -5.067243
v -187.639481 378.653198 -5.117842
v -187.639481 378.653198 -5.067243
v -187.554199 378.651703 -5.182145
v -187.639481 378.653198 -5.182145
v -187.554199 378.651703 -5.218166
v -187.639481 378.653198 -5.218166
v -187.315796 378.647675 -5.182145
v -187.315796 378.647675 -5.218166
v -187.556702 378.602386 -4.439270
v -187.556702 378.602386 -4.701678
v -187.644287 378.603912 -4.745412
v -187.644287 378.603912 -4.395535
v -187.316498 378.598389 -4.745412
v -187.404099 378.599792 -4.439270
v -187.404099 378.599792 -4.701678
v -187.316498 378.598389 -4.395535
v -187.401306 378.649200 -4.439270
v -187.401306 378.649200 -4.701678
v -187.313583 378.647675 -4.745412
v -187.313583 378.647675 -4.395535
v -187.641495 378.653198 -4.745412
v -187.553802 378.651703 -4.439270
v -187.553802 378.651703 -4.701678
v -187.641495 378.653198 -4.395535
vt 1.000000 2.000000
vt 0.000000 1.000000
vt 1.000000 1.000000
vt 0.000000 2.000000
vt 1.000000 2.000000
vt 0.000000 2.000000
vt 0.000000 1.000000
vt 1.000000 1.000000
vt 1.000000 2.000000
vt 0.000000 1.000000
vt 1.000000 1.000000
vt 0.000000 2.000000
vt 1.000000 1.000000
vt 0.000000 2.000000
vt 0.000000 1.000000
vt 1.000000 2.000000
vt 1.000000 1.000000
vt 0.000000 1.000000
vt 0.000000 2.000000
vt 1.000000 2.000000
vt 0.042236 1.025888
vt 0.042236 1.025888
vt 0.042236 1.025888
vt 0.042236 1.025888
vt 0.042236 1.025888
vt 0.042236 1.025888
vt 0.042236 1.025888
vt 0.042236 1.025888
vt 0.042236 1.025888
vt 0.042236 1.025888
vt 0.042236 1.025888
vt 0.042236 1.025888
vt 0.042236 1.025888
vt 0.042236 1.025888
vt 0.042236 1.025888
vt 0.042236 1.025888
vt 0.042236 1.025888
vt 0.042236 1.025888
vt 0.042236 1.025888
vt 0.042236 1.025888
vt 0.042236 1.025888
vt 0.042236 1.025888
vt 0.042236 1.025888
vt 0.042236 1.025888
vt 0.042236 1.025888
vt 0.042236 1.025888
vt 0.042236 1.025888
vt 0.042236 1.025888
vt 0.042236 1.025888
vt 0.042236 1.025888
vt 0.042236 1.025888
vt 0.042236 1.025888
vt 0.042236 1.025888
vt 0.042236 1.025888
vt 0.042236 1.025888
vt 0.042236 1.025888
vt 0.042236 1.025888
vt 0.042236 1.025888
vt 0.042236 1.025888
vt 0.042236 1.025888
vt 0.042236 1.025888
vt 0.042236 1.025888
vt 0.042236 1.025888
vt 0.042236 1.025888
vt 0.042236 1.025888
vt 0.042236 1.025888
vt 0.042236 1.025888
vt 0.042236 1.025888
vt 0.042236 1.025888
vt 0.042236 1.025888
vt 0.042236 1.025888
vt 0.042236 1.025888
vt 0.042236 1.025888
vt 0.042236 1.025888
vt 0.042236 1.025888
vt 0.042236 1.025888
vn -0.0000 0.0000 -1.0000
vn 0.0167 0.9999 0.0000
vn 0.0000 -0.0000 1.0000
vn -0.0166 -0.9999 0.0000
vn -0.0167 -0.9999 0.0000
vn 0.9999 -0.0165 0.0000
vn -0.9999 0.0159 0.0000
vn -0.9999 0.0158 -0.0000
vn -0.0170 -0.9999 0.0000
vn -0.0168 -0.9999 0.0000
vn -0.0163 -0.9999 0.0000
vn -0.0169 -0.9999 0.0000
vn -0.0161 -0.9999 0.0000
vn -0.0174 -0.9998 -0.0000
vn -0.0162 -0.9999 -0.0000
vn -0.0164 -0.9999 0.0000
vn -0.0173 -0.9999 0.0000
vn -0.0171 -0.9999 0.0000
vn 0.0165 0.9999 0.0000
vn 0.0169 0.9999 -0.0000
vn 0.0163 0.9999 0.0000
vn 0.0160 0.9999 0.0000
vn 0.0166 0.9999 0.0000
vn 0.0171 0.9999 -0.0000
vn 0.0173 0.9999 0.0000
vn 0.0172 0.9999 0.0000
vn 0.0162 0.9999 -0.0000
vn -0.0170 -0.9999 0.0014
vn -0.0172 -0.9999 0.0004
vn -0.0167 -0.9999 0.0003
vn -0.0164 -0.9999 -0.0003
vn -0.0169 -0.9999 -0.0007
vn -0.0167 -0.9999 -0.0009
vn -0.0169 -0.9999 -0.0006
vn 0.0171 0.9999 -0.0005
vn 0.0164 0.9999 0.0002
vn 0.0164 0.9999 0.0003
vn 0.0171 0.9999 0.0001
vn 0.0169 0.9999 0.0001
vn 0.0169 0.9999 -0.0002
vn 0.0167 0.9999 0.0002
vn 0.0170 0.9999 -0.0002
usemtl EmptyMat
s 1
f 1/1/1 3/2/1 2/3/1
f 3/2/1 1/1/1 4/4/1
f 5/5/2 1/6/2 2/7/2
f 2/7/2 6/8/2 5/5/2
f 7/9/3 6/10/3 8/11/3
f 6/10/3 7/9/3 5/12/3
f 3/13/4 7/14/4 8/15/4
f 7/14/4 3/13/4 4/16/5
f 1/17/6 5/5/6 4/18/6
f 4/18/6 5/5/6 7/14/6
f 3/19/7 8/15/8 2/20/8
f 2/20/8 8/15/8 6/8/7
f 9/21/9 11/22/10 10/23/11
f 9/21/9 12/24/12 11/22/10
f 13/25/9 12/24/12 9/21/9
f 14/26/4 11/22/10 12/24/12
f 11/22/10 14/26/4 15/27/4
f 12/24/12 13/25/9 16/28/9
f 17/29/13 16/28/9 13/25/9
f 16/28/9 17/29/13 18/30/14
f 19/31/4 16/28/9 18/30/14
f 16/28/9 19/31/4 20/32/15
f 21/33/16 20/32/15 19/31/4
f 20/32/15 21/33/16 22/34/17
f 23/35/18 21/33/16 19/31/4
f 23/35/18 24/36/12 21/33/16
f 25/37/18 24/36/12 23/35/18
f 25/37/18 26/38/10 24/36/12
f 23/35/18 27/39/10 25/37/18
f 28/40/10 25/37/18 27/39/10
f 29/41/2 31/42/19 30/43/20
f 29/41/2 32/44/21 31/42/19
f 33/45/22 32/44/21 29/41/2
f 34/46/23 31/42/19 32/44/21
f 31/42/19 34/46/23 35/47/2
f 32/44/21 33/45/22 36/48/21
f 37/49/19 36/48/21 33/45/22
f 36/48/21 37/49/19 38/50/24
f 39/51/25 36/48/21 38/50/24
f 36/48/21 39/51/25 40/52/26
f 41/53/20 40/52/26 39/51/25
f 40/52/26 41/53/20 42/54/20
f 43/55/2 41/53/20 39/51/25
f 43/55/2 44/56/27 41/53/20
f 45/57/19 44/56/27 43/55/2
f 45/57/19 46/58/27 44/56/27
f 43/55/2 47/59/20 45/57/19
f 48/60/20 45/57/19 47/59/20
f 49/61/28 51/62/17 50/63/29
f 52/64/30 51/62/17 49/61/28
f 53/65/31 50/63/29 51/62/17
f 54/66/32 52/64/30 49/61/28
f 50/63/29 53/65/31 55/67/33
f 52/64/30 54/66/32 56/68/34
f 55/67/33 56/68/34 54/66/32
f 56/68/34 55/67/33 53/65/31
f 57/69/35 59/70/36 58/71/37
f 60/72/38 59/70/36 57/69/35
f 61/73/39 58/71/37 59/70/36
f 62/74/40 60/72/38 57/69/35
f 58/71/37 61/73/39 63/75/41
f 60/72/38 62/74/40 64/76/42
f 63/75/41 64/76/42 62/74/40
f 64/76/42 63/75/41 61/73/39
