# Blender v3.4.1 OBJ File: 'track.blend'
# www.blender.org
mtllib _0SIGN_50M_05_Scene.076.mtl
o _0SIGN_50M_05_Scene.076
v 163.038300 128.552002 -4.967461
v 163.719696 128.407593 -4.967460
v 163.725800 128.436600 -4.967460
v 163.044403 128.580994 -4.967461
v 163.038300 128.552002 -3.467461
v 163.719696 128.407593 -3.467460
v 163.044403 128.580994 -3.467461
v 163.725800 128.436600 -3.467460
v 163.544998 128.489594 -4.331004
v 163.544998 128.489594 -4.283920
v 163.459198 128.507797 -4.283920
v 163.459198 128.507797 -4.331004
v 163.544998 128.489594 -4.482789
v 163.229599 128.556396 -4.331004
v 163.229599 128.556396 -4.283920
v 163.459198 128.507797 -4.482789
v 163.544998 128.489594 -4.533389
v 163.459198 128.507797 -4.533389
v 163.313690 128.538605 -4.533389
v 163.313690 128.538605 -4.482789
v 163.230087 128.556305 -4.533389
v 163.230087 128.556305 -4.482789
v 163.313690 128.538605 -4.597691
v 163.230087 128.556305 -4.597691
v 163.313690 128.538605 -4.633713
v 163.230087 128.556305 -4.633713
v 163.546906 128.489197 -4.597691
v 163.546906 128.489197 -4.633713
v 163.220093 128.507996 -4.331004
v 163.220093 128.507996 -4.283920
v 163.305878 128.489807 -4.283920
v 163.305878 128.489807 -4.331004
v 163.220093 128.507996 -4.482789
v 163.535507 128.441101 -4.331004
v 163.535507 128.441101 -4.283920
v 163.305878 128.489807 -4.482789
v 163.220093 128.507996 -4.533389
v 163.305878 128.489807 -4.533389
v 163.451385 128.458893 -4.533389
v 163.451385 128.458893 -4.482789
v 163.534882 128.441193 -4.533389
v 163.534882 128.441193 -4.482789
v 163.451385 128.458893 -4.597691
v 163.534882 128.441193 -4.597691
v 163.451385 128.458893 -4.633713
v 163.534882 128.441193 -4.633713
v 163.218201 128.508408 -4.597691
v 163.218201 128.508408 -4.633713
v 163.463196 128.506897 -3.854817
v 163.463196 128.506897 -4.117225
v 163.548996 128.488693 -4.160959
v 163.548996 128.488693 -3.811082
v 163.228195 128.556702 -4.160959
v 163.313995 128.538498 -3.854817
v 163.313995 128.538498 -4.117225
v 163.228195 128.556702 -3.811082
v 163.301804 128.490601 -3.854817
v 163.301804 128.490601 -4.117225
v 163.216003 128.508804 -4.160959
v 163.216003 128.508804 -3.811082
v 163.536804 128.440796 -4.160959
v 163.451004 128.459000 -3.854817
v 163.451004 128.459000 -4.117225
v 163.536804 128.440796 -3.811082
vt 1.000000 2.000000
vt 0.000000 1.000000
vt 1.000000 1.000000
vt 0.000000 2.000000
vt 1.000000 2.000000
vt 0.000000 2.000000
vt 0.000000 1.000000
vt 1.000000 1.000000
vt 1.000000 2.000000
vt 0.000000 1.000000
vt 1.000000 1.000000
vt 0.000000 2.000000
vt 1.000000 1.000000
vt 0.000000 2.000000
vt 0.000000 1.000000
vt 1.000000 2.000000
vt 1.000000 1.000000
vt 0.000000 1.000000
vt 0.000000 2.000000
vt 1.000000 2.000000
vt 0.042236 1.025888
vt 0.042236 1.025888
vt 0.042236 1.025888
vt 0.042236 1.025888
vt 0.042236 1.025888
vt 0.042236 1.025888
vt 0.042236 1.025888
vt 0.042236 1.025888
vt 0.042236 1.025888
vt 0.042236 1.025888
vt 0.042236 1.025888
vt 0.042236 1.025888
vt 0.042236 1.025888
vt 0.042236 1.025888
vt 0.042236 1.025888
vt 0.042236 1.025888
vt 0.042236 1.025888
vt 0.042236 1.025888
vt 0.042236 1.025888
vt 0.042236 1.025888
vt 0.042236 1.025888
vt 0.042236 1.025888
vt 0.042236 1.025888
vt 0.042236 1.025888
vt 0.042236 1.025888
vt 0.042236 1.025888
vt 0.042236 1.025888
vt 0.042236 1.025888
vt 0.042236 1.025888
vt 0.042236 1.025888
vt 0.042236 1.025888
vt 0.042236 1.025888
vt 0.042236 1.025888
vt 0.042236 1.025888
vt 0.042236 1.025888
vt 0.042236 1.025888
vt 0.042236 1.025888
vt 0.042236 1.025888
vt 0.042236 1.025888
vt 0.042236 1.025888
vt 0.042236 1.025888
vt 0.042236 1.025888
vt 0.042236 1.025888
vt 0.042236 1.025888
vt 0.042236 1.025888
vt 0.042236 1.025888
vt 0.042236 1.025888
vt 0.042236 1.025888
vt 0.042236 1.025888
vt 0.042236 1.025888
vt 0.042236 1.025888
vt 0.042236 1.025888
vt 0.042236 1.025888
vt 0.042236 1.025888
vt 0.042236 1.025888
vt 0.042236 1.025888
vn 0.0000 -0.0000 -1.0000
vn -0.2073 -0.9783 0.0000
vn -0.0000 0.0000 1.0000
vn 0.2073 0.9783 0.0000
vn -0.9783 0.2072 -0.0000
vn -0.9782 0.2075 0.0000
vn 0.9783 -0.2071 -0.0000
vn 0.9783 -0.2072 0.0000
vn 0.2076 0.9782 0.0000
vn 0.2075 0.9782 0.0000
vn 0.2074 0.9783 0.0000
vn 0.2071 0.9783 0.0000
vn 0.2072 0.9783 0.0000
vn -0.2074 -0.9782 0.0000
vn -0.2075 -0.9782 0.0000
vn -0.2074 -0.9783 0.0000
vn -0.2076 -0.9782 0.0000
vn -0.2077 -0.9782 0.0000
vn 0.2074 0.9783 0.0007
vn 0.2075 0.9782 -0.0001
vn 0.2074 0.9782 -0.0001
vn 0.2075 0.9782 0.0002
vn 0.2074 0.9783 -0.0002
vn 0.2073 0.9783 0.0002
vn -0.2074 -0.9783 0.0008
vn -0.2075 -0.9782 0.0001
vn -0.2075 -0.9782 0.0002
vn -0.2075 -0.9782 -0.0004
vn -0.2075 -0.9782 -0.0002
usemtl EmptyMat
s 1
f 1/1/1 3/2/1 2/3/1
f 3/2/1 1/1/1 4/4/1
f 5/5/2 1/6/2 2/7/2
f 2/7/2 6/8/2 5/5/2
f 7/9/3 6/10/3 8/11/3
f 6/10/3 7/9/3 5/12/3
f 3/13/4 7/14/4 8/15/4
f 7/14/4 3/13/4 4/16/4
f 1/17/5 5/5/6 4/18/6
f 4/18/6 5/5/6 7/14/5
f 3/19/7 8/15/8 2/20/8
f 2/20/8 8/15/8 6/8/7
f 9/21/9 11/22/4 10/23/10
f 9/21/9 12/24/11 11/22/4
f 13/25/9 12/24/11 9/21/9
f 14/26/12 11/22/4 12/24/11
f 11/22/4 14/26/12 15/27/12
f 12/24/11 13/25/9 16/28/11
f 17/29/10 16/28/11 13/25/9
f 16/28/11 17/29/10 18/30/4
f 19/31/12 16/28/11 18/30/4
f 16/28/11 19/31/12 20/32/12
f 21/33/12 20/32/12 19/31/12
f 20/32/12 21/33/12 22/34/13
f 23/35/10 21/33/12 19/31/12
f 23/35/10 24/36/12 21/33/12
f 25/37/13 24/36/12 23/35/10
f 25/37/13 26/38/12 24/36/12
f 23/35/10 27/39/4 25/37/13
f 28/40/4 25/37/13 27/39/4
f 29/41/14 31/42/15 30/43/16
f 29/41/14 32/44/15 31/42/15
f 33/45/15 32/44/15 29/41/14
f 34/46/15 31/42/15 32/44/15
f 31/42/15 34/46/15 35/47/15
f 32/44/15 33/45/15 36/48/17
f 37/49/15 36/48/17 33/45/15
f 36/48/17 37/49/15 38/50/2
f 39/51/15 36/48/17 38/50/2
f 36/48/17 39/51/15 40/52/17
f 41/53/16 40/52/17 39/51/15
f 40/52/17 41/53/16 42/54/16
f 43/55/15 41/53/16 39/51/15
f 43/55/15 44/56/16 41/53/16
f 45/57/15 44/56/16 43/55/15
f 45/57/15 46/58/16 44/56/16
f 43/55/15 47/59/2 45/57/15
f 48/60/18 45/57/15 47/59/2
f 49/61/19 51/62/20 50/63/21
f 52/64/22 51/62/20 49/61/19
f 53/65/10 50/63/21 51/62/20
f 54/66/23 52/64/22 49/61/19
f 50/63/21 53/65/10 55/67/24
f 52/64/22 54/66/23 56/68/20
f 55/67/24 56/68/20 54/66/23
f 56/68/20 55/67/24 53/65/10
f 57/69/25 59/70/15 58/71/26
f 60/72/27 59/70/15 57/69/25
f 61/73/15 58/71/26 59/70/15
f 62/74/28 60/72/27 57/69/25
f 58/71/26 61/73/15 63/75/16
f 60/72/27 62/74/28 64/76/29
f 63/75/16 64/76/29 62/74/28
f 64/76/29 63/75/16 61/73/15
