# Blender v3.4.1 OBJ File: 'track.blend'
# www.blender.org
mtllib _0TRIBUENE_02_026_SUB0_Scene.192.mtl
o _0TRIBUENE_02_026_SUB0_Scene.192
v 145.983902 362.011597 -12.103001
v 146.982498 361.798004 -10.802999
v 146.982498 361.798004 -12.103001
v 145.983902 362.011597 -10.802999
v 152.782684 394.338013 -12.102996
v 145.993195 361.998260 -10.802999
v 145.993195 361.998260 -12.103001
v 152.782684 394.338013 -10.802995
v 152.782684 394.338013 -12.302995
v 145.993195 361.998260 -12.302999
v 146.980194 361.787170 -12.103001
v 146.980194 361.787170 -12.302999
v 157.745499 359.527100 -7.402996
v 157.745499 359.527100 -7.202995
v 152.762405 394.317413 -12.102996
v 152.762405 394.317413 -10.802995
v 157.747696 359.537872 -7.202995
v 157.747696 359.537872 -5.902996
v 166.519699 391.480957 -7.181169
v 159.723999 359.112213 -7.181174
v 159.723999 359.112213 -5.881174
v 166.519699 391.480957 -5.881169
v 166.519699 391.480957 -7.381169
v 159.723999 359.112213 -7.381174
v 159.700699 359.141388 -7.181586
v 159.700699 359.141388 -5.881588
v 166.484802 391.454987 -5.881582
v 166.484802 391.454987 -7.181581
v 146.980194 361.787170 -10.802999
v 157.745499 359.527100 -5.902996
v 157.743378 359.552307 -7.181588
v 157.743378 359.552307 -5.881589
v 157.766693 359.523071 -7.381176
v 157.766693 359.523071 -7.181176
v 157.766693 359.523071 -5.881176
v 164.562302 391.891907 -7.181170
v 164.562302 391.891907 -5.881171
v 164.562302 391.891907 -7.381171
v 164.527496 391.865997 -7.181582
v 164.527496 391.865997 -5.881584
v 157.750900 359.553314 -7.202995
v 146.985596 361.813385 -10.802999
v 146.985596 361.813385 -12.103001
v 157.750900 359.553314 -5.902996
v 157.750900 359.553314 -7.402996
v 146.985596 361.813385 -12.302999
v 146.015594 362.013000 -12.302999
v 146.015594 362.013000 -12.103001
v 157.753204 359.564087 -7.202995
v 146.987900 361.824280 -10.802999
v 146.987900 361.824280 -12.103001
v 157.753204 359.564087 -5.902996
v 152.797302 394.315613 -12.302995
v 152.797302 394.315613 -12.102996
v 146.006302 362.026276 -12.103001
v 146.006302 362.026276 -10.802999
v 146.015594 362.013000 -10.802999
v 152.797302 394.315613 -10.802995
v 152.788605 394.312012 -12.102996
v 152.788605 394.312012 -10.802995
v 164.531097 391.848114 -7.202990
v 153.765701 394.108185 -12.102996
v 153.765701 394.108185 -10.802995
v 164.531097 391.848114 -5.902990
v 164.531097 391.848114 -7.402990
v 153.765701 394.108185 -12.302995
v 166.478683 391.454163 -7.181169
v 159.697205 359.153107 -5.881174
v 159.697296 359.153107 -7.181174
v 166.478683 391.454163 -5.881169
v 166.478683 391.454163 -7.381169
v 159.697296 359.153107 -7.381174
v 159.673996 359.182281 -7.181586
v 166.443802 391.428314 -7.181581
v 166.443802 391.428314 -5.881582
v 159.673996 359.182281 -5.881588
v 157.753494 359.600189 -7.181588
v 157.753387 359.600189 -5.881589
v 157.776703 359.571014 -7.381176
v 157.776703 359.571014 -7.181176
v 157.776703 359.571014 -5.881176
v 164.552307 391.843964 -7.181170
v 164.552307 391.843964 -5.881171
v 164.552307 391.843964 -7.381171
v 164.517395 391.818115 -7.181582
v 164.517395 391.818115 -5.881584
v 164.536591 391.874298 -7.202990
v 153.771301 394.134399 -10.802995
v 153.771301 394.134399 -12.102996
v 164.536591 391.874298 -5.902990
v 164.536591 391.874298 -7.402990
v 153.771301 394.134399 -12.302995
v 152.764297 394.307495 -12.102996
v 153.762802 394.093964 -10.802995
v 153.762802 394.093964 -12.102996
v 152.764297 394.307495 -10.802995
v 164.528107 391.833893 -7.202990
v 164.528107 391.833893 -5.902990
v 164.533585 391.860107 -7.202990
v 153.768280 394.120178 -10.802995
v 153.768280 394.120178 -12.102996
v 164.533585 391.860107 -5.902990
v 152.786697 394.322174 -12.102996
v 152.786697 394.322174 -10.802995
vt 102.061203 1.445998
vt 106.201202 1.445998
vt 106.201202 1.808102
vt 102.061203 1.808102
vt -1.128167 1.445998
vt 7.317342 1.445998
vt 7.317341 1.808102
vt -1.128167 1.808102
vt 0.439238 1.852482
vt 0.439238 1.852482
vt 0.439238 1.901746
vt 0.439238 1.901746
vt 0.439238 1.901746
vt 0.439238 1.852482
vt 0.439238 1.852482
vt 0.439238 1.901746
vt -32.960171 1.445998
vt -32.960171 1.808102
vt -133.517502 1.445998
vt -20.685499 1.808102
vt -20.685499 1.445998
vt -133.517502 1.808102
vt 1.994339 1.445998
vt 10.414750 1.808102
vt 10.414750 1.445998
vt 1.994339 1.808102
vt 0.439238 1.852482
vt 0.439238 1.901746
vt 0.439238 1.852482
vt 0.439238 1.901746
vt 103.806503 1.445998
vt -30.874689 1.808102
vt 103.806503 1.808102
vt -30.874689 1.445998
vt 7.573064 1.445998
vt 7.573063 1.808102
vt -7.406326 1.445998
vt -0.354325 1.808102
vt -0.354325 1.445998
vt -7.406326 1.808102
vt 111.989601 1.445998
vt 111.989601 1.808102
vt 0.439238 1.852482
vt 0.439238 1.901746
vt 10.925800 1.445998
vt 10.925800 1.808102
vt 1.483288 1.445998
vt 1.483288 1.808102
vt 0.439238 1.901746
vt 0.439238 1.852482
vt -39.057812 1.445998
vt -39.057812 1.808102
vt -7.406326 1.445998
vt -0.354325 1.445998
vt -0.354325 1.808102
vt -7.406326 1.808102
vt 0.439238 1.852482
vt 0.439238 1.901746
vt 0.439238 1.901746
vt 0.439238 1.852482
vt 0.439238 1.852482
vt 0.439238 1.901746
vt -133.517502 1.445998
vt -20.685499 1.445998
vt -20.685499 1.808102
vt -133.517502 1.808102
vt 0.439238 1.852482
vt 0.439238 1.901746
vt 102.061203 1.445998
vt 106.201202 1.808102
vt 106.201202 1.445998
vt 102.061203 1.808102
vt 7.317342 1.445998
vt 7.573063 1.808102
vt 7.573064 1.445998
vt 7.317341 1.808102
vt -1.128167 1.445998
vt -1.128167 1.808102
vt -32.960171 1.445998
vt -32.960171 1.808102
vt -7.406326 1.445998
vt -0.354325 1.808102
vt -0.354325 1.445998
vt -7.406326 1.808102
vt 0.439238 1.901746
vt 0.439238 1.901746
vt 0.439238 1.852482
vt 0.439238 1.852482
vt 7.317342 1.445998
vt 7.573064 1.445998
vt 7.573063 1.808102
vt 7.317341 1.808102
vt 1.994339 1.445998
vt 10.414750 1.445998
vt 10.414750 1.808102
vt 1.994339 1.808102
vt 0.439238 1.852482
vt 0.439238 1.852482
vt 0.439238 1.901746
vt 0.439238 1.901746
vt 103.806503 1.445998
vt -30.874689 1.808102
vt -30.874689 1.445998
vt 103.806503 1.808102
vt 111.989601 1.445998
vt 111.989601 1.808102
vt 0.439238 1.852482
vt 0.439238 1.901746
vt 10.925800 1.445998
vt 10.925800 1.808102
vt 1.483288 1.445998
vt 1.483288 1.808102
vt 0.439238 1.901746
vt 0.439238 1.852482
vt -39.057812 1.445998
vt -39.057812 1.808102
vt -7.406326 1.445998
vt -0.354325 1.445998
vt -0.354325 1.808102
vt -7.406326 1.808102
vt 0.439238 1.852482
vt 0.439238 1.901746
vt 0.439238 1.901746
vt 0.439238 1.852482
vt 7.317342 1.445998
vt 7.573063 1.808102
vt 7.573064 1.445998
vt 7.317341 1.808102
vt 102.061203 1.445998
vt 106.201202 1.445998
vt 106.201202 1.808102
vt 102.061203 1.808102
vt -133.517502 1.445998
vt -20.685499 1.808102
vt -20.685499 1.445998
vt -133.517502 1.808102
vt -133.517502 1.445998
vt -20.685499 1.445998
vt -20.685499 1.808102
vt -133.517502 1.808102
vt 102.061203 1.445998
vt 106.201202 1.808102
vt 106.201202 1.445998
vt 102.061203 1.808102
vn -0.2092 -0.9779 0.0000
vn -0.2058 -0.9786 -0.0000
vn -0.2088 -0.9780 0.0000
vn -0.9787 0.2055 0.0000
vn -0.2091 -0.9779 0.0000
vn -0.2090 -0.9779 0.0000
vn -0.2054 -0.9787 0.0000
vn -0.2055 -0.9787 0.0000
vn -0.9787 0.2054 0.0000
vn 0.9787 -0.2055 0.0000
vn -0.2089 -0.9779 0.0000
vn 0.2055 0.9787 0.0000
vn 0.2053 0.9787 -0.0000
vn 0.2018 0.9794 -0.0000
vn 0.2054 0.9787 0.0000
vn 0.2016 0.9795 0.0000
vn 0.2052 0.9787 0.0000
vn 0.2028 0.9792 -0.0000
vn 0.9786 -0.2056 0.0000
vn -0.2056 -0.9786 0.0000
vn -0.2094 -0.9778 0.0000
vn -0.2095 -0.9778 0.0000
vn -0.9787 0.2055 -0.0001
vn 0.2126 0.9771 0.0000
vn -0.1983 -0.9801 0.0000
vn 0.2019 0.9794 0.0000
vn 0.2017 0.9794 0.0000
vn -0.2057 -0.9786 0.0000
usemtl GitterMat
s 1
f 1/1/1 3/2/2 2/3/3
f 1/1/1 2/3/3 4/4/1
f 5/5/4 7/6/4 6/7/4
f 5/5/4 6/7/4 8/8/4
f 9/9/4 10/10/4 7/11/4
f 9/9/4 7/11/4 5/12/4
f 10/10/5 11/13/6 7/11/5
f 10/10/5 12/14/5 11/13/6
f 13/15/7 11/13/6 12/14/5
f 14/16/8 11/13/6 13/15/7
f 15/17/9 1/1/9 4/4/9
f 15/17/9 4/4/9 16/18/9
f 17/19/8 2/20/3 3/21/2
f 18/22/8 2/20/3 17/19/8
f 19/23/10 21/24/10 20/25/10
f 21/24/10 19/23/10 22/26/10
f 23/27/10 20/28/10 24/29/10
f 20/28/10 23/27/10 19/30/10
f 25/31/10 27/32/10 26/33/10
f 27/32/10 25/31/10 28/34/10
f 7/6/5 11/35/6 29/36/11
f 7/6/5 29/36/11 6/7/5
f 14/37/8 29/38/11 11/39/6
f 30/40/8 29/38/11 14/37/8
f 31/41/8 25/31/8 26/33/8
f 31/41/8 26/33/8 32/42/8
f 33/43/7 24/29/7 20/28/7
f 33/43/7 20/28/7 34/44/7
f 34/45/7 20/25/7 21/24/7
f 34/45/7 21/24/7 35/46/7
f 36/47/12 37/48/12 19/23/12
f 19/23/12 37/48/12 22/26/12
f 36/49/12 23/27/12 38/50/12
f 23/27/12 36/49/12 19/30/12
f 39/51/12 40/52/12 28/34/12
f 28/34/12 40/52/12 27/32/12
f 41/53/12 43/54/13 42/55/14
f 41/53/12 42/55/14 44/56/12
f 45/57/12 43/58/13 41/59/12
f 45/57/12 46/60/15 43/58/13
f 47/61/16 43/58/13 46/60/15
f 43/58/13 47/61/16 48/62/16
f 49/63/12 51/64/17 50/65/18
f 49/63/12 50/65/18 52/66/12
f 53/67/10 48/62/10 47/61/10
f 48/62/10 53/67/10 54/68/10
f 55/69/16 50/70/18 51/71/17
f 50/70/16 55/69/16 56/72/16
f 48/73/16 42/74/14 43/75/13
f 42/74/14 48/73/16 57/76/16
f 54/77/10 57/76/10 48/73/10
f 57/76/10 54/77/10 58/78/10
f 59/79/19 56/72/19 55/69/19
f 56/72/19 59/79/19 60/80/19
f 61/81/8 63/82/5 62/83/20
f 64/84/8 63/82/5 61/81/8
f 61/85/8 62/86/20 65/87/8
f 65/87/8 62/86/20 66/88/20
f 53/67/21 66/88/20 62/86/20
f 53/67/21 62/86/20 54/68/21
f 54/89/21 62/90/20 63/91/5
f 54/89/21 63/91/5 58/92/22
f 67/93/4 69/94/4 68/95/23
f 67/93/4 68/95/23 70/96/4
f 71/97/4 72/98/4 69/99/4
f 71/97/4 69/99/4 67/100/4
f 73/101/4 75/102/4 74/103/4
f 75/102/4 73/101/4 76/104/4
f 77/105/24 76/104/24 73/101/24
f 76/104/24 77/105/24 78/106/24
f 79/107/24 69/99/24 72/98/24
f 69/99/24 79/107/24 80/108/24
f 80/109/24 68/95/24 69/94/24
f 68/95/24 80/109/24 81/110/24
f 82/111/25 67/93/25 83/112/25
f 67/93/25 70/96/25 83/112/25
f 67/100/25 82/113/25 71/97/25
f 84/114/25 71/97/25 82/113/25
f 85/115/25 74/103/25 86/116/25
f 74/103/25 75/102/25 86/116/25
f 87/117/12 89/118/12 88/119/26
f 87/117/12 88/119/26 90/120/12
f 91/121/12 89/122/12 87/123/12
f 91/121/12 92/124/12 89/122/12
f 9/9/27 89/122/12 92/124/12
f 89/122/12 9/9/27 5/12/27
f 5/125/27 88/126/26 89/127/12
f 88/126/26 5/125/27 8/128/27
f 93/129/5 95/130/28 94/131/11
f 93/129/5 94/131/11 96/132/5
f 97/133/8 94/134/11 95/135/28
f 98/136/8 94/134/11 97/133/8
f 99/137/12 101/138/17 100/139/14
f 99/137/12 100/139/14 102/140/12
f 103/141/16 100/142/14 101/143/17
f 100/142/14 103/141/16 104/144/16
