# Blender v3.4.1 OBJ File: 'track.blend'
# www.blender.org
mtllib _0TRIBUENE_02_012_SUB0_Scene.153.mtl
o _0TRIBUENE_02_012_SUB0_Scene.153
v 364.872955 931.347229 -20.158566
v 363.874084 931.135071 -18.858568
v 363.874084 931.135071 -20.158566
v 364.872955 931.347229 -18.858568
v 371.841797 899.057007 -20.158571
v 364.859100 931.355530 -18.858568
v 364.859100 931.355530 -20.158566
v 371.841797 899.057007 -18.858574
v 371.841797 899.057007 -20.358574
v 364.859100 931.355530 -20.358568
v 363.871704 931.145996 -20.158566
v 363.871704 931.145996 -20.358568
v 339.240814 925.820984 -9.158562
v 339.240814 925.820984 -8.958561
v 371.852112 899.083984 -20.158571
v 371.852112 899.083984 -18.858574
v 339.243195 925.810120 -8.958561
v 339.243195 925.810120 -7.658561
v 344.253967 893.065674 -8.936746
v 337.264984 925.393250 -8.936741
v 337.264984 925.393250 -7.636741
v 344.253967 893.065674 -7.636746
v 344.253967 893.065674 -9.136746
v 337.264984 925.393250 -9.136742
v 337.298187 925.376221 -8.937153
v 337.298187 925.376221 -7.637154
v 344.275299 893.103577 -7.637159
v 344.275299 893.103577 -8.937158
v 363.871704 931.145996 -18.858568
v 339.240814 925.820984 -7.658561
v 339.252991 925.798828 -8.937153
v 339.252991 925.798828 -7.637154
v 339.219788 925.815918 -9.136742
v 339.219788 925.815918 -8.936743
v 339.219788 925.815918 -7.636741
v 346.208893 893.488281 -8.936748
v 346.208893 893.488281 -7.636746
v 346.208893 893.488281 -9.136746
v 346.230103 893.526123 -8.937158
v 346.230103 893.526123 -7.637159
v 339.246490 925.794739 -8.958561
v 363.877411 931.119812 -18.858568
v 363.877411 931.119812 -20.158566
v 339.246490 925.794739 -7.658561
v 339.246490 925.794739 -9.158562
v 363.877411 931.119812 -20.358568
v 364.844604 931.332947 -20.358568
v 364.844604 931.332947 -20.158566
v 339.248810 925.783875 -8.958561
v 363.879791 931.108887 -18.858568
v 363.879791 931.108887 -20.158566
v 339.248810 925.783875 -7.658561
v 371.819275 899.071472 -20.358574
v 371.819275 899.071472 -20.158571
v 364.858459 931.324585 -20.158566
v 364.858459 931.324585 -18.858568
v 364.844604 931.332947 -18.858568
v 371.819275 899.071472 -18.858574
v 371.825806 899.078430 -20.158571
v 371.825806 899.078430 -18.858574
v 346.219513 893.541077 -8.958566
v 370.850494 898.866089 -20.158571
v 370.850494 898.866089 -18.858574
v 346.219513 893.541077 -7.658566
v 346.219513 893.541077 -9.158566
v 370.850494 898.866089 -20.358574
v 344.280457 893.106750 -8.936746
v 337.306213 925.366760 -7.636741
v 337.306213 925.366760 -8.936741
v 344.280457 893.106750 -7.636746
v 344.280457 893.106750 -9.136746
v 337.306213 925.366760 -9.136742
v 337.339294 925.349670 -8.937153
v 344.301788 893.144653 -8.937158
v 344.301788 893.144653 -7.637159
v 337.339294 925.349670 -7.637154
v 339.263306 925.750916 -8.937153
v 339.263306 925.750916 -7.637154
v 339.230194 925.768127 -9.136742
v 339.230194 925.768127 -8.936743
v 339.230194 925.768127 -7.636741
v 346.198456 893.536072 -8.936748
v 346.198456 893.536072 -7.636746
v 346.198456 893.536072 -9.136746
v 346.219788 893.573975 -8.937158
v 346.219788 893.573975 -7.637159
v 346.225189 893.514771 -8.958566
v 370.856079 898.839966 -18.858574
v 370.856079 898.839966 -20.158571
v 346.225189 893.514771 -7.658566
v 346.225189 893.514771 -9.158566
v 370.856079 898.839966 -20.358574
v 371.846313 899.092224 -20.158571
v 370.847412 898.880310 -18.858574
v 370.847412 898.880310 -20.158571
v 371.846313 899.092224 -18.858574
v 346.216492 893.555298 -8.958566
v 346.216492 893.555298 -7.658566
v 346.222107 893.529114 -8.958566
v 370.853088 898.854126 -18.858574
v 370.853088 898.854126 -20.158571
v 346.222107 893.529114 -7.658566
v 371.831787 899.069824 -20.158571
v 371.831787 899.069824 -18.858574
vt 102.061203 1.445998
vt 106.201202 1.445998
vt 106.201202 1.808102
vt 102.061203 1.808102
vt -1.128167 1.445998
vt 7.317342 1.445998
vt 7.317341 1.808102
vt -1.128167 1.808102
vt 0.439238 1.852482
vt 0.439238 1.852482
vt 0.439238 1.901746
vt 0.439238 1.901746
vt 0.439238 1.901746
vt 0.439238 1.852482
vt 0.439238 1.852482
vt 0.439238 1.901746
vt -32.960171 1.445998
vt -32.960171 1.808102
vt -133.517502 1.445998
vt -20.685499 1.808102
vt -20.685499 1.445998
vt -133.517502 1.808102
vt 1.994339 1.445998
vt 10.414750 1.808102
vt 10.414750 1.445998
vt 1.994339 1.808102
vt 0.439238 1.852482
vt 0.439238 1.901746
vt 0.439238 1.852482
vt 0.439238 1.901746
vt 103.806503 1.445998
vt -30.874689 1.808102
vt 103.806503 1.808102
vt -30.874689 1.445998
vt 7.573064 1.445998
vt 7.573063 1.808102
vt -7.406326 1.445998
vt -0.354325 1.808102
vt -0.354325 1.445998
vt -7.406326 1.808102
vt 111.989601 1.445998
vt 111.989601 1.808102
vt 0.439238 1.852482
vt 0.439238 1.901746
vt 10.925800 1.445998
vt 10.925800 1.808102
vt 1.483288 1.445998
vt 1.483288 1.808102
vt 0.439238 1.901746
vt 0.439238 1.852482
vt -39.057812 1.445998
vt -39.057812 1.808102
vt -7.406326 1.445998
vt -0.354325 1.445998
vt -0.354325 1.808102
vt -7.406326 1.808102
vt 0.439238 1.852482
vt 0.439238 1.901746
vt 0.439238 1.901746
vt 0.439238 1.852482
vt 0.439238 1.852482
vt 0.439238 1.901746
vt -133.517502 1.445998
vt -20.685499 1.445998
vt -20.685499 1.808102
vt -133.517502 1.808102
vt 0.439238 1.852482
vt 0.439238 1.901746
vt 102.061203 1.445998
vt 106.201202 1.808102
vt 106.201202 1.445998
vt 102.061203 1.808102
vt 7.317342 1.445998
vt 7.573063 1.808102
vt 7.573064 1.445998
vt 7.317341 1.808102
vt -1.128167 1.445998
vt -1.128167 1.808102
vt -32.960171 1.445998
vt -32.960171 1.808102
vt -7.406326 1.445998
vt -0.354325 1.808102
vt -0.354325 1.445998
vt -7.406326 1.808102
vt 0.439238 1.901746
vt 0.439238 1.901746
vt 0.439238 1.852482
vt 0.439238 1.852482
vt 7.317342 1.445998
vt 7.573064 1.445998
vt 7.573063 1.808102
vt 7.317341 1.808102
vt 1.994339 1.445998
vt 10.414750 1.445998
vt 10.414750 1.808102
vt 1.994339 1.808102
vt 0.439238 1.852482
vt 0.439238 1.852482
vt 0.439238 1.901746
vt 0.439238 1.901746
vt 103.806503 1.445998
vt -30.874689 1.808102
vt -30.874689 1.445998
vt 103.806503 1.808102
vt 111.989601 1.445998
vt 111.989601 1.808102
vt 0.439238 1.852482
vt 0.439238 1.901746
vt 10.925800 1.445998
vt 10.925800 1.808102
vt 1.483288 1.445998
vt 1.483288 1.808102
vt 0.439238 1.901746
vt 0.439238 1.852482
vt -39.057812 1.445998
vt -39.057812 1.808102
vt -7.406326 1.445998
vt -0.354325 1.445998
vt -0.354325 1.808102
vt -7.406326 1.808102
vt 0.439238 1.852482
vt 0.439238 1.901746
vt 0.439238 1.901746
vt 0.439238 1.852482
vt 7.317342 1.445998
vt 7.573063 1.808102
vt 7.573064 1.445998
vt 7.317341 1.808102
vt 102.061203 1.445998
vt 106.201202 1.445998
vt 106.201202 1.808102
vt 102.061203 1.808102
vt -133.517502 1.445998
vt -20.685499 1.808102
vt -20.685499 1.445998
vt -133.517502 1.808102
vt -133.517502 1.445998
vt -20.685499 1.445998
vt -20.685499 1.808102
vt -133.517502 1.808102
vt 102.061203 1.445998
vt 106.201202 1.808102
vt 106.201202 1.445998
vt 102.061203 1.808102
vn -0.2078 0.9782 0.0000
vn -0.2110 0.9775 -0.0000
vn -0.2079 0.9781 0.0000
vn 0.9774 0.2113 0.0000
vn -0.2076 0.9782 0.0000
vn -0.2077 0.9782 0.0000
vn -0.2113 0.9774 0.0000
vn 0.9774 0.2114 0.0000
vn -0.9774 -0.2113 0.0000
vn 0.2113 -0.9774 0.0000
vn 0.2115 -0.9774 -0.0000
vn 0.2150 -0.9766 -0.0000
vn 0.2152 -0.9766 0.0000
vn 0.2116 -0.9773 -0.0000
vn 0.2141 -0.9768 -0.0000
vn 0.2149 -0.9766 -0.0000
vn -0.9774 -0.2112 0.0000
vn -0.2112 0.9774 0.0000
vn -0.2074 0.9783 0.0000
vn 0.2042 -0.9789 0.0000
vn -0.2184 0.9759 0.0000
vn 0.2114 -0.9774 -0.0000
vn 0.2147 -0.9767 0.0000
vn 0.2112 -0.9774 0.0000
vn -0.2075 0.9782 0.0000
vn 0.2116 -0.9774 -0.0000
usemtl GitterMat
s 1
f 1/1/1 3/2/2 2/3/3
f 1/1/1 2/3/3 4/4/1
f 5/5/4 7/6/4 6/7/4
f 5/5/4 6/7/4 8/8/4
f 9/9/4 10/10/4 7/11/4
f 9/9/4 7/11/4 5/12/4
f 10/10/5 11/13/6 7/11/5
f 10/10/5 12/14/6 11/13/6
f 13/15/7 11/13/6 12/14/6
f 14/16/7 11/13/6 13/15/7
f 15/17/8 1/1/8 4/4/8
f 15/17/8 4/4/8 16/18/8
f 17/19/7 2/20/3 3/21/2
f 18/22/7 2/20/3 17/19/7
f 19/23/9 21/24/9 20/25/9
f 21/24/9 19/23/9 22/26/9
f 23/27/9 20/28/9 24/29/9
f 20/28/9 23/27/9 19/30/9
f 25/31/9 27/32/9 26/33/9
f 27/32/9 25/31/9 28/34/9
f 7/6/5 11/35/6 29/36/1
f 7/6/5 29/36/1 6/7/5
f 14/37/7 29/38/1 11/39/6
f 30/40/7 29/38/1 14/37/7
f 31/41/7 25/31/7 26/33/7
f 31/41/7 26/33/7 32/42/7
f 33/43/7 24/29/7 20/28/7
f 33/43/7 20/28/7 34/44/7
f 34/45/7 20/25/7 21/24/7
f 34/45/7 21/24/7 35/46/7
f 36/47/10 37/48/10 19/23/10
f 19/23/10 37/48/10 22/26/10
f 36/49/10 23/27/10 38/50/10
f 23/27/10 36/49/10 19/30/10
f 39/51/10 40/52/10 28/34/10
f 28/34/10 40/52/10 27/32/10
f 41/53/10 43/54/11 42/55/12
f 41/53/10 42/55/12 44/56/10
f 45/57/10 43/58/11 41/59/10
f 45/57/10 46/60/10 43/58/11
f 47/61/13 43/58/11 46/60/10
f 43/58/11 47/61/13 48/62/13
f 49/63/10 51/64/14 50/65/15
f 49/63/10 50/65/15 52/66/10
f 53/67/9 48/62/9 47/61/9
f 48/62/9 53/67/9 54/68/9
f 55/69/13 50/70/15 51/71/14
f 50/70/16 55/69/16 56/72/16
f 48/73/13 42/74/12 43/75/11
f 42/74/12 48/73/13 57/76/13
f 54/77/9 57/76/9 48/73/9
f 57/76/9 54/77/9 58/78/9
f 59/79/17 56/72/17 55/69/17
f 56/72/17 59/79/17 60/80/17
f 61/81/7 63/82/6 62/83/18
f 64/84/7 63/82/6 61/81/7
f 61/85/7 62/86/18 65/87/7
f 65/87/7 62/86/18 66/88/18
f 53/67/19 66/88/18 62/86/18
f 53/67/19 62/86/18 54/68/19
f 54/89/19 62/90/18 63/91/6
f 54/89/19 63/91/6 58/92/19
f 67/93/4 69/94/4 68/95/4
f 67/93/4 68/95/4 70/96/4
f 71/97/4 72/98/4 69/99/4
f 71/97/4 69/99/4 67/100/4
f 73/101/4 75/102/4 74/103/4
f 75/102/4 73/101/4 76/104/4
f 77/105/20 76/104/20 73/101/20
f 76/104/20 77/105/20 78/106/20
f 79/107/20 69/99/20 72/98/20
f 69/99/20 79/107/20 80/108/20
f 80/109/20 68/95/20 69/94/20
f 68/95/20 80/109/20 81/110/20
f 82/111/21 67/93/21 83/112/21
f 67/93/21 70/96/21 83/112/21
f 67/100/21 82/113/21 71/97/21
f 84/114/21 71/97/21 82/113/21
f 85/115/21 74/103/21 86/116/21
f 74/103/21 75/102/21 86/116/21
f 87/117/10 89/118/22 88/119/23
f 87/117/10 88/119/23 90/120/10
f 91/121/10 89/122/22 87/123/10
f 91/121/10 92/124/24 89/122/22
f 9/9/12 89/122/22 92/124/24
f 89/122/22 9/9/12 5/12/12
f 5/125/12 88/126/23 89/127/22
f 88/126/23 5/125/12 8/128/12
f 93/129/25 95/130/2 94/131/1
f 93/129/25 94/131/1 96/132/25
f 97/133/7 94/134/1 95/135/2
f 98/136/7 94/134/1 97/133/7
f 99/137/10 101/138/26 100/139/16
f 99/137/10 100/139/16 102/140/10
f 103/141/13 100/142/16 101/143/26
f 100/142/16 103/141/13 104/144/13
