# Blender v3.1.2 OBJ File: 'track.blend'
# www.blender.org
mtllib _0TRIBUENE_02_019_SUB0.mtl
o _0TRIBUENE_02_019_SUB0_Scene.170
v -13809.969727 -104925.304688 -368.125305
v -13797.680664 -104927.500000 -376.045593
v -13797.680664 -104927.500000 -360.627106
v -16963.689453 -104383.109375 -368.125305
v -16951.390625 -104385.203125 -376.045593
v -16951.390625 -104385.203125 -360.627106
v -16175.259766 -104518.601562 -368.125305
v -16162.969727 -104520.703125 -376.045593
v -16162.969727 -104520.703125 -360.627106
v -15386.830078 -104654.203125 -368.125305
v -15374.541016 -104656.296875 -376.045593
v -15374.541016 -104656.296875 -360.627106
v -14598.399414 -104789.796875 -368.125305
v -14586.110352 -104791.890625 -376.045593
v -14586.110352 -104791.890625 -360.627106
v -14248.589844 -107489.296875 -777.460938
v -14250.709961 -107501.601562 -785.381104
v -14250.709961 -107501.601562 -769.962708
v -17752.109375 -104247.500000 -368.125305
v -17739.820312 -104249.593750 -376.045593
v -17739.820312 -104249.593750 -360.627106
v -18540.539062 -104111.898438 -368.125305
v -18528.250000 -104114.000000 -376.045593
v -18528.250000 -104114.000000 -360.627106
v -14199.729492 -107526.906250 -1640.406982
v -14182.049805 -107426.406250 -1510.406982
v -14182.049805 -107426.406250 -1640.406982
v -14199.729492 -107526.906250 -1510.406982
v -17455.119141 -106966.000000 -1640.406982
v -14198.440430 -107526.000000 -1510.406982
v -14198.440430 -107526.000000 -1640.406982
v -17455.119141 -106966.000000 -1510.406982
v -17455.119141 -106966.000000 -1660.407104
v -14198.440430 -107526.000000 -1660.407104
v -14180.959961 -107426.601562 -1640.406982
v -14180.959961 -107426.601562 -1660.407104
v -13753.900391 -104943.007812 -540.406921
v -13753.900391 -104943.007812 -520.406921
v -17452.990234 -106967.898438 -1640.406982
v -17452.990234 -106967.898438 -1510.406982
v -13755.000000 -104942.796875 -520.406921
v -13755.000000 -104942.796875 -390.406891
v -18556.160156 -103912.093750 -518.224976
v -13719.689453 -104743.796875 -518.224976
v -13719.689453 -104743.796875 -388.224915
v -18556.160156 -103912.093750 -388.224915
v -18556.160156 -103912.093750 -538.224915
v -13719.689453 -104743.796875 -538.224915
v -18553.439453 -103915.500000 -518.266174
v -13722.520508 -104746.203125 -518.266174
v -13722.520508 -104746.203125 -388.266205
v -18553.439453 -103915.500000 -388.266205
v -14180.959961 -107426.601562 -1510.406982
v -17329.531250 -106247.703125 -1379.951904
v -17436.000000 -106866.796875 -1529.183960
v -17436.000000 -106866.796875 -1659.184082
v -17329.531250 -106247.703125 -1249.952026
v -17453.148438 -106966.601562 -1659.184082
v -17453.148438 -106966.601562 -1529.183960
v -13753.900391 -104943.007812 -390.406891
v -13756.410156 -104943.296875 -518.266174
v -13756.410156 -104943.296875 -388.266205
v -13753.590820 -104940.906250 -538.224915
v -13753.590820 -104940.906250 -518.224976
v -13753.590820 -104940.906250 -388.224915
v -18590.048828 -104109.203125 -518.224976
v -18590.048828 -104109.203125 -388.224915
v -18590.048828 -104109.203125 -538.224915
v -18587.330078 -104112.593750 -518.266174
v -18587.330078 -104112.593750 -388.266205
v -13756.540039 -104942.507812 -520.406921
v -14183.599609 -107426.101562 -1510.406982
v -14183.599609 -107426.101562 -1640.406982
v -13756.540039 -104942.507812 -390.406891
v -13756.540039 -104942.507812 -540.406921
v -14183.599609 -107426.101562 -1660.407104
v -14199.989258 -107523.804688 -1660.407104
v -14199.989258 -107523.804688 -1640.406982
v -13757.639648 -104942.398438 -520.406921
v -14184.689453 -107425.906250 -1510.406982
v -14184.689453 -107425.906250 -1640.406982
v -13757.639648 -104942.398438 -390.406891
v -17452.929688 -106964.406250 -1660.407104
v -17452.929688 -106964.406250 -1640.406982
v -14201.280273 -107524.695312 -1640.406982
v -14201.280273 -107524.695312 -1510.406982
v -14199.989258 -107523.804688 -1510.406982
v -17452.929688 -106964.406250 -1510.406982
v -17452.529297 -106965.296875 -1640.406982
v -17452.529297 -106965.296875 -1510.406982
v -17455.339844 -106966.195312 -1659.184082
v -17438.189453 -106866.500000 -1529.183960
v -17438.189453 -106866.500000 -1659.184082
v -17455.339844 -106966.195312 -1529.183960
v -17435.750000 -106866.890625 -1510.406982
v -17435.750000 -106866.890625 -1640.406982
v -17435.750000 -106866.890625 -1660.407104
v -17329.279297 -106247.703125 -1381.173950
v -17329.279297 -106247.703125 -1361.174072
v -18553.339844 -103916.101562 -518.224976
v -13723.689453 -104746.593750 -388.224915
v -13723.689453 -104746.593750 -518.224976
v -18553.339844 -103916.101562 -388.224915
v -18553.339844 -103916.101562 -538.224915
v -13723.689453 -104746.593750 -538.224915
v -18550.619141 -103919.492188 -518.266174
v -13726.519531 -104749.000000 -388.266205
v -13726.519531 -104749.000000 -518.266174
v -18550.619141 -103919.492188 -388.266205
v -13761.239258 -104942.507812 -518.266174
v -13761.239258 -104942.507812 -388.266205
v -13758.410156 -104940.000000 -538.224915
v -13758.410156 -104940.000000 -518.224976
v -13758.410156 -104940.000000 -388.224915
v -18585.230469 -104110.000000 -518.224976
v -18585.230469 -104110.000000 -388.224915
v -18585.230469 -104110.000000 -538.224915
v -18582.509766 -104113.406250 -518.266174
v -18582.509766 -104113.406250 -388.266205
v -17331.910156 -106247.203125 -1361.153931
v -17438.388672 -106866.390625 -1510.406982
v -17438.388672 -106866.390625 -1640.406982
v -17331.910156 -106247.203125 -1231.153931
v -17438.388672 -106866.390625 -1660.407104
v -18586.150391 -104112.093750 -409.184113
v -18586.150391 -104112.093750 -539.184082
v -18879.160156 -105816.101562 -1177.190918
v -18879.160156 -105816.101562 -1322.710083
v -18908.250000 -105985.304688 -1177.200928
v -18908.250000 -105985.304688 -1322.719971
v -18585.560547 -104112.195312 -520.406921
v -18585.560547 -104112.195312 -540.406921
v -18878.570312 -105816.195312 -1303.936035
v -18878.570312 -105816.195312 -1323.936035
v -18907.660156 -105985.398438 -1323.927002
v -18907.660156 -105985.398438 -1303.927002
v -18585.560547 -104112.195312 -390.406891
v -18878.570312 -105816.195312 -1173.936035
v -18907.660156 -105985.398438 -1173.927002
v -17331.910156 -106247.203125 -1381.155029
v -17331.730469 -106247.304688 -1379.968018
v -17331.730469 -106247.304688 -1249.968018
v -17329.279297 -106247.703125 -1231.173950
v -18881.210938 -105815.796875 -1303.932007
v -18910.291016 -105984.898438 -1303.906982
v -18910.291016 -105984.898438 -1323.906982
v -18881.210938 -105815.796875 -1323.932983
v -18588.201172 -104111.695312 -540.406921
v -18588.201172 -104111.695312 -520.406921
v -18878.818359 -105816.195312 -1177.188965
v -18907.910156 -105985.304688 -1177.184937
v -18907.910156 -105985.304688 -1322.703979
v -18878.818359 -105816.195312 -1322.708008
v -18585.808594 -104112.093750 -539.184082
v -18585.808594 -104112.093750 -409.184113
v -18588.201172 -104111.695312 -390.406891
v -18881.210938 -105815.796875 -1173.932007
v -18910.291016 -105984.898438 -1173.906006
v -18906.218750 -105983.898438 -1324.244019
v -17331.039062 -106254.703125 -1324.244019
v -17331.039062 -106254.703125 -1304.244019
v -18906.218750 -105983.898438 -1304.244019
v -17331.039062 -106254.703125 -1174.244019
v -18906.218750 -105983.898438 -1174.244019
v -17331.179688 -106255.703125 -1304.244019
v -17331.179688 -106255.703125 -1174.244019
v -18905.820312 -105984.703125 -1174.244019
v -18905.820312 -105984.703125 -1304.244019
v -18908.410156 -105985.398438 -1324.244019
v -17331.308594 -106256.601562 -1304.244019
v -17331.308594 -106256.601562 -1324.244019
v -18908.410156 -105985.398438 -1304.244019
v -17331.509766 -106257.992188 -1304.244019
v -18906.281250 -105987.406250 -1304.244019
v -18906.281250 -105987.406250 -1174.244019
v -17331.509766 -106257.992188 -1174.244019
v -17331.308594 -106256.601562 -1174.244019
v -18908.410156 -105985.398438 -1174.244019
vt 0.752119 1.281709
vt 0.518614 1.311352
vt 0.112558 1.311352
vt 0.752119 1.281709
vt 0.518614 1.311352
vt 0.112558 1.311352
vt 0.752119 1.281709
vt 0.518614 1.311352
vt 0.112558 1.311352
vt 0.752119 1.281709
vt 0.518614 1.311352
vt 0.112558 1.311352
vt 0.752119 1.281709
vt 0.518614 1.311352
vt 0.112558 1.311352
vt 0.752119 1.281709
vt 0.518614 1.311352
vt 0.112558 1.311352
vt 0.752119 1.281709
vt 0.518614 1.311352
vt 0.112558 1.311352
vt 0.752119 1.281709
vt 0.518614 1.311352
vt 0.112558 1.311352
vt 102.061203 1.445998
vt 106.201202 1.445998
vt 106.201202 1.808102
vt 102.061203 1.808102
vt -1.128167 1.445998
vt 7.317342 1.445998
vt 7.317341 1.808102
vt -1.128167 1.808102
vt 0.439238 1.852482
vt 0.439238 1.852482
vt 0.439238 1.901746
vt 0.439238 1.901746
vt 0.439238 1.901746
vt 0.439238 1.852482
vt 0.439238 1.852482
vt 0.439238 1.901746
vt -32.960171 1.445998
vt -32.960171 1.808102
vt -133.517502 1.445998
vt -20.685499 1.808102
vt -20.685499 1.445998
vt -133.517502 1.808102
vt -1.023805 1.445998
vt 10.203130 1.808102
vt 10.203130 1.445998
vt -1.023805 1.808102
vt -3.097221 1.852482
vt -3.097221 1.901746
vt -3.097221 1.852482
vt -3.097221 1.901746
vt -44.848080 1.445998
vt 134.722305 1.808102
vt 134.722305 1.445998
vt -44.848080 1.808102
vt 7.573064 1.445998
vt 7.573063 1.808102
vt -33.849220 1.445998
vt -14.338880 1.445998
vt -14.338880 1.808102
vt -33.849220 1.808102
vt 70.793404 1.445998
vt 73.664742 1.808102
vt 73.664742 1.445998
vt 70.793404 1.808102
vt -7.406326 1.445998
vt -0.354325 1.808102
vt -0.354325 1.445998
vt -7.406326 1.808102
vt 111.989601 1.445998
vt 103.806503 1.445998
vt 103.806503 1.808102
vt 111.989601 1.808102
vt 0.439238 1.852482
vt 0.439238 1.852482
vt 0.439238 1.901746
vt 0.439238 1.901746
vt 10.925800 1.445998
vt 10.414750 1.445998
vt 10.414750 1.808102
vt 10.925800 1.808102
vt -1.705190 1.445998
vt -1.705190 1.808102
vt -3.097221 1.901746
vt -3.097221 1.852482
vt -39.057812 1.445998
vt -39.057812 1.808102
vt -30.874689 1.445998
vt -30.874689 1.808102
vt -7.406326 1.445998
vt -0.354325 1.445998
vt -0.354325 1.808102
vt -7.406326 1.808102
vt 0.439238 1.852482
vt 0.439238 1.901746
vt 0.439238 1.901746
vt 0.439238 1.852482
vt 0.439238 1.852482
vt 0.439238 1.901746
vt -133.517502 1.445998
vt -20.685499 1.445998
vt -20.685499 1.808102
vt -133.517502 1.808102
vt 0.439238 1.852482
vt 0.439238 1.901746
vt 102.061203 1.445998
vt 106.201202 1.808102
vt 106.201202 1.445998
vt 102.061203 1.808102
vt 7.317342 1.445998
vt 7.573063 1.808102
vt 7.573064 1.445998
vt 7.317341 1.808102
vt -1.128167 1.445998
vt -1.128167 1.808102
vt -32.960171 1.445998
vt -32.960171 1.808102
vt 70.793404 1.445998
vt 73.664742 1.445998
vt 73.664742 1.808102
vt 70.793404 1.808102
vt 7.317342 1.445998
vt 7.573064 1.445998
vt 7.573063 1.808102
vt 7.317341 1.808102
vt 0.439238 1.901746
vt 0.439238 1.852482
vt 0.439238 1.852482
vt 0.439238 1.901746
vt -1.023805 1.445998
vt 10.203130 1.445998
vt 10.203130 1.808102
vt -1.023805 1.808102
vt -3.097221 1.852482
vt -3.097221 1.852482
vt -3.097221 1.901746
vt -3.097221 1.901746
vt -44.848080 1.445998
vt 134.722305 1.445998
vt 134.722305 1.808102
vt -44.848080 1.808102
vt 111.989601 1.445998
vt 103.806503 1.808102
vt 103.806503 1.445998
vt 111.989601 1.808102
vt 0.439238 1.852482
vt 0.439238 1.901746
vt 0.439238 1.852482
vt 0.439238 1.901746
vt 10.925800 1.445998
vt 10.414750 1.808102
vt 10.414750 1.445998
vt 10.925800 1.808102
vt 1.483288 1.445998
vt 1.994339 1.445998
vt 1.483288 1.808102
vt 1.994339 1.808102
vt 0.439238 1.901746
vt 0.439238 1.901746
vt 0.439238 1.852482
vt 0.439238 1.852482
vt -39.057812 1.445998
vt -30.874689 1.445998
vt -39.057812 1.808102
vt -30.874689 1.808102
vt -2.112618 1.445998
vt -0.354325 1.445998
vt -0.354325 1.808102
vt -2.112620 1.808102
vt 7.317342 1.445998
vt 7.573063 1.808102
vt 7.573064 1.445998
vt 7.317341 1.808102
vt 0.439238 1.901746
vt 0.439238 1.852482
vt -39.609951 1.808102
vt 18.590321 1.808102
vt -39.609951 1.445998
vt 18.590321 1.445998
vt 24.817440 1.808102
vt 24.817440 1.445998
vt 0.439238 1.901746
vt 0.439238 1.901746
vt 0.439238 1.852482
vt 0.439238 1.852482
vt 0.439238 1.852482
vt 0.439238 1.901746
vt -7.406326 1.808102
vt -2.624043 1.808102
vt -7.406326 1.445998
vt -2.624043 1.445998
vt -2.112492 1.445998
vt -2.112492 1.808102
vt 0.439238 1.852482
vt 0.439238 1.901746
vt -33.848091 1.445998
vt -14.338880 1.808102
vt -14.338880 1.445998
vt -33.848091 1.808102
vt -2.112492 1.445998
vt -0.354325 1.808102
vt -0.354325 1.445998
vt -2.112492 1.808102
vt 0.439238 1.901746
vt 0.439238 1.852482
vt 0.439238 1.901746
vt 0.439238 1.852482
vt 0.439238 1.852482
vt 0.439238 1.901746
vt 18.590191 1.808102
vt 24.816210 1.445998
vt 24.816210 1.808102
vt 18.590191 1.445998
vt -39.609951 1.445998
vt -39.609951 1.808102
vt -7.406326 1.445998
vt -2.624070 1.808102
vt -7.406326 1.808102
vt -2.624068 1.445998
vt -2.112618 1.445998
vt -2.112620 1.808102
vt 0.439238 1.852482
vt 0.439238 1.901746
vt 0.439238 1.852482
vt 0.439238 1.901746
vt -1.128167 1.445998
vt 2.961408 1.808102
vt 2.961408 1.445998
vt -1.128167 1.808102
vt 32.433121 1.445998
vt -32.960171 1.808102
vt 32.433151 1.808102
vt -32.960171 1.445998
vt 0.439238 1.852482
vt 0.439238 1.852482
vt 0.439238 1.901746
vt 0.439238 1.901746
vt 32.398102 1.445998
vt -32.960171 1.808102
vt -32.960171 1.445998
vt 32.398121 1.808102
vt -1.128167 1.445998
vt 2.961700 1.445998
vt 2.961699 1.808102
vt -1.128167 1.808102
vn 0.1700 0.9855 -0.0000
vn 0.1685 0.9857 0.0000
vn 0.1702 0.9854 0.0000
vn 0.1709 0.9853 0.0000
vn 0.1684 0.9857 0.0000
vn 0.9856 -0.1692 -0.0000
vn 0.9849 -0.1733 0.0000
vn 0.9855 -0.1698 -0.0000
vn 0.9849 -0.1729 0.0000
vn -0.1695 -0.9855 0.0000
vn 0.9849 -0.1732 0.0000
vn 0.9849 -0.1731 -0.0000
vn 0.9855 -0.1694 0.0000
vn 0.9855 -0.1695 0.0000
vn -0.1693 -0.9856 0.0000
vn 0.1695 0.9855 0.0000
vn 0.9849 -0.1730 0.0000
vn -0.9855 0.1695 0.0000
vn -0.9855 0.1694 0.0000
vn -0.9856 0.1693 0.0000
vn -0.9856 0.1694 0.0000
vn -0.9862 0.1657 -0.0000
vn -0.9862 0.1654 0.0000
vn -0.9856 0.1692 -0.0000
vn -0.9860 0.1666 0.0000
vn -0.9862 0.1656 0.0000
vn 0.1696 0.9855 0.0000
vn 0.9848 -0.1735 0.0000
vn 0.9849 -0.1734 -0.0000
vn -0.9843 0.1766 0.0000
vn -0.9843 0.1767 0.0000
vn 0.9867 -0.1623 0.0000
vn -0.9859 0.1675 0.0000
vn -0.9861 0.1660 -0.0000
vn -0.9856 0.1691 -0.0000
vn -0.9855 0.1696 0.0000
vn 0.1694 0.9855 0.0000
usemtl GitterMat
s 1
f 1/1/1 3/2/1 2/3/1
f 4/4/2 6/5/2 5/6/2
f 7/7/3 9/8/3 8/9/3
f 10/10/4 12/11/4 11/12/4
f 13/13/5 15/14/5 14/15/5
f 16/16/6 18/17/6 17/18/6
f 19/19/5 21/20/5 20/21/5
f 22/22/3 24/23/3 23/24/3
f 25/25/7 27/26/8 26/27/9
f 25/25/7 26/27/9 28/28/7
f 29/29/10 31/30/10 30/31/10
f 29/29/10 30/31/10 32/32/10
f 33/33/10 34/34/10 31/35/10
f 33/33/10 31/35/10 29/36/10
f 34/34/11 35/37/11 31/35/11
f 34/34/11 36/38/12 35/37/11
f 37/39/13 35/37/11 36/38/12
f 38/40/14 35/37/11 37/39/13
f 39/41/15 25/25/15 28/28/15
f 39/41/15 28/28/15 40/42/15
f 41/43/14 26/44/9 27/45/8
f 42/46/14 26/44/9 41/43/14
f 43/47/16 45/48/16 44/49/16
f 45/48/16 43/47/16 46/50/16
f 47/51/16 44/52/16 48/53/16
f 44/52/16 47/51/16 43/54/16
f 49/55/16 51/56/16 50/57/16
f 51/56/16 49/55/16 52/58/16
f 31/30/11 35/59/11 53/60/17
f 31/30/11 53/60/17 30/31/11
f 54/61/18 56/62/19 55/63/19
f 54/61/18 55/63/19 57/64/18
f 58/65/20 55/66/19 56/67/19
f 55/66/19 58/65/20 59/68/21
f 38/69/14 53/70/17 35/71/11
f 60/72/14 53/70/17 38/69/14
f 61/73/14 50/74/14 51/75/14
f 61/73/14 51/75/14 62/76/14
f 63/77/14 48/78/14 44/79/14
f 63/77/14 44/79/14 64/80/14
f 64/81/14 44/82/14 45/83/14
f 64/81/14 45/83/14 65/84/14
f 66/85/19 67/86/19 43/47/19
f 43/47/19 67/86/19 46/50/19
f 66/87/19 47/51/18 68/88/19
f 47/51/18 66/87/19 43/54/19
f 69/89/18 70/90/18 49/91/18
f 49/91/18 70/90/18 52/92/18
f 71/93/18 73/94/18 72/95/22
f 71/93/18 72/95/22 74/96/18
f 75/97/18 73/98/18 71/99/18
f 75/97/18 76/100/19 73/98/18
f 77/101/23 73/98/18 76/100/19
f 73/98/18 77/101/23 78/102/23
f 79/103/18 81/104/24 80/105/25
f 79/103/18 80/105/25 82/106/18
f 83/107/16 78/102/16 77/101/16
f 78/102/16 83/107/16 84/108/16
f 85/109/26 80/110/25 81/111/24
f 80/110/26 85/109/26 86/112/26
f 78/113/23 72/114/22 73/115/18
f 72/114/22 78/113/23 87/116/23
f 84/117/16 87/116/16 78/113/16
f 87/116/16 84/117/16 88/118/16
f 89/119/27 86/112/27 85/109/27
f 86/112/27 89/119/27 90/120/27
f 91/121/14 93/122/14 92/123/14
f 91/121/14 92/123/14 94/124/14
f 84/125/28 96/126/29 95/127/11
f 84/125/28 95/127/11 88/128/28
f 83/107/28 96/129/29 84/108/28
f 83/107/28 97/130/29 96/129/29
f 98/131/14 96/129/29 97/130/29
f 99/132/14 96/129/29 98/131/14
f 100/133/10 102/134/10 101/135/10
f 100/133/10 101/135/10 103/136/10
f 104/137/10 105/138/10 102/139/10
f 104/137/10 102/139/10 100/140/10
f 106/141/10 108/142/10 107/143/10
f 106/141/10 107/143/10 109/144/10
f 110/145/30 107/146/30 108/147/30
f 107/146/30 110/145/30 111/148/30
f 112/149/31 102/150/31 105/151/31
f 102/150/31 112/149/31 113/152/31
f 113/153/31 101/154/31 102/155/31
f 101/154/31 113/153/31 114/156/31
f 115/157/32 100/158/32 116/159/32
f 100/158/32 103/160/32 116/159/32
f 100/161/32 115/162/32 104/163/32
f 117/164/32 104/163/32 115/162/32
f 118/165/32 106/166/32 119/167/32
f 106/166/32 109/168/32 119/167/32
f 120/169/18 122/170/33 121/171/34
f 120/169/18 121/171/34 123/172/18
f 29/173/26 121/174/34 122/175/33
f 121/174/34 29/173/26 32/176/26
f 33/33/26 122/177/33 124/178/35
f 122/177/33 33/33/26 29/36/26
f 125/179/14 127/180/14 126/181/14
f 126/181/14 127/180/14 128/182/14
f 129/183/13 128/182/14 127/180/14
f 128/182/14 129/183/13 130/184/14
f 131/185/14 133/186/14 132/187/14
f 132/187/14 133/186/14 134/188/14
f 133/186/14 135/189/13 134/188/14
f 135/189/13 133/186/14 136/190/13
f 137/191/14 138/192/14 131/193/14
f 131/193/14 138/192/14 133/194/14
f 138/192/14 136/195/13 133/194/14
f 136/195/13 138/192/14 139/196/13
f 140/197/18 124/178/35 122/177/33
f 140/197/18 122/177/33 120/198/18
f 141/199/14 92/200/14 93/201/14
f 142/202/14 92/200/14 141/199/14
f 99/203/14 95/204/11 96/205/29
f 143/206/14 95/204/11 99/203/14
f 144/207/18 146/208/18 145/209/18
f 146/208/18 144/207/18 147/210/18
f 148/211/18 147/210/18 144/207/18
f 148/211/18 144/207/18 149/212/18
f 150/213/18 152/214/18 151/215/36
f 152/214/18 150/213/18 153/216/18
f 154/217/18 153/216/18 150/213/18
f 154/217/18 150/213/18 155/218/18
f 149/219/18 157/220/18 156/221/18
f 149/219/18 144/222/18 157/220/18
f 145/223/18 157/220/18 144/222/18
f 157/220/18 145/223/18 158/224/18
f 159/225/37 161/226/37 160/227/37
f 161/226/37 159/225/37 162/228/37
f 162/229/37 163/230/37 161/231/37
f 163/230/37 162/229/37 164/232/37
f 165/233/27 167/234/27 166/235/27
f 167/234/27 165/233/27 168/236/27
f 169/237/10 171/238/10 170/239/10
f 169/237/10 170/239/10 172/240/10
f 173/241/15 175/242/15 174/243/15
f 175/242/15 173/241/15 176/244/15
f 172/245/10 170/246/10 177/247/10
f 172/245/10 177/247/10 178/248/10
