# Blender v3.4.1 OBJ File: 'track.blend'
# www.blender.org
mtllib _0TRIBUENE_02_022_SUB0_Scene.180.mtl
o _0TRIBUENE_02_022_SUB0_Scene.180
v -199.282394 -446.241089 -19.352493
v -199.260696 -445.220215 -18.052492
v -199.260696 -445.220215 -19.352493
v -199.282394 -446.241089 -18.052492
v -247.841797 -445.386658 -19.352493
v -199.270477 -446.229492 -18.052492
v -199.270477 -446.229492 -19.352493
v -247.841797 -445.386658 -18.052492
v -247.841797 -445.386658 -19.552492
v -199.270477 -446.229492 -19.552492
v -199.248901 -445.220367 -19.352493
v -199.248901 -445.220306 -19.552492
v -198.811798 -420.024200 -8.352486
v -198.811798 -420.024200 -8.152486
v -247.816406 -445.402893 -19.352493
v -247.816406 -445.402893 -18.052492
v -198.823486 -420.023987 -8.152486
v -198.823486 -420.023987 -6.852486
v -247.379807 -417.159607 -8.130666
v -198.777206 -418.002869 -8.130666
v -198.777206 -418.002869 -6.830665
v -247.379807 -417.159607 -6.830665
v -247.379807 -417.159607 -8.330665
v -198.777206 -418.002869 -8.330665
v -247.345993 -417.188965 -8.131078
v -198.802795 -418.031311 -8.131078
v -198.802795 -418.031311 -6.831078
v -247.345993 -417.188965 -6.831078
v -199.248901 -445.220367 -18.052492
v -198.811798 -420.024200 -6.852486
v -198.837494 -420.030884 -8.131079
v -198.837494 -420.030884 -6.831079
v -198.811905 -420.002563 -8.330666
v -198.811905 -420.002563 -8.130667
v -198.811905 -420.002563 -6.830666
v -247.414505 -419.159363 -8.130667
v -247.414505 -419.159363 -6.830665
v -247.414505 -419.159363 -8.330666
v -247.380692 -419.188660 -8.131079
v -247.380692 -419.188660 -6.831078
v -198.840088 -420.023712 -8.152486
v -199.277206 -445.219910 -18.052492
v -199.277206 -445.219910 -19.352493
v -198.840088 -420.023712 -6.852486
v -198.840088 -420.023712 -8.352486
v -199.277206 -445.219910 -19.552492
v -199.290207 -446.210175 -19.552492
v -199.290207 -446.210175 -19.352493
v -198.851791 -420.023499 -8.152486
v -199.288879 -445.219666 -18.052492
v -199.288879 -445.219666 -19.352493
v -198.851791 -420.023499 -6.852486
v -247.821381 -445.368195 -19.552492
v -247.821381 -445.368195 -19.352493
v -199.302078 -446.221802 -19.352493
v -199.302078 -446.221802 -18.052492
v -199.290207 -446.210175 -18.052492
v -247.821381 -445.368195 -18.052492
v -247.815887 -445.376099 -19.352493
v -247.815887 -445.376099 -18.052492
v -247.362885 -419.181854 -8.152486
v -247.799988 -444.378113 -19.352493
v -247.799988 -444.378113 -18.052492
v -247.362885 -419.181854 -6.852485
v -247.362885 -419.181854 -8.352486
v -247.799988 -444.378113 -19.552492
v -247.343903 -417.194885 -8.130666
v -198.814285 -418.036896 -6.830665
v -198.814285 -418.036896 -8.130666
v -247.343903 -417.194885 -6.830665
v -247.343903 -417.194885 -8.330665
v -198.814285 -418.036896 -8.330665
v -198.839905 -418.065186 -8.131078
v -247.310089 -417.224213 -8.131078
v -247.310089 -417.224213 -6.831078
v -198.839905 -418.065186 -6.831078
v -198.889099 -420.030060 -8.131079
v -198.889099 -420.030060 -6.831079
v -198.863495 -420.001709 -8.330666
v -198.863495 -420.001709 -8.130667
v -198.863495 -420.001709 -6.830666
v -247.362885 -419.160187 -8.130667
v -247.362885 -419.160187 -6.830665
v -247.362885 -419.160187 -8.330666
v -247.329102 -419.189606 -8.131079
v -247.329102 -419.189606 -6.831078
v -247.391205 -419.181274 -8.152486
v -247.828293 -444.377502 -18.052492
v -247.828293 -444.377502 -19.352493
v -247.391205 -419.181274 -6.852485
v -247.391205 -419.181274 -8.352486
v -247.828293 -444.377502 -19.552492
v -247.806503 -445.399200 -19.352493
v -247.784698 -444.378265 -18.052492
v -247.784698 -444.378204 -19.352493
v -247.806503 -445.399200 -18.052492
v -247.347595 -419.182098 -8.152486
v -247.347595 -419.182098 -6.852485
v -247.375793 -419.181580 -8.152486
v -247.813004 -444.377808 -18.052492
v -247.813004 -444.377808 -19.352493
v -247.375793 -419.181580 -6.852485
v -247.826202 -445.379913 -19.352493
v -247.826202 -445.379913 -18.052492
vt 102.061203 1.445998
vt 106.201202 1.445998
vt 106.201202 1.808102
vt 102.061203 1.808102
vt -12.412230 1.445998
vt 2.533714 1.445998
vt 2.533712 1.808102
vt -12.412230 1.808102
vt -9.638410 1.852482
vt -9.638410 1.852482
vt -9.638410 1.901746
vt -9.638410 1.901746
vt 0.439238 1.852482
vt 0.439238 1.901746
vt 0.439238 1.901746
vt 0.439238 1.852482
vt 0.439238 1.852482
vt 0.439238 1.901746
vt -68.745064 1.445998
vt 170.201096 1.445998
vt 170.201096 1.808102
vt -68.745064 1.808102
vt -133.517502 1.445998
vt -20.685499 1.808102
vt -20.685499 1.445998
vt -133.517502 1.808102
vt -6.886359 1.445998
vt 8.015174 1.808102
vt 8.015174 1.445998
vt -6.886359 1.808102
vt -9.638410 1.852482
vt -9.638410 1.901746
vt -9.638410 1.852482
vt -9.638410 1.901746
vt -65.054413 1.445998
vt 173.289703 1.808102
vt 173.289703 1.445998
vt -65.054413 1.808102
vt 7.317342 1.445998
vt 7.573064 1.445998
vt 7.573063 1.808102
vt 7.317341 1.808102
vt -7.406326 1.445998
vt -0.354325 1.808102
vt -0.354325 1.445998
vt -7.406326 1.808102
vt 111.989601 1.445998
vt 103.806503 1.445998
vt 103.806503 1.808102
vt 111.989601 1.808102
vt 0.439238 1.852482
vt 0.439238 1.852482
vt 0.439238 1.901746
vt 0.439238 1.901746
vt 10.925800 1.445998
vt 10.414750 1.445998
vt 10.414750 1.808102
vt 10.925800 1.808102
vt 1.483288 1.445998
vt 1.483288 1.808102
vt 1.994339 1.445998
vt 1.994339 1.808102
vt 0.439238 1.901746
vt 0.439238 1.852482
vt 0.439238 1.852482
vt 0.439238 1.901746
vt -39.057812 1.445998
vt -39.057812 1.808102
vt -30.874689 1.445998
vt -30.874689 1.808102
vt -7.406326 1.445998
vt -0.354325 1.445998
vt -0.354325 1.808102
vt -7.406326 1.808102
vt 0.439238 1.852482
vt 0.439238 1.901746
vt 0.439238 1.901746
vt 0.439238 1.852482
vt 0.439238 1.852482
vt 0.439238 1.901746
vt -133.517502 1.445998
vt -20.685499 1.445998
vt -20.685499 1.808102
vt -133.517502 1.808102
vt -9.638410 1.852482
vt -9.638410 1.901746
vt -9.638410 1.852482
vt -9.638410 1.901746
vt 102.061203 1.445998
vt 106.201202 1.808102
vt 106.201202 1.445998
vt 102.061203 1.808102
vt 7.317342 1.445998
vt 7.573063 1.808102
vt 7.573064 1.445998
vt 7.317341 1.808102
vt -12.412230 1.445998
vt 2.533712 1.808102
vt 2.533714 1.445998
vt -12.412230 1.808102
vt -68.745064 1.445998
vt 170.201096 1.808102
vt 170.201096 1.445998
vt -68.745064 1.808102
vt -7.406326 1.445998
vt -0.354325 1.808102
vt -0.354325 1.445998
vt -7.406326 1.808102
vt 0.439238 1.901746
vt 0.439238 1.901746
vt 0.439238 1.852482
vt 0.439238 1.852482
vt 0.439238 1.852482
vt 0.439238 1.901746
vt 7.317342 1.445998
vt 7.573064 1.445998
vt 7.573063 1.808102
vt 7.317341 1.808102
vt -6.886359 1.445998
vt 8.015174 1.445998
vt 8.015174 1.808102
vt -6.886359 1.808102
vt -9.638410 1.852482
vt -9.638410 1.852482
vt -9.638410 1.901746
vt -9.638410 1.901746
vt 173.289703 1.445998
vt -65.054413 1.808102
vt -65.054413 1.445998
vt 173.289703 1.808102
vt 111.989601 1.445998
vt 103.806503 1.808102
vt 103.806503 1.445998
vt 111.989601 1.808102
vt 0.439238 1.852482
vt 0.439238 1.901746
vt 0.439238 1.852482
vt 0.439238 1.901746
vt 10.925800 1.445998
vt 10.414750 1.808102
vt 10.414750 1.445998
vt 10.925800 1.808102
vt 1.483288 1.445998
vt 1.994339 1.445998
vt 1.483288 1.808102
vt 1.994339 1.808102
vt 0.439238 1.901746
vt 0.439238 1.901746
vt 0.439238 1.852482
vt 0.439238 1.852482
vt -39.057812 1.445998
vt -30.874689 1.445998
vt -39.057812 1.808102
vt -30.874689 1.808102
vt -7.406326 1.445998
vt -0.354325 1.445998
vt -0.354325 1.808102
vt -7.406326 1.808102
vt 0.439238 1.852482
vt 0.439238 1.901746
vt 0.439238 1.901746
vt 0.439238 1.852482
vt 0.439238 1.852482
vt 0.439238 1.901746
vt 7.317342 1.445998
vt 7.573063 1.808102
vt 7.573064 1.445998
vt 7.317341 1.808102
vt 102.061203 1.445998
vt 106.201202 1.445998
vt 106.201202 1.808102
vt 102.061203 1.808102
vt -133.517502 1.445998
vt -20.685499 1.808102
vt -20.685499 1.445998
vt -133.517502 1.808102
vt -133.517502 1.445998
vt -20.685499 1.445998
vt -20.685499 1.808102
vt -133.517502 1.808102
vt 102.061203 1.445998
vt 106.201202 1.808102
vt 106.201202 1.445998
vt 102.061203 1.808102
vn 0.9998 -0.0213 0.0000
vn 0.9998 -0.0178 -0.0000
vn 0.9998 -0.0210 0.0000
vn -0.0173 -0.9998 0.0000
vn -0.0174 -0.9998 0.0000
vn 0.9998 -0.0214 0.0000
vn 0.9998 -0.0212 -0.0000
vn 0.9998 -0.0173 -0.0000
vn -0.0173 -0.9999 0.0000
vn 0.9998 -0.0174 0.0000
vn 0.0173 0.9998 0.0000
vn 0.9998 -0.0211 0.0000
vn -0.9998 0.0173 0.0000
vn -0.9998 0.0174 0.0000
vn -0.9999 0.0173 -0.0000
vn -0.9999 0.0133 -0.0000
vn -0.9999 0.0131 0.0000
vn -0.9999 0.0170 -0.0000
vn -0.9999 0.0143 0.0000
vn -0.9999 0.0132 0.0000
vn 0.0174 0.9998 0.0000
vn 0.9998 -0.0175 0.0000
vn 0.9999 -0.0173 0.0000
vn 0.9998 -0.0216 0.0000
vn -0.9997 0.0250 0.0000
vn 1.0000 -0.0097 0.0000
vn 1.0000 -0.0096 0.0000
vn -0.9999 0.0136 -0.0000
vn -0.9999 0.0134 0.0000
vn 0.9998 -0.0209 -0.0000
usemtl GitterMat
s 1
f 1/1/1 3/2/2 2/3/3
f 1/1/1 2/3/3 4/4/1
f 5/5/4 7/6/5 6/7/4
f 5/5/4 6/7/4 8/8/4
f 9/9/4 10/10/5 7/11/5
f 9/9/4 7/11/5 5/12/4
f 10/13/6 11/14/7 7/15/6
f 10/13/6 12/16/7 11/14/7
f 13/17/8 11/14/7 12/16/7
f 14/18/8 11/14/7 13/17/8
f 15/19/9 1/20/9 4/21/9
f 15/19/9 4/21/9 16/22/9
f 17/23/10 2/24/3 3/25/2
f 18/26/10 2/24/3 17/23/10
f 19/27/11 21/28/11 20/29/11
f 21/28/11 19/27/11 22/30/11
f 23/31/11 20/32/11 24/33/11
f 20/32/11 23/31/11 19/34/11
f 25/35/11 27/36/11 26/37/11
f 27/36/11 25/35/11 28/38/11
f 7/39/6 11/40/7 29/41/12
f 7/39/6 29/41/12 6/42/6
f 14/43/8 29/44/12 11/45/7
f 30/46/8 29/44/12 14/43/8
f 31/47/10 26/48/8 27/49/10
f 31/47/10 27/49/10 32/50/10
f 33/51/10 24/52/8 20/53/10
f 33/51/10 20/53/10 34/54/8
f 34/55/8 20/56/10 21/57/10
f 34/55/8 21/57/10 35/58/8
f 36/59/13 37/60/13 19/61/14
f 19/61/14 37/60/13 22/62/13
f 36/63/13 23/64/14 38/65/13
f 23/64/14 36/63/13 19/66/14
f 39/67/13 40/68/13 25/69/13
f 25/69/13 40/68/13 28/70/13
f 41/71/14 43/72/15 42/73/16
f 41/71/14 42/73/16 44/74/14
f 45/75/13 43/76/15 41/77/14
f 45/75/13 46/78/15 43/76/15
f 47/79/17 43/76/15 46/78/15
f 43/76/15 47/79/17 48/80/17
f 49/81/13 51/82/18 50/83/19
f 49/81/13 50/83/19 52/84/13
f 53/85/11 48/86/11 47/87/11
f 48/86/11 53/85/11 54/88/11
f 55/89/20 50/90/19 51/91/18
f 50/90/20 55/89/20 56/92/20
f 48/93/17 42/94/16 43/95/15
f 42/94/16 48/93/17 57/96/17
f 54/97/11 57/98/11 48/99/11
f 57/98/11 54/97/11 58/100/11
f 59/101/21 56/102/21 55/103/21
f 56/102/21 59/101/21 60/104/21
f 61/105/8 63/106/1 62/107/22
f 64/108/23 63/106/1 61/105/8
f 61/109/8 62/110/22 65/111/8
f 65/111/8 62/110/22 66/112/22
f 53/113/24 66/112/22 62/110/22
f 53/113/24 62/110/22 54/114/24
f 54/115/24 62/116/22 63/117/1
f 54/115/24 63/117/1 58/118/24
f 67/119/4 69/120/4 68/121/4
f 67/119/4 68/121/4 70/122/4
f 71/123/4 72/124/4 69/125/4
f 71/123/4 69/125/4 67/126/4
f 73/127/4 75/128/4 74/129/4
f 75/128/4 73/127/4 76/130/4
f 77/131/25 76/132/25 73/133/25
f 76/132/25 77/131/25 78/134/25
f 79/135/25 69/136/25 72/137/25
f 69/136/25 79/135/25 80/138/25
f 80/139/25 68/140/25 69/141/25
f 68/140/25 80/139/25 81/142/25
f 82/143/26 67/144/26 83/145/26
f 67/144/26 70/146/26 83/145/26
f 67/147/26 82/148/26 71/149/26
f 84/150/27 71/149/27 82/148/27
f 85/151/26 74/152/26 86/153/26
f 74/152/26 75/154/26 86/153/26
f 87/155/13 89/156/15 88/157/28
f 87/155/13 88/157/28 90/158/13
f 91/159/13 89/160/15 87/161/13
f 91/159/13 92/162/14 89/160/15
f 9/163/29 89/160/15 92/162/14
f 89/160/15 9/163/29 5/164/29
f 5/165/29 88/166/28 89/167/15
f 88/166/28 5/165/29 8/168/29
f 93/169/6 95/170/2 94/171/30
f 93/169/6 94/171/30 96/172/6
f 97/173/8 94/174/30 95/175/2
f 98/176/8 94/174/30 97/173/8
f 99/177/13 101/178/18 100/179/29
f 99/177/13 100/179/29 102/180/13
f 103/181/20 100/182/29 101/183/18
f 100/182/29 103/181/20 104/184/20
