# Blender v3.4.1 OBJ File: 'track.blend'
# www.blender.org
mtllib _0TRIBUENE_02_025_SUB0_Scene.189.mtl
o _0TRIBUENE_02_025_SUB0_Scene.189
v 152.764297 394.307495 -12.102996
v 153.762802 394.093964 -10.802995
v 153.762802 394.093964 -12.102996
v 152.764297 394.307495 -10.802995
v 159.563095 426.633911 -12.102990
v 152.773499 394.294159 -10.802995
v 152.773605 394.294159 -12.102996
v 159.563095 426.633911 -10.802989
v 159.563095 426.633911 -12.302989
v 152.773605 394.294159 -12.302995
v 153.760498 394.083069 -12.102996
v 153.760605 394.083069 -12.302995
v 164.525803 391.822998 -7.402990
v 164.525803 391.822998 -7.202990
v 159.542694 426.613403 -12.102990
v 159.542694 426.613403 -10.802989
v 164.528107 391.833893 -7.202990
v 164.528107 391.833893 -5.902990
v 173.300003 423.776855 -7.181164
v 166.504288 391.408112 -7.181169
v 166.504288 391.408112 -5.881169
v 173.300003 423.776855 -5.881164
v 173.300003 423.776855 -7.381164
v 166.504288 391.408112 -7.381169
v 166.481094 391.437286 -7.181581
v 166.481094 391.437286 -5.881582
v 173.265198 423.751007 -5.881577
v 173.265198 423.751007 -7.181576
v 153.760498 394.083069 -10.802995
v 164.525803 391.822998 -5.902990
v 164.523804 391.848206 -7.181582
v 164.523804 391.848206 -5.881584
v 164.546982 391.818970 -7.381171
v 164.546982 391.818970 -7.181170
v 164.546982 391.818970 -5.881171
v 171.342697 424.187805 -7.181165
v 171.342697 424.187805 -5.881166
v 171.342697 424.187805 -7.381166
v 171.307785 424.161896 -7.181577
v 171.307785 424.161896 -5.881578
v 164.531281 391.849213 -7.202990
v 153.766006 394.109283 -10.802995
v 153.766006 394.109283 -12.102996
v 164.531281 391.849213 -5.902990
v 164.531281 391.849213 -7.402990
v 153.766006 394.109283 -12.302995
v 152.796005 394.308899 -12.302995
v 152.796005 394.308899 -12.102996
v 164.533585 391.860107 -7.202990
v 153.768280 394.120178 -10.802995
v 153.768280 394.120178 -12.102996
v 164.533585 391.860107 -5.902990
v 159.577698 426.611511 -12.302989
v 159.577698 426.611511 -12.102990
v 152.786697 394.322174 -12.102996
v 152.786697 394.322174 -10.802995
v 152.796005 394.308899 -10.802995
v 159.577698 426.611511 -10.802989
v 159.568893 426.607758 -12.102990
v 159.568893 426.607758 -10.802989
v 171.311401 424.144012 -7.202985
v 160.546097 426.404083 -12.102990
v 160.546097 426.404083 -10.802989
v 171.311401 424.144012 -5.902985
v 171.311401 424.144012 -7.402985
v 160.546097 426.404083 -12.302989
v 173.259003 423.750183 -7.181164
v 166.477600 391.449097 -5.881169
v 166.477600 391.449097 -7.181169
v 173.259003 423.750183 -5.881164
v 173.259003 423.750183 -7.381164
v 166.477600 391.449097 -7.381169
v 166.454300 391.478180 -7.181581
v 173.224197 423.724213 -7.181576
v 173.224197 423.724213 -5.881577
v 166.454300 391.478180 -5.881582
v 164.533783 391.896088 -7.181582
v 164.533783 391.896088 -5.881584
v 164.557083 391.866913 -7.381171
v 164.557083 391.866913 -7.181170
v 164.557083 391.866913 -5.881171
v 171.332596 424.139984 -7.181165
v 171.332596 424.139984 -5.881166
v 171.332596 424.139984 -7.381166
v 171.297806 424.114014 -7.181577
v 171.297806 424.114014 -5.881578
v 171.316895 424.170258 -7.202985
v 160.551697 426.430298 -10.802989
v 160.551697 426.430298 -12.102990
v 171.316895 424.170258 -5.902985
v 171.316895 424.170258 -7.402985
v 160.551697 426.430298 -12.302989
v 159.544601 426.603455 -12.102990
v 160.543182 426.389862 -10.802989
v 160.543182 426.389862 -12.102990
v 159.544601 426.603455 -10.802989
v 171.308395 424.129791 -7.202985
v 171.308395 424.129791 -5.902985
v 171.313904 424.156006 -7.202985
v 160.548599 426.416077 -10.802989
v 160.548599 426.416077 -12.102990
v 171.313904 424.156006 -5.902985
v 159.567001 426.618073 -12.102990
v 159.567001 426.618073 -10.802989
vt 102.061203 1.445998
vt 106.201202 1.445998
vt 106.201202 1.808102
vt 102.061203 1.808102
vt -1.128167 1.445998
vt 7.317342 1.445998
vt 7.317341 1.808102
vt -1.128167 1.808102
vt 0.439238 1.852482
vt 0.439238 1.852482
vt 0.439238 1.901746
vt 0.439238 1.901746
vt 0.439238 1.901746
vt 0.439238 1.852482
vt 0.439238 1.852482
vt 0.439238 1.901746
vt -32.960171 1.445998
vt -32.960171 1.808102
vt -133.517502 1.445998
vt -20.685499 1.808102
vt -20.685499 1.445998
vt -133.517502 1.808102
vt 1.994339 1.445998
vt 10.414750 1.808102
vt 10.414750 1.445998
vt 1.994339 1.808102
vt 0.439238 1.852482
vt 0.439238 1.901746
vt 0.439238 1.852482
vt 0.439238 1.901746
vt 103.806503 1.445998
vt -30.874689 1.808102
vt 103.806503 1.808102
vt -30.874689 1.445998
vt 7.573064 1.445998
vt 7.573063 1.808102
vt -7.406326 1.445998
vt -0.354325 1.808102
vt -0.354325 1.445998
vt -7.406326 1.808102
vt 111.989601 1.445998
vt 111.989601 1.808102
vt 0.439238 1.852482
vt 0.439238 1.901746
vt 10.925800 1.445998
vt 10.925800 1.808102
vt 1.483288 1.445998
vt 1.483288 1.808102
vt 0.439238 1.901746
vt 0.439238 1.852482
vt -39.057812 1.445998
vt -39.057812 1.808102
vt -7.406326 1.445998
vt -0.354325 1.445998
vt -0.354325 1.808102
vt -7.406326 1.808102
vt 0.439238 1.852482
vt 0.439238 1.901746
vt 0.439238 1.901746
vt 0.439238 1.852482
vt 0.439238 1.852482
vt 0.439238 1.901746
vt -133.517502 1.445998
vt -20.685499 1.445998
vt -20.685499 1.808102
vt -133.517502 1.808102
vt 0.439238 1.852482
vt 0.439238 1.901746
vt 102.061203 1.445998
vt 106.201202 1.808102
vt 106.201202 1.445998
vt 102.061203 1.808102
vt 7.317342 1.445998
vt 7.573063 1.808102
vt 7.573064 1.445998
vt 7.317341 1.808102
vt -1.128167 1.445998
vt -1.128167 1.808102
vt -32.960171 1.445998
vt -32.960171 1.808102
vt -7.406326 1.445998
vt -0.354325 1.808102
vt -0.354325 1.445998
vt -7.406326 1.808102
vt 0.439238 1.901746
vt 0.439238 1.901746
vt 0.439238 1.852482
vt 0.439238 1.852482
vt 7.317342 1.445998
vt 7.573064 1.445998
vt 7.573063 1.808102
vt 7.317341 1.808102
vt 1.994339 1.445998
vt 10.414750 1.445998
vt 10.414750 1.808102
vt 1.994339 1.808102
vt 0.439238 1.852482
vt 0.439238 1.852482
vt 0.439238 1.901746
vt 0.439238 1.901746
vt 103.806503 1.445998
vt -30.874689 1.808102
vt -30.874689 1.445998
vt 103.806503 1.808102
vt 111.989601 1.445998
vt 111.989601 1.808102
vt 0.439238 1.852482
vt 0.439238 1.901746
vt 10.925800 1.445998
vt 10.925800 1.808102
vt 1.483288 1.445998
vt 1.483288 1.808102
vt 0.439238 1.901746
vt 0.439238 1.852482
vt -39.057812 1.445998
vt -39.057812 1.808102
vt -7.406326 1.445998
vt -0.354325 1.445998
vt -0.354325 1.808102
vt -7.406326 1.808102
vt 0.439238 1.852482
vt 0.439238 1.901746
vt 0.439238 1.901746
vt 0.439238 1.852482
vt 7.317342 1.445998
vt 7.573063 1.808102
vt 7.573064 1.445998
vt 7.317341 1.808102
vt 102.061203 1.445998
vt 106.201202 1.445998
vt 106.201202 1.808102
vt 102.061203 1.808102
vt -133.517502 1.445998
vt -20.685499 1.808102
vt -20.685499 1.445998
vt -133.517502 1.808102
vt -133.517502 1.445998
vt -20.685499 1.445998
vt -20.685499 1.808102
vt -133.517502 1.808102
vt 102.061203 1.445998
vt 106.201202 1.808102
vt 106.201202 1.445998
vt 102.061203 1.808102
vn -0.2091 -0.9779 0.0000
vn -0.2057 -0.9786 0.0000
vn -0.2089 -0.9779 0.0000
vn -0.9787 0.2055 -0.0000
vn -0.9787 0.2055 -0.0001
vn -0.2092 -0.9779 -0.0000
vn -0.2090 -0.9779 -0.0000
vn -0.2091 -0.9779 -0.0001
vn -0.2055 -0.9787 -0.0000
vn -0.9787 0.2053 0.0000
vn 0.9787 -0.2055 0.0000
vn -0.2054 -0.9787 0.0000
vn 0.2055 0.9787 0.0000
vn 0.2054 0.9787 0.0000
vn 0.2018 0.9794 -0.0000
vn 0.2016 0.9795 0.0000
vn 0.2052 0.9787 0.0000
vn 0.2027 0.9792 -0.0000
vn 0.9786 -0.2056 0.0000
vn -0.2094 -0.9778 0.0000
vn 0.2126 0.9771 0.0000
vn -0.1983 -0.9801 0.0000
vn 0.2020 0.9794 0.0000
vn 0.2017 0.9794 0.0000
vn -0.2088 -0.9780 0.0000
usemtl GitterMat
s 1
f 1/1/1 3/2/2 2/3/3
f 1/1/1 2/3/3 4/4/1
f 5/5/4 7/6/4 6/7/5
f 5/5/4 6/7/5 8/8/4
f 9/9/4 10/10/4 7/11/4
f 9/9/4 7/11/4 5/12/4
f 10/10/6 11/13/7 7/11/6
f 10/10/6 12/14/8 11/13/7
f 13/15/9 11/13/7 12/14/8
f 14/16/9 11/13/7 13/15/9
f 15/17/10 1/1/10 4/4/10
f 15/17/10 4/4/10 16/18/10
f 17/19/9 2/20/3 3/21/2
f 18/22/9 2/20/3 17/19/9
f 19/23/11 21/24/11 20/25/11
f 21/24/11 19/23/11 22/26/11
f 23/27/11 20/28/11 24/29/11
f 20/28/11 23/27/11 19/30/11
f 25/31/11 27/32/11 26/33/11
f 27/32/11 25/31/11 28/34/11
f 7/6/6 11/35/7 29/36/7
f 7/6/6 29/36/7 6/7/1
f 14/37/9 29/38/7 11/39/7
f 30/40/9 29/38/7 14/37/9
f 31/41/9 25/31/9 26/33/9
f 31/41/9 26/33/9 32/42/9
f 33/43/12 24/29/12 20/28/12
f 33/43/12 20/28/12 34/44/12
f 34/45/12 20/25/12 21/24/12
f 34/45/12 21/24/12 35/46/12
f 36/47/13 37/48/13 19/23/13
f 19/23/13 37/48/13 22/26/13
f 36/49/13 23/27/13 38/50/13
f 23/27/13 36/49/13 19/30/13
f 39/51/14 40/52/14 28/34/14
f 28/34/14 40/52/14 27/32/14
f 41/53/13 43/54/14 42/55/15
f 41/53/13 42/55/15 44/56/13
f 45/57/13 43/58/14 41/59/13
f 45/57/13 46/60/14 43/58/14
f 47/61/16 43/58/14 46/60/14
f 43/58/14 47/61/16 48/62/16
f 49/63/13 51/64/17 50/65/18
f 49/63/13 50/65/18 52/66/13
f 53/67/11 48/62/11 47/61/11
f 48/62/11 53/67/11 54/68/11
f 55/69/16 50/70/18 51/71/17
f 50/70/16 55/69/16 56/72/16
f 48/73/16 42/74/15 43/75/14
f 42/74/15 48/73/16 57/76/16
f 54/77/11 57/76/11 48/73/11
f 57/76/11 54/77/11 58/78/11
f 59/79/19 56/72/19 55/69/19
f 56/72/19 59/79/19 60/80/19
f 61/81/9 63/82/1 62/83/12
f 64/84/9 63/82/1 61/81/9
f 61/85/9 62/86/12 65/87/9
f 65/87/9 62/86/12 66/88/9
f 53/67/20 66/88/9 62/86/12
f 53/67/20 62/86/12 54/68/20
f 54/89/20 62/90/12 63/91/1
f 54/89/20 63/91/1 58/92/20
f 67/93/4 69/94/4 68/95/4
f 67/93/4 68/95/4 70/96/4
f 71/97/4 72/98/4 69/99/4
f 71/97/4 69/99/4 67/100/4
f 73/101/4 75/102/4 74/103/4
f 75/102/4 73/101/4 76/104/4
f 77/105/21 76/104/21 73/101/21
f 76/104/21 77/105/21 78/106/21
f 79/107/21 69/99/21 72/98/21
f 69/99/21 79/107/21 80/108/21
f 80/109/21 68/95/21 69/94/21
f 68/95/21 80/109/21 81/110/21
f 82/111/22 67/93/22 83/112/22
f 67/93/22 70/96/22 83/112/22
f 67/100/22 82/113/22 71/97/22
f 84/114/22 71/97/22 82/113/22
f 85/115/22 74/103/22 86/116/22
f 74/103/22 75/102/22 86/116/22
f 87/117/13 89/118/14 88/119/23
f 87/117/13 88/119/23 90/120/13
f 91/121/13 89/122/14 87/123/13
f 91/121/13 92/124/13 89/122/14
f 9/9/24 89/122/14 92/124/13
f 89/122/14 9/9/24 5/12/24
f 5/125/24 88/126/23 89/127/14
f 88/126/23 5/125/24 8/128/24
f 93/129/6 95/130/2 94/131/25
f 93/129/6 94/131/25 96/132/6
f 97/133/9 94/134/25 95/135/2
f 98/136/9 94/134/25 97/133/9
f 99/137/13 101/138/17 100/139/15
f 99/137/13 100/139/15 102/140/13
f 103/141/16 100/142/15 101/143/17
f 100/142/15 103/141/16 104/144/16
