# Blender v3.1.2 OBJ File: 'track.blend'
# www.blender.org
mtllib _0TRIBUENE_02_013_SUB0.mtl
o _0TRIBUENE_02_013_SUB0_Scene.155
v 35092.640625 99585.679688 -2015.871948
v 34992.750000 99564.476562 -1885.872070
v 34992.750000 99564.476562 -2015.871948
v 35092.640625 99585.679688 -1885.872070
v 35789.531250 96356.671875 -2015.871948
v 35091.250000 99586.515625 -1885.872070
v 35091.250000 99586.515625 -2015.871948
v 35789.531250 96356.671875 -1885.872070
v 35789.519531 96356.671875 -2035.872070
v 35091.250000 99586.515625 -2035.872070
v 34992.519531 99565.554688 -2015.871948
v 34992.519531 99565.554688 -2035.872070
v 32529.431641 99033.062500 -915.871216
v 32529.431641 99033.062500 -895.871155
v 35790.546875 96359.367188 -2015.871948
v 35790.546875 96359.367188 -1885.872070
v 32529.660156 99031.984375 -895.871155
v 32529.660156 99031.984375 -765.871216
v 33030.750000 95757.531250 -893.689148
v 32331.851562 98990.304688 -893.689148
v 32331.851562 98990.304688 -763.689209
v 33030.750000 95757.531250 -763.689209
v 33030.750000 95757.531250 -913.689209
v 32331.851562 98990.304688 -913.689209
v 32335.160156 98988.578125 -893.730347
v 32335.160156 98988.578125 -763.730469
v 33032.871094 95761.320312 -763.730469
v 33032.871094 95761.320312 -893.730347
v 34992.519531 99565.554688 -1885.872070
v 32529.431641 99033.062500 -765.871216
v 32530.640625 99030.843750 -893.730347
v 32530.640625 99030.843750 -763.730469
v 32527.328125 99032.562500 -913.689209
v 32527.328125 99032.562500 -893.689331
v 32527.328125 99032.562500 -763.689209
v 33226.230469 95799.796875 -893.689331
v 33226.230469 95799.796875 -763.689209
v 33226.230469 95799.796875 -913.689209
v 33228.351562 95803.585938 -893.730347
v 33228.351562 95803.585938 -763.730469
v 32529.990234 99030.437500 -895.871155
v 34993.089844 99562.953125 -1885.872070
v 34993.089844 99562.953125 -2015.871948
v 32529.990234 99030.437500 -765.871216
v 32529.990234 99030.437500 -915.871216
v 34993.089844 99562.953125 -2035.872070
v 35089.800781 99584.273438 -2035.872070
v 35089.800781 99584.273438 -2015.871948
v 32530.230469 99029.359375 -895.871155
v 34993.320312 99561.859375 -1885.872070
v 34993.320312 99561.859375 -2015.871948
v 32530.230469 99029.359375 -765.871216
v 35787.269531 96358.117188 -2035.872070
v 35787.269531 96358.117188 -2015.871948
v 35091.199219 99583.429688 -2015.871948
v 35091.199219 99583.429688 -1885.872070
v 35089.800781 99584.273438 -1885.872070
v 35787.269531 96358.117188 -1885.872070
v 35787.929688 96358.804688 -2015.871948
v 35787.929688 96358.804688 -1885.872070
v 33227.300781 95805.070312 -895.871155
v 35690.390625 96337.578125 -2015.871948
v 35690.390625 96337.578125 -1885.872070
v 33227.300781 95805.070312 -765.871216
v 33227.300781 95805.070312 -915.871216
v 35690.390625 96337.578125 -2035.872070
v 33033.402344 95761.648438 -893.689148
v 32335.958984 98987.656250 -763.689209
v 32335.958984 98987.656250 -893.689148
v 33033.402344 95761.648438 -763.689209
v 33033.402344 95761.648438 -913.689209
v 32335.958984 98987.656250 -913.689209
v 32339.269531 98985.929688 -893.730347
v 33035.519531 95765.445312 -893.730347
v 33035.519531 95765.445312 -763.730469
v 32339.269531 98985.929688 -763.730469
v 32531.679688 99026.062500 -893.730347
v 32531.679688 99026.062500 -763.730469
v 32528.359375 99027.773438 -913.689209
v 32528.359375 99027.773438 -893.689331
v 32528.359375 99027.773438 -763.689209
v 33225.203125 95804.578125 -893.689331
v 33225.203125 95804.578125 -763.689209
v 33225.203125 95804.578125 -913.689209
v 33227.320312 95808.367188 -893.730347
v 33227.320312 95808.367188 -763.730469
v 33227.867188 95802.445312 -895.871155
v 35690.949219 96334.960938 -1885.872070
v 35690.949219 96334.960938 -2015.871948
v 33227.867188 95802.445312 -765.871216
v 33227.867188 95802.445312 -915.871216
v 35690.949219 96334.960938 -2035.872070
v 35789.968750 96360.195312 -2015.871948
v 35690.078125 96339.000000 -1885.872070
v 35690.078125 96339.000000 -2015.871948
v 35789.968750 96360.195312 -1885.872070
v 33226.988281 95806.484375 -895.871155
v 33226.988281 95806.484375 -765.871216
v 33227.558594 95803.882812 -895.871155
v 35690.648438 96336.375000 -1885.872070
v 35690.648438 96336.375000 -2015.871948
v 33227.558594 95803.882812 -765.871216
v 35788.519531 96357.953125 -2015.871948
v 35788.519531 96357.953125 -1885.872070
vt 102.061203 1.445998
vt 106.201202 1.445998
vt 106.201202 1.808102
vt 102.061203 1.808102
vt -1.128167 1.445998
vt 7.317342 1.445998
vt 7.317341 1.808102
vt -1.128167 1.808102
vt 0.439238 1.852482
vt 0.439238 1.852482
vt 0.439238 1.901746
vt 0.439238 1.901746
vt 0.439238 1.901746
vt 0.439238 1.852482
vt 0.439238 1.852482
vt 0.439238 1.901746
vt -32.960171 1.445998
vt -32.960171 1.808102
vt -133.517502 1.445998
vt -20.685499 1.808102
vt -20.685499 1.445998
vt -133.517502 1.808102
vt 1.994339 1.445998
vt 10.414750 1.808102
vt 10.414750 1.445998
vt 1.994339 1.808102
vt 0.439238 1.852482
vt 0.439238 1.901746
vt 0.439238 1.852482
vt 0.439238 1.901746
vt 103.806503 1.445998
vt -30.874689 1.808102
vt 103.806503 1.808102
vt -30.874689 1.445998
vt 7.573064 1.445998
vt 7.573063 1.808102
vt -7.406326 1.445998
vt -0.354325 1.808102
vt -0.354325 1.445998
vt -7.406326 1.808102
vt 111.989601 1.445998
vt 111.989601 1.808102
vt 0.439238 1.852482
vt 0.439238 1.901746
vt 10.925800 1.445998
vt 10.925800 1.808102
vt 1.483288 1.445998
vt 1.483288 1.808102
vt 0.439238 1.901746
vt 0.439238 1.852482
vt -39.057812 1.445998
vt -39.057812 1.808102
vt -7.406326 1.445998
vt -0.354325 1.445998
vt -0.354325 1.808102
vt -7.406326 1.808102
vt 0.439238 1.852482
vt 0.439238 1.901746
vt 0.439238 1.901746
vt 0.439238 1.852482
vt 0.439238 1.852482
vt 0.439238 1.901746
vt -133.517502 1.445998
vt -20.685499 1.445998
vt -20.685499 1.808102
vt -133.517502 1.808102
vt 0.439238 1.852482
vt 0.439238 1.901746
vt 102.061203 1.445998
vt 106.201202 1.808102
vt 106.201202 1.445998
vt 102.061203 1.808102
vt 7.317342 1.445998
vt 7.573063 1.808102
vt 7.573064 1.445998
vt 7.317341 1.808102
vt -1.128167 1.445998
vt -1.128167 1.808102
vt -32.960171 1.445998
vt -32.960171 1.808102
vt -7.406326 1.445998
vt -0.354325 1.808102
vt -0.354325 1.445998
vt -7.406326 1.808102
vt 0.439238 1.901746
vt 0.439238 1.901746
vt 0.439238 1.852482
vt 0.439238 1.852482
vt 7.317342 1.445998
vt 7.573064 1.445998
vt 7.573063 1.808102
vt 7.317341 1.808102
vt 1.994339 1.445998
vt 10.414750 1.445998
vt 10.414750 1.808102
vt 1.994339 1.808102
vt 0.439238 1.852482
vt 0.439238 1.852482
vt 0.439238 1.901746
vt 0.439238 1.901746
vt 103.806503 1.445998
vt -30.874689 1.808102
vt -30.874689 1.445998
vt 103.806503 1.808102
vt 111.989601 1.445998
vt 111.989601 1.808102
vt 0.439238 1.852482
vt 0.439238 1.901746
vt 10.925800 1.445998
vt 10.925800 1.808102
vt 1.483288 1.445998
vt 1.483288 1.808102
vt 0.439238 1.901746
vt 0.439238 1.852482
vt -39.057812 1.445998
vt -39.057812 1.808102
vt -7.406326 1.445998
vt -0.354325 1.445998
vt -0.354325 1.808102
vt -7.406326 1.808102
vt 0.439238 1.852482
vt 0.439238 1.901746
vt 0.439238 1.901746
vt 0.439238 1.852482
vt 7.317342 1.445998
vt 7.573063 1.808102
vt 7.573064 1.445998
vt 7.317341 1.808102
vt 102.061203 1.445998
vt 106.201202 1.445998
vt 106.201202 1.808102
vt 102.061203 1.808102
vt -133.517502 1.445998
vt -20.685499 1.808102
vt -20.685499 1.445998
vt -133.517502 1.808102
vt -133.517502 1.445998
vt -20.685499 1.445998
vt -20.685499 1.808102
vt -133.517502 1.808102
vt 102.061203 1.445998
vt 106.201202 1.808102
vt 106.201202 1.445998
vt 102.061203 1.808102
vn -0.2076 0.9782 0.0000
vn -0.2110 0.9775 -0.0000
vn -0.2079 0.9782 0.0000
vn 0.9774 0.2113 0.0001
vn 0.9774 0.2113 -0.0000
vn 0.9774 0.2113 0.0002
vn -0.2077 0.9782 0.0000
vn -0.2113 0.9774 0.0000
vn 0.9774 0.2114 0.0000
vn -0.9774 -0.2113 0.0000
vn -0.2078 0.9782 0.0000
vn 0.2113 -0.9774 0.0000
vn 0.2114 -0.9774 -0.0000
vn 0.2150 -0.9766 0.0000
vn 0.2116 -0.9773 0.0000
vn 0.2153 -0.9766 0.0000
vn 0.2117 -0.9773 -0.0000
vn 0.2141 -0.9768 0.0000
vn 0.2156 -0.9765 -0.0000
vn 0.2149 -0.9766 0.0000
vn -0.9774 -0.2112 0.0000
vn -0.2114 0.9774 -0.0000
vn -0.2074 0.9783 0.0000
vn 0.2042 -0.9789 0.0000
vn 0.2041 -0.9789 0.0000
vn -0.2184 0.9759 0.0000
vn 0.2148 -0.9767 -0.0000
vn 0.2115 -0.9774 -0.0000
vn 0.2151 -0.9766 0.0000
vn 0.2151 -0.9766 -0.0002
vn 0.2151 -0.9766 -0.0001
vn -0.2079 0.9781 0.0000
vn 0.2116 -0.9774 0.0000
vn 0.2153 -0.9765 0.0000
usemtl GitterMat
s 1
f 1/1/1 3/2/2 2/3/3
f 1/1/1 2/3/3 4/4/1
f 5/5/4 7/6/5 6/7/5
f 5/5/4 6/7/5 8/8/5
f 9/9/6 10/10/5 7/11/5
f 9/9/6 7/11/5 5/12/4
f 10/10/7 11/13/7 7/11/7
f 10/10/7 12/14/1 11/13/7
f 13/15/8 11/13/7 12/14/1
f 14/16/8 11/13/7 13/15/8
f 15/17/9 1/1/9 4/4/9
f 15/17/9 4/4/9 16/18/9
f 17/19/8 2/20/3 3/21/2
f 18/22/8 2/20/3 17/19/8
f 19/23/10 21/24/10 20/25/10
f 21/24/10 19/23/10 22/26/10
f 23/27/10 20/28/10 24/29/10
f 20/28/10 23/27/10 19/30/10
f 25/31/10 27/32/10 26/33/10
f 27/32/10 25/31/10 28/34/10
f 7/6/7 11/35/7 29/36/11
f 7/6/7 29/36/11 6/7/7
f 14/37/8 29/38/11 11/39/7
f 30/40/8 29/38/11 14/37/8
f 31/41/8 25/31/8 26/33/8
f 31/41/8 26/33/8 32/42/8
f 33/43/8 24/29/8 20/28/8
f 33/43/8 20/28/8 34/44/8
f 34/45/8 20/25/8 21/24/8
f 34/45/8 21/24/8 35/46/8
f 36/47/12 37/48/12 19/23/12
f 19/23/12 37/48/12 22/26/12
f 36/49/12 23/27/12 38/50/12
f 23/27/12 36/49/12 19/30/12
f 39/51/12 40/52/12 28/34/12
f 28/34/12 40/52/12 27/32/12
f 41/53/12 43/54/13 42/55/14
f 41/53/12 42/55/14 44/56/12
f 45/57/15 43/58/13 41/59/12
f 45/57/15 46/60/13 43/58/13
f 47/61/16 43/58/13 46/60/13
f 43/58/13 47/61/16 48/62/16
f 49/63/12 51/64/17 50/65/18
f 49/63/12 50/65/18 52/66/12
f 53/67/10 48/62/10 47/61/10
f 48/62/10 53/67/10 54/68/10
f 55/69/19 50/70/18 51/71/17
f 50/70/20 55/69/20 56/72/20
f 48/73/16 42/74/14 43/75/13
f 42/74/14 48/73/16 57/76/16
f 54/77/10 57/76/10 48/73/10
f 57/76/10 54/77/10 58/78/10
f 59/79/21 56/72/21 55/69/21
f 56/72/21 59/79/21 60/80/21
f 61/81/8 63/82/1 62/83/8
f 64/84/8 63/82/1 61/81/8
f 61/85/8 62/86/8 65/87/8
f 65/87/8 62/86/8 66/88/22
f 53/67/23 66/88/22 62/86/8
f 53/67/23 62/86/8 54/68/23
f 54/89/23 62/90/8 63/91/1
f 54/89/23 63/91/1 58/92/23
f 67/93/5 69/94/5 68/95/5
f 67/93/5 68/95/5 70/96/5
f 71/97/5 72/98/5 69/99/5
f 71/97/5 69/99/5 67/100/5
f 73/101/5 75/102/5 74/103/5
f 75/102/5 73/101/5 76/104/5
f 77/105/24 76/104/24 73/101/24
f 76/104/24 77/105/24 78/106/24
f 79/107/25 69/99/25 72/98/25
f 69/99/25 79/107/25 80/108/25
f 80/109/25 68/95/25 69/94/25
f 68/95/25 80/109/25 81/110/25
f 82/111/26 67/93/26 83/112/26
f 67/93/26 70/96/26 83/112/26
f 67/100/26 82/113/26 71/97/26
f 84/114/26 71/97/26 82/113/26
f 85/115/26 74/103/26 86/116/26
f 74/103/26 75/102/26 86/116/26
f 87/117/12 89/118/13 88/119/27
f 87/117/12 88/119/27 90/120/12
f 91/121/12 89/122/13 87/123/12
f 91/121/12 92/124/28 89/122/13
f 9/9/29 89/122/13 92/124/28
f 89/122/13 9/9/30 5/12/31
f 5/125/31 88/126/27 89/127/13
f 88/126/27 5/125/31 8/128/27
f 93/129/1 95/130/2 94/131/32
f 93/129/1 94/131/32 96/132/1
f 97/133/8 94/134/32 95/135/2
f 98/136/8 94/134/32 97/133/8
f 99/137/12 101/138/33 100/139/14
f 99/137/12 100/139/14 102/140/12
f 103/141/34 100/142/14 101/143/33
f 100/142/14 103/141/34 104/144/34
