# Blender v3.4.1 OBJ File: 'track.blend'
# www.blender.org
mtllib _0TRIBUENE_02_027_SUB0_Scene.195.mtl
o _0TRIBUENE_02_027_SUB0_Scene.195
v -222.549606 266.604187 -13.297125
v -222.584900 267.624786 -11.997127
v -222.584900 267.624786 -13.297125
v -222.549606 266.604187 -11.997127
v -255.559296 265.348389 -13.297126
v -222.538879 266.616486 -11.997127
v -222.538879 266.616486 -13.297125
v -255.559296 265.348389 -11.997128
v -255.559296 265.348389 -13.497128
v -222.538879 266.616486 -13.497127
v -222.573807 267.625214 -13.297125
v -222.573807 267.625214 -13.497127
v -222.995895 278.617004 -8.597125
v -222.995895 278.617004 -8.397125
v -255.534393 265.333588 -13.297126
v -255.534393 265.333588 -11.997128
v -223.007004 278.616608 -8.397125
v -223.007004 278.616608 -7.097126
v -256.124115 279.368011 -8.375305
v -223.074005 280.637085 -8.375305
v -223.074005 280.637085 -7.075305
v -256.124115 279.368011 -7.075305
v -256.124115 279.368011 -8.575306
v -223.074005 280.637085 -8.575306
v -223.096603 280.607513 -8.375717
v -223.096603 280.607513 -7.075718
v -256.090515 279.340515 -7.075719
v -256.090515 279.340515 -8.375717
v -222.573807 267.625214 -11.997127
v -222.995895 278.617004 -7.097126
v -223.019897 278.608887 -8.375717
v -223.019897 278.608887 -7.075719
v -222.997177 278.638611 -8.575306
v -222.997177 278.638611 -8.375305
v -222.997177 278.638611 -7.075305
v -256.047394 277.369354 -8.375306
v -256.047394 277.369354 -7.075305
v -256.047394 277.369354 -8.575307
v -256.013702 277.341888 -8.375718
v -256.013702 277.341888 -7.075719
v -223.022690 278.615997 -8.397125
v -222.600601 267.624115 -11.997127
v -222.600601 267.624115 -13.297125
v -223.022690 278.615997 -7.097126
v -223.022690 278.615997 -8.597125
v -222.600601 267.624115 -13.497127
v -222.558594 266.634613 -13.497127
v -222.558594 266.634613 -13.297125
v -223.033783 278.615601 -8.397125
v -222.611694 267.623688 -11.997127
v -222.611694 267.623688 -13.297125
v -223.033783 278.615601 -7.097126
v -255.541107 265.368011 -13.497128
v -255.541107 265.368011 -13.297126
v -222.569290 266.622406 -13.297125
v -222.569290 266.622406 -11.997127
v -222.558594 266.634613 -11.997127
v -255.541107 265.368011 -11.997128
v -255.535507 265.360413 -13.297126
v -255.535507 265.360413 -11.997128
v -255.997299 277.349701 -8.397126
v -255.575089 266.357788 -13.297125
v -255.575089 266.357788 -11.997127
v -255.997299 277.349701 -7.097126
v -255.997299 277.349701 -8.597126
v -255.575089 266.357788 -13.497127
v -256.088196 279.334686 -8.375305
v -223.107178 280.601196 -7.075305
v -223.107178 280.601196 -8.375305
v -256.088196 279.334686 -7.075305
v -256.088196 279.334686 -8.575306
v -223.107178 280.601196 -8.575306
v -223.129898 280.571503 -8.375717
v -256.054596 279.307190 -8.375717
v -256.054596 279.307190 -7.075719
v -223.129898 280.571503 -7.075718
v -223.068802 278.607086 -8.375717
v -223.068802 278.607086 -7.075719
v -223.046082 278.636688 -8.575306
v -223.046082 278.636688 -8.375305
v -223.046082 278.636688 -7.075305
v -255.998489 277.371307 -8.375306
v -255.998489 277.371307 -7.075305
v -255.998489 277.371307 -8.575307
v -255.964798 277.343811 -8.375718
v -255.964798 277.343811 -7.075719
v -256.023987 277.348694 -8.397126
v -255.601883 266.356812 -11.997127
v -255.601883 266.356812 -13.297125
v -256.023987 277.348694 -7.097126
v -256.023987 277.348694 -8.597126
v -255.601883 266.356903 -13.497127
v -255.525284 265.337891 -13.297126
v -255.560577 266.358398 -11.997127
v -255.560577 266.358490 -13.297125
v -255.525284 265.337891 -11.997128
v -255.982697 277.350311 -8.397126
v -255.982697 277.350311 -7.097126
v -256.009491 277.349304 -8.397126
v -255.587402 266.357391 -11.997127
v -255.587402 266.357391 -13.297125
v -256.009491 277.349304 -7.097126
v -255.544998 265.356110 -13.297126
v -255.544998 265.356110 -11.997128
vt 102.061203 1.445998
vt 106.201202 1.445998
vt 106.201202 1.808102
vt 102.061203 1.808102
vt -1.128167 1.445998
vt 7.317342 1.445998
vt 7.317341 1.808102
vt -1.128167 1.808102
vt 0.439238 1.852482
vt 0.439238 1.852482
vt 0.439238 1.901746
vt 0.439238 1.901746
vt 0.439238 1.901746
vt 0.439238 1.852482
vt 0.439238 1.852482
vt 0.439238 1.901746
vt -32.960171 1.445998
vt -32.960171 1.808102
vt -133.517502 1.445998
vt -20.685499 1.808102
vt -20.685499 1.445998
vt -133.517502 1.808102
vt 1.994339 1.445998
vt 10.414750 1.808102
vt 10.414750 1.445998
vt 1.994339 1.808102
vt 0.439238 1.852482
vt 0.439238 1.901746
vt 0.439238 1.852482
vt 0.439238 1.901746
vt 103.806503 1.445998
vt -30.874689 1.808102
vt 103.806503 1.808102
vt -30.874689 1.445998
vt 7.573064 1.445998
vt 7.573063 1.808102
vt -7.406326 1.445998
vt -0.354325 1.808102
vt -0.354325 1.445998
vt -7.406326 1.808102
vt 111.989601 1.445998
vt 111.989601 1.808102
vt 0.439238 1.852482
vt 0.439238 1.901746
vt 10.925800 1.445998
vt 10.925800 1.808102
vt 1.483288 1.445998
vt 1.483288 1.808102
vt 0.439238 1.901746
vt 0.439238 1.852482
vt -39.057812 1.445998
vt -39.057812 1.808102
vt -7.406326 1.445998
vt -0.354325 1.445998
vt -0.354325 1.808102
vt -7.406326 1.808102
vt 0.439238 1.852482
vt 0.439238 1.901746
vt 0.439238 1.901746
vt 0.439238 1.852482
vt 0.439238 1.852482
vt 0.439238 1.901746
vt -133.517502 1.445998
vt -20.685499 1.445998
vt -20.685499 1.808102
vt -133.517502 1.808102
vt 0.439238 1.852482
vt 0.439238 1.901746
vt 102.061203 1.445998
vt 106.201202 1.808102
vt 106.201202 1.445998
vt 102.061203 1.808102
vt 7.317342 1.445998
vt 7.573063 1.808102
vt 7.573064 1.445998
vt 7.317341 1.808102
vt -1.128167 1.445998
vt -1.128167 1.808102
vt -32.960171 1.445998
vt -32.960171 1.808102
vt -7.406326 1.445998
vt -0.354325 1.808102
vt -0.354325 1.445998
vt -7.406326 1.808102
vt 0.439238 1.901746
vt 0.439238 1.901746
vt 0.439238 1.852482
vt 0.439238 1.852482
vt 7.317342 1.445998
vt 7.573064 1.445998
vt 7.573063 1.808102
vt 7.317341 1.808102
vt 1.994339 1.445998
vt 10.414750 1.445998
vt 10.414750 1.808102
vt 1.994339 1.808102
vt 0.439238 1.852482
vt 0.439238 1.852482
vt 0.439238 1.901746
vt 0.439238 1.901746
vt 103.806503 1.445998
vt -30.874689 1.808102
vt -30.874689 1.445998
vt 103.806503 1.808102
vt 111.989601 1.445998
vt 111.989601 1.808102
vt 0.439238 1.852482
vt 0.439238 1.901746
vt 10.925800 1.445998
vt 10.925800 1.808102
vt 1.483288 1.445998
vt 1.483288 1.808102
vt 0.439238 1.901746
vt 0.439238 1.852482
vt -39.057812 1.445998
vt -39.057812 1.808102
vt -7.406326 1.445998
vt -0.354325 1.445998
vt -0.354325 1.808102
vt -7.406326 1.808102
vt 0.439238 1.852482
vt 0.439238 1.901746
vt 0.439238 1.901746
vt 0.439238 1.852482
vt 7.317342 1.445998
vt 7.573063 1.808102
vt 7.573064 1.445998
vt 7.317341 1.808102
vt 102.061203 1.445998
vt 106.201202 1.445998
vt 106.201202 1.808102
vt 102.061203 1.808102
vt -133.517502 1.445998
vt -20.685499 1.808102
vt -20.685499 1.445998
vt -133.517502 1.808102
vt -133.517502 1.445998
vt -20.685499 1.445998
vt -20.685499 1.808102
vt -133.517502 1.808102
vt 102.061203 1.445998
vt 106.201202 1.808102
vt 106.201202 1.445998
vt 102.061203 1.808102
vn 0.9994 0.0345 0.0000
vn 0.9993 0.0380 0.0000
vn 0.9994 0.0350 0.0000
vn 0.9994 0.0346 0.0000
vn 0.0384 -0.9993 0.0000
vn 0.9994 0.0347 0.0000
vn 0.9993 0.0384 0.0000
vn 0.0385 -0.9993 0.0000
vn -0.0384 0.9993 0.0000
vn 0.9994 0.0348 0.0000
vn -0.9993 -0.0384 0.0000
vn -0.9991 -0.0421 0.0000
vn -0.9993 -0.0383 0.0000
vn -0.9991 -0.0424 0.0000
vn -0.9993 -0.0387 0.0000
vn -0.9992 -0.0411 0.0000
vn -0.9991 -0.0423 0.0000
vn -0.0383 0.9993 0.0000
vn 0.9993 0.0382 0.0000
vn 0.9993 0.0383 0.0000
vn 0.9994 0.0343 0.0000
vn -0.9995 -0.0311 0.0000
vn 0.9990 0.0456 0.0000
vn 0.9990 0.0457 0.0000
vn -0.9991 -0.0417 -0.0000
vn -0.9991 -0.0422 -0.0000
vn 0.9993 0.0379 -0.0000
vn 0.9994 0.0349 0.0001
usemtl GitterMat
s 1
f 1/1/1 3/2/2 2/3/3
f 1/1/1 2/3/3 4/4/4
f 5/5/5 7/6/5 6/7/5
f 5/5/5 6/7/5 8/8/5
f 9/9/5 10/10/5 7/11/5
f 9/9/5 7/11/5 5/12/5
f 10/10/4 11/13/6 7/11/4
f 10/10/4 12/14/6 11/13/6
f 13/15/7 11/13/6 12/14/6
f 14/16/7 11/13/6 13/15/7
f 15/17/8 1/1/8 4/4/8
f 15/17/8 4/4/8 16/18/8
f 17/19/7 2/20/3 3/21/2
f 18/22/7 2/20/3 17/19/7
f 19/23/9 21/24/9 20/25/9
f 21/24/9 19/23/9 22/26/9
f 23/27/9 20/28/9 24/29/9
f 20/28/9 23/27/9 19/30/9
f 25/31/9 27/32/9 26/33/9
f 27/32/9 25/31/9 28/34/9
f 7/6/4 11/35/6 29/36/10
f 7/6/4 29/36/10 6/7/4
f 14/37/7 29/38/10 11/39/6
f 30/40/7 29/38/10 14/37/7
f 31/41/7 25/31/7 26/33/7
f 31/41/7 26/33/7 32/42/7
f 33/43/7 24/29/7 20/28/7
f 33/43/7 20/28/7 34/44/7
f 34/45/7 20/25/7 21/24/7
f 34/45/7 21/24/7 35/46/7
f 36/47/11 37/48/11 19/23/11
f 19/23/11 37/48/11 22/26/11
f 36/49/11 23/27/11 38/50/11
f 23/27/11 36/49/11 19/30/11
f 39/51/11 40/52/11 28/34/11
f 28/34/11 40/52/11 27/32/11
f 41/53/11 43/54/11 42/55/12
f 41/53/11 42/55/12 44/56/11
f 45/57/11 43/58/11 41/59/11
f 45/57/11 46/60/13 43/58/11
f 47/61/14 43/58/11 46/60/13
f 43/58/11 47/61/14 48/62/14
f 49/63/11 51/64/15 50/65/16
f 49/63/11 50/65/16 52/66/11
f 53/67/9 48/62/9 47/61/9
f 48/62/9 53/67/9 54/68/9
f 55/69/17 50/70/16 51/71/15
f 50/70/17 55/69/17 56/72/17
f 48/73/14 42/74/12 43/75/11
f 42/74/12 48/73/14 57/76/14
f 54/77/9 57/76/9 48/73/9
f 57/76/9 54/77/9 58/78/9
f 59/79/18 56/72/18 55/69/18
f 56/72/18 59/79/18 60/80/18
f 61/81/7 63/82/6 62/83/19
f 64/84/7 63/82/6 61/81/7
f 61/85/7 62/86/19 65/87/7
f 65/87/7 62/86/19 66/88/20
f 53/67/21 66/88/20 62/86/19
f 53/67/21 62/86/19 54/68/21
f 54/89/21 62/90/19 63/91/6
f 54/89/21 63/91/6 58/92/21
f 67/93/5 69/94/5 68/95/5
f 67/93/5 68/95/5 70/96/5
f 71/97/5 72/98/5 69/99/5
f 71/97/5 69/99/5 67/100/5
f 73/101/5 75/102/5 74/103/5
f 75/102/5 73/101/5 76/104/5
f 77/105/22 76/104/22 73/101/22
f 76/104/22 77/105/22 78/106/22
f 79/107/22 69/99/22 72/98/22
f 69/99/22 79/107/22 80/108/22
f 80/109/22 68/95/22 69/94/22
f 68/95/22 80/109/22 81/110/22
f 82/111/23 67/93/23 83/112/23
f 67/93/23 70/96/23 83/112/23
f 67/100/23 82/113/23 71/97/23
f 84/114/23 71/97/23 82/113/23
f 85/115/24 74/103/24 86/116/24
f 74/103/24 75/102/24 86/116/24
f 87/117/13 89/118/11 88/119/25
f 87/117/13 88/119/25 90/120/11
f 91/121/13 89/122/11 87/123/13
f 91/121/13 92/124/11 89/122/11
f 9/9/26 89/122/11 92/124/11
f 89/122/11 9/9/26 5/12/26
f 5/125/26 88/126/25 89/127/11
f 88/126/25 5/125/26 8/128/26
f 93/129/1 95/130/27 94/131/28
f 93/129/1 94/131/28 96/132/4
f 97/133/7 94/134/28 95/135/27
f 98/136/7 94/134/28 97/133/7
f 99/137/11 101/138/15 100/139/12
f 99/137/11 100/139/12 102/140/11
f 103/141/17 100/142/12 101/143/15
f 100/142/12 103/141/17 104/144/17
