# Blender v3.1.2 OBJ File: 'track.blend'
# www.blender.org
mtllib _0TRIBUENE_02_026_SUB0.mtl
o _0TRIBUENE_02_026_SUB0_Scene.191
v 14598.390625 36201.160156 -1210.306030
v 14698.250000 36179.800781 -1080.305908
v 14698.250000 36179.800781 -1210.306030
v 14598.390625 36201.160156 -1080.305908
v 15278.269531 39433.800781 -1210.306030
v 14599.319336 36199.828125 -1080.305908
v 14599.319336 36199.828125 -1210.306030
v 15278.269531 39433.800781 -1080.305908
v 15278.269531 39433.800781 -1230.305908
v 14599.319336 36199.828125 -1230.305908
v 14698.019531 36178.718750 -1210.306030
v 14698.019531 36178.718750 -1230.305908
v 15774.549805 35952.710938 -740.305420
v 15774.549805 35952.710938 -720.305420
v 15276.240234 39431.742188 -1210.306030
v 15276.240234 39431.742188 -1080.305908
v 15774.769531 35953.789062 -720.305420
v 15774.769531 35953.789062 -590.305420
v 16651.970703 39148.097656 -718.123291
v 15972.400391 35911.222656 -718.123291
v 15972.400391 35911.222656 -588.123291
v 16651.970703 39148.097656 -588.123291
v 16651.970703 39148.097656 -738.123291
v 15972.400391 35911.222656 -738.123291
v 15970.070312 35914.140625 -718.164490
v 15970.070312 35914.140625 -588.164612
v 16648.480469 39145.500000 -588.164612
v 16648.480469 39145.500000 -718.164490
v 14698.019531 36178.718750 -1080.305908
v 15774.549805 35952.710938 -590.305420
v 15774.338867 35955.230469 -718.164673
v 15774.338867 35955.230469 -588.164795
v 15776.668945 35952.308594 -738.123535
v 15776.668945 35952.308594 -718.123474
v 15776.668945 35952.308594 -588.123535
v 16456.230469 39189.191406 -718.123474
v 16456.230469 39189.191406 -588.123535
v 16456.230469 39189.191406 -738.123535
v 16452.750000 39186.601562 -718.164673
v 16452.750000 39186.601562 -588.164795
v 15775.089844 35955.332031 -720.305420
v 14698.559570 36181.339844 -1080.305908
v 14698.559570 36181.339844 -1210.306030
v 15775.089844 35955.332031 -590.305420
v 15775.089844 35955.332031 -740.305420
v 14698.559570 36181.339844 -1230.305908
v 14601.559570 36201.300781 -1230.305908
v 14601.559570 36201.300781 -1210.306030
v 15775.320312 35956.410156 -720.305420
v 14698.790039 36182.429688 -1080.305908
v 14698.790039 36182.429688 -1210.306030
v 15775.320312 35956.410156 -590.305420
v 15279.730469 39431.562500 -1230.305908
v 15279.730469 39431.562500 -1210.306030
v 14600.629883 36202.628906 -1210.306030
v 14600.629883 36202.628906 -1080.305908
v 14601.559570 36201.300781 -1080.305908
v 15279.730469 39431.562500 -1080.305908
v 15278.860352 39431.203125 -1210.306030
v 15278.860352 39431.203125 -1080.305908
v 16453.109375 39184.812500 -720.305420
v 15376.570312 39410.820312 -1210.306030
v 15376.570312 39410.820312 -1080.305908
v 16453.109375 39184.812500 -590.305420
v 16453.109375 39184.812500 -740.305420
v 15376.570312 39410.820312 -1230.305908
v 16647.869141 39145.417969 -718.123291
v 15969.720703 35915.312500 -588.123291
v 15969.729492 35915.312500 -718.123291
v 16647.869141 39145.417969 -588.123291
v 16647.869141 39145.417969 -738.123291
v 15969.729492 35915.312500 -738.123291
v 15967.399414 35918.230469 -718.164490
v 16644.380859 39142.832031 -718.164490
v 16644.380859 39142.832031 -588.164612
v 15967.399414 35918.230469 -588.164612
v 15775.349609 35960.019531 -718.164673
v 15775.339844 35960.019531 -588.164795
v 15777.669922 35957.101562 -738.123535
v 15777.669922 35957.101562 -718.123474
v 15777.669922 35957.101562 -588.123535
v 16455.230469 39184.398438 -718.123474
v 16455.230469 39184.398438 -588.123535
v 16455.230469 39184.398438 -738.123535
v 16451.740234 39181.812500 -718.164673
v 16451.740234 39181.812500 -588.164795
v 16453.660156 39187.429688 -720.305420
v 15377.129883 39413.441406 -1080.305908
v 15377.129883 39413.441406 -1210.306030
v 16453.660156 39187.429688 -590.305420
v 16453.660156 39187.429688 -740.305420
v 15377.129883 39413.441406 -1230.305908
v 15276.429688 39430.750000 -1210.306030
v 15376.280273 39409.398438 -1080.305908
v 15376.280273 39409.398438 -1210.306030
v 15276.429688 39430.750000 -1080.305908
v 16452.810547 39183.390625 -720.305420
v 16452.810547 39183.390625 -590.305420
v 16453.359375 39186.011719 -720.305420
v 15376.829102 39412.019531 -1080.305908
v 15376.829102 39412.019531 -1210.306030
v 16453.359375 39186.011719 -590.305420
v 15278.669922 39432.218750 -1210.306030
v 15278.669922 39432.218750 -1080.305908
vt 102.061203 1.445998
vt 106.201202 1.445998
vt 106.201202 1.808102
vt 102.061203 1.808102
vt -1.128167 1.445998
vt 7.317342 1.445998
vt 7.317341 1.808102
vt -1.128167 1.808102
vt 0.439238 1.852482
vt 0.439238 1.852482
vt 0.439238 1.901746
vt 0.439238 1.901746
vt 0.439238 1.901746
vt 0.439238 1.852482
vt 0.439238 1.852482
vt 0.439238 1.901746
vt -32.960171 1.445998
vt -32.960171 1.808102
vt -133.517502 1.445998
vt -20.685499 1.808102
vt -20.685499 1.445998
vt -133.517502 1.808102
vt 1.994339 1.445998
vt 10.414750 1.808102
vt 10.414750 1.445998
vt 1.994339 1.808102
vt 0.439238 1.852482
vt 0.439238 1.901746
vt 0.439238 1.852482
vt 0.439238 1.901746
vt 103.806503 1.445998
vt -30.874689 1.808102
vt 103.806503 1.808102
vt -30.874689 1.445998
vt 7.573064 1.445998
vt 7.573063 1.808102
vt -7.406326 1.445998
vt -0.354325 1.808102
vt -0.354325 1.445998
vt -7.406326 1.808102
vt 111.989601 1.445998
vt 111.989601 1.808102
vt 0.439238 1.852482
vt 0.439238 1.901746
vt 10.925800 1.445998
vt 10.925800 1.808102
vt 1.483288 1.445998
vt 1.483288 1.808102
vt 0.439238 1.901746
vt 0.439238 1.852482
vt -39.057812 1.445998
vt -39.057812 1.808102
vt -7.406326 1.445998
vt -0.354325 1.445998
vt -0.354325 1.808102
vt -7.406326 1.808102
vt 0.439238 1.852482
vt 0.439238 1.901746
vt 0.439238 1.901746
vt 0.439238 1.852482
vt 0.439238 1.852482
vt 0.439238 1.901746
vt -133.517502 1.445998
vt -20.685499 1.445998
vt -20.685499 1.808102
vt -133.517502 1.808102
vt 0.439238 1.852482
vt 0.439238 1.901746
vt 102.061203 1.445998
vt 106.201202 1.808102
vt 106.201202 1.445998
vt 102.061203 1.808102
vt 7.317342 1.445998
vt 7.573063 1.808102
vt 7.573064 1.445998
vt 7.317341 1.808102
vt -1.128167 1.445998
vt -1.128167 1.808102
vt -32.960171 1.445998
vt -32.960171 1.808102
vt -7.406326 1.445998
vt -0.354325 1.808102
vt -0.354325 1.445998
vt -7.406326 1.808102
vt 0.439238 1.901746
vt 0.439238 1.901746
vt 0.439238 1.852482
vt 0.439238 1.852482
vt 7.317342 1.445998
vt 7.573064 1.445998
vt 7.573063 1.808102
vt 7.317341 1.808102
vt 1.994339 1.445998
vt 10.414750 1.445998
vt 10.414750 1.808102
vt 1.994339 1.808102
vt 0.439238 1.852482
vt 0.439238 1.852482
vt 0.439238 1.901746
vt 0.439238 1.901746
vt 103.806503 1.445998
vt -30.874689 1.808102
vt -30.874689 1.445998
vt 103.806503 1.808102
vt 111.989601 1.445998
vt 111.989601 1.808102
vt 0.439238 1.852482
vt 0.439238 1.901746
vt 10.925800 1.445998
vt 10.925800 1.808102
vt 1.483288 1.445998
vt 1.483288 1.808102
vt 0.439238 1.901746
vt 0.439238 1.852482
vt -39.057812 1.445998
vt -39.057812 1.808102
vt -7.406326 1.445998
vt -0.354325 1.445998
vt -0.354325 1.808102
vt -7.406326 1.808102
vt 0.439238 1.852482
vt 0.439238 1.901746
vt 0.439238 1.901746
vt 0.439238 1.852482
vt 7.317342 1.445998
vt 7.573063 1.808102
vt 7.573064 1.445998
vt 7.317341 1.808102
vt 102.061203 1.445998
vt 106.201202 1.445998
vt 106.201202 1.808102
vt 102.061203 1.808102
vt -133.517502 1.445998
vt -20.685499 1.808102
vt -20.685499 1.445998
vt -133.517502 1.808102
vt -133.517502 1.445998
vt -20.685499 1.445998
vt -20.685499 1.808102
vt -133.517502 1.808102
vt 102.061203 1.445998
vt 106.201202 1.808102
vt 106.201202 1.445998
vt 102.061203 1.808102
vn -0.2092 -0.9779 0.0000
vn -0.2058 -0.9786 -0.0000
vn -0.2089 -0.9779 0.0000
vn -0.9787 0.2055 0.0000
vn -0.2091 -0.9779 0.0000
vn -0.2090 -0.9779 -0.0000
vn -0.2055 -0.9787 0.0000
vn -0.9787 0.2054 0.0000
vn 0.9787 -0.2055 0.0000
vn -0.2054 -0.9787 0.0000
vn 0.2055 0.9787 0.0000
vn 0.2054 0.9787 -0.0000
vn 0.2018 0.9794 -0.0000
vn 0.2016 0.9795 0.0000
vn 0.2052 0.9787 0.0000
vn 0.2027 0.9792 0.0000
vn 0.9786 -0.2056 0.0000
vn -0.2056 -0.9786 0.0000
vn -0.2094 -0.9778 0.0000
vn -0.9787 0.2055 -0.0001
vn 0.2126 0.9771 0.0000
vn -0.1983 -0.9801 0.0000
vn 0.2019 0.9794 0.0000
vn 0.2017 0.9794 0.0000
vn -0.2057 -0.9786 0.0000
usemtl GitterMat
s 1
f 1/1/1 3/2/2 2/3/3
f 1/1/1 2/3/3 4/4/1
f 5/5/4 7/6/4 6/7/4
f 5/5/4 6/7/4 8/8/4
f 9/9/4 10/10/4 7/11/4
f 9/9/4 7/11/4 5/12/4
f 10/10/5 11/13/5 7/11/5
f 10/10/5 12/14/6 11/13/5
f 13/15/7 11/13/5 12/14/6
f 14/16/7 11/13/5 13/15/7
f 15/17/8 1/1/8 4/4/8
f 15/17/8 4/4/8 16/18/8
f 17/19/7 2/20/3 3/21/2
f 18/22/7 2/20/3 17/19/7
f 19/23/9 21/24/9 20/25/9
f 21/24/9 19/23/9 22/26/9
f 23/27/9 20/28/9 24/29/9
f 20/28/9 23/27/9 19/30/9
f 25/31/9 27/32/9 26/33/9
f 27/32/9 25/31/9 28/34/9
f 7/6/5 11/35/5 29/36/3
f 7/6/5 29/36/3 6/7/5
f 14/37/7 29/38/3 11/39/5
f 30/40/7 29/38/3 14/37/7
f 31/41/7 25/31/7 26/33/7
f 31/41/7 26/33/7 32/42/7
f 33/43/10 24/29/10 20/28/10
f 33/43/10 20/28/10 34/44/10
f 34/45/10 20/25/10 21/24/10
f 34/45/10 21/24/10 35/46/10
f 36/47/11 37/48/11 19/23/11
f 19/23/11 37/48/11 22/26/11
f 36/49/11 23/27/11 38/50/11
f 23/27/11 36/49/11 19/30/11
f 39/51/11 40/52/11 28/34/11
f 28/34/11 40/52/11 27/32/11
f 41/53/11 43/54/12 42/55/13
f 41/53/11 42/55/13 44/56/11
f 45/57/11 43/58/12 41/59/11
f 45/57/11 46/60/12 43/58/12
f 47/61/14 43/58/12 46/60/12
f 43/58/12 47/61/14 48/62/14
f 49/63/11 51/64/15 50/65/16
f 49/63/11 50/65/16 52/66/11
f 53/67/9 48/62/9 47/61/9
f 48/62/9 53/67/9 54/68/9
f 55/69/14 50/70/16 51/71/15
f 50/70/14 55/69/14 56/72/14
f 48/73/14 42/74/13 43/75/12
f 42/74/13 48/73/14 57/76/14
f 54/77/9 57/76/9 48/73/9
f 57/76/9 54/77/9 58/78/9
f 59/79/17 56/72/17 55/69/17
f 56/72/17 59/79/17 60/80/17
f 61/81/7 63/82/1 62/83/18
f 64/84/7 63/82/1 61/81/7
f 61/85/7 62/86/18 65/87/7
f 65/87/7 62/86/18 66/88/7
f 53/67/19 66/88/7 62/86/18
f 53/67/19 62/86/18 54/68/19
f 54/89/19 62/90/18 63/91/1
f 54/89/19 63/91/1 58/92/19
f 67/93/4 69/94/4 68/95/20
f 67/93/4 68/95/20 70/96/4
f 71/97/4 72/98/4 69/99/4
f 71/97/4 69/99/4 67/100/4
f 73/101/4 75/102/4 74/103/4
f 75/102/4 73/101/4 76/104/4
f 77/105/21 76/104/21 73/101/21
f 76/104/21 77/105/21 78/106/21
f 79/107/21 69/99/21 72/98/21
f 69/99/21 79/107/21 80/108/21
f 80/109/21 68/95/21 69/94/21
f 68/95/21 80/109/21 81/110/21
f 82/111/22 67/93/22 83/112/22
f 67/93/22 70/96/22 83/112/22
f 67/100/22 82/113/22 71/97/22
f 84/114/22 71/97/22 82/113/22
f 85/115/22 74/103/22 86/116/22
f 74/103/22 75/102/22 86/116/22
f 87/117/11 89/118/11 88/119/23
f 87/117/11 88/119/23 90/120/11
f 91/121/11 89/122/11 87/123/11
f 91/121/11 92/124/11 89/122/11
f 9/9/24 89/122/11 92/124/11
f 89/122/11 9/9/24 5/12/24
f 5/125/24 88/126/23 89/127/11
f 88/126/23 5/125/24 8/128/24
f 93/129/5 95/130/25 94/131/3
f 93/129/5 94/131/3 96/132/5
f 97/133/7 94/134/3 95/135/25
f 98/136/7 94/134/3 97/133/7
f 99/137/11 101/138/15 100/139/13
f 99/137/11 100/139/13 102/140/11
f 103/141/14 100/142/13 101/143/15
f 100/142/13 103/141/14 104/144/14
