# Blender v3.4.1 OBJ File: 'track.blend'
# www.blender.org
mtllib _0TRIBUENE_02_017_SUB0_Scene.168.mtl
o _0TRIBUENE_02_017_SUB0_Scene.168
v 159.229202 494.160004 -18.402981
v 160.228195 493.948456 -17.102989
v 160.228195 493.948456 -18.402981
v 159.229202 494.160004 -17.102989
v 165.959778 526.500671 -18.402975
v 159.238495 494.146667 -17.102989
v 159.238495 494.146667 -18.402981
v 165.959778 526.500671 -17.102983
v 165.959778 526.500671 -18.602983
v 159.238495 494.146667 -18.602989
v 160.225998 493.937683 -18.402981
v 160.225998 493.937683 -18.602989
v 184.899094 488.812012 -7.402983
v 184.899094 488.812012 -7.202983
v 165.939484 526.479980 -18.402975
v 165.939484 526.479980 -17.102983
v 184.901398 488.822876 -7.202983
v 184.901398 488.822876 -5.902983
v 193.605896 520.784424 -7.181159
v 186.878586 488.401276 -7.181164
v 186.878586 488.401276 -5.881164
v 193.605896 520.784424 -5.881159
v 193.605896 520.784424 -7.381159
v 186.878586 488.401276 -7.381164
v 186.855194 488.430389 -7.181576
v 186.855194 488.430389 -5.881577
v 193.571106 520.758423 -5.881572
v 193.571106 520.758423 -7.181571
v 160.225998 493.937683 -17.102989
v 184.899094 488.812012 -5.902983
v 184.897003 488.837189 -7.181576
v 184.897003 488.837189 -5.881577
v 184.920380 488.808105 -7.381164
v 184.920380 488.808105 -7.181164
v 184.920380 488.808105 -5.881164
v 191.647690 521.191223 -7.181159
v 191.647690 521.191223 -5.881159
v 191.647690 521.191223 -7.381159
v 191.612885 521.165222 -7.181571
v 191.612885 521.165222 -5.881572
v 184.904602 488.838196 -7.202983
v 160.231400 493.963898 -17.102989
v 160.231400 493.963898 -18.402981
v 184.904602 488.838196 -5.902983
v 184.904602 488.838196 -7.402983
v 160.231400 493.963898 -18.602989
v 159.260895 494.161407 -18.602989
v 159.260895 494.161407 -18.402981
v 184.906799 488.849091 -7.202983
v 160.233597 493.974792 -17.102989
v 160.233597 493.974792 -18.402981
v 184.906799 488.849091 -5.902983
v 165.974503 526.478271 -18.602983
v 165.974503 526.478271 -18.402975
v 159.251602 494.174713 -18.402981
v 159.251602 494.174713 -17.102989
v 159.260895 494.161407 -17.102989
v 165.974503 526.478271 -17.102983
v 165.965698 526.474609 -18.402975
v 165.965698 526.474609 -17.102983
v 191.616501 521.147278 -7.202978
v 166.943298 526.272888 -18.402975
v 166.943298 526.272888 -17.102983
v 191.616501 521.147278 -5.902978
v 191.616501 521.147278 -7.402977
v 166.943298 526.272888 -18.602983
v 193.565002 520.757507 -7.181159
v 186.851700 488.442169 -5.881164
v 186.851700 488.442169 -7.181164
v 193.565002 520.757507 -5.881159
v 193.565002 520.757507 -7.381159
v 186.851700 488.442169 -7.381164
v 186.828400 488.471313 -7.181576
v 193.530197 520.731506 -7.181571
v 193.530197 520.731506 -5.881572
v 186.828400 488.471313 -5.881577
v 184.906982 488.885101 -7.181576
v 184.906982 488.885101 -5.881577
v 184.930283 488.855957 -7.381164
v 184.930283 488.855957 -7.181164
v 184.930283 488.855957 -5.881164
v 191.637695 521.143188 -7.181159
v 191.637695 521.143188 -5.881159
v 191.637695 521.143188 -7.381159
v 191.602982 521.117188 -7.181571
v 191.602982 521.117188 -5.881572
v 191.621994 521.173523 -7.202978
v 166.948807 526.299072 -17.102983
v 166.948807 526.299072 -18.402975
v 191.621994 521.173523 -5.902978
v 191.621994 521.173523 -7.402977
v 166.948807 526.299072 -18.602983
v 165.941406 526.470215 -18.402975
v 166.940384 526.258728 -17.102983
v 166.940384 526.258728 -18.402975
v 165.941406 526.470215 -17.102983
v 191.613586 521.133118 -7.202978
v 191.613586 521.133118 -5.902978
v 191.619003 521.159302 -7.202978
v 166.945801 526.284912 -17.102983
v 166.945801 526.284912 -18.402975
v 191.619003 521.159302 -5.902978
v 165.963806 526.484924 -18.402975
v 165.963806 526.484924 -17.102983
vt 102.061203 1.445998
vt 106.201202 1.445998
vt 106.201202 1.808102
vt 102.061203 1.808102
vt -1.128167 1.445998
vt 7.317342 1.445998
vt 7.317341 1.808102
vt -1.128167 1.808102
vt 0.439238 1.852482
vt 0.439238 1.852482
vt 0.439238 1.901746
vt 0.439238 1.901746
vt 0.439238 1.901746
vt 0.439238 1.852482
vt 0.439238 1.852482
vt 0.439238 1.901746
vt -32.960171 1.445998
vt -32.960171 1.808102
vt -133.517502 1.445998
vt -20.685499 1.808102
vt -20.685499 1.445998
vt -133.517502 1.808102
vt 1.994339 1.445998
vt 10.414750 1.808102
vt 10.414750 1.445998
vt 1.994339 1.808102
vt 0.439238 1.852482
vt 0.439238 1.901746
vt 0.439238 1.852482
vt 0.439238 1.901746
vt 103.806503 1.445998
vt -30.874689 1.808102
vt 103.806503 1.808102
vt -30.874689 1.445998
vt 7.573064 1.445998
vt 7.573063 1.808102
vt -7.406326 1.445998
vt -0.354325 1.808102
vt -0.354325 1.445998
vt -7.406326 1.808102
vt 111.989601 1.445998
vt 111.989601 1.808102
vt 0.439238 1.852482
vt 0.439238 1.901746
vt 10.925800 1.445998
vt 10.925800 1.808102
vt 1.483288 1.445998
vt 1.483288 1.808102
vt 0.439238 1.901746
vt 0.439238 1.852482
vt -39.057812 1.445998
vt -39.057812 1.808102
vt -7.406326 1.445998
vt -0.354325 1.445998
vt -0.354325 1.808102
vt -7.406326 1.808102
vt 0.439238 1.852482
vt 0.439238 1.901746
vt 0.439238 1.901746
vt 0.439238 1.852482
vt 0.439238 1.852482
vt 0.439238 1.901746
vt -133.517502 1.445998
vt -20.685499 1.445998
vt -20.685499 1.808102
vt -133.517502 1.808102
vt 0.439238 1.852482
vt 0.439238 1.901746
vt 102.061203 1.445998
vt 106.201202 1.808102
vt 106.201202 1.445998
vt 102.061203 1.808102
vt 7.317342 1.445998
vt 7.573063 1.808102
vt 7.573064 1.445998
vt 7.317341 1.808102
vt -1.128167 1.445998
vt -1.128167 1.808102
vt -32.960171 1.445998
vt -32.960171 1.808102
vt -7.406326 1.445998
vt -0.354325 1.808102
vt -0.354325 1.445998
vt -7.406326 1.808102
vt 0.439238 1.901746
vt 0.439238 1.901746
vt 0.439238 1.852482
vt 0.439238 1.852482
vt 7.317342 1.445998
vt 7.573064 1.445998
vt 7.573063 1.808102
vt 7.317341 1.808102
vt 1.994339 1.445998
vt 10.414750 1.445998
vt 10.414750 1.808102
vt 1.994339 1.808102
vt 0.439238 1.852482
vt 0.439238 1.852482
vt 0.439238 1.901746
vt 0.439238 1.901746
vt 103.806503 1.445998
vt -30.874689 1.808102
vt -30.874689 1.445998
vt 103.806503 1.808102
vt 111.989601 1.445998
vt 111.989601 1.808102
vt 0.439238 1.852482
vt 0.439238 1.901746
vt 10.925800 1.445998
vt 10.925800 1.808102
vt 1.483288 1.445998
vt 1.483288 1.808102
vt 0.439238 1.901746
vt 0.439238 1.852482
vt -39.057812 1.445998
vt -39.057812 1.808102
vt -7.406326 1.445998
vt -0.354325 1.445998
vt -0.354325 1.808102
vt -7.406326 1.808102
vt 0.439238 1.852482
vt 0.439238 1.901746
vt 0.439238 1.901746
vt 0.439238 1.852482
vt 7.317342 1.445998
vt 7.573063 1.808102
vt 7.573064 1.445998
vt 7.317341 1.808102
vt 102.061203 1.445998
vt 106.201202 1.445998
vt 106.201202 1.808102
vt 102.061203 1.808102
vt -133.517502 1.445998
vt -20.685499 1.808102
vt -20.685499 1.445998
vt -133.517502 1.808102
vt -133.517502 1.445998
vt -20.685499 1.445998
vt -20.685499 1.808102
vt -133.517502 1.808102
vt 102.061203 1.445998
vt 106.201202 1.808102
vt 106.201202 1.445998
vt 102.061203 1.808102
vn -0.2072 -0.9783 0.0000
vn -0.2039 -0.9790 -0.0000
vn -0.2069 -0.9784 0.0000
vn -0.9791 0.2034 0.0000
vn -0.2070 -0.9783 0.0000
vn -0.2070 -0.9784 -0.0000
vn -0.2034 -0.9791 0.0000
vn -0.9791 0.2033 0.0000
vn 0.9791 -0.2034 0.0000
vn -0.2067 -0.9784 0.0000
vn 0.2034 0.9791 0.0000
vn 0.2033 0.9791 -0.0000
vn 0.1997 0.9799 -0.0000
vn 0.1994 0.9799 0.0000
vn 0.2031 0.9792 0.0000
vn 0.2006 0.9797 -0.0000
vn 0.1995 0.9799 0.0000
vn 0.9791 -0.2035 0.0000
vn -0.2035 -0.9791 0.0000
vn -0.2031 -0.9792 0.0000
vn -0.2033 -0.9791 -0.0000
vn -0.2074 -0.9783 0.0000
vn 0.2105 0.9776 0.0000
vn -0.1962 -0.9806 0.0000
vn 0.2000 0.9798 -0.0000
vn -0.2071 -0.9783 0.0000
vn -0.2037 -0.9790 -0.0000
vn 0.1997 0.9798 -0.0000
vn 0.1996 0.9799 0.0000
usemtl GitterMat
s 1
f 1/1/1 3/2/2 2/3/3
f 1/1/1 2/3/3 4/4/1
f 5/5/4 7/6/4 6/7/4
f 5/5/4 6/7/4 8/8/4
f 9/9/4 10/10/4 7/11/4
f 9/9/4 7/11/4 5/12/4
f 10/10/5 11/13/5 7/11/5
f 10/10/5 12/14/6 11/13/5
f 13/15/7 11/13/5 12/14/6
f 14/16/7 11/13/5 13/15/7
f 15/17/8 1/1/8 4/4/8
f 15/17/8 4/4/8 16/18/8
f 17/19/7 2/20/3 3/21/2
f 18/22/7 2/20/3 17/19/7
f 19/23/9 21/24/9 20/25/9
f 21/24/9 19/23/9 22/26/9
f 23/27/9 20/28/9 24/29/9
f 20/28/9 23/27/9 19/30/9
f 25/31/9 27/32/9 26/33/9
f 27/32/9 25/31/9 28/34/9
f 7/6/5 11/35/5 29/36/10
f 7/6/5 29/36/10 6/7/5
f 14/37/7 29/38/10 11/39/5
f 30/40/7 29/38/10 14/37/7
f 31/41/7 25/31/7 26/33/7
f 31/41/7 26/33/7 32/42/7
f 33/43/7 24/29/7 20/28/7
f 33/43/7 20/28/7 34/44/7
f 34/45/7 20/25/7 21/24/7
f 34/45/7 21/24/7 35/46/7
f 36/47/11 37/48/11 19/23/11
f 19/23/11 37/48/11 22/26/11
f 36/49/11 23/27/11 38/50/11
f 23/27/11 36/49/11 19/30/11
f 39/51/11 40/52/11 28/34/11
f 28/34/11 40/52/11 27/32/11
f 41/53/11 43/54/12 42/55/13
f 41/53/11 42/55/13 44/56/11
f 45/57/11 43/58/12 41/59/11
f 45/57/11 46/60/11 43/58/12
f 47/61/14 43/58/12 46/60/11
f 43/58/12 47/61/14 48/62/14
f 49/63/11 51/64/15 50/65/16
f 49/63/11 50/65/16 52/66/11
f 53/67/9 48/62/9 47/61/9
f 48/62/9 53/67/9 54/68/9
f 55/69/17 50/70/16 51/71/15
f 50/70/17 55/69/17 56/72/17
f 48/73/14 42/74/13 43/75/12
f 42/74/13 48/73/14 57/76/14
f 54/77/9 57/76/9 48/73/9
f 57/76/9 54/77/9 58/78/9
f 59/79/18 56/72/18 55/69/18
f 56/72/18 59/79/18 60/80/18
f 61/81/7 63/82/5 62/83/19
f 64/84/7 63/82/5 61/81/7
f 61/85/7 62/86/19 65/87/20
f 65/87/20 62/86/19 66/88/21
f 53/67/22 66/88/21 62/86/19
f 53/67/22 62/86/19 54/68/22
f 54/89/22 62/90/19 63/91/5
f 54/89/22 63/91/5 58/92/22
f 67/93/4 69/94/4 68/95/4
f 67/93/4 68/95/4 70/96/4
f 71/97/4 72/98/4 69/99/4
f 71/97/4 69/99/4 67/100/4
f 73/101/4 75/102/4 74/103/4
f 75/102/4 73/101/4 76/104/4
f 77/105/23 76/104/23 73/101/23
f 76/104/23 77/105/23 78/106/23
f 79/107/23 69/99/23 72/98/23
f 69/99/23 79/107/23 80/108/23
f 80/109/23 68/95/23 69/94/23
f 68/95/23 80/109/23 81/110/23
f 82/111/24 67/93/24 83/112/24
f 67/93/24 70/96/24 83/112/24
f 67/100/24 82/113/24 71/97/24
f 84/114/24 71/97/24 82/113/24
f 85/115/24 74/103/24 86/116/24
f 74/103/24 75/102/24 86/116/24
f 87/117/11 89/118/12 88/119/25
f 87/117/11 88/119/25 90/120/11
f 91/121/15 89/122/12 87/123/11
f 91/121/15 92/124/12 89/122/12
f 9/9/13 89/122/12 92/124/12
f 89/122/12 9/9/13 5/12/13
f 5/125/13 88/126/25 89/127/12
f 88/126/25 5/125/13 8/128/13
f 93/129/26 95/130/27 94/131/5
f 93/129/26 94/131/5 96/132/26
f 97/133/7 94/134/5 95/135/27
f 98/136/7 94/134/5 97/133/7
f 99/137/11 101/138/15 100/139/28
f 99/137/11 100/139/28 102/140/11
f 103/141/29 100/142/28 101/143/15
f 100/142/28 103/141/29 104/144/29
