# Blender v3.1.2 OBJ File: 'track.blend'
# www.blender.org
mtllib _1ASPHALT_SUB4.mtl
o _1ASPHALT_SUB4_Scene.204
v 22576.169922 77207.093750 -330.519196
v 21590.140625 77377.031250 -340.230988
v 21610.330078 77072.421875 -337.800110
v 22541.990234 77511.703125 -331.828094
v 22672.470703 76293.781250 -325.767212
v 21648.929688 76463.484375 -322.652283
v 21667.218750 76159.109375 -316.300293
v 22641.509766 76598.148438 -327.467499
v 22506.929688 77816.445312 -332.963989
v 21548.240234 77986.648438 -333.905792
v 21569.419922 77681.765625 -335.833801
v 22471.089844 78121.320312 -333.905792
v 21629.949219 76767.898438 -332.102478
v 22609.378906 76902.570312 -329.058594
v 22702.169922 75989.476562 -323.978088
v 21684.769531 75854.820312 -311.757202
v 21754.048828 78325.375000 -334.653503
v 21526.539062 78291.632812 -334.653503
v 22434.339844 78426.296875 -334.653503
vt 0.428283 1.997357
vt 0.428283 1.881259
vt 0.374957 1.881259
vt 0.374957 1.997357
vt 0.428172 1.879711
vt 0.428172 1.996056
vt 0.374869 1.996056
vt 0.374869 1.879711
vt 0.428265 1.997357
vt 0.428274 1.876823
vt 0.374633 1.876823
vt 0.374658 1.997357
vt 0.428254 1.997357
vt 0.428254 1.880830
vt 0.374848 1.880830
vt 0.374848 1.997357
vt 0.428166 1.879711
vt 0.428166 1.994102
vt 0.374849 1.994102
vt 0.374858 1.879711
vt 0.428283 1.997357
vt 0.428283 1.878379
vt 0.374951 1.878379
vt 0.374951 1.997357
vt 0.428275 1.879711
vt 0.428275 1.997523
vt 0.374840 1.997523
vt 0.374840 1.879711
vt 0.374840 1.964922
vt 0.428490 1.993420
vt 0.374840 1.993420
vt 0.428465 1.879711
vt 0.374840 1.879711
vn 0.0046 -0.0063 -1.0000
vn 0.0078 -0.0084 -0.9999
vn 0.0071 0.0000 -1.0000
vn 0.0041 -0.0017 -1.0000
vn -0.0029 -0.0090 -1.0000
vn -0.0074 -0.0123 -0.9999
vn -0.0020 -0.0157 -0.9999
vn -0.0002 -0.0105 -0.9999
vn 0.0022 0.0002 -1.0000
vn 0.0033 0.0039 -1.0000
vn 0.0008 -0.0002 -1.0000
vn 0.0009 -0.0015 -1.0000
vn 0.0041 -0.0147 -0.9999
vn 0.0027 -0.0097 -0.9999
vn -0.0022 -0.0076 -1.0000
vn -0.0092 -0.0111 -0.9999
vn 0.0012 -0.0029 -1.0000
vn 0.0020 -0.0033 -1.0000
vn 0.0006 -0.0022 -1.0000
usemtl EnvironmentMat
s 1
f 1/1/1 3/2/2 2/3/3
f 1/1/1 2/3/3 4/4/4
f 5/5/5 7/6/6 6/7/7
f 5/5/5 6/7/7 8/8/8
f 9/9/9 11/10/10 10/11/11
f 9/9/9 10/11/11 12/12/12
f 8/13/8 6/14/7 13/15/13
f 8/13/8 13/15/13 14/16/14
f 4/17/4 2/18/3 11/19/10
f 4/17/4 11/19/10 9/20/9
f 15/21/15 16/22/16 7/23/6
f 15/21/15 7/23/6 5/24/5
f 14/25/14 13/26/13 3/27/2
f 14/25/14 3/27/2 1/28/1
f 17/29/17 10/30/11 18/31/18
f 10/30/11 17/29/17 12/32/12
f 12/32/12 17/29/17 19/33/19
