# Blender v3.4.1 OBJ File: 'track.blend'
# www.blender.org
mtllib _1ASPHALT_SUB3_Scene.204.mtl
o _1ASPHALT_SUB3_Scene.204
v 229.104797 862.468567 -3.159588
v 229.118103 861.286926 -3.160160
v 229.193192 863.633423 -3.159016
v 232.856400 871.798889 -3.155921
v 234.456787 872.994202 -3.156187
v 233.620987 872.447327 -3.156054
v 229.269806 864.687927 -3.158580
v 229.448196 865.700439 -3.158144
v 231.572403 870.520630 -3.156430
v 232.132080 871.217529 -3.156175
v 230.227005 868.327881 -3.157197
v 230.607178 869.107483 -3.156922
v 231.032593 869.850220 -3.156676
v 229.910385 867.514526 -3.157470
v 229.620789 866.625305 -3.157807
v -29.346840 768.531921 -6.487114
v -29.209538 770.972229 -6.518389
v -29.850939 771.085510 -6.519464
v -28.799189 773.665588 -6.531162
v -30.128880 773.494385 -6.530222
v -28.562828 775.221924 -6.532489
v -30.164179 775.766418 -6.531929
v -28.170248 777.801758 -6.540665
v -29.941200 777.911926 -6.537121
v -27.960131 779.175354 -6.554651
v -29.442360 779.947571 -6.558340
v -27.575529 781.678284 -6.593140
v -28.668720 781.920227 -6.591450
v -27.278568 783.605774 -6.629448
v -27.619030 783.869812 -6.632318
v -26.292118 785.833252 -6.676805
v -205.462585 329.765686 -3.861659
v -204.025696 329.874603 -3.835271
v -203.432785 330.826202 -3.812402
v -204.619293 328.924408 -3.858139
v -205.307297 328.070374 -3.877791
v -208.396088 328.248810 -3.920009
v -205.996597 327.218109 -3.897442
v -206.781082 326.463013 -3.913706
v -207.565887 325.708588 -3.929971
v -208.446701 325.052094 -3.942682
v -211.887390 326.443695 -3.965868
v -209.327499 324.395813 -3.955392
v -210.308289 323.840393 -3.964379
v -211.289703 323.285889 -3.973367
v -212.344894 322.836487 -3.980168
v -215.421402 324.615997 -3.990977
v -213.400482 322.387787 -3.986967
v -214.500183 322.047913 -3.993114
v -215.600403 321.709015 -3.999261
v -216.716492 321.484894 -4.006290
v -219.183807 322.668488 -4.020082
v -217.832977 321.261292 -4.013319
v -218.934998 321.155792 -4.022767
v -220.053192 321.026398 -4.032212
v -221.202591 320.968597 -4.044572
v -222.378693 320.869202 -4.056933
vt 3.592678 -1.147317
vt 3.284044 -0.398804
vt 3.901312 -1.895830
vt -1.061132 3.986092
vt -1.722756 4.178042
vt -2.384379 4.369993
vt 2.951105 0.237787
vt 2.618167 0.874377
vt 0.077819 3.472054
vt -0.491656 3.729073
vt 1.461857 2.363532
vt 1.043767 2.793467
vt 0.560793 3.132761
vt 1.879947 1.933596
vt 2.249057 1.403987
vt -0.102822 -3.915402
vt 0.487796 -2.312600
vt 0.059870 -2.320042
vt 0.069470 -0.527217
vt 0.916653 -0.775064
vt 0.074831 0.509673
vt 1.172953 0.699971
vt 0.083200 2.229318
vt 1.247812 2.119724
vt 0.086390 3.145375
vt 1.131136 3.497304
vt 0.090825 4.815944
vt 0.828049 4.862597
vt 0.092645 6.102706
vt 0.340903 6.240771
vt -0.328977 7.650745
vt 9.845558 -0.126346
vt 12.459970 -0.126416
vt 11.359780 0.529112
vt 10.259590 1.184641
vt 9.114174 1.690652
vt 6.076049 -0.126416
vt 7.968763 2.196664
vt 6.777961 2.551696
vt 5.587159 2.906728
vt 4.350199 3.108778
vt 1.589943 -0.126068
vt 3.113238 3.310827
vt 1.827664 3.357159
vt 0.542090 3.403491
vt -0.763409 3.304138
vt -2.951309 -0.125057
vt -2.068909 3.204786
vt -3.362365 2.970060
vt -4.655821 2.735334
vt -5.905147 2.376192
vt -7.784362 -0.122758
vt -7.154473 2.017049
vt -8.327422 1.545647
vt -9.500372 1.074245
vt -10.607080 0.477834
vt -11.713790 -0.118578
vn 0.0001 0.0005 -1.0000
vn -0.0003 0.0005 -1.0000
vn -0.0006 0.0007 -1.0000
vn -0.0001 -0.0001 -1.0000
vn -0.0005 0.0006 -1.0000
vn 0.0002 0.0004 -1.0000
vn 0.0001 0.0003 -1.0000
vn 0.0002 0.0002 -1.0000
vn -0.0000 0.0004 -1.0000
vn -0.0006 -0.0128 -0.9999
vn 0.0001 -0.0079 -1.0000
vn 0.0001 -0.0090 -1.0000
vn -0.0003 -0.0023 -1.0000
vn -0.0004 -0.0027 -1.0000
vn -0.0009 -0.0017 -1.0000
vn -0.0012 -0.0019 -1.0000
vn -0.0022 -0.0064 -1.0000
vn -0.0024 -0.0057 -1.0000
vn -0.0036 -0.0117 -0.9999
vn -0.0040 -0.0125 -0.9999
vn -0.0052 -0.0163 -0.9999
vn -0.0051 -0.0162 -0.9999
vn -0.0057 -0.0182 -0.9998
vn -0.0058 -0.0183 -0.9998
vn -0.0060 -0.0186 -0.9998
vn 0.0157 0.0118 -0.9998
vn 0.0174 0.0132 -0.9998
vn 0.0161 0.0119 -0.9998
vn 0.0145 0.0110 -0.9998
vn 0.0118 0.0084 -0.9999
vn 0.0138 0.0102 -0.9999
vn 0.0129 0.0081 -0.9999
vn 0.0106 0.0074 -0.9999
vn 0.0094 0.0069 -0.9999
vn 0.0073 0.0047 -1.0000
vn 0.0085 0.0055 -0.9999
vn 0.0071 0.0037 -1.0000
vn 0.0059 0.0035 -1.0000
vn 0.0052 0.0032 -1.0000
vn 0.0055 0.0027 -1.0000
vn 0.0051 0.0028 -1.0000
vn 0.0048 0.0026 -1.0000
vn 0.0057 0.0023 -1.0000
vn 0.0063 0.0020 -1.0000
vn 0.0079 0.0024 -1.0000
vn 0.0069 0.0023 -1.0000
vn 0.0082 0.0031 -1.0000
vn 0.0099 0.0022 -0.9999
vn 0.0104 0.0021 -0.9999
vn 0.0103 0.0021 -0.9999
usemtl GrassbetonredMat
s 1
f 1/1/1 3/2/2 2/3/2
f 4/4/3 6/5/4 5/6/5
f 7/7/6 8/8/2 3/2/2
f 9/9/7 10/10/8 4/4/3
f 4/4/3 11/11/7 9/9/7
f 9/9/7 11/11/7 12/12/9
f 13/13/8 9/9/7 12/12/9
f 11/11/7 4/4/3 14/14/9
f 14/14/9 4/4/3 8/8/2
f 15/15/7 14/14/9 8/8/2
f 8/8/2 4/4/3 5/6/5
f 3/2/2 8/8/2 5/6/5
f 3/2/2 5/6/5 2/3/2
f 16/16/10 18/17/11 17/18/12
f 19/19/13 17/18/12 18/17/11
f 18/17/11 20/20/14 19/19/13
f 20/20/14 21/21/15 19/19/13
f 20/20/14 22/22/16 21/21/15
f 22/22/16 23/23/17 21/21/15
f 22/22/16 24/24/18 23/23/17
f 23/23/17 24/24/18 25/25/19
f 26/26/20 25/25/19 24/24/18
f 26/26/20 27/27/21 25/25/19
f 26/26/20 28/28/22 27/27/21
f 28/28/22 29/29/23 27/27/21
f 28/28/22 30/30/24 29/29/23
f 30/30/24 31/31/25 29/29/23
f 32/32/26 34/33/27 33/34/27
f 33/34/27 35/35/28 32/32/26
f 36/36/29 32/32/26 35/35/28
f 32/32/26 36/36/29 37/37/30
f 37/37/30 36/36/29 38/38/31
f 38/38/31 39/39/32 37/37/30
f 40/40/33 37/37/30 39/39/32
f 41/41/34 37/37/30 40/40/33
f 37/37/30 41/41/34 42/42/35
f 41/41/34 43/43/36 42/42/35
f 44/44/37 42/42/35 43/43/36
f 45/45/38 42/42/35 44/44/37
f 46/46/39 42/42/35 45/45/38
f 42/42/35 46/46/39 47/47/40
f 46/46/39 48/48/41 47/47/40
f 49/49/42 47/47/40 48/48/41
f 50/50/43 47/47/40 49/49/42
f 51/51/44 47/47/40 50/50/43
f 47/47/40 51/51/44 52/52/45
f 51/51/44 53/53/46 52/52/45
f 52/52/45 53/53/46 54/54/47
f 55/55/48 52/52/45 54/54/47
f 56/56/49 52/52/45 55/55/48
f 57/57/50 52/52/45 56/56/49
