# Blender v3.4.1 OBJ File: 'track.blend'
# www.blender.org
mtllib _1ASPHALT_SUB4_Scene.205.mtl
o _1ASPHALT_SUB4_Scene.205
v 225.761688 772.070923 -3.305066
v 215.901398 773.770325 -3.402184
v 216.103302 770.724182 -3.377875
v 225.419891 775.117004 -3.318155
v 226.724701 762.937805 -3.257548
v 216.489288 764.634827 -3.226398
v 216.672180 761.591064 -3.162879
v 226.415100 765.981445 -3.274550
v 225.069290 778.164429 -3.329513
v 215.482391 779.866455 -3.338931
v 215.694199 776.817627 -3.358211
v 224.710892 781.213196 -3.338931
v 216.299484 767.678955 -3.320899
v 226.093781 769.025696 -3.290460
v 227.021698 759.894775 -3.239657
v 216.847687 758.548157 -3.117449
v 217.540482 783.253723 -3.346407
v 215.265381 782.916321 -3.346407
v 224.343399 784.262939 -3.346407
vt 0.428283 1.997357
vt 0.428283 1.881259
vt 0.374957 1.881259
vt 0.374957 1.997357
vt 0.428172 1.879711
vt 0.428172 1.996056
vt 0.374869 1.996056
vt 0.374869 1.879711
vt 0.428265 1.997357
vt 0.428274 1.876823
vt 0.374633 1.876823
vt 0.374658 1.997357
vt 0.428254 1.997357
vt 0.428254 1.880830
vt 0.374848 1.880830
vt 0.374848 1.997357
vt 0.428166 1.879711
vt 0.428166 1.994102
vt 0.374849 1.994102
vt 0.374858 1.879711
vt 0.428283 1.997357
vt 0.428283 1.878379
vt 0.374951 1.878379
vt 0.374951 1.997357
vt 0.428275 1.879711
vt 0.428275 1.997523
vt 0.374840 1.997523
vt 0.374840 1.879711
vt 0.374840 1.964922
vt 0.428490 1.993420
vt 0.374840 1.993420
vt 0.428465 1.879711
vt 0.374840 1.879711
vn 0.0046 -0.0063 -1.0000
vn 0.0078 -0.0084 -0.9999
vn 0.0071 0.0000 -1.0000
vn 0.0042 -0.0017 -1.0000
vn -0.0029 -0.0090 -1.0000
vn -0.0074 -0.0123 -0.9999
vn -0.0020 -0.0157 -0.9999
vn -0.0002 -0.0104 -0.9999
vn 0.0022 0.0002 -1.0000
vn 0.0033 0.0039 -1.0000
vn 0.0008 -0.0001 -1.0000
vn 0.0009 -0.0015 -1.0000
vn 0.0041 -0.0147 -0.9999
vn 0.0027 -0.0097 -0.9999
vn -0.0022 -0.0076 -1.0000
vn -0.0092 -0.0111 -0.9999
vn 0.0012 -0.0029 -1.0000
vn 0.0020 -0.0033 -1.0000
vn 0.0006 -0.0022 -1.0000
usemtl EnvironmentMat
s 1
f 1/1/1 3/2/2 2/3/3
f 1/1/1 2/3/3 4/4/4
f 5/5/5 7/6/6 6/7/7
f 5/5/5 6/7/7 8/8/8
f 9/9/9 11/10/10 10/11/11
f 9/9/9 10/11/11 12/12/12
f 8/13/8 6/14/7 13/15/13
f 8/13/8 13/15/13 14/16/14
f 4/17/4 2/18/3 11/19/10
f 4/17/4 11/19/10 9/20/9
f 15/21/15 16/22/16 7/23/6
f 15/21/15 7/23/6 5/24/5
f 14/25/14 13/26/13 3/27/2
f 14/25/14 3/27/2 1/28/1
f 17/29/17 10/30/11 18/31/18
f 10/30/11 17/29/17 12/32/12
f 12/32/12 17/29/17 19/33/19
