# Blender v3.4.1 OBJ File: 'track.blend'
# www.blender.org
mtllib _1BRIDGE_SUB0_Scene.224.mtl
o _1BRIDGE_SUB0_Scene.224
v -338.308990 -285.358002 -9.857802
v -338.308990 -285.358002 -8.857802
v -316.656311 -280.891602 -9.857801
v -316.656311 -280.891602 -8.857801
v -301.125885 -277.687988 -9.857800
v -301.125885 -277.687988 -8.657800
v -316.656311 -280.891602 -4.857802
v -301.125885 -277.687988 -4.857801
v -301.125885 -277.687988 -3.857800
v -316.656311 -280.891602 -3.857800
v -344.610687 -254.807587 -8.857799
v -322.958099 -250.341202 -8.857798
v -344.610687 -254.807587 -9.857798
v -253.600891 -267.884888 -9.857800
v -253.600891 -267.884888 -8.857800
v -259.902557 -237.334579 -9.857795
v -259.902557 -237.334579 -8.857796
v -253.600891 -267.884888 -4.857800
v -263.036011 -222.143906 -4.857794
v -263.036011 -222.143906 -3.857794
v -253.600891 -267.884888 -3.857798
v -322.958099 -250.341202 -9.857797
v -307.427612 -247.137695 -9.857796
v -298.928894 -245.384583 -9.857796
v -292.627167 -275.934998 -9.857800
v -290.430115 -243.631592 -9.857796
v -284.128387 -274.182007 -9.857800
v -284.128387 -274.182007 -8.657800
v -284.128387 -274.182007 -4.857801
v -284.128387 -274.182007 -3.857799
v -293.563599 -228.440887 -4.857795
v -293.563599 -228.440887 -3.857795
v -290.430115 -243.631592 -8.657797
v -322.958099 -250.341202 -4.857798
v -322.958099 -250.341202 -3.857798
v -307.427612 -247.137695 -8.657797
v -307.427612 -247.137695 -4.857797
v -307.427612 -247.137695 -3.857797
v -302.983185 -268.684113 -8.609520
v -305.570312 -256.141693 -8.609518
v -305.162506 -258.118805 -9.290413
v -303.390991 -266.707001 -9.290415
v -288.572815 -252.635605 -8.609517
v -285.985687 -265.178009 -8.609519
v -286.393494 -263.200897 -9.290414
v -288.165009 -254.612686 -9.290412
vt 0.478261 1.467391
vt 0.478261 1.467391
vt 0.478261 1.467391
vt 0.478261 1.467391
vt 0.478261 1.467391
vt 0.478261 1.467391
vt 0.478261 1.467391
vt 0.478261 1.467391
vt 0.478261 1.467391
vt 0.478261 1.467391
vt 0.478261 1.467391
vt 0.478261 1.467391
vt 0.478261 1.467391
vt 0.478261 1.467391
vt 0.478261 1.467391
vt 0.478261 1.467391
vt 0.478261 1.467391
vt 0.478261 1.467391
vt 0.478261 1.467391
vt 0.478261 1.467391
vt 0.478261 1.467391
vt 0.478261 1.467391
vt 0.478261 1.467391
vt 0.478261 1.467391
vt 0.478261 1.467391
vt 0.478261 1.467391
vt 0.478261 1.467391
vt 0.478261 1.467391
vt 0.478261 1.467391
vt 0.478261 1.467391
vt 0.478261 1.467391
vt 0.478261 1.467391
vt 0.478261 1.467391
vt 0.478261 1.467391
vt 0.478261 1.467391
vt 0.478261 1.467391
vt 0.478261 1.467391
vt 0.478261 1.467391
vt 0.478261 1.467391
vt 0.478261 1.467391
vt 0.478261 1.467391
vt 0.478261 1.467391
vt 0.478261 1.467391
vt 0.478261 1.467391
vt 0.478261 1.467391
vt 0.478261 1.467391
vn 0.2020 -0.9794 0.0000
vn -0.0000 -0.0000 1.0000
vn -0.9794 -0.2020 0.0000
vn 0.9794 0.2020 0.0000
vn 0.0000 0.0000 -1.0000
vn -0.2020 0.9794 0.0000
vn -0.0523 0.2382 -0.9698
usemtl EmptyMat
s 1
f 1/1/1 3/2/1 2/3/1
f 4/4/1 2/3/1 3/2/1
f 3/2/1 5/5/1 4/4/1
f 6/6/1 4/4/1 5/5/1
f 6/6/1 7/7/1 4/4/1
f 7/7/1 6/6/1 8/8/1
f 7/7/1 8/8/1 9/9/1
f 7/7/1 9/9/1 10/10/1
f 11/11/2 2/3/2 12/12/2
f 12/12/2 2/3/2 4/4/2
f 2/3/3 11/11/3 1/1/3
f 13/13/3 1/1/3 11/11/3
f 14/14/4 16/15/4 15/16/4
f 17/17/4 15/16/4 16/15/4
f 15/16/4 17/17/4 18/18/4
f 19/19/4 18/18/4 17/17/4
f 18/18/4 19/19/4 20/20/4
f 18/18/4 20/20/4 21/21/4
f 22/22/5 1/1/5 13/13/5
f 1/1/5 22/22/5 3/2/5
f 22/22/5 5/5/5 3/2/5
f 5/5/5 22/22/5 23/23/5
f 24/24/5 5/5/5 23/23/5
f 5/5/5 24/24/5 25/25/5
f 26/26/5 25/25/5 24/24/5
f 25/25/5 26/26/5 27/27/5
f 16/15/5 27/27/5 26/26/5
f 27/27/5 16/15/5 14/14/5
f 15/16/1 27/27/1 14/14/1
f 27/27/1 15/16/1 28/28/1
f 28/28/1 15/16/1 18/18/1
f 28/28/1 18/18/1 29/29/1
f 29/29/1 18/18/1 21/21/1
f 29/29/1 21/21/1 30/30/1
f 31/31/3 30/30/3 32/32/3
f 31/31/3 29/29/3 30/30/3
f 29/29/3 31/31/3 33/33/3
f 33/33/3 28/28/3 29/29/3
f 32/32/6 19/19/6 31/31/6
f 19/19/6 32/32/6 20/20/6
f 12/12/3 4/4/3 7/7/3
f 12/12/3 7/7/3 34/34/3
f 34/34/3 7/7/3 10/10/3
f 34/34/3 10/10/3 35/35/3
f 11/11/6 12/12/6 13/13/6
f 22/22/6 13/13/6 12/12/6
f 12/12/6 23/23/6 22/22/6
f 23/23/6 12/12/6 36/36/6
f 36/36/6 12/12/6 34/34/6
f 36/36/6 34/34/6 37/37/6
f 37/37/6 34/34/6 35/35/6
f 37/37/6 35/35/6 38/38/6
f 6/6/4 36/36/4 37/37/4
f 6/6/4 37/37/4 8/8/4
f 37/37/4 9/9/4 8/8/4
f 9/9/4 37/37/4 38/38/4
f 39/39/4 41/40/4 40/41/4
f 41/40/4 39/39/4 42/42/4
f 43/43/3 45/44/3 44/45/3
f 45/44/3 43/43/3 46/46/3
f 33/33/7 19/19/7 17/17/7
f 19/19/7 33/33/7 31/31/7
f 33/33/6 17/17/6 26/26/6
f 16/15/6 26/26/6 17/17/6
