# Blender v3.1.2 OBJ File: 'track.blend'
# www.blender.org
mtllib _1BRIDGE_AD01_PIRELLI_SUB1.mtl
o _1BRIDGE_AD01_PIRELLI_SUB1_Scene.212
v 7112.642578 -29304.128906 -734.332397
v 6532.230469 -29183.230469 -734.332397
v 6532.230469 -29183.230469 -609.424133
v 7112.642578 -29304.128906 -609.424133
v 7711.869629 -29317.099609 -734.332397
v 7712.158203 -29315.710938 -734.332397
v 7131.745117 -29194.808594 -734.332397
v 7131.456055 -29196.191406 -734.332397
v 6551.331543 -29073.902344 -734.332397
v 6551.041992 -29075.289062 -734.332397
v 5970.917969 -28953.000000 -734.332397
v 5970.628906 -28954.378906 -734.332397
v 7712.158203 -29315.710938 -609.424133
v 7711.869629 -29317.099609 -609.424133
v 7131.745117 -29194.808594 -609.424133
v 7131.456055 -29196.191406 -609.424133
v 6551.331543 -29073.902344 -609.424133
v 6551.041992 -29075.289062 -609.424133
v 5970.917969 -28953.000000 -609.424011
v 5970.628906 -28954.378906 -609.424011
v 5951.816895 -29062.320312 -609.424133
v 5952.104980 -29060.941406 -609.424133
v 6532.518555 -29181.851562 -609.424133
v 7112.933594 -29302.750000 -609.424133
v 7693.057129 -29425.039062 -609.424011
v 7693.345703 -29423.650391 -609.424011
v 7693.057129 -29425.039062 -734.332397
v 5952.104980 -29060.941406 -734.332397
v 6532.518555 -29181.851562 -734.332397
v 7112.933594 -29302.750000 -734.332397
v 7693.345703 -29423.650391 -734.332397
v 5951.816895 -29062.320312 -734.332397
vt 0.250297 1.795643
vt 0.374727 1.766107
vt 0.374727 1.795643
vt 0.250297 1.766107
vt 0.251784 1.806051
vt 0.251784 1.806020
vt 0.251784 1.806020
vt 0.251784 1.806051
vt 0.251784 1.806020
vt 0.251784 1.806051
vt 0.251784 1.806020
vt 0.251784 1.806051
vt 0.251784 1.806020
vt 0.251784 1.806020
vt 0.251784 1.806051
vt 0.251784 1.806051
vt 0.251784 1.806020
vt 0.251784 1.806051
vt 0.251784 1.806020
vt 0.251784 1.806051
vt 0.251784 1.806020
vt 0.251784 1.806051
vt 0.251784 1.806020
vt 0.251784 1.806051
vt 0.251784 1.806020
vt 0.251784 1.806051
vt 0.251784 1.806020
vt 0.251784 1.806051
vt 0.265561 1.805722
vt 0.265561 1.803345
vt 0.265470 1.805722
vt 0.265470 1.803345
vt 0.265470 1.810051
vt 0.265470 1.807674
vt 0.265561 1.810051
vt 0.265561 1.807674
vt 0.350654 1.812066
vt 0.271987 1.812066
vt 0.271987 1.793392
vt 0.350654 1.793392
vt 0.251784 1.804586
vt 0.251244 1.802208
vt 0.251244 1.802208
vt 0.251784 1.804586
vt 0.251244 1.802208
vt 0.251784 1.804586
vt 0.251784 1.804586
vt 0.251244 1.802208
vt 0.271987 1.812066
vt 0.350654 1.793393
vt 0.350654 1.812066
vt 0.271987 1.793393
vt 0.271987 1.812066
vt 0.350654 1.793392
vt 0.350654 1.812066
vt 0.271987 1.793392
vt 0.251244 1.802208
vt 0.251244 1.802208
vt 0.251784 1.804586
vt 0.251784 1.804586
vt 0.251244 1.802208
vt 0.251784 1.804586
vt 0.251244 1.802208
vt 0.251784 1.804586
vt 0.265561 1.805722
vt 0.265561 1.803345
vt 0.265470 1.805722
vt 0.265470 1.803345
vt 0.265470 1.810051
vt 0.265470 1.807674
vt 0.265561 1.810051
vt 0.265561 1.807674
vt 0.251784 1.806020
vt 0.251784 1.806051
vt 0.251784 1.806051
vt 0.251784 1.806020
vt 0.251784 1.806051
vt 0.251784 1.806020
vt 0.251784 1.806051
vt 0.251784 1.806020
vt 0.350654 1.812066
vt 0.271987 1.812066
vt 0.271987 1.793393
vt 0.350654 1.793393
vt 0.250297 1.795643
vt 0.374727 1.766107
vt 0.374727 1.795643
vt 0.250297 1.766107
vn -0.2039 -0.9790 0.0000
vn -0.0000 0.0000 -1.0000
vn 0.0000 0.0000 1.0000
vn -0.9789 0.2044 0.0000
vn -0.9788 0.2049 -0.0000
vn -0.9787 0.2053 0.0000
vn 0.9786 -0.2056 -0.0000
vn 0.9790 -0.2037 0.0000
vn 0.2039 0.9790 0.0000
vn 0.9789 -0.2042 -0.0000
vn 0.9789 -0.2044 0.0000
vn 0.9789 -0.2043 -0.0000
vn -0.9788 0.2046 0.0000
usemtl EnvironmentMat
s 1
f 1/1/1 3/2/1 2/3/1
f 3/2/1 1/1/1 4/4/1
f 5/5/2 7/6/2 6/7/2
f 5/5/2 8/8/2 7/6/2
f 8/8/2 9/9/2 7/6/2
f 8/8/2 10/10/2 9/9/2
f 10/10/2 11/11/2 9/9/2
f 10/10/2 12/12/2 11/11/2
f 13/13/3 15/14/3 14/15/3
f 16/16/3 14/15/3 15/14/3
f 15/14/3 17/17/3 16/16/3
f 18/18/3 16/16/3 17/17/3
f 17/17/3 19/19/3 18/18/3
f 20/20/3 18/18/3 19/19/3
f 3/21/3 22/22/3 21/23/3
f 22/22/3 3/21/3 23/24/3
f 4/25/3 23/24/3 3/21/3
f 23/24/3 4/25/3 24/26/3
f 25/27/3 24/26/3 4/25/3
f 24/26/3 25/27/3 26/28/3
f 12/29/4 20/30/5 11/31/4
f 11/31/4 20/30/5 19/32/6
f 6/33/7 13/34/8 5/35/7
f 5/35/7 13/34/8 14/36/8
f 6/37/9 7/38/9 15/39/9
f 6/37/9 15/39/9 13/40/9
f 12/41/1 18/42/1 20/43/1
f 18/42/1 12/41/1 10/44/1
f 10/44/1 16/45/1 18/42/1
f 16/45/1 10/44/1 8/46/1
f 5/47/1 16/45/1 8/46/1
f 16/45/1 5/47/1 14/48/1
f 27/49/1 4/50/1 1/51/1
f 4/50/1 27/49/1 25/52/1
f 11/53/9 17/54/9 9/55/9
f 17/54/9 11/53/9 19/56/9
f 22/57/9 23/58/9 28/59/9
f 29/60/9 28/59/9 23/58/9
f 23/58/9 24/61/9 29/60/9
f 30/62/9 29/60/9 24/61/9
f 24/61/9 26/63/9 30/62/9
f 31/64/9 30/62/9 26/63/9
f 31/65/10 26/66/10 27/67/11
f 27/67/11 26/66/10 25/68/12
f 32/69/13 21/70/13 28/71/13
f 28/71/13 21/70/13 22/72/13
f 27/73/2 30/74/2 31/75/2
f 27/73/2 1/76/2 30/74/2
f 1/76/2 29/77/2 30/74/2
f 1/76/2 2/78/2 29/77/2
f 2/78/2 28/79/2 29/77/2
f 2/78/2 32/80/2 28/79/2
f 32/81/1 2/82/1 3/83/1
f 32/81/1 3/83/1 21/84/1
f 9/85/9 15/86/9 7/87/9
f 15/86/9 9/85/9 17/88/9
