# Blender v3.1.2 OBJ File: 'track.blend'
# www.blender.org
mtllib _1BRIDGE_SUB1.mtl
o _1BRIDGE_SUB1_Scene.224
v -29262.718750 -27593.500000 -865.775513
v -29262.718750 -27593.500000 -985.775574
v -30112.587891 -27768.798828 -865.775513
v -30112.587891 -27768.798828 -985.775574
v -28639.349609 -26320.089844 -929.037109
v -29448.441406 -26693.099609 -860.947632
v -29489.230469 -26495.388672 -929.037109
v -28598.568359 -26517.800781 -860.947632
v -28453.240234 -27222.320312 -860.947632
v -29303.119141 -27397.628906 -860.947632
v -28412.837891 -27418.201172 -865.775513
v -30297.320312 -26873.259766 -780.947571
v -29447.439453 -26697.960938 -755.947571
v -30153.988281 -27568.078125 -780.947571
v -29304.119141 -27392.769531 -755.947571
v -29448.441406 -26693.099609 -760.904114
v -28598.568359 -26517.800781 -735.904114
v -30152.990234 -27572.931641 -860.947632
v -30152.990234 -27572.931641 -785.904114
v -29303.119141 -27397.628906 -760.904114
v -28816.500000 -25461.269531 -929.037109
v -29666.378906 -25636.568359 -929.037109
v -29707.160156 -25438.859375 -860.947632
v -30557.031250 -25614.169922 -860.947632
v -30557.031250 -25614.169922 -785.904236
v -29707.160156 -25438.859375 -760.904236
v -30298.318359 -26868.412109 -785.904114
v -30702.359375 -24909.650391 -860.947693
v -30742.761719 -24713.769531 -865.775696
v -29892.888672 -24538.470703 -865.775696
v -29852.480469 -24734.339844 -860.947693
v -28412.837891 -27418.201172 -985.775574
v -30516.250000 -25811.880859 -929.037109
v -29043.011719 -24363.160156 -985.775635
v -29892.888672 -24538.458984 -985.775635
v -29043.011719 -24363.160156 -865.775696
v -30298.318359 -26868.412109 -860.947632
v -30339.099609 -26670.699219 -929.037109
v -28857.281250 -25263.560547 -860.947632
v -30742.761719 -24713.769531 -985.775635
v -28597.570312 -26522.650391 -730.947571
v -28454.238281 -27217.470703 -730.947571
v -28453.240234 -27222.320312 -735.904114
v -29002.609375 -24559.029297 -860.947693
v -30701.361328 -24914.509766 -780.947693
v -29851.480469 -24739.199219 -755.947693
v -29708.160156 -25434.009766 -755.947693
v -30558.041016 -25609.320312 -780.947693
v -28857.281250 -25263.560547 -735.904236
v -29852.480469 -24734.339844 -760.904236
v -30702.359375 -24909.650391 -785.904236
v -29001.611328 -24563.890625 -730.947693
v -28858.289062 -25258.708984 -730.947693
v -29002.609375 -24559.029297 -735.904236
vt 0.203425 1.874581
vt 0.203423 1.750868
vt 0.187066 1.874581
vt 0.187063 1.750868
vt 0.125884 1.844030
vt 0.249597 1.844030
vt 0.249597 1.812345
vt 0.125884 1.812345
vt 0.233581 1.750868
vt 0.233581 1.874581
vt 0.203828 1.874581
vt 0.203828 1.750868
vt 0.142547 1.750868
vt 0.248061 1.750868
vt 0.142547 1.874581
vt 0.248060 1.874581
vt 0.173319 1.750868
vt 0.173319 1.874581
vt 0.185476 1.874581
vt 0.185476 1.750868
vt 0.233179 1.874581
vt 0.249104 1.750868
vt 0.233177 1.750868
vt 0.249102 1.874581
vt 0.249128 1.750868
vt 0.125905 1.874581
vt 0.125905 1.750868
vt 0.249128 1.874581
vt 0.173603 1.874581
vt 0.185760 1.750868
vt 0.173603 1.750868
vt 0.185760 1.874581
vt 0.186803 1.750868
vt 0.186803 1.874581
vt 0.185760 1.874581
vt 0.185760 1.750868
vt 0.233177 1.750868
vt 0.203425 1.874581
vt 0.203423 1.750868
vt 0.233179 1.874581
vt 0.187468 1.750868
vt 0.187468 1.874581
vt 0.125884 1.844031
vt 0.249597 1.812345
vt 0.125884 1.812345
vt 0.249597 1.844030
vt 0.187468 1.750868
vt 0.187468 1.874581
vt 0.203828 1.874581
vt 0.203828 1.750868
vt 0.125884 1.844031
vt 0.125884 1.812345
vt 0.125884 1.812345
vt 0.125884 1.844030
vt 0.187066 1.874581
vt 0.187063 1.750868
vt 0.142262 1.874581
vt 0.247775 1.874581
vt 0.142262 1.750868
vt 0.247775 1.750868
vt 0.173603 1.874581
vt 0.173603 1.750868
vt 0.248817 1.874581
vt 0.248818 1.750868
vt 0.125904 1.750868
vt 0.249128 1.750868
vt 0.186518 1.874581
vt 0.186518 1.750868
vt 0.233581 1.874581
vt 0.233581 1.750868
vt 0.248061 1.750868
vt 0.142547 1.874581
vt 0.248060 1.874581
vt 0.142547 1.750868
vt 0.173319 1.750868
vt 0.185476 1.874581
vt 0.173319 1.874581
vt 0.185476 1.750868
vt 0.249104 1.750868
vt 0.249102 1.874581
vt 0.186803 1.874581
vt 0.186803 1.750868
vt 0.247775 1.874581
vt 0.142262 1.750868
vt 0.247775 1.750868
vt 0.142262 1.874581
vt 0.248817 1.874581
vt 0.248818 1.750868
vt 0.186518 1.750868
vt 0.186518 1.874581
vn 0.2020 -0.9794 0.0000
vn -0.0646 0.3130 0.9476
vn 0.0049 -0.0236 0.9997
vn -0.0282 -0.0058 0.9996
vn -0.2020 0.9794 0.0000
vn -0.0000 0.0000 1.0000
vn 0.1229 -0.6964 0.7070
vn 0.1229 -0.6965 0.7070
vn -0.1629 0.6888 0.7065
vn -0.1628 0.6885 0.7067
vn -0.1628 0.6884 0.7068
vn -0.1628 0.6886 0.7066
vn -0.0049 0.0236 0.9997
vn 0.0646 -0.3130 0.9476
vn 0.0646 -0.3130 0.9475
vn -0.2020 0.9794 0.0001
vn 0.1230 -0.6970 0.7064
vn -0.1628 0.6884 0.7069
vn -0.1628 0.6883 0.7070
vn -0.1627 0.6883 0.7070
vn 0.1229 -0.6966 0.7069
vn 0.1229 -0.6966 0.7068
vn 0.1228 -0.6963 0.7072
usemtl EnvironmentMat
s 1
f 1/1/1 3/2/1 2/3/1
f 4/4/1 2/3/1 3/2/1
f 5/5/2 7/6/2 6/7/2
f 5/5/2 6/7/2 8/8/2
f 9/9/3 10/10/3 1/11/3
f 9/9/3 1/11/3 11/12/3
f 12/13/4 14/14/4 13/15/4
f 13/15/4 14/14/4 15/16/4
f 8/17/5 6/18/5 16/19/5
f 8/17/5 16/19/5 17/20/5
f 10/21/1 19/22/1 18/23/1
f 19/22/1 10/21/1 20/24/1
f 21/25/6 7/26/6 5/27/6
f 7/26/6 21/25/6 22/28/6
f 23/29/1 25/30/1 24/31/1
f 25/30/1 23/29/1 26/32/1
f 20/24/7 14/14/8 19/22/8
f 14/14/8 20/24/7 15/16/7
f 12/33/9 13/34/10 16/35/11
f 16/35/12 27/36/12 12/33/12
f 28/37/13 30/38/13 29/39/13
f 30/38/13 28/37/13 31/40/13
f 11/12/1 1/11/1 32/41/1
f 2/42/1 32/41/1 1/11/1
f 33/43/14 23/44/14 24/45/14
f 23/44/14 33/43/15 22/46/14
f 34/47/5 35/48/16 30/49/16
f 34/47/5 30/49/16 36/50/5
f 7/6/2 38/51/2 37/52/2
f 7/6/2 37/52/2 6/7/2
f 10/21/3 18/23/3 3/2/3
f 10/21/3 3/2/3 1/1/3
f 22/46/14 39/53/14 23/44/14
f 39/53/14 22/46/14 21/54/14
f 35/55/5 40/56/5 29/39/5
f 35/55/16 29/39/16 30/38/16
f 13/57/4 15/58/4 41/59/4
f 41/59/4 15/58/4 42/60/4
f 6/61/5 37/62/5 27/36/5
f 6/61/5 27/36/5 16/35/5
f 9/9/1 20/63/1 10/10/1
f 20/63/1 9/9/1 43/64/1
f 22/28/6 38/65/6 7/26/6
f 38/65/6 22/28/6 33/66/6
f 43/64/17 15/58/7 20/63/7
f 15/58/7 43/64/17 42/60/17
f 13/67/9 41/68/9 17/20/9
f 17/20/18 16/19/11 13/67/10
f 31/69/13 44/70/13 30/49/13
f 36/50/13 30/49/13 44/70/13
f 45/71/4 47/72/4 46/73/4
f 47/72/4 45/71/4 48/74/4
f 39/75/1 26/76/1 23/77/1
f 26/76/1 39/75/1 49/78/1
f 31/40/5 51/79/5 50/80/5
f 51/79/5 31/40/5 28/37/5
f 50/80/11 45/71/19 46/73/18
f 45/71/20 50/80/20 51/79/20
f 47/81/21 48/82/22 26/32/23
f 25/30/22 26/32/23 48/82/22
f 46/83/4 53/84/4 52/85/4
f 53/84/4 46/83/4 47/86/4
f 44/70/5 50/87/5 54/88/5
f 50/87/5 44/70/5 31/69/5
f 54/88/20 46/83/20 52/85/20
f 46/83/18 54/88/18 50/87/11
f 53/89/21 47/90/21 49/78/21
f 26/76/23 49/78/21 47/90/21
