# Blender v3.4.1 OBJ File: 'track.blend'
# www.blender.org
mtllib _1BRIDGE_PERSON_EMIRATES_01_001_Scene.222.mtl
o _1BRIDGE_PERSON_EMIRATES_01_001_Scene.222
v 144.158096 10.060791 -9.731503
v 141.178299 10.647621 -9.731503
v 144.158096 10.060790 -6.731503
v 141.178299 10.647620 -6.731503
v 125.373199 16.828552 -9.731502
v 125.373199 16.828552 -6.731503
v 125.211601 16.860493 -6.731503
v 123.249489 17.248182 -9.731502
v 117.363297 18.411230 -4.731503
v 119.325401 18.023540 -1.731503
v 119.300797 17.898800 -1.731503
v 125.186989 16.735743 -6.731503
v 144.704102 12.879340 -6.731503
v 141.735199 13.465971 -6.731503
v 141.815598 13.579701 -6.731503
v 141.759903 13.590721 -6.731503
v 144.372498 11.144841 -6.731503
v 144.739899 13.004322 -9.731503
v 146.117004 19.974140 -4.731502
v 145.729401 18.012070 -1.731502
v 122.667992 14.305082 -9.731503
v 116.781792 15.468130 -4.731503
v 118.743896 15.080450 -1.731503
v 124.630096 13.917391 -6.731503
v 124.791695 13.885452 -9.731503
v 124.791695 13.885451 -6.731503
v 144.003098 10.291641 -6.731503
v 144.179092 11.183051 -6.731503
v 141.216599 10.841010 -6.731503
v 141.735199 13.465971 -6.856575
v 144.704102 12.879340 -6.856376
v 144.003098 10.291641 -6.856376
v 141.216599 10.841010 -6.856575
v 138.867096 14.032691 -6.859980
v 138.348404 11.407721 -6.859980
v 136.632294 14.474250 -6.862632
v 136.113693 11.849290 -6.862632
v 130.419098 15.701920 -6.862632
v 129.900497 13.076951 -6.862632
v 128.198303 16.140732 -6.859335
v 127.679596 13.515771 -6.859335
v 124.829903 14.078841 -6.855104
v 125.348602 16.703802 -6.855104
v 124.624489 14.119431 -6.854800
v 125.143204 16.744400 -6.854799
v 141.561905 11.740981 -6.856376
v 144.186798 11.222310 -6.856376
v 141.340302 10.619521 -6.856376
v 141.429398 11.726370 -6.731503
v 141.554092 11.701720 -6.731503
v 141.340302 10.619521 -6.731503
v 141.215500 10.644171 -6.731503
v 127.641403 13.322382 -9.731503
v 127.641403 13.322381 -6.731503
v 129.862198 12.883570 -6.731503
v 129.862198 12.883571 -9.731503
v 136.075500 11.655900 -6.731503
v 136.075500 11.655901 -9.731503
v 138.310196 11.214331 -6.731503
v 138.310196 11.214332 -9.731503
v 138.891693 14.157431 -9.731503
v 138.891693 14.157430 -6.731503
v 136.656998 14.599001 -6.731503
v 136.656998 14.599002 -9.731503
v 130.443802 15.826671 -6.731503
v 130.443802 15.826672 -9.731502
v 128.222900 16.265482 -6.731503
v 128.222900 16.265482 -9.731502
v 124.668297 14.110781 -6.731503
v 118.782097 15.273830 -1.731503
v 118.699692 15.290110 -1.832239
v 124.829903 14.078841 -6.731503
v 127.679596 13.515771 -6.731503
v 129.900497 13.076951 -6.731503
v 136.113693 11.849290 -6.731503
v 138.348404 11.407721 -6.731503
v 119.218399 17.915070 -1.832239
v 145.550705 18.125050 -1.838206
v 145.535995 18.050280 -1.731502
v 125.348602 16.703802 -6.731503
v 128.198303 16.140732 -6.731503
v 130.419098 15.701920 -6.731503
v 136.632294 14.474250 -6.731503
v 138.867096 14.032691 -6.731503
v 142.925797 18.643721 -1.838206
v 142.910995 18.568951 -1.731502
v 141.759903 13.590722 -9.731503
v 141.796799 13.585841 -9.731503
v 125.168701 14.061430 -6.870270
v 124.916489 14.111251 -6.870270
v 125.168701 14.061429 -0.110283
v 124.916489 14.111250 -0.110283
v 125.193298 14.186181 -6.870270
v 125.193298 14.186180 -0.110283
v 125.668991 16.593771 -6.870269
v 125.644402 16.469023 -6.870269
v 125.668991 16.593769 -0.110283
v 125.644402 16.469021 -0.110283
v 125.392303 16.518831 -6.870269
v 125.392303 16.518829 -0.110283
v 125.416901 16.643579 -0.110283
v 125.416901 16.643581 -6.870269
v 124.941200 14.235990 -0.110283
v 124.941200 14.235991 -6.870270
v 124.992790 14.115641 -5.066026
v 125.110001 14.092461 -4.946460
v 127.163689 13.686670 -7.278976
v 127.280991 13.663501 -7.159411
v 127.180992 13.774001 -7.278976
v 125.009995 14.202961 -5.066026
v 127.639389 16.094261 -7.278979
v 127.656700 16.181591 -7.278979
v 125.468491 16.523230 -5.066028
v 125.485703 16.610548 -5.066028
v 125.585800 16.500050 -4.946462
v 127.756699 16.071093 -7.159415
v 125.602997 16.587370 -4.946462
v 127.774002 16.158411 -7.159414
v 125.127289 14.179781 -4.946460
v 127.298302 13.750821 -7.159411
v 125.417290 15.319920 -6.870270
v 125.165192 15.369740 -6.870270
v 125.417290 15.319919 -0.110283
v 125.165192 15.369740 -0.110283
v 125.442001 15.444670 -6.870270
v 125.442001 15.444669 -0.110283
v 125.189903 15.494479 -0.110283
v 125.189903 15.494480 -6.870270
v 125.241402 15.374131 -5.066026
v 125.358696 15.350950 -4.946460
v 127.412399 14.945161 -7.278976
v 127.529694 14.921991 -7.159411
v 127.429596 15.032491 -7.278976
v 125.258698 15.461451 -5.066026
v 125.375992 15.438270 -4.946460
v 127.546989 15.009311 -7.159411
v 141.367599 13.498900 -6.870268
v 141.619705 13.449091 -6.870268
v 141.367599 13.498899 -0.110282
v 141.619705 13.449090 -0.110282
v 141.342880 13.374161 -6.870268
v 141.342880 13.374160 -0.110282
v 140.867203 10.966571 -6.870269
v 140.891800 11.091311 -6.870269
v 140.867203 10.966570 -0.110283
v 140.891800 11.091310 -0.110283
v 141.143997 11.041501 -6.870269
v 141.143997 11.041500 -0.110283
v 141.119293 10.916750 -0.110283
v 141.119293 10.916751 -6.870269
v 141.595001 13.324339 -0.110282
v 141.595001 13.324340 -6.870268
v 141.543503 13.444700 -5.066025
v 141.426193 13.467871 -4.946460
v 139.372498 13.873660 -7.278975
v 139.255203 13.896840 -7.159410
v 139.355301 13.786341 -7.278975
v 141.526199 13.357371 -5.066025
v 141.050507 10.949781 -5.066028
v 141.067795 11.037111 -5.066028
v 138.896805 11.466071 -7.278979
v 138.879501 11.378751 -7.278979
v 140.950500 11.060280 -4.946463
v 138.779495 11.489251 -7.159414
v 138.762207 11.401931 -7.159414
v 140.933197 10.972960 -4.946463
v 141.408905 13.380551 -4.946460
v 139.238007 13.809511 -7.159410
v 141.118896 12.240411 -6.870269
v 141.371002 12.190601 -6.870269
v 141.118896 12.240410 -0.110283
v 141.371002 12.190600 -0.110283
v 141.094299 12.115670 -0.110283
v 141.094299 12.115671 -6.870269
v 141.346405 12.065850 -0.110283
v 141.346405 12.065851 -6.870269
v 141.294800 12.186211 -5.066025
v 141.177505 12.209380 -4.946460
v 139.006500 12.638350 -7.159411
v 139.123795 12.615170 -7.278975
v 141.277603 12.098880 -5.066025
v 139.106598 12.527851 -7.278975
v 138.989304 12.551031 -7.159411
v 141.160294 12.122060 -4.946460
v 142.786301 18.593599 -1.731502
v 143.173904 20.555658 -4.731502
vt 0.829946 1.921971
vt 0.829946 1.921971
vt 0.829946 1.921971
vt 0.829946 1.921971
vt 0.829946 1.921971
vt 0.829946 1.921971
vt 0.829946 1.921971
vt 0.829946 1.921971
vt 0.829946 1.921971
vt 0.829946 1.921971
vt 0.829946 1.921971
vt 0.829946 1.921971
vt 0.829946 1.921971
vt 0.829946 1.921971
vt 0.829946 1.921971
vt 0.829946 1.921971
vt 0.829946 1.921971
vt 0.829946 1.921971
vt 0.829946 1.921971
vt 0.829946 1.921971
vt 0.829946 1.921971
vt 0.829946 1.921971
vt 0.829946 1.921971
vt 0.829946 1.921971
vt 0.829946 1.921971
vt 0.829946 1.921971
vt 0.829946 1.921971
vt 0.829946 1.921971
vt 0.829946 1.921971
vt 0.143018 1.988833
vt 0.143018 1.988833
vt 0.143018 1.988833
vt 0.143018 1.988833
vt 0.143018 1.988833
vt 0.143018 1.988833
vt 0.143018 1.988833
vt 0.143018 1.988833
vt 0.143018 1.988833
vt 0.143018 1.988833
vt 0.143018 1.988833
vt 0.143018 1.988833
vt 0.143018 1.988833
vt 0.143018 1.988833
vt 0.143018 1.988833
vt 0.143018 1.988833
vt 0.143018 1.988833
vt 0.143018 1.988833
vt 0.143018 1.988833
vt 0.829946 1.921971
vt 0.829946 1.921971
vt 0.829946 1.921971
vt 0.829946 1.921971
vt 0.372931 1.797811
vt 0.347536 1.764264
vt 0.372931 1.764264
vt 0.347536 1.797811
vt 0.276714 1.764264
vt 0.276714 1.797811
vt 0.251321 1.764264
vt 0.251321 1.797811
vt 0.372928 1.797811
vt 0.347536 1.764264
vt 0.372928 1.764264
vt 0.347536 1.797811
vt 0.276714 1.764264
vt 0.276714 1.797811
vt 0.251318 1.764264
vt 0.251318 1.797811
vt 0.143018 1.988833
vt 0.143018 1.988833
vt 0.143018 1.988833
vt 0.143018 1.988833
vt 0.143018 1.988833
vt 0.143018 1.988833
vt 0.143018 1.988833
vt 0.143018 1.988833
vt 0.143018 1.988833
vt 0.143018 1.988833
vt 0.829946 1.921971
vt 0.829946 1.921971
vt 0.143018 1.988833
vt 0.143018 1.988833
vt 0.143018 1.988833
vt 0.143018 1.988833
vt 0.767397 1.916090
vt 0.767397 1.916090
vt 0.767397 1.916090
vt 0.767397 1.916090
vt 0.143018 1.988833
vt 0.143018 1.988833
vt 0.143018 1.988833
vt 0.143018 1.988833
vt 0.143018 1.988833
vt 0.143018 1.988833
vt 0.143018 1.988833
vt 0.143018 1.988833
vt 0.143018 1.988833
vt 0.143018 1.988833
vt 0.143018 1.988833
vt 0.143018 1.988833
vt 0.143018 1.988833
vt 0.281354 1.767201
vt 0.281354 1.751578
vt 0.299741 1.767201
vt 0.299741 1.751578
vt 0.829946 1.921971
vt 0.829946 1.921971
vt 0.282172 1.767130
vt 0.282172 1.751732
vt 0.300295 1.767130
vt 0.300295 1.751732
vt 0.312735 1.768151
vt 0.312735 1.768151
vt 0.312735 1.768151
vt 0.312735 1.768151
vt 0.312735 1.768151
vt 0.312735 1.768151
vt 0.312735 1.768151
vt 0.312735 1.768151
vt 0.312735 1.768151
vt 0.312735 1.768151
vt 0.312735 1.768151
vt 0.312735 1.768151
vt 0.340798 1.812189
vt 0.359128 1.793380
vt 0.359128 1.812189
vt 0.340798 1.793380
vt 0.326516 1.812189
vt 0.326516 1.793380
vt 0.286809 1.812189
vt 0.286809 1.793380
vt 0.272616 1.812189
vt 0.272616 1.793380
vt 0.254405 1.812189
vt 0.254405 1.793380
vt 0.829946 1.921971
vt 0.829946 1.921971
vt 0.312735 1.768151
vt 0.312735 1.768151
vt 0.312735 1.768151
vt 0.312735 1.768151
vt 0.312735 1.768151
vt 0.312735 1.768151
vt 0.312735 1.768151
vt 0.312735 1.768152
vt 0.312735 1.768151
vt 0.312735 1.768152
vt 0.312735 1.768151
vt 0.312735 1.768152
vt 0.810705 1.902426
vt 0.810705 1.902426
vt 0.811085 1.902267
vt 0.811085 1.902267
vt 0.810736 1.902451
vt 0.810736 1.902451
vt 0.810736 1.902451
vt 0.810736 1.902451
vt 0.810736 1.902451
vt 0.810736 1.902451
vt 0.810736 1.902451
vt 0.810736 1.902451
vt 0.810705 1.902426
vt 0.810705 1.902426
vt 0.811085 1.902267
vt 0.811085 1.902267
vt 0.810705 1.902426
vt 0.811085 1.902267
vt 0.810705 1.902426
vt 0.811085 1.902267
vt 0.810736 1.902451
vt 0.810736 1.902451
vt 0.810736 1.902451
vt 0.810736 1.902451
vt 0.810705 1.902426
vt 0.811085 1.902267
vt 0.810705 1.902426
vt 0.811085 1.902267
vt 0.810736 1.902451
vt 0.810736 1.902451
vt 0.810736 1.902451
vt 0.810736 1.902451
vt 0.810705 1.902426
vt 0.810705 1.902426
vt 0.811085 1.902267
vt 0.811085 1.902267
vt 0.810736 1.902451
vt 0.810736 1.902451
vt 0.810736 1.902451
vt 0.810736 1.902451
vt 0.810736 1.902451
vt 0.810736 1.902451
vt 0.810736 1.902451
vt 0.810736 1.902451
vt 0.810705 1.902426
vt 0.810705 1.902426
vt 0.811085 1.902267
vt 0.811085 1.902267
vt 0.810705 1.902426
vt 0.811085 1.902267
vt 0.811085 1.902267
vt 0.810705 1.902426
vt 0.810736 1.902451
vt 0.810736 1.902451
vt 0.810736 1.902451
vt 0.810736 1.902451
vt 0.810705 1.902426
vt 0.811085 1.902267
vt 0.811085 1.902267
vt 0.810705 1.902426
vt 0.810736 1.902451
vt 0.810736 1.902451
vt 0.810736 1.902451
vt 0.810736 1.902451
vt 0.810705 1.902426
vt 0.810705 1.902426
vt 0.811085 1.902267
vt 0.811085 1.902267
vt 0.810736 1.902451
vt 0.810736 1.902451
vt 0.810736 1.902451
vt 0.810736 1.902451
vt 0.810705 1.902426
vt 0.811085 1.902267
vt 0.810705 1.902426
vt 0.811085 1.902267
vt 0.810736 1.902451
vt 0.810736 1.902451
vt 0.810736 1.902451
vt 0.810736 1.902451
vt 0.810705 1.902426
vt 0.810705 1.902426
vt 0.811085 1.902267
vt 0.811085 1.902267
vt 0.810736 1.902451
vt 0.810736 1.902451
vt 0.810736 1.902451
vt 0.810736 1.902451
vt 0.810705 1.902426
vt 0.811085 1.902267
vt 0.811085 1.902267
vt 0.810705 1.902426
vt 0.810736 1.902451
vt 0.810736 1.902451
vt 0.810736 1.902451
vt 0.810736 1.902451
vt 0.810705 1.902426
vt 0.810705 1.902426
vt 0.811085 1.902267
vt 0.811085 1.902267
vt 0.810736 1.902451
vt 0.810736 1.902451
vt 0.810736 1.902451
vt 0.810736 1.902451
vt 0.810736 1.902451
vt 0.810736 1.902451
vt 0.810736 1.902451
vt 0.810736 1.902451
vt 0.810705 1.902426
vt 0.810705 1.902426
vt 0.811085 1.902267
vt 0.811085 1.902267
vt 0.810705 1.902426
vt 0.811085 1.902267
vt 0.810705 1.902426
vt 0.811085 1.902267
vt 0.810736 1.902451
vt 0.810736 1.902451
vt 0.810736 1.902451
vt 0.810736 1.902451
vt 0.810705 1.902426
vt 0.811085 1.902267
vt 0.810705 1.902426
vt 0.811085 1.902267
vt 0.810736 1.902451
vt 0.810736 1.902451
vt 0.810736 1.902451
vt 0.810736 1.902451
vt 0.810705 1.902426
vt 0.810705 1.902426
vt 0.811085 1.902267
vt 0.811085 1.902267
vt 0.810736 1.902451
vt 0.810736 1.902451
vt 0.810736 1.902451
vt 0.810736 1.902451
vt 0.810736 1.902451
vt 0.810736 1.902451
vt 0.810736 1.902451
vt 0.810736 1.902451
vt 0.810705 1.902426
vt 0.811085 1.902267
vt 0.811085 1.902267
vt 0.810705 1.902426
vt 0.810705 1.902426
vt 0.811085 1.902267
vt 0.810705 1.902426
vt 0.811085 1.902267
vt 0.810736 1.902451
vt 0.810736 1.902451
vt 0.810736 1.902451
vt 0.810736 1.902451
vt 0.810705 1.902426
vt 0.811085 1.902267
vt 0.811085 1.902267
vt 0.810705 1.902426
vt 0.810736 1.902451
vt 0.810736 1.902451
vt 0.810736 1.902451
vt 0.810736 1.902451
vt 0.810705 1.902426
vt 0.810705 1.902426
vt 0.811085 1.902267
vt 0.811085 1.902267
vt 0.810736 1.902451
vt 0.810736 1.902451
vt 0.810736 1.902451
vt 0.810736 1.902451
vt 0.810705 1.902426
vt 0.811085 1.902267
vt 0.810705 1.902426
vt 0.811085 1.902267
vt 0.810736 1.902451
vt 0.810736 1.902451
vt 0.810736 1.902451
vt 0.810736 1.902451
vt 0.810705 1.902426
vt 0.811085 1.902267
vt 0.811085 1.902267
vt 0.810705 1.902426
vt 0.810736 1.902451
vt 0.810736 1.902451
vt 0.810736 1.902451
vt 0.810736 1.902451
vt 0.810705 1.902426
vt 0.811085 1.902267
vt 0.810705 1.902426
vt 0.811085 1.902267
vt 0.810736 1.902451
vt 0.810736 1.902451
vt 0.810736 1.902451
vt 0.810736 1.902451
vt 0.281301 1.751578
vt 0.299689 1.767201
vt 0.281301 1.767201
vt 0.299689 1.751578
vt 0.282278 1.767130
vt 0.282278 1.751732
vt 0.300399 1.767130
vt 0.300399 1.751732
vt 0.829946 1.921971
vt 0.829946 1.921971
vt 0.829946 1.921971
vt 0.773459 1.922152
vt 0.773459 1.922152
vt 0.773459 1.922152
vt 0.773459 1.922152
vt 0.787822 1.924401
vt 0.787822 1.924401
vt 0.787822 1.924401
vt 0.787822 1.924401
vt 0.787822 1.924401
vt 0.787822 1.924401
vt 0.829946 1.921971
vn -0.1932 -0.9812 0.0000
vn -0.1935 -0.9811 -0.0000
vn 0.1938 0.9810 -0.0000
vn 0.1939 0.9810 -0.0000
vn 0.6281 -0.1239 0.7682
vn -0.0000 0.0000 1.0000
vn 0.9810 -0.1939 -0.0000
vn 0.9810 -0.1940 0.0000
vn 0.9810 -0.1938 -0.0000
vn -0.6280 0.1241 -0.7682
vn -0.1938 -0.9810 0.0000
vn -0.1939 -0.9810 0.0000
vn -0.0006 0.0001 1.0000
vn -0.0001 0.0000 1.0000
vn -0.0011 0.0002 1.0000
vn 0.0007 -0.0001 1.0000
vn 0.0014 -0.0003 1.0000
vn 0.1936 0.9811 0.0000
vn 0.1934 0.9811 0.0000
vn 0.6281 -0.1240 0.7682
vn 0.6280 -0.1241 0.7682
vn 0.6273 -0.1240 0.7689
vn -0.9811 0.1937 0.0000
vn -0.9810 0.1938 -0.0001
vn -0.9811 0.1936 0.0004
vn 0.7535 -0.1489 -0.6404
vn -0.1938 -0.9810 0.0001
vn 0.9810 -0.1938 -0.0002
vn 0.9810 -0.1941 0.0002
vn 0.0000 0.0000 -1.0000
vn 0.1814 0.9834 0.0002
vn 0.1815 0.9834 0.0002
vn 0.1691 0.9856 0.0005
vn 0.1692 0.9856 0.0005
vn 0.1816 0.9834 0.0002
vn 0.9811 -0.1934 -0.0000
vn -0.9810 0.1938 0.0000
vn -0.9811 0.1934 0.0000
vn -0.9809 0.1944 0.0000
vn -0.1940 -0.9810 -0.0001
vn -0.6937 0.1374 -0.7071
vn -0.6938 0.1365 -0.7071
vn -0.6937 0.1373 -0.7071
vn -0.6937 0.1372 -0.7071
vn -0.6938 0.1368 -0.7071
vn -0.6936 0.1376 -0.7071
vn 0.6938 -0.1365 0.7071
vn 0.6936 -0.1376 0.7071
vn 0.6938 -0.1369 0.7071
vn 0.6936 -0.1374 0.7071
vn 0.9810 -0.1941 -0.0000
vn 0.9810 -0.1942 -0.0000
vn 0.9811 -0.1936 -0.0000
vn -0.9809 0.1943 0.0000
vn -0.9810 0.1939 0.0000
vn -0.6937 0.1371 -0.7071
vn 0.1938 0.9810 -0.0001
vn 0.6936 -0.1372 0.7071
vn -0.9810 0.1940 -0.0000
vn 0.6937 -0.1372 -0.7071
vn 0.6936 -0.1373 -0.7071
vn 0.6938 -0.1368 -0.7071
vn 0.6936 -0.1374 -0.7071
vn 0.6937 -0.1371 -0.7071
vn 0.6936 -0.1378 -0.7071
vn -0.6936 0.1374 0.7071
vn -0.6937 0.1372 0.7071
vn -0.6937 0.1374 0.7071
vn 0.6938 -0.1365 -0.7071
vn 0.6937 -0.1370 -0.7071
vn -0.6938 0.1367 0.7071
vn -0.1126 -0.5703 0.8137
vn -0.1127 -0.5702 0.8138
vn -0.1127 -0.5702 0.8137
vn -0.1126 -0.5696 0.8142
vn -0.1577 -0.7983 -0.5812
vn -0.1578 -0.7984 -0.5812
vn 0.1613 0.8163 0.5547
vn 0.1613 0.8162 0.5547
vn 0.1614 0.8163 0.5547
vn 0.1116 0.5646 -0.8178
usemtl EnvironmentMat
s 1
f 1/1/1 3/2/1 2/3/2
f 2/3/2 3/2/1 4/4/2
f 5/5/3 7/6/4 6/7/4
f 8/8/3 7/6/4 5/5/3
f 7/6/4 8/8/3 9/9/3
f 10/10/3 7/6/4 9/9/3
f 11/11/5 7/6/5 10/10/5
f 7/6/5 11/11/5 12/12/5
f 13/13/6 15/14/6 14/15/6
f 16/16/6 14/15/6 15/14/6
f 1/1/7 17/17/7 3/2/8
f 17/17/7 1/1/7 18/18/7
f 17/17/7 18/18/7 19/19/9
f 20/20/9 17/17/7 19/19/9
f 21/21/10 22/22/10 8/8/10
f 8/8/10 22/22/10 9/9/10
f 22/22/11 24/23/11 23/24/11
f 24/23/12 22/22/11 21/21/11
f 25/25/11 24/23/12 21/21/11
f 24/23/12 25/25/11 26/26/12
f 27/27/6 17/17/6 28/28/6
f 17/17/6 27/27/6 3/2/6
f 4/4/6 3/2/6 27/27/6
f 27/27/6 29/29/6 4/4/6
f 30/30/13 32/31/14 31/32/14
f 32/31/14 30/30/13 33/33/13
f 34/34/15 33/33/13 30/30/13
f 33/33/13 34/34/15 35/35/15
f 36/36/13 35/35/15 34/34/15
f 35/35/15 36/36/13 37/37/13
f 38/38/16 37/37/13 36/36/13
f 37/37/13 38/38/16 39/39/16
f 40/40/17 39/39/16 38/38/16
f 39/39/16 40/40/17 41/41/17
f 42/42/17 41/41/17 40/40/17
f 43/43/17 42/42/17 40/40/17
f 42/42/17 43/43/17 44/44/17
f 45/45/17 44/44/17 43/43/17
f 46/46/6 32/31/6 47/47/6
f 32/31/6 46/46/6 48/48/6
f 49/49/6 51/50/6 50/51/6
f 51/50/6 49/49/6 52/52/6
f 53/53/11 55/54/11 54/55/11
f 56/56/11 55/54/11 53/53/11
f 56/56/11 57/57/11 55/54/11
f 56/56/11 58/58/11 57/57/11
f 58/58/11 59/59/11 57/57/11
f 60/60/11 59/59/11 58/58/11
f 61/61/3 63/62/3 62/63/3
f 64/64/3 63/62/3 61/61/3
f 64/64/3 65/65/3 63/62/3
f 64/64/3 66/66/3 65/65/3
f 66/66/3 67/67/3 65/65/3
f 68/68/3 67/67/3 66/66/3
f 69/69/3 71/70/3 70/71/3
f 71/70/3 69/69/3 44/44/3
f 42/42/4 44/44/3 69/69/3
f 42/42/4 69/69/3 72/72/4
f 73/73/3 42/42/4 72/72/4
f 42/42/4 73/73/3 41/41/3
f 74/74/3 41/41/3 73/73/3
f 41/41/3 74/74/3 39/39/3
f 37/37/3 39/39/3 74/74/3
f 37/37/3 74/74/3 75/75/3
f 35/35/3 37/37/3 75/75/3
f 35/35/3 75/75/3 76/76/3
f 33/33/18 35/35/3 76/76/3
f 33/33/18 76/76/3 29/77/18
f 32/31/19 33/33/18 29/77/18
f 32/31/19 29/77/18 27/78/19
f 23/24/20 69/79/20 70/80/20
f 69/79/21 23/24/21 24/23/21
f 71/70/22 45/45/22 77/81/22
f 45/45/22 71/70/22 44/44/22
f 28/82/23 32/31/23 27/78/23
f 32/31/23 28/82/23 47/47/24
f 28/82/23 78/83/25 47/47/24
f 78/83/25 28/82/23 79/84/25
f 71/85/26 77/86/26 11/87/26
f 71/85/26 11/87/26 70/88/26
f 77/81/27 12/89/12 11/90/27
f 12/89/12 77/81/27 45/45/12
f 43/43/12 12/89/12 45/45/12
f 12/89/12 43/43/12 80/91/12
f 43/43/12 81/92/11 80/91/12
f 43/43/12 40/40/11 81/92/11
f 40/40/11 82/93/11 81/92/11
f 40/40/11 38/38/11 82/93/11
f 38/38/11 83/94/11 82/93/11
f 38/38/11 36/36/11 83/94/11
f 34/34/11 83/94/11 36/36/11
f 83/94/11 34/34/11 84/95/11
f 30/30/11 84/95/11 34/34/11
f 84/95/11 30/30/11 14/96/11
f 31/32/11 14/96/11 30/30/11
f 14/96/11 31/32/11 13/97/11
f 48/48/9 50/98/9 51/99/9
f 50/98/28 48/48/9 46/46/28
f 85/100/29 50/98/28 46/46/28
f 50/98/28 85/100/29 86/101/29
f 5/102/3 6/103/4 68/104/3
f 68/104/3 6/103/4 67/105/3
f 7/6/6 12/12/6 6/7/6
f 12/12/6 80/106/6 6/7/6
f 5/5/30 21/21/30 8/8/30
f 21/21/30 5/5/30 25/25/30
f 69/79/6 24/23/6 72/107/6
f 24/23/6 26/26/6 72/107/6
f 2/108/2 4/109/2 60/110/11
f 60/110/11 4/109/2 59/111/11
f 84/112/6 14/113/6 16/114/6
f 16/114/6 62/115/6 84/112/6
f 83/116/6 84/112/6 62/115/6
f 62/115/6 63/117/6 83/116/6
f 82/118/6 83/116/6 63/117/6
f 63/117/6 65/119/6 82/118/6
f 81/120/6 82/118/6 65/119/6
f 65/119/6 67/121/6 81/120/6
f 80/122/6 81/120/6 67/121/6
f 67/121/6 6/123/6 80/122/6
f 60/124/30 87/125/30 2/126/30
f 87/125/30 60/124/30 61/127/30
f 58/128/30 61/127/30 60/124/30
f 61/127/30 58/128/30 64/129/30
f 56/130/30 64/129/30 58/128/30
f 64/129/30 56/130/30 66/131/30
f 53/132/30 66/131/30 56/130/30
f 66/131/30 53/132/30 68/133/30
f 25/134/30 68/133/30 53/132/30
f 68/133/30 25/134/30 5/135/30
f 87/136/31 16/16/32 88/137/33
f 88/137/34 16/16/35 15/14/34
f 59/138/6 4/139/6 29/140/6
f 29/140/6 76/141/6 59/138/6
f 57/142/6 59/138/6 76/141/6
f 76/141/6 75/143/6 57/142/6
f 55/144/6 57/142/6 75/143/6
f 75/143/6 74/145/6 55/144/6
f 54/146/6 55/144/6 74/145/6
f 74/145/6 73/147/6 54/146/6
f 26/148/6 54/146/6 73/147/6
f 73/147/6 72/149/6 26/148/6
f 89/150/11 91/151/11 90/152/11
f 90/152/11 91/151/11 92/153/11
f 93/154/36 94/155/9 89/156/8
f 89/156/8 94/155/9 91/157/8
f 95/158/36 97/159/36 96/160/36
f 96/160/36 97/159/36 98/161/36
f 96/162/11 98/163/11 99/164/11
f 99/164/11 98/163/11 100/165/11
f 101/166/3 95/167/3 102/168/3
f 95/167/3 101/166/3 97/169/3
f 99/170/37 100/171/38 102/172/38
f 102/172/38 100/171/38 101/173/38
f 103/174/3 93/175/3 104/176/3
f 93/175/3 103/174/3 94/177/3
f 90/178/37 92/179/37 104/180/39
f 104/180/39 92/179/37 103/181/23
f 105/182/40 107/183/11 106/184/40
f 106/184/40 107/183/11 108/185/11
f 107/186/41 105/187/42 109/188/43
f 109/188/43 105/187/42 110/189/42
f 111/190/44 113/191/45 112/192/46
f 112/192/46 113/191/45 114/193/44
f 113/194/12 111/195/27 115/196/11
f 115/196/11 111/195/27 116/197/27
f 117/198/3 112/199/3 114/200/3
f 112/199/3 117/198/3 118/201/3
f 115/202/47 116/203/48 117/204/49
f 117/204/49 116/203/48 118/205/48
f 119/206/3 109/207/3 110/208/3
f 109/207/3 119/206/3 120/209/3
f 106/210/50 108/211/48 119/212/50
f 119/212/50 108/211/48 120/213/48
f 121/214/12 123/215/12 122/216/12
f 122/216/12 123/215/12 124/217/12
f 125/218/51 126/219/52 121/220/7
f 121/220/7 126/219/52 123/221/53
f 127/222/3 125/223/3 128/224/3
f 125/223/3 127/222/3 126/225/3
f 122/226/37 124/227/54 128/228/55
f 128/228/55 124/227/54 127/229/23
f 129/230/12 131/231/11 130/232/12
f 130/232/12 131/231/11 132/233/11
f 131/234/56 129/235/46 133/236/42
f 133/236/42 129/235/46 134/237/43
f 135/238/4 133/239/4 134/240/4
f 133/239/57 135/238/57 136/241/57
f 132/242/50 135/243/58 130/244/58
f 135/243/58 132/242/50 136/245/50
f 137/246/3 139/247/3 138/248/3
f 138/248/3 139/247/3 140/249/3
f 141/250/37 142/251/39 137/252/39
f 137/252/39 142/251/39 139/253/37
f 143/254/37 145/255/55 144/256/59
f 144/256/59 145/255/55 146/257/59
f 144/258/3 146/259/3 147/260/3
f 147/260/3 146/259/3 148/261/3
f 149/262/12 143/263/12 150/264/12
f 143/263/12 149/262/12 145/265/12
f 147/266/51 148/267/9 150/268/9
f 150/268/9 148/267/9 149/269/9
f 151/270/12 141/271/11 152/272/11
f 141/271/11 151/270/12 142/273/12
f 138/274/53 140/275/7 152/276/53
f 152/276/53 140/275/7 151/277/7
f 153/278/3 155/279/3 154/280/3
f 154/280/3 155/279/3 156/281/3
f 155/282/60 153/283/61 157/284/62
f 157/284/62 153/283/61 158/285/63
f 159/286/64 161/287/64 160/288/64
f 161/287/65 159/286/65 162/289/65
f 160/290/3 164/291/3 163/292/3
f 164/291/3 160/290/3 161/293/3
f 165/294/12 159/295/11 166/296/11
f 159/295/11 165/294/12 162/297/12
f 165/298/66 166/299/66 164/300/66
f 164/300/66 166/299/66 163/301/66
f 167/302/12 157/303/12 158/304/12
f 157/303/11 167/302/11 168/305/11
f 168/306/67 154/307/67 156/308/67
f 154/307/68 168/306/68 167/309/68
f 169/310/3 171/311/3 170/312/3
f 170/312/3 171/311/3 172/313/3
f 173/314/38 169/315/55 174/316/59
f 169/315/55 173/314/38 171/317/37
f 175/318/12 174/319/12 176/320/12
f 174/319/12 175/318/12 173/321/12
f 170/322/8 172/323/36 176/324/7
f 176/324/7 172/323/36 175/325/9
f 177/326/3 179/327/3 178/328/3
f 179/327/4 177/326/4 180/329/4
f 181/330/69 182/331/70 177/332/69
f 177/332/69 182/331/70 180/333/69
f 183/334/11 181/335/12 184/336/12
f 181/335/12 183/334/11 182/337/11
f 183/338/71 178/339/71 179/340/71
f 178/339/71 183/338/71 184/341/71
f 62/342/3 87/343/31 61/344/3
f 87/343/31 62/342/3 16/345/32
f 53/346/11 54/347/11 25/348/11
f 25/348/11 54/347/11 26/349/12
f 17/17/72 79/350/73 28/28/72
f 79/350/73 17/17/72 20/20/73
f 50/51/73 86/351/74 49/49/73
f 185/352/74 49/49/73 86/351/74
f 47/47/75 85/100/75 46/46/75
f 85/100/75 47/47/75 78/83/75
f 85/353/76 78/354/77 79/355/77
f 85/353/76 79/355/77 86/356/76
f 79/357/78 20/358/79 19/359/78
f 186/360/78 79/357/78 19/359/78
f 79/357/78 186/360/78 86/361/78
f 186/360/78 185/362/80 86/361/78
f 186/363/37 49/49/37 185/352/37
f 49/49/37 186/363/37 88/137/37
f 88/137/81 19/19/81 18/18/81
f 19/19/81 88/137/81 186/363/81
f 1/1/30 88/137/30 18/18/30
f 2/3/30 88/137/30 1/1/30
f 88/137/30 2/3/30 87/136/30
