# Blender v3.4.1 OBJ File: 'track.blend'
# www.blender.org
mtllib _1BRIDGE_SUB1_Scene.225.mtl
o _1BRIDGE_SUB1_Scene.225
v -292.627167 -275.934998 -8.657800
v -292.627167 -275.934998 -9.857800
v -301.125885 -277.687988 -8.657800
v -301.125885 -277.687988 -9.857800
v -286.393494 -263.200897 -9.290414
v -294.484406 -266.931000 -8.609520
v -294.892303 -264.953888 -9.290414
v -285.985687 -265.178009 -8.609519
v -284.532410 -272.223206 -8.609521
v -293.031189 -273.976288 -8.609521
v -284.128387 -274.182007 -8.657800
v -302.973206 -268.732605 -7.809519
v -294.474396 -266.979614 -7.559519
v -301.539886 -275.680786 -7.809520
v -293.041199 -273.927704 -7.559520
v -294.484406 -266.931000 -7.609084
v -285.985687 -265.178009 -7.359084
v -301.529907 -275.729309 -8.609521
v -301.529907 -275.729309 -7.859086
v -293.031189 -273.976288 -7.609086
v -288.165009 -254.612686 -9.290412
v -296.663788 -256.365692 -9.290413
v -297.071594 -254.388596 -8.609517
v -305.570312 -256.141693 -8.609518
v -305.570312 -256.141693 -7.859084
v -297.071594 -254.388596 -7.609084
v -302.983185 -268.684113 -7.859085
v -307.023590 -249.096497 -8.609518
v -307.427612 -247.137695 -8.657797
v -298.928894 -245.384705 -8.657797
v -298.524811 -247.343399 -8.609517
v -284.128387 -274.182007 -9.857800
v -305.162506 -258.118805 -9.290413
v -290.430115 -243.631592 -9.857796
v -298.928894 -245.384583 -9.857796
v -290.430115 -243.631592 -8.657797
v -302.983185 -268.684113 -8.609520
v -303.390991 -266.707001 -9.290415
v -288.572815 -252.635605 -8.609517
v -307.427612 -247.137695 -9.857796
v -285.975708 -265.226501 -7.309519
v -284.542389 -272.174713 -7.309520
v -284.532410 -272.223206 -7.359085
v -290.026093 -245.590286 -8.609517
v -307.013611 -249.145096 -7.809517
v -298.514801 -247.391983 -7.559517
v -297.081604 -254.340088 -7.559518
v -305.580414 -256.093201 -7.809518
v -288.572815 -252.635605 -7.359083
v -298.524811 -247.343399 -7.609083
v -307.023590 -249.096497 -7.859083
v -290.016113 -245.638901 -7.309517
v -288.582886 -252.587082 -7.309518
v -290.026093 -245.590286 -7.359082
vt 0.203425 1.874581
vt 0.203423 1.750868
vt 0.187066 1.874581
vt 0.187063 1.750868
vt 0.125884 1.844030
vt 0.249597 1.844030
vt 0.249597 1.812345
vt 0.125884 1.812345
vt 0.233581 1.750868
vt 0.233581 1.874581
vt 0.203828 1.874581
vt 0.203828 1.750868
vt 0.142547 1.750868
vt 0.248061 1.750868
vt 0.142547 1.874581
vt 0.248060 1.874581
vt 0.173319 1.750868
vt 0.173319 1.874581
vt 0.185476 1.874581
vt 0.185476 1.750868
vt 0.233179 1.874581
vt 0.249104 1.750868
vt 0.233177 1.750868
vt 0.249102 1.874581
vt 0.249128 1.750868
vt 0.125905 1.874581
vt 0.125905 1.750868
vt 0.249128 1.874581
vt 0.173603 1.874581
vt 0.185760 1.750868
vt 0.173603 1.750868
vt 0.185760 1.874581
vt 0.186803 1.750868
vt 0.186803 1.874581
vt 0.185760 1.874581
vt 0.185760 1.750868
vt 0.233177 1.750868
vt 0.203425 1.874581
vt 0.203423 1.750868
vt 0.233179 1.874581
vt 0.187468 1.750868
vt 0.187468 1.874581
vt 0.125884 1.844031
vt 0.249597 1.812345
vt 0.125884 1.812345
vt 0.249597 1.844030
vt 0.187468 1.750868
vt 0.187468 1.874581
vt 0.203828 1.874581
vt 0.203828 1.750868
vt 0.125884 1.844031
vt 0.125884 1.812345
vt 0.125884 1.812345
vt 0.125884 1.844030
vt 0.187066 1.874581
vt 0.187063 1.750868
vt 0.142262 1.874581
vt 0.247775 1.874581
vt 0.142262 1.750868
vt 0.247775 1.750868
vt 0.173603 1.874581
vt 0.173603 1.750868
vt 0.248817 1.874581
vt 0.248818 1.750868
vt 0.125904 1.750868
vt 0.249128 1.750868
vt 0.186518 1.874581
vt 0.186518 1.750868
vt 0.233581 1.874581
vt 0.233581 1.750868
vt 0.248061 1.750868
vt 0.142547 1.874581
vt 0.248060 1.874581
vt 0.142547 1.750868
vt 0.173319 1.750868
vt 0.185476 1.874581
vt 0.173319 1.874581
vt 0.185476 1.750868
vt 0.249104 1.750868
vt 0.249102 1.874581
vt 0.186803 1.874581
vt 0.186803 1.750868
vt 0.247775 1.874581
vt 0.142262 1.750868
vt 0.247775 1.750868
vt 0.142262 1.874581
vt 0.248817 1.874581
vt 0.248818 1.750868
vt 0.186518 1.750868
vt 0.186518 1.874581
vn 0.2020 -0.9794 0.0000
vn -0.0646 0.3130 0.9476
vn 0.0049 -0.0236 0.9997
vn -0.0282 -0.0058 0.9996
vn -0.2020 0.9794 0.0000
vn -0.0000 -0.0000 1.0000
vn 0.1228 -0.6963 0.7072
vn 0.1230 -0.6971 0.7064
vn 0.1228 -0.6961 0.7074
vn -0.1627 0.6883 0.7069
vn -0.1628 0.6885 0.7067
vn -0.1628 0.6884 0.7069
vn -0.1628 0.6886 0.7066
vn -0.0049 0.0236 0.9997
vn 0.0646 -0.3130 0.9476
vn -0.2020 0.9794 0.0001
vn 0.1230 -0.6973 0.7062
vn -0.1628 0.6883 0.7070
vn -0.1629 0.6887 0.7065
vn -0.1629 0.6888 0.7065
vn -0.1628 0.6887 0.7065
vn -0.1629 0.6886 0.7066
vn -0.1627 0.6880 0.7073
vn 0.1229 -0.6968 0.7066
vn 0.1230 -0.6969 0.7066
vn -0.1627 0.6879 0.7073
vn -0.1628 0.6886 0.7067
vn 0.1229 -0.6965 0.7070
usemtl EnvironmentMat
s 1
f 1/1/1 3/2/1 2/3/1
f 4/4/1 2/3/1 3/2/1
f 5/5/2 7/6/2 6/7/2
f 5/5/2 6/7/2 8/8/2
f 9/9/3 10/10/3 1/11/3
f 9/9/3 1/11/3 11/12/3
f 12/13/4 14/14/4 13/15/4
f 13/15/4 14/14/4 15/16/4
f 8/17/5 6/18/5 16/19/5
f 8/17/5 16/19/5 17/20/5
f 10/21/1 19/22/1 18/23/1
f 19/22/1 10/21/1 20/24/1
f 21/25/6 7/26/6 5/27/6
f 7/26/6 21/25/6 22/28/6
f 23/29/1 25/30/1 24/31/1
f 25/30/1 23/29/1 26/32/1
f 20/24/7 14/14/8 19/22/8
f 14/14/8 20/24/7 15/16/9
f 12/33/10 13/34/11 16/35/12
f 16/35/13 27/36/11 12/33/13
f 28/37/14 30/38/14 29/39/14
f 30/38/14 28/37/14 31/40/14
f 11/12/1 1/11/1 32/41/1
f 2/42/1 32/41/1 1/11/1
f 33/43/15 23/44/15 24/45/15
f 23/44/15 33/43/15 22/46/15
f 34/47/5 35/48/16 30/49/16
f 34/47/5 30/49/16 36/50/5
f 7/6/2 38/51/2 37/52/2
f 7/6/2 37/52/2 6/7/2
f 10/21/3 18/23/3 3/2/3
f 10/21/3 3/2/3 1/1/3
f 22/46/15 39/53/15 23/44/15
f 39/53/15 22/46/15 21/54/15
f 35/55/5 40/56/5 29/39/5
f 35/55/16 29/39/16 30/38/16
f 13/57/4 15/58/4 41/59/4
f 41/59/4 15/58/4 42/60/4
f 6/61/5 37/62/5 27/36/5
f 6/61/5 27/36/5 16/35/5
f 9/9/1 20/63/1 10/10/1
f 20/63/1 9/9/1 43/64/1
f 22/28/6 38/65/6 7/26/6
f 38/65/6 22/28/6 33/66/6
f 43/64/17 15/58/9 20/63/7
f 15/58/9 43/64/17 42/60/17
f 13/67/18 41/68/18 17/20/18
f 17/20/19 16/19/12 13/67/11
f 31/69/14 44/70/14 30/49/14
f 36/50/14 30/49/14 44/70/14
f 45/71/4 47/72/4 46/73/4
f 47/72/4 45/71/4 48/74/4
f 39/75/1 26/76/1 23/77/1
f 26/76/1 39/75/1 49/78/1
f 31/40/5 51/79/5 50/80/5
f 51/79/5 31/40/5 28/37/5
f 50/80/20 45/71/21 46/73/22
f 45/71/23 50/80/23 51/79/23
f 47/81/24 48/82/25 26/32/24
f 25/30/25 26/32/24 48/82/25
f 46/83/4 53/84/4 52/85/4
f 53/84/4 46/83/4 47/86/4
f 44/70/5 50/87/5 54/88/5
f 50/87/5 44/70/5 31/69/5
f 54/88/26 46/83/26 52/85/26
f 46/83/22 54/88/27 50/87/20
f 53/89/28 47/90/24 49/78/28
f 26/76/24 49/78/28 47/90/24
