# Blender v3.4.1 OBJ File: 'track.blend'
# www.blender.org
mtllib _1BRIDGE_AD01_EMIRATES_001_SUB1_Scene.207.mtl
o _1BRIDGE_AD01_EMIRATES_001_SUB1_Scene.207
v 162.086594 328.956268 -12.622017
v 152.319901 330.909210 -12.622016
v 152.319901 330.909210 -11.025516
v 162.086594 328.956268 -11.025517
v 172.008682 328.089081 -12.622017
v 162.244797 330.055786 -12.622017
v 162.242096 330.041992 -12.622017
v 172.011505 328.102875 -12.622017
v 162.242096 330.041992 -11.025517
v 162.244797 330.055786 -11.025517
v 172.008682 328.089081 -11.025517
v 172.011505 328.102875 -11.025517
v 152.478195 332.008698 -12.622016
v 152.475403 331.994904 -12.622016
v 142.556107 332.875885 -11.025516
v 152.322693 330.923004 -11.025516
v 142.553299 332.862091 -11.025516
v 162.089401 328.970062 -11.025517
v 171.855988 327.017212 -11.025517
v 171.853195 327.003357 -11.025517
v 142.708801 333.947815 -11.025516
v 142.708801 333.947815 -12.622016
v 142.711502 333.961609 -12.622016
v 142.711502 333.961609 -11.025516
v 152.475403 331.994904 -11.025516
v 152.322693 330.923004 -12.622016
v 162.089401 328.970062 -12.622017
v 171.853195 327.003357 -12.622017
v 152.478195 332.008698 -11.025516
v 171.855988 327.017212 -12.622017
v 142.556107 332.875885 -12.622016
v 142.553299 332.862091 -12.622016
vt 0.000206 1.856578
vt 0.124636 1.832060
vt 0.124636 1.856578
vt 0.000206 1.832060
vt 0.001693 1.869494
vt 0.001693 1.869494
vt 0.001693 1.869464
vt 0.001693 1.869464
vt 0.001693 1.869494
vt 0.001693 1.869494
vt 0.001693 1.869464
vt 0.001693 1.869464
vt 0.001693 1.869494
vt 0.001693 1.869464
vt 0.001693 1.869494
vt 0.001693 1.869464
vt 0.001693 1.869494
vt 0.001693 1.869464
vt 0.001693 1.869494
vt 0.001693 1.869464
vt 0.001693 1.869494
vt 0.001693 1.869464
vt 0.015470 1.866789
vt 0.015379 1.869166
vt 0.015470 1.869166
vt 0.015379 1.866789
vt 0.015379 1.873495
vt 0.015379 1.871118
vt 0.015470 1.873495
vt 0.015470 1.871118
vt 0.124636 1.856577
vt 0.000206 1.856577
vt 0.000206 1.832060
vt 0.124636 1.832060
vt 0.001693 1.868029
vt 0.001153 1.865652
vt 0.001693 1.868029
vt 0.001153 1.865652
vt 0.001153 1.865652
vt 0.001693 1.868029
vt 0.001693 1.868029
vt 0.001153 1.865652
vt 0.001693 1.869464
vt 0.001693 1.869464
vt 0.001693 1.869494
vt 0.001693 1.869494
vt 0.000206 1.856578
vt 0.124636 1.832060
vt 0.124636 1.856578
vt 0.000206 1.832060
vt 0.001693 1.869494
vt 0.001693 1.869464
vt 0.001153 1.865652
vt 0.001153 1.865652
vt 0.001693 1.868029
vt 0.001693 1.868029
vt 0.001153 1.865652
vt 0.001693 1.868029
vt 0.000206 1.856577
vt 0.124636 1.832060
vt 0.124636 1.856577
vt 0.000206 1.832060
vt 0.001153 1.865652
vt 0.001693 1.868029
vt 0.015470 1.866789
vt 0.015379 1.869166
vt 0.015470 1.869166
vt 0.015379 1.866789
vt 0.015379 1.873495
vt 0.015379 1.871118
vt 0.015470 1.873495
vt 0.015470 1.871118
vt 0.001693 1.869464
vt 0.001693 1.869494
vt 0.001693 1.869494
vt 0.001693 1.869464
vt 0.001693 1.869494
vt 0.001693 1.869464
vt 0.124636 1.856578
vt 0.000206 1.856578
vt 0.000206 1.832060
vt 0.124636 1.832060
vt 0.000206 1.856577
vt 0.124636 1.832060
vt 0.124636 1.856577
vt 0.000206 1.832060
vt 0.001693 1.869464
vt 0.001693 1.869494
vn -0.1961 -0.9806 0.0000
vn 0.0000 0.0000 -1.0000
vn 0.0000 -0.0000 1.0000
vn -0.9801 0.1985 0.0000
vn -0.9805 0.1964 0.0000
vn 0.9807 -0.1956 0.0000
vn 0.9794 -0.2018 -0.0000
vn 0.9807 -0.1957 0.0000
vn 0.1961 0.9806 0.0000
vn 0.9804 -0.1970 -0.0000
vn 0.9803 -0.1975 0.0000
vn 0.9804 -0.1971 0.0000
vn -0.9802 0.1981 -0.0000
vn -0.9802 0.1982 0.0000
usemtl EnvironmentMat
s 1
f 1/1/1 3/2/1 2/3/1
f 3/2/1 1/1/1 4/4/1
f 5/5/2 7/6/2 6/7/2
f 5/5/2 6/7/2 8/8/2
f 9/9/3 11/10/3 10/11/3
f 12/12/3 10/11/3 11/10/3
f 7/6/2 14/13/2 13/14/2
f 7/6/2 13/14/2 6/7/2
f 15/15/3 3/16/3 16/17/3
f 3/16/3 15/15/3 17/18/3
f 18/19/3 20/20/3 19/21/3
f 20/20/3 18/19/3 4/22/3
f 21/23/4 23/24/5 22/25/5
f 23/24/5 21/23/4 24/26/4
f 8/27/6 12/28/7 5/29/8
f 5/29/8 12/28/7 11/30/7
f 8/31/9 6/32/9 10/33/9
f 8/31/9 10/33/9 12/34/9
f 14/35/1 21/36/1 22/37/1
f 21/36/1 14/35/1 25/38/1
f 14/35/1 9/39/1 25/38/1
f 9/39/1 14/35/1 7/40/1
f 5/41/1 9/39/1 7/40/1
f 9/39/1 5/41/1 11/42/1
f 1/43/2 2/44/2 26/45/2
f 1/43/2 26/45/2 27/46/2
f 28/47/1 4/48/1 1/49/1
f 4/48/1 28/47/1 20/50/1
f 25/51/3 9/9/3 29/52/3
f 10/11/3 29/52/3 9/9/3
f 16/53/9 18/54/9 26/55/9
f 27/56/9 26/55/9 18/54/9
f 18/54/9 19/57/9 27/56/9
f 30/58/9 27/56/9 19/57/9
f 23/59/9 29/60/9 13/61/9
f 29/60/9 23/59/9 24/62/9
f 15/63/9 16/53/9 31/64/9
f 26/55/9 31/64/9 16/53/9
f 16/17/3 4/22/3 18/19/3
f 4/22/3 16/17/3 3/16/3
f 19/65/10 28/66/10 30/67/11
f 28/66/10 19/65/10 20/68/12
f 32/69/5 17/70/13 31/71/5
f 31/71/5 17/70/13 15/72/14
f 28/73/2 1/43/2 27/46/2
f 28/73/2 27/46/2 30/74/2
f 14/13/2 22/75/2 23/76/2
f 14/13/2 23/76/2 13/14/2
f 21/77/3 25/51/3 24/78/3
f 29/52/3 24/78/3 25/51/3
f 32/79/1 2/80/1 3/81/1
f 32/79/1 3/81/1 17/82/1
f 13/83/9 10/84/9 6/85/9
f 10/84/9 13/83/9 29/86/9
f 2/44/2 32/87/2 31/88/2
f 2/44/2 31/88/2 26/45/2
