# Blender v3.4.1 OBJ File: 'track.blend'
# www.blender.org
mtllib _1KERB_white_01_Scene.250.mtl
o _1KERB_white_01_Scene.250
v 159.565598 179.637299 -2.740126
v 159.780380 179.669678 -2.740224
v 159.444000 180.412079 -2.742263
v 159.700104 180.470306 -2.742431
v 159.917999 180.517105 -2.695536
v 159.966904 179.166885 -2.692647
v 159.445404 181.458496 -2.745704
v 159.151581 181.389099 -2.745626
v 159.696396 181.515793 -2.698849
v 159.204407 182.173203 -2.747042
v 160.135895 180.564484 -2.611347
v 160.153397 178.667496 -2.608243
v 159.947403 181.572998 -2.614568
v 159.450790 182.297104 -2.700082
v 158.835098 182.919998 -2.747082
v 159.697098 182.420898 -2.615681
v 159.070404 183.084778 -2.700085
v 159.305603 183.249603 -2.615681
v 158.384003 183.560791 -2.747082
v 158.601288 183.762695 -2.700085
v 158.818604 183.964600 -2.615681
v 158.179596 184.513992 -2.615681
v 157.997406 184.304581 -2.700085
v 157.815094 184.095184 -2.747082
v 157.409607 185.027893 -2.615681
v 157.266693 184.815186 -2.700085
v 157.123795 184.602402 -2.747082
v 156.587906 185.467590 -2.615045
v 156.382401 185.061691 -2.746326
v 156.485107 185.264603 -2.699390
v 155.213303 186.002808 -2.611970
v 155.141602 185.827499 -2.696303
v 155.070007 185.651993 -2.743309
v 156.257401 184.825989 -2.746271
v 154.980392 185.447693 -2.743244
v 154.667099 185.810989 -2.742629
v 154.588303 185.616302 -2.742573
v 154.132004 185.785889 -2.695259
v 154.249481 186.139801 -2.695260
v 153.832901 186.468201 -2.610856
v 153.637802 185.844803 -2.610855
v 156.953094 184.355499 -2.747082
v 157.599579 183.852203 -2.747082
v 158.128601 183.326401 -2.747082
v 156.157394 184.646500 -2.699258
v 157.432098 183.667084 -2.700085
v 158.559189 182.727783 -2.747082
v 154.906693 185.291504 -2.696253
v 154.358307 185.550705 -2.695405
v 153.859482 185.608780 -2.610999
v 154.833298 185.135086 -2.611938
v 156.057404 184.466888 -2.614878
v 156.819000 184.167587 -2.700085
v 156.684784 183.979797 -2.615680
v 157.264496 183.482101 -2.615681
v 157.931305 183.147690 -2.700085
v 157.733994 182.969101 -2.615681
v 158.346695 182.580597 -2.700085
v 158.134201 182.433395 -2.615681
v 158.915985 182.027405 -2.746974
v 158.694000 181.914703 -2.699929
v 158.472107 181.802200 -2.615499
v 158.699799 181.279007 -2.614323
v 158.925705 181.333801 -2.698638
v 159.048401 180.319504 -2.610966
v 159.246201 180.365402 -2.695248
v 159.460495 179.390198 -2.692814
v 159.404495 178.893707 -2.608403
v 159.611694 179.154388 -2.692647
v 159.559189 178.667496 -2.608243
v 148.970596 211.595886 -2.510897
v 148.964005 212.512299 -2.510897
v 148.637405 212.504089 -2.641912
v 148.644608 211.577881 -2.641883
v 148.322906 212.496185 -2.703039
v 149.033005 210.672104 -2.510898
v 148.330505 211.560577 -2.703039
v 148.707703 210.644287 -2.641855
v 148.393906 210.617493 -2.703040
v 149.104797 209.760605 -2.510898
v 148.781006 209.719482 -2.641806
v 148.468506 209.680099 -2.703040
v 148.916702 208.823898 -2.641756
v 148.600800 208.766983 -2.703040
v 149.242294 208.881500 -2.510898
v 148.863495 208.002808 -2.703039
v 149.165298 208.098099 -2.642088
v 149.479401 208.197083 -2.510898
v 149.191696 207.261993 -2.703039
v 149.047104 207.195404 -2.703039
v 149.470200 206.483704 -2.703039
v 149.477493 207.393585 -2.642419
v 149.777893 207.531906 -2.510898
v 149.598907 206.575989 -2.703039
v 150.010498 205.756500 -2.711556
v 149.851181 206.756897 -2.642544
v 150.117493 206.947906 -2.510897
v 150.624802 206.197083 -2.510897
v 150.140701 205.849899 -2.694462
v 150.563400 205.037277 -2.703040
v 150.357193 206.005188 -2.642730
v 150.695099 205.131699 -2.703040
v 151.140305 204.416885 -2.703040
v 151.254501 204.534897 -2.703040
v 150.947693 205.312805 -2.642966
v 151.217392 205.506302 -2.510898
v 151.471603 204.758102 -2.643186
v 151.957001 203.982803 -2.684996
v 151.704803 204.996994 -2.510898
v 152.153397 204.224197 -2.625483
v 152.746994 203.489578 -2.666953
v 152.359894 204.485794 -2.510898
v 152.913788 203.747696 -2.607780
v 153.786407 203.205093 -2.662949
v 153.086594 204.032303 -2.510898
v 154.429504 203.310501 -2.608783
v 154.770294 203.294388 -2.562519
v 149.304001 216.231598 -2.510898
v 148.928207 215.880997 -2.642122
v 149.054199 214.325500 -2.510898
v 148.727997 214.350098 -2.642041
v 148.523407 215.202377 -2.703039
v 148.981400 213.419800 -2.510898
v 148.415100 214.373596 -2.703039
v 148.655106 213.427979 -2.641976
v 148.341293 213.435791 -2.703039
v 147.877899 216.412003 -2.510898
v 148.150894 215.974396 -2.642120
v 147.620804 214.433487 -2.510898
v 148.368301 215.217499 -2.703039
v 147.946884 214.408905 -2.642041
v 148.259796 214.385284 -2.703039
v 148.186295 213.439682 -2.703039
v 147.872604 213.447586 -2.641978
v 148.168106 212.492401 -2.703039
v 147.546204 213.455795 -2.510898
v 147.853607 212.484482 -2.641915
v 147.526993 212.476303 -2.510897
v 148.176102 211.551987 -2.703039
v 147.862000 211.534698 -2.641887
v 147.535995 211.516693 -2.510897
v 148.239899 210.604294 -2.703040
v 147.926193 210.577499 -2.641860
v 147.600800 210.549698 -2.510898
v 148.315598 209.660797 -2.703040
v 148.003204 209.621399 -2.641811
v 147.679596 209.580597 -2.510898
v 148.446793 208.739395 -2.703040
v 148.131607 208.683197 -2.641763
v 147.806107 208.625793 -2.510898
v 148.096298 207.759506 -2.510898
v 148.411301 207.859482 -2.642070
v 148.460205 206.924805 -2.510897
v 148.713104 207.954681 -2.703039
v 148.760895 207.063507 -2.642378
v 148.951279 206.111694 -2.510897
v 149.217697 206.302597 -2.642508
v 149.722305 205.549896 -2.642670
v 149.454895 205.358078 -2.510898
v 150.041199 204.662689 -2.510898
v 150.310303 204.855698 -2.642877
v 150.691498 203.953003 -2.510898
v 150.923492 204.192795 -2.643106
v 151.453201 203.348389 -2.510898
v 151.658005 203.610992 -2.625382
v 152.334900 202.799484 -2.510898
v 151.851181 203.853394 -2.684996
v 152.506195 203.084198 -2.607658
v 152.655304 203.348495 -2.666953
v 153.604706 202.825500 -2.662949
v 153.988983 202.214005 -2.606622
v 154.220993 201.959290 -2.562519
vt 0.257194 1.014427
vt 0.257237 1.014427
vt 0.257119 1.014427
vt 0.257147 1.014427
vt 0.257111 1.015245
vt 0.257094 1.015245
vt 0.257237 1.014427
vt 0.257340 1.014427
vt 0.257189 1.015244
vt 0.257321 1.014427
vt 0.257107 1.016712
vt 0.257101 1.016712
vt 0.257174 1.016712
vt 0.257275 1.015244
vt 0.257451 1.014427
vt 0.257262 1.016712
vt 0.257409 1.015244
vt 0.257399 1.016712
vt 0.257610 1.014426
vt 0.257574 1.015244
vt 0.257571 1.016711
vt 0.257796 1.016711
vt 0.257787 1.015243
vt 0.257810 1.014426
vt 0.258067 1.016711
vt 0.258044 1.015243
vt 0.258053 1.014426
vt 0.258355 1.016710
vt 0.258314 1.014425
vt 0.258318 1.015242
vt 0.258649 1.016618
vt 0.258642 1.015933
vt 0.258640 1.015551
vt 0.258357 1.014425
vt 0.258644 1.015551
vt 0.258660 1.015551
vt 0.258664 1.015551
vt 0.258694 1.015932
vt 0.258688 1.015933
vt 0.258720 1.016617
vt 0.258730 1.016617
vt 0.258113 1.014426
vt 0.257886 1.014426
vt 0.257700 1.014426
vt 0.258433 1.015242
vt 0.257986 1.015243
vt 0.257548 1.014427
vt 0.258654 1.015933
vt 0.258682 1.015933
vt 0.258719 1.016617
vt 0.258669 1.016618
vt 0.258541 1.016710
vt 0.258202 1.015243
vt 0.258322 1.016710
vt 0.258118 1.016710
vt 0.257810 1.015243
vt 0.257953 1.016711
vt 0.257664 1.015244
vt 0.257811 1.016711
vt 0.257423 1.014427
vt 0.257542 1.015244
vt 0.257693 1.016711
vt 0.257613 1.016711
vt 0.257460 1.015244
vt 0.257490 1.016711
vt 0.257347 1.015244
vt 0.257272 1.015244
vt 0.257365 1.016712
vt 0.257219 1.015244
vt 0.257311 1.016712
vt 0.258928 1.016711
vt 0.258969 1.015180
vt 0.258930 1.016711
vt 0.258966 1.015180
vt 0.259044 1.014466
vt 0.258906 1.016711
vt 0.259041 1.014466
vt 0.258944 1.015181
vt 0.259019 1.014466
vt 0.258881 1.016711
vt 0.258918 1.015181
vt 0.258993 1.014466
vt 0.258877 1.015182
vt 0.258951 1.014466
vt 0.258840 1.016711
vt 0.258871 1.014466
vt 0.258801 1.015178
vt 0.258769 1.016711
vt 0.258767 1.014466
vt 0.258818 1.014466
vt 0.258675 1.014466
vt 0.258703 1.015175
vt 0.258674 1.016711
vt 0.258630 1.014467
vt 0.258480 1.014367
vt 0.258576 1.015173
vt 0.258559 1.016712
vt 0.258381 1.016712
vt 0.258444 1.014567
vt 0.258283 1.014467
vt 0.258398 1.015172
vt 0.258237 1.014467
vt 0.258067 1.014467
vt 0.258028 1.014468
vt 0.258183 1.015169
vt 0.258165 1.016712
vt 0.257987 1.015167
vt 0.257794 1.014679
vt 0.257984 1.016713
vt 0.257764 1.015374
vt 0.257555 1.014890
vt 0.257761 1.016713
vt 0.257535 1.015581
vt 0.257229 1.014937
vt 0.257533 1.016713
vt 0.257044 1.015571
vt 0.256951 1.016111
vt 0.258810 1.016711
vt 0.258898 1.016711
vt 0.258866 1.015178
vt 0.258937 1.015179
vt 0.258973 1.014466
vt 0.258924 1.016711
vt 0.259012 1.014466
vt 0.258963 1.015179
vt 0.259037 1.014466
vt 0.259312 1.016710
vt 0.259140 1.015177
vt 0.259403 1.016710
vt 0.259028 1.014466
vt 0.259212 1.015178
vt 0.259066 1.014466
vt 0.259092 1.014466
vt 0.259238 1.015179
vt 0.259098 1.014466
vt 0.259429 1.016710
vt 0.259245 1.015180
vt 0.259436 1.016710
vt 0.259095 1.014466
vt 0.259242 1.015180
vt 0.259433 1.016710
vt 0.259073 1.014466
vt 0.259219 1.015180
vt 0.259410 1.016710
vt 0.259046 1.014466
vt 0.259192 1.015181
vt 0.259382 1.016710
vt 0.259005 1.014466
vt 0.259150 1.015182
vt 0.259339 1.016710
vt 0.259248 1.016710
vt 0.259063 1.015178
vt 0.259135 1.016711
vt 0.258922 1.014466
vt 0.258953 1.015175
vt 0.258969 1.016711
vt 0.258799 1.015173
vt 0.258622 1.015172
vt 0.258792 1.016711
vt 0.258579 1.016711
vt 0.258408 1.015170
vt 0.258335 1.016712
vt 0.258177 1.015168
vt 0.258064 1.016712
vt 0.257928 1.015375
vt 0.257788 1.016713
vt 0.257829 1.014679
vt 0.257673 1.015583
vt 0.257585 1.014890
vt 0.257290 1.014937
vt 0.257200 1.015596
vt 0.257144 1.016111
vn -0.1159 -0.0554 -0.9917
vn -0.1089 -0.0299 -0.9936
vn 0.1131 -0.0220 -0.9933
vn 0.1130 0.0126 -0.9935
vn 0.2910 0.0308 -0.9562
vn 0.1929 -0.0677 -0.9789
vn 0.0907 0.0230 -0.9956
vn -0.0937 -0.0351 -0.9950
vn 0.2447 0.0618 -0.9676
vn 0.0826 0.0320 -0.9961
vn 0.3558 0.0369 -0.9338
vn 0.0962 -0.1291 -0.9870
vn 0.3083 0.0752 -0.9483
vn 0.2201 0.0851 -0.9718
vn 0.0738 0.0431 -0.9963
vn 0.2751 0.1071 -0.9554
vn 0.1956 0.1132 -0.9741
vn 0.2445 0.1422 -0.9592
vn 0.0643 0.0561 -0.9964
vn 0.1679 0.1484 -0.9746
vn 0.2082 0.1857 -0.9603
vn 0.1789 0.2303 -0.9565
vn 0.1437 0.1826 -0.9726
vn 0.0548 0.0679 -0.9962
vn 0.1652 0.2688 -0.9489
vn 0.1333 0.2131 -0.9679
vn 0.0509 0.0787 -0.9956
vn 0.1495 0.3185 -0.9361
vn 0.0472 0.0962 -0.9942
vn 0.1218 0.2548 -0.9593
vn 0.1369 0.3723 -0.9179
vn 0.1123 0.2996 -0.9474
vn 0.0431 0.1133 -0.9926
vn -0.0563 -0.0929 -0.9941
vn -0.0569 -0.1153 -0.9917
vn 0.0122 0.1193 -0.9928
vn -0.0850 -0.1053 -0.9908
vn -0.1529 -0.0566 -0.9866
vn -0.0023 0.2164 -0.9763
vn -0.0927 0.1357 -0.9864
vn -0.1704 -0.0252 -0.9851
vn -0.0597 -0.0793 -0.9951
vn -0.0596 -0.0668 -0.9960
vn -0.0644 -0.0546 -0.9964
vn -0.1591 -0.2570 -0.9532
vn -0.1707 -0.1847 -0.9679
vn -0.0726 -0.0449 -0.9963
vn -0.1534 -0.3072 -0.9392
vn -0.1734 -0.2788 -0.9446
vn -0.1870 -0.2063 -0.9604
vn -0.1938 -0.3804 -0.9043
vn -0.2060 -0.3230 -0.9237
vn -0.1678 -0.2162 -0.9618
vn -0.2154 -0.2713 -0.9381
vn -0.2203 -0.2335 -0.9471
vn -0.1846 -0.1551 -0.9705
vn -0.2373 -0.1975 -0.9511
vn -0.2060 -0.1284 -0.9701
vn -0.2640 -0.1656 -0.9502
vn -0.0818 -0.0384 -0.9959
vn -0.2309 -0.1075 -0.9670
vn -0.2936 -0.1389 -0.9458
vn -0.3229 -0.1261 -0.9380
vn -0.2570 -0.0970 -0.9615
vn -0.3696 -0.1099 -0.9227
vn -0.2973 -0.0835 -0.9511
vn -0.2881 -0.1033 -0.9520
vn -0.2404 -0.1364 -0.9611
vn -0.0950 -0.1357 -0.9862
vn -0.0696 -0.1606 -0.9846
vn 0.3721 0.0138 -0.9281
vn 0.2821 -0.0017 -0.9594
vn 0.3724 -0.0023 -0.9281
vn 0.2810 0.0106 -0.9596
vn 0.0950 -0.0005 -0.9955
vn 0.3713 0.0271 -0.9281
vn 0.0940 0.0036 -0.9956
vn 0.2817 0.0206 -0.9593
vn 0.0952 0.0070 -0.9954
vn 0.3686 0.0427 -0.9286
vn 0.2780 0.0320 -0.9601
vn 0.0931 0.0107 -0.9956
vn 0.2670 0.0654 -0.9615
vn 0.0863 0.0206 -0.9961
vn 0.3580 0.0900 -0.9294
vn 0.0863 0.0337 -0.9957
vn 0.2597 0.1022 -0.9603
vn 0.3444 0.1368 -0.9288
vn 0.0814 0.0420 -0.9958
vn -0.0877 -0.0455 -0.9951
vn -0.0731 -0.0450 -0.9963
vn 0.2478 0.1274 -0.9604
vn 0.3299 0.1701 -0.9286
vn 0.0892 0.0576 -0.9943
vn -0.0557 -0.0420 -0.9976
vn 0.2384 0.1501 -0.9595
vn 0.3155 0.1978 -0.9281
vn 0.2956 0.2253 -0.9284
vn 0.0972 0.0737 -0.9925
vn -0.0630 -0.0571 -0.9964
vn 0.2225 0.1689 -0.9602
vn 0.0793 0.0697 -0.9944
vn -0.0602 -0.0797 -0.9950
vn 0.0683 0.0597 -0.9959
vn 0.2087 0.1877 -0.9598
vn 0.2751 0.2491 -0.9286
vn 0.1884 0.1949 -0.9625
vn 0.0679 0.0623 -0.9957
vn 0.2447 0.2618 -0.9336
vn 0.1591 0.1999 -0.9668
vn 0.0453 0.0724 -0.9963
vn 0.1944 0.2596 -0.9460
vn 0.1075 0.2205 -0.9694
vn 0.0548 0.0669 -0.9963
vn 0.1331 0.2838 -0.9496
vn 0.1055 0.1367 -0.9850
vn 0.1246 0.0364 -0.9915
vn 0.1920 0.1555 -0.9690
vn 0.3702 -0.0393 -0.9281
vn 0.1764 0.1105 -0.9781
vn 0.2799 -0.0294 -0.9596
vn 0.0856 0.0159 -0.9962
vn 0.3722 -0.0185 -0.9280
vn 0.0938 -0.0098 -0.9955
vn 0.2811 -0.0138 -0.9596
vn 0.0940 -0.0046 -0.9956
vn -0.1462 0.2005 -0.9687
vn -0.1441 0.1510 -0.9780
vn -0.3704 0.0382 -0.9281
vn -0.0802 0.0365 -0.9961
vn -0.2828 0.0294 -0.9587
vn -0.0969 0.0101 -0.9952
vn -0.0976 0.0047 -0.9952
vn -0.2843 0.0137 -0.9586
vn -0.0967 0.0005 -0.9953
vn -0.3722 0.0177 -0.9280
vn -0.2837 0.0015 -0.9589
vn -0.3724 0.0019 -0.9281
vn -0.0976 -0.0037 -0.9952
vn -0.2843 -0.0108 -0.9587
vn -0.3721 -0.0143 -0.9281
vn -0.0960 -0.0071 -0.9954
vn -0.2824 -0.0208 -0.9591
vn -0.3713 -0.0275 -0.9281
vn -0.0964 -0.0105 -0.9953
vn -0.2819 -0.0306 -0.9590
vn -0.3693 -0.0399 -0.9284
vn -0.0974 -0.0233 -0.9950
vn -0.2775 -0.0651 -0.9585
vn -0.3593 -0.0821 -0.9296
vn -0.3452 -0.1327 -0.9291
vn -0.2640 -0.1023 -0.9591
vn -0.3292 -0.1695 -0.9289
vn -0.0911 -0.0355 -0.9952
vn -0.2524 -0.1308 -0.9587
vn -0.3145 -0.2000 -0.9279
vn -0.2402 -0.1522 -0.9587
vn -0.2281 -0.1718 -0.9584
vn -0.2973 -0.2232 -0.9283
vn -0.2789 -0.2452 -0.9285
vn -0.2121 -0.1875 -0.9591
vn -0.2416 -0.2646 -0.9336
vn -0.1847 -0.2084 -0.9604
vn -0.1824 -0.2706 -0.9453
vn -0.1398 -0.2206 -0.9653
vn -0.1513 -0.2639 -0.9526
vn -0.0415 -0.0925 -0.9948
vn -0.1191 -0.2140 -0.9695
vn -0.0392 -0.0865 -0.9955
vn -0.0051 -0.0779 -0.9969
vn -0.0185 -0.1566 -0.9875
vn 0.0531 -0.1146 -0.9920
usemtl AsphaltMat
s 1
f 1/1/1 3/2/2 2/3/3
f 2/3/3 3/2/2 4/4/4
f 5/5/5 2/3/3 4/4/4
f 5/5/5 6/6/6 2/3/3
f 3/2/2 7/7/7 4/4/4
f 7/7/7 3/2/2 8/8/8
f 9/9/9 4/4/4 7/7/7
f 4/4/4 9/9/9 5/5/5
f 10/10/10 9/9/9 7/7/7
f 11/11/11 6/6/6 5/5/5
f 9/9/9 11/11/11 5/5/5
f 11/11/11 12/12/12 6/6/6
f 11/11/11 9/9/9 13/13/13
f 9/9/9 10/10/10 14/14/14
f 14/14/14 13/13/13 9/9/9
f 15/15/15 14/14/14 10/10/10
f 13/13/13 14/14/14 16/16/16
f 14/14/14 15/15/15 17/17/17
f 17/17/17 16/16/16 14/14/14
f 16/16/16 17/17/17 18/18/18
f 19/19/19 17/17/17 15/15/15
f 20/20/20 18/18/18 17/17/17
f 17/17/17 19/19/19 20/20/20
f 18/18/18 20/20/20 21/21/21
f 22/22/22 21/21/21 20/20/20
f 23/23/23 20/20/20 19/19/19
f 22/22/22 20/20/20 23/23/23
f 23/23/23 19/19/19 24/24/24
f 25/25/25 22/22/22 23/23/23
f 26/26/26 23/23/23 24/24/24
f 23/23/23 26/26/26 25/25/25
f 24/24/24 27/27/27 26/26/26
f 28/28/28 25/25/25 26/26/26
f 29/29/29 26/26/26 27/27/27
f 26/26/26 30/30/30 28/28/28
f 26/26/26 29/29/29 30/30/30
f 31/31/31 28/28/28 30/30/30
f 32/32/32 30/30/30 29/29/29
f 30/30/30 32/32/32 31/31/31
f 29/29/29 33/33/33 32/32/32
f 34/34/34 33/33/33 29/29/29
f 33/33/33 34/34/34 35/35/35
f 35/35/35 36/36/36 33/33/33
f 36/36/36 32/32/32 33/33/33
f 36/36/36 35/35/35 37/37/37
f 38/38/38 36/36/36 37/37/37
f 39/39/39 31/31/31 32/32/32
f 32/32/32 36/36/36 39/39/39
f 36/36/36 38/38/38 39/39/39
f 31/31/31 39/39/39 40/40/40
f 41/41/41 39/39/39 38/38/38
f 40/40/40 39/39/39 41/41/41
f 29/29/29 27/27/27 34/34/34
f 27/27/27 42/42/42 34/34/34
f 27/27/27 43/43/43 42/42/42
f 43/43/43 27/27/27 24/24/24
f 24/24/24 44/44/44 43/43/43
f 44/44/44 24/24/24 19/19/19
f 19/19/19 15/15/15 44/44/44
f 42/42/42 45/45/45 34/34/34
f 45/45/45 35/35/35 34/34/34
f 46/46/46 42/42/42 43/43/43
f 44/44/44 46/46/46 43/43/43
f 15/15/15 47/47/47 44/44/44
f 15/15/15 10/10/10 47/47/47
f 35/35/35 45/45/45 48/48/48
f 48/48/48 37/37/37 35/35/35
f 48/48/48 49/49/49 37/37/37
f 49/49/49 38/38/38 37/37/37
f 50/50/50 38/38/38 49/49/49
f 38/38/38 50/50/50 41/41/41
f 51/51/51 50/50/50 49/49/49
f 51/51/51 49/49/49 48/48/48
f 45/45/45 51/51/51 48/48/48
f 51/51/51 45/45/45 52/52/52
f 53/53/53 52/52/52 45/45/45
f 45/45/45 42/42/42 53/53/53
f 52/52/52 53/53/53 54/54/54
f 42/42/42 46/46/46 53/53/53
f 46/46/46 54/54/54 53/53/53
f 54/54/54 46/46/46 55/55/55
f 56/56/56 55/55/55 46/46/46
f 46/46/46 44/44/44 56/56/56
f 55/55/55 56/56/56 57/57/57
f 47/47/47 56/56/56 44/44/44
f 58/58/58 57/57/57 56/56/56
f 56/56/56 47/47/47 58/58/58
f 57/57/57 58/58/58 59/59/59
f 60/60/60 58/58/58 47/47/47
f 60/60/60 47/47/47 10/10/10
f 10/10/10 7/7/7 60/60/60
f 8/8/8 60/60/60 7/7/7
f 61/61/61 59/59/59 58/58/58
f 58/58/58 60/60/60 61/61/61
f 59/59/59 61/61/61 62/62/62
f 61/61/61 63/63/63 62/62/62
f 60/60/60 64/64/64 61/61/61
f 61/61/61 64/64/64 63/63/63
f 60/60/60 8/8/8 64/64/64
f 65/65/65 63/63/63 64/64/64
f 66/66/66 64/64/64 8/8/8
f 64/64/64 66/66/66 65/65/65
f 8/8/8 3/2/2 66/66/66
f 1/1/1 66/66/66 3/2/2
f 67/67/67 65/65/65 66/66/66
f 67/67/67 66/66/66 1/1/1
f 65/65/65 67/67/67 68/68/68
f 69/69/69 67/67/67 1/1/1
f 68/68/68 67/67/67 69/69/69
f 2/3/3 69/69/69 1/1/1
f 69/69/69 70/70/70 68/68/68
f 69/69/69 2/3/3 6/6/6
f 6/6/6 70/70/70 69/69/69
f 70/70/70 6/6/6 12/12/12
f 71/71/71 73/72/72 72/73/73
f 74/74/74 73/72/72 71/71/71
f 74/74/74 75/75/75 73/72/72
f 76/76/76 74/74/74 71/71/71
f 75/75/75 74/74/74 77/77/77
f 78/78/78 74/74/74 76/76/76
f 78/78/78 77/77/77 74/74/74
f 77/77/77 78/78/78 79/79/79
f 80/80/80 78/78/78 76/76/76
f 81/81/81 79/79/79 78/78/78
f 81/81/81 78/78/78 80/80/80
f 79/79/79 81/81/81 82/82/82
f 80/80/80 83/83/83 81/81/81
f 83/83/83 82/82/82 81/81/81
f 82/82/82 83/83/83 84/84/84
f 83/83/83 80/80/80 85/85/85
f 86/86/86 84/84/84 83/83/83
f 85/85/85 87/87/87 83/83/83
f 83/83/83 87/87/87 86/86/86
f 87/87/87 85/85/85 88/88/88
f 89/89/89 86/86/86 87/87/87
f 90/90/90 86/86/86 89/89/89
f 89/89/89 91/91/91 90/90/90
f 88/88/88 92/92/92 87/87/87
f 87/87/87 92/92/92 89/89/89
f 92/92/92 88/88/88 93/93/93
f 91/91/91 89/89/89 94/94/94
f 92/92/92 94/94/94 89/89/89
f 94/94/94 95/95/95 91/91/91
f 93/93/93 96/96/96 92/92/92
f 92/92/92 96/96/96 94/94/94
f 96/96/96 93/93/93 97/97/97
f 97/97/97 98/98/98 96/96/96
f 95/95/95 94/94/94 99/99/99
f 99/99/99 100/100/100 95/95/95
f 101/101/101 94/94/94 96/96/96
f 101/101/101 96/96/96 98/98/98
f 94/94/94 101/101/101 99/99/99
f 100/100/100 99/99/99 102/102/102
f 101/101/101 102/102/102 99/99/99
f 102/102/102 103/103/103 100/100/100
f 103/103/103 102/102/102 104/104/104
f 98/98/98 105/105/105 101/101/101
f 102/102/102 101/101/101 105/105/105
f 105/105/105 104/104/104 102/102/102
f 105/105/105 98/98/98 106/106/106
f 104/104/104 105/105/105 107/107/107
f 106/106/106 107/107/107 105/105/105
f 107/107/107 108/108/108 104/104/104
f 107/107/107 106/106/106 109/109/109
f 108/108/108 107/107/107 110/110/110
f 109/109/109 110/110/110 107/107/107
f 110/110/110 111/111/111 108/108/108
f 110/110/110 109/109/109 112/112/112
f 111/111/111 110/110/110 113/113/113
f 112/112/112 113/113/113 110/110/110
f 113/113/113 114/114/114 111/111/111
f 113/113/113 112/112/112 115/115/115
f 113/113/113 116/116/116 114/114/114
f 116/116/116 113/113/113 115/115/115
f 115/115/115 117/117/117 116/116/116
f 118/118/118 120/119/119 119/120/120
f 119/120/120 120/119/119 121/121/121
f 121/121/121 122/122/122 119/120/120
f 123/123/123 121/121/121 120/119/119
f 122/122/122 121/121/121 124/124/124
f 121/121/121 123/123/123 125/125/125
f 125/125/125 124/124/124 121/121/121
f 72/73/73 125/125/125 123/123/123
f 124/124/124 125/125/125 126/126/126
f 73/72/72 125/125/125 72/73/73
f 73/72/72 126/126/126 125/125/125
f 126/126/126 73/72/72 75/75/75
f 127/127/127 118/118/118 119/120/120
f 127/127/127 119/120/120 128/128/128
f 128/128/128 119/120/120 122/122/122
f 128/128/128 129/129/129 127/127/127
f 130/130/130 128/128/128 122/122/122
f 124/124/124 130/130/130 122/122/122
f 129/129/129 128/128/128 131/131/131
f 131/131/131 128/128/128 130/130/130
f 130/130/130 124/124/124 132/132/132
f 131/131/131 130/130/130 132/132/132
f 126/126/126 132/132/132 124/124/124
f 132/132/132 126/126/126 133/133/133
f 133/133/133 131/131/131 132/132/132
f 75/75/75 133/133/133 126/126/126
f 134/134/134 129/129/129 131/131/131
f 131/131/131 133/133/133 134/134/134
f 135/135/135 134/134/134 133/133/133
f 129/129/129 134/134/134 136/136/136
f 134/134/134 135/135/135 137/137/137
f 137/137/137 136/136/136 134/134/134
f 138/138/138 136/136/136 137/137/137
f 135/135/135 133/133/133 75/75/75
f 77/77/77 135/135/135 75/75/75
f 139/139/139 135/135/135 77/77/77
f 139/139/139 137/137/137 135/135/135
f 79/79/79 139/139/139 77/77/77
f 137/137/137 139/139/139 140/140/140
f 140/140/140 138/138/138 137/137/137
f 141/141/141 138/138/138 140/140/140
f 142/142/142 139/139/139 79/79/79
f 142/142/142 140/140/140 139/139/139
f 82/82/82 142/142/142 79/79/79
f 143/143/143 141/141/141 140/140/140
f 140/140/140 142/142/142 143/143/143
f 144/144/144 141/141/141 143/143/143
f 145/145/145 142/142/142 82/82/82
f 145/145/145 143/143/143 142/142/142
f 84/84/84 145/145/145 82/82/82
f 146/146/146 144/144/144 143/143/143
f 143/143/143 145/145/145 146/146/146
f 147/147/147 144/144/144 146/146/146
f 148/148/148 145/145/145 84/84/84
f 148/148/148 146/146/146 145/145/145
f 149/149/149 147/147/147 146/146/146
f 146/146/146 148/148/148 149/149/149
f 150/150/150 147/147/147 149/149/149
f 149/149/149 151/151/151 150/150/150
f 151/151/151 149/149/149 152/152/152
f 152/152/152 149/149/149 148/148/148
f 152/152/152 153/153/153 151/151/151
f 84/84/84 154/154/154 148/148/148
f 148/148/148 154/154/154 152/152/152
f 154/154/154 84/84/84 86/86/86
f 86/86/86 90/90/90 154/154/154
f 153/153/153 152/152/152 155/155/155
f 155/155/155 152/152/152 154/154/154
f 154/154/154 90/90/90 155/155/155
f 155/155/155 156/156/156 153/153/153
f 90/90/90 157/157/157 155/155/155
f 156/156/156 155/155/155 157/157/157
f 90/90/90 91/91/91 157/157/157
f 91/91/91 95/95/95 157/157/157
f 157/157/157 158/158/158 156/156/156
f 158/158/158 157/157/157 95/95/95
f 159/159/159 156/156/156 158/158/158
f 158/158/158 160/160/160 159/159/159
f 95/95/95 161/161/161 158/158/158
f 160/160/160 158/158/158 161/161/161
f 161/161/161 95/95/95 100/100/100
f 161/161/161 162/162/162 160/160/160
f 100/100/100 163/163/163 161/161/161
f 162/162/162 161/161/161 163/163/163
f 163/163/163 164/164/164 162/162/162
f 163/163/163 100/100/100 103/103/103
f 164/164/164 163/163/163 165/165/165
f 103/103/103 165/165/165 163/163/163
f 165/165/165 166/166/166 164/164/164
f 165/165/165 103/103/103 167/167/167
f 104/104/104 167/167/167 103/103/103
f 167/167/167 104/104/104 108/108/108
f 166/166/166 165/165/165 168/168/168
f 167/167/167 168/168/168 165/165/165
f 108/108/108 169/169/169 167/167/167
f 168/168/168 167/167/167 169/169/169
f 169/169/169 108/108/108 111/111/111
f 170/170/170 169/169/169 111/111/111
f 170/170/170 168/168/168 169/169/169
f 111/111/111 114/114/114 170/170/170
f 116/116/116 170/170/170 114/114/114
f 171/171/171 166/166/166 168/168/168
f 168/168/168 170/170/170 171/171/171
f 170/170/170 116/116/116 171/171/171
f 172/172/172 166/166/166 171/171/171
f 117/117/117 171/171/171 116/116/116
f 171/171/171 117/117/117 172/172/172
