# Blender v3.4.1 OBJ File: 'track.blend'
# www.blender.org
mtllib _1KERB_white_02_Scene.251.mtl
o _1KERB_white_02_Scene.251
v -227.487106 -359.346985 -3.726784
v -227.417297 -359.247559 -3.724497
v -227.746185 -359.016205 -3.782271
v -268.629211 -334.991211 -3.805288
v -268.841614 -335.053314 -3.770657
v -268.242310 -336.043396 -3.764116
v -268.019287 -335.914795 -3.842101
v -268.402710 -334.915955 -3.835482
v -267.678406 -336.836792 -3.762700
v -267.834595 -335.799011 -3.858531
v -267.458008 -336.685059 -3.847165
v -266.998688 -337.530884 -3.792323
v -267.274109 -336.548065 -3.863341
v -266.783691 -337.330688 -3.849620
v -266.185211 -338.166412 -3.789679
v -266.611389 -337.159088 -3.865404
v -266.002289 -337.966492 -3.850839
v -265.845886 -337.776215 -3.866516
v -265.401093 -338.678711 -3.798374
v -265.164398 -338.257690 -3.873329
v -265.278412 -338.475586 -3.858112
v -264.561615 -339.125397 -3.807353
v -264.352509 -338.703888 -3.885786
v -264.453400 -338.924103 -3.870468
v -263.313812 -339.652893 -3.795708
v -263.226715 -339.399292 -3.854410
v -263.150085 -339.181396 -3.861009
v -262.026794 -339.915894 -3.811247
v -261.967407 -339.701508 -3.878141
v -261.796600 -339.778503 -3.831789
v -261.828491 -339.944885 -3.811901
v -261.533813 -339.824402 -3.774927
v -261.555298 -339.993073 -3.775665
v -261.505890 -339.606384 -3.773589
v -261.755310 -339.563263 -3.833921
v -261.920410 -339.505005 -3.876046
v -261.487915 -339.466309 -3.772599
v -261.728912 -339.424988 -3.829599
v -261.459015 -339.240570 -3.770439
v -268.942993 -334.420685 -3.718964
v -269.103485 -334.485504 -3.719038
v -268.705811 -334.324677 -3.718449
v -268.563293 -334.267090 -3.717983
v -268.278595 -334.870514 -3.811974
v -268.277405 -334.174286 -3.710592
v -267.728912 -335.729095 -3.841331
v -268.068115 -334.787506 -3.786010
v -267.168701 -336.465302 -3.846057
v -267.842102 -334.695190 -3.708605
v -268.090790 -334.101074 -3.637490
v -267.543304 -335.604401 -3.794878
v -267.331268 -335.467896 -3.688497
v -266.985809 -336.316986 -3.799506
v -266.779999 -336.152191 -3.686401
v -266.513885 -337.056213 -3.847982
v -266.350006 -336.872894 -3.801234
v -266.177612 -336.670959 -3.693670
v -265.486603 -337.241089 -3.710798
v -265.620300 -337.456665 -3.802213
v -264.893188 -337.716980 -3.705675
v -265.760101 -337.661591 -3.849011
v -264.963989 -337.934784 -3.808775
v -264.175598 -338.147186 -3.729330
v -265.106598 -338.130615 -3.855488
v -264.226776 -338.342682 -3.820220
v -263.038696 -338.617889 -3.714702
v -264.303497 -338.577911 -3.867921
v -263.067413 -338.801208 -3.808073
v -261.878998 -338.980957 -3.741136
v -263.117493 -339.038391 -3.841558
v -261.884705 -339.138702 -3.836476
v -261.661987 -339.076782 -3.741342
v -261.905792 -339.358582 -3.855266
v -261.683197 -339.173767 -3.810682
v -261.442688 -339.113312 -3.714086
v -227.454895 -359.638184 -3.718553
v -227.391495 -359.549469 -3.718715
v -227.764099 -359.334167 -3.838511
v -227.827103 -359.413788 -3.827389
v -227.555801 -359.709686 -3.720484
v -230.151794 -358.079285 -3.878996
v -227.929199 -359.479156 -3.812290
v -227.833679 -359.694885 -3.720302
v -228.229797 -359.495514 -3.729528
v -230.212296 -358.196991 -3.868027
v -230.309097 -358.352173 -3.840704
v -230.517807 -358.480103 -3.755319
v -233.365692 -356.615997 -3.886522
v -233.307693 -356.473907 -3.896424
v -233.456787 -356.856781 -3.844413
v -233.543396 -357.106079 -3.733129
v -236.419601 -355.741699 -3.744767
v -236.322205 -355.487091 -3.853508
v -238.494385 -354.692871 -3.763513
v -236.220596 -355.245392 -3.882816
v -236.155792 -355.103912 -3.885554
v -238.311401 -354.215179 -3.857306
v -238.434494 -354.534302 -3.838956
v -240.575287 -353.662506 -3.784610
v -238.358292 -354.331787 -3.856001
v -240.506882 -353.451202 -3.828292
v -240.554504 -353.604614 -3.823931
v -240.756500 -353.589996 -3.743566
v -240.731796 -353.514862 -3.773659
v -240.585693 -353.044159 -3.766043
v -240.618607 -353.154755 -3.764992
v -240.404480 -353.117188 -3.817039
v -240.437393 -353.227386 -3.824559
v -240.660995 -353.292694 -3.766355
v -238.228104 -354.019287 -3.835629
v -238.134293 -353.816986 -3.797575
v -240.479797 -353.365112 -3.828156
v -240.688202 -353.378967 -3.768539
v -236.034897 -354.858887 -3.846239
v -235.882782 -354.572174 -3.778484
v -233.199387 -356.225769 -3.865074
v -233.064606 -355.935760 -3.801012
v -230.039383 -357.622894 -3.812362
v -230.155899 -357.838196 -3.851746
v -227.850479 -359.139801 -3.812564
vt 0.357840 1.027889
vt 0.358294 1.028941
vt 0.357717 1.027845
vt 0.438353 1.029904
vt 0.438737 1.029055
vt 0.438042 1.029246
vt 0.439137 1.030563
vt 0.438673 1.030473
vt 0.439399 1.028967
vt 0.439383 1.030866
vt 0.439808 1.030603
vt 0.440253 1.029478
vt 0.440053 1.030901
vt 0.440607 1.030580
vt 0.441207 1.029340
vt 0.440838 1.030872
vt 0.441530 1.030522
vt 0.441742 1.030813
vt 0.442147 1.029428
vt 0.442558 1.030875
vt 0.442397 1.030589
vt 0.443153 1.029516
vt 0.443537 1.031034
vt 0.443391 1.030744
vt 0.444604 1.029156
vt 0.444809 1.030299
vt 0.444911 1.030421
vt 0.446149 1.029325
vt 0.446336 1.030633
vt 0.446456 1.029705
vt 0.446383 1.029317
vt 0.446666 1.028560
vt 0.446642 1.028577
vt 0.446697 1.028531
vt 0.446508 1.029742
vt 0.446388 1.030587
vt 0.446716 1.028509
vt 0.446532 1.029654
vt 0.446746 1.028464
vt 0.437831 1.028242
vt 0.437642 1.028260
vt 0.438110 1.028207
vt 0.438278 1.028183
vt 0.438778 1.029998
vt 0.438602 1.028007
vt 0.439478 1.030517
vt 0.438981 1.029466
vt 0.440147 1.030551
vt 0.439111 1.027922
vt 0.438693 1.026552
vt 0.439615 1.029585
vt 0.439678 1.027474
vt 0.440280 1.029617
vt 0.440325 1.027374
vt 0.440922 1.030520
vt 0.441033 1.029584
vt 0.441048 1.027454
vt 0.441893 1.027717
vt 0.441895 1.029527
vt 0.442583 1.027554
vt 0.441813 1.030460
vt 0.442681 1.029586
vt 0.443471 1.027943
vt 0.442595 1.030519
vt 0.443570 1.029733
vt 0.444786 1.027536
vt 0.443564 1.030678
vt 0.444916 1.029373
vt 0.446200 1.027933
vt 0.444916 1.030035
vt 0.446360 1.029806
vt 0.446456 1.027914
vt 0.446368 1.030177
vt 0.446553 1.029278
vt 0.446667 1.027356
vt 0.357783 1.027733
vt 0.358326 1.030008
vt 0.357672 1.027736
vt 0.358436 1.029797
vt 0.357960 1.027769
vt 0.362516 1.030777
vt 0.358616 1.029511
vt 0.358448 1.027766
vt 0.359143 1.027941
vt 0.362622 1.030568
vt 0.362792 1.030050
vt 0.363158 1.028430
vt 0.368155 1.030919
vt 0.368054 1.031107
vt 0.368315 1.030120
vt 0.368467 1.028009
vt 0.373515 1.028230
vt 0.373344 1.030293
vt 0.377155 1.028586
vt 0.373165 1.030849
vt 0.373052 1.030901
vt 0.376834 1.030365
vt 0.377050 1.030017
vt 0.380807 1.028986
vt 0.376916 1.030340
vt 0.380687 1.029814
vt 0.380770 1.029732
vt 0.381125 1.028207
vt 0.381082 1.028778
vt 0.380825 1.028633
vt 0.380507 1.029601
vt 0.380883 1.028614
vt 0.380565 1.029744
vt 0.380957 1.028639
vt 0.376688 1.029954
vt 0.376523 1.029232
vt 0.380639 1.029812
vt 0.381005 1.028681
vt 0.372839 1.030155
vt 0.372573 1.028870
vt 0.367864 1.030512
vt 0.367627 1.029297
vt 0.362319 1.029512
vt 0.362523 1.030259
vt 0.358477 1.029516
vn 0.3066 0.1247 -0.9436
vn 0.1515 0.0584 -0.9867
vn 0.1968 -0.0104 -0.9804
vn -0.1355 0.0062 -0.9908
vn -0.2214 -0.1411 -0.9649
vn -0.1525 -0.0129 -0.9882
vn -0.1534 -0.0904 -0.9840
vn -0.0216 0.0895 -0.9958
vn -0.2147 -0.1675 -0.9622
vn 0.0142 0.0288 -0.9995
vn -0.1380 -0.1090 -0.9844
vn -0.1580 -0.1625 -0.9740
vn 0.0151 0.0189 -0.9997
vn -0.1015 -0.1072 -0.9890
vn -0.1327 -0.1735 -0.9759
vn 0.0162 0.0218 -0.9996
vn -0.0890 -0.1136 -0.9895
vn 0.0129 0.0246 -0.9996
vn -0.1339 -0.2034 -0.9699
vn 0.0058 0.0302 -0.9995
vn -0.0904 -0.1291 -0.9875
vn -0.1062 -0.2223 -0.9692
vn 0.0169 0.0312 -0.9994
vn -0.0653 -0.1398 -0.9880
vn -0.0744 -0.2320 -0.9699
vn -0.0435 -0.1353 -0.9899
vn 0.0164 0.0467 -0.9988
vn -0.0112 -0.2369 -0.9715
vn 0.0576 -0.1273 -0.9902
vn 0.1593 -0.1086 -0.9812
vn 0.1046 -0.1593 -0.9817
vn 0.1861 -0.0595 -0.9807
vn 0.1566 -0.0812 -0.9843
vn 0.2231 -0.0275 -0.9744
vn 0.2245 -0.0149 -0.9744
vn 0.1179 0.0328 -0.9925
vn 0.2187 -0.0040 -0.9758
vn 0.2019 0.0262 -0.9790
vn 0.2259 0.2175 -0.9495
vn -0.1101 0.0877 -0.9900
vn -0.1133 0.0629 -0.9916
vn -0.0478 0.1479 -0.9878
vn 0.0167 0.1643 -0.9863
vn 0.0704 0.1342 -0.9885
vn 0.1408 0.1804 -0.9735
vn 0.1254 0.1045 -0.9866
vn 0.1677 0.1593 -0.9729
vn 0.1151 0.1110 -0.9871
vn 0.2782 0.1987 -0.9397
vn 0.2585 0.2124 -0.9424
vn 0.2196 0.1641 -0.9617
vn 0.3015 0.2167 -0.9285
vn 0.2069 0.1997 -0.9577
vn 0.2773 0.2722 -0.9214
vn 0.0997 0.1198 -0.9878
vn 0.1778 0.2180 -0.9596
vn 0.2348 0.2904 -0.9277
vn 0.2250 0.2939 -0.9290
vn 0.1678 0.2233 -0.9602
vn 0.2151 0.3325 -0.9183
vn 0.0897 0.1257 -0.9880
vn 0.1490 0.2524 -0.9561
vn 0.1832 0.3838 -0.9051
vn 0.0752 0.1375 -0.9876
vn 0.1286 0.2726 -0.9535
vn 0.1497 0.4328 -0.8890
vn 0.0677 0.1383 -0.9881
vn 0.0953 0.2860 -0.9535
vn 0.1582 0.4897 -0.8574
vn 0.0443 0.1270 -0.9909
vn 0.1245 0.2893 -0.9491
vn 0.2236 0.4808 -0.8478
vn 0.0984 0.0905 -0.9910
vn 0.2069 0.2724 -0.9397
vn 0.2353 0.4450 -0.8641
vn 0.1488 -0.2203 -0.9640
vn 0.2044 0.0240 -0.9786
vn 0.2432 -0.0761 -0.9670
vn 0.0580 -0.1763 -0.9826
vn 0.0570 -0.2924 -0.9546
vn 0.0264 0.0248 -0.9993
vn -0.0642 -0.3024 -0.9510
vn -0.1266 -0.4360 -0.8910
vn -0.1689 -0.4162 -0.8935
vn -0.0448 -0.1104 -0.9929
vn -0.1188 -0.2693 -0.9557
vn -0.1699 -0.3705 -0.9132
vn -0.0429 -0.0921 -0.9948
vn 0.0164 0.0312 -0.9994
vn -0.1136 -0.2424 -0.9635
vn -0.1635 -0.3480 -0.9231
vn -0.1631 -0.3465 -0.9238
vn -0.1086 -0.2269 -0.9678
vn -0.1759 -0.3748 -0.9103
vn -0.0351 -0.0625 -0.9974
vn 0.0140 0.0496 -0.9987
vn 0.0064 0.0451 -0.9990
vn -0.1096 -0.2256 -0.9680
vn -0.2793 -0.3681 -0.8868
vn -0.0268 -0.0356 -0.9990
vn -0.1463 0.0345 -0.9886
vn -0.2124 -0.1811 -0.9603
vn -0.3694 -0.3274 -0.8697
vn -0.3175 -0.1112 -0.9417
vn -0.2521 0.1032 -0.9622
vn -0.1105 0.1160 -0.9871
vn -0.2646 0.1031 -0.9588
vn -0.1183 0.1022 -0.9877
vn -0.2793 0.1020 -0.9548
vn 0.0414 0.1236 -0.9915
vn 0.0560 0.1551 -0.9863
vn -0.1394 0.0695 -0.9878
vn -0.2695 0.0928 -0.9585
vn 0.0598 0.1508 -0.9867
vn 0.0743 0.1814 -0.9806
vn 0.0700 0.1417 -0.9874
vn 0.0839 0.1713 -0.9816
vn 0.0915 0.1492 -0.9846
vn 0.0814 0.1333 -0.9877
vn 0.1488 0.1163 -0.9820
usemtl AsphaltMat
s 1
f 1/1/1 3/2/2 2/3/3
f 4/4/4 6/5/5 5/6/6
f 6/5/5 4/4/4 7/7/7
f 7/7/7 4/4/4 8/8/8
f 7/7/7 9/9/9 6/5/5
f 8/8/8 10/10/10 7/7/7
f 9/9/9 7/7/7 11/11/11
f 11/11/11 7/7/7 10/10/10
f 11/11/11 12/12/12 9/9/9
f 10/10/10 13/13/13 11/11/11
f 12/12/12 11/11/11 14/14/14
f 14/14/14 11/11/11 13/13/13
f 15/15/15 12/12/12 14/14/14
f 13/13/13 16/16/16 14/14/14
f 14/14/14 17/17/17 15/15/15
f 17/17/17 14/14/14 16/16/16
f 16/16/16 18/18/18 17/17/17
f 17/17/17 19/19/19 15/15/15
f 20/20/20 17/17/17 18/18/18
f 19/19/19 17/17/17 21/21/21
f 17/17/17 20/20/20 21/21/21
f 21/21/21 22/22/22 19/19/19
f 23/23/23 21/21/21 20/20/20
f 22/22/22 21/21/21 24/24/24
f 21/21/21 23/23/23 24/24/24
f 24/24/24 25/25/25 22/22/22
f 23/23/23 26/26/26 24/24/24
f 25/25/25 24/24/24 26/26/26
f 23/23/23 27/27/27 26/26/26
f 26/26/26 28/28/28 25/25/25
f 27/27/27 29/29/29 26/26/26
f 26/26/26 29/29/29 28/28/28
f 30/30/30 28/28/28 29/29/29
f 28/28/28 30/30/30 31/31/31
f 32/32/32 31/31/31 30/30/30
f 31/31/31 32/32/32 33/33/33
f 30/30/30 34/34/34 32/32/32
f 29/29/29 35/35/35 30/30/30
f 34/34/34 30/30/30 35/35/35
f 35/35/35 29/29/29 36/36/36
f 35/35/35 37/37/37 34/34/34
f 36/36/36 38/38/38 35/35/35
f 37/37/37 35/35/35 38/38/38
f 38/38/38 39/39/39 37/37/37
f 40/40/40 5/6/6 41/41/41
f 5/6/6 40/40/40 4/4/4
f 4/4/4 40/40/40 42/42/42
f 4/4/4 42/42/42 8/8/8
f 8/8/8 42/42/42 43/43/43
f 43/43/43 44/44/44 8/8/8
f 10/10/10 8/8/8 44/44/44
f 44/44/44 43/43/43 45/45/45
f 44/44/44 46/46/46 10/10/10
f 13/13/13 10/10/10 46/46/46
f 44/44/44 45/45/45 47/47/47
f 46/46/46 44/44/44 47/47/47
f 46/46/46 48/48/48 13/13/13
f 16/16/16 13/13/13 48/48/48
f 45/45/45 49/49/49 47/47/47
f 49/49/49 45/45/45 50/50/50
f 46/46/46 47/47/47 51/51/51
f 49/49/49 51/51/51 47/47/47
f 51/51/51 48/48/48 46/46/46
f 51/51/51 49/49/49 52/52/52
f 52/52/52 53/53/53 51/51/51
f 48/48/48 51/51/51 53/53/53
f 53/53/53 52/52/52 54/54/54
f 48/48/48 55/55/55 16/16/16
f 53/53/53 55/55/55 48/48/48
f 55/55/55 18/18/18 16/16/16
f 54/54/54 56/56/56 53/53/53
f 55/55/55 53/53/53 56/56/56
f 56/56/56 54/54/54 57/57/57
f 58/58/58 56/56/56 57/57/57
f 56/56/56 58/58/58 59/59/59
f 59/59/59 55/55/55 56/56/56
f 60/60/60 59/59/59 58/58/58
f 18/18/18 55/55/55 61/61/61
f 55/55/55 59/59/59 61/61/61
f 62/62/62 59/59/59 60/60/60
f 62/62/62 61/61/61 59/59/59
f 63/63/63 62/62/62 60/60/60
f 64/64/64 18/18/18 61/61/61
f 61/61/61 62/62/62 64/64/64
f 18/18/18 64/64/64 20/20/20
f 62/62/62 63/63/63 65/65/65
f 65/65/65 64/64/64 62/62/62
f 66/66/66 65/65/65 63/63/63
f 67/67/67 20/20/20 64/64/64
f 64/64/64 65/65/65 67/67/67
f 20/20/20 67/67/67 23/23/23
f 65/65/65 66/66/66 68/68/68
f 68/68/68 67/67/67 65/65/65
f 69/69/69 68/68/68 66/66/66
f 70/70/70 23/23/23 67/67/67
f 67/67/67 68/68/68 70/70/70
f 23/23/23 70/70/70 27/27/27
f 68/68/68 69/69/69 71/71/71
f 71/71/71 70/70/70 68/68/68
f 72/72/72 71/71/71 69/69/69
f 73/73/73 27/27/27 70/70/70
f 70/70/70 71/71/71 73/73/73
f 71/71/71 72/72/72 74/74/74
f 74/74/74 73/73/73 71/71/71
f 75/75/75 74/74/74 72/72/72
f 74/74/74 75/75/75 39/39/39
f 39/39/39 38/38/38 74/74/74
f 73/73/73 74/74/74 38/38/38
f 38/38/38 36/36/36 73/73/73
f 27/27/27 73/73/73 36/36/36
f 27/27/27 36/36/36 29/29/29
f 76/76/76 78/77/77 77/78/78
f 78/77/77 76/76/76 79/79/79
f 79/79/79 76/76/76 80/80/80
f 79/79/79 81/81/81 78/77/77
f 80/80/80 82/82/82 79/79/79
f 83/83/83 82/82/82 80/80/80
f 82/82/82 83/83/83 84/84/84
f 81/81/81 79/79/79 85/85/85
f 85/85/85 79/79/79 82/82/82
f 84/84/84 86/86/86 82/82/82
f 85/85/85 82/82/82 86/86/86
f 86/86/86 84/84/84 87/87/87
f 88/88/88 81/81/81 85/85/85
f 88/88/88 85/85/85 86/86/86
f 81/81/81 88/88/88 89/89/89
f 87/87/87 90/90/90 86/86/86
f 88/88/88 86/86/86 90/90/90
f 90/90/90 87/87/87 91/91/91
f 91/91/91 92/92/92 90/90/90
f 90/90/90 92/92/92 93/93/93
f 93/93/93 88/88/88 90/90/90
f 94/94/94 93/93/93 92/92/92
f 95/95/95 89/89/89 88/88/88
f 88/88/88 93/93/93 95/95/95
f 89/89/89 95/95/95 96/96/96
f 95/95/95 97/97/97 96/96/96
f 93/93/93 94/94/94 98/98/98
f 98/98/98 95/95/95 93/93/93
f 99/99/99 98/98/98 94/94/94
f 97/97/97 95/95/95 100/100/100
f 95/95/95 98/98/98 100/100/100
f 101/101/101 97/97/97 100/100/100
f 100/100/100 102/102/102 101/101/101
f 102/102/102 100/100/100 98/98/98
f 98/98/98 99/99/99 102/102/102
f 99/99/99 103/103/103 102/102/102
f 104/104/104 102/102/102 103/103/103
f 105/105/105 107/106/106 106/107/107
f 108/108/108 106/107/107 107/106/106
f 106/107/107 108/108/108 109/109/109
f 107/106/106 110/110/110 108/108/108
f 107/106/106 111/111/111 110/110/110
f 108/108/108 112/112/112 109/109/109
f 110/110/110 112/112/112 108/108/108
f 109/109/109 112/112/112 113/113/113
f 101/101/101 113/113/113 112/112/112
f 113/113/113 101/101/101 104/104/104
f 101/101/101 102/102/102 104/104/104
f 97/97/97 101/101/101 112/112/112
f 112/112/112 110/110/110 97/97/97
f 110/110/110 96/96/96 97/97/97
f 111/111/111 114/114/114 110/110/110
f 96/96/96 110/110/110 114/114/114
f 111/111/111 115/115/115 114/114/114
f 116/116/116 96/96/96 114/114/114
f 115/115/115 116/116/116 114/114/114
f 116/116/116 115/115/115 117/117/117
f 96/96/96 116/116/116 89/89/89
f 118/118/118 116/116/116 117/117/117
f 119/119/119 89/89/89 116/116/116
f 119/119/119 116/116/116 118/118/118
f 89/89/89 119/119/119 81/81/81
f 118/118/118 120/120/120 119/119/119
f 120/120/120 81/81/81 119/119/119
f 120/120/120 118/118/118 3/2/2
f 81/81/81 120/120/120 78/77/77
f 3/2/2 1/1/1 120/120/120
f 1/1/1 78/77/77 120/120/120
f 78/77/77 1/1/1 77/78/78
