# Blender v3.4.1 OBJ File: 'track.blend'
# www.blender.org
mtllib _1WALL_16_SUB0_Scene.282.mtl
o _1WALL_16_SUB0_Scene.282
v -148.356796 -1040.072998 -1.173217
v -144.292099 -1041.008057 -0.191527
v -144.260605 -1040.836060 -1.173216
v -148.388779 -1040.244995 -0.191527
v -148.318100 -1039.864990 0.526783
v -148.318893 -1039.860962 -1.157907
v -144.223297 -1040.624023 -1.157907
v -144.222397 -1040.628052 0.526783
v -144.225601 -1040.645020 -1.173216
v -148.321304 -1039.881958 -1.173216
v -144.292099 -1041.008057 0.526783
v -148.388779 -1040.244995 0.526783
v -152.289307 -1039.332886 -1.173216
v -152.321793 -1039.505005 -0.191527
v -152.249893 -1039.125000 0.526783
v -152.250702 -1039.120972 -1.157907
v -152.253204 -1039.141968 -1.173216
v -152.321793 -1039.505005 0.526783
v -156.220596 -1038.587036 -1.173216
v -156.253204 -1038.759033 -0.191527
v -156.181107 -1038.379028 0.526783
v -156.181900 -1038.375000 -1.157908
v -156.184402 -1038.395996 -1.173217
v -156.253204 -1038.759033 0.526783
v -160.151993 -1037.840942 -1.173217
v -160.184601 -1038.012939 -0.191527
v -160.112701 -1037.633057 0.526783
v -160.113495 -1037.629028 -1.157908
v -160.115997 -1037.651001 -1.173217
v -160.184601 -1038.012939 0.526783
v -164.084091 -1037.098999 -1.173217
v -164.116379 -1037.270996 -0.191526
v -164.045090 -1036.890991 0.526783
v -164.045898 -1036.887939 -1.157908
v -164.048294 -1036.909058 -1.173217
v -164.116379 -1037.270996 0.526783
v -168.017395 -1036.364014 -1.173217
v -168.049393 -1036.536011 -0.191526
v -167.978806 -1036.156006 0.526784
v -167.979584 -1036.151978 -1.157908
v -167.981995 -1036.172974 -1.173217
v -168.049393 -1036.536011 0.526784
v -171.952698 -1035.639038 -1.173217
v -171.984100 -1035.811035 -0.191526
v -171.914703 -1035.431030 0.526784
v -171.915482 -1035.427002 -1.157908
v -171.917892 -1035.447998 -1.173217
v -171.984100 -1035.811035 0.526783
v -175.890503 -1034.928955 -1.173217
v -175.921097 -1035.100952 -0.191526
v -175.853394 -1034.719971 0.526784
v -175.854294 -1034.715942 -1.157908
v -175.856506 -1034.738037 -1.173217
v -175.921097 -1035.100952 0.526784
v -179.831787 -1034.238037 -1.173216
v -179.861282 -1034.411011 -0.191526
v -179.796204 -1034.030029 0.526784
v -179.797104 -1034.026001 -1.157907
v -179.799194 -1034.046997 -1.173216
v -179.861282 -1034.411011 0.526784
v -183.846497 -1033.566040 -1.173216
v -183.874481 -1033.739014 -0.191526
v -183.812592 -1033.358032 0.526784
v -183.813583 -1033.354004 -1.157907
v -183.815384 -1033.375000 -1.173216
v -183.874481 -1033.739014 0.526784
vt -1.021971 2.001424
vt 2.977629 2.001424
vt 2.977629 1.108993
vt -1.021971 1.108994
vt -1.021971 0.581097
vt 2.977629 1.993160
vt -1.021971 1.993160
vt 2.977630 0.581097
vt -1.021971 1.899918
vt 2.977629 1.695245
vt 2.977629 1.899918
vt -1.021971 1.695245
vt 2.977629 1.688305
vt -1.021971 1.688305
vt 2.977629 0.755510
vt -1.021971 0.755511
vt -1.021971 2.001424
vt 2.977629 2.001424
vt 2.977629 1.108993
vt -1.021971 1.108994
vt -1.021971 0.581097
vt 2.977629 1.993160
vt -1.021971 1.993160
vt 2.977630 0.581097
vt -1.021971 1.899918
vt 2.977629 1.695245
vt 2.977629 1.899918
vt -1.021971 1.695245
vt 2.977629 1.688305
vt -1.021971 1.688305
vt 2.977629 0.755510
vt -1.021971 0.755511
vt -1.021971 2.001424
vt 2.977629 2.001424
vt 2.977629 1.108993
vt -1.021971 1.108994
vt -1.021971 0.581097
vt 2.977629 1.993160
vt -1.021971 1.993160
vt 2.977630 0.581097
vt -1.021971 1.899918
vt 2.977629 1.695245
vt 2.977629 1.899918
vt -1.021971 1.695245
vt 2.977629 1.688305
vt -1.021971 1.688305
vt 2.977629 0.755510
vt -1.021971 0.755511
vt -1.021971 2.001424
vt 2.977629 2.001424
vt 2.977629 1.108993
vt -1.021971 1.108994
vt -1.021971 0.581097
vt 2.977629 1.993160
vt -1.021971 1.993160
vt 2.977630 0.581097
vt -1.021971 1.899918
vt 2.977629 1.695245
vt 2.977629 1.899918
vt -1.021971 1.695245
vt 2.977629 1.688305
vt -1.021971 1.688305
vt 2.977629 0.755510
vt -1.021971 0.755511
vt -1.021971 2.001424
vt 2.977629 2.001424
vt 2.977629 1.108993
vt -1.021971 1.108994
vt -1.021971 0.581097
vt 2.977629 1.993160
vt -1.021971 1.993160
vt 2.977630 0.581097
vt -1.021971 1.899918
vt 2.977629 1.695245
vt 2.977629 1.899918
vt -1.021971 1.695245
vt 2.977629 1.688305
vt -1.021971 1.688305
vt 2.977629 0.755510
vt -1.021971 0.755511
vt -1.021971 2.001424
vt 2.977629 2.001424
vt 2.977629 1.108993
vt -1.021971 1.108994
vt -1.021971 0.581097
vt 2.977629 1.993160
vt -1.021971 1.993160
vt 2.977630 0.581097
vt -1.021971 1.899918
vt 2.977629 1.695245
vt 2.977629 1.899918
vt -1.021971 1.695245
vt 2.977629 1.688305
vt -1.021971 1.688305
vt 2.977629 0.755510
vt -1.021971 0.755511
vt -1.021971 2.001424
vt 2.977629 2.001424
vt 2.977629 1.108993
vt -1.021971 1.108994
vt -1.021971 0.581097
vt 2.977629 1.993160
vt -1.021971 1.993160
vt 2.977630 0.581097
vt -1.021971 1.899918
vt 2.977629 1.695245
vt 2.977629 1.899918
vt -1.021971 1.695245
vt 2.977629 1.688305
vt -1.021971 1.688305
vt 2.977629 0.755510
vt -1.021971 0.755511
vt -1.021971 2.001424
vt 2.977629 2.001424
vt 2.977629 1.108993
vt -1.021971 1.108994
vt -1.021971 0.581097
vt 2.977629 1.993160
vt -1.021971 1.993160
vt 2.977630 0.581097
vt -1.021971 1.899918
vt 2.977629 1.695245
vt 2.977629 1.899918
vt -1.021971 1.695245
vt 2.977629 1.688305
vt -1.021971 1.688305
vt 2.977629 0.755510
vt -1.021971 0.755511
vt -1.021971 2.001424
vt 2.977629 2.001424
vt 2.977629 1.108993
vt -1.021971 1.108994
vt -1.021971 0.581097
vt 2.977629 1.993160
vt -1.021971 1.993160
vt 2.977630 0.581097
vt -1.021971 1.899918
vt 2.977629 1.695245
vt 2.977629 1.899918
vt -1.021971 1.695245
vt 2.977629 1.688305
vt -1.021971 1.688305
vt 2.977629 0.755510
vt -1.021971 0.755511
vt -1.021971 2.001424
vt 2.977629 2.001424
vt 2.977629 1.108993
vt -1.021971 1.108994
vt -1.021971 0.581097
vt 2.977629 1.993160
vt -1.021971 1.993160
vt 2.977630 0.581097
vt -1.021971 1.899918
vt 2.977629 1.695245
vt 2.977629 1.899918
vt -1.021971 1.695245
vt 2.977629 1.688305
vt -1.021971 1.688305
vt 2.977629 0.755510
vt -1.021971 0.755511
vn -0.1809 -0.9677 -0.1753
vn -0.1803 -0.9679 -0.1752
vn -0.1813 -0.9677 -0.1755
vn -0.1803 -0.9679 -0.1753
vn -0.1812 -0.9677 -0.1755
vn 0.1842 0.9829 0.0023
vn 0.1832 0.9831 0.0024
vn 0.1841 0.9829 0.0023
vn 0.1832 0.9831 0.0022
vn 0.1840 0.9829 0.0022
vn 0.0000 0.0000 -1.0000
vn 0.1077 0.5751 -0.8110
vn 0.1065 0.5716 -0.8136
vn 0.1065 0.5714 -0.8137
vn 0.1076 0.5749 -0.8111
vn -0.1831 -0.9831 0.0000
vn -0.1840 -0.9829 0.0000
vn -0.1828 -0.9674 -0.1756
vn 0.1857 0.9826 0.0022
vn 0.1084 0.5737 -0.8119
vn 0.1085 0.5736 -0.8119
vn -0.1857 -0.9826 0.0000
vn -0.1835 -0.9672 -0.1757
vn 0.1864 0.9825 0.0023
vn 0.1864 0.9825 0.0022
vn 0.1089 0.5743 -0.8114
vn 0.1089 0.5742 -0.8114
vn -0.1864 -0.9825 0.0000
vn -0.1831 -0.9673 -0.1754
vn 0.1859 0.9826 0.0022
vn 0.1086 0.5743 -0.8114
vn 0.1086 0.5744 -0.8114
vn -0.1859 -0.9826 0.0000
vn -0.1817 -0.9676 -0.1756
vn 0.1845 0.9828 0.0022
vn 0.1845 0.9828 0.0017
vn 0.1084 0.5772 -0.8094
vn 0.1084 0.5774 -0.8093
vn -0.1846 -0.9828 0.0000
vn -0.1796 -0.9679 -0.1756
vn 0.1825 0.9832 0.0021
vn 0.1825 0.9832 0.0022
vn 0.1066 0.5746 -0.8115
vn 0.1065 0.5745 -0.8116
vn -0.1824 -0.9832 0.0000
vn -0.1765 -0.9685 -0.1755
vn -0.1766 -0.9685 -0.1754
vn 0.1794 0.9838 0.0022
vn 0.1046 0.5735 -0.8125
vn 0.1045 0.5734 -0.8126
vn -0.1793 -0.9838 0.0000
vn -0.1724 -0.9693 -0.1752
vn -0.1724 -0.9693 -0.1753
vn 0.1750 0.9846 0.0022
vn 0.1022 0.5745 -0.8121
vn 0.1021 0.5745 -0.8121
vn -0.1750 -0.9846 0.0000
vn -0.1662 -0.9703 -0.1760
vn -0.1662 -0.9703 -0.1757
vn 0.1687 0.9857 0.0024
vn 0.0988 0.5765 -0.8111
vn 0.0987 0.5766 -0.8111
vn -0.1690 -0.9856 0.0000
vn -0.1688 -0.9856 0.0000
vn -0.1625 -0.9709 -0.1760
vn -0.1626 -0.9710 -0.1755
vn -0.1662 -0.9704 -0.1752
vn 0.1650 0.9863 0.0023
vn 0.1652 0.9863 0.0020
vn 0.0967 0.5780 -0.8103
vn -0.1651 -0.9863 0.0000
usemtl WallMat
s 1
f 1/1/1 3/2/2 2/3/2
f 1/1/3 2/3/4 4/4/5
f 5/5/6 7/6/7 6/7/8
f 7/6/9 5/5/10 8/8/9
f 1/9/11 9/10/11 3/11/11
f 9/10/11 1/9/11 10/12/11
f 10/12/12 7/13/13 9/10/14
f 7/13/13 10/12/12 6/14/15
f 11/15/16 4/4/17 2/3/16
f 4/4/17 11/15/16 12/16/17
f 13/17/18 1/18/3 4/19/5
f 13/17/18 4/19/5 14/20/18
f 15/21/19 6/22/8 16/23/19
f 6/22/8 15/21/19 5/24/6
f 13/25/11 10/26/11 1/27/11
f 10/26/11 13/25/11 17/28/11
f 17/28/20 6/29/15 10/26/12
f 6/29/15 17/28/20 16/30/21
f 12/31/17 18/32/22 4/19/17
f 14/20/22 4/19/17 18/32/22
f 19/33/23 13/34/18 14/35/18
f 19/33/23 14/35/18 20/36/23
f 21/37/24 16/38/19 22/39/25
f 16/38/19 21/37/24 15/40/19
f 19/41/11 17/42/11 13/43/11
f 17/42/11 19/41/11 23/44/11
f 23/44/26 16/45/21 17/42/20
f 16/45/21 23/44/26 22/46/27
f 18/47/22 20/36/28 14/35/22
f 20/36/28 18/47/22 24/48/28
f 25/49/29 19/50/23 20/51/23
f 25/49/29 20/51/23 26/52/29
f 27/53/30 22/54/25 28/55/30
f 22/54/25 27/53/30 21/56/24
f 25/57/11 23/58/11 19/59/11
f 23/58/11 25/57/11 29/60/11
f 29/60/31 22/61/27 23/58/26
f 22/61/27 29/60/31 28/62/32
f 24/63/28 26/52/33 20/51/28
f 26/52/33 24/63/28 30/64/33
f 31/65/34 25/66/29 26/67/29
f 31/65/34 26/67/29 32/68/34
f 33/69/35 28/70/30 34/71/36
f 28/70/30 33/69/35 27/72/30
f 31/73/11 29/74/11 25/75/11
f 29/74/11 31/73/11 35/76/11
f 35/76/37 28/77/32 29/74/31
f 28/77/32 35/76/37 34/78/38
f 30/79/33 32/68/39 26/67/33
f 32/68/39 30/79/33 36/80/39
f 37/81/40 31/82/34 32/83/34
f 37/81/40 32/83/34 38/84/40
f 39/85/41 34/86/36 40/87/42
f 34/86/36 39/85/41 33/88/35
f 37/89/11 35/90/11 31/91/11
f 35/90/11 37/89/11 41/92/11
f 41/92/43 34/93/38 35/90/37
f 34/93/38 41/92/43 40/94/44
f 36/95/39 38/84/45 32/83/39
f 38/84/45 36/95/39 42/96/45
f 43/97/46 37/98/40 38/99/40
f 43/97/46 38/99/40 44/100/47
f 45/101/48 40/102/42 46/103/48
f 40/102/42 45/101/48 39/104/41
f 43/105/11 41/106/11 37/107/11
f 41/106/11 43/105/11 47/108/11
f 47/108/49 40/109/44 41/106/43
f 40/109/44 47/108/49 46/110/50
f 42/111/45 48/112/51 38/99/45
f 44/100/51 38/99/45 48/112/51
f 49/113/52 43/114/46 44/115/47
f 49/113/52 44/115/47 50/116/53
f 51/117/54 46/118/48 52/119/54
f 46/118/48 51/117/54 45/120/48
f 49/121/11 47/122/11 43/123/11
f 47/122/11 49/121/11 53/124/11
f 53/124/55 46/125/50 47/122/49
f 46/125/50 53/124/55 52/126/56
f 48/127/51 50/116/57 44/115/51
f 50/116/57 48/127/51 54/128/57
f 55/129/58 49/130/52 50/131/53
f 55/129/58 50/131/53 56/132/59
f 57/133/60 52/134/54 58/135/60
f 52/134/54 57/133/60 51/136/54
f 55/137/11 53/138/11 49/139/11
f 53/138/11 55/137/11 59/140/11
f 59/140/61 52/141/56 53/138/55
f 52/141/56 59/140/61 58/142/62
f 54/143/57 60/144/63 50/131/57
f 56/132/64 50/131/57 60/144/63
f 61/145/65 55/146/58 56/147/59
f 61/145/66 56/147/67 62/148/66
f 63/149/68 58/150/60 64/151/69
f 58/150/60 63/149/68 57/152/60
f 61/153/11 59/154/11 55/155/11
f 59/154/11 61/153/11 65/156/11
f 65/156/70 58/157/62 59/154/61
f 58/157/62 65/156/70 64/158/70
f 60/159/63 62/148/71 56/147/64
f 62/148/71 60/159/64 66/160/71
