# Blender v3.4.1 OBJ File: 'track.blend'
# www.blender.org
mtllib _1WALL_small03_EMIRATES_002_SUB1_Scene.349.mtl
o _1WALL_small03_EMIRATES_002_SUB1_Scene.349
v 167.789703 311.229889 -2.003887
v 167.785095 311.225800 -3.688571
v 168.664505 315.346893 -2.021986
v 168.659698 315.341797 -3.706668
v 166.116501 303.404114 -1.995229
v 166.112503 303.402771 -3.679921
v 166.946884 307.314087 -3.682678
v 166.951202 307.316589 -1.997989
v 164.456085 295.576202 -1.995704
v 164.452301 295.575806 -3.680396
v 165.280899 299.489105 -3.679537
v 165.284698 299.489594 -1.994846
v 162.804596 287.747803 -1.993460
v 162.800201 287.744507 -3.678148
v 163.625504 291.660095 -3.680787
v 163.629395 291.661194 -1.996096
vt 0.000589 1.816153
vt 0.123742 1.816153
vt 0.000589 1.859635
vt 0.123742 1.859635
vt 0.000589 1.816153
vt 0.123742 1.859635
vt 0.000589 1.859635
vt 0.123742 1.816153
vt 0.040631 1.813524
vt 0.105981 1.836597
vt 0.040631 1.836597
vt 0.105981 1.813524
vt 0.000589 1.816153
vt 0.123742 1.859635
vt 0.000589 1.859635
vt 0.123742 1.816153
vt 0.040631 1.813524
vt 0.105981 1.836597
vt 0.040631 1.836597
vt 0.105981 1.813524
vt 0.000589 1.816153
vt 0.123742 1.859635
vt 0.000589 1.859635
vt 0.123742 1.816153
vt 0.040631 1.813524
vt 0.105981 1.836597
vt 0.040631 1.836597
vt 0.105981 1.813524
vn -0.9780 0.2087 0.0022
vn -0.9782 0.2079 0.0022
vn -0.9781 0.2082 0.0022
vn -0.9779 0.2091 0.0022
vn -0.9784 0.2069 0.0021
vn -0.9782 0.2075 0.0021
vn -0.9785 0.2062 0.0021
vn -0.9785 0.2064 0.0021
usemtl EnvironmentMat
s 1
f 1/1/1 3/2/2 2/3/1
f 4/4/2 2/3/1 3/2/2
f 5/5/3 7/6/4 6/7/3
f 7/6/4 5/5/3 8/8/4
f 8/9/4 2/10/1 7/11/4
f 2/10/1 8/9/4 1/12/1
f 9/13/5 11/14/6 10/15/5
f 11/14/6 9/13/5 12/16/6
f 12/17/6 6/18/3 11/19/6
f 6/18/3 12/17/6 5/20/3
f 13/21/7 15/22/8 14/23/7
f 15/22/8 13/21/7 16/24/8
f 16/25/8 10/26/5 15/27/8
f 10/26/5 16/25/8 9/28/5
