# Blender v3.4.1 OBJ File: 'track.blend'
# www.blender.org
mtllib _1WALL_03_EMIRATES_001_SUB2_Scene.263.mtl
o _1WALL_03_EMIRATES_001_SUB2_Scene.263
v 219.152496 702.044189 -2.408828
v 219.156006 702.038513 -4.093510
v 219.064407 698.006470 -4.076489
v 219.060898 698.012024 -2.391806
v 219.242981 706.043335 -2.426459
v 219.246506 706.037170 -4.111140
v 219.328003 710.044495 -2.444995
v 219.331497 710.038025 -4.129675
v 219.246506 706.038635 -4.111147
v 219.242981 706.044922 -2.426466
v 219.402588 714.044373 -2.464164
v 219.406006 714.037476 -4.148843
v 219.462006 718.046143 -2.483848
v 219.465393 718.039185 -4.168526
v 219.406006 714.039124 -4.148849
v 219.402588 714.045776 -2.464171
v 219.504990 722.046875 -2.503860
v 219.508392 722.039917 -4.188537
v 219.529190 726.049072 -2.524134
v 219.532593 726.042114 -4.208811
v 219.508484 722.041321 -4.188545
v 219.504990 722.048279 -2.503867
v 219.530899 730.050110 -2.544589
v 219.534286 730.043030 -4.229266
v 219.511307 734.052551 -2.565156
v 219.514679 734.045349 -4.249833
v 219.534286 730.044495 -4.229274
v 219.530899 730.051575 -2.544597
v 219.470886 738.053284 -2.585737
v 219.474289 738.046143 -4.270414
v 219.412201 742.054993 -2.605999
v 219.415604 742.048096 -4.290677
v 219.474289 738.047729 -4.270422
v 219.470886 738.054810 -2.585745
v 219.338303 746.054993 -2.625831
v 219.341690 746.048279 -4.310511
v 219.248703 750.052551 -2.636574
v 219.251785 750.057617 -4.321258
v 219.341690 746.049805 -4.310517
v 219.338303 746.056458 -2.625839
v 219.142807 754.049500 -2.613925
v 219.145599 754.063110 -4.298564
v 219.019287 758.053284 -2.594246
v 219.022491 758.055664 -4.278940
v 219.142685 754.051025 -2.613914
v 219.145599 754.064575 -4.298553
v 218.877304 762.061768 -2.630816
v 218.881790 762.029114 -4.315180
v 218.716278 766.063293 -2.736302
v 218.721283 766.017883 -4.420381
v 218.881699 762.030518 -4.315206
v 218.877304 762.063416 -2.630841
v 218.535294 770.051575 -2.825361
v 218.539093 770.031921 -4.509943
v 218.332397 774.040344 -2.834384
v 218.334702 774.049500 -4.519053
v 218.535187 770.053162 -2.825384
v 218.539001 770.033508 -4.509966
v 218.105789 778.033569 -2.806236
v 218.107803 778.047729 -4.490870
v 217.853394 782.032776 -2.789914
v 217.856400 782.031921 -4.474607
v 218.105698 778.034973 -2.806224
v 218.107697 778.049194 -4.490859
v 217.584900 786.080383 -2.794274
v 217.588196 786.075134 -4.478954
vt 0.002252 1.818904
vt 0.119739 1.860382
vt 0.002252 1.860382
vt 0.119739 1.818904
vt 0.048386 1.814090
vt 0.109976 1.835834
vt 0.048386 1.835834
vt 0.109976 1.814090
vt 0.002252 1.818904
vt 0.119739 1.860382
vt 0.002252 1.860382
vt 0.119739 1.818904
vt 0.048386 1.814090
vt 0.109976 1.835834
vt 0.048386 1.835834
vt 0.109976 1.814090
vt 0.002252 1.818904
vt 0.119739 1.860382
vt 0.002252 1.860382
vt 0.119739 1.818904
vt 0.048386 1.814090
vt 0.109976 1.835834
vt 0.048386 1.835834
vt 0.109976 1.814090
vt 0.002252 1.818904
vt 0.119739 1.860382
vt 0.002252 1.860382
vt 0.119739 1.818904
vt 0.048386 1.814090
vt 0.109976 1.835834
vt 0.048386 1.835834
vt 0.109976 1.814090
vt 0.002252 1.818904
vt 0.119739 1.860382
vt 0.002252 1.860382
vt 0.119739 1.818904
vt 0.048386 1.814090
vt 0.109976 1.835834
vt 0.048386 1.835834
vt 0.109976 1.814090
vt 0.002252 1.818904
vt 0.119739 1.860382
vt 0.002252 1.860382
vt 0.119739 1.818904
vt 0.048386 1.814090
vt 0.109976 1.835834
vt 0.048386 1.835834
vt 0.109976 1.814090
vt 0.002252 1.818904
vt 0.119739 1.860382
vt 0.002252 1.860382
vt 0.119739 1.818904
vt 0.048386 1.814090
vt 0.109976 1.814090
vt 0.048386 1.835834
vt 0.109976 1.835834
vt 0.002252 1.818904
vt 0.119739 1.818904
vt 0.002252 1.860382
vt 0.119739 1.860382
vt 0.048386 1.814090
vt 0.109976 1.835834
vt 0.048386 1.835834
vt 0.109976 1.814090
vt 0.002252 1.818904
vt 0.119739 1.860382
vt 0.002252 1.860382
vt 0.119739 1.818904
vt 0.048386 1.814090
vt 0.109976 1.835834
vt 0.048386 1.835834
vt 0.109976 1.814090
vt 0.002252 1.818904
vt 0.119739 1.818904
vt 0.002252 1.860382
vt 0.119739 1.860382
vt 0.048386 1.814090
vt 0.109976 1.814090
vt 0.048386 1.835834
vt 0.109976 1.835834
vt 0.002252 1.818904
vt 0.119739 1.818904
vt 0.002252 1.860382
vt 0.119739 1.860382
vt 0.048386 1.814090
vt 0.109976 1.814090
vt 0.048386 1.835834
vt 0.109976 1.835834
vn 0.9997 -0.0227 0.0022
vn 0.9997 -0.0226 0.0022
vn 0.9998 -0.0199 0.0022
vn 0.9998 -0.0212 0.0022
vn 0.9998 -0.0199 0.0021
vn 0.9998 -0.0186 0.0021
vn 0.9999 -0.0128 0.0021
vn 0.9999 -0.0148 0.0021
vn 0.9999 -0.0107 0.0021
vn 1.0000 -0.0032 0.0020
vn 1.0000 -0.0060 0.0021
vn 1.0000 -0.0004 0.0020
vn 1.0000 0.0075 0.0020
vn 1.0000 0.0049 0.0020
vn 0.9999 0.0101 0.0020
vn 0.9999 0.0166 0.0020
vn 0.9999 0.0147 0.0020
vn 0.9998 0.0185 0.0019
vn 0.9997 0.0245 0.0019
vn 0.9997 0.0224 0.0019
vn 0.9996 0.0265 0.0019
vn 0.9994 0.0331 0.0019
vn 0.9995 0.0308 0.0020
vn 0.9994 0.0331 0.0020
vn 0.9994 0.0354 0.0020
vn 0.9991 0.0428 0.0018
vn 0.9992 0.0403 0.0018
vn 0.9990 0.0454 0.0017
vn 0.9986 0.0537 0.0017
vn 0.9987 0.0508 0.0017
vn 0.9984 0.0566 0.0017
vn 0.9984 0.0567 0.0017
vn 0.9979 0.0646 0.0017
vn 0.9980 0.0630 0.0017
vn 0.9978 0.0662 0.0017
usemtl EnvironmentMat
s 1
f 1/1/1 3/2/1 2/3/1
f 3/2/1 1/1/1 4/4/1
f 5/5/2 2/6/1 6/7/2
f 2/6/1 5/5/2 1/8/1
f 7/9/3 9/10/4 8/11/5
f 9/10/4 7/9/3 10/12/4
f 11/13/6 8/14/5 12/15/6
f 8/14/5 11/13/6 7/16/3
f 13/17/7 15/18/8 14/19/7
f 15/18/8 13/17/7 16/20/8
f 17/21/9 14/22/7 18/23/9
f 14/22/7 17/21/9 13/24/7
f 19/25/10 21/26/11 20/27/10
f 21/26/11 19/25/10 22/28/11
f 23/29/12 20/30/10 24/31/12
f 20/30/10 23/29/12 19/32/10
f 25/33/13 27/34/14 26/35/13
f 27/34/14 25/33/13 28/36/14
f 29/37/15 26/38/13 30/39/15
f 26/38/13 29/37/15 25/40/13
f 31/41/16 33/42/17 32/43/16
f 33/42/17 31/41/16 34/44/17
f 35/45/18 32/46/16 36/47/18
f 32/46/16 35/45/18 31/48/16
f 37/49/19 39/50/20 38/51/19
f 39/50/20 37/49/19 40/52/20
f 41/53/21 37/54/19 42/55/21
f 38/56/19 42/55/21 37/54/19
f 43/57/22 45/58/23 44/59/24
f 46/60/23 44/59/24 45/58/23
f 47/61/25 44/62/24 48/63/25
f 44/62/24 47/61/25 43/64/22
f 49/65/26 51/66/27 50/67/26
f 51/66/27 49/65/26 52/68/27
f 53/69/28 50/70/26 54/71/28
f 50/70/26 53/69/28 49/72/26
f 55/73/29 57/74/30 56/75/29
f 58/76/30 56/75/29 57/74/30
f 59/77/31 55/78/29 60/79/32
f 56/80/29 60/79/32 55/78/29
f 61/81/33 63/82/34 62/83/33
f 64/84/34 62/83/33 63/82/34
f 65/85/35 61/86/33 66/87/35
f 62/88/33 66/87/35 61/86/33
