# Blender v3.4.1 OBJ File: 'track.blend'
# www.blender.org
mtllib _1WALL_small01_01_SUB0_Scene.302.mtl
o _1WALL_small01_01_SUB0_Scene.302
v 211.289383 884.887024 -4.380464
v 210.830093 880.858826 -3.397919
v 211.004395 880.842468 -4.379610
v 211.114807 884.898682 -3.398773
v 211.500702 884.873718 -2.680464
v 211.504288 884.874512 -4.365155
v 211.218781 880.823975 -4.364299
v 211.215088 880.822815 -2.679609
v 211.483002 884.874329 -4.380464
v 211.197495 880.824524 -4.379609
v 210.830093 880.858826 -2.679610
v 211.114807 884.898865 -2.680464
v 211.556885 888.879028 -4.382955
v 211.382401 888.894104 -3.401266
v 211.767883 888.863525 -2.682952
v 211.771500 888.863159 -4.367644
v 211.750183 888.863525 -4.382952
v 211.382492 888.894653 -2.682957
v 211.967499 892.858887 -4.387361
v 211.794006 892.882874 -3.405683
v 212.177597 892.833801 -2.687348
v 212.181183 892.832581 -4.372040
v 212.159897 892.833862 -4.387349
v 211.794098 892.883728 -2.687375
v 212.600098 896.809326 -4.393680
v 212.428604 896.845520 -3.412023
v 212.807907 896.770996 -2.693646
v 212.811401 896.768555 -4.378336
v 212.790283 896.771301 -4.393646
v 212.428680 896.846924 -2.693714
v 213.557205 900.693176 -4.402389
v 213.389801 900.745422 -3.420768
v 213.760696 900.637085 -2.702315
v 213.763901 900.633240 -4.387002
v 213.743103 900.637878 -4.402316
v 213.389999 900.747314 -2.702461
v 214.891281 904.463013 -4.413661
v 214.730988 904.535278 -3.432102
v 215.086700 904.384888 -2.713521
v 215.089706 904.379517 -4.398206
v 215.069504 904.386475 -4.413525
v 214.731400 904.537476 -2.713795
v 216.693100 908.035278 -4.426889
v 216.539703 908.121521 -3.445379
v 216.880295 907.940125 -2.726686
v 216.883194 907.934265 -4.411370
v 216.863800 907.943115 -4.426695
v 216.540100 908.123901 -2.727073
v 218.693192 911.501831 -4.438094
v 218.544006 911.595520 -3.456607
v 218.874405 911.396057 -2.737857
v 218.877808 911.391174 -4.422542
v 218.858902 911.400818 -4.437872
v 218.544189 911.597412 -2.738299
v 220.857178 914.868958 -4.445815
v 220.712204 914.969116 -3.464343
v 221.031906 914.753174 -2.745556
v 221.035995 914.749207 -4.430243
v 221.017593 914.759888 -4.445575
v 220.712006 914.970520 -2.746034
v 223.184494 918.125427 -4.449988
v 223.044296 918.232422 -3.468524
v 223.352081 917.999817 -2.749717
v 223.356995 917.996704 -4.434402
v 223.339188 918.008423 -4.449737
v 223.043777 918.233154 -2.750216
v 225.688705 921.247925 -4.450270
v 225.553680 921.361450 -3.468807
v 225.848297 921.112427 -2.749998
v 225.854095 921.110352 -4.434682
v 225.836884 921.122864 -4.450020
v 225.552795 921.361877 -2.750498
v 228.354797 924.233398 -4.447016
v 228.225479 924.353271 -3.465547
v 228.506088 924.088501 -2.746755
v 228.512695 924.087158 -4.431437
v 228.496185 924.100586 -4.446774
v 228.224197 924.353210 -2.747238
v 231.168701 927.079224 -4.440830
v 231.044891 927.204651 -3.459349
v 231.319504 926.925659 -4.425265
v 231.312393 926.926514 -2.740584
v 231.303680 926.939819 -4.440602
v 231.043396 927.204346 -2.741041
v 234.074707 929.828430 -4.434496
v 233.952377 929.955200 -3.453011
v 234.218582 929.675964 -2.734252
v 234.224503 929.673828 -4.418935
v 234.208801 929.688171 -4.434270
v 233.951401 929.955383 -2.734701
v 236.980194 932.578552 -4.433739
v 236.861694 932.708984 -3.452253
v 237.121094 932.423279 -2.733493
v 237.126007 932.420227 -4.418179
v 237.110580 932.434814 -4.433513
v 236.861084 932.709595 -2.733944
v 240.005188 935.198425 -4.433738
v 239.893097 935.334351 -3.452254
v 240.138489 935.036621 -2.733494
v 240.143204 935.033325 -4.418179
v 240.128586 935.048645 -4.433513
v 239.892502 935.334961 -2.733945
v 243.154099 937.682068 -4.433738
v 243.047882 937.822571 -3.452253
v 243.280502 937.514771 -2.733493
v 243.285095 937.511292 -4.418180
v 243.271088 937.527222 -4.433512
v 243.047394 937.823242 -2.733944
vt -1.021971 2.001424
vt 2.977629 2.001424
vt 2.977629 1.108993
vt -1.021971 1.108994
vt -1.021971 0.580997
vt 2.977629 1.993160
vt -1.021971 1.993160
vt 2.977630 0.580997
vt -1.021971 1.695245
vt 2.977629 1.899918
vt -1.021971 1.899918
vt 2.977629 1.695245
vt 2.977629 1.688305
vt -1.021971 1.688305
vt 2.977629 0.755510
vt -1.021971 0.755511
vt -1.021971 2.001424
vt 2.977629 2.001424
vt 2.977629 1.108993
vt -1.021971 1.108994
vt -1.021971 0.580997
vt 2.977629 1.993160
vt -1.021971 1.993160
vt 2.977630 0.580997
vt -1.021971 1.695245
vt 2.977629 1.899918
vt -1.021971 1.899918
vt 2.977629 1.695245
vt 2.977629 1.688305
vt -1.021971 1.688305
vt 2.977629 0.755510
vt -1.021971 0.755511
vt -1.021971 2.001424
vt 2.977629 2.001424
vt 2.977629 1.108993
vt -1.021971 1.108994
vt -1.021971 0.580997
vt 2.977629 1.993160
vt -1.021971 1.993160
vt 2.977630 0.580997
vt -1.021971 1.695245
vt 2.977629 1.899918
vt -1.021971 1.899918
vt 2.977629 1.695245
vt 2.977629 1.688305
vt -1.021971 1.688305
vt 2.977629 0.755510
vt -1.021971 0.755511
vt -1.021971 2.001424
vt 2.977629 2.001424
vt 2.977629 1.108993
vt -1.021971 1.108994
vt -1.021971 0.580997
vt 2.977629 1.993160
vt -1.021971 1.993160
vt 2.977630 0.580997
vt -1.021971 1.695245
vt 2.977629 1.899918
vt -1.021971 1.899918
vt 2.977629 1.695245
vt 2.977629 1.688305
vt -1.021971 1.688305
vt 2.977629 0.755510
vt -1.021971 0.755511
vt -1.021971 2.001424
vt 2.977629 2.001424
vt 2.977629 1.108993
vt -1.021971 1.108994
vt -1.021971 0.580997
vt 2.977629 1.993160
vt -1.021971 1.993160
vt 2.977630 0.580997
vt 2.977629 1.899918
vt -1.021971 1.899918
vt -1.021971 1.695245
vt 2.977629 1.695245
vt 2.977629 1.688305
vt -1.021971 1.688305
vt 2.977629 0.755510
vt -1.021971 0.755511
vt -1.021971 2.001424
vt 2.977629 2.001424
vt 2.977629 1.108993
vt -1.021971 1.108994
vt -1.021971 0.580997
vt 2.977629 1.993160
vt -1.021971 1.993160
vt 2.977630 0.580997
vt 2.977629 1.899918
vt -1.021971 1.899918
vt -1.021971 1.695245
vt 2.977629 1.695245
vt 2.977629 1.688305
vt -1.021971 1.688305
vt 2.977629 0.755510
vt -1.021971 0.755511
vt -1.021971 2.001424
vt 2.977629 2.001424
vt 2.977629 1.108993
vt -1.021971 1.108994
vt -1.021971 0.580997
vt 2.977629 1.993160
vt -1.021971 1.993160
vt 2.977630 0.580997
vt -1.021971 1.899918
vt 2.977629 1.695245
vt 2.977629 1.899918
vt -1.021971 1.695245
vt 2.977629 1.688305
vt -1.021971 1.688305
vt 2.977629 0.755510
vt -1.021971 0.755511
vt -1.021971 2.001424
vt 2.977629 2.001424
vt 2.977629 1.108993
vt -1.021971 1.108994
vt -1.021971 0.580997
vt 2.977629 1.993160
vt -1.021971 1.993160
vt 2.977630 0.580997
vt -1.021971 1.899918
vt 2.977629 1.695245
vt 2.977629 1.899918
vt -1.021971 1.695245
vt 2.977629 1.688305
vt -1.021971 1.688305
vt 2.977629 0.755510
vt -1.021971 0.755511
vt -1.021971 2.001424
vt 2.977629 2.001424
vt 2.977629 1.108993
vt -1.021971 1.108994
vt -1.021971 0.580997
vt 2.977630 0.580997
vt -1.021971 1.993160
vt 2.977629 1.993160
vt 2.977629 1.899918
vt -1.021971 1.899918
vt -1.021971 1.695245
vt 2.977629 1.695245
vt 2.977629 1.688305
vt -1.021971 1.688305
vt 2.977629 0.755510
vt -1.021971 0.755511
vt -1.021971 2.001424
vt 2.977629 2.001424
vt 2.977629 1.108993
vt -1.021971 1.108994
vt -1.021971 0.580997
vt 2.977630 0.580997
vt -1.021971 1.993160
vt 2.977629 1.993160
vt 2.977629 1.899918
vt -1.021971 1.899918
vt -1.021971 1.695245
vt 2.977629 1.695245
vt 2.977629 1.688305
vt -1.021971 1.688305
vt 2.977629 0.755510
vt -1.021971 0.755511
vt -1.021971 2.001424
vt 2.977629 2.001424
vt 2.977629 1.108993
vt -1.021971 1.108994
vt -1.021971 0.580997
vt 2.977630 0.580997
vt -1.021971 1.993160
vt 2.977629 1.993160
vt -1.021971 1.899918
vt 2.977629 1.695245
vt 2.977629 1.899918
vt -1.021971 1.695245
vt 2.977629 1.688305
vt -1.021971 1.688305
vt 2.977629 0.755510
vt -1.021971 0.755511
vt -1.021971 2.001424
vt 2.977629 2.001424
vt 2.977629 1.108993
vt -1.021971 1.108994
vt -1.021971 0.580997
vt 2.977630 0.580997
vt -1.021971 1.993160
vt 2.977629 1.993160
vt -1.021971 1.899918
vt 2.977629 1.695245
vt 2.977629 1.899918
vt -1.021971 1.695245
vt 2.977629 1.688305
vt -1.021971 1.688305
vt 2.977629 0.755510
vt -1.021971 0.755511
vt -1.021971 2.001424
vt 2.977629 2.001424
vt 2.977629 1.108993
vt -1.021971 1.108994
vt 2.977629 1.993160
vt -1.021971 1.993160
vt 2.977630 0.580997
vt -1.021971 0.580997
vt -1.021971 1.899918
vt 2.977629 1.695245
vt 2.977629 1.899918
vt -1.021971 1.695245
vt 2.977629 1.688305
vt -1.021971 1.688305
vt 2.977629 0.755510
vt -1.021971 0.755511
vt 2.977629 2.001424
vt -1.021971 1.108994
vt -1.021971 2.001424
vt 2.977629 1.108993
vt -1.021971 0.580997
vt 2.977629 1.993160
vt -1.021971 1.993160
vt 2.977630 0.580997
vt -1.021971 1.899918
vt 2.977629 1.695245
vt 2.977629 1.899918
vt -1.021971 1.695245
vt 2.977629 1.688305
vt -1.021971 1.688305
vt 2.977629 0.755510
vt -1.021971 0.755511
vt 2.977629 2.001424
vt -1.021971 1.108994
vt -1.021971 2.001424
vt 2.977629 1.108993
vt 2.977629 1.993160
vt -1.021971 0.580997
vt 2.977630 0.580997
vt -1.021971 1.993160
vt 2.977629 1.899918
vt -1.021971 1.899918
vt -1.021971 1.695245
vt 2.977629 1.695245
vt 2.977629 1.688305
vt -1.021971 1.688305
vt 2.977629 0.755510
vt -1.021971 0.755511
vt 2.977629 2.001424
vt -1.021971 1.108994
vt -1.021971 2.001424
vt 2.977629 1.108993
vt -1.021971 0.580997
vt 2.977629 1.993160
vt -1.021971 1.993160
vt 2.977630 0.580997
vt 2.977629 1.899918
vt -1.021971 1.899918
vt -1.021971 1.695245
vt 2.977629 1.695245
vt 2.977629 1.688305
vt -1.021971 1.688305
vt 2.977629 0.755510
vt -1.021971 0.755511
vt 2.977629 2.001424
vt -1.021971 1.108994
vt -1.021971 2.001424
vt 2.977629 1.108993
vt -1.021971 0.580997
vt 2.977629 1.993160
vt -1.021971 1.993160
vt 2.977630 0.580997
vt -1.021971 1.899918
vt 2.977629 1.695245
vt 2.977629 1.899918
vt -1.021971 1.695245
vt 2.977629 1.688305
vt -1.021971 1.688305
vt 2.977629 0.755510
vt -1.021971 0.755511
vn -0.9822 0.0674 -0.1755
vn -0.9820 0.0692 -0.1755
vn -0.9822 0.0673 -0.1755
vn -0.9821 0.0692 -0.1755
vn 0.9977 -0.0683 0.0021
vn 0.9975 -0.0703 0.0021
vn 0.9976 -0.0686 0.0021
vn -0.0000 -0.0004 -1.0000
vn -0.0000 -0.0002 -1.0000
vn 0.5829 -0.0413 -0.8115
vn 0.5830 -0.0404 -0.8115
vn 0.5828 -0.0403 -0.8116
vn 0.5825 -0.0412 -0.8118
vn -0.9975 0.0703 0.0000
vn -0.9976 0.0686 -0.0000
vn -0.9809 0.0833 -0.1756
vn 0.9964 -0.0847 0.0021
vn 0.9964 -0.0848 0.0022
vn -0.0001 -0.0009 -1.0000
vn 0.5820 -0.0498 -0.8116
vn 0.5817 -0.0506 -0.8118
vn -0.9964 0.0847 0.0001
vn -0.9761 0.1282 -0.1756
vn 0.9915 -0.1304 0.0022
vn -0.0001 -0.0013 -1.0000
vn 0.5792 -0.0767 -0.8116
vn 0.5791 -0.0779 -0.8116
vn -0.9915 0.1304 -0.0000
vn -0.9648 0.1955 -0.1758
vn -0.9648 0.1954 -0.1758
vn 0.9800 -0.1988 0.0023
vn 0.9800 -0.1989 0.0023
vn -0.0002 -0.0019 -1.0000
vn 0.5730 -0.1170 -0.8112
vn 0.5728 -0.1187 -0.8111
vn -0.9800 0.1989 -0.0003
vn -0.9432 0.2819 -0.1759
vn 0.9580 -0.2867 0.0025
vn 0.9580 -0.2868 0.0025
vn -0.0004 -0.0025 -1.0000
vn 0.5600 -0.1687 -0.8112
vn 0.5595 -0.1707 -0.8111
vn -0.9580 0.2868 -0.0005
vn -0.9055 0.3861 -0.1763
vn -0.9054 0.3861 -0.1763
vn 0.9196 -0.3928 0.0029
vn -0.0006 -0.0031 -1.0000
vn 0.5350 -0.2298 -0.8130
vn 0.5340 -0.2323 -0.8129
vn -0.9196 0.3927 -0.0007
vn -0.8663 0.4673 -0.1764
vn 0.8798 -0.4753 0.0032
vn -0.0006 -0.0032 -1.0000
vn 0.5132 -0.2794 -0.8115
vn 0.5127 -0.2804 -0.8115
vn -0.8799 0.4752 -0.0011
vn -0.8407 0.5118 -0.1767
vn 0.8540 -0.5203 0.0032
vn 0.8539 -0.5204 0.0032
vn -0.0003 -0.0026 -1.0000
vn 0.5000 -0.3063 -0.8100
vn 0.4995 -0.3073 -0.8100
vn -0.8540 0.5203 -0.0011
vn -0.8148 0.5522 -0.1768
vn 0.8277 -0.5612 0.0033
vn 0.0002 -0.0019 -1.0000
vn 0.4838 -0.3289 -0.8110
vn 0.4829 -0.3295 -0.8113
vn -0.8277 0.5612 -0.0010
vn -0.8277 0.5612 -0.0008
vn -0.7846 0.5942 -0.1769
vn 0.7972 -0.6037 0.0034
vn 0.7971 -0.6038 0.0034
vn 0.0007 -0.0012 -1.0000
vn 0.4668 -0.3535 -0.8106
vn 0.4666 -0.3548 -0.8102
vn -0.7972 0.6038 -0.0013
vn -0.7512 0.6359 -0.1769
vn 0.7633 -0.6461 0.0035
vn 0.7632 -0.6461 0.0035
vn 0.0012 -0.0006 -1.0000
vn 0.4466 -0.3770 -0.8114
vn 0.4460 -0.3779 -0.8114
vn -0.7633 0.6461 -0.0012
vn -0.7171 0.6742 -0.1769
vn 0.7287 -0.6848 0.0034
vn 0.0017 0.0000 -1.0000
vn 0.4282 -0.4004 -0.8102
vn 0.4273 -0.4010 -0.8103
vn -0.7287 0.6848 -0.0013
vn -0.6880 0.7038 -0.1768
vn 0.6992 -0.7149 0.0033
vn 0.6993 -0.7149 0.0033
vn 0.0019 0.0002 -1.0000
vn 0.4105 -0.4174 -0.8107
vn 0.4100 -0.4179 -0.8107
vn -0.6992 0.7149 -0.0011
vn -0.6993 0.7149 -0.0011
vn -0.6764 0.7150 -0.1766
vn 0.6873 -0.7263 0.0033
vn 0.0014 -0.0002 -1.0000
vn 0.4035 -0.4253 -0.8102
vn 0.4034 -0.4253 -0.8102
vn -0.6873 0.7263 -0.0012
vn -0.6606 0.7296 -0.1767
vn 0.6712 -0.7412 0.0034
vn 0.6712 -0.7413 0.0034
vn 0.0008 -0.0008 -1.0000
vn 0.3938 -0.4341 -0.8102
vn 0.3931 -0.4347 -0.8103
vn -0.6712 0.7413 -0.0012
vn -0.6271 0.7586 -0.1767
vn 0.6372 -0.7707 0.0033
vn 0.6371 -0.7708 0.0033
vn 0.0007 -0.0009 -1.0000
vn 0.3739 -0.4515 -0.8102
vn 0.3731 -0.4521 -0.8102
vn -0.6371 0.7707 -0.0012
vn -0.6096 0.7728 -0.1766
vn -0.6096 0.7728 -0.1765
vn 0.6193 -0.7852 0.0033
vn 0.3646 -0.4622 -0.8083
vn 0.3646 -0.4623 -0.8083
vn -0.6193 0.7852 -0.0012
usemtl WallMat
s 1
f 1/1/1 3/2/2 2/3/2
f 1/1/3 2/3/4 4/4/1
f 5/5/5 7/6/6 6/7/7
f 7/6/6 5/5/7 8/8/6
f 9/9/8 3/10/9 1/11/8
f 3/10/9 9/9/9 10/12/9
f 7/13/10 9/9/11 6/14/12
f 9/9/11 7/13/10 10/12/13
f 11/15/14 12/16/15 2/3/14
f 4/4/15 2/3/14 12/16/15
f 13/17/16 1/18/3 4/19/1
f 13/17/16 4/19/1 14/20/16
f 15/21/17 6/22/7 16/23/18
f 6/22/7 15/21/17 5/24/5
f 17/25/19 1/26/8 13/27/19
f 1/26/8 17/25/19 9/28/8
f 6/29/12 17/25/20 16/30/21
f 17/25/20 6/29/12 9/28/11
f 12/31/15 18/32/22 4/19/15
f 14/20/22 4/19/15 18/32/22
f 19/33/23 13/34/16 14/35/16
f 19/33/23 14/35/16 20/36/23
f 21/37/24 16/38/18 22/39/24
f 16/38/18 21/37/24 15/40/17
f 23/41/25 13/42/19 19/43/25
f 13/42/19 23/41/25 17/44/19
f 16/45/21 23/41/26 22/46/27
f 23/41/26 16/45/21 17/44/20
f 18/47/22 24/48/28 14/35/22
f 20/36/28 14/35/22 24/48/28
f 25/49/29 19/50/23 20/51/23
f 25/49/29 20/51/23 26/52/30
f 27/53/31 22/54/24 28/55/32
f 22/54/24 27/53/31 21/56/24
f 29/57/33 19/58/25 25/59/33
f 19/58/25 29/57/33 23/60/25
f 22/61/27 29/57/34 28/62/35
f 29/57/34 22/61/27 23/60/26
f 24/63/28 30/64/36 20/51/28
f 26/52/36 20/51/28 30/64/36
f 31/65/37 25/66/29 26/67/30
f 31/65/37 26/67/30 32/68/37
f 33/69/38 28/70/32 34/71/39
f 28/70/32 33/69/38 27/72/31
f 25/73/33 31/74/40 35/75/40
f 25/73/33 35/75/40 29/76/33
f 28/77/35 35/75/41 34/78/42
f 35/75/41 28/77/35 29/76/34
f 30/79/36 36/80/43 26/67/36
f 32/68/43 26/67/36 36/80/43
f 37/81/44 31/82/37 32/83/37
f 37/81/44 32/83/37 38/84/45
f 39/85/46 34/86/39 40/87/46
f 34/86/39 39/85/46 33/88/38
f 31/89/40 37/90/47 41/91/47
f 31/89/40 41/91/47 35/92/40
f 34/93/42 41/91/48 40/94/49
f 41/91/48 34/93/42 35/92/41
f 36/95/43 42/96/50 32/83/43
f 38/84/50 32/83/43 42/96/50
f 43/97/51 37/98/44 38/99/45
f 43/97/51 38/99/45 44/100/51
f 45/101/52 40/102/46 46/103/52
f 40/102/46 45/101/52 39/104/46
f 43/105/53 41/106/47 37/107/47
f 41/106/47 43/105/53 47/108/53
f 40/109/49 47/108/54 46/110/55
f 47/108/54 40/109/49 41/106/48
f 42/111/50 48/112/56 38/99/50
f 44/100/56 38/99/50 48/112/56
f 49/113/57 43/114/51 44/115/51
f 49/113/57 44/115/51 50/116/57
f 51/117/58 46/118/52 52/119/59
f 46/118/52 51/117/58 45/120/52
f 49/121/60 47/122/53 43/123/53
f 47/122/53 49/121/60 53/124/60
f 53/124/61 46/125/55 47/122/54
f 46/125/55 53/124/61 52/126/62
f 48/127/56 54/128/63 44/115/56
f 50/116/63 44/115/56 54/128/63
f 55/129/64 49/130/57 50/131/57
f 55/129/64 50/131/57 56/132/64
f 57/133/65 51/134/58 58/135/65
f 52/136/59 58/135/65 51/134/58
f 49/137/60 55/138/66 59/139/66
f 49/137/60 59/139/66 53/140/60
f 59/139/67 52/141/62 53/140/61
f 52/141/62 59/139/67 58/142/68
f 54/143/63 60/144/69 50/131/63
f 56/132/70 50/131/63 60/144/69
f 61/145/71 55/146/64 56/147/64
f 61/145/71 56/147/64 62/148/71
f 63/149/72 57/150/65 64/151/73
f 58/152/65 64/151/73 57/150/65
f 55/153/66 61/154/74 65/155/74
f 55/153/66 65/155/74 59/156/66
f 65/155/75 58/157/68 59/156/67
f 58/157/68 65/155/75 64/158/76
f 60/159/69 62/148/77 56/147/70
f 62/148/77 60/159/69 66/160/77
f 67/161/78 61/162/71 62/163/71
f 67/161/78 62/163/71 68/164/78
f 69/165/79 63/166/72 70/167/80
f 64/168/73 70/167/80 63/166/72
f 67/169/81 65/170/74 61/171/74
f 65/170/74 67/169/81 71/172/81
f 71/172/82 64/173/76 65/170/75
f 64/173/76 71/172/82 70/174/83
f 66/175/77 68/164/84 62/163/77
f 68/164/84 66/175/77 72/176/84
f 73/177/85 67/178/78 68/179/78
f 73/177/85 68/179/78 74/180/85
f 75/181/86 69/182/79 76/183/86
f 70/184/80 76/183/86 69/182/79
f 73/185/87 71/186/81 67/187/81
f 71/186/81 73/185/87 77/188/87
f 77/188/88 70/189/83 71/186/82
f 70/189/83 77/188/88 76/190/89
f 72/191/84 74/180/90 68/179/84
f 74/180/90 72/191/84 78/192/90
f 79/193/91 73/194/85 74/195/85
f 79/193/91 74/195/85 80/196/91
f 76/197/86 81/198/92 75/199/86
f 81/198/92 82/200/93 75/199/86
f 79/201/94 77/202/87 73/203/87
f 77/202/87 79/201/94 83/204/94
f 83/204/95 76/205/89 77/202/88
f 76/205/89 83/204/95 81/206/96
f 78/207/90 80/196/97 74/195/90
f 80/196/97 78/207/90 84/208/98
f 79/209/91 86/210/99 85/211/99
f 86/210/99 79/209/91 80/212/91
f 87/213/100 81/214/92 88/215/100
f 81/214/92 87/213/100 82/216/93
f 85/217/101 83/218/94 79/219/94
f 83/218/94 85/217/101 89/220/101
f 89/220/102 81/221/96 83/218/95
f 81/221/96 89/220/102 88/222/103
f 84/223/98 86/210/104 80/212/97
f 86/210/104 84/223/98 90/224/104
f 85/225/99 92/226/105 91/227/105
f 92/226/105 85/225/99 86/228/99
f 88/229/100 93/230/106 87/231/100
f 93/230/106 88/229/100 94/232/107
f 85/233/101 91/234/108 95/235/108
f 95/235/108 89/236/101 85/233/101
f 95/235/109 88/237/103 89/236/102
f 88/237/103 95/235/109 94/238/110
f 90/239/104 96/240/111 86/228/104
f 92/226/111 86/228/104 96/240/111
f 91/241/105 98/242/112 97/243/112
f 98/242/112 91/241/105 92/244/105
f 99/245/113 94/246/107 100/247/114
f 94/246/107 99/245/113 93/248/106
f 91/249/108 97/250/115 101/251/115
f 101/251/115 95/252/108 91/249/108
f 101/251/116 94/253/110 95/252/109
f 94/253/110 101/251/116 100/254/117
f 96/255/111 102/256/118 92/244/111
f 98/242/118 92/244/111 102/256/118
f 97/257/112 104/258/119 103/259/120
f 104/258/119 97/257/112 98/260/112
f 105/261/121 100/262/114 106/263/121
f 100/262/114 105/261/121 99/264/113
f 103/265/115 101/266/115 97/267/115
f 101/266/115 103/265/115 107/268/115
f 107/268/122 100/269/117 101/266/116
f 100/269/117 107/268/122 106/270/123
f 102/271/118 108/272/124 98/260/118
f 104/258/124 98/260/118 108/272/124
