# Blender v3.1.2 OBJ File: 'track.blend'
# www.blender.org
mtllib _1WALL_small01_emirates_SUB0.mtl
o _1WALL_small01_emirates_SUB0_Scene.341
v -26872.400391 -31977.398438 -491.501526
v -27230.500000 -31804.550781 -395.190491
v -27238.238281 -31820.259766 -493.358612
v -26868.978516 -31959.970703 -393.379486
v -27246.810547 -31837.658203 -493.357422
v -26876.501953 -31996.359375 -491.450317
v -27247.611328 -31839.630859 -491.825714
v -26876.810547 -31998.490234 -489.913086
v -27230.500000 -31804.550781 -323.359619
v -26869.179688 -31959.728516 -321.549194
v -26479.878906 -32038.480469 -490.340424
v -26478.080078 -32020.720703 -392.233795
v -26482.048828 -32057.759766 -490.272003
v -26482.150391 -32059.878906 -488.733398
v -26478.201172 -32020.449219 -320.403412
v -26082.167969 -32081.859375 -489.625977
v -26080.429688 -32064.099609 -391.519592
v -26084.218750 -32101.150391 -489.557495
v -26084.298828 -32103.281250 -488.018890
v -26080.511719 -32063.830078 -319.689117
v -25684.228516 -32123.529297 -489.039429
v -25682.501953 -32105.757812 -390.932892
v -25686.248047 -32142.818359 -488.970886
v -25686.332031 -32144.949219 -487.432190
v -25682.572266 -32105.500000 -319.102509
v -25286.359375 -32165.837891 -488.583710
v -25284.468750 -32148.080078 -390.476990
v -25288.509766 -32185.119141 -488.515198
v -25288.599609 -32187.240234 -486.976715
v -25284.509766 -32147.820312 -318.646515
v -24889.039062 -32212.970703 -488.287506
v -24886.771484 -32195.259766 -390.180695
v -24891.570312 -32232.199219 -488.219391
v -24891.701172 -32234.320312 -486.680969
v -24886.771484 -32195.001953 -318.350098
v -24493.208984 -32271.070312 -488.202911
v -24490.240234 -32253.470703 -390.095795
v -24496.429688 -32290.201172 -488.134827
v -24496.640625 -32292.308594 -486.596497
v -24490.189453 -32253.218750 -318.265289
v -24100.121094 -32345.441406 -488.350006
v -24096.160156 -32328.039062 -390.243500
v -24104.349609 -32364.378906 -488.281494
v -24104.660156 -32366.488281 -486.743317
v -24096.060547 -32327.800781 -318.412903
v -23713.019531 -32446.398438 -488.795410
v -23707.800781 -32429.320312 -390.690308
v -23718.539062 -32464.990234 -488.725525
v -23719.000000 -32467.068359 -487.187103
v -23707.628906 -32429.097656 -318.859802
v -23334.289062 -32574.939453 -489.494690
v -23327.759766 -32558.300781 -391.391907
v -23341.179688 -32593.070312 -489.422333
v -23341.800781 -32595.111328 -487.883820
v -23327.521484 -32558.109375 -319.561615
v -22965.789062 -32730.679688 -490.409424
v -22957.808594 -32714.660156 -392.310089
v -22974.259766 -32748.128906 -490.333221
v -22975.050781 -32750.087891 -488.794281
v -22957.570312 -32714.470703 -320.479797
v -22617.121094 -32926.121094 -490.870087
v -22607.099609 -32911.292969 -392.772522
v -22628.058594 -32942.140625 -490.791809
v -22629.130859 -32943.968750 -489.252289
v -22606.990234 -32911.011719 -320.942200
v -22307.980469 -33179.417969 -489.569611
v -22296.150391 -33166.039062 -391.464996
v -22321.259766 -33193.570312 -489.500519
v -22322.611328 -33195.207031 -487.961090
v -22296.250000 -33165.601562 -319.635498
v -22033.031250 -33470.308594 -486.741028
v -22020.089844 -33458.089844 -388.625305
v -22047.759766 -33482.941406 -486.686523
v -22049.279297 -33484.421875 -485.148376
v -22020.351562 -33457.480469 -316.797302
v -21786.951172 -33786.050781 -482.576813
v -21773.390625 -33774.601562 -384.451202
v -21802.529297 -33797.601562 -482.536072
v -21804.160156 -33798.968750 -480.999084
v -21773.759766 -33773.847656 -312.625092
v -21557.980469 -34114.460938 -477.522888
v -21544.009766 -34103.589844 -379.388306
v -21574.160156 -34125.160156 -477.495300
v -21575.869141 -34126.429688 -475.959595
v -21544.478516 -34102.699219 -307.564301
v -21345.289062 -34453.671875 -471.457581
v -21331.070312 -34443.210938 -373.315704
v -21361.900391 -34463.679688 -471.442078
v -21363.660156 -34464.890625 -469.907288
v -21331.619141 -34442.167969 -301.494293
v -21144.890625 -34800.289062 -464.421326
v -21130.490234 -34790.121094 -366.273682
v -21161.820312 -34809.750000 -464.417206
v -21163.619141 -34810.890625 -462.883270
v -21131.140625 -34788.929688 -294.455597
vt -1.021971 2.001424
vt 2.977629 2.001424
vt 2.977629 1.108993
vt -1.021971 1.108994
vt 2.977629 1.695245
vt -1.021971 1.899918
vt -1.021971 1.695245
vt 2.977629 1.899918
vt 2.977629 1.688305
vt -1.021971 1.688305
vt 2.977629 0.755510
vt -1.021971 0.755511
vt -1.021971 2.001424
vt 2.977629 2.001424
vt 2.977629 1.108993
vt -1.021971 1.108994
vt 2.977629 1.899918
vt -1.021971 1.695245
vt 2.977629 1.695245
vt -1.021971 1.899918
vt 2.977629 1.688305
vt -1.021971 1.688305
vt 2.977629 0.755510
vt -1.021971 0.755511
vt -1.021971 2.001424
vt 2.977629 2.001424
vt 2.977629 1.108993
vt -1.021971 1.108994
vt 2.977629 1.899918
vt -1.021971 1.695245
vt 2.977629 1.695245
vt -1.021971 1.899918
vt 2.977629 1.688305
vt -1.021971 1.688305
vt 2.977629 0.755510
vt -1.021971 0.755511
vt -1.021971 2.001424
vt 2.977629 2.001424
vt 2.977629 1.108993
vt -1.021971 1.108994
vt 2.977629 1.899918
vt -1.021971 1.695245
vt 2.977629 1.695245
vt -1.021971 1.899918
vt 2.977629 1.688305
vt -1.021971 1.688305
vt 2.977629 0.755510
vt -1.021971 0.755511
vt -1.021971 2.001424
vt 2.977629 2.001424
vt 2.977629 1.108993
vt -1.021971 1.108994
vt 2.977629 1.899918
vt -1.021971 1.695245
vt 2.977629 1.695245
vt -1.021971 1.899918
vt 2.977629 1.688305
vt -1.021971 1.688305
vt 2.977629 0.755510
vt -1.021971 0.755511
vt -1.021971 2.001424
vt 2.977629 2.001424
vt 2.977629 1.108993
vt -1.021971 1.108994
vt 2.977629 1.899918
vt -1.021971 1.695245
vt 2.977629 1.695245
vt -1.021971 1.899918
vt 2.977629 1.688305
vt -1.021971 1.688305
vt 2.977629 0.755510
vt -1.021971 0.755511
vt -1.021971 2.001424
vt 2.977629 2.001424
vt 2.977629 1.108993
vt -1.021971 1.108994
vt 2.977629 1.899918
vt -1.021971 1.695245
vt 2.977629 1.695245
vt -1.021971 1.899918
vt 2.977629 1.688305
vt -1.021971 1.688305
vt 2.977629 0.755510
vt -1.021971 0.755511
vt -1.021971 2.001424
vt 2.977629 2.001424
vt 2.977629 1.108993
vt -1.021971 1.108994
vt 2.977629 1.899918
vt -1.021971 1.695245
vt 2.977629 1.695245
vt -1.021971 1.899918
vt 2.977629 1.688305
vt -1.021971 1.688305
vt 2.977629 0.755510
vt -1.021971 0.755511
vt -1.021971 2.001424
vt 2.977629 2.001424
vt 2.977629 1.108993
vt -1.021971 1.108994
vt 2.977629 1.695245
vt -1.021971 1.899918
vt -1.021971 1.695245
vt 2.977629 1.899918
vt 2.977629 1.688305
vt -1.021971 1.688305
vt 2.977629 0.755510
vt -1.021971 0.755511
vt -1.021971 2.001424
vt 2.977629 2.001424
vt 2.977629 1.108993
vt -1.021971 1.108994
vt 2.977629 1.695245
vt -1.021971 1.899918
vt -1.021971 1.695245
vt 2.977629 1.899918
vt 2.977629 1.688305
vt -1.021971 1.688305
vt 2.977629 0.755510
vt -1.021971 0.755511
vt -1.021971 2.001424
vt 2.977629 2.001424
vt 2.977629 1.108993
vt -1.021971 1.108994
vt 2.977629 1.899918
vt -1.021971 1.695245
vt 2.977629 1.695245
vt -1.021971 1.899918
vt 2.977629 1.688305
vt -1.021971 1.688305
vt 2.977629 0.755510
vt -1.021971 0.755511
vt -1.021971 2.001424
vt 2.977629 2.001424
vt 2.977629 1.108993
vt -1.021971 1.108994
vt 2.977629 1.899918
vt -1.021971 1.695245
vt 2.977629 1.695245
vt -1.021971 1.899918
vt 2.977629 1.688305
vt -1.021971 1.688305
vt 2.977629 0.755510
vt -1.021971 0.755511
vt -1.021971 2.001424
vt 2.977629 2.001424
vt 2.977629 1.108993
vt -1.021971 1.108994
vt -1.021971 1.899918
vt 2.977629 1.695245
vt 2.977629 1.899918
vt -1.021971 1.695245
vt 2.977629 1.688305
vt -1.021971 1.688305
vt 2.977629 0.755510
vt -1.021971 0.755511
vt 2.977629 2.001424
vt -1.021971 1.108994
vt -1.021971 2.001424
vt 2.977629 1.108993
vt -1.021971 1.899918
vt 2.977629 1.695245
vt 2.977629 1.899918
vt -1.021971 1.695245
vt 2.977629 1.688305
vt -1.021971 1.688305
vt 2.977629 0.755510
vt -1.021971 0.755511
vt 2.977629 2.001424
vt -1.021971 1.108994
vt -1.021971 2.001424
vt 2.977629 1.108993
vt -1.021971 1.899918
vt 2.977629 1.695245
vt 2.977629 1.899918
vt -1.021971 1.695245
vt 2.977629 1.688305
vt -1.021971 1.688305
vt 2.977629 0.755510
vt -1.021971 0.755511
vt 2.977629 2.001424
vt -1.021971 1.108994
vt -1.021971 2.001424
vt 2.977629 1.108993
vt -1.021971 1.899918
vt 2.977629 1.695245
vt 2.977629 1.899918
vt -1.021971 1.695245
vt 2.977629 1.688305
vt -1.021971 1.688305
vt 2.977629 0.755510
vt -1.021971 0.755511
vt 2.977629 2.001424
vt -1.021971 1.108994
vt -1.021971 2.001424
vt 2.977629 1.108993
vt -1.021971 1.899918
vt 2.977629 1.695245
vt 2.977629 1.899918
vt -1.021971 1.695245
vt 2.977629 1.688305
vt -1.021971 1.688305
vt 2.977629 0.755510
vt -1.021971 0.755511
vt 2.977629 2.001424
vt -1.021971 1.108994
vt -1.021971 2.001424
vt 2.977629 1.108993
vt -1.021971 1.899918
vt 2.977629 1.695245
vt 2.977629 1.899918
vt -1.021971 1.695245
vt 2.977629 1.688305
vt -1.021971 1.688305
vt 2.977629 0.755510
vt -1.021971 0.755511
vn 0.2718 0.9458 -0.1779
vn 0.3894 0.9043 -0.1750
vn 0.2718 0.9458 -0.1780
vn 0.3897 0.9043 -0.1742
vn 0.2737 0.9453 -0.1775
vn 0.0040 -0.0026 -1.0000
vn 0.0031 -0.0034 -1.0000
vn 0.0030 -0.0034 -1.0000
vn 0.0039 -0.0027 -1.0000
vn -0.2279 -0.5416 -0.8091
vn -0.1630 -0.5602 -0.8122
vn -0.1531 -0.5627 -0.8124
vn 0.3948 0.9188 -0.0010
vn 0.2763 0.9611 -0.0024
vn 0.3948 0.9188 -0.0009
vn 0.2763 0.9611 -0.0025
vn 0.1293 0.9753 -0.1789
vn 0.1295 0.9754 -0.1786
vn 0.0019 -0.0038 -1.0000
vn -0.0754 -0.5807 -0.8106
vn -0.0743 -0.5810 -0.8105
vn 0.1310 0.9914 -0.0035
vn 0.1049 0.9783 -0.1789
vn 0.0012 -0.0037 -1.0000
vn -0.0611 -0.5833 -0.8099
vn -0.0610 -0.5833 -0.8099
vn 0.1063 0.9943 -0.0036
vn 0.1035 0.9784 -0.1791
vn 0.0009 -0.0036 -1.0000
vn -0.0605 -0.5836 -0.8098
vn 0.1049 0.9945 -0.0035
vn 0.1049 0.9945 -0.0034
vn 0.1101 0.9777 -0.1791
vn 0.0005 -0.0036 -1.0000
vn -0.0649 -0.5849 -0.8085
vn -0.0652 -0.5849 -0.8085
vn 0.1118 0.9937 -0.0035
vn 0.1295 0.9753 -0.1790
vn 0.0000 -0.0035 -1.0000
vn -0.0764 -0.5813 -0.8101
vn -0.0770 -0.5813 -0.8100
vn 0.1315 0.9913 -0.0036
vn 0.1629 0.9703 -0.1790
vn -0.0007 -0.0034 -1.0000
vn -0.0969 -0.5791 -0.8095
vn -0.0977 -0.5789 -0.8095
vn 0.1656 0.9862 -0.0036
vn 0.2156 0.9599 -0.1790
vn -0.0015 -0.0033 -1.0000
vn -0.1285 -0.5727 -0.8096
vn -0.1300 -0.5722 -0.8097
vn 0.2193 0.9757 -0.0036
vn 0.2822 0.9425 -0.1791
vn -0.0024 -0.0030 -1.0000
vn -0.1689 -0.5622 -0.8096
vn -0.1704 -0.5618 -0.8095
vn 0.2870 0.9579 -0.0036
vn 0.3495 0.9196 -0.1792
vn -0.0032 -0.0028 -1.0000
vn -0.2095 -0.5484 -0.8095
vn -0.2110 -0.5479 -0.8095
vn 0.3556 0.9346 -0.0037
vn 0.4324 0.8836 -0.1795
vn 0.4324 0.8837 -0.1794
vn -0.0033 -0.0028 -1.0000
vn -0.2585 -0.5276 -0.8092
vn -0.2606 -0.5265 -0.8092
vn 0.4398 0.8981 -0.0039
vn 0.4399 0.8981 -0.0039
vn 0.5546 0.8125 -0.1795
vn -0.0014 -0.0039 -1.0000
vn -0.3288 -0.4868 -0.8093
vn -0.3316 -0.4847 -0.8094
vn 0.5635 0.8261 -0.0041
vn 0.6713 0.7193 -0.1790
vn 0.6713 0.7193 -0.1791
vn 0.0013 -0.0061 -1.0000
vn -0.3963 -0.4333 -0.8094
vn -0.3980 -0.4316 -0.8096
vn 0.6816 0.7317 -0.0035
vn 0.7474 0.6400 -0.1783
vn 0.0036 -0.0085 -1.0000
vn -0.4398 -0.3883 -0.8098
vn -0.4411 -0.3869 -0.8098
vn 0.7586 0.6516 -0.0027
vn 0.7932 0.5825 -0.1776
vn 0.7932 0.5824 -0.1776
vn 0.0052 -0.0105 -0.9999
vn -0.4659 -0.3558 -0.8101
vn -0.4666 -0.3550 -0.8101
vn 0.8048 0.5935 -0.0021
vn 0.8222 0.5410 -0.1770
vn 0.0065 -0.0124 -0.9999
vn -0.4820 -0.3329 -0.8105
vn -0.4825 -0.3321 -0.8105
vn 0.8340 0.5517 -0.0014
vn 0.8447 0.5054 -0.1763
vn 0.0078 -0.0144 -0.9999
vn -0.4945 -0.3137 -0.8106
vn -0.4948 -0.3131 -0.8106
vn 0.8566 0.5160 -0.0004
vn 0.8567 0.5159 -0.0007
vn 0.8537 0.4900 -0.1760
vn 0.0084 -0.0154 -0.9998
vn -0.4991 -0.3051 -0.8110
vn -0.4992 -0.3051 -0.8110
vn 0.8657 0.5005 -0.0003
vn 0.8657 0.5005 -0.0005
vn 0.8566 0.5159 -0.0008
usemtl WallMat
s 1
f 1/1/1 3/2/2 2/3/2
f 1/1/3 2/3/4 4/4/5
f 5/5/6 1/6/7 6/7/8
f 1/6/7 5/5/6 3/8/9
f 7/9/10 6/7/11 8/10/12
f 6/7/11 7/9/10 5/5/10
f 9/11/13 4/4/14 2/3/15
f 4/4/14 9/11/13 10/12/16
f 11/13/17 1/14/3 4/15/5
f 11/13/17 4/15/5 12/16/18
f 1/17/7 13/18/19 6/19/8
f 13/18/19 1/17/7 11/20/19
f 8/21/12 13/18/20 14/22/21
f 13/18/20 8/21/12 6/19/11
f 10/23/16 12/16/22 4/15/14
f 12/16/22 10/23/16 15/24/22
f 16/25/23 11/26/17 12/27/18
f 16/25/23 12/27/18 17/28/23
f 11/29/19 18/30/24 13/31/19
f 18/30/24 11/29/19 16/32/24
f 14/33/21 18/30/25 19/34/26
f 18/30/25 14/33/21 13/31/20
f 15/35/22 17/28/27 12/27/22
f 17/28/27 15/35/22 20/36/27
f 21/37/28 16/38/23 17/39/23
f 21/37/28 17/39/23 22/40/28
f 16/41/24 23/42/29 18/43/24
f 23/42/29 16/41/24 21/44/29
f 19/45/26 23/42/30 24/46/30
f 23/42/30 19/45/26 18/43/25
f 20/47/27 22/40/31 17/39/27
f 22/40/31 20/47/27 25/48/32
f 26/49/33 21/50/28 22/51/28
f 26/49/33 22/51/28 27/52/33
f 21/53/29 28/54/34 23/55/29
f 28/54/34 21/53/29 26/56/34
f 24/57/30 28/54/35 29/58/36
f 28/54/35 24/57/30 23/55/30
f 25/59/32 27/52/37 22/51/31
f 27/52/37 25/59/32 30/60/37
f 31/61/38 26/62/33 27/63/33
f 31/61/38 27/63/33 32/64/38
f 26/65/34 33/66/39 28/67/34
f 33/66/39 26/65/34 31/68/39
f 29/69/36 33/66/40 34/70/41
f 33/66/40 29/69/36 28/67/35
f 30/71/37 32/64/42 27/63/37
f 32/64/42 30/71/37 35/72/42
f 36/73/43 31/74/38 32/75/38
f 36/73/43 32/75/38 37/76/43
f 31/77/39 38/78/44 33/79/39
f 38/78/44 31/77/39 36/80/44
f 34/81/41 38/78/45 39/82/46
f 38/78/45 34/81/41 33/79/40
f 35/83/42 37/76/47 32/75/42
f 37/76/47 35/83/42 40/84/47
f 41/85/48 36/86/43 37/87/43
f 41/85/48 37/87/43 42/88/48
f 36/89/44 43/90/49 38/91/44
f 43/90/49 36/89/44 41/92/49
f 39/93/46 43/90/50 44/94/51
f 43/90/50 39/93/46 38/91/45
f 40/95/47 42/88/52 37/87/47
f 42/88/52 40/95/47 45/96/52
f 46/97/53 41/98/48 42/99/48
f 46/97/53 42/99/48 47/100/53
f 43/101/49 46/102/54 48/103/54
f 46/102/54 43/101/49 41/104/49
f 44/105/51 48/103/55 49/106/56
f 48/103/55 44/105/51 43/101/50
f 45/107/52 47/100/57 42/99/52
f 47/100/57 45/107/52 50/108/57
f 51/109/58 46/110/53 47/111/53
f 51/109/58 47/111/53 52/112/58
f 48/113/54 51/114/59 53/115/59
f 51/114/59 48/113/54 46/116/54
f 49/117/56 53/115/60 54/118/61
f 53/115/60 49/117/56 48/113/55
f 50/119/57 52/112/62 47/111/57
f 52/112/62 50/119/57 55/120/62
f 56/121/63 51/122/58 52/123/58
f 56/121/63 52/123/58 57/124/64
f 51/125/59 58/126/65 53/127/59
f 58/126/65 51/125/59 56/128/65
f 54/129/61 58/126/66 59/130/67
f 58/126/66 54/129/61 53/127/60
f 55/131/62 57/124/68 52/123/62
f 57/124/68 55/131/62 60/132/69
f 61/133/70 56/134/63 57/135/64
f 61/133/70 57/135/64 62/136/70
f 56/137/65 63/138/71 58/139/65
f 63/138/71 56/137/65 61/140/71
f 59/141/67 63/138/72 64/142/73
f 63/138/72 59/141/67 58/139/66
f 60/143/69 62/136/74 57/135/68
f 62/136/74 60/143/69 65/144/74
f 66/145/75 61/146/70 62/147/70
f 66/145/75 62/147/70 67/148/76
f 66/149/77 63/150/71 61/151/71
f 63/150/71 66/149/77 68/152/77
f 64/153/73 68/152/78 69/154/79
f 68/152/78 64/153/73 63/150/72
f 65/155/74 67/148/80 62/147/74
f 67/148/80 65/155/74 70/156/80
f 66/157/75 72/158/81 71/159/81
f 72/158/81 66/157/75 67/160/76
f 71/161/82 68/162/77 66/163/77
f 68/162/77 71/161/82 73/164/82
f 69/165/79 73/164/83 74/166/84
f 73/164/83 69/165/79 68/162/78
f 70/167/80 72/158/85 67/160/80
f 72/158/85 70/167/80 75/168/85
f 71/169/81 77/170/86 76/171/87
f 77/170/86 71/169/81 72/172/81
f 76/173/88 73/174/82 71/175/82
f 73/174/82 76/173/88 78/176/88
f 74/177/84 78/176/89 79/178/90
f 78/176/89 74/177/84 73/174/83
f 75/179/85 77/170/91 72/172/85
f 77/170/91 75/179/85 80/180/91
f 76/181/87 82/182/92 81/183/92
f 82/182/92 76/181/87 77/184/86
f 81/185/93 78/186/88 76/187/88
f 78/186/88 81/185/93 83/188/93
f 79/189/90 83/188/94 84/190/95
f 83/188/94 79/189/90 78/186/89
f 80/191/91 82/182/96 77/184/91
f 82/182/96 80/191/91 85/192/96
f 81/193/92 87/194/97 86/195/97
f 87/194/97 81/193/92 82/196/92
f 86/197/98 83/198/93 81/199/93
f 83/198/93 86/197/98 88/200/98
f 84/201/95 88/200/99 89/202/100
f 88/200/99 84/201/95 83/198/94
f 85/203/96 87/194/101 82/196/96
f 87/194/101 85/203/96 90/204/102
f 86/205/97 92/206/103 91/207/103
f 92/206/103 86/205/97 87/208/97
f 91/209/104 88/210/98 86/211/98
f 88/210/98 91/209/104 93/212/104
f 93/212/105 89/213/100 88/210/99
f 89/213/100 93/212/105 94/214/106
f 90/215/102 92/206/107 87/208/101
f 92/206/108 90/215/109 95/216/108
