# Blender v3.4.1 OBJ File: 'track.blend'
# www.blender.org
mtllib _1WALL_small_straight_01_SUB2_Scene.370.mtl
o _1WALL_small_straight_01_SUB2_Scene.370
v 227.011597 589.491577 -2.199982
v 227.007599 589.489990 -3.884672
v 227.840500 593.404480 -2.203048
v 227.836594 593.403503 -3.887738
v 228.686798 597.398987 -2.206177
v 228.682907 597.398315 -3.890867
v 225.351883 581.664612 -2.192788
v 225.347687 581.662109 -3.877476
v 226.178192 585.575073 -3.881605
v 226.182404 585.577209 -2.196916
v 223.688583 573.838013 -2.183008
v 223.684296 573.835205 -3.867696
v 224.515900 577.747925 -3.872585
v 224.520096 577.750610 -2.187897
v 222.023499 566.011780 -2.172154
v 222.019196 566.008911 -3.856841
v 222.851791 569.921326 -3.862375
v 222.856094 569.924194 -2.177688
v 220.357590 558.185730 -2.160907
v 220.353195 558.182678 -3.845594
v 221.186279 562.094910 -3.851305
v 221.190598 562.098022 -2.166617
v 218.690887 550.359802 -2.149367
v 218.686600 550.356628 -3.834054
v 219.519806 554.268921 -3.839823
v 219.524094 554.271912 -2.155137
v 217.023682 542.533875 -2.137747
v 217.019287 542.530823 -3.822433
v 217.852783 546.442993 -3.828247
v 217.857178 546.446106 -2.143560
v 215.356094 534.708130 -2.126182
v 215.351700 534.705017 -3.810869
v 216.185501 538.617188 -3.816619
v 216.189804 538.620178 -2.131932
v 213.688202 526.882385 -2.114692
v 213.683899 526.879333 -3.799379
v 214.517685 530.791443 -3.805123
v 214.522003 530.794617 -2.120435
v 212.019989 519.056824 -2.103516
v 212.015701 519.053772 -3.788203
v 212.849579 522.965881 -3.793790
v 212.854004 522.968872 -2.109103
v 210.351593 511.231079 -2.092716
v 210.347305 511.228302 -3.777404
v 211.181396 515.140320 -3.782642
v 211.185699 515.143188 -2.097955
v 208.683105 503.405457 -2.082316
v 208.678802 503.402802 -3.767005
v 209.512878 507.314789 -3.772163
v 209.517181 507.317566 -2.087475
v 207.014404 495.579865 -2.072837
v 207.010193 495.577301 -3.757525
v 207.844299 499.489288 -3.762264
v 207.848587 499.491974 -2.077576
v 205.345795 487.754272 -2.064230
v 205.341599 487.752014 -3.748919
v 206.175705 491.663910 -3.752956
v 206.179901 491.666382 -2.068267
v 203.677078 479.928711 -2.056527
v 203.672882 479.926605 -3.741217
v 204.507080 483.838501 -3.744882
v 204.511185 483.840759 -2.060193
v 202.008499 472.102997 -2.050725
v 202.004486 472.101288 -3.735415
v 202.838593 476.013306 -3.738315
v 202.842697 476.015106 -2.053626
v 200.340195 464.277100 -2.047876
v 200.336304 464.276093 -3.732566
v 201.170197 468.187958 -3.733371
v 201.174194 468.189301 -2.048681
v 198.672394 456.451202 -2.047154
v 198.668594 456.450684 -3.731844
v 199.502182 460.362671 -3.731763
v 199.505997 460.363464 -2.047072
v 197.005600 448.625183 -2.049155
v 197.001785 448.624786 -3.733845
v 197.835098 452.536987 -3.732845
v 197.838898 452.537476 -2.048154
v 195.339600 440.799103 -2.050050
v 195.335800 440.798615 -3.734741
v 196.168488 444.710999 -3.734443
v 196.172302 444.711487 -2.049752
v 193.673996 432.972870 -2.050308
v 193.670197 432.972290 -3.734998
v 194.502686 436.884674 -3.735039
v 194.506592 436.885315 -2.050348
v 192.008881 425.146667 -2.049873
v 192.004990 425.145874 -3.734564
v 192.837402 429.058258 -3.734781
v 192.841278 429.059082 -2.050090
v 190.343903 417.320374 -2.048938
v 190.340088 417.319489 -3.733629
v 191.172302 421.231995 -3.734134
v 191.176193 421.232758 -2.049443
v 188.679199 409.493988 -2.047772
v 188.675293 409.493011 -3.732463
v 189.507492 413.405457 -3.733124
v 189.511398 413.406403 -2.048434
v 187.014481 401.667603 -2.046383
v 187.010605 401.666595 -3.731074
v 187.842804 405.579102 -3.731769
v 187.846695 405.580109 -2.047078
v 185.349991 393.841156 -2.044716
v 185.346085 393.840057 -3.729407
v 186.178192 397.752686 -3.730247
v 186.182083 397.753693 -2.045556
v 183.685577 386.014709 -2.042912
v 183.681702 386.013580 -3.727603
v 184.513702 389.926086 -3.728567
v 184.517593 389.927185 -2.043876
v 182.021301 378.188263 -2.040974
v 182.017303 378.187164 -3.725665
v 182.849289 382.099670 -3.726639
v 182.853302 382.100769 -2.041948
v 180.357178 370.361786 -2.038792
v 180.353195 370.360687 -3.723482
v 181.185196 374.273071 -3.724574
v 181.189102 374.274292 -2.039883
v 178.693100 362.535187 -2.036523
v 178.689194 362.533966 -3.721214
v 179.520996 366.446594 -3.722379
v 179.524994 366.447815 -2.037688
v 177.029190 354.708588 -2.034175
v 177.025284 354.707489 -3.718866
v 177.856995 358.619995 -3.720047
v 177.860992 358.621155 -2.035357
v 175.365402 346.881989 -2.031706
v 175.361496 346.880890 -3.716396
v 176.193207 350.793396 -3.717631
v 176.197205 350.794556 -2.032941
v 173.701797 339.055389 -2.029163
v 173.697906 339.054199 -3.713853
v 174.529495 342.966797 -3.715144
v 174.533401 342.967957 -2.030453
v 172.038498 331.228577 -2.026592
v 172.034607 331.227386 -3.711282
v 172.865997 335.140106 -3.712561
v 172.869904 335.141388 -2.027870
v 170.376205 323.401398 -2.024069
v 170.372299 323.400604 -3.708759
v 171.203293 327.313293 -3.710020
v 171.207199 327.314301 -2.025331
v 168.662491 315.332794 -2.021468
v 168.658585 315.331970 -3.706159
v 169.524307 319.407715 -3.707473
v 169.528107 319.408508 -2.022782
vt 0.038162 1.813204
vt 0.103396 1.813204
vt 0.038162 1.836236
vt 0.103396 1.836236
vt 0.000203 1.816005
vt 0.124516 1.816005
vt 0.000203 1.859897
vt 0.124516 1.859897
vt 0.038162 1.813204
vt 0.103396 1.836236
vt 0.038162 1.836236
vt 0.103396 1.813204
vt 0.000203 1.816005
vt 0.124516 1.859897
vt 0.000203 1.859897
vt 0.124516 1.816005
vt 0.038162 1.813204
vt 0.103396 1.836236
vt 0.038162 1.836236
vt 0.103396 1.813204
vt 0.000203 1.816005
vt 0.124516 1.859897
vt 0.000203 1.859897
vt 0.124516 1.816005
vt 0.038162 1.813204
vt 0.103396 1.836236
vt 0.038162 1.836236
vt 0.103396 1.813204
vt 0.000203 1.816005
vt 0.124516 1.859897
vt 0.000203 1.859897
vt 0.124516 1.816005
vt 0.038162 1.813204
vt 0.103396 1.836236
vt 0.038162 1.836236
vt 0.103396 1.813204
vt 0.000203 1.816005
vt 0.124516 1.859897
vt 0.000203 1.859897
vt 0.124516 1.816005
vt 0.038162 1.813204
vt 0.103396 1.836236
vt 0.038162 1.836236
vt 0.103396 1.813204
vt 0.000203 1.816005
vt 0.124516 1.859897
vt 0.000203 1.859897
vt 0.124516 1.816005
vt 0.038162 1.813204
vt 0.103396 1.836236
vt 0.038162 1.836236
vt 0.103396 1.813204
vt 0.000203 1.816005
vt 0.124516 1.859897
vt 0.000203 1.859897
vt 0.124516 1.816005
vt 0.038162 1.813204
vt 0.103396 1.836236
vt 0.038162 1.836236
vt 0.103396 1.813204
vt 0.000203 1.816005
vt 0.124516 1.859897
vt 0.000203 1.859897
vt 0.124516 1.816005
vt 0.038162 1.813204
vt 0.103396 1.836236
vt 0.038162 1.836236
vt 0.103396 1.813204
vt 0.000203 1.816005
vt 0.124516 1.859897
vt 0.000203 1.859897
vt 0.124516 1.816005
vt 0.038162 1.813204
vt 0.103396 1.836236
vt 0.038162 1.836236
vt 0.103396 1.813204
vt 0.000203 1.816005
vt 0.124516 1.859897
vt 0.000203 1.859897
vt 0.124516 1.816005
vt 0.038162 1.813204
vt 0.103396 1.836236
vt 0.038162 1.836236
vt 0.103396 1.813204
vt 0.000203 1.816005
vt 0.124516 1.859897
vt 0.000203 1.859897
vt 0.124516 1.816005
vt 0.038162 1.813204
vt 0.103396 1.836236
vt 0.038162 1.836236
vt 0.103396 1.813204
vt 0.000203 1.816005
vt 0.124516 1.859897
vt 0.000203 1.859897
vt 0.124516 1.816005
vt 0.038162 1.813204
vt 0.103396 1.836236
vt 0.038162 1.836236
vt 0.103396 1.813204
vt 0.000203 1.816005
vt 0.124516 1.859897
vt 0.000203 1.859897
vt 0.124516 1.816005
vt 0.038162 1.813204
vt 0.103396 1.836236
vt 0.038162 1.836236
vt 0.103396 1.813204
vt 0.000203 1.816005
vt 0.124516 1.859897
vt 0.000203 1.859897
vt 0.124516 1.816005
vt 0.038162 1.813204
vt 0.103396 1.836236
vt 0.038162 1.836236
vt 0.103396 1.813204
vt 0.000203 1.816005
vt 0.124516 1.859897
vt 0.000203 1.859897
vt 0.124516 1.816005
vt 0.038162 1.813204
vt 0.103396 1.836236
vt 0.038162 1.836236
vt 0.103396 1.813204
vt 0.000203 1.816005
vt 0.124516 1.859897
vt 0.000203 1.859897
vt 0.124516 1.816005
vt 0.038162 1.813204
vt 0.103396 1.836236
vt 0.038162 1.836236
vt 0.103396 1.813204
vt 0.000203 1.816005
vt 0.124516 1.859897
vt 0.000203 1.859897
vt 0.124516 1.816005
vt 0.038162 1.813204
vt 0.103396 1.836236
vt 0.038162 1.836236
vt 0.103396 1.813204
vt 0.000203 1.816005
vt 0.124516 1.859897
vt 0.000203 1.859897
vt 0.124516 1.816005
vt 0.038162 1.813204
vt 0.103396 1.836236
vt 0.038162 1.836236
vt 0.103396 1.813204
vt 0.000203 1.816005
vt 0.124516 1.859897
vt 0.000203 1.859897
vt 0.124516 1.816005
vt 0.038162 1.813204
vt 0.103396 1.836236
vt 0.038162 1.836236
vt 0.103396 1.813204
vt 0.000203 1.816005
vt 0.124516 1.859897
vt 0.000203 1.859897
vt 0.124516 1.816005
vt 0.038162 1.813204
vt 0.103396 1.836236
vt 0.038162 1.836236
vt 0.103396 1.813204
vt 0.000203 1.816005
vt 0.124516 1.859897
vt 0.000203 1.859897
vt 0.124516 1.816005
vt 0.038162 1.813204
vt 0.103396 1.836236
vt 0.038162 1.836236
vt 0.103396 1.813204
vt 0.000203 1.816005
vt 0.124516 1.859897
vt 0.000203 1.859897
vt 0.124516 1.816005
vt 0.038162 1.813204
vt 0.103396 1.836236
vt 0.038162 1.836236
vt 0.103396 1.813204
vt 0.000203 1.816005
vt 0.124516 1.859897
vt 0.000203 1.859897
vt 0.124516 1.816005
vt 0.038162 1.813204
vt 0.103396 1.836236
vt 0.038162 1.836236
vt 0.103396 1.813204
vt 0.000203 1.816005
vt 0.124516 1.859897
vt 0.000203 1.859897
vt 0.124516 1.816005
vt 0.038162 1.813204
vt 0.103396 1.836236
vt 0.038162 1.836236
vt 0.103396 1.813204
vt 0.000203 1.816005
vt 0.124516 1.859897
vt 0.000203 1.859897
vt 0.124516 1.816005
vt 0.038162 1.813204
vt 0.103396 1.836236
vt 0.038162 1.836236
vt 0.103396 1.813204
vt 0.000203 1.816005
vt 0.124516 1.859897
vt 0.000203 1.859897
vt 0.124516 1.816005
vt 0.038162 1.813204
vt 0.103396 1.836236
vt 0.038162 1.836236
vt 0.103396 1.813204
vt 0.000203 1.816005
vt 0.124516 1.859897
vt 0.000203 1.859897
vt 0.124516 1.816005
vt 0.038162 1.813204
vt 0.103396 1.836236
vt 0.038162 1.836236
vt 0.103396 1.813204
vt 0.000203 1.816005
vt 0.124516 1.859897
vt 0.000203 1.859897
vt 0.124516 1.816005
vt 0.038162 1.813204
vt 0.103396 1.836236
vt 0.038162 1.836236
vt 0.103396 1.813204
vt 0.000203 1.816005
vt 0.124516 1.859897
vt 0.000203 1.859897
vt 0.124516 1.816005
vt 0.038162 1.813204
vt 0.103396 1.836236
vt 0.038162 1.836236
vt 0.103396 1.813204
vt 0.000203 1.816005
vt 0.124516 1.859897
vt 0.000203 1.859897
vt 0.124516 1.816005
vt 0.038162 1.813204
vt 0.103396 1.836236
vt 0.038162 1.836236
vt 0.103396 1.813204
vt 0.000203 1.816005
vt 0.124516 1.859897
vt 0.000203 1.859897
vt 0.124516 1.816005
vt 0.038162 1.813204
vt 0.103396 1.836236
vt 0.038162 1.836236
vt 0.103396 1.813204
vt 0.000203 1.816005
vt 0.124516 1.859897
vt 0.000203 1.859897
vt 0.124516 1.816005
vt 0.038162 1.813204
vt 0.103396 1.836236
vt 0.038162 1.836236
vt 0.103396 1.813204
vt 0.000203 1.816005
vt 0.124516 1.859897
vt 0.000203 1.859897
vt 0.124516 1.816005
vt 0.038162 1.813204
vt 0.103396 1.836236
vt 0.038162 1.836236
vt 0.103396 1.813204
vt 0.000203 1.816005
vt 0.124516 1.859897
vt 0.000203 1.859897
vt 0.124516 1.816005
vt 0.038162 1.813204
vt 0.103396 1.836236
vt 0.038162 1.836236
vt 0.103396 1.813204
vt 0.000203 1.816005
vt 0.124516 1.859897
vt 0.000203 1.859897
vt 0.124516 1.816005
vt 0.038162 1.813204
vt 0.103396 1.836236
vt 0.038162 1.836236
vt 0.103396 1.813204
vt 0.000203 1.816005
vt 0.124516 1.859897
vt 0.000203 1.859897
vt 0.124516 1.816005
vn -0.9783 0.2072 0.0021
vn -0.9783 0.2072 0.0022
vn -0.9783 0.2073 0.0022
vn -0.9782 0.2078 0.0021
vn -0.9782 0.2074 0.0022
vn -0.9782 0.2077 0.0021
vn -0.9781 0.2080 0.0021
vn -0.9782 0.2079 0.0021
vn -0.9781 0.2082 0.0021
vn -0.9781 0.2081 0.0021
vn -0.9781 0.2083 0.0022
vn -0.9781 0.2083 0.0021
vn -0.9780 0.2084 0.0022
vn -0.9780 0.2084 0.0021
vn -0.9780 0.2085 0.0021
vn -0.9780 0.2085 0.0022
vn -0.9780 0.2086 0.0022
vn -0.9780 0.2086 0.0021
vn -0.9781 0.2082 0.0022
vn -0.9781 0.2081 0.0022
vn -0.9781 0.2080 0.0022
vn -0.9781 0.2079 0.0021
vn -0.9781 0.2079 0.0022
vn -0.9782 0.2078 0.0022
usemtl EnvironmentMat
s 1
f 1/1/1 3/2/1 2/3/1
f 4/4/2 2/3/1 3/2/1
f 3/5/1 5/6/3 4/7/2
f 6/8/3 4/7/2 5/6/3
f 7/9/4 9/10/5 8/11/6
f 9/10/5 7/9/4 10/12/5
f 10/13/5 2/14/1 9/15/5
f 2/14/1 10/13/5 1/16/1
f 11/17/7 13/18/8 12/19/7
f 13/18/8 11/17/7 14/20/8
f 14/21/8 8/22/6 13/23/8
f 8/22/6 14/21/8 7/24/4
f 15/25/9 17/26/10 16/27/9
f 17/26/10 15/25/9 18/28/10
f 18/29/10 12/30/7 17/31/10
f 12/30/7 18/29/10 11/32/7
f 19/33/11 21/34/9 20/35/11
f 21/34/9 19/33/11 22/36/9
f 22/37/9 16/38/9 21/39/9
f 16/38/9 22/37/9 15/40/9
f 23/41/12 25/42/12 24/43/12
f 25/42/12 23/41/12 26/44/12
f 26/45/12 20/46/11 25/47/12
f 20/46/11 26/45/12 19/48/11
f 27/49/13 29/50/13 28/51/13
f 29/50/13 27/49/13 30/52/14
f 30/53/14 24/54/12 29/55/13
f 24/54/12 30/53/14 23/56/12
f 31/57/13 33/58/14 32/59/13
f 33/58/14 31/57/13 34/60/14
f 34/61/14 28/62/13 33/63/14
f 28/62/13 34/61/14 27/64/13
f 35/65/15 37/66/14 36/67/15
f 37/66/14 35/65/15 38/68/14
f 38/69/14 32/70/13 37/71/14
f 32/70/13 38/69/14 31/72/13
f 39/73/15 41/74/16 40/75/15
f 41/74/16 39/73/15 42/76/16
f 42/77/16 36/78/15 41/79/16
f 36/78/15 42/77/16 35/80/15
f 43/81/15 45/82/15 44/83/15
f 45/82/15 43/81/15 46/84/15
f 46/85/15 40/86/15 45/87/15
f 40/86/15 46/85/15 39/88/15
f 47/89/16 49/90/16 48/91/16
f 49/90/16 47/89/16 50/92/16
f 50/93/16 44/94/15 49/95/16
f 44/94/15 50/93/16 43/96/15
f 51/97/15 53/98/16 52/99/15
f 53/98/16 51/97/15 54/100/16
f 54/101/16 48/102/16 53/103/16
f 48/102/16 54/101/16 47/104/16
f 55/105/17 57/106/15 56/107/18
f 57/106/15 55/105/17 58/108/15
f 58/109/15 52/110/15 57/111/15
f 52/110/15 58/109/15 51/112/15
f 59/113/16 61/114/15 60/115/16
f 61/114/15 59/113/16 62/116/15
f 62/117/15 56/118/18 61/119/15
f 56/118/18 62/117/15 55/120/17
f 63/121/15 65/122/16 64/123/15
f 65/122/16 63/121/15 66/124/16
f 66/125/16 60/126/16 65/127/16
f 60/126/16 66/125/16 59/128/16
f 67/129/15 69/130/16 68/131/15
f 69/130/16 67/129/15 70/132/16
f 70/133/16 64/134/15 69/135/16
f 64/134/15 70/133/16 63/136/15
f 71/137/12 73/138/14 72/139/12
f 73/138/14 71/137/12 74/140/14
f 74/141/14 68/142/15 73/143/14
f 68/142/15 74/141/14 67/144/15
f 75/145/11 77/146/12 76/147/11
f 77/146/12 75/145/11 78/148/12
f 78/149/12 72/150/12 77/151/12
f 72/150/12 78/149/12 71/152/12
f 79/153/19 81/154/19 80/155/19
f 81/154/19 79/153/19 82/156/19
f 82/157/19 76/158/11 81/159/19
f 76/158/11 82/157/19 75/160/11
f 83/161/10 85/162/19 84/163/10
f 85/162/19 83/161/10 86/164/19
f 86/165/19 80/166/19 85/167/19
f 80/166/19 86/165/19 79/168/19
f 87/169/20 89/170/10 88/171/20
f 89/170/10 87/169/20 90/172/10
f 90/173/10 84/174/10 89/175/10
f 84/174/10 90/173/10 83/176/10
f 91/177/10 93/178/20 92/179/10
f 93/178/20 91/177/10 94/180/20
f 94/181/20 88/182/20 93/183/20
f 88/182/20 94/181/20 87/184/20
f 95/185/10 97/186/20 96/187/10
f 97/186/20 95/185/10 98/188/10
f 98/189/10 92/190/10 97/191/20
f 92/190/10 98/189/10 91/192/10
f 99/193/7 101/194/7 100/195/7
f 101/194/7 99/193/7 102/196/7
f 102/197/7 96/198/10 101/199/7
f 96/198/10 102/197/7 95/200/10
f 103/201/7 105/202/7 104/203/7
f 105/202/7 103/201/7 106/204/7
f 106/205/7 100/206/7 105/207/7
f 100/206/7 106/205/7 99/208/7
f 107/209/7 109/210/7 108/211/7
f 109/210/7 107/209/7 110/212/7
f 110/213/7 104/214/7 109/215/7
f 104/214/7 110/213/7 103/216/7
f 111/217/21 113/218/21 112/219/21
f 113/218/21 111/217/21 114/220/21
f 114/221/21 108/222/7 113/223/21
f 108/222/7 114/221/21 107/224/7
f 115/225/21 117/226/7 116/227/21
f 117/226/7 115/225/21 118/228/7
f 118/229/7 112/230/21 117/231/7
f 112/230/21 118/229/7 111/232/21
f 119/233/7 121/234/21 120/235/7
f 121/234/21 119/233/7 122/236/21
f 122/237/21 116/238/21 121/239/21
f 116/238/21 122/237/21 115/240/21
f 123/241/22 125/242/21 124/243/22
f 125/242/21 123/241/22 126/244/21
f 126/245/21 120/246/7 125/247/21
f 120/246/7 126/245/21 119/248/7
f 127/249/22 129/250/23 128/251/22
f 129/250/23 127/249/22 130/252/23
f 130/253/23 124/254/22 129/255/23
f 124/254/22 130/253/23 123/256/22
f 131/257/22 133/258/22 132/259/22
f 133/258/22 131/257/22 134/260/22
f 134/261/22 128/262/22 133/263/22
f 128/262/22 134/261/22 127/264/22
f 135/265/4 137/266/8 136/267/4
f 137/266/8 135/265/4 138/268/8
f 138/269/8 132/270/22 137/271/8
f 132/270/22 138/269/8 131/272/22
f 139/273/24 141/274/4 140/275/24
f 141/274/4 139/273/24 142/276/6
f 142/277/6 136/278/4 141/279/4
f 136/278/4 142/277/6 135/280/4
f 143/281/24 145/282/6 144/283/24
f 145/282/6 143/281/24 146/284/6
f 146/285/6 140/286/24 145/287/6
f 140/286/24 146/285/6 139/288/24
