# Blender v3.4.1 OBJ File: 'track.blend'
# www.blender.org
mtllib _1WALL_03_EMIRATES_SUB2_Scene.266.mtl
o _1WALL_03_EMIRATES_SUB2_Scene.266
v 214.135605 788.887634 -2.836951
v 214.139099 788.889771 -4.521641
v 214.301895 784.724915 -4.525284
v 214.298401 784.723206 -2.840594
v 213.979294 792.886780 -2.833454
v 213.982803 792.889771 -4.518143
v 213.802902 796.885681 -2.828970
v 213.806305 796.889526 -4.513657
v 213.982697 792.891296 -4.518142
v 213.979187 792.888184 -2.833452
v 213.599777 800.881104 -2.823174
v 213.603195 800.885315 -4.507861
v 213.392395 804.877625 -2.817040
v 213.395798 804.881836 -4.501727
v 213.603104 800.886719 -4.507859
v 213.599701 800.882629 -2.823172
v 213.177597 808.871887 -2.810300
v 213.180984 808.876404 -4.494987
v 212.962982 812.867615 -2.803426
v 212.966400 812.872314 -4.488111
v 213.180893 808.877930 -4.494983
v 213.177490 808.873413 -2.810298
v 212.749298 816.861755 -2.796222
v 212.752686 816.866455 -4.480907
v 212.537079 820.857483 -2.788962
v 212.540482 820.862183 -4.473649
v 212.752594 816.867981 -4.480905
v 212.749191 816.863159 -2.796219
v 212.330994 824.851929 -2.781515
v 212.334396 824.856628 -4.466199
v 212.126495 828.847778 -2.774046
v 212.129898 828.852722 -4.458731
v 212.334290 824.858093 -4.466197
v 212.330887 824.853271 -2.781512
v 211.932587 832.842712 -2.766476
v 211.935989 832.847473 -4.451162
v 211.740295 836.839111 -2.758906
v 211.743683 836.843872 -4.443591
v 211.935898 832.849121 -4.451159
v 211.932495 832.844116 -2.766473
v 211.571304 840.834961 -2.751343
v 211.574707 840.839661 -4.436028
v 211.402298 844.832275 -2.743778
v 211.405701 844.836914 -4.428464
v 211.574600 840.841125 -4.436025
v 211.571182 840.836365 -2.751340
v 211.263199 848.828979 -2.736358
v 211.266602 848.833679 -4.421044
v 211.124100 852.827087 -2.728935
v 211.127502 852.831787 -4.413621
v 211.266495 848.835083 -4.421041
v 211.263107 848.830383 -2.736356
v 211.022980 856.824585 -2.721763
v 211.026505 856.829224 -4.406449
v 210.924988 860.823547 -2.714609
v 210.928391 860.827942 -4.399295
v 211.026398 856.830627 -4.406446
v 211.022980 856.826050 -2.721760
v 210.881180 864.821228 -2.707878
v 210.884583 864.825378 -4.392564
v 210.846603 868.820312 -2.701216
v 210.849991 868.824280 -4.385903
v 210.884583 864.826843 -4.392562
v 210.881088 864.822571 -2.707875
v 210.900284 872.815430 -2.695326
v 210.903778 872.819214 -4.380014
v 210.978485 876.811523 -2.689646
v 210.981995 876.814819 -4.374335
v 210.903778 872.820618 -4.380012
v 210.900284 872.817017 -2.695324
v 211.233200 880.791077 -2.685621
v 211.236694 880.793579 -4.370309
vt 0.002252 1.818904
vt 0.119739 1.860382
vt 0.002252 1.860382
vt 0.119739 1.818904
vt 0.048386 1.814090
vt 0.109976 1.835834
vt 0.048386 1.835834
vt 0.109976 1.814090
vt 0.002252 1.818904
vt 0.119739 1.860382
vt 0.002252 1.860382
vt 0.119739 1.818904
vt 0.048386 1.814090
vt 0.109976 1.835834
vt 0.048386 1.835834
vt 0.109976 1.814090
vt 0.002252 1.818904
vt 0.119739 1.860382
vt 0.002252 1.860382
vt 0.119739 1.818904
vt 0.048386 1.814090
vt 0.109976 1.835834
vt 0.048386 1.835834
vt 0.109976 1.814090
vt 0.002252 1.818904
vt 0.119739 1.860382
vt 0.002252 1.860382
vt 0.119739 1.818904
vt 0.048386 1.814090
vt 0.109976 1.835834
vt 0.048386 1.835834
vt 0.109976 1.814090
vt 0.002252 1.818904
vt 0.119739 1.860382
vt 0.002252 1.860382
vt 0.119739 1.818904
vt 0.048386 1.814090
vt 0.109976 1.835834
vt 0.048386 1.835834
vt 0.109976 1.814090
vt 0.002252 1.818904
vt 0.119739 1.860382
vt 0.002252 1.860382
vt 0.119739 1.818904
vt 0.048386 1.814090
vt 0.109976 1.835834
vt 0.048386 1.835834
vt 0.109976 1.814090
vt 0.002252 1.818904
vt 0.119739 1.860382
vt 0.002252 1.860382
vt 0.119739 1.818904
vt 0.048386 1.814090
vt 0.109976 1.835834
vt 0.048386 1.835834
vt 0.109976 1.814090
vt 0.002252 1.818904
vt 0.119739 1.860382
vt 0.002252 1.860382
vt 0.119739 1.818904
vt 0.048386 1.814090
vt 0.109976 1.835834
vt 0.048386 1.835834
vt 0.109976 1.814090
vt 0.002252 1.818904
vt 0.119739 1.860382
vt 0.002252 1.860382
vt 0.119739 1.818904
vt 0.048386 1.814090
vt 0.109976 1.835834
vt 0.048386 1.835834
vt 0.109976 1.814090
vt 0.002252 1.818904
vt 0.119739 1.860382
vt 0.002252 1.860382
vt 0.119739 1.818904
vt 0.048386 1.814090
vt 0.109976 1.835834
vt 0.048386 1.835834
vt 0.109976 1.814090
vt 0.002252 1.818904
vt 0.119739 1.860382
vt 0.002252 1.860382
vt 0.119739 1.818904
vt 0.048386 1.814090
vt 0.109976 1.835834
vt 0.048386 1.835834
vt 0.109976 1.814090
vt 0.002252 1.818904
vt 0.119739 1.860382
vt 0.002252 1.860382
vt 0.119739 1.818904
vt 0.048386 1.814090
vt 0.109976 1.835834
vt 0.048386 1.835834
vt 0.109976 1.814090
vn 0.9992 0.0391 0.0021
vn 0.9992 0.0390 0.0021
vn 0.9992 0.0390 0.0022
vn 0.9989 0.0474 0.0021
vn 0.9990 0.0441 0.0021
vn 0.9990 0.0441 0.0022
vn 0.9987 0.0508 0.0021
vn 0.9987 0.0508 0.0022
vn 0.9986 0.0528 0.0021
vn 0.9987 0.0518 0.0021
vn 0.9986 0.0537 0.0022
vn 0.9986 0.0535 0.0022
vn 0.9986 0.0536 0.0022
vn 0.9986 0.0534 0.0022
vn 0.9986 0.0523 0.0022
vn 0.9986 0.0530 0.0022
vn 0.9987 0.0515 0.0022
vn 0.9988 0.0498 0.0022
vn 0.9987 0.0511 0.0022
vn 0.9988 0.0485 0.0022
vn 0.9990 0.0452 0.0021
vn 0.9988 0.0481 0.0022
vn 0.9988 0.0480 0.0022
vn 0.9991 0.0422 0.0021
vn 0.9993 0.0385 0.0021
vn 0.9994 0.0348 0.0021
vn 0.9995 0.0300 0.0021
vn 0.9997 0.0253 0.0021
vn 0.9997 0.0252 0.0022
vn 0.9998 0.0177 0.0021
vn 0.9997 0.0245 0.0021
vn 0.9999 0.0110 0.0020
vn 1.0000 -0.0024 0.0020
vn 1.0000 0.0086 0.0021
vn 0.9999 -0.0135 0.0020
vn 0.9991 -0.0417 0.0020
vn 0.9998 -0.0196 0.0020
vn 0.9991 -0.0418 0.0020
vn 0.9980 -0.0639 0.0020
usemtl EnvironmentMat
s 1
f 1/1/1 3/2/1 2/3/1
f 3/2/1 1/1/1 4/4/1
f 5/5/2 2/6/1 6/7/3
f 2/6/1 5/5/2 1/8/1
f 7/9/4 9/10/5 8/11/4
f 9/10/5 7/9/4 10/12/6
f 11/13/7 8/14/4 12/15/8
f 8/14/4 11/13/7 7/16/4
f 13/17/9 15/18/10 14/19/9
f 15/18/10 13/17/9 16/20/10
f 17/21/11 14/22/9 18/23/11
f 14/22/9 17/21/11 13/24/9
f 19/25/12 21/26/13 20/27/12
f 21/26/13 19/25/12 22/28/13
f 23/29/14 20/30/12 24/31/14
f 20/30/12 23/29/14 19/32/12
f 25/33/15 27/34/16 26/35/15
f 27/34/16 25/33/15 28/36/16
f 29/37/17 26/38/15 30/39/17
f 26/38/15 29/37/17 25/40/15
f 31/41/18 33/42/19 32/43/18
f 33/42/19 31/41/18 34/44/19
f 35/45/20 32/46/18 36/47/20
f 32/46/18 35/45/20 31/48/18
f 37/49/21 39/50/22 38/51/21
f 39/50/22 37/49/21 40/52/23
f 41/53/24 38/54/21 42/55/24
f 38/54/21 41/53/24 37/56/21
f 43/57/25 45/58/24 44/59/25
f 45/58/24 43/57/25 46/60/24
f 47/61/26 44/62/25 48/63/26
f 44/62/25 47/61/26 43/64/25
f 49/65/27 51/66/26 50/67/27
f 51/66/26 49/65/27 52/68/26
f 53/69/28 50/70/27 54/71/29
f 50/70/27 53/69/28 49/72/27
f 55/73/30 57/74/31 56/75/30
f 57/74/31 55/73/30 58/76/31
f 59/77/32 56/78/30 60/79/32
f 56/78/30 59/77/32 55/80/30
f 61/81/33 63/82/34 62/83/33
f 63/82/34 61/81/33 64/84/34
f 65/85/35 62/86/33 66/87/35
f 62/86/33 65/85/35 61/88/33
f 67/89/36 69/90/37 68/91/38
f 69/90/37 67/89/36 70/92/37
f 71/93/39 68/94/38 72/95/39
f 68/94/38 71/93/39 67/96/36
