# Blender v3.4.1 OBJ File: 'track.blend'
# www.blender.org
mtllib _1WALL_small01_25_SUB0_Scene.338.mtl
o _1WALL_small01_25_SUB0_Scene.338
v 166.962494 269.240387 -3.661657
v 169.230698 265.745209 -3.661658
v 169.377502 265.840515 -2.679968
v 167.109299 269.335693 -2.679967
v 169.053192 265.630005 -1.961658
v 169.050995 265.626801 -3.646349
v 166.782806 269.121887 -3.646348
v 166.785004 269.125214 -1.961657
v 169.067978 265.639587 -3.661657
v 166.799805 269.134796 -3.661657
v 167.109299 269.335693 -1.961657
v 169.377502 265.840515 -1.961658
v 171.408997 262.388611 -3.661657
v 171.555893 262.483887 -2.679967
v 171.231506 262.273407 -1.961657
v 171.229294 262.270203 -3.646348
v 171.246307 262.282990 -3.661657
v 171.555893 262.483887 -1.961657
v 173.587296 259.032013 -3.661658
v 173.734100 259.127289 -2.679968
v 173.409805 258.916809 -1.961658
v 173.407593 258.913605 -3.646349
v 173.424606 258.926392 -3.661658
v 173.734100 259.127289 -1.961658
v 175.765579 255.675385 -3.661657
v 175.912399 255.770691 -2.679967
v 175.588104 255.560196 -1.961657
v 175.585800 255.556885 -3.646348
v 175.602905 255.569778 -3.661657
v 175.912399 255.770691 -1.961657
v 177.943878 252.318680 -3.661657
v 178.090698 252.414001 -2.679967
v 177.766403 252.203506 -1.961657
v 177.764191 252.200287 -3.646348
v 177.781204 252.213196 -3.661657
v 178.090698 252.414001 -1.961657
v 180.154678 248.912003 -3.661657
v 180.301590 249.007278 -2.679967
v 179.977203 248.796799 -1.961657
v 179.974991 248.793488 -3.646348
v 179.992004 248.806396 -3.661657
v 180.301590 249.007278 -1.961657
vt 2.977629 2.001424
vt -1.021971 1.108994
vt -1.021971 2.001424
vt 2.977629 1.108993
vt -1.021971 0.580997
vt 2.977629 1.993160
vt -1.021971 1.993160
vt 2.977630 0.580997
vt 2.977629 1.899918
vt -1.021971 1.899918
vt -1.021971 1.695245
vt 2.977629 1.695245
vt 2.977629 1.688305
vt -1.021971 1.688305
vt 2.977629 0.755510
vt -1.021971 0.755511
vt 2.977629 2.001424
vt -1.021971 1.108994
vt -1.021971 2.001424
vt 2.977629 1.108993
vt -1.021971 0.580997
vt 2.977629 1.993160
vt -1.021971 1.993160
vt 2.977630 0.580997
vt 2.977629 1.899918
vt -1.021971 1.899918
vt -1.021971 1.695245
vt 2.977629 1.695245
vt 2.977629 1.688305
vt -1.021971 1.688305
vt 2.977629 0.755510
vt -1.021971 0.755511
vt 2.977629 2.001424
vt -1.021971 1.108994
vt -1.021971 2.001424
vt 2.977629 1.108993
vt -1.021971 0.580997
vt 2.977629 1.993160
vt -1.021971 1.993160
vt 2.977630 0.580997
vt 2.977629 1.899918
vt -1.021971 1.899918
vt -1.021971 1.695245
vt 2.977629 1.695245
vt 2.977629 1.688305
vt -1.021971 1.688305
vt 2.977629 0.755510
vt -1.021971 0.755511
vt 2.977629 2.001424
vt -1.021971 1.108994
vt -1.021971 2.001424
vt 2.977629 1.108993
vt -1.021971 0.580997
vt 2.977629 1.993160
vt -1.021971 1.993160
vt 2.977630 0.580997
vt 2.977629 1.899918
vt -1.021971 1.899918
vt -1.021971 1.695245
vt 2.977629 1.695245
vt 2.977629 1.688305
vt -1.021971 1.688305
vt 2.977629 0.755510
vt -1.021971 0.755511
vt 2.977629 2.001424
vt -1.021971 1.108994
vt -1.021971 2.001424
vt 2.977629 1.108993
vt -1.021971 0.580997
vt 2.977629 1.993160
vt -1.021971 1.993160
vt 2.977630 0.580997
vt 2.977629 1.899918
vt -1.021971 1.899918
vt -1.021971 1.695245
vt 2.977629 1.695245
vt 2.977629 1.688305
vt -1.021971 1.688305
vt 2.977629 0.755510
vt -1.021971 0.755511
vt 2.977629 2.001424
vt -1.021971 1.108994
vt -1.021971 2.001424
vt 2.977629 1.108993
vt -1.021971 0.580997
vt 2.977629 1.993160
vt -1.021971 1.993160
vt 2.977630 0.580997
vt 2.977629 1.899918
vt -1.021971 1.899918
vt -1.021971 1.695245
vt 2.977629 1.695245
vt 2.977629 1.688305
vt -1.021971 1.688305
vt 2.977629 0.755510
vt -1.021971 0.755511
vn 0.8258 0.5359 -0.1755
vn -0.8388 -0.5444 0.0021
vn -0.8388 -0.5444 0.0022
vn -0.0000 -0.0000 -1.0000
vn -0.4909 -0.3185 -0.8109
vn -0.4901 -0.3181 -0.8116
vn -0.4901 -0.3180 -0.8116
vn 0.8388 0.5444 0.0000
vn 0.8258 0.5359 -0.1756
vn -0.4908 -0.3185 -0.8110
vn -0.4908 -0.3185 -0.8109
vn -0.4901 -0.3181 -0.8115
vn -0.8389 -0.5444 0.0022
vn -0.4905 -0.3182 -0.8112
vn -0.4905 -0.3183 -0.8112
vn -0.4895 -0.3177 -0.8120
vn -0.4896 -0.3177 -0.8120
vn -0.4899 -0.3179 -0.8118
usemtl WallMat
s 1
f 1/1/1 3/2/1 2/3/1
f 3/2/1 1/1/1 4/4/1
f 5/5/2 7/6/2 6/7/2
f 7/6/3 5/5/3 8/8/3
f 1/9/4 2/10/4 9/11/4
f 1/9/4 9/11/4 10/12/4
f 7/13/5 9/11/6 6/14/7
f 9/11/6 7/13/5 10/12/5
f 11/15/8 12/16/8 4/4/8
f 3/2/8 4/4/8 12/16/8
f 2/17/1 14/18/9 13/19/9
f 14/18/9 2/17/1 3/20/1
f 15/21/2 6/22/2 16/23/2
f 6/22/2 15/21/2 5/24/2
f 2/25/4 13/26/4 17/27/4
f 2/25/4 17/27/4 9/28/4
f 6/29/7 17/27/10 16/30/11
f 17/27/10 6/29/7 9/28/6
f 12/31/8 18/32/8 3/20/8
f 14/18/8 3/20/8 18/32/8
f 13/33/9 20/34/1 19/35/1
f 20/34/1 13/33/9 14/36/9
f 21/37/2 16/38/2 22/39/2
f 16/38/2 21/37/2 15/40/2
f 13/41/4 19/42/4 23/43/4
f 13/41/4 23/43/4 17/44/4
f 16/45/11 23/43/12 22/46/7
f 23/43/12 16/45/11 17/44/10
f 18/47/8 24/48/8 14/36/8
f 20/34/8 14/36/8 24/48/8
f 19/49/1 26/50/1 25/51/1
f 26/50/1 19/49/1 20/52/1
f 27/53/13 22/54/2 28/55/13
f 22/54/2 27/53/13 21/56/2
f 19/57/4 25/58/4 29/59/4
f 19/57/4 29/59/4 23/60/4
f 22/61/7 29/59/14 28/62/15
f 29/59/14 22/61/7 23/60/12
f 24/63/8 26/50/8 20/52/8
f 26/50/8 24/63/8 30/64/8
f 25/65/1 32/66/1 31/67/1
f 32/66/1 25/65/1 26/68/1
f 33/69/3 28/70/13 34/71/2
f 28/70/13 33/69/3 27/72/13
f 25/73/4 31/74/4 35/75/4
f 25/73/4 35/75/4 29/76/4
f 28/77/15 35/75/16 34/78/17
f 35/75/16 28/77/15 29/76/14
f 30/79/8 36/80/8 26/68/8
f 32/66/8 26/68/8 36/80/8
f 31/81/1 38/82/9 37/83/9
f 38/82/9 31/81/1 32/84/1
f 39/85/3 34/86/2 40/87/13
f 34/86/2 39/85/3 33/88/3
f 31/89/4 37/90/4 41/91/4
f 31/89/4 41/91/4 35/92/4
f 34/93/17 41/91/18 40/94/18
f 41/91/18 34/93/17 35/92/16
f 36/95/8 42/96/8 32/84/8
f 38/82/8 32/84/8 42/96/8
