# Blender v3.4.1 OBJ File: 'track.blend'
# www.blender.org
mtllib _1WALL_04_SUB0_Scene.267.mtl
o _1WALL_04_SUB0_Scene.267
v -300.198914 306.836609 -6.234088
v -302.900696 303.746185 -5.306243
v -302.752686 303.650604 -6.287729
v -300.343597 306.936462 -5.252532
v -300.048187 306.686890 -4.534175
v -300.030304 306.702789 -6.218700
v -302.598083 303.506012 -4.587732
v -302.579987 303.521912 -6.272255
v -302.597809 303.533691 -6.287599
v -300.047699 306.715057 -6.234034
v -302.906677 303.739014 -4.587996
v -300.349609 306.929199 -4.534284
v -297.602203 309.880188 -6.181501
v -297.740295 309.987793 -5.199810
v -297.459808 309.721008 -4.481752
v -297.441895 309.736694 -6.166280
v -297.458496 309.750000 -6.181596
v -297.746399 309.980591 -4.481562
v -294.839203 312.773987 -6.128965
v -294.970306 312.888794 -5.147142
v -294.705200 312.605896 -4.429377
v -294.687286 312.621399 -6.113907
v -294.703186 312.635681 -6.129208
v -294.976410 312.881592 -4.428894
v -291.907715 315.497192 -6.076632
v -292.031311 315.618988 -5.094676
v -291.782806 315.320709 -4.377206
v -291.765106 315.335999 -6.061738
v -291.779999 315.351196 -6.077024
v -292.037415 315.611755 -4.376428
v -288.818298 318.039398 -6.024668
v -288.933685 318.168091 -5.042572
v -288.703491 317.854706 -4.325411
v -288.685760 317.869904 -6.009945
v -288.699799 317.885895 -6.025213
v -288.939789 318.160797 -4.324325
v -285.566895 320.369202 -5.973325
v -285.673065 320.504486 -4.991083
v -285.463287 320.176392 -4.274246
v -285.445587 320.191315 -5.958783
v -285.458588 320.208313 -5.974032
v -285.679199 320.497192 -4.272836
v -282.172089 322.481995 -5.922793
v -282.267914 322.623688 -4.940399
v -282.080994 322.281403 -4.223902
v -282.063385 322.296112 -5.908442
v -282.075195 322.313995 -5.923671
v -282.273987 322.616394 -4.222152
v -278.642487 324.360687 -5.873307
v -278.726898 324.508392 -4.890752
v -278.565308 324.152710 -4.174610
v -278.547913 324.167206 -5.859153
v -278.558289 324.185913 -5.874363
v -278.733093 324.501099 -4.172506
v -274.980804 325.967804 -5.825238
v -275.052490 326.121002 -4.842518
v -274.919098 325.753113 -4.126743
v -274.901794 325.767395 -5.811288
v -274.910706 325.786896 -5.826478
v -275.058807 326.113586 -4.124272
v -271.191589 327.243713 -5.779185
v -271.249390 327.401703 -4.796294
v -271.146912 327.023285 -4.080898
v -271.129791 327.037506 -5.765446
v -271.136993 327.057556 -5.780613
v -271.255615 327.394287 -4.078051
v -267.308105 328.186707 -5.735458
v -267.351013 328.348267 -4.752398
v -267.281799 327.961700 -4.037377
v -267.264801 327.975708 -5.721928
v -267.270294 327.996399 -5.737075
v -267.357300 328.340881 -4.034154
v -263.361115 328.807556 -5.694220
v -263.389099 328.971588 -4.711005
v -263.353088 328.579803 -3.996329
v -263.336212 328.593811 -5.680882
v -263.339813 328.614868 -5.696009
v -263.395599 328.964203 -3.992761
v -259.371399 329.093964 -5.655770
v -259.387085 329.258789 -4.672433
v -259.379608 328.864990 -3.958041
v -259.362091 328.878815 -5.642589
v -259.364197 328.900085 -5.657699
v -259.393890 329.251404 -3.954193
v -255.368805 329.117310 -5.615655
v -255.379990 329.282166 -4.632274
v -255.386505 328.888092 -3.918023
v -255.366699 328.901855 -5.602548
v -255.368103 328.923309 -5.617651
v -255.387787 329.274811 -3.914044
v -251.365189 329.094513 -5.568612
v -251.376495 329.259491 -4.585231
v -251.388199 328.865387 -3.871039
v -251.365402 328.879211 -5.555523
v -251.366592 328.900574 -5.570630
v -251.385605 329.252014 -3.867016
v -247.361893 329.060181 -5.514098
v -247.374481 329.225067 -4.530735
v -247.388779 328.830963 -3.816578
v -247.362793 328.844666 -5.501017
v -247.363800 328.866211 -5.516123
v -247.384995 329.217682 -3.812539
v -243.358978 329.013580 -5.452353
v -243.372803 329.178497 -4.469011
v -243.389603 328.784485 -3.754893
v -243.360504 328.798187 -5.439281
v -243.361496 328.819611 -5.454389
v -243.384506 329.171082 -3.750835
v -239.356491 328.953583 -5.383756
v -239.371307 329.118591 -4.400431
v -239.390701 328.724609 -3.686356
v -239.358780 328.738312 -5.370696
v -239.359680 328.759674 -5.385803
v -239.384201 329.111206 -3.682275
v -235.354706 328.878693 -5.309125
v -235.370087 329.043579 -4.325811
v -235.392105 328.649689 -3.611785
v -235.357880 328.663269 -5.296079
v -235.358704 328.684784 -5.311188
v -235.384094 329.036285 -3.607674
v -231.354004 328.786194 -5.230058
v -231.369293 328.951080 -4.246742
v -231.393906 328.557312 -3.532766
v -231.358292 328.570770 -5.217032
v -231.358978 328.592255 -5.232140
v -231.383881 328.943787 -3.528616
v -227.355988 328.668884 -5.150388
v -227.369003 328.833893 -4.167025
v -227.395996 328.440002 -3.453098
v -227.362198 328.453705 -5.137399
v -227.362595 328.475067 -5.152502
v -227.382782 328.826508 -3.448886
v -223.377182 328.500763 -5.088315
v -223.369583 328.664673 -4.104722
v -223.396591 328.270813 -3.390810
v -223.389404 328.285767 -5.075407
v -223.389481 328.307312 -5.090496
v -223.372101 328.656708 -3.386459
vt -1.021971 2.001424
vt 2.977629 2.001424
vt 2.977629 1.108993
vt -1.021971 1.108994
vt -1.021971 0.581097
vt 2.977630 0.581097
vt -1.021971 1.993160
vt 2.977629 1.993160
vt -1.021971 1.899918
vt 2.977629 1.695245
vt 2.977629 1.899918
vt -1.021971 1.695245
vt 2.977629 1.688305
vt -1.021971 1.688305
vt 2.977629 0.755510
vt -1.021971 0.755511
vt -1.021971 2.001424
vt 2.977629 2.001424
vt 2.977629 1.108993
vt -1.021971 1.108994
vt -1.021971 0.581097
vt 2.977630 0.581097
vt -1.021971 1.993160
vt 2.977629 1.993160
vt 2.977629 1.899918
vt -1.021971 1.899918
vt -1.021971 1.695245
vt 2.977629 1.695245
vt 2.977629 1.688305
vt -1.021971 1.688305
vt 2.977629 0.755510
vt -1.021971 0.755511
vt -1.021971 2.001424
vt 2.977629 2.001424
vt 2.977629 1.108993
vt -1.021971 1.108994
vt -1.021971 0.581097
vt 2.977630 0.581097
vt -1.021971 1.993160
vt 2.977629 1.993160
vt 2.977629 1.899918
vt -1.021971 1.899918
vt -1.021971 1.695245
vt 2.977629 1.695245
vt 2.977629 1.688305
vt -1.021971 1.688305
vt 2.977629 0.755510
vt -1.021971 0.755511
vt 2.977629 2.001424
vt -1.021971 1.108994
vt -1.021971 2.001424
vt 2.977629 1.108993
vt -1.021971 0.581097
vt 2.977630 0.581097
vt -1.021971 1.993160
vt 2.977629 1.993160
vt 2.977629 1.899918
vt -1.021971 1.899918
vt -1.021971 1.695245
vt 2.977629 1.695245
vt 2.977629 1.688305
vt -1.021971 1.688305
vt 2.977629 0.755510
vt -1.021971 0.755511
vt 2.977629 2.001424
vt -1.021971 1.108994
vt -1.021971 2.001424
vt 2.977629 1.108993
vt -1.021971 0.581097
vt 2.977630 0.581097
vt -1.021971 1.993160
vt 2.977629 1.993160
vt 2.977629 1.899918
vt -1.021971 1.899918
vt -1.021971 1.695245
vt 2.977629 1.695245
vt 2.977629 1.688305
vt -1.021971 1.688305
vt 2.977629 0.755510
vt -1.021971 0.755511
vt 2.977629 2.001424
vt -1.021971 1.108994
vt -1.021971 2.001424
vt 2.977629 1.108993
vt -1.021971 0.581097
vt 2.977630 0.581097
vt -1.021971 1.993160
vt 2.977629 1.993160
vt -1.021971 1.899918
vt 2.977629 1.695245
vt 2.977629 1.899918
vt -1.021971 1.695245
vt 2.977629 1.688305
vt -1.021971 1.688305
vt 2.977629 0.755510
vt -1.021971 0.755511
vt 2.977629 2.001424
vt -1.021971 1.108994
vt -1.021971 2.001424
vt 2.977629 1.108993
vt -1.021971 0.581097
vt 2.977630 0.581097
vt -1.021971 1.993160
vt 2.977629 1.993160
vt -1.021971 1.899918
vt 2.977629 1.695245
vt 2.977629 1.899918
vt -1.021971 1.695245
vt 2.977629 1.688305
vt -1.021971 1.688305
vt 2.977629 0.755510
vt -1.021971 0.755511
vt 2.977629 2.001424
vt -1.021971 1.108994
vt -1.021971 2.001424
vt 2.977629 1.108993
vt -1.021971 0.581097
vt 2.977630 0.581097
vt -1.021971 1.993160
vt 2.977629 1.993160
vt 2.977629 1.899918
vt -1.021971 1.899918
vt -1.021971 1.695245
vt 2.977629 1.695245
vt 2.977629 1.688305
vt -1.021971 1.688305
vt 2.977629 0.755510
vt -1.021971 0.755511
vt 2.977629 2.001424
vt -1.021971 1.108994
vt -1.021971 2.001424
vt 2.977629 1.108993
vt -1.021971 0.581097
vt 2.977630 0.581097
vt -1.021971 1.993160
vt 2.977629 1.993160
vt 2.977629 1.899918
vt -1.021971 1.899918
vt -1.021971 1.695245
vt 2.977629 1.695245
vt 2.977629 1.688305
vt -1.021971 1.688305
vt 2.977629 0.755510
vt -1.021971 0.755511
vt 2.977629 2.001424
vt -1.021971 1.108994
vt -1.021971 2.001424
vt 2.977629 1.108993
vt -1.021971 0.581097
vt 2.977630 0.581097
vt -1.021971 1.993160
vt 2.977629 1.993160
vt -1.021971 1.899918
vt 2.977629 1.695245
vt 2.977629 1.899918
vt -1.021971 1.695245
vt 2.977629 1.688305
vt -1.021971 1.688305
vt 2.977629 0.755510
vt -1.021971 0.755511
vt 2.977629 2.001424
vt -1.021971 1.108994
vt -1.021971 2.001424
vt 2.977629 1.108993
vt -1.021971 0.581097
vt 2.977630 0.581097
vt -1.021971 1.993160
vt 2.977629 1.993160
vt -1.021971 1.899918
vt 2.977629 1.695245
vt 2.977629 1.899918
vt -1.021971 1.695245
vt 2.977629 1.688305
vt -1.021971 1.688305
vt 2.977629 0.755510
vt -1.021971 0.755511
vt 2.977629 2.001424
vt -1.021971 1.108994
vt -1.021971 2.001424
vt 2.977629 1.108993
vt -1.021971 0.581097
vt 2.977630 0.581097
vt -1.021971 1.993160
vt 2.977629 1.993160
vt 2.977629 1.899918
vt -1.021971 1.899918
vt -1.021971 1.695245
vt 2.977629 1.695245
vt 2.977629 1.688305
vt -1.021971 1.688305
vt 2.977629 0.755510
vt -1.021971 0.755511
vt 2.977629 2.001424
vt -1.021971 1.108994
vt -1.021971 2.001424
vt 2.977629 1.108993
vt -1.021971 0.581097
vt 2.977629 1.993160
vt -1.021971 1.993160
vt 2.977630 0.581097
vt -1.021971 1.899918
vt 2.977629 1.695245
vt 2.977629 1.899918
vt -1.021971 1.695245
vt 2.977629 1.688305
vt -1.021971 1.688305
vt 2.977629 0.755510
vt -1.021971 0.755511
vt 2.977629 2.001424
vt -1.021971 1.108994
vt -1.021971 2.001424
vt 2.977629 1.108993
vt -1.021971 0.581097
vt 2.977629 1.993160
vt -1.021971 1.993160
vt 2.977630 0.581097
vt 2.977629 1.695245
vt -1.021971 1.899918
vt -1.021971 1.695245
vt 2.977629 1.899918
vt 2.977629 1.688305
vt -1.021971 1.688305
vt 2.977629 0.755510
vt -1.021971 0.755511
vt -1.021971 2.001424
vt 2.977629 2.001424
vt 2.977629 1.108993
vt -1.021971 1.108994
vt -1.021971 0.581097
vt 2.977629 1.993160
vt -1.021971 1.993160
vt 2.977630 0.581097
vt 2.977629 1.695245
vt -1.021971 1.899918
vt -1.021971 1.695245
vt 2.977629 1.899918
vt 2.977629 1.688305
vt -1.021971 1.688305
vt 2.977629 0.755510
vt -1.021971 0.755511
vt -1.021971 2.001424
vt 2.977629 2.001424
vt 2.977629 1.108993
vt -1.021971 1.108994
vt -1.021971 0.581097
vt 2.977629 1.993160
vt -1.021971 1.993160
vt 2.977630 0.581097
vt 2.977629 1.695245
vt -1.021971 1.899918
vt -1.021971 1.695245
vt 2.977629 1.899918
vt 2.977629 1.688305
vt -1.021971 1.688305
vt 2.977629 0.755510
vt -1.021971 0.755511
vt -1.021971 2.001424
vt 2.977629 2.001424
vt 2.977629 1.108993
vt -1.021971 1.108994
vt -1.021971 0.581097
vt 2.977629 1.993160
vt -1.021971 1.993160
vt 2.977630 0.581097
vt 2.977629 1.695245
vt -1.021971 1.899918
vt -1.021971 1.695245
vt 2.977629 1.899918
vt 2.977629 1.688305
vt -1.021971 1.688305
vt 2.977629 0.755510
vt -1.021971 0.755511
vt -1.021971 2.001424
vt 2.977629 2.001424
vt 2.977629 1.108993
vt -1.021971 1.108994
vt -1.021971 0.581097
vt 2.977629 1.993160
vt -1.021971 1.993160
vt 2.977630 0.581097
vt 2.977629 1.695245
vt -1.021971 1.899918
vt -1.021971 1.695245
vt 2.977629 1.899918
vt 2.977629 1.688305
vt -1.021971 1.688305
vt 2.977629 0.755510
vt -1.021971 0.755511
vt -1.021971 2.001424
vt 2.977629 2.001424
vt 2.977629 1.108993
vt -1.021971 1.108994
vt -1.021971 0.581097
vt 2.977629 1.993160
vt -1.021971 1.993160
vt 2.977630 0.581097
vt 2.977629 1.695245
vt -1.021971 1.899918
vt -1.021971 1.695245
vt 2.977629 1.899918
vt 2.977629 1.688305
vt -1.021971 1.688305
vt 2.977629 0.755510
vt -1.021971 0.755511
vt -1.021971 2.001424
vt 2.977629 2.001424
vt 2.977629 1.108993
vt -1.021971 1.108994
vt -1.021971 0.581097
vt 2.977629 1.993160
vt -1.021971 1.993160
vt 2.977630 0.581097
vt 2.977629 1.899918
vt -1.021971 1.695245
vt 2.977629 1.695245
vt -1.021971 1.899918
vt 2.977629 1.688305
vt -1.021971 1.688305
vt 2.977629 0.755510
vt -1.021971 0.755511
vt -1.021971 2.001424
vt 2.977629 2.001424
vt 2.977629 1.108993
vt -1.021971 1.108994
vt -1.021971 0.581097
vt 2.977629 1.993160
vt -1.021971 1.993160
vt 2.977630 0.581097
vt 2.977629 1.899918
vt -1.021971 1.695245
vt 2.977629 1.695245
vt -1.021971 1.899918
vt 2.977629 1.688305
vt -1.021971 1.688305
vt 2.977629 0.755510
vt -1.021971 0.755511
vt -1.021971 2.001424
vt 2.977629 2.001424
vt 2.977629 1.108993
vt -1.021971 1.108994
vt -1.021971 0.581097
vt 2.977630 0.581097
vt -1.021971 1.993160
vt 2.977629 1.993160
vt 2.977629 1.899918
vt -1.021971 1.695245
vt 2.977629 1.695245
vt -1.021971 1.899918
vt 2.977629 1.688305
vt -1.021971 1.688305
vt 2.977629 0.755510
vt -1.021971 0.755511
vn -0.7571 0.6292 -0.1756
vn -0.7667 0.6175 -0.1757
vn -0.7571 0.6292 -0.1755
vn -0.7667 0.6175 -0.1759
vn -0.7572 0.6292 -0.1756
vn 0.7706 -0.6373 0.0022
vn 0.7802 -0.6255 0.0024
vn 0.7706 -0.6374 0.0022
vn 0.7803 -0.6255 0.0025
vn 0.0084 0.0101 -0.9999
vn 0.4572 -0.3638 -0.8115
vn 0.4626 -0.3572 -0.8115
vn 0.4626 -0.3572 -0.8114
vn 0.4566 -0.3644 -0.8116
vn -0.7803 0.6254 -0.0002
vn -0.7706 0.6373 -0.0000
vn -0.7293 0.6614 -0.1751
vn 0.7423 -0.6701 0.0017
vn 0.7423 -0.6701 0.0016
vn 0.0085 0.0101 -0.9999
vn 0.4412 -0.3832 -0.8115
vn 0.4405 -0.3841 -0.8114
vn -0.7423 0.6701 0.0004
vn -0.6899 0.7026 -0.1743
vn 0.7022 -0.7119 0.0009
vn 0.7022 -0.7120 0.0009
vn 0.4180 -0.4077 -0.8118
vn 0.4172 -0.4087 -0.8117
vn -0.7023 0.7119 0.0012
vn -0.6466 0.7428 -0.1735
vn 0.6583 -0.7527 0.0001
vn 0.6583 -0.7528 0.0001
vn 0.3924 -0.4317 -0.8122
vn 0.3914 -0.4325 -0.8122
vn -0.6583 0.7527 0.0020
vn -0.5983 0.7824 -0.1728
vn 0.6093 -0.7930 -0.0007
vn 0.6092 -0.7930 -0.0007
vn 0.3640 -0.4553 -0.8126
vn 0.3628 -0.4561 -0.8126
vn -0.6093 0.7929 0.0029
vn -0.5456 0.8202 -0.1719
vn 0.5557 -0.8314 -0.0015
vn 0.0085 0.0102 -0.9999
vn 0.3323 -0.4772 -0.8135
vn 0.3311 -0.4779 -0.8136
vn -0.5558 0.8313 0.0037
vn -0.4902 0.8547 -0.1711
vn 0.4994 -0.8663 -0.0024
vn 0.4994 -0.8664 -0.0024
vn 0.0086 0.0102 -0.9999
vn 0.2998 -0.4982 -0.8136
vn 0.2987 -0.4991 -0.8135
vn -0.4994 0.8663 0.0045
vn -0.4279 0.8876 -0.1702
vn -0.4280 0.8876 -0.1702
vn 0.4362 -0.8998 -0.0032
vn 0.2625 -0.5172 -0.8146
vn 0.2612 -0.5179 -0.8146
vn -0.4362 0.8998 0.0054
vn -0.4362 0.8998 0.0053
vn -0.3538 0.9199 -0.1692
vn 0.3609 -0.9326 -0.0042
vn 0.0087 0.0102 -0.9999
vn 0.2185 -0.5356 -0.8157
vn 0.2167 -0.5360 -0.8159
vn -0.3609 0.9326 0.0064
vn -0.2720 0.9475 -0.1683
vn 0.2778 -0.9606 -0.0053
vn 0.1707 -0.5539 -0.8149
vn 0.1689 -0.5546 -0.8148
vn -0.2779 0.9606 0.0075
vn -0.1913 0.9672 -0.1673
vn 0.1959 -0.9806 -0.0062
vn 0.0088 0.0102 -0.9999
vn 0.1225 -0.5647 -0.8162
vn 0.1208 -0.5651 -0.8161
vn -0.1959 0.9806 0.0084
vn -0.1103 0.9798 -0.1666
vn -0.1104 0.9798 -0.1666
vn 0.1137 -0.9935 -0.0071
vn 0.1136 -0.9935 -0.0071
vn 0.0089 0.0103 -0.9999
vn 0.0743 -0.5716 -0.8172
vn 0.0727 -0.5718 -0.8171
vn -0.1137 0.9935 0.0092
vn -0.0366 0.9855 -0.1658
vn 0.0388 -0.9992 -0.0078
vn 0.0387 -0.9992 -0.0078
vn 0.0094 0.0103 -0.9999
vn 0.0309 -0.5761 -0.8168
vn 0.0296 -0.5761 -0.8168
vn -0.0388 0.9992 0.0099
vn 0.0017 0.9862 -0.1653
vn 0.0001 -1.0000 -0.0081
vn 0.0001 -1.0000 -0.0082
vn 0.0109 0.0103 -0.9999
vn 0.0090 -0.5758 -0.8175
vn 0.0088 -0.5758 -0.8175
vn -0.0002 0.9999 0.0102
vn 0.0091 0.9862 -0.1653
vn -0.0070 -0.9999 -0.0083
vn 0.0128 0.0103 -0.9999
vn 0.0062 -0.5757 -0.8176
vn 0.0070 0.9999 0.0104
vn 0.0124 0.9862 -0.1652
vn -0.0100 -0.9999 -0.0083
vn 0.0146 0.0103 -0.9998
vn 0.0060 -0.5762 -0.8173
vn 0.0060 -0.5763 -0.8172
vn 0.0100 0.9999 0.0104
vn 0.0158 0.9861 -0.1652
vn -0.0132 -0.9999 -0.0084
vn 0.0164 0.0103 -0.9998
vn 0.0057 -0.5747 -0.8183
vn 0.0056 -0.5750 -0.8181
vn 0.0131 0.9999 0.0105
vn 0.0196 0.9861 -0.1652
vn -0.0167 -0.9998 -0.0085
vn -0.0167 -0.9998 -0.0084
vn 0.0181 0.0103 -0.9998
vn 0.0049 -0.5758 -0.8176
vn 0.0049 -0.5756 -0.8177
vn 0.0167 0.9998 0.0107
vn 0.0167 0.9998 0.0106
vn 0.0238 0.9860 -0.1650
vn 0.0238 0.9860 -0.1649
vn -0.0208 -0.9997 -0.0085
vn 0.0194 0.0102 -0.9998
vn 0.0037 -0.5758 -0.8176
vn 0.0036 -0.5757 -0.8177
vn 0.0207 0.9997 0.0105
vn 0.0291 0.9859 -0.1648
vn -0.0261 -0.9996 -0.0085
vn 0.0201 0.0102 -0.9997
vn 0.0012 -0.5768 -0.8169
vn 0.0011 -0.5767 -0.8170
vn 0.0260 0.9996 0.0106
vn 0.0382 0.9856 -0.1648
vn 0.0377 0.9856 -0.1649
vn -0.0356 -0.9993 -0.0089
vn 0.0182 0.0103 -0.9998
vn -0.0058 -0.5765 -0.8171
vn -0.0062 -0.5766 -0.8170
vn 0.0356 0.9993 0.0109
vn 0.0352 0.9993 0.0109
vn 0.0442 0.9853 -0.1647
vn 0.0443 0.9854 -0.1645
vn 0.0382 0.9856 -0.1647
vn -0.0421 -0.9991 -0.0091
vn 0.0160 0.0104 -0.9998
vn 0.0160 0.0103 -0.9998
vn 0.0180 0.0103 -0.9998
vn -0.0116 -0.5776 -0.8162
vn -0.0116 -0.5777 -0.8162
vn 0.0421 0.9991 0.0110
vn 0.0421 0.9990 0.0113
usemtl WallMat
s 1
f 1/1/1 3/2/2 2/3/2
f 1/1/3 2/3/4 4/4/5
f 5/5/6 7/6/7 6/7/8
f 8/8/9 6/7/8 7/6/7
f 1/9/10 9/10/10 3/11/10
f 9/10/10 1/9/10 10/12/10
f 10/12/11 8/13/12 9/10/13
f 8/13/12 10/12/11 6/14/14
f 11/15/15 4/4/16 2/3/15
f 4/4/16 11/15/15 12/16/16
f 13/17/17 1/18/3 4/19/5
f 13/17/17 4/19/5 14/20/17
f 15/21/18 5/22/6 16/23/19
f 6/24/8 16/23/19 5/22/6
f 1/25/10 13/26/20 17/27/20
f 1/25/10 17/27/20 10/28/10
f 17/27/21 6/29/14 10/28/11
f 6/29/14 17/27/21 16/30/22
f 12/31/16 14/20/23 4/19/16
f 14/20/23 12/31/16 18/32/23
f 19/33/24 13/34/17 14/35/17
f 19/33/24 14/35/17 20/36/24
f 21/37/25 15/38/18 22/39/26
f 16/40/19 22/39/26 15/38/18
f 13/41/20 19/42/20 23/43/20
f 13/41/20 23/43/20 17/44/20
f 23/43/27 16/45/22 17/44/21
f 16/45/22 23/43/27 22/46/28
f 18/47/23 20/36/29 14/35/23
f 20/36/29 18/47/23 24/48/29
f 19/49/24 26/50/30 25/51/30
f 26/50/30 19/49/24 20/52/24
f 27/53/31 21/54/25 28/55/32
f 22/56/26 28/55/32 21/54/25
f 19/57/20 25/58/20 29/59/20
f 29/59/20 23/60/20 19/57/20
f 29/59/33 22/61/28 23/60/27
f 22/61/28 29/59/33 28/62/34
f 24/63/29 26/50/35 20/52/29
f 26/50/35 24/63/29 30/64/35
f 25/65/30 32/66/36 31/67/36
f 32/66/36 25/65/30 26/68/30
f 33/69/37 27/70/31 34/71/38
f 28/72/32 34/71/38 27/70/31
f 25/73/20 31/74/20 35/75/20
f 35/75/20 29/76/20 25/73/20
f 35/75/39 28/77/34 29/76/33
f 28/77/34 35/75/39 34/78/40
f 30/79/35 32/66/41 26/68/35
f 32/66/41 30/79/35 36/80/41
f 31/81/36 38/82/42 37/83/42
f 38/82/42 31/81/36 32/84/36
f 39/85/43 33/86/37 40/87/43
f 34/88/38 40/87/43 33/86/37
f 37/89/44 35/90/20 31/91/20
f 35/90/20 37/89/44 41/92/44
f 41/92/45 34/93/40 35/90/39
f 34/93/40 41/92/45 40/94/46
f 36/95/41 38/82/47 32/84/41
f 38/82/47 36/95/41 42/96/47
f 37/97/42 44/98/48 43/99/48
f 44/98/48 37/97/42 38/100/42
f 45/101/49 39/102/43 46/103/50
f 40/104/43 46/103/50 39/102/43
f 43/105/51 41/106/44 37/107/44
f 41/106/44 43/105/51 47/108/51
f 47/108/52 40/109/46 41/106/45
f 40/109/46 47/108/52 46/110/53
f 42/111/47 44/98/54 38/100/47
f 44/98/54 42/111/47 48/112/54
f 43/113/48 50/114/55 49/115/56
f 50/114/55 43/113/48 44/116/48
f 51/117/57 45/118/49 52/119/57
f 46/120/50 52/119/57 45/118/49
f 43/121/51 49/122/51 53/123/51
f 53/123/51 47/124/51 43/121/51
f 46/125/53 53/123/58 52/126/59
f 53/123/58 46/125/53 47/124/52
f 48/127/54 50/114/60 44/116/54
f 50/114/60 48/127/54 54/128/61
f 49/129/56 56/130/62 55/131/62
f 56/130/62 49/129/56 50/132/55
f 57/133/63 51/134/57 58/135/63
f 52/136/57 58/135/63 51/134/57
f 49/137/51 55/138/64 59/139/64
f 59/139/64 53/140/51 49/137/51
f 52/141/59 59/139/65 58/142/66
f 59/139/65 52/141/59 53/140/58
f 54/143/61 56/130/67 50/132/60
f 56/130/67 54/143/61 60/144/67
f 55/145/62 62/146/68 61/147/68
f 62/146/68 55/145/62 56/148/62
f 63/149/69 57/150/63 64/151/69
f 58/152/63 64/151/69 57/150/63
f 61/153/64 59/154/64 55/155/64
f 59/154/64 61/153/64 65/156/64
f 58/157/66 65/156/70 64/158/71
f 65/156/70 58/157/66 59/154/65
f 60/159/67 62/146/72 56/148/67
f 62/146/72 60/159/67 66/160/72
f 61/161/68 68/162/73 67/163/73
f 68/162/73 61/161/68 62/164/68
f 69/165/74 63/166/69 70/167/74
f 64/168/69 70/167/74 63/166/69
f 67/169/75 65/170/64 61/171/64
f 65/170/64 67/169/75 71/172/75
f 64/173/71 71/172/76 70/174/77
f 71/172/76 64/173/71 65/170/70
f 66/175/72 68/162/78 62/164/72
f 68/162/78 66/175/72 72/176/78
f 67/177/73 74/178/79 73/179/80
f 74/178/79 67/177/73 68/180/73
f 75/181/81 69/182/74 76/183/82
f 70/184/74 76/183/82 69/182/74
f 67/185/75 73/186/83 77/187/83
f 77/187/83 71/188/75 67/185/75
f 70/189/77 77/187/84 76/190/85
f 77/187/84 70/189/77 71/188/76
f 72/191/78 74/178/86 68/180/78
f 74/178/86 72/191/78 78/192/86
f 73/193/80 80/194/87 79/195/87
f 80/194/87 73/193/80 74/196/79
f 81/197/88 76/198/82 82/199/89
f 76/198/82 81/197/88 75/200/81
f 79/201/90 77/202/83 73/203/83
f 77/202/83 79/201/90 83/204/90
f 76/205/85 83/204/91 82/206/92
f 83/204/91 76/205/85 77/202/84
f 78/207/86 80/194/93 74/196/86
f 80/194/93 78/207/86 84/208/93
f 79/209/87 86/210/94 85/211/94
f 86/210/94 79/209/87 80/212/87
f 87/213/95 82/214/89 88/215/96
f 82/214/89 87/213/95 81/216/88
f 83/217/90 85/218/97 89/219/97
f 85/218/97 83/217/90 79/220/90
f 82/221/92 89/219/98 88/222/99
f 89/219/98 82/221/92 83/217/91
f 84/223/93 90/224/100 80/212/93
f 86/210/100 80/212/93 90/224/100
f 91/225/101 85/226/94 86/227/94
f 91/225/101 86/227/94 92/228/101
f 93/229/102 88/230/96 94/231/102
f 88/230/96 93/229/102 87/232/95
f 89/233/97 91/234/103 95/235/103
f 91/234/103 89/233/97 85/236/97
f 88/237/99 95/235/104 94/238/104
f 95/235/104 88/237/99 89/233/98
f 90/239/100 92/228/105 86/227/100
f 92/228/105 90/239/100 96/240/105
f 97/241/106 91/242/101 92/243/101
f 97/241/106 92/243/101 98/244/106
f 99/245/107 94/246/102 100/247/107
f 94/246/102 99/245/107 93/248/102
f 95/249/103 97/250/108 101/251/108
f 97/250/108 95/249/103 91/252/103
f 94/253/104 101/251/109 100/254/110
f 101/251/109 94/253/104 95/249/104
f 96/255/105 102/256/111 92/243/105
f 98/244/111 92/243/105 102/256/111
f 103/257/112 97/258/106 98/259/106
f 103/257/112 98/259/106 104/260/112
f 105/261/113 100/262/107 106/263/113
f 100/262/107 105/261/113 99/264/107
f 101/265/108 103/266/114 107/267/114
f 103/266/114 101/265/108 97/268/108
f 100/269/110 107/267/115 106/270/116
f 107/267/115 100/269/110 101/265/109
f 102/271/111 108/272/117 98/259/111
f 104/260/117 98/259/111 108/272/117
f 109/273/118 103/274/112 104/275/112
f 109/273/118 104/275/112 110/276/118
f 111/277/119 106/278/113 112/279/120
f 106/278/113 111/277/119 105/280/113
f 107/281/114 109/282/121 113/283/121
f 109/282/121 107/281/114 103/284/114
f 106/285/116 113/283/122 112/286/123
f 113/283/122 106/285/116 107/281/115
f 108/287/117 114/288/124 104/275/117
f 110/276/125 104/275/117 114/288/124
f 115/289/126 109/290/118 110/291/118
f 115/289/126 110/291/118 116/292/127
f 117/293/128 112/294/120 118/295/128
f 112/294/120 117/293/128 111/296/119
f 113/297/121 115/298/129 119/299/129
f 115/298/129 113/297/121 109/300/121
f 112/301/123 119/299/130 118/302/131
f 119/299/130 112/301/123 113/297/122
f 114/303/124 120/304/132 110/291/125
f 116/292/132 110/291/125 120/304/132
f 121/305/133 115/306/126 116/307/127
f 121/305/133 116/307/127 122/308/133
f 123/309/134 118/310/128 124/311/134
f 118/310/128 123/309/134 117/312/128
f 115/313/129 125/314/135 119/315/129
f 125/314/135 115/313/129 121/316/135
f 118/317/131 125/314/136 124/318/137
f 125/314/136 118/317/131 119/315/130
f 120/319/132 126/320/138 116/307/132
f 122/308/138 116/307/132 126/320/138
f 127/321/139 121/322/133 122/323/133
f 127/321/139 122/323/133 128/324/140
f 129/325/141 124/326/134 130/327/141
f 124/326/134 129/325/141 123/328/134
f 121/329/135 131/330/121 125/331/135
f 131/330/121 121/329/135 127/332/142
f 124/333/137 131/330/143 130/334/144
f 131/330/143 124/333/137 125/331/136
f 126/335/138 128/324/145 122/323/138
f 128/324/145 126/335/138 132/336/146
f 133/337/147 127/338/139 128/339/140
f 133/337/148 128/339/149 134/340/148
f 135/341/150 129/342/141 136/343/150
f 130/344/141 136/343/150 129/342/141
f 127/345/142 137/346/151 131/347/121
f 137/346/152 127/345/153 133/348/152
f 130/349/144 137/346/154 136/350/155
f 137/346/154 130/349/144 131/347/143
f 132/351/146 134/340/156 128/339/145
f 134/340/157 132/351/145 138/352/157
