# Blender v3.4.1 OBJ File: 'track.blend'
# www.blender.org
mtllib _1WALL_tires01_03__1__Scene.379.mtl
o _1WALL_tires01_03__1__Scene.379
v 172.344894 323.766907 -3.547320
v 172.344894 323.766907 -2.504679
v 171.833298 322.969788 -2.504679
v 171.833298 322.969788 -3.547320
v 171.902802 322.941895 -3.620720
v 172.406403 323.726807 -3.620720
v 171.827194 322.538788 -3.620720
v 171.749481 322.522400 -3.547320
v 171.749481 322.522400 -2.504679
v 172.006500 322.146698 -3.547321
v 172.006500 322.146698 -2.504679
v 172.058899 322.200195 -3.620720
v 172.768494 321.649597 -2.504679
v 172.768494 321.649597 -3.547321
v 172.808578 321.711090 -3.620720
v 174.087296 320.876984 -3.666398
v 174.047195 320.815491 -2.504680
v 174.047195 320.815491 -3.592998
v 175.365891 320.042786 -3.620721
v 175.325790 319.981384 -3.547321
v 176.604477 319.147186 -3.512161
v 175.325790 319.981384 -2.504680
v 176.644577 319.208710 -3.585561
v 176.604477 319.147186 -2.504680
v 177.883194 318.313080 -2.504680
v 177.923294 318.374481 -3.620721
v 177.883194 318.313080 -3.547321
v 179.161789 317.478882 -2.504680
v 179.161789 317.478882 -3.581819
v 180.440475 316.644806 -3.547321
v 179.201889 317.540405 -3.655218
v 180.440475 316.644806 -2.504680
v 180.480576 316.706299 -3.620721
v 181.719101 315.810608 -2.504680
v 181.759186 315.872101 -3.681662
v 181.719101 315.810608 -3.608261
v 183.037903 315.037994 -3.620722
v 182.997803 314.976501 -3.547322
v 184.316589 314.203796 -3.641916
v 184.276398 314.142395 -3.568517
v 185.555084 313.308197 -3.547322
v 185.595184 313.369690 -3.620722
v 186.873901 312.535583 -3.652284
v 186.833801 312.474091 -3.578884
v 188.236893 311.562988 -3.547322
v 188.276978 311.624481 -3.620722
v 187.259598 310.499390 -3.620721
v 188.538300 309.665283 -3.655220
v 189.334702 310.899109 -3.620721
v 188.056091 311.733185 -3.620721
v 185.981003 311.333588 -3.585562
v 186.777390 312.567291 -3.620721
v 184.702301 312.167694 -3.620721
v 185.498703 313.401459 -3.620721
v 183.423691 313.001801 -3.666399
v 184.220093 314.235596 -3.620720
v 182.144989 313.835999 -3.620720
v 182.941376 315.069794 -3.620720
v 181.395203 314.325104 -3.620720
v 181.239197 315.066772 -3.620720
v 181.742783 315.851654 -3.620721
v 181.163589 314.663605 -3.620720
v 189.073395 312.858185 -3.620722
v 187.670303 313.769409 -3.620722
v 186.391586 314.603485 -3.620722
v 185.112976 315.437592 -3.620721
v 183.834290 316.271790 -3.620721
v 182.555695 317.105896 -3.620721
v 181.276978 317.940002 -3.620721
v 179.998291 318.774200 -3.620721
v 178.719696 319.608307 -3.620721
v 177.440994 320.442383 -3.620721
v 176.162292 321.276611 -3.620720
v 174.883698 322.110809 -3.620720
v 173.604996 322.944885 -3.620720
v 181.681274 315.891785 -3.547322
v 181.681274 315.891785 -2.504680
v 181.169678 315.094696 -2.504680
v 181.169678 315.094696 -3.547322
v 181.085892 314.647308 -3.547322
v 181.085892 314.647308 -2.504680
v 181.342880 314.271576 -3.547321
v 181.342880 314.271576 -2.504680
v 182.104874 313.774506 -2.504680
v 182.104874 313.774506 -3.547321
v 183.383591 312.940399 -2.504680
v 183.383591 312.940399 -3.592999
v 184.662201 312.106201 -3.547321
v 185.940887 311.272064 -3.512162
v 184.662201 312.106201 -2.504680
v 185.940887 311.272064 -2.504680
v 187.219482 310.437866 -2.504680
v 187.219482 310.437866 -3.547322
v 188.498199 309.603790 -2.504680
v 188.498199 309.603790 -3.581820
vt 6.431076 1.346518
vt 6.300831 1.002942
vt 6.431075 1.002941
vt 6.300831 1.346518
vt 6.300831 1.384308
vt 6.431076 1.384308
vt 6.157632 1.384308
vt 6.157632 1.346518
vt 6.157631 1.002942
vt 6.014432 1.346518
vt 6.014432 1.002942
vt 6.014432 1.384308
vt 5.720058 1.002942
vt 5.720059 1.346519
vt 5.720059 1.384309
vt 5.223313 1.384310
vt 5.223312 1.002943
vt 5.223313 1.346519
vt 4.726567 1.384310
vt 4.726567 1.346520
vt 4.229865 1.346521
vt 4.726567 1.002944
vt 4.229865 1.384311
vt 4.229865 1.002944
vt 3.733164 1.002945
vt 3.733165 1.384312
vt 3.733165 1.346522
vt 3.236466 1.002946
vt 3.236466 1.346522
vt 2.739767 1.346523
vt 3.236466 1.384313
vt 2.739767 1.002947
vt 2.739767 1.384313
vt 2.242934 1.002947
vt 2.242934 1.384314
vt 2.242934 1.346524
vt 1.746101 1.384315
vt 1.746101 1.346525
vt 1.249441 1.384316
vt 1.249441 1.346526
vt 0.752782 1.346526
vt 0.752782 1.384316
vt 0.256093 1.384317
vt 0.256093 1.346527
vt -0.240595 1.346528
vt -0.240595 1.384318
vt 1.738335 1.393769
vt 1.238546 1.853039
vt 1.239884 1.391568
vt 1.736874 1.855066
vt 2.236799 1.395607
vt 2.235206 1.857092
vt 2.735264 1.398177
vt 2.733541 1.859483
vt 3.233827 1.400254
vt 3.231881 1.861872
vt 3.732390 1.403569
vt 3.730222 1.864879
vt 4.024599 1.405331
vt 4.198616 1.604659
vt 4.197377 1.867697
vt 4.148033 1.464149
vt -1.751137 1.386100
vt -2.249704 1.847335
vt -2.249555 1.386050
vt -1.751385 1.847533
vt -1.252719 1.386731
vt -1.253066 1.848016
vt -0.754358 1.387136
vt -0.754746 1.848489
vt -0.255996 1.387798
vt -0.256425 1.849087
vt 0.242719 1.387836
vt 0.241897 1.849677
vt 0.741433 1.390068
vt 0.740220 1.851360
vt 1.239884 1.391568
vt 1.238546 1.853039
vt 1.738335 1.393769
vt 1.736874 1.855066
vt 2.236799 1.395607
vt 2.235206 1.857092
vt 2.735264 1.398177
vt 2.733541 1.859483
vt 3.233827 1.400254
vt 3.231881 1.861872
vt 3.732390 1.403569
vt 3.730222 1.864879
vt 4.024599 1.405331
vt 4.198616 1.604659
vt 4.197377 1.867697
vt 4.148033 1.464149
vt 6.431076 1.346518
vt 6.300831 1.002942
vt 6.431075 1.002941
vt 6.300831 1.346518
vt 6.300831 1.384308
vt 6.431076 1.384308
vt 6.157632 1.384308
vt 6.157632 1.346518
vt 6.157631 1.002942
vt 6.014432 1.346518
vt 6.014432 1.002942
vt 6.014432 1.384308
vt 5.720058 1.002942
vt 5.720059 1.346519
vt 5.720059 1.384309
vt 5.223313 1.384310
vt 5.223312 1.002943
vt 5.223313 1.346519
vt 4.726567 1.384310
vt 4.726567 1.346520
vt 4.229865 1.346521
vt 4.726567 1.002944
vt 4.229865 1.384311
vt 4.229865 1.002944
vt 3.733165 1.384312
vt 3.733164 1.002945
vt 3.733165 1.346522
vt 3.236466 1.384313
vt 3.236466 1.002946
vt 3.236466 1.346522
vn -0.7777 0.4991 -0.3822
vn -0.9294 0.3690 0.0000
vn -0.8416 0.5401 0.0000
vn -0.8629 0.3427 -0.3714
vn -0.3874 0.1537 -0.9090
vn -0.3233 0.2075 -0.9233
vn -0.4284 -0.0901 -0.8991
vn -0.9096 -0.1914 -0.3688
vn -0.9786 -0.2059 0.0000
vn -0.6494 -0.6638 -0.3711
vn -0.6993 -0.7148 0.0000
vn -0.2916 -0.2981 -0.9089
vn -0.5464 -0.8375 0.0000
vn -0.5102 -0.7718 -0.3795
vn -0.2161 -0.3134 -0.9247
vn -0.2037 -0.3122 -0.9279
vn -0.5033 -0.7716 -0.3890
vn -0.1943 -0.3294 -0.9240
vn -0.4965 -0.7796 -0.3817
vn -0.5058 -0.7754 -0.3780
vn -0.2131 -0.3268 -0.9208
vn -0.2216 -0.3123 -0.9238
vn -0.5121 -0.7691 -0.3825
vn -0.5037 -0.7721 -0.3875
vn -0.5089 -0.7743 -0.3762
vn -0.2051 -0.3143 -0.9269
vn -0.2112 -0.3134 -0.9258
vn -0.2020 -0.3097 -0.9291
vn -0.4693 -0.7194 -0.5120
vn -0.1996 -0.3218 -0.9255
vn -0.3787 -0.5971 -0.7072
vn -0.2066 -0.3168 -0.9257
vn -0.3864 -0.5922 -0.7071
vn -0.3883 -0.5909 -0.7072
vn -0.2095 -0.3170 -0.9250
vn -0.2058 -0.3150 -0.9265
vn -0.3863 -0.5924 -0.7070
vn -0.3739 -0.6003 -0.7070
vn -0.1964 -0.3251 -0.9251
vn -0.2215 -0.3122 -0.9238
vn -0.0031 0.0159 -0.9999
vn -0.2176 -0.3067 -0.9266
vn -0.0096 0.0060 -0.9999
vn -0.2131 -0.3267 -0.9208
vn -0.0065 -0.0101 -0.9999
vn -0.1943 -0.3295 -0.9240
vn 0.0121 -0.0057 -0.9999
vn -0.2037 -0.3123 -0.9279
vn 0.0084 0.0131 -0.9999
vn -0.2160 -0.3132 -0.9248
vn -0.0020 0.0105 -0.9999
vn -0.2917 -0.2982 -0.9088
vn -0.4285 -0.0902 -0.8990
vn 0.0138 0.0038 -0.9999
vn 0.0055 0.0093 -0.9999
vn 0.0035 0.0084 -1.0000
vn 0.0039 0.0061 -1.0000
vn 0.0131 0.0082 -0.9999
vn 0.0113 0.0174 -0.9998
vn 0.0053 0.0159 -0.9999
vn 0.0064 0.0099 -0.9999
vn -0.9295 0.3689 0.0000
vn -0.9096 -0.1913 -0.3687
vn -0.6494 -0.6638 -0.3710
vn -0.5464 -0.8376 0.0000
vn -0.5102 -0.7718 -0.3796
vn -0.5034 -0.7717 -0.3886
vn -0.4965 -0.7795 -0.3819
vn -0.5058 -0.7754 -0.3781
vn -0.5120 -0.7689 -0.3828
vn -0.5463 -0.8376 0.0000
vn -0.5109 -0.7673 -0.3875
usemtl TiresMat
s 1
f 1/1/1 3/2/2 2/3/3
f 4/4/4 3/2/2 1/1/1
f 1/1/1 5/5/5 4/4/4
f 5/5/5 1/1/1 6/6/6
f 7/7/7 4/4/4 5/5/5
f 3/2/2 4/4/4 8/8/8
f 4/4/4 7/7/7 8/8/8
f 8/8/8 9/9/9 3/2/2
f 10/10/10 8/8/8 7/7/7
f 9/9/9 8/8/8 10/10/10
f 10/10/10 11/11/11 9/9/9
f 10/10/10 7/7/7 12/12/12
f 10/10/10 13/13/13 11/11/11
f 14/14/14 10/10/10 12/12/12
f 14/14/14 13/13/13 10/10/10
f 14/14/14 12/12/12 15/15/15
f 16/16/16 14/14/14 15/15/15
f 14/14/14 17/17/13 13/13/13
f 14/14/14 16/16/16 18/18/17
f 18/18/17 17/17/13 14/14/14
f 19/19/18 18/18/17 16/16/16
f 20/20/19 17/17/13 18/18/17
f 18/18/17 19/19/18 20/20/19
f 19/19/18 21/21/20 20/20/19
f 17/17/13 20/20/19 22/22/13
f 21/21/20 22/22/13 20/20/19
f 19/19/18 23/23/21 21/21/20
f 22/22/13 21/21/20 24/24/13
f 21/21/20 25/25/13 24/24/13
f 26/26/22 21/21/20 23/23/21
f 27/27/23 25/25/13 21/21/20
f 21/21/20 26/26/22 27/27/23
f 27/27/23 28/28/13 25/25/13
f 26/26/22 29/29/24 27/27/23
f 29/29/24 28/28/13 27/27/23
f 30/30/25 28/28/13 29/29/24
f 29/29/24 26/26/22 31/31/26
f 31/31/26 30/30/25 29/29/24
f 28/28/13 30/30/25 32/32/13
f 31/31/26 33/33/27 30/30/25
f 30/30/25 34/34/13 32/32/13
f 35/35/28 30/30/25 33/33/27
f 36/36/29 34/34/13 30/30/25
f 30/30/25 35/35/28 36/36/29
f 37/37/30 36/36/29 35/35/28
f 36/36/29 37/37/30 38/38/31
f 39/39/32 38/38/31 37/37/30
f 38/38/31 39/39/32 40/40/33
f 39/39/32 41/41/34 40/40/33
f 39/39/32 42/42/35 41/41/34
f 43/43/36 41/41/34 42/42/35
f 41/41/34 43/43/36 44/44/37
f 43/43/36 45/45/38 44/44/37
f 43/43/36 46/46/39 45/45/38
f 47/47/40 49/48/41 48/49/42
f 49/48/41 47/47/40 50/50/43
f 51/51/44 50/50/43 47/47/40
f 50/50/43 51/51/44 52/52/45
f 53/53/46 52/52/45 51/51/44
f 52/52/45 53/53/46 54/54/47
f 55/55/48 54/54/47 53/53/46
f 54/54/47 55/55/48 56/56/49
f 57/57/50 56/56/49 55/55/48
f 56/56/49 57/57/50 58/58/51
f 59/59/52 58/58/51 57/57/50
f 60/60/5 58/58/51 59/59/52
f 58/58/51 60/60/5 61/61/6
f 60/60/5 59/59/52 62/62/53
f 43/63/36 63/64/54 46/65/39
f 63/64/54 43/63/36 64/66/55
f 42/67/35 64/66/55 43/63/36
f 64/66/55 42/67/35 65/68/56
f 39/69/32 65/68/56 42/67/35
f 65/68/56 39/69/32 66/70/57
f 37/71/30 66/70/57 39/69/32
f 66/70/57 37/71/30 67/72/58
f 35/73/28 67/72/58 37/71/30
f 67/72/58 35/73/28 68/74/59
f 33/75/27 68/74/59 35/73/28
f 68/74/59 33/75/27 69/76/60
f 31/77/26 69/76/60 33/75/27
f 69/76/60 31/77/26 70/78/61
f 26/79/22 70/78/61 31/77/26
f 70/78/61 26/79/22 71/80/43
f 23/81/21 71/80/43 26/79/22
f 71/80/43 23/81/21 72/82/45
f 19/83/18 72/82/45 23/81/21
f 72/82/45 19/83/18 73/84/47
f 16/85/16 73/84/47 19/83/18
f 73/84/47 16/85/16 74/86/49
f 15/87/15 74/86/49 16/85/16
f 74/86/49 15/87/15 75/88/51
f 12/89/12 75/88/51 15/87/15
f 5/90/5 75/88/51 12/89/12
f 75/88/51 5/90/5 6/91/6
f 5/90/5 12/89/12 7/92/7
f 76/93/1 78/94/62 77/95/3
f 79/96/4 78/94/62 76/93/1
f 76/93/1 60/97/5 79/96/4
f 60/97/5 76/93/1 61/98/6
f 62/99/53 79/96/4 60/97/5
f 78/94/62 79/96/4 80/100/63
f 79/96/4 62/99/53 80/100/63
f 80/100/63 81/101/9 78/94/62
f 82/102/64 80/100/63 62/99/53
f 81/101/9 80/100/63 82/102/64
f 82/102/64 83/103/11 81/101/9
f 82/102/64 62/99/53 59/104/52
f 82/102/64 84/105/65 83/103/11
f 85/106/66 82/102/64 59/104/52
f 85/106/66 84/105/65 82/102/64
f 85/106/66 59/104/52 57/107/50
f 55/108/48 85/106/66 57/107/50
f 85/106/66 86/109/13 84/105/65
f 85/106/66 55/108/48 87/110/67
f 87/110/67 86/109/13 85/106/66
f 53/111/46 87/110/67 55/108/48
f 88/112/68 86/109/13 87/110/67
f 87/110/67 53/111/46 88/112/68
f 53/111/46 89/113/69 88/112/68
f 86/109/13 88/112/68 90/114/13
f 89/113/69 90/114/13 88/112/68
f 53/111/46 51/115/44 89/113/69
f 90/114/13 89/113/69 91/116/13
f 47/117/40 89/113/69 51/115/44
f 89/113/69 92/118/13 91/116/13
f 89/113/69 47/117/40 93/119/70
f 93/119/70 92/118/13 89/113/69
f 48/120/42 93/119/70 47/117/40
f 93/119/70 94/121/71 92/118/13
f 93/119/70 48/120/42 95/122/72
f 95/122/72 94/121/71 93/119/70
