# Blender v3.4.1 OBJ File: 'track.blend'
# www.blender.org
mtllib _1WALL_small03_EMIRATES_002_SUB0_Scene.348.mtl
o _1WALL_small03_EMIRATES_002_SUB0_Scene.348
v 167.995804 311.182007 -3.703883
v 169.042084 315.263611 -2.740293
v 168.870407 315.298004 -3.721980
v 168.167404 311.147186 -2.722195
v 167.806183 311.222809 -3.703884
v 168.680801 315.338898 -3.721980
v 168.659698 315.341797 -3.706668
v 167.785095 311.225800 -3.688571
v 169.042496 315.265411 -2.021985
v 168.167694 311.148712 -2.003887
v 166.323303 303.359406 -3.695230
v 167.329102 307.234985 -2.716299
v 167.157684 307.270508 -3.697989
v 166.494583 303.323303 -2.713539
v 166.133606 303.399811 -3.695230
v 166.968002 307.311096 -3.697988
v 166.946884 307.314087 -3.682678
v 166.112503 303.402771 -3.679921
v 167.329300 307.235687 -1.997990
v 166.494705 303.323608 -1.995229
v 164.663177 295.532715 -3.695704
v 165.662979 299.409485 -2.713157
v 165.491791 299.445892 -3.694846
v 164.834503 295.496307 -2.714014
v 165.301987 299.486115 -3.694846
v 164.473495 295.572906 -3.695704
v 165.280899 299.489105 -3.679537
v 164.452301 295.575806 -3.680396
v 165.662979 299.409393 -1.994847
v 164.834503 295.496185 -1.995705
v 163.011200 287.701508 -3.693459
v 164.007782 291.581207 -2.714407
v 163.836395 291.617188 -3.696097
v 163.182800 287.666992 -2.711770
v 162.821304 287.741486 -3.693458
v 163.646591 291.657196 -3.696097
v 163.625504 291.660095 -3.680787
v 162.800201 287.744507 -3.678148
v 164.007782 291.581268 -1.996098
v 163.182999 287.668091 -1.993461
vt -1.021971 2.001424
vt 2.977629 2.001424
vt 2.977629 1.108993
vt -1.021971 1.108994
vt 2.977629 1.899918
vt -1.021971 1.899918
vt -1.021971 1.695245
vt 2.977629 1.695245
vt 2.977629 1.688305
vt -1.021971 1.688305
vt 2.977629 0.755510
vt -1.021971 0.755511
vt -1.021971 2.001424
vt 2.977629 2.001424
vt 2.977629 1.108993
vt -1.021971 1.108994
vt 2.977629 1.899918
vt -1.021971 1.899918
vt -1.021971 1.695245
vt 2.977629 1.695245
vt 2.977629 1.688305
vt -1.021971 1.688305
vt 2.977629 0.755510
vt -1.021971 0.755511
vt -1.021971 2.001424
vt 2.977629 2.001424
vt 2.977629 1.108993
vt -1.021971 1.108994
vt 2.977629 1.899918
vt -1.021971 1.899918
vt -1.021971 1.695245
vt 2.977629 1.695245
vt 2.977629 1.688305
vt -1.021971 1.688305
vt 2.977629 0.755510
vt -1.021971 0.755511
vt -1.021971 2.001424
vt 2.977629 2.001424
vt 2.977629 1.108993
vt -1.021971 1.108994
vt -1.021971 1.899918
vt 2.977629 1.695245
vt 2.977629 1.899918
vt -1.021971 1.695245
vt 2.977629 1.688305
vt -1.021971 1.688305
vt 2.977629 0.755510
vt -1.021971 0.755511
vt -1.021971 2.001424
vt 2.977629 2.001424
vt 2.977629 1.108993
vt -1.021971 1.108994
vt -1.021971 1.899918
vt 2.977629 1.695245
vt 2.977629 1.899918
vt -1.021971 1.695245
vt 2.977629 1.688305
vt -1.021971 1.688305
vt 2.977629 0.755510
vt -1.021971 0.755511
vt -1.021971 2.001424
vt 2.977629 2.001424
vt 2.977629 1.108993
vt -1.021971 1.108994
vt 2.977629 1.899918
vt -1.021971 1.899918
vt -1.021971 1.695245
vt 2.977629 1.695245
vt 2.977629 1.688305
vt -1.021971 1.688305
vt 2.977629 0.755510
vt -1.021971 0.755511
vt -1.021971 2.001424
vt 2.977629 2.001424
vt 2.977629 1.108993
vt -1.021971 1.108994
vt 2.977629 1.899918
vt -1.021971 1.899918
vt -1.021971 1.695245
vt 2.977629 1.695245
vt 2.977629 1.688305
vt -1.021971 1.688305
vt 2.977629 0.755510
vt -1.021971 0.755511
vn 0.9627 -0.2057 -0.1756
vn 0.9628 -0.2054 -0.1756
vn 0.9627 -0.2060 -0.1756
vn 0.9627 -0.2059 -0.1756
vn -0.0009 -0.0042 -1.0000
vn -0.0006 -0.0028 -1.0000
vn -0.5720 0.1180 -0.8117
vn -0.5722 0.1196 -0.8113
vn -0.5722 0.1198 -0.8113
vn -0.5721 0.1180 -0.8116
vn 0.9782 -0.2079 -0.0000
vn 0.9780 -0.2087 0.0000
vn 0.9780 -0.2087 0.0001
vn 0.9629 -0.2051 -0.1755
vn -0.0002 -0.0011 -1.0000
vn -0.0001 -0.0004 -1.0000
vn -0.5717 0.1214 -0.8114
vn -0.5715 0.1213 -0.8116
vn -0.5715 0.1214 -0.8116
vn -0.5717 0.1213 -0.8114
vn 0.9779 -0.2091 -0.0001
vn 0.9781 -0.2082 -0.0001
vn 0.9632 -0.2036 -0.1756
vn 0.9631 -0.2043 -0.1755
vn 0.0000 0.0002 -1.0000
vn 0.0000 0.0001 -1.0000
vn -0.5719 0.1213 -0.8113
vn -0.5706 0.1208 -0.8123
vn -0.5708 0.1208 -0.8122
vn -0.5719 0.1214 -0.8113
vn 0.9782 -0.2075 -0.0000
vn 0.9784 -0.2069 -0.0000
vn 0.9633 -0.2031 -0.1756
vn 0.9632 -0.2032 -0.1756
vn 0.9632 -0.2033 -0.1756
vn 0.9633 -0.2031 -0.1755
vn -0.0001 -0.0006 -1.0000
vn -0.0001 -0.0003 -1.0000
vn -0.5718 0.1203 -0.8116
vn -0.5718 0.1200 -0.8116
vn -0.5720 0.1205 -0.8114
vn 0.9785 -0.2064 0.0000
vn 0.9785 -0.2062 0.0000
usemtl WallMat
s 1
f 1/1/1 3/2/2 2/3/2
f 1/1/3 2/3/2 4/4/4
f 3/5/5 1/6/6 5/7/6
f 5/7/6 6/8/5 3/5/5
f 7/9/7 5/7/8 8/10/9
f 5/7/8 7/9/7 6/8/10
f 9/11/11 4/4/12 2/3/11
f 4/4/12 9/11/11 10/12/13
f 11/13/14 13/14/3 12/15/3
f 11/13/14 12/15/3 14/16/14
f 13/17/15 11/18/16 15/19/16
f 15/19/16 16/20/15 13/17/15
f 17/21/17 15/19/18 18/22/19
f 15/19/18 17/21/17 16/20/20
f 19/23/21 20/24/22 12/15/21
f 14/16/22 12/15/21 20/24/22
f 13/25/3 1/26/3 4/27/4
f 13/25/3 4/27/4 12/28/3
f 1/29/6 13/30/15 16/31/15
f 16/31/15 5/32/6 1/29/6
f 8/33/9 16/31/20 17/34/17
f 16/31/20 8/33/9 5/32/8
f 10/35/13 19/36/21 4/27/12
f 12/28/21 4/27/12 19/36/21
f 21/37/23 23/38/24 22/39/24
f 21/37/23 22/39/24 24/40/23
f 21/41/25 25/42/26 23/43/26
f 25/42/26 21/41/25 26/44/25
f 27/45/27 26/44/28 28/46/29
f 26/44/28 27/45/27 25/42/30
f 29/47/31 30/48/32 22/39/31
f 24/40/32 22/39/31 30/48/32
f 23/49/24 11/50/14 14/51/14
f 23/49/24 14/51/14 22/52/24
f 23/53/26 15/54/16 11/55/16
f 15/54/16 23/53/26 25/56/26
f 18/57/19 25/56/30 27/58/27
f 25/56/30 18/57/19 15/54/18
f 20/59/22 29/60/31 14/51/22
f 22/52/31 14/51/22 29/60/31
f 31/61/33 33/62/34 32/63/35
f 31/61/36 32/63/36 34/64/36
f 33/65/37 31/66/37 35/67/37
f 35/67/37 36/68/38 33/65/38
f 37/69/39 35/67/40 38/70/40
f 35/67/40 37/69/39 36/68/41
f 39/71/42 40/72/43 32/63/42
f 34/64/43 32/63/42 40/72/43
f 33/73/34 21/74/23 24/75/23
f 33/73/34 24/75/23 32/76/35
f 21/77/25 33/78/38 36/79/38
f 36/79/38 26/80/25 21/77/25
f 28/81/29 36/79/41 37/82/39
f 36/79/41 28/81/29 26/80/28
f 30/83/32 39/84/42 24/75/32
f 32/76/42 24/75/32 39/84/42
