# Blender v3.4.1 OBJ File: 'track.blend'
# www.blender.org
mtllib _1WALL_big01_emirates_SUB2_Scene.293.mtl
o _1WALL_big01_emirates_SUB2_Scene.293
v -258.707794 -407.695496 -2.811606
v -258.696411 -407.716583 -4.496135
v -257.346893 -411.531158 -4.425966
v -257.355011 -411.519012 -2.741323
v -260.025299 -403.917389 -2.888726
v -260.010712 -403.947601 -4.573088
v -261.322601 -400.133698 -2.971982
v -261.308197 -400.163208 -4.656358
v -262.618011 -396.349274 -3.049825
v -262.604614 -396.376007 -4.734255
v -263.916809 -392.566010 -3.119135
v -263.904602 -392.589203 -4.803628
v -265.221100 -388.784485 -3.179271
v -265.210175 -388.803894 -4.863820
v -266.532013 -385.005066 -3.229945
v -266.522400 -385.020691 -4.914543
v -267.849915 -381.227997 -3.271127
v -267.841705 -381.239685 -4.955763
v -269.174011 -377.453186 -3.302763
v -269.167297 -377.460785 -4.987428
v -270.501801 -373.679810 -3.324176
v -270.496490 -373.683105 -5.008860
v -271.829193 -369.906403 -3.334117
v -271.825409 -369.905457 -5.018809
v -273.154694 -366.132172 -3.332989
v -273.152313 -366.127502 -5.017677
v -274.478210 -362.357208 -3.322837
v -274.476990 -362.349091 -5.007512
v -275.799408 -358.581268 -3.305169
v -275.799194 -358.570312 -4.989830
v -277.118011 -354.804291 -3.281028
v -277.118500 -354.790955 -4.965671
v -278.433014 -351.026001 -3.251587
v -278.434204 -351.010895 -4.936215
v -279.743500 -347.246002 -3.218348
v -279.745087 -347.229797 -4.902966
v -281.047913 -343.463715 -3.183482
v -281.049408 -343.447479 -4.868099
v -282.340393 -339.676514 -3.152200
v -282.340698 -339.663971 -4.836847
v -283.605408 -335.879486 -3.138495
v -283.602692 -335.875763 -4.823182
v -284.832703 -332.071014 -3.144228
v -284.828400 -332.072174 -4.828919
v -286.035370 -328.255188 -3.155870
v -286.030792 -328.257507 -4.840559
v -287.224915 -324.435211 -3.168176
v -287.220215 -324.437714 -4.852864
v -288.403107 -320.611603 -3.180765
v -288.398407 -320.614105 -4.865452
v -289.573456 -316.785492 -3.193349
v -289.568909 -316.787994 -4.878036
v -290.738586 -312.957703 -3.205826
v -290.733887 -312.960175 -4.890513
v -291.897095 -309.127991 -3.218046
v -291.892487 -309.130310 -4.902733
v -293.049500 -305.296387 -3.229850
v -293.045013 -305.298615 -4.914537
v -294.197693 -301.463593 -3.241298
v -294.193115 -301.465515 -4.925987
v -295.338989 -297.628815 -3.252047
v -295.334595 -297.630402 -4.936737
v -296.474396 -293.792114 -3.262036
v -296.470093 -293.793488 -4.946726
v -297.604889 -289.954102 -3.271366
v -297.600708 -289.955109 -4.956056
v -298.726105 -286.113586 -3.279266
v -298.722107 -286.114014 -4.963957
v -299.838898 -282.270691 -3.285713
v -299.834991 -282.270508 -4.970405
v -300.942413 -278.425293 -3.290497
v -300.938690 -278.424194 -4.975189
v -302.033203 -274.576599 -3.292912
v -302.029907 -274.574188 -4.977602
vt 0.000236 1.815638
vt 0.124732 1.859592
vt 0.000236 1.859592
vt 0.124732 1.815638
vt 0.000236 1.815638
vt 0.124732 1.859592
vt 0.000236 1.859592
vt 0.124732 1.815638
vt 0.000236 1.815638
vt 0.124732 1.859592
vt 0.000236 1.859592
vt 0.124732 1.815638
vt 0.000236 1.815638
vt 0.124732 1.859592
vt 0.000236 1.859592
vt 0.124732 1.815638
vt 0.000236 1.815638
vt 0.124732 1.859592
vt 0.000236 1.859592
vt 0.124732 1.815638
vt 0.000236 1.815638
vt 0.124732 1.859592
vt 0.000236 1.859592
vt 0.124732 1.815638
vt 0.000236 1.815638
vt 0.124732 1.859592
vt 0.000236 1.859592
vt 0.124732 1.815638
vt 0.000236 1.815638
vt 0.124732 1.859592
vt 0.000236 1.859592
vt 0.124732 1.815638
vt 0.000236 1.815638
vt 0.124732 1.859592
vt 0.000236 1.859592
vt 0.124732 1.815638
vt 0.000236 1.815638
vt 0.124732 1.859592
vt 0.000236 1.859592
vt 0.124732 1.815638
vt 0.000236 1.815638
vt 0.124732 1.859592
vt 0.000236 1.859592
vt 0.124732 1.815638
vt 0.000236 1.815638
vt 0.124732 1.859592
vt 0.000236 1.859592
vt 0.124732 1.815638
vt 0.000236 1.815638
vt 0.124732 1.859592
vt 0.000236 1.859592
vt 0.124732 1.815638
vt 0.000236 1.815638
vt 0.124732 1.859592
vt 0.000236 1.859592
vt 0.124732 1.815638
vt 0.000236 1.815638
vt 0.124732 1.859592
vt 0.000236 1.859592
vt 0.124732 1.815638
vt 0.000236 1.815638
vt 0.124732 1.859592
vt 0.000236 1.859592
vt 0.124732 1.815638
vt 0.000236 1.815638
vt 0.124732 1.859592
vt 0.000236 1.859592
vt 0.124732 1.815638
vt 0.000236 1.815638
vt 0.124732 1.859592
vt 0.000236 1.859592
vt 0.124732 1.815638
vt 0.000236 1.815638
vt 0.124732 1.859592
vt 0.000236 1.859592
vt 0.124732 1.815638
vt 0.000236 1.815638
vt 0.124732 1.859592
vt 0.000236 1.859592
vt 0.124732 1.815638
vt 0.000236 1.815638
vt 0.124732 1.859592
vt 0.000236 1.859592
vt 0.124732 1.815638
vt 0.000236 1.815638
vt 0.124732 1.859592
vt 0.000236 1.859592
vt 0.124732 1.815638
vt 0.000236 1.815638
vt 0.124732 1.859592
vt 0.000236 1.859592
vt 0.124732 1.815638
vt 0.000236 1.815638
vt 0.124732 1.859592
vt 0.000236 1.859592
vt 0.124732 1.815638
vt 0.000236 1.815638
vt 0.124732 1.859592
vt 0.000236 1.859592
vt 0.124732 1.815638
vt 0.000236 1.815638
vt 0.124732 1.859592
vt 0.000236 1.859592
vt 0.124732 1.815638
vt 0.000236 1.815638
vt 0.124732 1.859592
vt 0.000236 1.859592
vt 0.124732 1.815638
vt 0.000236 1.815638
vt 0.124732 1.859592
vt 0.000236 1.859592
vt 0.124732 1.815638
vt 0.000236 1.815638
vt 0.124732 1.859592
vt 0.000236 1.859592
vt 0.124732 1.815638
vt 0.000236 1.815638
vt 0.124732 1.859592
vt 0.000236 1.859592
vt 0.124732 1.815638
vt 0.000236 1.815638
vt 0.124732 1.859592
vt 0.000236 1.859592
vt 0.124732 1.815638
vt 0.000236 1.815638
vt 0.124732 1.859592
vt 0.000236 1.859592
vt 0.124732 1.815638
vt 0.000236 1.815638
vt 0.124732 1.859592
vt 0.000236 1.859592
vt 0.124732 1.815638
vt 0.000236 1.815638
vt 0.124732 1.859592
vt 0.000236 1.859592
vt 0.124732 1.815638
vt 0.000236 1.815638
vt 0.124732 1.859592
vt 0.000236 1.859592
vt 0.124732 1.815638
vt 0.000236 1.815638
vt 0.124732 1.859592
vt 0.000236 1.859592
vt 0.124732 1.815638
vn 0.9435 0.3314 0.0022
vn 0.9427 0.3336 0.0021
vn 0.9451 0.3268 0.0023
vn 0.9460 0.3241 0.0024
vn 0.9459 0.3243 0.0024
vn 0.9456 0.3254 0.0024
vn 0.9451 0.3269 0.0024
vn 0.9445 0.3286 0.0023
vn 0.9439 0.3302 0.0023
vn 0.9435 0.3315 0.0023
vn 0.9433 0.3319 0.0023
vn 0.9434 0.3316 0.0023
vn 0.9436 0.3311 0.0023
vn 0.9438 0.3305 0.0023
vn 0.9440 0.3299 0.0023
vn 0.9443 0.3291 0.0023
vn 0.9446 0.3281 0.0023
vn 0.9459 0.3245 0.0023
vn 0.9476 0.3195 0.0022
vn 0.9503 0.3114 0.0022
vn 0.9528 0.3037 0.0022
vn 0.9543 0.2990 0.0022
vn 0.9552 0.2959 0.0022
vn 0.9560 0.2935 0.0022
vn 0.9565 0.2919 0.0022
vn 0.9569 0.2904 0.0022
vn 0.9574 0.2888 0.0022
vn 0.9578 0.2875 0.0022
vn 0.9582 0.2861 0.0023
vn 0.9587 0.2845 0.0022
vn 0.9591 0.2832 0.0022
vn 0.9596 0.2814 0.0022
vn 0.9602 0.2792 0.0022
vn 0.9609 0.2770 0.0022
vn 0.9609 0.2770 0.0023
vn 0.9617 0.2743 0.0023
vn 0.9621 0.2727 0.0023
usemtl EnvironmentMat
s 1
f 1/1/1 3/2/2 2/3/1
f 3/2/2 1/1/1 4/4/2
f 5/5/3 2/6/1 6/7/3
f 2/6/1 5/5/3 1/8/1
f 7/9/4 6/10/3 8/11/4
f 6/10/3 7/9/4 5/12/3
f 9/13/5 8/14/4 10/15/5
f 8/14/4 9/13/5 7/16/4
f 11/17/6 10/18/5 12/19/6
f 10/18/5 11/17/6 9/20/5
f 13/21/7 12/22/6 14/23/7
f 12/22/6 13/21/7 11/24/6
f 15/25/8 14/26/7 16/27/8
f 14/26/7 15/25/8 13/28/7
f 17/29/9 16/30/8 18/31/9
f 16/30/8 17/29/9 15/32/8
f 19/33/10 18/34/9 20/35/10
f 18/34/9 19/33/10 17/36/9
f 21/37/11 20/38/10 22/39/11
f 20/38/10 21/37/11 19/40/10
f 23/41/12 22/42/11 24/43/12
f 22/42/11 23/41/12 21/44/11
f 25/45/13 24/46/12 26/47/13
f 24/46/12 25/45/13 23/48/12
f 27/49/14 26/50/13 28/51/14
f 26/50/13 27/49/14 25/52/13
f 29/53/15 28/54/14 30/55/15
f 28/54/14 29/53/15 27/56/14
f 31/57/16 30/58/15 32/59/16
f 30/58/15 31/57/16 29/60/15
f 33/61/17 32/62/16 34/63/17
f 32/62/16 33/61/17 31/64/16
f 35/65/3 34/66/17 36/67/3
f 34/66/17 35/65/3 33/68/17
f 37/69/18 36/70/3 38/71/18
f 36/70/3 37/69/18 35/72/3
f 39/73/19 38/74/18 40/75/19
f 38/74/18 39/73/19 37/76/18
f 41/77/20 40/78/19 42/79/20
f 40/78/19 41/77/20 39/80/19
f 43/81/21 42/82/20 44/83/21
f 42/82/20 43/81/21 41/84/20
f 45/85/22 44/86/21 46/87/22
f 44/86/21 45/85/22 43/88/21
f 47/89/23 46/90/22 48/91/23
f 46/90/22 47/89/23 45/92/22
f 49/93/24 48/94/23 50/95/24
f 48/94/23 49/93/24 47/96/23
f 51/97/25 50/98/24 52/99/25
f 50/98/24 51/97/25 49/100/24
f 53/101/26 52/102/25 54/103/26
f 52/102/25 53/101/26 51/104/25
f 55/105/27 54/106/26 56/107/27
f 54/106/26 55/105/27 53/108/26
f 57/109/28 56/110/27 58/111/28
f 56/110/27 57/109/28 55/112/27
f 59/113/29 58/114/28 60/115/29
f 58/114/28 59/113/29 57/116/28
f 61/117/30 60/118/29 62/119/30
f 60/118/29 61/117/30 59/120/29
f 63/121/31 62/122/30 64/123/31
f 62/122/30 63/121/31 61/124/30
f 65/125/32 64/126/31 66/127/32
f 64/126/31 65/125/32 63/128/31
f 67/129/33 66/130/32 68/131/33
f 66/130/32 67/129/33 65/132/32
f 69/133/34 68/134/33 70/135/35
f 68/134/33 69/133/34 67/136/33
f 71/137/36 70/138/35 72/139/36
f 70/138/35 71/137/36 69/140/34
f 73/141/37 72/142/36 74/143/37
f 72/142/36 73/141/37 71/144/36
