# Blender v3.1.2 OBJ File: 'track.blend'
# www.blender.org
mtllib _1WALL_18_SUB0.mtl
o _1WALL_18_SUB0_Scene.286
v 18798.939453 31607.638672 -370.666412
v 18458.919922 31849.109375 -272.497406
v 18449.390625 31834.419922 -370.666412
v 18808.470703 31622.320312 -272.497406
v 18787.419922 31589.880859 -200.666397
v 18787.339844 31589.498047 -369.135498
v 18437.869141 31816.667969 -200.666397
v 18437.810547 31816.281250 -369.135498
v 18438.839844 31818.148438 -370.666412
v 18788.380859 31591.361328 -370.666412
v 18458.919922 31849.109375 -200.666397
v 18808.470703 31622.320312 -200.666397
v 19134.621094 31389.849609 -370.666290
v 19144.150391 31404.529297 -272.497284
v 19123.099609 31372.087891 -200.666306
v 19123.029297 31371.710938 -369.135406
v 19124.070312 31373.568359 -370.666290
v 19144.150391 31404.529297 -200.666397
v 19470.308594 31172.060547 -370.666290
v 19479.839844 31186.740234 -272.497284
v 19458.791016 31154.300781 -200.666306
v 19458.720703 31153.921875 -369.135406
v 19459.750000 31155.779297 -370.666290
v 19479.839844 31186.740234 -200.666306
v 19806.000000 30954.259766 -370.666290
v 19815.531250 30968.951172 -272.497284
v 19794.478516 30936.511719 -200.666306
v 19794.400391 30936.121094 -369.135406
v 19795.441406 30937.992188 -370.666290
v 19815.531250 30968.951172 -200.666306
v 20141.679688 30736.468750 -370.666199
v 20151.210938 30751.160156 -272.497192
v 20130.169922 30718.718750 -200.666183
v 20130.089844 30718.328125 -369.135406
v 20131.128906 30720.199219 -370.666199
v 20151.210938 30751.160156 -200.666183
vt -1.021971 2.001424
vt 2.977629 2.001424
vt 2.977629 1.108993
vt -1.021971 1.108994
vt -1.021971 0.581097
vt 2.977630 0.581097
vt -1.021971 1.993160
vt 2.977629 1.993160
vt -1.021971 1.899918
vt 2.977629 1.695245
vt 2.977629 1.899918
vt -1.021971 1.695245
vt 2.977629 1.688305
vt -1.021971 1.688305
vt 2.977629 0.755510
vt -1.021971 0.755511
vt -1.021971 2.001424
vt 2.977629 2.001424
vt 2.977629 1.108993
vt -1.021971 1.108994
vt -1.021971 0.581097
vt 2.977630 0.581097
vt -1.021971 1.993160
vt 2.977629 1.993160
vt -1.021971 1.899918
vt 2.977629 1.695245
vt 2.977629 1.899918
vt -1.021971 1.695245
vt 2.977629 1.688305
vt -1.021971 1.688305
vt 2.977629 0.755510
vt -1.021971 0.755511
vt -1.021971 2.001424
vt 2.977629 2.001424
vt 2.977629 1.108993
vt -1.021971 1.108994
vt -1.021971 0.581097
vt 2.977630 0.581097
vt -1.021971 1.993160
vt 2.977629 1.993160
vt -1.021971 1.899918
vt 2.977629 1.695245
vt 2.977629 1.899918
vt -1.021971 1.695245
vt 2.977629 1.688305
vt -1.021971 1.688305
vt 2.977629 0.755510
vt -1.021971 0.755511
vt -1.021971 2.001424
vt 2.977629 2.001424
vt 2.977629 1.108993
vt -1.021971 1.108994
vt -1.021971 0.581097
vt 2.977630 0.581097
vt -1.021971 1.993160
vt 2.977629 1.993160
vt -1.021971 1.899918
vt 2.977629 1.695245
vt 2.977629 1.899918
vt -1.021971 1.695245
vt 2.977629 1.688305
vt -1.021971 1.688305
vt 2.977629 0.755510
vt -1.021971 0.755511
vt -1.021971 2.001424
vt 2.977629 2.001424
vt 2.977629 1.108993
vt -1.021971 1.108994
vt -1.021971 0.581097
vt 2.977630 0.581097
vt -1.021971 1.993160
vt 2.977629 1.993160
vt -1.021971 1.899918
vt 2.977629 1.695245
vt 2.977629 1.899918
vt -1.021971 1.695245
vt 2.977629 1.688305
vt -1.021971 1.688305
vt 2.977629 0.755510
vt -1.021971 0.755511
vn 0.5358 0.8259 -0.1756
vn 0.5358 0.8259 -0.1755
vn -0.5443 -0.8389 0.0022
vn -0.5443 -0.8389 0.0021
vn 0.0000 -0.0000 -1.0000
vn -0.3179 -0.4899 -0.8118
vn -0.3183 -0.4905 -0.8112
vn -0.3182 -0.4905 -0.8112
vn 0.5443 0.8389 0.0000
vn -0.3185 -0.4909 -0.8110
vn -0.3185 -0.4909 -0.8109
vn -0.3181 -0.4903 -0.8114
vn -0.3183 -0.4906 -0.8112
vn -0.3181 -0.4902 -0.8115
usemtl WallMat
s 1
f 1/1/1 3/2/1 2/3/1
f 1/1/2 2/3/2 4/4/2
f 5/5/3 7/6/4 6/7/3
f 8/8/4 6/7/3 7/6/4
f 1/9/5 9/10/5 3/11/5
f 9/10/5 1/9/5 10/12/5
f 8/13/6 10/12/7 6/14/8
f 10/12/7 8/13/6 9/10/6
f 11/15/9 12/16/9 2/3/9
f 4/4/9 2/3/9 12/16/9
f 13/17/2 1/18/2 4/19/2
f 13/17/2 4/19/2 14/20/2
f 15/21/4 5/22/3 16/23/4
f 6/24/3 16/23/4 5/22/3
f 13/25/5 10/26/5 1/27/5
f 10/26/5 13/25/5 17/28/5
f 6/29/8 17/28/10 16/30/11
f 17/28/10 6/29/8 10/26/7
f 12/31/9 18/32/9 4/19/9
f 14/20/9 4/19/9 18/32/9
f 19/33/2 13/34/2 14/35/2
f 19/33/2 14/35/2 20/36/2
f 21/37/4 15/38/4 22/39/4
f 16/40/4 22/39/4 15/38/4
f 19/41/5 17/42/5 13/43/5
f 17/42/5 19/41/5 23/44/5
f 16/45/11 23/44/8 22/46/12
f 23/44/8 16/45/11 17/42/10
f 18/47/9 24/48/9 14/35/9
f 20/36/9 14/35/9 24/48/9
f 25/49/1 19/50/2 20/51/2
f 25/49/1 20/51/2 26/52/1
f 27/53/3 21/54/4 28/55/3
f 22/56/4 28/55/3 21/54/4
f 25/57/5 23/58/5 19/59/5
f 23/58/5 25/57/5 29/60/5
f 22/61/12 29/60/13 28/62/13
f 29/60/13 22/61/12 23/58/8
f 24/63/9 30/64/9 20/51/9
f 26/52/9 20/51/9 30/64/9
f 31/65/1 25/66/1 26/67/1
f 31/65/1 26/67/1 32/68/1
f 33/69/3 27/70/3 34/71/3
f 28/72/3 34/71/3 27/70/3
f 31/73/5 29/74/5 25/75/5
f 29/74/5 31/73/5 35/76/5
f 28/77/13 35/76/14 34/78/14
f 35/76/14 28/77/13 29/74/13
f 30/79/9 36/80/9 26/67/9
f 32/68/9 26/67/9 36/80/9
