# Blender v3.4.1 OBJ File: 'track.blend'
# www.blender.org
mtllib _1WALL_small03_02_000_SUB0_Scene.345.mtl
o _1WALL_small03_02_000_SUB0_Scene.345
v -141.515594 -916.177490 -1.299252
v -141.359406 -915.177307 -1.299252
v -141.514008 -916.174072 0.385439
v -141.357895 -915.177551 0.385439
v -136.102707 -916.094116 -1.270561
v -136.245300 -916.998169 0.414130
v -136.104095 -916.093567 0.414130
v -136.244797 -917.002014 -1.270561
v -136.340195 -917.605286 0.414130
v -136.339706 -917.608948 -1.270561
v -136.391296 -917.688904 0.413730
v -136.390793 -917.692627 -1.270960
v -136.450302 -917.731873 0.413180
v -136.449799 -917.735657 -1.271510
v -136.545502 -917.755005 0.412215
v -136.544998 -917.758728 -1.272475
v -139.028000 -917.366211 0.385439
v -139.028503 -917.369812 -1.299253
v -134.701401 -907.132935 -1.292080
v -134.702805 -907.132629 0.392611
v -134.235703 -904.145752 0.385439
v -134.234299 -904.145813 -1.299252
v -135.636993 -913.106628 0.406957
v -135.635605 -913.107117 -1.277734
v -135.169907 -910.119568 0.399784
v -135.168503 -910.120117 -1.284907
v -141.584702 -916.626221 0.385439
v -141.586304 -916.629822 -1.299252
v -141.304398 -917.010620 0.385439
v -141.306000 -917.013977 -1.299252
v -141.446594 -916.923828 0.385439
v -141.448196 -916.927185 -1.299252
v -141.545502 -916.788208 0.385439
v -141.547104 -916.791626 -1.299252
vt 0.847843 1.999290
vt 0.847811 1.943389
vt 0.874319 1.999290
vt 0.874277 1.943389
vt 0.750371 1.999290
vt 0.750412 1.943389
vt 0.774582 1.943389
vt 0.774550 1.999290
vt 0.774582 1.943389
vt 0.774550 1.999290
vt 0.775694 1.943389
vt 0.775663 1.999290
vt 0.777227 1.943389
vt 0.777196 1.999290
vt 0.779914 1.943389
vt 0.779882 1.999290
vt 0.854475 1.943389
vt 0.854475 1.999290
vt 0.859023 1.999290
vt 0.763659 1.943389
vt 0.859178 1.943389
vt 0.763465 1.999290
vt 0.859614 1.999290
vt 0.764136 1.943389
vt 0.859655 1.943389
vt 0.764057 1.999290
vt 0.859389 1.999290
vt 0.763949 1.943389
vt 0.859468 1.943389
vt 0.763831 1.999290
vt 0.859248 1.999290
vt 0.763846 1.943389
vt 0.859366 1.943389
vt 0.763691 1.999290
vt 0.847812 1.943389
vt 0.847843 1.999290
vt 0.837906 1.943389
vt 0.770051 1.999290
vt 0.770051 1.943389
vt 0.837937 1.999290
vt 0.842438 1.943389
vt 0.842469 1.999290
vt 0.845934 1.943389
vt 0.845966 1.999290
vn -0.9880 0.1544 0.0006
vn -0.9880 0.1545 0.0007
vn -0.9879 0.1548 0.0009
vn 0.9880 -0.1545 0.0008
vn 0.9880 -0.1544 0.0009
vn 0.9880 -0.1544 0.0007
vn 0.9880 -0.1545 0.0006
vn 0.9389 -0.3443 0.0010
vn 0.9386 -0.3449 0.0010
vn 0.7368 -0.6761 0.0017
vn 0.7349 -0.6782 0.0017
vn 0.4230 -0.9061 0.0022
vn 0.4194 -0.9078 0.0021
vn 0.0427 -0.9991 0.0023
vn 0.0399 -0.9992 0.0022
vn -0.1545 -0.9880 0.0021
vn 0.9880 -0.1545 0.0009
vn -0.9992 -0.0410 0.0010
vn -0.9991 -0.0416 0.0010
vn -0.3447 -0.9387 0.0021
vn -0.3443 -0.9388 0.0023
vn -0.6775 -0.7355 0.0021
vn -0.6771 -0.7359 0.0021
vn -0.9074 -0.4203 0.0017
vn -0.9074 -0.4202 0.0017
usemtl EnvironmentMat
s 1
f 1/1/1 3/2/2 2/3/2
f 2/3/2 3/2/2 4/4/3
f 5/5/4 7/6/5 6/7/6
f 6/7/6 8/8/7 5/5/4
f 8/8/7 6/7/6 9/9/8
f 9/9/8 10/10/9 8/8/7
f 10/10/9 9/9/8 11/11/10
f 11/11/10 12/12/11 10/10/9
f 12/12/11 11/11/10 13/13/12
f 13/13/12 14/14/13 12/12/11
f 15/15/14 14/14/13 13/13/12
f 14/14/13 15/15/14 16/16/15
f 17/17/16 16/16/15 15/15/14
f 16/16/15 17/17/16 18/18/16
f 19/19/17 21/20/4 20/21/17
f 21/20/4 19/19/17 22/22/4
f 5/23/4 23/24/17 7/25/5
f 23/24/17 5/23/4 24/26/17
f 24/27/17 25/28/17 23/29/17
f 25/28/17 24/27/17 26/30/17
f 26/31/17 20/32/17 25/33/17
f 20/32/17 26/31/17 19/34/17
f 1/1/1 27/35/18 3/2/2
f 27/35/18 1/1/1 28/36/19
f 29/37/20 18/38/16 17/39/16
f 18/38/16 29/37/20 30/40/21
f 30/40/21 29/37/20 31/41/22
f 31/41/22 32/42/23 30/40/21
f 32/42/23 31/41/22 33/43/24
f 33/43/24 34/44/25 32/42/23
f 33/43/24 28/36/19 34/44/25
f 28/36/19 33/43/24 27/35/18
