# Blender v3.4.1 OBJ File: 'track.blend'
# www.blender.org
mtllib _1WALL_tires01_01_002_Scene.376.mtl
o _1WALL_tires01_01_002_Scene.376
v -43.127098 744.692078 -6.926426
v -44.855629 745.683716 -6.972986
v -44.539379 744.291443 -6.870012
v -43.460911 746.079224 -6.986681
v -45.262405 747.139526 -7.067579
v -43.893082 747.624817 -7.048618
v -45.849236 748.612488 -7.157249
v -44.512630 749.203247 -7.181561
v -45.340279 750.746399 -7.335037
v -46.636669 750.049377 -7.266306
v -46.206829 752.078918 -7.410161
v -47.449890 751.296143 -7.371096
v -48.290760 752.642395 -7.481997
v -47.082527 753.485291 -7.582143
v -48.001011 754.676575 -7.606561
v -49.162746 753.780518 -7.569332
v -48.982586 755.754578 -7.689988
v -50.097977 754.811096 -7.635315
v -50.121670 756.811768 -7.707110
v -51.193401 755.825073 -7.678378
v -51.166077 757.697876 -7.764489
v -52.199970 756.677063 -7.703188
v -52.260960 758.699036 -7.762069
v -53.307728 757.629028 -7.731575
v -52.600819 756.367859 -7.703188
v -53.376820 759.622009 -7.860816
v -54.364262 758.562866 -7.758100
v -55.448006 759.582581 -7.787796
v -54.465355 760.646057 -7.818764
v -55.659340 761.154724 -7.833578
v -56.255371 761.086304 -7.831581
v -56.925308 760.359375 -7.810415
v -55.952381 761.245605 -7.836220
v -43.044685 744.718201 -6.854683
v -43.041565 744.750000 -5.773779
v -43.377369 746.135376 -5.873103
v -43.378407 746.104980 -6.914474
v -43.812645 747.684814 -5.969130
v -43.813030 747.655518 -6.976193
v -44.434799 749.270630 -6.067442
v -44.436199 749.239685 -7.109547
v -45.260105 750.822510 -6.187045
v -45.263901 750.789978 -7.263348
v -46.103596 752.170898 -6.300006
v -46.130741 752.128479 -7.339638
v -46.985809 753.580872 -6.411842
v -47.009056 753.538330 -7.511419
v -47.910629 754.771790 -6.495610
v -47.930470 754.732422 -7.535588
v -48.898670 755.851624 -6.556274
v -48.915188 755.813171 -7.618647
v -50.043987 756.908875 -6.593427
v -50.057156 756.872620 -7.635452
v -51.094379 757.796326 -6.619264
v -51.104206 757.760620 -7.692884
v -52.201118 758.763184 -7.690505
v -52.194649 758.796387 -6.648386
v -53.315281 759.720520 -6.675299
v -53.318401 759.686829 -7.789270
v -54.407471 760.710754 -7.747219
v -54.406849 760.741211 -6.705022
v -55.611820 761.259888 -6.720122
v -55.612190 761.229492 -7.762320
v -55.948730 761.364075 -6.723158
v -55.949032 761.333679 -7.765356
v -56.296951 761.180969 -6.717826
v -56.297241 761.150513 -7.760024
v -56.978226 760.441772 -6.696300
v -56.978558 760.411377 -7.738497
v -43.746342 735.292236 -6.328469
v -43.744888 735.322571 -5.303578
v -42.904846 735.335083 -5.301904
v -42.906300 735.304810 -6.341689
v -42.924412 735.375671 -6.415262
v -43.747540 735.363525 -6.402426
v -42.488022 735.539185 -6.412915
v -42.422039 735.486084 -6.339730
v -42.420589 735.516479 -5.298688
v -42.311951 735.920715 -6.415147
v -42.226658 735.909424 -6.342324
v -42.240257 736.818726 -6.356141
v -42.225208 735.939819 -5.301105
v -42.325325 736.815430 -6.428382
v -42.238796 736.849121 -5.314587
v -42.293739 738.372620 -5.363515
v -42.380180 738.333862 -6.522793
v -42.295250 738.341064 -6.450424
v -42.434761 739.821228 -5.434331
v -42.436111 739.790833 -6.475283
v -42.521019 739.782471 -6.547523
v -42.555046 741.410522 -5.532746
v -42.640617 741.367188 -6.610428
v -42.556480 741.381226 -6.538552
v -42.749722 743.082458 -5.650715
v -42.834370 743.030701 -6.763090
v -42.752678 743.051880 -6.691456
v -43.768929 736.793884 -6.431737
v -43.821220 738.249268 -6.482243
v -43.963032 739.675659 -6.549911
v -44.084587 741.166382 -6.641103
v -44.271736 742.707275 -6.750634
v -43.504890 735.610779 -6.326951
v -43.589798 735.602417 -6.399191
v -43.448959 734.153625 -6.374462
v -43.364029 734.160828 -6.302091
v -43.309036 732.638672 -6.207810
v -43.503540 735.641052 -5.285999
v -43.362518 734.192627 -5.215183
v -43.394112 732.635315 -6.280050
v -43.307590 732.668884 -5.166256
v -43.293987 731.759583 -5.152772
v -43.380741 731.740479 -6.266815
v -43.295437 731.729370 -6.193993
v -43.489368 731.336365 -5.150355
v -43.490818 731.305969 -6.191397
v -43.556801 731.359070 -6.264584
v -43.973625 731.154968 -5.153572
v -43.975079 731.124573 -6.193358
v -43.993187 731.195618 -6.266930
v -44.815121 731.112122 -6.180136
v -44.813671 731.142456 -5.155246
v -44.816319 731.183289 -6.254093
v -45.031811 735.495605 -6.401580
v -44.890007 734.069214 -6.333910
v -44.837708 732.613708 -6.283405
v -45.414688 735.066223 -5.402040
v -45.416039 735.038025 -6.358932
v -45.417156 735.104370 -6.427982
v -45.186707 736.714722 -6.461921
v -45.276489 738.081787 -6.509077
v -45.408875 739.438171 -6.572255
v -45.645237 740.870911 -6.657397
v -45.877308 742.325989 -6.759662
v -46.143570 743.837769 -6.871119
v -46.528931 745.121216 -6.967260
v -46.859577 746.447571 -7.055577
v -47.415668 747.839417 -7.139298
v -47.954388 749.334656 -7.243418
v -48.537346 750.688904 -7.346227
v -49.427528 751.912170 -7.456674
v -50.221966 753.030518 -7.541361
v -50.993225 754.116455 -7.608417
v -51.824131 755.286316 -7.657414
vt 3.233827 1.400254
vt 3.231881 1.848436
vt 2.733541 1.848436
vt 2.735264 1.398177
vt 2.235206 1.848436
vt 2.236799 1.395607
vt 1.736874 1.848436
vt 1.738335 1.393769
vt 1.239884 1.391568
vt 1.238546 1.848436
vt 0.741433 1.390068
vt 0.740220 1.848436
vt 0.241897 1.848436
vt 0.242719 1.387836
vt -0.255996 1.387798
vt -0.256425 1.848436
vt -0.754358 1.387136
vt -0.754746 1.848436
vt -1.252719 1.386731
vt -1.253066 1.848436
vt -1.751137 1.386100
vt -1.751385 1.848436
vt -2.249555 1.386050
vt -2.249704 1.848436
vt -1.751385 1.848436
vt -2.748419 1.385076
vt -2.748023 1.848436
vt -3.246341 1.848436
vt -3.247282 1.387151
vt -3.600176 1.388076
vt -3.728570 1.534263
vt -3.727929 1.848436
vt -3.691087 1.431032
vt 5.223313 1.346519
vt 4.726567 1.002944
vt 5.223312 1.002943
vt 4.726567 1.346520
vt 4.229865 1.002944
vt 4.726567 1.384310
vt 5.223313 1.384310
vt 4.229865 1.384311
vt 4.229865 1.346521
vt 3.733164 1.002945
vt 3.733165 1.384312
vt 3.733165 1.346522
vt 3.236466 1.002946
vt 3.236466 1.346522
vt 3.236466 1.384313
vt 2.739767 1.002947
vt 2.739767 1.346523
vt 2.739767 1.384313
vt 2.242934 1.002947
vt 2.242934 1.384314
vt 2.242934 1.346524
vt 1.746100 1.002948
vt 1.746101 1.346525
vt 1.746101 1.384315
vt 1.249441 1.002949
vt 1.249441 1.346526
vt 1.249441 1.384316
vt 0.752782 1.002949
vt 0.752782 1.346526
vt 0.752782 1.384316
vt 0.256093 1.002950
vt 0.256093 1.346527
vt 0.256093 1.384317
vt -0.240595 1.346528
vt -0.240596 1.002951
vt -0.240595 1.384318
vt -0.737506 1.002952
vt -0.737506 1.346529
vt -0.737505 1.384319
vt -1.234416 1.384320
vt -1.234416 1.346529
vt -1.234416 1.002952
vt -1.589288 1.002953
vt -1.589288 1.346530
vt -1.589287 1.384320
vt -1.697211 1.002953
vt -1.697211 1.346530
vt -1.697210 1.384320
vt -1.805134 1.002953
vt -1.805134 1.346530
vt -1.981470 1.002954
vt -1.805134 1.384320
vt -1.981470 1.346531
vt -1.981470 1.384321
vt 6.431076 1.346518
vt 6.300831 1.002942
vt 6.431075 1.002941
vt 6.300831 1.346518
vt 6.300831 1.384308
vt 6.431076 1.384308
vt 6.157632 1.384308
vt 6.157632 1.346518
vt 6.157631 1.002942
vt 6.014432 1.384308
vt 6.014432 1.346518
vt 5.720059 1.346519
vt 6.014432 1.002942
vt 5.720059 1.384309
vt 5.720058 1.002942
vt 5.223312 1.002943
vt 5.223313 1.384310
vt 5.223313 1.346519
vt 4.726567 1.002944
vt 4.726567 1.346520
vt 4.726567 1.384310
vt 4.229865 1.002944
vt 4.229865 1.384311
vt 4.229865 1.346521
vt 3.733164 1.002945
vt 3.733165 1.384312
vt 3.733165 1.346522
vt 3.236466 1.002946
vt 3.236466 1.384313
vt 3.236466 1.346522
vt 3.730222 1.848436
vt 4.198616 1.604659
vt 4.197377 1.848436
vt 4.024599 1.405331
vt 4.148033 1.464149
vt 3.732390 1.403569
vt 3.231881 1.848436
vt 3.233827 1.400254
vt 2.735264 1.398177
vt 2.733541 1.848436
vt 2.235206 1.848436
vt 2.236799 1.395607
vt 1.736874 1.848436
vt 1.738335 1.393769
vt 1.238546 1.848436
vt 1.239884 1.391568
vt 4.726567 1.346520
vt 5.223313 1.384310
vt 4.726567 1.384310
vt 5.223313 1.346519
vt 5.720059 1.346519
vt 4.726567 1.002944
vt 5.223312 1.002943
vt 5.720059 1.384309
vt 5.720058 1.002942
vt 6.014432 1.002942
vt 6.014432 1.384308
vt 6.014432 1.346518
vt 6.157631 1.002942
vt 6.157632 1.346518
vt 6.157632 1.384308
vt 6.300831 1.002942
vt 6.300831 1.346518
vt 6.300831 1.384308
vt 6.431076 1.346518
vt 6.431075 1.002941
vt 6.431076 1.384308
vt 2.735264 1.398177
vt 3.231881 1.848436
vt 2.733541 1.848436
vt 3.233827 1.400254
vt 3.732390 1.403569
vt 3.730222 1.848436
vt 4.024599 1.405331
vt 4.198616 1.604659
vt 4.148033 1.464149
vt 4.197377 1.848436
vt 4.161347 1.848436
vt 4.500877 1.848436
vt 4.498219 1.390248
vt 4.158797 1.390248
vt 4.122823 1.390248
vt 4.125362 1.848436
vt 3.674220 1.390248
vt 3.676615 1.848436
vt 3.194818 1.390248
vt 3.197062 1.848436
vt 2.731445 1.390248
vt 2.233268 1.390248
vt 1.710071 1.390248
vt 1.711842 1.848436
vt 1.177802 1.390248
vt 1.179404 1.848436
vt 0.720398 1.390248
vt 0.721855 1.848436
vt 0.217215 1.390248
vt 0.218512 1.848436
vt -0.313668 1.390248
vt -0.312540 1.848436
vt -0.862743 1.390248
vt -0.861790 1.848436
vt -1.361482 1.390248
vt -1.360687 1.848436
vt -1.888303 1.848436
vt -1.888930 1.390248
vt -2.364115 1.848436
vt -2.364590 1.390248
vt -2.825814 1.848436
vt -2.826143 1.390248
vt -3.318893 1.848436
vt -3.319065 1.390248
vt -3.758211 1.848436
vt -3.758243 1.390248
vn 0.3443 0.0038 -0.9388
vn 0.0078 -0.0722 -0.9974
vn 0.0115 -0.0592 -0.9982
vn 0.3418 0.0427 -0.9388
vn 0.0185 -0.0563 -0.9982
vn 0.3547 0.0613 -0.9330
vn 0.0161 -0.0674 -0.9976
vn 0.3436 0.0791 -0.9358
vn 0.3105 0.1097 -0.9442
vn 0.0103 -0.0721 -0.9973
vn 0.2969 0.1052 -0.9491
vn 0.0115 -0.0773 -0.9969
vn 0.0079 -0.0734 -0.9973
vn 0.2872 0.1295 -0.9491
vn 0.2682 0.1745 -0.9474
vn 0.0062 -0.0594 -0.9982
vn 0.2508 0.2030 -0.9465
vn 0.0038 -0.0479 -0.9988
vn 0.2327 0.2260 -0.9459
vn 0.0006 -0.0391 -0.9992
vn 0.2218 0.2229 -0.9493
vn 0.0005 -0.0309 -0.9995
vn 0.2338 0.2267 -0.9455
vn -0.0039 -0.0445 -0.9990
vn 0.0086 -0.0240 -0.9997
vn 0.2160 0.2160 -0.9522
vn -0.0163 -0.0476 -0.9987
vn -0.0160 -0.0299 -0.9994
vn 0.1888 0.3024 -0.9343
vn 0.1238 0.3149 -0.9410
vn -0.2532 0.2991 -0.9200
vn -0.3073 0.2565 -0.9164
vn -0.0526 0.3911 -0.9188
vn 0.8906 0.1560 -0.4272
vn 0.9678 0.2517 -0.0087
vn 0.9793 0.2024 -0.0084
vn 0.8802 0.2116 -0.4248
vn 0.9485 0.3166 -0.0097
vn 0.8698 0.2668 -0.4149
vn 0.9092 0.4163 -0.0134
vn 0.8373 0.3486 -0.4212
vn 0.8648 0.5015 -0.0235
vn 0.7896 0.4281 -0.4396
vn 0.8467 0.5308 -0.0360
vn 0.7734 0.4496 -0.4468
vn 0.8220 0.5681 -0.0403
vn 0.7443 0.4846 -0.4595
vn 0.7662 0.6414 -0.0385
vn 0.6961 0.5635 -0.4449
vn 0.7099 0.7033 -0.0372
vn 0.6453 0.6172 -0.4502
vn 0.6631 0.7478 -0.0343
vn 0.6042 0.6642 -0.4403
vn 0.6602 0.7504 -0.0311
vn 0.5966 0.6643 -0.4503
vn 0.6018 0.6721 -0.4314
vn 0.6556 0.7546 -0.0280
vn 0.6610 0.7500 -0.0248
vn 0.5965 0.6630 -0.4524
vn 0.4992 0.7592 -0.4177
vn 0.5478 0.8362 -0.0252
vn 0.3461 0.9378 -0.0276
vn 0.3180 0.8445 -0.4309
vn -0.0919 0.9953 -0.0291
vn -0.0788 0.9089 -0.4095
vn -0.6094 0.7925 -0.0230
vn -0.5643 0.7255 -0.3941
vn -0.7354 0.6773 -0.0196
vn -0.6797 0.6148 -0.4000
vn 0.0788 -0.9288 -0.3620
vn 0.1867 -0.9820 0.0286
vn 0.0811 -0.9963 0.0295
vn 0.1730 -0.9183 -0.3560
vn 0.0720 -0.4168 -0.9062
vn 0.0364 -0.3856 -0.9220
vn 0.2768 -0.3276 -0.9034
vn 0.6347 -0.6783 -0.3703
vn 0.6841 -0.7291 0.0203
vn 0.3763 -0.0947 -0.9216
vn 0.8977 -0.1939 -0.3956
vn 0.9103 0.0074 -0.4139
vn 0.9788 -0.2046 0.0046
vn 0.3468 -0.0236 -0.9376
vn 0.9997 0.0255 -0.0021
vn 0.9978 0.0661 -0.0033
vn 0.3440 -0.0146 -0.9388
vn 0.9051 0.0435 -0.4229
vn 0.9963 0.0861 -0.0038
vn 0.9048 0.0663 -0.4207
vn 0.3440 -0.0040 -0.9390
vn 0.9955 0.0949 -0.0042
vn 0.3614 -0.0266 -0.9320
vn 0.9088 0.0606 -0.4128
vn 0.9897 0.1431 -0.0068
vn 0.3582 -0.0312 -0.9331
vn 0.9041 0.0933 -0.4169
vn 0.0076 -0.0298 -0.9995
vn 0.0055 -0.0403 -0.9992
vn 0.0131 -0.0462 -0.9988
vn 0.0206 -0.0631 -0.9978
vn 0.0159 -0.0760 -0.9970
vn 0.9029 0.0805 -0.4221
vn 0.3440 -0.0146 -0.9389
vn 0.3345 0.0083 -0.9423
vn 0.9049 0.0435 -0.4233
vn 0.9102 0.0074 -0.4141
vn 0.9953 0.0967 -0.0041
vn 0.9788 -0.2047 0.0046
vn 0.3764 -0.0947 -0.9216
vn 0.8978 -0.1938 -0.3956
vn 0.6349 -0.6783 -0.3699
vn 0.2767 -0.3273 -0.9035
vn 0.1867 -0.9820 0.0285
vn 0.1729 -0.9183 -0.3562
vn 0.0724 -0.4169 -0.9061
vn 0.0082 -0.9339 -0.3573
vn 0.0150 -0.9995 0.0292
vn -0.0008 -0.3987 -0.9171
vn -0.0111 -0.0412 -0.9991
vn -0.0110 -0.0332 -0.9994
vn -0.0061 -0.0316 -0.9995
vn 0.1500 -0.9883 0.0289
vn 0.1472 -0.9250 -0.3503
vn 0.0836 -0.4462 -0.8910
vn 0.0218 -0.0272 -0.9994
vn 0.0228 -0.0391 -0.9990
vn 0.0232 -0.0507 -0.9984
vn 0.0230 -0.0618 -0.9978
vn 0.0220 -0.0688 -0.9974
vn 0.0209 -0.0697 -0.9974
vn 0.0190 -0.0650 -0.9977
vn 0.0169 -0.0576 -0.9982
vn 0.0173 -0.0584 -0.9981
vn 0.0187 -0.0665 -0.9976
vn 0.0194 -0.0709 -0.9973
vn 0.0194 -0.0672 -0.9975
vn 0.0148 -0.0581 -0.9982
vn 0.0067 -0.0473 -0.9989
vn 0.0033 -0.0363 -0.9993
usemtl TiresMat
s 1
f 1/1/1 3/2/2 2/3/3
f 1/1/1 2/3/3 4/4/4
f 4/4/4 2/3/3 5/5/5
f 4/4/4 5/5/5 6/6/6
f 6/6/6 5/5/5 7/7/7
f 6/6/6 7/7/7 8/8/8
f 7/7/7 9/9/9 8/8/8
f 9/9/9 7/7/7 10/10/10
f 10/10/10 11/11/11 9/9/9
f 11/11/11 10/10/10 12/12/12
f 13/13/13 11/11/11 12/12/12
f 11/11/11 13/13/13 14/14/14
f 13/13/13 15/15/15 14/14/14
f 15/15/15 13/13/13 16/16/16
f 16/16/16 17/17/17 15/15/15
f 17/17/17 16/16/16 18/18/18
f 18/18/18 19/19/19 17/17/17
f 19/19/19 18/18/18 20/20/20
f 20/20/20 21/21/21 19/19/19
f 21/21/21 20/20/20 22/22/22
f 22/22/22 23/23/23 21/21/21
f 23/23/23 22/22/22 24/24/24
f 24/24/24 22/22/22 25/25/25
f 24/24/24 26/26/26 23/23/23
f 26/26/26 24/24/24 27/27/27
f 28/28/28 26/26/26 27/27/27
f 26/26/26 28/28/28 29/29/29
f 30/30/30 29/29/29 28/28/28
f 31/31/31 30/30/30 28/28/28
f 31/31/31 28/28/28 32/32/32
f 30/30/30 31/31/31 33/33/33
f 34/34/34 36/35/35 35/36/36
f 37/37/37 36/35/35 34/34/34
f 37/37/37 38/38/38 36/35/35
f 34/34/34 4/39/4 37/37/37
f 4/39/4 34/34/34 1/40/1
f 6/41/6 37/37/37 4/39/4
f 39/42/39 38/38/38 37/37/37
f 37/37/37 6/41/6 39/42/39
f 39/42/39 40/43/40 38/38/38
f 8/44/8 39/42/39 6/41/6
f 41/45/41 40/43/40 39/42/39
f 39/42/39 8/44/8 41/45/41
f 41/45/41 42/46/42 40/43/40
f 8/44/8 43/47/43 41/45/41
f 43/47/43 42/46/42 41/45/41
f 43/47/43 8/44/8 9/48/9
f 43/47/43 44/49/44 42/46/42
f 9/48/9 45/50/45 43/47/43
f 45/50/45 44/49/44 43/47/43
f 45/50/45 9/48/9 11/51/11
f 45/50/45 46/52/46 44/49/44
f 14/53/14 45/50/45 11/51/11
f 47/54/47 46/52/46 45/50/45
f 45/50/45 14/53/14 47/54/47
f 47/54/47 48/55/48 46/52/46
f 14/53/14 49/56/49 47/54/47
f 48/55/48 47/54/47 49/56/49
f 49/56/49 14/53/14 15/57/15
f 49/56/49 50/58/50 48/55/48
f 15/57/15 51/59/51 49/56/49
f 51/59/51 50/58/50 49/56/49
f 51/59/51 15/57/15 17/60/17
f 51/59/51 52/61/52 50/58/50
f 17/60/17 53/62/53 51/59/51
f 52/61/52 51/59/51 53/62/53
f 53/62/53 17/60/17 19/63/19
f 53/62/53 54/64/54 52/61/52
f 55/65/55 53/62/53 19/63/19
f 55/65/55 54/64/54 53/62/53
f 55/65/55 19/63/19 21/66/21
f 56/67/56 54/64/54 55/65/55
f 56/67/56 55/65/55 21/66/21
f 54/64/54 56/67/56 57/68/57
f 56/67/56 21/66/21 23/69/23
f 56/67/56 58/70/58 57/68/57
f 59/71/59 56/67/56 23/69/23
f 59/71/59 58/70/58 56/67/56
f 59/71/59 23/69/23 26/72/26
f 29/73/29 59/71/59 26/72/26
f 60/74/60 58/70/58 59/71/59
f 59/71/59 29/73/29 60/74/60
f 58/70/58 60/74/60 61/75/61
f 60/74/60 62/76/62 61/75/61
f 63/77/63 60/74/60 29/73/29
f 63/77/63 62/76/62 60/74/60
f 63/77/63 29/73/29 30/78/30
f 63/77/63 64/79/64 62/76/62
f 65/80/65 63/77/63 30/78/30
f 64/79/64 63/77/63 65/80/65
f 65/80/65 30/78/30 33/81/33
f 65/80/65 66/82/66 64/79/64
f 33/81/33 67/83/67 65/80/65
f 66/82/66 65/80/65 67/83/67
f 67/83/67 68/84/68 66/82/66
f 33/81/33 31/85/31 67/83/67
f 69/86/69 68/84/68 67/83/67
f 31/85/31 69/86/69 67/83/67
f 31/85/31 32/87/32 69/86/69
f 70/88/70 72/89/71 71/90/72
f 73/91/73 72/89/71 70/88/70
f 70/88/70 74/92/74 73/91/73
f 74/92/74 70/88/70 75/93/75
f 76/94/76 73/91/73 74/92/74
f 72/89/71 73/91/73 77/95/77
f 73/91/73 76/94/76 77/95/77
f 77/95/77 78/96/78 72/89/71
f 79/97/79 77/95/77 76/94/76
f 78/96/78 77/95/77 80/98/80
f 77/95/77 79/97/79 80/98/80
f 81/99/81 80/98/80 79/97/79
f 80/98/80 82/100/82 78/96/78
f 81/99/81 82/100/82 80/98/80
f 79/97/79 83/101/83 81/99/81
f 82/100/82 81/99/81 84/102/84
f 81/99/81 85/103/85 84/102/84
f 86/104/86 81/99/81 83/101/83
f 87/105/87 85/103/85 81/99/81
f 81/99/81 86/104/86 87/105/87
f 87/105/87 88/106/88 85/103/85
f 86/104/86 89/107/89 87/105/87
f 88/106/88 87/105/87 89/107/89
f 89/107/89 86/104/86 90/108/90
f 89/107/89 91/109/91 88/106/88
f 92/110/92 89/107/89 90/108/90
f 93/111/93 91/109/91 89/107/89
f 89/107/89 92/110/92 93/111/93
f 93/111/93 94/112/94 91/109/91
f 95/113/95 93/111/93 92/110/92
f 96/114/96 94/112/94 93/111/93
f 93/111/93 95/113/95 96/114/96
f 96/114/96 35/115/36 94/112/94
f 1/116/1 96/114/96 95/113/95
f 34/117/34 35/115/36 96/114/96
f 96/114/96 1/116/1 34/117/34
f 97/118/97 74/119/74 75/120/75
f 79/121/79 74/119/74 97/118/97
f 74/119/74 79/121/79 76/122/76
f 79/121/79 97/118/97 83/123/83
f 97/118/97 98/124/98 83/123/83
f 98/124/98 86/125/86 83/123/83
f 98/124/98 90/126/90 86/125/86
f 90/126/90 98/124/98 99/127/99
f 90/126/90 99/127/99 100/128/100
f 100/128/100 92/129/92 90/126/90
f 92/129/92 100/128/100 101/130/101
f 101/130/101 95/131/95 92/129/92
f 95/131/95 101/130/101 3/132/2
f 3/132/2 1/133/1 95/131/95
f 102/134/102 104/135/103 103/136/104
f 104/135/103 102/134/102 105/137/105
f 106/138/106 104/135/103 105/137/105
f 107/139/107 105/137/105 102/134/102
f 105/137/105 107/139/107 108/140/85
f 105/137/105 108/140/85 106/138/106
f 104/135/103 106/138/106 109/141/83
f 106/138/106 108/140/85 110/142/84
f 111/143/108 106/138/106 110/142/84
f 112/144/109 109/141/83 106/138/106
f 106/138/106 111/143/108 113/145/110
f 106/138/106 113/145/110 112/144/109
f 113/145/110 111/143/108 114/146/78
f 115/147/111 112/144/109 113/145/110
f 114/146/78 115/147/111 113/145/110
f 112/144/109 115/147/111 116/148/112
f 115/147/111 114/146/78 117/149/113
f 118/150/114 116/148/112 115/147/111
f 117/149/113 118/150/114 115/147/111
f 116/148/112 118/150/114 119/151/115
f 118/150/114 117/149/113 120/152/116
f 120/152/116 119/151/115 118/150/114
f 120/152/116 117/149/113 121/153/117
f 119/151/115 120/152/116 122/154/118
f 103/155/104 124/156/119 123/157/120
f 124/156/119 103/155/104 104/158/103
f 124/156/119 104/158/103 109/159/83
f 125/160/121 124/156/119 109/159/83
f 112/161/109 125/160/121 109/159/83
f 112/161/109 119/162/115 125/160/121
f 119/162/115 112/161/109 116/163/112
f 125/160/121 119/162/115 122/164/118
f 70/165/70 71/166/72 126/167/122
f 127/168/123 70/165/70 126/167/122
f 128/169/124 70/165/70 127/168/123
f 70/165/70 128/169/124 75/170/75
f 129/171/125 75/170/75 128/169/124
f 75/170/75 129/171/125 97/172/97
f 130/173/126 97/172/97 129/171/125
f 97/172/97 130/173/126 98/174/98
f 131/175/127 98/174/98 130/173/126
f 98/174/98 131/175/127 99/127/99
f 132/176/128 99/127/99 131/175/127
f 99/127/99 132/176/128 100/128/100
f 133/177/129 100/128/100 132/176/128
f 100/128/100 133/177/129 101/178/101
f 134/179/130 101/178/101 133/177/129
f 101/178/101 134/179/130 3/180/2
f 135/181/131 3/180/2 134/179/130
f 3/180/2 135/181/131 2/182/3
f 136/183/132 2/182/3 135/181/131
f 2/182/3 136/183/132 5/184/5
f 137/185/133 5/184/5 136/183/132
f 5/184/5 137/185/133 7/186/7
f 138/187/134 7/186/7 137/185/133
f 7/186/7 138/187/134 10/188/10
f 139/189/135 10/188/10 138/187/134
f 10/188/10 139/189/135 12/190/12
f 139/189/135 13/191/13 12/190/12
f 13/191/13 139/189/135 140/192/136
f 140/192/136 16/193/16 13/191/13
f 16/193/16 140/192/136 141/194/137
f 141/194/137 18/195/18 16/193/16
f 18/195/18 141/194/137 142/196/138
f 18/195/18 142/196/138 20/197/20
f 20/197/20 142/196/138 143/198/139
f 22/199/22 20/197/20 143/198/139
f 22/199/22 143/198/139 25/200/25
