# Blender v3.4.1 OBJ File: 'track.blend'
# www.blender.org
mtllib _1WALL_tires01_03_Scene.379.mtl
o _1WALL_tires01_03_Scene.379
v 184.504898 318.176910 -3.547321
v 184.504898 318.176910 -2.504680
v 183.993301 317.379791 -2.504680
v 183.993301 317.379791 -3.547321
v 184.062805 317.351898 -3.620721
v 184.566406 318.136810 -3.620721
v 183.987198 316.948792 -3.620721
v 183.909485 316.932404 -3.547321
v 183.909485 316.932404 -2.504680
v 184.166504 316.556702 -3.547322
v 184.166504 316.556702 -2.504680
v 184.218903 316.610199 -3.620721
v 184.928497 316.059601 -2.504680
v 184.928497 316.059601 -3.547322
v 184.968582 316.121094 -3.620721
v 186.247299 315.286987 -3.666399
v 186.207199 315.225494 -2.504681
v 186.207199 315.225494 -3.592999
v 187.525894 314.452789 -3.620722
v 187.485794 314.391388 -3.547322
v 188.764481 313.557190 -3.512162
v 187.485794 314.391388 -2.504681
v 188.804581 313.618713 -3.585562
v 188.764481 313.557190 -2.504681
v 190.043198 312.723083 -2.504681
v 190.083298 312.784485 -3.620722
v 190.043198 312.723083 -3.547322
v 191.321793 311.888885 -2.504681
v 191.321793 311.888885 -3.581820
v 192.600479 311.054810 -3.547322
v 191.361893 311.950409 -3.655219
v 192.600479 311.054810 -2.504681
v 192.640579 311.116302 -3.620722
v 193.879105 310.220612 -2.504681
v 193.919189 310.282104 -3.681663
v 193.879105 310.220612 -3.608262
v 195.197906 309.447998 -3.620723
v 195.157806 309.386505 -3.547323
v 196.476593 308.613800 -3.641917
v 196.436401 308.552399 -3.568518
v 197.715088 307.718201 -3.547323
v 197.755188 307.779694 -3.620723
v 199.033905 306.945587 -3.652285
v 198.993805 306.884094 -3.578885
v 200.396896 305.972992 -3.547323
v 200.436981 306.034485 -3.620723
v 199.419601 304.909393 -3.620722
v 200.698303 304.075287 -3.655221
v 201.494705 305.309113 -3.620722
v 200.216095 306.143188 -3.620722
v 198.141006 305.743591 -3.585563
v 198.937393 306.977295 -3.620722
v 196.862305 306.577698 -3.620722
v 197.658707 307.811462 -3.620722
v 195.583694 307.411804 -3.666400
v 196.380096 308.645599 -3.620721
v 194.304993 308.246002 -3.620721
v 195.101379 309.479797 -3.620721
v 193.555206 308.735107 -3.620721
v 193.399200 309.476776 -3.620721
v 193.902786 310.261658 -3.620722
v 193.323593 309.073608 -3.620721
v 201.233398 307.268188 -3.620723
v 199.830307 308.179413 -3.620723
v 198.551590 309.013489 -3.620723
v 197.272980 309.847595 -3.620722
v 195.994293 310.681793 -3.620722
v 194.715698 311.515900 -3.620722
v 193.436981 312.350006 -3.620722
v 192.158295 313.184204 -3.620722
v 190.879700 314.018311 -3.620722
v 189.600998 314.852386 -3.620722
v 188.322296 315.686615 -3.620721
v 187.043701 316.520813 -3.620721
v 185.764999 317.354889 -3.620721
v 193.841278 310.301788 -3.547323
v 193.841278 310.301788 -2.504681
v 193.329681 309.504700 -2.504681
v 193.329681 309.504700 -3.547323
v 193.245895 309.057312 -3.547323
v 193.245895 309.057312 -2.504681
v 193.502884 308.681580 -3.547322
v 193.502884 308.681580 -2.504681
v 194.264877 308.184509 -2.504681
v 194.264877 308.184509 -3.547322
v 195.543594 307.350403 -2.504681
v 195.543594 307.350403 -3.593000
v 196.822205 306.516205 -3.547322
v 198.100891 305.682068 -3.512163
v 196.822205 306.516205 -2.504681
v 198.100891 305.682068 -2.504681
v 199.379486 304.847870 -2.504681
v 199.379486 304.847870 -3.547323
v 200.658203 304.013794 -2.504681
v 200.658203 304.013794 -3.581820
vt 6.431076 1.346518
vt 6.300831 1.002942
vt 6.431075 1.002941
vt 6.300831 1.346518
vt 6.300831 1.384308
vt 6.431076 1.384308
vt 6.157632 1.384308
vt 6.157632 1.346518
vt 6.157631 1.002942
vt 6.014432 1.346518
vt 6.014432 1.002942
vt 6.014432 1.384308
vt 5.720058 1.002942
vt 5.720059 1.346519
vt 5.720059 1.384309
vt 5.223313 1.384310
vt 5.223312 1.002943
vt 5.223313 1.346519
vt 4.726567 1.384310
vt 4.726567 1.346520
vt 4.229865 1.346521
vt 4.726567 1.002944
vt 4.229865 1.384311
vt 4.229865 1.002944
vt 3.733164 1.002945
vt 3.733165 1.384312
vt 3.733165 1.346522
vt 3.236466 1.002946
vt 3.236466 1.346522
vt 2.739767 1.346523
vt 3.236466 1.384313
vt 2.739767 1.002947
vt 2.739767 1.384313
vt 2.242934 1.002947
vt 2.242934 1.384314
vt 2.242934 1.346524
vt 1.746101 1.384315
vt 1.746101 1.346525
vt 1.249441 1.384316
vt 1.249441 1.346526
vt 0.752782 1.346526
vt 0.752782 1.384316
vt 0.256093 1.384317
vt 0.256093 1.346527
vt -0.240595 1.346528
vt -0.240595 1.384318
vt 1.738335 1.393769
vt 1.238546 1.853039
vt 1.239884 1.391568
vt 1.736874 1.855066
vt 2.236799 1.395607
vt 2.235206 1.857092
vt 2.735264 1.398177
vt 2.733541 1.859483
vt 3.233827 1.400254
vt 3.231881 1.861872
vt 3.732390 1.403569
vt 3.730222 1.864879
vt 4.024599 1.405331
vt 4.198616 1.604659
vt 4.197377 1.867697
vt 4.148033 1.464149
vt -1.751137 1.386100
vt -2.249704 1.847335
vt -2.249555 1.386050
vt -1.751385 1.847533
vt -1.252719 1.386731
vt -1.253066 1.848016
vt -0.754358 1.387136
vt -0.754746 1.848489
vt -0.255996 1.387798
vt -0.256425 1.849087
vt 0.242719 1.387836
vt 0.241897 1.849677
vt 0.741433 1.390068
vt 0.740220 1.851360
vt 1.239884 1.391568
vt 1.238546 1.853039
vt 1.738335 1.393769
vt 1.736874 1.855066
vt 2.236799 1.395607
vt 2.235206 1.857092
vt 2.735264 1.398177
vt 2.733541 1.859483
vt 3.233827 1.400254
vt 3.231881 1.861872
vt 3.732390 1.403569
vt 3.730222 1.864879
vt 4.024599 1.405331
vt 4.198616 1.604659
vt 4.197377 1.867697
vt 4.148033 1.464149
vt 6.431076 1.346518
vt 6.300831 1.002942
vt 6.431075 1.002941
vt 6.300831 1.346518
vt 6.300831 1.384308
vt 6.431076 1.384308
vt 6.157632 1.384308
vt 6.157632 1.346518
vt 6.157631 1.002942
vt 6.014432 1.346518
vt 6.014432 1.002942
vt 6.014432 1.384308
vt 5.720058 1.002942
vt 5.720059 1.346519
vt 5.720059 1.384309
vt 5.223313 1.384310
vt 5.223312 1.002943
vt 5.223313 1.346519
vt 4.726567 1.384310
vt 4.726567 1.346520
vt 4.229865 1.346521
vt 4.726567 1.002944
vt 4.229865 1.384311
vt 4.229865 1.002944
vt 3.733165 1.384312
vt 3.733164 1.002945
vt 3.733165 1.346522
vt 3.236466 1.384313
vt 3.236466 1.002946
vt 3.236466 1.346522
vn -0.7777 0.4991 -0.3821
vn -0.9294 0.3690 0.0000
vn -0.8416 0.5401 0.0000
vn -0.8629 0.3427 -0.3714
vn -0.3874 0.1537 -0.9090
vn -0.3234 0.2075 -0.9232
vn -0.4284 -0.0901 -0.8991
vn -0.9096 -0.1914 -0.3688
vn -0.9786 -0.2059 0.0000
vn -0.6494 -0.6638 -0.3710
vn -0.6993 -0.7148 0.0000
vn -0.2916 -0.2982 -0.9089
vn -0.5464 -0.8375 0.0000
vn -0.5102 -0.7717 -0.3796
vn -0.2160 -0.3132 -0.9248
vn -0.2037 -0.3125 -0.9278
vn -0.5034 -0.7716 -0.3888
vn -0.1943 -0.3294 -0.9240
vn -0.4965 -0.7796 -0.3818
vn -0.5058 -0.7754 -0.3780
vn -0.2132 -0.3268 -0.9207
vn -0.2216 -0.3123 -0.9238
vn -0.5121 -0.7690 -0.3825
vn -0.5037 -0.7721 -0.3875
vn -0.5089 -0.7742 -0.3762
vn -0.2050 -0.3144 -0.9269
vn -0.2113 -0.3134 -0.9258
vn -0.2019 -0.3096 -0.9292
vn -0.4693 -0.7193 -0.5123
vn -0.1997 -0.3219 -0.9255
vn -0.3788 -0.5972 -0.7070
vn -0.2066 -0.3168 -0.9257
vn -0.3864 -0.5923 -0.7070
vn -0.3883 -0.5909 -0.7071
vn -0.2095 -0.3171 -0.9250
vn -0.2056 -0.3149 -0.9266
vn -0.3862 -0.5921 -0.7073
vn -0.3738 -0.6001 -0.7073
vn -0.1963 -0.3249 -0.9251
vn -0.2215 -0.3122 -0.9238
vn -0.0031 0.0159 -0.9999
vn -0.2178 -0.3069 -0.9265
vn -0.0096 0.0060 -0.9999
vn -0.0065 -0.0101 -0.9999
vn -0.1941 -0.3293 -0.9240
vn 0.0121 -0.0057 -0.9999
vn -0.2037 -0.3123 -0.9279
vn 0.0084 0.0131 -0.9999
vn -0.0020 0.0105 -0.9999
vn -0.2917 -0.2982 -0.9088
vn -0.3873 0.1537 -0.9091
vn -0.3233 0.2074 -0.9233
vn -0.4284 -0.0902 -0.8991
vn 0.0138 0.0038 -0.9999
vn 0.0055 0.0093 -0.9999
vn 0.0035 0.0084 -1.0000
vn 0.0039 0.0061 -1.0000
vn 0.0131 0.0082 -0.9999
vn 0.0113 0.0174 -0.9998
vn 0.0053 0.0159 -0.9999
vn 0.0064 0.0099 -0.9999
vn -0.7777 0.4991 -0.3822
vn -0.9295 0.3689 0.0000
vn -0.8416 0.5402 0.0000
vn -0.8629 0.3427 -0.3715
vn -0.9096 -0.1913 -0.3687
vn -0.5464 -0.8376 0.0000
vn -0.5102 -0.7717 -0.3797
vn -0.5034 -0.7717 -0.3887
vn -0.4965 -0.7795 -0.3821
vn -0.5059 -0.7754 -0.3780
vn -0.5121 -0.7689 -0.3828
vn -0.5463 -0.8376 0.0000
vn -0.5110 -0.7674 -0.3873
usemtl TiresMat
s 1
f 1/1/1 3/2/2 2/3/3
f 4/4/4 3/2/2 1/1/1
f 1/1/1 5/5/5 4/4/4
f 5/5/5 1/1/1 6/6/6
f 7/7/7 4/4/4 5/5/5
f 3/2/2 4/4/4 8/8/8
f 4/4/4 7/7/7 8/8/8
f 8/8/8 9/9/9 3/2/2
f 10/10/10 8/8/8 7/7/7
f 9/9/9 8/8/8 10/10/10
f 10/10/10 11/11/11 9/9/9
f 10/10/10 7/7/7 12/12/12
f 10/10/10 13/13/13 11/11/11
f 14/14/14 10/10/10 12/12/12
f 14/14/14 13/13/13 10/10/10
f 14/14/14 12/12/12 15/15/15
f 16/16/16 14/14/14 15/15/15
f 14/14/14 17/17/13 13/13/13
f 14/14/14 16/16/16 18/18/17
f 18/18/17 17/17/13 14/14/14
f 19/19/18 18/18/17 16/16/16
f 20/20/19 17/17/13 18/18/17
f 18/18/17 19/19/18 20/20/19
f 19/19/18 21/21/20 20/20/19
f 17/17/13 20/20/19 22/22/13
f 21/21/20 22/22/13 20/20/19
f 19/19/18 23/23/21 21/21/20
f 22/22/13 21/21/20 24/24/13
f 21/21/20 25/25/13 24/24/13
f 26/26/22 21/21/20 23/23/21
f 27/27/23 25/25/13 21/21/20
f 21/21/20 26/26/22 27/27/23
f 27/27/23 28/28/13 25/25/13
f 26/26/22 29/29/24 27/27/23
f 29/29/24 28/28/13 27/27/23
f 30/30/25 28/28/13 29/29/24
f 29/29/24 26/26/22 31/31/26
f 31/31/26 30/30/25 29/29/24
f 28/28/13 30/30/25 32/32/13
f 31/31/26 33/33/27 30/30/25
f 30/30/25 34/34/13 32/32/13
f 35/35/28 30/30/25 33/33/27
f 36/36/29 34/34/13 30/30/25
f 30/30/25 35/35/28 36/36/29
f 37/37/30 36/36/29 35/35/28
f 36/36/29 37/37/30 38/38/31
f 39/39/32 38/38/31 37/37/30
f 38/38/31 39/39/32 40/40/33
f 39/39/32 41/41/34 40/40/33
f 39/39/32 42/42/35 41/41/34
f 43/43/36 41/41/34 42/42/35
f 41/41/34 43/43/36 44/44/37
f 43/43/36 45/45/38 44/44/37
f 43/43/36 46/46/39 45/45/38
f 47/47/40 49/48/41 48/49/42
f 49/48/41 47/47/40 50/50/43
f 51/51/21 50/50/43 47/47/40
f 50/50/43 51/51/21 52/52/44
f 53/53/45 52/52/44 51/51/21
f 52/52/44 53/53/45 54/54/46
f 55/55/47 54/54/46 53/53/45
f 54/54/46 55/55/47 56/56/48
f 57/57/15 56/56/48 55/55/47
f 56/56/48 57/57/15 58/58/49
f 59/59/50 58/58/49 57/57/15
f 60/60/51 58/58/49 59/59/50
f 58/58/49 60/60/51 61/61/52
f 60/60/51 59/59/50 62/62/53
f 43/63/36 63/64/54 46/65/39
f 63/64/54 43/63/36 64/66/55
f 42/67/35 64/66/55 43/63/36
f 64/66/55 42/67/35 65/68/56
f 39/69/32 65/68/56 42/67/35
f 65/68/56 39/69/32 66/70/57
f 37/71/30 66/70/57 39/69/32
f 66/70/57 37/71/30 67/72/58
f 35/73/28 67/72/58 37/71/30
f 67/72/58 35/73/28 68/74/59
f 33/75/27 68/74/59 35/73/28
f 68/74/59 33/75/27 69/76/60
f 31/77/26 69/76/60 33/75/27
f 69/76/60 31/77/26 70/78/61
f 26/79/22 70/78/61 31/77/26
f 70/78/61 26/79/22 71/80/43
f 23/81/21 71/80/43 26/79/22
f 71/80/43 23/81/21 72/82/44
f 19/83/18 72/82/44 23/81/21
f 72/82/44 19/83/18 73/84/46
f 16/85/16 73/84/46 19/83/18
f 73/84/46 16/85/16 74/86/48
f 15/87/15 74/86/48 16/85/16
f 74/86/48 15/87/15 75/88/49
f 12/89/12 75/88/49 15/87/15
f 5/90/5 75/88/49 12/89/12
f 75/88/49 5/90/5 6/91/6
f 5/90/5 12/89/12 7/92/7
f 76/93/62 78/94/63 77/95/64
f 79/96/65 78/94/63 76/93/62
f 76/93/62 60/97/51 79/96/65
f 60/97/51 76/93/62 61/98/52
f 62/99/53 79/96/65 60/97/51
f 78/94/63 79/96/65 80/100/66
f 79/96/65 62/99/53 80/100/66
f 80/100/66 81/101/9 78/94/63
f 82/102/10 80/100/66 62/99/53
f 81/101/9 80/100/66 82/102/10
f 82/102/10 83/103/11 81/101/9
f 82/102/10 62/99/53 59/104/50
f 82/102/10 84/105/67 83/103/11
f 85/106/68 82/102/10 59/104/50
f 85/106/68 84/105/67 82/102/10
f 85/106/68 59/104/50 57/107/15
f 55/108/47 85/106/68 57/107/15
f 85/106/68 86/109/13 84/105/67
f 85/106/68 55/108/47 87/110/69
f 87/110/69 86/109/13 85/106/68
f 53/111/45 87/110/69 55/108/47
f 88/112/70 86/109/13 87/110/69
f 87/110/69 53/111/45 88/112/70
f 53/111/45 89/113/71 88/112/70
f 86/109/13 88/112/70 90/114/13
f 89/113/71 90/114/13 88/112/70
f 53/111/45 51/115/21 89/113/71
f 90/114/13 89/113/71 91/116/13
f 47/117/40 89/113/71 51/115/21
f 89/113/71 92/118/13 91/116/13
f 89/113/71 47/117/40 93/119/72
f 93/119/72 92/118/13 89/113/71
f 48/120/42 93/119/72 47/117/40
f 93/119/72 94/121/73 92/118/13
f 93/119/72 48/120/42 95/122/74
f 95/122/74 94/121/73 93/119/72
