# Blender v3.4.1 OBJ File: 'track.blend'
# www.blender.org
mtllib _1WALL_07_SUB0_Scene.271.mtl
o _1WALL_07_SUB0_Scene.271
v -203.219803 -411.835114 -4.392192
v -199.137207 -412.121277 -3.431797
v -199.131699 -411.946289 -4.413489
v -203.219101 -412.010315 -3.410518
v -203.205093 -411.623810 -2.692215
v -203.215607 -411.619904 -4.376873
v -199.125000 -411.734802 -2.713490
v -199.126495 -411.731079 -4.398173
v -203.214706 -411.641205 -4.392190
v -199.125580 -411.752411 -4.413490
v -199.137207 -412.121277 -2.713487
v -203.215286 -412.010376 -2.692218
v -207.216492 -411.732056 -4.375625
v -207.218506 -411.907104 -3.393941
v -207.206787 -411.520569 -2.675629
v -207.212494 -411.516785 -4.360310
v -207.211594 -411.538086 -4.375623
v -207.216690 -411.907166 -2.675634
v -211.212204 -411.630615 -4.372646
v -211.217804 -411.805511 -3.390959
v -211.208878 -411.418884 -2.672644
v -211.208298 -411.415314 -4.357336
v -211.207306 -411.436584 -4.372643
v -211.218704 -411.805511 -2.672649
v -215.206894 -411.529755 -4.386189
v -215.216980 -411.704590 -3.404517
v -215.211380 -411.317993 -2.686215
v -215.203079 -411.314514 -4.370887
v -215.201981 -411.335785 -4.386186
v -215.221085 -411.704468 -2.686219
v -219.206787 -411.429291 -4.415073
v -219.217102 -411.604156 -3.433403
v -219.211700 -411.217499 -2.715101
v -219.203003 -411.214081 -4.399770
v -219.201981 -411.235413 -4.415071
v -219.221283 -411.604095 -2.715106
v -223.214905 -411.329163 -4.426242
v -223.218704 -411.504211 -3.444554
v -223.208588 -411.117676 -2.726240
v -223.210999 -411.114014 -4.410932
v -223.209991 -411.135315 -4.426240
v -223.218201 -411.504211 -2.726244
v -227.221695 -411.229675 -4.411964
v -227.220001 -411.404907 -3.430295
v -227.206085 -411.018463 -2.711994
v -227.217804 -411.014496 -4.396645
v -227.216888 -411.035767 -4.411963
v -227.215698 -411.404999 -2.711998
v -231.227005 -411.131195 -4.378242
v -231.221085 -411.306488 -3.396607
v -231.204193 -410.920105 -2.678330
v -231.223099 -410.915955 -4.362915
v -231.222305 -410.937286 -4.378239
v -231.213593 -411.306702 -2.678336
v -235.251602 -411.036285 -4.336303
v -235.255096 -411.211395 -3.354620
v -235.247391 -410.824799 -2.636293
v -235.248901 -410.821075 -4.320968
v -235.247803 -410.842407 -4.336293
v -235.255096 -411.211395 -2.636310
vt -1.021971 2.001424
vt 2.977629 2.001424
vt 2.977629 1.108993
vt -1.021971 1.108994
vt -1.021971 0.581097
vt 2.977630 0.581097
vt -1.021971 1.993160
vt 2.977629 1.993160
vt 2.977629 1.899918
vt -1.021971 1.899918
vt -1.021971 1.695245
vt 2.977629 1.695245
vt 2.977629 1.688305
vt -1.021971 1.688305
vt 2.977629 0.755510
vt -1.021971 0.755511
vt -1.021971 2.001424
vt 2.977629 2.001424
vt 2.977629 1.108993
vt -1.021971 1.108994
vt -1.021971 0.581097
vt 2.977629 1.993160
vt -1.021971 1.993160
vt 2.977630 0.581097
vt 2.977629 1.899918
vt -1.021971 1.899918
vt -1.021971 1.695245
vt 2.977629 1.695245
vt 2.977629 1.688305
vt -1.021971 1.688305
vt 2.977629 0.755510
vt -1.021971 0.755511
vt -1.021971 2.001424
vt 2.977629 2.001424
vt 2.977629 1.108993
vt -1.021971 1.108994
vt -1.021971 0.581097
vt 2.977629 1.993160
vt -1.021971 1.993160
vt 2.977630 0.581097
vt 2.977629 1.899918
vt -1.021971 1.899918
vt -1.021971 1.695245
vt 2.977629 1.695245
vt 2.977629 1.688305
vt -1.021971 1.688305
vt 2.977629 0.755510
vt -1.021971 0.755511
vt 2.977629 1.108993
vt -1.021971 2.001424
vt 2.977629 2.001424
vt -1.021971 1.108994
vt -1.021971 0.581097
vt 2.977629 1.993160
vt -1.021971 1.993160
vt 2.977630 0.581097
vt 2.977629 1.899918
vt -1.021971 1.899918
vt -1.021971 1.695245
vt 2.977629 1.695245
vt 2.977629 1.688305
vt -1.021971 1.688305
vt 2.977629 0.755510
vt -1.021971 0.755511
vt 2.977629 1.108993
vt -1.021971 2.001424
vt 2.977629 2.001424
vt -1.021971 1.108994
vt -1.021971 0.581097
vt 2.977629 1.993160
vt -1.021971 1.993160
vt 2.977630 0.581097
vt -1.021971 1.899918
vt 2.977629 1.695245
vt 2.977629 1.899918
vt -1.021971 1.695245
vt 2.977629 1.688305
vt -1.021971 1.688305
vt 2.977629 0.755510
vt -1.021971 0.755511
vt 2.977629 1.108993
vt -1.021971 2.001424
vt 2.977629 2.001424
vt -1.021971 1.108994
vt -1.021971 0.581097
vt 2.977629 1.993160
vt -1.021971 1.993160
vt 2.977630 0.581097
vt 2.977629 1.899918
vt -1.021971 1.899918
vt -1.021971 1.695245
vt 2.977629 1.695245
vt 2.977629 1.688305
vt -1.021971 1.688305
vt 2.977629 0.755510
vt -1.021971 0.755511
vt -1.021971 2.001424
vt 2.977629 2.001424
vt 2.977629 1.108993
vt -1.021971 1.108994
vt -1.021971 0.581097
vt 2.977629 1.993160
vt -1.021971 1.993160
vt 2.977630 0.581097
vt 2.977629 1.899918
vt -1.021971 1.899918
vt -1.021971 1.695245
vt 2.977629 1.695245
vt 2.977629 1.688305
vt -1.021971 1.688305
vt 2.977629 0.755510
vt -1.021971 0.755511
vt -1.021971 2.001424
vt 2.977629 2.001424
vt 2.977629 1.108993
vt -1.021971 1.108994
vt -1.021971 0.581097
vt 2.977629 1.993160
vt -1.021971 1.993160
vt 2.977630 0.581097
vt -1.021971 1.899918
vt 2.977629 1.695245
vt 2.977629 1.899918
vt -1.021971 1.695245
vt 2.977629 1.688305
vt -1.021971 1.688305
vt 2.977629 0.755510
vt -1.021971 0.755511
vt -1.021971 2.001424
vt 2.977629 2.001424
vt 2.977629 1.108993
vt -1.021971 1.108994
vt -1.021971 0.581097
vt 2.977630 0.581097
vt -1.021971 1.993160
vt 2.977629 1.993160
vt -1.021971 1.899918
vt 2.977629 1.695245
vt 2.977629 1.899918
vt -1.021971 1.695245
vt 2.977629 1.688305
vt -1.021971 1.688305
vt 2.977629 0.755510
vt -1.021971 0.755511
vn -0.0268 -0.9841 -0.1756
vn -0.0277 -0.9841 -0.1756
vn -0.0269 -0.9841 -0.1756
vn 0.0265 0.9996 0.0022
vn 0.0272 0.9996 0.0022
vn -0.0052 0.0001 -1.0000
vn -0.0047 0.0001 -1.0000
vn -0.0052 0.0002 -1.0000
vn -0.0046 0.0001 -1.0000
vn 0.0116 0.5819 -0.8132
vn 0.0116 0.5840 -0.8117
vn 0.0116 0.5839 -0.8118
vn -0.0272 -0.9996 0.0000
vn -0.0265 -0.9996 0.0001
vn -0.0256 -0.9841 -0.1755
vn 0.0256 0.9997 0.0022
vn 0.0256 0.9997 0.0021
vn -0.0024 0.0001 -1.0000
vn 0.0129 0.5844 -0.8114
vn 0.0130 0.5843 -0.8114
vn -0.0256 -0.9997 0.0000
vn -0.0247 -0.9842 -0.1755
vn 0.0253 0.9997 0.0021
vn 0.0013 -0.0000 -1.0000
vn 0.0158 0.5853 -0.8107
vn 0.0159 0.5853 -0.8107
vn -0.0253 -0.9997 -0.0000
vn -0.0238 -0.9842 -0.1756
vn 0.0252 0.9997 0.0022
vn 0.0053 -0.0001 -1.0000
vn 0.0189 0.5847 -0.8111
vn 0.0190 0.5847 -0.8111
vn -0.0252 -0.9997 0.0000
vn 0.0250 0.9997 0.0022
vn 0.0050 -0.0001 -1.0000
vn 0.0187 0.5827 -0.8125
vn 0.0186 0.5831 -0.8122
vn -0.0250 -0.9997 -0.0000
vn -0.0246 -0.9842 -0.1756
vn 0.0249 0.9997 0.0021
vn -0.0004 0.0000 -1.0000
vn 0.0143 0.5842 -0.8115
vn 0.0141 0.5842 -0.8115
vn -0.0249 -0.9997 0.0000
vn -0.0254 -0.9841 -0.1757
vn 0.0247 0.9997 0.0022
vn -0.0060 0.0002 -1.0000
vn 0.0097 0.5854 -0.8107
vn 0.0095 0.5853 -0.8107
vn -0.0247 -0.9997 0.0001
vn -0.0254 -0.9841 -0.1756
vn 0.0241 0.9997 0.0022
vn -0.0094 0.0002 -1.0000
vn 0.0064 0.5836 -0.8120
vn -0.0241 -0.9997 0.0000
vn -0.0250 -0.9841 -0.1756
vn -0.0250 -0.9841 -0.1757
vn 0.0236 0.9997 0.0021
vn 0.0236 0.9997 0.0022
vn -0.0104 0.0003 -0.9999
vn 0.0053 0.5835 -0.8121
vn 0.0053 0.5838 -0.8118
vn -0.0236 -0.9997 0.0000
vn -0.0242 -0.9997 0.0000
usemtl WallMat
s 1
f 1/1/1 3/2/2 2/3/2
f 1/1/1 2/3/2 4/4/3
f 5/5/4 7/6/5 6/7/4
f 8/8/5 6/7/4 7/6/5
f 3/9/6 1/10/7 9/11/7
f 3/9/8 9/11/9 10/12/8
f 9/11/10 8/13/11 10/12/12
f 8/13/11 9/11/10 6/14/10
f 11/15/13 4/4/14 2/3/13
f 4/4/14 11/15/13 12/16/14
f 13/17/15 1/18/1 4/19/3
f 13/17/15 4/19/3 14/20/15
f 15/21/16 6/22/4 16/23/17
f 6/22/4 15/21/16 5/24/4
f 1/25/7 13/26/18 17/27/18
f 1/25/7 17/27/18 9/28/7
f 17/27/19 6/29/10 9/28/10
f 6/29/10 17/27/19 16/30/20
f 12/31/14 14/20/21 4/19/14
f 14/20/21 12/31/14 18/32/21
f 19/33/22 13/34/15 14/35/15
f 19/33/22 14/35/15 20/36/22
f 21/37/23 16/38/17 22/39/23
f 16/38/17 21/37/23 15/40/16
f 13/41/18 19/42/24 23/43/24
f 13/41/18 23/43/24 17/44/18
f 23/43/25 16/45/20 17/44/19
f 16/45/20 23/43/25 22/46/26
f 18/47/21 20/36/27 14/35/21
f 20/36/27 18/47/21 24/48/27
f 20/49/22 25/50/28 19/51/22
f 25/50/28 20/49/22 26/52/28
f 27/53/29 22/54/23 28/55/29
f 22/54/23 27/53/29 21/56/23
f 19/57/24 25/58/30 29/59/30
f 19/57/24 29/59/30 23/60/24
f 29/59/31 22/61/26 23/60/25
f 22/61/26 29/59/31 28/62/32
f 24/63/27 26/52/33 20/49/27
f 26/52/33 24/63/27 30/64/33
f 26/65/28 31/66/28 25/67/28
f 31/66/28 26/65/28 32/68/28
f 33/69/34 28/70/29 34/71/34
f 28/70/29 33/69/34 27/72/29
f 31/73/35 29/74/30 25/75/30
f 29/74/30 31/73/35 35/76/35
f 35/76/36 28/77/32 29/74/31
f 28/77/32 35/76/36 34/78/37
f 30/79/33 36/80/38 26/65/33
f 32/68/38 26/65/33 36/80/38
f 32/81/28 37/82/39 31/83/28
f 37/82/39 32/81/28 38/84/39
f 39/85/40 34/86/34 40/87/40
f 34/86/34 39/85/40 33/88/34
f 31/89/35 37/90/41 41/91/41
f 31/89/35 41/91/41 35/92/35
f 41/91/42 34/93/37 35/92/36
f 34/93/37 41/91/42 40/94/43
f 36/95/38 42/96/44 32/81/38
f 38/84/44 32/81/38 42/96/44
f 43/97/45 37/98/39 38/99/39
f 43/97/45 38/99/39 44/100/45
f 45/101/46 40/102/40 46/103/46
f 40/102/40 45/101/46 39/104/40
f 37/105/41 43/106/47 47/107/47
f 37/105/41 47/107/47 41/108/41
f 47/107/48 40/109/43 41/108/42
f 40/109/43 47/107/48 46/110/49
f 42/111/44 44/100/50 38/99/44
f 44/100/50 42/111/44 48/112/50
f 49/113/51 43/114/45 44/115/45
f 49/113/51 44/115/45 50/116/51
f 51/117/52 46/118/46 52/119/52
f 46/118/46 51/117/52 45/120/46
f 49/121/53 47/122/47 43/123/47
f 47/122/47 49/121/53 53/124/53
f 53/124/54 46/125/49 47/122/48
f 46/125/49 53/124/54 52/126/54
f 48/127/50 50/116/55 44/115/50
f 50/116/55 48/127/50 54/128/55
f 55/129/56 49/130/51 50/131/51
f 55/129/57 50/131/57 56/132/57
f 57/133/58 51/134/52 58/135/59
f 52/136/52 58/135/59 51/134/52
f 55/137/60 53/138/53 49/139/53
f 53/138/53 55/137/60 59/140/60
f 59/140/61 52/141/54 53/138/54
f 52/141/54 59/140/61 58/142/62
f 54/143/55 56/132/63 50/131/55
f 56/132/63 54/143/64 60/144/63
