# Blender v3.4.1 OBJ File: 'track.blend'
# www.blender.org
mtllib _1WALL_tires01_01_Scene.374.mtl
o _1WALL_tires01_01_Scene.374
v 166.803391 269.152191 -3.547329
v 166.803391 269.152191 -2.504688
v 166.194778 268.757111 -2.504688
v 166.194778 268.757111 -3.547329
v 166.246994 268.703491 -3.620729
v 166.843399 269.090607 -3.620729
v 166.014603 268.365387 -3.620729
v 165.936905 268.381989 -3.547329
v 165.936905 268.381989 -2.504688
v 166.019806 267.934387 -3.547329
v 166.019806 267.934387 -2.504688
v 166.089294 267.962097 -3.620729
v 166.515198 267.171295 -2.504688
v 166.515198 267.171295 -3.547329
v 166.576691 267.211304 -3.620729
v 167.346405 265.890808 -2.504689
v 167.346405 265.890808 -3.593006
v 167.408005 265.930695 -3.666406
v 168.239288 264.650208 -3.620730
v 168.177689 264.610291 -3.547330
v 168.177689 264.610291 -2.504689
v 169.070602 263.369690 -3.585570
v 169.009003 263.329712 -3.512170
v 169.009003 263.329712 -2.504689
v 169.840286 262.049194 -2.504689
v 169.840286 262.049194 -3.547330
v 169.901794 262.089203 -3.620730
v 170.671600 260.768707 -2.504689
v 170.671600 260.768707 -3.581829
v 170.733078 260.808685 -3.655228
v 171.564407 259.528107 -3.620731
v 171.502808 259.488190 -3.547331
v 171.502808 259.488190 -2.504690
v 172.334091 258.207611 -2.504690
v 172.334091 258.207611 -3.608271
v 172.395706 258.247589 -3.681671
v 173.226898 256.967102 -3.620731
v 173.165405 256.927094 -3.547331
v 173.165405 256.927094 -2.504690
v 173.996689 255.646591 -2.504690
v 173.996689 255.646591 -3.568525
v 174.058197 255.686600 -3.641925
v 174.889496 254.406006 -3.620731
v 174.827881 254.366104 -3.547332
v 174.827881 254.366104 -2.504690
v 175.659195 253.085480 -2.504691
v 175.659195 253.085480 -3.578894
v 175.720795 253.125504 -3.652294
v 176.552094 251.845001 -3.620732
v 176.490479 251.804993 -3.547332
v 176.490479 251.804993 -2.504691
v 177.321793 250.524506 -2.504691
v 177.321793 250.524506 -3.619170
v 177.383301 250.564484 -3.692570
v 178.214600 249.283905 -3.620732
v 178.153107 249.244003 -3.547333
v 178.153107 249.244003 -2.504691
v 178.803299 248.377106 -3.620732
v 178.749680 248.324890 -2.504691
v 178.749680 248.324890 -3.547333
v 179.051987 248.206085 -3.620732
v 179.035385 248.128387 -3.547333
v 179.035385 248.128387 -2.504691
v 179.376404 248.191589 -3.547333
v 179.376404 248.191589 -2.504691
v 180.103897 248.663803 -2.504691
v 179.348694 248.261093 -3.620732
v 180.103897 248.663803 -3.547333
v 180.063904 248.725403 -3.620732
v 179.260498 249.962906 -3.620732
v 178.429291 251.243393 -3.620732
v 177.598007 252.524002 -3.620732
v 176.766693 253.804504 -3.620732
v 175.935394 255.084991 -3.620731
v 175.104095 256.365509 -3.620731
v 174.272903 257.646088 -3.620731
v 173.441605 258.926605 -3.620731
v 172.610306 260.207092 -3.620730
v 171.779007 261.487610 -3.620730
v 170.947784 262.768097 -3.620730
v 170.116501 264.048706 -3.620730
v 169.285187 265.329193 -3.620730
v 168.453903 266.609711 -3.620729
v 167.622589 267.890198 -3.620729
vt 6.431076 1.346518
vt 6.300831 1.002942
vt 6.431075 1.002941
vt 6.300831 1.346518
vt 6.300831 1.384308
vt 6.431076 1.384308
vt 6.157632 1.384308
vt 6.157632 1.346518
vt 6.157631 1.002942
vt 6.014432 1.346518
vt 6.014432 1.002942
vt 6.014432 1.384308
vt 5.720058 1.002942
vt 5.720059 1.346519
vt 5.720059 1.384309
vt 5.223312 1.002943
vt 5.223313 1.346519
vt 5.223313 1.384310
vt 4.726567 1.384310
vt 4.726567 1.346520
vt 4.726567 1.002944
vt 4.229865 1.384311
vt 4.229865 1.346521
vt 4.229865 1.002944
vt 3.733164 1.002945
vt 3.733165 1.346522
vt 3.733165 1.384312
vt 3.236466 1.002946
vt 3.236466 1.346522
vt 3.236466 1.384313
vt 2.739767 1.384313
vt 2.739767 1.346523
vt 2.739767 1.002947
vt 2.242934 1.002947
vt 2.242934 1.346524
vt 2.242934 1.384314
vt 1.746101 1.384315
vt 1.746101 1.346525
vt 1.746100 1.002948
vt 1.249441 1.002949
vt 1.249441 1.346526
vt 1.249441 1.384316
vt 0.752782 1.384316
vt 0.752782 1.346526
vt 0.752782 1.002949
vt 0.256093 1.002950
vt 0.256093 1.346527
vt 0.256093 1.384317
vt -0.240595 1.384318
vt -0.240595 1.346528
vt -0.240596 1.002951
vt -0.737506 1.002952
vt -0.737506 1.346529
vt -0.737505 1.384319
vt -1.234416 1.384320
vt -1.234416 1.346529
vt -1.234416 1.002952
vt -1.589287 1.384320
vt -1.589288 1.002953
vt -1.589288 1.346530
vt -1.697210 1.384320
vt -1.697211 1.346530
vt -1.697211 1.002953
vt -1.805134 1.346530
vt -1.805134 1.002953
vt -1.981470 1.002954
vt -1.805134 1.384320
vt -1.981470 1.346531
vt -1.981470 1.384321
vt -3.728570 1.534263
vt -3.246341 1.848438
vt -3.727929 1.849698
vt -3.600176 1.388076
vt -3.691087 1.431032
vt -3.247282 1.387151
vt -2.748023 1.847127
vt -2.748419 1.385076
vt -2.249704 1.847335
vt -2.249555 1.386050
vt -1.751385 1.847533
vt -1.751137 1.386100
vt -1.253066 1.848016
vt -1.252719 1.386731
vt -0.754746 1.848489
vt -0.754358 1.387136
vt -0.256425 1.849087
vt -0.255996 1.387798
vt 0.241897 1.849677
vt 0.242719 1.387836
vt 0.740220 1.851360
vt 0.741433 1.390068
vt 1.238546 1.853039
vt 1.239884 1.391568
vt 1.736874 1.855066
vt 1.738335 1.393769
vt 2.235206 1.857092
vt 2.236799 1.395607
vt 2.733541 1.859483
vt 2.735264 1.398177
vt 3.231881 1.861872
vt 3.233827 1.400254
vt 3.730222 1.864879
vt 3.732390 1.403569
vt 4.024599 1.405331
vt 4.198616 1.604659
vt 4.197377 1.867697
vt 4.148033 1.464149
vn -0.5030 0.7748 -0.3830
vn -0.6977 0.7164 0.0000
vn -0.5445 0.8388 0.0000
vn -0.6479 0.6653 -0.3710
vn -0.2911 0.2989 -0.9088
vn -0.2082 0.3207 -0.9240
vn -0.4281 0.0909 -0.8991
vn -0.9091 0.1934 -0.3689
vn -0.9781 0.2080 0.0000
vn -0.8626 -0.3440 -0.3709
vn -0.9289 -0.3704 0.0000
vn -0.3876 -0.1546 -0.9088
vn -0.8388 -0.5445 0.0000
vn -0.7791 -0.4990 -0.3794
vn -0.3239 -0.1986 -0.9250
vn -0.7728 -0.5016 -0.3888
vn -0.3116 -0.2024 -0.9284
vn -0.3109 -0.2226 -0.9240
vn -0.7696 -0.5117 -0.3819
vn -0.3281 -0.2130 -0.9203
vn -0.7765 -0.5041 -0.3780
vn -0.8387 -0.5445 0.0000
vn -0.7797 -0.4957 -0.3826
vn -0.3292 -0.1959 -0.9237
vn -0.7733 -0.5020 -0.3872
vn -0.3140 -0.2039 -0.9273
vn -0.3189 -0.2002 -0.9264
vn -0.7789 -0.5018 -0.3761
vn -0.7720 -0.5011 -0.3911
vn -0.3085 -0.2003 -0.9299
vn -0.3119 -0.2126 -0.9260
vn -0.7742 -0.5084 -0.3769
vn -0.7738 -0.5023 -0.3858
vn -0.3167 -0.2056 -0.9260
vn -0.3193 -0.2046 -0.9253
vn -0.7769 -0.5028 -0.3791
vn -0.3146 -0.2043 -0.9270
vn -0.3202 -0.1974 -0.9266
vn -0.7799 -0.5005 -0.3758
vn -0.7715 -0.5009 -0.3922
vn -0.3064 -0.1989 -0.9309
vn -0.3087 -0.2188 -0.9257
vn -0.7719 -0.5116 -0.3775
vn -0.2990 -0.2911 -0.9088
vn -0.7165 -0.6976 0.0000
vn -0.6654 -0.6478 -0.3710
vn -0.0910 -0.4281 -0.8991
vn -0.1934 -0.9091 -0.3689
vn -0.2081 -0.9781 0.0000
vn 0.3440 -0.8626 -0.3709
vn 0.3705 -0.9288 0.0000
vn 0.5445 -0.8388 0.0000
vn 0.1546 -0.3876 -0.9088
vn 0.5030 -0.7749 -0.3828
vn 0.2085 -0.3212 -0.9238
vn 0.0184 -0.0020 -0.9998
vn 0.0241 0.0157 -0.9996
vn 0.0138 0.0168 -0.9998
vn 0.0106 0.0069 -0.9999
vn 0.0079 0.0072 -0.9999
vn 0.0071 0.0046 -1.0000
vn 0.0173 0.0035 -0.9998
vn 0.0205 0.0133 -0.9997
vn 0.0137 0.0140 -0.9998
vn 0.0116 0.0075 -0.9999
vn -0.0063 0.0095 -0.9999
vn -0.0118 -0.0077 -0.9999
vn 0.0090 -0.0099 -0.9999
vn 0.0154 0.0100 -0.9998
vn 0.0035 0.0113 -0.9999
usemtl TiresMat
s 1
f 1/1/1 3/2/2 2/3/3
f 4/4/4 3/2/2 1/1/1
f 1/1/1 5/5/5 4/4/4
f 5/5/5 1/1/1 6/6/6
f 7/7/7 4/4/4 5/5/5
f 3/2/2 4/4/4 8/8/8
f 4/4/4 7/7/7 8/8/8
f 8/8/8 9/9/9 3/2/2
f 10/10/10 8/8/8 7/7/7
f 9/9/9 8/8/8 10/10/10
f 10/10/10 11/11/11 9/9/9
f 10/10/10 7/7/7 12/12/12
f 10/10/10 13/13/13 11/11/11
f 12/12/12 14/14/14 10/10/10
f 14/14/14 13/13/13 10/10/10
f 12/12/12 15/15/15 14/14/14
f 14/14/14 16/16/13 13/13/13
f 15/15/15 17/17/16 14/14/14
f 17/17/16 16/16/13 14/14/14
f 15/15/15 18/18/17 17/17/16
f 19/19/18 17/17/16 18/18/17
f 20/20/19 16/16/13 17/17/16
f 17/17/16 19/19/18 20/20/19
f 16/16/13 20/20/19 21/21/13
f 22/22/20 20/20/19 19/19/18
f 23/23/21 21/21/13 20/20/19
f 20/20/19 22/22/20 23/23/21
f 21/21/13 23/23/21 24/24/13
f 23/23/21 25/25/22 24/24/13
f 22/22/20 26/26/23 23/23/21
f 26/26/23 25/25/22 23/23/21
f 22/22/20 27/27/24 26/26/23
f 26/26/23 28/28/13 25/25/22
f 27/27/24 29/29/25 26/26/23
f 29/29/25 28/28/13 26/26/23
f 27/27/24 30/30/26 29/29/25
f 31/31/27 29/29/25 30/30/26
f 32/32/28 28/28/13 29/29/25
f 29/29/25 31/31/27 32/32/28
f 28/28/13 32/32/28 33/33/13
f 32/32/28 34/34/13 33/33/13
f 31/31/27 35/35/29 32/32/28
f 35/35/29 34/34/13 32/32/28
f 31/31/27 36/36/30 35/35/29
f 37/37/31 35/35/29 36/36/30
f 38/38/32 34/34/13 35/35/29
f 35/35/29 37/37/31 38/38/32
f 34/34/13 38/38/32 39/39/13
f 38/38/32 40/40/13 39/39/13
f 37/37/31 41/41/33 38/38/32
f 41/41/33 40/40/13 38/38/32
f 37/37/31 42/42/34 41/41/33
f 43/43/35 41/41/33 42/42/34
f 44/44/36 40/40/13 41/41/33
f 41/41/33 43/43/35 44/44/36
f 40/40/13 44/44/36 45/45/13
f 44/44/36 46/46/13 45/45/13
f 43/43/35 47/47/25 44/44/36
f 47/47/25 46/46/13 44/44/36
f 43/43/35 48/48/37 47/47/25
f 49/49/38 47/47/25 48/48/37
f 50/50/39 46/46/13 47/47/25
f 47/47/25 49/49/38 50/50/39
f 46/46/13 50/50/39 51/51/22
f 50/50/39 52/52/22 51/51/22
f 49/49/38 53/53/40 50/50/39
f 53/53/40 52/52/22 50/50/39
f 49/49/38 54/54/41 53/53/40
f 55/55/42 53/53/40 54/54/41
f 56/56/43 52/52/22 53/53/40
f 53/53/40 55/55/42 56/56/43
f 52/52/22 56/56/43 57/57/13
f 58/58/44 56/56/43 55/55/42
f 56/56/43 59/59/45 57/57/13
f 56/56/43 58/58/44 60/60/46
f 60/60/46 59/59/45 56/56/43
f 61/61/47 60/60/46 58/58/44
f 59/59/45 60/60/46 62/62/48
f 60/60/46 61/61/47 62/62/48
f 62/62/48 63/63/49 59/59/45
f 61/61/47 64/64/50 62/62/48
f 63/63/49 62/62/48 64/64/50
f 64/64/50 65/65/51 63/63/49
f 64/64/50 66/66/52 65/65/51
f 61/61/47 67/67/53 64/64/50
f 68/68/54 66/66/52 64/64/50
f 67/67/53 68/68/54 64/64/50
f 67/67/53 69/69/55 68/68/54
f 67/70/53 70/71/56 69/72/55
f 67/70/53 58/73/44 70/71/56
f 58/73/44 67/70/53 61/74/47
f 58/73/44 55/75/42 70/71/56
f 55/75/42 71/76/57 70/71/56
f 71/76/57 55/75/42 54/77/41
f 54/77/41 72/78/58 71/76/57
f 72/78/58 54/77/41 49/79/38
f 49/79/38 73/80/59 72/78/58
f 73/80/59 49/79/38 48/81/37
f 48/81/37 74/82/60 73/80/59
f 74/82/60 48/81/37 43/83/35
f 43/83/35 75/84/61 74/82/60
f 75/84/61 43/83/35 42/85/34
f 42/85/34 76/86/62 75/84/61
f 76/86/62 42/85/34 37/87/31
f 37/87/31 77/88/63 76/86/62
f 77/88/63 37/87/31 36/89/30
f 36/89/30 78/90/64 77/88/63
f 78/90/64 36/89/30 31/91/27
f 31/91/27 79/92/65 78/90/64
f 79/92/65 31/91/27 30/93/26
f 30/93/26 80/94/66 79/92/65
f 80/94/66 30/93/26 27/95/24
f 27/95/24 81/96/67 80/94/66
f 81/96/67 27/95/24 22/97/20
f 22/97/20 82/98/68 81/96/67
f 82/98/68 22/97/20 19/99/18
f 19/99/18 83/100/69 82/98/68
f 83/100/69 19/99/18 18/101/17
f 18/101/17 84/102/70 83/100/69
f 84/102/70 18/101/17 15/103/15
f 12/104/12 84/102/70 15/103/15
f 5/105/5 84/102/70 12/104/12
f 84/102/70 5/105/5 6/106/6
f 5/105/5 12/104/12 7/107/7
