# Blender v3.1.2 OBJ File: 'track.blend'
# www.blender.org
mtllib _1WALL_tires01_01_002.mtl
o _1WALL_tires01_01_002_Scene.375
v -4312.709961 74469.210938 -692.654785
v -4485.562988 74568.375000 -697.310791
v -4453.937988 74429.148438 -687.013367
v -4346.091309 74607.921875 -698.680298
v -4526.240723 74713.953125 -706.770081
v -4389.308105 74762.484375 -704.873962
v -4584.923828 74861.250000 -715.737122
v -4451.263184 74920.328125 -718.168335
v -4534.027832 75074.640625 -733.515991
v -4663.666992 75004.937500 -726.642883
v -4620.683105 75207.890625 -741.028381
v -4744.989258 75129.617188 -737.121826
v -4829.076172 75264.242188 -748.211975
v -4708.252930 75348.531250 -758.226562
v -4800.101074 75467.656250 -760.668396
v -4916.274902 75378.054688 -756.945496
v -4898.258789 75575.460938 -769.011108
v -5009.797852 75481.109375 -763.543884
v -5012.166992 75681.179688 -770.723389
v -5119.340332 75582.507812 -767.850098
v -5116.607910 75769.789062 -776.461304
v -5219.997070 75667.710938 -770.331177
v -5226.096191 75869.906250 -776.219299
v -5330.772949 75762.906250 -773.169922
v -5260.082031 75636.789062 -770.331177
v -5337.682129 75962.203125 -786.093994
v -5436.426270 75856.289062 -775.822388
v -5544.800781 75958.257812 -778.791992
v -5446.535645 76064.609375 -781.888794
v -5565.934082 76115.476562 -783.370239
v -5625.537109 76108.632812 -783.170532
v -5692.530762 76035.937500 -781.053894
v -5595.238281 76124.562500 -783.634399
v -4304.468750 74471.820312 -685.480469
v -4304.156738 74475.000000 -577.390076
v -4337.736816 74613.539062 -587.322510
v -4337.840820 74610.500000 -691.459534
v -4381.264648 74768.484375 -596.925110
v -4381.303223 74765.554688 -697.631531
v -4443.479980 74927.062500 -606.756409
v -4443.620117 74923.968750 -710.966919
v -4526.010742 75082.250000 -618.716736
v -4526.390137 75079.000000 -726.347046
v -4610.359863 75217.093750 -630.012878
v -4613.074219 75212.851562 -733.976074
v -4698.581055 75358.085938 -641.196472
v -4700.905762 75353.835938 -751.154175
v -4791.062988 75477.179688 -649.573303
v -4793.046875 75473.242188 -753.571106
v -4889.867188 75585.164062 -655.639709
v -4891.519043 75581.320312 -761.877014
v -5004.398926 75690.890625 -659.355042
v -5005.715820 75687.265625 -763.557556
v -5109.437988 75779.632812 -661.938782
v -5110.420898 75776.062500 -769.300781
v -5220.111816 75876.320312 -769.062805
v -5219.464844 75879.640625 -664.851013
v -5331.528320 75972.054688 -667.542297
v -5331.840332 75968.687500 -778.939392
v -5440.747070 76071.078125 -774.734314
v -5440.685059 76074.125000 -670.514648
v -5561.182129 76125.992188 -672.024658
v -5561.219238 76122.953125 -776.244385
v -5594.873047 76136.406250 -672.328186
v -5594.903320 76133.367188 -776.547974
v -5629.695312 76118.101562 -671.794983
v -5629.724121 76115.054688 -776.014832
v -5697.822754 76044.179688 -669.642395
v -5697.855957 76041.140625 -773.862122
v -4374.634277 73529.226562 -632.858887
v -4374.488770 73532.257812 -530.369812
v -4290.484863 73533.507812 -530.202393
v -4290.629883 73530.484375 -634.180908
v -4292.441406 73537.570312 -641.538208
v -4374.753906 73536.351562 -640.254578
v -4248.802246 73553.921875 -641.303467
v -4242.204102 73548.609375 -633.984985
v -4242.059082 73551.648438 -529.880798
v -4231.195312 73592.070312 -641.526672
v -4222.666016 73590.945312 -634.244385
v -4224.025879 73681.875000 -635.626099
v -4222.520996 73593.984375 -530.122498
v -4232.532715 73681.546875 -642.850281
v -4223.879883 73684.914062 -531.470703
v -4229.374023 73837.265625 -536.363586
v -4238.018066 73833.390625 -652.291382
v -4229.524902 73834.109375 -645.054382
v -4243.476074 73982.125000 -543.445190
v -4243.611328 73979.085938 -647.540405
v -4252.102051 73978.250000 -654.764343
v -4255.504883 74141.054688 -553.286682
v -4264.062012 74136.718750 -661.054871
v -4255.647949 74138.125000 -653.867310
v -4274.972168 74308.250000 -565.083618
v -4283.437012 74303.070312 -676.321106
v -4275.268066 74305.187500 -669.157776
v -4376.893066 73679.390625 -643.185730
v -4382.122070 73824.929688 -648.236328
v -4396.303223 73967.570312 -655.003235
v -4408.458984 74116.640625 -664.122375
v -4427.173828 74270.726562 -675.075562
v -4350.489258 73561.078125 -632.707092
v -4358.979980 73560.242188 -639.931091
v -4344.895996 73415.367188 -637.458191
v -4336.402832 73416.085938 -630.221069
v -4330.903809 73263.867188 -620.792908
v -4350.354004 73564.109375 -528.611877
v -4336.251953 73419.265625 -521.530273
v -4339.411133 73263.531250 -628.016968
v -4330.759277 73266.890625 -516.637512
v -4329.398926 73175.960938 -515.289185
v -4338.074219 73174.046875 -626.693420
v -4329.543945 73172.937500 -619.411194
v -4348.937012 73133.640625 -515.047485
v -4349.082031 73130.601562 -619.151672
v -4355.680176 73135.906250 -626.470276
v -4397.362793 73115.500000 -515.369080
v -4397.507812 73112.460938 -619.347717
v -4399.318848 73119.562500 -626.704895
v -4481.512207 73111.210938 -618.025574
v -4481.367188 73114.250000 -515.536499
v -4481.631836 73118.328125 -625.421265
v -4503.181152 73549.562500 -640.169983
v -4489.000977 73406.921875 -633.403015
v -4483.770996 73261.375000 -628.352417
v -4541.468750 73506.625000 -540.216003
v -4541.604004 73503.804688 -635.905212
v -4541.715820 73510.437500 -642.810181
v -4518.670898 73671.476562 -646.204102
v -4527.648926 73808.179688 -650.919739
v -4540.887695 73943.820312 -657.237549
v -4564.523926 74087.093750 -665.751770
v -4587.730957 74232.601562 -675.978271
v -4614.356934 74383.781250 -687.124023
v -4652.893066 74512.125000 -696.738220
v -4685.958008 74644.757812 -705.569885
v -4741.566895 74783.945312 -713.942017
v -4795.438965 74933.468750 -724.354065
v -4853.734863 75068.890625 -734.634888
v -4942.752930 75191.218750 -745.679626
v -5022.196777 75303.054688 -754.148376
v -5099.322754 75411.648438 -760.854004
v -5182.413086 75528.632812 -765.753784
vt 3.233827 1.400254
vt 3.231881 1.848436
vt 2.733541 1.848436
vt 2.735264 1.398177
vt 2.235206 1.848436
vt 2.236799 1.395607
vt 1.736874 1.848436
vt 1.738335 1.393769
vt 1.239884 1.391568
vt 1.238546 1.848436
vt 0.741433 1.390068
vt 0.740220 1.848436
vt 0.241897 1.848436
vt 0.242719 1.387836
vt -0.255996 1.387798
vt -0.256425 1.848436
vt -0.754358 1.387136
vt -0.754746 1.848436
vt -1.252719 1.386731
vt -1.253066 1.848436
vt -1.751137 1.386100
vt -1.751385 1.848436
vt -2.249555 1.386050
vt -2.249704 1.848436
vt -1.751385 1.848436
vt -2.748419 1.385076
vt -2.748023 1.848436
vt -3.246341 1.848436
vt -3.247282 1.387151
vt -3.600176 1.388076
vt -3.728570 1.534263
vt -3.727929 1.848436
vt -3.691087 1.431032
vt 5.223313 1.346519
vt 4.726567 1.002944
vt 5.223312 1.002943
vt 4.726567 1.346520
vt 4.229865 1.002944
vt 4.726567 1.384310
vt 5.223313 1.384310
vt 4.229865 1.384311
vt 4.229865 1.346521
vt 3.733164 1.002945
vt 3.733165 1.384312
vt 3.733165 1.346522
vt 3.236466 1.002946
vt 3.236466 1.346522
vt 3.236466 1.384313
vt 2.739767 1.002947
vt 2.739767 1.346523
vt 2.739767 1.384313
vt 2.242934 1.002947
vt 2.242934 1.384314
vt 2.242934 1.346524
vt 1.746100 1.002948
vt 1.746101 1.346525
vt 1.746101 1.384315
vt 1.249441 1.002949
vt 1.249441 1.346526
vt 1.249441 1.384316
vt 0.752782 1.002949
vt 0.752782 1.346526
vt 0.752782 1.384316
vt 0.256093 1.002950
vt 0.256093 1.346527
vt 0.256093 1.384317
vt -0.240595 1.346528
vt -0.240596 1.002951
vt -0.240595 1.384318
vt -0.737506 1.002952
vt -0.737506 1.346529
vt -0.737505 1.384319
vt -1.234416 1.384320
vt -1.234416 1.346529
vt -1.234416 1.002952
vt -1.589288 1.002953
vt -1.589288 1.346530
vt -1.589287 1.384320
vt -1.697211 1.002953
vt -1.697211 1.346530
vt -1.697210 1.384320
vt -1.805134 1.002953
vt -1.805134 1.346530
vt -1.981470 1.002954
vt -1.805134 1.384320
vt -1.981470 1.346531
vt -1.981470 1.384321
vt 6.431076 1.346518
vt 6.300831 1.002942
vt 6.431075 1.002941
vt 6.300831 1.346518
vt 6.300831 1.384308
vt 6.431076 1.384308
vt 6.157632 1.384308
vt 6.157632 1.346518
vt 6.157631 1.002942
vt 6.014432 1.384308
vt 6.014432 1.346518
vt 5.720059 1.346519
vt 6.014432 1.002942
vt 5.720059 1.384309
vt 5.720058 1.002942
vt 5.223312 1.002943
vt 5.223313 1.384310
vt 5.223313 1.346519
vt 4.726567 1.002944
vt 4.726567 1.346520
vt 4.726567 1.384310
vt 4.229865 1.002944
vt 4.229865 1.384311
vt 4.229865 1.346521
vt 3.733164 1.002945
vt 3.733165 1.384312
vt 3.733165 1.346522
vt 3.236466 1.002946
vt 3.236466 1.384313
vt 3.236466 1.346522
vt 3.730222 1.848436
vt 4.198616 1.604659
vt 4.197377 1.848436
vt 4.024599 1.405331
vt 4.148033 1.464149
vt 3.732390 1.403569
vt 3.231881 1.848436
vt 3.233827 1.400254
vt 2.735264 1.398177
vt 2.733541 1.848436
vt 2.235206 1.848436
vt 2.236799 1.395607
vt 1.736874 1.848436
vt 1.738335 1.393769
vt 1.238546 1.848436
vt 1.239884 1.391568
vt 4.726567 1.346520
vt 5.223313 1.384310
vt 4.726567 1.384310
vt 5.223313 1.346519
vt 5.720059 1.346519
vt 4.726567 1.002944
vt 5.223312 1.002943
vt 5.720059 1.384309
vt 5.720058 1.002942
vt 6.014432 1.002942
vt 6.014432 1.384308
vt 6.014432 1.346518
vt 6.157631 1.002942
vt 6.157632 1.346518
vt 6.157632 1.384308
vt 6.300831 1.002942
vt 6.300831 1.346518
vt 6.300831 1.384308
vt 6.431076 1.346518
vt 6.431075 1.002941
vt 6.431076 1.384308
vt 2.735264 1.398177
vt 3.231881 1.848436
vt 2.733541 1.848436
vt 3.233827 1.400254
vt 3.732390 1.403569
vt 3.730222 1.848436
vt 4.024599 1.405331
vt 4.198616 1.604659
vt 4.148033 1.464149
vt 4.197377 1.848436
vt 4.161347 1.848436
vt 4.500877 1.848436
vt 4.498219 1.390248
vt 4.158797 1.390248
vt 4.122823 1.390248
vt 4.125362 1.848436
vt 3.674220 1.390248
vt 3.676615 1.848436
vt 3.194818 1.390248
vt 3.197062 1.848436
vt 2.731445 1.390248
vt 2.233268 1.390248
vt 1.710071 1.390248
vt 1.711842 1.848436
vt 1.177802 1.390248
vt 1.179404 1.848436
vt 0.720398 1.390248
vt 0.721855 1.848436
vt 0.217215 1.390248
vt 0.218512 1.848436
vt -0.313668 1.390248
vt -0.312540 1.848436
vt -0.862743 1.390248
vt -0.861790 1.848436
vt -1.361482 1.390248
vt -1.360687 1.848436
vt -1.888303 1.848436
vt -1.888930 1.390248
vt -2.364115 1.848436
vt -2.364590 1.390248
vt -2.825814 1.848436
vt -2.826143 1.390248
vt -3.318893 1.848436
vt -3.319065 1.390248
vt -3.758211 1.848436
vt -3.758243 1.390248
vn 0.3443 0.0038 -0.9388
vn 0.0078 -0.0722 -0.9974
vn 0.0115 -0.0592 -0.9982
vn 0.3419 0.0427 -0.9388
vn 0.0185 -0.0563 -0.9982
vn 0.3547 0.0613 -0.9330
vn 0.0161 -0.0674 -0.9976
vn 0.3435 0.0791 -0.9358
vn 0.3106 0.1097 -0.9442
vn 0.0103 -0.0721 -0.9973
vn 0.2969 0.1051 -0.9491
vn 0.0115 -0.0773 -0.9969
vn 0.0079 -0.0734 -0.9973
vn 0.2873 0.1295 -0.9490
vn 0.2681 0.1745 -0.9474
vn 0.0062 -0.0594 -0.9982
vn 0.2510 0.2031 -0.9464
vn 0.0039 -0.0479 -0.9988
vn 0.2328 0.2261 -0.9459
vn 0.0005 -0.0390 -0.9992
vn 0.2220 0.2229 -0.9492
vn 0.0006 -0.0309 -0.9995
vn 0.2338 0.2267 -0.9455
vn -0.0039 -0.0445 -0.9990
vn 0.0086 -0.0240 -0.9997
vn 0.2158 0.2158 -0.9523
vn -0.0163 -0.0476 -0.9987
vn -0.0160 -0.0301 -0.9994
vn 0.1888 0.3025 -0.9343
vn 0.1239 0.3152 -0.9409
vn -0.2533 0.2991 -0.9200
vn -0.3069 0.2561 -0.9166
vn -0.0526 0.3906 -0.9190
vn 0.8907 0.1560 -0.4271
vn 0.9678 0.2517 -0.0087
vn 0.9793 0.2023 -0.0083
vn 0.8802 0.2116 -0.4248
vn 0.9485 0.3166 -0.0097
vn 0.8698 0.2668 -0.4149
vn 0.9090 0.4165 -0.0138
vn 0.8373 0.3486 -0.4212
vn 0.8648 0.5015 -0.0235
vn 0.7895 0.4281 -0.4397
vn 0.8467 0.5308 -0.0360
vn 0.7734 0.4496 -0.4468
vn 0.8220 0.5681 -0.0403
vn 0.7443 0.4847 -0.4595
vn 0.7663 0.6414 -0.0385
vn 0.6961 0.5635 -0.4449
vn 0.7101 0.7032 -0.0369
vn 0.6450 0.6173 -0.4504
vn 0.6631 0.7477 -0.0343
vn 0.6039 0.6642 -0.4406
vn 0.6602 0.7504 -0.0312
vn 0.5966 0.6643 -0.4502
vn 0.6018 0.6720 -0.4315
vn 0.6556 0.7546 -0.0280
vn 0.6607 0.7502 -0.0249
vn 0.5964 0.6629 -0.4526
vn 0.4992 0.7591 -0.4178
vn 0.5479 0.8362 -0.0255
vn 0.3460 0.9378 -0.0275
vn 0.3181 0.8447 -0.4304
vn -0.0919 0.9953 -0.0289
vn -0.0788 0.9087 -0.4099
vn -0.6094 0.7926 -0.0229
vn -0.5643 0.7255 -0.3940
vn -0.7355 0.6773 -0.0196
vn -0.6795 0.6147 -0.4004
vn 0.0788 -0.9288 -0.3621
vn 0.1867 -0.9820 0.0284
vn 0.0811 -0.9963 0.0294
vn 0.1727 -0.9183 -0.3563
vn 0.0721 -0.4170 -0.9060
vn 0.0364 -0.3855 -0.9220
vn 0.2768 -0.3275 -0.9034
vn 0.6348 -0.6784 -0.3698
vn 0.6841 -0.7291 0.0202
vn 0.3764 -0.0947 -0.9216
vn 0.8977 -0.1939 -0.3956
vn 0.9103 0.0074 -0.4139
vn 0.9788 -0.2046 0.0046
vn 0.3468 -0.0236 -0.9376
vn 0.9997 0.0255 -0.0021
vn 0.9978 0.0661 -0.0033
vn 0.3440 -0.0146 -0.9389
vn 0.9051 0.0435 -0.4229
vn 0.9963 0.0861 -0.0038
vn 0.9048 0.0663 -0.4207
vn 0.3440 -0.0040 -0.9390
vn 0.9955 0.0949 -0.0042
vn 0.3613 -0.0266 -0.9321
vn 0.9089 0.0607 -0.4126
vn 0.9897 0.1431 -0.0068
vn 0.3582 -0.0311 -0.9331
vn 0.9041 0.0933 -0.4169
vn 0.0076 -0.0298 -0.9995
vn 0.0055 -0.0403 -0.9992
vn 0.0131 -0.0462 -0.9988
vn 0.0206 -0.0631 -0.9978
vn 0.0159 -0.0760 -0.9970
vn 0.9031 0.0806 -0.4219
vn 0.3345 0.0083 -0.9424
vn 0.9049 0.0435 -0.4233
vn 0.9103 0.0074 -0.4140
vn 0.9953 0.0967 -0.0042
vn 0.9788 -0.2047 0.0046
vn 0.8977 -0.1938 -0.3956
vn 0.6841 -0.7291 0.0203
vn 0.6349 -0.6783 -0.3698
vn 0.2767 -0.3274 -0.9035
vn 0.1867 -0.9820 0.0286
vn 0.1730 -0.9182 -0.3563
vn 0.0725 -0.4167 -0.9062
vn 0.0082 -0.9340 -0.3571
vn 0.0152 -0.9995 0.0293
vn -0.0008 -0.3989 -0.9170
vn -0.0111 -0.0412 -0.9991
vn -0.0110 -0.0332 -0.9994
vn -0.0061 -0.0316 -0.9995
vn 0.1500 -0.9883 0.0289
vn 0.1473 -0.9251 -0.3500
vn 0.0838 -0.4468 -0.8907
vn 0.0218 -0.0272 -0.9994
vn 0.0229 -0.0390 -0.9990
vn 0.0231 -0.0508 -0.9984
vn 0.0228 -0.0621 -0.9978
vn 0.0221 -0.0687 -0.9974
vn 0.0208 -0.0697 -0.9974
vn 0.0190 -0.0650 -0.9977
vn 0.0169 -0.0576 -0.9982
vn 0.0172 -0.0585 -0.9981
vn 0.0187 -0.0666 -0.9976
vn 0.0194 -0.0709 -0.9973
vn 0.0194 -0.0672 -0.9976
vn 0.0148 -0.0581 -0.9982
vn 0.0067 -0.0473 -0.9989
vn 0.0034 -0.0363 -0.9993
usemtl TiresMat
s 1
f 1/1/1 3/2/2 2/3/3
f 1/1/1 2/3/3 4/4/4
f 4/4/4 2/3/3 5/5/5
f 4/4/4 5/5/5 6/6/6
f 6/6/6 5/5/5 7/7/7
f 6/6/6 7/7/7 8/8/8
f 7/7/7 9/9/9 8/8/8
f 9/9/9 7/7/7 10/10/10
f 10/10/10 11/11/11 9/9/9
f 11/11/11 10/10/10 12/12/12
f 13/13/13 11/11/11 12/12/12
f 11/11/11 13/13/13 14/14/14
f 13/13/13 15/15/15 14/14/14
f 15/15/15 13/13/13 16/16/16
f 16/16/16 17/17/17 15/15/15
f 17/17/17 16/16/16 18/18/18
f 18/18/18 19/19/19 17/17/17
f 19/19/19 18/18/18 20/20/20
f 20/20/20 21/21/21 19/19/19
f 21/21/21 20/20/20 22/22/22
f 22/22/22 23/23/23 21/21/21
f 23/23/23 22/22/22 24/24/24
f 24/24/24 22/22/22 25/25/25
f 24/24/24 26/26/26 23/23/23
f 26/26/26 24/24/24 27/27/27
f 28/28/28 26/26/26 27/27/27
f 26/26/26 28/28/28 29/29/29
f 30/30/30 29/29/29 28/28/28
f 31/31/31 30/30/30 28/28/28
f 31/31/31 28/28/28 32/32/32
f 30/30/30 31/31/31 33/33/33
f 34/34/34 36/35/35 35/36/36
f 37/37/37 36/35/35 34/34/34
f 37/37/37 38/38/38 36/35/35
f 34/34/34 4/39/4 37/37/37
f 4/39/4 34/34/34 1/40/1
f 6/41/6 37/37/37 4/39/4
f 39/42/39 38/38/38 37/37/37
f 37/37/37 6/41/6 39/42/39
f 39/42/39 40/43/40 38/38/38
f 8/44/8 39/42/39 6/41/6
f 41/45/41 40/43/40 39/42/39
f 39/42/39 8/44/8 41/45/41
f 41/45/41 42/46/42 40/43/40
f 8/44/8 43/47/43 41/45/41
f 43/47/43 42/46/42 41/45/41
f 43/47/43 8/44/8 9/48/9
f 43/47/43 44/49/44 42/46/42
f 9/48/9 45/50/45 43/47/43
f 45/50/45 44/49/44 43/47/43
f 45/50/45 9/48/9 11/51/11
f 45/50/45 46/52/46 44/49/44
f 14/53/14 45/50/45 11/51/11
f 47/54/47 46/52/46 45/50/45
f 45/50/45 14/53/14 47/54/47
f 47/54/47 48/55/48 46/52/46
f 14/53/14 49/56/49 47/54/47
f 48/55/48 47/54/47 49/56/49
f 49/56/49 14/53/14 15/57/15
f 49/56/49 50/58/50 48/55/48
f 15/57/15 51/59/51 49/56/49
f 51/59/51 50/58/50 49/56/49
f 51/59/51 15/57/15 17/60/17
f 51/59/51 52/61/52 50/58/50
f 17/60/17 53/62/53 51/59/51
f 52/61/52 51/59/51 53/62/53
f 53/62/53 17/60/17 19/63/19
f 53/62/53 54/64/54 52/61/52
f 55/65/55 53/62/53 19/63/19
f 55/65/55 54/64/54 53/62/53
f 55/65/55 19/63/19 21/66/21
f 56/67/56 54/64/54 55/65/55
f 56/67/56 55/65/55 21/66/21
f 54/64/54 56/67/56 57/68/57
f 56/67/56 21/66/21 23/69/23
f 56/67/56 58/70/58 57/68/57
f 59/71/59 56/67/56 23/69/23
f 59/71/59 58/70/58 56/67/56
f 59/71/59 23/69/23 26/72/26
f 29/73/29 59/71/59 26/72/26
f 60/74/60 58/70/58 59/71/59
f 59/71/59 29/73/29 60/74/60
f 58/70/58 60/74/60 61/75/61
f 60/74/60 62/76/62 61/75/61
f 63/77/63 60/74/60 29/73/29
f 63/77/63 62/76/62 60/74/60
f 63/77/63 29/73/29 30/78/30
f 63/77/63 64/79/64 62/76/62
f 65/80/65 63/77/63 30/78/30
f 64/79/64 63/77/63 65/80/65
f 65/80/65 30/78/30 33/81/33
f 65/80/65 66/82/66 64/79/64
f 33/81/33 67/83/67 65/80/65
f 66/82/66 65/80/65 67/83/67
f 67/83/67 68/84/68 66/82/66
f 33/81/33 31/85/31 67/83/67
f 69/86/69 68/84/68 67/83/67
f 31/85/31 69/86/69 67/83/67
f 31/85/31 32/87/32 69/86/69
f 70/88/70 72/89/71 71/90/72
f 73/91/73 72/89/71 70/88/70
f 70/88/70 74/92/74 73/91/73
f 74/92/74 70/88/70 75/93/75
f 76/94/76 73/91/73 74/92/74
f 72/89/71 73/91/73 77/95/77
f 73/91/73 76/94/76 77/95/77
f 77/95/77 78/96/78 72/89/71
f 79/97/79 77/95/77 76/94/76
f 78/96/78 77/95/77 80/98/80
f 77/95/77 79/97/79 80/98/80
f 81/99/81 80/98/80 79/97/79
f 80/98/80 82/100/82 78/96/78
f 81/99/81 82/100/82 80/98/80
f 79/97/79 83/101/83 81/99/81
f 82/100/82 81/99/81 84/102/84
f 81/99/81 85/103/85 84/102/84
f 86/104/86 81/99/81 83/101/83
f 87/105/87 85/103/85 81/99/81
f 81/99/81 86/104/86 87/105/87
f 87/105/87 88/106/88 85/103/85
f 86/104/86 89/107/89 87/105/87
f 88/106/88 87/105/87 89/107/89
f 89/107/89 86/104/86 90/108/90
f 89/107/89 91/109/91 88/106/88
f 92/110/92 89/107/89 90/108/90
f 93/111/93 91/109/91 89/107/89
f 89/107/89 92/110/92 93/111/93
f 93/111/93 94/112/94 91/109/91
f 95/113/95 93/111/93 92/110/92
f 96/114/96 94/112/94 93/111/93
f 93/111/93 95/113/95 96/114/96
f 96/114/96 35/115/36 94/112/94
f 1/116/1 96/114/96 95/113/95
f 34/117/34 35/115/36 96/114/96
f 96/114/96 1/116/1 34/117/34
f 97/118/97 74/119/74 75/120/75
f 79/121/79 74/119/74 97/118/97
f 74/119/74 79/121/79 76/122/76
f 79/121/79 97/118/97 83/123/83
f 97/118/97 98/124/98 83/123/83
f 98/124/98 86/125/86 83/123/83
f 98/124/98 90/126/90 86/125/86
f 90/126/90 98/124/98 99/127/99
f 90/126/90 99/127/99 100/128/100
f 100/128/100 92/129/92 90/126/90
f 92/129/92 100/128/100 101/130/101
f 101/130/101 95/131/95 92/129/92
f 95/131/95 101/130/101 3/132/2
f 3/132/2 1/133/1 95/131/95
f 102/134/102 104/135/86 103/136/103
f 104/135/86 102/134/102 105/137/104
f 106/138/105 104/135/86 105/137/104
f 107/139/106 105/137/104 102/134/102
f 105/137/104 107/139/106 108/140/85
f 105/137/104 108/140/85 106/138/105
f 104/135/86 106/138/105 109/141/83
f 106/138/105 108/140/85 110/142/84
f 111/143/107 106/138/105 110/142/84
f 112/144/79 109/141/83 106/138/105
f 106/138/105 111/143/107 113/145/108
f 106/138/105 113/145/108 112/144/79
f 113/145/108 111/143/107 114/146/109
f 115/147/110 112/144/79 113/145/108
f 114/146/109 115/147/110 113/145/108
f 112/144/79 115/147/110 116/148/111
f 115/147/110 114/146/109 117/149/112
f 118/150/113 116/148/111 115/147/110
f 117/149/112 118/150/113 115/147/110
f 116/148/111 118/150/113 119/151/114
f 118/150/113 117/149/112 120/152/115
f 120/152/115 119/151/114 118/150/113
f 120/152/115 117/149/112 121/153/116
f 119/151/114 120/152/115 122/154/117
f 103/155/103 124/156/118 123/157/119
f 124/156/118 103/155/103 104/158/86
f 124/156/118 104/158/86 109/159/83
f 125/160/120 124/156/118 109/159/83
f 112/161/79 125/160/120 109/159/83
f 112/161/79 119/162/114 125/160/120
f 119/162/114 112/161/79 116/163/111
f 125/160/120 119/162/114 122/164/117
f 70/165/70 71/166/72 126/167/121
f 127/168/122 70/165/70 126/167/121
f 128/169/123 70/165/70 127/168/122
f 70/165/70 128/169/123 75/170/75
f 129/171/124 75/170/75 128/169/123
f 75/170/75 129/171/124 97/172/97
f 130/173/125 97/172/97 129/171/124
f 97/172/97 130/173/125 98/174/98
f 131/175/126 98/174/98 130/173/125
f 98/174/98 131/175/126 99/127/99
f 132/176/127 99/127/99 131/175/126
f 99/127/99 132/176/127 100/128/100
f 133/177/128 100/128/100 132/176/127
f 100/128/100 133/177/128 101/178/101
f 134/179/129 101/178/101 133/177/128
f 101/178/101 134/179/129 3/180/2
f 135/181/130 3/180/2 134/179/129
f 3/180/2 135/181/130 2/182/3
f 136/183/131 2/182/3 135/181/130
f 2/182/3 136/183/131 5/184/5
f 137/185/132 5/184/5 136/183/131
f 5/184/5 137/185/132 7/186/7
f 138/187/133 7/186/7 137/185/132
f 7/186/7 138/187/133 10/188/10
f 139/189/134 10/188/10 138/187/133
f 10/188/10 139/189/134 12/190/12
f 139/189/134 13/191/13 12/190/12
f 13/191/13 139/189/134 140/192/135
f 140/192/135 16/193/16 13/191/13
f 16/193/16 140/192/135 141/194/136
f 141/194/136 18/195/18 16/193/16
f 18/195/18 141/194/136 142/196/137
f 18/195/18 142/196/137 20/197/20
f 20/197/20 142/196/137 143/198/138
f 22/199/22 20/197/20 143/198/138
f 22/199/22 143/198/138 25/200/25
