# Blender v3.4.1 OBJ File: 'track.blend'
# www.blender.org
mtllib _1WALL_Pitbox01_02_SUB2_Scene.301.mtl
o _1WALL_Pitbox01_02_SUB2_Scene.301
v 257.966888 616.037292 -8.927282
v 258.883606 620.364929 -8.927866
v 258.883606 620.364929 -7.846843
v 257.966888 616.037292 -7.846260
v 258.896088 620.362305 -7.846843
v 258.896088 620.362305 -8.927866
v 257.979309 616.034729 -8.927282
v 257.979309 616.034729 -7.846260
v 259.203888 621.876526 -8.927281
v 259.337097 622.505188 -8.927365
v 259.337097 622.505188 -7.846344
v 259.203888 621.876526 -7.846259
v 259.216309 621.873901 -8.927281
v 259.216309 621.873901 -7.846259
v 259.345215 622.482727 -7.846341
v 259.345215 622.482727 -8.927362
vt 7.229858 1.000049
vt -6.229859 1.244514
vt -6.230728 1.000182
vt 7.230729 1.244382
vt -6.229859 1.244514
vt 7.229858 1.000049
vt -6.230728 1.000182
vt 7.230729 1.244382
vt 7.229858 1.000049
vt 5.275131 1.244401
vt 5.274261 1.000069
vt 7.230729 1.244382
vt 7.229858 1.000049
vt 5.337141 1.244400
vt 7.230729 1.244382
vt 5.336269 1.000068
vn -0.9783 0.2072 0.0000
vn 0.9783 -0.2073 0.0000
vn 0.9783 -0.2072 0.0000
vn -0.9783 0.2073 0.0000
vn 0.9782 -0.2075 0.0000
vn 0.9783 -0.2071 0.0000
usemtl GitterMat
s 1
f 1/1/1 3/2/1 2/3/1
f 3/2/1 1/1/1 4/4/1
f 5/5/2 7/6/3 6/7/2
f 7/6/3 5/5/2 8/8/3
f 9/9/4 11/10/4 10/11/4
f 11/10/4 9/9/4 12/12/4
f 13/13/5 15/14/5 14/15/6
f 15/14/5 13/13/5 16/16/3
