# Blender v3.1.2 OBJ File: 'track.blend'
# www.blender.org
mtllib _1WALL_Pitbox01_02_SUB2.mtl
o _1WALL_Pitbox01_02_SUB2_Scene.300
v 25796.689453 61603.730469 -892.738220
v 25888.361328 62036.492188 -892.796692
v 25888.361328 62036.492188 -784.694397
v 25796.689453 61603.730469 -784.636047
v 25889.609375 62036.230469 -784.694397
v 25889.609375 62036.230469 -892.796692
v 25797.931641 61603.472656 -892.738220
v 25797.931641 61603.472656 -784.636047
v 25920.388672 62187.652344 -892.738220
v 25933.708984 62250.519531 -892.746704
v 25933.708984 62250.519531 -784.644531
v 25920.388672 62187.652344 -784.636047
v 25921.630859 62187.390625 -892.738220
v 25921.630859 62187.390625 -784.636047
v 25934.521484 62248.273438 -784.644226
v 25934.521484 62248.273438 -892.746338
vt 7.229858 1.000049
vt -6.229859 1.244514
vt -6.230728 1.000182
vt 7.230729 1.244382
vt -6.229859 1.244514
vt 7.229858 1.000049
vt -6.230728 1.000182
vt 7.230729 1.244382
vt 7.229858 1.000049
vt 5.275131 1.244401
vt 5.274261 1.000069
vt 7.230729 1.244382
vt 7.229858 1.000049
vt 5.337141 1.244400
vt 7.230729 1.244382
vt 5.336269 1.000068
vn -0.9783 0.2072 0.0000
vn 0.9783 -0.2072 0.0000
vn -0.9783 0.2073 0.0000
vn 0.9782 -0.2075 -0.0000
vn 0.9783 -0.2071 0.0000
usemtl GitterMat
s 1
f 1/1/1 3/2/1 2/3/1
f 3/2/1 1/1/1 4/4/1
f 5/5/2 7/6/2 6/7/2
f 7/6/2 5/5/2 8/8/2
f 9/9/3 11/10/3 10/11/3
f 11/10/3 9/9/3 12/12/3
f 13/13/4 15/14/4 14/15/2
f 15/14/4 13/13/4 16/16/5
