# Blender v3.1.2 OBJ File: 'track.blend'
# www.blender.org
mtllib _1WALL_small03_02_000_SUB0.mtl
o _1WALL_small03_02_000_SUB0_Scene.344
v -14151.559570 -91617.750000 -129.910309
v -14135.940430 -91517.734375 -129.910309
v -14151.400391 -91617.406250 38.558800
v -14135.789062 -91517.757812 38.558788
v -13610.270508 -91609.414062 -127.041199
v -13624.530273 -91699.820312 41.427910
v -13610.409180 -91609.359375 41.427902
v -13624.479492 -91700.203125 -127.041199
v -13634.019531 -91760.531250 41.427917
v -13633.970703 -91760.898438 -127.041199
v -13639.129883 -91768.890625 41.387959
v -13639.079102 -91769.265625 -127.081093
v -13645.030273 -91773.187500 41.332909
v -13644.979492 -91773.570312 -127.136101
v -13654.549805 -91775.500000 41.236439
v -13654.500000 -91775.875000 -127.232597
v -13902.799805 -91736.625000 38.558819
v -13902.850586 -91736.984375 -129.910309
v -13470.139648 -90713.296875 -129.193192
v -13470.280273 -90713.265625 39.275921
v -13423.570312 -90414.578125 38.558598
v -13423.429688 -90414.585938 -129.910507
v -13563.699219 -91310.664062 40.710571
v -13563.560547 -91310.710938 -127.758499
v -13516.990234 -91011.960938 39.993240
v -13516.850586 -91012.015625 -128.475906
v -14158.469727 -91662.625000 38.558819
v -14158.630859 -91662.984375 -129.910309
v -14130.439453 -91701.062500 38.558819
v -14130.599609 -91701.398438 -129.910309
v -14144.659180 -91692.382812 38.558819
v -14144.819336 -91692.718750 -129.910309
v -14154.549805 -91678.820312 38.558819
v -14154.709961 -91679.164062 -129.910309
vt 0.847843 1.999290
vt 0.847811 1.943389
vt 0.874319 1.999290
vt 0.874277 1.943389
vt 0.750371 1.999290
vt 0.750412 1.943389
vt 0.774582 1.943389
vt 0.774550 1.999290
vt 0.774582 1.943389
vt 0.774550 1.999290
vt 0.775694 1.943389
vt 0.775663 1.999290
vt 0.777227 1.943389
vt 0.777196 1.999290
vt 0.779914 1.943389
vt 0.779882 1.999290
vt 0.854475 1.943389
vt 0.854475 1.999290
vt 0.859023 1.999290
vt 0.763659 1.943389
vt 0.859178 1.943389
vt 0.763465 1.999290
vt 0.859614 1.999290
vt 0.764136 1.943389
vt 0.859655 1.943389
vt 0.764057 1.999290
vt 0.859389 1.999290
vt 0.763949 1.943389
vt 0.859468 1.943389
vt 0.763831 1.999290
vt 0.859248 1.999290
vt 0.763846 1.943389
vt 0.859366 1.943389
vt 0.763691 1.999290
vt 0.847812 1.943389
vt 0.847843 1.999290
vt 0.837906 1.943389
vt 0.770051 1.999290
vt 0.770051 1.943389
vt 0.837937 1.999290
vt 0.842438 1.943389
vt 0.842469 1.999290
vt 0.845934 1.943389
vt 0.845966 1.999290
vn -0.9880 0.1547 0.0008
vn -0.9880 0.1545 0.0007
vn 0.9880 -0.1545 0.0008
vn 0.9880 -0.1544 0.0009
vn 0.9880 -0.1544 0.0007
vn 0.9880 -0.1545 0.0006
vn 0.9391 -0.3437 0.0010
vn 0.9385 -0.3452 0.0010
vn 0.7368 -0.6761 0.0017
vn 0.7346 -0.6785 0.0018
vn 0.4223 -0.9064 0.0021
vn 0.4185 -0.9082 0.0022
vn 0.0427 -0.9991 0.0022
vn 0.0393 -0.9992 0.0023
vn -0.1545 -0.9880 0.0021
vn -0.1545 -0.9880 0.0022
vn 0.9880 -0.1545 0.0009
vn -0.9992 -0.0410 0.0011
vn -0.9991 -0.0416 0.0010
vn -0.3443 -0.9389 0.0022
vn -0.6776 -0.7354 0.0021
vn -0.6773 -0.7357 0.0021
vn -0.9075 -0.4201 0.0017
vn -0.9074 -0.4203 0.0017
usemtl EnvironmentMat
s 1
f 1/1/1 3/2/2 2/3/2
f 2/3/2 3/2/2 4/4/2
f 5/5/3 7/6/4 6/7/5
f 6/7/5 8/8/6 5/5/3
f 8/8/6 6/7/5 9/9/7
f 9/9/7 10/10/8 8/8/6
f 10/10/8 9/9/7 11/11/9
f 11/11/9 12/12/10 10/10/8
f 12/12/10 11/11/9 13/13/11
f 13/13/11 14/14/12 12/12/10
f 15/15/13 14/14/12 13/13/11
f 14/14/12 15/15/13 16/16/14
f 17/17/15 16/16/14 15/15/13
f 16/16/14 17/17/15 18/18/16
f 19/19/17 21/20/3 20/21/17
f 21/20/3 19/19/17 22/22/3
f 5/23/3 23/24/17 7/25/4
f 23/24/17 5/23/3 24/26/17
f 24/27/17 25/28/17 23/29/17
f 25/28/17 24/27/17 26/30/17
f 26/31/17 20/32/17 25/33/17
f 20/32/17 26/31/17 19/34/17
f 1/1/1 27/35/18 3/2/2
f 27/35/18 1/1/1 28/36/19
f 29/37/20 18/38/16 17/39/15
f 18/38/16 29/37/20 30/40/20
f 30/40/20 29/37/20 31/41/21
f 31/41/21 32/42/22 30/40/20
f 32/42/22 31/41/21 33/43/23
f 33/43/23 34/44/24 32/42/22
f 33/43/23 28/36/19 34/44/24
f 28/36/19 33/43/23 27/35/18
