# Blender v3.4.1 OBJ File: 'track.blend'
# www.blender.org
mtllib _1WALL_small03_rolex_SUB2_Scene.354.mtl
o _1WALL_small03_rolex_SUB2_Scene.354
v -141.148499 -915.220215 -1.314315
v -140.409286 -911.258484 -1.353144
v -140.600006 -911.223022 -1.353143
v -141.339493 -915.186523 -1.314306
v -140.621094 -911.220520 -1.337820
v -141.360794 -915.184265 -1.298981
v -139.678696 -907.326477 -1.392653
v -139.869400 -907.291321 -1.392650
v -140.600006 -911.223022 -1.353143
v -139.890594 -907.288635 -1.377327
v -138.953094 -903.393188 -1.432426
v -139.143906 -903.358154 -1.432421
v -139.165100 -903.355713 -1.417097
v -138.234406 -899.458496 -1.472357
v -138.425293 -899.423889 -1.472347
v -138.446503 -899.421387 -1.457024
v -137.526596 -895.520996 -1.512458
v -137.717499 -895.486755 -1.512445
v -137.738693 -895.484375 -1.497120
v -136.798798 -891.581726 -1.538838
v -136.989395 -891.545288 -1.538838
v -137.010498 -891.542786 -1.523523
v -136.033997 -887.653320 -1.550611
v -136.224304 -887.615784 -1.550615
v -136.245407 -887.613159 -1.535303
v -135.249802 -883.730713 -1.558708
v -135.439896 -883.692322 -1.558713
v -135.460999 -883.689514 -1.543402
v -135.249802 -883.730713 -1.558707
v -134.450790 -879.811523 -1.566069
v -134.640793 -879.772217 -1.566076
v -134.661896 -879.769409 -1.550765
v -133.637299 -875.895386 -1.574126
v -133.827194 -875.855713 -1.574134
v -133.848297 -875.852722 -1.558823
v -132.808701 -871.982971 -1.583947
v -132.998398 -871.942322 -1.583958
v -133.019501 -871.939331 -1.568646
v -131.964493 -868.073914 -1.595987
v -132.154007 -868.032471 -1.596000
v -132.175003 -868.029419 -1.580688
v -132.154007 -868.032471 -1.596001
v -131.099701 -864.169495 -1.610528
v -131.288895 -864.127014 -1.610545
v -131.309998 -864.123596 -1.595232
v -130.208496 -860.271179 -1.628058
v -130.397507 -860.227173 -1.628081
v -130.418503 -860.223816 -1.612768
v -129.281799 -856.382019 -1.649537
v -129.470200 -856.335754 -1.649573
v -129.491104 -856.331909 -1.634260
v -128.295593 -852.508911 -1.677453
v -128.483002 -852.458557 -1.677519
v -128.503906 -852.454529 -1.662206
v -127.171890 -848.680298 -1.720163
v -127.355591 -848.617920 -1.720376
v -127.376198 -848.612427 -1.705072
v -125.749901 -844.944214 -1.781732
v -125.930000 -844.872009 -1.782107
v -125.950203 -844.865479 -1.766820
v -125.749901 -844.944214 -1.781731
v -124.246300 -841.232727 -1.827718
v -124.426003 -841.159424 -1.828110
v -124.446198 -841.152710 -1.812830
v -122.731491 -837.526917 -1.860803
v -122.911003 -837.453491 -1.861197
v -122.931198 -837.446777 -1.845922
v -124.446198 -841.152710 -1.812830
v -121.214691 -833.822510 -1.882809
v -121.394196 -833.749023 -1.883203
v -121.414497 -833.742310 -1.867931
v -119.702194 -830.116089 -1.895405
v -119.881889 -830.043091 -1.895798
v -119.902191 -830.036438 -1.880530
v -118.199997 -826.405212 -1.897232
v -118.379997 -826.332764 -1.897625
v -118.400299 -826.326294 -1.882360
v -119.902191 -830.036377 -1.880530
v -116.716003 -822.685608 -1.885889
v -116.896393 -822.614380 -1.886285
v -116.916794 -822.608093 -1.871029
v -115.260590 -818.952576 -1.857613
v -115.441803 -818.883423 -1.858026
v -115.462303 -818.877319 -1.842781
v -113.826889 -815.168823 -1.810310
v -114.008698 -815.101074 -1.810743
v -114.029297 -815.095276 -1.795501
vt -1.021971 1.899918
vt 2.977629 1.695245
vt 2.977629 1.899918
vt -1.021971 1.695245
vt 2.977629 1.688305
vt -1.021971 1.688305
vt -1.021971 1.899918
vt 2.977629 1.695245
vt 2.977629 1.899918
vt -1.021971 1.695245
vt 2.977629 1.688305
vt -1.021971 1.688305
vt -1.021971 1.899918
vt 2.977629 1.695245
vt 2.977629 1.899918
vt -1.021971 1.695245
vt 2.977629 1.688305
vt -1.021971 1.688305
vt -1.021971 1.899918
vt 2.977629 1.695245
vt 2.977629 1.899918
vt -1.021971 1.695245
vt 2.977629 1.688305
vt -1.021971 1.688305
vt -1.021971 1.695245
vt 2.977629 1.899918
vt -1.021971 1.899918
vt 2.977629 1.695245
vt 2.977629 1.688305
vt -1.021971 1.688305
vt -1.021971 1.695245
vt 2.977629 1.899918
vt -1.021971 1.899918
vt 2.977629 1.695245
vt 2.977629 1.688305
vt -1.021971 1.688305
vt -1.021971 1.899918
vt 2.977629 1.695245
vt 2.977629 1.899918
vt -1.021971 1.695245
vt 2.977629 1.688305
vt -1.021971 1.688305
vt -1.021971 1.899918
vt 2.977629 1.695245
vt 2.977629 1.899918
vt -1.021971 1.695245
vt 2.977629 1.688305
vt -1.021971 1.688305
vt -1.021971 1.695245
vt 2.977629 1.899918
vt -1.021971 1.899918
vt 2.977629 1.695245
vt 2.977629 1.688305
vt -1.021971 1.688305
vt -1.021971 1.695245
vt 2.977629 1.899918
vt -1.021971 1.899918
vt 2.977629 1.695245
vt 2.977629 1.688305
vt -1.021971 1.688305
vt -1.021971 1.695245
vt 2.977629 1.899918
vt -1.021971 1.899918
vt 2.977629 1.695245
vt 2.977629 1.688305
vt -1.021971 1.688305
vt -1.021971 1.695245
vt 2.977629 1.899918
vt -1.021971 1.899918
vt 2.977629 1.695245
vt 2.977629 1.688305
vt -1.021971 1.688305
vt -1.021971 1.695245
vt 2.977629 1.899918
vt -1.021971 1.899918
vt 2.977629 1.695245
vt 2.977629 1.688305
vt -1.021971 1.688305
vt -1.021971 1.695245
vt 2.977629 1.899918
vt -1.021971 1.899918
vt 2.977629 1.695245
vt 2.977629 1.688305
vt -1.021971 1.688305
vt -1.021971 1.695245
vt 2.977629 1.899918
vt -1.021971 1.899918
vt 2.977629 1.695245
vt 2.977629 1.688305
vt -1.021971 1.688305
vt -1.021971 1.695245
vt 2.977629 1.899918
vt -1.021971 1.899918
vt 2.977629 1.695245
vt 2.977629 1.688305
vt -1.021971 1.688305
vt -1.021971 1.695245
vt 2.977629 1.899918
vt -1.021971 1.899918
vt 2.977629 1.695245
vt 2.977629 1.688305
vt -1.021971 1.688305
vt -1.021971 1.899918
vt 2.977629 1.695245
vt 2.977629 1.899918
vt -1.021971 1.695245
vt 2.977629 1.688305
vt -1.021971 1.688305
vt -1.021971 1.899918
vt 2.977629 1.695245
vt 2.977629 1.899918
vt -1.021971 1.695245
vt 2.977629 1.688305
vt -1.021971 1.688305
vt -1.021971 1.899918
vt 2.977629 1.695245
vt 2.977629 1.899918
vt -1.021971 1.695245
vt 2.977629 1.688305
vt -1.021971 1.688305
vt -1.021971 1.899918
vt 2.977629 1.695245
vt 2.977629 1.899918
vt -1.021971 1.695245
vt 2.977629 1.688305
vt -1.021971 1.688305
vt -1.021971 1.899918
vt 2.977629 1.695245
vt 2.977629 1.899918
vt -1.021971 1.695245
vt 2.977629 1.688305
vt -1.021971 1.688305
vt -1.021971 1.899918
vt 2.977629 1.695245
vt 2.977629 1.899918
vt -1.021971 1.695245
vt 2.977629 1.688305
vt -1.021971 1.688305
vt -1.021971 1.899918
vt 2.977629 1.695245
vt 2.977629 1.899918
vt -1.021971 1.695245
vt 2.977629 1.688305
vt -1.021971 1.688305
vt -1.021971 1.899918
vt 2.977629 1.695245
vt 2.977629 1.899918
vt -1.021971 1.695245
vt 2.977629 1.688305
vt -1.021971 1.688305
vt -1.021971 1.899918
vt 2.977629 1.695245
vt 2.977629 1.899918
vt -1.021971 1.695245
vt 2.977629 1.688305
vt -1.021971 1.688305
vn -0.0017 -0.0095 -1.0000
vn -0.0018 -0.0095 -1.0000
vn -0.5754 0.0994 -0.8118
vn -0.5762 0.0995 -0.8112
vn -0.5752 0.0994 -0.8119
vn -0.0018 -0.0097 -1.0000
vn -0.5761 0.0986 -0.8114
vn -0.5756 0.0988 -0.8117
vn -0.5755 0.0988 -0.8118
vn -0.5762 0.0983 -0.8114
vn -0.0018 -0.0098 -1.0000
vn -0.5759 0.0976 -0.8117
vn -0.5762 0.0973 -0.8115
vn -0.0018 -0.0098 -0.9999
vn -0.5769 0.0966 -0.8111
vn -0.5769 0.0960 -0.8112
vn -0.0012 -0.0064 -1.0000
vn -0.5758 0.0953 -0.8120
vn -0.5747 0.1008 -0.8121
vn -0.0009 -0.0047 -1.0000
vn -0.5743 0.1016 -0.8123
vn -0.5733 0.1086 -0.8121
vn -0.0005 -0.0024 -1.0000
vn -0.5731 0.1101 -0.8121
vn -0.5726 0.1119 -0.8122
vn -0.0004 -0.0020 -1.0000
vn -0.5732 0.1133 -0.8116
vn -0.5729 0.1149 -0.8115
vn -0.0003 -0.0018 -1.0000
vn -0.0004 -0.0019 -1.0000
vn -0.5724 0.1156 -0.8118
vn -0.5720 0.1168 -0.8119
vn -0.0004 -0.0022 -1.0000
vn -0.5731 0.1176 -0.8110
vn -0.5727 0.1190 -0.8111
vn -0.0005 -0.0027 -1.0000
vn -0.5713 0.1194 -0.8120
vn -0.5711 0.1204 -0.8120
vn -0.0006 -0.0030 -1.0000
vn -0.5712 0.1208 -0.8119
vn -0.5713 0.1209 -0.8118
vn -0.0007 -0.0036 -1.0000
vn -0.0008 -0.0039 -1.0000
vn -0.5712 0.1245 -0.8113
vn -0.5716 0.1236 -0.8112
vn -0.5715 0.1236 -0.8112
vn -0.5709 0.1258 -0.8113
vn -0.0010 -0.0048 -1.0000
vn -0.5694 0.1274 -0.8121
vn -0.5689 0.1301 -0.8121
vn -0.0012 -0.0055 -1.0000
vn -0.0014 -0.0064 -1.0000
vn -0.5680 0.1314 -0.8125
vn -0.5659 0.1338 -0.8135
vn -0.0014 -0.0068 -1.0000
vn -0.0024 -0.0104 -0.9999
vn -0.5672 0.1386 -0.8118
vn -0.5676 0.1387 -0.8115
vn -0.0032 -0.0127 -0.9999
vn -0.5625 0.1561 -0.8119
vn -0.5638 0.1564 -0.8110
vn -0.0039 -0.0150 -0.9999
vn -0.5510 0.1963 -0.8111
vn -0.5494 0.1957 -0.8123
vn -0.0025 -0.0114 -0.9999
vn -0.0024 -0.0112 -0.9999
vn -0.0012 -0.0085 -1.0000
vn -0.5436 0.2102 -0.8126
vn -0.5444 0.2105 -0.8120
vn -0.0012 -0.0082 -1.0000
vn -0.0002 -0.0058 -1.0000
vn -0.5416 0.2149 -0.8127
vn -0.5415 0.2141 -0.8130
vn -0.5416 0.2141 -0.8129
vn -0.5412 0.2160 -0.8127
vn 0.0007 -0.0037 -1.0000
vn -0.5412 0.2172 -0.8124
vn -0.5408 0.2175 -0.8125
vn 0.0006 -0.0036 -1.0000
vn 0.0016 -0.0012 -1.0000
vn -0.5405 0.2178 -0.8127
vn 0.0017 -0.0011 -1.0000
vn 0.0028 0.0017 -1.0000
vn -0.5405 0.2182 -0.8126
vn -0.5402 0.2182 -0.8127
vn -0.5403 0.2183 -0.8127
vn -0.5404 0.2182 -0.8126
vn 0.0029 0.0019 -1.0000
vn 0.0045 0.0058 -1.0000
vn -0.5404 0.2179 -0.8127
vn -0.5404 0.2172 -0.8129
vn 0.0061 0.0100 -0.9999
vn -0.5417 0.2167 -0.8122
vn -0.5419 0.2161 -0.8122
vn 0.0062 0.0102 -0.9999
vn -0.5410 0.2152 -0.8130
vn -0.5410 0.2151 -0.8130
usemtl WallMat
s 1
f 1/1/1 3/2/2 2/3/2
f 3/2/2 1/1/1 4/4/1
f 5/5/3 4/4/4 6/6/4
f 4/4/4 5/5/3 3/2/5
f 2/7/6 8/8/6 7/9/6
f 8/8/6 2/7/6 9/10/6
f 10/11/7 9/10/8 5/12/9
f 9/10/8 10/11/7 8/8/10
f 7/13/6 12/14/11 11/15/11
f 12/14/11 7/13/6 8/16/6
f 13/17/12 8/16/10 10/18/7
f 8/16/10 13/17/12 12/14/13
f 11/19/11 15/20/14 14/21/14
f 15/20/14 11/19/11 12/22/11
f 16/23/15 12/22/13 13/24/12
f 12/22/13 16/23/15 15/20/16
f 15/25/14 17/26/11 14/27/14
f 17/26/11 15/25/14 18/28/17
f 19/29/18 15/25/16 16/30/15
f 15/25/16 19/29/18 18/28/19
f 18/31/17 20/32/20 17/33/11
f 20/32/20 18/31/17 21/34/20
f 22/35/21 18/31/19 19/36/18
f 18/31/19 22/35/21 21/34/22
f 20/37/20 24/38/23 23/39/23
f 24/38/23 20/37/20 21/40/20
f 25/41/24 21/40/22 22/42/21
f 21/40/22 25/41/24 24/38/25
f 23/43/23 27/44/26 26/45/26
f 27/44/26 23/43/23 24/46/23
f 28/47/27 24/46/25 25/48/24
f 24/46/25 28/47/27 27/44/28
f 27/49/29 30/50/30 29/51/29
f 30/50/30 27/49/29 31/52/30
f 32/53/31 27/49/28 28/54/27
f 27/49/28 32/53/31 31/52/32
f 31/55/30 33/56/33 30/57/30
f 33/56/33 31/55/30 34/58/33
f 35/59/34 31/55/32 32/60/31
f 31/55/32 35/59/34 34/58/35
f 34/61/33 36/62/36 33/63/33
f 36/62/36 34/61/33 37/64/36
f 38/65/37 34/61/35 35/66/34
f 34/61/35 38/65/37 37/64/38
f 37/67/36 39/68/39 36/69/36
f 39/68/39 37/67/36 40/70/39
f 41/71/40 37/67/38 38/72/37
f 37/67/38 41/71/40 40/70/41
f 42/73/42 43/74/42 39/75/42
f 43/74/43 42/73/42 44/76/43
f 45/77/44 42/73/45 41/78/46
f 42/73/45 45/77/44 44/76/47
f 44/79/43 46/80/48 43/81/43
f 46/80/48 44/79/43 47/82/48
f 48/83/49 44/79/47 45/84/44
f 44/79/47 48/83/49 47/82/50
f 47/85/48 49/86/51 46/87/48
f 49/86/51 47/85/48 50/88/52
f 51/89/53 47/85/50 48/90/49
f 47/85/50 51/89/53 50/88/54
f 50/91/52 52/92/55 49/93/51
f 52/92/55 50/91/52 53/94/56
f 54/95/57 50/91/54 51/96/53
f 50/91/58 54/95/58 53/94/58
f 53/97/56 55/98/59 52/99/55
f 55/98/59 53/97/56 56/100/59
f 57/101/60 53/97/60 54/102/60
f 53/97/61 57/101/61 56/100/61
f 55/103/59 59/104/62 58/105/62
f 59/104/62 55/103/59 56/106/59
f 60/107/63 56/106/63 57/108/63
f 56/106/64 60/107/64 59/104/64
f 61/109/65 63/110/66 62/111/67
f 63/110/66 61/109/65 59/112/65
f 64/113/68 59/112/69 60/114/69
f 59/112/69 64/113/68 63/110/68
f 62/115/67 66/116/70 65/117/71
f 66/116/70 62/115/67 63/118/66
f 67/119/72 63/118/73 68/120/74
f 63/118/73 67/119/72 66/116/75
f 65/121/71 70/122/71 69/123/76
f 70/122/71 65/121/71 66/124/70
f 71/125/77 66/124/75 67/126/72
f 66/124/75 71/125/77 70/122/78
f 69/127/76 73/128/79 72/129/80
f 73/128/79 69/127/76 70/130/71
f 74/131/81 70/130/78 71/132/77
f 70/130/78 74/131/81 73/128/81
f 72/133/80 76/134/82 75/135/83
f 76/134/82 72/133/80 73/136/79
f 77/137/84 73/136/85 78/138/86
f 73/136/85 77/137/84 76/134/87
f 75/139/83 80/140/88 79/141/89
f 80/140/88 75/139/83 76/142/82
f 81/143/90 76/142/87 77/144/84
f 76/142/87 81/143/90 80/140/91
f 79/145/89 83/146/89 82/147/92
f 83/146/89 79/145/89 80/148/88
f 84/149/93 80/148/91 81/150/90
f 80/148/91 84/149/93 83/146/94
f 82/151/92 86/152/95 85/153/95
f 86/152/95 82/151/92 83/154/89
f 87/155/96 83/154/94 84/156/93
f 83/154/94 87/155/96 86/152/97
