# Blender v3.1.2 OBJ File: 'track.blend'
# www.blender.org
mtllib _1WALL_03_EMIRATES_001_SUB1.mtl
o _1WALL_03_EMIRATES_001_SUB1_Scene.261
v 21867.429688 69802.062500 -239.192017
v 21867.429688 69801.757812 -311.022400
v 21876.589844 70205.296875 -240.894196
v 21876.580078 70204.992188 -312.724487
v 21906.441406 69800.648438 -407.660278
v 21915.601562 70203.851562 -409.362427
v 21913.470703 70203.742188 -410.892670
v 21904.310547 69800.539062 -409.190613
v 21894.080078 70204.171875 -410.892670
v 21884.919922 69800.968750 -409.190521
v 21903.128906 70604.039062 -412.655701
v 21885.628906 70604.867188 -314.487610
v 21922.519531 70603.609375 -412.655701
v 21924.650391 70603.718750 -411.125519
v 21885.640625 70605.187500 -242.657303
v 21885.640625 70605.343750 -242.657990
v 21885.640625 70605.015625 -314.488281
v 21894.140625 71005.218750 -244.510605
v 21894.130859 71004.882812 -316.340790
v 21924.650391 70603.867188 -411.126190
v 21933.150391 71003.804688 -412.979065
v 21931.019531 71003.695312 -414.509216
v 21922.519531 70603.750000 -412.656403
v 21911.630859 71004.070312 -414.509003
v 21903.128906 70604.187500 -412.656403
v 21919.080078 71403.968750 -416.425415
v 21901.580078 71404.742188 -318.257080
v 21938.470703 71403.640625 -416.425995
v 21940.601562 71403.750000 -414.895905
v 21901.589844 71405.078125 -246.426895
v 21901.589844 71405.234375 -246.427704
v 21901.589844 71404.882812 -318.257812
v 21907.529297 71805.109375 -248.394699
v 21907.519531 71804.757812 -320.224701
v 21940.601562 71403.914062 -414.896576
v 21946.539062 71803.921875 -416.864288
v 21944.410156 71803.804688 -418.394196
v 21938.470703 71403.781250 -416.426697
v 21925.019531 71804.054688 -418.393433
v 21919.080078 71404.109375 -416.426178
v 21929.320312 72204.000000 -420.394073
v 21911.820312 72204.640625 -322.225098
v 21948.720703 72203.851562 -420.395508
v 21950.839844 72203.992188 -418.865479
v 21911.830078 72205.000000 -250.395020
v 21911.830078 72205.148438 -250.395798
v 21911.830078 72204.789062 -322.225891
v 21914.250000 72605.039062 -252.421494
v 21914.240234 72604.679688 -324.251617
v 21950.849609 72204.132812 -418.866302
v 21953.259766 72604.210938 -420.892914
v 21951.140625 72604.062500 -422.422882
v 21948.720703 72203.992188 -420.396271
v 21931.740234 72604.117188 -422.420990
v 21929.320312 72204.148438 -420.394897
v 21931.900391 73004.101562 -424.466003
v 21914.410156 73004.570312 -326.296082
v 21951.300781 73004.140625 -424.468414
v 21953.429688 73004.304688 -422.938477
v 21914.419922 73004.929688 -254.466110
v 21914.410156 73005.078125 -254.466797
v 21914.410156 73004.710938 -326.296906
v 21912.460938 73404.601562 -328.351807
v 21912.460938 73404.968750 -256.521698
v 21953.429688 73004.453125 -422.939301
v 21951.468750 73404.539062 -424.995270
v 21949.349609 73404.367188 -426.525116
v 21951.300781 73004.281250 -424.469086
v 21931.900391 73004.250000 -424.466797
v 21929.949219 73404.226562 -426.522125
v 21925.910156 73804.203125 -428.579712
v 21908.419922 73804.476562 -330.408905
v 21945.308594 73804.437500 -428.583099
v 21947.429688 73804.617188 -427.053406
v 21908.429688 73804.851562 -258.578796
v 21908.419922 73804.992188 -258.579620
v 21908.419922 73804.632812 -330.409607
v 21902.548828 74204.859375 -260.604401
v 21902.548828 74204.500000 -332.434509
v 21947.429688 73804.773438 -427.054199
v 21941.560547 74204.812500 -429.079834
v 21939.429688 74204.617188 -430.609497
v 21945.308594 73804.593750 -428.583923
v 21925.910156 73804.351562 -428.580536
v 21920.039062 74204.304688 -430.605713
v 21912.650391 74604.226562 -432.588715
v 21895.160156 74604.359375 -334.417114
v 21932.041016 74604.632812 -432.592834
v 21934.169922 74604.828125 -431.063232
v 21895.169922 74604.710938 -262.586914
v 21895.160156 74604.859375 -262.587677
v 21895.160156 74604.500000 -334.417786
v 21886.220703 75004.320312 -263.660797
v 21886.199219 75004.468750 -335.491699
v 21934.169922 74604.984375 -431.063904
v 21925.179688 75005.765625 -432.138000
v 21923.060547 75005.570312 -433.668793
v 21932.041016 74604.773438 -432.593597
v 21903.669922 75005.101562 -433.664429
v 21912.650391 74604.382812 -432.589386
v 21893.048828 75405.546875 -431.396210
v 21875.589844 75404.359375 -333.226105
v 21912.441406 75406.109375 -431.400116
v 21914.560547 75406.312500 -429.868713
v 21875.619141 75403.851562 -261.396912
v 21875.619141 75403.992188 -261.395782
v 21875.589844 75404.500000 -333.225006
v 21863.259766 75804.078125 -331.260895
v 21863.279297 75804.054688 -259.429993
v 21914.560547 75406.460938 -429.867615
v 21902.250000 75805.570312 -427.906311
v 21900.128906 75805.351562 -429.436584
v 21912.441406 75406.265625 -431.399109
v 21880.740234 75804.710938 -429.433105
v 21893.048828 75405.703125 -431.395111
v 21866.679688 76201.898438 -433.053589
v 21849.130859 76203.250000 -334.901184
v 21886.058594 76202.640625 -433.057892
v 21888.179688 76202.914062 -431.530396
v 21849.089844 76204.718750 -263.085297
v 21849.080078 76204.882812 -263.087891
v 21849.119141 76203.414062 -334.903778
v 21833.000000 76604.679688 -273.628998
v 21833.060547 76602.664062 -345.432007
v 21888.169922 76203.054688 -431.532990
v 21872.128906 76601.789062 -442.050598
v 21870.009766 76601.507812 -443.575989
v 21886.050781 76202.789062 -433.060608
v 21866.669922 76202.062500 -433.056213
v 21850.630859 76600.679688 -443.569092
v 21832.419922 77002.000000 -452.525085
v 21814.919922 77002.398438 -354.355682
v 21851.789062 77002.914062 -452.534302
v 21853.910156 77003.195312 -451.006805
v 21814.910156 77003.304688 -282.530487
v 21814.900391 77003.460938 -282.532684
v 21814.910156 77002.554688 -354.358002
v 21794.570312 77402.281250 -355.262482
v 21794.619141 77401.968750 -283.432281
v 21853.900391 77003.351562 -451.009186
v 21833.470703 77404.953125 -451.917877
v 21831.351562 77404.703125 -453.448395
v 21851.781250 77003.085938 -452.536591
v 21811.980469 77403.664062 -453.438995
v 21832.410156 77002.148438 -452.527374
v 21789.300781 77803.335938 -450.622314
v 21771.910156 77801.570312 -352.448212
v 21808.660156 77804.500000 -450.630798
v 21810.781250 77804.773438 -449.099670
v 21771.968750 77801.039062 -280.619202
v 21771.968750 77801.187500 -280.618011
v 21771.898438 77801.718750 -352.447113
v 21746.730469 78200.601562 -350.819122
v 21746.759766 78200.710938 -278.988190
v 21810.769531 77804.921875 -449.098572
v 21785.640625 78203.195312 -447.473480
v 21783.529297 78202.898438 -449.003326
v 21808.650391 77804.648438 -450.629700
v 21764.169922 78201.609375 -448.995300
v 21789.289062 77803.492188 -450.621094
v 21737.359375 78605.906250 -449.429901
v 21719.900391 78605.125000 -351.254395
v 21756.708984 78607.218750 -449.437988
v 21758.820312 78607.515625 -447.908203
v 21719.910156 78605.429688 -279.424103
vt 2.977629 0.755510
vt -1.021971 0.755511
vt 2.977629 1.108993
vt -1.021971 1.108994
vt 2.977629 1.688305
vt -1.021971 1.695245
vt -1.021971 1.688305
vt 2.977629 1.695245
vt -1.021971 1.899918
vt 2.977629 1.899918
vt -1.021971 2.001424
vt 2.977629 2.001424
vt 2.977629 1.108993
vt -1.021971 2.001424
vt 2.977629 2.001424
vt -1.021971 1.108994
vt -1.021971 1.899918
vt 2.977629 1.695245
vt 2.977629 1.899918
vt -1.021971 1.695245
vt 2.977629 1.688305
vt -1.021971 1.688305
vt 2.977629 0.755510
vt -1.021971 0.755511
vt 2.977629 0.755510
vt -1.021971 0.755511
vt 2.977629 1.108993
vt -1.021971 1.108994
vt 2.977629 1.688305
vt -1.021971 1.695245
vt -1.021971 1.688305
vt 2.977629 1.695245
vt -1.021971 1.899918
vt 2.977629 1.899918
vt -1.021971 2.001424
vt 2.977629 2.001424
vt 2.977629 1.108993
vt -1.021971 2.001424
vt 2.977629 2.001424
vt -1.021971 1.108994
vt -1.021971 1.899918
vt 2.977629 1.695245
vt 2.977629 1.899918
vt -1.021971 1.695245
vt 2.977629 1.688305
vt -1.021971 1.688305
vt 2.977629 0.755510
vt -1.021971 0.755511
vt 2.977629 0.755510
vt -1.021971 0.755511
vt 2.977629 1.108993
vt -1.021971 1.108994
vt 2.977629 1.688305
vt -1.021971 1.695245
vt -1.021971 1.688305
vt 2.977629 1.695245
vt -1.021971 1.899918
vt 2.977629 1.899918
vt -1.021971 2.001424
vt 2.977629 2.001424
vt 2.977629 1.108993
vt -1.021971 2.001424
vt 2.977629 2.001424
vt -1.021971 1.108994
vt 2.977629 1.695245
vt -1.021971 1.899918
vt -1.021971 1.695245
vt 2.977629 1.899918
vt 2.977629 1.688305
vt -1.021971 1.688305
vt 2.977629 0.755510
vt -1.021971 0.755511
vt 2.977629 0.755510
vt -1.021971 0.755511
vt 2.977629 1.108993
vt -1.021971 1.108994
vt 2.977629 1.688305
vt -1.021971 1.695245
vt -1.021971 1.688305
vt 2.977629 1.695245
vt -1.021971 1.899918
vt 2.977629 1.899918
vt -1.021971 2.001424
vt 2.977629 2.001424
vt 2.977629 1.108993
vt -1.021971 2.001424
vt 2.977629 2.001424
vt -1.021971 1.108994
vt 2.977629 1.899918
vt -1.021971 1.695245
vt 2.977629 1.695245
vt -1.021971 1.899918
vt 2.977629 1.688305
vt -1.021971 1.688305
vt 2.977629 0.755510
vt -1.021971 0.755511
vt 2.977629 0.755510
vt -1.021971 1.108994
vt 2.977629 1.108993
vt -1.021971 0.755511
vt 2.977629 1.688305
vt -1.021971 1.695245
vt -1.021971 1.688305
vt 2.977629 1.695245
vt 2.977629 1.899918
vt -1.021971 1.899918
vt 2.977629 2.001424
vt -1.021971 2.001424
vt 2.977629 2.001424
vt -1.021971 1.108994
vt -1.021971 2.001424
vt 2.977629 1.108993
vt 2.977629 1.899918
vt -1.021971 1.695245
vt 2.977629 1.695245
vt -1.021971 1.899918
vt 2.977629 1.688305
vt -1.021971 1.688305
vt 2.977629 0.755510
vt -1.021971 0.755511
vt 2.977629 0.755510
vt -1.021971 0.755511
vt 2.977629 1.108993
vt -1.021971 1.108994
vt 2.977629 1.688305
vt -1.021971 1.695245
vt -1.021971 1.688305
vt 2.977629 1.695245
vt 2.977629 1.899918
vt -1.021971 1.899918
vt 2.977629 2.001424
vt -1.021971 2.001424
vt 2.977629 2.001424
vt -1.021971 1.108994
vt -1.021971 2.001424
vt 2.977629 1.108993
vt 2.977629 1.695245
vt -1.021971 1.899918
vt -1.021971 1.695245
vt 2.977629 1.899918
vt 2.977629 1.688305
vt -1.021971 1.688305
vt 2.977629 0.755510
vt -1.021971 0.755511
vt 2.977629 0.755510
vt -1.021971 0.755511
vt 2.977629 1.108993
vt -1.021971 1.108994
vt 2.977629 1.688305
vt -1.021971 1.695245
vt -1.021971 1.688305
vt 2.977629 1.695245
vt -1.021971 1.899918
vt 2.977629 1.899918
vt 2.977629 2.001424
vt -1.021971 2.001424
vt 2.977629 2.001424
vt -1.021971 1.108994
vt -1.021971 2.001424
vt 2.977629 1.108993
vt 2.977629 1.695245
vt -1.021971 1.899918
vt -1.021971 1.695245
vt 2.977629 1.899918
vt 2.977629 1.688305
vt -1.021971 1.688305
vt 2.977629 0.755510
vt -1.021971 0.755511
vt 2.977629 0.755510
vt -1.021971 1.108994
vt 2.977629 1.108993
vt -1.021971 0.755511
vt 2.977629 1.688305
vt -1.021971 1.695245
vt -1.021971 1.688305
vt 2.977629 1.695245
vt -1.021971 1.899918
vt 2.977629 1.899918
vt 2.977629 2.001424
vt -1.021971 2.001424
vt 2.977629 2.001424
vt -1.021971 1.108994
vt -1.021971 2.001424
vt 2.977629 1.108993
vt 2.977629 1.695245
vt -1.021971 1.899918
vt -1.021971 1.695245
vt 2.977629 1.899918
vt 2.977629 1.688305
vt -1.021971 1.688305
vt 2.977629 0.755510
vt -1.021971 0.755511
vt 2.977629 0.755510
vt -1.021971 0.755511
vt 2.977629 1.108993
vt -1.021971 1.108994
vt 2.977629 1.688305
vt -1.021971 1.695245
vt -1.021971 1.688305
vt 2.977629 1.695245
vt 2.977629 1.899918
vt -1.021971 1.899918
vt 2.977629 2.001424
vt -1.021971 2.001424
vt 2.977629 2.001424
vt -1.021971 1.108994
vt -1.021971 2.001424
vt 2.977629 1.108993
vt 2.977629 1.899918
vt -1.021971 1.695245
vt 2.977629 1.695245
vt -1.021971 1.899918
vt 2.977629 1.688305
vt -1.021971 1.688305
vt 2.977629 0.755510
vt -1.021971 0.755511
vt 2.977629 0.755510
vt -1.021971 1.108994
vt 2.977629 1.108993
vt -1.021971 0.755511
vt 2.977629 1.688305
vt -1.021971 1.695245
vt -1.021971 1.688305
vt 2.977629 1.695245
vt -1.021971 1.899918
vt 2.977629 1.899918
vt 2.977629 2.001424
vt -1.021971 2.001424
vt 2.977629 2.001424
vt -1.021971 1.108994
vt -1.021971 2.001424
vt 2.977629 1.108993
vt 2.977629 1.695245
vt -1.021971 1.899918
vt -1.021971 1.695245
vt 2.977629 1.899918
vt 2.977629 1.688305
vt -1.021971 1.688305
vt 2.977629 0.755510
vt -1.021971 0.755511
vt 2.977629 0.755510
vt -1.021971 1.108994
vt 2.977629 1.108993
vt -1.021971 0.755511
vt 2.977629 1.688305
vt -1.021971 1.695245
vt -1.021971 1.688305
vt 2.977629 1.695245
vt -1.021971 1.899918
vt 2.977629 1.899918
vt 2.977629 2.001424
vt -1.021971 2.001424
vt 2.977629 2.001424
vt -1.021971 1.108994
vt -1.021971 2.001424
vt 2.977629 1.108993
vt 2.977629 1.695245
vt -1.021971 1.899918
vt -1.021971 1.695245
vt 2.977629 1.899918
vt 2.977629 1.688305
vt -1.021971 1.688305
vt 2.977629 0.755510
vt -1.021971 0.755511
vn -0.9997 0.0227 -0.0001
vn -0.9997 0.0227 0.0000
vn 0.5848 -0.0167 -0.8110
vn 0.5838 -0.0167 -0.8117
vn -0.0001 -0.0043 -1.0000
vn -0.0001 -0.0042 -1.0000
vn -0.9842 0.0216 -0.1755
vn -0.9843 0.0216 -0.1753
vn -0.9842 0.0216 -0.1756
vn -0.9842 0.0215 -0.1756
vn -0.0001 -0.0044 -1.0000
vn 0.5837 -0.0168 -0.8118
vn -0.9997 0.0226 0.0000
vn -0.9997 0.0226 0.0001
vn -0.9998 0.0212 -0.0001
vn -0.9998 0.0200 0.0000
vn -0.9998 0.0199 0.0000
vn 0.5843 -0.0162 -0.8114
vn 0.5837 -0.0155 -0.8118
vn 0.5837 -0.0154 -0.8118
vn 0.5844 -0.0162 -0.8113
vn -0.0001 -0.0047 -1.0000
vn -0.0001 -0.0046 -1.0000
vn -0.9843 0.0201 -0.1755
vn -0.9843 0.0189 -0.1756
vn -0.9843 0.0187 -0.1756
vn -0.9843 0.0201 -0.1756
vn -0.9843 0.0175 -0.1756
vn -0.0001 -0.0048 -1.0000
vn 0.5838 -0.0148 -0.8118
vn -0.9998 0.0186 0.0000
vn -0.9999 0.0148 -0.0001
vn -0.9999 0.0128 0.0001
vn 0.5834 -0.0126 -0.8121
vn 0.5840 -0.0115 -0.8117
vn -0.0001 -0.0050 -1.0000
vn -0.0001 -0.0049 -1.0000
vn -0.9844 0.0138 -0.1755
vn -0.9844 0.0118 -0.1755
vn -0.9844 0.0115 -0.1756
vn -0.9844 0.0137 -0.1756
vn -0.9844 0.0119 -0.1756
vn -0.9844 0.0097 -0.1756
vn -0.9844 0.0117 -0.1755
vn 0.5849 -0.0103 -0.8111
vn 0.5848 -0.0103 -0.8111
vn -0.9999 0.0107 0.0001
vn -1.0000 0.0060 -0.0000
vn -1.0000 0.0032 0.0001
vn 0.5848 -0.0076 -0.8112
vn 0.5843 -0.0060 -0.8115
vn 0.5849 -0.0076 -0.8111
vn -0.0001 -0.0051 -1.0000
vn -0.9845 0.0051 -0.1754
vn -0.9845 0.0023 -0.1754
vn -0.9845 0.0020 -0.1755
vn -0.9845 0.0050 -0.1755
vn -0.9845 0.0025 -0.1755
vn -0.9845 -0.0005 -0.1755
vn -0.9845 -0.0005 -0.1754
vn -0.9845 0.0023 -0.1755
vn 0.5838 -0.0044 -0.8119
vn -1.0000 0.0004 0.0001
vn -1.0000 -0.0049 0.0000
vn -1.0000 -0.0075 0.0000
vn 0.5850 -0.0013 -0.8110
vn 0.5841 0.0001 -0.8117
vn 0.5841 0.0002 -0.8117
vn -0.9845 -0.0057 -0.1754
vn -0.9845 -0.0083 -0.1753
vn -0.9844 -0.0108 -0.1754
vn 0.5842 0.0017 -0.8116
vn -0.9999 -0.0101 0.0002
vn -0.9999 -0.0147 0.0001
vn -0.9999 -0.0167 0.0003
vn -0.9999 -0.0146 0.0004
vn -0.9999 -0.0166 0.0001
vn 0.5840 0.0045 -0.8118
vn 0.5851 0.0056 -0.8109
vn 0.5851 0.0057 -0.8109
vn 0.5840 0.0045 -0.8117
vn -0.9844 -0.0153 -0.1753
vn -0.9844 -0.0172 -0.1753
vn -0.9843 -0.0191 -0.1753
vn -0.9843 -0.0191 -0.1754
vn 0.5838 0.0067 -0.8119
vn 0.5836 0.0067 -0.8120
vn -0.9998 -0.0184 0.0004
vn -0.9998 -0.0185 0.0002
vn -0.9999 -0.0166 0.0003
vn -0.9997 -0.0224 0.0001
vn -0.9997 -0.0243 0.0002
vn -0.9997 -0.0245 0.0003
vn 0.5837 0.0109 -0.8119
vn 0.5846 0.0154 -0.8112
vn 0.5843 0.0156 -0.8114
vn 0.5838 0.0109 -0.8118
vn -0.0002 -0.0027 -1.0000
vn -0.0003 0.0015 -1.0000
vn -0.9843 -0.0225 -0.1753
vn -0.9842 -0.0238 -0.1753
vn -0.9842 -0.0251 -0.1753
vn -0.0004 0.0057 -1.0000
vn 0.5839 0.0201 -0.8116
vn -0.9996 -0.0265 0.0002
vn -0.9997 -0.0245 0.0002
vn -0.9995 -0.0308 0.0002
vn -0.9995 -0.0331 0.0003
vn -0.9995 -0.0330 0.0003
vn 0.5837 0.0220 -0.8117
vn 0.5838 0.0178 -0.8117
vn 0.5838 0.0175 -0.8117
vn 0.5836 0.0220 -0.8118
vn -0.0003 0.0049 -1.0000
vn -0.0001 -0.0021 -1.0000
vn -0.9841 -0.0295 -0.1754
vn -0.9839 -0.0330 -0.1754
vn -0.9838 -0.0364 -0.1754
vn 0.0001 -0.0091 -1.0000
vn 0.5832 0.0132 -0.8122
vn -0.9994 -0.0354 0.0003
vn -0.9994 -0.0354 0.0002
vn -0.9995 -0.0331 0.0002
vn -0.9992 -0.0402 0.0003
vn -0.9991 -0.0428 0.0004
vn -0.9991 -0.0427 0.0004
vn 0.5845 0.0021 -0.8114
vn 0.5840 0.0051 -0.8118
vn 0.5839 0.0054 -0.8118
vn 0.0008 -0.0263 -0.9997
vn 0.0007 -0.0243 -0.9997
vn -0.9835 -0.0442 -0.1752
vn -0.9834 -0.0464 -0.1751
vn -0.9835 -0.0464 -0.1751
vn -0.9835 -0.0442 -0.1753
vn -0.9834 -0.0485 -0.1751
vn 0.0006 -0.0223 -0.9998
vn 0.5847 0.0084 -0.8112
vn -0.9990 -0.0453 0.0004
vn -0.9987 -0.0508 0.0005
vn -0.9986 -0.0537 0.0004
vn -0.9985 -0.0539 0.0005
vn 0.5831 0.0278 -0.8119
vn 0.5826 0.0331 -0.8121
vn 0.5825 0.0335 -0.8121
vn -0.0004 -0.0023 -1.0000
vn -0.0006 0.0024 -1.0000
vn -0.9833 -0.0504 -0.1751
vn -0.9832 -0.0525 -0.1751
vn -0.9830 -0.0545 -0.1751
vn -0.0009 0.0070 -1.0000
vn 0.5819 0.0387 -0.8123
vn 0.5816 0.0387 -0.8125
vn -0.9984 -0.0566 0.0004
vn -0.9984 -0.0567 0.0004
vn -0.9986 -0.0537 0.0005
vn -0.9980 -0.0630 0.0005
vn -0.9979 -0.0646 0.0005
vn -0.9979 -0.0645 0.0005
vn 0.5818 0.0400 -0.8123
vn 0.5827 0.0390 -0.8118
vn 0.5827 0.0389 -0.8117
vn -0.0007 0.0040 -1.0000
vn -0.0005 0.0015 -1.0000
vn -0.9826 -0.0613 -0.1752
vn -0.9825 -0.0633 -0.1752
vn -0.9824 -0.0653 -0.1752
vn -0.0003 -0.0011 -1.0000
vn 0.5827 0.0378 -0.8118
vn -0.9978 -0.0662 0.0005
vn -0.9978 -0.0662 0.0004
vn -0.9979 -0.0646 0.0003
usemtl WallMat
s 1
f 1/1/1 3/2/2 2/3/1
f 4/4/2 2/3/1 3/2/2
f 5/5/3 7/6/4 6/7/4
f 7/6/4 5/5/3 8/8/3
f 9/9/5 8/8/6 10/10/6
f 8/8/6 9/9/5 7/6/5
f 2/3/7 9/11/7 10/12/7
f 9/11/8 2/3/9 4/4/9
f 4/13/9 11/14/10 9/15/8
f 11/14/10 4/13/10 12/16/10
f 11/17/11 7/18/5 9/19/5
f 7/18/5 11/17/11 13/20/11
f 6/21/4 13/20/12 14/22/12
f 13/20/12 6/21/4 7/18/4
f 3/23/2 12/16/13 4/13/2
f 12/16/14 3/23/14 15/24/14
f 16/25/15 18/26/16 17/27/15
f 19/28/17 17/27/15 18/26/16
f 20/29/18 22/30/19 21/31/20
f 22/30/19 20/29/18 23/32/21
f 24/33/22 23/32/23 25/34/23
f 23/32/23 24/33/22 22/30/22
f 17/27/24 24/35/25 25/36/24
f 24/35/26 17/27/27 19/28/25
f 19/37/25 26/38/28 24/39/26
f 26/38/28 19/37/26 27/40/28
f 26/41/29 22/42/22 24/43/22
f 22/42/22 26/41/29 28/44/29
f 21/45/20 28/44/30 29/46/30
f 28/44/30 21/45/20 22/42/19
f 18/47/16 27/40/31 19/37/17
f 27/40/31 18/47/17 30/48/31
f 31/49/32 33/50/33 32/51/32
f 34/52/33 32/51/32 33/50/33
f 35/53/34 37/54/35 36/55/35
f 37/54/35 35/53/34 38/56/34
f 39/57/36 38/56/37 40/58/37
f 38/56/37 39/57/36 37/54/36
f 32/51/38 39/59/39 40/60/38
f 39/59/40 32/51/41 34/52/42
f 34/61/42 41/62/43 39/63/40
f 41/62/43 34/61/44 42/64/43
f 37/65/36 41/66/36 43/67/36
f 41/66/36 37/65/36 39/68/36
f 36/69/35 43/67/45 44/70/46
f 43/67/45 36/69/35 37/65/35
f 33/71/33 45/72/47 34/61/33
f 42/64/47 34/61/33 45/72/47
f 46/73/48 48/74/49 47/75/48
f 49/76/49 47/75/48 48/74/49
f 50/77/50 52/78/51 51/79/51
f 52/78/51 50/77/50 53/80/52
f 53/80/53 54/81/53 52/78/53
f 54/81/53 53/80/53 55/82/53
f 47/75/54 54/83/55 55/84/54
f 54/83/56 47/75/57 49/76/58
f 49/85/58 56/86/59 54/87/56
f 56/86/60 49/85/61 57/88/60
f 54/89/53 58/90/53 52/91/53
f 58/90/53 54/89/53 56/92/53
f 51/93/51 58/90/62 59/94/62
f 58/90/62 51/93/51 52/91/51
f 48/95/49 60/96/63 49/85/49
f 57/88/63 49/85/49 60/96/63
f 61/97/64 63/98/65 62/99/64
f 63/98/65 61/97/64 64/100/65
f 65/101/66 67/102/67 66/103/68
f 67/102/67 65/101/66 68/104/66
f 69/105/53 67/102/53 68/104/53
f 67/102/53 69/105/53 70/106/53
f 69/107/69 63/98/70 70/108/70
f 63/98/70 69/107/69 62/99/69
f 70/109/70 72/110/71 71/111/71
f 72/110/71 70/109/70 63/112/70
f 70/113/53 73/114/53 67/115/53
f 73/114/53 70/113/53 71/116/53
f 66/117/68 73/114/72 74/118/72
f 73/114/72 66/117/68 67/115/67
f 64/119/65 75/120/73 63/112/65
f 72/110/73 63/112/65 75/120/73
f 76/121/74 78/122/75 77/123/76
f 79/124/77 77/123/76 78/122/75
f 80/125/78 82/126/79 81/127/80
f 82/126/79 80/125/78 83/128/81
f 84/129/53 82/126/53 83/128/53
f 82/126/36 84/129/53 85/130/36
f 84/131/82 79/124/83 85/132/83
f 79/124/83 84/131/82 77/123/82
f 85/133/83 87/134/84 86/135/85
f 87/134/84 85/133/83 79/136/83
f 82/137/36 86/138/36 88/139/36
f 86/138/36 82/137/36 85/140/36
f 81/141/80 88/139/86 89/142/87
f 88/139/86 81/141/80 82/137/79
f 78/143/75 87/134/88 79/136/77
f 87/134/89 78/143/90 90/144/89
f 91/145/91 93/146/92 92/147/91
f 94/148/93 92/147/91 93/146/92
f 95/149/94 97/150/95 96/151/96
f 97/150/95 95/149/94 98/152/97
f 98/152/98 99/153/99 97/150/99
f 99/153/99 98/152/98 100/154/98
f 100/155/100 94/148/101 99/156/101
f 94/148/101 100/155/100 92/147/100
f 99/157/101 102/158/102 101/159/102
f 102/158/102 99/157/101 94/160/101
f 97/161/99 101/162/103 103/163/103
f 101/162/103 97/161/99 99/164/99
f 96/165/96 103/163/104 104/166/104
f 103/163/104 96/165/96 97/161/95
f 93/167/92 102/158/105 94/160/93
f 102/158/105 93/167/106 105/168/105
f 106/169/107 108/170/108 107/171/107
f 108/170/108 106/169/107 109/172/109
f 110/173/110 112/174/111 111/175/112
f 112/174/111 110/173/110 113/176/113
f 113/176/114 114/177/115 112/174/115
f 114/177/115 113/176/114 115/178/114
f 115/179/116 108/170/117 114/180/117
f 108/170/117 115/179/116 107/171/116
f 114/181/117 117/182/118 116/183/118
f 117/182/118 114/181/117 108/184/117
f 112/185/115 116/186/119 118/187/119
f 116/186/119 112/185/115 114/188/115
f 111/189/112 118/187/120 119/190/120
f 118/187/120 111/189/112 112/185/111
f 109/191/109 117/182/121 108/184/108
f 117/182/122 109/191/123 120/192/122
f 121/193/124 123/194/125 122/195/124
f 124/196/126 122/195/124 123/194/125
f 125/197/127 127/198/128 126/199/129
f 127/198/128 125/197/127 128/200/127
f 129/201/130 127/198/131 128/200/130
f 127/198/131 129/201/130 130/202/131
f 129/203/132 124/196/133 130/204/134
f 124/196/133 129/203/132 122/195/135
f 130/205/134 132/206/136 131/207/136
f 132/206/136 130/205/134 124/208/133
f 130/209/131 133/210/137 127/211/131
f 133/210/137 130/209/131 131/212/137
f 126/213/129 133/210/138 134/214/138
f 133/210/138 126/213/129 127/211/128
f 123/215/125 135/216/139 124/208/126
f 132/206/139 124/208/126 135/216/139
f 136/217/140 138/218/141 137/219/140
f 138/218/141 136/217/140 139/220/142
f 140/221/143 142/222/144 141/223/145
f 142/222/144 140/221/143 143/224/143
f 143/224/146 144/225/147 142/222/147
f 144/225/147 143/224/146 145/226/146
f 145/227/148 138/218/149 144/228/149
f 138/218/149 145/227/148 137/219/148
f 144/229/149 147/230/150 146/231/150
f 147/230/150 144/229/149 138/232/149
f 142/233/147 146/234/151 148/235/151
f 146/234/151 142/233/147 144/236/147
f 141/237/145 148/235/152 149/238/153
f 148/235/152 141/237/145 142/233/144
f 139/239/142 147/230/154 138/232/141
f 147/230/155 139/239/156 150/240/155
f 151/241/157 153/242/158 152/243/157
f 153/242/158 151/241/157 154/244/159
f 155/245/160 157/246/161 156/247/162
f 157/246/161 155/245/160 158/248/160
f 158/248/163 159/249/164 157/246/164
f 159/249/164 158/248/163 160/250/163
f 160/251/165 153/242/166 159/252/166
f 153/242/166 160/251/165 152/243/165
f 159/253/166 162/254/167 161/255/167
f 162/254/167 159/253/166 153/256/166
f 157/257/164 161/258/168 163/259/168
f 161/258/168 157/257/164 159/260/164
f 156/261/162 163/259/169 164/262/169
f 163/259/169 156/261/162 157/257/161
f 154/263/159 162/254/170 153/256/158
f 162/254/171 154/263/172 165/264/171
