# Blender v3.1.2 OBJ File: 'track.blend'
# www.blender.org
mtllib _1WALL_tires01_06.mtl
o _1WALL_tires01_06_Scene.384
v -7492.912109 75957.039062 -813.412354
v -7389.391113 75844.750000 -811.788208
v -7384.136230 75849.843750 -804.423828
v -7487.657227 75962.125000 -806.048035
v -7566.174316 76036.507812 -816.062134
v -7561.908203 76042.679688 -808.733643
v -7593.554688 76049.179688 -816.787415
v -7593.372559 76057.234375 -809.566956
v -7564.040527 76044.398438 -698.189087
v -7489.790527 75963.851562 -695.503540
v -7386.309082 75851.593750 -691.760376
v -7595.504883 76058.945312 -699.022400
v -7625.916992 76045.257812 -810.008423
v -7628.048828 76046.976562 -699.463806
v -7691.811523 75988.187500 -699.778503
v -7621.875000 76038.757812 -817.171570
v -7689.678223 75986.468750 -810.323059
v -7684.562500 75980.953125 -817.480957
v -7280.726074 75737.656250 -798.563171
v -7282.858398 75739.382812 -688.018677
v -7179.406738 75627.171875 -684.277039
v -7285.980469 75732.570312 -805.927673
v -7177.158203 75625.351562 -800.913635
v -7182.412109 75620.257812 -808.278015
v -7079.078613 75508.148438 -798.444092
v -7073.824219 75513.242188 -791.079834
v -7075.956055 75514.960938 -680.535217
v -6972.505371 75402.750000 -676.793457
v -6970.305664 75400.968750 -790.786804
v -6975.560547 75395.882812 -798.151123
v -6872.176270 75283.718750 -790.960693
v -6866.921875 75288.812500 -783.596252
v -6869.053711 75290.531250 -673.051697
v -6768.792969 75171.554688 -783.703979
v -6763.539062 75176.648438 -776.339722
v -6765.603027 75178.320312 -669.309998
v -6674.421875 75075.781250 -784.162720
v -6670.308594 75081.515625 -666.218018
v -6668.177246 75079.789062 -776.762573
v -6676.689941 75020.070312 -783.339417
v -6664.019043 75047.445312 -783.521301
v -6763.242188 74988.148438 -784.511902
v -6739.376953 74962.265625 -783.648682
v -7584.586426 75872.523438 -813.864807
v -7481.104980 75760.250000 -810.121704
v -6860.398926 75086.984375 -787.671265
v -6963.849609 75199.187500 -791.413086
v -7067.299805 75311.406250 -795.154785
v -7170.751953 75423.617188 -798.896484
v -7274.202637 75535.828125 -802.638245
v -7377.654297 75648.039062 -806.380005
v -6734.544922 74956.984375 -776.131104
v -6670.784668 75015.781250 -775.816467
v -6736.676758 74958.695312 -665.586548
v -6672.915527 75017.500000 -665.271912
v -6658.355469 75048.968750 -665.480896
v -6656.224121 75047.250000 -776.025513
vt 0.752599 1.378793
vt 1.249441 1.346526
vt 1.249441 1.378792
vt 0.752599 1.346526
vt 0.397728 1.378794
vt 0.397728 1.346527
vt 0.289804 1.378794
vt 0.289804 1.346527
vt 0.397727 1.002950
vt 0.752598 1.002950
vt 1.249441 1.002949
vt 0.289804 1.002950
vt 0.181881 1.346527
vt 0.181880 1.002950
vt -0.098675 1.002951
vt 0.181881 1.378794
vt -0.098674 1.346528
vt -0.098674 1.378794
vt 1.746101 1.346525
vt 1.746100 1.002948
vt 2.242934 1.002947
vt 1.746101 1.384315
vt 1.249441 1.384316
vt 2.242934 1.346524
vt 2.242934 1.384314
vt 2.739767 1.384313
vt 2.739767 1.346523
vt 2.739767 1.002947
vt 3.236466 1.002946
vt 3.236466 1.346522
vt 3.236466 1.384313
vt 3.733165 1.384312
vt 3.733165 1.346522
vt 3.733164 1.002945
vt 4.229865 1.384311
vt 4.229865 1.346521
vt 4.229865 1.002944
vt 4.726567 1.384310
vt 4.726567 1.002944
vt 4.726567 1.346520
vt -3.141720 1.541687
vt -3.270114 1.395500
vt -3.179202 1.438457
vt -3.257319 1.856822
vt -3.142361 1.857123
vt -3.736500 1.534263
vt -3.254271 1.848438
vt -3.735859 1.849698
vt -3.608106 1.388076
vt -3.699018 1.431032
vt -3.255212 1.387151
vt -2.756349 1.385076
vt -2.755953 1.847127
vt 2.733541 1.859483
vt 2.236799 1.395607
vt 2.735264 1.398177
vt 2.235206 1.857092
vt 1.738335 1.393769
vt 1.736874 1.855066
vt 1.239884 1.391568
vt 1.238546 1.853039
vt 0.741433 1.390068
vt 0.740220 1.851360
vt 0.242719 1.387836
vt 0.241897 1.849677
vt -0.255996 1.387798
vt -0.256425 1.849087
vt -0.754358 1.387136
vt -0.754746 1.848489
vt -0.098674 1.378794
vt 0.181881 1.378794
vt -0.098674 1.346528
vt 0.181881 1.346527
vt -0.098675 1.002951
vt 0.181880 1.002950
vt 0.289804 1.002950
vt 0.289804 1.378794
vt 0.289804 1.346527
vt 0.397727 1.002950
vt 0.397728 1.346527
vt 0.397728 1.378794
vn 0.2951 0.2474 -0.9229
vn 0.6858 0.6194 -0.3821
vn 0.2954 0.2415 -0.9244
vn 0.6852 0.6227 -0.3778
vn 0.2630 0.3227 -0.9092
vn 0.5541 0.7447 -0.3720
vn 0.0351 0.4233 -0.9053
vn 0.0453 0.9229 -0.3823
vn 0.5888 0.8083 -0.0012
vn 0.7352 0.6778 0.0036
vn 0.7352 0.6779 0.0037
vn 0.0405 0.9991 -0.0148
vn -0.4770 0.7865 -0.3923
vn -0.5212 0.8531 -0.0234
vn -0.6776 0.7350 -0.0245
vn -0.2001 0.3419 -0.9182
vn -0.6187 0.6731 -0.4051
vn -0.2415 0.2669 -0.9330
vn 0.6849 0.6256 -0.3736
vn 0.7352 0.6779 0.0036
vn 0.2895 0.2477 -0.9246
vn 0.6842 0.6178 -0.3875
vn 0.2885 0.2350 -0.9282
vn 0.2986 0.2367 -0.9246
vn 0.6906 0.6199 -0.3726
vn 0.6852 0.6189 -0.3840
vn 0.2929 0.2392 -0.9257
vn 0.3093 0.2341 -0.9217
vn 0.6924 0.6138 -0.3791
vn 0.2979 0.2550 -0.9199
vn 0.6768 0.6334 -0.3751
vn 0.7240 0.6898 0.0032
vn 0.3672 0.2205 -0.9036
vn 0.8445 0.5355 0.0079
vn 0.7887 0.4943 -0.3656
vn 0.3545 -0.2597 -0.8982
vn 0.4547 -0.0318 -0.8901
vn 0.0192 -0.0054 -0.9998
vn 0.2772 -0.2957 -0.9142
vn 0.0138 -0.0158 -0.9998
vn 0.0130 -0.0213 -0.9997
vn 0.0284 -0.0049 -0.9996
vn 0.0271 -0.0238 -0.9993
vn 0.0091 -0.0249 -0.9996
vn 0.0081 -0.0317 -0.9995
vn 0.0013 -0.0321 -0.9995
vn 0.0028 -0.0219 -0.9998
vn 0.6334 -0.6850 -0.3599
vn 0.7575 -0.5524 -0.3480
vn 0.6777 -0.7350 0.0244
vn 0.8081 -0.5886 0.0247
vn 0.9990 -0.0404 0.0199
vn 0.9357 -0.0432 -0.3501
usemtl TiresMat
s 1
f 1/1/1 3/2/2 2/3/3
f 3/2/2 1/1/1 4/4/4
f 5/5/5 4/4/4 1/1/1
f 4/4/4 5/5/5 6/6/6
f 7/7/7 6/6/6 5/5/5
f 6/6/6 7/7/7 8/8/8
f 6/6/6 9/9/9 4/4/4
f 9/9/9 6/6/6 8/8/8
f 4/4/4 9/9/9 10/10/10
f 11/11/11 4/4/4 10/10/10
f 4/4/4 11/11/11 3/2/2
f 8/8/8 12/12/12 9/9/9
f 7/7/7 13/13/13 8/8/8
f 12/12/12 8/8/8 13/13/13
f 13/13/13 14/14/14 12/12/12
f 13/13/13 15/15/15 14/14/14
f 7/7/7 16/16/16 13/13/13
f 17/17/17 15/15/15 13/13/13
f 16/16/16 17/17/17 13/13/13
f 16/16/16 18/18/18 17/17/17
f 3/2/2 11/11/11 19/19/19
f 19/19/19 11/11/11 20/20/20
f 21/21/20 19/19/19 20/20/20
f 22/22/21 3/2/2 19/19/19
f 22/22/21 2/23/3 3/2/2
f 23/24/22 22/22/21 19/19/19
f 19/19/19 21/21/20 23/24/22
f 22/22/21 23/24/22 24/25/23
f 25/26/24 24/25/23 23/24/22
f 23/24/22 21/21/20 26/27/25
f 25/26/24 23/24/22 26/27/25
f 26/27/25 21/21/20 27/28/11
f 28/29/20 26/27/25 27/28/11
f 29/30/26 25/26/24 26/27/25
f 26/27/25 28/29/20 29/30/26
f 25/26/24 29/30/26 30/31/27
f 31/32/28 30/31/27 29/30/26
f 29/30/26 28/29/20 32/33/29
f 31/32/28 29/30/26 32/33/29
f 32/33/29 28/29/20 33/34/11
f 34/35/30 31/32/28 32/33/29
f 32/33/29 33/34/11 35/36/31
f 34/35/30 32/33/29 35/36/31
f 35/36/31 33/34/11 36/37/32
f 37/38/33 34/35/30 35/36/31
f 38/39/34 35/36/31 36/37/32
f 37/38/33 35/36/31 39/40/35
f 35/36/31 38/39/34 39/40/35
f 40/41/36 37/42/33 41/43/37
f 37/42/33 40/41/36 42/44/38
f 42/44/38 40/41/36 43/45/39
f 16/46/16 44/47/40 18/48/18
f 16/46/16 5/49/5 44/47/40
f 5/49/5 16/46/16 7/50/7
f 5/49/5 1/51/1 44/47/40
f 2/52/3 44/47/40 1/51/1
f 44/47/40 2/52/3 45/53/41
f 42/54/38 34/55/30 37/56/33
f 34/55/30 42/54/38 46/57/42
f 46/57/42 31/58/28 34/55/30
f 31/58/28 46/57/42 47/59/43
f 47/59/43 30/60/27 31/58/28
f 30/60/27 47/59/43 48/61/44
f 48/61/44 25/62/24 30/60/27
f 25/62/24 48/61/44 49/63/45
f 49/63/45 24/64/23 25/62/24
f 24/64/23 49/63/45 50/65/46
f 50/65/46 22/66/21 24/64/23
f 22/66/21 50/65/46 51/67/47
f 51/67/47 2/68/3 22/66/21
f 2/68/3 51/67/47 45/69/41
f 43/70/39 40/71/36 52/72/48
f 53/73/49 52/72/48 40/71/36
f 52/72/48 53/73/49 54/74/50
f 53/73/49 55/75/51 54/74/50
f 53/73/49 56/76/52 55/75/51
f 41/77/37 53/73/49 40/71/36
f 56/76/52 53/73/49 57/78/53
f 57/78/53 53/73/49 41/77/37
f 57/78/53 38/79/34 56/76/52
f 39/80/35 38/79/34 57/78/53
f 41/77/37 39/80/35 57/78/53
f 39/80/35 41/77/37 37/81/33
