# Blender v3.4.1 OBJ File: 'track.blend'
# www.blender.org
mtllib _1WALL_18_SUB0_Scene.287.mtl
o _1WALL_18_SUB0_Scene.287
v 187.989395 316.076385 -3.706613
v 184.589188 318.491089 -2.724922
v 184.493896 318.344177 -3.706612
v 188.084702 316.223206 -2.724922
v 187.874191 315.898804 -2.006613
v 187.873398 315.894958 -3.691303
v 184.378693 318.166687 -2.006612
v 184.378098 318.162811 -3.691303
v 184.388397 318.181488 -3.706612
v 187.883804 315.913605 -3.706613
v 184.589188 318.491089 -2.006612
v 188.084702 316.223206 -2.006613
v 191.346207 313.898499 -3.706612
v 191.441498 314.045288 -2.724921
v 191.230988 313.720886 -2.006612
v 191.230286 313.717102 -3.691303
v 191.240692 313.735687 -3.706612
v 191.441498 314.045288 -2.006613
v 194.703079 311.720612 -3.706612
v 194.798401 311.867401 -2.724922
v 194.587906 311.542999 -2.006612
v 194.587204 311.539215 -3.691303
v 194.597488 311.557800 -3.706612
v 194.798401 311.867401 -2.006612
v 198.059998 309.542603 -3.706612
v 198.155304 309.689514 -2.724922
v 197.944778 309.365112 -2.006613
v 197.944000 309.361206 -3.691304
v 197.954407 309.379913 -3.706613
v 198.155304 309.689514 -2.006613
v 201.416794 307.364685 -3.706612
v 201.512100 307.511597 -2.724922
v 201.301697 307.187195 -2.006612
v 201.300888 307.183289 -3.691304
v 201.311279 307.201996 -3.706612
v 201.512100 307.511597 -2.006612
vt -1.021971 2.001424
vt 2.977629 2.001424
vt 2.977629 1.108993
vt -1.021971 1.108994
vt -1.021971 0.581097
vt 2.977630 0.581097
vt -1.021971 1.993160
vt 2.977629 1.993160
vt -1.021971 1.899918
vt 2.977629 1.695245
vt 2.977629 1.899918
vt -1.021971 1.695245
vt 2.977629 1.688305
vt -1.021971 1.688305
vt 2.977629 0.755510
vt -1.021971 0.755511
vt -1.021971 2.001424
vt 2.977629 2.001424
vt 2.977629 1.108993
vt -1.021971 1.108994
vt -1.021971 0.581097
vt 2.977630 0.581097
vt -1.021971 1.993160
vt 2.977629 1.993160
vt -1.021971 1.899918
vt 2.977629 1.695245
vt 2.977629 1.899918
vt -1.021971 1.695245
vt 2.977629 1.688305
vt -1.021971 1.688305
vt 2.977629 0.755510
vt -1.021971 0.755511
vt -1.021971 2.001424
vt 2.977629 2.001424
vt 2.977629 1.108993
vt -1.021971 1.108994
vt -1.021971 0.581097
vt 2.977630 0.581097
vt -1.021971 1.993160
vt 2.977629 1.993160
vt -1.021971 1.899918
vt 2.977629 1.695245
vt 2.977629 1.899918
vt -1.021971 1.695245
vt 2.977629 1.688305
vt -1.021971 1.688305
vt 2.977629 0.755510
vt -1.021971 0.755511
vt -1.021971 2.001424
vt 2.977629 2.001424
vt 2.977629 1.108993
vt -1.021971 1.108994
vt -1.021971 0.581097
vt 2.977630 0.581097
vt -1.021971 1.993160
vt 2.977629 1.993160
vt -1.021971 1.899918
vt 2.977629 1.695245
vt 2.977629 1.899918
vt -1.021971 1.695245
vt 2.977629 1.688305
vt -1.021971 1.688305
vt 2.977629 0.755510
vt -1.021971 0.755511
vt -1.021971 2.001424
vt 2.977629 2.001424
vt 2.977629 1.108993
vt -1.021971 1.108994
vt -1.021971 0.581097
vt 2.977630 0.581097
vt -1.021971 1.993160
vt 2.977629 1.993160
vt -1.021971 1.899918
vt 2.977629 1.695245
vt 2.977629 1.899918
vt -1.021971 1.695245
vt 2.977629 1.688305
vt -1.021971 1.688305
vt 2.977629 0.755510
vt -1.021971 0.755511
vn 0.5358 0.8259 -0.1756
vn 0.5358 0.8259 -0.1755
vn -0.5443 -0.8389 0.0021
vn -0.5443 -0.8389 0.0022
vn -0.0000 -0.0000 -1.0000
vn -0.3181 -0.4903 -0.8115
vn -0.3175 -0.4893 -0.8123
vn -0.3176 -0.4895 -0.8121
vn -0.3181 -0.4903 -0.8114
vn 0.5443 0.8389 0.0000
vn -0.3186 -0.4911 -0.8108
vn -0.3186 -0.4911 -0.8107
vn -0.3184 -0.4907 -0.8111
vn -0.3181 -0.4904 -0.8113
vn -0.3182 -0.4904 -0.8113
usemtl WallMat
s 1
f 1/1/1 3/2/1 2/3/1
f 1/1/1 2/3/2 4/4/2
f 5/5/3 7/6/4 6/7/3
f 8/8/4 6/7/3 7/6/4
f 1/9/5 9/10/5 3/11/5
f 9/10/5 1/9/5 10/12/5
f 8/13/6 10/12/7 6/14/8
f 10/12/7 8/13/6 9/10/9
f 11/15/10 12/16/10 2/3/10
f 4/4/10 2/3/10 12/16/10
f 13/17/2 1/18/1 4/19/2
f 13/17/2 4/19/2 14/20/2
f 15/21/3 5/22/3 16/23/3
f 6/24/3 16/23/3 5/22/3
f 13/25/5 10/26/5 1/27/5
f 10/26/5 13/25/5 17/28/5
f 6/29/8 17/28/11 16/30/12
f 17/28/11 6/29/8 10/26/7
f 12/31/10 18/32/10 4/19/10
f 14/20/10 4/19/10 18/32/10
f 19/33/1 13/34/2 14/35/2
f 19/33/1 14/35/2 20/36/1
f 21/37/3 15/38/3 22/39/3
f 16/40/3 22/39/3 15/38/3
f 19/41/5 17/42/5 13/43/5
f 17/42/5 19/41/5 23/44/5
f 16/45/12 23/44/12 22/46/13
f 23/44/12 16/45/12 17/42/11
f 18/47/10 24/48/10 14/35/10
f 20/36/10 14/35/10 24/48/10
f 25/49/1 19/50/1 20/51/1
f 25/49/1 20/51/1 26/52/1
f 27/53/4 21/54/3 28/55/4
f 22/56/3 28/55/4 21/54/3
f 25/57/5 23/58/5 19/59/5
f 23/58/5 25/57/5 29/60/5
f 22/61/13 29/60/9 28/62/14
f 29/60/9 22/61/13 23/58/12
f 24/63/10 30/64/10 20/51/10
f 26/52/10 20/51/10 30/64/10
f 31/65/1 25/66/1 26/67/1
f 31/65/1 26/67/1 32/68/1
f 33/69/4 27/70/4 34/71/4
f 28/72/4 34/71/4 27/70/4
f 31/73/5 29/74/5 25/75/5
f 29/74/5 31/73/5 35/76/5
f 28/77/14 35/76/15 34/78/15
f 35/76/15 28/77/14 29/74/9
f 30/79/10 36/80/10 26/67/10
f 32/68/10 26/67/10 36/80/10
