# Blender v3.4.1 OBJ File: 'track.blend'
# www.blender.org
mtllib _1WALL_small01_emirates_SUB2_Scene.344.mtl
o _1WALL_small01_emirates_SUB2_Scene.344
v -268.773407 -319.975311 -3.214524
v -268.768097 -319.984894 -4.899183
v -272.475891 -318.392395 -3.233625
v -272.476105 -318.396301 -4.918309
v -264.825409 -320.588806 -3.202725
v -264.821503 -320.598785 -4.887386
v -260.846191 -321.022797 -3.195578
v -260.842987 -321.032806 -4.880241
v -256.865997 -321.439606 -3.189710
v -256.863312 -321.449493 -4.874374
v -252.888000 -321.862610 -3.185153
v -252.885986 -321.872406 -4.869820
v -248.917999 -322.333496 -3.182195
v -248.917007 -322.343201 -4.866862
v -244.966095 -322.913513 -3.181349
v -244.966400 -322.923065 -4.866017
v -241.044800 -323.655396 -3.182817
v -241.046600 -323.664886 -4.867486
v -237.186401 -324.661713 -3.187257
v -237.189987 -324.670685 -4.871924
v -233.412598 -325.942505 -3.194225
v -233.417999 -325.951111 -4.878891
v -229.744507 -327.492615 -3.203332
v -229.750504 -327.500885 -4.887996
v -226.288101 -329.429413 -3.207916
v -226.291306 -329.439667 -4.892577
v -223.227081 -331.937958 -3.195030
v -223.226105 -331.952057 -4.879665
v -220.496994 -334.826508 -3.166941
v -220.492783 -334.844208 -4.851538
v -218.048203 -337.968811 -3.125494
v -218.041595 -337.989685 -4.810046
v -215.767395 -341.240173 -3.075150
v -215.758682 -341.264282 -4.759652
v -213.647278 -344.621490 -3.014690
v -213.636597 -344.648895 -4.699129
v -211.649002 -348.077759 -2.944530
v -211.636185 -348.108887 -4.628890
vt 0.000659 1.814594
vt 0.124234 1.814594
vt 0.000659 1.858225
vt 0.124234 1.858225
vt 0.000659 1.814594
vt 0.124234 1.814594
vt 0.000659 1.858225
vt 0.124234 1.858225
vt 0.000659 1.814594
vt 0.124234 1.858225
vt 0.000659 1.858225
vt 0.124234 1.814594
vt 0.000659 1.814594
vt 0.124234 1.858225
vt 0.000659 1.858225
vt 0.124234 1.814594
vt 0.000659 1.814594
vt 0.124234 1.858225
vt 0.000659 1.858225
vt 0.124234 1.814594
vt 0.000659 1.814594
vt 0.124234 1.858225
vt 0.000659 1.858225
vt 0.124234 1.814594
vt 0.000659 1.814594
vt 0.124234 1.858225
vt 0.000659 1.858225
vt 0.124234 1.814594
vt 0.000659 1.814594
vt 0.124234 1.814594
vt 0.000659 1.858225
vt 0.124234 1.858225
vt 0.000659 1.814594
vt 0.124234 1.814594
vt 0.000659 1.858225
vt 0.124234 1.858225
vt 0.000659 1.814594
vt 0.124234 1.814594
vt 0.000659 1.858225
vt 0.124234 1.858225
vt 0.000659 1.814594
vt 0.124234 1.814594
vt 0.000659 1.858225
vt 0.124234 1.858225
vt 0.000659 1.814594
vt 0.124234 1.814594
vt 0.000659 1.858225
vt 0.124234 1.858225
vt 0.000659 1.814594
vt 0.124234 1.814594
vt 0.000659 1.858225
vt 0.124234 1.858225
vt 0.000659 1.814594
vt 0.124234 1.814594
vt 0.000659 1.858225
vt 0.124234 1.858225
vt 0.000659 1.814594
vt 0.124234 1.814594
vt 0.000659 1.858225
vt 0.124234 1.858225
vt 0.000659 1.814594
vt 0.124234 1.814594
vt 0.000659 1.858225
vt 0.124234 1.858225
vt 0.000659 1.814594
vt 0.124234 1.814594
vt 0.000659 1.858225
vt 0.124234 1.858225
vt 0.000659 1.814594
vt 0.124234 1.814594
vt 0.000659 1.858225
vt 0.124234 1.858225
vn -0.2758 -0.9612 0.0042
vn -0.3936 -0.9193 0.0027
vn -0.2756 -0.9613 0.0044
vn -0.3935 -0.9193 0.0030
vn -0.1310 -0.9914 0.0056
vn -0.1310 -0.9914 0.0055
vn -0.1063 -0.9943 0.0057
vn -0.1049 -0.9945 0.0057
vn -0.1118 -0.9937 0.0056
vn -0.1315 -0.9913 0.0056
vn -0.1656 -0.9862 0.0056
vn -0.2192 -0.9757 0.0057
vn -0.2193 -0.9756 0.0057
vn -0.2871 -0.9579 0.0057
vn -0.3555 -0.9347 0.0059
vn -0.3556 -0.9346 0.0059
vn -0.4397 -0.8981 0.0060
vn -0.4398 -0.8981 0.0060
vn -0.5635 -0.8261 0.0061
vn -0.5636 -0.8260 0.0061
vn -0.6817 -0.7316 0.0057
vn -0.7586 -0.6515 0.0050
vn -0.7587 -0.6515 0.0049
vn -0.8048 -0.5935 0.0042
vn -0.8049 -0.5934 0.0042
vn -0.8340 -0.5517 0.0036
vn -0.8341 -0.5517 0.0036
vn -0.8566 -0.5159 0.0030
vn -0.8657 -0.5005 0.0026
vn -0.8657 -0.5005 0.0027
usemtl EnvironmentMat
s 1
f 1/1/1 3/2/2 2/3/3
f 4/4/4 2/3/3 3/2/2
f 5/5/5 1/6/1 6/7/6
f 2/8/3 6/7/6 1/6/1
f 7/9/7 6/10/6 8/11/7
f 6/10/6 7/9/7 5/12/5
f 9/13/8 8/14/7 10/15/8
f 8/14/7 9/13/8 7/16/7
f 11/17/9 10/18/8 12/19/9
f 10/18/8 11/17/9 9/20/8
f 13/21/10 12/22/9 14/23/10
f 12/22/9 13/21/10 11/24/9
f 15/25/11 14/26/10 16/27/11
f 14/26/10 15/25/11 13/28/10
f 17/29/12 15/30/11 18/31/13
f 16/32/11 18/31/13 15/30/11
f 19/33/14 17/34/12 20/35/14
f 18/36/13 20/35/14 17/34/12
f 21/37/15 19/38/14 22/39/16
f 20/40/14 22/39/16 19/38/14
f 23/41/17 21/42/15 24/43/18
f 22/44/16 24/43/18 21/42/15
f 25/45/19 23/46/17 26/47/20
f 24/48/18 26/47/20 23/46/17
f 27/49/21 25/50/19 28/51/21
f 26/52/20 28/51/21 25/50/19
f 29/53/22 27/54/21 30/55/23
f 28/56/21 30/55/23 27/54/21
f 31/57/24 29/58/22 32/59/25
f 30/60/23 32/59/25 29/58/22
f 33/61/26 31/62/24 34/63/27
f 32/64/25 34/63/27 31/62/24
f 35/65/28 33/66/26 36/67/28
f 34/68/27 36/67/28 33/66/26
f 37/69/29 35/70/28 38/71/30
f 36/72/28 38/71/30 35/70/28
