# Blender v3.1.2 OBJ File: 'track.blend'
# www.blender.org
mtllib _1WALL_tires01_04.mtl
o _1WALL_tires01_04_Scene.379
v 13123.410156 21545.099609 -363.884888
v 13211.979492 21525.791016 -366.645111
v 13243.769531 21681.609375 -362.077393
v 13140.710938 21704.080078 -362.077301
v 13275.559570 21837.441406 -358.561401
v 13158.000000 21863.070312 -361.381683
v 13307.350586 21993.269531 -362.077393
v 13175.290039 22022.060547 -362.077301
v 13339.140625 22149.099609 -365.527100
v 13192.580078 22181.050781 -362.077301
v 13370.930664 22304.919922 -362.077393
v 13224.370117 22336.880859 -362.077301
v 13402.720703 22460.750000 -368.171417
v 13256.170898 22492.699219 -362.077301
v 13126.370117 21381.791016 -362.077393
v 13186.940430 21368.580078 -362.077393
v 13410.209961 22459.218750 -360.831390
v 13378.419922 22303.400391 -354.737396
v 13410.209961 22459.218750 -250.473312
v 13378.419922 22303.400391 -250.473312
v 13346.628906 22147.568359 -250.473312
v 13346.628906 22147.568359 -358.187195
v 13314.840820 21991.740234 -354.737396
v 13314.840820 21991.740234 -250.473312
v 13283.050781 21835.910156 -351.221405
v 13283.050781 21835.910156 -250.473312
v 13251.260742 21680.089844 -250.473312
v 13251.260742 21680.089844 -354.737396
v 13219.470703 21524.259766 -250.473312
v 13219.470703 21524.259766 -359.305084
v 13194.430664 21367.050781 -354.737396
v 13194.430664 21367.050781 -250.473312
v 13175.070312 21275.830078 -362.077393
v 13182.259766 21272.810547 -354.737396
v 13182.259766 21272.810547 -250.473312
v 13155.720703 21233.509766 -250.473312
v 13151.160156 21240.419922 -362.077393
v 13155.720703 21233.509766 -354.737396
v 13129.150391 21228.359375 -250.473312
v 13129.150391 21228.359375 -354.737396
v 13129.009766 21236.121094 -362.077393
v 13434.399414 22616.640625 -362.077393
v 13287.849609 22648.589844 -362.077301
v 13466.200195 22772.470703 -366.645111
v 13319.639648 22804.419922 -362.077301
v 13497.990234 22928.289062 -362.077393
v 13351.429688 22960.240234 -362.077301
v 13529.780273 23084.121094 -358.561401
v 13383.219727 23116.070312 -362.077301
v 13561.570312 23239.951172 -362.077393
v 13415.009766 23271.898438 -362.077301
v 13593.359375 23395.769531 -365.527100
v 13446.799805 23427.730469 -362.077301
v 13625.149414 23551.601562 -362.077393
v 13478.599609 23583.548828 -362.077301
v 13656.939453 23707.429688 -368.171417
v 13510.389648 23739.378906 -362.077301
v 13688.729492 23863.259766 -362.077393
v 13542.179688 23895.210938 -362.077301
v 13720.530273 24019.080078 -364.196808
v 13573.969727 24051.041016 -362.077301
v 13752.319336 24174.910156 -362.077393
v 13605.759766 24206.859375 -362.077301
v 13784.109375 24330.740234 -365.233582
v 13637.550781 24362.691406 -362.077301
v 13815.899414 24486.570312 -362.077393
v 13669.340820 24518.519531 -362.077301
v 13727.048828 24668.699219 -363.347412
v 13847.689453 24642.390625 -369.261200
v 13784.750000 24818.878906 -362.077301
v 13879.480469 24798.218750 -362.077393
v 13902.000000 24908.570312 -362.077393
v 13840.370117 24963.640625 -362.077393
v 13869.959961 24957.029297 -362.077393
v 13896.020508 24939.429688 -362.077393
v 13843.150391 24970.869141 -354.737396
v 13872.979492 24964.218750 -354.737396
v 13843.150391 24970.869141 -250.473312
v 13872.979492 24964.218750 -250.473312
v 13902.920898 24944.000000 -250.473312
v 13902.920898 24944.000000 -354.737396
v 13909.790039 24908.541016 -250.473312
v 13909.790039 24908.541016 -354.737396
v 13886.979492 24796.689453 -354.737396
v 13886.979492 24796.689453 -250.473312
v 13855.180664 24640.859375 -250.473312
v 13855.180664 24640.859375 -361.921204
v 13823.390625 24485.041016 -354.737396
v 13823.390625 24485.041016 -250.473312
v 13791.599609 24329.208984 -250.473312
v 13791.599609 24329.208984 -357.893616
v 13759.809570 24173.378906 -354.737396
v 13759.809570 24173.378906 -250.473312
v 13728.019531 24017.560547 -250.473312
v 13728.019531 24017.560547 -356.856812
v 13696.229492 23861.728516 -354.737396
v 13696.229492 23861.728516 -250.473312
v 13664.439453 23705.900391 -250.473312
v 13664.439453 23705.900391 -360.831390
v 13632.639648 23550.070312 -354.737396
v 13632.639648 23550.070312 -250.473312
v 13600.849609 23394.250000 -250.473312
v 13600.849609 23394.250000 -358.187195
v 13569.059570 23238.419922 -354.737396
v 13569.059570 23238.419922 -250.473312
v 13537.269531 23082.589844 -351.221405
v 13537.269531 23082.589844 -250.473312
v 13505.479492 22926.769531 -250.473312
v 13505.479492 22926.769531 -354.737396
v 13473.689453 22770.939453 -250.473312
v 13473.689453 22770.939453 -359.305084
v 13441.900391 22615.109375 -354.737396
v 13441.900391 22615.109375 -250.473312
vt 3.232651 1.665900
vt 2.735264 1.398177
vt 3.233827 1.400254
vt 2.734053 1.707093
vt 2.236799 1.395607
vt 2.235521 1.748127
vt 1.738335 1.393769
vt 1.737018 1.789596
vt 1.239884 1.391568
vt 1.238546 1.831028
vt 0.741433 1.390068
vt 0.740220 1.829350
vt 0.242719 1.387836
vt 0.241897 1.827666
vt 5.223313 1.384310
vt 5.720059 1.259067
vt 5.223313 1.158715
vt 5.720059 1.384309
vt 2.242934 1.346524
vt 2.739767 1.384313
vt 2.242934 1.384314
vt 2.739767 1.346523
vt 2.242934 1.002947
vt 2.739767 1.002947
vt 3.236466 1.384313
vt 3.236466 1.002946
vt 3.236466 1.346522
vt 3.733165 1.384312
vt 3.733165 1.346522
vt 3.733164 1.002945
vt 4.229865 1.384311
vt 4.229865 1.346521
vt 4.229865 1.002944
vt 4.726567 1.384310
vt 4.726567 1.002944
vt 4.726567 1.346520
vt 5.223312 1.002943
vt 5.223313 1.346519
vt 5.720059 1.346519
vt 5.720058 1.002942
vt 6.014432 1.384308
vt 6.014432 1.346518
vt 6.014432 1.002942
vt 6.157631 1.002942
vt 6.157632 1.384308
vt 6.157632 1.346518
vt 6.239363 1.002942
vt 6.239364 1.346518
vt 6.233234 1.384308
vt 4.014272 1.365672
vt 3.721167 1.176778
vt 3.722063 1.367434
vt 4.164412 1.232671
vt 4.137707 1.306854
vt 4.241011 1.826517
vt 3.732390 1.403569
vt 4.243401 1.387525
vt 3.730222 1.842869
vt 3.233827 1.400254
vt 3.231881 1.839862
vt 2.735264 1.398177
vt 2.733541 1.837472
vt 2.236799 1.395607
vt 2.235206 1.835081
vt 1.738335 1.393769
vt 1.736874 1.833056
vt 1.239884 1.391568
vt 1.238546 1.831028
vt 0.741433 1.390068
vt 0.740220 1.829350
vt 0.242719 1.387836
vt 0.241897 1.827666
vt -0.255996 1.387798
vt -0.256425 1.827076
vt -0.754358 1.387136
vt -0.754746 1.826479
vt -1.252719 1.386731
vt -1.253066 1.826006
vt -1.751137 1.386100
vt -1.751385 1.825522
vt -2.249555 1.386050
vt -2.249704 1.825324
vt -2.748092 1.747317
vt -2.748419 1.385076
vt -3.246673 1.671101
vt -3.247282 1.387151
vt -3.600176 1.388076
vt -3.246673 1.685329
vt -3.728392 1.622074
vt -3.728570 1.534263
vt -3.691087 1.431032
vt -1.805134 1.384320
vt -1.854223 1.384321
vt -1.853936 1.346530
vt -1.805134 1.346530
vt -1.853936 1.002953
vt -1.805134 1.002953
vt -1.697211 1.002953
vt -1.697210 1.384320
vt -1.697211 1.346530
vt -1.589288 1.002953
vt -1.589288 1.346530
vt -1.234416 1.346529
vt -1.589287 1.384320
vt -1.234416 1.002952
vt -1.234416 1.384320
vt -0.737505 1.384319
vt -0.737506 1.002952
vt -0.737506 1.346529
vt -0.240595 1.384318
vt -0.240595 1.346528
vt -0.240596 1.002951
vt 0.256093 1.384317
vt 0.256093 1.002950
vt 0.256093 1.346527
vt 0.752782 1.384316
vt 0.752782 1.346526
vt 0.752782 1.002949
vt 1.249441 1.384316
vt 1.249441 1.002949
vt 1.249441 1.346526
vt 1.746101 1.384315
vt 1.746101 1.346525
vt 1.746100 1.002948
vt 2.242934 1.384314
vt 2.242934 1.002947
vt 2.242934 1.346524
vt 2.739767 1.384313
vt 2.739767 1.346523
vt 2.739767 1.002947
vt 3.236466 1.384313
vt 3.236466 1.002946
vt 3.236466 1.346522
vt 3.733165 1.384312
vt 3.733165 1.346522
vt 3.733164 1.002945
vt 4.229865 1.384311
vt 4.229865 1.346521
vt 4.229865 1.002944
vt 4.726567 1.384310
vt 4.726567 1.002944
vt 4.726567 1.346520
vt 5.223313 1.384310
vt 5.223312 1.002943
vt 5.223313 1.346519
vt 5.720059 1.384309
vt 5.720059 1.346519
vt 5.720058 1.002942
vt 6.217008 1.384308
vt 6.217007 1.002942
vt 6.217008 1.346518
vn -0.0154 0.0040 -0.9999
vn 0.3694 -0.0561 -0.9276
vn 0.3529 -0.0650 -0.9334
vn 0.0036 0.0160 -0.9999
vn 0.3729 -0.0758 -0.9248
vn 0.0114 -0.0027 -0.9999
vn 0.3623 -0.0892 -0.9278
vn -0.0038 -0.0115 -0.9999
vn 0.3585 -0.0733 -0.9306
vn -0.0115 0.0025 -0.9999
vn 0.3598 -0.0790 -0.9297
vn -0.0165 -0.0010 -0.9999
vn 0.3534 -0.0721 -0.9327
vn -0.0199 0.0042 -0.9998
vn -0.0128 -0.0105 -0.9999
vn 0.3624 -0.0637 -0.9298
vn 0.8981 -0.1829 -0.4000
vn 0.9034 -0.1875 -0.3856
vn 0.9799 -0.1996 0.0000
vn 0.9798 -0.1999 0.0000
vn 0.8995 -0.1835 -0.3966
vn 0.8996 -0.1923 -0.3921
vn 0.9033 -0.1843 -0.3874
vn 0.9036 -0.1742 -0.3913
vn 0.9839 -0.1786 0.0000
vn 0.9017 -0.1637 -0.4001
vn 0.9109 -0.1366 -0.3894
vn 0.9898 -0.1427 0.0000
vn 0.3874 -0.1443 -0.9105
vn 0.8658 -0.3284 -0.3776
vn 0.9355 -0.3534 0.0000
vn 0.5515 -0.8342 0.0000
vn 0.2355 -0.3564 -0.9042
vn 0.5108 -0.7727 -0.3770
vn 0.1903 -0.9817 0.0000
vn 0.1764 -0.9098 -0.3757
vn 0.0780 -0.4017 -0.9125
vn 0.3609 -0.0702 -0.9300
vn -0.0169 0.0057 -0.9998
vn 0.3565 -0.0728 -0.9315
vn -0.0149 0.0032 -0.9999
vn 0.3685 -0.0581 -0.9278
vn 0.0011 0.0127 -0.9999
vn 0.3728 -0.0760 -0.9248
vn 0.0114 -0.0024 -0.9999
vn 0.3628 -0.0888 -0.9276
vn -0.0023 -0.0107 -0.9999
vn 0.3587 -0.0732 -0.9306
vn -0.0112 0.0024 -0.9999
vn 0.3533 -0.0721 -0.9327
vn 0.3633 -0.0656 -0.9294
vn -0.0120 0.0087 -0.9999
vn 0.3614 -0.0737 -0.9295
vn -0.0069 0.0014 -1.0000
vn 0.3626 -0.0761 -0.9288
vn -0.0090 0.0001 -1.0000
vn 0.3593 -0.0733 -0.9304
vn -0.0103 0.0022 -0.9999
vn 0.3593 -0.0824 -0.9296
vn -0.0169 -0.0033 -0.9999
vn -0.0236 0.0043 -0.9997
vn 0.3512 -0.0707 -0.9336
vn -0.0110 0.0184 -0.9998
vn 0.3647 -0.0574 -0.9293
vn 0.4073 -0.0020 -0.9133
vn 0.0748 0.3347 -0.9394
vn 0.1607 0.3722 -0.9141
vn 0.3564 0.2355 -0.9042
vn 0.1991 0.8922 -0.4055
vn 0.3656 0.8495 -0.3804
vn 0.2176 0.9760 0.0000
vn 0.3955 0.9185 0.0000
vn 0.8342 0.5515 0.0000
vn 0.7727 0.5108 -0.3769
vn 1.0000 -0.0049 0.0000
vn 0.9252 -0.0045 -0.3795
vn 0.9050 -0.1758 -0.3875
vn 0.8973 -0.1831 -0.4015
vn 0.9032 -0.1892 -0.3852
vn 0.8996 -0.1835 -0.3962
vn 0.9026 -0.1854 -0.3885
vn 0.9002 -0.1837 -0.3948
vn 0.9045 -0.1796 -0.3869
vn 0.8980 -0.1832 -0.4001
vn 0.9034 -0.1875 -0.3857
vn 0.8995 -0.1835 -0.3965
vn 0.9033 -0.1843 -0.3873
vn 0.9035 -0.1742 -0.3915
vn 0.8988 -0.1834 -0.3981
vn 0.9046 -0.1823 -0.3853
usemtl TiresMat
s 1
f 1/1/1 3/2/2 2/3/3
f 3/2/2 1/1/1 4/4/4
f 4/4/4 5/5/5 3/2/2
f 5/5/5 4/4/4 6/6/6
f 6/6/6 7/7/7 5/5/5
f 7/7/7 6/6/6 8/8/8
f 8/8/8 9/9/9 7/7/7
f 9/9/9 8/8/8 10/10/10
f 10/10/10 11/11/11 9/9/9
f 11/11/11 10/10/10 12/12/12
f 12/12/12 13/13/13 11/11/11
f 13/13/13 12/12/12 14/14/14
f 2/15/3 15/16/15 1/17/1
f 15/16/15 2/15/3 16/18/16
f 17/19/17 11/20/11 13/21/13
f 17/19/17 18/22/18 11/20/11
f 17/19/17 19/23/19 18/22/18
f 18/22/18 19/23/19 20/24/20
f 18/22/18 9/25/9 11/20/11
f 21/26/20 18/22/18 20/24/20
f 18/22/18 22/27/21 9/25/9
f 18/22/18 21/26/20 22/27/21
f 22/27/21 7/28/7 9/25/9
f 22/27/21 21/26/20 23/29/22
f 7/28/7 22/27/21 23/29/22
f 23/29/22 21/26/20 24/30/20
f 23/29/22 5/31/5 7/28/7
f 23/29/22 24/30/20 25/32/23
f 5/31/5 23/29/22 25/32/23
f 25/32/23 24/30/20 26/33/20
f 25/32/23 3/34/2 5/31/5
f 27/35/20 25/32/23 26/33/20
f 3/34/2 25/32/23 28/36/24
f 25/32/23 27/35/20 28/36/24
f 28/36/24 2/15/3 3/34/2
f 29/37/25 28/36/24 27/35/20
f 28/36/24 30/38/26 2/15/3
f 28/36/24 29/37/25 30/38/26
f 30/38/26 16/18/16 2/15/3
f 30/38/26 29/37/25 31/39/27
f 30/38/26 31/39/27 16/18/16
f 31/39/27 29/37/25 32/40/28
f 31/39/27 33/41/29 16/18/16
f 32/40/28 34/42/30 31/39/27
f 31/39/27 34/42/30 33/41/29
f 34/42/30 32/40/28 35/43/31
f 34/42/30 35/43/31 36/44/32
f 34/42/30 37/45/33 33/41/29
f 36/44/32 38/46/34 34/42/30
f 34/42/30 38/46/34 37/45/33
f 38/46/34 36/44/32 39/47/35
f 39/47/35 40/48/36 38/46/34
f 40/48/36 37/45/33 38/46/34
f 37/45/33 40/48/36 41/49/37
f 33/50/29 15/51/15 16/52/16
f 33/50/29 41/53/37 15/51/15
f 41/53/37 33/50/29 37/54/33
f 14/55/14 42/56/38 13/57/13
f 42/56/38 14/55/14 43/58/39
f 43/58/39 44/59/40 42/56/38
f 44/59/40 43/58/39 45/60/41
f 45/60/41 46/61/42 44/59/40
f 46/61/42 45/60/41 47/62/43
f 47/62/43 48/63/44 46/61/42
f 48/63/44 47/62/43 49/64/45
f 49/64/45 50/65/46 48/63/44
f 50/65/46 49/64/45 51/66/47
f 51/66/47 52/67/48 50/65/46
f 52/67/48 51/66/47 53/68/49
f 53/68/49 54/69/11 52/67/48
f 54/69/11 53/68/49 55/70/12
f 55/70/12 56/71/50 54/69/11
f 56/71/50 55/70/12 57/72/14
f 57/72/14 58/73/51 56/71/50
f 58/73/51 57/72/14 59/74/52
f 59/74/52 60/75/53 58/73/51
f 60/75/53 59/74/52 61/76/54
f 61/76/54 62/77/55 60/75/53
f 62/77/55 61/76/54 63/78/56
f 63/78/56 64/79/57 62/77/55
f 64/79/57 63/78/56 65/80/58
f 65/80/58 66/81/59 64/79/57
f 66/81/59 65/80/58 67/82/60
f 68/83/61 66/81/59 67/82/60
f 66/81/59 68/83/61 69/84/62
f 70/85/63 69/84/62 68/83/61
f 69/84/62 70/85/63 71/86/64
f 72/87/65 71/86/64 70/88/63
f 73/89/66 72/87/65 70/88/63
f 72/87/65 73/89/66 74/90/67
f 72/87/65 74/90/67 75/91/68
f 74/92/67 73/93/66 76/94/69
f 76/94/69 77/95/70 74/92/67
f 76/94/69 78/96/71 77/95/70
f 77/95/70 78/96/71 79/97/72
f 77/95/70 79/97/72 80/98/73
f 75/99/68 74/92/67 77/95/70
f 80/98/73 81/100/74 77/95/70
f 75/99/68 77/95/70 81/100/74
f 81/100/74 80/98/73 82/101/75
f 83/102/76 75/99/68 81/100/74
f 82/101/75 83/102/76 81/100/74
f 83/102/76 82/101/75 84/103/77
f 75/99/68 83/102/76 72/104/65
f 84/103/77 72/104/65 83/102/76
f 84/103/77 82/101/75 85/105/20
f 72/104/65 84/103/77 71/106/64
f 84/103/77 69/107/62 71/106/64
f 86/108/20 84/103/77 85/105/20
f 69/107/62 84/103/77 87/109/78
f 84/103/77 86/108/20 87/109/78
f 87/109/78 66/110/59 69/107/62
f 87/109/78 86/108/20 88/111/79
f 87/109/78 88/111/79 66/110/59
f 88/111/79 86/108/20 89/112/20
f 88/111/79 64/113/57 66/110/59
f 90/114/20 88/111/79 89/112/20
f 88/111/79 91/115/80 64/113/57
f 88/111/79 90/114/20 91/115/80
f 91/115/80 62/116/55 64/113/57
f 91/115/80 90/114/20 92/117/81
f 91/115/80 92/117/81 62/116/55
f 92/117/81 90/114/20 93/118/20
f 92/117/81 60/119/53 62/116/55
f 94/120/20 92/117/81 93/118/20
f 92/117/81 95/121/82 60/119/53
f 92/117/81 94/120/20 95/121/82
f 95/121/82 58/122/51 60/119/53
f 95/121/82 94/120/20 96/123/83
f 95/121/82 96/123/83 58/122/51
f 96/123/83 94/120/20 97/124/20
f 96/123/83 56/125/50 58/122/51
f 98/126/20 96/123/83 97/124/20
f 56/125/50 96/123/83 99/127/84
f 96/123/83 98/126/20 99/127/84
f 99/127/84 54/128/11 56/125/50
f 99/127/84 98/126/20 100/129/85
f 54/128/11 99/127/84 100/129/85
f 100/129/85 98/126/20 101/130/20
f 100/129/85 52/131/48 54/128/11
f 102/132/20 100/129/85 101/130/20
f 52/131/48 100/129/85 103/133/86
f 100/129/85 102/132/20 103/133/86
f 103/133/86 50/134/46 52/131/48
f 103/133/86 102/132/20 104/135/22
f 103/133/86 104/135/22 50/134/46
f 104/135/22 102/132/20 105/136/20
f 104/135/22 48/137/44 50/134/46
f 104/135/22 105/136/20 106/138/87
f 104/135/22 106/138/87 48/137/44
f 106/138/87 105/136/20 107/139/20
f 106/138/87 46/140/42 48/137/44
f 108/141/20 106/138/87 107/139/20
f 46/140/42 106/138/87 109/142/88
f 106/138/87 108/141/20 109/142/88
f 109/142/88 44/143/40 46/140/42
f 110/144/20 109/142/88 108/141/20
f 44/143/40 109/142/88 111/145/89
f 109/142/88 110/144/20 111/145/89
f 111/145/89 42/146/38 44/143/40
f 111/145/89 110/144/20 112/147/90
f 111/145/89 112/147/90 42/146/38
f 112/147/90 110/144/20 113/148/19
f 112/147/90 13/149/13 42/146/38
f 19/150/19 112/147/90 113/148/19
f 112/147/90 17/151/17 13/149/13
f 112/147/90 19/150/19 17/151/17
