# Blender v3.4.1 OBJ File: 'track.blend'
# www.blender.org
mtllib _1WALL_14_SUB0_Scene.280.mtl
o _1WALL_14_SUB0_Scene.280
v -222.248001 332.238190 -5.014848
v -223.715607 328.402802 -4.107447
v -223.546692 328.355957 -5.089103
v -222.420502 332.274200 -4.033371
v -222.058105 332.138580 -3.315194
v -222.043289 332.171661 -4.999504
v -223.352600 328.269012 -3.389239
v -223.342804 328.286987 -5.073800
v -222.063782 332.177185 -5.014838
v -223.363388 328.292694 -5.089132
v -223.718079 328.395203 -3.389181
v -222.425186 332.260193 -3.315213
v -221.009995 336.051971 -4.911777
v -221.185501 336.078888 -3.930534
v -220.823807 335.941010 -3.212418
v -220.804779 335.987000 -4.896376
v -220.825287 335.992615 -4.911728
v -221.191895 336.059357 -3.212518
v -219.787201 339.863403 -4.790560
v -219.963486 339.887756 -3.809396
v -219.602295 339.748260 -3.091332
v -219.581894 339.798615 -4.775153
v -219.602493 339.804108 -4.790507
v -219.970505 339.866486 -3.091436
v -218.561096 343.671509 -4.663234
v -218.737488 343.695496 -3.682084
v -218.376907 343.554474 -2.964067
v -218.355988 343.606079 -4.647841
v -218.376602 343.611786 -4.663195
v -218.744797 343.673615 -2.964144
v -217.323486 347.474487 -4.534569
v -217.499680 347.499207 -3.553396
v -217.139481 347.356995 -2.835423
v -217.118683 347.408386 -4.519203
v -217.139191 347.414093 -4.534553
v -217.506897 347.477386 -2.835453
v -216.068802 351.271271 -4.407762
v -216.244507 351.297363 -3.426541
v -215.884705 351.153900 -2.708611
v -215.864197 351.204285 -4.392429
v -215.884705 351.209991 -4.407775
v -216.251602 351.276093 -2.708584
v -214.796600 355.061005 -4.284355
v -214.971497 355.089600 -3.303056
v -214.611893 354.945496 -2.585143
v -214.592392 354.993011 -4.269054
v -214.612885 354.998901 -4.284397
v -214.978195 355.069397 -2.585060
v -213.510193 358.841858 -4.172514
v -213.683289 358.875610 -3.191068
v -213.322784 358.734283 -2.473078
v -213.306107 358.773590 -4.157230
v -213.326599 358.779358 -4.172567
v -213.688782 358.858887 -2.472972
v -212.223389 362.620697 -4.091314
v -212.394287 362.661072 -3.109720
v -212.031982 362.524902 -2.391619
v -212.019287 362.552490 -4.076038
v -212.039795 362.558197 -4.091366
v -212.398102 362.649414 -2.391515
v -210.938400 366.401276 -4.036410
v -211.107178 366.447876 -3.054727
v -210.743301 366.316406 -2.336557
v -210.734192 366.333313 -4.021144
v -210.754807 366.338898 -4.036460
v -211.109482 366.440765 -2.336455
v -209.654800 370.183777 -4.007581
v -209.821793 370.235687 -3.025855
v -209.456497 370.108398 -2.307653
v -209.450500 370.115997 -3.992323
v -209.471085 370.121490 -4.007631
v -209.822586 370.232605 -2.307553
v -208.371887 373.967560 -4.000129
v -208.537277 374.024200 -3.018394
v -208.170792 373.900391 -2.300184
v -208.167587 373.899902 -3.984875
v -208.188202 373.905304 -4.000179
v -208.537003 374.024475 -2.300084
v -207.088593 377.752563 -4.011504
v -207.252686 377.812958 -3.029778
v -206.885284 377.691803 -2.311577
v -206.884293 377.684906 -3.996257
v -206.904999 377.690308 -4.011553
v -207.251495 377.816071 -2.311476
v -205.800095 381.541656 -4.033292
v -205.964294 381.601990 -3.051568
v -205.597305 381.479492 -2.333357
v -205.595993 381.473511 -4.018043
v -205.616592 381.478912 -4.033339
v -205.963196 381.604614 -2.333263
v -204.470001 385.431580 -4.053204
v -204.635284 385.488586 -3.071473
v -204.269608 385.362366 -2.353254
v -204.266083 385.362793 -4.037954
v -204.286697 385.368286 -4.053251
v -204.635086 385.488586 -2.353163
vt -1.021971 2.001424
vt 2.977629 2.001424
vt 2.977629 1.108993
vt -1.021971 1.108994
vt -1.021971 0.581097
vt 2.977630 0.581097
vt -1.021971 1.993160
vt 2.977629 1.993160
vt 2.977629 1.899918
vt -1.021971 1.899918
vt -1.021971 1.695245
vt 2.977629 1.695245
vt 2.977629 1.688305
vt -1.021971 1.688305
vt 2.977629 0.755510
vt -1.021971 0.755511
vt -1.021971 2.001424
vt 2.977629 2.001424
vt 2.977629 1.108993
vt -1.021971 1.108994
vt -1.021971 0.581097
vt 2.977630 0.581097
vt -1.021971 1.993160
vt 2.977629 1.993160
vt 2.977629 1.899918
vt -1.021971 1.899918
vt -1.021971 1.695245
vt 2.977629 1.695245
vt 2.977629 1.688305
vt -1.021971 1.688305
vt 2.977629 0.755510
vt -1.021971 0.755511
vt -1.021971 2.001424
vt 2.977629 2.001424
vt 2.977629 1.108993
vt -1.021971 1.108994
vt -1.021971 0.581097
vt 2.977630 0.581097
vt -1.021971 1.993160
vt 2.977629 1.993160
vt 2.977629 1.899918
vt -1.021971 1.899918
vt -1.021971 1.695245
vt 2.977629 1.695245
vt 2.977629 1.688305
vt -1.021971 1.688305
vt 2.977629 0.755510
vt -1.021971 0.755511
vt -1.021971 2.001424
vt 2.977629 2.001424
vt 2.977629 1.108993
vt -1.021971 1.108994
vt -1.021971 0.581097
vt 2.977630 0.581097
vt -1.021971 1.993160
vt 2.977629 1.993160
vt 2.977629 1.899918
vt -1.021971 1.899918
vt -1.021971 1.695245
vt 2.977629 1.695245
vt 2.977629 1.688305
vt -1.021971 1.688305
vt 2.977629 0.755510
vt -1.021971 0.755511
vt -1.021971 2.001424
vt 2.977629 2.001424
vt 2.977629 1.108993
vt -1.021971 1.108994
vt -1.021971 0.581097
vt 2.977630 0.581097
vt -1.021971 1.993160
vt 2.977629 1.993160
vt 2.977629 1.899918
vt -1.021971 1.899918
vt -1.021971 1.695245
vt 2.977629 1.695245
vt 2.977629 1.688305
vt -1.021971 1.688305
vt 2.977629 0.755510
vt -1.021971 0.755511
vt -1.021971 2.001424
vt 2.977629 2.001424
vt 2.977629 1.108993
vt -1.021971 1.108994
vt -1.021971 0.581097
vt 2.977630 0.581097
vt -1.021971 1.993160
vt 2.977629 1.993160
vt -1.021971 1.899918
vt 2.977629 1.695245
vt 2.977629 1.899918
vt -1.021971 1.695245
vt 2.977629 1.688305
vt -1.021971 1.688305
vt 2.977629 0.755510
vt -1.021971 0.755511
vt -1.021971 2.001424
vt 2.977629 2.001424
vt 2.977629 1.108993
vt -1.021971 1.108994
vt -1.021971 0.581097
vt 2.977630 0.581097
vt -1.021971 1.993160
vt 2.977629 1.993160
vt -1.021971 1.899918
vt 2.977629 1.695245
vt 2.977629 1.899918
vt -1.021971 1.695245
vt 2.977629 1.688305
vt -1.021971 1.688305
vt 2.977629 0.755510
vt -1.021971 0.755511
vt -1.021971 2.001424
vt 2.977629 2.001424
vt 2.977629 1.108993
vt -1.021971 1.108994
vt -1.021971 0.581097
vt 2.977630 0.581097
vt -1.021971 1.993160
vt 2.977629 1.993160
vt -1.021971 1.899918
vt 2.977629 1.695245
vt 2.977629 1.899918
vt -1.021971 1.695245
vt 2.977629 1.688305
vt -1.021971 1.688305
vt 2.977629 0.755510
vt -1.021971 0.755511
vt -1.021971 2.001424
vt 2.977629 2.001424
vt 2.977629 1.108993
vt -1.021971 1.108994
vt -1.021971 0.581097
vt 2.977630 0.581097
vt -1.021971 1.993160
vt 2.977629 1.993160
vt -1.021971 1.899918
vt 2.977629 1.695245
vt 2.977629 1.899918
vt -1.021971 1.695245
vt 2.977629 1.688305
vt -1.021971 1.688305
vt 2.977629 0.755510
vt -1.021971 0.755511
vt -1.021971 2.001424
vt 2.977629 2.001424
vt 2.977629 1.108993
vt -1.021971 1.108994
vt -1.021971 0.581097
vt 2.977630 0.581097
vt -1.021971 1.993160
vt 2.977629 1.993160
vt -1.021971 1.899918
vt 2.977629 1.695245
vt 2.977629 1.899918
vt -1.021971 1.695245
vt 2.977629 1.688305
vt -1.021971 1.688305
vt 2.977629 0.755510
vt -1.021971 0.755511
vt -1.021971 2.001424
vt 2.977629 2.001424
vt 2.977629 1.108993
vt -1.021971 1.108994
vt -1.021971 0.581097
vt 2.977630 0.581097
vt -1.021971 1.993160
vt 2.977629 1.993160
vt -1.021971 1.899918
vt 2.977629 1.695245
vt 2.977629 1.899918
vt -1.021971 1.695245
vt 2.977629 1.688305
vt -1.021971 1.688305
vt 2.977629 0.755510
vt -1.021971 0.755511
vt -1.021971 2.001424
vt 2.977629 2.001424
vt 2.977629 1.108993
vt -1.021971 1.108994
vt -1.021971 0.581097
vt 2.977629 1.993160
vt -1.021971 1.993160
vt 2.977630 0.581097
vt 2.977629 1.899918
vt -1.021971 1.899918
vt -1.021971 1.695245
vt 2.977629 1.695245
vt 2.977629 1.688305
vt -1.021971 1.688305
vt 2.977629 0.755510
vt -1.021971 0.755511
vt -1.021971 2.001424
vt 2.977629 2.001424
vt 2.977629 1.108993
vt -1.021971 1.108994
vt -1.021971 0.581097
vt 2.977629 1.993160
vt -1.021971 1.993160
vt 2.977630 0.581097
vt 2.977629 1.899918
vt -1.021971 1.899918
vt -1.021971 1.695245
vt 2.977629 1.695245
vt 2.977629 1.688305
vt -1.021971 1.688305
vt 2.977629 0.755510
vt -1.021971 0.755511
vt 2.977629 1.108993
vt -1.021971 2.001424
vt 2.977629 2.001424
vt -1.021971 1.108994
vt -1.021971 0.581097
vt 2.977629 1.993160
vt -1.021971 1.993160
vt 2.977630 0.581097
vt 2.977629 1.899918
vt -1.021971 1.899918
vt -1.021971 1.695245
vt 2.977629 1.695245
vt 2.977629 1.688305
vt -1.021971 1.688305
vt 2.977629 0.755510
vt -1.021971 0.755511
vt 2.977629 1.108993
vt -1.021971 2.001424
vt 2.977629 2.001424
vt -1.021971 1.108994
vt -1.021971 0.581097
vt 2.977629 1.993160
vt -1.021971 1.993160
vt 2.977630 0.581097
vt 2.977629 1.899918
vt -1.021971 1.899918
vt -1.021971 1.695245
vt 2.977629 1.695245
vt 2.977629 1.688305
vt -1.021971 1.688305
vt 2.977629 0.755510
vt -1.021971 0.755511
vn -0.9338 0.3118 -0.1756
vn -0.9326 0.3153 -0.1755
vn -0.9339 0.3115 -0.1756
vn 0.9497 -0.3130 0.0022
vn 0.9483 -0.3173 0.0021
vn 0.0058 0.0172 -0.9998
vn 0.0069 0.0208 -0.9998
vn 0.0070 0.0208 -0.9998
vn 0.5592 -0.1716 -0.8111
vn 0.5602 -0.1661 -0.8115
vn 0.5602 -0.1657 -0.8116
vn -0.9483 0.3173 0.0001
vn -0.9498 0.3130 -0.0001
vn -0.9353 0.3070 -0.1757
vn 0.9516 -0.3072 0.0024
vn 0.0088 0.0266 -0.9996
vn 0.5636 -0.1581 -0.8108
vn 0.5637 -0.1580 -0.8108
vn -0.9517 0.3071 -0.0001
vn -0.9355 0.3064 -0.1757
vn 0.9520 -0.3061 0.0024
vn 0.0097 0.0295 -0.9995
vn 0.5635 -0.1547 -0.8115
vn 0.5636 -0.1546 -0.8115
vn -0.9520 0.3060 -0.0002
vn -0.9349 0.3085 -0.1756
vn 0.9514 -0.3080 0.0024
vn 0.0100 0.0304 -0.9995
vn 0.5635 -0.1551 -0.8114
vn -0.9514 0.3080 -0.0003
vn -0.9337 0.3121 -0.1755
vn 0.9502 -0.3117 0.0022
vn 0.0100 0.0303 -0.9995
vn 0.5634 -0.1575 -0.8110
vn 0.5634 -0.1576 -0.8110
vn -0.9502 0.3116 -0.0001
vn -0.9323 0.3163 -0.1754
vn 0.9487 -0.3161 0.0021
vn 0.0098 0.0297 -0.9995
vn 0.5620 -0.1604 -0.8115
vn 0.5619 -0.1605 -0.8115
vn -0.9488 0.3160 -0.0000
vn -0.9310 0.3201 -0.1753
vn 0.9473 -0.3202 0.0019
vn 0.0092 0.0279 -0.9996
vn 0.5612 -0.1643 -0.8112
vn 0.5613 -0.1645 -0.8111
vn -0.9474 0.3202 0.0002
vn -0.9306 0.3213 -0.1752
vn 0.9466 -0.3223 0.0019
vn 0.0075 0.0230 -0.9997
vn 0.5592 -0.1695 -0.8115
vn 0.5590 -0.1697 -0.8116
vn -0.9467 0.3222 0.0003
vn -0.9311 0.3199 -0.1753
vn 0.9467 -0.3221 0.0019
vn 0.0052 0.0162 -0.9999
vn 0.5574 -0.1749 -0.8116
vn 0.5570 -0.1749 -0.8119
vn -0.9467 0.3221 0.0002
vn -0.9316 0.3183 -0.1753
vn 0.9469 -0.3216 0.0019
vn 0.0031 0.0100 -0.9999
vn 0.5553 -0.1795 -0.8121
vn 0.5552 -0.1797 -0.8121
vn -0.9469 0.3216 0.0002
vn -0.9321 0.3170 -0.1753
vn 0.9470 -0.3212 0.0019
vn 0.0012 0.0044 -1.0000
vn 0.5545 -0.1841 -0.8115
vn 0.5545 -0.1843 -0.8115
vn -0.9470 0.3212 0.0003
vn -0.9470 0.3211 -0.0001
vn -0.9324 0.3160 -0.1753
vn 0.9470 -0.3211 0.0019
vn -0.0004 -0.0004 -1.0000
vn 0.5533 -0.1879 -0.8115
vn 0.5533 -0.1881 -0.8115
vn -0.9470 0.3211 0.0002
vn -0.9325 0.3159 -0.1753
vn 0.9469 -0.3215 0.0019
vn -0.0016 -0.0038 -1.0000
vn 0.5522 -0.1911 -0.8115
vn 0.5521 -0.1911 -0.8116
vn -0.9469 0.3215 0.0002
vn -0.9321 0.3169 -0.1754
vn -0.9321 0.3168 -0.1754
vn 0.9465 -0.3227 0.0019
vn -0.0019 -0.0048 -1.0000
vn 0.5514 -0.1924 -0.8117
vn 0.5516 -0.1925 -0.8116
vn -0.9465 0.3227 0.0003
vn -0.9318 0.3177 -0.1754
vn -0.9318 0.3177 -0.1753
vn -0.9320 0.3171 -0.1753
vn 0.9462 -0.3235 0.0019
vn -0.0020 -0.0050 -1.0000
vn -0.0018 -0.0045 -1.0000
vn 0.5505 -0.1923 -0.8123
vn 0.5506 -0.1924 -0.8123
vn -0.9462 0.3235 0.0003
usemtl WallMat
s 1
f 1/1/1 3/2/2 2/3/2
f 1/1/3 2/3/2 4/4/1
f 5/5/4 7/6/5 6/7/4
f 8/8/5 6/7/4 7/6/5
f 3/9/6 1/10/7 9/11/8
f 3/9/6 9/11/7 10/12/6
f 8/13/9 9/11/10 6/14/11
f 9/11/10 8/13/9 10/12/9
f 11/15/12 4/4/13 2/3/12
f 4/4/13 11/15/12 12/16/13
f 13/17/14 1/18/3 4/19/1
f 13/17/14 4/19/1 14/20/14
f 15/21/15 5/22/4 16/23/15
f 6/24/4 16/23/15 5/22/4
f 1/25/7 13/26/16 17/27/16
f 1/25/7 17/27/16 9/28/8
f 6/29/11 17/27/17 16/30/18
f 17/27/17 6/29/11 9/28/10
f 12/31/13 14/20/19 4/19/13
f 14/20/19 12/31/13 18/32/19
f 19/33/20 13/34/14 14/35/14
f 19/33/20 14/35/14 20/36/20
f 21/37/21 15/38/15 22/39/21
f 16/40/15 22/39/21 15/38/15
f 13/41/16 19/42/22 23/43/22
f 13/41/16 23/43/22 17/44/16
f 16/45/18 23/43/23 22/46/24
f 23/43/23 16/45/18 17/44/17
f 18/47/19 20/36/25 14/35/19
f 20/36/25 18/47/19 24/48/25
f 25/49/26 19/50/20 20/51/20
f 25/49/26 20/51/20 26/52/26
f 27/53/27 21/54/21 28/55/27
f 22/56/21 28/55/27 21/54/21
f 19/57/22 25/58/28 29/59/28
f 19/57/22 29/59/28 23/60/22
f 22/61/24 29/59/29 28/62/29
f 29/59/29 22/61/24 23/60/23
f 24/63/25 26/52/30 20/51/25
f 26/52/30 24/63/25 30/64/30
f 31/65/31 25/66/26 26/67/26
f 31/65/31 26/67/26 32/68/31
f 33/69/32 27/70/27 34/71/32
f 28/72/27 34/71/32 27/70/27
f 25/73/28 31/74/33 35/75/33
f 25/73/28 35/75/33 29/76/28
f 28/77/29 35/75/34 34/78/35
f 35/75/34 28/77/29 29/76/29
f 30/79/30 32/68/36 26/67/30
f 32/68/36 30/79/30 36/80/36
f 37/81/37 31/82/31 32/83/31
f 37/81/37 32/83/31 38/84/37
f 39/85/38 33/86/32 40/87/38
f 34/88/32 40/87/38 33/86/32
f 37/89/39 35/90/33 31/91/33
f 35/90/33 37/89/39 41/92/39
f 34/93/35 41/92/40 40/94/41
f 41/92/40 34/93/35 35/90/34
f 36/95/36 38/84/42 32/83/36
f 38/84/42 36/95/36 42/96/42
f 43/97/43 37/98/37 38/99/37
f 43/97/43 38/99/37 44/100/43
f 45/101/44 39/102/38 46/103/44
f 40/104/38 46/103/44 39/102/38
f 43/105/45 41/106/39 37/107/39
f 41/106/39 43/105/45 47/108/45
f 40/109/41 47/108/46 46/110/47
f 47/108/46 40/109/41 41/106/40
f 42/111/42 44/100/48 38/99/42
f 44/100/48 42/111/42 48/112/48
f 49/113/49 43/114/43 44/115/43
f 49/113/49 44/115/43 50/116/49
f 51/117/50 45/118/44 52/119/50
f 46/120/44 52/119/50 45/118/44
f 49/121/51 47/122/45 43/123/45
f 47/122/45 49/121/51 53/124/51
f 46/125/47 53/124/52 52/126/53
f 53/124/52 46/125/47 47/122/46
f 48/127/48 50/116/54 44/115/48
f 50/116/54 48/127/48 54/128/54
f 55/129/55 49/130/49 50/131/49
f 55/129/55 50/131/49 56/132/55
f 57/133/56 51/134/50 58/135/56
f 52/136/50 58/135/56 51/134/50
f 55/137/57 53/138/51 49/139/51
f 53/138/51 55/137/57 59/140/57
f 52/141/53 59/140/58 58/142/59
f 59/140/58 52/141/53 53/138/52
f 54/143/54 56/132/60 50/131/54
f 56/132/60 54/143/54 60/144/60
f 61/145/61 55/146/55 56/147/55
f 61/145/61 56/147/55 62/148/61
f 63/149/62 57/150/56 64/151/62
f 58/152/56 64/151/62 57/150/56
f 61/153/63 59/154/57 55/155/57
f 59/154/57 61/153/63 65/156/63
f 58/157/59 65/156/64 64/158/65
f 65/156/64 58/157/59 59/154/58
f 60/159/60 62/148/66 56/147/60
f 62/148/66 60/159/60 66/160/66
f 67/161/67 61/162/61 62/163/61
f 67/161/67 62/163/61 68/164/67
f 69/165/68 63/166/62 70/167/68
f 64/168/62 70/167/68 63/166/62
f 67/169/69 65/170/63 61/171/63
f 65/170/63 67/169/69 71/172/69
f 64/173/65 71/172/70 70/174/71
f 71/172/70 64/173/65 65/170/64
f 66/175/66 68/164/72 62/163/66
f 68/164/72 66/175/66 72/176/73
f 73/177/74 67/178/67 68/179/67
f 73/177/74 68/179/67 74/180/74
f 75/181/75 70/182/68 76/183/75
f 70/182/68 75/181/75 69/184/68
f 67/185/69 73/186/76 77/187/76
f 67/185/69 77/187/76 71/188/69
f 70/189/71 77/187/77 76/190/78
f 77/187/77 70/189/71 71/188/70
f 72/191/73 78/192/79 68/179/72
f 74/180/79 68/179/72 78/192/79
f 79/193/80 73/194/74 74/195/74
f 79/193/80 74/195/74 80/196/80
f 81/197/81 76/198/75 82/199/81
f 76/198/75 81/197/81 75/200/75
f 73/201/76 79/202/82 83/203/82
f 73/201/76 83/203/82 77/204/76
f 76/205/78 83/203/83 82/206/84
f 83/203/83 76/205/78 77/204/77
f 78/207/79 84/208/85 74/195/79
f 80/196/85 74/195/79 84/208/85
f 80/209/80 85/210/86 79/211/80
f 85/210/86 80/209/80 86/212/87
f 87/213/88 82/214/81 88/215/88
f 82/214/81 87/213/88 81/216/81
f 79/217/82 85/218/89 89/219/89
f 79/217/82 89/219/89 83/220/82
f 82/221/84 89/219/90 88/222/91
f 89/219/90 82/221/84 83/220/83
f 84/223/85 90/224/92 80/209/85
f 86/212/92 80/209/85 90/224/92
f 86/225/87 91/226/93 85/227/86
f 91/226/94 86/225/95 92/228/94
f 93/229/96 88/230/88 94/231/96
f 88/230/88 93/229/96 87/232/88
f 85/233/97 91/234/98 95/235/98
f 85/233/89 95/235/98 89/236/89
f 88/237/91 95/235/99 94/238/100
f 95/235/99 88/237/91 89/236/90
f 90/239/92 96/240/101 86/225/92
f 92/228/101 86/225/92 96/240/101
