# Blender v3.4.1 OBJ File: 'track.blend'
# www.blender.org
mtllib _1WALL_small03_rolex_SUB1_Scene.353.mtl
o _1WALL_small03_rolex_SUB1_Scene.353
v -141.148499 -915.220215 -1.314315
v -140.235397 -911.281372 -0.371499
v -140.409286 -911.258484 -1.353144
v -140.976105 -915.250427 -0.332633
v -141.356903 -915.183411 0.385695
v -141.360794 -915.184265 -1.298981
v -140.614395 -911.203979 0.346781
v -140.621094 -911.220520 -1.337820
v -140.234207 -911.274719 0.346779
v -140.975998 -915.250427 0.385677
v -139.504807 -907.348877 -0.411013
v -139.678696 -907.326477 -1.392653
v -140.235504 -911.281372 -0.371499
v -140.614395 -911.204041 0.346781
v -139.883698 -907.271362 0.307266
v -139.890594 -907.288635 -1.377327
v -139.503494 -907.341919 0.307262
v -138.779099 -903.415222 -0.450790
v -138.953094 -903.393188 -1.432426
v -139.883698 -907.271362 0.307267
v -139.165100 -903.355713 -1.417097
v -139.158096 -903.338257 0.267495
v -138.777802 -903.408020 0.267485
v -138.060394 -899.480042 -0.490724
v -138.234406 -899.458496 -1.472357
v -138.446503 -899.421387 -1.457024
v -138.439499 -899.403992 0.227569
v -138.059097 -899.473022 0.227550
v -138.777802 -903.408020 0.267485
v -137.352600 -895.542786 -0.530824
v -137.526596 -895.520996 -1.512458
v -138.439606 -899.403992 0.227569
v -137.731995 -895.467896 0.187481
v -137.738693 -895.484375 -1.497120
v -137.351303 -895.536072 0.187454
v -138.059097 -899.473022 0.227550
v -136.626083 -891.610474 -0.557156
v -136.798798 -891.581726 -1.538838
v -137.010498 -891.542786 -1.523523
v -137.005402 -891.535217 0.161147
v -136.625504 -891.607727 0.161148
v -135.861801 -887.685120 -0.568919
v -136.033997 -887.653320 -1.550611
v -136.245407 -887.613159 -1.535303
v -136.240799 -887.608521 0.149381
v -135.861496 -887.683411 0.149389
v -135.077805 -883.763489 -0.577014
v -135.249802 -883.730713 -1.558708
v -136.240906 -887.608521 0.149381
v -135.460999 -883.689514 -1.543402
v -135.456604 -883.685608 0.141283
v -135.077606 -883.762085 0.141295
v -135.249802 -883.730713 -1.558707
v -134.279007 -879.844971 -0.584375
v -134.450790 -879.811523 -1.566069
v -134.661896 -879.769409 -1.550765
v -134.657501 -879.765625 0.133920
v -134.278702 -879.843567 0.133934
v -133.465607 -875.929260 -0.592430
v -133.637299 -875.895386 -1.574126
v -134.657501 -879.765625 0.133920
v -133.848297 -875.852722 -1.558823
v -133.843796 -875.848328 0.125861
v -133.465302 -875.927612 0.125878
v -132.636993 -872.017029 -0.602251
v -132.808701 -871.982971 -1.583947
v -133.019501 -871.939331 -1.568646
v -133.014801 -871.934204 0.116035
v -132.636703 -872.015076 0.116056
v -131.792801 -868.108154 -0.614291
v -131.964493 -868.073914 -1.595987
v -132.175003 -868.029419 -1.580688
v -132.170105 -868.023193 0.103989
v -131.792297 -868.105774 0.104015
v -132.636703 -872.015076 0.116056
v -130.928101 -864.203979 -0.628830
v -131.099701 -864.169495 -1.610528
v -131.309998 -864.123596 -1.595232
v -131.304794 -864.116455 0.089440
v -130.927505 -864.201172 0.089474
v -130.037094 -860.306213 -0.646357
v -130.208496 -860.271179 -1.628058
v -130.418503 -860.223816 -1.612768
v -130.412994 -860.215088 0.071897
v -130.036407 -860.302856 0.071944
v -129.110504 -856.417786 -0.667833
v -129.281799 -856.382019 -1.649537
v -129.491104 -856.331909 -1.634260
v -129.485199 -856.321472 0.050392
v -129.109604 -856.413574 0.050464
v -130.036407 -860.302856 0.071944
v -128.124695 -852.546143 -0.695737
v -128.295593 -852.508911 -1.677453
v -129.485199 -856.321472 0.050392
v -128.503906 -852.454529 -1.662206
v -128.496902 -852.440308 0.022417
v -128.123398 -852.540344 0.022548
v -127.002594 -848.722900 -0.738383
v -127.171890 -848.680298 -1.720163
v -127.376198 -848.612427 -1.705072
v -127.366295 -848.588623 -0.020571
v -127.000092 -848.712891 -0.020148
v -128.123398 -852.540344 0.022548
v -125.584000 -844.995789 -0.799798
v -125.749901 -844.944214 -1.781732
v -127.002594 -848.722900 -0.738383
v -127.366295 -848.588623 -0.020571
v -125.940689 -844.842468 -0.082307
v -125.950203 -844.865479 -1.766820
v -125.581589 -844.986023 -0.081558
v -125.749901 -844.944214 -1.781731
v -124.082397 -841.289124 -0.845724
v -124.246300 -841.232727 -1.827718
v -125.940689 -844.842468 -0.082307
v -124.439194 -841.136230 -0.128230
v -124.446198 -841.152710 -1.812830
v -124.081100 -841.281921 -0.127449
v -122.568695 -837.586304 -0.878781
v -122.731491 -837.526917 -1.860803
v -124.439194 -841.136230 -0.128230
v -124.446198 -841.152710 -1.812830
v -122.926102 -837.434814 -0.161276
v -122.931198 -837.446777 -1.845922
v -122.568199 -837.581177 -0.160490
v -121.052895 -833.884033 -0.900774
v -121.214691 -833.822510 -1.882809
v -121.414497 -833.742310 -1.867931
v -121.411003 -833.734253 -0.183258
v -121.053101 -833.880615 -0.182472
v -119.541199 -830.179688 -0.913364
v -119.702194 -830.116089 -1.895405
v -119.902191 -830.036438 -1.880530
v -119.900299 -830.032227 -0.195840
v -119.542099 -830.177979 -0.195057
v -118.039803 -826.470825 -0.915189
v -118.199997 -826.405212 -1.897232
v -119.902191 -830.036377 -1.880530
v -118.400299 -826.326294 -1.882360
v -118.400192 -826.326721 -0.197665
v -118.041489 -826.470825 -0.196881
v -116.556793 -822.753601 -0.903854
v -116.716003 -822.685608 -1.885889
v -118.039803 -826.470825 -0.915189
v -116.916794 -822.608093 -1.871029
v -116.919098 -822.614380 -0.186345
v -116.559402 -822.756226 -0.185554
v -115.102592 -819.023865 -0.875606
v -115.260590 -818.952576 -1.857613
v -116.556793 -822.753601 -0.903854
v -116.919098 -822.614380 -0.186345
v -115.462303 -818.877319 -1.842781
v -115.467995 -818.892273 -0.158161
v -115.106697 -819.030273 -0.157337
v -113.669800 -815.242310 -0.828332
v -113.826889 -815.168823 -1.810310
v -114.029297 -815.095276 -1.795501
v -114.037300 -815.116516 -0.110963
v -113.674889 -815.251526 -0.110099
vt 0.874355 1.999336
vt 0.750798 1.999336
vt 0.750798 1.966927
vt 0.874355 1.966927
vt 0.751585 1.943430
vt 0.873211 1.943430
vt 0.751585 1.999286
vt 0.873211 1.999286
vt 0.750798 1.954090
vt 0.874355 1.954090
vt 0.874355 1.999336
vt 0.750798 1.999336
vt 0.750798 1.966927
vt 0.874355 1.966927
vt 0.751585 1.943430
vt 0.873211 1.943430
vt 0.751585 1.999286
vt 0.873211 1.999286
vt 0.750798 1.954090
vt 0.874355 1.954090
vt 0.874355 1.999336
vt 0.750798 1.999336
vt 0.750798 1.966927
vt 0.874355 1.966927
vt 0.751585 1.943430
vt 0.873211 1.999286
vt 0.751585 1.999286
vt 0.873211 1.943430
vt 0.750798 1.954090
vt 0.874355 1.954090
vt 0.874355 1.999336
vt 0.750798 1.999336
vt 0.750798 1.966927
vt 0.874355 1.966927
vt 0.751585 1.943430
vt 0.873211 1.999286
vt 0.751585 1.999286
vt 0.873211 1.943430
vt 0.750798 1.954090
vt 0.874355 1.954090
vt 0.874355 1.999336
vt 0.750798 1.999336
vt 0.750798 1.966927
vt 0.874355 1.966927
vt 0.751585 1.943430
vt 0.873211 1.943430
vt 0.751585 1.999286
vt 0.873211 1.999286
vt 0.750798 1.954090
vt 0.874355 1.954090
vt 0.874355 1.999336
vt 0.750798 1.999336
vt 0.750798 1.966927
vt 0.874355 1.966927
vt 0.751585 1.943430
vt 0.873211 1.999286
vt 0.751585 1.999286
vt 0.873211 1.943430
vt 0.750798 1.954090
vt 0.874355 1.954090
vt 0.874355 1.999336
vt 0.750798 1.999336
vt 0.750798 1.966927
vt 0.874355 1.966927
vt 0.751585 1.943430
vt 0.873211 1.999286
vt 0.751585 1.999286
vt 0.873211 1.943430
vt 0.750798 1.954090
vt 0.874355 1.954090
vt 0.874355 1.999336
vt 0.750798 1.999336
vt 0.750798 1.966927
vt 0.874355 1.966927
vt 0.751585 1.943430
vt 0.873211 1.999286
vt 0.751585 1.999286
vt 0.873211 1.943430
vt 0.750798 1.954090
vt 0.874355 1.954090
vt 0.874355 1.999336
vt 0.750798 1.999336
vt 0.750798 1.966927
vt 0.874355 1.966927
vt 0.751585 1.943430
vt 0.873211 1.999286
vt 0.751585 1.999286
vt 0.873211 1.943430
vt 0.750798 1.954090
vt 0.874355 1.954090
vt 0.874355 1.999336
vt 0.750798 1.999336
vt 0.750798 1.966927
vt 0.874355 1.966927
vt 0.751585 1.943430
vt 0.873211 1.999286
vt 0.751585 1.999286
vt 0.873211 1.943430
vt 0.750798 1.954090
vt 0.874355 1.954090
vt 0.874355 1.999336
vt 0.750798 1.999336
vt 0.750798 1.966927
vt 0.874355 1.966927
vt 0.751585 1.943430
vt 0.873211 1.999286
vt 0.751585 1.999286
vt 0.873211 1.943430
vt 0.750798 1.954090
vt 0.874355 1.954090
vt 0.874355 1.999336
vt 0.750798 1.999336
vt 0.750798 1.966927
vt 0.874355 1.966927
vt 0.751585 1.943430
vt 0.873211 1.999286
vt 0.751585 1.999286
vt 0.873211 1.943430
vt 0.750798 1.954090
vt 0.874355 1.954090
vt 0.874355 1.999336
vt 0.750798 1.999336
vt 0.750798 1.966927
vt 0.874355 1.966927
vt 0.751585 1.943430
vt 0.873211 1.999286
vt 0.751585 1.999286
vt 0.873211 1.943430
vt 0.750798 1.954090
vt 0.874355 1.954090
vt 0.874355 1.999336
vt 0.750798 1.999336
vt 0.750798 1.966927
vt 0.874355 1.966927
vt 0.751585 1.943430
vt 0.873211 1.999286
vt 0.751585 1.999286
vt 0.873211 1.943430
vt 0.750798 1.954090
vt 0.874355 1.954090
vt 0.874355 1.999336
vt 0.750798 1.999336
vt 0.750798 1.966927
vt 0.874355 1.966927
vt 0.751585 1.943430
vt 0.873211 1.999286
vt 0.751585 1.999286
vt 0.873211 1.943430
vt 0.750798 1.954090
vt 0.874355 1.954090
vt 0.874355 1.999336
vt 0.750798 1.999336
vt 0.750798 1.966927
vt 0.874355 1.966927
vt 0.751585 1.943430
vt 0.873211 1.999286
vt 0.751585 1.999286
vt 0.873211 1.943430
vt 0.750798 1.954090
vt 0.874355 1.954090
vt 0.874355 1.999336
vt 0.750798 1.999336
vt 0.750798 1.966927
vt 0.874355 1.966927
vt 0.751585 1.943430
vt 0.873211 1.999286
vt 0.751585 1.999286
vt 0.873211 1.943430
vt 0.750798 1.954090
vt 0.874355 1.954090
vt 0.874355 1.999336
vt 0.750798 1.999336
vt 0.750798 1.966927
vt 0.874355 1.966927
vt 0.751585 1.943430
vt 0.873211 1.943430
vt 0.751585 1.999286
vt 0.873211 1.999286
vt 0.750798 1.954090
vt 0.874355 1.954090
vt 0.874355 1.999336
vt 0.750798 1.999336
vt 0.750798 1.966927
vt 0.874355 1.966927
vt 0.751585 1.943430
vt 0.873211 1.943430
vt 0.751585 1.999286
vt 0.873211 1.999286
vt 0.750798 1.954090
vt 0.874355 1.954090
vt 0.874355 1.999336
vt 0.750798 1.999336
vt 0.750798 1.966927
vt 0.874355 1.966927
vt 0.751585 1.943430
vt 0.873211 1.943430
vt 0.751585 1.999286
vt 0.873211 1.999286
vt 0.750798 1.954090
vt 0.874355 1.954090
vt 0.874355 1.999336
vt 0.750798 1.999336
vt 0.750798 1.966927
vt 0.874355 1.966927
vt 0.751585 1.943430
vt 0.873211 1.999286
vt 0.751585 1.999286
vt 0.873211 1.943430
vt 0.750798 1.954090
vt 0.874355 1.954090
vt 0.874355 1.999336
vt 0.750798 1.999336
vt 0.750798 1.966927
vt 0.874355 1.966927
vt 0.751585 1.943430
vt 0.873211 1.999286
vt 0.751585 1.999286
vt 0.873211 1.943430
vt 0.750798 1.954090
vt 0.874355 1.954090
vt 0.874355 1.999336
vt 0.750798 1.999336
vt 0.750798 1.966927
vt 0.874355 1.966927
vt 0.751585 1.943430
vt 0.873211 1.999286
vt 0.751585 1.999286
vt 0.873211 1.943430
vt 0.750798 1.954090
vt 0.874355 1.954090
vt 0.874355 1.999336
vt 0.750798 1.999336
vt 0.750798 1.966927
vt 0.874355 1.966927
vt 0.751585 1.943430
vt 0.873211 1.999286
vt 0.751585 1.999286
vt 0.873211 1.943430
vt 0.750798 1.954090
vt 0.874355 1.954090
vt 0.750798 1.966927
vt 0.874355 1.999336
vt 0.750798 1.999336
vt 0.874355 1.966927
vt 0.751585 1.943430
vt 0.873211 1.999286
vt 0.751585 1.999286
vt 0.873211 1.943430
vt 0.750798 1.954090
vt 0.874355 1.954090
vt 0.750798 1.966927
vt 0.874355 1.999336
vt 0.750798 1.999336
vt 0.874355 1.966927
vt 0.751585 1.943430
vt 0.873211 1.999286
vt 0.751585 1.999286
vt 0.873211 1.943430
vt 0.750798 1.954090
vt 0.874355 1.954090
vn 0.9674 -0.1822 -0.1756
vn 0.9675 -0.1823 -0.1755
vn -0.9830 0.1834 0.0022
vn -0.9830 0.1835 0.0021
vn 0.9830 -0.1835 0.0000
vn 0.9830 -0.1834 -0.0002
vn 0.9676 -0.1816 -0.1755
vn 0.9677 -0.1809 -0.1756
vn 0.9675 -0.1817 -0.1756
vn -0.9832 0.1827 0.0021
vn -0.9832 0.1827 0.0022
vn 0.9833 -0.1820 -0.0000
vn 0.9832 -0.1827 -0.0000
vn 0.9833 -0.1817 0.0000
vn 0.9832 -0.1827 -0.0001
vn 0.9681 -0.1787 -0.1755
vn 0.9679 -0.1800 -0.1755
vn -0.9834 0.1814 0.0022
vn -0.9834 0.1814 0.0020
vn -0.9837 0.1799 0.0021
vn 0.9834 -0.1814 0.0000
vn 0.9686 -0.1760 -0.1757
vn 0.9681 -0.1784 -0.1757
vn -0.9837 0.1797 0.0022
vn 0.9837 -0.1797 0.0000
vn 0.9679 -0.1799 -0.1755
vn 0.9686 -0.1761 -0.1756
vn -0.9842 0.1770 0.0022
vn -0.9838 0.1793 0.0022
vn 0.9842 -0.1771 0.0001
vn 0.9842 -0.1769 -0.0001
vn 0.9834 -0.1816 0.0001
vn 0.9842 -0.1770 -0.0000
vn 0.9662 -0.1886 -0.1756
vn 0.9679 -0.1800 -0.1756
vn -0.9834 0.1817 0.0022
vn -0.9816 0.1910 0.0021
vn 0.9825 -0.1864 -0.0001
vn 0.9653 -0.1933 -0.1754
vn 0.9662 -0.1888 -0.1755
vn -0.9816 0.1911 0.0021
vn -0.9816 0.1911 0.0022
vn 0.9806 -0.1960 -0.0001
vn 0.9815 -0.1912 -0.0001
vn 0.9653 -0.1933 -0.1756
vn -0.9806 0.1960 0.0021
vn -0.9806 0.1962 0.0021
vn -0.9798 0.1997 0.0021
vn 0.9802 -0.1979 0.0001
vn 0.9646 -0.1970 -0.1755
vn 0.9638 -0.2005 -0.1755
vn 0.9646 -0.1969 -0.1755
vn -0.9798 0.1998 0.0021
vn 0.9798 -0.1999 -0.0000
vn 0.9791 -0.2033 -0.0000
vn 0.9630 -0.2043 -0.1755
vn 0.9638 -0.2007 -0.1755
vn -0.9791 0.2034 0.0021
vn -0.9791 0.2035 0.0021
vn -0.9783 0.2071 0.0021
vn 0.9791 -0.2034 0.0000
vn 0.9783 -0.2072 -0.0000
vn 0.9622 -0.2083 -0.1754
vn 0.9630 -0.2046 -0.1754
vn -0.9783 0.2072 0.0021
vn -0.9775 0.2111 0.0021
vn 0.9783 -0.2071 -0.0002
vn 0.9783 -0.2072 0.0001
vn 0.9611 -0.2135 -0.1754
vn 0.9622 -0.2084 -0.1754
vn -0.9764 0.2162 0.0020
vn 0.9775 -0.2111 0.0001
vn 0.9775 -0.2111 0.0002
vn 0.9764 -0.2161 0.0001
vn 0.9596 -0.2200 -0.1755
vn 0.9610 -0.2135 -0.1755
vn -0.9763 0.2163 0.0019
vn -0.9749 0.2228 0.0019
vn 0.9763 -0.2163 0.0001
vn 0.9749 -0.2228 0.0002
vn 0.9575 -0.2291 -0.1755
vn 0.9596 -0.2201 -0.1755
vn -0.9749 0.2228 0.0020
vn -0.9728 0.2318 0.0020
vn 0.9749 -0.2228 0.0001
vn 0.9575 -0.2291 -0.1754
vn 0.9728 -0.2318 0.0002
vn 0.9728 -0.2318 0.0001
vn 0.9538 -0.2441 -0.1753
vn -0.9691 0.2468 0.0019
vn 0.9691 -0.2467 0.0003
vn 0.9442 -0.2791 -0.1749
vn 0.9442 -0.2791 -0.1750
vn -0.9595 0.2817 0.0016
vn -0.9595 0.2817 0.0017
vn -0.9595 0.2816 0.0016
vn 0.9595 -0.2816 0.0006
vn 0.9194 -0.3528 -0.1739
vn -0.9346 0.3557 0.0005
vn -0.9346 0.3557 0.0004
vn 0.9346 -0.3557 0.0018
vn 0.9346 -0.3557 0.0016
vn 0.9120 -0.3716 -0.1736
vn 0.9111 -0.3740 -0.1735
vn 0.9120 -0.3717 -0.1735
vn -0.9268 0.3755 0.0001
vn -0.9268 0.3755 0.0002
vn 0.9268 -0.3755 0.0017
vn 0.9268 -0.3754 0.0020
vn 0.9257 -0.3783 0.0018
vn 0.9110 -0.3740 -0.1736
vn -0.9256 0.3784 0.0002
vn -0.9255 0.3787 0.0001
vn 0.9255 -0.3786 0.0021
vn 0.9115 -0.3728 -0.1736
vn -0.9257 0.3784 0.0001
vn -0.9258 0.3779 0.0001
vn 0.9258 -0.3779 0.0019
vn 0.9255 -0.3788 0.0019
vn 0.9127 -0.3698 -0.1737
vn 0.9116 -0.3725 -0.1736
vn -0.9259 0.3778 0.0001
vn 0.9269 -0.3754 0.0020
vn 0.9259 -0.3779 0.0020
vn 0.9128 -0.3696 -0.1736
vn -0.9269 0.3752 0.0001
vn -0.9269 0.3752 0.0000
vn -0.9288 0.3706 0.0000
vn 0.9269 -0.3752 0.0021
vn 0.9149 -0.3645 -0.1736
vn -0.9288 0.3706 0.0002
vn -0.9288 0.3706 0.0001
vn 0.9288 -0.3706 0.0020
vn 0.9288 -0.3706 0.0019
vn 0.9288 -0.3706 0.0021
vn 0.9288 -0.3706 0.0022
vn 0.9180 -0.3566 -0.1733
vn 0.9180 -0.3566 -0.1736
vn 0.9217 -0.3476 -0.1724
vn -0.9317 0.3632 0.0001
vn -0.9317 0.3633 0.0001
vn -0.9351 0.3544 -0.0000
vn 0.9351 -0.3545 0.0019
vn 0.9317 -0.3633 0.0021
vn 0.9317 -0.3632 0.0018
vn 0.9217 -0.3471 -0.1734
vn 0.9217 -0.3470 -0.1735
vn -0.9351 0.3543 0.0000
vn 0.9351 -0.3543 0.0020
usemtl EnvironmentMat
s 1
f 1/1/1 3/2/1 2/3/1
f 1/1/2 2/3/2 4/4/2
f 5/5/3 7/6/4 6/7/3
f 8/8/4 6/7/3 7/6/4
f 9/9/5 4/4/5 2/3/5
f 4/4/6 9/9/6 10/10/6
f 3/11/7 12/12/8 11/13/9
f 3/11/7 11/13/9 13/14/7
f 14/15/10 15/16/10 8/17/10
f 16/18/11 8/17/10 15/16/10
f 17/19/12 13/14/13 11/13/14
f 13/14/15 17/19/15 9/20/15
f 12/21/8 19/22/16 18/23/17
f 12/21/8 18/23/17 11/24/9
f 20/25/18 21/26/19 16/27/18
f 21/26/19 20/25/18 22/28/20
f 23/29/21 11/24/14 18/23/21
f 11/24/14 23/29/21 17/30/12
f 19/31/16 25/32/22 24/33/23
f 19/31/16 24/33/23 18/34/17
f 22/35/20 26/36/24 21/37/19
f 26/36/24 22/35/20 27/38/24
f 28/39/25 18/34/25 24/33/25
f 18/34/25 28/39/25 29/40/25
f 25/41/22 31/42/26 30/43/27
f 25/41/22 30/43/27 24/44/23
f 32/45/28 33/46/29 26/47/28
f 34/48/29 26/47/28 33/46/29
f 35/49/30 24/44/31 30/43/32
f 24/44/31 35/49/30 36/50/33
f 31/51/26 38/52/34 37/53/35
f 31/51/26 37/53/35 30/54/27
f 33/55/29 39/56/36 34/57/29
f 39/56/36 33/55/29 40/58/37
f 41/59/38 30/54/32 37/53/38
f 30/54/32 41/59/38 35/60/30
f 38/61/34 43/62/39 42/63/40
f 38/61/34 42/63/40 37/64/35
f 40/65/37 44/66/41 39/67/36
f 44/66/41 40/65/37 45/68/42
f 46/69/43 41/70/38 42/63/44
f 37/64/38 42/63/44 41/70/38
f 43/71/39 48/72/45 47/73/45
f 43/71/39 47/73/45 42/74/40
f 49/75/46 50/76/47 44/77/46
f 50/76/47 49/75/46 51/78/48
f 52/79/49 46/80/43 47/73/49
f 42/74/44 47/73/49 46/80/43
f 53/81/50 55/82/51 54/83/52
f 53/81/50 54/83/52 47/84/50
f 51/85/48 56/86/48 50/87/47
f 56/86/48 51/85/48 57/88/53
f 58/89/54 47/84/49 54/83/55
f 47/84/49 58/89/54 52/90/49
f 55/91/51 60/92/56 59/93/57
f 55/91/51 59/93/57 54/94/52
f 61/95/58 62/96/59 56/97/58
f 62/96/59 61/95/58 63/98/60
f 64/99/61 54/94/55 59/93/62
f 54/94/55 64/99/61 58/100/54
f 60/101/56 66/102/63 65/103/64
f 60/101/56 65/103/64 59/104/57
f 63/105/60 67/106/65 62/107/59
f 67/106/65 63/105/60 68/108/66
f 69/109/67 59/104/62 65/103/68
f 59/104/62 69/109/67 64/110/61
f 66/111/63 71/112/69 70/113/70
f 66/111/63 70/113/70 65/114/64
f 68/115/66 72/116/66 67/117/65
f 72/116/66 68/115/66 73/118/71
f 74/119/72 65/114/73 70/113/74
f 65/114/73 74/119/72 75/120/73
f 71/121/69 77/122/75 76/123/76
f 71/121/69 76/123/76 70/124/70
f 73/125/71 78/126/77 72/127/66
f 78/126/77 73/125/71 79/128/78
f 80/129/79 70/124/74 76/123/80
f 70/124/74 80/129/79 74/130/72
f 77/131/75 82/132/81 81/133/82
f 77/131/75 81/133/82 76/134/76
f 79/135/78 83/136/83 78/137/77
f 83/136/83 79/135/78 84/138/84
f 85/139/85 76/134/80 81/133/85
f 76/134/80 85/139/85 80/140/79
f 82/141/81 87/142/86 86/143/86
f 82/141/81 86/143/86 81/144/82
f 84/145/84 88/146/84 83/147/83
f 88/146/84 84/145/84 89/148/84
f 90/149/87 81/144/88 86/143/87
f 81/144/88 90/149/87 91/150/88
f 87/151/89 93/152/89 92/153/89
f 87/151/89 92/153/89 86/154/89
f 94/155/90 95/156/90 88/157/90
f 95/156/90 94/155/90 96/158/90
f 97/159/91 86/154/91 92/153/91
f 86/154/91 97/159/91 90/160/91
f 93/161/92 99/162/92 98/163/92
f 93/161/93 98/163/93 92/164/93
f 96/165/94 100/166/95 95/167/96
f 100/166/95 96/165/94 101/168/95
f 102/169/97 92/164/97 98/163/97
f 92/164/97 102/169/97 103/170/97
f 99/171/98 105/172/98 104/173/98
f 99/171/98 104/173/98 106/174/98
f 107/175/99 108/176/100 100/177/99
f 109/178/100 100/177/99 108/176/100
f 110/179/101 106/174/101 104/173/101
f 106/174/102 110/179/102 102/180/102
f 111/181/103 113/182/104 112/183/105
f 111/181/103 112/183/105 104/184/103
f 114/185/106 115/186/107 109/187/106
f 116/188/107 109/187/106 115/186/107
f 117/189/108 104/184/109 112/183/110
f 104/184/109 117/189/108 110/190/109
f 113/191/104 119/192/111 118/193/111
f 113/191/104 118/193/111 112/194/105
f 120/195/112 122/196/113 121/197/112
f 123/198/113 121/197/112 122/196/113
f 124/199/114 112/194/110 118/193/114
f 112/194/110 124/199/114 117/200/108
f 119/201/111 126/202/115 125/203/104
f 119/201/111 125/203/104 118/204/111
f 122/205/113 127/206/116 123/207/113
f 127/206/116 122/205/113 128/208/117
f 129/209/118 124/210/114 125/203/119
f 118/204/114 125/203/119 124/210/114
f 126/211/115 131/212/120 130/213/121
f 126/211/115 130/213/121 125/214/104
f 128/215/117 132/216/122 127/217/116
f 132/216/122 128/215/117 133/218/122
f 134/219/123 129/220/118 130/213/124
f 125/214/119 130/213/124 129/220/118
f 131/221/125 136/222/125 135/223/125
f 131/221/120 135/223/125 130/224/121
f 133/225/126 138/226/127 137/227/126
f 138/226/127 133/225/126 139/228/128
f 140/229/129 134/230/123 135/223/129
f 130/224/124 135/223/129 134/230/123
f 136/231/130 142/232/130 141/233/130
f 136/231/130 141/233/130 143/234/130
f 139/235/128 144/236/131 138/237/127
f 144/236/131 139/235/128 145/238/132
f 146/239/133 140/240/134 141/233/135
f 143/234/136 141/233/135 140/240/134
f 147/241/137 142/242/138 148/243/139
f 142/242/138 147/241/137 149/244/138
f 150/245/140 151/246/141 144/247/140
f 151/246/141 150/245/140 152/248/142
f 153/249/143 146/250/144 147/241/145
f 149/244/144 147/241/145 146/250/144
f 154/251/146 148/252/146 155/253/146
f 148/252/139 154/251/147 147/254/137
f 152/255/142 156/256/148 151/257/141
f 156/256/148 152/255/142 157/258/148
f 158/259/149 153/260/143 154/251/149
f 147/254/145 154/251/149 153/260/143
