# Blender v3.4.1 OBJ File: 'track.blend'
# www.blender.org
mtllib _1WALL_tires01_02_Scene.378.mtl
o _1WALL_tires01_02_Scene.378
v 171.452377 272.143311 -3.634774
v 170.620895 273.424408 -3.655968
v 170.559296 273.384399 -3.582568
v 171.390793 272.103394 -3.561374
v 172.041107 271.236511 -3.634774
v 171.987396 271.184296 -3.561374
v 172.289703 271.065613 -3.634774
v 172.273193 270.987915 -3.561374
v 171.987396 271.184296 -2.455589
v 171.390793 272.103394 -2.455589
v 170.559296 273.384399 -2.455588
v 172.273193 270.987915 -2.455589
v 172.614197 271.050995 -3.561374
v 172.614197 271.050995 -2.455589
v 173.341599 271.523193 -2.455589
v 172.586380 271.120514 -3.634774
v 173.341599 271.523193 -3.561375
v 173.301697 271.584808 -3.634774
v 169.727982 274.665009 -3.561373
v 169.727982 274.665009 -2.455588
v 168.896790 275.945496 -2.455588
v 169.789581 274.704895 -3.634773
v 168.896790 275.945496 -3.622313
v 168.958298 275.985413 -3.695713
v 168.126984 277.265991 -3.634773
v 168.065506 277.226013 -3.561373
v 168.065506 277.226013 -2.455588
v 167.234192 278.506500 -2.455588
v 167.234192 278.506500 -3.595871
v 167.295792 278.546509 -3.669271
v 166.464493 279.826996 -3.634773
v 166.402893 279.786987 -3.561373
v 166.402893 279.786987 -2.455587
v 165.633194 281.107513 -3.599612
v 165.571594 281.067596 -3.526212
v 165.571594 281.067596 -2.455587
v 164.740402 282.348114 -2.455587
v 164.740402 282.348114 -3.561372
v 164.801895 282.388092 -3.634772
v 163.909103 283.628601 -2.455587
v 163.909103 283.628601 -3.607049
v 163.970596 283.668610 -3.680449
v 163.139404 284.949097 -3.634772
v 163.077805 284.909088 -3.561372
v 163.077805 284.909088 -2.455586
v 162.651901 285.700012 -3.634772
v 162.582397 285.672211 -3.561372
v 162.582397 285.672211 -2.455586
v 162.577301 286.103302 -3.634771
v 162.499481 286.119812 -2.455586
v 162.499481 286.119812 -3.561371
v 162.687195 286.924805 -3.561371
v 162.761993 286.920990 -3.634771
v 162.687195 286.924805 -2.455586
v 162.865295 287.628204 -3.561372
v 162.936493 287.610199 -3.634771
v 162.865295 287.628204 -2.455586
v 172.498291 272.822296 -3.634774
v 171.666794 274.103394 -3.634773
v 170.835480 275.383911 -3.634773
v 170.004196 276.664398 -3.634773
v 169.173004 277.944885 -3.634773
v 168.341690 279.225494 -3.634773
v 167.510406 280.506012 -3.634772
v 166.679092 281.786499 -3.634772
v 165.847794 283.066986 -3.634772
v 165.016602 284.347595 -3.634772
v 164.185303 285.628113 -3.634772
vt 0.752599 1.378793
vt 1.249441 1.346526
vt 1.249441 1.378792
vt 0.752599 1.346526
vt 0.397728 1.378794
vt 0.397728 1.346527
vt 0.289804 1.378794
vt 0.289804 1.346527
vt 0.397727 1.002950
vt 0.752598 1.002950
vt 1.249441 1.002949
vt 0.289804 1.002950
vt 0.181881 1.346527
vt 0.181880 1.002950
vt -0.098675 1.002951
vt 0.181881 1.378794
vt -0.098674 1.346528
vt -0.098674 1.378794
vt 1.746101 1.346525
vt 1.746100 1.002948
vt 2.242934 1.002947
vt 1.746101 1.384315
vt 1.249441 1.384316
vt 2.242934 1.346524
vt 2.242934 1.384314
vt 2.739767 1.384313
vt 2.739767 1.346523
vt 2.739767 1.002947
vt 3.236466 1.002946
vt 3.236466 1.346522
vt 3.236466 1.384313
vt 3.733165 1.384312
vt 3.733165 1.346522
vt 3.733164 1.002945
vt 4.229865 1.384311
vt 4.229865 1.346521
vt 4.229865 1.002944
vt 4.726567 1.002944
vt 4.726567 1.346520
vt 4.726567 1.384310
vt 5.223312 1.002943
vt 5.223313 1.346519
vt 5.223313 1.384310
vt 5.720059 1.384309
vt 5.720059 1.346519
vt 5.720058 1.002942
vt 6.014432 1.384308
vt 6.014432 1.346518
vt 6.014432 1.002942
vt 6.157632 1.384308
vt 6.157631 1.002942
vt 6.157632 1.346518
vt 6.300831 1.346518
vt 6.300831 1.384308
vt 6.300831 1.002942
vt 6.431076 1.346518
vt 6.431076 1.384308
vt 6.431075 1.002941
vt -3.736500 1.534263
vt -3.254271 1.848438
vt -3.735859 1.849698
vt -3.608106 1.388076
vt -3.699018 1.431032
vt -3.255212 1.387151
vt -2.756349 1.385076
vt -2.755953 1.847127
vt -0.754358 1.387136
vt -0.256425 1.849087
vt -0.754746 1.848489
vt -0.255996 1.387798
vt 0.241897 1.849677
vt 0.242719 1.387836
vt 0.740220 1.851360
vt 0.741433 1.390068
vt 1.238546 1.853039
vt 1.239884 1.391568
vt 1.736874 1.855066
vt 1.738335 1.393769
vt 2.235206 1.857092
vt 2.236799 1.395607
vt 2.733541 1.859483
vt 2.735264 1.398177
vt 3.231881 1.861872
vt 3.233827 1.400254
vt 3.731493 1.859568
vt 3.732656 1.403799
vt 4.056134 1.404140
vt 4.192945 1.460864
vt 4.404173 1.677623
vt 4.578541 1.866039
vn -0.3174 -0.2114 -0.9244
vn -0.7740 -0.5024 -0.3854
vn -0.3166 -0.2055 -0.9260
vn -0.7740 -0.5056 -0.3812
vn -0.2987 -0.2910 -0.9089
vn -0.6652 -0.6479 -0.3711
vn -0.0911 -0.4282 -0.8991
vn -0.1934 -0.9092 -0.3687
vn -0.7163 -0.6978 0.0000
vn -0.8388 -0.5445 0.0000
vn -0.2080 -0.9781 0.0000
vn 0.3439 -0.8626 -0.3710
vn 0.3703 -0.9289 0.0000
vn 0.5445 -0.8388 0.0000
vn 0.1544 -0.3874 -0.9089
vn 0.5030 -0.7749 -0.3828
vn 0.2083 -0.3209 -0.9239
vn -0.7742 -0.5084 -0.3770
vn -0.3121 -0.2127 -0.9259
vn -0.7721 -0.5012 -0.3907
vn -0.3085 -0.2004 -0.9299
vn -0.3190 -0.2003 -0.9264
vn -0.7790 -0.5019 -0.3759
vn -0.8387 -0.5445 0.0000
vn -0.7732 -0.5019 -0.3876
vn -0.3140 -0.2038 -0.9273
vn -0.3291 -0.1959 -0.9238
vn -0.7796 -0.4957 -0.3828
vn -0.3281 -0.2130 -0.9203
vn -0.7766 -0.5041 -0.3779
vn -0.7697 -0.5117 -0.3818
vn -0.3108 -0.2225 -0.9241
vn -0.7728 -0.5017 -0.3887
vn -0.3117 -0.2024 -0.9284
vn -0.3240 -0.1985 -0.9250
vn -0.7790 -0.4990 -0.3797
vn -0.3875 -0.1545 -0.9088
vn -0.8625 -0.3440 -0.3711
vn -0.9288 -0.3705 0.0000
vn -0.4133 0.0010 -0.9106
vn -0.9997 0.0229 0.0000
vn -0.9265 0.0270 -0.3754
vn -0.8962 0.2169 -0.3871
vn -0.3701 0.0897 -0.9246
vn -0.9717 0.2363 0.0000
vn -0.8956 0.2268 -0.3828
vn -0.4853 0.1229 -0.8657
vn -0.9694 0.2454 0.0000
vn 0.0054 -0.0008 -1.0000
vn 0.0071 0.0046 -1.0000
vn 0.0173 0.0035 -0.9998
vn 0.0205 0.0133 -0.9997
vn 0.0137 0.0140 -0.9998
vn 0.0116 0.0075 -0.9999
vn -0.0063 0.0095 -0.9999
vn -0.0118 -0.0077 -0.9999
vn 0.0090 -0.0099 -0.9999
vn 0.0154 0.0100 -0.9998
vn 0.0035 0.0112 -0.9999
usemtl TiresMat
s 1
f 1/1/1 3/2/2 2/3/3
f 3/2/2 1/1/1 4/4/4
f 5/5/5 4/4/4 1/1/1
f 4/4/4 5/5/5 6/6/6
f 7/7/7 6/6/6 5/5/5
f 6/6/6 7/7/7 8/8/8
f 6/6/6 9/9/9 4/4/4
f 9/9/9 6/6/6 8/8/8
f 4/4/4 9/9/9 10/10/10
f 11/11/10 4/4/4 10/10/10
f 4/4/4 11/11/10 3/2/2
f 8/8/8 12/12/11 9/9/9
f 7/7/7 13/13/12 8/8/8
f 12/12/11 8/8/8 13/13/12
f 13/13/12 14/14/13 12/12/11
f 13/13/12 15/15/14 14/14/13
f 7/7/7 16/16/15 13/13/12
f 17/17/16 15/15/14 13/13/12
f 16/16/15 17/17/16 13/13/12
f 16/16/15 18/18/17 17/17/16
f 3/2/2 11/11/10 19/19/18
f 19/19/18 11/11/10 20/20/10
f 21/21/10 19/19/18 20/20/10
f 22/22/19 3/2/2 19/19/18
f 22/22/19 2/23/3 3/2/2
f 23/24/20 22/22/19 19/19/18
f 19/19/18 21/21/10 23/24/20
f 22/22/19 23/24/20 24/25/21
f 25/26/22 24/25/21 23/24/20
f 23/24/20 21/21/10 26/27/23
f 25/26/22 23/24/20 26/27/23
f 26/27/23 21/21/10 27/28/10
f 28/29/24 26/27/23 27/28/10
f 29/30/25 25/26/22 26/27/23
f 26/27/23 28/29/24 29/30/25
f 25/26/22 29/30/25 30/31/26
f 31/32/27 30/31/26 29/30/25
f 29/30/25 28/29/24 32/33/28
f 31/32/27 29/30/25 32/33/28
f 32/33/28 28/29/24 33/34/10
f 34/35/29 31/32/27 32/33/28
f 32/33/28 33/34/10 35/36/30
f 34/35/29 32/33/28 35/36/30
f 35/36/30 33/34/10 36/37/10
f 37/38/10 35/36/30 36/37/10
f 38/39/31 34/35/29 35/36/30
f 35/36/30 37/38/10 38/39/31
f 34/35/29 38/39/31 39/40/32
f 40/41/24 38/39/31 37/38/10
f 41/42/33 39/40/32 38/39/31
f 38/39/31 40/41/24 41/42/33
f 39/40/32 41/42/33 42/43/34
f 43/44/35 42/43/34 41/42/33
f 41/42/33 40/41/24 44/45/36
f 43/44/35 41/42/33 44/45/36
f 44/45/36 40/41/24 45/46/10
f 46/47/37 43/44/35 44/45/36
f 44/45/36 45/46/10 47/48/38
f 46/47/37 44/45/36 47/48/38
f 47/48/38 45/46/10 48/49/39
f 47/48/38 49/50/40 46/47/37
f 47/48/38 48/49/39 50/51/41
f 47/48/38 51/52/42 49/50/40
f 50/51/41 51/52/42 47/48/38
f 52/53/43 49/50/40 51/52/42
f 50/51/41 52/53/43 51/52/42
f 49/50/40 52/53/43 53/54/44
f 52/53/43 50/51/41 54/55/45
f 55/56/46 53/54/44 52/53/43
f 54/55/45 55/56/46 52/53/43
f 53/54/44 55/56/46 56/57/47
f 55/56/46 54/55/45 57/58/48
f 16/59/15 58/60/49 18/61/17
f 16/59/15 5/62/5 58/60/49
f 5/62/5 16/59/15 7/63/7
f 5/62/5 1/64/1 58/60/49
f 2/65/3 58/60/49 1/64/1
f 58/60/49 2/65/3 59/66/50
f 2/67/3 60/68/51 59/69/50
f 60/68/51 2/67/3 22/70/19
f 22/70/19 61/71/52 60/68/51
f 61/71/52 22/70/19 24/72/21
f 24/72/21 62/73/53 61/71/52
f 62/73/53 24/72/21 25/74/22
f 25/74/22 63/75/54 62/73/53
f 63/75/54 25/74/22 30/76/26
f 30/76/26 64/77/55 63/75/54
f 64/77/55 30/76/26 31/78/27
f 31/78/27 65/79/56 64/77/55
f 65/79/56 31/78/27 34/80/29
f 34/80/29 66/81/57 65/79/56
f 66/81/57 34/80/29 39/82/32
f 39/82/32 67/83/58 66/81/57
f 67/83/58 39/82/32 42/84/34
f 42/84/34 68/85/59 67/83/58
f 68/85/59 42/84/34 43/86/35
f 46/87/37 68/85/59 43/86/35
f 49/88/40 68/85/59 46/87/37
f 53/89/44 68/85/59 49/88/40
f 68/85/59 53/89/44 56/90/47
