# Blender v3.1.2 OBJ File: 'track.blend'
# www.blender.org
mtllib _1WALL_small03_EMIRATES_002_SUB1.mtl
o _1WALL_small03_EMIRATES_002_SUB1_Scene.348
v 16778.970703 31122.988281 -200.393799
v 16778.509766 31122.580078 -368.862213
v 16866.451172 31534.689453 -202.203705
v 16865.970703 31534.179688 -370.671906
v 16611.650391 30340.412109 -199.527893
v 16611.250000 30340.279297 -367.997009
v 16694.689453 30731.408203 -368.272797
v 16695.121094 30731.658203 -199.803894
v 16445.609375 29557.621094 -199.575195
v 16445.230469 29557.580078 -368.044403
v 16528.089844 29948.910156 -367.958588
v 16528.470703 29948.958984 -199.489502
v 16280.459961 28774.781250 -199.350708
v 16280.020508 28774.451172 -367.819489
v 16362.550781 29166.009766 -368.083496
v 16362.939453 29166.119141 -199.614410
vt 0.000589 1.816153
vt 0.123742 1.816153
vt 0.000589 1.859635
vt 0.123742 1.859635
vt 0.000589 1.816153
vt 0.123742 1.859635
vt 0.000589 1.859635
vt 0.123742 1.816153
vt 0.040631 1.813524
vt 0.105981 1.836597
vt 0.040631 1.836597
vt 0.105981 1.813524
vt 0.000589 1.816153
vt 0.123742 1.859635
vt 0.000589 1.859635
vt 0.123742 1.816153
vt 0.040631 1.813524
vt 0.105981 1.836597
vt 0.040631 1.836597
vt 0.105981 1.813524
vt 0.000589 1.816153
vt 0.123742 1.859635
vt 0.000589 1.859635
vt 0.123742 1.816153
vt 0.040631 1.813524
vt 0.105981 1.836597
vt 0.040631 1.836597
vt 0.105981 1.813524
vn -0.9780 0.2087 0.0022
vn -0.9782 0.2079 0.0022
vn -0.9781 0.2082 0.0022
vn -0.9779 0.2091 0.0022
vn -0.9784 0.2069 0.0022
vn -0.9782 0.2075 0.0022
vn -0.9785 0.2062 0.0021
vn -0.9785 0.2064 0.0021
vn -0.9785 0.2062 0.0022
usemtl EnvironmentMat
s 1
f 1/1/1 3/2/2 2/3/1
f 4/4/2 2/3/1 3/2/2
f 5/5/3 7/6/4 6/7/3
f 7/6/4 5/5/3 8/8/4
f 8/9/4 2/10/1 7/11/4
f 2/10/1 8/9/4 1/12/1
f 9/13/5 11/14/6 10/15/5
f 11/14/6 9/13/5 12/16/6
f 12/17/6 6/18/3 11/19/6
f 6/18/3 12/17/6 5/20/3
f 13/21/7 15/22/8 14/23/9
f 15/22/8 13/21/7 16/24/8
f 16/25/8 10/26/5 15/27/8
f 10/26/5 16/25/8 9/28/5
