# Blender v3.4.1 OBJ File: 'track.blend'
# www.blender.org
mtllib _3RUNOFF_SUB1_Scene.387.mtl
o _3RUNOFF_SUB1_Scene.387
v 151.617889 233.962204 -2.547723
v 150.620300 235.284286 -2.547723
v 149.985703 232.278702 -2.547987
v 151.197906 231.970184 -2.602637
v 149.360992 229.271500 -2.548304
v 150.442703 228.367004 -2.600384
v 148.747894 226.262787 -2.548711
v 149.540894 223.963806 -2.598793
v 148.148605 223.252304 -2.549249
v 148.701706 219.922104 -2.596259
v 147.596603 220.313995 -2.550108
v 147.125702 217.522003 -2.551476
v 147.819199 215.607880 -2.468813
v 146.769501 214.950378 -2.553544
v 147.676300 214.194580 -2.530134
v 146.561905 212.673203 -2.556499
v 147.603195 212.988998 -2.530036
v 147.585800 211.684189 -2.532487
v 146.509598 211.654297 -2.558221
v 147.607193 211.132492 -2.533525
v 146.557404 210.631790 -2.559945
v 147.654495 209.908295 -2.536908
v 146.648407 209.694580 -2.561714
v 147.775894 209.284393 -2.537032
v 146.811005 208.768204 -2.563483
v 147.935394 208.628387 -2.538004
v 147.045807 207.885284 -2.565099
v 148.107498 208.073196 -2.539173
v 148.240799 207.533203 -2.541866
v 147.377304 207.023880 -2.566715
v 147.810196 206.167892 -2.567979
v 148.711594 206.486282 -2.541504
v 148.311096 205.340500 -2.569245
v 149.108597 205.883301 -2.543198
v 149.483200 205.345184 -2.547205
v 148.910507 204.527496 -2.571281
v 150.406693 204.295090 -2.543839
v 149.591507 203.779007 -2.573317
v 150.329697 203.073105 -2.577249
v 150.895996 203.846283 -2.546386
v 151.475296 203.417999 -2.546507
v 151.197479 202.400101 -2.581180
v 152.657196 202.755096 -2.543695
v 152.105499 201.793777 -2.588129
v 132.106598 216.054581 -2.548725
v 131.467880 212.315186 -2.560622
v 134.476593 212.162903 -2.560622
v 134.707001 215.883392 -2.548725
v 132.500397 219.499893 -2.541448
v 135.100800 219.328781 -2.541448
v 133.016098 222.738907 -2.537659
v 135.616501 222.567688 -2.537659
v 133.612396 225.839996 -2.536226
v 136.212708 225.668777 -2.536226
v 134.247696 228.871887 -2.536019
v 136.848099 228.700699 -2.536019
v 134.880707 231.903198 -2.535903
v 137.481094 231.731995 -2.535903
v 135.513397 234.933807 -2.535854
v 138.113800 234.762589 -2.535854
v 136.147705 237.963593 -2.535842
v 138.748093 237.792404 -2.535842
v 136.785706 240.992401 -2.535841
v 139.386093 240.821106 -2.535841
v 137.429306 244.019989 -2.535823
v 140.029694 243.848679 -2.535823
v 138.078400 247.046204 -2.535789
v 140.678696 246.874893 -2.535789
v 138.732498 250.070694 -2.535742
v 141.332901 249.899582 -2.535742
v 139.391602 253.093582 -2.535682
v 141.992004 252.922394 -2.535682
v 140.055206 256.114410 -2.535612
v 142.655594 255.943192 -2.535612
v 140.722504 259.132996 -2.535536
v 143.322906 258.961700 -2.535536
v 141.392395 262.148987 -2.535459
v 143.992783 261.977814 -2.535459
v 142.063904 265.162292 -2.535385
v 144.664307 264.991089 -2.535385
v 142.735992 268.172699 -2.535319
v 145.336395 268.001404 -2.535319
v 143.406998 271.180206 -2.535273
v 146.007401 271.009003 -2.535273
v 144.075195 274.185394 -2.535257
v 146.675598 274.014099 -2.535257
v 144.738907 277.187988 -2.535284
v 147.339294 277.016907 -2.535284
v 145.396301 280.188904 -2.535365
v 147.996689 280.017609 -2.535365
v 146.048706 283.189301 -2.535630
v 148.649094 283.018097 -2.535630
v 146.697296 286.191101 -2.536206
v 149.297699 286.019989 -2.536206
v 147.343307 289.196014 -2.537226
v 149.943695 289.024689 -2.537226
v 149.493896 292.106415 -2.538816
v 147.987701 292.205597 -2.538816
v 150.588104 292.034393 -2.538816
v 150.249893 293.421387 -2.511525
v 150.794800 294.307800 -2.513608
v 151.231506 295.047394 -2.540884
v 154.447205 187.244797 -2.647750
v 151.735107 188.089706 -2.637887
v 151.903107 187.877106 -2.638672
v 154.398605 187.099777 -2.647750
v 152.246597 187.609894 -2.610097
v 155.571594 186.735382 -2.651500
v 155.627701 186.877396 -2.651500
v 154.349899 186.954681 -2.617750
v 152.612198 187.147400 -2.611810
v 155.515503 186.593292 -2.621500
v 156.707199 186.270889 -2.655251
v 156.770706 186.410095 -2.655251
v 154.244095 186.639099 -2.617750
v 154.127502 185.231094 -2.618600
v 155.393494 186.284103 -2.621501
v 155.912506 183.734406 -2.626483
v 156.643600 186.131790 -2.625252
v 156.505295 185.828995 -2.625252
v 157.357605 185.411697 -2.626814
v 156.940994 182.730194 -2.627584
v 157.601700 185.828995 -2.656814
v 157.678497 185.960403 -2.656814
v 157.524796 185.697586 -2.626814
v 158.457489 185.288101 -2.658377
v 158.547607 185.411697 -2.658377
v 158.171204 184.895599 -2.628377
v 158.367401 185.164581 -2.628377
v 159.103104 184.756500 -2.658229
v 159.207596 184.866379 -2.658229
v 158.770905 184.407684 -2.628229
v 158.998505 184.646698 -2.628229
v 159.331802 183.820694 -2.628080
v 157.678299 181.596893 -2.624614
v 159.709900 184.126007 -2.658080
v 159.828903 184.222107 -2.658080
v 159.590897 184.029892 -2.628080
v 160.177307 183.463684 -2.656697
v 160.307297 183.541397 -2.656697
v 160.665298 182.813507 -2.655313
v 159.764404 183.216797 -2.626696
v 160.047302 183.385986 -2.626696
v 160.524307 182.754196 -2.655313
v 160.946701 182.009583 -2.653170
v 160.383301 182.694778 -2.625313
v 160.076508 182.565506 -2.625313
v 160.336884 181.835892 -2.623170
v 158.453903 179.583389 -2.655757
v 160.800705 181.968002 -2.653170
v 161.107697 181.158401 -2.651027
v 160.654694 181.926498 -2.623170
v 160.956604 181.134583 -2.651027
v 160.805496 181.110794 -2.621027
v 161.070404 180.191193 -2.648602
v 161.222382 180.202103 -2.648602
v 160.476700 181.058899 -2.621027
v 160.918396 180.180405 -2.618603
v 160.587494 180.156693 -2.618603
v 161.108704 179.243683 -2.646177
v 161.261597 179.241699 -2.646177
v 161.197205 178.163498 -2.643428
v 160.622803 179.250198 -2.616177
v 160.955704 179.245804 -2.616177
v 161.044693 178.173294 -2.643428
v 160.929001 176.354385 -2.638870
v 160.560501 178.204483 -2.651142
v 159.360596 177.521378 -2.651480
v 159.608093 176.857178 -2.609745
v 160.892303 178.183105 -2.651142
v 160.778198 176.379898 -2.638884
v 160.096207 175.821503 -2.607529
v 160.448898 175.242905 -2.605861
v 160.558197 174.947403 -2.635154
v 160.667496 174.651886 -2.634453
vt -5.906642 -0.462373
vt -5.334908 0.124423
vt -6.378288 -0.127105
vt -5.214676 -0.296257
vt -4.290864 0.373446
vt -3.963568 0.004427
vt -3.245923 0.618953
vt -2.433944 0.365586
vt -2.200144 0.860308
vt -1.029490 0.702810
vt -1.179016 1.085261
vt -0.208080 1.282019
vt 0.470401 1.061961
vt 0.686645 1.438967
vt 0.963686 1.132129
vt 1.479897 1.544036
vt 1.384910 1.174942
vt 1.841484 1.200925
vt 1.834982 1.577910
vt 2.035240 1.202463
vt 2.192824 1.577905
vt 2.464399 1.206583
vt 2.521477 1.562106
vt 2.685093 1.175311
vt 2.847774 1.522146
vt 2.917756 1.131739
vt 3.160394 1.456957
vt 3.115438 1.082200
vt 3.307211 1.046354
vt 3.467590 1.358573
vt 3.775347 1.225406
vt 3.683230 0.903538
vt 4.074984 1.068549
vt 3.902909 0.777728
vt 4.099731 0.658790
vt 4.372456 0.877769
vt 4.488306 0.360174
vt 4.649704 0.657331
vt 4.913841 0.416178
vt 4.656897 0.199635
vt 4.820631 0.007285
vt 5.170051 0.129125
vt 5.081107 -0.390052
vt 5.404220 -0.173632
vt 22.012791 -0.595469
vt 23.206610 -1.678109
vt 23.354250 -0.622856
vt 21.898800 -1.510032
vt 20.790091 -0.502494
vt 20.675920 -1.416739
vt 19.631491 -0.465414
vt 19.517080 -1.379162
vt 18.516081 -0.465158
vt 18.401360 -1.378257
vt 17.422859 -0.482610
vt 17.307730 -1.394945
vt 16.330919 -0.498693
vt 16.215349 -1.410181
vt 15.240240 -0.514005
vt 15.124150 -1.424593
vt 14.150760 -0.529211
vt 14.034090 -1.438819
vt 13.062510 -0.544928
vt 12.945220 -1.453418
vt 11.975600 -0.561763
vt 11.857640 -1.468987
vt 10.890290 -0.579582
vt 10.771620 -1.485425
vt 9.806749 -0.598162
vt 9.687302 -1.502602
vt 8.724989 -0.617324
vt 8.604742 -1.520432
vt 7.644995 -0.636991
vt 7.523914 -1.538820
vt 6.566891 -0.656824
vt 6.444966 -1.557405
vt 5.490753 -0.676489
vt 5.367984 -1.575870
vt 4.416646 -0.695624
vt 4.293011 -1.593942
vt 3.344527 -0.713916
vt 3.220004 -1.611280
vt 2.274319 -0.730765
vt 2.148910 -1.627277
vt 1.205874 -0.745608
vt 1.079664 -1.641377
vt 0.139151 -0.757984
vt 0.012182 -1.653112
vt -0.925939 -0.767410
vt -1.053538 -1.661979
vt -1.990066 -0.774342
vt -2.118221 -1.668401
vt -3.053991 -0.779193
vt -3.182562 -1.672822
vt -4.118406 -0.782444
vt -4.247255 -1.675694
vt -5.258702 -1.301754
vt -5.184062 -0.784488
vt -5.313061 -1.677308
vt -5.757965 -1.462902
vt -6.096834 -1.583270
vt -6.378288 -1.678101
vt -5.604717 2.567825
vt -6.284012 3.180936
vt -6.378288 3.187882
vt -5.572176 2.610131
vt -6.139009 3.134661
vt -5.238791 2.340752
vt -5.269142 2.296929
vt -5.539012 2.653253
vt -5.933653 3.119289
vt -5.207864 2.385413
vt -4.883802 2.101063
vt -4.911925 2.055658
vt -5.468096 2.745328
vt -5.082014 3.053352
vt -5.141801 2.480848
vt -4.299528 2.825194
vt -4.855151 2.147337
vt -4.793929 2.246176
vt -4.507504 2.079130
vt -3.807173 2.720371
vt -4.582120 1.926477
vt -4.605460 1.878696
vt -4.558306 1.975141
vt -4.259026 1.782000
vt -4.277577 1.731846
vt -4.199759 1.942239
vt -4.240122 1.833089
vt -3.979305 1.696748
vt -3.991100 1.645045
vt -3.941651 1.861978
vt -3.967275 1.749445
vt -3.662195 1.812006
vt -3.333528 2.724779
vt -3.678163 1.641823
vt -3.683150 1.588533
vt -3.673066 1.696096
vt -3.394689 1.633616
vt -3.392223 1.580695
vt -3.110791 1.616984
vt -3.402551 1.802677
vt -3.397195 1.687548
vt -3.120706 1.669537
vt -2.822043 1.690155
vt -3.130803 1.723099
vt -3.152388 1.837497
vt -2.889347 1.902456
vt -2.595362 2.887519
vt -2.838088 1.740785
vt -2.542675 1.807395
vt -2.854426 1.792328
vt -2.564850 1.856068
vt -2.587429 1.905694
vt -2.267548 2.004628
vt -2.241435 1.958134
vt -2.635700 2.011611
vt -2.294125 2.052047
vt -2.350967 2.153242
vt -1.983320 2.176083
vt -1.953213 2.131806
vt -1.650927 2.359035
vt -2.079383 2.317585
vt -2.013968 2.221203
vt -1.683205 2.401709
vt -1.173115 2.785549
vt -1.785574 2.537456
vt -1.817294 3.020200
vt -1.574556 3.075867
vt -1.715448 2.444495
vt -1.209514 2.824831
vt -1.177071 3.132225
vt -0.939548 3.140003
vt -0.831130 3.163566
vt -0.723427 3.187876
vn -0.0144 0.0141 -0.9998
vn -0.0278 0.0113 -0.9995
vn -0.0143 0.0140 -0.9998
vn -0.0285 0.0112 -0.9995
vn -0.0414 0.0083 -0.9991
vn -0.0410 0.0082 -0.9991
vn -0.0403 0.0080 -0.9992
vn -0.0397 0.0079 -0.9992
vn -0.0395 0.0077 -0.9992
vn -0.0190 -0.0059 -0.9998
vn -0.0226 -0.0036 -0.9997
vn 0.0120 -0.0164 -0.9998
vn 0.0638 0.0014 -0.9980
vn 0.0557 0.0117 -0.9984
vn 0.0350 0.0107 -0.9993
vn 0.0249 0.0001 -0.9997
vn 0.0250 -0.0003 -0.9997
vn 0.0241 0.0019 -0.9997
vn 0.0239 0.0017 -0.9997
vn 0.0237 0.0031 -0.9997
vn 0.0237 0.0035 -0.9997
vn 0.0236 0.0043 -0.9997
vn 0.0239 0.0050 -0.9997
vn 0.0237 0.0061 -0.9997
vn 0.0238 0.0071 -0.9997
vn 0.0233 0.0082 -0.9997
vn 0.0230 0.0094 -0.9997
vn 0.0229 0.0096 -0.9997
vn 0.0229 0.0111 -0.9997
vn 0.0231 0.0111 -0.9997
vn 0.0234 0.0137 -0.9996
vn 0.0233 0.0141 -0.9996
vn 0.0207 0.0171 -0.9996
vn 0.0207 0.0170 -0.9996
vn 0.0197 0.0178 -0.9996
vn 0.0201 0.0179 -0.9996
vn 0.0201 0.0229 -0.9995
vn 0.0203 0.0216 -0.9996
vn 0.0188 0.0270 -0.9995
vn 0.0189 0.0267 -0.9995
vn 0.0181 0.0296 -0.9994
vn 0.0180 0.0307 -0.9994
vn 0.0177 0.0329 -0.9993
vn 0.0177 0.0325 -0.9993
vn 0.0002 0.0027 -1.0000
vn 0.0002 0.0032 -1.0000
vn 0.0002 0.0026 -1.0000
vn 0.0001 0.0016 -1.0000
vn 0.0001 0.0008 -1.0000
vn 0.0000 0.0003 -1.0000
vn 0.0000 0.0002 -1.0000
vn 0.0000 0.0001 -1.0000
vn 0.0000 0.0000 -1.0000
vn -0.0000 -0.0001 -1.0000
vn -0.0000 -0.0003 -1.0000
vn -0.0000 -0.0004 -1.0000
vn 0.0003 0.0049 -1.0000
vn -0.0000 -0.0005 -1.0000
vn -0.0058 0.0100 -0.9999
vn -0.0191 0.0150 -0.9997
vn -0.0854 0.0188 -0.9962
vn -0.0956 0.0197 -0.9952
vn -0.0031 0.0010 -1.0000
vn -0.0105 -0.0221 -0.9997
vn -0.0033 0.0011 -1.0000
vn -0.0318 -0.0913 -0.9953
vn -0.0504 -0.1504 -0.9873
vn -0.0347 -0.0875 -0.9956
vn -0.0028 0.0011 -1.0000
vn -0.0318 -0.0912 -0.9953
vn -0.0364 -0.0926 -0.9950
vn -0.0409 -0.0853 -0.9955
vn -0.0021 0.0010 -1.0000
vn -0.0032 0.0010 -1.0000
vn -0.0030 0.0011 -1.0000
vn -0.0016 0.0008 -1.0000
vn -0.0427 -0.0891 -0.9951
vn -0.0022 0.0011 -1.0000
vn -0.0014 0.0008 -1.0000
vn -0.0001 -0.0008 -1.0000
vn -0.0471 -0.0808 -0.9956
vn -0.0013 0.0008 -1.0000
vn -0.0504 -0.0867 -0.9950
vn -0.0550 -0.0750 -0.9957
vn -0.0005 0.0004 -1.0000
vn -0.0007 0.0003 -1.0000
vn -0.0594 -0.0811 -0.9949
vn -0.0637 -0.0690 -0.9956
vn 0.0001 -0.0001 -1.0000
vn 0.0000 -0.0002 -1.0000
vn -0.0682 -0.0740 -0.9949
vn 0.0005 -0.0010 -1.0000
vn 0.0001 0.0045 -1.0000
vn -0.0704 -0.0594 -0.9957
vn 0.0006 -0.0007 -1.0000
vn -0.0774 -0.0654 -0.9949
vn -0.0789 -0.0487 -0.9957
vn 0.0009 -0.0014 -1.0000
vn 0.0008 -0.0020 -1.0000
vn 0.0007 -0.0017 -1.0000
vn -0.0873 -0.0537 -0.9947
vn -0.0851 -0.0380 -0.9956
vn 0.0007 -0.0024 -1.0000
vn -0.0915 -0.0407 -0.9950
vn 0.0008 -0.0022 -1.0000
vn 0.0028 0.0000 -1.0000
vn 0.0090 0.0090 -0.9999
vn -0.0889 -0.0265 -0.9957
vn 0.0004 -0.0025 -1.0000
vn -0.0980 -0.0288 -0.9948
vn -0.0933 -0.0169 -0.9955
vn -0.0973 -0.0175 -0.9951
vn -0.0941 -0.0101 -0.9955
vn 0.0002 -0.0025 -1.0000
vn 0.0086 -0.0013 -1.0000
vn -0.0990 -0.0106 -0.9950
vn 0.0087 -0.0019 -1.0000
vn -0.0642 0.0009 -0.9979
vn -0.0000 -0.0025 -1.0000
vn -0.0002 -0.0025 -1.0000
vn 0.0071 0.0108 -0.9999
vn -0.0682 0.0097 -0.9976
vn -0.0224 0.0022 -0.9997
vn -0.0003 -0.0025 -1.0000
vn 0.0054 -0.0008 -1.0000
vn 0.0209 -0.0222 -0.9995
vn -0.0055 -0.0243 -0.9997
vn -0.0246 0.0070 -0.9997
vn -0.0162 -0.0068 -0.9998
vn -0.0303 -0.0191 -0.9994
vn -0.1508 0.0150 -0.9885
vn -0.0316 0.0023 -0.9995
vn -0.0004 -0.0025 -1.0000
usemtl RunoffgreenMat
s 1
f 1/1/1 3/2/2 2/3/3
f 3/2/2 1/1/1 4/4/4
f 4/4/4 5/5/5 3/2/2
f 5/5/5 4/4/4 6/6/6
f 7/7/7 5/5/5 6/6/6
f 7/7/7 6/6/6 8/8/8
f 9/9/9 7/7/7 8/8/8
f 9/9/9 8/8/8 10/10/10
f 11/11/11 9/9/9 10/10/10
f 12/12/12 11/11/11 10/10/10
f 10/10/10 13/13/13 12/12/12
f 14/14/14 12/12/12 13/13/13
f 14/14/14 13/13/13 15/15/15
f 15/15/15 16/16/16 14/14/14
f 16/16/16 15/15/15 17/17/17
f 18/18/18 16/16/16 17/17/17
f 18/18/18 19/19/19 16/16/16
f 20/20/20 19/19/19 18/18/18
f 19/19/19 20/20/20 21/21/21
f 22/22/22 21/21/21 20/20/20
f 22/22/22 23/23/23 21/21/21
f 24/24/24 23/23/23 22/22/22
f 23/23/23 24/24/24 25/25/25
f 26/26/26 25/25/25 24/24/24
f 26/26/26 27/27/27 25/25/25
f 27/27/27 26/26/26 28/28/28
f 29/29/29 27/27/27 28/28/28
f 27/27/27 29/29/29 30/30/30
f 29/29/29 31/31/31 30/30/30
f 31/31/31 29/29/29 32/32/32
f 33/33/33 31/31/31 32/32/32
f 32/32/32 34/34/34 33/33/33
f 35/35/35 33/33/33 34/34/34
f 33/33/33 35/35/35 36/36/36
f 37/37/37 36/36/36 35/35/35
f 36/36/36 37/37/37 38/38/38
f 37/37/37 39/39/39 38/38/38
f 39/39/39 37/37/37 40/40/40
f 41/41/41 39/39/39 40/40/40
f 39/39/39 41/41/41 42/42/42
f 41/41/41 43/43/43 42/42/42
f 42/42/42 43/43/43 44/44/44
f 45/45/45 47/46/46 46/47/46
f 47/46/46 45/45/45 48/48/47
f 49/49/48 48/48/47 45/45/45
f 48/48/47 49/49/48 50/50/48
f 51/51/49 50/50/48 49/49/48
f 50/50/48 51/51/49 52/52/49
f 53/53/50 52/52/49 51/51/49
f 52/52/49 53/53/50 54/54/51
f 55/55/52 54/54/51 53/53/50
f 54/54/51 55/55/52 56/56/52
f 57/57/53 56/56/52 55/55/52
f 56/56/52 57/57/53 58/58/53
f 59/59/53 58/58/53 57/57/53
f 58/58/53 59/59/53 60/60/53
f 61/61/53 60/60/53 59/59/53
f 60/60/53 61/61/53 62/62/53
f 63/63/53 62/62/53 61/61/53
f 62/62/53 63/63/53 64/64/53
f 65/65/53 64/64/53 63/63/53
f 64/64/53 65/65/53 66/66/53
f 67/67/53 66/66/53 65/65/53
f 66/66/53 67/67/53 68/68/53
f 69/69/53 68/68/53 67/67/53
f 68/68/53 69/69/53 70/70/53
f 71/71/53 70/70/53 69/69/53
f 70/70/53 71/71/53 72/72/53
f 73/73/53 72/72/53 71/71/53
f 72/72/53 73/73/53 74/74/53
f 75/75/53 74/74/53 73/73/53
f 74/74/53 75/75/53 76/76/53
f 77/77/53 76/76/53 75/75/53
f 76/76/53 77/77/53 78/78/53
f 79/79/53 78/78/53 77/77/53
f 78/78/53 79/79/53 80/80/53
f 81/81/53 80/80/53 79/79/53
f 80/80/53 81/81/53 82/82/53
f 83/83/53 82/82/53 81/81/53
f 82/82/53 83/83/53 84/84/53
f 85/85/53 84/84/53 83/83/53
f 84/84/53 85/85/53 86/86/53
f 87/87/53 86/86/53 85/85/53
f 86/86/53 87/87/53 88/88/53
f 89/89/54 88/88/53 87/87/53
f 88/88/53 89/89/54 90/90/54
f 91/91/54 90/90/54 89/89/54
f 90/90/54 91/91/54 92/92/54
f 93/93/55 92/92/54 91/91/54
f 92/92/54 93/93/55 94/94/55
f 95/95/56 94/94/55 93/93/55
f 94/94/55 95/95/56 96/96/56
f 97/97/57 96/96/56 95/95/56
f 98/98/58 97/97/57 95/95/56
f 96/96/56 97/97/57 99/99/59
f 99/99/59 97/97/57 100/100/60
f 101/101/61 99/99/59 100/100/60
f 102/102/62 99/99/59 101/101/61
f 103/103/63 105/104/64 104/105/65
f 105/104/64 103/103/63 106/106/66
f 106/106/66 107/107/67 105/104/64
f 108/108/68 106/106/66 103/103/63
f 103/103/63 109/109/69 108/108/68
f 107/107/67 106/106/66 110/110/70
f 110/110/70 111/111/65 107/107/67
f 106/106/66 108/108/68 112/112/71
f 112/112/71 110/110/70 106/106/66
f 113/113/72 108/108/68 109/109/69
f 109/109/69 114/114/73 113/113/72
f 111/111/65 110/110/70 115/115/74
f 111/111/65 115/115/74 116/116/65
f 117/117/75 115/115/74 110/110/70
f 115/115/74 117/117/75 116/116/65
f 110/110/70 112/112/71 117/117/75
f 117/117/75 118/118/76 116/116/65
f 119/119/77 112/112/71 108/108/68
f 108/108/68 113/113/72 119/119/77
f 120/120/78 117/117/75 112/112/71
f 117/117/75 120/120/78 118/118/76
f 112/112/71 119/119/77 120/120/78
f 121/121/79 118/118/76 120/120/78
f 121/121/79 120/120/78 119/119/77
f 122/122/80 118/118/76 121/121/79
f 123/123/81 113/113/72 114/114/73
f 114/114/73 124/124/82 123/123/81
f 125/125/83 119/119/77 113/113/72
f 119/119/77 125/125/83 121/121/79
f 113/113/72 123/123/81 125/125/83
f 126/126/84 123/123/81 124/124/82
f 124/124/82 127/127/85 126/126/84
f 128/128/86 121/121/79 125/125/83
f 128/128/86 122/122/80 121/121/79
f 129/129/87 125/125/83 123/123/81
f 125/125/83 129/129/87 128/128/86
f 123/123/81 126/126/84 129/129/87
f 130/130/88 126/126/84 127/127/85
f 127/127/85 131/131/89 130/130/88
f 122/122/80 128/128/86 132/132/90
f 129/129/87 132/132/90 128/128/86
f 133/133/91 129/129/87 126/126/84
f 129/129/87 133/133/91 132/132/90
f 126/126/84 130/130/88 133/133/91
f 134/134/92 122/122/80 132/132/90
f 133/133/91 134/134/92 132/132/90
f 135/135/93 122/122/80 134/134/92
f 136/136/94 130/130/88 131/131/89
f 131/131/89 137/137/95 136/136/94
f 138/138/96 133/133/91 130/130/88
f 133/133/91 138/138/96 134/134/92
f 130/130/88 136/136/94 138/138/96
f 137/137/95 139/139/97 136/136/94
f 137/137/95 140/140/98 139/139/97
f 141/141/99 139/139/97 140/140/98
f 138/138/96 142/142/100 134/134/92
f 142/142/100 135/135/93 134/134/92
f 136/136/94 143/143/101 138/138/96
f 136/136/94 139/139/97 143/143/101
f 138/138/96 143/143/101 142/142/100
f 139/139/97 141/141/99 144/144/102
f 144/144/102 143/143/101 139/139/97
f 145/145/103 144/144/102 141/141/99
f 146/146/104 142/142/100 143/143/101
f 143/143/101 144/144/102 146/146/104
f 135/135/93 142/142/100 147/147/105
f 142/142/100 146/146/104 147/147/105
f 148/148/106 135/135/93 147/147/105
f 146/146/104 148/148/106 147/147/105
f 149/149/107 135/135/93 148/148/106
f 144/144/102 145/145/103 150/150/108
f 151/151/109 150/150/108 145/145/103
f 144/144/102 152/152/110 146/146/104
f 152/152/110 144/144/102 150/150/108
f 148/148/106 146/146/104 152/152/110
f 150/150/108 151/151/109 153/153/111
f 153/153/111 152/152/110 150/150/108
f 154/154/112 148/148/106 152/152/110
f 152/152/110 153/153/111 154/154/112
f 151/151/109 155/155/113 153/153/111
f 155/155/113 151/151/109 156/156/114
f 157/157/115 149/149/107 148/148/106
f 148/148/106 154/154/112 157/157/115
f 153/153/111 158/158/116 154/154/112
f 158/158/116 153/153/111 155/155/113
f 154/154/112 159/159/117 157/157/115
f 149/149/107 157/157/115 159/159/117
f 159/159/117 154/154/112 158/158/116
f 156/156/114 160/160/118 155/155/113
f 160/160/118 156/156/114 161/161/119
f 162/162/120 160/160/118 161/161/119
f 163/163/121 149/149/107 159/159/117
f 158/158/116 163/163/121 159/159/117
f 155/155/113 164/164/122 158/158/116
f 164/164/122 155/155/113 160/160/118
f 163/163/121 158/158/116 164/164/122
f 160/160/118 162/162/120 165/165/123
f 165/165/123 164/164/122 160/160/118
f 166/166/124 165/165/123 162/162/120
f 167/167/125 149/149/107 163/163/121
f 149/149/107 167/167/125 168/168/126
f 167/167/125 169/169/127 168/168/126
f 170/170/128 163/163/121 164/164/122
f 163/163/121 170/170/128 167/167/125
f 164/164/122 165/165/123 170/170/128
f 170/170/128 169/169/127 167/167/125
f 171/171/129 170/170/128 165/165/123
f 170/170/128 171/171/129 169/169/127
f 165/165/123 166/166/124 171/171/129
f 172/172/130 169/169/127 171/171/129
f 173/173/131 172/172/130 171/171/129
f 171/171/129 174/174/132 173/173/131
f 166/166/124 174/174/132 171/171/129
f 166/166/124 175/175/133 174/174/132
