# Blender v3.4.1 OBJ File: 'track.blend'
# www.blender.org
mtllib _3RUNOFF_SUB0_Scene.386.mtl
o _3RUNOFF_SUB0_Scene.386
v -323.296997 264.744812 -5.236823
v -322.917786 261.431000 -5.243120
v -322.131012 264.458710 -5.236823
v -28.036779 708.977783 -4.804719
v -28.104198 708.909973 -4.839734
v -26.634718 707.890930 -4.842165
v -32.005692 704.021912 -4.622108
v -30.041821 706.470276 -4.750568
v -30.027241 706.471497 -4.713123
v -33.978470 701.610718 -4.531009
v -33.961529 701.597473 -4.568454
v -35.947048 699.224670 -4.439155
v -35.923580 699.206421 -4.476600
v -39.829811 694.441223 -4.287962
v -39.877831 694.478271 -4.250517
v -43.816307 689.726379 -4.055960
v -43.778530 689.688416 -4.093404
v -47.697811 684.978271 -3.897794
v -47.744827 684.977112 -3.860349
v -51.673206 680.226929 -3.667849
v -51.681240 680.189026 -3.705294
v -55.601860 675.475830 -3.481918
v -55.632450 675.438293 -3.519363
v -59.531200 670.724670 -3.306063
v -59.564522 670.686768 -3.343508
v -61.496258 668.348877 -3.223027
v -61.476990 668.368164 -3.260472
v -65.427391 663.597473 -3.069130
v -65.447807 663.559509 -3.106575
v -67.393593 661.221680 -2.999496
v -67.392014 661.192200 -3.036941
v -68.301987 660.123108 -2.993834
v -28.625177 705.384583 -4.750568
v -30.603630 702.935120 -4.659553
v -32.576420 700.523682 -4.568453
v -34.544991 698.137817 -4.476600
v -38.475769 693.391418 -4.287962
v -42.443329 688.625427 -4.093405
v -46.371849 683.876221 -3.897795
v -50.300228 679.125916 -3.705294
v -54.228870 674.375122 -3.519362
v -58.158226 669.623718 -3.343508
v -60.123280 667.248108 -3.260472
v -64.054413 662.496521 -3.106575
v -66.020607 660.121216 -3.036941
v -66.912987 659.006226 -3.004972
v 234.095596 807.230774 -3.336797
v 234.796402 801.092224 -3.344425
v 241.280899 781.254028 -3.325444
v 235.503494 794.953430 -3.346691
v 236.227203 788.812622 -3.341923
v 236.593979 785.740295 -3.336586
v 236.959778 782.666321 -3.329278
v 237.321381 779.589905 -3.319995
v 237.675705 776.510315 -3.308738
v 238.021500 773.427795 -3.295718
v 238.357880 770.342102 -3.281145
v 248.466202 755.277161 -3.314090
v 238.683899 767.253174 -3.265231
v 238.998291 764.161133 -3.248188
v 239.300293 761.066223 -3.230222
v 239.589096 757.968567 -3.211539
v 239.863693 754.867981 -3.192348
v 247.939896 752.199829 -3.301533
v 240.123291 751.764648 -3.172853
v 247.438293 749.110352 -3.287001
v 240.367279 748.658813 -3.153244
v 246.968582 746.007874 -3.270503
v 240.595184 745.550781 -3.133708
v 246.537979 742.890930 -3.252051
v 240.806183 742.440430 -3.114437
v 246.153702 739.757874 -3.231652
v 241.000000 739.328430 -3.095615
v 245.822784 736.607483 -3.209319
v 241.176086 736.214905 -3.077395
v 245.548203 733.445618 -3.185815
v 241.334290 733.099670 -3.059930
v 245.332901 730.277893 -3.161903
v 241.474197 729.983215 -3.043368
v 245.179382 727.109680 -3.138349
v 241.595795 726.866028 -3.027863
v 245.090698 723.946777 -3.115914
v 241.698898 723.747864 -3.013517
v 245.055206 720.793823 -3.095259
v 241.783707 720.629517 -3.000435
v 245.061798 717.654114 -3.077040
v 241.850098 717.510315 -2.988718
v 245.098999 714.532471 -3.061914
v 241.898193 714.391418 -2.978474
v 245.155380 711.433411 -3.050538
v 241.927902 711.271790 -2.969724
v 245.219803 708.353821 -3.042102
v 241.939407 708.151367 -2.962491
v 245.280792 705.290771 -3.035790
v 241.932693 705.029724 -2.956803
v 245.327301 702.241760 -3.030792
v 241.907806 701.906616 -2.952682
v 245.347885 699.203674 -3.026296
v 241.862488 698.781616 -2.949747
v 245.339890 696.173889 -3.021931
v 242.433289 695.637939 -2.917623
v 242.113907 695.646301 -2.938826
v 241.954285 695.650208 -2.947623
v 241.794601 695.654419 -2.947623
v -330.613464 224.772491 -5.252495
v -332.631592 223.646179 -5.217969
v -330.852814 223.361694 -5.250689
v -331.873108 227.859680 -5.232671
v -330.063660 227.859680 -5.255339
v -331.299805 230.945404 -5.234659
v -329.490387 230.945404 -5.257328
v -330.706390 234.023880 -5.236038
v -328.896973 234.023880 -5.258706
v -330.096313 237.089798 -5.237055
v -328.286804 237.089798 -5.259723
v -329.472809 240.137390 -5.237957
v -327.663391 240.137390 -5.260625
v -328.836975 243.173203 -5.238445
v -327.027557 243.173203 -5.261113
v -328.189911 246.203583 -5.238222
v -326.380493 246.203583 -5.260890
v -327.532501 249.234802 -5.236988
v -325.723083 249.234802 -5.259656
v -326.921600 252.273392 -5.234447
v -325.056488 252.273392 -5.257114
v -326.269958 255.319000 -5.230746
v -324.372284 255.319000 -5.253414
v -325.594391 258.371613 -5.226032
v -323.662201 258.371613 -5.248700
v -324.922791 261.431000 -5.220452
v -323.451385 264.785706 -5.236823
v -323.605804 264.826691 -5.206823
v -324.152557 264.908508 -5.206822
v -28.488291 709.327881 -4.804719
v -30.478750 706.821533 -4.713123
v -32.457199 704.372009 -4.622108
v -34.429989 701.960754 -4.531009
v -36.398560 699.574524 -4.439155
v -40.329338 694.828430 -4.250517
v -44.258461 690.080872 -4.055960
v -48.186981 685.331604 -3.860349
v -52.115360 680.581421 -3.667849
v -56.044006 675.830383 -3.481918
v -59.973347 671.079224 -3.306064
v -61.938412 668.703430 -3.223027
v -65.869537 663.952026 -3.069131
v -67.835739 661.576172 -2.999496
v -68.496986 660.279724 -2.997526
vt -69.627663 46.363991
vt 0.999656 1.979067
vt -9.662721 1.473399
vt 0.009358 1.000024
vt 0.999976 1.056200
vt 0.000024 1.056166
vt -9.483490 5.921708
vt -10.692910 6.429837
vt -10.703210 6.406933
vt -11.932970 6.923682
vt -11.922660 6.946549
vt -8.287704 5.419257
vt -9.493813 5.898811
vt -8.298075 5.396414
vt -7.101759 4.920994
vt -7.112131 4.898117
vt -4.752756 3.906811
vt -4.742319 3.929627
vt -2.383208 2.938426
vt -2.393273 2.915435
vt -0.040485 1.926882
vt -0.030401 1.949865
vt 2.322637 0.961197
vt 2.312569 0.938207
vt 4.677725 -0.028314
vt 4.667678 -0.051314
vt 7.037685 -1.019865
vt 7.027670 -1.042895
vt 8.219928 -1.516626
vt 8.209910 -1.539640
vt 10.587730 -2.511482
vt 10.577730 -2.534502
vt 11.772750 -3.009390
vt 11.762750 -3.032413
vt 12.321640 -3.240015
vt -10.994150 5.761752
vt -12.223570 6.278310
vt -10.703220 6.406955
vt -9.785291 5.253836
vt -8.590226 4.751714
vt -7.404956 4.253708
vt -5.046783 3.262891
vt -2.677273 2.267310
vt -0.324801 1.278889
vt 2.028535 0.290105
vt 4.384208 -0.699661
vt 6.744837 -1.691510
vt 7.927339 -2.188354
vt 10.295590 -3.183403
vt 11.480700 -3.681345
vt 12.029680 -3.912003
vt 12.311640 -3.263031
vt -18.686291 13.689130
vt -11.421900 7.269356
vt -16.812510 12.494540
vt -14.939600 11.297880
vt -13.068640 10.095650
vt -12.133380 9.492937
vt -11.196910 8.890344
vt -10.258100 8.288324
vt -9.316191 7.687683
vt -8.371721 7.088783
vt -7.424755 6.492210
vt -4.140630 0.835833
vt -6.475531 5.898803
vt -5.523303 5.308606
vt -4.568024 4.722012
vt -3.609514 4.139288
vt -2.647539 3.560657
vt -3.059678 0.519342
vt -1.681912 2.986367
vt -1.978217 0.192761
vt -0.712463 2.416616
vt -0.896923 -0.146409
vt 0.260908 1.851625
vt 0.183737 -0.500834
vt 1.238495 1.291455
vt 1.263153 -0.873127
vt 2.220366 0.736273
vt 2.340948 -1.265968
vt 3.206718 0.186154
vt 3.415025 -1.679413
vt 4.197752 -0.358826
vt 4.483363 -2.113544
vt 5.193727 -0.898649
vt 5.543919 -2.568552
vt 6.194820 -1.433278
vt 6.594586 -3.044535
vt 7.201113 -1.962758
vt 7.635902 -3.537152
vt 8.212594 -2.487098
vt 8.668209 -4.041927
vt 9.229186 -3.006214
vt 9.691673 -4.554229
vt 10.250580 -3.519889
vt 10.706420 -5.069686
vt 11.276760 -4.028141
vt 11.714990 -5.584949
vt 12.307670 -4.530920
vt 12.719900 -6.096683
vt 13.343300 -5.028389
vt 13.723550 -6.601492
vt 14.383310 -5.520572
vt 14.728310 -7.095959
vt 15.427820 -6.006670
vt 15.735310 -7.579570
vt 16.380159 -6.700228
vt 0.000044 1.000044
vt 0.999956 1.000054
vt 0.979498 1.098131
vt 0.969259 1.147155
vt 0.959040 1.196074
vt 5.161314 0.779872
vt 5.488889 0.766153
vt 5.510052 1.178531
vt 4.529385 1.209500
vt 4.443166 0.803802
vt 3.810087 1.227973
vt 3.724040 0.822029
vt 3.090916 1.241229
vt 3.005104 0.834905
vt 2.373081 1.249583
vt 2.287544 0.842759
vt 1.657890 1.253436
vt 1.572648 0.846036
vt 0.943852 1.253267
vt 0.858899 0.845221
vt 0.229551 1.249590
vt 0.144844 0.840917
vt -0.486378 1.243050
vt -0.570910 0.833758
vt -1.205307 1.234288
vt -1.289768 0.824448
vt -1.927480 1.221574
vt -2.011906 0.811326
vt -2.652966 1.203066
vt -2.737329 0.792544
vt -3.381964 1.176872
vt -3.466253 0.766160
vt -4.202913 1.043439
vt -4.200810 1.006500
vt -4.205132 1.081025
vt -4.209326 1.154932
vt -10.692920 6.429859
vt -11.825760 7.161744
vt -10.595920 6.645010
vt -9.386290 6.136769
vt -8.190295 5.634256
vt -7.004110 5.135866
vt -4.644278 4.144352
vt -2.288511 3.154546
vt 0.064404 2.165938
vt 2.417342 1.177321
vt 4.772246 0.187878
vt 7.132010 -0.803607
vt 8.314145 -1.300297
vt 10.681810 -2.295102
vt 11.866800 -2.792991
vt 12.415670 -3.023604
vt 11.772760 -3.009401
vn -0.0063 0.0009 -1.0000
vn 0.0005 0.0020 -1.0000
vn -0.0092 0.0022 -1.0000
vn 0.1979 0.2876 -0.9371
vn -0.7445 0.6114 0.2681
vn -0.7471 0.6077 0.2694
vn -0.7465 0.6086 0.2692
vn -0.7489 0.6046 0.2714
vn -0.6646 0.5250 -0.5317
vn -0.6811 0.5384 -0.4962
vn -0.6654 0.5255 -0.5301
vn -0.5817 0.4524 -0.6760
vn -0.5853 0.4557 -0.6706
vn -0.4750 0.3603 -0.8029
vn -0.4731 0.3587 -0.8047
vn -0.4740 0.3602 -0.8035
vn -0.4765 0.3625 -0.8010
vn -0.5542 0.4304 -0.7124
vn -0.6010 0.4721 -0.6449
vn -0.6820 0.5460 -0.4866
vn -0.7308 0.5926 -0.3387
vn -0.7612 0.6239 -0.1773
vn -0.7705 0.6362 -0.0386
vn -0.7704 0.6375 0.0088
vn -0.7710 0.6368 -0.0063
vn -0.7681 0.6313 -0.1074
vn -0.7708 0.6350 -0.0520
vn -0.7597 0.6215 -0.1913
vn -0.7410 0.6024 -0.2965
vn -0.7136 0.5814 -0.3908
vn -0.7001 0.5731 -0.4259
vn -0.6822 0.5616 -0.4682
vn -0.0233 -0.0219 -0.9995
vn -0.0174 -0.0227 -0.9996
vn -0.0236 -0.0218 -0.9995
vn -0.0260 -0.0164 -0.9995
vn -0.0260 -0.0163 -0.9995
vn -0.0203 -0.0175 -0.9996
vn -0.0203 -0.0176 -0.9996
vn -0.0185 -0.0238 -0.9995
vn -0.0190 -0.0245 -0.9995
vn -0.0197 -0.0247 -0.9995
vn -0.0201 -0.0243 -0.9995
vn -0.0187 -0.0242 -0.9995
vn -0.0186 -0.0242 -0.9995
vn -0.0177 -0.0234 -0.9996
vn -0.0167 -0.0221 -0.9996
vn -0.0169 -0.0221 -0.9996
vn -0.0165 -0.0203 -0.9997
vn -0.0167 -0.0203 -0.9997
vn -0.0144 -0.0188 -0.9997
vn -0.0164 -0.0183 -0.9997
vn -0.0164 -0.0184 -0.9997
vn -0.0189 -0.0187 -0.9996
vn 0.0103 0.0024 -0.9999
vn -0.0004 -0.0026 -1.0000
vn 0.0101 0.0023 -0.9999
vn 0.0059 0.0009 -1.0000
vn 0.0023 -0.0007 -1.0000
vn 0.0007 -0.0018 -1.0000
vn 0.0000 -0.0026 -1.0000
vn 0.0000 -0.0034 -1.0000
vn 0.0006 -0.0040 -1.0000
vn 0.0016 -0.0045 -1.0000
vn -0.0066 -0.0032 -1.0000
vn -0.0135 -0.0052 -0.9999
vn -0.0131 -0.0066 -0.9999
vn -0.0135 -0.0069 -0.9999
vn -0.0137 -0.0072 -0.9999
vn -0.0138 -0.0074 -0.9999
vn -0.0145 -0.0063 -0.9999
vn -0.0160 -0.0046 -0.9999
vn -0.0162 -0.0047 -0.9999
vn -0.0184 -0.0049 -0.9998
vn -0.0185 -0.0049 -0.9998
vn -0.0208 -0.0050 -0.9998
vn -0.0210 -0.0051 -0.9998
vn -0.0233 -0.0053 -0.9997
vn -0.0235 -0.0055 -0.9997
vn -0.0256 -0.0057 -0.9997
vn -0.0257 -0.0056 -0.9997
vn -0.0272 -0.0052 -0.9996
vn -0.0277 -0.0059 -0.9996
vn -0.0289 -0.0057 -0.9996
vn -0.0292 -0.0061 -0.9996
vn -0.0300 -0.0060 -0.9995
vn -0.0303 -0.0064 -0.9995
vn -0.0303 -0.0061 -0.9995
vn -0.0302 -0.0060 -0.9995
vn -0.0300 -0.0061 -0.9995
vn -0.0295 -0.0056 -0.9995
vn -0.0288 -0.0055 -0.9996
vn -0.0283 -0.0050 -0.9996
vn -0.0274 -0.0049 -0.9996
vn -0.0272 -0.0047 -0.9996
vn -0.0259 -0.0039 -0.9997
vn -0.0256 -0.0036 -0.9997
vn -0.0251 -0.0034 -0.9997
vn -0.0249 -0.0032 -0.9997
vn -0.0243 -0.0027 -0.9997
vn -0.0239 -0.0023 -0.9997
vn -0.0236 -0.0021 -0.9997
vn -0.0232 -0.0016 -0.9997
vn -0.0226 -0.0011 -0.9997
vn -0.0225 -0.0011 -0.9997
vn -0.0244 -0.0045 -0.9997
vn -0.0201 -0.0044 -0.9998
vn -0.0270 -0.0083 -0.9996
vn 0.0164 -0.0036 -0.9999
vn 0.0610 0.0014 -0.9981
vn 0.0285 0.0002 -0.9996
vn -0.0000 -0.0007 -1.0000
vn -0.0164 0.0005 -0.9999
vn -0.0181 0.0018 -0.9998
vn -0.0174 0.0005 -0.9998
vn -0.0133 0.0012 -0.9999
vn -0.0125 0.0015 -0.9999
vn -0.0125 0.0018 -0.9999
vn -0.0125 0.0021 -0.9999
vn -0.0125 0.0022 -0.9999
vn -0.0125 0.0024 -0.9999
vn -0.0125 0.0026 -0.9999
vn -0.0125 0.0029 -0.9999
vn -0.0125 0.0030 -0.9999
vn -0.0125 0.0032 -0.9999
vn -0.0125 0.0033 -0.9999
vn -0.0122 0.0036 -0.9999
vn -0.0121 0.0037 -0.9999
vn -0.0120 0.0040 -0.9999
vn -0.0119 0.0041 -0.9999
vn -0.0118 0.0043 -0.9999
vn -0.0116 0.0044 -0.9999
vn -0.0131 0.0038 -0.9999
vn -0.0838 0.0321 -0.9960
vn -0.0956 0.0411 -0.9946
vn 0.0006 0.0038 -1.0000
vn -0.0176 -0.0227 -0.9996
vn -0.0175 -0.0226 -0.9996
vn -0.0178 -0.0230 -0.9996
vn -0.0181 -0.0233 -0.9996
vn -0.0191 -0.0245 -0.9995
vn -0.0198 -0.0247 -0.9995
vn -0.0197 -0.0246 -0.9995
vn -0.0192 -0.0239 -0.9995
vn -0.0184 -0.0229 -0.9996
vn -0.0183 -0.0229 -0.9996
vn -0.0173 -0.0216 -0.9996
vn -0.0162 -0.0202 -0.9997
vn -0.0149 -0.0185 -0.9997
vn -0.0061 -0.0111 -0.9999
vn -0.0065 -0.0115 -0.9999
vn 0.0021 -0.0046 -1.0000
usemtl RunoffredMat
s 1
f 1/1/1 3/2/2 2/3/3
f 4/4/4 6/5/4 5/6/4
f 7/7/5 9/8/6 8/9/7
f 5/10/8 8/9/7 9/8/6
f 9/8/6 4/11/8 5/10/8
f 10/12/9 7/13/10 11/14/11
f 12/15/12 10/12/9 11/14/11
f 11/14/11 13/16/13 12/15/12
f 14/17/14 12/15/12 13/16/13
f 12/15/12 14/17/14 15/18/15
f 14/17/14 16/19/16 15/18/15
f 16/19/16 14/17/14 17/20/17
f 17/20/17 18/21/18 16/19/16
f 19/22/19 16/19/16 18/21/18
f 18/21/18 20/23/20 19/22/19
f 20/23/20 18/21/18 21/24/21
f 22/25/22 20/23/20 21/24/21
f 21/24/21 23/26/23 22/25/22
f 24/27/24 22/25/22 23/26/23
f 23/26/23 25/28/25 24/27/24
f 26/29/26 24/27/24 25/28/25
f 26/29/26 25/28/25 27/30/27
f 27/30/27 28/31/28 26/29/26
f 28/31/28 27/30/27 29/32/29
f 30/33/30 28/31/28 29/32/29
f 29/32/29 31/34/31 30/33/30
f 32/35/32 30/33/30 31/34/31
f 33/36/33 5/10/34 6/37/34
f 5/10/34 33/36/33 8/38/35
f 34/39/36 8/38/35 33/36/33
f 8/38/35 34/39/36 7/13/37
f 35/40/38 7/13/37 34/39/36
f 7/13/37 35/40/38 11/14/39
f 36/41/40 11/14/39 35/40/38
f 11/14/39 36/41/40 13/16/40
f 37/42/41 13/16/40 36/41/40
f 13/16/40 37/42/41 14/17/41
f 38/43/42 14/17/41 37/42/41
f 14/17/41 38/43/42 17/20/42
f 38/43/42 39/44/43 17/20/42
f 18/21/43 17/20/42 39/44/43
f 39/44/43 40/45/44 18/21/43
f 21/24/45 18/21/43 40/45/44
f 41/46/46 21/24/45 40/45/44
f 21/24/45 41/46/46 23/26/46
f 42/47/47 23/26/46 41/46/46
f 23/26/46 42/47/47 25/28/48
f 43/48/49 25/28/48 42/47/47
f 25/28/48 43/48/49 27/30/50
f 43/48/49 44/49/51 27/30/50
f 29/32/51 27/30/50 44/49/51
f 45/50/52 29/32/51 44/49/51
f 29/32/51 45/50/52 31/34/53
f 46/51/54 31/34/53 45/50/52
f 31/34/53 46/51/54 32/52/54
f 47/53/55 49/54/56 48/55/57
f 48/55/57 49/54/56 50/56/58
f 51/57/59 50/56/58 49/54/56
f 49/54/56 52/58/60 51/57/59
f 49/54/56 53/59/61 52/58/60
f 53/59/61 49/54/56 54/60/62
f 54/60/62 49/54/56 55/61/63
f 55/61/63 49/54/56 56/62/64
f 57/63/65 56/62/64 49/54/56
f 58/64/66 57/63/65 49/54/56
f 59/65/67 57/63/65 58/64/66
f 60/66/68 59/65/67 58/64/66
f 60/66/68 58/64/66 61/67/69
f 61/67/69 58/64/66 62/68/70
f 62/68/70 58/64/66 63/69/71
f 64/70/72 63/69/71 58/64/66
f 63/69/71 64/70/72 65/71/73
f 66/72/74 65/71/73 64/70/72
f 65/71/73 66/72/74 67/73/75
f 68/74/76 67/73/75 66/72/74
f 67/73/75 68/74/76 69/75/77
f 70/76/78 69/75/77 68/74/76
f 69/75/77 70/76/78 71/77/79
f 72/78/80 71/77/79 70/76/78
f 71/77/79 72/78/80 73/79/81
f 74/80/82 73/79/81 72/78/80
f 73/79/81 74/80/82 75/81/83
f 76/82/84 75/81/83 74/80/82
f 75/81/83 76/82/84 77/83/85
f 78/84/86 77/83/85 76/82/84
f 77/83/85 78/84/86 79/85/87
f 80/86/88 79/85/87 78/84/86
f 79/85/87 80/86/88 81/87/89
f 82/88/90 81/87/89 80/86/88
f 81/87/89 82/88/90 83/89/91
f 84/90/92 83/89/91 82/88/90
f 83/89/91 84/90/92 85/91/93
f 86/92/94 85/91/93 84/90/92
f 85/91/93 86/92/94 87/93/95
f 88/94/96 87/93/95 86/92/94
f 87/93/95 88/94/96 89/95/97
f 90/96/98 89/95/97 88/94/96
f 89/95/97 90/96/98 91/97/99
f 92/98/100 91/97/99 90/96/98
f 91/97/99 92/98/100 93/99/101
f 94/100/102 93/99/101 92/98/100
f 94/100/102 95/101/103 93/99/101
f 96/102/104 95/101/103 94/100/102
f 97/103/105 95/101/103 96/102/104
f 98/104/106 97/103/105 96/102/104
f 97/103/105 98/104/106 99/105/107
f 100/106/108 99/105/107 98/104/106
f 99/105/107 100/106/108 101/107/109
f 99/108/107 101/109/109 102/110/110
f 99/108/107 102/110/110 103/111/111
f 104/112/112 99/108/107 103/111/111
f 105/113/113 107/114/114 106/115/115
f 105/113/113 106/115/115 108/116/116
f 109/117/117 105/113/113 108/116/116
f 110/118/118 109/117/117 108/116/116
f 109/117/117 110/118/118 111/119/118
f 112/120/119 111/119/118 110/118/118
f 111/119/118 112/120/119 113/121/119
f 114/122/120 113/121/119 112/120/119
f 113/121/119 114/122/120 115/123/120
f 116/124/121 115/123/120 114/122/120
f 115/123/120 116/124/121 117/125/121
f 118/126/122 117/125/121 116/124/121
f 117/125/121 118/126/122 119/127/122
f 120/128/123 119/127/122 118/126/122
f 119/127/122 120/128/123 121/129/124
f 122/130/125 121/129/124 120/128/123
f 121/129/124 122/130/125 123/131/126
f 124/132/127 123/131/126 122/130/125
f 123/131/126 124/132/127 125/133/128
f 126/134/129 125/133/128 124/132/127
f 125/133/128 126/134/129 127/135/130
f 128/136/131 127/135/130 126/134/129
f 127/135/130 128/136/131 129/137/132
f 130/138/133 129/137/132 128/136/131
f 129/137/132 130/138/133 2/139/3
f 130/138/133 131/140/134 2/139/3
f 2/139/3 131/140/134 1/141/1
f 131/140/134 130/138/133 132/142/135
f 130/138/133 133/143/136 132/142/135
f 9/144/137 134/145/138 4/11/138
f 134/145/138 9/144/137 135/146/137
f 7/7/139 135/146/137 9/144/137
f 135/146/137 7/7/139 136/147/139
f 10/12/140 136/147/139 7/7/139
f 136/147/139 10/12/140 137/148/140
f 12/15/40 137/148/140 10/12/140
f 137/148/140 12/15/40 138/149/40
f 15/18/41 138/149/40 12/15/40
f 138/149/40 15/18/41 139/150/141
f 16/19/142 139/150/141 15/18/41
f 139/150/141 16/19/142 140/151/142
f 16/19/142 19/22/143 140/151/142
f 141/152/143 140/151/142 19/22/143
f 19/22/143 20/23/144 141/152/143
f 142/153/144 141/152/143 20/23/144
f 22/25/145 142/153/144 20/23/144
f 142/153/144 22/25/145 143/154/146
f 24/27/147 143/154/146 22/25/145
f 143/154/146 24/27/147 144/155/147
f 26/29/148 144/155/147 24/27/147
f 144/155/147 26/29/148 145/156/148
f 26/29/148 28/31/149 145/156/148
f 146/157/149 145/156/148 28/31/149
f 30/33/150 146/157/149 28/31/149
f 146/157/149 30/33/150 147/158/151
f 148/159/152 147/158/151 30/160/150
f 148/159/152 30/160/150 32/35/152
