# Blender v3.1.2 OBJ File: 'track.blend'
# www.blender.org
mtllib _3RUNOFF_SUB0.mtl
o _3RUNOFF_SUB0_Scene.385
v -32329.699219 26474.480469 -523.686584
v -32291.779297 26143.099609 -524.316284
v -32213.101562 26445.871094 -523.686584
v -2803.677979 70897.781250 -480.483490
v -2810.419922 70891.000000 -483.984894
v -2663.471924 70789.093750 -484.227997
v -3200.569092 70402.195312 -462.222290
v -3004.182129 70647.031250 -475.068298
v -3002.724121 70647.148438 -471.323792
v -3397.846924 70161.070312 -453.112305
v -3396.152832 70159.750000 -456.856812
v -3594.704834 69922.468750 -443.926910
v -3592.357910 69920.640625 -447.671417
v -3982.981201 69444.125000 -428.807495
v -3987.782959 69447.828125 -425.062988
v -4381.630859 68972.640625 -405.607239
v -4377.853027 68968.843750 -409.351685
v -4769.781250 68497.828125 -389.790619
v -4774.482910 68497.710938 -386.046112
v -5167.320801 68022.695312 -366.795990
v -5168.124023 68018.906250 -370.540497
v -5560.186035 67547.585938 -348.202789
v -5563.245117 67543.828125 -351.947296
v -5953.120117 67072.468750 -330.617188
v -5956.452148 67068.679688 -334.361694
v -6149.625977 66834.890625 -322.313599
v -6147.699219 66836.820312 -326.058105
v -6542.739258 66359.750000 -306.923798
v -6544.780762 66355.953125 -310.668304
v -6739.359375 66122.171875 -299.960388
v -6739.201172 66119.218750 -303.704895
v -6830.198730 66012.312500 -299.394104
v -2862.517822 70538.460938 -475.068298
v -3060.363037 70293.515625 -465.966705
v -3257.642090 70052.367188 -456.856689
v -3454.499023 69813.781250 -447.671417
v -3847.576904 69339.140625 -428.807495
v -4244.333008 68862.546875 -409.351685
v -4637.185059 68387.625000 -389.790619
v -5030.022949 67912.593750 -370.540497
v -5422.887207 67437.515625 -351.947174
v -5815.822754 66962.375000 -334.361694
v -6012.328125 66724.812500 -326.058105
v -6405.441406 66249.656250 -310.668304
v -6602.060547 66012.125000 -303.704895
v -6691.298828 65900.625000 -300.507904
v 23409.560547 80723.078125 -333.692902
v 23479.640625 80109.226562 -334.455597
v 24128.089844 78125.406250 -332.557098
v 23550.349609 79495.343750 -334.682098
v 23622.720703 78881.265625 -334.205200
v 23659.398438 78574.031250 -333.671417
v 23695.978516 78266.632812 -332.940521
v 23732.138672 77958.992188 -332.012207
v 23767.570312 77651.031250 -330.886505
v 23802.150391 77342.781250 -329.584412
v 23835.789062 77034.210938 -328.127014
v 24846.621094 75527.718750 -331.421295
v 23868.390625 76725.320312 -326.535614
v 23899.830078 76416.117188 -324.831207
v 23930.029297 76106.625000 -323.034607
v 23958.910156 75796.859375 -321.166290
v 23986.369141 75486.796875 -319.247101
v 24793.990234 75219.984375 -330.165588
v 24012.330078 75176.468750 -317.297607
v 24743.830078 74911.039062 -328.712311
v 24036.728516 74865.882812 -315.336609
v 24696.859375 74600.789062 -327.062500
v 24059.519531 74555.078125 -313.382996
v 24653.798828 74289.093750 -325.217194
v 24080.619141 74244.046875 -311.455811
v 24615.371094 73975.789062 -323.177277
v 24100.000000 73932.843750 -309.573517
v 24582.279297 73660.750000 -320.943909
v 24117.609375 73621.492188 -307.751495
v 24554.820312 73344.562500 -318.593414
v 24133.429688 73309.968750 -306.004913
v 24533.291016 73027.789062 -316.202209
v 24147.419922 72998.320312 -304.348694
v 24517.939453 72710.968750 -313.846710
v 24159.580078 72686.601562 -302.798187
v 24509.070312 72394.679688 -311.603180
v 24169.890625 72374.789062 -301.363495
v 24505.521484 72079.382812 -309.537689
v 24178.371094 72062.953125 -300.055206
v 24506.179688 71765.414062 -307.715698
v 24185.009766 71751.031250 -298.883514
v 24509.900391 71453.250000 -306.203003
v 24189.820312 71439.140625 -297.859009
v 24515.539062 71143.343750 -305.065399
v 24192.791016 71127.179688 -296.984009
v 24521.980469 70835.382812 -304.221710
v 24193.941406 70815.140625 -296.260681
v 24528.080078 70529.078125 -303.590485
v 24193.269531 70502.976562 -295.691803
v 24532.730469 70224.179688 -303.090698
v 24190.781250 70190.664062 -295.279602
v 24534.789062 69920.367188 -302.641022
v 24186.250000 69878.164062 -294.986115
v 24533.990234 69617.390625 -302.204498
v 24243.330078 69563.796875 -291.773621
v 24211.390625 69564.632812 -293.893921
v 24195.429688 69565.023438 -294.773590
v 24179.460938 69565.445312 -294.773590
v -33061.347656 22477.250000 -525.253174
v -33263.160156 22364.619141 -521.800598
v -33085.281250 22336.169922 -525.072510
v -33187.312500 22785.968750 -523.270813
v -33006.367188 22785.968750 -525.537598
v -33129.980469 23094.541016 -523.469666
v -32949.039062 23094.541016 -525.736511
v -33070.640625 23402.388672 -523.607605
v -32889.699219 23402.388672 -525.874390
v -33009.632812 23708.980469 -523.709412
v -32828.679688 23708.980469 -525.976196
v -32947.281250 24013.740234 -523.799622
v -32766.339844 24013.740234 -526.066406
v -32883.699219 24317.320312 -523.848511
v -32702.757812 24317.320312 -526.115295
v -32818.992188 24620.359375 -523.826233
v -32638.048828 24620.359375 -526.093018
v -32753.250000 24923.480469 -523.702881
v -32572.310547 24923.480469 -525.969727
v -32692.160156 25227.339844 -523.448792
v -32505.648438 25227.339844 -525.715576
v -32626.998047 25531.900391 -523.078796
v -32437.230469 25531.900391 -525.345581
v -32559.439453 25837.162109 -522.607422
v -32366.220703 25837.162109 -524.874207
v -32492.279297 26143.099609 -522.049500
v -32345.138672 26478.570312 -523.686584
v -32360.580078 26482.669922 -520.686584
v -32415.257812 26490.851562 -520.686584
v -2848.829102 70932.789062 -480.483490
v -3047.875000 70682.156250 -471.323792
v -3245.719971 70437.203125 -462.222290
v -3442.998779 70196.078125 -453.112305
v -3639.855957 69957.453125 -443.926910
v -4032.934082 69482.843750 -425.062988
v -4425.846191 69008.085938 -405.607239
v -4818.698242 68533.164062 -386.046112
v -5211.536133 68058.140625 -366.795990
v -5604.400879 67583.039062 -348.202789
v -5997.334961 67107.921875 -330.617310
v -6193.841309 66870.343750 -322.313599
v -6586.953613 66395.203125 -306.923889
v -6783.573730 66157.617188 -299.960388
v -6849.698730 66027.976562 -299.763397
vt -69.627663 46.363991
vt 0.999656 1.979067
vt -9.662721 1.473399
vt 0.009358 1.000024
vt 0.999976 1.056200
vt 0.000024 1.056166
vt -9.483490 5.921708
vt -10.692910 6.429837
vt -10.703210 6.406933
vt -11.932970 6.923682
vt -11.922660 6.946549
vt -8.287704 5.419257
vt -9.493813 5.898811
vt -8.298075 5.396414
vt -7.101759 4.920994
vt -7.112131 4.898117
vt -4.752756 3.906811
vt -4.742319 3.929627
vt -2.383208 2.938426
vt -2.393273 2.915435
vt -0.040485 1.926882
vt -0.030401 1.949865
vt 2.322637 0.961197
vt 2.312569 0.938207
vt 4.677725 -0.028314
vt 4.667678 -0.051314
vt 7.037685 -1.019865
vt 7.027670 -1.042895
vt 8.219928 -1.516626
vt 8.209910 -1.539640
vt 10.587730 -2.511482
vt 10.577730 -2.534502
vt 11.772750 -3.009390
vt 11.762750 -3.032413
vt 12.321640 -3.240015
vt -10.994150 5.761752
vt -12.223570 6.278310
vt -10.703220 6.406955
vt -9.785291 5.253836
vt -8.590226 4.751714
vt -7.404956 4.253708
vt -5.046783 3.262891
vt -2.677273 2.267310
vt -0.324801 1.278889
vt 2.028535 0.290105
vt 4.384208 -0.699661
vt 6.744837 -1.691510
vt 7.927339 -2.188354
vt 10.295590 -3.183403
vt 11.480700 -3.681345
vt 12.029680 -3.912003
vt 12.311640 -3.263031
vt -18.686291 13.689130
vt -11.421900 7.269356
vt -16.812510 12.494540
vt -14.939600 11.297880
vt -13.068640 10.095650
vt -12.133380 9.492937
vt -11.196910 8.890344
vt -10.258100 8.288324
vt -9.316191 7.687683
vt -8.371721 7.088783
vt -7.424755 6.492210
vt -4.140630 0.835833
vt -6.475531 5.898803
vt -5.523303 5.308606
vt -4.568024 4.722012
vt -3.609514 4.139288
vt -2.647539 3.560657
vt -3.059678 0.519342
vt -1.681912 2.986367
vt -1.978217 0.192761
vt -0.712463 2.416616
vt -0.896923 -0.146409
vt 0.260908 1.851625
vt 0.183737 -0.500834
vt 1.238495 1.291455
vt 1.263153 -0.873127
vt 2.220366 0.736273
vt 2.340948 -1.265968
vt 3.206718 0.186154
vt 3.415025 -1.679413
vt 4.197752 -0.358826
vt 4.483363 -2.113544
vt 5.193727 -0.898649
vt 5.543919 -2.568552
vt 6.194820 -1.433278
vt 6.594586 -3.044535
vt 7.201113 -1.962758
vt 7.635902 -3.537152
vt 8.212594 -2.487098
vt 8.668209 -4.041927
vt 9.229186 -3.006214
vt 9.691673 -4.554229
vt 10.250580 -3.519889
vt 10.706420 -5.069686
vt 11.276760 -4.028141
vt 11.714990 -5.584949
vt 12.307670 -4.530920
vt 12.719900 -6.096683
vt 13.343300 -5.028389
vt 13.723550 -6.601492
vt 14.383310 -5.520572
vt 14.728310 -7.095959
vt 15.427820 -6.006670
vt 15.735310 -7.579570
vt 16.380159 -6.700228
vt 0.000044 1.000044
vt 0.999956 1.000054
vt 0.979498 1.098131
vt 0.969259 1.147155
vt 0.959040 1.196074
vt 5.161314 0.779872
vt 5.488889 0.766153
vt 5.510052 1.178531
vt 4.529385 1.209500
vt 4.443166 0.803802
vt 3.810087 1.227973
vt 3.724040 0.822029
vt 3.090916 1.241229
vt 3.005104 0.834905
vt 2.373081 1.249583
vt 2.287544 0.842759
vt 1.657890 1.253436
vt 1.572648 0.846036
vt 0.943852 1.253267
vt 0.858899 0.845221
vt 0.229551 1.249590
vt 0.144844 0.840917
vt -0.486378 1.243050
vt -0.570910 0.833758
vt -1.205307 1.234288
vt -1.289768 0.824448
vt -1.927480 1.221574
vt -2.011906 0.811326
vt -2.652966 1.203066
vt -2.737329 0.792544
vt -3.381964 1.176872
vt -3.466253 0.766160
vt -4.202913 1.043439
vt -4.200810 1.006500
vt -4.205132 1.081025
vt -4.209326 1.154932
vt -10.692920 6.429859
vt -11.825760 7.161744
vt -10.595920 6.645010
vt -9.386290 6.136769
vt -8.190295 5.634256
vt -7.004110 5.135866
vt -4.644278 4.144352
vt -2.288511 3.154546
vt 0.064404 2.165938
vt 2.417342 1.177321
vt 4.772246 0.187878
vt 7.132010 -0.803607
vt 8.314145 -1.300297
vt 10.681810 -2.295102
vt 11.866800 -2.792991
vt 12.415670 -3.023604
vt 11.772760 -3.009401
vn -0.0063 0.0009 -1.0000
vn 0.0005 0.0020 -1.0000
vn -0.0094 0.0022 -1.0000
vn 0.1977 0.2873 -0.9372
vn -0.7445 0.6115 0.2680
vn -0.7471 0.6077 0.2694
vn -0.7464 0.6086 0.2691
vn -0.7490 0.6047 0.2709
vn -0.6643 0.5247 -0.5323
vn -0.6802 0.5377 -0.4981
vn -0.6650 0.5253 -0.5309
vn -0.5814 0.4522 -0.6764
vn -0.5850 0.4554 -0.6711
vn -0.4749 0.3602 -0.8029
vn -0.4730 0.3586 -0.8048
vn -0.4737 0.3600 -0.8038
vn -0.4763 0.3622 -0.8012
vn -0.5548 0.4309 -0.7117
vn -0.6017 0.4727 -0.6438
vn -0.6818 0.5459 -0.4869
vn -0.7312 0.5930 -0.3373
vn -0.7607 0.6235 -0.1805
vn -0.7704 0.6362 -0.0416
vn -0.7704 0.6375 0.0072
vn -0.7709 0.6369 -0.0077
vn -0.7681 0.6314 -0.1066
vn -0.7708 0.6351 -0.0506
vn -0.7595 0.6213 -0.1929
vn -0.7403 0.6019 -0.2995
vn -0.7136 0.5814 -0.3908
vn -0.7000 0.5729 -0.4264
vn -0.6818 0.5613 -0.4692
vn -0.0233 -0.0219 -0.9995
vn -0.0174 -0.0227 -0.9996
vn -0.0235 -0.0218 -0.9995
vn -0.0260 -0.0164 -0.9995
vn -0.0260 -0.0163 -0.9995
vn -0.0203 -0.0175 -0.9996
vn -0.0203 -0.0176 -0.9996
vn -0.0185 -0.0238 -0.9995
vn -0.0190 -0.0245 -0.9995
vn -0.0196 -0.0247 -0.9995
vn -0.0197 -0.0247 -0.9995
vn -0.0201 -0.0243 -0.9995
vn -0.0190 -0.0240 -0.9995
vn -0.0186 -0.0242 -0.9995
vn -0.0177 -0.0234 -0.9996
vn -0.0171 -0.0221 -0.9996
vn -0.0169 -0.0221 -0.9996
vn -0.0165 -0.0203 -0.9997
vn -0.0167 -0.0203 -0.9997
vn -0.0144 -0.0188 -0.9997
vn -0.0147 -0.0186 -0.9997
vn -0.0164 -0.0183 -0.9997
vn -0.0165 -0.0184 -0.9997
vn -0.0189 -0.0187 -0.9996
vn 0.0103 0.0024 -0.9999
vn -0.0004 -0.0026 -1.0000
vn 0.0101 0.0023 -0.9999
vn 0.0059 0.0009 -1.0000
vn 0.0023 -0.0007 -1.0000
vn 0.0007 -0.0018 -1.0000
vn 0.0000 -0.0026 -1.0000
vn 0.0000 -0.0034 -1.0000
vn 0.0006 -0.0040 -1.0000
vn 0.0016 -0.0045 -1.0000
vn -0.0066 -0.0032 -1.0000
vn -0.0135 -0.0053 -0.9999
vn -0.0131 -0.0066 -0.9999
vn -0.0135 -0.0069 -0.9999
vn -0.0137 -0.0072 -0.9999
vn -0.0138 -0.0074 -0.9999
vn -0.0144 -0.0060 -0.9999
vn -0.0160 -0.0046 -0.9999
vn -0.0162 -0.0047 -0.9999
vn -0.0184 -0.0049 -0.9998
vn -0.0185 -0.0049 -0.9998
vn -0.0208 -0.0051 -0.9998
vn -0.0210 -0.0051 -0.9998
vn -0.0233 -0.0053 -0.9997
vn -0.0235 -0.0054 -0.9997
vn -0.0256 -0.0057 -0.9997
vn -0.0257 -0.0056 -0.9997
vn -0.0274 -0.0056 -0.9996
vn -0.0277 -0.0059 -0.9996
vn -0.0289 -0.0057 -0.9996
vn -0.0292 -0.0061 -0.9996
vn -0.0300 -0.0060 -0.9995
vn -0.0303 -0.0064 -0.9995
vn -0.0303 -0.0061 -0.9995
vn -0.0302 -0.0060 -0.9995
vn -0.0298 -0.0058 -0.9995
vn -0.0295 -0.0056 -0.9995
vn -0.0287 -0.0054 -0.9996
vn -0.0283 -0.0050 -0.9996
vn -0.0274 -0.0049 -0.9996
vn -0.0272 -0.0047 -0.9996
vn -0.0260 -0.0040 -0.9997
vn -0.0259 -0.0040 -0.9997
vn -0.0251 -0.0034 -0.9997
vn -0.0250 -0.0033 -0.9997
vn -0.0243 -0.0027 -0.9997
vn -0.0239 -0.0023 -0.9997
vn -0.0236 -0.0021 -0.9997
vn -0.0232 -0.0016 -0.9997
vn -0.0226 -0.0012 -0.9997
vn -0.0225 -0.0011 -0.9997
vn -0.0244 -0.0045 -0.9997
vn -0.0201 -0.0044 -0.9998
vn -0.0270 -0.0083 -0.9996
vn 0.0164 -0.0036 -0.9999
vn 0.0610 0.0014 -0.9981
vn 0.0285 0.0002 -0.9996
vn -0.0000 -0.0007 -1.0000
vn -0.0164 0.0005 -0.9999
vn -0.0181 0.0018 -0.9998
vn -0.0174 0.0005 -0.9998
vn -0.0133 0.0012 -0.9999
vn -0.0125 0.0015 -0.9999
vn -0.0125 0.0018 -0.9999
vn -0.0125 0.0021 -0.9999
vn -0.0125 0.0022 -0.9999
vn -0.0125 0.0024 -0.9999
vn -0.0125 0.0026 -0.9999
vn -0.0125 0.0029 -0.9999
vn -0.0125 0.0030 -0.9999
vn -0.0125 0.0032 -0.9999
vn -0.0125 0.0033 -0.9999
vn -0.0122 0.0036 -0.9999
vn -0.0121 0.0037 -0.9999
vn -0.0120 0.0040 -0.9999
vn -0.0119 0.0041 -0.9999
vn -0.0118 0.0043 -0.9999
vn -0.0116 0.0044 -0.9999
vn -0.0131 0.0038 -0.9999
vn -0.0838 0.0321 -0.9960
vn -0.0956 0.0411 -0.9946
vn 0.0006 0.0038 -1.0000
vn -0.0176 -0.0227 -0.9996
vn -0.0175 -0.0226 -0.9996
vn -0.0178 -0.0230 -0.9996
vn -0.0181 -0.0233 -0.9996
vn -0.0191 -0.0245 -0.9995
vn -0.0198 -0.0247 -0.9995
vn -0.0197 -0.0246 -0.9995
vn -0.0192 -0.0239 -0.9995
vn -0.0184 -0.0229 -0.9996
vn -0.0183 -0.0229 -0.9996
vn -0.0173 -0.0216 -0.9996
vn -0.0162 -0.0202 -0.9997
vn -0.0149 -0.0186 -0.9997
vn -0.0149 -0.0185 -0.9997
vn -0.0061 -0.0111 -0.9999
vn -0.0065 -0.0115 -0.9999
vn 0.0021 -0.0046 -1.0000
usemtl RunoffredMat
s 1
f 1/1/1 3/2/2 2/3/3
f 4/4/4 6/5/4 5/6/4
f 7/7/5 9/8/6 8/9/7
f 5/10/8 8/9/7 9/8/6
f 9/8/6 4/11/8 5/10/8
f 10/12/9 7/13/10 11/14/11
f 12/15/12 10/12/9 11/14/11
f 11/14/11 13/16/13 12/15/12
f 14/17/14 12/15/12 13/16/13
f 12/15/12 14/17/14 15/18/15
f 14/17/14 16/19/16 15/18/15
f 16/19/16 14/17/14 17/20/17
f 17/20/17 18/21/18 16/19/16
f 19/22/19 16/19/16 18/21/18
f 18/21/18 20/23/20 19/22/19
f 20/23/20 18/21/18 21/24/21
f 22/25/22 20/23/20 21/24/21
f 21/24/21 23/26/23 22/25/22
f 24/27/24 22/25/22 23/26/23
f 23/26/23 25/28/25 24/27/24
f 26/29/26 24/27/24 25/28/25
f 26/29/26 25/28/25 27/30/27
f 27/30/27 28/31/28 26/29/26
f 28/31/28 27/30/27 29/32/29
f 30/33/30 28/31/28 29/32/29
f 29/32/29 31/34/31 30/33/30
f 32/35/32 30/33/30 31/34/31
f 33/36/33 5/10/34 6/37/34
f 5/10/34 33/36/33 8/38/35
f 34/39/36 8/38/35 33/36/33
f 8/38/35 34/39/36 7/13/37
f 35/40/38 7/13/37 34/39/36
f 7/13/37 35/40/38 11/14/39
f 36/41/40 11/14/39 35/40/38
f 11/14/39 36/41/40 13/16/40
f 37/42/41 13/16/40 36/41/40
f 13/16/40 37/42/41 14/17/41
f 38/43/42 14/17/41 37/42/41
f 14/17/41 38/43/42 17/20/43
f 38/43/42 39/44/44 17/20/43
f 18/21/44 17/20/43 39/44/44
f 39/44/44 40/45/45 18/21/44
f 21/24/46 18/21/44 40/45/45
f 41/46/47 21/24/46 40/45/45
f 21/24/46 41/46/47 23/26/47
f 42/47/48 23/26/47 41/46/47
f 23/26/47 42/47/48 25/28/49
f 43/48/50 25/28/49 42/47/48
f 25/28/49 43/48/50 27/30/51
f 43/48/50 44/49/52 27/30/51
f 29/32/53 27/30/51 44/49/52
f 45/50/54 29/32/53 44/49/52
f 29/32/53 45/50/54 31/34/55
f 46/51/56 31/34/55 45/50/54
f 31/34/55 46/51/56 32/52/56
f 47/53/57 49/54/58 48/55/59
f 48/55/59 49/54/58 50/56/60
f 51/57/61 50/56/60 49/54/58
f 49/54/58 52/58/62 51/57/61
f 49/54/58 53/59/63 52/58/62
f 53/59/63 49/54/58 54/60/64
f 54/60/64 49/54/58 55/61/65
f 55/61/65 49/54/58 56/62/66
f 57/63/67 56/62/66 49/54/58
f 58/64/68 57/63/67 49/54/58
f 59/65/69 57/63/67 58/64/68
f 60/66/70 59/65/69 58/64/68
f 60/66/70 58/64/68 61/67/71
f 61/67/71 58/64/68 62/68/72
f 62/68/72 58/64/68 63/69/73
f 64/70/74 63/69/73 58/64/68
f 63/69/73 64/70/74 65/71/75
f 66/72/76 65/71/75 64/70/74
f 65/71/75 66/72/76 67/73/77
f 68/74/78 67/73/77 66/72/76
f 67/73/77 68/74/78 69/75/79
f 70/76/80 69/75/79 68/74/78
f 69/75/79 70/76/80 71/77/81
f 72/78/82 71/77/81 70/76/80
f 71/77/81 72/78/82 73/79/83
f 74/80/84 73/79/83 72/78/82
f 73/79/83 74/80/84 75/81/85
f 76/82/86 75/81/85 74/80/84
f 75/81/85 76/82/86 77/83/87
f 78/84/88 77/83/87 76/82/86
f 77/83/87 78/84/88 79/85/89
f 80/86/90 79/85/89 78/84/88
f 79/85/89 80/86/90 81/87/91
f 82/88/92 81/87/91 80/86/90
f 81/87/91 82/88/92 83/89/93
f 84/90/94 83/89/93 82/88/92
f 83/89/93 84/90/94 85/91/95
f 86/92/96 85/91/95 84/90/94
f 85/91/95 86/92/96 87/93/97
f 88/94/98 87/93/97 86/92/96
f 87/93/97 88/94/98 89/95/99
f 90/96/100 89/95/99 88/94/98
f 89/95/99 90/96/100 91/97/101
f 92/98/102 91/97/101 90/96/100
f 91/97/101 92/98/102 93/99/103
f 94/100/104 93/99/103 92/98/102
f 94/100/104 95/101/105 93/99/103
f 96/102/106 95/101/105 94/100/104
f 97/103/107 95/101/105 96/102/106
f 98/104/108 97/103/107 96/102/106
f 97/103/107 98/104/108 99/105/109
f 100/106/110 99/105/109 98/104/108
f 99/105/109 100/106/110 101/107/111
f 99/108/109 101/109/111 102/110/112
f 99/108/109 102/110/112 103/111/113
f 104/112/114 99/108/109 103/111/113
f 105/113/115 107/114/116 106/115/117
f 105/113/115 106/115/117 108/116/118
f 109/117/119 105/113/115 108/116/118
f 110/118/120 109/117/119 108/116/118
f 109/117/119 110/118/120 111/119/120
f 112/120/121 111/119/120 110/118/120
f 111/119/120 112/120/121 113/121/121
f 114/122/122 113/121/121 112/120/121
f 113/121/121 114/122/122 115/123/122
f 116/124/123 115/123/122 114/122/122
f 115/123/122 116/124/123 117/125/123
f 118/126/124 117/125/123 116/124/123
f 117/125/123 118/126/124 119/127/124
f 120/128/125 119/127/124 118/126/124
f 119/127/124 120/128/125 121/129/126
f 122/130/127 121/129/126 120/128/125
f 121/129/126 122/130/127 123/131/128
f 124/132/129 123/131/128 122/130/127
f 123/131/128 124/132/129 125/133/130
f 126/134/131 125/133/130 124/132/129
f 125/133/130 126/134/131 127/135/132
f 128/136/133 127/135/132 126/134/131
f 127/135/132 128/136/133 129/137/134
f 130/138/135 129/137/134 128/136/133
f 129/137/134 130/138/135 2/139/3
f 130/138/135 131/140/136 2/139/3
f 2/139/3 131/140/136 1/141/1
f 131/140/136 130/138/135 132/142/137
f 130/138/135 133/143/138 132/142/137
f 9/144/139 134/145/140 4/11/140
f 134/145/140 9/144/139 135/146/139
f 7/7/141 135/146/139 9/144/139
f 135/146/139 7/7/141 136/147/141
f 10/12/142 136/147/141 7/7/141
f 136/147/141 10/12/142 137/148/142
f 12/15/40 137/148/142 10/12/142
f 137/148/142 12/15/40 138/149/40
f 15/18/41 138/149/40 12/15/40
f 138/149/40 15/18/41 139/150/143
f 16/19/144 139/150/143 15/18/41
f 139/150/143 16/19/144 140/151/144
f 16/19/144 19/22/145 140/151/144
f 141/152/145 140/151/144 19/22/145
f 19/22/145 20/23/146 141/152/145
f 142/153/146 141/152/145 20/23/146
f 22/25/147 142/153/146 20/23/146
f 142/153/146 22/25/147 143/154/148
f 24/27/149 143/154/148 22/25/147
f 143/154/148 24/27/149 144/155/149
f 26/29/150 144/155/149 24/27/149
f 144/155/149 26/29/150 145/156/150
f 26/29/150 28/31/151 145/156/150
f 146/157/152 145/156/150 28/31/151
f 30/33/153 146/157/152 28/31/151
f 146/157/152 30/33/153 147/158/154
f 148/159/155 147/158/154 30/160/153
f 148/159/155 30/160/153 32/35/155
