# Blender v3.1.2 OBJ File: 'car.blend'
# www.blender.org
mtllib Mesh_170.001.mtl
o Mesh_170_Mesh_170.001
v -0.890104 0.838788 -4.410912
v -0.890473 0.821129 -4.390697
v -0.890539 0.818017 -4.393034
v -0.890065 0.840650 -4.409121
v -0.889823 0.852160 -4.419057
v -0.889779 0.854294 -4.418728
v -0.889781 0.854199 -4.416933
v -0.890024 0.842573 -4.407337
v -0.890408 0.824277 -4.388340
v -0.990458 0.860769 -4.419707
v -0.934211 0.855161 -4.419823
v -0.990763 0.857568 -4.419812
v -0.934013 0.858427 -4.419973
v -1.088453 0.864808 -4.419366
v -1.088895 0.861687 -4.419795
v -0.990660 0.859251 -4.416929
v -1.088453 0.864808 -4.419366
v -1.088674 0.863073 -4.416441
v -0.990458 0.860769 -4.419707
v -0.934201 0.857078 -4.417316
v -0.934013 0.858427 -4.419973
v -0.907678 0.766607 -4.320926
v -0.939914 0.767330 -4.318859
v -0.940389 0.765773 -4.327641
v -0.907725 0.764860 -4.329257
v -0.891530 0.770685 -4.327694
v -0.891601 0.767306 -4.332669
v -0.907199 0.777238 -4.324435
v -0.891530 0.770685 -4.327694
v -0.891366 0.778506 -4.328448
v -0.907678 0.766607 -4.320926
v -0.938951 0.777798 -4.322284
v -0.939914 0.767330 -4.318859
v -0.940389 0.765773 -4.327641
v -0.957962 0.793667 -4.362963
v -0.939029 0.791618 -4.362882
v -0.999095 0.767415 -4.324736
v -1.097584 0.797332 -4.363066
v -1.099951 0.770566 -4.321058
v -1.094368 0.825764 -4.399859
v -0.955580 0.819171 -4.397212
v -0.937536 0.801847 -4.354394
v -0.905862 0.801344 -4.356258
v -0.890910 0.800273 -4.357525
v -0.935046 0.844146 -4.405868
v -0.903510 0.843282 -4.406670
v -0.934201 0.857078 -4.417316
v -0.902786 0.855870 -4.417530
v -0.904529 0.825086 -4.387302
v -0.936170 0.825671 -4.385893
v -0.890408 0.824277 -4.388340
v -0.890024 0.842573 -4.407337
v -0.889781 0.854199 -4.416933
v -0.935619 0.840417 -4.412523
v -0.992638 0.842859 -4.414135
v -0.937304 0.819372 -4.395123
v -1.091358 0.847022 -4.416178
v -0.891010 0.795514 -4.360023
v -0.891601 0.767306 -4.332669
v -0.891109 0.790775 -4.362402
v -0.891530 0.770685 -4.327694
v -0.891366 0.778506 -4.328448
v -0.890910 0.800273 -4.357525
v -0.903894 0.839059 -4.411624
v -0.889823 0.852160 -4.419057
v -0.890104 0.838788 -4.410912
v -0.902747 0.853820 -4.419830
v -0.890539 0.818017 -4.393034
v -0.905252 0.818063 -4.393959
v -1.090016 0.848738 -4.402600
v -0.991724 0.845699 -4.404426
v -1.088674 0.863073 -4.416441
v -0.990660 0.859251 -4.416929
v -1.091565 0.829120 -4.380144
v -0.953709 0.824171 -4.383357
v -0.955135 0.802751 -4.351041
v -1.093065 0.804968 -4.346795
v -0.996014 0.778807 -4.318416
v -1.094790 0.781155 -4.313519
v -0.891601 0.767306 -4.332669
v -0.906610 0.790478 -4.362837
v -0.891109 0.790775 -4.362402
v -0.907725 0.764860 -4.329257
v -1.097728 0.771348 -4.310451
v -0.999095 0.767415 -4.324736
v -0.997847 0.768631 -4.315148
v -1.099951 0.770566 -4.321058
v -0.997847 0.768631 -4.315148
v -1.097728 0.771348 -4.310451
v -0.889779 0.854294 -4.418728
v -0.902605 0.857125 -4.420122
v -0.902786 0.855870 -4.417530
v -0.902605 0.857125 -4.420122
v -0.889781 0.854199 -4.416933
v -0.889779 0.854294 -4.418728
v -0.906610 0.790478 -4.362837
v -0.905862 0.801344 -4.356258
v -0.891109 0.790775 -4.362402
v -0.890910 0.800273 -4.357525
v -0.904529 0.825086 -4.387302
v -0.890539 0.818017 -4.393034
v -0.890408 0.824277 -4.388340
v -0.905252 0.818063 -4.393959
v -0.906610 0.790478 -4.362837
v -0.939029 0.791618 -4.362882
v -0.937536 0.801847 -4.354394
v -0.905862 0.801344 -4.356258
v -0.955135 0.802751 -4.351041
v -0.957962 0.793667 -4.362963
v -0.957962 0.793667 -4.362963
v -0.955580 0.819171 -4.397212
v -0.953709 0.824171 -4.383357
v -0.955135 0.802751 -4.351041
v -0.953709 0.824171 -4.383357
v -0.937304 0.819372 -4.395123
v -0.936170 0.825671 -4.385893
v -0.955580 0.819171 -4.397212
v -0.936170 0.825671 -4.385893
v -0.905252 0.818063 -4.393959
v -0.904529 0.825086 -4.387302
v -0.937304 0.819372 -4.395123
vt -13.794350 -80.438110
vt -11.798890 -80.188881
vt -11.741469 -80.474777
vt -13.809199 -80.245140
vt -14.948250 -80.226425
vt -15.051149 -80.101585
vt -14.956300 -80.006027
vt -13.827680 -80.049484
vt -11.857389 -79.900116
vt 55.546600 -41.196487
vt 52.621109 -40.868389
vt 55.458340 -40.809071
vt 52.494507 -41.300800
vt 52.910717 -41.717178
vt 55.628887 -41.590618
vt 77.741989 -36.866768
vt 77.780945 -36.051769
vt 78.902458 -36.820198
vt 78.902458 -36.108578
vt -42.326469 -84.201736
vt -43.385361 -84.709221
vt -43.385361 -84.240181
vt -42.283318 -84.728851
vt -20.162540 -38.201500
vt -23.362110 -38.111031
vt -22.729939 -37.205418
vt -19.825640 -37.127708
vt -6.992146 -50.083168
vt -2.770691 -50.414959
vt -7.009969 -50.323418
vt -2.760967 -50.169998
vt -14.337850 -49.934399
vt -14.366010 -50.168827
vt 12.746000 27.084059
vt 20.078960 27.266659
vt 20.092760 27.047529
vt 12.733270 27.292149
vt 8.514066 27.113039
vt 8.502082 27.312099
vt 34.200359 -71.134880
vt 36.620041 -71.074860
vt 36.627331 -71.733521
vt 34.176651 -71.758560
vt 32.978390 -71.594345
vt 32.963760 -71.966759
vt -35.043171 -73.028870
vt -36.227001 -73.495049
vt -36.227001 -72.909035
vt -35.023979 -73.825851
vt -32.664261 -73.036781
vt -32.608521 -73.822266
vt -3.093117 -57.119427
vt -4.453050 -55.057808
vt -3.031836 -55.181599
vt -7.492538 -57.088528
vt -14.915859 -55.002430
vt -15.051149 -57.010799
vt -14.719609 -52.867958
vt -4.314656 -53.143959
vt -32.732441 -71.233345
vt -35.105488 -71.221336
vt -36.227001 -71.278122
vt -32.852570 -68.061470
vt -35.215889 -68.076691
vt -32.895580 -67.091576
vt -35.250359 -67.132751
vt -35.168098 -69.441078
vt -32.797428 -69.446892
vt -36.227001 -69.479500
vt -36.227001 -68.108665
vt -36.227001 -67.237518
vt -2.852966 -51.521427
vt -7.127275 -51.427967
vt -2.946151 -53.100277
vt -14.527519 -51.271088
vt -0.474791 -51.573387
vt 0.558472 -50.570049
vt 0.558472 -51.572010
vt -0.412020 -50.466049
vt 0.558472 -53.128338
vt -0.543563 -53.147968
vt -21.238840 -67.960617
vt -28.605228 -68.034019
vt -21.316889 -66.884941
vt -28.663649 -67.017410
vt -21.153580 -69.432411
vt -31.486158 -69.586792
vt -31.412949 -71.193245
vt -21.079140 -71.243576
vt -28.388889 -73.050705
vt -20.987289 -73.029846
vt 0.558479 -56.928047
vt -0.601984 -55.216110
vt 0.558479 -55.169559
vt -0.645286 -57.136547
vt 48.461529 -70.909081
vt 41.031891 -71.688545
vt 40.968590 -70.967239
vt 48.595497 -71.709579
vt -28.267540 -73.815697
vt -20.782639 -73.768921
vt 0.558472 -50.410160
vt -0.406632 -50.218269
vt 6.159293 27.129068
vt 6.147754 27.323269
vt 5.182643 27.084370
vt 5.182643 27.218830
vt 77.741989 -36.866768
vt 75.312149 -36.832249
vt 75.407890 -36.063778
vt 77.780945 -36.051769
vt 74.088402 -36.023701
vt 73.890938 -36.708458
vt 82.211006 82.858940
vt 83.540779 83.591621
vt 83.535461 82.896194
vt 82.199532 83.905220
vt -39.955811 -84.207550
vt -42.283318 -84.728851
vt -42.326469 -84.201736
vt -39.880749 -84.681137
vn 0.9998 -0.0209 -0.0000
vn 0.9998 -0.0210 0.0000
vn 0.0141 0.5172 -0.8558
vn -0.0425 0.4571 -0.8884
vn 0.0244 -0.6001 0.7996
vn -0.0479 -0.6846 0.7274
vn 0.9811 -0.1816 -0.0670
vn 0.9775 -0.1930 -0.0848
vn -0.0005 0.0315 -0.9995
vn -0.0074 -0.2525 -0.9676
vn -0.0024 -0.1703 -0.9854
vn -0.0046 -0.0469 -0.9989
vn 0.0054 0.1335 -0.9910
vn 0.0067 -0.0733 -0.9973
vn 0.0374 0.8755 0.4817
vn 0.0360 0.8586 0.5113
vn 0.0360 0.8583 0.5119
vn 0.0374 0.8760 0.4809
vn 0.0382 0.8896 0.4551
vn 0.0382 0.8901 0.4541
vn 0.1294 -0.9712 0.2000
vn -0.0109 -0.9845 0.1751
vn -0.0119 -0.9845 0.1752
vn 0.1560 -0.9578 0.2414
vn 0.2624 -0.8513 0.4543
vn 0.2372 -0.8052 0.5436
vn 0.1396 0.5477 0.8249
vn 0.2637 0.1572 0.9517
vn 0.1718 0.5251 0.8335
vn 0.1720 0.3011 0.9380
vn 0.0724 0.5708 0.8179
vn 0.0687 0.3039 0.9502
vn -0.0561 -0.8009 -0.5961
vn -0.0450 -0.8019 -0.5958
vn -0.0611 -0.8005 -0.5962
vn -0.0329 -0.8135 -0.5807
vn -0.0299 -0.8133 -0.5811
vn -0.0459 -0.8413 -0.5386
vn -0.0160 -0.7078 -0.7062
vn 0.0085 -0.6751 -0.7376
vn 0.0989 0.7934 0.6006
vn 0.0767 0.7951 0.6017
vn 0.1075 0.7951 0.5969
vn 0.0367 0.6977 0.7155
vn 0.0524 0.6869 0.7248
vn 0.0328 0.6598 0.7507
vn 0.0393 0.6514 0.7577
vn 0.0651 0.7268 0.6838
vn 0.0394 0.7325 0.6797
vn 0.0858 0.7217 0.6869
vn 0.0719 0.6767 0.7328
vn 0.0586 0.6436 0.7631
vn 0.0062 -0.5330 -0.8461
vn -0.0060 -0.4781 -0.8783
vn 0.0482 -0.6387 -0.7679
vn -0.0002 -0.4446 -0.8957
vn 0.0071 -0.5706 -0.8212
vn 0.0437 -0.2095 -0.9768
vn 0.0301 -0.5896 -0.8071
vn 0.0139 -0.2809 -0.9596
vn 0.0401 -0.6472 -0.7613
vn 0.0218 -0.6430 -0.7656
vn 0.0352 0.7236 0.6893
vn 0.0372 0.7076 0.7056
vn 0.0343 0.6907 0.7224
vn 0.0331 0.6749 0.7372
vn 0.0349 0.7826 0.6216
vn 0.0397 0.7689 0.6381
vn 0.0732 0.7980 0.5982
vn 0.0379 0.8070 0.5893
vn 0.0532 0.5652 0.8232
vn 0.0536 0.5503 0.8332
vn 0.0007 -0.7929 -0.6094
vn -0.0023 -0.7911 -0.6116
vn 0.0324 -0.7848 -0.6189
vn -0.0267 -0.7981 -0.6020
vn -0.0278 -0.9962 0.0822
vn -0.0214 -0.9917 0.1268
vn -0.0207 -0.9912 0.1308
vn -0.0282 -0.9964 0.0794
vn 0.0603 0.2949 0.9536
vn 0.0528 0.2837 0.9575
vn 0.0799 0.1158 -0.9901
vn 0.0368 -0.0896 -0.9953
vn 0.0929 0.9006 0.4245
vn 0.0923 0.8937 0.4390
vn 0.1249 0.9908 0.0528
vn 0.1290 0.9862 0.1035
vn -0.0256 0.5502 -0.8347
vn -0.0006 0.6771 -0.7359
vn -0.0513 0.6285 -0.7761
vn -0.0420 0.5196 -0.8534
vn 0.0099 0.7352 -0.6778
vn 0.0873 0.7823 -0.6168
vn 0.0347 -0.9075 0.4186
vn 0.0739 -0.8831 0.4633
vn 0.1493 -0.8251 0.5448
vn -0.0289 -0.9390 0.3427
vn -0.0407 -0.8001 0.5985
vn 0.0040 -0.7197 0.6943
vn 0.0195 -0.6889 0.7246
vn -0.0541 -0.8216 0.5674
usemtl carbon.001
s off
f 1/1/1 2/2/1 3/3/1
f 2/2/1 1/1/1 4/4/1
f 5/5/2 4/4/2 1/1/2
f 4/4/1 5/5/1 6/6/1
f 7/7/1 4/4/1 6/6/1
f 4/4/2 7/7/2 8/8/2
f 4/4/2 9/9/2 2/2/2
f 9/9/2 4/4/2 8/8/2
f 58/10/2 59/11/2 60/12/2
f 59/11/1 58/10/1 61/13/1
f 58/10/1 62/14/1 61/13/1
f 62/14/1 58/10/1 63/15/1
f 96/16/3 97/17/3 98/18/3
f 98/18/4 97/17/4 99/19/4
f 100/20/5 101/21/5 102/22/5
f 101/21/6 100/20/6 103/23/6
f 110/24/7 111/25/7 112/26/7
f 112/26/8 113/27/8 110/24/8
s 1
f 10/28/9 11/29/10 12/30/11
f 11/29/10 10/28/9 13/31/12
f 14/32/13 12/30/11 15/33/14
f 12/30/11 14/32/13 10/28/9
f 16/34/15 17/35/16 18/36/17
f 17/35/16 16/34/15 19/37/18
f 20/38/19 19/37/18 16/34/15
f 19/37/18 20/38/19 21/39/20
f 22/40/21 23/41/22 24/42/23
f 22/40/21 24/42/23 25/43/24
f 26/44/25 22/40/21 25/43/24
f 26/44/25 25/43/24 27/45/26
f 28/46/27 29/47/28 30/48/29
f 29/47/28 28/46/27 31/49/30
f 32/50/31 31/49/30 28/46/27
f 31/49/30 32/50/31 33/51/32
f 34/52/33 35/53/34 36/54/35
f 35/53/34 34/52/33 37/55/36
f 38/56/37 37/55/36 39/57/38
f 37/55/36 38/56/37 35/53/34
f 35/53/34 40/58/39 41/59/40
f 40/58/39 35/53/34 38/56/37
f 28/46/27 42/60/41 32/50/31
f 42/60/41 28/46/27 43/61/42
f 30/48/29 43/61/42 28/46/27
f 43/61/42 30/48/29 44/62/43
f 45/63/44 46/64/45 47/65/46
f 48/66/47 47/65/46 46/64/45
f 49/67/48 45/63/44 50/68/49
f 45/63/44 49/67/48 46/64/45
f 51/69/50 46/64/45 49/67/48
f 46/64/45 51/69/50 52/70/51
f 53/71/52 46/64/45 52/70/51
f 46/64/45 53/71/52 48/66/47
f 54/72/53 12/30/11 11/29/10
f 12/30/11 54/72/53 55/73/54
f 41/59/40 54/72/53 56/74/55
f 55/73/54 54/72/53 41/59/40
f 41/59/40 40/58/39 55/73/54
f 55/73/54 40/58/39 57/75/56
f 55/73/54 15/33/14 12/30/11
f 15/33/14 55/73/54 57/75/56
f 64/76/57 65/77/58 66/78/59
f 65/77/58 64/76/57 67/79/60
f 68/80/61 64/76/57 66/78/59
f 64/76/57 68/80/61 69/81/62
f 69/81/62 54/72/53 64/76/57
f 54/72/53 69/81/62 56/74/55
f 64/76/57 11/29/10 67/79/60
f 11/29/10 64/76/57 54/72/53
f 70/82/63 71/83/64 72/84/65
f 73/85/66 72/84/65 71/83/64
f 74/86/67 71/83/64 70/82/63
f 71/83/64 74/86/67 75/87/68
f 45/63/44 75/87/68 50/68/49
f 75/87/68 45/63/44 71/83/64
f 71/83/64 45/63/44 73/85/66
f 47/65/46 73/85/66 45/63/44
f 76/88/69 74/86/67 77/89/70
f 74/86/67 76/88/69 75/87/68
f 78/90/71 77/89/70 79/91/72
f 77/89/70 78/90/71 76/88/69
f 78/90/71 32/50/31 76/88/69
f 76/88/69 32/50/31 42/60/41
f 80/92/73 81/93/74 82/94/75
f 81/93/74 80/92/73 83/95/76
f 83/95/76 36/54/35 81/93/74
f 36/54/35 83/95/76 34/52/33
f 84/96/77 85/97/78 86/98/79
f 85/97/78 84/96/77 87/99/80
f 86/98/79 24/42/23 23/41/22
f 24/42/23 86/98/79 85/97/78
f 78/90/71 33/51/32 32/50/31
f 33/51/32 78/90/71 88/100/81
f 79/91/72 88/100/81 78/90/71
f 88/100/81 79/91/72 89/101/82
f 67/79/60 90/102/83 65/77/58
f 90/102/83 67/79/60 91/103/84
f 13/31/12 67/79/60 11/29/10
f 67/79/60 13/31/12 91/103/84
f 92/104/85 21/39/20 20/38/19
f 21/39/20 92/104/85 93/105/86
f 92/104/85 94/106/87 95/107/88
f 92/104/85 95/107/88 93/105/86
f 104/108/89 105/109/90 106/110/91
f 104/108/89 106/110/91 107/111/92
f 105/109/90 108/112/93 106/110/91
f 108/112/93 105/109/90 109/113/94
f 114/114/95 115/115/96 116/116/97
f 115/115/96 114/114/95 117/117/98
f 118/118/99 119/119/100 120/120/101
f 119/119/100 118/118/99 121/121/102
