# Blender v3.1.2 OBJ File: 'car.blend'
# www.blender.org
mtllib Mesh_89.001.mtl
o Mesh_89_Mesh_89.001
v -0.443684 1.033366 0.345645
v -0.478262 1.035463 0.345645
v -0.469544 1.006088 0.345645
v -0.444895 1.013403 0.345645
v -0.462789 1.004470 0.345645
v -0.479473 1.015500 0.345645
v -0.467268 1.043606 0.345645
v -0.453613 1.042778 0.345645
v -0.475338 1.009918 0.345645
v -0.455888 1.005259 0.345645
v -0.449674 1.008362 0.345645
v -0.441708 1.026707 0.345645
v -0.442129 1.019774 0.345645
v -0.447819 1.038948 0.345645
v -0.460368 1.044396 0.345645
v -0.473483 1.040504 0.345645
v -0.481449 1.022159 0.345645
v -0.481028 1.029092 0.345645
v -0.452384 1.012021 0.339054
v -0.475398 1.017534 0.339054
v -0.472205 1.013223 0.339054
v -0.462514 1.009015 0.339054
v -0.467730 1.010265 0.339054
v -0.474463 1.032952 0.339054
v -0.447759 1.031332 0.339054
v -0.455427 1.038601 0.339054
v -0.457184 1.009625 0.339054
v -0.448694 1.015914 0.339054
v -0.446557 1.020835 0.339054
v -0.446232 1.026189 0.339054
v -0.450952 1.035643 0.339054
v -0.460643 1.039851 0.339054
v -0.470773 1.036845 0.339054
v -0.465973 1.039241 0.339054
v -0.476600 1.028031 0.339054
v -0.476924 1.022677 0.339054
vt 0.500000 0.000000
vt 0.066987 -0.750000
vt 0.821394 -0.883022
vt 0.933013 -0.250000
vt 0.933013 -0.750000
vt 0.500000 -1.000000
vt 0.007596 -0.413176
vt 0.178606 -0.116978
vt 0.671010 -0.969846
vt 0.992404 -0.586824
vt 0.992404 -0.413176
vt 0.671010 -0.030154
vt 0.821394 -0.116978
vt 0.328990 -0.030154
vt 0.066987 -0.250000
vt 0.007596 -0.586824
vt 0.328990 -0.969846
vt 0.178606 -0.883022
vt 0.992404 -0.413176
vt 0.500000 -1.000000
vt 0.671010 -0.969846
vt 0.933013 -0.750000
vt 0.821394 -0.883022
vt 0.066987 -0.750000
vt 0.500000 0.000000
vt 0.178606 -0.116978
vt 0.992404 -0.586824
vt 0.933013 -0.250000
vt 0.821394 -0.116978
vt 0.671010 -0.030154
vt 0.328990 -0.030154
vt 0.066987 -0.250000
vt 0.007596 -0.586824
vt 0.007596 -0.413176
vt 0.178606 -0.883022
vt 0.328990 -0.969846
vn -0.0000 0.0000 1.0000
vn -0.0001 0.0000 1.0000
usemtl cables_black.001
s off
f 1/1/1 2/2/1 3/3/1
f 4/4/1 3/3/1 5/5/1
f 2/2/1 6/6/1 3/3/1
f 7/7/1 1/1/1 8/8/1
f 3/3/1 6/6/1 9/9/1
f 4/4/1 5/5/1 10/10/1
f 4/4/1 10/10/1 11/11/1
f 4/4/1 1/1/1 3/3/1
f 12/12/1 4/4/1 13/13/1
f 1/1/1 4/4/1 12/12/1
f 8/8/1 1/1/1 14/14/1
f 7/7/1 8/8/1 15/15/1
f 2/2/1 1/1/1 7/7/1
f 2/2/1 7/7/1 16/16/1
f 17/17/2 2/2/2 18/18/2
f 6/6/1 2/2/1 17/17/1
f 19/19/1 20/20/1 21/21/1
f 22/22/1 21/21/1 23/23/1
f 24/24/1 19/19/1 25/25/1
f 26/26/1 24/24/1 25/25/1
f 20/20/1 19/19/1 24/24/1
f 27/27/1 21/21/1 22/22/1
f 19/19/1 21/21/1 27/27/1
f 28/28/1 25/25/1 19/19/1
f 25/25/1 28/28/1 29/29/1
f 25/25/1 29/29/1 30/30/1
f 26/26/1 25/25/1 31/31/1
f 32/32/1 24/24/1 26/26/1
f 33/33/1 32/32/1 34/34/1
f 24/24/1 32/32/1 33/33/1
f 20/20/1 24/24/1 35/35/1
f 20/20/1 35/35/1 36/36/1
