# Blender v3.1.2 OBJ File: 'car.blend'
# www.blender.org
mtllib Mesh_103.001.mtl
o Mesh_103_Mesh_103.001
v -0.166856 1.144599 0.915675
v -0.160728 1.144598 0.915675
v -0.160794 1.144599 0.915676
v -0.166907 1.144599 0.915676
v -0.166907 1.144599 0.915676
v -0.172980 1.144600 0.915676
v -0.166856 1.144599 0.915675
vt -0.083432 0.024250
vt -0.080368 0.024250
vt -0.080401 0.024250
vt -0.083457 0.024250
vt -0.083457 0.024250
vt -0.086494 0.024250
vt -0.083432 0.024250
vn -0.0000 -0.3481 0.9375
vn 0.0000 -0.9670 0.2549
vn -0.0002 -1.0000 0.0000
usemtl chrome.001
s off
f 1/1/1 2/2/1 3/3/1
f 3/3/2 4/4/2 1/1/2
f 5/5/3 6/6/3 7/7/3
