# Blender v3.1.2 OBJ File: 'car.blend'
# www.blender.org
mtllib Mesh_163.001.mtl
o Mesh_163_Mesh_163.001
v -1.139932 0.757731 -3.769306
v -1.082063 0.709548 -3.766214
v -1.081057 0.756497 -3.769306
v -1.140939 0.710781 -3.766214
v -1.138896 0.803879 -3.778474
v -1.080021 0.802646 -3.778474
v -1.137848 0.848427 -3.793614
v -1.078973 0.847193 -3.793614
v -1.136807 0.890628 -3.814417
v -1.077931 0.889395 -3.814417
v -1.135790 0.929738 -3.840574
v -1.076914 0.928505 -3.840574
v -1.134814 0.965117 -3.871594
v -1.075938 0.963884 -3.871594
v -1.133896 0.996125 -3.906985
v -1.075021 0.994891 -3.906985
v -1.133053 1.022269 -3.946108
v -1.074177 1.021036 -3.946108
v -1.133053 1.022269 -3.946108
v -1.074177 1.021036 -3.946108
v -1.132297 1.043061 -3.988322
v -1.073422 1.041828 -3.988322
v -1.131643 1.058191 -4.032882
v -1.072767 1.056958 -4.032882
v -1.131102 1.067350 -4.079042
v -1.072226 1.066117 -4.079042
v -1.130682 1.070433 -4.126002
v -1.071806 1.069200 -4.126002
v -1.130391 1.067335 -4.172962
v -1.071515 1.066102 -4.172962
v -1.130234 1.058161 -4.219122
v -1.071358 1.056928 -4.219122
v -1.130214 1.043018 -4.263681
v -1.071338 1.041784 -4.263681
v -1.130330 1.022212 -4.305896
v -1.071454 1.020979 -4.305896
v -1.130582 0.996055 -4.345018
v -1.071706 0.994822 -4.345018
v -1.130963 0.965036 -4.380410
v -1.072088 0.963803 -4.380410
v -1.131470 0.929648 -4.411430
v -1.072594 0.928415 -4.411430
v -1.132091 0.890529 -4.437587
v -1.073215 0.889296 -4.437587
v -1.132818 0.848321 -4.458390
v -1.073215 0.889296 -4.437587
v -1.073942 0.847088 -4.458390
v -1.132091 0.890529 -4.437587
v -1.133636 0.803769 -4.473530
v -1.074761 0.802535 -4.473530
v -1.134534 0.757617 -4.482698
v -1.075658 0.756384 -4.482698
v -1.135494 0.710667 -4.485789
v -1.076618 0.709434 -4.485789
v -1.077625 0.662485 -4.482698
v -1.136501 0.663718 -4.482698
v -1.078661 0.616337 -4.473530
v -1.137537 0.617570 -4.473530
v -1.079709 0.571789 -4.458390
v -1.138584 0.573022 -4.458390
v -1.080750 0.529587 -4.437587
v -1.139626 0.530821 -4.437587
v -1.081768 0.490477 -4.411430
v -1.139626 0.530821 -4.437587
v -1.080750 0.529587 -4.437587
v -1.140643 0.491711 -4.411430
v -1.082743 0.455098 -4.380410
v -1.141619 0.456332 -4.380410
v -1.083661 0.424091 -4.345018
v -1.142537 0.425324 -4.345019
v -1.084505 0.397946 -4.305896
v -1.143380 0.399179 -4.305896
v -1.085260 0.377154 -4.263681
v -1.144136 0.378387 -4.263681
v -1.085914 0.362025 -4.219122
v -1.144790 0.363258 -4.219122
v -1.086455 0.352866 -4.172962
v -1.145331 0.354099 -4.172962
v -1.086876 0.349782 -4.126002
v -1.145751 0.351016 -4.126002
v -1.087166 0.352880 -4.079042
v -1.146042 0.354114 -4.079042
v -1.087323 0.362054 -4.032882
v -1.146199 0.363287 -4.032882
v -1.087344 0.377198 -3.988322
v -1.146219 0.378431 -3.988322
v -1.087227 0.398003 -3.946108
v -1.146103 0.399236 -3.946108
v -1.086976 0.424160 -3.906985
v -1.146103 0.399236 -3.946108
v -1.087227 0.398003 -3.946108
v -1.145851 0.425393 -3.906985
v -1.086594 0.455179 -3.871594
v -1.145470 0.456412 -3.871594
v -1.086087 0.490568 -3.840574
v -1.144963 0.491801 -3.840574
v -1.085466 0.529686 -3.814417
v -1.144342 0.530919 -3.814417
v -1.084739 0.571894 -3.793614
v -1.143615 0.573127 -3.793614
v -1.083921 0.616447 -3.778474
v -1.142796 0.617680 -3.778474
v -1.083024 0.662598 -3.769306
v -1.141899 0.663831 -3.769306
v -1.081057 0.756497 -3.769306
v -1.073942 0.847088 -4.458390
v -1.076914 0.928505 -3.840574
v -1.077625 0.662485 -4.482698
v -1.081768 0.490477 -4.411430
v -1.087166 0.352880 -4.079042
v -1.086976 0.424160 -3.906985
v -1.087344 0.377198 -3.988322
v -1.084739 0.571894 -3.793614
v -1.085260 0.377154 -4.263681
v -1.071706 0.994822 -4.345018
v -1.072594 0.928415 -4.411430
v -1.073422 1.041828 -3.988322
v -1.083024 0.662598 -3.769306
v -1.082063 0.709548 -3.766214
v -1.083921 0.616446 -3.778474
v -1.086087 0.490568 -3.840574
v -1.085466 0.529686 -3.814417
v -1.086594 0.455179 -3.871594
v -1.087227 0.398003 -3.946108
v -1.087323 0.362054 -4.032882
v -1.086455 0.352866 -4.172962
v -1.086876 0.349782 -4.126002
v -1.085914 0.362025 -4.219122
v -1.083661 0.424091 -4.345018
v -1.084505 0.397946 -4.305896
v -1.082743 0.455099 -4.380410
v -1.079709 0.571789 -4.458390
v -1.080750 0.529587 -4.437587
v -1.078661 0.616337 -4.473530
v -1.075658 0.756384 -4.482698
v -1.076618 0.709434 -4.485789
v -1.074761 0.802535 -4.473530
v -1.073215 0.889296 -4.437587
v -1.072088 0.963803 -4.380410
v -1.071338 1.041784 -4.263681
v -1.071515 1.066102 -4.172962
v -1.071454 1.020979 -4.305896
v -1.071358 1.056928 -4.219122
v -1.072226 1.066117 -4.079042
v -1.071806 1.069200 -4.126002
v -1.072767 1.056958 -4.032882
v -1.075021 0.994891 -3.906985
v -1.074177 1.021036 -3.946108
v -1.075938 0.963884 -3.871594
v -1.078973 0.847193 -3.793614
v -1.077931 0.889395 -3.814417
v -1.080021 0.802646 -3.778474
vt 64.611618 118.320000
vt 44.983868 125.678596
vt 63.689598 123.860497
vt 43.012108 120.419296
vt 43.934170 114.878799
vt 52.762218 108.569901
vt 58.302750 109.491898
vt 55.593147 108.666199
vt 62.639908 113.060699
vt 47.502960 110.541595
vt 49.321068 129.247299
vt 46.917538 127.748398
vt 60.120819 128.197693
vt 63.972004 115.560493
vt 64.382645 116.919197
vt 63.388210 114.266800
vt 60.706207 110.990799
vt 61.741177 111.962097
vt 59.553829 110.162300
vt 56.975109 108.989899
vt 54.180840 108.524895
vt 50.002808 109.209496
vt 51.361450 108.798897
vt 48.709038 109.793297
vt 45.433079 112.475296
vt 46.404369 111.440300
vt 44.604538 113.627701
vt 43.108440 117.588394
vt 43.432159 116.206398
vt 42.967117 119.000694
vt 43.651798 123.178696
vt 43.241127 121.820099
vt 44.235527 124.472496
vt 45.882561 126.777100
vt 48.069981 128.577011
vt 52.030628 130.073090
vt 54.861557 130.169403
vt 50.648678 129.749390
vt 53.442898 130.214401
vt 57.620987 129.529694
vt 56.262318 129.940399
vt 58.914757 128.945999
vt 62.190697 126.264008
vt 61.219437 127.299004
vt 63.019249 125.111496
vt 64.515350 121.150894
vt 64.191650 122.532898
vt 64.656670 119.738594
vt 194.745895 -210.753494
vt 194.777390 -208.482697
vt 195.872589 -209.380692
vt 193.650589 -209.855499
vt 195.823288 -211.635101
vt 196.950089 -210.262299
vt 196.864288 -212.485092
vt 197.991089 -211.112198
vt 197.851501 -213.289093
vt 198.978195 -211.916290
vt 198.767288 -214.033096
vt 199.894089 -212.660202
vt 199.596893 -214.704697
vt 200.723602 -213.331894
vt 200.325195 -215.292007
vt 201.451889 -213.919189
vt 200.940598 -215.785599
vt 202.067291 -214.412796
vt -4.189919 -184.882889
vt -3.063187 -183.510101
vt -3.199815 -185.683090
vt -2.072991 -184.310196
vt -2.154519 -186.527893
vt -1.027734 -185.155014
vt -1.071717 -187.402893
vt 0.055076 -186.029999
vt 0.029899 -188.293198
vt 1.156676 -186.920395
vt 1.131469 -189.183395
vt 2.258193 -187.810593
vt 2.214332 -190.058502
vt 3.341094 -188.685699
vt 3.259582 -190.903290
vt 4.386336 -189.530502
vt 4.249824 -191.703598
vt 5.376601 -190.330688
vt 5.167533 -192.445190
vt 6.294311 -191.072388
vt 5.997771 -193.116196
vt 7.124549 -191.743301
vt 6.725356 -193.704300
vt 7.852172 -192.331390
vt 7.338943 -194.200089
vt 8.465698 -192.827301
vt 275.585083 -274.758484
vt 275.445496 -276.935303
vt 274.458405 -276.131287
vt 276.572296 -275.562500
vt 274.544098 -273.908508
vt 273.417297 -275.281403
vt 273.466705 -273.026886
vt 272.339905 -274.399780
vt 272.371490 -272.128906
vt 271.244690 -273.501801
vt 270.150391 -272.602692
vt 271.277100 -271.229797
vt 269.075500 -271.717804
vt 270.202301 -270.344879
vt 268.039001 -270.862488
vt 269.165680 -269.489685
vt 267.057800 -270.051178
vt 268.184601 -268.678284
vt -375.826599 -150.928696
vt -377.559479 -151.796494
vt -376.432678 -150.423599
vt -376.953491 -152.301590
vt -375.108032 -151.527695
vt -376.234802 -152.900589
vt -374.288086 -152.211090
vt -375.414795 -153.584015
vt -373.381592 -152.966599
vt -374.508484 -154.339493
vt -372.403687 -153.781799
vt -373.530487 -155.154602
vt -371.371277 -154.642303
vt -372.498077 -156.015091
vt -370.301880 -155.533600
vt -371.428589 -156.906494
vt -369.213898 -156.440399
vt -370.340698 -157.813293
vt -368.125885 -157.347198
vt -369.252686 -158.720093
vt -367.056488 -158.238693
vt -368.183289 -159.611496
vt -366.024078 -159.099091
vt -367.150879 -160.471893
vt -365.046082 -159.914291
vt -366.172791 -161.287094
vt 188.143600 -202.996399
vt 186.412689 -203.861893
vt 187.539490 -202.489014
vt 187.016800 -204.369202
vt 188.861603 -203.596191
vt 187.734894 -204.969009
vt 189.682297 -204.278900
vt 188.555496 -205.651794
vt 190.590500 -205.032089
vt 189.463699 -206.404892
vt 191.571701 -205.843399
vt 190.444901 -207.216293
vt 192.608292 -206.698700
vt 191.481491 -208.071594
vt 193.683014 -207.583588
vt 192.556290 -208.956390
vn 0.9998 -0.0209 0.0076
vn 0.9998 -0.0210 0.0076
vn 0.9998 -0.0209 0.0073
vn 0.9997 -0.0210 0.0077
vn 0.9998 -0.0209 0.0075
vn 0.9998 -0.0207 0.0074
vn 0.9998 -0.0208 0.0075
vn 0.9997 -0.0212 0.0076
vn 0.9998 -0.0210 0.0075
vn 0.9998 -0.0208 0.0077
vn 0.9998 -0.0208 0.0078
vn 0.9998 -0.0209 0.0074
vn 0.9998 -0.0210 0.0077
vn 0.9997 -0.0211 0.0075
vn 0.0027 0.1305 0.9914
vn 0.0000 0.0000 1.0000
vn 0.0054 0.2587 0.9659
vn 0.0054 0.2588 0.9659
vn 0.0080 0.3825 0.9239
vn 0.0080 0.3827 0.9238
vn 0.0105 0.4998 0.8661
vn 0.0105 0.5000 0.8659
vn 0.0127 0.6085 0.7935
vn 0.0128 0.6088 0.7932
vn 0.0148 0.7068 0.7073
vn 0.0148 0.7071 0.7070
vn 0.0166 0.7930 0.6090
vn 0.0166 0.7933 0.6086
vn 0.0174 0.8311 0.5558
vn 0.0188 0.8968 0.4420
vn 0.0193 0.9236 0.3830
vn 0.0193 0.9238 0.3824
vn 0.0202 0.9656 0.2591
vn 0.0202 0.9658 0.2585
vn 0.0208 0.9912 0.1308
vn 0.0208 0.9913 0.1302
vn 0.0209 0.9998 0.0003
vn 0.0209 0.9998 -0.0003
vn 0.0208 0.9913 -0.1302
vn 0.0208 0.9912 -0.1308
vn 0.0202 0.9658 -0.2585
vn 0.0202 0.9656 -0.2591
vn 0.0194 0.9238 -0.3824
vn 0.0194 0.9236 -0.3830
vn 0.0181 0.8660 -0.4998
vn 0.0181 0.8657 -0.5002
vn 0.0166 0.7933 -0.6086
vn 0.0166 0.7930 -0.6090
vn 0.0148 0.7071 -0.7069
vn 0.0148 0.7068 -0.7073
vn 0.0128 0.6088 -0.7932
vn 0.0127 0.6085 -0.7935
vn 0.0116 0.5557 -0.8313
vn 0.0080 0.3827 -0.9238
vn 0.0093 0.4419 -0.8970
vn 0.0080 0.3825 -0.9239
vn 0.0054 0.2588 -0.9659
vn 0.0054 0.2587 -0.9659
vn 0.0027 0.1305 -0.9914
vn 0.0027 0.1305 -0.9915
vn 0.0000 -0.0000 -1.0000
vn -0.0027 -0.1305 -0.9915
vn -0.0027 -0.1305 -0.9914
vn -0.0054 -0.2587 -0.9659
vn -0.0054 -0.2588 -0.9659
vn -0.0080 -0.3825 -0.9239
vn -0.0080 -0.3827 -0.9238
vn -0.0093 -0.4419 -0.8970
vn -0.0127 -0.6085 -0.7935
vn -0.0116 -0.5557 -0.8313
vn -0.0128 -0.6088 -0.7932
vn -0.0148 -0.7068 -0.7073
vn -0.0148 -0.7071 -0.7069
vn -0.0166 -0.7930 -0.6090
vn -0.0166 -0.7933 -0.6086
vn -0.0181 -0.8657 -0.5002
vn -0.0181 -0.8660 -0.4998
vn -0.0193 -0.9236 -0.3830
vn -0.0193 -0.9238 -0.3824
vn -0.0202 -0.9656 -0.2591
vn -0.0202 -0.9658 -0.2585
vn -0.0208 -0.9912 -0.1308
vn -0.0208 -0.9913 -0.1302
vn -0.0209 -0.9998 -0.0003
vn -0.0209 -0.9998 0.0003
vn -0.0208 -0.9913 0.1302
vn -0.0208 -0.9912 0.1308
vn -0.0202 -0.9658 0.2585
vn -0.0202 -0.9656 0.2591
vn -0.0194 -0.9238 0.3824
vn -0.0193 -0.9236 0.3830
vn -0.0188 -0.8968 0.4420
vn -0.0166 -0.7933 0.6086
vn -0.0174 -0.8311 0.5558
vn -0.0166 -0.7930 0.6090
vn -0.0148 -0.7071 0.7070
vn -0.0148 -0.7068 0.7073
vn -0.0128 -0.6088 0.7932
vn -0.0127 -0.6085 0.7935
vn -0.0105 -0.5000 0.8659
vn -0.0105 -0.4998 0.8661
vn -0.0080 -0.3827 0.9238
vn -0.0080 -0.3825 0.9239
vn -0.0054 -0.2588 0.9659
vn -0.0054 -0.2587 0.9659
vn -0.0027 -0.1305 0.9914
usemtl carbon.001
s off
f 105/1/1 106/2/1 107/3/1
f 108/4/1 106/2/1 109/5/1
f 110/6/2 111/7/2 112/8/2
f 113/9/1 111/7/1 114/10/1
f 109/5/1 105/1/1 114/10/1
f 115/11/1 106/2/1 116/12/1
f 117/13/1 106/2/1 115/11/1
f 107/3/1 106/2/1 117/13/1
f 118/14/3 105/1/3 119/15/3
f 113/9/1 105/1/1 118/14/1
f 113/9/1 118/14/1 120/16/1
f 121/17/4 113/9/4 122/18/4
f 111/7/5 113/9/5 121/17/5
f 111/7/2 121/17/2 123/19/2
f 111/7/1 110/6/1 114/10/1
f 112/8/6 111/7/6 124/20/6
f 110/6/7 112/8/7 125/21/7
f 110/6/1 126/22/1 114/10/1
f 126/22/8 110/6/8 127/23/8
f 114/10/2 126/22/2 128/24/2
f 105/1/1 113/9/1 114/10/1
f 129/25/9 114/10/9 130/26/9
f 109/5/1 114/10/1 129/25/1
f 109/5/10 129/25/10 131/27/10
f 132/28/11 109/5/11 133/29/11
f 108/4/1 109/5/1 132/28/1
f 108/4/1 132/28/1 134/30/1
f 135/31/1 108/4/1 136/32/1
f 106/2/1 108/4/1 135/31/1
f 106/2/12 135/31/12 137/33/12
f 106/2/1 105/1/1 109/5/1
f 116/12/13 106/2/13 138/34/13
f 115/11/5 116/12/5 139/35/5
f 115/11/1 140/36/1 141/37/1
f 140/36/2 115/11/2 142/38/2
f 141/37/1 140/36/1 143/39/1
f 117/13/2 115/11/2 141/37/2
f 144/40/1 141/37/1 145/41/1
f 117/13/2 141/37/2 144/40/2
f 117/13/14 144/40/14 146/42/14
f 147/43/2 117/13/2 148/44/2
f 107/3/1 117/13/1 147/43/1
f 107/3/9 147/43/9 149/45/9
f 150/46/9 107/3/9 151/47/9
f 105/1/1 107/3/1 150/46/1
f 105/1/1 150/46/1 152/48/1
s 1
f 1/49/15 2/50/16 3/51/15
f 2/50/16 1/49/15 4/52/16
f 5/53/17 3/51/15 6/54/18
f 3/51/15 5/53/17 1/49/15
f 7/55/19 6/54/18 8/56/20
f 6/54/18 7/55/19 5/53/17
f 9/57/21 8/56/20 10/58/22
f 8/56/20 9/57/21 7/55/19
f 11/59/23 10/58/22 12/60/24
f 10/58/22 11/59/23 9/57/21
f 13/61/25 12/60/24 14/62/26
f 12/60/24 13/61/25 11/59/23
f 13/61/25 14/62/26 15/63/27
f 14/62/26 16/64/28 15/63/27
f 15/63/27 16/64/28 17/65/29
f 16/64/28 18/66/29 17/65/29
f 19/67/30 20/68/30 21/69/31
f 20/68/30 22/70/32 21/69/31
f 21/69/31 22/70/32 23/71/33
f 22/70/32 24/72/34 23/71/33
f 23/71/33 24/72/34 25/73/35
f 24/72/34 26/74/36 25/73/35
f 25/73/35 26/74/36 27/75/37
f 26/74/36 28/76/38 27/75/37
f 27/75/37 28/76/38 29/77/39
f 28/76/38 30/78/40 29/77/39
f 29/77/39 30/78/40 31/79/41
f 30/78/40 32/80/42 31/79/41
f 31/79/41 32/80/42 33/81/43
f 32/80/42 34/82/44 33/81/43
f 33/81/43 34/82/44 35/83/45
f 34/82/44 36/84/46 35/83/45
f 35/83/45 36/84/46 37/85/47
f 36/84/46 38/86/48 37/85/47
f 37/85/47 38/86/48 39/87/49
f 38/86/48 40/88/50 39/87/49
f 41/89/51 40/88/50 42/90/52
f 40/88/50 41/89/51 39/87/49
f 43/91/53 42/90/52 44/92/53
f 42/90/52 43/91/53 41/89/51
f 45/93/54 46/94/55 47/95/56
f 46/94/55 45/93/54 48/96/55
f 49/97/57 47/95/56 50/98/58
f 47/95/56 49/97/57 45/93/54
f 51/99/59 50/98/58 52/100/60
f 50/98/58 51/99/59 49/97/57
f 53/101/61 52/100/60 54/102/61
f 52/100/60 53/101/61 51/99/59
f 55/103/62 53/101/61 54/102/61
f 53/101/61 55/103/62 56/104/63
f 57/105/64 56/104/63 55/103/62
f 56/104/63 57/105/64 58/106/65
f 59/107/66 58/106/65 57/105/64
f 58/106/65 59/107/66 60/108/67
f 61/109/68 60/108/67 59/107/66
f 60/108/67 61/109/68 62/110/68
f 63/111/69 64/112/70 65/113/70
f 64/112/70 63/111/69 66/114/71
f 67/115/72 66/114/71 63/111/69
f 66/114/71 67/115/72 68/116/73
f 69/117/74 68/116/73 67/115/72
f 68/116/73 69/117/74 70/118/75
f 71/119/76 70/118/75 69/117/74
f 70/118/75 71/119/76 72/120/77
f 73/121/78 72/120/77 71/119/76
f 72/120/77 73/121/78 74/122/79
f 75/123/80 74/122/79 73/121/78
f 74/122/79 75/123/80 76/124/81
f 77/125/82 76/124/81 75/123/80
f 76/124/81 77/125/82 78/126/83
f 79/127/84 78/126/83 77/125/82
f 78/126/83 79/127/84 80/128/85
f 81/129/86 80/128/85 79/127/84
f 80/128/85 81/129/86 82/130/87
f 83/131/88 82/130/87 81/129/86
f 82/130/87 83/131/88 84/132/89
f 85/133/90 84/132/89 83/131/88
f 84/132/89 85/133/90 86/134/91
f 87/135/92 86/134/91 85/133/90
f 86/134/91 87/135/92 88/136/92
f 89/137/93 90/138/94 91/139/94
f 90/138/94 89/137/93 92/140/95
f 93/141/96 92/140/95 89/137/93
f 92/140/95 93/141/96 94/142/97
f 95/143/98 94/142/97 93/141/96
f 94/142/97 95/143/98 96/144/99
f 97/145/100 96/144/99 95/143/98
f 96/144/99 97/145/100 98/146/101
f 99/147/102 98/146/101 97/145/100
f 98/146/101 99/147/102 100/148/103
f 101/149/104 100/148/103 99/147/102
f 100/148/103 101/149/104 102/150/105
f 103/151/106 102/150/105 101/149/104
f 102/150/105 103/151/106 104/152/106
f 2/50/16 104/152/106 103/151/106
f 104/152/106 2/50/16 4/52/16
