# Blender v3.1.2 OBJ File: 'car.blend'
# www.blender.org
mtllib Mesh_7.001.mtl
o Mesh_7_Mesh_7.001
v 0.010008 1.381501 2.136693
v 0.005247 1.401883 2.141710
v 0.011124 1.380858 2.141540
v 0.005839 1.401542 2.144285
v 0.006880 1.382017 2.132805
v 0.003586 1.402157 2.139645
v 0.003586 1.402157 2.139645
v 0.002361 1.382303 2.130648
v 0.001185 1.402309 2.138499
v 0.006880 1.382017 2.132805
v -0.001479 1.402309 2.138499
v -0.002655 1.382303 2.130648
v -0.003879 1.402157 2.139645
v -0.007174 1.382017 2.132805
v -0.003879 1.402157 2.139645
v -0.010301 1.381501 2.136693
v -0.005540 1.401883 2.141710
v -0.007174 1.382017 2.132805
v -0.011417 1.380858 2.141540
v -0.006133 1.401542 2.144285
v -0.005540 1.401200 2.146859
v -0.010301 1.380215 2.146388
v -0.003879 1.400926 2.148924
v -0.007174 1.379699 2.150275
v -0.003879 1.400926 2.148924
v -0.002655 1.379413 2.152433
v -0.001479 1.400774 2.150070
v -0.007174 1.379699 2.150275
v 0.001185 1.400774 2.150070
v 0.002361 1.379413 2.152433
v 0.003586 1.400926 2.148924
v 0.006880 1.379699 2.150275
v 0.003586 1.400926 2.148924
v 0.010008 1.380215 2.146388
v 0.005247 1.401200 2.146859
v 0.006880 1.379699 2.150275
v 0.002614 1.401542 2.144285
v 0.005247 1.401883 2.141710
v 0.002340 1.401699 2.143097
v 0.005839 1.401542 2.144285
v 0.003586 1.402157 2.139645
v 0.001574 1.401826 2.142145
v 0.001185 1.402309 2.138499
v 0.000468 1.401896 2.141617
v -0.000761 1.401896 2.141617
v -0.001479 1.402309 2.138499
v -0.001868 1.401826 2.142145
v -0.003879 1.402157 2.139645
v -0.002634 1.401699 2.143097
v -0.005540 1.401883 2.141710
v -0.002907 1.401542 2.144285
v -0.006133 1.401542 2.144285
v -0.005540 1.401200 2.146859
v -0.002634 1.401384 2.145472
v -0.003879 1.400926 2.148924
v -0.001868 1.401258 2.146424
v -0.001479 1.400774 2.150070
v -0.000761 1.401188 2.146952
v 0.001185 1.400774 2.150070
v 0.000468 1.401188 2.146952
v 0.001574 1.401258 2.146424
v 0.003586 1.400926 2.148924
v 0.005247 1.401200 2.146859
v 0.002340 1.401384 2.145472
v 0.010008 1.365565 2.134578
v 0.011124 1.364922 2.139426
v 0.006880 1.366081 2.130691
v 0.002361 1.366367 2.128534
v 0.006880 1.366081 2.130691
v -0.002655 1.366367 2.128534
v -0.007174 1.366081 2.130691
v -0.010301 1.365565 2.134578
v -0.007174 1.366081 2.130691
v -0.011417 1.364922 2.139426
v -0.010301 1.364279 2.144274
v -0.007174 1.363763 2.148161
v -0.007174 1.363763 2.148161
v -0.002655 1.363476 2.150319
v 0.002361 1.363476 2.150319
v 0.006880 1.363763 2.148161
v 0.010008 1.364279 2.144274
v 0.006880 1.363763 2.148161
v 0.010008 1.365565 2.134578
v 0.011124 1.364922 2.139426
v 0.017121 1.359918 2.138762
v 0.015411 1.360904 2.131335
v 0.006880 1.366081 2.130691
v 0.010620 1.361694 2.125379
v 0.002361 1.366367 2.128534
v 0.003696 1.362132 2.122073
v -0.003989 1.362132 2.122073
v -0.002655 1.366367 2.128534
v -0.010913 1.361694 2.125379
v -0.007174 1.366081 2.130691
v -0.015705 1.360904 2.131335
v -0.010301 1.365565 2.134578
v -0.017415 1.359918 2.138762
v -0.011417 1.364922 2.139426
v -0.015705 1.358933 2.146189
v -0.010301 1.364279 2.144274
v -0.010913 1.358142 2.152145
v -0.007174 1.363763 2.148161
v -0.003989 1.357704 2.155451
v -0.002655 1.363476 2.150319
v 0.002361 1.363476 2.150319
v 0.003696 1.357704 2.155451
v 0.006880 1.363763 2.148161
v 0.010620 1.358142 2.152145
v 0.015411 1.358933 2.146189
v 0.010008 1.364279 2.144274
v 0.017121 1.356101 2.138256
v 0.015411 1.360904 2.131335
v 0.017121 1.359918 2.138762
v 0.015411 1.357086 2.130828
v 0.010620 1.361694 2.125379
v 0.010620 1.357877 2.124872
v 0.010620 1.361694 2.125379
v 0.003696 1.358315 2.121567
v 0.003696 1.362132 2.122073
v 0.010620 1.357877 2.124872
v -0.003989 1.362132 2.122073
v -0.003989 1.358315 2.121567
v -0.010913 1.361694 2.125379
v -0.010913 1.357877 2.124872
v -0.010913 1.361694 2.125379
v -0.015705 1.357086 2.130828
v -0.015705 1.360904 2.131335
v -0.010913 1.357877 2.124872
v -0.017415 1.356101 2.138256
v -0.017415 1.359918 2.138762
v -0.015705 1.355116 2.145683
v -0.015705 1.358933 2.146189
v -0.010913 1.354325 2.151639
v -0.010913 1.358142 2.152145
v -0.003989 1.357704 2.155451
v -0.010913 1.358142 2.152145
v -0.010913 1.354325 2.151639
v -0.003989 1.353887 2.154944
v 0.003696 1.357704 2.155451
v 0.003696 1.353887 2.154944
v 0.010620 1.354325 2.151639
v 0.010620 1.358142 2.152145
v 0.010620 1.354325 2.151639
v 0.015411 1.358933 2.146189
v 0.010620 1.358142 2.152145
v 0.015411 1.355116 2.145683
vt 7.675032 76.567001
vt 7.786589 76.456940
vt 7.663449 76.516251
vt 7.811707 76.567001
vt 7.716211 76.368698
vt 7.630994 76.475571
vt 7.614514 76.319710
vt 7.584100 76.452965
vt 7.532052 76.452965
vt 7.501636 76.319710
vt 7.485153 76.475571
vt 7.399935 76.368698
vt 7.452703 76.516251
vt 7.329558 76.456940
vt 7.441121 76.567001
vt 7.304446 76.567001
vt 7.329558 76.677048
vt 7.452703 76.617737
vt 7.399935 76.765297
vt 7.485153 76.658424
vt 7.501636 76.814270
vt 7.532052 76.681015
vt 7.614514 76.814270
vt 7.584100 76.681015
vt 7.630994 76.658424
vt 7.716211 76.765297
vt 7.786589 76.677048
vt 7.663449 76.617737
vt -76.323425 -8.925570
vt -76.420570 -9.809622
vt -76.530617 -8.925570
vt -76.530617 -9.809622
vt -76.157265 -8.925570
vt -76.332321 -9.809622
vt 7.716211 -9.809622
vt 7.664338 -8.925570
vt 7.614514 -9.809622
vt 7.855812 -8.925570
vt 7.501636 -9.809622
vt 7.451812 -8.925570
vt 7.399935 -9.809622
vt 7.260341 -8.925570
vt -76.332321 -9.809622
vt -76.323425 -8.925570
vt -76.420570 -9.809622
vt -76.157265 -8.925570
vt -76.530617 -8.925570
vt -76.530617 -9.809622
vt -76.640671 -9.809622
vt -76.737808 -8.925570
vt -76.728905 -9.809622
vt -76.903969 -8.925570
vt 7.399935 -9.809622
vt 7.451812 -8.925570
vt 7.501636 -9.809622
vt 7.260335 -8.925570
vt 7.614514 -9.809622
vt 7.664338 -8.925570
vt 7.716211 -9.809622
vt 7.855812 -8.925570
vt -76.728905 -9.809622
vt -76.737808 -8.925570
vt -76.640671 -9.809622
vt -76.903969 -8.925570
vt -76.323425 -8.244444
vt -76.530617 -8.244444
vt -76.157265 -8.244444
vt 7.664338 -8.244444
vt 7.855812 -8.244444
vt 7.451812 -8.244444
vt 7.260341 -8.244444
vt -76.323425 -8.244444
vt -76.157265 -8.244444
vt -76.530617 -8.244444
vt -76.737808 -8.244444
vt -76.903969 -8.244444
vt 7.260335 -8.244444
vt 7.451812 -8.244444
vt 7.664338 -8.244444
vt 7.855812 -8.244444
vt -76.737808 -8.244444
vt -76.903969 -8.244444
vt 7.988323 76.359795
vt 8.035608 76.567001
vt 8.289716 76.567001
vt 8.217262 76.249550
vt 7.855812 76.193642
vt 8.014246 75.994965
vt 7.664338 76.101440
vt 7.720878 75.853699
vt 7.395269 75.853699
vt 7.451812 76.101440
vt 7.101907 75.994965
vt 7.260341 76.193642
vt 6.898892 76.249550
vt 7.127830 76.359795
vt 6.826430 76.567001
vt 7.080542 76.567001
vt 6.898892 76.884438
vt 7.127830 76.774178
vt 7.101907 77.139008
vt 7.260335 76.940346
vt 7.395269 77.280296
vt 7.451812 77.032555
vt 7.664338 77.032555
vt 7.720884 77.280296
vt 7.855812 76.940346
vt 8.014246 77.139008
vt 8.217262 76.884438
vt 7.988323 76.774178
vt -76.530617 -7.867435
vt -76.213158 -8.030586
vt -76.530617 -8.030586
vt -76.213158 -7.867435
vt -75.958611 -8.030586
vt -75.958611 -7.867435
vt 8.014246 -8.030586
vt 7.720878 -7.867435
vt 7.720878 -8.030586
vt 8.014246 -7.867435
vt 7.395269 -8.030586
vt 7.395269 -7.867435
vt 7.101907 -8.030586
vt 7.101907 -7.867435
vt -75.958611 -8.030586
vt -76.213158 -7.867435
vt -76.213158 -8.030586
vt -75.958611 -7.867435
vt -76.530617 -7.867435
vt -76.530617 -8.030586
vt -76.848068 -7.867435
vt -76.848068 -8.030586
vt -77.102638 -7.867435
vt -77.102638 -8.030586
vt 7.395269 -8.030586
vt 7.101907 -8.030586
vt 7.101907 -7.867435
vt 7.395269 -7.867435
vt 7.720884 -8.030586
vt 7.720884 -7.867435
vt 8.014246 -7.867435
vt 8.014246 -8.030586
vt -77.102638 -7.867435
vt -76.848068 -8.030586
vt -77.102638 -8.030586
vt -76.848068 -7.867435
vn -0.0002 0.9913 0.1313
vn 0.0000 0.9913 0.1313
vn 0.0007 0.9913 0.1319
vn -0.0000 0.9913 0.1315
vn 0.0001 0.9913 0.1313
vn 0.0000 0.9913 0.1312
vn -0.0001 0.9914 0.1312
vn -0.0001 0.9913 0.1313
vn -0.0006 0.9913 0.1319
vn 0.0002 0.9914 0.1312
vn 0.0000 0.9913 0.1316
vn 0.0002 0.9912 0.1321
vn -0.0001 0.9913 0.1316
vn -0.0001 0.9913 0.1317
vn 0.0000 0.9913 0.1317
vn 0.0001 0.9913 0.1316
vn 0.0003 0.9913 0.1313
vn -0.0002 0.9913 0.1320
vn 0.8943 0.1772 -0.4109
vn 0.8734 0.2987 -0.3846
vn 0.9926 0.1206 0.0160
vn 0.9694 0.2434 0.0323
vn 0.7763 0.1990 -0.5981
vn 0.7591 0.3172 -0.5685
vn 0.4213 0.3527 -0.8355
vn 0.2209 0.2478 -0.9433
vn 0.2158 0.3677 -0.9046
vn 0.4308 0.2352 -0.8713
vn -0.2158 0.3677 -0.9046
vn -0.2209 0.2478 -0.9433
vn -0.4213 0.3527 -0.8355
vn -0.4308 0.2352 -0.8712
vn -0.7591 0.3172 -0.5685
vn -0.8943 0.1772 -0.4109
vn -0.8734 0.2987 -0.3846
vn -0.7763 0.1990 -0.5981
vn -0.9926 0.1206 0.0160
vn -0.9694 0.2434 0.0323
vn -0.8734 0.1881 0.4493
vn -0.8943 0.0639 0.4429
vn -0.7590 0.1581 0.6316
vn -0.7763 0.0361 0.6293
vn -0.4211 0.1226 0.8987
vn -0.2209 -0.0067 0.9753
vn -0.2156 0.1191 0.9692
vn -0.4309 -0.0001 0.9024
vn 0.2156 0.1191 0.9692
vn 0.2209 -0.0067 0.9753
vn 0.4211 0.1226 0.8987
vn 0.4309 -0.0001 0.9024
vn 0.7590 0.1581 0.6316
vn 0.8943 0.0639 0.4429
vn 0.8734 0.1881 0.4493
vn 0.7763 0.0361 0.6293
vn 0.9010 0.0571 -0.4301
vn 1.0000 0.0000 -0.0000
vn 0.7818 0.0820 -0.6181
vn 0.2225 0.1282 -0.9665
vn 0.4338 0.1185 -0.8932
vn -0.2225 0.1282 -0.9665
vn -0.4338 0.1185 -0.8932
vn -0.9010 0.0571 -0.4301
vn -0.7818 0.0820 -0.6181
vn -1.0000 0.0000 -0.0000
vn -0.9010 -0.0571 0.4301
vn -0.7818 -0.0820 0.6181
vn -0.4340 -0.1185 0.8931
vn -0.2226 -0.1282 0.9664
vn 0.2226 -0.1282 0.9664
vn 0.4340 -0.1185 0.8931
vn 0.9010 -0.0571 0.4301
vn 0.7818 -0.0820 0.6181
vn 0.5801 0.7952 -0.1763
vn 0.6439 0.7584 0.1006
vn 0.4014 0.8247 -0.3985
vn 0.1433 0.8410 -0.5217
vn -0.1433 0.8410 -0.5217
vn -0.4014 0.8247 -0.3985
vn -0.5802 0.7952 -0.1763
vn -0.6439 0.7584 0.1006
vn -0.5802 0.7217 0.3776
vn -0.4015 0.6922 0.5997
vn -0.1433 0.6759 0.7229
vn 0.1433 0.6759 0.7229
vn 0.4015 0.6922 0.5997
vn 0.5802 0.7217 0.3776
vn 0.7818 0.0821 -0.6181
vn 0.7818 0.0821 -0.6180
vn 0.4338 0.1186 -0.8932
vn 0.2225 0.1281 -0.9665
vn 0.2226 0.1281 -0.9665
vn 0.4338 0.1187 -0.8932
vn -0.2226 0.1281 -0.9665
vn -0.2225 0.1281 -0.9665
vn -0.4338 0.1186 -0.8932
vn -0.4338 0.1187 -0.8932
vn -0.7818 0.0821 -0.6181
vn -0.9010 -0.0570 0.4302
vn -0.9010 -0.0570 0.4301
vn -0.7818 -0.0819 0.6181
vn -0.7819 -0.0819 0.6180
vn -0.2225 -0.1284 0.9664
vn -0.4339 -0.1184 0.8932
vn -0.4339 -0.1185 0.8931
vn 0.2225 -0.1284 0.9664
vn 0.4339 -0.1185 0.8931
vn 0.4339 -0.1184 0.8932
vn 0.7818 -0.0819 0.6181
vn 0.9010 -0.0570 0.4301
vn 0.7819 -0.0819 0.6181
vn 0.9010 -0.0570 0.4302
usemtl black_s.001
s off
f 37/1/1 38/2/1 39/3/1
f 38/2/2 37/1/2 40/4/2
f 39/3/3 41/5/3 42/6/3
f 41/5/4 39/3/4 38/2/4
f 43/7/5 42/6/5 41/5/5
f 42/6/5 43/7/5 44/8/5
f 45/9/2 43/7/2 46/10/2
f 43/7/6 45/9/6 44/8/6
f 47/11/7 46/10/7 48/12/7
f 46/10/8 47/11/8 45/9/8
f 48/12/9 49/13/9 47/11/9
f 49/13/4 48/12/4 50/14/4
f 49/13/10 50/14/10 51/15/10
f 50/14/2 52/16/2 51/15/2
f 53/17/11 51/15/11 52/16/11
f 51/15/12 53/17/12 54/18/12
f 55/19/4 54/18/4 53/17/4
f 54/18/1 55/19/1 56/20/1
f 57/21/13 56/20/13 55/19/13
f 56/20/14 57/21/14 58/22/14
f 57/21/11 59/23/11 60/24/11
f 57/21/15 60/24/15 58/22/15
f 60/24/16 59/23/16 61/25/16
f 59/23/16 62/26/16 61/25/16
f 63/27/4 64/28/4 62/26/4
f 62/26/17 64/28/17 61/25/17
f 37/1/15 63/27/15 40/4/15
f 63/27/18 37/1/18 64/28/18
s 1
f 1/29/19 2/30/20 3/31/21
f 4/32/22 3/31/21 2/30/20
f 5/33/23 6/34/24 1/29/19
f 2/30/20 1/29/19 6/34/24
f 7/35/25 8/36/26 9/37/27
f 8/36/26 7/35/25 10/38/28
f 9/37/27 8/36/26 11/39/29
f 8/36/26 12/40/30 11/39/29
f 11/39/29 12/40/30 13/41/31
f 12/40/30 14/42/32 13/41/31
f 15/43/33 16/44/34 17/45/35
f 16/44/34 15/43/33 18/46/36
f 17/45/35 19/47/37 20/48/38
f 19/47/37 17/45/35 16/44/34
f 20/48/38 19/47/37 21/49/39
f 21/49/39 19/47/37 22/50/40
f 21/49/39 22/50/40 23/51/41
f 22/50/40 24/52/42 23/51/41
f 25/53/43 26/54/44 27/55/45
f 26/54/44 25/53/43 28/56/46
f 27/55/45 26/54/44 29/57/47
f 26/54/44 30/58/48 29/57/47
f 29/57/47 30/58/48 31/59/49
f 30/58/48 32/60/50 31/59/49
f 33/61/51 34/62/52 35/63/53
f 34/62/52 33/61/51 36/64/54
f 35/63/53 3/31/21 4/32/22
f 3/31/21 35/63/53 34/62/52
f 3/31/21 65/65/55 1/29/19
f 65/65/55 3/31/21 66/66/56
f 65/65/55 5/33/23 1/29/19
f 5/33/23 65/65/55 67/67/57
f 10/38/28 68/68/58 8/36/26
f 68/68/58 10/38/28 69/69/59
f 8/36/26 68/68/58 12/40/30
f 12/40/30 68/68/58 70/70/60
f 12/40/30 70/70/60 14/42/32
f 14/42/32 70/70/60 71/71/61
f 18/46/36 72/72/62 16/44/34
f 72/72/62 18/46/36 73/73/63
f 16/44/34 72/72/62 19/47/37
f 19/47/37 72/72/62 74/74/64
f 19/47/37 75/75/65 22/50/40
f 75/75/65 19/47/37 74/74/64
f 22/50/40 75/75/65 24/52/42
f 24/52/42 75/75/65 76/76/66
f 28/56/46 77/77/67 26/54/44
f 26/54/44 77/77/67 78/78/68
f 26/54/44 78/78/68 30/58/48
f 30/58/48 78/78/68 79/79/69
f 30/58/48 80/80/70 32/60/50
f 80/80/70 30/58/48 79/79/69
f 36/64/54 81/81/71 34/62/52
f 81/81/71 36/64/54 82/82/72
f 81/81/71 3/31/21 34/62/52
f 3/31/21 81/81/71 66/66/56
f 83/83/73 84/84/74 85/85/74
f 83/83/73 85/85/74 86/86/73
f 86/86/73 87/87/75 83/83/73
f 87/87/75 86/86/73 88/88/75
f 88/88/75 89/89/76 87/87/75
f 89/89/76 88/88/75 90/90/76
f 90/90/76 91/91/77 92/92/77
f 90/90/76 92/92/77 89/89/76
f 93/93/78 92/92/77 91/91/77
f 92/92/77 93/93/78 94/94/78
f 94/94/78 95/95/79 96/96/79
f 95/95/79 94/94/78 93/93/78
f 96/96/79 97/97/80 98/98/80
f 97/97/80 96/96/79 95/95/79
f 99/99/81 98/98/80 97/97/80
f 98/98/80 99/99/81 100/100/81
f 101/101/82 100/100/81 99/99/81
f 100/100/81 101/101/82 102/102/82
f 102/102/82 103/103/83 104/104/83
f 103/103/83 102/102/82 101/101/82
f 104/104/83 103/103/83 105/105/84
f 105/105/84 103/103/83 106/106/84
f 105/105/84 106/106/84 107/107/85
f 107/107/85 106/106/84 108/108/85
f 108/108/85 109/109/86 110/110/86
f 108/108/85 110/110/86 107/107/85
f 85/85/74 84/84/74 109/109/86
f 84/84/74 110/110/86 109/109/86
f 111/111/56 112/112/55 113/113/56
f 112/112/55 111/111/56 114/114/55
f 114/114/55 115/115/87 112/112/55
f 115/115/87 114/114/55 116/116/88
f 117/117/89 118/118/90 119/119/91
f 118/118/90 117/117/89 120/120/92
f 118/118/90 121/121/93 119/119/91
f 121/121/93 118/118/90 122/122/94
f 123/123/95 121/121/93 122/122/94
f 123/123/95 122/122/94 124/124/96
f 125/125/97 126/126/62 127/127/62
f 126/126/62 125/125/97 128/128/97
f 127/127/62 129/129/64 130/130/64
f 129/129/64 127/127/62 126/126/62
f 130/130/64 131/131/98 132/132/99
f 131/131/98 130/130/64 129/129/64
f 132/132/99 133/133/100 134/134/101
f 133/133/100 132/132/99 131/131/98
f 135/135/102 136/136/103 137/137/104
f 135/135/102 137/137/104 138/138/102
f 139/139/105 135/135/102 138/138/102
f 139/139/105 138/138/102 140/140/105
f 139/139/105 141/141/106 142/142/107
f 141/141/106 139/139/105 140/140/105
f 143/143/108 144/144/109 145/145/110
f 144/144/109 143/143/108 146/146/111
f 146/146/111 113/113/56 144/144/109
f 113/113/56 146/146/111 111/111/56
