# Blender v3.1.2 OBJ File: 'car.blend'
# www.blender.org
mtllib Mesh_233.001.mtl
o Mesh_233_Mesh_233.001
v 0.000036 0.911044 -5.285987
v -0.067951 0.825587 -5.285987
v -0.068111 0.911044 -5.285987
v 0.000036 0.740129 -5.285987
v -0.067790 0.740129 -5.285987
v 0.000036 0.911044 -5.285987
v 0.068024 0.825587 -5.285987
v 0.000036 0.740129 -5.285987
v 0.068184 0.911044 -5.285987
v 0.067863 0.740129 -5.285988
v -0.047118 0.925331 -5.285987
v -0.026004 0.925696 -5.285987
v -0.066413 0.916941 -5.285987
v -0.058380 0.924260 -5.285987
v -0.063555 0.921719 -5.285987
v 0.000036 0.925702 -5.285987
v 0.026077 0.925696 -5.285987
v 0.068184 0.911044 -5.285987
v 0.047191 0.925331 -5.285987
v 0.058452 0.924260 -5.285987
v 0.066486 0.916941 -5.285987
v 0.063628 0.921719 -5.285987
v 0.037471 0.722340 -5.285987
v 0.000036 0.740129 -5.285987
v 0.067863 0.740129 -5.285988
v 0.064536 0.734603 -5.285987
v 0.048343 0.723212 -5.285987
v 0.060654 0.729622 -5.285987
v 0.055663 0.725732 -5.285987
v 0.024888 0.722301 -5.285987
v 0.012430 0.722281 -5.285987
v 0.000036 0.722275 -5.285987
v -0.037399 0.722340 -5.285987
v -0.012358 0.722281 -5.285987
v -0.024815 0.722301 -5.285987
v -0.048270 0.723212 -5.285987
v -0.064463 0.734603 -5.285987
v -0.060581 0.729622 -5.285987
v -0.055591 0.725732 -5.285987
vt 0.377009 -0.943587
vt 0.717178 -0.508116
vt 0.717981 -0.943560
vt 0.377009 -0.072699
vt 0.716374 -0.072672
vt 0.377009 -0.943587
vt 0.036840 -0.508169
vt 0.377009 -0.072699
vt 0.036036 -0.943614
vt 0.037644 -0.072726
vt 0.612945 -1.016364
vt 0.507301 -1.018232
vt 0.709484 -0.973606
vt 0.669290 -1.010904
vt 0.695187 -0.997953
vt 0.377009 -1.018272
vt 0.246717 -1.018252
vt 0.036036 -0.943614
vt 0.141073 -1.016401
vt 0.084728 -1.010950
vt 0.044534 -0.973657
vt 0.058832 -0.998002
vt 0.189706 0.017929
vt 0.377009 -0.072699
vt 0.037644 -0.072726
vt 0.054291 -0.044566
vt 0.135312 0.013483
vt 0.073713 -0.019186
vt 0.098683 0.000637
vt 0.252666 0.018131
vt 0.314996 0.018239
vt 0.377009 0.018273
vt 0.564313 0.017958
vt 0.439022 0.018248
vt 0.501352 0.018150
vt 0.618707 0.013521
vt 0.699727 -0.044516
vt 0.680305 -0.019139
vt 0.655335 0.000680
vn 0.0000 0.0000 -1.0000
vn 0.0000 -0.0002 -1.0000
vn 0.0001 0.0000 -1.0000
vn -0.0002 0.0000 -1.0000
vn -0.0001 0.0000 -1.0000
vn 0.0002 0.0000 -1.0000
usemtl 2022_light.001
s off
f 1/1/1 2/2/1 3/3/1
f 1/1/1 4/4/1 2/2/1
f 2/2/1 4/4/1 5/5/1
f 6/6/1 7/7/1 8/8/1
f 7/7/1 6/6/1 9/9/1
f 7/7/1 10/10/1 8/8/1
f 3/3/1 11/11/1 12/12/1
f 13/13/1 14/14/1 3/3/1
f 14/14/1 13/13/1 15/15/1
f 11/11/1 3/3/1 14/14/1
f 1/1/1 3/3/1 12/12/1
f 12/12/1 16/16/1 1/1/1
f 17/17/1 1/1/1 16/16/1
f 18/18/1 17/17/1 19/19/1
f 17/17/1 18/18/1 1/1/1
f 20/20/1 18/18/1 19/19/1
f 21/21/1 20/20/1 22/22/1
f 18/18/1 20/20/1 21/21/1
f 23/23/1 24/24/1 25/25/1
f 23/23/2 25/25/2 26/26/2
f 26/26/3 27/27/3 23/23/3
f 28/28/1 27/27/1 26/26/1
f 27/27/4 28/28/4 29/29/4
f 24/24/1 23/23/1 30/30/1
f 24/24/1 30/30/1 31/31/1
f 24/24/1 31/31/1 32/32/1
f 33/33/1 5/5/1 4/4/1
f 34/34/3 4/4/3 32/32/3
f 35/35/1 4/4/1 34/34/1
f 33/33/1 4/4/1 35/35/1
f 36/36/5 37/37/5 33/33/5
f 38/38/6 36/36/6 39/39/6
f 37/37/1 36/36/1 38/38/1
f 5/5/3 33/33/3 37/37/3
