# Blender v3.1.2 OBJ File: 'car.blend'
# www.blender.org
mtllib Mesh_48.001.mtl
o Mesh_48_Mesh_48.001
v 0.326217 1.105986 2.856803
v 0.333449 1.121928 2.761925
v 0.322730 1.127771 2.861185
v 0.324948 1.112586 2.860331
v 0.322871 1.126327 2.861638
v 0.330104 1.144726 2.762599
v -0.333371 1.121928 2.761925
v -0.322651 1.127771 2.861185
v -0.330025 1.144726 2.762599
v -0.324869 1.112586 2.860332
v -0.322792 1.126327 2.861638
v -0.326139 1.105985 2.856804
v -0.323084 1.162807 2.782435
v -0.318266 1.151284 2.848425
v -0.316300 1.167600 2.816458
v -0.316533 1.158824 2.839554
v -0.315778 1.164662 2.828419
v 0.318344 1.151284 2.848426
v 0.316378 1.167600 2.816457
v 0.316612 1.158824 2.839555
v 0.323162 1.162807 2.782434
v 0.315856 1.164662 2.828419
v 0.320298 1.139184 2.857607
v 0.327523 1.154723 2.762867
v 0.318449 1.150221 2.849675
v -0.327445 1.154723 2.762867
v -0.320220 1.139184 2.857607
v -0.318370 1.150221 2.849675
v -0.330927 1.146831 2.749662
v 0.331006 1.146831 2.749661
v -0.332958 1.139184 2.739784
v -0.335579 1.126834 2.731188
v 0.333037 1.139184 2.739784
v 0.335657 1.126834 2.731187
v -0.337164 1.101673 2.733817
v -0.335150 1.097425 2.761184
v -0.336785 1.112586 2.729059
v -0.335627 1.126327 2.730834
v 0.336863 1.112586 2.729059
v 0.337242 1.101673 2.733816
v 0.335228 1.097425 2.761184
v 0.335706 1.126327 2.730834
v -0.337139 1.099181 2.734903
v -0.336523 1.087475 2.747392
v -0.335675 1.080764 2.760697
v 0.336601 1.087475 2.747392
v 0.337218 1.099180 2.734903
v 0.335753 1.080764 2.760696
v -0.330520 1.078786 2.824037
v -0.329345 1.085177 2.836264
v -0.332231 1.074153 2.804773
v -0.335402 1.078786 2.764619
v -0.333905 1.074153 2.784405
v 0.330599 1.078786 2.824036
v 0.332310 1.074153 2.804773
v 0.333983 1.074153 2.784405
v 0.335481 1.078786 2.764619
v 0.329423 1.085177 2.836263
v -0.328808 1.087475 2.840662
v -0.326908 1.099181 2.853167
v 0.328886 1.087475 2.840661
v 0.326987 1.099180 2.853166
vt 0.874441 -0.276738
vt 0.876939 -0.276422
vt 0.875705 -0.276727
vt 0.878528 -0.276435
vt 0.875512 -0.276747
vt 0.876867 -0.276736
vt 0.880340 -0.270455
vt 0.870407 -0.269912
vt 0.880011 -0.273322
vt 0.880458 -0.271382
vt 0.880107 -0.273152
vt 0.869724 -0.272718
vt 0.870408 -0.269912
vt 0.880011 -0.273322
vt 0.869724 -0.272718
vt 0.880458 -0.271383
vt 0.880107 -0.273152
vt 0.880340 -0.270455
vt 0.871141 -0.275406
vt 0.877947 -0.275977
vt 0.877947 -0.275977
vt 0.871140 -0.275406
vt 0.879272 -0.274672
vt 0.869458 -0.273893
vt 0.878106 -0.275877
vt 0.869458 -0.273893
vt 0.879272 -0.274672
vt 0.878106 -0.275877
vt 0.868375 -0.272644
vt 0.868375 -0.272644
vt 0.867649 -0.271456
vt 0.867197 -0.269736
vt 0.867649 -0.271456
vt 0.867197 -0.269736
vt 0.868293 -0.266773
vt 0.871153 -0.266940
vt 0.867459 -0.267969
vt 0.867179 -0.269666
vt 0.867503 -0.267972
vt 0.868293 -0.266773
vt 0.871152 -0.266940
vt 0.867286 -0.269674
vt 0.868481 -0.266514
vt 0.870098 -0.265471
vt 0.871636 -0.265019
vt 0.870157 -0.265480
vt 0.868596 -0.266532
vt 0.871636 -0.265019
vt 0.877958 -0.266358
vt 0.879020 -0.267387
vt 0.876437 -0.265410
vt 0.872091 -0.264890
vt 0.874466 -0.264926
vt 0.878009 -0.266354
vt 0.876241 -0.265348
vt 0.874213 -0.264846
vt 0.872091 -0.264890
vt 0.879020 -0.267387
vt 0.879380 -0.267777
vt 0.880215 -0.269531
vt 0.879380 -0.267777
vt 0.880215 -0.269530
vn -0.9205 0.3683 0.1307
vn 0.9204 0.3684 0.1307
vn 0.9895 0.1099 0.0940
vn 0.9902 0.1060 0.0906
vn 0.9787 0.1751 0.1071
vn 0.9857 0.1386 0.0959
vn 0.9823 0.1363 0.1282
vn 0.9756 0.1940 0.1027
vn -0.9902 0.1060 0.0906
vn -0.9787 0.1751 0.1071
vn -0.9756 0.1940 0.1027
vn -0.9857 0.1386 0.0959
vn -0.9823 0.1362 0.1285
vn -0.9895 0.1099 0.0940
vn -0.9587 0.2599 0.1154
vn -0.9565 0.2663 0.1188
vn -0.9203 0.3684 0.1314
vn -0.9225 0.3638 0.1289
vn 0.9565 0.2663 0.1189
vn 0.9203 0.3684 0.1314
vn 0.9225 0.3638 0.1289
vn 0.9587 0.2599 0.1154
vn 0.9641 0.2407 0.1121
vn 0.9630 0.2456 0.1112
vn 0.9538 0.2636 0.1445
vn -0.9630 0.2456 0.1112
vn -0.9641 0.2407 0.1121
vn -0.9538 0.2635 0.1442
vn -0.9814 0.1665 0.0958
vn 0.9814 0.1665 0.0958
vn -0.9853 0.1431 0.0931
vn -0.9921 0.0988 0.0777
vn 0.9853 0.1431 0.0931
vn 0.9921 0.0989 0.0777
vn -0.9951 0.0555 0.0814
vn -0.9953 0.0493 0.0831
vn -0.9940 0.0713 0.0825
vn -0.9965 0.0814 0.0208
vn 0.9940 0.0713 0.0825
vn 0.9951 0.0555 0.0814
vn 0.9953 0.0493 0.0831
vn 0.9965 0.0815 0.0205
vn -0.9967 0.0255 0.0772
vn -0.9965 0.0297 0.0777
vn -0.9962 0.0290 0.0817
vn 0.9965 0.0297 0.0777
vn 0.9967 0.0255 0.0772
vn 0.9962 0.0290 0.0817
vn -0.9963 0.0275 0.0815
vn -0.9945 0.0595 0.0859
vn -0.9963 0.0282 0.0817
vn -0.9962 0.0287 0.0826
vn -0.9962 0.0284 0.0819
vn 0.9963 0.0275 0.0815
vn 0.9963 0.0282 0.0817
vn 0.9962 0.0284 0.0819
vn 0.9962 0.0287 0.0826
vn 0.9945 0.0595 0.0859
vn -0.9940 0.0687 0.0856
vn -0.9938 0.0635 0.0915
vn 0.9940 0.0687 0.0856
vn 0.9938 0.0635 0.0915
usemtl BLACK.001
s off
f 15/1/1 16/2/1 17/3/1
f 20/4/2 19/5/2 22/6/2
s 1
f 1/7/3 2/8/4 3/9/5
f 4/10/6 3/9/5 5/11/7
f 1/7/3 3/9/5 4/10/6
f 6/12/8 3/9/5 2/8/4
f 7/13/9 8/14/10 9/15/11
f 8/14/10 10/16/12 11/17/13
f 12/18/14 8/14/10 7/13/9
f 10/16/12 8/14/10 12/18/14
f 13/19/15 14/20/16 15/1/17
f 15/1/17 14/20/16 16/2/18
f 18/21/19 19/5/20 20/4/21
f 18/21/19 21/22/22 19/5/20
f 3/9/5 18/21/19 23/23/23
f 24/24/24 21/22/22 6/12/8
f 18/21/19 3/9/5 6/12/8
f 18/21/19 6/12/8 21/22/22
f 23/23/23 18/21/19 25/25/25
f 9/15/11 13/19/15 26/26/26
f 14/20/16 9/15/11 8/14/10
f 14/20/16 8/14/10 27/27/27
f 14/20/16 27/27/27 28/28/28
f 13/19/15 9/15/11 14/20/16
f 29/29/29 9/15/11 26/26/26
f 24/24/24 6/12/8 30/30/30
f 7/13/9 29/29/29 31/31/31
f 29/29/29 7/13/9 9/15/11
f 31/31/31 32/32/32 7/13/9
f 2/8/4 30/30/30 6/12/8
f 2/8/4 33/33/33 30/30/30
f 33/33/33 2/8/4 34/34/34
f 7/13/9 35/35/35 36/36/36
f 35/35/35 7/13/9 37/37/37
f 37/37/37 32/32/32 38/38/38
f 37/37/37 7/13/9 32/32/32
f 39/39/39 34/34/34 2/8/4
f 40/40/40 2/8/4 41/41/41
f 34/34/34 39/39/39 42/42/42
f 39/39/39 2/8/4 40/40/40
f 36/36/36 43/43/43 44/44/44
f 36/36/36 44/44/44 45/45/45
f 43/43/43 36/36/36 35/35/35
f 41/41/41 46/46/46 47/47/47
f 40/40/40 41/41/41 47/47/47
f 46/46/46 41/41/41 48/48/48
f 36/36/36 49/49/49 50/50/50
f 36/36/36 51/51/51 49/49/49
f 36/36/36 52/52/52 53/53/53
f 52/52/52 36/36/36 45/45/45
f 51/51/51 36/36/36 53/53/53
f 41/41/41 54/54/54 55/55/55
f 41/41/41 55/55/55 56/56/56
f 57/57/57 41/41/41 56/56/56
f 41/41/41 57/57/57 48/48/48
f 54/54/54 41/41/41 58/58/58
f 12/18/14 7/13/9 50/50/50
f 59/59/59 12/18/14 50/50/50
f 12/18/14 59/59/59 60/60/60
f 50/50/50 7/13/9 36/36/36
f 1/7/3 58/58/58 2/8/4
f 58/58/58 1/7/3 61/61/61
f 2/8/4 58/58/58 41/41/41
f 61/61/61 1/7/3 62/62/62
