# Blender v3.1.2 OBJ File: 'car.blend'
# www.blender.org
mtllib Mesh_158.001.mtl
o Mesh_158_Mesh_158.001
v 0.929953 1.025589 -4.234086
v 0.930185 1.028985 -4.239483
v 0.929916 1.023823 -4.236080
v 0.930163 1.027928 -4.241009
v 0.930322 1.035091 -4.248538
v 0.930347 1.036302 -4.248258
v 0.930208 1.030075 -4.237961
v 0.930346 1.036248 -4.246727
v 0.929991 1.027375 -4.232078
v 0.987576 1.045685 -4.258817
v 0.955557 1.043842 -4.258916
v 0.955522 1.045699 -4.259044
v 0.987673 1.043863 -4.258906
v 1.088629 1.045062 -4.258527
v 1.088805 1.043282 -4.258892
v 0.987654 1.044820 -4.256449
v 1.088629 1.045062 -4.258527
v 0.987576 1.045685 -4.258817
v 1.088713 1.044072 -4.256033
v 0.955596 1.044929 -4.256779
v 0.955522 1.045699 -4.259044
v 0.938411 0.994272 -4.174609
v 0.956935 0.993022 -4.180333
v 0.956703 0.993916 -4.172847
v 0.938396 0.993280 -4.181712
v 0.929354 0.996968 -4.180379
v 0.929313 0.995050 -4.184620
v 0.938392 1.000310 -4.177600
v 0.929354 0.996968 -4.180379
v 0.938411 0.994272 -4.174609
v 0.929446 1.001405 -4.181021
v 0.956405 0.999873 -4.175766
v 0.956703 0.993916 -4.172847
v 0.989854 1.007483 -4.210444
v 0.956778 1.007706 -4.210376
v 0.956459 1.023480 -4.237859
v 0.989170 1.023442 -4.239641
v 0.956935 0.993022 -4.180333
v 0.990254 0.992558 -4.177857
v 1.092202 1.006592 -4.210532
v 1.092908 0.991363 -4.174722
v 1.091054 1.022787 -4.241897
v 0.938015 1.027498 -4.231193
v 0.938207 1.014007 -4.204729
v 0.955966 1.027078 -4.229992
v 0.956175 1.013540 -4.203140
v 0.929705 1.013755 -4.205809
v 0.929991 1.027375 -4.232078
v 0.937758 1.040937 -4.252806
v 0.955768 1.037578 -4.247020
v 0.955596 1.044929 -4.256779
v 0.937870 1.033783 -4.243548
v 0.930208 1.030075 -4.237961
v 0.930346 1.036248 -4.246727
v 0.956004 1.035451 -4.252693
v 0.988386 1.035480 -4.254067
v 1.089853 1.034909 -4.255809
v 0.929354 0.996968 -4.180379
v 0.929649 1.011055 -4.207938
v 0.929313 0.995050 -4.184620
v 0.929592 1.008366 -4.209967
v 0.929705 1.013755 -4.205809
v 0.929446 1.001405 -4.181021
v 0.930163 1.027928 -4.241009
v 0.930322 1.035091 -4.248538
v 0.937987 1.031380 -4.247772
v 0.937687 1.039775 -4.254767
v 0.938258 1.023500 -4.236868
v 0.929916 1.023823 -4.236080
v 1.088713 1.044072 -4.256033
v 0.987654 1.044820 -4.256449
v 0.987935 1.037112 -4.245790
v 1.089133 1.035915 -4.244234
v 0.988228 1.026321 -4.227829
v 1.089545 1.024756 -4.225091
v 0.988467 1.012700 -4.200282
v 1.089822 1.011029 -4.196661
v 0.988778 0.999089 -4.172469
v 1.090234 0.997488 -4.168295
v 0.929592 1.008366 -4.209967
v 0.938372 1.007830 -4.210337
v 0.929313 0.995050 -4.184620
v 0.938396 0.993280 -4.181712
v 1.091666 0.991859 -4.165679
v 0.990254 0.992558 -4.177857
v 1.092908 0.991363 -4.174722
v 0.989576 0.993277 -4.169683
v 0.989576 0.993277 -4.169683
v 1.091666 0.991859 -4.165679
v 0.930347 1.036302 -4.248258
v 0.937686 1.041652 -4.255016
v 0.937758 1.040937 -4.252806
v 0.937686 1.041652 -4.255016
v 0.930346 1.036248 -4.246727
v 0.930347 1.036302 -4.248258
vt -9.005185 -74.218300
vt -8.353800 -74.263161
vt -9.018313 -73.926971
vt -8.339028 -74.070175
vt -8.365382 -74.459320
vt -15.051149 -74.302681
vt -11.999060 -74.198372
vt -14.924550 -73.870255
vt -12.087319 -73.810959
vt -14.634930 -74.719055
vt -11.916750 -74.592506
vt -7.226851 -74.379471
vt -7.144195 -74.518547
vt -7.252514 -74.598526
vt -8.991436 -74.512611
vt 20.938019 -25.084518
vt 25.159479 -25.416309
vt 25.169209 -25.171370
vt 20.920200 -25.324770
vt 7.597419 -24.887430
vt 7.569250 -25.121870
vt 48.011448 -58.909500
vt 61.336239 -59.249527
vt 48.006859 -58.701050
vt 61.341419 -59.469028
vt 43.783890 -58.714630
vt 43.779728 -58.515240
vt -42.148781 -78.188789
vt -39.721809 -78.787460
vt -39.729099 -78.128777
vt -42.172501 -78.812500
vt -43.370750 -78.648277
vt -43.385361 -79.020699
vt 33.558289 -19.943409
vt 32.374451 -20.409590
vt 33.577480 -20.740370
vt 32.374458 -19.823589
vt 35.937187 -19.951319
vt 35.992920 -20.736820
vt 20.531719 -30.120869
vt 24.898329 -30.182949
vt 24.984030 -28.101620
vt 20.666090 -28.016169
vt 24.837059 -32.120781
vt 20.437630 -32.089878
vt 7.019419 -29.955460
vt 6.884111 -31.963820
vt 7.215668 -27.820990
vt 33.433361 -16.355629
vt 33.495979 -18.135860
vt 35.804028 -16.361410
vt 35.869019 -18.147869
vt 32.374451 -18.192659
vt 32.374458 -16.394039
vt 33.362301 -14.582450
vt 35.748878 -14.976001
vt 35.705879 -14.006109
vt 33.396778 -15.526400
vt 32.395699 -16.037039
vt 32.396858 -15.221880
vt 25.077219 -26.522770
vt 20.802900 -26.429310
vt 7.407730 -26.224129
vt 28.467409 -27.587200
vt 28.466228 -26.641239
vt 27.444170 -27.109909
vt 27.506929 -26.002569
vt 27.386610 -28.149309
vt 28.488649 -28.129690
vt 53.279488 -13.751169
vt 39.937809 -13.931950
vt 39.996227 -14.948560
vt 53.357548 -14.826839
vt 40.064720 -16.372179
vt 53.442799 -16.298620
vt 40.133907 -18.169470
vt 53.517227 -18.109819
vt 40.212578 -19.965250
vt 53.609077 -19.896049
vt 28.488649 -30.170898
vt 27.328178 -30.217449
vt 28.488649 -31.929409
vt 27.284880 -32.137890
vt -21.897310 -78.198051
vt -35.317238 -78.742500
vt -21.763329 -78.998505
vt -35.380558 -78.021187
vt 40.333920 -20.730249
vt 53.813747 -20.635130
vt 28.466228 -26.481329
vt 27.512320 -25.754789
vt 41.428448 -58.971569
vt 41.424530 -58.777058
vt 40.442799 -59.467487
vt 40.448071 -59.333138
vn -0.9990 0.0405 -0.0174
vn -0.9990 0.0423 -0.0149
vn -0.9989 0.0431 -0.0158
vn -0.9998 0.0209 0.0000
vn -0.9998 0.0210 -0.0000
vn -0.9995 0.0321 -0.0081
vn -0.9998 0.0211 -0.0009
vn -0.9995 0.0304 -0.0066
vn -0.9998 0.0215 -0.0005
vn -0.9993 0.0349 -0.0104
vn -0.9998 0.0222 0.0000
vn -0.9996 0.0286 -0.0067
vn -0.9995 0.0310 -0.0088
vn 0.0018 0.0465 -0.9989
vn -0.0704 -0.3241 -0.9434
vn -0.0921 -0.0703 -0.9933
vn -0.0077 -0.2404 -0.9706
vn 0.0013 0.1995 -0.9799
vn -0.0090 -0.1015 -0.9948
vn 0.0023 0.9392 0.3433
vn 0.0054 0.9297 0.3684
vn 0.0021 0.9395 0.3426
vn 0.0054 0.9295 0.3688
vn -0.0749 0.9434 0.3232
vn -0.0658 0.9441 0.3231
vn -0.1575 -0.9784 0.1338
vn -0.0259 -0.9924 0.1202
vn -0.0268 -0.9930 0.1152
vn -0.2042 -0.9632 0.1747
vn -0.3204 -0.8964 0.3062
vn -0.2961 -0.8693 0.3958
vn -0.1641 0.6668 0.7270
vn -0.3636 0.2332 0.9019
vn -0.2125 0.4323 0.8763
vn -0.2046 0.6458 0.7355
vn -0.0534 0.7035 0.7086
vn -0.0793 0.4346 0.8971
vn -0.0086 -0.8919 -0.4521
vn -0.0065 -0.8812 -0.4728
vn -0.0226 -0.8299 -0.5574
vn -0.0222 -0.8267 -0.5623
vn 0.0129 -0.9013 -0.4329
vn 0.0056 -0.9105 -0.4135
vn -0.0044 -0.9041 -0.4273
vn 0.0012 -0.9202 -0.3914
vn -0.0146 -0.8277 -0.5610
vn -0.0419 0.8916 0.4509
vn -0.0484 0.8916 0.4502
vn -0.0198 0.8767 0.4806
vn -0.0161 0.8937 0.4483
vn -0.0817 0.8897 0.4492
vn -0.0618 0.8979 0.4358
vn -0.0332 0.7925 0.6090
vn -0.0330 0.8226 0.5677
vn -0.0221 0.7984 0.6017
vn -0.0325 0.8349 0.5495
vn -0.0558 0.8773 0.4767
vn 0.0117 0.8034 0.5953
vn -0.0252 -0.6829 -0.7301
vn -0.0204 -0.6418 -0.7666
vn -0.0191 -0.5814 -0.8134
vn -0.9994 0.0324 -0.0098
vn -0.1609 -0.7662 -0.6221
vn -0.4533 -0.4197 -0.7864
vn -0.1279 -0.7240 -0.6779
vn -0.3350 -0.3577 -0.8717
vn -0.0642 -0.8321 -0.5509
vn -0.0849 -0.8158 -0.5721
vn 0.0012 0.8216 0.5700
vn -0.0028 0.8090 0.5879
vn -0.0043 0.8343 0.5513
vn 0.0005 0.8440 0.5364
vn -0.0058 0.8775 0.4796
vn -0.0002 0.8830 0.4694
vn -0.0089 0.8970 0.4419
vn -0.0019 0.9011 0.4336
vn -0.0369 0.6985 0.7147
vn -0.0191 0.6763 0.7364
vn -0.0736 -0.8706 -0.4865
vn -0.0384 -0.8745 -0.4836
vn -0.0356 -0.8899 -0.4548
vn -0.0055 -0.8942 -0.4476
vn -0.0134 -0.9984 0.0546
vn -0.0218 -0.9960 0.0871
vn -0.0132 -0.9985 0.0530
vn -0.0225 -0.9961 0.0858
vn -0.0520 0.4256 0.9034
vn -0.0299 0.4150 0.9093
vn -0.6955 0.1534 -0.7020
vn -0.3605 -0.1208 -0.9249
vn -0.2930 0.9096 0.2946
vn -0.2126 0.9274 0.3078
vn -0.5168 0.8556 0.0299
vn -0.5072 0.8604 0.0505
usemtl carbon.001
s off
f 1/1/1 2/2/1 3/3/1
f 4/4/2 3/3/2 2/2/2
f 2/2/3 1/1/3 7/5/3
f 58/6/4 59/7/4 60/8/4
f 60/8/4 59/7/4 61/9/4
f 63/10/5 59/7/5 58/6/5
f 59/7/5 63/10/5 62/11/5
s 1
f 2/2/6 5/12/7 4/4/8
f 5/12/7 2/2/6 6/13/9
f 7/5/10 8/14/11 2/2/6
f 6/13/9 2/2/6 8/14/11
f 9/15/12 7/5/10 1/1/13
f 10/16/14 11/17/15 12/18/16
f 11/17/15 10/16/14 13/19/17
f 14/20/18 13/19/17 10/16/14
f 15/21/19 13/19/17 14/20/18
f 16/22/20 17/23/21 18/24/22
f 17/23/21 16/22/20 19/25/23
f 20/26/24 18/24/22 21/27/25
f 18/24/22 20/26/24 16/22/20
f 22/28/26 23/29/27 24/30/28
f 23/29/27 22/28/26 25/31/29
f 26/32/30 25/31/29 22/28/26
f 25/31/29 26/32/30 27/33/31
f 28/34/32 29/35/33 30/36/34
f 29/35/33 28/34/32 31/37/35
f 32/38/36 30/36/34 33/39/37
f 30/36/34 32/38/36 28/34/32
f 34/40/38 35/41/39 36/42/40
f 34/40/38 36/42/40 37/43/41
f 38/44/42 34/40/38 39/45/43
f 34/40/38 38/44/42 35/41/39
f 39/45/43 40/46/44 41/47/45
f 40/46/44 39/45/43 34/40/38
f 34/40/38 42/48/46 40/46/44
f 42/48/46 34/40/38 37/43/41
f 43/49/47 44/50/48 45/51/49
f 45/51/49 44/50/48 46/52/50
f 44/50/48 28/34/32 46/52/50
f 46/52/50 28/34/32 32/38/36
f 47/53/51 31/37/35 44/50/48
f 28/34/32 44/50/48 31/37/35
f 48/54/52 47/53/51 43/49/47
f 43/49/47 47/53/51 44/50/48
f 49/55/53 50/56/54 51/57/55
f 50/56/54 49/55/53 52/58/56
f 52/58/56 45/51/49 50/56/54
f 45/51/49 52/58/56 43/49/47
f 43/49/47 53/59/57 48/54/52
f 53/59/57 43/49/47 52/58/56
f 52/58/56 54/60/58 53/59/57
f 54/60/58 52/58/56 49/55/53
f 13/19/17 55/61/59 11/17/15
f 55/61/59 13/19/17 56/62/60
f 37/43/41 36/42/40 55/61/59
f 37/43/41 55/61/59 56/62/60
f 37/43/41 57/63/61 42/48/46
f 57/63/61 37/43/41 56/62/60
f 15/21/19 56/62/60 13/19/17
f 56/62/60 15/21/19 57/63/61
f 59/7/4 1/1/13 61/9/5
f 3/3/62 61/9/5 1/1/13
f 62/11/4 9/15/12 59/7/4
f 1/1/13 59/7/4 9/15/12
f 64/64/63 65/65/64 66/66/65
f 65/65/64 67/67/66 66/66/65
f 68/68/67 64/64/63 66/66/65
f 68/68/67 69/69/68 64/64/63
f 36/42/40 68/68/67 66/66/65
f 36/42/40 66/66/65 55/61/59
f 67/67/66 11/17/15 55/61/59
f 67/67/66 55/61/59 66/66/65
f 70/70/69 71/71/70 72/72/71
f 70/70/69 72/72/71 73/73/72
f 73/73/72 72/72/71 74/74/73
f 73/73/72 74/74/73 75/75/74
f 72/72/71 50/56/54 45/51/49
f 72/72/71 45/51/49 74/74/73
f 71/71/70 51/57/55 50/56/54
f 71/71/70 50/56/54 72/72/71
f 75/75/74 74/74/73 76/76/75
f 75/75/74 76/76/75 77/77/76
f 77/77/76 76/76/75 78/78/77
f 77/77/76 78/78/77 79/79/78
f 46/52/50 32/38/36 76/76/75
f 76/76/75 32/38/36 78/78/77
f 45/51/49 46/52/50 74/74/73
f 74/74/73 46/52/50 76/76/75
f 80/80/79 69/69/68 81/81/80
f 81/81/80 69/69/68 68/68/67
f 82/82/81 81/81/80 83/83/82
f 81/81/80 82/82/81 80/80/79
f 83/83/82 35/41/39 38/44/42
f 35/41/39 83/83/82 81/81/80
f 35/41/39 81/81/80 68/68/67
f 35/41/39 68/68/67 36/42/40
f 84/84/83 85/85/84 86/86/85
f 85/85/84 84/84/83 87/87/86
f 24/30/28 85/85/84 87/87/86
f 85/85/84 24/30/28 23/29/27
f 78/78/77 33/39/37 88/88/87
f 33/39/37 78/78/77 32/38/36
f 79/79/78 88/88/87 89/89/88
f 88/88/87 79/79/78 78/78/77
f 90/90/89 67/67/66 65/65/64
f 67/67/66 90/90/89 91/91/90
f 91/91/90 11/17/15 67/67/66
f 11/17/15 91/91/90 12/18/16
f 92/92/91 20/26/24 93/93/92
f 21/27/25 93/93/92 20/26/24
f 94/94/93 92/92/91 95/95/94
f 93/93/92 95/95/94 92/92/91
