# Blender v3.1.2 OBJ File: 'car.blend'
# www.blender.org
mtllib Mesh_197.001.mtl
o Mesh_197_Mesh_197.001
v 0.591507 1.791575 0.063916
v 0.581934 1.793280 0.076805
v 0.587727 1.793491 0.078366
v 0.585702 1.791378 0.062397
v 0.587727 1.793491 0.078366
v 0.587727 1.763496 0.078366
v 0.591507 1.791575 0.063916
v 0.591507 1.761575 0.063916
v 0.585702 1.791378 0.062397
v 0.581934 1.763284 0.076805
v 0.581934 1.793280 0.076805
v 0.585702 1.761378 0.062397
v 0.583777 1.795455 0.092598
v 0.578000 1.795227 0.090977
v 0.583777 1.795455 0.092598
v 0.583777 1.765475 0.092598
v 0.578000 1.765246 0.090977
v 0.578000 1.795227 0.090977
v 0.579764 1.797483 0.106740
v 0.573989 1.797246 0.105113
v 0.579764 1.797483 0.106740
v 0.579764 1.767527 0.106740
v 0.573989 1.767287 0.105113
v 0.573989 1.797246 0.105113
v 0.575787 1.799598 0.120957
v 0.569999 1.799359 0.119378
v 0.575787 1.799598 0.120957
v 0.575787 1.769675 0.120957
v 0.569999 1.769432 0.119378
v 0.569999 1.799359 0.119378
v 0.571945 1.801827 0.135413
v 0.566130 1.801595 0.133933
v 0.571945 1.801827 0.135413
v 0.571945 1.771947 0.135413
v 0.566130 1.771711 0.133933
v 0.566130 1.801595 0.133933
v 0.568332 1.804201 0.150275
v 0.562482 1.803985 0.148942
v 0.568332 1.804201 0.150275
v 0.568332 1.774376 0.150275
v 0.562482 1.774154 0.148942
v 0.562482 1.803985 0.148942
v 0.565046 1.806756 0.165712
v 0.559156 1.806563 0.164564
v 0.565046 1.806756 0.165712
v 0.565046 1.776997 0.165712
v 0.559156 1.776799 0.164564
v 0.559156 1.806563 0.164564
v 0.562182 1.809531 0.181891
v 0.556254 1.809368 0.180960
v 0.562182 1.809531 0.181891
v 0.562182 1.779853 0.181891
v 0.556254 1.779686 0.180960
v 0.556254 1.809368 0.180960
v 0.559837 1.812569 0.198981
v 0.553876 1.812444 0.198289
v 0.559837 1.812569 0.198981
v 0.559837 1.782991 0.198981
v 0.553876 1.782861 0.198289
v 0.553876 1.812444 0.198289
v 0.558107 1.815921 0.217152
v 0.552122 1.815838 0.216711
v 0.558107 1.815921 0.217152
v 0.558107 1.786462 0.217152
v 0.552122 1.786376 0.216711
v 0.552122 1.815838 0.216711
v 0.551092 1.819605 0.236385
v 0.557090 1.819642 0.236571
v 0.557090 1.819642 0.236571
v 0.557090 1.790327 0.236571
v 0.551091 1.790289 0.236385
v 0.551092 1.819605 0.236385
v 0.550884 1.823806 0.257472
v 0.556885 1.823793 0.257407
v 0.556885 1.823793 0.257407
v 0.556885 1.794652 0.257407
v 0.550884 1.794666 0.257472
v 0.550884 1.823806 0.257472
v 0.551594 1.828496 0.280075
v 0.557591 1.828456 0.279886
v 0.557591 1.828456 0.279886
v 0.557591 1.799525 0.279886
v 0.551594 1.799567 0.280075
v 0.551594 1.828496 0.280075
v 0.591507 1.791575 0.063916
v 0.591507 1.761575 0.063916
v 0.585702 1.791378 0.062397
v 0.585702 1.761378 0.062397
v 0.557591 1.799525 0.279886
v 0.557591 1.828456 0.279886
v 0.551594 1.828496 0.280075
v 0.551594 1.799567 0.280075
v -0.591507 1.791575 0.063916
v -0.581934 1.793280 0.076805
v -0.585702 1.791378 0.062397
v -0.587727 1.793491 0.078367
v -0.591507 1.791575 0.063916
v -0.587727 1.763496 0.078367
v -0.587727 1.793491 0.078367
v -0.591507 1.761575 0.063916
v -0.585702 1.791378 0.062397
v -0.581934 1.763284 0.076805
v -0.585702 1.761378 0.062397
v -0.581934 1.793280 0.076805
v -0.583777 1.795455 0.092598
v -0.578000 1.795227 0.090977
v -0.583777 1.765475 0.092598
v -0.583777 1.795455 0.092598
v -0.578000 1.765246 0.090977
v -0.578000 1.795227 0.090977
v -0.579764 1.797483 0.106740
v -0.573989 1.797246 0.105113
v -0.579764 1.767527 0.106740
v -0.579764 1.797483 0.106740
v -0.573989 1.767287 0.105113
v -0.573989 1.797246 0.105113
v -0.575787 1.799598 0.120957
v -0.569999 1.799359 0.119378
v -0.575787 1.769675 0.120957
v -0.575787 1.799598 0.120957
v -0.569999 1.769432 0.119378
v -0.569999 1.799359 0.119378
v -0.571945 1.801827 0.135413
v -0.566130 1.801595 0.133933
v -0.571945 1.771947 0.135413
v -0.571945 1.801827 0.135413
v -0.566130 1.771711 0.133933
v -0.566130 1.801595 0.133933
v -0.568332 1.804201 0.150275
v -0.562482 1.803985 0.148942
v -0.568332 1.774376 0.150275
v -0.568332 1.804201 0.150275
v -0.562482 1.774154 0.148942
v -0.562482 1.803985 0.148942
v -0.565046 1.806756 0.165712
v -0.559156 1.806563 0.164564
v -0.565046 1.776997 0.165712
v -0.565046 1.806756 0.165712
v -0.559156 1.776799 0.164564
v -0.559156 1.806563 0.164564
v -0.562182 1.809531 0.181891
v -0.556254 1.809368 0.180960
v -0.562182 1.779853 0.181891
v -0.562182 1.809531 0.181891
v -0.556254 1.779686 0.180960
v -0.556254 1.809368 0.180960
v -0.559837 1.812569 0.198981
v -0.553876 1.812444 0.198289
v -0.559837 1.782991 0.198981
v -0.559837 1.812569 0.198981
v -0.553876 1.782861 0.198289
v -0.553876 1.812444 0.198289
v -0.558107 1.815921 0.217152
v -0.552122 1.815838 0.216710
v -0.558107 1.786462 0.217152
v -0.558107 1.815921 0.217152
v -0.552122 1.786376 0.216710
v -0.552122 1.815838 0.216710
v -0.551091 1.819605 0.236384
v -0.557090 1.819642 0.236571
v -0.557090 1.790327 0.236571
v -0.557090 1.819642 0.236571
v -0.551091 1.790289 0.236384
v -0.551091 1.819605 0.236384
v -0.550884 1.823806 0.257472
v -0.556885 1.823793 0.257407
v -0.556885 1.794652 0.257407
v -0.556885 1.823793 0.257407
v -0.550884 1.794666 0.257472
v -0.550884 1.823806 0.257472
v -0.551594 1.828496 0.280075
v -0.557591 1.828456 0.279886
v -0.557591 1.799525 0.279886
v -0.557591 1.828456 0.279886
v -0.551594 1.799567 0.280075
v -0.551594 1.828496 0.280075
v -0.585702 1.791378 0.062397
v -0.591507 1.761575 0.063916
v -0.591507 1.791575 0.063916
v -0.585702 1.761378 0.062397
v -0.557591 1.799525 0.279886
v -0.551594 1.828496 0.280075
v -0.557591 1.828456 0.279886
v -0.551594 1.799567 0.280075
vt 51.925789 -61.532810
vt 52.695240 -61.164497
vt 52.717838 -61.482487
vt 51.905567 -61.214668
vt 46.063618 -10.412280
vt 46.367908 -8.850015
vt 46.821751 -10.450170
vt 47.126297 -8.886673
vt -3.947005 -23.686119
vt -3.431180 -22.104359
vt -3.188341 -23.677509
vt -4.190031 -22.111769
vt 62.368549 -61.692719
vt 63.604450 -61.647087
vt 63.533688 -61.957928
vt 62.432877 -61.380417
vt 22.827650 -61.957928
vt 21.233679 -61.957928
vt 22.817190 -61.639149
vt 21.223230 -61.639149
vt 53.761757 -27.982830
vt 53.761757 -29.519999
vt 53.443130 -29.522129
vt 53.443130 -27.985039
vt 3.567963 -56.548107
vt 2.807688 -56.150757
vt 3.601327 -56.230907
vt 2.771872 -56.467728
vt 58.979130 -20.664520
vt 59.495350 -19.083380
vt 59.738178 -20.656370
vt 58.736118 -19.090279
vt 67.246849 -23.810690
vt 66.793449 -22.209929
vt 67.551414 -22.247080
vt 66.489105 -23.772350
vt -7.007139 -56.318218
vt -8.262387 -56.227478
vt -7.059216 -56.003647
vt -8.203717 -56.540817
vt 25.614189 -61.957928
vt 24.030670 -61.649509
vt 25.624640 -61.649509
vt 24.020220 -61.957928
vt -8.262387 -38.016647
vt -7.943753 -39.555950
vt -8.262387 -39.553818
vt -7.943753 -38.018867
vt 47.583927 -10.492310
vt 47.888618 -8.928040
vt 48.357048 -10.539189
vt 48.661808 -8.974609
vt -5.478941 -23.715649
vt -4.950119 -22.123650
vt -4.706983 -23.698729
vt -5.722115 -22.140329
vt 53.500187 -61.421047
vt 53.474319 -61.103298
vt 54.278488 -61.355419
vt 54.252300 -61.037708
vt 55.060310 -61.292439
vt 55.036758 -60.974518
vt 45.300709 -10.378150
vt 45.604668 -8.817636
vt -2.664752 -22.101400
vt -2.422168 -23.672869
vt 55.853260 -61.238899
vt 55.835167 -60.920597
vt 44.524158 -10.347569
vt 44.827667 -8.789281
vt -1.881960 -22.103050
vt -1.639726 -23.672289
vt 56.665070 -61.201477
vt 56.654968 -60.882797
vt 43.724918 -10.320430
vt 44.027878 -8.764952
vt -1.074051 -22.109680
vt -0.832255 -23.676119
vt 57.503510 -61.186897
vt 57.503468 -60.868057
vt 42.893917 -10.296840
vt 43.196198 -8.744853
vt -0.232292 -22.121929
vt 0.008972 -23.684870
vt 58.376369 -61.201897
vt 58.388039 -60.883247
vt 42.021950 -10.277190
vt 42.323418 -8.729446
vt 0.652067 -22.140640
vt 0.892672 -23.699270
vt 59.291508 -61.253178
vt 59.315937 -60.935257
vt 41.099777 -10.262050
vt 41.400238 -8.719458
vt 1.587759 -22.166910
vt 1.827559 -23.720310
vt 60.256710 -61.347549
vt 60.294510 -61.030907
vt 40.118088 -10.252299
vt 40.417328 -8.715950
vt 2.583571 -22.202160
vt 2.822402 -23.749229
vt 61.331028 -61.177048
vt 61.279808 -61.491779
vt 39.067528 -10.249070
vt 39.365330 -8.720245
vt 3.648396 -22.248169
vt 3.886043 -23.787569
vt 37.938721 -10.253890
vt 38.234730 -8.734139
vt 4.791193 -22.307060
vt 5.027391 -23.837219
vt 36.719021 -10.268740
vt 37.012920 -8.759901
vt 6.017786 -22.381170
vt 6.252274 -23.900269
vt 57.441509 -20.693260
vt 57.972748 -19.101719
vt 58.215878 -20.676739
vt 57.198338 -19.117950
vt 68.776459 -23.900269
vt 68.310455 -22.288750
vt 69.081215 -22.335680
vt 68.005760 -23.853079
vt 1.985446 -56.376678
vt 2.024625 -56.060070
vt 1.202774 -56.281677
vt 1.242335 -55.965118
vt 0.415933 -56.189297
vt 0.452878 -55.872387
vt 60.259258 -19.080940
vt 60.501808 -20.652199
vt 66.027740 -22.176920
vt 65.723717 -23.737669
vt -0.383099 -56.105968
vt -0.351595 -55.788498
vt 61.036789 -19.083069
vt 61.278988 -20.652060
vt 65.245461 -22.147879
vt 64.941902 -23.706419
vt -1.202430 -56.038158
vt -1.178912 -55.719990
vt 61.836899 -19.090120
vt 62.078678 -20.656279
vt 64.437920 -22.122839
vt 64.134888 -23.678589
vt -2.050234 -55.992287
vt -2.036865 -55.673569
vt 62.668728 -19.102640
vt 62.909969 -20.665300
vt 63.596317 -22.102089
vt 63.293957 -23.654360
vt -2.934784 -55.974789
vt -2.933222 -55.655819
vt 63.541458 -19.121460
vt 63.782028 -20.679850
vt 62.711918 -22.086090
vt 62.410389 -23.634100
vt -3.864400 -55.992107
vt -3.875773 -55.673378
vt 64.464310 -19.147680
vt 64.704086 -20.700880
vt 61.775898 -22.075659
vt 61.475407 -23.618460
vt -4.847415 -56.050747
vt -4.872345 -55.732838
vt 65.446602 -19.182690
vt 65.685387 -20.729580
vt 60.779469 -22.071859
vt 60.480179 -23.608370
vt -5.930836 -55.840748
vt -5.892210 -56.157257
vt 66.497665 -19.228230
vt 66.735268 -20.767580
vt 59.713657 -22.076069
vt 59.415867 -23.604969
vt 67.626808 -19.286449
vt 67.863022 -20.816639
vt 58.569450 -22.090120
vt 58.273430 -23.609838
vt 68.846710 -19.360090
vt 69.081215 -20.879280
vt 57.340889 -22.116089
vt 57.047020 -23.624819
vn -0.0006 0.9913 -0.1316
vn 0.0006 0.9914 -0.1307
vn 0.9620 0.0000 0.2730
vn -0.9620 -0.0000 -0.2730
vn 0.0001 0.9792 -0.2031
vn -0.0001 0.9791 -0.2032
vn 0.2530 0.0000 -0.9675
vn 0.0314 0.0000 0.9995
vn -0.0006 0.9914 -0.1307
vn 0.0006 0.9913 -0.1316
vn -0.9620 0.0000 0.2730
vn 0.9620 0.0000 -0.2730
vn 0.0001 0.9791 -0.2032
vn -0.0001 0.9792 -0.2031
vn -0.2530 0.0000 -0.9675
vn -0.0314 0.0000 0.9995
vn 0.9654 0.0000 0.2609
vn 0.9657 0.0000 0.2597
vn 0.9675 0.0000 0.2530
vn -0.9675 0.0000 -0.2530
vn -0.9657 0.0000 -0.2597
vn -0.9654 0.0000 -0.2609
vn -0.0000 0.9910 -0.1339
vn 0.0001 0.9903 -0.1391
vn 0.0000 0.9910 -0.1341
vn -0.0002 0.9903 -0.1390
vn 0.9627 0.0000 0.2705
vn 0.9629 0.0000 0.2700
vn -0.9629 0.0000 -0.2700
vn -0.9627 -0.0000 -0.2705
vn 0.0002 0.9895 -0.1443
vn -0.0002 0.9895 -0.1442
vn 0.0001 0.9888 -0.1495
vn -0.0002 0.9888 -0.1494
vn 0.9649 0.0000 0.2626
vn 0.9646 0.0000 0.2637
vn 0.9626 0.0000 0.2710
vn 0.9625 0.0000 0.2713
vn -0.9626 -0.0000 -0.2710
vn -0.9646 -0.0000 -0.2637
vn -0.9649 -0.0000 -0.2626
vn -0.9625 0.0000 -0.2713
vn 0.0001 0.9879 -0.1548
vn -0.0002 0.9880 -0.1548
vn 0.9694 0.0000 0.2456
vn 0.9689 0.0000 0.2476
vn -0.9689 -0.0000 -0.2476
vn -0.9694 0.0000 -0.2456
vn 0.0002 0.9871 -0.1603
vn -0.0001 0.9871 -0.1602
vn 0.9753 0.0000 0.2208
vn 0.9747 0.0000 0.2237
vn -0.9747 0.0000 -0.2237
vn -0.9753 0.0000 -0.2208
vn 0.0002 0.9861 -0.1660
vn -0.0001 0.9861 -0.1659
vn 0.9819 0.0000 0.1895
vn 0.9812 0.0000 0.1931
vn -0.9812 0.0000 -0.1931
vn -0.9819 0.0000 -0.1895
vn 0.0000 0.9851 -0.1719
vn -0.0002 0.9851 -0.1718
vn 0.9882 0.0000 0.1531
vn 0.9875 0.0000 0.1573
vn -0.9876 0.0000 -0.1573
vn -0.9882 0.0000 -0.1531
vn 0.0001 0.9840 -0.1781
vn -0.0000 0.9840 -0.1781
vn 0.9936 0.0000 0.1131
vn 0.9930 0.0000 0.1178
vn -0.9930 0.0000 -0.1178
vn -0.9936 0.0000 -0.1131
vn 0.0000 0.9828 -0.1847
vn -0.0000 0.9828 -0.1846
vn 0.9975 0.0000 0.0711
vn 0.9971 0.0000 0.0762
vn -0.9971 0.0000 -0.0762
vn -0.9975 0.0000 -0.0711
vn -0.0000 0.9814 -0.1918
vn -0.0001 0.9814 -0.1918
vn 0.9996 -0.0000 0.0285
vn 0.9994 0.0000 0.0338
vn -0.9994 0.0000 -0.0338
vn -0.9996 0.0000 -0.0285
vn -0.0000 0.9799 -0.1993
vn 0.9999 -0.0000 -0.0134
vn 1.0000 -0.0000 -0.0080
vn -1.0000 0.0000 0.0080
vn -0.9999 0.0000 0.0134
vn 0.9995 0.0000 -0.0314
vn -0.9995 0.0000 0.0314
vn -0.9675 0.0000 0.2530
vn -0.9657 0.0000 0.2597
vn -0.9654 0.0000 0.2608
vn 0.9675 0.0000 -0.2530
vn 0.9657 0.0000 -0.2597
vn 0.9654 0.0000 -0.2609
vn -0.0000 0.9910 -0.1340
vn -0.0001 0.9903 -0.1391
vn 0.0002 0.9903 -0.1390
vn -0.9629 0.0000 0.2700
vn -0.9627 0.0000 0.2705
vn 0.9629 0.0000 -0.2700
vn 0.9627 0.0000 -0.2705
vn -0.0002 0.9895 -0.1443
vn 0.0002 0.9895 -0.1442
vn -0.0001 0.9888 -0.1495
vn 0.0002 0.9888 -0.1494
vn -0.9626 0.0000 0.2710
vn -0.9646 0.0000 0.2637
vn -0.9649 0.0000 0.2626
vn -0.9625 0.0000 0.2713
vn 0.9626 -0.0000 -0.2710
vn 0.9646 -0.0000 -0.2637
vn 0.9625 0.0000 -0.2713
vn 0.9649 -0.0000 -0.2626
vn -0.0001 0.9879 -0.1548
vn 0.0002 0.9879 -0.1548
vn -0.9689 0.0000 0.2476
vn -0.9694 0.0000 0.2456
vn 0.9689 0.0000 -0.2476
vn 0.9694 0.0000 -0.2456
vn -0.0002 0.9871 -0.1603
vn 0.0001 0.9871 -0.1602
vn -0.9747 0.0000 0.2237
vn -0.9753 0.0000 0.2208
vn 0.9747 0.0000 -0.2237
vn 0.9753 -0.0000 -0.2208
vn -0.0002 0.9861 -0.1660
vn 0.0001 0.9861 -0.1659
vn -0.9812 0.0000 0.1931
vn -0.9819 0.0000 0.1895
vn 0.9812 -0.0000 -0.1931
vn 0.9819 -0.0000 -0.1895
vn 0.0002 0.9851 -0.1718
vn -0.9875 0.0000 0.1573
vn -0.9882 0.0000 0.1531
vn 0.9875 0.0000 -0.1573
vn 0.9882 0.0000 -0.1531
vn -0.0001 0.9840 -0.1781
vn -0.9930 0.0000 0.1178
vn -0.9936 0.0000 0.1131
vn 0.9930 0.0000 -0.1178
vn 0.9936 0.0000 -0.1131
vn -0.9971 0.0000 0.0762
vn -0.9975 0.0000 0.0710
vn 0.9971 0.0000 -0.0762
vn 0.9975 0.0000 -0.0711
vn 0.0001 0.9814 -0.1918
vn -0.9994 -0.0000 0.0338
vn -0.9996 0.0000 0.0285
vn 0.9994 0.0000 -0.0338
vn 0.9996 0.0000 -0.0285
vn -1.0000 -0.0000 -0.0080
vn -0.9999 0.0000 -0.0134
vn 1.0000 0.0000 0.0080
vn 0.9999 0.0000 0.0134
vn -0.9995 0.0000 -0.0314
vn 0.9995 0.0000 0.0314
usemtl carbon.001
s off
f 1/1/1 2/2/1 3/3/1
f 2/2/2 1/1/2 4/4/2
f 21/5/3 22/6/3 15/7/3
f 15/7/3 22/6/3 16/8/3
f 18/9/4 23/10/4 24/11/4
f 23/10/4 18/9/4 17/12/4
f 74/13/5 79/14/5 80/15/5
f 79/14/6 74/13/6 73/16/6
f 85/17/7 86/18/7 87/19/7
f 87/19/7 86/18/7 88/20/7
f 89/21/8 90/22/8 91/23/8
f 92/24/8 89/21/8 91/23/8
f 93/25/9 94/26/9 95/27/9
f 94/26/10 93/25/10 96/28/10
f 108/29/11 113/30/11 114/31/11
f 113/30/11 108/29/11 107/32/11
f 110/33/12 115/34/12 109/35/12
f 115/34/12 110/33/12 116/36/12
f 166/37/13 171/38/13 165/39/13
f 171/38/14 166/37/14 172/40/14
f 177/41/15 178/42/15 179/43/15
f 178/42/15 177/41/15 180/44/15
f 181/45/16 182/46/16 183/47/16
f 184/48/16 182/46/16 181/45/16
s 1
f 5/49/17 6/50/18 7/51/19
f 7/51/19 6/50/18 8/52/19
f 9/53/20 10/54/21 11/55/22
f 10/54/21 9/53/20 12/56/20
f 2/2/23 13/57/24 3/3/25
f 13/57/24 2/2/23 14/58/26
f 15/7/27 16/8/28 5/49/17
f 5/49/17 16/8/28 6/50/18
f 11/55/22 17/12/29 18/9/30
f 17/12/29 11/55/22 10/54/21
f 14/58/26 19/59/31 13/57/24
f 19/59/31 14/58/26 20/60/32
f 20/60/32 25/61/33 19/59/31
f 25/61/33 20/60/32 26/62/34
f 27/63/35 28/64/36 21/5/37
f 21/5/37 28/64/36 22/6/38
f 24/11/39 29/65/40 30/66/41
f 29/65/40 24/11/39 23/10/42
f 26/62/34 31/67/43 25/61/33
f 31/67/43 26/62/34 32/68/44
f 33/69/45 34/70/46 27/63/35
f 27/63/35 34/70/46 28/64/36
f 30/66/41 35/71/47 36/72/48
f 35/71/47 30/66/41 29/65/40
f 32/68/44 37/73/49 31/67/43
f 37/73/49 32/68/44 38/74/50
f 39/75/51 40/76/52 33/69/45
f 33/69/45 40/76/52 34/70/46
f 36/72/48 41/77/53 42/78/54
f 41/77/53 36/72/48 35/71/47
f 38/74/50 43/79/55 37/73/49
f 43/79/55 38/74/50 44/80/56
f 45/81/57 46/82/58 39/75/51
f 39/75/51 46/82/58 40/76/52
f 42/78/54 47/83/59 48/84/60
f 47/83/59 42/78/54 41/77/53
f 44/80/56 49/85/61 43/79/55
f 49/85/61 44/80/56 50/86/62
f 45/81/57 51/87/63 52/88/64
f 45/81/57 52/88/64 46/82/58
f 48/84/60 53/89/65 54/90/66
f 53/89/65 48/84/60 47/83/59
f 50/86/62 55/91/67 49/85/61
f 55/91/67 50/86/62 56/92/68
f 51/87/63 57/93/69 58/94/70
f 51/87/63 58/94/70 52/88/64
f 54/90/66 59/95/71 60/96/72
f 59/95/71 54/90/66 53/89/65
f 56/92/68 61/97/73 55/91/67
f 61/97/73 56/92/68 62/98/74
f 57/93/69 63/99/75 64/100/76
f 57/93/69 64/100/76 58/94/70
f 60/96/72 65/101/77 66/102/78
f 65/101/77 60/96/72 59/95/71
f 61/97/73 67/103/79 68/104/80
f 67/103/79 61/97/73 62/98/74
f 63/99/75 69/105/81 70/106/82
f 63/99/75 70/106/82 64/100/76
f 66/102/78 71/107/83 72/108/84
f 71/107/83 66/102/78 65/101/77
f 68/104/80 73/16/85 74/13/85
f 73/16/85 68/104/80 67/103/79
f 69/105/81 75/109/86 76/110/87
f 69/105/81 76/110/87 70/106/82
f 72/108/84 77/111/88 78/112/89
f 77/111/88 72/108/84 71/107/83
f 75/109/86 81/113/90 82/114/90
f 75/109/86 82/114/90 76/110/87
f 78/112/89 83/115/91 84/116/91
f 83/115/91 78/112/89 77/111/88
f 97/117/92 98/118/93 99/119/94
f 98/118/93 97/117/92 100/120/92
f 101/121/95 102/122/96 103/123/95
f 102/122/96 101/121/95 104/124/97
f 96/28/98 105/125/99 94/26/23
f 105/125/99 106/126/100 94/26/23
f 99/119/94 107/32/101 108/29/102
f 107/32/101 99/119/94 98/118/93
f 104/124/97 109/35/103 102/122/96
f 109/35/103 104/124/97 110/33/104
f 105/125/99 111/127/105 106/126/100
f 111/127/105 112/128/106 106/126/100
f 111/127/105 117/129/107 112/128/106
f 117/129/107 118/130/108 112/128/106
f 114/31/109 119/131/110 120/132/111
f 119/131/110 114/31/109 113/30/112
f 116/36/113 121/133/114 115/34/115
f 121/133/114 116/36/113 122/134/116
f 117/129/107 123/135/117 118/130/108
f 123/135/117 124/136/118 118/130/108
f 120/132/111 125/137/119 126/138/120
f 125/137/119 120/132/111 119/131/110
f 122/134/116 127/139/121 121/133/114
f 127/139/121 122/134/116 128/140/122
f 123/135/117 129/141/123 124/136/118
f 129/141/123 130/142/124 124/136/118
f 126/138/120 131/143/125 132/144/126
f 131/143/125 126/138/120 125/137/119
f 128/140/122 133/145/127 127/139/121
f 133/145/127 128/140/122 134/146/128
f 129/141/123 135/147/129 130/142/124
f 135/147/129 136/148/130 130/142/124
f 132/144/126 137/149/131 138/150/132
f 137/149/131 132/144/126 131/143/125
f 134/146/128 139/151/133 133/145/127
f 139/151/133 134/146/128 140/152/134
f 135/147/129 141/153/61 136/148/130
f 141/153/61 142/154/135 136/148/130
f 138/150/132 143/155/136 144/156/137
f 143/155/136 138/150/132 137/149/131
f 140/152/134 145/157/138 139/151/133
f 145/157/138 140/152/134 146/158/139
f 141/153/61 147/159/140 142/154/135
f 147/159/140 148/160/68 142/154/135
f 144/156/137 149/161/141 150/162/142
f 149/161/141 144/156/137 143/155/136
f 146/158/139 151/163/143 145/157/138
f 151/163/143 146/158/139 152/164/144
f 147/159/140 153/165/73 148/160/68
f 153/165/73 154/166/74 148/160/68
f 150/162/142 155/167/145 156/168/146
f 155/167/145 150/162/142 149/161/141
f 152/164/144 157/169/147 151/163/143
f 157/169/147 152/164/144 158/170/148
f 153/165/73 159/171/79 154/166/74
f 159/171/79 153/165/73 160/172/149
f 156/168/146 161/173/150 162/174/151
f 161/173/150 156/168/146 155/167/145
f 158/170/148 163/175/152 157/169/147
f 163/175/152 158/170/148 164/176/153
f 160/172/149 165/39/85 159/171/79
f 165/39/85 160/172/149 166/37/85
f 162/174/151 167/177/154 168/178/155
f 167/177/154 162/174/151 161/173/150
f 164/176/153 169/179/156 163/175/152
f 169/179/156 164/176/153 170/180/157
f 168/178/155 173/181/158 174/182/158
f 173/181/158 168/178/155 167/177/154
f 170/180/157 175/183/159 169/179/156
f 175/183/159 170/180/157 176/184/159
