# Blender v3.1.2 OBJ File: 'car.blend'
# www.blender.org
mtllib Mesh_1.001.mtl
o Mesh_1_Mesh_1.001
v -1.032063 1.973736 -5.109859
v -1.035811 1.944579 -5.109769
v -1.032063 1.944579 -5.109769
v -1.035811 1.973736 -5.109859
v -1.035811 1.973736 -5.133709
v -1.032063 1.969658 -5.132990
v -1.035811 1.969658 -5.132990
v -1.032063 1.973736 -5.133709
v -1.035811 1.977815 -5.132990
v -1.032063 1.977815 -5.132990
v -1.032063 1.981401 -5.130919
v -1.035811 1.981401 -5.130919
v -1.035811 1.984063 -5.127747
v -1.032063 1.984063 -5.127747
v -1.032063 1.984063 -5.127747
v -1.035811 1.985480 -5.123855
v -1.032063 1.985480 -5.123855
v -1.035811 1.984063 -5.127747
v -1.035811 1.985480 -5.119713
v -1.032063 1.985480 -5.119713
v -1.035811 1.984063 -5.115821
v -1.032063 1.984063 -5.115821
v -1.032063 1.984063 -5.115821
v -1.035811 1.981401 -5.112649
v -1.032063 1.981401 -5.112649
v -1.035811 1.984063 -5.115821
v -1.032063 1.977815 -5.110578
v -1.035811 1.977815 -5.110578
v -1.035811 1.973736 -5.109859
v -1.035811 1.953815 -5.119184
v -1.035811 1.949715 -5.115437
v -1.035811 1.944579 -5.109769
v -1.035811 1.984063 -5.115821
v -1.035811 1.981401 -5.112649
v -1.035811 1.977815 -5.132990
v -1.035811 1.984063 -5.127747
v -1.035811 1.981401 -5.130919
v -1.035811 1.977815 -5.110578
v -1.035811 1.985480 -5.119713
v -1.035811 1.985480 -5.123855
v -1.035811 1.966071 -5.130919
v -1.035811 1.973736 -5.133709
v -1.035811 1.969658 -5.132990
v -1.035811 1.963409 -5.127747
v -1.035811 1.959235 -5.123846
v -1.035811 1.946526 -5.112932
v -1.032063 1.973736 -5.109859
v -1.032063 1.966071 -5.130919
v -1.032063 1.977815 -5.132990
v -1.032063 1.984063 -5.115821
v -1.032063 1.949715 -5.115437
v -1.032063 1.944579 -5.109769
v -1.032063 1.946526 -5.112932
v -1.032063 1.953815 -5.119184
v -1.032063 1.959235 -5.123846
v -1.032063 1.963409 -5.127747
v -1.032063 1.973736 -5.133709
v -1.032063 1.969658 -5.132990
v -1.032063 1.984063 -5.127747
v -1.032063 1.981401 -5.130919
v -1.032063 1.985480 -5.119713
v -1.032063 1.985480 -5.123855
v -1.032063 1.981401 -5.112649
v -1.032063 1.977815 -5.110578
v -1.038741 1.971380 -5.114444
v -1.025470 1.974866 -5.113648
v -1.038741 1.974866 -5.113648
v -1.025470 1.971380 -5.114444
v -1.038741 1.968585 -5.116673
v -1.025470 1.968585 -5.116673
v -1.038741 1.971380 -5.114444
v -1.025470 1.971380 -5.114444
v -1.038741 1.967034 -5.119894
v -1.025470 1.967034 -5.119894
v -1.038741 1.967034 -5.123469
v -1.025470 1.967034 -5.123469
v -1.038741 1.968585 -5.126689
v -1.025470 1.968585 -5.126689
v -1.038741 1.971380 -5.128919
v -1.025470 1.971380 -5.128919
v -1.038741 1.974866 -5.129714
v -1.025470 1.971380 -5.128919
v -1.038741 1.971380 -5.128919
v -1.025470 1.974866 -5.129714
v -1.025470 1.978351 -5.128919
v -1.038741 1.978351 -5.128919
v -1.025470 1.981146 -5.126689
v -1.038741 1.978351 -5.128919
v -1.038741 1.981146 -5.126689
v -1.025470 1.978351 -5.128919
v -1.038741 1.982697 -5.123469
v -1.025470 1.982697 -5.123469
v -1.038741 1.982697 -5.119894
v -1.025470 1.982697 -5.119894
v -1.038741 1.981146 -5.116673
v -1.025470 1.981146 -5.116673
v -1.038741 1.978351 -5.114444
v -1.025470 1.978351 -5.114444
v -1.038741 1.978351 -5.114444
v -1.025470 1.978351 -5.114444
v -1.038741 1.982697 -5.123469
v -1.038741 1.974866 -5.129714
v -1.038741 1.967034 -5.119894
v -1.038741 1.978351 -5.128919
v -1.038741 1.982697 -5.119894
v -1.038741 1.968585 -5.116673
v -1.038741 1.978351 -5.114444
v -1.038741 1.981146 -5.116673
v -1.038741 1.981146 -5.126689
v -1.038741 1.968585 -5.126689
v -1.038741 1.971380 -5.128919
v -1.038741 1.967034 -5.123469
v -1.038741 1.974866 -5.113648
v -1.038741 1.971380 -5.114444
v -1.025470 1.967034 -5.119894
v -1.025470 1.974866 -5.113648
v -1.025470 1.968585 -5.116673
v -1.025470 1.974866 -5.129714
v -1.025470 1.967034 -5.123469
v -1.025470 1.982697 -5.123469
v -1.025470 1.978351 -5.114444
v -1.025470 1.971380 -5.114444
v -1.025470 1.968585 -5.126689
v -1.025470 1.971380 -5.128919
v -1.025470 1.978351 -5.128919
v -1.025470 1.981146 -5.126689
v -1.025470 1.982697 -5.119894
v -1.025470 1.981146 -5.116673
v 1.032062 1.973736 -5.109859
v 1.032062 1.944579 -5.109769
v 1.035810 1.973736 -5.109859
v 1.035810 1.944579 -5.109769
v 1.035810 1.973736 -5.133709
v 1.032062 1.969658 -5.132990
v 1.032062 1.973736 -5.133709
v 1.035810 1.969658 -5.132990
v 1.035810 1.977815 -5.132990
v 1.032062 1.977815 -5.132990
v 1.035810 1.981401 -5.130919
v 1.032062 1.981401 -5.130919
v 1.035810 1.984063 -5.127747
v 1.032062 1.984063 -5.127747
v 1.032062 1.984063 -5.127747
v 1.035810 1.985480 -5.123855
v 1.035810 1.984063 -5.127747
v 1.032062 1.985480 -5.123855
v 1.035810 1.985480 -5.119713
v 1.032062 1.985480 -5.119713
v 1.035810 1.984063 -5.115821
v 1.032062 1.984063 -5.115821
v 1.032062 1.984063 -5.115821
v 1.035810 1.981401 -5.112649
v 1.035810 1.984063 -5.115821
v 1.032062 1.981401 -5.112649
v 1.032062 1.977815 -5.110578
v 1.035810 1.977815 -5.110578
v 1.035810 1.966071 -5.130919
v 1.035810 1.977815 -5.132990
v 1.035810 1.973736 -5.109859
v 1.035810 1.959235 -5.123846
v 1.035810 1.953815 -5.119184
v 1.035810 1.984063 -5.115821
v 1.035810 1.949715 -5.115437
v 1.035810 1.944579 -5.109769
v 1.035810 1.946526 -5.112932
v 1.035810 1.981401 -5.112649
v 1.035810 1.977815 -5.110578
v 1.035810 1.963409 -5.127747
v 1.035810 1.973736 -5.133709
v 1.035810 1.969658 -5.132990
v 1.035810 1.984063 -5.127747
v 1.035810 1.981401 -5.130919
v 1.035810 1.985480 -5.119713
v 1.035810 1.985480 -5.123855
v 1.032062 1.977815 -5.132990
v 1.032062 1.984063 -5.127747
v 1.032062 1.981401 -5.130919
v 1.032062 1.973736 -5.109859
v 1.032062 1.966071 -5.130919
v 1.032062 1.963409 -5.127747
v 1.032062 1.984063 -5.115821
v 1.032062 1.981401 -5.112649
v 1.032062 1.977815 -5.110578
v 1.032062 1.985480 -5.119713
v 1.032062 1.985480 -5.123855
v 1.032062 1.973736 -5.133709
v 1.032062 1.969658 -5.132990
v 1.032062 1.953815 -5.119184
v 1.032062 1.949715 -5.115437
v 1.032062 1.959235 -5.123846
v 1.032062 1.944579 -5.109769
v 1.032062 1.946526 -5.112932
v 1.038741 1.974866 -5.113648
v 1.025470 1.974866 -5.113648
v 1.025470 1.971380 -5.114444
v 1.038741 1.971380 -5.114444
v 1.038741 1.971380 -5.114444
v 1.025470 1.971380 -5.114444
v 1.025470 1.968585 -5.116673
v 1.038741 1.968585 -5.116673
v 1.025470 1.967034 -5.119894
v 1.038741 1.967034 -5.119894
v 1.025470 1.967034 -5.123469
v 1.038741 1.967034 -5.123469
v 1.025470 1.968585 -5.126689
v 1.038741 1.968585 -5.126689
v 1.038741 1.971380 -5.128919
v 1.025470 1.971380 -5.128919
v 1.038741 1.974866 -5.129714
v 1.025470 1.971380 -5.128919
v 1.025470 1.974866 -5.129714
v 1.038741 1.971380 -5.128919
v 1.038741 1.978351 -5.128919
v 1.025470 1.978351 -5.128919
v 1.038741 1.981146 -5.126689
v 1.025470 1.978351 -5.128919
v 1.025470 1.981146 -5.126689
v 1.038741 1.978351 -5.128919
v 1.038741 1.982697 -5.123469
v 1.025470 1.982697 -5.123469
v 1.038741 1.982697 -5.119894
v 1.025470 1.982697 -5.119894
v 1.038741 1.981146 -5.116673
v 1.025470 1.981146 -5.116673
v 1.025470 1.978351 -5.114444
v 1.038741 1.978351 -5.114444
v 1.038741 1.978351 -5.114444
v 1.025470 1.978351 -5.114444
v 1.038741 1.967034 -5.119894
v 1.038741 1.982697 -5.123469
v 1.038741 1.968585 -5.116673
v 1.038741 1.978351 -5.128919
v 1.038741 1.981146 -5.126689
v 1.038741 1.974866 -5.129714
v 1.038741 1.978351 -5.114444
v 1.038741 1.974866 -5.113648
v 1.038741 1.971380 -5.114444
v 1.038741 1.982697 -5.119894
v 1.038741 1.968585 -5.126689
v 1.038741 1.967034 -5.123469
v 1.038741 1.971380 -5.128919
v 1.038741 1.981146 -5.116673
v 1.025470 1.974866 -5.129714
v 1.025470 1.967034 -5.119894
v 1.025470 1.982697 -5.123469
v 1.025470 1.978351 -5.128919
v 1.025470 1.981146 -5.126689
v 1.025470 1.978351 -5.114444
v 1.025470 1.982697 -5.119894
v 1.025470 1.974866 -5.113648
v 1.025470 1.981146 -5.116673
v 1.025470 1.968585 -5.126689
v 1.025470 1.967034 -5.123469
v 1.025470 1.971380 -5.128919
v 1.025470 1.968585 -5.116673
v 1.025470 1.971380 -5.114444
vt -29.434299 -353.105591
vt -29.890829 -352.989288
vt -29.907848 -352.871490
vt -29.943150 -352.685486
vt -29.344339 -353.344696
vt -29.345249 -353.256012
vt -29.681080 -353.544006
vt -29.506359 -353.542084
vt -29.593540 -353.558502
vt -29.376499 -353.172882
vt -29.373789 -353.428406
vt -29.430050 -353.497009
vt -29.847359 -353.350189
vt -29.758419 -353.500488
vt -29.816109 -353.433197
vt -29.848339 -353.261505
vt -29.864449 -353.140106
vt -29.926550 -352.786804
vt -159.112289 -360.159088
vt -158.953003 -359.706177
vt -158.730392 -359.831482
vt -158.860291 -360.200684
vt -159.434189 -359.740295
vt -159.623596 -359.741882
vt -159.521011 -359.738403
vt -159.315399 -359.733887
vt -159.162292 -359.730377
vt -159.040192 -359.722595
vt -158.788193 -359.764191
vt -158.865402 -359.720703
vt -158.698303 -360.003296
vt -158.699203 -359.914581
vt -158.783890 -360.155487
vt -158.727600 -360.086884
vt -158.947403 -360.217102
vt -159.035004 -360.202576
vt 531.940613 -23.548880
vt 531.937561 -23.763369
vt 531.668457 -23.759560
vt 531.971802 -23.694859
vt 531.881409 -23.500269
vt 531.636292 -23.690119
vt 531.732117 -23.498140
vt 531.807007 -23.482140
vt 531.972900 -23.618309
vt 531.802185 -23.826290
vt 531.877014 -23.810259
vt 531.727783 -23.808170
vt 531.671570 -23.545050
vt 531.637390 -23.613550
vt 64.654465 -441.349487
vt 64.864296 -441.304688
vt 64.728798 -441.367493
vt 64.598259 -441.086304
vt 64.595238 -441.300903
vt 64.808098 -441.041504
vt 64.898521 -441.236176
vt 64.803780 -441.351685
vt 64.563011 -441.231476
vt 64.564079 -441.154877
vt 64.658821 -441.039490
vt 64.733681 -441.023499
vt 64.867340 -441.090179
vt 64.899467 -441.159576
vt -29.847359 -353.350189
vt -29.681080 -353.544006
vt -29.434299 -353.105591
vt -29.864449 -353.140106
vt -29.890829 -352.989288
vt -29.344339 -353.344696
vt -29.907848 -352.871490
vt -29.943150 -352.685486
vt -29.926550 -352.786804
vt -29.345249 -353.256012
vt -29.376499 -353.172882
vt -29.848339 -353.261505
vt -29.758419 -353.500488
vt -29.816109 -353.433197
vt -29.506359 -353.542084
vt -29.593540 -353.558502
vt -29.373789 -353.428406
vt -29.430050 -353.497009
vt -158.730392 -359.831482
vt -158.698303 -360.003296
vt -158.699203 -359.914581
vt -159.112289 -360.159088
vt -158.953003 -359.706177
vt -159.040192 -359.722595
vt -158.860291 -360.200684
vt -158.947403 -360.217102
vt -159.035004 -360.202576
vt -158.783890 -360.155487
vt -158.727600 -360.086884
vt -158.788193 -359.764191
vt -158.865402 -359.720703
vt -159.315399 -359.733887
vt -159.434189 -359.740295
vt -159.162292 -359.730377
vt -159.623596 -359.741882
vt -159.521011 -359.738403
vt 531.668457 -23.759560
vt 531.940613 -23.548880
vt 531.636292 -23.690119
vt 531.971802 -23.694859
vt 531.972900 -23.618309
vt 531.937561 -23.763369
vt 531.732117 -23.498140
vt 531.671570 -23.545050
vt 531.637390 -23.613550
vt 531.881409 -23.500269
vt 531.802185 -23.826290
vt 531.727783 -23.808170
vt 531.877014 -23.810259
vt 531.807007 -23.482140
vt 64.598259 -441.086304
vt 64.654465 -441.349487
vt 64.808098 -441.041504
vt 64.658821 -441.039490
vt 64.733681 -441.023499
vt 64.898521 -441.236176
vt 64.867340 -441.090179
vt 64.864296 -441.304688
vt 64.899467 -441.159576
vt 64.563011 -441.231476
vt 64.595238 -441.300903
vt 64.564079 -441.154877
vt 64.728798 -441.367493
vt 64.803780 -441.351685
vt -98.323738 -402.824005
vt -98.905525 -402.492889
vt -98.833748 -402.405396
vt -98.395515 -402.911499
vt -18.597509 -513.285095
vt -18.736820 -513.317078
vt -18.665049 -513.229675
vt -18.669289 -513.372498
vt -18.529989 -513.340515
vt -18.601770 -513.427917
vt -18.542370 -513.476685
vt -18.470589 -513.389160
vt -18.426540 -513.425415
vt -18.498310 -513.512878
vt 132.483902 -496.586273
vt 132.347702 -496.620880
vt 132.419403 -496.533386
vt 132.412094 -496.673798
vt 132.279099 -496.564575
vt 132.350891 -496.477173
vt 132.214691 -496.511780
vt 132.286499 -496.424286
vt -98.152695 -402.964386
vt -98.268555 -403.015686
vt -98.196785 -402.928192
vt -98.224480 -403.051880
vt -98.256241 -402.879395
vt -98.328011 -402.966888
vt 141.912292 -328.475403
vt 141.651489 -328.162292
vt 141.960800 -328.416199
vt 141.602890 -328.221405
vt 76.271690 -293.237000
vt 75.962265 -292.983093
vt 76.302040 -293.200104
vt 75.992615 -292.946106
vt 76.227951 -293.290283
vt 75.918541 -293.036407
vt 76.179337 -293.349579
vt 75.869919 -293.095581
vt 76.135551 -293.402893
vt 75.826141 -293.149017
vt 76.105301 -293.439789
vt 75.795891 -293.185791
vt 97.464897 -310.666107
vt 97.726944 -310.977783
vt 97.417511 -310.723785
vt 97.774330 -310.919983
vt 97.821716 -310.862305
vt 97.512291 -310.608307
vt -253.765198 -342.360199
vt -253.425491 -342.577179
vt -253.455795 -342.614105
vt -253.734894 -342.323303
vt -253.499496 -342.667389
vt -253.808899 -342.413483
vt -253.548096 -342.726593
vt -253.857498 -342.472687
vt -253.592010 -342.779999
vt -253.901291 -342.526093
vt -253.622192 -342.816803
vt -253.931488 -342.562897
vt 142.004593 -328.362793
vt 141.695297 -328.108887
vt -98.323738 -402.824005
vt -98.833748 -402.405396
vt -98.395515 -402.911499
vt -98.905525 -402.492889
vt -18.597509 -513.285095
vt -18.736820 -513.317078
vt -18.669289 -513.372498
vt -18.665049 -513.229675
vt -18.529989 -513.340515
vt -18.601770 -513.427917
vt -18.470589 -513.389160
vt -18.542370 -513.476685
vt -18.426540 -513.425415
vt -18.498310 -513.512878
vt 132.483902 -496.586273
vt 132.347702 -496.620880
vt 132.412094 -496.673798
vt 132.419403 -496.533386
vt 132.279099 -496.564575
vt 132.350891 -496.477173
vt 132.214691 -496.511780
vt 132.286499 -496.424286
vt -98.152695 -402.964386
vt -98.268555 -403.015686
vt -98.224480 -403.051880
vt -98.196785 -402.928192
vt -98.256241 -402.879395
vt -98.328011 -402.966888
vt 141.960800 -328.416199
vt 141.651489 -328.162292
vt 141.602890 -328.221405
vt 141.912292 -328.475403
vt 76.302040 -293.200104
vt 75.992615 -292.946106
vt 75.962265 -292.983093
vt 76.271690 -293.237000
vt 75.918541 -293.036407
vt 76.227951 -293.290283
vt 75.869919 -293.095581
vt 76.179337 -293.349579
vt 75.826141 -293.149017
vt 76.135551 -293.402893
vt 76.105301 -293.439789
vt 75.795891 -293.185791
vt 97.464897 -310.666107
vt 97.726944 -310.977783
vt 97.774330 -310.919983
vt 97.417511 -310.723785
vt 97.512291 -310.608307
vt 97.821716 -310.862305
vt -253.455795 -342.614105
vt -253.734894 -342.323303
vt -253.765198 -342.360199
vt -253.425491 -342.577179
vt -253.499496 -342.667389
vt -253.808899 -342.413483
vt -253.548096 -342.726593
vt -253.857498 -342.472687
vt -253.592010 -342.779999
vt -253.901291 -342.526093
vt -253.931488 -342.562897
vt -253.622192 -342.816803
vt 142.004593 -328.362793
vt 141.695297 -328.108887
vn -1.0000 0.0000 0.0000
vn 1.0000 0.0000 0.0000
vn 1.0000 -0.0001 0.0000
vn 1.0000 0.0001 0.0000
vn 1.0000 -0.0002 0.0000
vn -1.0000 -0.0001 0.0000
vn 1.0000 0.0002 0.0000
vn -1.0000 0.0002 0.0000
vn -1.0000 0.0001 0.0000
vn 0.0000 0.0887 0.9961
vn 0.0000 0.0031 1.0000
vn 0.0000 -0.0000 -1.0000
vn 0.0000 -0.1736 -0.9848
vn 0.0000 0.3421 -0.9397
vn 0.0000 0.3420 -0.9397
vn 0.0000 0.6428 -0.7660
vn 0.0000 0.7660 -0.6429
vn 0.0000 0.7660 -0.6428
vn 0.0000 0.9397 -0.3421
vn 0.0000 0.9848 -0.1737
vn 0.0000 0.9848 0.1737
vn 0.0000 0.9397 0.3421
vn 0.0000 0.7660 0.6429
vn 0.0000 0.6428 0.7660
vn 0.0000 0.7660 0.6428
vn 0.0000 0.3421 0.9397
vn 0.0000 0.3420 0.9397
vn 0.0000 -0.2226 0.9749
vn 0.0000 0.0000 1.0000
vn 0.0000 -0.7819 0.6234
vn 0.0000 -0.6236 0.7818
vn 0.0000 -0.6235 0.7818
vn 0.0000 -0.9749 0.2225
vn 0.0000 -0.9749 -0.2226
vn 0.0000 -0.9749 -0.2225
vn 0.0000 -0.7819 -0.6234
vn 0.0000 -0.6237 -0.7816
vn 0.0000 -0.6237 -0.7817
vn 0.0000 -0.2223 -0.9750
vn 0.0000 0.2224 -0.9750
vn 0.0000 0.7819 -0.6234
vn 0.0000 0.6237 -0.7817
vn 0.0000 0.9749 -0.2226
vn 0.0000 0.9749 0.2225
vn 0.0000 0.7819 0.6235
vn 0.0000 0.7819 0.6234
vn 0.0000 0.6235 0.7818
vn 0.0000 0.2226 0.9749
vn 0.0000 -0.7818 0.6235
usemtl chrome.001
s off
f 29/1/1 30/2/1 31/3/1
f 29/1/1 31/3/1 32/4/1
f 33/5/1 29/1/1 34/6/1
f 35/7/1 36/8/1 37/9/1
f 29/1/1 33/5/1 35/7/1
f 34/6/1 29/1/1 38/10/1
f 36/8/1 33/5/1 39/11/1
f 36/8/1 39/11/1 40/12/1
f 35/7/1 33/5/1 36/8/1
f 41/13/1 35/7/1 42/14/1
f 41/13/1 42/14/1 43/15/1
f 29/1/1 35/7/1 41/13/1
f 29/1/1 41/13/1 44/16/1
f 29/1/1 44/16/1 45/17/1
f 29/1/1 45/17/1 30/2/1
f 32/4/1 31/3/1 46/18/1
f 47/19/2 48/20/2 49/21/2
f 47/19/2 49/21/2 50/22/2
f 51/23/2 52/24/2 53/25/2
f 52/24/2 51/23/2 47/19/2
f 47/19/2 54/26/2 55/27/2
f 54/26/2 47/19/2 51/23/2
f 56/28/2 47/19/2 55/27/2
f 48/20/2 47/19/2 56/28/2
f 48/20/2 57/29/2 49/21/2
f 57/29/2 48/20/2 58/30/2
f 49/21/2 59/31/2 50/22/2
f 59/31/3 49/21/3 60/32/3
f 59/31/4 61/33/4 50/22/4
f 61/33/5 59/31/5 62/34/5
f 47/19/2 50/22/2 63/35/2
f 47/19/2 63/35/2 64/36/2
f 101/37/1 102/38/1 103/39/1
f 102/38/1 101/37/1 104/40/1
f 105/41/1 106/42/1 107/43/1
f 105/41/1 107/43/1 108/44/1
f 101/37/1 106/42/1 105/41/1
f 104/40/1 101/37/1 109/45/1
f 102/38/1 110/46/1 103/39/1
f 110/46/6 102/38/6 111/47/6
f 103/39/1 110/46/1 112/48/1
f 106/42/1 101/37/1 103/39/1
f 106/42/1 113/49/1 107/43/1
f 113/49/1 106/42/1 114/50/1
f 115/51/2 116/52/2 117/53/2
f 118/54/2 115/51/2 119/55/2
f 115/51/2 118/54/2 120/56/2
f 115/51/2 121/57/2 116/52/2
f 117/53/2 116/52/2 122/58/2
f 118/54/2 119/55/2 123/59/2
f 118/54/4 123/59/4 124/60/4
f 120/56/2 118/54/2 125/61/2
f 120/56/2 125/61/2 126/62/2
f 127/63/2 115/51/2 120/56/2
f 121/57/2 115/51/2 127/63/2
f 121/57/2 127/63/2 128/64/2
f 157/65/2 158/66/2 159/67/2
f 160/68/2 159/67/2 161/69/2
f 162/70/2 159/67/2 158/66/2
f 163/71/3 164/72/3 165/73/3
f 159/67/2 166/74/2 167/75/2
f 164/72/2 163/71/2 159/67/2
f 161/69/2 159/67/2 163/71/2
f 168/76/2 159/67/2 160/68/2
f 157/65/2 159/67/2 168/76/2
f 169/77/2 157/65/2 170/78/2
f 158/66/2 157/65/2 169/77/2
f 171/79/2 162/70/2 158/66/2
f 171/79/3 158/66/3 172/80/3
f 173/81/7 171/79/7 174/82/7
f 162/70/2 171/79/2 173/81/2
f 166/74/2 159/67/2 162/70/2
f 175/83/1 176/84/1 177/85/1
f 178/86/1 179/87/1 180/88/1
f 175/83/1 178/86/1 181/89/1
f 175/83/1 181/89/1 176/84/1
f 175/83/1 179/87/1 178/86/1
f 182/90/1 178/86/1 183/91/1
f 181/89/1 178/86/1 182/90/1
f 184/92/6 176/84/6 181/89/6
f 176/84/8 184/92/8 185/93/8
f 186/94/1 179/87/1 175/83/1
f 179/87/1 186/94/1 187/95/1
f 178/86/1 188/96/1 189/97/1
f 178/86/1 180/88/1 190/98/1
f 188/96/1 178/86/1 190/98/1
f 189/97/1 191/99/1 178/86/1
f 191/99/9 189/97/9 192/100/9
f 229/101/2 230/102/2 231/103/2
f 230/102/2 232/104/2 233/105/2
f 230/102/2 234/106/2 232/104/2
f 231/103/2 235/107/2 236/108/2
f 231/103/2 236/108/2 237/109/2
f 231/103/2 238/110/2 235/107/2
f 239/111/2 229/101/2 240/112/2
f 234/106/2 229/101/2 239/111/2
f 234/106/3 239/111/3 241/113/3
f 230/102/2 229/101/2 234/106/2
f 238/110/2 231/103/2 230/102/2
f 235/107/2 238/110/2 242/114/2
f 243/115/1 244/116/1 245/117/1
f 246/118/1 245/117/1 247/119/1
f 244/116/1 248/120/1 249/121/1
f 248/120/1 244/116/1 250/122/1
f 249/121/1 248/120/1 251/123/1
f 245/117/1 244/116/1 249/121/1
f 243/115/6 245/117/6 246/118/6
f 243/115/1 252/124/1 253/125/1
f 252/124/9 243/115/9 254/126/9
f 244/116/1 243/115/1 253/125/1
f 250/122/1 244/116/1 255/127/1
f 250/122/1 255/127/1 256/128/1
s 1
f 1/129/10 2/130/11 3/131/11
f 2/130/11 1/129/10 4/132/10
f 5/133/12 6/134/13 7/135/13
f 6/134/13 5/133/12 8/136/12
f 9/137/14 8/136/12 5/133/12
f 8/136/12 9/137/14 10/138/15
f 11/139/16 9/137/14 12/140/16
f 9/137/14 11/139/16 10/138/15
f 11/139/16 13/141/17 14/142/18
f 13/141/17 11/139/16 12/140/16
f 15/143/19 16/144/20 17/145/20
f 16/144/20 15/143/19 18/146/19
f 17/145/20 19/147/21 20/148/21
f 19/147/21 17/145/20 16/144/20
f 20/148/21 21/149/22 22/150/22
f 21/149/22 20/148/21 19/147/21
f 23/151/23 24/152/24 25/153/24
f 24/152/24 23/151/23 26/154/25
f 25/153/24 24/152/24 27/155/26
f 24/152/24 28/156/27 27/155/26
f 27/155/26 28/156/27 1/129/10
f 28/156/27 4/132/10 1/129/10
f 65/157/28 66/158/29 67/159/29
f 66/158/29 65/157/28 68/160/28
f 69/161/30 70/162/30 71/163/31
f 72/164/32 71/163/31 70/162/30
f 73/165/33 70/162/30 69/161/30
f 70/162/30 73/165/33 74/166/33
f 75/167/34 76/168/35 73/165/33
f 74/166/33 73/165/33 76/168/35
f 77/169/36 78/170/36 75/167/34
f 76/168/35 75/167/34 78/170/36
f 79/171/37 78/170/36 77/169/36
f 78/170/36 79/171/37 80/172/38
f 81/173/12 82/174/39 83/175/39
f 82/174/39 81/173/12 84/176/12
f 85/177/40 81/173/12 86/178/40
f 81/173/12 85/177/40 84/176/12
f 87/179/41 88/180/42 89/181/41
f 88/180/42 87/179/41 90/182/42
f 91/183/43 87/179/41 89/181/41
f 87/179/41 91/183/43 92/184/43
f 93/185/44 92/184/43 91/183/43
f 92/184/43 93/185/44 94/186/44
f 95/187/45 94/186/44 93/185/44
f 94/186/44 95/187/45 96/188/46
f 97/189/47 98/190/47 95/187/45
f 96/188/46 95/187/45 98/190/47
f 67/159/29 66/158/29 99/191/48
f 100/192/48 99/191/48 66/158/29
f 129/193/10 130/194/11 131/195/10
f 131/195/10 130/194/11 132/196/11
f 133/197/12 134/198/13 135/199/12
f 134/198/13 133/197/12 136/200/13
f 137/201/15 135/199/12 138/202/14
f 135/199/12 137/201/15 133/197/12
f 139/203/16 138/202/14 140/204/16
f 138/202/14 139/203/16 137/201/15
f 140/204/16 141/205/17 139/203/16
f 141/205/17 140/204/16 142/206/18
f 143/207/19 144/208/20 145/209/19
f 144/208/20 143/207/19 146/210/20
f 146/210/20 147/211/21 144/208/20
f 147/211/21 146/210/20 148/212/21
f 148/212/21 149/213/22 147/211/21
f 149/213/22 148/212/21 150/214/22
f 151/215/23 152/216/24 153/217/25
f 152/216/24 151/215/23 154/218/24
f 154/218/24 155/219/26 152/216/24
f 152/216/24 155/219/26 156/220/27
f 155/219/26 129/193/10 156/220/27
f 156/220/27 129/193/10 131/195/10
f 193/221/29 194/222/29 195/223/28
f 193/221/29 195/223/28 196/224/28
f 197/225/31 198/226/32 199/227/49
f 197/225/31 199/227/49 200/228/30
f 200/228/30 199/227/49 201/229/33
f 200/228/30 201/229/33 202/230/33
f 202/230/33 201/229/33 203/231/35
f 202/230/33 203/231/35 204/232/34
f 204/232/34 203/231/35 205/233/36
f 204/232/34 205/233/36 206/234/36
f 207/235/37 205/233/36 208/236/38
f 205/233/36 207/235/37 206/234/36
f 209/237/12 210/238/39 211/239/12
f 210/238/39 209/237/12 212/240/39
f 213/241/40 211/239/12 214/242/40
f 211/239/12 213/241/40 209/237/12
f 215/243/41 216/244/42 217/245/41
f 216/244/42 215/243/41 218/246/42
f 217/245/41 219/247/43 215/243/41
f 219/247/43 217/245/41 220/248/43
f 220/248/43 221/249/44 219/247/43
f 221/249/44 220/248/43 222/250/44
f 222/250/44 223/251/45 221/249/44
f 223/251/45 222/250/44 224/252/46
f 223/251/45 224/252/46 225/253/47
f 223/251/45 225/253/47 226/254/47
f 227/255/48 228/256/48 194/222/29
f 227/255/48 194/222/29 193/221/29
