# Blender v3.1.2 OBJ File: 'car.blend'
# www.blender.org
mtllib Mesh_193.001.mtl
o Mesh_193_Mesh_193.001
v -0.106385 0.593791 -3.223374
v -1.158991 0.926156 -3.994945
v -1.157217 0.935589 -3.991029
v -0.108159 0.584357 -3.227289
v -1.158534 0.942495 -3.983419
v -0.107703 0.600696 -3.215764
v -1.162590 0.945022 -3.974153
v -0.111759 0.603224 -3.206498
v -0.107703 0.600696 -3.215764
v -1.158534 0.942495 -3.983419
v -1.168298 0.942494 -3.965715
v -0.117467 0.600696 -3.198059
v -0.123297 0.593789 -3.192709
v -1.168298 0.942494 -3.965715
v -1.174128 0.935588 -3.960365
v -0.117467 0.600696 -3.198059
v -0.127687 0.584356 -3.191881
v -1.178518 0.926154 -3.959536
v -1.180292 0.916721 -3.963452
v -0.129461 0.574922 -3.195796
v -0.127687 0.584356 -3.191881
v -1.178518 0.926154 -3.959536
v -0.128143 0.568017 -3.203407
v -1.178975 0.909815 -3.971062
v -0.124087 0.565489 -3.212673
v -1.178975 0.909815 -3.971062
v -1.174919 0.907288 -3.980328
v -0.128143 0.568017 -3.203407
v -0.118380 0.568017 -3.221111
v -1.169211 0.909816 -3.988766
v -1.163381 0.916722 -3.994117
v -0.112549 0.574924 -3.226461
v -0.118380 0.568017 -3.221111
v -1.169211 0.909816 -3.988766
v -1.158991 0.926156 -3.994945
v -0.108159 0.584357 -3.227289
vt -22.662899 -37.891228
vt 2.821045 -3.847667
vt 3.239025 -4.151912
vt -23.080879 -37.586979
vt 3.488922 -4.608108
vt -22.413010 -38.347427
vt 59.252338 26.650379
vt 19.937309 -26.200119
vt 19.602480 -25.812840
vt 58.917488 27.037680
vt 59.654667 26.327820
vt 20.339640 -26.522690
vt 32.979031 -23.180359
vt 66.371628 21.477449
vt 66.813362 21.358519
vt 32.537281 -23.061409
vt 33.433830 -23.445950
vt 67.268181 21.092920
vt -1.684641 -65.137207
vt 23.092070 -30.563148
vt 23.504469 -30.874920
vt -1.272247 -65.448990
vt 22.583010 -30.456308
vt -2.193710 -65.030380
vt 24.067099 -29.006659
vt 62.775578 24.154919
vt 63.243340 23.946810
vt 23.599350 -28.798550
vt 24.492500 -29.298140
vt 63.668728 23.655319
vt 9.200814 -65.854622
vt 42.012238 -20.556879
vt 42.254177 -20.945139
vt 9.442763 -66.242867
vt 8.814724 -65.496391
vt 41.626148 -20.198679
vn 0.6162 0.4618 -0.6380
vn 0.6194 0.1988 -0.7595
vn 0.6203 0.4214 -0.6615
vn 0.6194 0.1987 -0.7595
vn 0.5734 0.6536 -0.4939
vn 0.5734 0.6537 -0.4939
vn 0.2366 0.9658 0.1061
vn 0.2131 0.9671 0.1389
vn 0.3678 0.9254 -0.0914
vn 0.0671 0.9424 0.3277
vn -0.3823 0.5278 0.7584
vn -0.2458 0.7147 0.6548
vn -0.3848 0.5239 0.7599
vn -0.4962 0.3024 0.8139
vn -0.6162 -0.4618 0.6379
vn -0.6203 -0.4214 0.6615
vn -0.6195 -0.1987 0.7595
vn -0.6195 -0.1988 0.7594
vn -0.5734 -0.6537 0.4939
vn -0.5734 -0.6536 0.4939
vn -0.2366 -0.9658 -0.1061
vn -0.3678 -0.9254 0.0914
vn -0.2131 -0.9671 -0.1389
vn -0.0671 -0.9424 -0.3277
vn -0.0671 -0.9424 -0.3278
vn 0.3823 -0.5279 -0.7584
vn 0.3848 -0.5238 -0.7600
vn 0.2458 -0.7147 -0.6548
vn 0.2458 -0.7148 -0.6547
vn 0.4962 -0.3023 -0.8138
vn 0.4962 -0.3023 -0.8139
usemtl carbon.001
s 1
f 1/1/1 2/2/2 3/3/3
f 2/2/2 1/1/1 4/4/4
f 5/5/5 6/6/6 1/1/1
f 1/1/1 3/3/3 5/5/5
f 7/7/7 8/8/8 9/9/9
f 9/9/9 10/10/9 7/7/7
f 11/11/10 12/12/10 8/8/8
f 8/8/8 7/7/7 11/11/10
f 13/13/11 14/14/12 15/15/13
f 14/14/12 13/13/11 16/16/12
f 17/17/14 15/15/13 18/18/14
f 15/15/13 17/17/14 13/13/11
f 19/19/15 20/20/16 21/21/17
f 21/21/17 22/22/18 19/19/15
f 23/23/19 19/19/15 24/24/20
f 19/19/15 23/23/19 20/20/16
f 25/25/21 26/26/22 27/27/23
f 26/26/22 25/25/21 28/28/22
f 29/29/24 27/27/23 30/30/25
f 27/27/23 29/29/24 25/25/21
f 31/31/26 32/32/27 33/33/28
f 31/31/26 33/33/28 34/34/29
f 35/35/30 36/36/31 32/32/27
f 32/32/27 31/31/26 35/35/30
