# Blender v3.1.2 OBJ File: 'car.blend'
# www.blender.org
mtllib Mesh_78.001.mtl
o Mesh_78_Mesh_78.001
v 0.056724 1.299238 1.018760
v 0.041990 1.302383 1.018760
v 0.042067 1.302746 1.016656
v 0.056802 1.299601 1.016656
v 0.056501 1.298193 1.020611
v 0.041767 1.301338 1.020611
v 0.056160 1.296593 1.021984
v 0.041425 1.299738 1.021984
v 0.041006 1.297774 1.022714
v 0.055740 1.294629 1.022714
v 0.055295 1.292540 1.022714
v 0.040560 1.295685 1.022714
v 0.040141 1.293722 1.021984
v 0.054875 1.290577 1.021984
v 0.054534 1.288976 1.020611
v 0.039800 1.292121 1.020611
v 0.054311 1.287932 1.018760
v 0.039577 1.291077 1.018760
v 0.054233 1.287569 1.016656
v 0.039499 1.290714 1.016656
v 0.039577 1.291077 1.014553
v 0.054311 1.287932 1.014553
v 0.039800 1.292121 1.012702
v 0.054534 1.288976 1.012702
v 0.040141 1.293722 1.011329
v 0.054875 1.290577 1.011329
v 0.055295 1.292540 1.010599
v 0.040560 1.295685 1.010599
v 0.041006 1.297774 1.010599
v 0.055740 1.294629 1.010599
v 0.056160 1.296593 1.011329
v 0.041425 1.299738 1.011329
v 0.056501 1.298193 1.012702
v 0.041767 1.301338 1.012702
v 0.041990 1.302383 1.014553
v 0.056724 1.299238 1.014553
v 0.042067 1.302746 1.016656
v 0.056802 1.299601 1.016656
v -0.056724 1.299238 1.018760
v -0.042067 1.302746 1.016656
v -0.041990 1.302383 1.018760
v -0.056802 1.299601 1.016656
v -0.056501 1.298193 1.020611
v -0.041767 1.301338 1.020611
v -0.041425 1.299738 1.021984
v -0.056159 1.296593 1.021984
v -0.041006 1.297774 1.022714
v -0.055740 1.294629 1.022714
v -0.040560 1.295685 1.022714
v -0.055294 1.292540 1.022714
v -0.040141 1.293722 1.021984
v -0.054875 1.290577 1.021984
v -0.039800 1.292121 1.020611
v -0.054534 1.288976 1.020611
v -0.054311 1.287932 1.018760
v -0.039577 1.291077 1.018760
v -0.054233 1.287569 1.016656
v -0.039499 1.290714 1.016656
v -0.039577 1.291077 1.014553
v -0.054311 1.287932 1.014553
v -0.039800 1.292121 1.012702
v -0.054534 1.288976 1.012702
v -0.054875 1.290577 1.011329
v -0.040141 1.293722 1.011329
v -0.040560 1.295685 1.010599
v -0.055294 1.292540 1.010599
v -0.055740 1.294629 1.010599
v -0.041006 1.297774 1.010599
v -0.041425 1.299738 1.011329
v -0.056159 1.296593 1.011329
v -0.041767 1.301338 1.012702
v -0.056501 1.298193 1.012702
v -0.041990 1.302383 1.014553
v -0.056724 1.299238 1.014553
v -0.042067 1.302746 1.016656
v -0.056802 1.299601 1.016656
v 0.056721 1.382968 0.983703
v 0.060204 1.383582 1.035206
v 0.060204 1.383582 0.983703
v 0.056721 1.382968 1.035206
v 0.053659 1.381199 1.035206
v 0.053659 1.381199 0.983703
v 0.051386 1.378490 0.983703
v 0.051386 1.378490 1.035206
v 0.050176 1.375167 0.983703
v 0.050176 1.375167 1.035206
v 0.050176 1.371631 0.983703
v 0.050176 1.371631 1.035206
v 0.051386 1.368308 0.983703
v 0.051386 1.368308 1.035206
v 0.053659 1.365599 0.983703
v 0.053659 1.365599 1.035206
v 0.056721 1.363831 0.983703
v 0.056721 1.363831 1.035206
v 0.060204 1.363216 1.035206
v 0.060204 1.363216 0.983703
v 0.063687 1.363831 1.035206
v 0.063687 1.363831 0.983703
v 0.066749 1.365599 0.983703
v 0.066749 1.365599 1.035206
v 0.069022 1.368308 0.983703
v 0.069022 1.368308 1.035206
v 0.070232 1.371631 1.035206
v 0.070232 1.371631 0.983703
v 0.070232 1.375167 1.035206
v 0.070232 1.375167 0.983703
v 0.069022 1.378490 1.035206
v 0.069022 1.378490 0.983703
v 0.066749 1.381199 1.035206
v 0.066749 1.381199 0.983703
v 0.063687 1.382968 0.983703
v 0.063687 1.382968 1.035206
v 0.060204 1.383582 1.035206
v 0.060204 1.383582 0.983703
v -0.060204 1.383582 0.983703
v -0.060204 1.383582 1.035206
v -0.056721 1.382968 0.983703
v -0.056721 1.382968 1.035206
v -0.053659 1.381199 0.983703
v -0.053659 1.381199 1.035206
v -0.051386 1.378490 1.035206
v -0.051386 1.378490 0.983703
v -0.050176 1.375167 1.035206
v -0.050176 1.375167 0.983703
v -0.050176 1.371631 1.035206
v -0.050176 1.371631 0.983703
v -0.051386 1.368308 1.035206
v -0.051386 1.368308 0.983703
v -0.053659 1.365599 1.035206
v -0.053659 1.365599 0.983703
v -0.056721 1.363831 1.035206
v -0.056721 1.363831 0.983703
v -0.060204 1.363216 1.035206
v -0.060204 1.363216 0.983703
v -0.063687 1.363831 1.035206
v -0.063687 1.363831 0.983703
v -0.066749 1.365599 1.035206
v -0.066749 1.365599 0.983703
v -0.069022 1.368308 1.035206
v -0.069022 1.368308 0.983703
v -0.070232 1.371631 1.035206
v -0.070232 1.371631 0.983703
v -0.070232 1.375167 0.983703
v -0.070232 1.375167 1.035206
v -0.069022 1.378490 1.035206
v -0.069022 1.378490 0.983703
v -0.066749 1.381199 1.035206
v -0.066749 1.381199 0.983703
v -0.063687 1.382968 1.035206
v -0.063687 1.382968 0.983703
v -0.060204 1.383582 0.983703
v -0.060204 1.383582 1.035206
vt 0.750000 -0.055556
vt 0.500000 -0.055556
vt 0.500000 0.000000
vt 0.750000 0.000000
vt 0.750000 -0.111111
vt 0.500000 -0.111111
vt 0.750000 -0.166667
vt 0.500000 -0.166667
vt 0.500000 -0.222222
vt 0.750000 -0.222222
vt 0.750000 -0.277778
vt 0.500000 -0.277778
vt 0.500000 -0.333333
vt 0.750000 -0.333333
vt 0.750000 -0.388889
vt 0.500000 -0.388889
vt 0.750000 -0.444444
vt 0.500000 -0.444444
vt 0.750000 -0.500000
vt 0.500000 -0.500000
vt 0.500000 -0.555556
vt 0.750000 -0.555556
vt 0.500000 -0.611111
vt 0.750000 -0.611111
vt 0.500000 -0.666667
vt 0.750000 -0.666667
vt 0.750000 -0.722222
vt 0.500000 -0.722222
vt 0.500000 -0.777778
vt 0.750000 -0.777778
vt 0.750000 -0.833333
vt 0.500000 -0.833333
vt 0.750000 -0.888889
vt 0.500000 -0.888889
vt 0.500000 -0.944444
vt 0.750000 -0.944444
vt 0.500000 -1.000000
vt 0.750000 -1.000000
vt 0.750000 -0.055556
vt 0.500000 0.000000
vt 0.500000 -0.055556
vt 0.750000 0.000000
vt 0.750000 -0.111111
vt 0.500000 -0.111111
vt 0.500000 -0.166667
vt 0.750000 -0.166667
vt 0.500000 -0.222222
vt 0.750000 -0.222222
vt 0.500000 -0.277778
vt 0.750000 -0.277778
vt 0.500000 -0.333333
vt 0.750000 -0.333333
vt 0.500000 -0.388889
vt 0.750000 -0.388889
vt 0.750000 -0.444444
vt 0.500000 -0.444444
vt 0.750000 -0.500000
vt 0.500000 -0.500000
vt 0.500000 -0.555556
vt 0.750000 -0.555556
vt 0.500000 -0.611111
vt 0.750000 -0.611111
vt 0.750000 -0.666667
vt 0.500000 -0.666667
vt 0.500000 -0.722222
vt 0.750000 -0.722222
vt 0.750000 -0.777778
vt 0.500000 -0.777778
vt 0.500000 -0.833333
vt 0.750000 -0.833333
vt 0.500000 -0.888889
vt 0.750000 -0.888889
vt 0.500000 -0.944444
vt 0.750000 -0.944444
vt 0.500000 -1.000000
vt 0.750000 -1.000000
vt 0.750000 -0.055556
vt 0.500000 0.000000
vt 0.750000 0.000000
vt 0.500000 -0.055556
vt 0.500000 -0.111111
vt 0.750000 -0.111111
vt 0.750000 -0.166667
vt 0.500000 -0.166667
vt 0.750000 -0.222222
vt 0.500000 -0.222222
vt 0.750000 -0.277778
vt 0.500000 -0.277778
vt 0.750000 -0.333333
vt 0.500000 -0.333333
vt 0.750000 -0.388889
vt 0.500000 -0.388889
vt 0.750000 -0.444444
vt 0.500000 -0.444444
vt 0.500000 -0.500000
vt 0.750000 -0.500000
vt 0.500000 -0.555556
vt 0.750000 -0.555556
vt 0.750000 -0.611111
vt 0.500000 -0.611111
vt 0.750000 -0.666667
vt 0.500000 -0.666667
vt 0.500000 -0.722222
vt 0.750000 -0.722222
vt 0.500000 -0.777778
vt 0.750000 -0.777778
vt 0.500000 -0.833333
vt 0.750000 -0.833333
vt 0.500000 -0.888889
vt 0.750000 -0.888889
vt 0.750000 -0.944444
vt 0.500000 -0.944444
vt 0.500000 -1.000000
vt 0.750000 -1.000000
vt 0.750000 0.000000
vt 0.500000 0.000000
vt 0.750000 -0.055556
vt 0.500000 -0.055556
vt 0.750000 -0.111111
vt 0.500000 -0.111111
vt 0.500000 -0.166667
vt 0.750000 -0.166667
vt 0.500000 -0.222222
vt 0.750000 -0.222222
vt 0.500000 -0.277778
vt 0.750000 -0.277778
vt 0.500000 -0.333333
vt 0.750000 -0.333333
vt 0.500000 -0.388889
vt 0.750000 -0.388889
vt 0.500000 -0.444444
vt 0.750000 -0.444444
vt 0.500000 -0.500000
vt 0.750000 -0.500000
vt 0.500000 -0.555556
vt 0.750000 -0.555556
vt 0.500000 -0.611111
vt 0.750000 -0.611111
vt 0.500000 -0.666667
vt 0.750000 -0.666667
vt 0.500000 -0.722222
vt 0.750000 -0.722222
vt 0.750000 -0.777778
vt 0.500000 -0.777778
vt 0.500000 -0.833333
vt 0.750000 -0.833333
vt 0.500000 -0.888889
vt 0.750000 -0.888889
vt 0.500000 -0.944444
vt 0.750000 -0.944444
vt 0.750000 -1.000000
vt 0.500000 -1.000000
vn -0.1962 -0.9190 -0.3420
vn -0.1961 -0.9190 -0.3420
vn -0.2056 -0.9631 -0.1738
vn -0.2056 -0.9631 -0.1736
vn -0.1599 -0.7492 -0.6427
vn -0.1599 -0.7493 -0.6427
vn -0.1043 -0.4888 -0.8661
vn -0.1044 -0.4889 -0.8661
vn -0.0362 -0.1696 -0.9848
vn 0.0362 0.1697 -0.9848
vn 0.1043 0.4888 -0.8661
vn 0.1043 0.4887 -0.8662
vn 0.1599 0.7492 -0.6427
vn 0.1599 0.7493 -0.6427
vn 0.1962 0.9191 -0.3418
vn 0.2087 0.9780 0.0001
vn 0.2088 0.9780 0.0000
vn 0.1962 0.9190 0.3419
vn 0.1599 0.7493 0.6427
vn 0.1599 0.7492 0.6427
vn 0.1043 0.4888 0.8661
vn 0.1043 0.4887 0.8662
vn 0.0362 0.1697 0.9848
vn -0.0362 -0.1696 0.9848
vn -0.1044 -0.4889 0.8661
vn -0.1043 -0.4888 0.8661
vn -0.1599 -0.7492 0.6427
vn -0.1599 -0.7492 0.6428
vn -0.1962 -0.9190 0.3421
vn -0.1962 -0.9190 0.3420
vn -0.2056 -0.9631 0.1739
vn -0.2056 -0.9631 0.1737
vn 0.1962 -0.9190 -0.3420
vn 0.2056 -0.9631 -0.1739
vn 0.1961 -0.9190 -0.3421
vn 0.2056 -0.9631 -0.1736
vn 0.1599 -0.7492 -0.6427
vn 0.1043 -0.4888 -0.8661
vn 0.1044 -0.4889 -0.8661
vn 0.0362 -0.1696 -0.9848
vn -0.0362 0.1697 -0.9848
vn -0.1043 0.4888 -0.8662
vn -0.1043 0.4888 -0.8661
vn -0.1599 0.7492 -0.6427
vn -0.1599 0.7493 -0.6427
vn -0.1962 0.9191 -0.3418
vn -0.2087 0.9780 0.0000
vn -0.2088 0.9780 0.0000
vn -0.1962 0.9190 0.3419
vn -0.1599 0.7492 0.6427
vn -0.1599 0.7493 0.6427
vn -0.1043 0.4888 0.8661
vn -0.1043 0.4888 0.8662
vn -0.0362 0.1697 0.9848
vn 0.0362 -0.1696 0.9848
vn 0.1044 -0.4888 0.8661
vn 0.1043 -0.4888 0.8661
vn 0.1599 -0.7492 0.6427
vn 0.1962 -0.9190 0.3421
vn 0.1962 -0.9190 0.3420
vn 0.2056 -0.9631 0.1739
vn 0.2056 -0.9631 0.1737
vn -0.3421 0.9397 0.0000
vn -0.1736 0.9848 0.0000
vn -0.6429 0.7660 -0.0000
vn -0.8660 0.5000 -0.0000
vn -0.9848 0.1737 -0.0000
vn -0.9848 -0.1737 0.0000
vn -0.9848 -0.1736 -0.0000
vn -0.8660 -0.5000 -0.0000
vn -0.6428 -0.7661 -0.0000
vn -0.3421 -0.9397 -0.0000
vn 0.0000 -1.0000 0.0000
vn 0.3421 -0.9397 0.0000
vn 0.6428 -0.7661 0.0000
vn 0.8660 -0.5000 0.0000
vn 0.9848 -0.1736 0.0000
vn 0.9848 0.1737 0.0000
vn 0.8660 0.5000 0.0000
vn 0.6429 0.7660 0.0000
vn 0.3421 0.9397 0.0000
vn 0.1736 0.9848 0.0000
usemtl plastic_interior.001
s 1
f 1/1/1 2/2/2 3/3/3
f 1/1/1 3/3/3 4/4/4
f 5/5/5 6/6/6 2/2/2
f 5/5/5 2/2/2 1/1/1
f 7/7/7 6/6/6 5/5/5
f 6/6/6 7/7/7 8/8/8
f 7/7/7 9/9/9 8/8/8
f 9/9/9 7/7/7 10/10/9
f 11/11/10 9/9/9 10/10/9
f 9/9/9 11/11/10 12/12/10
f 11/11/10 13/13/11 12/12/10
f 13/13/11 11/11/10 14/14/12
f 15/15/13 13/13/11 14/14/12
f 13/13/11 15/15/13 16/16/14
f 17/17/15 18/18/15 16/16/14
f 17/17/15 16/16/14 15/15/13
f 19/19/16 20/20/17 18/18/15
f 19/19/16 18/18/15 17/17/15
f 21/21/18 19/19/16 22/22/18
f 19/19/16 21/21/18 20/20/17
f 23/23/19 22/22/18 24/24/20
f 22/22/18 23/23/19 21/21/18
f 25/25/21 24/24/20 26/26/22
f 24/24/20 25/25/21 23/23/19
f 27/27/23 28/28/23 25/25/21
f 27/27/23 25/25/21 26/26/22
f 29/29/24 27/27/23 30/30/24
f 27/27/23 29/29/24 28/28/23
f 31/31/25 32/32/26 29/29/24
f 31/31/25 29/29/24 30/30/24
f 33/33/27 34/34/28 32/32/26
f 33/33/27 32/32/26 31/31/25
f 35/35/29 33/33/27 36/36/30
f 33/33/27 35/35/29 34/34/28
f 37/37/31 36/36/30 38/38/32
f 36/36/30 37/37/31 35/35/29
f 39/39/33 40/40/34 41/41/35
f 40/40/34 39/39/33 42/42/36
f 43/43/37 41/41/35 44/44/37
f 41/41/35 43/43/37 39/39/33
f 45/45/38 43/43/37 44/44/37
f 43/43/37 45/45/38 46/46/39
f 47/47/40 48/48/40 45/45/38
f 46/46/39 45/45/38 48/48/40
f 49/49/41 50/50/41 47/47/40
f 48/48/40 47/47/40 50/50/41
f 51/51/42 50/50/41 49/49/41
f 50/50/41 51/51/42 52/52/43
f 53/53/44 52/52/43 51/51/42
f 52/52/43 53/53/44 54/54/45
f 55/55/46 53/53/44 56/56/46
f 53/53/44 55/55/46 54/54/45
f 57/57/47 56/56/46 58/58/48
f 56/56/46 57/57/47 55/55/46
f 59/59/49 57/57/47 58/58/48
f 57/57/47 59/59/49 60/60/49
f 61/61/50 60/60/49 59/59/49
f 60/60/49 61/61/50 62/62/51
f 63/63/52 61/61/50 64/64/53
f 62/62/51 61/61/50 63/63/52
f 65/65/54 63/63/52 64/64/53
f 63/63/52 65/65/54 66/66/54
f 67/67/55 65/65/54 68/68/55
f 66/66/54 65/65/54 67/67/55
f 69/69/56 67/67/55 68/68/55
f 67/67/55 69/69/56 70/70/57
f 71/71/58 70/70/57 69/69/56
f 70/70/57 71/71/58 72/72/58
f 73/73/59 72/72/58 71/71/58
f 72/72/58 73/73/59 74/74/60
f 75/75/61 74/74/60 73/73/59
f 74/74/60 75/75/61 76/76/62
f 77/77/63 78/78/64 79/79/64
f 78/78/64 77/77/63 80/80/63
f 77/77/63 81/81/65 80/80/63
f 81/81/65 77/77/63 82/82/65
f 81/81/65 82/82/65 83/83/66
f 81/81/65 83/83/66 84/84/66
f 84/84/66 83/83/66 85/85/67
f 84/84/66 85/85/67 86/86/67
f 86/86/67 85/85/67 87/87/68
f 86/86/67 87/87/68 88/88/69
f 88/88/69 87/87/68 89/89/70
f 88/88/69 89/89/70 90/90/70
f 91/91/71 90/90/70 89/89/70
f 90/90/70 91/91/71 92/92/71
f 93/93/72 94/94/72 92/92/71
f 92/92/71 91/91/71 93/93/72
f 95/95/73 93/93/72 96/96/73
f 93/93/72 95/95/73 94/94/72
f 97/97/74 96/96/73 98/98/74
f 96/96/73 97/97/74 95/95/73
f 99/99/75 100/100/75 97/97/74
f 97/97/74 98/98/74 99/99/75
f 101/101/76 102/102/76 100/100/75
f 101/101/76 100/100/75 99/99/75
f 103/103/77 101/101/76 104/104/77
f 101/101/76 103/103/77 102/102/76
f 105/105/78 104/104/77 106/106/78
f 104/104/77 105/105/78 103/103/77
f 107/107/79 106/106/78 108/108/79
f 106/106/78 107/107/79 105/105/78
f 109/109/80 108/108/79 110/110/80
f 108/108/79 109/109/80 107/107/79
f 111/111/81 109/109/80 110/110/80
f 109/109/80 111/111/81 112/112/81
f 111/111/81 113/113/82 112/112/81
f 113/113/82 111/111/81 114/114/82
f 115/115/82 116/116/82 117/117/81
f 117/117/81 116/116/82 118/118/81
f 117/117/81 118/118/81 119/119/80
f 119/119/80 118/118/81 120/120/80
f 121/121/79 122/122/79 120/120/80
f 119/119/80 120/120/80 122/122/79
f 123/123/78 124/124/78 121/121/79
f 122/122/79 121/121/79 124/124/78
f 125/125/77 126/126/77 123/123/78
f 124/124/78 123/123/78 126/126/77
f 127/127/76 128/128/76 125/125/77
f 126/126/77 125/125/77 128/128/76
f 129/129/75 130/130/75 127/127/76
f 128/128/76 127/127/76 130/130/75
f 131/131/74 130/130/75 129/129/75
f 130/130/75 131/131/74 132/132/74
f 133/133/73 132/132/74 131/131/74
f 132/132/74 133/133/73 134/134/73
f 135/135/72 134/134/73 133/133/73
f 134/134/73 135/135/72 136/136/72
f 137/137/71 138/138/71 135/135/72
f 135/135/72 138/138/71 136/136/72
f 139/139/70 138/138/71 137/137/71
f 138/138/71 139/139/70 140/140/70
f 141/141/69 140/140/70 139/139/70
f 140/140/70 141/141/69 142/142/69
f 143/143/67 141/141/69 144/144/67
f 141/141/69 143/143/67 142/142/69
f 145/145/66 143/143/67 144/144/67
f 143/143/67 145/145/66 146/146/66
f 147/147/65 146/146/66 145/145/66
f 146/146/66 147/147/65 148/148/65
f 148/148/65 149/149/63 150/150/63
f 149/149/63 148/148/65 147/147/65
f 150/150/63 149/149/63 151/151/64
f 151/151/64 149/149/63 152/152/64
