# Blender v3.1.2 OBJ File: 'car.blend'
# www.blender.org
mtllib Mesh_108.001.mtl
o Mesh_108_Mesh_108.001
v 0.009023 1.190996 0.950685
v 0.009023 1.190996 0.944459
v 0.010052 1.192622 0.950685
v 0.010052 1.192622 0.944459
v 0.010053 1.194992 0.950685
v 0.010053 1.194992 0.944459
v 0.010053 1.197329 0.950685
v 0.010053 1.197329 0.944459
v 0.010054 1.199533 0.950685
v 0.010054 1.199533 0.944459
v 0.010054 1.201668 0.950685
v 0.010054 1.201668 0.944459
v 0.009464 1.203539 0.950685
v 0.009464 1.203539 0.944459
v 0.007573 1.204631 0.944459
v 0.007573 1.204631 0.950685
v 0.005653 1.205739 0.944459
v 0.005653 1.205739 0.950685
v 0.003772 1.206826 0.944459
v 0.003772 1.206826 0.950685
v 0.001963 1.207871 0.944459
v 0.001963 1.207871 0.950685
v 0.000198 1.208889 0.944459
v 0.000198 1.208889 0.950685
v -0.001738 1.208000 0.944459
v -0.001738 1.208000 0.950685
v 0.000198 1.208889 0.944459
v 0.000198 1.208889 0.950685
v -0.003690 1.206874 0.944459
v -0.003690 1.206874 0.950685
v -0.005597 1.205773 0.944459
v -0.005597 1.205773 0.950685
v -0.007419 1.204721 0.944459
v -0.007419 1.204721 0.950685
v -0.009210 1.203688 0.944459
v -0.009210 1.203688 0.950685
v -0.009210 1.203688 0.944459
v -0.010052 1.202026 0.950685
v -0.009210 1.203688 0.950685
v -0.010052 1.202026 0.944459
v -0.010053 1.199766 0.950685
v -0.010053 1.199766 0.944459
v -0.010053 1.197567 0.950685
v -0.010053 1.197567 0.944459
v -0.010054 1.195418 0.950685
v -0.010054 1.195418 0.944459
v -0.010054 1.193299 0.950685
v -0.010054 1.193299 0.944459
v -0.009642 1.191355 0.950685
v -0.009642 1.191355 0.944459
v -0.007798 1.190290 0.950685
v -0.007798 1.190290 0.944459
v -0.005884 1.189185 0.950685
v -0.005884 1.189185 0.944459
v -0.004001 1.188097 0.950685
v -0.004001 1.188097 0.944459
v -0.002185 1.187048 0.950685
v -0.002185 1.187048 0.944459
v -0.000414 1.186025 0.950685
v -0.000414 1.186025 0.944459
v -0.000414 1.186025 0.950685
v -0.000414 1.186025 0.944459
v 0.001472 1.186639 0.950685
v 0.001472 1.186639 0.944459
v 0.003451 1.187781 0.950685
v 0.003451 1.187781 0.944459
v 0.005381 1.188894 0.950685
v 0.005381 1.188894 0.944459
v 0.007215 1.189953 0.950685
v 0.007215 1.189953 0.944459
v 0.009023 1.190996 0.944459
v 0.009023 1.190996 0.950685
v 0.001393 1.203186 0.940435
v 0.003418 1.202088 0.949712
v 0.001393 1.203186 0.949712
v 0.003418 1.202088 0.940435
v -0.000578 1.203094 0.949712
v -0.000578 1.203094 0.940435
v -0.002649 1.202531 0.949712
v -0.002649 1.202531 0.940435
v -0.004220 1.201373 0.949712
v -0.004220 1.201373 0.940435
v -0.005323 1.199465 0.949712
v -0.005323 1.199465 0.940435
v -0.005773 1.197281 0.949712
v -0.005773 1.197281 0.940435
v -0.005323 1.199465 0.949712
v -0.005323 1.199465 0.940435
v -0.005354 1.195382 0.949712
v -0.005354 1.195382 0.940435
v -0.004233 1.193439 0.949712
v -0.004233 1.193439 0.940435
v -0.005354 1.195382 0.949712
v -0.005354 1.195382 0.940435
v -0.002437 1.192138 0.949712
v -0.002437 1.192138 0.940435
v -0.000551 1.191753 0.940435
v -0.000551 1.191753 0.949712
v 0.001522 1.191753 0.940435
v 0.001522 1.191753 0.949712
v 0.003690 1.192861 0.940435
v 0.003690 1.192861 0.949712
v 0.004837 1.194488 0.940435
v 0.004837 1.194488 0.949712
v 0.005770 1.196375 0.940435
v 0.004837 1.194488 0.949712
v 0.005770 1.196375 0.949712
v 0.004837 1.194488 0.940435
v 0.005758 1.198679 0.940435
v 0.005758 1.198679 0.949712
v 0.004773 1.200617 0.940435
v 0.004773 1.200617 0.949712
v 0.003418 1.202088 0.940435
v 0.003418 1.202088 0.949712
vt 0.942654 -0.287287
vt 0.941223 -0.287287
vt 0.942654 -0.286750
vt 0.941223 -0.286750
vt 0.942654 -0.286243
vt 0.941223 -0.286243
vt 0.941223 -0.284816
vt 0.942654 -0.284816
vt 0.941223 -0.285071
vt 0.942654 -0.285071
vt 0.941223 -0.284566
vt 0.942654 -0.284566
vt 0.941223 -0.284326
vt 0.942654 -0.284326
vt 0.753576 -0.946636
vt 0.753576 -0.948067
vt 0.753138 -0.946636
vt 0.753138 -0.948067
vt 0.753995 -0.946636
vt 0.753995 -0.948067
vt 0.966111 -0.285047
vt 0.964680 -0.285552
vt 0.964680 -0.285047
vt 0.966111 -0.285552
vt 0.964680 -0.286046
vt 0.966111 -0.286046
vt 0.964680 -0.287225
vt 0.966111 -0.287225
vt 0.964680 -0.287479
vt 0.966111 -0.287479
vt 0.964680 -0.287729
vt 0.966111 -0.287729
vt 0.964680 -0.287971
vt 0.966111 -0.287971
vt 0.775144 -0.731733
vt 0.774701 -0.730301
vt 0.775144 -0.730301
vt 0.774701 -0.731733
vt 0.774279 -0.730301
vt 0.774279 -0.731733
vt 0.942654 -0.288206
vt 0.941223 -0.288206
vt 0.942654 -0.287832
vt 0.941223 -0.287832
vt 0.942654 -0.285752
vt 0.941223 -0.285752
vt 0.942654 -0.285322
vt 0.941223 -0.285322
vt 0.941223 -0.284092
vt 0.942654 -0.284092
vt 0.752689 -0.946636
vt 0.752689 -0.948067
vt 0.752244 -0.946636
vt 0.752244 -0.948067
vt 0.754407 -0.946636
vt 0.754407 -0.948067
vt 0.966111 -0.284145
vt 0.964680 -0.284527
vt 0.964680 -0.284145
vt 0.966111 -0.284527
vt 0.964680 -0.286533
vt 0.966111 -0.286533
vt 0.964680 -0.286980
vt 0.966111 -0.286980
vt 0.964680 -0.288206
vt 0.966111 -0.288206
vt 0.776033 -0.730301
vt 0.776033 -0.731733
vt 0.775599 -0.730301
vt 0.775599 -0.731733
vt 0.773863 -0.731733
vt 0.773863 -0.730301
vt 0.881164 -0.197704
vt 0.880699 -0.195571
vt 0.881164 -0.195571
vt 0.880699 -0.197704
vt 0.881618 -0.195571
vt 0.881618 -0.197704
vt 0.882094 -0.195571
vt 0.882094 -0.197704
vt 0.882455 -0.195571
vt 0.882455 -0.197704
vt 0.882709 -0.195571
vt 0.882709 -0.197704
vt 0.794685 -0.730804
vt 0.792552 -0.730804
vt 0.794685 -0.730301
vt 0.792552 -0.730301
vt 0.794685 -0.731240
vt 0.792552 -0.731240
vt 0.829978 -0.920900
vt 0.829978 -0.918767
vt 0.830236 -0.920900
vt 0.830236 -0.918767
vt 0.829565 -0.920900
vt 0.829565 -0.918767
vt 0.829132 -0.918767
vt 0.829132 -0.920900
vt 0.828655 -0.918767
vt 0.828655 -0.920900
vt 0.828157 -0.918767
vt 0.828157 -0.920900
vt 0.827893 -0.918767
vt 0.827893 -0.920900
vt 0.735724 -0.947949
vt 0.733591 -0.948383
vt 0.733591 -0.947949
vt 0.735724 -0.948383
vt 0.735724 -0.947419
vt 0.733591 -0.947419
vt 0.735724 -0.946974
vt 0.733591 -0.946974
vt 0.735724 -0.946636
vt 0.733591 -0.946636
vn 1.0000 -0.0002 0.0000
vn 0.5000 0.8660 0.0000
vn 0.5003 0.8658 0.0000
vn 0.5003 0.8659 0.0000
vn 0.5001 0.8660 0.0000
vn -0.5000 0.8660 0.0000
vn -1.0000 0.0002 0.0000
vn -0.5000 -0.8660 0.0000
vn -0.5002 -0.8659 0.0000
vn 0.4996 -0.8663 0.0000
vn 0.5000 -0.8660 0.0000
vn 0.8449 -0.5349 0.0000
vn 0.9604 -0.2785 0.0000
vn 0.9884 0.1521 0.0000
vn 0.7799 0.6260 0.0000
vn 0.4998 0.8662 0.0000
vn 0.4999 0.8661 0.0000
vn -0.4590 0.8884 0.0000
vn -0.4172 0.9088 0.0000
vn -0.4999 0.8661 0.0000
vn -0.4997 0.8662 0.0000
vn -0.4998 0.8661 0.0000
vn -0.8919 0.4523 0.0000
vn -0.9726 0.2326 0.0000
vn -0.9946 -0.1041 0.0000
vn -0.8093 -0.5874 0.0000
vn -0.5001 -0.8660 0.0000
vn -0.5001 -0.8659 0.0000
vn 0.3096 -0.9509 0.0000
vn 0.4069 -0.9135 0.0000
vn 0.4997 -0.8662 0.0000
vn 0.4999 -0.8661 0.0000
vn 0.4998 -0.8662 0.0000
vn -0.2232 -0.9748 0.0000
vn -0.4766 -0.8791 0.0000
vn 0.1555 -0.9878 0.0000
vn 0.4352 -0.9003 0.0000
vn 0.7452 -0.6668 0.0000
vn 0.8657 -0.5005 0.0000
vn 1.0000 0.0069 0.0000
vn 0.9795 -0.2016 0.0000
vn 0.9766 0.2151 0.0000
vn 0.7427 0.6697 0.0000
vn 0.8660 0.5000 0.0000
vn 0.4024 0.9155 0.0000
vn 0.1005 0.9949 0.0000
vn -0.2340 0.9722 0.0000
vn -0.6553 0.7554 0.0000
vn -0.8173 0.5762 0.0000
vn -0.9743 0.2251 0.0000
vn -0.8964 0.4433 0.0000
vn -0.9719 -0.2355 0.0000
vn -0.8212 -0.5707 0.0000
vn -0.7354 -0.6777 0.0000
usemtl chrome_ao.001
s off
f 5/1/1 6/2/1 7/3/1
f 8/4/1 7/3/1 6/2/1
f 7/3/1 8/4/1 9/5/1
f 10/6/1 9/5/1 8/4/1
f 17/7/2 18/8/2 15/9/2
f 15/9/2 18/8/2 16/10/2
f 19/11/3 20/12/3 17/7/3
f 17/7/4 20/12/4 18/8/4
f 21/13/5 22/14/5 19/11/5
f 19/11/5 22/14/5 20/12/5
f 31/15/6 32/16/6 29/17/6
f 29/17/6 32/16/6 30/18/6
f 33/19/6 34/20/6 31/15/6
f 31/15/6 34/20/6 32/16/6
f 42/21/7 43/22/7 41/23/7
f 43/22/7 42/21/7 44/24/7
f 44/24/7 45/25/7 43/22/7
f 45/25/7 44/24/7 46/26/7
f 51/27/8 52/28/8 53/29/8
f 53/29/8 52/28/8 54/30/8
f 53/29/9 54/30/9 55/31/9
f 55/31/9 54/30/9 56/32/9
f 55/31/9 56/32/9 57/33/9
f 57/33/9 56/32/9 58/34/9
f 66/35/10 67/36/10 65/37/10
f 67/36/10 66/35/10 68/38/10
f 68/38/11 69/39/11 67/36/11
f 69/39/11 68/38/11 70/40/11
s 1
f 1/41/12 2/42/12 3/43/13
f 4/44/13 3/43/13 2/42/12
f 3/43/13 4/44/13 5/1/1
f 6/2/1 5/1/1 4/44/13
f 9/5/1 10/6/1 11/45/14
f 12/46/14 11/45/14 10/6/1
f 11/45/14 12/46/14 13/47/15
f 14/48/15 13/47/15 12/46/14
f 15/9/2 16/10/2 14/48/15
f 14/48/15 16/10/2 13/47/15
f 23/49/16 24/50/16 21/13/17
f 21/13/17 24/50/16 22/14/17
f 25/51/18 26/52/18 27/53/19
f 27/53/19 26/52/18 28/54/19
f 29/17/20 30/18/20 25/51/18
f 25/51/18 30/18/20 26/52/18
f 35/55/21 36/56/21 33/19/22
f 33/19/22 36/56/21 34/20/22
f 37/57/23 38/58/24 39/59/23
f 38/58/24 37/57/23 40/60/24
f 40/60/24 41/23/7 38/58/24
f 41/23/7 40/60/24 42/21/7
f 46/26/7 47/61/25 45/25/7
f 47/61/25 46/26/7 48/62/25
f 48/62/25 49/63/26 47/61/25
f 49/63/26 48/62/25 50/64/26
f 49/63/26 50/64/26 51/27/27
f 51/27/27 50/64/26 52/28/27
f 57/33/28 58/34/28 59/65/27
f 59/65/27 58/34/28 60/66/27
f 61/67/29 62/68/29 63/69/30
f 63/69/30 62/68/29 64/70/30
f 63/69/30 64/70/30 65/37/31
f 65/37/31 64/70/30 66/35/31
f 69/39/32 71/71/33 72/72/33
f 71/71/33 69/39/32 70/40/32
f 73/73/34 74/74/35 75/75/34
f 74/74/35 73/73/34 76/76/35
f 77/77/36 78/78/36 75/75/34
f 75/75/34 78/78/36 73/73/34
f 79/79/37 80/80/37 77/77/36
f 77/77/36 80/80/37 78/78/36
f 81/81/38 82/82/38 79/79/37
f 79/79/37 82/82/38 80/80/37
f 83/83/39 84/84/39 81/81/38
f 82/82/38 81/81/38 84/84/39
f 85/85/40 86/86/40 87/87/41
f 88/88/41 87/87/41 86/86/40
f 89/89/42 90/90/42 85/85/40
f 86/86/40 85/85/40 90/90/42
f 91/91/43 92/92/43 93/93/44
f 94/94/44 93/93/44 92/92/43
f 92/92/43 95/95/45 96/96/45
f 95/95/45 92/92/43 91/91/43
f 96/96/45 95/95/45 97/97/46
f 97/97/46 95/95/45 98/98/46
f 97/97/46 98/98/46 99/99/47
f 99/99/47 98/98/46 100/100/47
f 99/99/47 100/100/47 101/101/48
f 101/101/48 100/100/47 102/102/48
f 103/103/49 102/102/48 104/104/49
f 102/102/48 103/103/49 101/101/48
f 105/105/50 106/106/51 107/107/50
f 106/106/51 105/105/50 108/108/51
f 109/109/52 107/107/50 110/110/52
f 107/107/50 109/109/52 105/105/50
f 111/111/53 110/110/52 112/112/53
f 110/110/52 111/111/53 109/109/52
f 113/113/54 112/112/53 114/114/54
f 112/112/53 113/113/54 111/111/53
