# Blender v3.1.2 OBJ File: 'car.blend'
# www.blender.org
mtllib Mesh_198.001.mtl
o Mesh_198_Mesh_198.001
v -0.563873 1.751138 -0.091788
v -0.624434 1.749825 -0.083079
v -0.553622 1.747876 -0.070143
v -0.550977 1.746558 -0.061399
v -0.634484 1.746693 -0.062295
v -0.544568 1.743514 -0.041204
v -0.575584 1.753116 -0.104911
v -0.613516 1.752094 -0.098133
v -0.600865 1.753514 -0.107556
v -0.588114 1.753873 -0.109937
v -0.613276 1.752143 -0.098460
v -0.643241 1.742864 -0.036889
v -0.650429 1.738461 -0.007672
v -0.651591 1.737374 -0.000461
v 0.650506 1.738461 -0.007672
v 0.536918 1.738267 -0.006389
v 0.651667 1.737374 -0.000462
v 0.643317 1.742864 -0.036890
v 0.544644 1.743514 -0.041204
v 0.634560 1.746693 -0.062295
v 0.551053 1.746558 -0.061400
v -0.518553 1.713320 0.159139
v -0.630074 1.707960 0.194708
v -0.628331 1.707373 0.198602
v -0.519068 1.714029 0.154434
v -0.641914 1.712566 0.164144
v -0.655829 1.723218 0.093466
v -0.522726 1.721064 0.107758
v -0.525311 1.725870 0.075869
v -0.645642 1.714488 0.151390
v -0.521342 1.719351 0.119125
v -0.650817 1.717893 0.128800
v -0.536842 1.738267 -0.006389
v -0.654803 1.733608 0.024526
v -0.656650 1.728477 0.058568
v -0.529889 1.730986 0.041924
v -0.656065 1.723760 0.089870
v -0.530778 1.732326 0.033029
v -0.518341 1.700330 0.245331
v -0.570830 1.695430 0.277848
v -0.518315 1.699893 0.248235
v -0.590819 1.698419 0.258011
v -0.565138 1.694869 0.281568
v -0.552440 1.693694 0.289365
v -0.522557 1.696206 0.272696
v -0.526927 1.694314 0.285249
v -0.537449 1.693313 0.291896
v -0.521263 1.696660 0.269684
v 0.517192 1.704339 0.218734
v 0.610619 1.702526 0.230764
v 0.517090 1.708132 0.193565
v 0.517019 1.703725 0.222807
v 0.591835 1.698602 0.256795
v 0.518417 1.700330 0.245331
v 0.518391 1.699893 0.248234
v 0.612006 1.702879 0.228417
v 0.628407 1.707373 0.198602
v 0.650893 1.717893 0.128800
v 0.521418 1.719351 0.119125
v 0.645718 1.714488 0.151389
v 0.525387 1.725870 0.075869
v 0.655905 1.723218 0.093466
v 0.656141 1.723760 0.089869
v 0.630151 1.707960 0.194708
v 0.518629 1.713320 0.159139
v 0.641990 1.712566 0.164144
v 0.519144 1.714029 0.154434
v 0.522802 1.721064 0.107758
v 0.517420 1.708706 0.189759
v 0.656726 1.728478 0.058568
v 0.530854 1.732326 0.033029
v 0.654879 1.733608 0.024526
v 0.529965 1.730986 0.041923
v 0.575660 1.753116 -0.104911
v 0.600941 1.753515 -0.107557
v 0.588190 1.753873 -0.109938
v 0.624510 1.749825 -0.083079
v 0.553698 1.747875 -0.070142
v 0.613592 1.752094 -0.098134
v 0.563950 1.751138 -0.091788
v 0.613352 1.752143 -0.098460
v 0.570906 1.695430 0.277847
v 0.590895 1.698419 0.258011
v 0.522633 1.696206 0.272695
v 0.565215 1.694869 0.281568
v 0.521339 1.696660 0.269684
v 0.552517 1.693694 0.289365
v 0.527003 1.694314 0.285249
v 0.537525 1.693313 0.291896
v -0.591759 1.698602 0.256796
v -0.516943 1.703725 0.222807
v -0.517343 1.708706 0.189760
v -0.517013 1.708132 0.193565
v -0.610542 1.702526 0.230764
v -0.517116 1.704339 0.218735
v -0.611929 1.702879 0.228417
vt -39.899597 -13.689139
vt -44.236168 -13.053390
vt -39.163620 -12.122260
vt -38.973431 -11.489190
vt -44.954220 -11.547259
vt -38.512737 -10.027040
vt -40.739399 -14.638690
vt -43.455521 -14.144670
vt -42.550209 -14.828190
vt -41.637188 -15.001710
vt -43.438328 -14.168320
vt -45.579330 -9.706443
vt -46.091728 -7.589670
vt -46.174320 -7.067301
vt 47.080719 -7.696514
vt 38.945740 -7.594215
vt 47.164497 -7.174362
vt 46.563457 -9.812089
vt 39.496159 -10.116480
vt 45.934139 -11.651450
vt 39.953518 -11.579770
vt -36.632919 4.481402
vt -44.617107 7.066762
vt -44.491909 7.348628
vt -36.670200 4.140656
vt -45.467548 4.853980
vt -46.470058 -0.263953
vt -36.936058 0.760294
vt -37.123871 -1.549195
vt -45.735649 3.930532
vt -36.836002 1.583406
vt -46.108150 2.294812
vt -37.956551 -7.506055
vt -46.402267 -5.257232
vt -46.531731 -2.791512
vt -37.454517 -4.007401
vt -46.487228 -0.524423
vt -37.518978 -4.651564
vt -36.610588 10.724120
vt -40.367107 13.083529
vt -36.608471 10.934400
vt -41.800369 11.648450
vt -39.959190 13.352530
vt -39.049137 13.916220
vt -36.910297 12.706420
vt -37.222191 13.616019
vt -37.975208 14.098269
vt -36.817848 12.488199
vt 37.551628 8.712689
vt 44.243820 9.576361
vt 37.542229 6.889707
vt 37.539577 9.007720
vt 42.900738 11.463280
vt 37.641598 10.638960
vt 37.639957 10.849270
vt 44.342987 9.406212
vt 45.515167 7.245402
vt 47.119801 2.187938
vt 37.846039 1.497789
vt 46.751060 3.824446
vt 38.126720 -1.635469
vt 47.475838 -0.371639
vt 47.492420 -0.632225
vt 45.639717 6.963250
vt 37.649597 4.396241
vt 46.485081 4.748573
vt 37.686108 4.055371
vt 37.944229 0.674406
vt 37.565540 6.614078
vt 47.531708 -2.899361
vt 38.514721 -4.738735
vt 47.396610 -5.364771
vt 38.451748 -4.094479
vt 41.712231 -14.733250
vt 43.522598 -14.926900
vt 42.609188 -15.098360
vt 45.212627 -13.155940
vt 40.142227 -12.213140
vt 44.429447 -14.245460
vt 40.874619 -13.781750
vt 44.412228 -14.269040
vt 41.403507 12.989779
vt 42.833469 11.551430
vt 37.945839 12.620560
vt 40.996239 13.259680
vt 37.852898 12.402590
vt 40.087467 13.825470
vt 38.259830 13.529480
vt 39.013958 14.009990
vt -41.867798 11.560500
vt -36.512310 9.092645
vt -36.543758 6.699078
vt -36.519810 6.974625
vt -43.215229 9.676627
vt -36.525040 8.797649
vt -43.314770 9.506749
vn -0.0000 0.9888 0.1490
vn -0.0000 0.9888 0.1491
vn -0.0008 0.9890 0.1482
vn -0.0001 0.9889 0.1488
vn -0.0000 0.9888 0.1489
vn 0.0000 0.9889 0.1488
vn 0.0001 0.9889 0.1488
vn -0.0000 0.9888 0.1492
vn 0.0006 0.9889 0.1485
usemtl carbon.001
s off
f 1/1/1 2/2/1 3/3/1
f 4/4/1 5/5/1 6/6/1
f 3/3/2 5/5/2 4/4/2
f 3/3/1 2/2/1 5/5/1
f 7/7/1 8/8/1 1/1/1
f 9/9/1 7/7/1 10/10/1
f 9/9/1 8/8/1 7/7/1
f 8/8/3 9/9/3 11/11/3
f 2/2/1 1/1/1 8/8/1
f 12/12/1 6/6/1 5/5/1
f 13/13/1 6/6/1 12/12/1
f 14/14/2 6/6/2 13/13/2
f 15/15/2 16/16/2 17/17/2
f 18/18/1 16/16/1 15/15/1
f 19/19/1 18/18/1 20/20/1
f 19/19/1 20/20/1 21/21/1
f 16/16/1 18/18/1 19/19/1
f 22/22/2 23/23/2 24/24/2
f 23/23/1 25/25/1 26/26/1
f 27/27/1 28/28/1 29/29/1
f 25/25/1 23/23/1 22/22/1
f 30/30/1 31/31/1 32/32/1
f 26/26/1 31/31/1 30/30/1
f 32/32/1 31/31/1 28/28/1
f 31/31/1 26/26/1 25/25/1
f 28/28/1 27/27/1 32/32/1
f 6/6/1 14/14/1 33/33/1
f 34/34/1 33/33/1 14/14/1
f 35/35/1 36/36/1 34/34/1
f 37/37/1 29/29/1 35/35/1
f 27/27/1 29/29/1 37/37/1
f 36/36/1 35/35/1 29/29/1
f 38/38/1 34/34/1 36/36/1
f 33/33/1 34/34/1 38/38/1
f 39/39/4 40/40/4 41/41/4
f 40/40/1 39/39/1 42/42/1
f 43/43/1 41/41/1 40/40/1
f 44/44/1 45/45/1 43/43/1
f 46/46/5 44/44/5 47/47/5
f 45/45/1 44/44/1 46/46/1
f 48/48/2 43/43/2 45/45/2
f 41/41/1 43/43/1 48/48/1
f 49/49/1 50/50/1 51/51/1
f 52/52/1 53/53/1 49/49/1
f 54/54/2 53/53/2 52/52/2
f 55/55/6 53/53/6 54/54/6
f 50/50/2 49/49/2 53/53/2
f 51/51/7 50/50/7 56/56/7
f 51/51/1 56/56/1 57/57/1
f 58/58/1 59/59/1 60/60/1
f 61/61/1 62/62/1 63/63/1
f 64/64/2 65/65/2 57/57/2
f 66/66/1 67/67/1 64/64/1
f 66/66/1 59/59/1 67/67/1
f 59/59/1 66/66/1 60/60/1
f 62/62/1 68/68/1 58/58/1
f 68/68/1 62/62/1 61/61/1
f 59/59/1 58/58/1 68/68/1
f 65/65/1 64/64/1 67/67/1
f 69/69/1 57/57/1 65/65/1
f 51/51/8 57/57/8 69/69/8
f 61/61/1 63/63/1 70/70/1
f 71/71/1 72/72/1 16/16/1
f 73/73/1 72/72/1 71/71/1
f 61/61/1 70/70/1 73/73/1
f 72/72/1 73/73/1 70/70/1
f 16/16/1 72/72/1 17/17/1
f 74/74/6 75/75/6 76/76/6
f 77/77/1 78/78/1 20/20/1
f 79/79/1 80/80/1 77/77/1
f 75/75/2 74/74/2 79/79/2
f 75/75/9 79/79/9 81/81/9
f 80/80/1 79/79/1 74/74/1
f 78/78/2 77/77/2 80/80/2
f 21/21/1 20/20/1 78/78/1
f 55/55/1 82/82/1 83/83/1
f 84/84/2 85/85/2 86/86/2
f 86/86/1 85/85/1 55/55/1
f 87/87/1 84/84/1 88/88/1
f 87/87/5 88/88/5 89/89/5
f 85/85/1 84/84/1 87/87/1
f 82/82/2 55/55/2 85/85/2
f 55/55/6 83/83/6 53/53/6
f 90/90/1 39/39/1 91/91/1
f 24/24/1 92/92/1 22/22/1
f 39/39/2 90/90/2 42/42/2
f 93/93/1 94/94/1 95/95/1
f 90/90/2 91/91/2 95/95/2
f 92/92/2 96/96/2 93/93/2
f 96/96/2 92/92/2 24/24/2
f 94/94/4 93/93/4 96/96/4
f 90/90/2 95/95/2 94/94/2
