# Blender v3.1.2 OBJ File: 'car.blend'
# www.blender.org
mtllib Mesh_86.001.mtl
o Mesh_86_Mesh_86.001
v -0.424644 1.013617 0.348546
v -0.430660 1.027533 0.376422
v -0.430660 1.012200 0.345709
v -0.420180 1.023946 0.369236
v -0.420180 1.015787 0.352894
v -0.417804 1.021283 0.363903
v -0.444340 1.027533 0.376422
v -0.444340 1.012200 0.345709
v -0.437500 1.011708 0.344723
v -0.454821 1.023946 0.369236
v -0.450356 1.013617 0.348546
v -0.450356 1.026116 0.373584
v -0.437500 1.028025 0.377408
v -0.424644 1.026116 0.373584
v -0.417804 1.018450 0.358227
v -0.457196 1.018450 0.358227
v -0.454821 1.015787 0.352894
v -0.457196 1.021283 0.363903
vt 0.178606 -0.883022
vt 0.328990 -0.030154
vt 0.328990 -0.969846
vt 0.066987 -0.250000
vt 0.066987 -0.750000
vt 0.007596 -0.413176
vt 0.671010 -0.030154
vt 0.671010 -0.969846
vt 0.500000 -1.000000
vt 0.933013 -0.250000
vt 0.821394 -0.883022
vt 0.821394 -0.116978
vt 0.500000 0.000000
vt 0.178606 -0.116978
vt 0.007596 -0.586824
vt 0.992404 -0.586824
vt 0.933013 -0.750000
vt 0.992404 -0.413176
vn 0.0001 -0.8947 0.4467
vn -0.0001 -0.8947 0.4467
vn 0.0000 -0.8947 0.4467
vn -0.0001 -0.8947 0.4466
vn 0.0003 -0.8947 0.4466
usemtl cables_red.001
s off
f 1/1/1 2/2/1 3/3/1
f 4/4/2 5/5/2 6/6/2
f 7/7/3 8/8/3 9/9/3
f 10/10/4 11/11/4 12/12/4
f 9/9/3 13/13/3 7/7/3
f 3/3/3 13/13/3 9/9/3
f 5/5/4 14/14/4 1/1/4
f 6/6/5 5/5/5 15/15/5
f 14/14/1 5/5/1 4/4/1
f 2/2/4 1/1/4 14/14/4
f 13/13/3 3/3/3 2/2/3
f 12/12/3 8/8/3 7/7/3
f 10/10/2 16/16/2 17/17/2
f 16/16/5 10/10/5 18/18/5
f 11/11/1 10/10/1 17/17/1
f 8/8/4 12/12/4 11/11/4
