# Blender v3.1.2 OBJ File: 'car.blend'
# www.blender.org
mtllib Mesh_236.001.mtl
o Mesh_236_Mesh_236.001
v 0.000007 1.257564 0.784070
v 0.014768 1.216792 0.784069
v 0.009490 1.213524 0.784071
v -0.009475 1.213524 0.784071
v -0.014753 1.216792 0.784069
v 0.023207 1.233749 0.784069
v 0.022991 1.231408 0.784069
v 0.000007 1.211532 0.784071
v 0.007298 1.212674 0.784069
v -0.017789 1.249624 0.784069
v -0.013200 1.253804 0.784069
v -0.022976 1.231408 0.784069
v -0.023192 1.233749 0.784069
v -0.011201 1.255042 0.784071
v -0.005414 1.257282 0.784069
v 0.013215 1.253804 0.784069
v 0.017804 1.249624 0.784069
v 0.011216 1.255042 0.784071
v 0.005429 1.257282 0.784069
v 0.019222 1.247747 0.784069
v 0.021988 1.242190 0.784069
v 0.022632 1.239928 0.784069
v 0.021292 1.225437 0.784069
v 0.020245 1.223331 0.784069
v 0.016505 1.218377 0.784071
v -0.007283 1.212674 0.784069
v -0.016491 1.218377 0.784071
v -0.020231 1.223331 0.784069
v -0.021278 1.225437 0.784069
v -0.022618 1.239928 0.784069
v -0.021973 1.242190 0.784069
v -0.019207 1.247747 0.784069
vt 0.792744 -0.862320
vt 0.667982 -0.517709
vt 0.712595 -0.490089
vt 0.872892 -0.490089
vt 0.917505 -0.517709
vt 0.596654 -0.661031
vt 0.598482 -0.641246
vt 0.792744 -0.473250
vt 0.731123 -0.482903
vt 0.943168 -0.795213
vt 0.904379 -0.830539
vt 0.987005 -0.641246
vt 0.988833 -0.661031
vt 0.887482 -0.841004
vt 0.838569 -0.859936
vt 0.681108 -0.830539
vt 0.642319 -0.795213
vt 0.698005 -0.841004
vt 0.746918 -0.859936
vt 0.630340 -0.779343
vt 0.606955 -0.732379
vt 0.601511 -0.713259
vt 0.612837 -0.590774
vt 0.621685 -0.572980
vt 0.653297 -0.531105
vt 0.854363 -0.482903
vt 0.932189 -0.531105
vt 0.963801 -0.572980
vt 0.972650 -0.590774
vt 0.983976 -0.713259
vt 0.978532 -0.732379
vt 0.955147 -0.779343
vn -0.0004 -0.0001 -1.0000
vn 0.0004 -0.0001 -1.0000
vn -0.0001 0.0000 -1.0000
vn -0.0012 0.0055 -1.0000
vn 0.0001 -0.0002 -1.0000
vn 0.0001 0.0000 -1.0000
vn 0.0004 -0.0019 -1.0000
vn -0.0001 -0.0002 -1.0000
vn -0.0004 -0.0019 -1.0000
vn 0.0008 0.0030 -1.0000
vn -0.0001 -0.0001 -1.0000
vn -0.0000 -0.0000 -1.0000
vn -0.0004 -0.0002 -1.0000
vn 0.0010 0.0004 -1.0000
vn 0.0012 0.0055 -1.0000
vn -0.0009 0.0004 -1.0000
vn 0.0004 -0.0002 -1.0000
vn 0.0001 -0.0001 -1.0000
vn -0.0008 0.0030 -1.0000
usemtl sf21_sw_buttons.001
s off
f 1/1/1 2/2/1 3/3/1
f 1/1/2 4/4/2 5/5/2
f 1/1/3 6/6/3 7/7/3
f 8/8/4 3/3/4 9/9/4
f 1/1/5 10/10/5 11/11/5
f 1/1/6 12/12/6 13/13/6
f 1/1/7 14/14/7 15/15/7
f 1/1/8 16/16/8 17/17/8
f 18/18/9 1/1/9 19/19/9
f 16/16/10 1/1/10 18/18/10
f 20/20/11 1/1/11 17/17/11
f 21/21/3 1/1/3 20/20/3
f 22/22/3 1/1/3 21/21/3
f 6/6/12 1/1/12 22/22/12
f 23/23/3 1/1/3 7/7/3
f 24/24/12 1/1/12 23/23/12
f 25/25/13 1/1/13 24/24/13
f 2/2/14 1/1/14 25/25/14
f 3/3/12 8/8/12 1/1/12
f 4/4/12 1/1/12 8/8/12
f 4/4/15 8/8/15 26/26/15
f 27/27/16 1/1/16 5/5/16
f 28/28/17 1/1/17 27/27/17
f 29/29/12 1/1/12 28/28/12
f 12/12/6 1/1/6 29/29/6
f 30/30/6 1/1/6 13/13/6
f 31/31/6 1/1/6 30/30/6
f 32/32/6 1/1/6 31/31/6
f 10/10/18 1/1/18 32/32/18
f 14/14/19 1/1/19 11/11/19
