# Blender v3.1.2 OBJ File: 'car.blend'
# www.blender.org
mtllib Mesh_11.001.mtl
o Mesh_11_Mesh_11.001
v -1.957905 0.790052 3.173511
v -1.988095 0.770879 3.193904
v -1.986247 0.796917 3.186800
v -1.959584 0.766386 3.179968
v -1.956326 0.812287 3.163048
v -1.984510 0.821379 3.175288
v -1.954896 0.832431 3.148958
v -1.982937 0.843542 3.159787
v -1.953661 0.849827 3.131625
v -1.981578 0.862681 3.140717
v -1.980485 0.878072 3.118496
v -1.952668 0.863816 3.111428
v -1.979679 0.889430 3.093913
v -1.951935 0.874139 3.089084
v -1.951480 0.880537 3.065310
v -1.979006 0.898902 3.040814
v -1.951323 0.882749 3.040821
v -1.979179 0.896468 3.067757
v -1.951481 0.880516 3.016335
v -1.979180 0.896445 3.013874
v -1.951936 0.874098 2.992566
v -1.979681 0.889384 2.987724
v -1.980488 0.878004 2.963151
v -1.953664 0.849748 2.950047
v -1.952670 0.863755 2.970231
v -1.981581 0.862594 2.940944
v -1.982941 0.843438 2.921890
v -1.954900 0.832337 2.932728
v -1.984514 0.821262 2.906409
v -1.956330 0.812180 2.918656
v -1.957909 0.789937 2.908212
v -1.988100 0.770746 2.887837
v -1.959589 0.766265 2.901776
v -1.986251 0.796790 2.894918
v -1.990008 0.743855 2.885584
v -1.961323 0.741823 2.899729
v -1.963060 0.717360 2.901937
v -1.991919 0.716941 2.888015
v -1.964745 0.693624 2.908270
v -1.993772 0.690826 2.894982
v -1.966324 0.671364 2.918594
v -1.995510 0.666336 2.906340
v -1.969979 0.619882 2.970380
v -2.000346 0.598217 2.987798
v -1.970720 0.609448 2.992633
v -1.999531 0.609695 2.963315
v -1.968976 0.634004 2.950232
v -1.998428 0.625233 2.941148
v -1.967746 0.651327 2.932776
v -1.997075 0.644292 2.921943
v -2.000835 0.591335 3.013955
v -1.971164 0.603193 3.016409
v -2.000997 0.589049 3.040950
v -1.971312 0.601115 3.040945
v -1.971163 0.603215 3.065479
v -2.000834 0.591358 3.067942
v -1.970718 0.609491 3.089248
v -2.000344 0.598263 3.094094
v -1.969977 0.619943 3.111492
v -1.999529 0.609763 3.118567
v -1.998425 0.625320 3.140719
v -1.968974 0.634083 3.131626
v -1.995506 0.666453 3.175492
v -1.967743 0.651422 3.149068
v -1.997071 0.644396 3.159908
v -1.966321 0.671470 3.163232
v -1.993767 0.690953 3.186829
v -1.964740 0.693739 3.173537
v -1.991914 0.717074 3.193773
v -1.963056 0.717481 3.179849
v -1.990004 0.743990 3.196180
v -1.961319 0.741946 3.182037
v -1.994684 0.772413 3.199917
v -1.992763 0.799473 3.192534
v -1.990959 0.824897 3.180570
v -1.989324 0.847930 3.164460
v -1.987911 0.867822 3.144640
v -1.986776 0.883817 3.121546
v -1.985938 0.895622 3.095997
v -1.985418 0.902937 3.068813
v -1.985238 0.905466 3.040812
v -1.985419 0.902912 3.012813
v -1.985939 0.895573 2.985635
v -1.986778 0.883747 2.960097
v -1.987915 0.867731 2.937017
v -1.989327 0.847823 2.917215
v -1.990963 0.824775 2.901125
v -1.994689 0.772274 2.881823
v -1.992768 0.799341 2.889182
v -1.996672 0.744327 2.879482
v -1.998658 0.716355 2.882007
v -2.000584 0.689214 2.889249
v -2.002391 0.663761 2.901053
v -2.006570 0.604895 2.960267
v -2.007417 0.592965 2.985712
v -2.005423 0.621043 2.937230
v -2.004017 0.640851 2.917269
v -2.007925 0.585813 3.012898
v -2.008094 0.583437 3.040953
v -2.007924 0.585837 3.069005
v -2.007415 0.593013 3.096185
v -2.006567 0.604965 3.121620
v -2.005420 0.621133 3.144642
v -2.004013 0.640959 3.164585
v -2.002387 0.663883 3.180782
v -2.000579 0.689346 3.192564
v -1.998653 0.716493 3.199781
v -1.996667 0.744467 3.202283
vt 0.685462 -0.481473
vt 0.704551 -0.461552
vt 0.697910 -0.486000
vt 0.691499 -0.459251
vt 0.675672 -0.502352
vt 0.687139 -0.508972
vt 0.662485 -0.521270
vt 0.672631 -0.529785
vt 0.646259 -0.537609
vt 0.654779 -0.547762
vt 0.633976 -0.562221
vt 0.627351 -0.550752
vt 0.610959 -0.572894
vt 0.606430 -0.560453
vt 0.584168 -0.566469
vt 0.561236 -0.581809
vt 0.561236 -0.568556
vt 0.586466 -0.579513
vt 0.538303 -0.566469
vt 0.536005 -0.579513
vt 0.516041 -0.560453
vt 0.511513 -0.572894
vt 0.488496 -0.562221
vt 0.476212 -0.537609
vt 0.495120 -0.550752
vt 0.467693 -0.547762
vt 0.449841 -0.529785
vt 0.459986 -0.521270
vt 0.435333 -0.508972
vt 0.446800 -0.502352
vt 0.437010 -0.481473
vt 0.417920 -0.461552
vt 0.430973 -0.459251
vt 0.424563 -0.486000
vt 0.415800 -0.436306
vt 0.429045 -0.436305
vt 0.431104 -0.413336
vt 0.418065 -0.411037
vt 0.437025 -0.391049
vt 0.424579 -0.386516
vt 0.446684 -0.370146
vt 0.435206 -0.363519
vt 0.495160 -0.321791
vt 0.511463 -0.299531
vt 0.515996 -0.311987
vt 0.488539 -0.310318
vt 0.476298 -0.335058
vt 0.467787 -0.324915
vt 0.459957 -0.351329
vt 0.449809 -0.342816
vt 0.535957 -0.293060
vt 0.538259 -0.306104
vt 0.561236 -0.290902
vt 0.561236 -0.304143
vt 0.584213 -0.306104
vt 0.586515 -0.293060
vt 0.606476 -0.311987
vt 0.611009 -0.299531
vt 0.627311 -0.321791
vt 0.633933 -0.310318
vt 0.654684 -0.324915
vt 0.646173 -0.335058
vt 0.687266 -0.363519
vt 0.662513 -0.351329
vt 0.672662 -0.342816
vt 0.675787 -0.370146
vt 0.697893 -0.386516
vt 0.685446 -0.391049
vt 0.704407 -0.411037
vt 0.691367 -0.413336
vt 0.706672 -0.436306
vt 0.693426 -0.436305
vt 0.710183 -0.462545
vt 0.703280 -0.487954
vt 0.692086 -0.511828
vt 0.677008 -0.533459
vt 0.658455 -0.552142
vt 0.636834 -0.567170
vt 0.612913 -0.578262
vt 0.587457 -0.585141
vt 0.561236 -0.587527
vt 0.535014 -0.585141
vt 0.509559 -0.578262
vt 0.485638 -0.567170
vt 0.464017 -0.552142
vt 0.445464 -0.533459
vt 0.430386 -0.511828
vt 0.412289 -0.462545
vt 0.419192 -0.487954
vt 0.410085 -0.436307
vt 0.412439 -0.410045
vt 0.419209 -0.384561
vt 0.430254 -0.360659
vt 0.485683 -0.305368
vt 0.509507 -0.294158
vt 0.464116 -0.320538
vt 0.445431 -0.339144
vt 0.534964 -0.287432
vt 0.561236 -0.285190
vt 0.587508 -0.287432
vt 0.612966 -0.294158
vt 0.636790 -0.305368
vt 0.658356 -0.320538
vt 0.677041 -0.339144
vt 0.692219 -0.360659
vt 0.703263 -0.384561
vt 0.710033 -0.410045
vt 0.712387 -0.436307
vn -0.4621 -0.2777 -0.8422
vn -0.5763 -0.1028 -0.8108
vn -0.5859 -0.2433 -0.7730
vn -0.4515 -0.1245 -0.8835
vn -0.4719 -0.4167 -0.7770
vn -0.5947 -0.3710 -0.7132
vn -0.4809 -0.5424 -0.6888
vn -0.6031 -0.4864 -0.6322
vn -0.4891 -0.6546 -0.5764
vn -0.6108 -0.5892 -0.5290
vn -0.6163 -0.6727 -0.4095
vn -0.4954 -0.7454 -0.4461
vn -0.6203 -0.7321 -0.2814
vn -0.4998 -0.8101 -0.3066
vn -0.5028 -0.8499 -0.1580
vn -0.6244 -0.7811 0.0004
vn -0.5040 -0.8637 0.0004
vn -0.6231 -0.7686 -0.1450
vn -0.5028 -0.8497 0.1587
vn -0.6231 -0.7684 0.1457
vn -0.4998 -0.8098 0.3073
vn -0.6203 -0.7319 0.2821
vn -0.6163 -0.6723 0.4101
vn -0.4891 -0.6541 0.5770
vn -0.4953 -0.7450 0.4468
vn -0.6108 -0.5887 0.5295
vn -0.6031 -0.4859 0.6326
vn -0.4809 -0.5418 0.6893
vn -0.5946 -0.3704 0.7136
vn -0.4719 -0.4160 0.7774
vn -0.4621 -0.2769 0.8425
vn -0.5763 -0.1021 0.8109
vn -0.4515 -0.1238 0.8837
vn -0.5858 -0.2427 0.7733
vn -0.5655 0.0428 0.8236
vn -0.4401 0.0342 0.8973
vn -0.4290 0.1871 0.8837
vn -0.5554 0.1832 0.8111
vn -0.4187 0.3353 0.8440
vn -0.5459 0.3193 0.7746
vn -0.4087 0.4791 0.7768
vn -0.5370 0.4511 0.7129
vn -0.3853 0.8053 0.4505
vn -0.5113 0.8120 0.2813
vn -0.3808 0.8724 0.3065
vn -0.5153 0.7507 0.4135
vn -0.3914 0.7172 0.5765
vn -0.5208 0.6698 0.5292
vn -0.3992 0.6089 0.6855
vn -0.5281 0.5703 0.6292
vn -0.5082 0.8497 0.1404
vn -0.3776 0.9132 0.1529
vn -0.5072 0.8618 -0.0004
vn -0.3766 0.9264 -0.0004
vn -0.3776 0.9131 -0.1537
vn -0.5083 0.8496 -0.1411
vn -0.3808 0.8721 -0.3072
vn -0.5114 0.8118 -0.2819
vn -0.3853 0.8049 -0.4513
vn -0.5153 0.7503 -0.4141
vn -0.5209 0.6693 -0.5298
vn -0.3915 0.7167 -0.5771
vn -0.5370 0.4505 -0.7132
vn -0.3993 0.6083 -0.6860
vn -0.5281 0.5697 -0.6297
vn -0.4087 0.4784 -0.7772
vn -0.5460 0.3186 -0.7749
vn -0.4187 0.3346 -0.8442
vn -0.5554 0.1825 -0.8113
vn -0.4291 0.1863 -0.8838
vn -0.5656 0.0421 -0.8236
vn -0.4401 0.0334 -0.8973
vn -0.6821 -0.0804 -0.7269
vn -0.6908 -0.2063 -0.6930
vn -0.6987 -0.3209 -0.6394
vn -0.7062 -0.4244 -0.5667
vn -0.7130 -0.5165 -0.4742
vn -0.7180 -0.5913 -0.3672
vn -0.7217 -0.6446 -0.2523
vn -0.7242 -0.6773 -0.1299
vn -0.7252 -0.6885 0.0003
vn -0.7241 -0.6772 0.1305
vn -0.7217 -0.6444 0.2529
vn -0.7180 -0.5909 0.3677
vn -0.7129 -0.5161 0.4747
vn -0.7062 -0.4239 0.5671
vn -0.6987 -0.3203 0.6397
vn -0.6820 -0.0798 0.7270
vn -0.6907 -0.2057 0.6933
vn -0.6726 0.0501 0.7384
vn -0.6636 0.1759 0.7271
vn -0.6550 0.2981 0.6944
vn -0.6468 0.4162 0.6391
vn -0.6275 0.6848 0.3706
vn -0.6238 0.7398 0.2522
vn -0.6325 0.6123 0.4744
vn -0.6390 0.5229 0.5641
vn -0.6212 0.7735 0.1259
vn -0.6202 0.7844 -0.0003
vn -0.6212 0.7734 -0.1266
vn -0.6238 0.7396 -0.2528
vn -0.6276 0.6844 -0.3712
vn -0.6325 0.6118 -0.4749
vn -0.6390 0.5224 -0.5646
vn -0.6468 0.4156 -0.6394
vn -0.6550 0.2975 -0.6946
vn -0.6635 0.1753 -0.7273
vn -0.6727 0.0494 -0.7383
usemtl caliper_color.001
s 1
f 1/1/1 2/2/2 3/3/3
f 2/2/2 1/1/1 4/4/4
f 5/5/5 3/3/3 6/6/6
f 3/3/3 5/5/5 1/1/1
f 7/7/7 8/8/8 9/9/9
f 10/10/10 9/9/9 8/8/8
f 5/5/5 6/6/6 7/7/7
f 8/8/8 7/7/7 6/6/6
f 9/9/9 10/10/10 11/11/11
f 9/9/9 11/11/11 12/12/12
f 11/11/11 13/13/13 12/12/12
f 12/12/12 13/13/13 14/14/14
f 15/15/15 16/16/16 17/17/17
f 16/16/16 15/15/15 18/18/18
f 14/14/14 18/18/18 15/15/15
f 18/18/18 14/14/14 13/13/13
f 16/16/16 19/19/19 17/17/17
f 19/19/19 16/16/16 20/20/20
f 20/20/20 21/21/21 19/19/19
f 21/21/21 20/20/20 22/22/22
f 23/23/23 24/24/24 25/25/25
f 24/24/24 23/23/23 26/26/26
f 22/22/22 25/25/25 21/21/21
f 25/25/25 22/22/22 23/23/23
f 24/24/24 27/27/27 28/28/28
f 27/27/27 24/24/24 26/26/26
f 28/28/28 29/29/29 30/30/30
f 29/29/29 28/28/28 27/27/27
f 31/31/31 32/32/32 33/33/33
f 32/32/32 31/31/31 34/34/34
f 30/30/30 34/34/34 31/31/31
f 34/34/34 30/30/30 29/29/29
f 33/33/33 35/35/35 36/36/36
f 35/35/35 33/33/33 32/32/32
f 36/36/36 35/35/35 37/37/37
f 35/35/35 38/38/38 37/37/37
f 39/39/39 40/40/40 41/41/41
f 40/40/40 42/42/42 41/41/41
f 37/37/37 38/38/38 39/39/39
f 38/38/38 40/40/40 39/39/39
f 43/43/43 44/44/44 45/45/45
f 44/44/44 43/43/43 46/46/46
f 47/47/47 46/46/46 43/43/43
f 46/46/46 47/47/47 48/48/48
f 42/42/42 49/49/49 41/41/41
f 49/49/49 42/42/42 50/50/50
f 49/49/49 50/50/50 48/48/48
f 49/49/49 48/48/48 47/47/47
f 45/45/45 51/51/51 52/52/52
f 51/51/51 45/45/45 44/44/44
f 52/52/52 53/53/53 54/54/54
f 53/53/53 52/52/52 51/51/51
f 55/55/55 56/56/56 57/57/57
f 56/56/56 58/58/58 57/57/57
f 54/54/54 53/53/53 55/55/55
f 53/53/53 56/56/56 55/55/55
f 57/57/57 58/58/58 59/59/59
f 58/58/58 60/60/60 59/59/59
f 61/61/61 62/62/62 60/60/60
f 59/59/59 60/60/60 62/62/62
f 63/63/63 64/64/64 65/65/65
f 64/64/64 63/63/63 66/66/66
f 65/65/65 64/64/64 61/61/61
f 62/62/62 61/61/61 64/64/64
f 67/67/67 68/68/68 66/66/66
f 67/67/67 66/66/66 63/63/63
f 69/69/69 70/70/70 68/68/68
f 69/69/69 68/68/68 67/67/67
f 2/2/2 4/4/4 71/71/71
f 4/4/4 72/72/72 71/71/71
f 71/71/71 70/70/70 69/69/69
f 70/70/70 71/71/71 72/72/72
f 3/3/3 73/73/73 74/74/74
f 73/73/73 3/3/3 2/2/2
f 3/3/3 75/75/75 6/6/6
f 75/75/75 3/3/3 74/74/74
f 10/10/10 8/8/8 76/76/76
f 76/76/76 77/77/77 10/10/10
f 8/8/8 6/6/6 75/75/75
f 8/8/8 75/75/75 76/76/76
f 10/10/10 78/78/78 11/11/11
f 78/78/78 10/10/10 77/77/77
f 11/11/11 79/79/79 13/13/13
f 79/79/79 11/11/11 78/78/78
f 80/80/80 81/81/81 18/18/18
f 18/18/18 81/81/81 16/16/16
f 79/79/79 80/80/80 13/13/13
f 13/13/13 80/80/80 18/18/18
f 20/20/20 16/16/16 81/81/81
f 81/81/81 82/82/82 20/20/20
f 22/22/22 20/20/20 82/82/82
f 82/82/82 83/83/83 22/22/22
f 84/84/84 26/26/26 23/23/23
f 26/26/26 84/84/84 85/85/85
f 23/23/23 83/83/83 84/84/84
f 83/83/83 23/23/23 22/22/22
f 26/26/26 86/86/86 27/27/27
f 86/86/86 26/26/26 85/85/85
f 27/27/27 87/87/87 29/29/29
f 87/87/87 27/27/27 86/86/86
f 34/34/34 88/88/88 32/32/32
f 88/88/88 34/34/34 89/89/89
f 34/34/34 29/29/29 87/87/87
f 34/34/34 87/87/87 89/89/89
f 32/32/32 90/90/90 35/35/35
f 90/90/90 32/32/32 88/88/88
f 38/38/38 35/35/35 90/90/90
f 90/90/90 91/91/91 38/38/38
f 92/92/92 93/93/93 42/42/42
f 92/92/92 42/42/42 40/40/40
f 40/40/40 38/38/38 91/91/91
f 91/91/91 92/92/92 40/40/40
f 44/44/44 94/94/94 95/95/95
f 94/94/94 44/44/44 46/46/46
f 46/46/46 96/96/96 94/94/94
f 96/96/96 46/46/46 48/48/48
f 97/97/97 42/42/42 93/93/93
f 42/42/42 97/97/97 50/50/50
f 96/96/96 50/50/50 97/97/97
f 50/50/50 96/96/96 48/48/48
f 44/44/44 98/98/98 51/51/51
f 98/98/98 44/44/44 95/95/95
f 51/51/51 99/99/99 53/53/53
f 99/99/99 51/51/51 98/98/98
f 58/58/58 56/56/56 100/100/100
f 100/100/100 101/101/101 58/58/58
f 56/56/56 53/53/53 99/99/99
f 99/99/99 100/100/100 56/56/56
f 58/58/58 102/102/102 60/60/60
f 102/102/102 58/58/58 101/101/101
f 60/60/60 103/103/103 61/61/61
f 103/103/103 60/60/60 102/102/102
f 63/63/63 104/104/104 105/105/105
f 104/104/104 63/63/63 65/65/65
f 65/65/65 103/103/103 104/104/104
f 103/103/103 65/65/65 61/61/61
f 106/106/106 63/63/63 105/105/105
f 63/63/63 106/106/106 67/67/67
f 107/107/107 67/67/67 106/106/106
f 67/67/67 107/107/107 69/69/69
f 2/2/2 108/108/108 73/73/73
f 108/108/108 2/2/2 71/71/71
f 108/108/108 69/69/69 107/107/107
f 69/69/69 108/108/108 71/71/71
