# Blender v3.1.2 OBJ File: 'car.blend'
# www.blender.org
mtllib Mesh_209.001.mtl
o Mesh_209_Mesh_209.001
v 0.000038 1.417513 1.036229
v 0.000038 1.346308 1.036229
v -0.051576 1.416618 1.036414
v -0.051576 1.346308 1.036414
v -0.101837 1.414495 1.036080
v -0.101837 1.346308 1.036080
v -0.149394 1.411709 1.034342
v -0.149394 1.346308 1.034342
v -0.192894 1.408822 1.030310
v -0.192894 1.346308 1.030310
v -0.230985 1.406399 1.023098
v -0.230985 1.346308 1.023098
v -0.263427 1.404341 1.013071
v -0.263427 1.346308 1.013071
v -0.289981 1.402550 1.000594
v -0.289980 1.346308 1.000594
v -0.310407 1.400928 0.986031
v -0.310407 1.346308 0.986031
v -0.289981 1.402550 1.000594
v -0.289980 1.346308 1.000594
v -0.324467 1.399377 0.969747
v -0.324467 1.346308 0.969747
v -0.333431 1.398202 0.952509
v -0.333431 1.346308 0.952509
v -0.338568 1.397705 0.935085
v -0.341148 1.346308 0.918243
v -0.341148 1.398191 0.918243
v -0.338568 1.346308 0.935085
v -0.342442 1.346308 0.902750
v -0.342442 1.399963 0.902750
v -0.342832 1.346308 0.889056
v -0.342832 1.402480 0.889056
v -0.342701 1.405198 0.877613
v -0.342432 1.346308 0.868870
v -0.342431 1.407575 0.868870
v -0.342701 1.346308 0.877613
v -0.342407 1.346308 0.863280
v -0.342406 1.409068 0.863280
v -0.342579 1.346308 0.860063
v -0.342579 1.409903 0.860063
v -0.342903 1.410306 0.858441
v -0.343333 1.346308 0.857637
v -0.343333 1.410503 0.857637
v -0.342904 1.346308 0.858441
v -0.343821 1.346308 0.856873
v -0.343821 1.410720 0.856873
v -0.344352 1.346308 0.856138
v -0.344352 1.410951 0.856138
v -0.344913 1.411192 0.855422
v -0.344913 1.346308 0.855422
v -0.345489 1.385071 0.854717
v -0.345489 1.346308 0.854717
v 0.051652 1.416618 1.036414
v 0.051652 1.346308 1.036414
v 0.101914 1.414495 1.036080
v 0.101914 1.346308 1.036080
v 0.192971 1.408822 1.030310
v 0.149471 1.346308 1.034342
v 0.149471 1.411709 1.034342
v 0.192971 1.346308 1.030310
v 0.231062 1.406399 1.023098
v 0.231062 1.346308 1.023098
v 0.263503 1.404341 1.013071
v 0.263503 1.346308 1.013071
v 0.310484 1.400928 0.986031
v 0.290057 1.346308 1.000594
v 0.290057 1.402550 1.000594
v 0.310484 1.346308 0.986031
v 0.290057 1.402550 1.000594
v 0.290057 1.346308 1.000594
v 0.341225 1.398191 0.918243
v 0.341225 1.346308 0.918243
v 0.338645 1.397705 0.935085
v 0.338645 1.346308 0.935085
v 0.333508 1.346308 0.952509
v 0.333508 1.398202 0.952509
v 0.324544 1.399377 0.969747
v 0.324544 1.346308 0.969747
v 0.342508 1.407575 0.868870
v 0.342508 1.346308 0.868870
v 0.342778 1.405198 0.877613
v 0.342777 1.346308 0.877613
v 0.342909 1.402480 0.889056
v 0.342909 1.346308 0.889056
v 0.342519 1.399963 0.902750
v 0.342519 1.346308 0.902750
v 0.343410 1.410503 0.857637
v 0.343409 1.346308 0.857637
v 0.342980 1.410306 0.858441
v 0.342980 1.346308 0.858441
v 0.342656 1.409903 0.860063
v 0.342656 1.346308 0.860063
v 0.342483 1.409068 0.863280
v 0.342483 1.346308 0.863280
v 0.344990 1.346308 0.855422
v 0.344990 1.411192 0.855422
v 0.345565 1.385071 0.854717
v 0.345565 1.346308 0.854717
v 0.344429 1.410951 0.856138
v 0.344429 1.346308 0.856138
v 0.343897 1.410720 0.856873
v 0.343897 1.346308 0.856873
v 0.345565 1.385071 0.854717
v 0.461288 1.346308 0.854717
v 0.345565 1.346308 0.854717
v 0.461288 1.385071 0.854717
v -0.345489 1.346308 0.854717
v -0.463164 1.385071 0.854717
v -0.345489 1.385071 0.854717
v -0.463164 1.346308 0.854717
vt 1.047083 12.867829
vt 1.047083 5.785626
vt -4.086562 12.778769
vt -4.086562 5.785626
vt 6.180596 12.778769
vt 6.180596 5.785626
vt -27.785789 -9.477469
vt -16.275839 -13.332900
vt -27.785809 -13.332900
vt -16.275829 -9.477469
vt -0.787054 1.144816
vt -12.491260 5.000251
vt -0.787041 5.000251
vt -12.491280 1.144816
vt -9.085515 12.567650
vt -9.085515 5.785626
vt -13.814960 12.290509
vt -13.814950 5.785626
vt -18.140070 12.003400
vt -18.140060 5.785626
vt -21.926029 11.762380
vt -21.926029 5.785626
vt -25.149158 11.557670
vt -25.149158 5.785626
vt -13.085569 4.459153
vt -13.085569 -1.134753
vt -14.534030 4.297842
vt -14.534030 -1.134753
vt -27.785809 11.379530
vt -27.785809 5.785626
vt -16.153690 4.143609
vt -16.153690 -1.134753
vt -17.868179 4.026678
vt -17.868179 -1.134753
vt -19.601160 3.977259
vt -21.276299 -1.134753
vt -21.276299 4.025599
vt -19.601160 -1.134753
vt -22.817299 -1.134753
vt -22.817299 4.201897
vt -24.179289 -1.134753
vt -24.179289 4.452206
vt -25.317480 4.722538
vt -26.187010 -1.134753
vt -26.187010 4.958939
vt -25.317480 -1.134753
vt -26.743059 -1.134753
vt -26.743059 5.107445
vt -27.063009 -1.134753
vt -27.063009 5.190513
vt -27.224289 5.230613
vt -27.304249 -1.134753
vt -27.304249 5.250199
vt -27.224289 -1.134753
vt -27.380299 -1.134753
vt -27.380299 5.271743
vt -27.453409 -1.134753
vt -27.453409 5.294745
vt -27.524549 5.318731
vt -27.524549 -1.134753
vt -27.594719 2.720681
vt -27.594719 -1.134753
vt 11.179790 12.567650
vt 11.179790 5.785626
vt 20.238440 12.003400
vt 15.910470 5.785626
vt 15.910460 12.290509
vt 20.238449 5.785626
vt 24.029530 11.762380
vt 24.029530 5.785626
vt 27.259809 11.557670
vt 27.259809 5.785626
vt -26.655819 -3.068409
vt -28.104290 -8.501007
vt -28.104290 -2.907099
vt -26.655819 -8.501007
vt 29.905319 11.379530
vt 29.905319 5.785626
vt -19.913549 -3.340654
vt -19.913549 -8.501007
vt -21.588699 -3.388993
vt -21.588699 -8.501007
vt -23.321680 -8.501007
vt -23.321680 -3.339575
vt -25.036160 -3.222642
vt -25.036160 -8.501007
vt -15.002840 -2.407314
vt -15.002840 -8.501007
vt -15.872379 -2.643713
vt -15.872379 -8.501007
vt -17.010569 -2.914048
vt -17.010569 -8.501007
vt -18.372549 -3.164355
vt -18.372549 -8.501007
vt -13.885600 -2.116052
vt -13.885600 -8.501007
vt -13.965560 -2.135638
vt -13.965560 -8.501007
vt -14.126840 -2.175739
vt -14.126840 -8.501007
vt -14.446790 -2.258807
vt -14.446790 -8.501007
vt -13.665299 -8.501007
vt -13.665299 -2.047519
vt -13.595150 -4.645572
vt -13.595150 -8.501007
vt -13.736440 -2.071505
vt -13.736440 -8.501007
vt -13.809549 -2.094511
vt -13.809549 -8.501007
vn -0.0036 0.0000 -1.0000
vn 0.0036 0.0000 -1.0000
vn 0.0000 0.0000 -1.0000
vn 0.0014 0.0000 -1.0000
vn 0.0015 0.0000 -1.0000
vn 0.0211 0.0000 -0.9998
vn 0.0216 0.0000 -0.9998
vn 0.0633 0.0000 -0.9980
vn 0.0644 0.0000 -0.9979
vn 0.1374 0.0000 -0.9905
vn 0.1393 0.0000 -0.9902
vn 0.2389 0.0000 -0.9710
vn 0.2410 0.0000 -0.9705
vn 0.3586 0.0000 -0.9335
vn 0.3612 0.0000 -0.9325
vn 0.5805 0.0000 -0.8142
vn 0.6696 0.0000 -0.7427
vn 0.6735 0.0000 -0.7392
vn 0.4253 0.0000 -0.9051
vn 0.8249 0.0000 -0.5653
vn 0.8277 0.0000 -0.5612
vn 0.9265 0.0000 -0.3763
vn 0.9275 0.0000 -0.3738
vn 0.9760 0.0000 -0.2176
vn 0.9931 0.0000 -0.1174
vn 0.9933 0.0000 -0.1159
vn 0.9984 0.0000 -0.0559
vn 0.9986 0.0000 -0.0533
vn 1.0000 0.0000 -0.0085
vn 1.0000 -0.0000 -0.0059
vn 0.9997 -0.0000 0.0226
vn 0.9998 -0.0000 0.0176
vn 0.9999 -0.0000 0.0154
vn 0.9998 -0.0000 0.0211
vn 0.9997 -0.0000 -0.0246
vn 0.9996 -0.0000 -0.0294
vn 0.9921 -0.0000 -0.1252
vn 0.9906 -0.0000 -0.1364
vn 0.9340 -0.0000 -0.3572
vn 0.8633 -0.0000 -0.5047
vn 0.8605 -0.0000 -0.5095
vn 0.9415 -0.0000 -0.3371
vn 0.8270 -0.0000 -0.5622
vn 0.8245 -0.0000 -0.5659
vn 0.7988 -0.0000 -0.6016
vn 0.7968 -0.0000 -0.6042
vn 0.7865 -0.0000 -0.6175
vn 0.7809 -0.0000 -0.6246
vn 0.7749 -0.0000 -0.6321
vn 0.7748 -0.0000 -0.6322
vn -0.0211 0.0000 -0.9998
vn -0.0015 0.0000 -1.0000
vn -0.0014 0.0000 -1.0000
vn -0.0216 0.0000 -0.9998
vn -0.1374 -0.0000 -0.9905
vn -0.0644 -0.0000 -0.9979
vn -0.0633 0.0000 -0.9980
vn -0.1393 -0.0000 -0.9902
vn -0.2389 -0.0000 -0.9710
vn -0.2410 0.0000 -0.9705
vn -0.3586 0.0000 -0.9335
vn -0.3612 0.0000 -0.9325
vn -0.6696 0.0000 -0.7427
vn -0.5805 0.0000 -0.8142
vn -0.6735 0.0000 -0.7392
vn -0.4253 0.0000 -0.9051
vn -0.9933 -0.0000 -0.1159
vn -0.9931 -0.0000 -0.1174
vn -0.9760 -0.0000 -0.2176
vn -0.9275 -0.0000 -0.3738
vn -0.9265 -0.0000 -0.3763
vn -0.8249 0.0000 -0.5653
vn -0.8277 -0.0000 -0.5612
vn -0.9999 0.0000 0.0154
vn -0.9998 0.0000 0.0176
vn -0.9997 0.0000 0.0227
vn -0.9998 0.0000 0.0211
vn -1.0000 0.0000 -0.0059
vn -1.0000 0.0000 -0.0085
vn -0.9986 0.0000 -0.0533
vn -0.9984 -0.0000 -0.0559
vn -0.8605 0.0000 -0.5095
vn -0.8633 0.0000 -0.5047
vn -0.9340 0.0000 -0.3572
vn -0.9415 0.0000 -0.3371
vn -0.9906 0.0000 -0.1365
vn -0.9921 0.0000 -0.1252
vn -0.9996 0.0000 -0.0294
vn -0.9997 0.0000 -0.0246
vn -0.7809 0.0000 -0.6246
vn -0.7865 0.0000 -0.6175
vn -0.7748 0.0000 -0.6322
vn -0.7968 0.0000 -0.6042
vn -0.7988 0.0000 -0.6016
vn -0.8245 0.0000 -0.5659
vn -0.8270 0.0000 -0.5622
usemtl carbon_cockpit.001
s off
f 1/1/1 2/2/1 3/3/1
f 3/3/1 2/2/1 4/4/1
f 53/5/2 2/2/2 1/1/2
f 2/2/2 53/5/2 54/6/2
f 103/7/3 104/8/3 105/9/3
f 104/8/3 103/7/3 106/10/3
f 107/11/3 108/12/3 109/13/3
f 108/12/3 107/11/3 110/14/3
s 1
f 3/3/4 4/4/5 5/15/6
f 5/15/6 4/4/5 6/16/7
f 7/17/8 8/18/9 9/19/10
f 9/19/10 8/18/9 10/20/11
f 5/15/6 6/16/7 7/17/8
f 7/17/8 6/16/7 8/18/9
f 9/19/10 10/20/11 11/21/12
f 11/21/12 10/20/11 12/22/13
f 11/21/12 12/22/13 13/23/14
f 13/23/14 12/22/13 14/24/15
f 15/25/16 16/26/16 17/27/17
f 17/27/17 16/26/16 18/28/18
f 13/23/14 14/24/15 19/29/19
f 19/29/19 14/24/15 20/30/19
f 17/27/17 18/28/18 21/31/20
f 21/31/20 18/28/18 22/32/21
f 21/31/20 22/32/21 23/33/22
f 23/33/22 22/32/21 24/34/23
f 25/35/24 26/36/25 27/37/26
f 26/36/25 25/35/24 28/38/24
f 23/33/22 24/34/23 25/35/24
f 25/35/24 24/34/23 28/38/24
f 27/37/26 29/39/27 30/40/28
f 29/39/27 27/37/26 26/36/25
f 30/40/28 31/41/29 32/42/30
f 31/41/29 30/40/28 29/39/27
f 33/43/31 34/44/32 35/45/33
f 34/44/32 33/43/31 36/46/34
f 32/42/30 36/46/34 33/43/31
f 36/46/34 32/42/30 31/41/29
f 35/45/33 37/47/35 38/48/36
f 37/47/35 35/45/33 34/44/32
f 38/48/36 39/49/37 40/50/38
f 39/49/37 38/48/36 37/47/35
f 41/51/39 42/52/40 43/53/41
f 42/52/40 41/51/39 44/54/42
f 40/50/38 44/54/42 41/51/39
f 44/54/42 40/50/38 39/49/37
f 43/53/41 45/55/43 46/56/44
f 45/55/43 43/53/41 42/52/40
f 46/56/44 47/57/45 48/58/46
f 47/57/45 46/56/44 45/55/43
f 49/59/47 50/60/48 51/61/49
f 51/61/49 50/60/48 52/62/50
f 48/58/46 50/60/48 49/59/47
f 50/60/48 48/58/46 47/57/45
f 55/63/51 54/6/52 53/5/53
f 54/6/52 55/63/51 56/64/54
f 57/65/55 58/66/56 59/67/57
f 58/66/56 57/65/55 60/68/58
f 59/67/57 56/64/54 55/63/51
f 56/64/54 59/67/57 58/66/56
f 61/69/59 60/68/58 57/65/55
f 60/68/58 61/69/59 62/70/60
f 63/71/61 62/70/60 61/69/59
f 62/70/60 63/71/61 64/72/62
f 65/73/63 66/74/64 67/75/64
f 66/74/64 65/73/63 68/76/65
f 69/77/66 64/72/62 63/71/61
f 64/72/62 69/77/66 70/78/66
f 71/79/67 72/80/68 73/81/69
f 73/81/69 72/80/68 74/82/69
f 73/81/69 75/83/70 76/84/71
f 75/83/70 73/81/69 74/82/69
f 77/85/72 68/76/65 65/73/63
f 68/76/65 77/85/72 78/86/73
f 76/84/71 78/86/73 77/85/72
f 78/86/73 76/84/71 75/83/70
f 79/87/74 80/88/75 81/89/76
f 81/89/76 80/88/75 82/90/77
f 81/89/76 82/90/77 83/91/78
f 83/91/78 82/90/77 84/92/79
f 85/93/80 86/94/81 71/79/67
f 71/79/67 86/94/81 72/80/68
f 83/91/78 84/92/79 85/93/80
f 85/93/80 84/92/79 86/94/81
f 87/95/82 88/96/83 89/97/84
f 89/97/84 88/96/83 90/98/85
f 89/97/84 90/98/85 91/99/86
f 91/99/86 90/98/85 92/100/87
f 93/101/88 94/102/89 79/87/74
f 79/87/74 94/102/89 80/88/75
f 91/99/86 92/100/87 93/101/88
f 93/101/88 92/100/87 94/102/89
f 95/103/90 96/104/91 97/105/92
f 97/105/92 98/106/92 95/103/90
f 96/104/91 95/103/90 99/107/93
f 99/107/93 95/103/90 100/108/94
f 101/109/95 102/110/96 87/95/82
f 87/95/82 102/110/96 88/96/83
f 99/107/93 100/108/94 101/109/95
f 101/109/95 100/108/94 102/110/96
