# Blender v3.1.2 OBJ File: 'car.blend'
# www.blender.org
mtllib Mesh_244.001.mtl
o Mesh_240_Mesh_244.001
v 0.395878 0.914108 0.978314
v 0.395878 0.878447 0.952796
v 0.395878 0.908317 0.947232
v 0.395878 0.884238 0.983879
v 0.395659 0.920501 1.012628
v 0.395659 0.884840 0.987110
v 0.395659 0.914710 0.981545
v 0.395659 0.890631 1.018193
v 0.356858 0.896616 1.015659
v 0.356858 0.918571 0.982245
v 0.356858 0.923851 1.010585
v 0.356858 0.891336 0.987319
v 0.366896 0.896616 1.015659
v 0.366896 0.918571 0.982245
v 0.366896 0.891336 0.987319
v 0.366896 0.923851 1.010585
v 0.340340 0.912227 0.894242
v 0.379414 0.902517 0.896850
v 0.379414 0.912227 0.894242
v 0.340340 0.902517 0.896850
v 0.340340 0.921700 0.890564
v 0.379414 0.921700 0.890564
v 0.340340 0.930937 0.885817
v 0.379414 0.930937 0.885817
v 0.340340 0.939938 0.880001
v 0.379414 0.939938 0.880001
v 0.340340 0.948703 0.873115
v 0.379414 0.948703 0.873115
v 0.340340 0.957232 0.865160
v 0.379414 0.957232 0.865160
v -0.363092 1.041081 1.095096
v -0.358459 1.046387 1.072176
v -0.358459 1.041638 1.095176
v -0.363431 1.045790 1.072091
v -0.367456 1.039443 1.094863
v -0.368115 1.044031 1.071840
v -0.371298 1.036818 1.094488
v -0.368115 1.044031 1.071840
v -0.367456 1.039443 1.094863
v -0.372237 1.041214 1.071438
v -0.375558 1.037503 1.070908
v -0.374393 1.033359 1.093994
v -0.377886 1.033112 1.070281
v -0.376562 1.029268 1.093410
v -0.379085 1.028298 1.069594
v -0.377679 1.024782 1.092770
v -0.379085 1.023339 1.068886
v -0.377679 1.020161 1.092110
v -0.376562 1.015675 1.091470
v -0.377886 1.018525 1.068199
v -0.374393 1.011583 1.090886
v -0.375558 1.014134 1.067572
v -0.371298 1.008125 1.090392
v -0.372237 1.010422 1.067042
v -0.367456 1.005500 1.090017
v -0.368115 1.007605 1.066640
v -0.363092 1.003862 1.089783
v -0.363431 1.005847 1.066389
v -0.368115 1.007605 1.066640
v -0.367456 1.005500 1.090017
v -0.358459 1.003305 1.089704
v -0.358459 1.005249 1.066304
v -0.353487 1.005847 1.066389
v -0.353826 1.003862 1.089783
v -0.348803 1.007605 1.066640
v -0.349461 1.005500 1.090017
v -0.344681 1.010422 1.067042
v -0.349461 1.005500 1.090017
v -0.345620 1.008125 1.090392
v -0.348803 1.007605 1.066640
v -0.341359 1.014134 1.067572
v -0.342525 1.011583 1.090886
v -0.339032 1.018525 1.068199
v -0.340356 1.015675 1.091470
v -0.337833 1.023339 1.068886
v -0.339239 1.020161 1.092110
v -0.339239 1.024782 1.092770
v -0.337833 1.028298 1.069594
v -0.340356 1.029268 1.093410
v -0.339032 1.033112 1.070281
v -0.342525 1.033359 1.093994
v -0.341359 1.037503 1.070908
v -0.345620 1.036818 1.094488
v -0.344681 1.041214 1.071438
v -0.348803 1.044031 1.071840
v -0.349461 1.039443 1.094863
v -0.349461 1.039443 1.094863
v -0.353487 1.045790 1.072091
v -0.348803 1.044031 1.071840
v -0.353826 1.041081 1.095096
v -0.342525 1.011583 1.090886
v -0.345620 1.036818 1.094488
v -0.342525 1.033359 1.093994
v -0.353826 1.041081 1.095096
v -0.358459 1.003305 1.089704
v -0.358459 1.041638 1.095176
v -0.353826 1.003862 1.089783
v -0.349461 1.005500 1.090017
v -0.363092 1.041081 1.095096
v -0.363092 1.003862 1.089783
v -0.367456 1.005500 1.090017
v -0.374393 1.011583 1.090886
v -0.374393 1.033359 1.093994
v -0.371298 1.008125 1.090392
v -0.349461 1.039443 1.094863
v -0.345620 1.008125 1.090392
v -0.340356 1.029268 1.093410
v -0.339239 1.020161 1.092110
v -0.339239 1.024782 1.092770
v -0.340356 1.015675 1.091470
v -0.367456 1.039443 1.094863
v -0.371298 1.036818 1.094488
v -0.376562 1.015675 1.091470
v -0.376562 1.029268 1.093410
v -0.377679 1.024782 1.092770
v -0.377679 1.020161 1.092110
vt 0.108325 -0.119712
vt 0.076029 -0.150748
vt 0.076029 -0.119712
vt 0.108325 -0.150748
vt 0.064001 -0.155547
vt 0.031705 -0.186584
vt 0.031705 -0.155547
vt 0.064001 -0.186584
vt 0.142572 -0.148010
vt 0.113125 -0.119712
vt 0.142572 -0.119712
vt 0.113125 -0.148010
vt 0.182445 -0.075078
vt 0.211892 -0.046780
vt 0.211892 -0.075078
vt 0.182445 -0.046780
vt 0.648993 -0.390447
vt 0.693352 -0.385164
vt 0.687272 -0.390447
vt 0.700846 -0.371161
vt 0.634440 -0.363254
vt 0.701825 -0.363254
vt 0.635419 -0.371161
vt 0.638300 -0.378609
vt 0.700846 -0.355347
vt 0.635419 -0.355347
vt 0.638300 -0.347899
vt 0.648993 -0.336061
vt 0.687272 -0.336061
vt 0.642914 -0.341343
vt 0.697966 -0.378609
vt 0.642914 -0.385164
vt 0.680080 -0.394148
vt 0.664072 -0.396055
vt 0.672194 -0.396055
vt 0.656185 -0.394148
vt 0.697966 -0.347899
vt 0.693352 -0.341343
vt 0.656185 -0.332359
vt 0.680080 -0.332359
vt 0.672194 -0.330453
vt 0.664072 -0.330453
vt 0.248687 -0.168687
vt 0.228100 -0.094125
vt 0.248687 -0.094125
vt 0.228100 -0.168687
vt 0.269199 -0.168687
vt 0.269199 -0.094125
vt 0.289637 -0.168687
vt 0.289637 -0.094125
vt 0.310001 -0.168687
vt 0.310001 -0.094125
vt 0.330290 -0.168687
vt 0.330290 -0.094125
vt 0.350505 -0.168687
vt 0.350505 -0.094125
vt 0.985924 -0.202120
vt 0.946317 -0.194213
vt 0.986255 -0.194213
vt 0.945962 -0.202699
vt 0.984950 -0.209568
vt 0.944917 -0.210691
vt 0.693934 -0.451377
vt 0.702018 -0.408469
vt 0.698804 -0.451473
vt 0.696792 -0.408367
vt 0.689906 -0.408231
vt 0.687518 -0.451251
vt 0.681761 -0.408071
vt 0.679928 -0.451102
vt 0.672829 -0.407895
vt 0.671605 -0.450938
vt 0.663629 -0.407714
vt 0.663032 -0.450769
vt 0.654709 -0.450606
vt 0.654698 -0.407538
vt 0.647119 -0.450456
vt 0.646552 -0.407378
vt 0.640702 -0.450330
vt 0.639666 -0.407243
vt 0.635833 -0.450234
vt 0.634440 -0.407140
vt 0.719338 -0.513775
vt 0.760917 -0.514353
vt 0.759873 -0.522346
vt 0.718364 -0.521222
vt 0.719669 -0.505867
vt 0.761273 -0.505867
vt 0.760917 -0.497382
vt 0.719338 -0.497960
vt 0.759873 -0.489389
vt 0.718364 -0.490512
vt 0.780716 -0.334179
vt 0.782861 -0.377287
vt 0.777992 -0.377192
vt 0.785942 -0.334280
vt 0.773830 -0.334044
vt 0.771575 -0.377067
vt 0.765685 -0.333885
vt 0.763985 -0.376918
vt 0.756753 -0.333710
vt 0.755662 -0.376756
vt 0.747089 -0.376588
vt 0.747554 -0.333530
vt 0.738766 -0.376425
vt 0.738622 -0.333356
vt 0.731176 -0.376277
vt 0.730476 -0.333196
vt 0.724760 -0.376152
vt 0.723590 -0.333062
vt 0.718364 -0.332960
vt 0.719890 -0.376056
vt 0.984950 -0.178858
vt 0.945962 -0.185727
vt 0.944917 -0.177735
vt 0.985924 -0.186306
vn 1.0000 -0.0000 0.0000
vn -1.0000 0.0000 0.0000
vn -0.0001 0.1413 -0.9900
vn -0.0002 0.1413 -0.9900
vn 0.0000 0.1413 -0.9900
vn 0.0001 0.1413 -0.9900
vn 0.0002 0.1413 -0.9900
vn 0.0005 0.1414 -0.9900
vn -0.0004 0.1413 -0.9900
vn 0.0007 0.1414 -0.9900
vn 0.0000 0.3111 0.9504
vn 0.0000 0.2594 0.9658
vn 0.0000 0.4100 0.9121
vn 0.0000 0.5005 0.8657
vn 0.0000 0.5809 0.8140
vn 0.0000 0.6505 0.7595
vn 0.0000 0.6821 0.7313
vn 0.2388 -0.9506 -0.1981
vn -0.0000 -0.9793 -0.2022
vn 0.2388 -0.9507 -0.1981
vn 0.3538 -0.9153 -0.1926
vn 0.3541 -0.9152 -0.1925
vn 0.6620 -0.7308 -0.1664
vn 0.5670 -0.8046 -0.1765
vn 0.5670 -0.8045 -0.1766
vn 0.6618 -0.7310 -0.1664
vn 0.8214 -0.5527 -0.1407
vn 0.8215 -0.5526 -0.1407
vn 0.9332 -0.3419 -0.1103
vn 0.9333 -0.3417 -0.1102
vn 0.9909 -0.1107 -0.0769
vn 0.9909 -0.1105 -0.0769
vn 0.9909 0.1275 -0.0425
vn 0.9909 0.1277 -0.0425
vn 0.9333 0.3590 -0.0092
vn 0.9334 0.3588 -0.0092
vn 0.8215 0.5699 0.0213
vn 0.8216 0.5697 0.0212
vn 0.6619 0.7481 0.0470
vn 0.6620 0.7480 0.0470
vn 0.5671 0.8216 0.0580
vn 0.2388 0.9679 0.0787
vn 0.2389 0.9678 0.0787
vn 0.3539 0.9323 0.0740
vn 0.3539 0.9324 0.0740
vn -0.0000 0.9966 0.0828
vn -0.2389 0.9678 0.0787
vn -0.2388 0.9679 0.0787
vn -0.3539 0.9323 0.0740
vn -0.3539 0.9324 0.0740
vn -0.6620 0.7480 0.0470
vn -0.5671 0.8216 0.0580
vn -0.6619 0.7481 0.0470
vn -0.8216 0.5697 0.0212
vn -0.8215 0.5699 0.0213
vn -0.9334 0.3588 -0.0092
vn -0.9333 0.3590 -0.0091
vn -0.9909 0.1275 -0.0425
vn -0.9909 0.1277 -0.0425
vn -0.9909 -0.1105 -0.0769
vn -0.9909 -0.1107 -0.0769
vn -0.9333 -0.3417 -0.1102
vn -0.9332 -0.3419 -0.1103
vn -0.8215 -0.5526 -0.1407
vn -0.8214 -0.5528 -0.1407
vn -0.6620 -0.7308 -0.1664
vn -0.6618 -0.7310 -0.1664
vn -0.5670 -0.8046 -0.1765
vn -0.3538 -0.9153 -0.1926
vn -0.2388 -0.9507 -0.1981
vn -0.3540 -0.9152 -0.1925
vn -0.2388 -0.9506 -0.1981
usemtl gp21_cockpit_details.001
s off
f 1/1/1 2/2/1 3/3/1
f 2/2/1 1/1/1 4/4/1
f 5/5/1 6/6/1 7/7/1
f 6/6/1 5/5/1 8/8/1
f 9/9/1 10/10/1 11/11/1
f 10/10/1 9/9/1 12/12/1
f 13/13/2 14/14/2 15/15/2
f 14/14/2 13/13/2 16/16/2
f 91/17/3 92/18/3 93/19/3
f 94/20/3 95/21/3 96/22/3
f 95/21/4 94/20/4 97/23/4
f 97/23/5 94/20/5 98/24/5
f 99/25/3 100/26/3 101/27/3
f 102/28/3 103/29/3 104/30/3
f 96/22/6 95/21/6 99/25/6
f 105/31/7 98/24/7 94/20/7
f 92/18/5 98/24/5 105/31/5
f 92/18/6 91/17/6 106/32/6
f 107/33/5 91/17/5 93/19/5
f 108/34/8 107/33/8 109/35/8
f 110/36/9 107/33/9 108/34/9
f 91/17/3 107/33/3 110/36/3
f 98/24/6 92/18/6 106/32/6
f 100/26/7 99/25/7 95/21/7
f 101/27/4 111/37/4 99/25/4
f 104/30/3 112/38/3 101/27/3
f 113/39/5 114/40/5 102/28/5
f 115/41/10 113/39/10 116/42/10
f 114/40/3 113/39/3 115/41/3
f 103/29/5 102/28/5 114/40/5
f 112/38/5 104/30/5 103/29/5
f 111/37/5 101/27/5 112/38/5
s 1
f 17/43/11 18/44/12 19/45/11
f 18/44/12 17/43/11 20/46/12
f 21/47/13 19/45/11 22/48/13
f 19/45/11 21/47/13 17/43/11
f 23/49/14 22/48/13 24/50/14
f 22/48/13 23/49/14 21/47/13
f 25/51/15 24/50/14 26/52/15
f 24/50/14 25/51/15 23/49/14
f 27/53/16 26/52/15 28/54/16
f 26/52/15 27/53/16 25/51/15
f 29/55/17 28/54/16 30/56/17
f 28/54/16 29/55/17 27/53/16
f 31/57/18 32/58/19 33/59/19
f 32/58/19 31/57/18 34/60/20
f 35/61/21 34/60/20 31/57/18
f 34/60/20 35/61/21 36/62/22
f 37/63/23 38/64/24 39/65/25
f 38/64/24 37/63/23 40/66/26
f 37/63/23 41/67/27 40/66/26
f 41/67/27 37/63/23 42/68/28
f 42/68/28 43/69/29 41/67/27
f 43/69/29 42/68/28 44/70/30
f 44/70/30 45/71/31 43/69/29
f 45/71/31 44/70/30 46/72/32
f 46/72/32 47/73/33 45/71/31
f 47/73/33 46/72/32 48/74/34
f 49/75/35 47/73/33 48/74/34
f 47/73/33 49/75/35 50/76/36
f 51/77/37 50/76/36 49/75/35
f 50/76/36 51/77/37 52/78/38
f 53/79/39 52/78/38 51/77/37
f 52/78/38 53/79/39 54/80/40
f 55/81/41 56/82/41 54/80/40
f 54/80/40 53/79/39 55/81/41
f 57/83/42 58/84/43 59/85/44
f 59/85/44 60/86/45 57/83/42
f 61/87/46 62/88/46 58/84/43
f 58/84/43 57/83/42 61/87/46
f 63/89/47 61/87/46 64/90/48
f 61/87/46 63/89/47 62/88/46
f 65/91/49 64/90/48 66/92/50
f 64/90/48 65/91/49 63/89/47
f 67/93/51 68/94/52 69/95/53
f 68/94/52 67/93/51 70/96/52
f 71/97/54 69/95/53 72/98/55
f 69/95/53 71/97/54 67/93/51
f 73/99/56 72/98/55 74/100/57
f 72/98/55 73/99/56 71/97/54
f 75/101/58 74/100/57 76/102/59
f 74/100/57 75/101/58 73/99/56
f 77/103/60 78/104/61 75/101/58
f 77/103/60 75/101/58 76/102/59
f 79/105/62 80/106/63 78/104/61
f 79/105/62 78/104/61 77/103/60
f 81/107/64 82/108/65 80/106/63
f 81/107/64 80/106/63 79/105/62
f 83/109/66 84/110/67 82/108/65
f 83/109/66 82/108/65 81/107/64
f 85/111/68 83/109/66 86/112/68
f 83/109/66 85/111/68 84/110/67
f 87/113/69 88/114/70 89/115/71
f 88/114/70 87/113/69 90/116/72
f 90/116/72 32/58/19 88/114/70
f 32/58/19 90/116/72 33/59/19
