# Blender v3.1.2 OBJ File: 'car.blend'
# www.blender.org
mtllib Mesh_107.001.mtl
o Mesh_107_Mesh_107.001
v 0.010053 1.197253 0.951890
v 0.010053 1.195035 0.951313
v 0.010053 1.197309 0.951288
v 0.010052 1.195013 0.951889
v 0.010053 1.195035 0.951313
v 0.009068 1.193310 0.951889
v 0.009671 1.192935 0.951390
v 0.010052 1.195013 0.951889
v 0.008093 1.191620 0.951889
v 0.008655 1.191269 0.951423
v 0.010052 1.192622 0.950685
v 0.009023 1.190996 0.950685
v 0.009671 1.192935 0.951390
v 0.010053 1.194992 0.950685
v 0.010052 1.192622 0.950685
v 0.010053 1.197329 0.950685
v 0.010053 1.199475 0.951361
v 0.010054 1.199533 0.950685
v 0.009226 1.201208 0.951891
v 0.010053 1.199475 0.951361
v 0.009765 1.201530 0.951449
v 0.010053 1.199419 0.951891
v 0.010053 1.199419 0.951891
v 0.009765 1.201530 0.951449
v 0.010054 1.201668 0.950685
v 0.008897 1.203243 0.951376
v 0.010054 1.201668 0.950685
v 0.009464 1.203539 0.950685
v 0.008253 1.202894 0.951891
v 0.007516 1.204664 0.951310
v 0.007313 1.204523 0.951891
v 0.009464 1.203539 0.950685
v 0.007573 1.204631 0.950685
v 0.008897 1.203243 0.951376
v 0.007516 1.204664 0.951310
v 0.005653 1.205739 0.950685
v 0.005631 1.205753 0.951288
v 0.005631 1.205753 0.951288
v 0.003832 1.206791 0.951295
v 0.003862 1.206774 0.951891
v 0.005666 1.205733 0.951891
v 0.005666 1.205733 0.951891
v 0.007313 1.204523 0.951891
v 0.005653 1.205739 0.950685
v 0.003772 1.206826 0.950685
v 0.001963 1.207871 0.950685
v 0.002032 1.207831 0.951369
v 0.002032 1.207831 0.951369
v 0.000099 1.208088 0.951330
v 0.000057 1.207291 0.951891
v 0.001999 1.207291 0.951891
v 0.001999 1.207291 0.951891
v 0.000198 1.208889 0.950685
v 0.001963 1.207871 0.950685
v -0.001738 1.208000 0.950685
v -0.001885 1.207915 0.951288
v -0.003724 1.206854 0.951891
v -0.001885 1.207915 0.951288
v -0.003737 1.206846 0.951307
v -0.001845 1.207292 0.951891
v -0.001845 1.207292 0.951891
v -0.003690 1.206874 0.950685
v -0.001738 1.208000 0.950685
v -0.005547 1.205802 0.951291
v -0.005597 1.205773 0.950685
v -0.007212 1.204696 0.951891
v -0.005547 1.205802 0.951291
v -0.007374 1.204748 0.951376
v -0.005535 1.205809 0.951891
v -0.005535 1.205809 0.951891
v -0.007374 1.204748 0.951376
v -0.007419 1.204721 0.950685
v -0.007419 1.204721 0.950685
v -0.009210 1.203688 0.950685
v -0.008770 1.203382 0.951404
v -0.007374 1.204748 0.951376
v -0.008183 1.203015 0.951891
v -0.009725 1.201739 0.951400
v -0.009139 1.201359 0.951891
v -0.008770 1.203382 0.951404
v -0.007374 1.204748 0.951376
v -0.007212 1.204696 0.951891
v -0.009210 1.203688 0.950685
v -0.010052 1.202026 0.950685
v -0.009725 1.201739 0.951400
v -0.010053 1.199766 0.950685
v -0.010053 1.199707 0.951315
v -0.010052 1.202026 0.950685
v -0.010053 1.197594 0.951891
v -0.010053 1.199696 0.951891
v -0.010053 1.197559 0.951288
v -0.010053 1.199707 0.951315
v -0.010053 1.199696 0.951891
v -0.010053 1.197567 0.950685
v -0.010053 1.195482 0.951358
v -0.010054 1.195418 0.950685
v -0.009320 1.193746 0.951891
v -0.010053 1.195537 0.951891
v -0.010053 1.195482 0.951358
v -0.009838 1.193427 0.951463
v -0.010053 1.195537 0.951891
v -0.009838 1.193427 0.951463
v -0.010054 1.193299 0.950685
v -0.009012 1.191717 0.951365
v -0.010054 1.193299 0.950685
v -0.009642 1.191355 0.950685
v -0.007723 1.190246 0.951306
v -0.008357 1.192077 0.951891
v -0.007417 1.190449 0.951891
v -0.009642 1.191355 0.950685
v -0.007798 1.190290 0.950685
v -0.009012 1.191717 0.951365
v -0.007723 1.190246 0.951306
v -0.005884 1.189185 0.950685
v -0.005852 1.189166 0.951309
v -0.004068 1.188136 0.951891
v -0.005882 1.189184 0.951891
v -0.004061 1.188132 0.951337
v -0.007417 1.190449 0.951891
v -0.004001 1.188097 0.950685
v -0.002239 1.187080 0.951304
v -0.002185 1.187048 0.950685
v -0.000294 1.187500 0.951891
v -0.002236 1.187501 0.951891
v -0.002239 1.187080 0.951304
v -0.000335 1.186765 0.951373
v -0.002236 1.187501 0.951891
v -0.004061 1.188132 0.951337
v -0.002239 1.187080 0.951304
v -0.004068 1.188136 0.951891
v -0.002185 1.187048 0.950685
v -0.000414 1.186025 0.950685
v -0.002239 1.187080 0.951304
v -0.000335 1.186765 0.951373
v 0.001472 1.186639 0.950685
v 0.001560 1.186854 0.951436
v -0.000414 1.186025 0.950685
v 0.001610 1.187500 0.951891
v 0.003494 1.187806 0.951313
v 0.003496 1.187807 0.951891
v 0.001560 1.186854 0.951436
v 0.001610 1.187500 0.951891
v 0.001472 1.186639 0.950685
v 0.003451 1.187781 0.950685
v 0.005330 1.188865 0.951289
v 0.005381 1.188894 0.950685
v 0.007075 1.189893 0.951889
v 0.005311 1.188854 0.951890
v 0.005330 1.188865 0.951289
v 0.007172 1.189928 0.951376
v 0.005311 1.188854 0.951890
v 0.007172 1.189928 0.951376
v 0.007215 1.189953 0.950685
v 0.008655 1.191269 0.951423
v 0.007172 1.189928 0.951376
v 0.007215 1.189953 0.950685
v 0.009023 1.190996 0.950685
v 0.007075 1.189893 0.951889
v 0.007172 1.189928 0.951376
v 0.001954 1.204416 0.951889
v 0.003418 1.202088 0.949712
v 0.004098 1.203178 0.951891
v 0.001393 1.203186 0.949712
v -0.000838 1.204481 0.951891
v -0.000578 1.203094 0.949712
v -0.003296 1.203641 0.951891
v -0.002649 1.202531 0.949712
v -0.004220 1.201373 0.949712
v -0.003296 1.203641 0.951891
v -0.005583 1.201898 0.951891
v -0.002649 1.202531 0.949712
v -0.005583 1.201898 0.951891
v -0.006799 1.199790 0.951890
v -0.004220 1.201373 0.949712
v -0.005323 1.199465 0.949712
v -0.007056 1.197220 0.951889
v -0.005773 1.197281 0.949712
v -0.005354 1.195382 0.949712
v -0.006481 1.194450 0.951889
v -0.004233 1.193439 0.949712
v -0.005243 1.192305 0.951889
v -0.003002 1.190981 0.951891
v -0.002437 1.192138 0.949712
v -0.000551 1.191753 0.949712
v -0.000246 1.190310 0.951891
v 0.001522 1.191753 0.949712
v 0.002303 1.190578 0.951889
v 0.003690 1.192861 0.949712
v 0.004430 1.191806 0.951889
v 0.006185 1.193939 0.951889
v 0.004837 1.194488 0.949712
v 0.007056 1.196355 0.951890
v 0.005770 1.196375 0.949712
v 0.005758 1.198679 0.949712
v 0.007056 1.198919 0.951891
v 0.004773 1.200617 0.949712
v 0.005938 1.201280 0.951891
v 0.010053 1.197253 0.951890
v 0.005311 1.188854 0.951890
v 0.003496 1.187807 0.951891
v -0.004068 1.188136 0.951891
v -0.005882 1.189184 0.951891
v -0.010053 1.197594 0.951891
v -0.005535 1.205809 0.951891
v -0.003724 1.206854 0.951891
v 0.003862 1.206774 0.951891
v 0.005666 1.205733 0.951891
vt 0.880976 -0.171113
vt 0.880843 -0.171623
vt 0.880838 -0.171101
vt 0.880976 -0.171629
vt 0.753062 -0.921737
vt 0.753053 -0.921280
vt 0.753216 -0.921271
vt 0.753064 -0.921732
vt 0.753042 -0.920832
vt 0.753194 -0.920823
vt 0.753327 -0.921250
vt 0.753298 -0.920808
vt 0.880861 -0.172106
vt 0.880699 -0.171633
vt 0.880699 -0.172178
vt 0.880699 -0.171096
vt 0.880854 -0.170603
vt 0.880699 -0.170589
vt 0.752216 -0.922892
vt 0.752574 -0.922633
vt 0.752290 -0.923016
vt 0.752580 -0.922622
vt 0.880976 -0.170616
vt 0.880875 -0.170130
vt 0.880699 -0.170098
vt 0.751926 -0.923267
vt 0.752333 -0.923076
vt 0.752008 -0.923389
vt 0.751835 -0.923126
vt 0.751491 -0.923402
vt 0.751466 -0.923351
vt 0.880699 -0.169668
vt 0.880699 -0.169417
vt 0.880858 -0.169737
vt 0.880843 -0.169410
vt 0.880699 -0.169162
vt 0.880838 -0.169159
vt 0.530348 -0.731271
vt 0.530761 -0.731272
vt 0.530754 -0.731409
vt 0.530339 -0.731409
vt 0.880976 -0.169164
vt 0.880976 -0.169442
vt 0.530342 -0.731132
vt 0.530775 -0.731132
vt 0.531191 -0.731132
vt 0.531175 -0.731289
vt 0.750036 -0.923438
vt 0.749617 -0.923278
vt 0.749696 -0.923112
vt 0.750088 -0.923326
vt 0.531183 -0.731409
vt 0.749549 -0.923451
vt 0.750017 -0.923439
vt 0.749256 -0.923058
vt 0.749236 -0.923025
vt 0.532498 -0.731409
vt 0.532076 -0.731271
vt 0.532501 -0.731275
vt 0.532066 -0.731409
vt 0.749312 -0.922903
vt 0.532490 -0.731132
vt 0.532042 -0.731132
vt 0.532917 -0.731271
vt 0.532929 -0.731132
vt 0.980112 -0.824368
vt 0.979858 -0.824230
vt 0.980100 -0.824250
vt 0.979856 -0.824368
vt 0.532915 -0.731409
vt 0.533337 -0.731291
vt 0.533348 -0.731132
vt 0.980106 -0.824091
vt 0.980344 -0.824091
vt 0.980414 -0.824256
vt 0.980100 -0.824250
vt 0.748503 -0.921343
vt 0.748332 -0.920915
vt 0.748492 -0.920903
vt 0.748344 -0.921352
vt 0.748476 -0.921782
vt 0.748514 -0.921789
vt 0.748222 -0.921366
vt 0.748234 -0.920937
vt 0.980792 -0.824255
vt 0.981246 -0.824091
vt 0.981259 -0.824236
vt 0.980726 -0.824091
vt 0.981745 -0.824368
vt 0.981261 -0.824368
vt 0.981753 -0.824230
vt 0.748489 -0.920469
vt 0.748490 -0.920467
vt 0.981751 -0.824091
vt 0.982230 -0.824246
vt 0.982245 -0.824091
vt 0.749292 -0.919346
vt 0.748947 -0.919627
vt 0.748954 -0.919616
vt 0.749223 -0.919225
vt 0.982218 -0.824368
vt 0.982703 -0.824270
vt 0.982732 -0.824091
vt 0.749578 -0.918971
vt 0.749193 -0.919176
vt 0.749490 -0.918828
vt 0.750000 -0.918815
vt 0.749670 -0.919115
vt 0.750039 -0.918890
vt 0.983179 -0.824091
vt 0.983424 -0.824091
vt 0.983096 -0.824247
vt 0.983434 -0.824234
vt 0.983678 -0.824091
vt 0.983682 -0.824234
vt 0.983919 -0.824368
vt 0.983678 -0.824368
vt 0.983920 -0.824241
vt 0.983387 -0.824368
vt 0.983928 -0.824091
vt 0.984162 -0.824233
vt 0.984169 -0.824091
vt 0.751801 -0.919078
vt 0.751409 -0.918864
vt 0.751455 -0.918779
vt 0.751874 -0.918925
vt 0.944807 -0.195531
vt 0.944934 -0.195112
vt 0.944942 -0.195531
vt 0.944807 -0.195110
vt 0.945084 -0.195543
vt 0.945084 -0.195950
vt 0.944942 -0.195531
vt 0.944926 -0.195968
vt 0.752253 -0.919098
vt 0.752247 -0.919151
vt 0.751940 -0.918767
vt 0.944807 -0.196416
vt 0.944940 -0.196849
vt 0.944807 -0.196849
vt 0.944911 -0.196404
vt 0.752186 -0.919287
vt 0.945084 -0.196384
vt 0.945084 -0.196839
vt 0.944945 -0.197271
vt 0.945084 -0.197283
vt 0.880976 -0.172805
vt 0.880976 -0.173044
vt 0.880838 -0.173042
vt 0.880858 -0.172798
vt 0.944807 -0.197266
vt 0.944925 -0.197694
vt 0.945084 -0.197704
vt 0.880869 -0.172489
vt 0.880858 -0.172798
vt 0.880699 -0.172792
vt 0.880699 -0.172552
vt 0.753026 -0.920371
vt 0.753042 -0.920389
vt 0.750395 -0.922740
vt 0.750947 -0.922431
vt 0.750964 -0.922726
vt 0.750417 -0.922430
vt 0.749825 -0.922446
vt 0.750030 -0.922195
vt 0.749421 -0.922006
vt 0.749673 -0.921854
vt 0.882455 -0.195571
vt 0.882243 -0.195070
vt 0.882768 -0.195070
vt 0.882094 -0.195571
vt 0.749151 -0.921403
vt 0.749137 -0.920844
vt 0.749483 -0.921447
vt 0.749471 -0.920940
vt 0.749368 -0.920297
vt 0.749620 -0.920450
vt 0.749913 -0.920113
vt 0.749788 -0.919801
vt 0.750353 -0.919844
vt 0.750274 -0.919504
vt 0.750872 -0.919483
vt 0.750859 -0.919779
vt 0.751282 -0.919908
vt 0.751502 -0.919651
vt 0.751701 -0.920136
vt 0.751988 -0.919985
vt 0.752016 -0.920598
vt 0.752282 -0.920466
vt 0.752402 -0.921090
vt 0.752069 -0.921053
vt 0.752312 -0.921674
vt 0.752050 -0.921536
vt 0.751794 -0.922000
vt 0.752030 -0.922191
vt 0.751382 -0.922283
vt 0.751545 -0.922545
vt 0.752818 -0.922185
vt 0.752784 -0.919968
vt 0.752533 -0.919556
vt 0.750970 -0.918791
vt 0.750488 -0.918803
vt 0.748721 -0.920043
vt 0.748730 -0.922198
vt 0.748981 -0.922608
vt 0.750521 -0.923426
vt 0.751000 -0.923414
vn 1.0000 -0.0002 0.0001
vn 0.9983 -0.0577 0.0043
vn 1.0000 -0.0002 -0.0000
vn 1.0000 -0.0005 0.0013
vn 0.8783 -0.4339 0.2009
vn 0.3199 -0.1190 0.9399
vn 0.6141 -0.2778 0.7387
vn 0.4560 -0.2635 0.8501
vn 0.2614 -0.1525 0.9531
vn 0.6008 -0.3795 0.7036
vn 0.7104 -0.4295 0.5576
vn 0.7183 -0.4548 0.5266
vn 0.9115 -0.0283 0.4103
vn 0.9953 -0.0747 0.0614
vn 0.8799 -0.0002 0.4752
vn 0.9990 0.0455 0.0039
vn 0.9972 0.0570 0.0487
vn 0.3298 0.1089 0.9377
vn 0.9051 0.3659 0.2167
vn 0.6690 0.2815 0.6879
vn 0.4260 0.1969 0.8830
vn 0.9562 0.0266 0.2914
vn 0.9354 -0.0002 0.3536
vn 0.5683 0.3345 0.7518
vn 0.7958 0.3766 0.4742
vn 0.7048 0.2223 0.6737
vn 0.2645 0.1968 0.9441
vn 0.7151 0.4682 0.5191
vn 0.3490 0.2013 0.9153
vn 0.3941 0.6825 0.6156
vn 0.5940 0.7984 0.0989
vn 0.4648 0.7081 0.5315
vn 0.5722 0.8110 0.1220
vn 0.5001 0.8659 -0.0011
vn 0.5374 0.8427 0.0309
vn 0.4999 0.8661 -0.0008
vn 0.5001 0.8660 0.0001
vn 0.4815 0.8729 0.0783
vn 0.5000 0.8660 0.0000
vn 0.5920 0.8059 -0.0076
vn 0.4898 0.8180 0.3016
vn 0.5000 0.8661 -0.0011
vn 0.5002 0.8659 0.0008
vn 0.5001 0.8660 0.0002
vn 0.4207 0.8644 0.2753
vn 0.2155 0.8088 0.5472
vn -0.0577 0.6341 0.7711
vn -0.0018 0.3200 0.9474
vn -0.0000 0.2678 0.9635
vn 0.1880 0.6769 0.7117
vn -0.0426 0.7017 0.7112
vn 0.4998 0.8661 0.0005
vn -0.1467 0.9462 0.2884
vn -0.0554 0.8697 0.4905
vn -0.4752 0.8752 0.0907
vn -0.4187 0.8713 0.2561
vn -0.4999 0.8661 0.0002
vn -0.1589 0.6817 0.7142
vn 0.0001 0.2661 0.9639
vn -0.4999 0.8661 0.0007
vn -0.4997 0.8662 0.0002
vn -0.4998 0.8662 0.0000
vn -0.4998 0.8661 -0.0002
vn -0.4917 0.8479 0.1984
vn -0.5427 0.8389 0.0403
vn -0.4771 0.8465 0.2361
vn -0.5530 0.8332 0.0012
vn -0.4997 0.8662 -0.0001
vn -0.5000 0.8660 -0.0014
vn -0.5001 0.8660 -0.0016
vn -0.6499 0.7425 0.1619
vn -0.4143 0.7182 0.5591
vn -0.4861 0.7400 0.4648
vn -0.6992 0.7147 0.0176
vn -0.2629 0.1953 0.9448
vn -0.6315 0.2793 0.7233
vn -0.3261 0.1154 0.9383
vn -0.5601 0.3708 0.7408
vn -0.7527 0.4840 0.4463
vn -0.3590 0.2073 0.9100
vn -0.7176 0.3639 0.5939
vn -0.7367 0.4130 0.5354
vn -0.9345 0.0265 0.3551
vn -0.9962 0.0668 0.0566
vn -0.9987 0.0511 0.0048
vn -0.9093 0.0002 0.4161
vn -1.0000 0.0002 -0.0000
vn -0.8842 0.4124 0.2192
vn -0.4425 0.2431 0.8632
vn -0.9994 -0.0339 0.0033
vn -0.9984 -0.0427 0.0369
vn -0.3395 -0.1006 0.9352
vn -0.4295 -0.1761 0.8857
vn -0.9223 -0.3262 0.2072
vn -0.6902 -0.2764 0.6687
vn -0.9754 -0.0200 0.2193
vn -0.9635 0.0002 0.2675
vn -0.5758 -0.3046 0.7588
vn -0.8259 -0.3562 0.4370
vn -0.6859 -0.1453 0.7130
vn -0.6599 -0.4265 0.6186
vn -0.2643 -0.1867 0.9462
vn -0.3033 -0.1750 0.9367
vn -0.3672 -0.6358 0.6789
vn -0.6115 -0.7814 0.1240
vn -0.4544 -0.6675 0.5898
vn -0.5841 -0.7949 0.1645
vn -0.4999 -0.8661 -0.0009
vn -0.5276 -0.8491 0.0234
vn -0.5000 -0.8660 0.0002
vn -0.5725 -0.8199 -0.0038
vn -0.5001 -0.8660 0.0002
vn -0.4777 -0.7724 0.4185
vn -0.5001 -0.8659 0.0005
vn -0.5002 -0.8659 0.0008
vn -0.5002 -0.8659 0.0007
vn -0.0247 -0.3184 0.9476
vn -0.0001 -0.3248 0.9458
vn -0.0340 -0.7562 0.6535
vn 0.0277 -0.6535 0.7565
vn -0.4118 -0.7871 0.4592
vn -0.3563 -0.9269 0.1177
vn -0.4166 -0.7378 0.5311
vn -0.3275 -0.9448 0.0026
vn -0.5000 -0.8660 0.0007
vn -0.2271 -0.7544 0.6158
vn -0.4276 -0.8745 0.2289
vn -0.1371 -0.6670 0.7323
vn 0.0914 -0.9091 0.4064
vn 0.0175 -0.7973 0.6034
vn 0.2205 -0.6769 0.7022
vn 0.3160 -0.6632 0.6785
vn 0.4202 -0.9062 0.0474
vn 0.3360 -0.9418 0.0007
vn 0.4465 -0.7868 0.4261
vn 0.0001 -0.2014 0.9795
vn 0.4911 -0.8510 0.1860
vn 0.4757 -0.8793 0.0229
vn 0.4997 -0.8662 0.0001
vn 0.4998 -0.8662 0.0002
vn 0.4999 -0.8656 0.0291
vn 0.5075 -0.8616 0.0004
vn 0.5061 -0.8624 0.0058
vn 0.4984 -0.8662 0.0347
vn 0.4995 -0.8663 0.0001
vn 0.5000 -0.8660 0.0001
vn 0.5000 -0.8660 0.0000
vn 0.4926 -0.7683 0.4088
vn 0.6704 -0.7418 0.0149
vn 0.6291 -0.7652 0.1372
vn 0.4342 -0.7527 0.4948
vn 0.2912 -0.2929 0.9107
vn 0.6675 -0.7407 0.0756
vn -0.1178 -0.4110 0.9040
vn -0.5302 -0.6732 0.5155
vn -0.2832 -0.3660 0.8865
vn -0.1901 -0.8238 0.5340
vn 0.0690 -0.4402 0.8953
vn 0.1295 -0.8294 0.5435
vn 0.0939 -0.2744 0.9570
vn 0.2504 -0.8155 0.5218
vn 0.5196 -0.6925 0.5004
vn 0.5203 -0.6923 0.5000
vn 0.5265 -0.6907 0.4956
vn 0.5117 -0.6945 0.5058
vn 0.2566 -0.1484 0.9551
vn 0.3936 -0.1242 0.9109
vn 0.7220 -0.4172 0.5519
vn 0.7858 -0.2833 0.5498
vn 0.4480 0.0148 0.8939
vn 0.8615 0.0033 0.5078
vn 0.7962 0.2885 0.5318
vn 0.4098 0.1641 0.8973
vn 0.6089 0.5671 0.5546
vn 0.2826 0.2828 0.9166
vn 0.1792 0.4137 0.8926
vn 0.3511 0.7813 0.5160
vn 0.0942 0.8360 0.5406
vn 0.0303 0.4458 0.8946
vn -0.1977 0.8169 0.5418
vn -0.1374 0.4155 0.8991
vn -0.5551 0.6401 0.5312
vn -0.2899 0.3455 0.8925
vn -0.3839 0.2078 0.8997
vn -0.7371 0.4149 0.5334
vn -0.4378 0.0818 0.8954
vn -0.8412 0.2099 0.4984
vn -0.8316 -0.2044 0.5165
vn -0.4219 -0.0964 0.9015
vn -0.7042 -0.4863 0.5173
vn -0.3722 -0.2528 0.8930
vn 0.0000 -0.0005 1.0000
vn 0.0001 0.0005 1.0000
vn 0.0001 0.0007 1.0000
vn 0.0001 0.0002 1.0000
vn 0.0002 0.0005 1.0000
vn 0.0007 -0.0000 1.0000
vn -0.0000 -0.0001 1.0000
vn 0.0001 -0.0001 1.0000
vn -0.0003 -0.0004 1.0000
vn -0.0002 -0.0002 1.0000
usemtl chrome_ao.001
s 1
f 1/1/1 2/2/2 3/3/3
f 2/2/2 1/1/1 4/4/4
f 5/5/5 6/6/6 7/7/7
f 6/6/6 5/5/5 8/8/8
f 6/6/6 9/9/9 7/7/7
f 10/10/10 7/7/7 9/9/9
f 11/11/11 10/10/10 12/12/12
f 10/10/10 11/11/11 7/7/7
f 2/2/2 13/13/13 14/14/14
f 14/14/14 13/13/13 15/15/15
f 16/16/3 2/2/2 14/14/14
f 2/2/2 16/16/3 3/3/3
f 17/17/16 16/16/3 18/18/17
f 16/16/3 17/17/16 3/3/3
f 19/19/18 20/20/19 21/21/20
f 20/20/19 19/19/18 22/22/21
f 23/23/3 3/3/3 17/17/16
f 3/3/3 23/23/3 1/1/1
f 24/24/22 18/18/17 25/25/23
f 18/18/17 24/24/22 17/17/16
f 26/26/24 27/27/25 28/28/26
f 27/27/25 26/26/24 21/21/20
f 29/29/27 30/30/28 31/31/29
f 30/30/28 29/29/27 26/26/24
f 29/29/27 21/21/20 26/26/24
f 21/21/20 29/29/27 19/19/18
f 32/32/30 33/33/31 34/34/32
f 34/34/32 33/33/31 35/35/33
f 36/36/34 35/35/33 33/33/31
f 35/35/33 36/36/34 37/37/35
f 38/38/36 39/39/37 40/40/38
f 38/38/36 40/40/38 41/41/39
f 42/42/40 43/43/41 37/37/35
f 35/35/33 37/37/35 43/43/41
f 44/44/42 39/39/37 38/38/36
f 39/39/37 44/44/42 45/45/43
f 45/45/43 46/46/44 47/47/45
f 45/45/43 47/47/45 39/39/37
f 48/48/46 49/49/47 50/50/48
f 48/48/46 50/50/48 51/51/49
f 52/52/50 40/40/38 47/47/45
f 39/39/37 47/47/45 40/40/38
f 53/53/51 48/48/46 54/54/52
f 48/48/46 53/53/51 49/49/47
f 55/55/53 49/49/47 53/53/51
f 49/49/47 55/55/53 56/56/54
f 57/57/55 58/58/56 59/59/57
f 58/58/56 57/57/55 60/60/58
f 61/61/59 50/50/48 56/56/54
f 49/49/47 56/56/54 50/50/48
f 62/62/60 58/58/56 63/63/61
f 58/58/56 62/62/60 59/59/57
f 64/64/62 62/62/60 65/65/63
f 62/62/60 64/64/62 59/59/57
f 66/66/64 67/67/65 68/68/66
f 67/67/65 66/66/64 69/69/67
f 70/70/68 59/59/57 64/64/62
f 59/59/57 70/70/68 57/57/55
f 65/65/63 71/71/69 64/64/62
f 71/71/69 65/65/63 72/72/70
f 73/73/71 74/74/72 75/75/73
f 73/73/71 75/75/73 76/76/74
f 77/77/75 78/78/76 79/79/77
f 78/78/76 77/77/75 80/80/78
f 77/77/75 81/81/79 80/80/78
f 81/81/79 77/77/75 82/82/80
f 83/83/81 84/84/82 80/80/78
f 78/78/76 80/80/78 84/84/82
f 85/85/83 86/86/84 87/87/85
f 86/86/84 85/85/83 88/88/86
f 89/89/87 90/90/87 87/87/85
f 87/87/85 91/91/87 89/89/87
f 78/78/76 92/92/88 79/79/77
f 79/79/77 92/92/88 93/93/89
f 86/86/84 94/94/87 87/87/85
f 87/87/85 94/94/87 91/91/87
f 95/95/90 91/91/87 94/94/87
f 94/94/87 96/96/91 95/95/90
f 97/97/92 98/98/93 99/99/94
f 99/99/94 100/100/95 97/97/92
f 91/91/87 101/101/87 89/89/87
f 101/101/87 91/91/87 95/95/90
f 96/96/91 102/102/96 95/95/90
f 102/102/96 96/96/91 103/103/97
f 104/104/98 100/100/95 105/105/99
f 105/105/99 106/106/100 104/104/98
f 107/107/101 108/108/102 104/104/98
f 108/108/102 107/107/101 109/109/103
f 108/108/102 100/100/95 104/104/98
f 100/100/95 108/108/102 97/97/92
f 110/110/104 111/111/105 112/112/106
f 113/113/107 112/112/106 111/111/105
f 113/113/107 114/114/108 115/115/109
f 114/114/108 113/113/107 111/111/105
f 116/116/110 117/117/111 115/115/109
f 116/116/110 115/115/109 118/118/112
f 119/119/113 115/115/109 117/117/111
f 115/115/109 119/119/113 113/113/107
f 114/114/108 118/118/112 115/115/109
f 118/118/112 114/114/108 120/120/114
f 121/121/115 118/118/112 120/120/114
f 121/121/115 120/120/114 122/122/116
f 123/123/117 124/124/118 125/125/119
f 123/123/117 125/125/119 126/126/120
f 127/127/121 128/128/122 129/129/123
f 128/128/122 127/127/121 130/130/124
f 131/131/125 132/132/126 133/133/127
f 134/134/128 133/133/127 132/132/126
f 126/126/120 135/135/129 136/136/130
f 135/135/129 126/126/120 137/137/131
f 138/138/132 139/139/133 140/140/134
f 139/139/133 138/138/132 141/141/135
f 123/123/117 136/136/130 142/142/136
f 136/136/130 123/123/117 126/126/120
f 143/143/137 144/144/138 141/141/135
f 139/139/133 141/141/135 144/144/138
f 145/145/139 139/139/133 144/144/138
f 145/145/139 144/144/138 146/146/140
f 147/147/141 148/148/142 149/149/143
f 147/147/141 149/149/143 150/150/144
f 151/151/145 139/139/133 145/145/139
f 139/139/133 151/151/145 140/140/134
f 146/146/140 152/152/146 145/145/139
f 152/152/146 146/146/140 153/153/147
f 154/154/148 155/155/149 156/156/150
f 156/156/150 157/157/151 154/154/148
f 9/9/9 158/158/152 10/10/10
f 10/10/10 158/158/152 159/159/153
f 160/160/154 161/161/155 162/162/156
f 161/161/155 160/160/154 163/163/157
f 164/164/158 163/163/157 160/160/154
f 163/163/157 164/164/158 165/165/159
f 166/166/160 167/167/161 164/164/158
f 164/164/158 167/167/161 165/165/159
f 168/168/162 169/169/163 170/170/164
f 169/169/163 168/168/162 171/171/165
f 172/172/166 173/173/167 174/174/168
f 174/174/168 173/173/167 175/175/169
f 175/175/169 176/176/170 177/177/171
f 176/176/170 175/175/169 173/173/167
f 176/176/170 178/178/172 177/177/171
f 178/178/172 176/176/170 179/179/173
f 179/179/173 180/180/174 178/178/172
f 180/180/174 179/179/173 181/181/175
f 180/180/174 182/182/176 183/183/177
f 182/182/176 180/180/174 181/181/175
f 184/184/178 183/183/177 185/185/179
f 183/183/177 182/182/176 185/185/179
f 185/185/179 186/186/180 184/184/178
f 186/186/180 185/185/179 187/187/181
f 188/188/182 186/186/180 187/187/181
f 187/187/181 189/189/183 188/188/182
f 190/190/184 188/188/182 189/189/183
f 190/190/184 191/191/185 188/188/182
f 192/192/186 193/193/187 191/191/185
f 192/192/186 191/191/185 190/190/184
f 194/194/188 192/192/186 195/195/189
f 192/192/186 194/194/188 193/193/187
f 196/196/190 195/195/189 197/197/191
f 195/195/189 196/196/190 194/194/188
f 161/161/155 197/197/191 162/162/156
f 197/197/191 161/161/155 196/196/190
f 198/198/192 192/192/186 8/8/8
f 192/192/186 198/198/192 195/195/189
f 8/8/8 192/192/186 6/6/6
f 192/192/186 190/190/184 6/6/6
f 190/190/184 9/9/9 6/6/6
f 9/9/9 189/189/183 158/158/152
f 189/189/183 9/9/9 190/190/184
f 189/189/183 199/199/193 158/158/152
f 187/187/181 199/199/193 189/189/183
f 199/199/193 187/187/181 200/200/194
f 187/187/181 142/142/136 200/200/194
f 185/185/179 142/142/136 187/187/181
f 142/142/136 185/185/179 123/123/117
f 185/185/179 124/124/118 123/123/117
f 182/182/176 124/124/118 185/185/179
f 124/124/118 182/182/176 201/201/195
f 182/182/176 202/202/196 201/201/195
f 202/202/196 181/181/175 109/109/103
f 181/181/175 202/202/196 182/182/176
f 181/181/175 108/108/102 109/109/103
f 108/108/102 179/179/173 97/97/92
f 179/179/173 108/108/102 181/181/175
f 179/179/173 98/98/93 97/97/92
f 98/98/93 176/176/170 203/203/197
f 176/176/170 98/98/93 179/179/173
f 93/93/89 176/176/170 173/173/167
f 176/176/170 93/93/89 203/203/197
f 173/173/167 79/79/77 93/93/89
f 172/172/166 77/77/75 173/173/167
f 173/173/167 77/77/75 79/79/77
f 172/172/166 82/82/80 77/77/75
f 166/166/160 204/204/198 172/172/166
f 82/82/80 172/172/166 204/204/198
f 166/166/160 205/205/199 204/204/198
f 205/205/199 164/164/158 61/61/59
f 164/164/158 205/205/199 166/166/160
f 164/164/158 50/50/48 61/61/59
f 50/50/48 160/160/154 51/51/49
f 160/160/154 50/50/48 164/164/158
f 160/160/154 206/206/200 51/51/49
f 162/162/156 206/206/200 160/160/154
f 206/206/200 162/162/156 207/207/201
f 162/162/156 31/31/29 207/207/201
f 197/197/191 31/31/29 162/162/156
f 31/31/29 197/197/191 29/29/27
f 197/197/191 19/19/18 29/29/27
f 195/195/189 19/19/18 197/197/191
f 19/19/18 195/195/189 22/22/21
f 195/195/189 198/198/192 22/22/21
