# Blender v3.1.2 OBJ File: 'car.blend'
# www.blender.org
mtllib Mesh_166.001.mtl
o Mesh_166_Mesh_166.001
v -0.930185 0.976077 -4.207258
v -0.929916 0.970916 -4.203855
v -0.930163 0.975020 -4.208784
v -0.929953 0.972681 -4.201861
v -0.930322 0.982183 -4.216313
v -0.930347 0.983394 -4.216032
v -0.930346 0.983340 -4.214502
v -0.930208 0.977168 -4.205736
v -0.929991 0.974468 -4.199852
v -0.955557 0.990935 -4.226691
v -0.987673 0.990955 -4.226681
v -0.987576 0.992777 -4.226592
v -0.955522 0.992791 -4.226819
v -1.088629 0.992154 -4.226302
v -1.088805 0.990374 -4.226667
v -0.987655 0.991912 -4.224224
v -1.088629 0.992154 -4.226302
v -1.088713 0.991165 -4.223808
v -0.987576 0.992777 -4.226592
v -0.955597 0.992022 -4.224554
v -0.955522 0.992791 -4.226819
v -0.938411 0.941364 -4.142384
v -0.956703 0.941008 -4.140622
v -0.956935 0.940114 -4.148108
v -0.938396 0.940373 -4.149487
v -0.929354 0.944060 -4.148154
v -0.929313 0.942142 -4.152395
v -0.938392 0.947402 -4.145375
v -0.929354 0.944060 -4.148154
v -0.929447 0.948497 -4.148796
v -0.938411 0.941364 -4.142384
v -0.956405 0.946965 -4.143541
v -0.956703 0.941008 -4.140622
v -0.989854 0.954575 -4.178219
v -0.956459 0.970572 -4.205635
v -0.956778 0.954798 -4.178151
v -0.989170 0.970535 -4.207416
v -0.956935 0.940114 -4.148108
v -0.990254 0.939650 -4.145632
v -1.092202 0.953685 -4.178307
v -1.092908 0.938455 -4.142497
v -1.091054 0.969879 -4.209672
v -0.938207 0.961100 -4.172504
v -0.955966 0.974171 -4.197767
v -0.956175 0.960632 -4.170915
v -0.938015 0.974590 -4.198968
v -0.929705 0.960847 -4.173583
v -0.929991 0.974468 -4.199852
v -0.955768 0.984670 -4.214795
v -0.937758 0.988029 -4.220581
v -0.955597 0.992022 -4.224554
v -0.937870 0.980876 -4.211324
v -0.930208 0.977168 -4.205736
v -0.930346 0.983340 -4.214502
v -0.956004 0.982543 -4.220468
v -0.988386 0.982573 -4.221843
v -1.089853 0.982002 -4.223584
v -0.929313 0.942142 -4.152395
v -0.929592 0.955459 -4.177742
v -0.929649 0.958148 -4.175713
v -0.929354 0.944060 -4.148154
v -0.929705 0.960847 -4.173583
v -0.929447 0.948497 -4.148796
v -0.937987 0.978472 -4.215547
v -0.930322 0.982183 -4.216313
v -0.930163 0.975020 -4.208784
v -0.937688 0.986868 -4.222542
v -0.938258 0.970592 -4.204643
v -0.929916 0.970916 -4.203855
v -0.987936 0.984204 -4.213565
v -1.088713 0.991165 -4.223808
v -1.089133 0.983007 -4.212009
v -0.987655 0.991912 -4.224224
v -0.988228 0.973413 -4.195604
v -1.089545 0.971848 -4.192866
v -0.988467 0.959792 -4.168056
v -1.089822 0.958121 -4.164436
v -0.988778 0.946181 -4.140244
v -1.090234 0.944580 -4.136070
v -0.938373 0.954922 -4.178112
v -0.929592 0.955459 -4.177742
v -0.929313 0.942142 -4.152395
v -0.938396 0.940373 -4.149487
v -1.091666 0.938951 -4.133454
v -0.990254 0.939650 -4.145632
v -0.989576 0.940369 -4.137458
v -1.092908 0.938455 -4.142497
v -0.989576 0.940369 -4.137458
v -1.091666 0.938951 -4.133454
v -0.930347 0.983394 -4.216032
v -0.937686 0.988745 -4.222791
v -0.937758 0.988029 -4.220581
v -0.937686 0.988745 -4.222791
v -0.930347 0.983394 -4.216032
v -0.930346 0.983340 -4.214502
vt 39.661118 -77.600006
vt 38.996609 -77.263824
vt 39.675880 -77.407028
vt 39.009739 -77.555176
vt 39.649521 -77.796196
vt 39.023499 -77.849480
vt 33.090378 -77.207115
vt 35.927601 -77.147789
vt 36.015858 -77.535240
vt 32.963760 -77.639565
vt 33.379978 -78.055916
vt 36.098148 -77.929390
vt 40.788059 -77.716316
vt 40.870720 -77.855408
vt 40.762409 -77.935410
vt 25.159479 -14.280029
vt 20.920200 -14.188499
vt 20.938019 -13.948259
vt 25.169209 -14.035089
vt 7.597419 -13.751169
vt 7.569250 -13.985610
vt 67.537941 -47.292938
vt 80.862740 -47.632980
vt 80.867905 -47.852489
vt 67.533379 -47.084499
vt 63.310387 -47.098061
vt 63.306229 -46.898678
vt 8.120692 -64.896141
vt 10.540359 -64.836128
vt 10.547660 -65.494781
vt 8.096965 -65.519821
vt 6.898722 -65.355621
vt 6.884111 -65.728020
vt 8.067955 -42.215939
vt 6.884111 -42.682098
vt 6.884118 -42.096088
vt 8.087142 -43.012890
vt 10.446859 -42.223827
vt 10.502590 -43.009338
vt 20.531719 -18.984589
vt 24.984030 -16.965370
vt 24.898329 -19.046690
vt 20.666090 -16.879910
vt 24.837059 -20.984520
vt 20.437630 -20.953619
vt 7.019419 -18.819210
vt 6.884111 -20.827570
vt 7.215668 -16.684719
vt 8.005644 -40.408379
vt 10.313690 -38.633938
vt 10.378679 -40.420399
vt 7.943007 -38.628147
vt 6.884111 -40.465179
vt 6.884132 -38.666557
vt 10.258560 -37.248520
vt 7.871961 -36.854980
vt 10.215540 -36.278641
vt 7.906436 -37.798920
vt 6.905367 -38.309547
vt 6.906525 -37.494389
vt 25.077219 -15.386499
vt 20.802900 -15.293050
vt 7.407730 -15.087870
vt 27.444170 -15.973639
vt 28.466228 -15.504979
vt 28.467409 -16.450939
vt 27.506929 -14.866300
vt 27.386610 -17.013050
vt 28.488649 -16.993420
vt 14.505890 -37.221081
vt 27.789150 -36.023701
vt 27.867208 -37.099350
vt 14.447470 -36.204491
vt 14.574380 -38.644699
vt 27.952459 -38.571148
vt 14.643570 -40.441990
vt 28.026890 -40.382328
vt 14.722230 -42.237759
vt 28.118750 -42.168568
vt 27.328178 -19.081190
vt 28.488649 -19.034639
vt 28.488649 -20.793150
vt 27.284880 -21.001640
vt 28.372160 -64.905380
vt 14.952240 -65.449821
vt 14.888909 -64.728531
vt 28.506149 -65.705841
vt 14.843579 -43.002758
vt 28.323399 -42.907650
vt 28.466228 -15.345070
vt 27.512320 -14.618529
vt 60.954937 -47.355019
vt 60.951038 -47.160507
vt 59.974590 -47.716587
vt 59.969318 -47.850948
vn 0.9990 0.0424 -0.0148
vn 0.9990 0.0406 -0.0174
vn 0.9989 0.0431 -0.0159
vn 0.9990 0.0412 -0.0180
vn 0.9998 0.0209 0.0000
vn 0.9998 0.0210 0.0000
vn 0.9998 0.0211 -0.0008
vn 0.9995 0.0321 -0.0081
vn 0.9995 0.0304 -0.0065
vn 0.9998 0.0215 -0.0005
vn 0.9998 0.0222 0.0000
vn 0.9993 0.0349 -0.0104
vn 0.0704 -0.3240 -0.9434
vn 0.0077 -0.2404 -0.9707
vn -0.0018 0.0465 -0.9989
vn 0.0921 -0.0704 -0.9933
vn -0.0013 0.1993 -0.9799
vn 0.0090 -0.1016 -0.9948
vn -0.0023 0.9392 0.3434
vn -0.0053 0.9298 0.3681
vn -0.0054 0.9296 0.3685
vn -0.0021 0.9394 0.3427
vn 0.0749 0.9434 0.3230
vn 0.0658 0.9441 0.3229
vn 0.1574 -0.9784 0.1338
vn 0.0268 -0.9930 0.1152
vn 0.0259 -0.9924 0.1202
vn 0.2042 -0.9632 0.1747
vn 0.3204 -0.8964 0.3062
vn 0.2961 -0.8693 0.3958
vn 0.1641 0.6668 0.7270
vn 0.3635 0.2332 0.9019
vn 0.2045 0.6458 0.7356
vn 0.2125 0.4323 0.8763
vn 0.0534 0.7035 0.7087
vn 0.0793 0.4346 0.8971
vn 0.0086 -0.8919 -0.4521
vn 0.0227 -0.8299 -0.5575
vn 0.0064 -0.8812 -0.4728
vn 0.0222 -0.8267 -0.5623
vn -0.0129 -0.9013 -0.4329
vn -0.0056 -0.9105 -0.4135
vn 0.0044 -0.9041 -0.4273
vn -0.0012 -0.9202 -0.3914
vn 0.0146 -0.8277 -0.5610
vn 0.0483 0.8916 0.4502
vn 0.0198 0.8767 0.4806
vn 0.0161 0.8937 0.4483
vn 0.0418 0.8916 0.4509
vn 0.0816 0.8897 0.4492
vn 0.0618 0.8979 0.4358
vn 0.0330 0.8226 0.5677
vn 0.0332 0.7925 0.6090
vn 0.0221 0.7984 0.6018
vn 0.0325 0.8349 0.5495
vn 0.0558 0.8773 0.4766
vn -0.0117 0.8034 0.5953
vn 0.0252 -0.6829 -0.7301
vn 0.0204 -0.6418 -0.7666
vn 0.0191 -0.5814 -0.8134
vn 0.9994 0.0325 -0.0098
vn 0.9995 0.0310 -0.0088
vn 0.9996 0.0285 -0.0068
vn 0.1279 -0.7240 -0.6779
vn 0.4534 -0.4194 -0.7865
vn 0.1609 -0.7662 -0.6221
vn 0.3349 -0.3578 -0.8717
vn 0.0642 -0.8321 -0.5509
vn 0.0850 -0.8158 -0.5720
vn 0.0043 0.8343 0.5513
vn -0.0012 0.8216 0.5701
vn -0.0005 0.8440 0.5364
vn 0.0028 0.8090 0.5878
vn 0.0058 0.8775 0.4796
vn 0.0002 0.8830 0.4694
vn 0.0089 0.8970 0.4419
vn 0.0019 0.9011 0.4336
vn 0.0369 0.6985 0.7147
vn 0.0191 0.6763 0.7364
vn 0.0384 -0.8745 -0.4836
vn 0.0737 -0.8706 -0.4865
vn 0.0355 -0.8899 -0.4548
vn 0.0055 -0.8942 -0.4476
vn 0.0134 -0.9984 0.0546
vn 0.0218 -0.9960 0.0871
vn 0.0224 -0.9961 0.0858
vn 0.0132 -0.9985 0.0530
vn 0.0520 0.4256 0.9034
vn 0.0299 0.4150 0.9093
vn 0.6954 0.1540 -0.7020
vn 0.3603 -0.1211 -0.9249
vn 0.2928 0.9096 0.2948
vn 0.2125 0.9274 0.3080
vn 0.5071 0.8604 0.0506
vn 0.5167 0.8556 0.0301
usemtl carbon.001
s off
f 1/1/1 2/2/1 3/3/1
f 2/2/2 1/1/2 4/4/2
f 4/4/3 1/1/3 8/5/3
f 4/4/4 8/5/4 9/6/4
f 58/7/5 59/8/5 60/9/5
f 58/7/5 60/9/5 61/10/5
f 60/9/6 63/11/6 61/10/6
f 63/11/5 60/9/5 62/12/5
s 1
f 5/13/7 1/1/8 3/3/9
f 1/1/8 5/13/7 6/14/10
f 7/15/11 1/1/8 6/14/10
f 1/1/8 7/15/11 8/5/12
f 10/16/13 11/17/14 12/18/15
f 10/16/13 12/18/15 13/19/16
f 14/20/17 12/18/15 11/17/14
f 11/17/14 15/21/18 14/20/17
f 16/22/19 17/23/20 18/24/21
f 17/23/20 16/22/19 19/25/22
f 20/26/23 19/25/22 16/22/19
f 19/25/22 20/26/23 21/27/24
f 22/28/25 23/29/26 24/30/27
f 22/28/25 24/30/27 25/31/28
f 26/32/29 22/28/25 25/31/28
f 26/32/29 25/31/28 27/33/30
f 28/34/31 29/35/32 30/36/33
f 29/35/32 28/34/31 31/37/34
f 32/38/35 31/37/34 28/34/31
f 31/37/34 32/38/35 33/39/36
f 34/40/37 35/41/38 36/42/39
f 35/41/38 34/40/37 37/43/40
f 38/44/41 34/40/37 36/42/39
f 34/40/37 38/44/41 39/45/42
f 39/45/42 40/46/43 34/40/37
f 40/46/43 39/45/42 41/47/44
f 34/40/37 42/48/45 37/43/40
f 42/48/45 34/40/37 40/46/43
f 43/49/46 44/50/47 45/51/48
f 44/50/47 43/49/46 46/52/49
f 28/34/31 45/51/48 32/38/35
f 45/51/48 28/34/31 43/49/46
f 30/36/33 43/49/46 28/34/31
f 43/49/46 30/36/33 47/53/50
f 47/53/50 46/52/49 43/49/46
f 46/52/49 47/53/50 48/54/51
f 49/55/52 50/56/53 51/57/54
f 50/56/53 49/55/52 52/58/55
f 44/50/47 52/58/55 49/55/52
f 52/58/55 44/50/47 46/52/49
f 46/52/49 53/59/56 52/58/55
f 53/59/56 46/52/49 48/54/51
f 52/58/55 54/60/57 50/56/53
f 54/60/57 52/58/55 53/59/56
f 55/61/58 11/17/14 10/16/13
f 11/17/14 55/61/58 56/62/59
f 37/43/40 55/61/58 35/41/38
f 55/61/58 37/43/40 56/62/59
f 37/43/40 57/63/60 56/62/59
f 57/63/60 37/43/40 42/48/45
f 56/62/59 15/21/18 11/17/14
f 15/21/18 56/62/59 57/63/60
f 59/8/5 2/2/61 4/4/62
f 59/8/5 4/4/62 60/9/5
f 60/9/5 4/4/62 9/6/63
f 60/9/5 9/6/63 62/12/5
f 64/64/64 65/65/65 66/66/66
f 64/64/64 67/67/67 65/65/65
f 68/68/68 66/66/66 69/69/69
f 68/68/68 64/64/64 66/66/66
f 35/41/38 64/64/64 68/68/68
f 64/64/64 35/41/38 55/61/58
f 55/61/58 67/67/67 64/64/64
f 67/67/67 55/61/58 10/16/13
f 70/70/70 71/71/71 72/72/72
f 71/71/71 70/70/70 73/73/73
f 74/74/74 72/72/72 75/75/75
f 72/72/72 74/74/74 70/70/70
f 44/50/47 70/70/70 74/74/74
f 70/70/70 44/50/47 49/55/52
f 49/55/52 73/73/73 70/70/70
f 73/73/73 49/55/52 51/57/54
f 76/76/76 75/75/75 77/77/77
f 75/75/75 76/76/76 74/74/74
f 78/78/78 77/77/77 79/79/79
f 77/77/77 78/78/78 76/76/76
f 32/38/35 76/76/76 78/78/78
f 76/76/76 32/38/35 45/51/48
f 45/51/48 74/74/74 76/76/76
f 74/74/74 45/51/48 44/50/47
f 80/80/80 69/69/69 81/81/81
f 69/69/69 80/80/80 68/68/68
f 82/82/82 80/80/80 81/81/81
f 80/80/80 82/82/82 83/83/83
f 83/83/83 36/42/39 80/80/80
f 36/42/39 83/83/83 38/44/41
f 36/42/39 68/68/68 80/80/80
f 68/68/68 36/42/39 35/41/38
f 84/84/84 85/85/85 86/86/86
f 85/85/85 84/84/84 87/87/87
f 23/29/26 86/86/86 85/85/85
f 23/29/26 85/85/85 24/30/27
f 78/78/78 33/39/36 32/38/35
f 33/39/36 78/78/78 88/88/88
f 79/79/79 88/88/88 78/78/78
f 88/88/88 79/79/79 89/89/89
f 67/67/67 90/90/90 65/65/65
f 90/90/90 67/67/67 91/91/91
f 10/16/13 91/91/91 67/67/67
f 91/91/91 10/16/13 13/19/16
f 20/26/23 92/92/92 93/93/93
f 20/26/23 93/93/93 21/27/24
f 92/92/92 94/94/94 93/93/93
f 92/92/92 95/95/95 94/94/94
