# Blender v3.1.2 OBJ File: 'car.blend'
# www.blender.org
mtllib Mesh_84.001.mtl
o Mesh_84_Mesh_84.001
v -0.430660 1.021049 0.341291
v -0.430660 1.012200 0.345709
v -0.437500 1.020557 0.340306
v -0.437500 1.011708 0.344723
v -0.424644 1.022466 0.344129
v -0.424644 1.013617 0.348546
v -0.420180 1.024636 0.348477
v -0.420180 1.015787 0.352894
v -0.417804 1.027299 0.353810
v -0.417804 1.018450 0.358227
v -0.417804 1.030132 0.359486
v -0.417804 1.021283 0.363903
v -0.420180 1.032795 0.364819
v -0.420180 1.023946 0.369236
v -0.417804 1.030132 0.359486
v -0.417804 1.021283 0.363903
v -0.424644 1.034965 0.369167
v -0.424644 1.026116 0.373584
v -0.430660 1.036382 0.372005
v -0.430660 1.027533 0.376422
v -0.437500 1.036874 0.372990
v -0.437500 1.028025 0.377408
v -0.444340 1.036382 0.372005
v -0.444340 1.027533 0.376422
v -0.450356 1.034965 0.369167
v -0.450356 1.026116 0.373584
v -0.454821 1.023946 0.369236
v -0.454821 1.032795 0.364819
v -0.457196 1.021283 0.363903
v -0.457196 1.030132 0.359486
v -0.457196 1.027299 0.353810
v -0.457196 1.018450 0.358227
v -0.454821 1.024636 0.348477
v -0.454821 1.015787 0.352894
v -0.450356 1.022466 0.344129
v -0.450356 1.013617 0.348546
v -0.444340 1.021049 0.341291
v -0.444340 1.012200 0.345709
vt 0.805556 0.000000
vt 0.805556 -1.000000
vt 0.750000 0.000000
vt 0.750000 -1.000000
vt 0.861111 0.000000
vt 0.861111 -1.000000
vt 0.916667 0.000000
vt 0.916667 -1.000000
vt 0.972222 0.000000
vt 0.972222 -1.000000
vt 1.027778 0.000000
vt 1.027778 -1.000000
vt 0.083333 0.000000
vt 0.083333 -1.000000
vt 0.027778 0.000000
vt 0.027778 -1.000000
vt 0.138889 0.000000
vt 0.138889 -1.000000
vt 0.194444 0.000000
vt 0.194444 -1.000000
vt 0.250000 0.000000
vt 0.250000 -1.000000
vt 0.305555 0.000000
vt 0.305555 -1.000000
vt 0.361111 0.000000
vt 0.361111 -1.000000
vt 0.416667 -1.000000
vt 0.416667 0.000000
vt 0.472222 -1.000000
vt 0.472222 0.000000
vt 0.527778 0.000000
vt 0.527778 -1.000000
vt 0.583333 0.000000
vt 0.583333 -1.000000
vt 0.638889 0.000000
vt 0.638889 -1.000000
vt 0.694444 0.000000
vt 0.694444 -1.000000
vn 0.3169 -0.4236 -0.8486
vn 0.0000 -0.4467 -0.8947
vn 0.0000 -0.4466 -0.8947
vn 0.6103 -0.3538 -0.7088
vn 0.6103 -0.3538 -0.7087
vn 0.8466 -0.2377 -0.4761
vn 0.9821 -0.0842 -0.1686
vn 1.0000 0.0000 0.0000
vn 0.8466 0.2377 0.4761
vn 0.9289 0.1654 0.3312
vn 0.6103 0.3538 0.7087
vn 0.3169 0.4236 0.8486
vn -0.0000 0.4466 0.8947
vn -0.0000 0.4467 0.8947
vn -0.3169 0.4236 0.8486
vn -0.6103 0.3538 0.7087
vn -0.8466 0.2377 0.4761
vn -0.9821 0.0842 0.1686
vn -0.9821 -0.0842 -0.1686
vn -0.8466 -0.2377 -0.4762
vn -0.6103 -0.3538 -0.7088
vn -0.6103 -0.3538 -0.7087
vn -0.3169 -0.4236 -0.8486
usemtl cables_red.001
s 1
f 1/1/1 2/2/1 3/3/2
f 3/3/2 2/2/1 4/4/3
f 5/5/4 6/6/5 1/1/1
f 1/1/1 6/6/5 2/2/1
f 7/7/6 6/6/5 5/5/4
f 6/6/5 7/7/6 8/8/6
f 9/9/7 8/8/6 7/7/6
f 8/8/6 9/9/7 10/10/7
f 11/11/8 10/10/7 9/9/7
f 10/10/7 11/11/8 12/12/8
f 13/13/9 14/14/9 15/15/10
f 16/16/10 15/15/10 14/14/9
f 17/17/11 18/18/11 13/13/9
f 14/14/9 13/13/9 18/18/11
f 19/19/12 20/20/12 17/17/11
f 17/17/11 20/20/12 18/18/11
f 21/21/13 22/22/14 19/19/12
f 19/19/12 22/22/14 20/20/12
f 23/23/15 22/22/14 21/21/13
f 22/22/14 23/23/15 24/24/15
f 25/25/16 24/24/15 23/23/15
f 24/24/15 25/25/16 26/26/16
f 27/27/17 25/25/16 28/28/17
f 25/25/16 27/27/17 26/26/16
f 29/29/18 28/28/17 30/30/18
f 28/28/17 29/29/18 27/27/17
f 31/31/19 29/29/18 30/30/18
f 29/29/18 31/31/19 32/32/19
f 33/33/20 32/32/19 31/31/19
f 32/32/19 33/33/20 34/34/20
f 35/35/21 34/34/20 33/33/20
f 34/34/20 35/35/21 36/36/22
f 37/37/23 36/36/22 35/35/21
f 36/36/22 37/37/23 38/38/23
f 3/3/2 38/38/23 37/37/23
f 38/38/23 3/3/2 4/4/3
