# Blender v3.1.2 OBJ File: 'car.blend'
# www.blender.org
mtllib Mesh_248.001.mtl
o Mesh_244_Mesh_248.001
v -0.016453 1.717718 0.758676
v 0.016453 1.687192 0.771197
v -0.016453 1.687192 0.771197
v 0.016453 1.717718 0.758676
v 0.016453 1.717718 0.758676
v 0.016453 1.687748 0.772552
v 0.016453 1.687192 0.771197
v 0.016453 1.718274 0.760032
v 0.016453 1.717718 0.758676
v -0.016453 1.717718 0.758676
v -0.016453 1.718274 0.760032
v 0.016453 1.718274 0.760032
v -0.016453 1.687748 0.772552
v -0.016453 1.718274 0.760032
v -0.016453 1.717718 0.758676
v -0.016453 1.687192 0.771197
v -0.016453 1.687748 0.772552
v 0.016453 1.687192 0.771197
v 0.016453 1.687748 0.772552
v -0.016453 1.687192 0.771197
vt 0.477049 -0.680580
vt 0.356406 -0.559612
vt 0.477049 -0.559612
vt 0.356406 -0.680580
vt 0.356406 -0.680580
vt 0.356406 -0.559612
vt 0.356406 -0.559612
vt 0.356406 -0.680580
vt 0.356406 -0.680580
vt 0.477049 -0.680580
vt 0.477049 -0.680580
vt 0.356406 -0.680580
vt 0.477049 -0.559612
vt 0.477049 -0.680580
vt 0.477049 -0.680580
vt 0.477049 -0.559612
vt 0.477049 -0.559612
vt 0.356406 -0.559612
vt 0.356406 -0.559612
vt 0.477049 -0.559612
vn 0.0000 -0.3795 -0.9252
vn 1.0000 0.0000 0.0000
vn 0.0000 0.9252 -0.3795
vn 0.0000 0.9251 -0.3796
vn -1.0000 -0.0000 0.0000
vn -0.0000 -0.9251 0.3796
vn 0.0000 -0.9252 0.3795
usemtl gp21_cockpit_details.001
s off
f 1/1/1 2/2/1 3/3/1
f 2/2/1 1/1/1 4/4/1
f 5/5/2 6/6/2 7/7/2
f 6/6/2 5/5/2 8/8/2
f 9/9/3 10/10/3 11/11/3
f 9/9/4 11/11/4 12/12/4
f 13/13/5 14/14/5 15/15/5
f 15/15/5 16/16/5 13/13/5
f 17/17/6 18/18/6 19/19/6
f 18/18/7 17/17/7 20/20/7
