# Blender v3.1.2 OBJ File: 'car.blend'
# www.blender.org
mtllib Mesh_85.001.mtl
o Mesh_85_Mesh_85.001
v -0.444340 1.036382 0.372005
v -0.437500 1.020557 0.340306
v -0.444340 1.021049 0.341291
v -0.424644 1.034965 0.369167
v -0.430660 1.021049 0.341291
v -0.430660 1.036382 0.372005
v -0.424644 1.022466 0.344129
v -0.454821 1.032795 0.364819
v -0.450356 1.022466 0.344129
v -0.454821 1.024636 0.348477
v -0.437500 1.036874 0.372990
v -0.450356 1.034965 0.369167
v -0.457196 1.030132 0.359486
v -0.457196 1.027299 0.353810
v -0.420180 1.024636 0.348477
v -0.420180 1.032795 0.364819
v -0.417804 1.030132 0.359486
v -0.417804 1.027299 0.353810
vt 0.671010 -0.030154
vt 0.500000 -1.000000
vt 0.671010 -0.969846
vt 0.178606 -0.116978
vt 0.328990 -0.969846
vt 0.328990 -0.030154
vt 0.178606 -0.883022
vt 0.933013 -0.250000
vt 0.821394 -0.883022
vt 0.933013 -0.750000
vt 0.500000 0.000000
vt 0.821394 -0.116978
vt 0.992404 -0.413176
vt 0.992404 -0.586824
vt 0.066987 -0.750000
vt 0.066987 -0.250000
vt 0.007596 -0.413176
vt 0.007596 -0.586824
vn -0.0000 0.8947 -0.4467
vn -0.0000 0.8947 -0.4466
vn -0.0001 0.8947 -0.4467
vn 0.0003 0.8947 -0.4466
vn 0.0001 0.8947 -0.4466
vn 0.0001 0.8947 -0.4467
vn -0.0003 0.8947 -0.4466
usemtl cables_red.001
s off
f 1/1/1 2/2/1 3/3/1
f 4/4/1 5/5/1 6/6/1
f 5/5/2 4/4/2 7/7/2
f 8/8/3 9/9/3 10/10/3
f 2/2/1 1/1/1 11/11/1
f 1/1/1 3/3/1 12/12/1
f 9/9/2 12/12/2 3/3/2
f 10/10/3 13/13/3 8/8/3
f 13/13/4 10/10/4 14/14/4
f 12/12/5 9/9/5 8/8/5
f 6/6/1 5/5/1 11/11/1
f 4/4/6 15/15/6 7/7/6
f 15/15/3 4/4/3 16/16/3
f 17/17/6 15/15/6 16/16/6
f 15/15/7 17/17/7 18/18/7
f 2/2/1 11/11/1 5/5/1
