# Blender v3.1.2 OBJ File: 'car.blend'
# www.blender.org
mtllib Mesh_149.001.mtl
o Mesh_149_Mesh_149.001
v -0.319203 1.042495 3.192505
v -0.317497 1.059257 3.202988
v -0.318103 1.062070 3.192505
v -0.317369 1.051571 3.210661
v -0.317753 1.041071 3.213470
v -0.324747 1.047942 3.112305
v -0.318103 1.062070 3.192505
v -0.323957 1.062001 3.112305
v -0.319203 1.042495 3.192505
v -0.324535 1.060237 3.105733
v -0.324747 1.047942 3.112305
v -0.323957 1.062001 3.112305
v -0.325157 1.055418 3.100921
v -0.325655 1.048834 3.099160
v -0.328440 0.982186 3.112305
v -0.324747 1.047942 3.112305
v -0.325655 1.048834 3.099160
v -0.329452 0.981238 3.099160
v -0.319203 1.042495 3.192505
v -0.324747 1.047942 3.112305
v -0.322265 0.987968 3.192505
v -0.328440 0.982186 3.112305
v -0.320651 0.989479 3.213470
v -0.317753 1.041071 3.213470
v -0.319203 1.042495 3.192505
v -0.322265 0.987968 3.192505
v -0.329613 0.969836 3.105733
v -0.328440 0.982186 3.112305
v -0.329693 0.974655 3.100921
v -0.329452 0.981238 3.099160
v -0.329233 0.968072 3.112305
v -0.329233 0.968072 3.112305
v -0.323360 0.968480 3.192505
v -0.328440 0.982186 3.112305
v -0.322265 0.987968 3.192505
v -0.321446 0.978980 3.210661
v -0.322265 0.987968 3.192505
v -0.322437 0.971294 3.202988
v -0.323360 0.968480 3.192505
v -0.320651 0.989479 3.213470
v 0.317497 1.059257 3.202988
v 0.319203 1.042495 3.192505
v 0.318103 1.062070 3.192505
v 0.317369 1.051571 3.210661
v 0.317753 1.041071 3.213470
v 0.319203 1.042495 3.192505
v 0.324747 1.047942 3.112305
v 0.318103 1.062070 3.192505
v 0.323957 1.062001 3.112305
v 0.324747 1.047942 3.112305
v 0.324535 1.060237 3.105733
v 0.323957 1.062001 3.112305
v 0.325157 1.055418 3.100921
v 0.325655 1.048834 3.099160
v 0.328440 0.982186 3.112305
v 0.325655 1.048834 3.099160
v 0.324747 1.047942 3.112305
v 0.329452 0.981238 3.099160
v 0.322265 0.987968 3.192505
v 0.324747 1.047942 3.112305
v 0.319203 1.042495 3.192505
v 0.328440 0.982186 3.112305
v 0.320651 0.989479 3.213470
v 0.319203 1.042495 3.192505
v 0.317753 1.041071 3.213470
v 0.322265 0.987968 3.192505
v 0.328440 0.982186 3.112305
v 0.329693 0.974655 3.100921
v 0.329452 0.981238 3.099160
v 0.329613 0.969836 3.105733
v 0.329233 0.968072 3.112305
v 0.328440 0.982186 3.112305
v 0.322265 0.987968 3.192505
v 0.323360 0.968480 3.192505
v 0.329233 0.968072 3.112305
v 0.322437 0.971294 3.202988
v 0.322265 0.987968 3.192505
v 0.321446 0.978980 3.210661
v 0.323360 0.968480 3.192505
v 0.320651 0.989479 3.213470
vt -367.221802 -47.252407
vt -367.145477 -46.661098
vt -366.847290 -46.796021
vt -367.471405 -46.693409
vt -367.737793 -46.884449
vt -365.247894 -48.659927
vt -366.847290 -46.796021
vt -364.978882 -48.332199
vt -367.221802 -47.252407
vt -364.859406 -48.499088
vt -365.247894 -48.659927
vt -364.978882 -48.332199
vt -364.839478 -48.703510
vt -364.924377 -48.890659
vt -366.506104 -50.192898
vt -365.247894 -48.659927
vt -364.924377 -48.890659
vt -366.217804 -50.466518
vt -367.221802 -47.252407
vt -365.247894 -48.659927
vt -368.265076 -48.523560
vt -366.506104 -50.192898
vt -368.725006 -48.087189
vt -367.737793 -46.884449
vt -367.221802 -47.252407
vt -368.265076 -48.523560
vt -366.589203 -50.606590
vt -366.506104 -50.192898
vt -366.384796 -50.586319
vt -366.217804 -50.466518
vt -366.776184 -50.521988
vt -366.776184 -50.521988
vt -368.638031 -48.977879
vt -366.506104 -50.192898
vt -368.265076 -48.523560
vt -368.860382 -48.385738
vt -368.265076 -48.523560
vt -368.828583 -48.711750
vt -368.638031 -48.977879
vt -368.725006 -48.087189
vt 98.233170 242.600891
vt 97.668060 242.410690
vt 98.042610 242.867004
vt 98.264977 242.274887
vt 98.129547 241.976395
vt 97.668060 242.410690
vt 95.902580 244.072189
vt 98.042610 242.867004
vt 96.171585 244.400009
vt 95.902580 244.072189
vt 95.984619 244.484589
vt 96.171585 244.400009
vt 95.780235 244.464294
vt 95.613220 244.344498
vt 94.644409 242.539291
vt 95.613220 244.344498
vt 95.902580 244.072189
vt 94.319839 242.768692
vt 96.624741 241.139496
vt 95.902580 244.072189
vt 97.668060 242.410690
vt 94.644409 242.539291
vt 97.142410 240.773590
vt 97.668060 242.410690
vt 98.129547 241.976395
vt 96.624741 241.139496
vt 94.644409 242.539291
vt 94.234924 242.581497
vt 94.319839 242.768692
vt 94.254868 242.377090
vt 94.374329 242.210190
vt 94.644409 242.539291
vt 96.624741 241.139496
vt 96.251854 240.685196
vt 94.374329 242.210190
vt 96.550064 240.550201
vt 96.624741 241.139496
vt 96.876007 240.582596
vt 96.251854 240.685196
vt 97.142410 240.773590
vn -0.9958 0.0559 0.0726
vn 0.9958 0.0559 0.0726
vn 0.9958 0.0560 0.0726
usemtl carbon.001
s off
f 1/1/1 2/2/1 3/3/1
f 4/4/1 1/1/1 5/5/1
f 2/2/1 1/1/1 4/4/1
f 6/6/1 7/7/1 8/8/1
f 7/7/1 6/6/1 9/9/1
f 10/10/1 11/11/1 12/12/1
f 11/11/1 13/13/1 14/14/1
f 11/11/1 10/10/1 13/13/1
f 15/15/1 16/16/1 17/17/1
f 17/17/1 18/18/1 15/15/1
f 19/19/1 20/20/1 21/21/1
f 20/20/1 22/22/1 21/21/1
f 23/23/1 24/24/1 25/25/1
f 25/25/1 26/26/1 23/23/1
f 27/27/1 28/28/1 29/29/1
f 29/29/1 28/28/1 30/30/1
f 28/28/1 27/27/1 31/31/1
f 32/32/1 33/33/1 34/34/1
f 35/35/1 34/34/1 33/33/1
f 36/36/1 37/37/1 38/38/1
f 37/37/1 39/39/1 38/38/1
f 40/40/1 37/37/1 36/36/1
f 41/41/2 42/42/2 43/43/2
f 42/42/2 44/44/2 45/45/2
f 44/44/2 42/42/2 41/41/2
f 46/46/2 47/47/2 48/48/2
f 49/49/2 48/48/2 47/47/2
f 50/50/2 51/51/2 52/52/2
f 53/53/2 50/50/2 54/54/2
f 51/51/2 50/50/2 53/53/2
f 55/55/2 56/56/2 57/57/2
f 56/56/2 55/55/2 58/58/2
f 59/59/2 60/60/2 61/61/2
f 60/60/2 59/59/2 62/62/2
f 63/63/2 64/64/2 65/65/2
f 64/64/2 63/63/2 66/66/2
f 67/67/2 68/68/2 69/69/2
f 70/70/2 67/67/2 71/71/2
f 68/68/3 67/67/3 70/70/3
f 72/72/2 73/73/2 74/74/2
f 72/72/2 74/74/2 75/75/2
f 76/76/2 77/77/2 78/78/2
f 77/77/2 76/76/2 79/79/2
f 77/77/2 80/80/2 78/78/2
