# Blender v3.1.2 OBJ File: 'car.blend'
# www.blender.org
mtllib Mesh_29.001.mtl
o Mesh_29_Mesh_29.001
v 1.090282 0.697406 3.257900
v 1.159231 0.727290 3.257849
v 1.072446 0.854465 3.257627
v 1.161965 0.691358 3.257907
v 1.113143 0.868370 3.257624
v 1.039165 0.754302 3.257867
v 1.044971 0.837845 3.257655
v 1.034799 0.806733 3.257736
v 1.050067 0.722727 3.257863
v 1.056876 0.714207 3.257864
v 1.073076 0.701932 3.257878
v 1.081575 0.698647 3.257890
v 1.057576 0.848988 3.257628
v 1.050866 0.844023 3.257639
v 1.064738 0.852497 3.257625
v 1.040216 0.830760 3.257676
v 1.036846 0.823105 3.257699
v 1.035013 0.815210 3.257721
v 1.040994 0.742808 3.257872
v 1.044669 0.732393 3.257866
v 1.064694 0.707183 3.257869
v 1.153351 0.804957 3.257736
v 1.129538 0.876944 3.257621
v 1.146164 0.892439 3.257614
vt 66.677200 44.982609
vt 67.830856 41.701771
vt 73.986069 45.291378
vt 66.163200 41.693298
vt 74.494621 43.367138
vt 69.471207 47.155910
vt 73.308838 46.614159
vt 71.905899 47.185707
vt 67.977875 46.756100
vt 67.562271 46.469700
vt 66.942520 45.762058
vt 66.763062 45.380478
vt 73.781937 45.995800
vt 73.574715 46.321819
vt 73.920448 45.653648
vt 72.997368 46.856911
vt 72.654968 47.037540
vt 72.296585 47.148029
vt 68.934631 47.109150
vt 68.441788 46.973618
vt 67.212395 46.131790
vt 71.435509 41.718727
vt 74.836700 42.582211
vt 75.497520 41.763920
vn -0.0000 0.0017 1.0000
vn 0.0000 0.0016 1.0000
vn -0.0004 0.0015 1.0000
vn 0.0015 0.0019 1.0000
vn -0.0007 0.0028 1.0000
vn -0.0017 -0.0013 1.0000
vn -0.0010 0.0010 1.0000
vn -0.0014 0.0042 1.0000
vn -0.0010 0.0028 1.0000
vn -0.0012 0.0038 1.0000
vn 0.0010 0.0023 1.0000
vn 0.0026 0.0020 1.0000
vn 0.0051 0.0016 1.0000
vn -0.0003 0.0025 1.0000
vn -0.0002 0.0004 1.0000
vn -0.0016 -0.0012 1.0000
vn -0.0017 -0.0012 1.0000
vn -0.0017 -0.0011 1.0000
vn -0.0014 -0.0005 1.0000
vn -0.0006 0.0014 1.0000
vn -0.0008 0.0013 1.0000
usemtl BLACK.001
s off
f 1/1/1 2/2/1 3/3/1
f 2/2/2 1/1/2 4/4/2
f 3/3/3 2/2/3 5/5/3
f 3/3/4 6/6/4 1/1/4
f 3/3/5 7/7/5 8/8/5
f 1/1/6 9/9/6 10/10/6
f 1/1/7 11/11/7 12/12/7
f 3/3/8 13/13/8 14/14/8
f 13/13/9 3/3/9 15/15/9
f 7/7/10 3/3/10 14/14/10
f 8/8/11 7/7/11 16/16/11
f 8/8/12 16/16/12 17/17/12
f 8/8/13 17/17/13 18/18/13
f 6/6/14 3/3/14 8/8/14
f 19/19/15 1/1/15 6/6/15
f 20/20/16 1/1/16 19/19/16
f 9/9/17 1/1/17 20/20/17
f 21/21/18 1/1/18 10/10/18
f 11/11/19 1/1/19 21/21/19
f 5/5/20 2/2/20 22/22/20
f 5/5/20 22/22/20 23/23/20
f 22/22/21 24/24/21 23/23/21
