# Blender v3.1.2 OBJ File: 'car.blend'
# www.blender.org
mtllib Mesh_64.001.mtl
o Mesh_64_Mesh_64.001
v 0.033880 0.397835 5.145128
v 0.017178 0.397732 5.145091
v 0.017178 0.368719 5.100856
v 0.033880 0.368835 5.100910
v 0.000040 0.397687 5.145074
v 0.000040 0.368669 5.100833
v -0.017098 0.397732 5.145091
v -0.017098 0.368719 5.100856
v -0.033801 0.397835 5.145128
v -0.033801 0.368834 5.100910
vt 0.957503 -0.174169
vt 0.960012 -0.174184
vt 0.960012 -0.178543
vt 0.957503 -0.178525
vt 0.962587 -0.174191
vt 0.962587 -0.178550
vt 0.965161 -0.174184
vt 0.965161 -0.178543
vt 0.967671 -0.174169
vt 0.967671 -0.178525
vn 0.0040 -0.8362 0.5484
vn 0.0016 -0.8362 0.5485
vn 0.0017 -0.8362 0.5484
vn -0.0016 -0.8362 0.5484
vn -0.0017 -0.8362 0.5485
vn -0.0040 -0.8362 0.5484
usemtl BLACK.001
s off
f 1/1/1 2/2/1 3/3/1
f 3/3/1 4/4/1 1/1/1
f 2/2/2 5/5/2 6/6/2
f 6/6/3 3/3/3 2/2/3
f 5/5/4 7/7/4 8/8/4
f 8/8/5 6/6/5 5/5/5
f 7/7/6 9/9/6 10/10/6
f 10/10/6 8/8/6 7/7/6
