# Blender v3.1.2 OBJ File: 'car.blend'
# www.blender.org
mtllib Mesh_90.001.mtl
o Mesh_90_Mesh_90.001
v -0.429769 1.022159 0.338915
v -0.442383 1.015500 0.340892
v -0.442383 1.022159 0.338915
v -0.429769 1.015500 0.340892
v -0.429769 1.029092 0.339336
v -0.442383 1.029092 0.339336
v -0.442383 1.035463 0.342102
v -0.429769 1.035463 0.342102
v -0.429769 1.040504 0.346881
v -0.442383 1.040504 0.346881
v -0.442383 1.043606 0.353096
v -0.429769 1.043606 0.353096
v -0.442383 1.044396 0.359996
v -0.429769 1.043606 0.353096
v -0.442383 1.043606 0.353096
v -0.429769 1.044396 0.359996
v -0.442383 1.042778 0.366751
v -0.429769 1.042778 0.366751
v -0.442383 1.038948 0.372545
v -0.429769 1.038948 0.372545
v -0.442383 1.033366 0.376680
v -0.429769 1.033366 0.376680
v -0.442383 1.026707 0.378656
v -0.429769 1.026707 0.378656
v -0.442383 1.019774 0.378236
v -0.429769 1.019774 0.378236
v -0.442383 1.013403 0.375469
v -0.429769 1.013403 0.375469
v -0.442383 1.008362 0.370690
v -0.429769 1.008362 0.370690
v -0.442383 1.005259 0.364476
v -0.429769 1.005259 0.364476
v -0.442383 1.004470 0.357575
v -0.429769 1.004470 0.357575
v -0.442383 1.006088 0.350820
v -0.429769 1.006088 0.350820
v -0.442383 1.009918 0.345026
v -0.429769 1.009918 0.345026
vt 0.805556 -1.000000
vt 0.750000 0.000000
vt 0.805556 0.000000
vt 0.750000 -1.000000
vt 0.861111 -1.000000
vt 0.861111 0.000000
vt 0.916667 0.000000
vt 0.916667 -1.000000
vt 0.972222 -1.000000
vt 0.972222 0.000000
vt 1.027778 0.000000
vt 1.027778 -1.000000
vt 0.083333 0.000000
vt 0.027778 -1.000000
vt 0.027778 0.000000
vt 0.083333 -1.000000
vt 0.138889 0.000000
vt 0.138889 -1.000000
vt 0.194444 0.000000
vt 0.194444 -1.000000
vt 0.250000 0.000000
vt 0.250000 -1.000000
vt 0.305555 0.000000
vt 0.305555 -1.000000
vt 0.361111 0.000000
vt 0.361111 -1.000000
vt 0.416667 0.000000
vt 0.416667 -1.000000
vt 0.472222 0.000000
vt 0.472222 -1.000000
vt 0.527778 0.000000
vt 0.527778 -1.000000
vt 0.583333 0.000000
vt 0.583333 -1.000000
vt 0.638889 0.000000
vt 0.638889 -1.000000
vt 0.694444 0.000000
vt 0.694444 -1.000000
vn 0.0000 -0.1137 -0.9935
vn 0.0000 -0.4466 -0.8947
vn 0.0000 0.2330 -0.9725
vn 0.0000 0.5515 -0.8342
vn 0.0000 0.8036 -0.5952
vn 0.0000 0.8947 -0.4466
vn 0.0000 0.9982 0.0605
vn 0.0000 0.9935 -0.1137
vn 0.0000 0.9935 -0.1138
vn 0.0000 0.9173 0.3982
vn 0.0000 0.7257 0.6880
vn 0.0000 0.4466 0.8947
vn 0.0000 0.1137 0.9935
vn 0.0000 -0.2330 0.9725
vn 0.0000 -0.5515 0.8342
vn 0.0000 -0.8035 0.5953
vn 0.0000 -0.9587 0.2845
vn 0.0000 -0.9982 -0.0606
vn 0.0000 -0.9173 -0.3982
vn 0.0000 -0.7257 -0.6880
usemtl chrome.001
s 1
f 1/1/1 2/2/2 3/3/1
f 2/2/2 1/1/1 4/4/2
f 5/5/3 3/3/1 6/6/3
f 3/3/1 5/5/3 1/1/1
f 7/7/4 5/5/3 6/6/3
f 5/5/3 7/7/4 8/8/4
f 9/9/5 7/7/4 10/10/5
f 7/7/4 9/9/5 8/8/4
f 11/11/6 12/12/6 10/10/5
f 9/9/5 10/10/5 12/12/6
f 13/13/7 14/14/8 15/15/9
f 14/14/8 13/13/7 16/16/7
f 17/17/10 18/18/10 13/13/7
f 16/16/7 13/13/7 18/18/10
f 19/19/11 20/20/11 17/17/10
f 18/18/10 17/17/10 20/20/11
f 21/21/12 20/20/11 19/19/11
f 20/20/11 21/21/12 22/22/12
f 23/23/13 24/24/13 21/21/12
f 22/22/12 21/21/12 24/24/13
f 25/25/14 24/24/13 23/23/13
f 24/24/13 25/25/14 26/26/14
f 27/27/15 26/26/14 25/25/14
f 26/26/14 27/27/15 28/28/15
f 29/29/16 30/30/16 27/27/15
f 28/28/15 27/27/15 30/30/16
f 31/31/17 30/30/16 29/29/16
f 30/30/16 31/31/17 32/32/17
f 33/33/18 32/32/17 31/31/17
f 32/32/17 33/33/18 34/34/18
f 35/35/19 36/36/19 33/33/18
f 34/34/18 33/33/18 36/36/19
f 37/37/20 38/38/20 35/35/19
f 36/36/19 35/35/19 38/38/20
f 4/4/2 37/37/20 2/2/2
f 37/37/20 4/4/2 38/38/20
