# Blender v3.1.2 OBJ File: 'car.blend'
# www.blender.org
mtllib Mesh_94.001.mtl
o Mesh_94_Mesh_94.001
v -0.285229 1.165335 -0.463823
v -0.210000 1.161308 -0.463175
v -0.210000 1.165335 -0.463823
v -0.285229 1.161308 -0.463175
v -0.285229 1.170060 -0.466072
v -0.210000 1.170060 -0.466072
v -0.285229 1.175641 -0.470305
v -0.210000 1.175641 -0.470305
v -0.285229 1.178651 -0.479171
v -0.210000 1.178651 -0.479171
v -0.285229 1.185836 -0.481824
v -0.210000 1.185836 -0.481824
v -0.210000 1.186428 -0.487683
v -0.285229 1.186427 -0.487683
v -0.210000 1.177999 -0.494412
v -0.285229 1.177999 -0.494412
v -0.210000 1.186428 -0.487683
v -0.285229 1.186427 -0.487683
v -0.210000 1.176685 -0.516146
v -0.285229 1.176685 -0.516146
v -0.210000 1.172493 -0.518792
v -0.285229 1.172493 -0.518792
v -0.210000 1.168378 -0.517528
v -0.285229 1.168378 -0.517528
v -0.210000 1.164480 -0.519147
v -0.285229 1.164480 -0.519147
v -0.210000 1.160575 -0.517447
v -0.285229 1.160575 -0.517447
v -0.210000 1.156704 -0.512586
v -0.285229 1.156704 -0.512586
v -0.285229 1.157532 -0.463742
v -0.210000 1.154036 -0.465499
v -0.210000 1.157532 -0.463742
v -0.285229 1.154036 -0.465499
v -0.285229 1.186427 -0.487683
v -0.285229 1.177999 -0.494412
v -0.285229 1.178651 -0.479171
v -0.285229 1.185836 -0.481824
v -0.292400 1.165335 -0.463823
v -0.292400 1.161308 -0.463175
v -0.292400 1.170060 -0.466072
v -0.292400 1.175641 -0.470305
v -0.292400 1.178651 -0.479171
v -0.292400 1.177999 -0.494412
v -0.292400 1.176685 -0.516146
v -0.292400 1.172493 -0.518792
v -0.292400 1.168378 -0.517528
v -0.292400 1.164480 -0.519147
v -0.292400 1.160575 -0.517447
v -0.292400 1.156704 -0.512586
v -0.292400 1.157532 -0.463742
v -0.292400 1.154036 -0.465499
v -0.292400 1.161308 -0.463175
v -0.292400 1.156704 -0.512586
v -0.292400 1.157532 -0.463742
v -0.292400 1.160575 -0.517447
v -0.292400 1.168378 -0.517528
v -0.292400 1.175641 -0.470305
v -0.292400 1.172493 -0.518792
v -0.292400 1.170060 -0.466072
v -0.292400 1.177999 -0.494412
v -0.292400 1.175641 -0.470305
v -0.292400 1.178651 -0.479171
v -0.292400 1.172493 -0.518792
v -0.292400 1.176685 -0.516146
v -0.292400 1.160575 -0.517447
v -0.292400 1.170060 -0.466072
v -0.292400 1.168378 -0.517528
v -0.292400 1.161308 -0.463175
v -0.292400 1.165335 -0.463823
v -0.292400 1.164480 -0.519147
v -0.134771 1.165335 -0.463823
v -0.134771 1.161308 -0.463175
v -0.134771 1.170060 -0.466072
v -0.134771 1.175641 -0.470305
v -0.134771 1.178651 -0.479171
v -0.134771 1.185836 -0.481824
v -0.134771 1.186428 -0.487683
v -0.134771 1.186428 -0.487683
v -0.134771 1.177999 -0.494412
v -0.134771 1.176685 -0.516146
v -0.134771 1.172493 -0.518792
v -0.134771 1.168378 -0.517528
v -0.134771 1.164480 -0.519147
v -0.134771 1.160575 -0.517447
v -0.134771 1.156704 -0.512586
v -0.134771 1.157532 -0.463742
v -0.134771 1.154036 -0.465499
v -0.134771 1.178651 -0.479171
v -0.134771 1.186428 -0.487683
v -0.134771 1.185836 -0.481824
v -0.134771 1.177999 -0.494412
v -0.127600 1.165335 -0.463823
v -0.127600 1.161308 -0.463175
v -0.127600 1.170060 -0.466072
v -0.127600 1.175641 -0.470305
v -0.127600 1.178651 -0.479171
v -0.127600 1.177999 -0.494412
v -0.127600 1.176685 -0.516146
v -0.127600 1.172493 -0.518792
v -0.127600 1.168378 -0.517528
v -0.127600 1.164480 -0.519147
v -0.127600 1.160575 -0.517447
v -0.127600 1.156704 -0.512586
v -0.127600 1.157532 -0.463742
v -0.127600 1.154036 -0.465499
v -0.127600 1.161308 -0.463175
v -0.127600 1.156704 -0.512586
v -0.127600 1.160575 -0.517447
v -0.127600 1.157532 -0.463742
v -0.127600 1.175641 -0.470305
v -0.127600 1.168378 -0.517528
v -0.127600 1.172493 -0.518792
v -0.127600 1.170060 -0.466072
v -0.127600 1.175641 -0.470305
v -0.127600 1.177999 -0.494412
v -0.127600 1.178651 -0.479171
v -0.127600 1.172493 -0.518792
v -0.127600 1.176685 -0.516146
v -0.127600 1.161308 -0.463175
v -0.127600 1.160575 -0.517447
v -0.127600 1.170060 -0.466072
v -0.127600 1.165335 -0.463823
v -0.127600 1.168378 -0.517528
v -0.127600 1.164480 -0.519147
v 0.285229 1.165335 -0.463823
v 0.210000 1.165335 -0.463823
v 0.210000 1.161308 -0.463175
v 0.285229 1.161308 -0.463175
v 0.210000 1.170060 -0.466072
v 0.285229 1.170060 -0.466072
v 0.210000 1.175641 -0.470305
v 0.285229 1.175641 -0.470305
v 0.285229 1.178651 -0.479171
v 0.210000 1.178651 -0.479171
v 0.210000 1.185836 -0.481824
v 0.285229 1.185836 -0.481824
v 0.285229 1.186428 -0.487683
v 0.210000 1.186428 -0.487683
v 0.210000 1.186428 -0.487683
v 0.285229 1.186428 -0.487683
v 0.285229 1.177999 -0.494412
v 0.210000 1.177999 -0.494412
v 0.210000 1.176685 -0.516146
v 0.285229 1.176685 -0.516146
v 0.285229 1.172493 -0.518792
v 0.210000 1.172493 -0.518792
v 0.285229 1.168379 -0.517528
v 0.210000 1.168379 -0.517528
v 0.285229 1.164480 -0.519147
v 0.210000 1.164480 -0.519147
v 0.285229 1.160575 -0.517447
v 0.210000 1.160575 -0.517447
v 0.210000 1.156704 -0.512586
v 0.285229 1.156704 -0.512586
v 0.210000 1.157532 -0.463742
v 0.285229 1.154036 -0.465499
v 0.285229 1.157532 -0.463742
v 0.210000 1.154036 -0.465499
v 0.285229 1.178651 -0.479171
v 0.285229 1.186428 -0.487683
v 0.285229 1.185836 -0.481824
v 0.285229 1.177999 -0.494412
v 0.292400 1.165335 -0.463823
v 0.292400 1.161308 -0.463175
v 0.292400 1.170060 -0.466072
v 0.292400 1.175641 -0.470305
v 0.292400 1.178651 -0.479171
v 0.292400 1.177999 -0.494412
v 0.292400 1.176685 -0.516146
v 0.292400 1.172493 -0.518792
v 0.292400 1.168379 -0.517528
v 0.292400 1.164480 -0.519147
v 0.292400 1.160575 -0.517447
v 0.292400 1.156704 -0.512586
v 0.292400 1.154036 -0.465499
v 0.292400 1.157532 -0.463742
v 0.292400 1.161308 -0.463175
v 0.292400 1.156704 -0.512586
v 0.292400 1.160575 -0.517447
v 0.292400 1.157532 -0.463742
v 0.292400 1.175641 -0.470305
v 0.292400 1.168379 -0.517528
v 0.292400 1.172493 -0.518792
v 0.292400 1.170060 -0.466072
v 0.292400 1.175641 -0.470305
v 0.292400 1.177999 -0.494412
v 0.292400 1.178651 -0.479171
v 0.292400 1.172493 -0.518792
v 0.292400 1.176685 -0.516146
v 0.292400 1.161308 -0.463175
v 0.292400 1.160575 -0.517447
v 0.292400 1.170060 -0.466072
v 0.292400 1.165335 -0.463823
v 0.292400 1.164480 -0.519147
v 0.134771 1.165335 -0.463823
v 0.134771 1.161308 -0.463175
v 0.134771 1.170060 -0.466072
v 0.134771 1.175641 -0.470305
v 0.134771 1.178651 -0.479171
v 0.134771 1.185836 -0.481824
v 0.134771 1.186428 -0.487683
v 0.134771 1.186428 -0.487683
v 0.134771 1.177999 -0.494412
v 0.134771 1.176685 -0.516146
v 0.134771 1.172493 -0.518792
v 0.134771 1.168379 -0.517528
v 0.134771 1.164480 -0.519147
v 0.134771 1.160575 -0.517447
v 0.134771 1.156704 -0.512586
v 0.134771 1.157532 -0.463742
v 0.134771 1.154036 -0.465499
v 0.134771 1.186428 -0.487683
v 0.134771 1.177999 -0.494412
v 0.134771 1.178651 -0.479171
v 0.134771 1.185836 -0.481824
v 0.127600 1.165335 -0.463823
v 0.127600 1.161308 -0.463175
v 0.127600 1.170060 -0.466072
v 0.127600 1.175641 -0.470305
v 0.127600 1.178651 -0.479171
v 0.127600 1.177999 -0.494412
v 0.127600 1.176685 -0.516146
v 0.127600 1.172493 -0.518792
v 0.127600 1.168379 -0.517528
v 0.127600 1.164480 -0.519147
v 0.127600 1.160575 -0.517447
v 0.127600 1.156704 -0.512586
v 0.127600 1.157532 -0.463742
v 0.127600 1.154036 -0.465499
v 0.127600 1.161308 -0.463175
v 0.127600 1.156704 -0.512586
v 0.127600 1.157532 -0.463742
v 0.127600 1.160575 -0.517447
v 0.127600 1.168379 -0.517528
v 0.127600 1.175641 -0.470305
v 0.127600 1.172493 -0.518792
v 0.127600 1.170060 -0.466072
v 0.127600 1.177999 -0.494412
v 0.127600 1.175641 -0.470305
v 0.127600 1.178651 -0.479171
v 0.127600 1.172493 -0.518792
v 0.127600 1.176685 -0.516146
v 0.127600 1.160575 -0.517447
v 0.127600 1.170060 -0.466072
v 0.127600 1.168379 -0.517528
v 0.127600 1.161308 -0.463175
v 0.127600 1.165335 -0.463823
v 0.127600 1.164480 -0.519147
vt 0.022727 -1.000000
vt 0.068182 -1.000000
vt 0.931818 -1.000000
vt 0.977273 -1.000000
vt 1.022727 0.000000
vt 0.250000 -1.000000
vt 0.340909 -1.000000
vt 0.204545 -1.000000
vt 0.068182 -1.000000
vt 0.750000 -1.000000
vt 0.113636 -1.000000
vt 0.795455 -1.000000
vt 0.068182 -1.000000
vt 0.750000 -1.000000
vt 0.931818 -1.000000
vt 0.159091 -1.000000
vt 0.113636 -1.000000
vt 0.295455 -1.000000
vt 0.840909 -1.000000
vt 0.068182 -1.000000
vt 1.022727 0.000000
vt 0.795455 -1.000000
vt 0.250000 -1.000000
vt 0.931818 -1.000000
vt 0.022727 -1.000000
vt 0.977273 -1.000000
vt 0.068182 -1.000000
vt 1.022727 0.000000
vt 0.250000 -1.000000
vt 0.204545 -1.000000
vt 0.340909 -1.000000
vt 0.750000 -1.000000
vt 0.068182 -1.000000
vt 0.113636 -1.000000
vt 0.795455 -1.000000
vt 0.750000 -1.000000
vt 0.068182 -1.000000
vt 0.931818 -1.000000
vt 0.159091 -1.000000
vt 0.113636 -1.000000
vt 1.022727 0.000000
vt 0.295455 -1.000000
vt 0.840909 -1.000000
vt 0.795455 -1.000000
vt 0.068182 -1.000000
vt 0.250000 -1.000000
vt 0.931818 -1.000000
vt 0.022727 -1.000000
vt 0.977273 -1.000000
vt 0.068182 -1.000000
vt 1.022727 0.000000
vt 0.250000 -1.000000
vt 0.204545 -1.000000
vt 0.340909 -1.000000
vt 0.750000 -1.000000
vt 0.068182 -1.000000
vt 0.113636 -1.000000
vt 0.795455 -1.000000
vt 0.750000 -1.000000
vt 0.068182 -1.000000
vt 0.931818 -1.000000
vt 0.159091 -1.000000
vt 0.113636 -1.000000
vt 1.022727 0.000000
vt 0.295455 -1.000000
vt 0.840909 -1.000000
vt 0.795455 -1.000000
vt 0.250000 -1.000000
vt 0.022727 -1.000000
vt 0.068182 -1.000000
vt 0.931818 -1.000000
vt 0.977273 -1.000000
vt 1.022727 0.000000
vt 0.250000 -1.000000
vt 0.340909 -1.000000
vt 0.204545 -1.000000
vt 0.068182 -1.000000
vt 0.750000 -1.000000
vt 0.113636 -1.000000
vt 0.795455 -1.000000
vt 0.068182 -1.000000
vt 0.750000 -1.000000
vt 0.931818 -1.000000
vt 0.159091 -1.000000
vt 0.113636 -1.000000
vt 0.295455 -1.000000
vt 0.840909 -1.000000
vt 0.068182 -1.000000
vt 1.022727 0.000000
vt 0.795455 -1.000000
vt 0.250000 -1.000000
vt 0.795455 -1.000000
vt 0.750000 0.000000
vt 0.795455 0.000000
vt 0.750000 -1.000000
vt 0.840909 -1.000000
vt 0.840909 0.000000
vt 0.886364 -1.000000
vt 0.886364 0.000000
vt 0.931818 -1.000000
vt 0.931818 0.000000
vt 0.977273 -1.000000
vt 0.977273 0.000000
vt 1.022727 0.000000
vt 1.022727 -1.000000
vt 0.068182 0.000000
vt 0.068182 -1.000000
vt 0.022727 0.000000
vt 0.022727 -1.000000
vt 0.113636 0.000000
vt 0.113636 -1.000000
vt 0.159091 0.000000
vt 0.159091 -1.000000
vt 0.204545 0.000000
vt 0.204545 -1.000000
vt 0.250000 0.000000
vt 0.250000 -1.000000
vt 0.295455 0.000000
vt 0.295455 -1.000000
vt 0.340909 0.000000
vt 0.340909 -1.000000
vt 0.704545 -1.000000
vt 0.659091 0.000000
vt 0.704545 0.000000
vt 0.659091 -1.000000
vt 0.795455 -1.000000
vt 0.750000 -1.000000
vt 0.840909 -1.000000
vt 0.886364 -1.000000
vt 0.931818 -1.000000
vt 0.068182 -1.000000
vt 0.113636 -1.000000
vt 0.159091 -1.000000
vt 0.204545 -1.000000
vt 0.250000 -1.000000
vt 0.295455 -1.000000
vt 0.340909 -1.000000
vt 0.704545 -1.000000
vt 0.659091 -1.000000
vt 0.795455 -1.000000
vt 0.750000 -1.000000
vt 0.840909 -1.000000
vt 0.886364 -1.000000
vt 0.931818 -1.000000
vt 0.977273 -1.000000
vt 1.022727 -1.000000
vt 0.022727 -1.000000
vt 0.068182 -1.000000
vt 0.113636 -1.000000
vt 0.159091 -1.000000
vt 0.204545 -1.000000
vt 0.250000 -1.000000
vt 0.295455 -1.000000
vt 0.340909 -1.000000
vt 0.704545 -1.000000
vt 0.659091 -1.000000
vt 0.795455 -1.000000
vt 0.750000 -1.000000
vt 0.840909 -1.000000
vt 0.886364 -1.000000
vt 0.931818 -1.000000
vt 0.068182 -1.000000
vt 0.113636 -1.000000
vt 0.159091 -1.000000
vt 0.204545 -1.000000
vt 0.250000 -1.000000
vt 0.295455 -1.000000
vt 0.340909 -1.000000
vt 0.704545 -1.000000
vt 0.659091 -1.000000
vt 0.795455 -1.000000
vt 0.795455 0.000000
vt 0.750000 0.000000
vt 0.750000 -1.000000
vt 0.840909 0.000000
vt 0.840909 -1.000000
vt 0.886364 0.000000
vt 0.886364 -1.000000
vt 0.931818 -1.000000
vt 0.931818 0.000000
vt 0.977273 0.000000
vt 0.977273 -1.000000
vt 1.022727 -1.000000
vt 1.022727 0.000000
vt 0.022727 0.000000
vt 0.022727 -1.000000
vt 0.068182 -1.000000
vt 0.068182 0.000000
vt 0.113636 0.000000
vt 0.113636 -1.000000
vt 0.159091 -1.000000
vt 0.159091 0.000000
vt 0.204545 -1.000000
vt 0.204545 0.000000
vt 0.250000 -1.000000
vt 0.250000 0.000000
vt 0.295455 -1.000000
vt 0.295455 0.000000
vt 0.340909 0.000000
vt 0.340909 -1.000000
vt 0.704545 0.000000
vt 0.659091 -1.000000
vt 0.704545 -1.000000
vt 0.659091 0.000000
vt 0.795455 -1.000000
vt 0.750000 -1.000000
vt 0.840909 -1.000000
vt 0.886364 -1.000000
vt 0.931818 -1.000000
vt 0.068182 -1.000000
vt 0.113636 -1.000000
vt 0.159091 -1.000000
vt 0.204545 -1.000000
vt 0.250000 -1.000000
vt 0.295455 -1.000000
vt 0.340909 -1.000000
vt 0.659091 -1.000000
vt 0.704545 -1.000000
vt 0.795455 -1.000000
vt 0.750000 -1.000000
vt 0.840909 -1.000000
vt 0.886364 -1.000000
vt 0.931818 -1.000000
vt 0.977273 -1.000000
vt 1.022727 -1.000000
vt 0.022727 -1.000000
vt 0.068182 -1.000000
vt 0.113636 -1.000000
vt 0.159091 -1.000000
vt 0.204545 -1.000000
vt 0.250000 -1.000000
vt 0.295455 -1.000000
vt 0.340909 -1.000000
vt 0.704545 -1.000000
vt 0.659091 -1.000000
vt 0.795455 -1.000000
vt 0.750000 -1.000000
vt 0.840909 -1.000000
vt 0.886364 -1.000000
vt 0.931818 -1.000000
vt 0.068182 -1.000000
vt 0.113636 -1.000000
vt 0.159091 -1.000000
vt 0.204545 -1.000000
vt 0.250000 -1.000000
vt 0.295455 -1.000000
vt 0.340909 -1.000000
vt 0.704545 -1.000000
vt 0.659091 -1.000000
vn -1.0000 -0.0000 -0.0000
vn 1.0000 -0.0000 0.0000
vn 1.0000 0.0000 0.0001
vn -1.0000 0.0000 0.0001
vn -0.0000 0.2974 0.9548
vn -0.0000 0.0053 1.0000
vn -0.0000 0.5197 0.8543
vn -0.0000 0.5198 0.8543
vn -0.0000 0.8112 0.5848
vn -0.0000 0.9033 0.4290
vn -0.0000 0.7164 0.6977
vn -0.0000 0.7907 0.6122
vn -0.0000 0.9949 0.1005
vn -0.0000 0.9949 0.1004
vn 0.0000 0.8876 -0.4607
vn -0.0000 0.9676 -0.2526
vn -0.0000 0.6239 -0.7815
vn -0.0000 0.6240 -0.7815
vn 0.0000 0.8607 -0.5090
vn -0.0000 0.8607 -0.5091
vn 0.0000 0.1321 -0.9912
vn 0.0000 0.0478 -0.9989
vn 0.0000 -0.0085 -1.0000
vn 0.0000 -0.6087 -0.7934
vn 0.0000 -0.6088 -0.7934
vn 0.0000 -0.7823 -0.6229
vn 0.0000 -0.3025 0.9531
vn 0.0000 -0.4490 0.8935
vn 0.0000 0.9899 0.1418
vn -0.0000 0.9987 -0.0515
vn 0.0000 0.0477 -0.9989
usemtl chrome.001
s off
f 35/1/1 36/2/1 37/3/1
f 35/1/1 37/3/1 38/4/1
f 53/5/1 54/6/1 55/7/1
f 54/6/1 53/5/1 56/8/1
f 57/9/1 58/10/1 59/11/1
f 58/10/1 57/9/1 60/12/1
f 61/13/1 62/14/1 63/15/1
f 64/16/1 62/14/1 61/13/1
f 61/13/1 65/17/1 64/16/1
f 66/18/1 67/19/1 68/20/1
f 67/19/1 69/21/1 70/22/1
f 67/19/1 66/18/1 69/21/1
f 66/18/1 68/20/1 71/23/1
f 89/24/2 90/25/2 91/26/2
f 90/25/2 89/24/2 92/27/2
f 107/28/2 108/29/2 109/30/2
f 108/29/2 107/28/2 110/31/2
f 111/32/2 112/33/2 113/34/2
f 112/33/2 111/32/2 114/35/2
f 115/36/2 116/37/2 117/38/2
f 116/37/2 115/36/2 118/39/2
f 116/37/2 118/39/2 119/40/2
f 120/41/2 121/42/2 122/43/2
f 120/41/3 122/43/3 123/44/3
f 124/45/2 121/42/2 125/46/2
f 121/42/2 124/45/2 122/43/2
f 160/47/2 161/48/2 162/49/2
f 161/48/2 160/47/2 163/50/2
f 178/51/2 179/52/2 180/53/2
f 179/52/2 178/51/2 181/54/2
f 182/55/2 183/56/2 184/57/2
f 183/56/2 182/55/2 185/58/2
f 186/59/2 187/60/2 188/61/2
f 187/60/2 186/59/2 189/62/2
f 187/60/2 189/62/2 190/63/2
f 191/64/2 192/65/2 193/66/2
f 191/64/2 193/66/2 194/67/2
f 183/56/2 192/65/2 195/68/2
f 192/65/2 183/56/2 193/66/2
f 213/69/1 214/70/1 215/71/1
f 213/69/1 215/71/1 216/72/1
f 231/73/1 232/74/1 233/75/1
f 232/74/1 231/73/1 234/76/1
f 235/77/1 236/78/1 237/79/1
f 236/78/1 235/77/1 238/80/1
f 239/81/1 240/82/1 241/83/1
f 242/84/1 240/82/1 239/81/1
f 239/81/1 243/85/1 242/84/1
f 244/86/1 245/87/1 246/88/1
f 245/87/4 247/89/4 248/90/4
f 245/87/1 244/86/1 247/89/1
f 244/86/1 246/88/1 249/91/1
s 1
f 1/92/5 2/93/6 3/94/5
f 2/93/6 1/92/5 4/95/6
f 5/96/7 3/94/5 6/97/8
f 3/94/5 5/96/7 1/92/5
f 7/98/9 6/97/8 8/99/9
f 6/97/8 7/98/9 5/96/7
f 9/100/10 8/99/9 10/101/11
f 8/99/9 9/100/10 7/98/9
f 11/102/12 10/101/11 12/103/12
f 10/101/11 11/102/12 9/100/10
f 13/104/13 11/102/12 12/103/12
f 11/102/12 13/104/13 14/105/14
f 15/106/15 16/107/16 17/108/17
f 18/109/18 17/108/17 16/107/16
f 19/110/19 16/107/16 15/106/15
f 16/107/16 19/110/19 20/111/20
f 21/112/21 20/111/20 19/110/19
f 20/111/20 21/112/21 22/113/21
f 23/114/22 24/115/22 21/112/21
f 22/113/21 21/112/21 24/115/22
f 25/116/23 24/115/22 23/114/22
f 24/115/22 25/116/23 26/117/23
f 27/118/24 26/117/23 25/116/23
f 26/117/23 27/118/24 28/119/25
f 29/120/26 28/119/25 27/118/24
f 28/119/25 29/120/26 30/121/26
f 31/122/27 32/123/28 33/124/27
f 32/123/28 31/122/27 34/125/28
f 2/93/6 31/122/27 33/124/27
f 31/122/27 2/93/6 4/95/6
f 39/126/5 4/95/6 1/92/5
f 4/95/6 39/126/5 40/127/6
f 41/128/8 1/92/5 5/96/7
f 1/92/5 41/128/8 39/126/5
f 42/129/9 5/96/7 7/98/9
f 5/96/7 42/129/9 41/128/8
f 43/130/29 7/98/9 9/100/10
f 7/98/9 43/130/29 42/129/9
f 20/111/20 44/131/30 16/107/16
f 44/131/30 20/111/20 45/132/19
f 45/132/19 22/113/21 46/133/21
f 22/113/21 45/132/19 20/111/20
f 24/115/22 47/134/22 22/113/21
f 46/133/21 22/113/21 47/134/22
f 26/117/23 47/134/22 24/115/22
f 47/134/22 26/117/23 48/135/23
f 28/119/25 48/135/23 26/117/23
f 48/135/23 28/119/25 49/136/24
f 30/121/26 49/136/24 28/119/25
f 49/136/24 30/121/26 50/137/26
f 51/138/27 34/125/28 31/122/27
f 34/125/28 51/138/27 52/139/28
f 4/95/6 51/138/27 31/122/27
f 51/138/27 4/95/6 40/127/6
f 44/131/30 9/100/10 16/107/16
f 9/100/10 44/131/30 43/130/29
f 72/140/5 3/94/5 2/93/6
f 72/140/5 2/93/6 73/141/6
f 74/142/7 6/97/8 3/94/5
f 74/142/7 3/94/5 72/140/5
f 8/99/9 74/142/7 75/143/9
f 74/142/7 8/99/9 6/97/8
f 76/144/10 10/101/11 8/99/9
f 76/144/10 8/99/9 75/143/9
f 12/103/12 76/144/10 77/145/12
f 76/144/10 12/103/12 10/101/11
f 13/104/13 77/145/12 78/146/13
f 77/145/12 13/104/13 12/103/12
f 17/108/17 79/147/17 80/148/16
f 17/108/17 80/148/16 15/106/15
f 19/110/19 80/148/16 81/149/19
f 80/148/16 19/110/19 15/106/15
f 81/149/19 21/112/21 19/110/19
f 21/112/21 81/149/19 82/150/21
f 21/112/21 82/150/21 83/151/22
f 21/112/21 83/151/22 23/114/22
f 83/151/22 25/116/23 23/114/22
f 25/116/23 83/151/22 84/152/23
f 84/152/23 27/118/24 25/116/23
f 27/118/24 84/152/23 85/153/24
f 29/120/26 85/153/24 86/154/26
f 85/153/24 29/120/26 27/118/24
f 87/155/27 33/124/27 32/123/28
f 87/155/27 32/123/28 88/156/28
f 2/93/6 87/155/27 73/141/6
f 87/155/27 2/93/6 33/124/27
f 93/157/5 72/140/5 73/141/6
f 93/157/5 73/141/6 94/158/6
f 95/159/8 74/142/7 72/140/5
f 95/159/8 72/140/5 93/157/5
f 75/143/9 95/159/8 96/160/9
f 95/159/8 75/143/9 74/142/7
f 97/161/29 76/144/10 75/143/9
f 97/161/29 75/143/9 96/160/9
f 81/149/19 98/162/30 99/163/19
f 98/162/30 81/149/19 80/148/16
f 99/163/19 82/150/21 81/149/19
f 82/150/21 99/163/19 100/164/21
f 82/150/21 100/164/21 101/165/22
f 82/150/21 101/165/22 83/151/22
f 101/165/22 84/152/23 83/151/22
f 84/152/23 101/165/22 102/166/23
f 102/166/23 85/153/24 84/152/23
f 85/153/24 102/166/23 103/167/24
f 86/154/26 103/167/24 104/168/26
f 103/167/24 86/154/26 85/153/24
f 105/169/27 87/155/27 88/156/28
f 105/169/27 88/156/28 106/170/28
f 73/141/6 105/169/27 94/158/6
f 105/169/27 73/141/6 87/155/27
f 80/148/16 76/144/10 98/162/30
f 98/162/30 76/144/10 97/161/29
f 126/171/5 127/172/5 128/173/6
f 126/171/5 128/173/6 129/174/6
f 130/175/8 126/171/5 131/176/8
f 126/171/5 130/175/8 127/172/5
f 132/177/9 131/176/8 133/178/9
f 131/176/8 132/177/9 130/175/8
f 134/179/10 135/180/11 132/177/9
f 134/179/10 132/177/9 133/178/9
f 136/181/12 134/179/10 137/182/12
f 134/179/10 136/181/12 135/180/11
f 138/183/13 139/184/13 136/181/12
f 138/183/13 136/181/12 137/182/12
f 140/185/17 141/186/17 142/187/16
f 140/185/17 142/187/16 143/188/15
f 144/189/20 142/187/16 145/190/19
f 142/187/16 144/189/20 143/188/15
f 144/189/20 145/190/19 146/191/21
f 144/189/20 146/191/21 147/192/21
f 147/192/21 146/191/21 148/193/22
f 147/192/21 148/193/22 149/194/22
f 149/194/22 148/193/22 150/195/23
f 149/194/22 150/195/23 151/196/23
f 151/196/23 150/195/23 152/197/25
f 151/196/23 152/197/25 153/198/24
f 154/199/26 152/197/25 155/200/26
f 152/197/25 154/199/26 153/198/24
f 156/201/27 157/202/28 158/203/27
f 157/202/28 156/201/27 159/204/28
f 128/173/6 158/203/27 129/174/6
f 158/203/27 128/173/6 156/201/27
f 164/205/5 126/171/5 129/174/6
f 164/205/5 129/174/6 165/206/6
f 131/176/8 164/205/5 166/207/8
f 164/205/5 131/176/8 126/171/5
f 133/178/9 166/207/8 167/208/9
f 166/207/8 133/178/9 131/176/8
f 168/209/29 134/179/10 133/178/9
f 168/209/29 133/178/9 167/208/9
f 145/190/19 169/210/30 170/211/19
f 169/210/30 145/190/19 142/187/16
f 170/211/19 171/212/21 145/190/19
f 145/190/19 171/212/21 146/191/21
f 146/191/21 171/212/21 172/213/22
f 146/191/21 172/213/22 148/193/22
f 148/193/22 172/213/22 173/214/23
f 148/193/22 173/214/23 150/195/23
f 150/195/23 173/214/23 174/215/25
f 150/195/23 174/215/25 152/197/25
f 155/200/26 174/215/25 175/216/26
f 174/215/25 155/200/26 152/197/25
f 158/203/27 176/217/28 177/218/27
f 176/217/28 158/203/27 157/202/28
f 129/174/6 177/218/27 165/206/6
f 177/218/27 129/174/6 158/203/27
f 142/187/16 134/179/10 169/210/30
f 169/210/30 134/179/10 168/209/29
f 196/219/5 128/173/6 127/172/5
f 128/173/6 196/219/5 197/220/6
f 198/221/8 127/172/5 130/175/8
f 127/172/5 198/221/8 196/219/5
f 199/222/9 130/175/8 132/177/9
f 130/175/8 199/222/9 198/221/8
f 200/223/10 132/177/9 135/180/11
f 132/177/9 200/223/10 199/222/9
f 201/224/12 135/180/11 136/181/12
f 135/180/11 201/224/12 200/223/10
f 139/184/13 201/224/12 136/181/12
f 201/224/12 139/184/13 202/225/13
f 143/188/15 203/226/17 140/185/17
f 203/226/17 143/188/15 204/227/16
f 144/189/20 204/227/16 143/188/15
f 204/227/16 144/189/20 205/228/19
f 147/192/21 205/228/19 144/189/20
f 205/228/19 147/192/21 206/229/21
f 149/194/22 206/229/21 147/192/21
f 206/229/21 149/194/22 207/230/22
f 151/196/23 207/230/22 149/194/22
f 207/230/22 151/196/23 208/231/23
f 153/198/24 208/231/23 151/196/23
f 208/231/23 153/198/24 209/232/25
f 154/199/26 209/232/25 153/198/24
f 209/232/25 154/199/26 210/233/26
f 211/234/27 159/204/28 156/201/27
f 159/204/28 211/234/27 212/235/28
f 197/220/6 156/201/27 128/173/6
f 156/201/27 197/220/6 211/234/27
f 217/236/5 197/220/6 196/219/5
f 197/220/6 217/236/5 218/237/6
f 219/238/8 196/219/5 198/221/8
f 196/219/5 219/238/8 217/236/5
f 220/239/9 198/221/8 199/222/9
f 198/221/8 220/239/9 219/238/8
f 221/240/29 199/222/9 200/223/10
f 199/222/9 221/240/29 220/239/9
f 205/228/19 222/241/30 204/227/16
f 222/241/30 205/228/19 223/242/19
f 223/242/19 206/229/21 224/243/21
f 206/229/21 223/242/19 205/228/19
f 207/230/22 224/243/21 206/229/21
f 224/243/21 207/230/22 225/244/31
f 208/231/23 225/244/31 207/230/22
f 225/244/31 208/231/23 226/245/23
f 209/232/25 226/245/23 208/231/23
f 226/245/23 209/232/25 227/246/24
f 210/233/26 227/246/24 209/232/25
f 227/246/24 210/233/26 228/247/26
f 229/248/27 212/235/28 211/234/27
f 212/235/28 229/248/27 230/249/28
f 197/220/6 229/248/27 211/234/27
f 229/248/27 197/220/6 218/237/6
f 222/241/30 200/223/10 204/227/16
f 200/223/10 222/241/30 221/240/29
