# Blender v3.1.2 OBJ File: 'car.blend'
# www.blender.org
mtllib Mesh_6.001.mtl
o Mesh_6_Mesh_6.001
v 0.003105 1.921117 2.211767
v 0.003105 1.937032 2.213878
v 0.003463 1.920911 2.213319
v 0.003463 1.936826 2.215431
v 0.002104 1.921282 2.210521
v 0.002104 1.937197 2.212633
v 0.002104 1.937197 2.212633
v 0.000657 1.921373 2.209830
v 0.000657 1.937289 2.211942
v 0.002104 1.921282 2.210521
v -0.000950 1.921373 2.209830
v -0.000950 1.937289 2.211942
v -0.002397 1.937197 2.212633
v -0.002397 1.921282 2.210521
v -0.002397 1.937197 2.212633
v -0.003399 1.921117 2.211767
v -0.003399 1.937032 2.213878
v -0.002397 1.921282 2.210521
v -0.003756 1.920911 2.213319
v -0.003756 1.936826 2.215431
v -0.003399 1.936620 2.216983
v -0.003399 1.920705 2.214872
v -0.002397 1.936455 2.218228
v -0.002397 1.920539 2.216117
v -0.002397 1.936455 2.218228
v -0.002397 1.920539 2.216117
v -0.000950 1.936363 2.218919
v -0.000950 1.920448 2.216808
v 0.000657 1.936363 2.218919
v 0.000657 1.920448 2.216808
v 0.002104 1.920539 2.216117
v 0.002104 1.936455 2.218228
v 0.003105 1.920705 2.214872
v 0.002104 1.936455 2.218228
v 0.002104 1.920539 2.216117
v 0.003105 1.936620 2.216983
v 0.002565 1.920487 2.211946
v 0.002863 1.920316 2.213241
v 0.001913 1.920316 2.213241
v 0.001709 1.920433 2.212355
v 0.001730 1.920625 2.210908
v 0.001137 1.920527 2.211644
v 0.000523 1.920701 2.210332
v 0.000312 1.920580 2.211250
v -0.000605 1.920580 2.211250
v -0.000816 1.920701 2.210332
v -0.001431 1.920527 2.211644
v -0.002023 1.920625 2.210908
v -0.002002 1.920433 2.212355
v -0.002858 1.920487 2.211946
v -0.002206 1.920316 2.213241
v -0.003156 1.920316 2.213241
v -0.002858 1.920144 2.214535
v -0.002002 1.920198 2.214127
v -0.001431 1.920104 2.214837
v -0.002023 1.920006 2.215573
v -0.000816 1.919930 2.216149
v -0.000605 1.920051 2.215231
v 0.000523 1.919930 2.216149
v 0.000312 1.920051 2.215231
v 0.001137 1.920104 2.214837
v 0.001730 1.920006 2.215573
v 0.001709 1.920198 2.214127
v 0.002565 1.920144 2.214535
v -0.000147 1.937421 2.215510
v 0.002863 1.937421 2.215510
v 0.002565 1.937592 2.214215
v 0.002565 1.937249 2.216804
v 0.001730 1.937111 2.217843
v 0.000523 1.937035 2.218418
v -0.000816 1.937035 2.218418
v -0.002023 1.937111 2.217843
v -0.002858 1.937249 2.216804
v -0.003156 1.937421 2.215510
v -0.002858 1.937592 2.214215
v -0.002023 1.937730 2.213177
v -0.000816 1.937807 2.212601
v 0.000523 1.937807 2.212601
v 0.001730 1.937730 2.213177
v 0.002970 1.920662 2.211772
v 0.003313 1.920464 2.213260
v 0.002010 1.920820 2.210579
v 0.002010 1.920820 2.210579
v 0.000623 1.920908 2.209917
v -0.000917 1.920908 2.209917
v -0.002304 1.920820 2.210579
v -0.002304 1.920820 2.210579
v -0.003264 1.920662 2.211772
v -0.003606 1.920464 2.213260
v -0.003264 1.920267 2.214748
v -0.002304 1.920109 2.215941
v -0.002304 1.920109 2.215941
v -0.000917 1.920021 2.216603
v 0.000623 1.920021 2.216603
v 0.002010 1.920109 2.215941
v 0.002010 1.920109 2.215941
v 0.002970 1.920267 2.214748
v 0.002970 1.937470 2.214002
v 0.003313 1.937272 2.215490
v 0.002970 1.937075 2.216978
v 0.002010 1.936916 2.218172
v 0.002010 1.936916 2.218172
v 0.000623 1.936828 2.218834
v -0.000917 1.936828 2.218834
v -0.002304 1.936916 2.218172
v -0.002304 1.936916 2.218172
v -0.003264 1.937075 2.216979
v -0.003606 1.937272 2.215490
v -0.003264 1.937470 2.214002
v -0.002304 1.937628 2.212809
v -0.002304 1.937628 2.212809
v -0.000917 1.937716 2.212147
v 0.000623 1.937716 2.212147
v 0.002010 1.937628 2.212809
v 0.002010 1.937628 2.212809
v 0.002970 1.920662 2.211772
v 0.003313 1.920464 2.213260
v 0.002010 1.920820 2.210579
v 0.000623 1.920908 2.209917
v -0.000917 1.920908 2.209917
v -0.002304 1.920820 2.210579
v -0.003264 1.920662 2.211772
v -0.003606 1.920464 2.213260
v -0.003264 1.920267 2.214748
v -0.002304 1.920109 2.215941
v -0.000917 1.920021 2.216603
v 0.000623 1.920021 2.216603
v 0.002010 1.920109 2.215941
v 0.002970 1.920267 2.214748
v 0.003313 1.937272 2.215490
v 0.002970 1.937470 2.214002
v 0.002970 1.937075 2.216978
v 0.002010 1.936916 2.218172
v 0.000623 1.936828 2.218834
v -0.000917 1.936828 2.218834
v -0.002304 1.936916 2.218172
v -0.003264 1.937075 2.216979
v -0.003606 1.937272 2.215490
v -0.003264 1.937470 2.214002
v -0.002304 1.937628 2.212809
v -0.000917 1.937716 2.212147
v 0.000623 1.937716 2.212147
v 0.002010 1.937628 2.212809
vt -76.468414 -28.124859
vt -76.468414 -28.805099
vt -76.534790 -28.124859
vt -76.534790 -28.805099
vt -76.415215 -28.124859
vt -76.415215 -28.805099
vt 7.653428 -28.805099
vt 7.592107 -28.124859
vt 7.592107 -28.805099
vt 7.653428 -28.124859
vt 7.524045 -28.124859
vt 7.524045 -28.805099
vt 7.462718 -28.805099
vt 7.462718 -28.124859
vt -76.415215 -28.805099
vt -76.468414 -28.124859
vt -76.468414 -28.805099
vt -76.415215 -28.124859
vt -76.534790 -28.124859
vt -76.534790 -28.805099
vt -76.601151 -28.805099
vt -76.601151 -28.124859
vt -76.654350 -28.805099
vt -76.654350 -28.124859
vt 7.462718 -28.805099
vt 7.462718 -28.124859
vt 7.524045 -28.805099
vt 7.524045 -28.124859
vt 7.592107 -28.805099
vt 7.592107 -28.124859
vt 7.653428 -28.124859
vt 7.653428 -28.805099
vt -76.601151 -28.124859
vt -76.654350 -28.805099
vt -76.654350 -28.124859
vt -76.601151 -28.805099
vt 7.672966 76.515831
vt 7.685593 76.571152
vt 7.645348 76.571152
vt 7.636700 76.533295
vt 7.637579 76.471451
vt 7.612487 76.502930
vt 7.586448 76.446838
vt 7.577496 76.486069
vt 7.538654 76.486069
vt 7.529702 76.446838
vt 7.503660 76.502930
vt 7.478568 76.471451
vt 7.479446 76.533295
vt 7.443186 76.515831
vt 7.470805 76.571152
vt 7.430561 76.571152
vt 7.443186 76.626480
vt 7.479446 76.609016
vt 7.503660 76.639381
vt 7.478568 76.670860
vt 7.529702 76.695465
vt 7.538654 76.656235
vt 7.586448 76.695465
vt 7.577496 76.656235
vt 7.612487 76.639381
vt 7.637579 76.670860
vt 7.636700 76.609016
vt 7.672966 76.626480
vt 7.558074 76.571152
vt 7.685593 76.571152
vt 7.672966 76.515831
vt 7.672966 76.626480
vt 7.637579 76.670860
vt 7.586448 76.695465
vt 7.529702 76.695465
vt 7.478568 76.670860
vt 7.443186 76.626480
vt 7.430561 76.571152
vt 7.443186 76.515831
vt 7.478568 76.471451
vt 7.529702 76.446838
vt 7.586448 76.446838
vt 7.637579 76.471451
vt -76.471191 -28.105780
vt -76.534790 -28.105780
vt -76.420181 -28.105780
vt 7.649469 -28.105780
vt 7.590692 -28.105780
vt 7.525460 -28.105780
vt 7.466684 -28.105780
vt -76.420181 -28.105780
vt -76.471191 -28.105780
vt -76.534790 -28.105780
vt -76.598381 -28.105780
vt -76.649376 -28.105780
vt 7.466684 -28.105780
vt 7.525460 -28.105780
vt 7.590692 -28.105780
vt 7.649469 -28.105780
vt -76.649376 -28.105780
vt -76.598381 -28.105780
vt -76.471191 -28.824169
vt -76.534790 -28.824169
vt -76.598381 -28.824169
vt -76.649376 -28.824169
vt 7.649469 -28.824169
vt 7.590692 -28.824169
vt 7.525460 -28.824169
vt 7.466684 -28.824169
vt -76.649376 -28.824169
vt -76.598381 -28.824169
vt -76.534790 -28.824169
vt -76.471191 -28.824169
vt -76.420181 -28.824169
vt 7.466684 -28.824169
vt 7.525460 -28.824169
vt 7.590692 -28.824169
vt 7.649469 -28.824169
vt -76.420181 -28.824169
vt 7.690137 76.507561
vt 7.704661 76.571152
vt 7.649469 76.456558
vt 7.590692 76.428246
vt 7.525460 76.428246
vt 7.466684 76.456558
vt 7.426008 76.507561
vt 7.411492 76.571152
vt 7.426008 76.634766
vt 7.466684 76.685760
vt 7.525460 76.714066
vt 7.590692 76.714066
vt 7.649469 76.685760
vt 7.690145 76.634750
vt 7.704661 76.571152
vt 7.690145 76.507561
vt 7.690145 76.634750
vt 7.649469 76.685760
vt 7.590692 76.714066
vt 7.525460 76.714066
vt 7.466684 76.685760
vt 7.426008 76.634766
vt 7.411492 76.571152
vt 7.426008 76.507561
vt 7.466684 76.456558
vt 7.525460 76.428246
vt 7.590692 76.428246
vt 7.649469 76.456558
vn 0.8899 -0.0988 -0.4454
vn 0.8898 0.2117 -0.4042
vn 0.9877 -0.1551 -0.0207
vn 0.9876 0.1553 0.0207
vn 0.7729 -0.0708 -0.6305
vn 0.7726 0.2327 -0.5907
vn 0.4287 0.2692 -0.8624
vn 0.2196 -0.0299 -0.9751
vn 0.2197 0.2826 -0.9337
vn 0.4287 -0.0352 -0.9028
vn -0.2197 -0.0299 -0.9751
vn -0.2197 0.2826 -0.9337
vn -0.4286 0.2690 -0.8625
vn -0.4288 -0.0351 -0.9027
vn -0.7727 0.2327 -0.5905
vn -0.8899 -0.0988 -0.4453
vn -0.8899 0.2116 -0.4042
vn -0.7729 -0.0708 -0.6306
vn -0.9877 -0.1551 -0.0207
vn -0.9876 0.1553 0.0207
vn -0.8900 0.0983 0.4453
vn -0.8898 -0.2117 0.4042
vn -0.7727 0.0700 0.6309
vn -0.7727 -0.2331 0.5904
vn -0.4284 0.0335 0.9030
vn -0.4288 -0.2694 0.8623
vn -0.2197 0.0281 0.9752
vn -0.2198 -0.2826 0.9337
vn 0.2198 0.0281 0.9752
vn 0.2198 -0.2826 0.9337
vn 0.4288 -0.2694 0.8623
vn 0.4285 0.0335 0.9029
vn 0.8898 -0.2117 0.4042
vn 0.7727 0.0700 0.6309
vn 0.7728 -0.2331 0.5903
vn 0.8899 0.0987 0.4454
vn 0.1648 -0.9642 -0.2077
vn 0.1816 -0.9748 -0.1294
vn 0.0001 -0.9913 -0.1314
vn 0.0000 -0.9914 -0.1311
vn 0.1138 -0.9559 -0.2707
vn 0.0002 -0.9913 -0.1313
vn 0.0407 -0.9511 -0.3062
vn -0.0005 -0.9914 -0.1309
vn 0.0005 -0.9914 -0.1310
vn -0.0407 -0.9512 -0.3059
vn -0.0002 -0.9913 -0.1316
vn -0.1138 -0.9558 -0.2710
vn -0.0000 -0.9913 -0.1312
vn -0.1648 -0.9642 -0.2077
vn -0.0001 -0.9913 -0.1314
vn -0.1816 -0.9748 -0.1293
vn -0.1642 -0.9851 -0.0509
vn -0.0001 -0.9913 -0.1317
vn 0.0002 -0.9913 -0.1315
vn -0.1138 -0.9934 0.0125
vn -0.0407 -0.9981 0.0469
vn -0.0006 -0.9914 -0.1307
vn 0.0407 -0.9980 0.0474
vn 0.0006 -0.9914 -0.1305
vn -0.0002 -0.9913 -0.1317
vn 0.1139 -0.9934 0.0125
vn 0.0001 -0.9913 -0.1318
vn 0.1642 -0.9851 -0.0511
vn 0.0000 0.9913 0.1315
vn 0.1826 0.9747 0.1290
vn 0.1635 0.9852 0.0513
vn 0.1637 0.9644 0.2078
vn 0.1138 0.9559 0.2708
vn 0.0406 0.9512 0.3058
vn -0.0406 0.9513 0.3055
vn -0.1137 0.9559 0.2708
vn -0.1635 0.9645 0.2076
vn -0.1826 0.9747 0.1290
vn -0.1635 0.9852 0.0513
vn -0.1135 0.9935 -0.0116
vn -0.0407 0.9981 -0.0470
vn 0.0407 0.9981 -0.0468
vn 0.1135 0.9935 -0.0115
vn 0.8548 -0.2589 -0.4498
vn 0.9489 -0.3128 -0.0415
vn 0.7438 -0.2289 -0.6280
vn 0.4123 -0.1953 -0.8899
vn 0.2108 -0.1944 -0.9580
vn -0.2108 -0.1944 -0.9580
vn -0.4124 -0.1953 -0.8898
vn -0.7437 -0.2290 -0.6281
vn -0.8548 -0.2589 -0.4498
vn -0.9489 -0.3130 -0.0415
vn -0.8548 -0.3675 0.3665
vn -0.7434 -0.3852 0.5468
vn -0.4124 -0.4204 0.8082
vn -0.2111 -0.4364 0.8746
vn 0.2111 -0.4364 0.8746
vn 0.4124 -0.4204 0.8082
vn 0.7435 -0.3852 0.5466
vn 0.8547 -0.3674 0.3667
vn 0.8548 0.3676 -0.3664
vn 0.9487 0.3135 0.0415
vn 0.8549 0.2589 0.4496
vn 0.7439 0.2273 0.6285
vn 0.4124 0.1920 0.8905
vn 0.2112 0.1906 0.9587
vn -0.2110 0.1907 0.9587
vn -0.4123 0.1920 0.8906
vn -0.7440 0.2271 0.6284
vn -0.8549 0.2580 0.4500
vn -0.9486 0.3136 0.0415
vn -0.8548 0.3675 -0.3665
vn -0.7435 0.3847 -0.5470
vn -0.4124 0.4199 -0.8085
vn -0.2111 0.4365 -0.8746
vn 0.2110 0.4364 -0.8746
vn 0.4125 0.4200 -0.8083
vn 0.7434 0.3847 -0.5472
vn 0.2856 -0.9221 -0.2610
vn 0.3149 -0.9408 -0.1250
vn 0.1973 -0.9078 -0.3700
vn 0.0706 -0.8992 -0.4318
vn -0.0707 -0.8994 -0.4313
vn -0.1972 -0.9077 -0.3703
vn -0.2856 -0.9221 -0.2610
vn -0.3149 -0.9408 -0.1250
vn -0.2849 -0.9585 0.0115
vn -0.1978 -0.9727 0.1212
vn -0.0705 -0.9810 0.1806
vn 0.0705 -0.9809 0.1815
vn 0.1978 -0.9727 0.1213
vn 0.2849 -0.9585 0.0113
vn 0.3166 0.9404 0.1244
vn 0.2834 0.9590 -0.0102
vn 0.2842 0.9227 0.2607
vn 0.1970 0.9080 0.3699
vn 0.0704 0.8996 0.4309
vn -0.0704 0.8999 0.4304
vn -0.1970 0.9079 0.3700
vn -0.2837 0.9228 0.2606
vn -0.3167 0.9403 0.1244
vn -0.2833 0.9590 -0.0103
vn -0.1967 0.9731 -0.1197
vn -0.0705 0.9809 -0.1812
vn 0.0705 0.9810 -0.1809
vn 0.1967 0.9732 -0.1195
usemtl black_s.001
s 1
f 1/1/1 2/2/2 3/3/3
f 4/4/4 3/3/3 2/2/2
f 5/5/5 6/6/6 1/1/1
f 2/2/2 1/1/1 6/6/6
f 7/7/7 8/8/8 9/9/9
f 8/8/8 7/7/7 10/10/10
f 9/9/9 11/11/11 12/12/12
f 11/11/11 9/9/9 8/8/8
f 12/12/12 11/11/11 13/13/13
f 13/13/13 11/11/11 14/14/14
f 15/15/15 16/16/16 17/17/17
f 16/16/16 15/15/15 18/18/18
f 17/17/17 19/19/19 20/20/20
f 19/19/19 17/17/17 16/16/16
f 20/20/20 19/19/19 21/21/21
f 21/21/21 19/19/19 22/22/22
f 21/21/21 22/22/22 23/23/23
f 23/23/23 22/22/22 24/24/24
f 25/25/25 26/26/26 27/27/27
f 27/27/27 26/26/26 28/28/28
f 27/27/27 28/28/28 29/29/29
f 29/29/29 28/28/28 30/30/30
f 29/29/29 31/31/31 32/32/32
f 31/31/31 29/29/29 30/30/30
f 33/33/33 34/34/34 35/35/35
f 34/34/34 33/33/33 36/36/36
f 3/3/3 36/36/36 33/33/33
f 36/36/36 3/3/3 4/4/4
f 37/37/37 38/38/38 39/39/39
f 37/37/37 39/39/39 40/40/40
f 41/41/41 37/37/37 40/40/40
f 41/41/41 40/40/40 42/42/42
f 43/43/43 42/42/42 44/44/44
f 42/42/42 43/43/43 41/41/41
f 45/45/45 43/43/43 44/44/44
f 43/43/43 45/45/45 46/46/46
f 46/46/46 47/47/47 48/48/48
f 47/47/47 46/46/46 45/45/45
f 48/48/48 49/49/49 50/50/50
f 49/49/49 48/48/48 47/47/47
f 50/50/50 51/51/51 52/52/52
f 51/51/51 50/50/50 49/49/49
f 53/53/53 51/51/51 54/54/54
f 51/51/51 53/53/53 52/52/52
f 54/54/54 55/55/55 56/56/56
f 54/54/54 56/56/56 53/53/53
f 56/56/56 55/55/55 57/57/57
f 55/55/55 58/58/58 57/57/57
f 59/59/59 57/57/57 58/58/58
f 59/59/59 58/58/58 60/60/60
f 61/61/61 59/59/59 60/60/60
f 59/59/59 61/61/61 62/62/62
f 63/63/63 62/62/62 61/61/61
f 62/62/62 63/63/63 64/64/64
f 39/39/39 64/64/64 63/63/63
f 64/64/64 39/39/39 38/38/38
f 65/65/65 66/66/66 67/67/67
f 65/65/65 68/68/68 66/66/66
f 65/65/65 69/69/69 68/68/68
f 65/65/65 70/70/70 69/69/69
f 65/65/65 71/71/71 70/70/70
f 65/65/65 72/72/72 71/71/71
f 65/65/65 73/73/73 72/72/72
f 65/65/65 74/74/74 73/73/73
f 65/65/65 75/75/75 74/74/74
f 65/65/65 76/76/76 75/75/75
f 65/65/65 77/77/77 76/76/76
f 65/65/65 78/78/78 77/77/77
f 65/65/65 79/79/79 78/78/78
f 65/65/65 67/67/67 79/79/79
f 3/3/3 80/80/80 1/1/1
f 80/80/80 3/3/3 81/81/81
f 1/1/1 82/82/82 5/5/5
f 82/82/82 1/1/1 80/80/80
f 8/8/8 83/83/83 84/84/84
f 83/83/83 8/8/8 10/10/10
f 8/8/8 85/85/85 11/11/11
f 85/85/85 8/8/8 84/84/84
f 11/11/11 86/86/86 14/14/14
f 86/86/86 11/11/11 85/85/85
f 16/16/16 87/87/87 88/88/88
f 87/87/87 16/16/16 18/18/18
f 19/19/19 88/88/88 89/89/89
f 88/88/88 19/19/19 16/16/16
f 19/19/19 90/90/90 22/22/22
f 90/90/90 19/19/19 89/89/89
f 22/22/22 91/91/91 24/24/24
f 91/91/91 22/22/22 90/90/90
f 28/28/28 92/92/92 93/93/93
f 92/92/92 28/28/28 26/26/26
f 28/28/28 94/94/94 30/30/30
f 94/94/94 28/28/28 93/93/93
f 30/30/30 95/95/95 31/31/31
f 95/95/95 30/30/30 94/94/94
f 96/96/96 33/33/33 35/35/35
f 33/33/33 96/96/96 97/97/97
f 3/3/3 97/97/97 81/81/81
f 97/97/97 3/3/3 33/33/33
f 4/4/4 98/98/98 99/99/99
f 98/98/98 4/4/4 2/2/2
f 36/36/36 4/4/4 100/100/100
f 99/99/99 100/100/100 4/4/4
f 34/34/34 36/36/36 101/101/101
f 100/100/100 101/101/101 36/36/36
f 29/29/29 102/102/102 103/103/103
f 102/102/102 29/29/29 32/32/32
f 27/27/27 29/29/29 104/104/104
f 103/103/103 104/104/104 29/29/29
f 25/25/25 27/27/27 105/105/105
f 104/104/104 105/105/105 27/27/27
f 21/21/21 106/106/106 107/107/107
f 106/106/106 21/21/21 23/23/23
f 20/20/20 107/107/107 108/108/108
f 107/107/107 20/20/20 21/21/21
f 17/17/17 20/20/20 109/109/109
f 108/108/108 109/109/109 20/20/20
f 15/15/15 17/17/17 110/110/110
f 109/109/109 110/110/110 17/17/17
f 12/12/12 111/111/111 112/112/112
f 111/111/111 12/12/12 13/13/13
f 9/9/9 112/112/112 113/113/113
f 112/112/112 9/9/9 12/12/12
f 7/7/7 9/9/9 114/114/114
f 113/113/113 114/114/114 9/9/9
f 2/2/2 115/115/115 98/98/98
f 115/115/115 2/2/2 6/6/6
f 116/116/116 38/38/38 37/37/37
f 38/38/38 116/116/116 117/117/117
f 118/118/118 37/37/37 41/41/41
f 37/37/37 118/118/118 116/116/116
f 119/119/119 41/41/41 43/43/43
f 41/41/41 119/119/119 118/118/118
f 120/120/120 119/119/119 46/46/46
f 46/46/46 119/119/119 43/43/43
f 46/46/46 48/48/48 120/120/120
f 48/48/48 121/121/121 120/120/120
f 121/121/121 50/50/50 122/122/122
f 50/50/50 121/121/121 48/48/48
f 123/123/123 122/122/122 52/52/52
f 52/52/52 122/122/122 50/50/50
f 124/124/124 123/123/123 53/53/53
f 53/53/53 123/123/123 52/52/52
f 125/125/125 124/124/124 56/56/56
f 53/53/53 56/56/56 124/124/124
f 56/56/56 57/57/57 125/125/125
f 125/125/125 57/57/57 126/126/126
f 126/126/126 59/59/59 127/127/127
f 59/59/59 126/126/126 57/57/57
f 128/128/128 59/59/59 62/62/62
f 59/59/59 128/128/128 127/127/127
f 129/129/129 62/62/62 64/64/64
f 62/62/62 129/129/129 128/128/128
f 64/64/64 117/117/117 129/129/129
f 117/117/117 64/64/64 38/38/38
f 67/67/67 130/130/130 131/131/131
f 130/130/130 67/67/67 66/66/66
f 132/132/132 66/66/66 68/68/68
f 66/66/66 132/132/132 130/130/130
f 133/133/133 68/68/68 69/69/69
f 68/68/68 133/133/133 132/132/132
f 134/134/134 69/69/69 70/70/70
f 69/69/69 134/134/134 133/133/133
f 135/135/135 134/134/134 71/71/71
f 71/71/71 134/134/134 70/70/70
f 71/71/71 72/72/72 135/135/135
f 72/72/72 136/136/136 135/135/135
f 136/136/136 73/73/73 137/137/137
f 73/73/73 136/136/136 72/72/72
f 138/138/138 137/137/137 74/74/74
f 74/74/74 137/137/137 73/73/73
f 139/139/139 138/138/138 75/75/75
f 75/75/75 138/138/138 74/74/74
f 140/140/140 139/139/139 76/76/76
f 75/75/75 76/76/76 139/139/139
f 76/76/76 77/77/77 140/140/140
f 140/140/140 77/77/77 141/141/141
f 142/142/142 77/77/77 78/78/78
f 77/77/77 142/142/142 141/141/141
f 143/143/143 78/78/78 79/79/79
f 78/78/78 143/143/143 142/142/142
f 131/131/131 79/79/79 67/67/67
f 79/79/79 131/131/131 143/143/143
