# Blender v3.1.2 OBJ File: 'car.blend'
# www.blender.org
mtllib Mesh_137.001.mtl
o Mesh_137_Mesh_137.001
v 0.000608 1.973736 -5.109777
v 0.000608 1.953814 -5.119102
v 0.000608 1.949715 -5.115355
v 0.000608 1.944822 -5.109686
v 0.000608 1.981401 -5.112566
v 0.000608 1.977814 -5.110496
v 0.000608 1.973736 -5.133626
v 0.000608 1.981401 -5.130836
v 0.000608 1.984063 -5.127664
v 0.000608 1.984063 -5.115739
v 0.000608 1.985480 -5.119631
v 0.000608 1.985480 -5.123773
v 0.000608 1.977814 -5.132907
v 0.000608 1.966071 -5.130836
v 0.000608 1.969657 -5.132907
v 0.000608 1.963408 -5.127664
v 0.000608 1.959234 -5.123763
v 0.000608 1.946526 -5.112850
vt 15.632179 -353.768188
vt 15.175639 -353.652008
vt 15.158640 -353.534180
vt 15.123329 -353.348083
vt 15.721169 -353.918579
vt 15.689919 -353.835602
vt 15.308080 -354.163086
vt 15.472890 -354.221100
vt 15.560129 -354.204803
vt 15.722159 -354.007385
vt 15.692770 -354.091003
vt 15.636439 -354.159576
vt 15.385369 -354.206604
vt 15.219060 -354.012787
vt 15.250310 -354.095703
vt 15.218090 -353.924103
vt 15.202029 -353.802704
vt 15.139819 -353.449402
vn -1.0000 0.0000 0.0000
vn -1.0000 0.0001 0.0001
usemtl chrome.001
s off
f 1/1/1 2/2/1 3/3/1
f 1/1/1 3/3/1 4/4/1
f 5/5/1 1/1/1 6/6/1
f 7/7/1 5/5/1 8/8/1
f 1/1/1 5/5/1 7/7/1
f 9/9/1 5/5/1 10/10/1
f 9/9/1 10/10/1 11/11/1
f 9/9/1 11/11/1 12/12/1
f 8/8/1 5/5/1 9/9/1
f 7/7/1 8/8/1 13/13/1
f 14/14/1 7/7/1 15/15/1
f 1/1/1 7/7/1 14/14/1
f 1/1/1 14/14/1 16/16/1
f 1/1/1 16/16/1 17/17/1
f 1/1/1 17/17/1 2/2/1
f 4/4/2 3/3/2 18/18/2
