# Blender v3.1.2 OBJ File: 'car.blend'
# www.blender.org
mtllib Mesh_234.001.mtl
o Mesh_234_Mesh_234.001
v -0.135067 1.373215 0.781822
v -0.130237 1.379893 0.781822
v -0.131855 1.375978 0.781822
v -0.139085 1.371903 0.781822
v -0.149434 1.386087 0.781822
v -0.149415 1.377846 0.781822
v -0.150408 1.381965 0.781822
v -0.135103 1.390773 0.781822
v -0.146955 1.389508 0.781822
v -0.139123 1.392074 0.781822
v -0.143345 1.391725 0.781822
v -0.130243 1.384118 0.781822
v -0.131879 1.388025 0.781822
v -0.146928 1.374435 0.781822
v -0.143329 1.372235 0.781822
v -0.174133 1.409801 0.781821
v -0.172089 1.390624 0.781822
v -0.180079 1.399469 0.781822
v -0.161208 1.395489 0.781822
v -0.167865 1.390630 0.781822
v -0.162473 1.407340 0.781821
v -0.159909 1.399508 0.781822
v -0.160255 1.403730 0.781822
v -0.163957 1.392264 0.781822
v -0.178768 1.395453 0.781822
v -0.176005 1.392242 0.781822
v -0.177550 1.407312 0.781821
v -0.179750 1.403692 0.781822
v -0.165891 1.409817 0.781821
v -0.169995 1.410797 0.781822
v -0.118642 1.315024 0.781822
v -0.113812 1.321702 0.781822
v -0.115430 1.317787 0.781822
v -0.122660 1.313712 0.781822
v -0.133009 1.327896 0.781822
v -0.132990 1.319655 0.781822
v -0.133983 1.323774 0.781822
v -0.118678 1.332583 0.781822
v -0.130530 1.331317 0.781822
v -0.122698 1.333883 0.781822
v -0.126919 1.333534 0.781822
v -0.113818 1.325927 0.781822
v -0.115454 1.329834 0.781822
v -0.130503 1.316244 0.781822
v -0.126904 1.314044 0.781822
v 0.146970 1.389508 0.781822
v 0.139138 1.392074 0.781822
v 0.143359 1.391725 0.781822
v 0.139100 1.371903 0.781822
v 0.146943 1.374435 0.781822
v 0.143344 1.372235 0.781822
v 0.135118 1.390773 0.781822
v 0.130252 1.379893 0.781822
v 0.130258 1.384118 0.781822
v 0.149430 1.377846 0.781822
v 0.149449 1.386087 0.781822
v 0.135082 1.373215 0.781822
v 0.131870 1.375978 0.781822
v 0.131894 1.388025 0.781822
v 0.150423 1.381965 0.781822
v 0.180094 1.399469 0.781822
v 0.174148 1.409801 0.781821
v 0.177565 1.407312 0.781821
v 0.161223 1.395489 0.781822
v 0.172104 1.390624 0.781822
v 0.167880 1.390630 0.781822
v 0.162488 1.407340 0.781821
v 0.165906 1.409817 0.781821
v 0.170009 1.410797 0.781822
v 0.179765 1.403692 0.781822
v 0.178783 1.395453 0.781822
v 0.176020 1.392242 0.781822
v 0.163972 1.392264 0.781822
v 0.159923 1.399508 0.781822
v 0.160270 1.403730 0.781822
v 0.130545 1.331317 0.781822
v 0.122713 1.333883 0.781822
v 0.126934 1.333534 0.781822
v 0.122675 1.313712 0.781822
v 0.130518 1.316244 0.781822
v 0.126918 1.314044 0.781822
v 0.118693 1.332583 0.781822
v 0.113827 1.321702 0.781822
v 0.113833 1.325927 0.781822
v 0.133005 1.319655 0.781822
v 0.133024 1.327896 0.781822
v 0.118657 1.315024 0.781822
v 0.115445 1.317787 0.781822
v 0.115469 1.329834 0.781822
v 0.133998 1.323774 0.781822
vt 0.400584 -0.295159
vt 0.359756 -0.351604
vt 0.373430 -0.318511
vt 0.434541 -0.284070
vt 0.522016 -0.403957
vt 0.521855 -0.334301
vt 0.530248 -0.369114
vt 0.400889 -0.443566
vt 0.501064 -0.432871
vt 0.434866 -0.454555
vt 0.470545 -0.451610
vt 0.359809 -0.387309
vt 0.373636 -0.420336
vt 0.500837 -0.305469
vt 0.470412 -0.286875
vt 0.488264 -0.650968
vt 0.470991 -0.488875
vt 0.538523 -0.563635
vt 0.379019 -0.529997
vt 0.435285 -0.488927
vt 0.389707 -0.630162
vt 0.368034 -0.563965
vt 0.370962 -0.599656
vt 0.402251 -0.502744
vt 0.527439 -0.529694
vt 0.504090 -0.502558
vt 0.517141 -0.629933
vt 0.535738 -0.599335
vt 0.418604 -0.651098
vt 0.453284 -0.659387
vt 0.837314 -0.296988
vt 0.796486 -0.353434
vt 0.810161 -0.320336
vt 0.871272 -0.285900
vt 0.958746 -0.405785
vt 0.958585 -0.336130
vt 0.966978 -0.370942
vt 0.837619 -0.445395
vt 0.937794 -0.434701
vt 0.871596 -0.456384
vt 0.907275 -0.453440
vt 0.796538 -0.389138
vt 0.810367 -0.422164
vt 0.937567 -0.307298
vt 0.907141 -0.288703
vt 0.083528 -0.437628
vt 0.149727 -0.459311
vt 0.114047 -0.456366
vt 0.150051 -0.288827
vt 0.083756 -0.310225
vt 0.114181 -0.291630
vt 0.183704 -0.448321
vt 0.224837 -0.356361
vt 0.224784 -0.392065
vt 0.062737 -0.339056
vt 0.062577 -0.408712
vt 0.184009 -0.299914
vt 0.211162 -0.323265
vt 0.210956 -0.425092
vt 0.054345 -0.373868
vt 0.058276 -0.563572
vt 0.108535 -0.650904
vt 0.079657 -0.629869
vt 0.217779 -0.529933
vt 0.125809 -0.488812
vt 0.161514 -0.488863
vt 0.207092 -0.630098
vt 0.178195 -0.651035
vt 0.143514 -0.659324
vt 0.061060 -0.599272
vt 0.069361 -0.529630
vt 0.092709 -0.502494
vt 0.194548 -0.502680
vt 0.228765 -0.563903
vt 0.225836 -0.599594
vt 0.632141 -0.441126
vt 0.698339 -0.462810
vt 0.662660 -0.459865
vt 0.698664 -0.292325
vt 0.632369 -0.313723
vt 0.662794 -0.295129
vt 0.732317 -0.451820
vt 0.773449 -0.359859
vt 0.773396 -0.395564
vt 0.611351 -0.342555
vt 0.611189 -0.412211
vt 0.732621 -0.303413
vt 0.759774 -0.326762
vt 0.759569 -0.428591
vt 0.602957 -0.377369
vn -0.0001 0.0000 -1.0000
vn 0.0000 0.0000 -1.0000
vn 0.0000 -0.0001 -1.0000
vn 0.0003 0.0000 -1.0000
vn 0.0001 -0.0000 -1.0000
vn -0.0003 0.0000 -1.0000
vn 0.0001 -0.0001 -1.0000
vn 0.0000 0.0007 -1.0000
vn -0.0001 -0.0001 -1.0000
usemtl sf21_sw_buttons.001
s off
f 1/1/1 2/2/1 3/3/1
f 4/4/2 2/2/2 1/1/2
f 5/5/1 6/6/1 7/7/1
f 4/4/2 8/8/2 2/2/2
f 4/4/2 9/9/2 8/8/2
f 9/9/2 4/4/2 6/6/2
f 9/9/2 6/6/2 5/5/2
f 10/10/2 9/9/2 11/11/2
f 8/8/2 9/9/2 10/10/2
f 12/12/1 8/8/1 13/13/1
f 2/2/2 8/8/2 12/12/2
f 4/4/2 14/14/2 6/6/2
f 14/14/2 4/4/2 15/15/2
f 16/16/2 17/17/2 18/18/2
f 17/17/2 19/19/2 20/20/2
f 19/19/3 17/17/3 21/21/3
f 22/22/4 21/21/4 23/23/4
f 19/19/5 21/21/5 22/22/5
f 20/20/2 19/19/2 24/24/2
f 17/17/2 16/16/2 21/21/2
f 25/25/2 17/17/2 26/26/2
f 18/18/2 17/17/2 25/25/2
f 27/27/6 18/18/6 28/28/6
f 16/16/7 18/18/7 27/27/7
f 16/16/2 29/29/2 21/21/2
f 29/29/8 16/16/8 30/30/8
f 31/31/1 32/32/1 33/33/1
f 34/34/2 32/32/2 31/31/2
f 35/35/1 36/36/1 37/37/1
f 34/34/2 38/38/2 32/32/2
f 34/34/2 39/39/2 38/38/2
f 39/39/2 34/34/2 36/36/2
f 39/39/2 36/36/2 35/35/2
f 40/40/2 39/39/2 41/41/2
f 38/38/2 39/39/2 40/40/2
f 42/42/1 38/38/1 43/43/1
f 32/32/2 38/38/2 42/42/2
f 34/34/2 44/44/2 36/36/2
f 44/44/2 34/34/2 45/45/2
f 46/46/2 47/47/2 48/48/2
f 49/49/2 50/50/2 51/51/2
f 52/52/2 53/53/2 54/54/2
f 55/55/2 46/46/2 56/56/2
f 49/49/2 55/55/2 50/50/2
f 53/53/2 49/49/2 57/57/2
f 52/52/2 49/49/2 53/53/2
f 46/46/2 49/49/2 52/52/2
f 49/49/2 46/46/2 55/55/2
f 53/53/5 57/57/5 58/58/5
f 52/52/5 54/54/5 59/59/5
f 46/46/2 52/52/2 47/47/2
f 55/55/5 56/56/5 60/60/5
f 61/61/9 62/62/9 63/63/9
f 64/64/2 65/65/2 66/66/2
f 65/65/3 64/64/3 67/67/3
f 62/62/2 67/67/2 68/68/2
f 62/62/8 68/68/8 69/69/8
f 62/62/2 65/65/2 67/67/2
f 61/61/4 63/63/4 70/70/4
f 65/65/2 62/62/2 61/61/2
f 65/65/2 61/61/2 71/71/2
f 65/65/2 71/71/2 72/72/2
f 64/64/2 66/66/2 73/73/2
f 67/67/1 64/64/1 74/74/1
f 67/67/6 74/74/6 75/75/6
f 76/76/2 77/77/2 78/78/2
f 79/79/2 80/80/2 81/81/2
f 82/82/2 83/83/2 84/84/2
f 85/85/2 76/76/2 86/86/2
f 79/79/2 85/85/2 80/80/2
f 83/83/2 79/79/2 87/87/2
f 82/82/2 79/79/2 83/83/2
f 76/76/2 79/79/2 82/82/2
f 79/79/2 76/76/2 85/85/2
f 83/83/5 87/87/5 88/88/5
f 82/82/5 84/84/5 89/89/5
f 76/76/2 82/82/2 77/77/2
f 85/85/5 86/86/5 90/90/5
