# Blender v3.1.2 OBJ File: 'car.blend'
# www.blender.org
mtllib Mesh_207.001.mtl
o Mesh_207_Mesh_207.001
v -0.356260 0.320123 -0.509608
v -0.286089 0.292979 0.638922
v 0.000000 0.320123 -0.509607
v 0.000000 0.292979 0.638922
v -0.055769 0.395602 1.053306
v 0.000000 0.395602 1.053306
v 0.000000 0.772535 1.259870
v -0.163756 0.772535 1.259870
v -0.149168 0.743545 2.534845
v -0.000000 0.743545 2.534845
v -0.448985 0.594013 0.638922
v -0.599038 0.615259 -0.509608
v -0.372231 0.622866 0.842124
v -0.409719 0.720700 1.048688
v -0.163756 0.772535 1.259870
v -0.055769 0.395602 1.053306
v -0.372231 0.622866 0.842124
v -0.409719 0.720700 1.048688
v -0.292073 0.743545 2.534845
v 0.286089 0.292979 0.638922
v 0.356260 0.320123 -0.509607
v 0.056009 0.395602 1.053306
v 0.163755 0.772535 1.259870
v 0.149167 0.743545 2.534845
v 0.448741 0.594013 0.638922
v 0.599038 0.615259 -0.509608
v 0.372471 0.622866 0.842124
v 0.163755 0.772535 1.259870
v 0.409719 0.720701 1.048688
v 0.056009 0.395602 1.053306
v 0.372471 0.622866 0.842124
v 0.292072 0.743545 2.534845
v 0.409719 0.720701 1.048688
vt -135.986008 133.088898
vt -68.642708 133.088898
vt -135.986008 110.278397
vt -68.642708 110.278397
vt -37.296001 120.763298
vt -37.296001 110.278397
vt -24.070189 110.278397
vt -24.070189 120.763298
vt 52.749069 120.763298
vt 52.749069 110.278397
vt -68.642700 144.897491
vt -135.986008 148.633499
vt -50.817509 138.982498
vt -45.645298 43.652508
vt -59.166798 43.652508
vt -45.940979 64.467827
vt -32.419468 49.916637
vt -37.591667 136.826202
vt 52.749069 130.807999
vt -68.642708 87.467834
vt -135.986008 87.467834
vt -37.296001 99.793510
vt -24.070189 99.793495
vt 52.749069 99.793510
vt -68.642700 75.659279
vt -135.986008 71.923302
vt -50.817509 81.574257
vt -59.166798 -58.713600
vt -45.645298 -58.713608
vt -45.940979 -79.528915
vt -32.419468 -64.977722
vt 52.749069 89.748779
vt -37.591667 83.730537
vn 0.4583 0.8881 -0.0341
vn 0.5084 0.8360 -0.2067
vn -0.0000 0.9997 0.0236
vn 0.0000 0.9940 -0.1094
vn 0.1457 0.7854 -0.6016
vn 0.0000 0.7924 -0.6101
vn 0.0000 0.8661 -0.4998
vn -0.0979 0.9648 -0.2442
vn -0.0000 0.9997 0.0227
vn 0.8506 0.4829 -0.2078
vn 0.7692 0.6328 -0.0888
vn 0.7567 0.4746 -0.4497
vn 0.6003 0.6469 -0.4702
vn 0.4892 0.5227 -0.6981
vn 0.5809 0.6251 -0.5213
vn 0.6615 0.7171 -0.2196
vn -0.2073 0.9783 0.0014
vn -0.0230 0.9995 0.0204
vn -0.5085 0.8359 -0.2065
vn -0.4583 0.8881 -0.0342
vn -0.1458 0.7854 -0.6015
vn 0.0979 0.9647 -0.2443
vn -0.8511 0.4825 -0.2070
vn -0.7692 0.6328 -0.0890
vn -0.7571 0.4747 -0.4488
vn -0.4894 0.5225 -0.6982
vn -0.6004 0.6466 -0.4705
vn -0.5810 0.6248 -0.5216
vn -0.6617 0.7168 -0.2202
vn 0.0230 0.9995 0.0204
vn 0.2073 0.9783 0.0014
usemtl carbon_cockpit.001
s 1
f 1/1/1 2/2/2 3/3/3
f 3/3/3 2/2/2 4/4/4
f 2/2/2 5/5/5 4/4/4
f 4/4/4 5/5/5 6/6/6
f 7/7/7 5/5/5 8/8/8
f 5/5/5 7/7/7 6/6/6
f 9/9/9 7/7/7 8/8/8
f 7/7/7 9/9/9 10/10/9
f 11/11/10 1/1/1 12/12/11
f 1/1/1 11/11/10 2/2/2
f 13/13/12 2/2/2 11/11/10
f 2/2/2 13/13/12 5/5/5
f 14/14/13 15/15/14 16/16/15
f 16/16/15 17/17/16 14/14/13
f 18/18/17 19/19/18 8/8/8
f 8/8/8 19/19/18 9/9/9
f 20/20/19 21/21/20 3/3/3
f 3/3/3 4/4/4 20/20/19
f 22/22/21 20/20/19 4/4/4
f 4/4/4 6/6/6 22/22/21
f 7/7/7 22/22/21 6/6/6
f 22/22/21 7/7/7 23/23/22
f 24/24/9 23/23/22 7/7/7
f 7/7/7 10/10/9 24/24/9
f 25/25/23 26/26/24 21/21/20
f 25/25/23 21/21/20 20/20/19
f 25/25/23 20/20/19 27/27/25
f 20/20/19 22/22/21 27/27/25
f 28/28/26 29/29/27 30/30/28
f 30/30/28 29/29/27 31/31/29
f 32/32/30 33/33/31 23/23/22
f 23/23/22 24/24/9 32/32/30
