# Blender v3.1.2 OBJ File: 'car.blend'
# www.blender.org
mtllib Mesh_57.001.mtl
o Mesh_57_Mesh_57.001
v -0.724275 0.432699 4.672039
v -0.724780 0.451899 4.644353
v -0.724728 0.431357 4.658069
v -0.725946 0.438736 4.616487
v -0.723560 0.454597 4.671440
v -0.723859 0.430957 4.682544
v -0.722363 0.449762 4.696839
v -0.723422 0.427264 4.690989
v -0.722447 0.408827 4.704251
v -0.721517 0.434637 4.717125
v -0.723100 0.421806 4.697779
v -0.720575 0.413177 4.731092
v -0.721080 0.374395 4.710481
v -0.719502 0.358822 4.759907
v -0.718721 0.451982 4.643161
v -0.718216 0.432840 4.670907
v -0.718669 0.431506 4.656944
v -0.719887 0.438845 4.615321
v -0.716304 0.449841 4.695644
v -0.717800 0.431099 4.681411
v -0.717501 0.454668 4.670237
v -0.717363 0.427412 4.689866
v -0.715459 0.434743 4.715957
v -0.716388 0.409017 4.703168
v -0.717041 0.421966 4.696665
v -0.714516 0.413319 4.729960
v -0.715021 0.374639 4.709454
v -0.713443 0.359070 4.758881
v -0.721789 0.453077 4.642350
v -0.722990 0.439635 4.614140
v -0.721625 0.430492 4.659172
v -0.721207 0.431557 4.672802
v -0.719278 0.451247 4.696321
v -0.720525 0.456013 4.670060
v -0.720448 0.425986 4.690444
v -0.720835 0.429642 4.682751
v -0.717433 0.414178 4.731755
v -0.718395 0.435933 4.717359
v -0.720164 0.420790 4.696554
v -0.719529 0.408149 4.702642
v -0.716366 0.358220 4.760979
v -0.718157 0.375191 4.708329
v 0.724728 0.431357 4.658069
v 0.725946 0.438736 4.616487
v 0.724780 0.451899 4.644353
v 0.724275 0.432699 4.672039
v 0.723560 0.454597 4.671440
v 0.722363 0.449762 4.696839
v 0.723859 0.430957 4.682544
v 0.723422 0.427264 4.690989
v 0.721517 0.434637 4.717125
v 0.722446 0.408827 4.704251
v 0.723100 0.421806 4.697779
v 0.720575 0.413177 4.731092
v 0.721080 0.374395 4.710481
v 0.719502 0.358822 4.759907
v 0.718216 0.432840 4.670907
v 0.718721 0.451982 4.643161
v 0.718669 0.431506 4.656944
v 0.719887 0.438845 4.615321
v 0.716304 0.449841 4.695644
v 0.717800 0.431099 4.681411
v 0.717363 0.427412 4.689866
v 0.717501 0.454668 4.670237
v 0.716388 0.409017 4.703168
v 0.715459 0.434743 4.715957
v 0.717041 0.421966 4.696665
v 0.714516 0.413319 4.729960
v 0.715021 0.374639 4.709454
v 0.713443 0.359070 4.758881
v 0.722990 0.439635 4.614140
v 0.721789 0.453077 4.642350
v 0.721207 0.431557 4.672802
v 0.721625 0.430492 4.659172
v 0.720525 0.456013 4.670060
v 0.719277 0.451247 4.696321
v 0.720448 0.425986 4.690444
v 0.720835 0.429642 4.682751
v 0.718395 0.435933 4.717359
v 0.717433 0.414178 4.731755
v 0.720164 0.420790 4.696554
v 0.719529 0.408149 4.702642
v 0.716366 0.358220 4.760979
v 0.718158 0.375191 4.708329
vt 0.609069 1.304497
vt 0.609653 1.299220
vt 0.609246 1.302892
vt 0.610089 1.295285
vt 0.609108 1.304140
vt 0.608854 1.306432
vt 0.608465 1.309952
vt 0.608598 1.308752
vt 0.607875 1.315274
vt 0.607892 1.315122
vt 0.608372 1.310789
vt 0.607215 1.321235
vt 0.606885 1.324221
vt 0.606076 1.331524
vt 0.606624 1.298884
vt 0.606039 1.304161
vt 0.606217 1.302556
vt 0.607059 1.294950
vt 0.605435 1.309617
vt 0.605825 1.306097
vt 0.606079 1.303804
vt 0.605568 1.308416
vt 0.604863 1.314786
vt 0.604846 1.314939
vt 0.605343 1.310453
vt 0.604186 1.320900
vt 0.603855 1.323886
vt 0.603047 1.331188
vt 0.608173 1.298735
vt 0.608622 1.294683
vt 0.607683 1.303158
vt 0.607519 1.304646
vt 0.606942 1.309859
vt 0.607610 1.303825
vt 0.607091 1.308509
vt 0.607323 1.306411
vt 0.605658 1.321450
vt 0.606348 1.315221
vt 0.606887 1.310354
vt 0.606403 1.314724
vt 0.604504 1.331875
vt 0.605427 1.323535
vt 0.609246 1.302892
vt 0.610089 1.295285
vt 0.609653 1.299220
vt 0.609069 1.304497
vt 0.609108 1.304140
vt 0.608465 1.309952
vt 0.608854 1.306432
vt 0.608598 1.308752
vt 0.607892 1.315122
vt 0.607875 1.315274
vt 0.608372 1.310789
vt 0.607215 1.321235
vt 0.606885 1.324221
vt 0.606076 1.331524
vt 0.606039 1.304161
vt 0.606624 1.298884
vt 0.606217 1.302556
vt 0.607059 1.294950
vt 0.605435 1.309617
vt 0.605825 1.306097
vt 0.605568 1.308416
vt 0.606079 1.303804
vt 0.604846 1.314939
vt 0.604863 1.314786
vt 0.605343 1.310453
vt 0.604186 1.320900
vt 0.603855 1.323886
vt 0.603047 1.331188
vt 0.608622 1.294683
vt 0.608173 1.298735
vt 0.607519 1.304646
vt 0.607683 1.303158
vt 0.607610 1.303825
vt 0.606942 1.309859
vt 0.607091 1.308509
vt 0.607323 1.306411
vt 0.606348 1.315221
vt 0.605658 1.321450
vt 0.606887 1.310354
vt 0.606403 1.314724
vt 0.604504 1.331875
vt 0.605427 1.323535
vn -0.8503 -0.5258 0.0221
vn -0.8269 0.5545 -0.0939
vn -0.9432 -0.3264 0.0624
vn -0.6933 0.6616 -0.2858
vn -0.7999 0.5947 0.0801
vn -0.8619 -0.4948 -0.1106
vn -0.7629 0.5682 0.3085
vn -0.8796 -0.4242 -0.2152
vn -0.9035 -0.1680 -0.3942
vn -0.7634 0.4109 0.4984
vn -0.9056 -0.2957 -0.3040
vn -0.7896 0.2841 0.5440
vn -0.9419 -0.0796 -0.3264
vn -0.5299 0.3890 0.7535
vn 0.8073 0.5625 -0.1786
vn 0.8422 -0.5381 -0.0351
vn 0.9565 -0.2916 -0.0036
vn 0.6068 0.7073 -0.3625
vn 0.8359 0.5158 0.1879
vn 0.8164 -0.5465 -0.1868
vn 0.8247 0.5656 -0.0057
vn 0.8051 -0.4934 -0.3293
vn 0.8640 0.3711 0.3402
vn 0.7907 -0.1692 -0.5884
vn 0.8091 -0.3506 -0.4716
vn 0.8883 0.2576 0.3803
vn 0.8780 -0.0627 -0.4745
vn 0.6787 0.3559 0.6424
vn -0.0581 0.9537 -0.2950
vn -0.0459 0.9026 -0.4281
vn 0.0591 -0.9941 0.0911
vn 0.0021 -0.9970 -0.0775
vn 0.0597 0.9244 0.3766
vn -0.0028 0.9998 0.0217
vn -0.0733 -0.8357 -0.5442
vn -0.0373 -0.9437 -0.3288
vn 0.1342 0.5053 0.8525
vn 0.1101 0.6957 0.7098
vn -0.1286 -0.6054 -0.7855
vn -0.1550 -0.3013 -0.9409
vn 0.1029 0.4681 0.8777
vn -0.1392 -0.1740 -0.9749
vn 0.9432 -0.3264 0.0624
vn 0.6933 0.6616 -0.2858
vn 0.8269 0.5545 -0.0939
vn 0.8503 -0.5258 0.0221
vn 0.7999 0.5947 0.0801
vn 0.7629 0.5682 0.3085
vn 0.8619 -0.4948 -0.1106
vn 0.8796 -0.4242 -0.2152
vn 0.7634 0.4108 0.4984
vn 0.9035 -0.1680 -0.3942
vn 0.9056 -0.2957 -0.3039
vn 0.7895 0.2841 0.5440
vn 0.9419 -0.0796 -0.3264
vn 0.5299 0.3890 0.7535
vn -0.8421 -0.5381 -0.0351
vn -0.8073 0.5625 -0.1786
vn -0.9565 -0.2916 -0.0036
vn -0.6069 0.7073 -0.3625
vn -0.8359 0.5158 0.1879
vn -0.8164 -0.5465 -0.1868
vn -0.8051 -0.4934 -0.3293
vn -0.8247 0.5656 -0.0057
vn -0.7907 -0.1692 -0.5884
vn -0.8640 0.3711 0.3402
vn -0.8091 -0.3506 -0.4716
vn -0.8883 0.2576 0.3803
vn -0.8780 -0.0627 -0.4745
vn -0.6787 0.3559 0.6424
vn 0.0459 0.9026 -0.4281
vn 0.0580 0.9537 -0.2950
vn -0.0021 -0.9970 -0.0775
vn -0.0591 -0.9941 0.0911
vn 0.0027 0.9998 0.0217
vn -0.0597 0.9244 0.3766
vn 0.0733 -0.8357 -0.5442
vn 0.0373 -0.9437 -0.3288
vn -0.1101 0.6957 0.7098
vn -0.1342 0.5053 0.8525
vn 0.1286 -0.6054 -0.7855
vn 0.1550 -0.3013 -0.9409
vn -0.1029 0.4681 0.8777
vn 0.1392 -0.1740 -0.9749
usemtl chrome.001
s 1
f 1/1/1 2/2/2 3/3/3
f 2/2/2 4/4/4 3/3/3
f 5/5/5 6/6/6 7/7/7
f 8/8/8 7/7/7 6/6/6
f 9/9/9 10/10/10 11/11/11
f 10/10/10 9/9/9 12/12/12
f 13/13/13 12/12/12 9/9/9
f 12/12/12 13/13/13 14/14/14
f 10/10/10 8/8/8 11/11/11
f 8/8/8 10/10/10 7/7/7
f 1/1/1 5/5/5 2/2/2
f 5/5/5 1/1/1 6/6/6
f 15/15/15 16/16/16 17/17/17
f 17/17/17 18/18/18 15/15/15
f 19/19/19 20/20/20 21/21/21
f 19/19/19 22/22/22 20/20/20
f 23/23/23 24/24/24 25/25/25
f 24/24/24 23/23/23 26/26/26
f 26/26/26 27/27/27 24/24/24
f 27/27/27 26/26/26 28/28/28
f 22/22/22 23/23/23 25/25/25
f 23/23/23 22/22/22 19/19/19
f 21/21/21 16/16/16 15/15/15
f 16/16/16 21/21/21 20/20/20
f 29/29/29 30/30/30 4/4/4
f 4/4/4 2/2/2 29/29/29
f 31/31/31 32/32/32 1/1/1
f 1/1/1 3/3/3 31/31/31
f 33/33/33 34/34/34 5/5/5
f 5/5/5 7/7/7 33/33/33
f 35/35/35 6/6/6 36/36/36
f 6/6/6 35/35/35 8/8/8
f 37/37/37 38/38/38 10/10/10
f 10/10/10 12/12/12 37/37/37
f 39/39/39 9/9/9 11/11/11
f 9/9/9 39/39/39 40/40/40
f 41/41/41 37/37/37 12/12/12
f 12/12/12 14/14/14 41/41/41
f 40/40/40 13/13/13 9/9/9
f 13/13/13 40/40/40 42/42/42
f 38/38/38 33/33/33 7/7/7
f 7/7/7 10/10/10 38/38/38
f 39/39/39 8/8/8 35/35/35
f 8/8/8 39/39/39 11/11/11
f 34/34/34 29/29/29 2/2/2
f 2/2/2 5/5/5 34/34/34
f 32/32/32 36/36/36 6/6/6
f 6/6/6 1/1/1 32/32/32
f 30/30/30 29/29/29 18/18/18
f 18/18/18 29/29/29 15/15/15
f 34/34/34 19/19/19 21/21/21
f 19/19/19 34/34/34 33/33/33
f 38/38/38 37/37/37 23/23/23
f 23/23/23 37/37/37 26/26/26
f 37/37/37 41/41/41 26/26/26
f 26/26/26 41/41/41 28/28/28
f 33/33/33 23/23/23 19/19/19
f 23/23/23 33/33/33 38/38/38
f 29/29/29 34/34/34 15/15/15
f 15/15/15 34/34/34 21/21/21
f 32/32/32 31/31/31 16/16/16
f 17/17/17 16/16/16 31/31/31
f 35/35/35 36/36/36 22/22/22
f 20/20/20 22/22/22 36/36/36
f 25/25/25 24/24/24 39/39/39
f 39/39/39 24/24/24 40/40/40
f 24/24/24 27/27/27 40/40/40
f 40/40/40 27/27/27 42/42/42
f 35/35/35 25/25/25 39/39/39
f 25/25/25 35/35/35 22/22/22
f 36/36/36 32/32/32 20/20/20
f 16/16/16 20/20/20 32/32/32
f 43/43/43 44/44/44 45/45/45
f 45/45/45 46/46/46 43/43/43
f 47/47/47 48/48/48 49/49/49
f 48/48/48 50/50/50 49/49/49
f 51/51/51 52/52/52 53/53/53
f 52/52/52 51/51/51 54/54/54
f 54/54/54 55/55/55 52/52/52
f 55/55/55 54/54/54 56/56/56
f 50/50/50 51/51/51 53/53/53
f 51/51/51 50/50/50 48/48/48
f 47/47/47 46/46/46 45/45/45
f 46/46/46 47/47/47 49/49/49
f 57/57/57 58/58/58 59/59/59
f 60/60/60 59/59/59 58/58/58
f 61/61/61 62/62/62 63/63/63
f 61/61/61 64/64/64 62/62/62
f 65/65/65 66/66/66 67/67/67
f 66/66/66 65/65/65 68/68/68
f 69/69/69 68/68/68 65/65/65
f 68/68/68 69/69/69 70/70/70
f 66/66/66 63/63/63 67/67/67
f 63/63/63 66/66/66 61/61/61
f 57/57/57 64/64/64 58/58/58
f 64/64/64 57/57/57 62/62/62
f 71/71/71 72/72/72 44/44/44
f 45/45/45 44/44/44 72/72/72
f 73/73/73 74/74/74 46/46/46
f 43/43/43 46/46/46 74/74/74
f 75/75/75 76/76/76 47/47/47
f 47/47/47 76/76/76 48/48/48
f 77/77/77 49/49/49 50/50/50
f 49/49/49 77/77/77 78/78/78
f 79/79/79 80/80/80 51/51/51
f 54/54/54 51/51/51 80/80/80
f 53/53/53 52/52/52 81/81/81
f 81/81/81 52/52/52 82/82/82
f 80/80/80 83/83/83 54/54/54
f 54/54/54 83/83/83 56/56/56
f 52/52/52 55/55/55 82/82/82
f 55/55/55 84/84/84 82/82/82
f 76/76/76 79/79/79 48/48/48
f 48/48/48 79/79/79 51/51/51
f 81/81/81 50/50/50 53/53/53
f 50/50/50 81/81/81 77/77/77
f 72/72/72 75/75/75 45/45/45
f 47/47/47 45/45/45 75/75/75
f 78/78/78 73/73/73 49/49/49
f 49/49/49 73/73/73 46/46/46
f 72/72/72 71/71/71 60/60/60
f 60/60/60 58/58/58 72/72/72
f 75/75/75 61/61/61 76/76/76
f 61/61/61 75/75/75 64/64/64
f 80/80/80 79/79/79 66/66/66
f 66/66/66 68/68/68 80/80/80
f 83/83/83 80/80/80 68/68/68
f 68/68/68 70/70/70 83/83/83
f 76/76/76 66/66/66 79/79/79
f 66/66/66 76/76/76 61/61/61
f 75/75/75 72/72/72 58/58/58
f 58/58/58 64/64/64 75/75/75
f 74/74/74 73/73/73 57/57/57
f 57/57/57 59/59/59 74/74/74
f 78/78/78 77/77/77 63/63/63
f 63/63/63 62/62/62 78/78/78
f 81/81/81 65/65/65 67/67/67
f 65/65/65 81/81/81 82/82/82
f 69/69/69 82/82/82 84/84/84
f 82/82/82 69/69/69 65/65/65
f 77/77/77 81/81/81 67/67/67
f 67/67/67 63/63/63 77/77/77
f 73/73/73 78/78/78 62/62/62
f 62/62/62 57/57/57 73/73/73
