# Blender v3.1.2 OBJ File: 'car.blend'
# www.blender.org
mtllib Mesh_51.001.mtl
o Mesh_51_Mesh_51.001
v 0.042461 1.020593 -4.692458
v -0.003392 1.005689 -4.693362
v -0.049246 1.020594 -4.692458
v -0.049246 1.146869 -4.684795
v -0.003392 1.161774 -4.683891
v 0.042461 1.146869 -4.684795
v -0.077586 1.059616 -4.690089
v 0.070801 1.107849 -4.687162
v 0.070801 1.059615 -4.690089
v 0.066130 1.048285 -4.690777
v -0.077586 1.107849 -4.687163
v -0.058574 1.138925 -4.685276
v -0.072915 1.119179 -4.686476
v -0.066546 1.129634 -4.685840
v -0.038811 1.153289 -4.684405
v -0.015607 1.160831 -4.683948
v -0.027515 1.158003 -4.684120
v 0.032026 1.153289 -4.684405
v 0.008822 1.160831 -4.683948
v 0.020730 1.158003 -4.684120
v 0.066130 1.119179 -4.686476
v 0.051789 1.138925 -4.685277
v 0.059761 1.129634 -4.685842
v 0.073679 1.071528 -4.689366
v 0.073679 1.095936 -4.687885
v 0.074670 1.083732 -4.688625
v 0.051789 1.028538 -4.691976
v 0.059761 1.037829 -4.691411
v 0.032026 1.014174 -4.692848
v 0.008822 1.006631 -4.693305
v 0.020730 1.009460 -4.693134
v -0.038811 1.014174 -4.692848
v -0.015607 1.006632 -4.693305
v -0.027515 1.009460 -4.693133
v -0.072915 1.048286 -4.690777
v -0.058574 1.028539 -4.691975
v -0.066546 1.037830 -4.691411
v -0.080464 1.095936 -4.687885
v -0.080464 1.071528 -4.689366
v -0.081455 1.083732 -4.688625
v 0.021172 1.155278 -4.801409
v 0.013085 1.179432 -4.801048
v 0.016544 1.176442 -4.801094
v -0.009054 1.181661 -4.801014
v -0.016543 1.147374 -4.801525
v -0.019279 1.151094 -4.801471
v 0.009055 1.181661 -4.801014
v 0.009055 1.141976 -4.801604
v 0.000000 1.183501 -4.800987
v -0.021172 1.155278 -4.801409
v -0.013085 1.179432 -4.801048
v -0.009054 1.141976 -4.801604
v 0.004629 1.140544 -4.801625
v 0.000000 1.140059 -4.801632
v 0.019279 1.151094 -4.801471
v 0.019279 1.172814 -4.801148
v 0.022140 1.159739 -4.801343
v 0.022140 1.164280 -4.801276
v 0.021172 1.168701 -4.801209
v 0.016544 1.147374 -4.801525
v 0.013085 1.144288 -4.801570
v -0.004628 1.140544 -4.801624
v -0.013085 1.144288 -4.801570
v -0.022139 1.159739 -4.801343
v -0.016543 1.176442 -4.801094
v -0.019279 1.172814 -4.801148
v -0.022139 1.164280 -4.801276
v -0.021172 1.168701 -4.801209
vt 0.016521 -0.009222
vt 0.123779 -0.009216
vt 0.111979 -0.009061
vt 0.076372 -0.007166
vt 0.063977 -0.006908
vt 0.052272 -0.007151
vt 0.100420 -0.008479
vt 0.040272 -0.007805
vt 0.028362 -0.008656
vt 0.025478 -0.008850
vt 0.088464 -0.007728
vt 0.079279 -0.007287
vt 0.085532 -0.007558
vt 0.082600 -0.007388
vt 0.073464 -0.007044
vt 0.066909 -0.006908
vt 0.070557 -0.006923
vt 0.055180 -0.007030
vt 0.061045 -0.006908
vt 0.058113 -0.006908
vt 0.043180 -0.007586
vt 0.049364 -0.007272
vt 0.046457 -0.007394
vt 0.031245 -0.008462
vt 0.037364 -0.008023
vt 0.034457 -0.008241
vt 0.019331 -0.009149
vt 0.022595 -0.009044
vt 0.013710 -0.009294
vt 0.126590 -0.009192
vt 0.010899 -0.009367
vt 0.114863 -0.009158
vt 0.120969 -0.009240
vt 0.118158 -0.009264
vt 0.103303 -0.008672
vt 0.109096 -0.008964
vt 0.106212 -0.008867
vt 0.091396 -0.007897
vt 0.097537 -0.008285
vt 0.094653 -0.008091
vt -0.223536 0.051575
vt -0.223356 0.039497
vt -0.223379 0.040993
vt -0.223339 0.038383
vt -0.223594 0.055526
vt -0.223567 0.053667
vt -0.223339 0.038383
vt -0.223633 0.058226
vt -0.223325 0.037463
vt -0.223536 0.051575
vt -0.223356 0.039497
vt -0.223633 0.058226
vt -0.223644 0.058942
vt -0.223648 0.059184
vt -0.223567 0.053667
vt -0.223406 0.042807
vt -0.223503 0.049344
vt -0.223469 0.047074
vt -0.223437 0.044863
vt -0.223594 0.055526
vt -0.223617 0.057070
vt -0.223644 0.058942
vt -0.223617 0.057070
vt -0.223503 0.049344
vt -0.223379 0.040993
vt -0.223406 0.042807
vt -0.223469 0.047074
vt -0.223437 0.044863
vn 0.0000 0.0605 -0.9982
vn 0.0000 0.0606 -0.9982
vn -0.0009 0.0612 -0.9981
vn -0.0002 0.0610 -0.9981
vn -0.0001 0.0608 -0.9982
vn 0.0003 0.0601 -0.9982
vn 0.0000 0.0604 -0.9982
vn 0.0001 0.0608 -0.9982
vn -0.0002 0.0601 -0.9982
vn 0.0001 0.0606 -0.9982
vn -0.0009 0.0600 -0.9982
vn -0.0004 0.0603 -0.9982
vn -0.0003 0.0606 -0.9982
vn 0.0006 0.0606 -0.9982
vn 0.0015 0.0601 -0.9982
vn -0.0004 0.0607 -0.9982
vn -0.0001 0.0608 -0.9981
vn 0.0002 0.0606 -0.9982
vn -0.0001 0.0605 -0.9982
vn -0.0002 0.0597 -0.9982
vn -0.0002 0.0604 -0.9982
vn 0.0003 0.0604 -0.9982
vn -0.0002 0.0606 -0.9982
vn -0.0006 0.0606 -0.9982
vn 0.0002 0.0605 -0.9982
vn -0.0004 0.0147 -0.9999
vn 0.0002 0.0148 -0.9999
vn 0.0000 0.0149 -0.9999
vn 0.0004 0.0149 -0.9999
vn 0.0001 0.0148 -0.9999
vn -0.0006 0.0149 -0.9999
vn 0.0025 0.0155 -0.9999
vn -0.0011 0.0147 -0.9999
vn -0.0007 0.0148 -0.9999
vn -0.0002 0.0148 -0.9999
vn -0.0004 0.0148 -0.9999
vn -0.0002 0.0149 -0.9999
vn 0.0000 0.0148 -0.9999
vn -0.0003 0.0148 -0.9999
vn 0.0002 0.0149 -0.9999
vn 0.0004 0.0148 -0.9999
vn 0.0001 0.0149 -0.9999
vn 0.0007 0.0148 -0.9999
vn 0.0009 0.0147 -0.9999
vn -0.0025 0.0155 -0.9999
vn 0.0005 0.0147 -0.9999
usemtl BLACK.001
s off
f 1/1/1 2/2/1 3/3/1
f 4/4/1 5/5/1 6/6/1
f 7/7/2 8/8/2 9/9/2
f 10/10/2 1/1/2 9/9/2
f 8/8/2 11/11/2 4/4/2
f 11/11/2 8/8/2 7/7/2
f 12/12/3 13/13/3 14/14/3
f 4/4/4 13/13/4 12/12/4
f 15/15/5 5/5/5 4/4/5
f 16/16/6 15/15/6 17/17/6
f 5/5/7 15/15/7 16/16/7
f 5/5/8 18/18/8 6/6/8
f 18/18/7 5/5/7 19/19/7
f 18/18/9 19/19/9 20/20/9
f 8/8/2 4/4/2 6/6/2
f 21/21/10 6/6/10 22/22/10
f 21/21/11 22/22/11 23/23/11
f 8/8/12 6/6/12 21/21/12
f 24/24/13 8/8/13 25/25/13
f 24/24/14 25/25/14 26/26/14
f 9/9/2 8/8/2 24/24/2
f 1/1/2 3/3/2 9/9/2
f 27/27/15 10/10/15 28/28/15
f 1/1/16 10/10/16 27/27/16
f 29/29/17 2/2/17 1/1/17
f 30/30/18 29/29/18 31/31/18
f 2/2/19 29/29/19 30/30/19
f 2/2/8 32/32/8 3/3/8
f 32/32/10 2/2/10 33/33/10
f 32/32/20 33/33/20 34/34/20
f 7/7/2 9/9/2 3/3/2
f 35/35/21 3/3/21 36/36/21
f 35/35/22 36/36/22 37/37/22
f 7/7/23 3/3/23 35/35/23
f 38/38/18 7/7/18 39/39/18
f 38/38/24 39/39/24 40/40/24
f 11/11/24 7/7/24 38/38/24
f 13/13/25 4/4/25 11/11/25
f 41/41/26 42/42/26 43/43/26
f 44/44/27 45/45/27 46/46/27
f 47/47/28 48/48/28 49/49/28
f 50/50/29 51/51/29 46/46/29
f 49/49/28 52/52/28 44/44/28
f 49/49/30 53/53/30 54/54/30
f 42/42/28 55/55/28 47/47/28
f 42/42/31 41/41/31 55/55/31
f 56/56/28 57/57/28 43/43/28
f 58/58/32 56/56/32 59/59/32
f 57/57/33 56/56/33 58/58/33
f 41/41/34 43/43/34 57/57/34
f 60/60/35 47/47/35 55/55/35
f 61/61/36 47/47/36 60/60/36
f 48/48/37 47/47/37 61/61/37
f 53/53/38 49/49/38 48/48/38
f 62/62/39 49/49/39 54/54/39
f 52/52/27 49/49/27 62/62/27
f 63/63/40 44/44/40 52/52/40
f 45/45/41 44/44/41 63/63/41
f 46/46/42 51/51/42 44/44/42
f 64/64/43 65/65/43 50/50/43
f 66/66/44 64/64/44 67/67/44
f 66/66/45 67/67/45 68/68/45
f 65/65/28 64/64/28 66/66/28
f 51/51/46 50/50/46 65/65/46
