# Blender v3.1.2 OBJ File: 'car.blend'
# www.blender.org
mtllib Mesh_77.001.mtl
o Mesh_77_Mesh_77.001
v 0.043937 1.311503 1.016656
v 0.058481 1.307467 1.021823
v 0.058671 1.308358 1.016656
v 0.043746 1.310612 1.021823
v 0.057933 1.304901 1.026366
v 0.043199 1.308047 1.026366
v 0.057094 1.300971 1.031448
v 0.042360 1.304116 1.031448
v 0.056065 1.296150 1.031533
v 0.041331 1.299295 1.031533
v 0.040236 1.294164 1.031533
v 0.054970 1.291019 1.031533
v 0.039207 1.289343 1.033309
v 0.053941 1.286198 1.033309
v 0.053102 1.282268 1.026366
v 0.038368 1.285413 1.026366
v 0.052554 1.279703 1.021823
v 0.037820 1.282848 1.021823
v 0.052364 1.278812 1.016656
v 0.037630 1.281957 1.016656
v 0.037820 1.282848 1.011490
v 0.052554 1.279703 1.011490
v 0.038368 1.285413 1.006947
v 0.053102 1.282268 1.006947
v 0.038754 1.287246 1.003086
v 0.053488 1.284101 1.003086
v 0.040236 1.294164 1.001780
v 0.054970 1.291019 1.001780
v 0.056065 1.296150 1.001780
v 0.041331 1.299295 1.001780
v 0.057094 1.300971 1.000889
v 0.042360 1.304116 1.000889
v 0.043199 1.308047 1.006947
v 0.057933 1.304901 1.006947
v 0.043746 1.310612 1.011490
v 0.058481 1.307467 1.011490
v 0.043937 1.311503 1.016656
v 0.058671 1.308358 1.016656
v -0.058481 1.307467 1.021823
v -0.043937 1.311503 1.016656
v -0.058671 1.308358 1.016656
v -0.043746 1.310612 1.021823
v -0.057933 1.304901 1.026366
v -0.043199 1.308047 1.026366
v -0.057094 1.300971 1.031448
v -0.042360 1.304116 1.031448
v -0.056065 1.296150 1.031533
v -0.041331 1.299295 1.031533
v -0.054970 1.291019 1.031533
v -0.040236 1.294164 1.031533
v -0.053941 1.286198 1.033309
v -0.039207 1.289343 1.033309
v -0.053102 1.282268 1.026366
v -0.038368 1.285413 1.026366
v -0.052554 1.279703 1.021823
v -0.037820 1.282848 1.021823
v -0.052364 1.278812 1.016656
v -0.037630 1.281957 1.016656
v -0.052554 1.279703 1.011490
v -0.037820 1.282848 1.011490
v -0.053102 1.282268 1.006947
v -0.038368 1.285413 1.006947
v -0.053488 1.284101 1.003086
v -0.038754 1.287246 1.003086
v -0.040236 1.294164 1.001780
v -0.054970 1.291019 1.001780
v -0.041331 1.299295 1.001780
v -0.056065 1.296150 1.001780
v -0.057094 1.300971 1.000889
v -0.042360 1.304116 1.000889
v -0.057933 1.304901 1.006947
v -0.043199 1.308047 1.006947
v -0.058481 1.307467 1.011490
v -0.043746 1.310612 1.011490
v -0.058671 1.308358 1.016656
v -0.043937 1.311503 1.016656
v 0.060204 1.382701 1.035206
v 0.057022 1.382140 0.983703
v 0.060204 1.382701 0.983703
v 0.057022 1.382140 1.035206
v 0.054225 1.380525 0.983703
v 0.054225 1.380525 1.035206
v 0.052148 1.378050 1.035206
v 0.052148 1.378050 0.983703
v 0.051043 1.375014 1.035206
v 0.051043 1.375014 0.983703
v 0.051043 1.371784 1.035206
v 0.051043 1.371784 0.983703
v 0.052148 1.368748 0.983703
v 0.052148 1.368748 1.035206
v 0.054225 1.366273 1.035206
v 0.054225 1.366273 0.983703
v 0.057022 1.364658 0.983703
v 0.057022 1.364658 1.035206
v 0.060204 1.364097 1.035206
v 0.060204 1.364097 0.983703
v 0.063386 1.364658 0.983703
v 0.063386 1.364658 1.035206
v 0.066183 1.366273 0.983703
v 0.066183 1.366273 1.035206
v 0.068260 1.368748 1.035206
v 0.068260 1.368748 0.983703
v 0.069365 1.371784 1.035206
v 0.069365 1.371784 0.983703
v 0.069365 1.375014 1.035206
v 0.069365 1.375014 0.983703
v 0.068260 1.378050 1.035206
v 0.068260 1.378050 0.983703
v 0.066183 1.380525 1.035206
v 0.066183 1.380525 0.983703
v 0.063386 1.382140 0.983703
v 0.063386 1.382140 1.035206
v 0.060204 1.382701 1.035206
v 0.060204 1.382701 0.983703
v -0.060204 1.382701 1.035206
v -0.057022 1.382140 0.983703
v -0.057022 1.382140 1.035206
v -0.060204 1.382701 0.983703
v -0.054225 1.380525 0.983703
v -0.054225 1.380525 1.035206
v -0.052148 1.378050 0.983703
v -0.052148 1.378050 1.035206
v -0.051043 1.375014 0.983703
v -0.051043 1.375014 1.035206
v -0.051043 1.371784 0.983703
v -0.051043 1.371784 1.035206
v -0.052148 1.368748 0.983703
v -0.052148 1.368748 1.035206
v -0.054225 1.366273 0.983703
v -0.054225 1.366273 1.035206
v -0.057022 1.364658 0.983703
v -0.057022 1.364658 1.035206
v -0.060204 1.364097 1.035206
v -0.060204 1.364097 0.983703
v -0.063386 1.364658 0.983703
v -0.063386 1.364658 1.035206
v -0.066183 1.366273 0.983703
v -0.066183 1.366273 1.035206
v -0.068260 1.368748 1.035206
v -0.068260 1.368748 0.983703
v -0.069365 1.371784 1.035206
v -0.069365 1.371784 0.983703
v -0.069365 1.375014 1.035206
v -0.069365 1.375014 0.983703
v -0.068260 1.378050 1.035206
v -0.068260 1.378050 0.983703
v -0.066183 1.380525 1.035206
v -0.066183 1.380525 0.983703
v -0.063386 1.382140 1.035206
v -0.063386 1.382140 0.983703
v -0.060204 1.382701 0.983703
v -0.060204 1.382701 1.035206
vt 0.000000 -0.777778
vt 0.250000 -0.722222
vt 0.250000 -0.777778
vt 0.000000 -0.722222
vt 0.250000 -0.777778
vt 0.000000 -0.722222
vt 0.000000 -0.777778
vt 0.250000 -0.722222
vt 0.250000 0.000000
vt 0.000000 -0.055556
vt 0.000000 0.000000
vt 0.250000 -0.055556
vt 0.000000 -0.111111
vt 0.250000 -0.111111
vt 0.000000 -0.166667
vt 0.250000 -0.166667
vt 0.000000 -0.222222
vt 0.250000 -0.222222
vt 0.250000 -0.277778
vt 0.000000 -0.277778
vt 0.250000 -0.333333
vt 0.000000 -0.333333
vt 0.000000 -0.388889
vt 0.250000 -0.388889
vt 0.000000 -0.444444
vt 0.250000 -0.444444
vt 0.000000 -0.500000
vt 0.250000 -0.500000
vt 0.250000 -0.555556
vt 0.000000 -0.555556
vt 0.250000 -0.611111
vt 0.000000 -0.611111
vt 0.250000 -0.666667
vt 0.000000 -0.666667
vt 0.000000 -0.833333
vt 0.250000 -0.833333
vt 0.250000 -0.888889
vt 0.000000 -0.888889
vt 0.250000 -0.944444
vt 0.000000 -0.944444
vt 0.250000 -1.000000
vt 0.000000 -1.000000
vt 0.000000 -0.055556
vt 0.250000 0.000000
vt 0.000000 0.000000
vt 0.250000 -0.055556
vt 0.000000 -0.111111
vt 0.250000 -0.111111
vt 0.000000 -0.166667
vt 0.250000 -0.166667
vt 0.000000 -0.222222
vt 0.250000 -0.222222
vt 0.000000 -0.277778
vt 0.250000 -0.277778
vt 0.000000 -0.333333
vt 0.250000 -0.333333
vt 0.000000 -0.388889
vt 0.250000 -0.388889
vt 0.000000 -0.444444
vt 0.250000 -0.444444
vt 0.000000 -0.500000
vt 0.250000 -0.500000
vt 0.000000 -0.555556
vt 0.250000 -0.555556
vt 0.000000 -0.611111
vt 0.250000 -0.611111
vt 0.000000 -0.666667
vt 0.250000 -0.666667
vt 0.000000 -0.833333
vt 0.250000 -0.833333
vt 0.000000 -0.888889
vt 0.250000 -0.888889
vt 0.000000 -0.944444
vt 0.250000 -0.944444
vt 0.000000 -1.000000
vt 0.250000 -1.000000
vt 0.250000 0.000000
vt 0.000000 -0.055556
vt 0.000000 0.000000
vt 0.250000 -0.055556
vt 0.000000 -0.111111
vt 0.250000 -0.111111
vt 0.250000 -0.166667
vt 0.000000 -0.166667
vt 0.250000 -0.222222
vt 0.000000 -0.222222
vt 0.250000 -0.277778
vt 0.000000 -0.277778
vt 0.000000 -0.333333
vt 0.250000 -0.333333
vt 0.250000 -0.388889
vt 0.000000 -0.388889
vt 0.000000 -0.444444
vt 0.250000 -0.444444
vt 0.250000 -0.500000
vt 0.000000 -0.500000
vt 0.000000 -0.555556
vt 0.250000 -0.555556
vt 0.000000 -0.611111
vt 0.250000 -0.611111
vt 0.250000 -0.666667
vt 0.000000 -0.666667
vt 0.250000 -0.722222
vt 0.000000 -0.722222
vt 0.250000 -0.777778
vt 0.000000 -0.777778
vt 0.250000 -0.833333
vt 0.000000 -0.833333
vt 0.250000 -0.888889
vt 0.000000 -0.888889
vt 0.000000 -0.944444
vt 0.250000 -0.944444
vt 0.250000 -1.000000
vt 0.000000 -1.000000
vt 0.250000 0.000000
vt 0.000000 -0.055556
vt 0.250000 -0.055556
vt 0.000000 0.000000
vt 0.000000 -0.111111
vt 0.250000 -0.111111
vt 0.000000 -0.166667
vt 0.250000 -0.166667
vt 0.000000 -0.222222
vt 0.250000 -0.222222
vt 0.000000 -0.277778
vt 0.250000 -0.277778
vt 0.000000 -0.333333
vt 0.250000 -0.333333
vt 0.000000 -0.388889
vt 0.250000 -0.388889
vt 0.000000 -0.444444
vt 0.250000 -0.444444
vt 0.250000 -0.500000
vt 0.000000 -0.500000
vt 0.000000 -0.555556
vt 0.250000 -0.555556
vt 0.000000 -0.611111
vt 0.250000 -0.611111
vt 0.250000 -0.666667
vt 0.000000 -0.666667
vt 0.250000 -0.722222
vt 0.000000 -0.722222
vt 0.250000 -0.777778
vt 0.000000 -0.777778
vt 0.250000 -0.833333
vt 0.000000 -0.833333
vt 0.250000 -0.888889
vt 0.000000 -0.888889
vt 0.250000 -0.944444
vt 0.000000 -0.944444
vt 0.000000 -1.000000
vt 0.250000 -1.000000
vn 0.0000 0.0000 -1.0000
vn 0.2056 0.9631 0.1737
vn 0.1962 0.9190 0.3421
vn 0.1962 0.9190 0.3420
vn 0.1727 0.8091 0.5617
vn 0.1727 0.8092 0.5616
vn 0.0926 0.4337 0.8963
vn 0.0018 0.0084 1.0000
vn 0.0359 0.1682 0.9851
vn -0.0716 -0.3355 0.9393
vn -0.1807 -0.8467 0.5005
vn -0.1962 -0.9190 0.3420
vn -0.2087 -0.9780 -0.0000
vn -0.1962 -0.9190 -0.3420
vn -0.1844 -0.8640 -0.4685
vn -0.1844 -0.8640 -0.4686
vn -0.1265 -0.5924 -0.7956
vn -0.1265 -0.5925 -0.7956
vn -0.0190 -0.0892 -0.9958
vn -0.0190 -0.0891 -0.9958
vn 0.0819 0.3837 -0.9198
vn -0.0186 -0.0873 -0.9960
vn 0.0819 0.3836 -0.9199
vn 0.1775 0.8313 -0.5267
vn 0.1962 0.9190 -0.3420
vn 0.1962 0.9189 -0.3421
vn 0.2056 0.9631 -0.1737
vn -0.1962 0.9190 0.3421
vn -0.2056 0.9631 0.1737
vn -0.1962 0.9190 0.3420
vn -0.1727 0.8091 0.5617
vn -0.0926 0.4337 0.8963
vn -0.0018 0.0084 1.0000
vn -0.0359 0.1682 0.9851
vn 0.0716 -0.3355 0.9393
vn 0.1807 -0.8467 0.5005
vn 0.1962 -0.9190 0.3420
vn 0.2087 -0.9780 -0.0000
vn 0.1962 -0.9190 -0.3420
vn 0.1844 -0.8640 -0.4686
vn 0.1844 -0.8640 -0.4685
vn 0.1265 -0.5925 -0.7956
vn 0.1265 -0.5924 -0.7956
vn 0.0190 -0.0892 -0.9958
vn 0.0190 -0.0891 -0.9958
vn -0.0819 0.3837 -0.9198
vn 0.0186 -0.0873 -0.9960
vn -0.0819 0.3836 -0.9199
vn -0.1775 0.8313 -0.5267
vn -0.1962 0.9190 -0.3421
vn -0.2056 0.9631 -0.1737
vn 0.1737 -0.9848 0.0000
vn 0.3420 -0.9397 0.0000
vn 0.6428 -0.7661 0.0000
vn 0.8660 -0.5000 0.0000
vn 0.9848 -0.1736 0.0000
vn 0.9848 0.1736 0.0000
vn 0.8660 0.5000 0.0000
vn 0.6428 0.7661 0.0000
vn 0.3420 0.9397 0.0000
vn 0.0000 1.0000 0.0000
vn -0.3420 0.9397 0.0000
vn -0.6428 0.7661 0.0000
vn -0.8660 0.5000 0.0000
vn -0.9848 0.1736 0.0000
vn -0.9848 -0.1736 0.0000
vn -0.8660 -0.5000 0.0000
vn -0.6428 -0.7661 0.0000
vn -0.3420 -0.9397 0.0000
vn -0.1737 -0.9848 0.0000
usemtl plastic_interior.001
s off
f 29/1/1 27/2/1 30/3/1
f 27/2/1 29/1/1 28/4/1
f 67/5/1 66/6/1 68/7/1
f 66/6/1 67/5/1 65/8/1
s 1
f 1/9/2 2/10/3 3/11/2
f 2/10/3 1/9/2 4/12/4
f 4/12/4 5/13/5 2/10/3
f 5/13/5 4/12/4 6/14/6
f 6/14/6 7/15/7 5/13/5
f 7/15/7 6/14/6 8/16/7
f 8/16/7 9/17/8 7/15/7
f 9/17/8 8/16/7 10/18/8
f 9/17/8 10/18/8 11/19/9
f 9/17/8 11/19/9 12/20/9
f 12/20/9 11/19/9 13/21/10
f 12/20/9 13/21/10 14/22/10
f 13/21/10 15/23/11 14/22/10
f 15/23/11 13/21/10 16/24/11
f 16/24/11 17/25/12 15/23/11
f 17/25/12 16/24/11 18/26/12
f 18/26/12 19/27/13 17/25/12
f 19/27/13 18/26/12 20/28/13
f 19/27/13 20/28/13 21/29/14
f 19/27/13 21/29/14 22/30/14
f 22/30/14 21/29/14 23/31/15
f 22/30/14 23/31/15 24/32/16
f 24/32/16 23/31/15 25/33/17
f 24/32/16 25/33/17 26/34/18
f 27/2/19 28/4/20 26/34/18
f 26/34/18 25/33/17 27/2/19
f 31/35/21 30/3/22 32/36/23
f 30/3/22 31/35/21 29/1/22
f 31/35/21 32/36/23 33/37/24
f 31/35/21 33/37/24 34/38/24
f 34/38/24 33/37/24 35/39/25
f 34/38/24 35/39/25 36/40/26
f 36/40/26 35/39/25 37/41/27
f 36/40/26 37/41/27 38/42/27
f 39/43/28 40/44/29 41/45/29
f 40/44/29 39/43/28 42/46/30
f 43/47/31 42/46/30 39/43/28
f 42/46/30 43/47/31 44/48/31
f 45/49/32 44/48/31 43/47/31
f 44/48/31 45/49/32 46/50/32
f 47/51/33 46/50/32 45/49/32
f 46/50/32 47/51/33 48/52/33
f 49/53/34 48/52/33 47/51/33
f 48/52/33 49/53/34 50/54/34
f 51/55/35 50/54/34 49/53/34
f 50/54/34 51/55/35 52/56/35
f 53/57/36 52/56/35 51/55/35
f 52/56/35 53/57/36 54/58/36
f 55/59/37 54/58/36 53/57/36
f 54/58/36 55/59/37 56/60/37
f 57/61/38 56/60/37 55/59/37
f 56/60/37 57/61/38 58/62/38
f 59/63/39 60/64/39 57/61/38
f 58/62/38 57/61/38 60/64/39
f 61/65/40 62/66/41 59/63/39
f 60/64/39 59/63/39 62/66/41
f 63/67/42 64/68/43 61/65/40
f 62/66/41 61/65/40 64/68/43
f 65/8/44 63/67/42 66/6/45
f 63/67/42 65/8/44 64/68/43
f 69/69/46 67/5/47 68/7/47
f 67/5/47 69/69/46 70/70/48
f 71/71/49 72/72/49 69/69/46
f 70/70/48 69/69/46 72/72/49
f 73/73/50 74/74/50 71/71/49
f 72/72/49 71/71/49 74/74/50
f 75/75/51 76/76/51 73/73/50
f 74/74/50 73/73/50 76/76/51
f 77/77/52 78/78/53 79/79/52
f 78/78/53 77/77/52 80/80/53
f 80/80/53 81/81/54 78/78/53
f 81/81/54 80/80/53 82/82/54
f 81/81/54 82/82/54 83/83/55
f 81/81/54 83/83/55 84/84/55
f 84/84/55 83/83/55 85/85/56
f 84/84/55 85/85/56 86/86/56
f 87/87/57 86/86/56 85/85/56
f 86/86/56 87/87/57 88/88/57
f 87/87/57 89/89/58 88/88/57
f 89/89/58 87/87/57 90/90/58
f 89/89/58 90/90/58 91/91/59
f 89/89/58 91/91/59 92/92/59
f 93/93/60 91/91/59 94/94/60
f 91/91/59 93/93/60 92/92/59
f 95/95/61 96/96/61 93/93/60
f 93/93/60 94/94/60 95/95/61
f 97/97/62 95/95/61 98/98/62
f 95/95/61 97/97/62 96/96/61
f 99/99/63 98/98/62 100/100/63
f 98/98/62 99/99/63 97/97/62
f 101/101/64 102/102/64 99/99/63
f 101/101/64 99/99/63 100/100/63
f 103/103/65 104/104/65 102/102/64
f 103/103/65 102/102/64 101/101/64
f 105/105/66 106/106/66 104/104/65
f 105/105/66 104/104/65 103/103/65
f 107/107/67 108/108/67 106/106/66
f 107/107/67 106/106/66 105/105/66
f 109/109/68 110/110/68 108/108/67
f 109/109/68 108/108/67 107/107/67
f 109/109/68 111/111/69 110/110/68
f 111/111/69 109/109/68 112/112/69
f 113/113/70 111/111/69 112/112/69
f 111/111/69 113/113/70 114/114/70
f 115/115/70 116/116/69 117/117/69
f 116/116/69 115/115/70 118/118/70
f 117/117/69 119/119/68 120/120/68
f 119/119/68 117/117/69 116/116/69
f 121/121/67 122/122/67 119/119/68
f 120/120/68 119/119/68 122/122/67
f 123/123/66 122/122/67 121/121/67
f 122/122/67 123/123/66 124/124/66
f 125/125/65 126/126/65 123/123/66
f 124/124/66 123/123/66 126/126/65
f 127/127/64 128/128/64 125/125/65
f 126/126/65 125/125/65 128/128/64
f 129/129/63 130/130/63 127/127/64
f 128/128/64 127/127/64 130/130/63
f 131/131/62 132/132/62 129/129/63
f 129/129/63 132/132/62 130/130/63
f 133/133/61 131/131/62 134/134/61
f 131/131/62 133/133/61 132/132/62
f 135/135/60 136/136/60 134/134/61
f 134/134/61 136/136/60 133/133/61
f 137/137/59 136/136/60 135/135/60
f 136/136/60 137/137/59 138/138/59
f 139/139/58 137/137/59 140/140/58
f 137/137/59 139/139/58 138/138/59
f 141/141/57 140/140/58 142/142/57
f 140/140/58 141/141/57 139/139/58
f 143/143/56 142/142/57 144/144/56
f 142/142/57 143/143/56 141/141/57
f 145/145/55 144/144/56 146/146/55
f 144/144/56 145/145/55 143/143/56
f 147/147/54 146/146/55 148/148/54
f 146/146/55 147/147/54 145/145/55
f 147/147/54 148/148/54 149/149/53
f 149/149/53 148/148/54 150/150/53
f 149/149/53 151/151/52 152/152/52
f 151/151/52 149/149/53 150/150/53
