# Blender v3.1.2 OBJ File: 'car.blend'
# www.blender.org
mtllib Mesh_126.001.mtl
o Mesh_126_Mesh_126.001
v 0.137994 1.415005 0.796071
v 0.140002 1.414542 0.796073
v 0.137992 1.415006 0.796581
v 0.140009 1.414537 0.796581
v 0.135972 1.414534 0.796581
v 0.135984 1.414542 0.796073
v 0.134370 1.413332 0.796581
v 0.134371 1.413334 0.796072
v 0.133388 1.411582 0.796072
v 0.133388 1.411580 0.796581
v 0.133198 1.409588 0.796071
v 0.133198 1.409585 0.796580
v 0.133831 1.407691 0.796069
v 0.133832 1.407689 0.796579
v 0.135175 1.406214 0.796069
v 0.135177 1.406213 0.796580
v 0.136998 1.405408 0.796069
v 0.137002 1.405407 0.796581
v 0.138995 1.405409 0.796068
v 0.138996 1.405409 0.796580
v 0.140822 1.406220 0.796069
v 0.140829 1.406225 0.796579
v 0.142159 1.407697 0.796068
v 0.142163 1.407702 0.796579
v 0.142789 1.409594 0.796071
v 0.142789 1.409596 0.796580
v 0.142596 1.411587 0.796072
v 0.142596 1.411588 0.796581
v 0.141614 1.413337 0.796073
v 0.141613 1.413339 0.796581
v 0.141616 1.413334 0.795558
v 0.142597 1.411584 0.795556
v 0.140004 1.414540 0.795558
v 0.140043 1.414639 0.795096
v 0.141739 1.413407 0.795071
v 0.137994 1.415004 0.795559
v 0.138005 1.415128 0.795084
v 0.135990 1.414546 0.795561
v 0.135974 1.414663 0.795094
v 0.134374 1.413339 0.795559
v 0.134327 1.413414 0.795111
v 0.133317 1.411638 0.795112
v 0.133389 1.411588 0.795558
v 0.133109 1.409615 0.795113
v 0.133196 1.409594 0.795558
v 0.133738 1.407679 0.795111
v 0.133828 1.407696 0.795554
v 0.135171 1.406217 0.795551
v 0.135096 1.406164 0.795108
v 0.136946 1.405320 0.795102
v 0.136993 1.405408 0.795549
v 0.138984 1.405309 0.795103
v 0.138986 1.405407 0.795548
v 0.140813 1.406214 0.795550
v 0.140843 1.406141 0.795115
v 0.142211 1.407639 0.795117
v 0.142157 1.407694 0.795553
v 0.142864 1.409561 0.795113
v 0.142788 1.409591 0.795555
v 0.142682 1.411591 0.795109
v 0.143082 1.411737 0.794825
v 0.143292 1.409533 0.794825
v 0.141992 1.413677 0.794826
v 0.142283 1.413968 0.794840
v 0.143463 1.411894 0.794841
v 0.140205 1.415013 0.794825
v 0.140362 1.415394 0.794840
v 0.138012 1.415539 0.794810
v 0.138011 1.415957 0.794860
v 0.135816 1.415038 0.794825
v 0.135628 1.415444 0.794866
v 0.133707 1.413981 0.794843
v 0.134034 1.413696 0.794841
v 0.132917 1.411784 0.794827
v 0.132526 1.411907 0.794841
v 0.132661 1.409573 0.794808
v 0.132281 1.409535 0.794841
v 0.133013 1.407272 0.794841
v 0.133366 1.407468 0.794821
v 0.134595 1.405500 0.794843
v 0.134843 1.405821 0.794821
v 0.136762 1.404507 0.794852
v 0.136860 1.404910 0.794819
v 0.139094 1.404904 0.794818
v 0.139231 1.404507 0.794853
v 0.141112 1.405802 0.794821
v 0.141389 1.405497 0.794843
v 0.142594 1.407435 0.794824
v 0.142970 1.407266 0.794842
v 0.143705 1.409527 0.794841
v 0.144172 1.409458 0.795146
v 0.143372 1.407017 0.795146
v 0.143918 1.412018 0.795146
v 0.142651 1.414263 0.795146
v 0.140579 1.415811 0.795146
v 0.137992 1.416407 0.795146
v 0.135413 1.415816 0.795146
v 0.133337 1.414266 0.795148
v 0.132068 1.412021 0.795146
v 0.131813 1.409459 0.795146
v 0.132615 1.407016 0.795146
v 0.134335 1.405106 0.795146
v 0.136688 1.404053 0.795146
v 0.139310 1.404056 0.795147
v 0.141656 1.405109 0.795147
v 0.139580 1.413594 0.795116
v 0.137993 1.413964 0.795116
v 0.136404 1.413593 0.795116
v 0.135143 1.412647 0.795116
v 0.134370 1.411268 0.795116
v 0.134221 1.409698 0.795116
v 0.134720 1.408206 0.795114
v 0.135778 1.407045 0.795115
v 0.137213 1.406411 0.795116
v 0.138783 1.406413 0.795115
v 0.140225 1.407055 0.795114
v 0.141274 1.408217 0.795114
v 0.141767 1.409707 0.795116
v 0.141615 1.411275 0.795116
v 0.140842 1.412652 0.795116
v 0.144172 1.409458 0.797588
v 0.143372 1.407017 0.797588
v 0.143918 1.412018 0.797588
v 0.142651 1.414263 0.797588
v 0.140579 1.415811 0.797588
v 0.137992 1.416407 0.797588
v 0.135413 1.415816 0.797588
v 0.133337 1.414266 0.797589
v 0.132068 1.412021 0.797588
v 0.131813 1.409459 0.797588
v 0.132615 1.407016 0.797588
v 0.134335 1.405106 0.797588
v 0.136688 1.404053 0.797588
v 0.139310 1.404056 0.797589
v 0.141656 1.405109 0.797589
vt 0.499909 -0.886218
vt 0.337431 -0.848719
vt 0.500065 -0.886419
vt 0.336822 -0.848456
vt 0.663457 -0.848280
vt 0.662548 -0.848735
vt 0.793119 -0.751052
vt 0.793015 -0.751051
vt 0.872558 -0.609325
vt 0.872594 -0.609269
vt 0.887959 -0.447996
vt 0.887916 -0.447903
vt 0.836735 -0.294580
vt 0.836620 -0.294550
vt 0.727995 -0.175120
vt 0.727833 -0.175156
vt 0.580445 -0.109878
vt 0.580190 -0.109975
vt 0.418869 -0.110009
vt 0.418779 -0.110178
vt 0.271084 -0.175617
vt 0.270520 -0.176187
vt 0.162848 -0.295100
vt 0.162584 -0.295654
vt 0.111921 -0.448542
vt 0.111908 -0.448799
vt 0.127519 -0.609705
vt 0.127557 -0.609981
vt 0.206979 -0.751286
vt 0.207077 -0.751543
vt 0.206833 -0.750926
vt 0.127449 -0.609295
vt 0.337236 -0.848444
vt 0.334072 -0.856285
vt 0.196832 -0.756633
vt 0.499894 -0.885990
vt 0.498960 -0.895849
vt 0.662006 -0.848944
vt 0.663312 -0.858273
vt 0.792743 -0.751297
vt 0.796573 -0.757250
vt 0.878299 -0.613575
vt 0.872467 -0.609660
vt 0.895162 -0.449974
vt 0.888059 -0.448375
vt 0.844202 -0.293336
vt 0.836981 -0.294810
vt 0.728336 -0.175203
vt 0.734387 -0.170763
vt 0.584662 -0.102489
vt 0.580867 -0.109809
vt 0.419733 -0.101623
vt 0.419615 -0.109699
vt 0.271780 -0.174993
vt 0.269355 -0.168926
vt 0.158673 -0.290118
vt 0.163035 -0.294661
vt 0.105845 -0.445601
vt 0.111977 -0.448084
vt 0.120563 -0.609771
vt 0.088219 -0.621471
vt 0.071177 -0.443227
vt 0.176358 -0.778431
vt 0.152825 -0.801932
vt 0.057352 -0.634219
vt 0.320944 -0.886491
vt 0.308275 -0.917289
vt 0.498426 -0.929032
vt 0.498520 -0.962882
vt 0.676098 -0.888506
vt 0.691327 -0.921322
vt 0.846713 -0.802983
vt 0.820300 -0.779957
vt 0.910634 -0.625308
vt 0.942294 -0.635262
vt 0.931410 -0.446460
vt 0.962108 -0.443359
vt 0.902886 -0.260342
vt 0.874347 -0.276166
vt 0.774864 -0.116983
vt 0.754822 -0.142978
vt 0.599520 -0.036645
vt 0.591644 -0.069250
vt 0.410840 -0.068818
vt 0.399819 -0.036723
vt 0.247575 -0.141421
vt 0.225160 -0.116776
vt 0.127644 -0.273520
vt 0.097240 -0.259891
vt 0.037809 -0.442742
vt 0.000003 -0.437286
vt 0.064741 -0.239770
vt 0.020546 -0.644331
vt 0.123027 -0.825874
vt 0.290724 -0.951138
vt 0.500070 -0.999334
vt 0.708736 -0.951510
vt 0.876698 -0.826185
vt 0.979385 -0.644554
vt 0.999971 -0.437296
vt 0.935115 -0.239687
vt 0.795956 -0.085220
vt 0.605515 -0.000045
vt 0.393376 -0.000260
vt 0.203569 -0.085445
vt 0.371543 -0.771814
vt 0.499990 -0.801684
vt 0.628553 -0.771675
vt 0.730578 -0.695171
vt 0.793111 -0.583611
vt 0.805168 -0.456640
vt 0.764806 -0.335976
vt 0.679208 -0.242031
vt 0.563036 -0.190744
vt 0.436030 -0.190904
vt 0.319374 -0.242843
vt 0.234445 -0.336845
vt 0.194570 -0.457347
vt 0.206884 -0.584172
vt 0.269453 -0.695559
vt 0.000033 -0.437994
vt 0.064772 -0.240478
vt 0.020576 -0.645039
vt 0.123057 -0.826582
vt 0.290754 -0.951846
vt 0.500100 -1.000042
vt 0.708767 -0.952218
vt 0.876729 -0.826893
vt 0.979416 -0.645263
vt 1.000002 -0.438004
vt 0.935145 -0.240395
vt 0.795986 -0.085928
vt 0.605546 -0.000752
vt 0.393407 -0.000969
vt 0.203600 -0.086154
vn -0.0007 -1.0000 0.0017
vn -0.4197 -0.9077 -0.0003
vn 0.0003 -0.4195 -0.9078
vn -0.1757 -0.3667 -0.9136
vn 0.1769 -0.3648 -0.9141
vn 0.4208 -0.9072 -0.0032
vn 0.3074 -0.2673 -0.9133
vn 0.7523 -0.6588 -0.0011
vn 0.9545 -0.2983 -0.0013
vn 0.3887 -0.1203 -0.9135
vn 0.9935 0.1135 -0.0011
vn 0.4039 0.0480 -0.9135
vn 0.8626 0.5059 -0.0005
vn 0.3501 0.2067 -0.9136
vn 0.5844 0.8115 -0.0005
vn 0.2367 0.3299 -0.9139
vn 0.2063 0.9785 -0.0008
vn 0.0828 0.3981 -0.9136
vn -0.2084 0.9780 -0.0000
vn -0.0850 0.3981 -0.9134
vn -0.5863 0.8101 0.0004
vn -0.2410 0.3274 -0.9136
vn -0.8637 0.5041 0.0009
vn -0.3521 0.2033 -0.9136
vn -0.9938 0.1116 0.0005
vn -0.4042 0.0452 -0.9136
vn -0.9541 -0.2995 0.0001
vn -0.3879 -0.1215 -0.9136
vn -0.7516 -0.6596 0.0012
vn -0.3068 -0.2696 -0.9128
vn -0.7449 -0.6531 -0.1365
vn -0.9495 -0.2998 -0.0926
vn -0.4208 -0.8999 -0.1147
vn -0.3408 -0.7304 -0.5920
vn -0.5982 -0.5089 -0.6190
vn 0.0006 -0.9917 -0.1287
vn -0.0036 -0.7947 -0.6069
vn 0.4204 -0.8993 -0.1206
vn 0.3314 -0.7296 -0.5982
vn 0.7499 -0.6544 -0.0968
vn 0.6117 -0.5419 -0.5764
vn 0.7791 -0.2505 -0.5747
vn 0.9502 -0.2965 -0.0954
vn 0.8148 0.0844 -0.5735
vn 0.9888 0.1142 -0.0965
vn 0.7092 0.4077 -0.5751
vn 0.8571 0.5061 -0.0964
vn 0.5824 0.8069 -0.0982
vn 0.4858 0.6563 -0.5773
vn 0.1756 0.7931 -0.5832
vn 0.2037 0.9730 -0.1086
vn -0.1613 0.7969 -0.5822
vn -0.2072 0.9724 -0.1070
vn -0.5842 0.8068 -0.0884
vn -0.4775 0.6710 -0.5672
vn -0.7080 0.4222 -0.5661
vn -0.8608 0.5017 -0.0855
vn -0.8152 0.0998 -0.5706
vn -0.9899 0.1105 -0.0892
vn -0.7826 -0.2377 -0.5754
vn -0.2228 -0.0705 -0.9723
vn -0.2323 0.0252 -0.9723
vn -0.1750 -0.1564 -0.9721
vn 0.2475 0.2212 -0.9433
vn 0.3167 0.1027 -0.9430
vn -0.0960 -0.2142 -0.9721
vn 0.1388 0.3043 -0.9424
vn -0.0058 -0.1859 -0.9826
vn 0.0013 0.3630 -0.9318
vn 0.0849 -0.1851 -0.9790
vn -0.1451 0.3283 -0.9334
vn -0.2399 0.2162 -0.9464
vn 0.1884 -0.1692 -0.9674
vn 0.2275 -0.0704 -0.9712
vn -0.3149 0.1053 -0.9432
vn 0.2085 0.0219 -0.9778
vn -0.3495 -0.0352 -0.9363
vn -0.2930 -0.1680 -0.9412
vn 0.2006 0.1127 -0.9732
vn -0.1995 -0.2711 -0.9417
vn 0.1347 0.1821 -0.9740
vn -0.0749 -0.3396 -0.9376
vn 0.0446 0.2075 -0.9772
vn -0.0448 0.2067 -0.9774
vn 0.0758 -0.3419 -0.9367
vn -0.1349 0.1836 -0.9737
vn 0.2000 -0.2722 -0.9412
vn -0.2012 0.1167 -0.9726
vn 0.2897 -0.1655 -0.9427
vn 0.3311 -0.0341 -0.9430
vn 0.8860 -0.0977 -0.4532
vn 0.7709 -0.4468 -0.4539
vn 0.8504 0.2680 -0.4528
vn 0.6702 0.5883 -0.4525
vn 0.3756 0.8091 -0.4520
vn 0.0003 0.8912 -0.4536
vn -0.3767 0.8093 -0.4506
vn -0.6708 0.5888 -0.4510
vn -0.8503 0.2681 -0.4528
vn -0.8859 -0.0980 -0.4535
vn -0.7706 -0.4475 -0.4537
vn -0.5236 -0.7208 -0.4542
vn -0.1842 -0.8713 -0.4550
vn 0.1861 -0.8713 -0.4541
vn 0.5247 -0.7205 -0.4534
vn 0.2130 0.4575 -0.8633
vn -0.0001 0.5081 -0.8613
vn -0.2138 0.4575 -0.8631
vn -0.3807 0.3329 -0.8627
vn -0.4832 0.1508 -0.8624
vn -0.5034 -0.0574 -0.8621
vn -0.4370 -0.2564 -0.8621
vn -0.2960 -0.4119 -0.8618
vn -0.1046 -0.4974 -0.8612
vn 0.1055 -0.4964 -0.8616
vn 0.2975 -0.4105 -0.8619
vn 0.4380 -0.2546 -0.8622
vn 0.5036 -0.0560 -0.8621
vn 0.4831 0.1516 -0.8624
vn 0.3803 0.3335 -0.8626
vn 0.9941 -0.1087 0.0000
vn 0.8655 -0.5009 0.0000
vn 0.9535 0.3015 0.0000
vn 0.7508 0.6605 0.0000
vn 0.4205 0.9073 0.0000
vn 0.0006 1.0000 0.0000
vn -0.4199 0.9076 0.0000
vn -0.7505 0.6609 0.0000
vn -0.9533 0.3020 0.0000
vn -0.9941 -0.1088 0.0000
vn -0.8653 -0.5013 0.0000
vn -0.5885 -0.8085 0.0000
vn -0.2082 -0.9781 0.0000
vn 0.2100 -0.9777 0.0000
vn 0.5893 -0.8079 0.0000
usemtl led_red.001
s 1
f 1/1/1 2/2/2 3/3/3
f 4/4/4 3/3/3 2/2/2
f 3/3/3 5/5/5 6/6/6
f 3/3/3 6/6/6 1/1/1
f 5/5/5 7/7/7 8/8/8
f 5/5/5 8/8/8 6/6/6
f 9/9/9 8/8/8 7/7/7
f 7/7/7 10/10/10 9/9/9
f 11/11/11 9/9/9 10/10/10
f 10/10/10 12/12/12 11/11/11
f 13/13/13 11/11/11 12/12/12
f 12/12/12 14/14/14 13/13/13
f 15/15/15 13/13/13 14/14/14
f 14/14/14 16/16/16 15/15/15
f 17/17/17 15/15/15 16/16/16
f 17/17/17 16/16/16 18/18/18
f 19/19/19 17/17/17 18/18/18
f 19/19/19 18/18/18 20/20/20
f 21/21/21 19/19/19 20/20/20
f 21/21/21 20/20/20 22/22/22
f 23/23/23 22/22/22 24/24/24
f 22/22/22 23/23/23 21/21/21
f 25/25/25 24/24/24 26/26/26
f 24/24/24 25/25/25 23/23/23
f 27/27/27 26/26/26 28/28/28
f 26/26/26 27/27/27 25/25/25
f 29/29/29 28/28/28 30/30/30
f 28/28/28 29/29/29 27/27/27
f 4/4/4 29/29/29 30/30/30
f 29/29/29 4/4/4 2/2/2
f 31/31/31 27/27/27 29/29/29
f 27/27/27 31/31/31 32/32/32
f 29/29/29 2/2/2 33/33/33
f 29/29/29 33/33/33 31/31/31
f 34/34/34 31/31/31 33/33/33
f 31/31/31 34/34/34 35/35/35
f 33/33/33 36/36/36 37/37/37
f 33/33/33 37/37/37 34/34/34
f 2/2/2 36/36/36 33/33/33
f 36/36/36 2/2/2 1/1/1
f 38/38/38 37/37/37 36/36/36
f 37/37/37 38/38/38 39/39/39
f 1/1/1 38/38/38 36/36/36
f 38/38/38 1/1/1 6/6/6
f 40/40/40 39/39/39 38/38/38
f 39/39/39 40/40/40 41/41/41
f 6/6/6 40/40/40 38/38/38
f 40/40/40 6/6/6 8/8/8
f 42/42/42 41/41/41 40/40/40
f 40/40/40 43/43/43 42/42/42
f 8/8/8 43/43/43 40/40/40
f 43/43/43 8/8/8 9/9/9
f 44/44/44 42/42/42 43/43/43
f 43/43/43 45/45/45 44/44/44
f 9/9/9 45/45/45 43/43/43
f 45/45/45 9/9/9 11/11/11
f 46/46/46 44/44/44 45/45/45
f 45/45/45 47/47/47 46/46/46
f 11/11/11 47/47/47 45/45/45
f 47/47/47 11/11/11 13/13/13
f 46/46/46 48/48/48 49/49/49
f 48/48/48 46/46/46 47/47/47
f 13/13/13 48/48/48 47/47/47
f 48/48/48 13/13/13 15/15/15
f 50/50/50 49/49/49 48/48/48
f 50/50/50 48/48/48 51/51/51
f 15/15/15 51/51/51 48/48/48
f 51/51/51 15/15/15 17/17/17
f 52/52/52 50/50/50 51/51/51
f 52/52/52 51/51/51 53/53/53
f 17/17/17 53/53/53 51/51/51
f 53/53/53 17/17/17 19/19/19
f 52/52/52 54/54/54 55/55/55
f 54/54/54 52/52/52 53/53/53
f 19/19/19 54/54/54 53/53/53
f 54/54/54 19/19/19 21/21/21
f 56/56/56 54/54/54 57/57/57
f 54/54/54 56/56/56 55/55/55
f 57/57/57 21/21/21 23/23/23
f 21/21/21 57/57/57 54/54/54
f 58/58/58 57/57/57 59/59/59
f 57/57/57 58/58/58 56/56/56
f 59/59/59 23/23/23 25/25/25
f 23/23/23 59/59/59 57/57/57
f 60/60/60 59/59/59 32/32/32
f 59/59/59 60/60/60 58/58/58
f 32/32/32 25/25/25 27/27/27
f 25/25/25 32/32/32 59/59/59
f 61/61/61 62/62/62 60/60/60
f 60/60/60 62/62/62 58/58/58
f 35/35/35 61/61/61 60/60/60
f 61/61/61 35/35/35 63/63/63
f 35/35/35 60/60/60 31/31/31
f 31/31/31 60/60/60 32/32/32
f 64/64/64 65/65/65 63/63/63
f 61/61/61 63/63/63 65/65/65
f 64/64/64 66/66/66 67/67/67
f 66/66/66 64/64/64 63/63/63
f 34/34/34 63/63/63 35/35/35
f 63/63/63 34/34/34 66/66/66
f 67/67/67 68/68/68 69/69/69
f 68/68/68 67/67/67 66/66/66
f 34/34/34 37/37/37 66/66/66
f 68/68/68 66/66/66 37/37/37
f 69/69/69 70/70/70 71/71/71
f 70/70/70 69/69/69 68/68/68
f 37/37/37 70/70/70 68/68/68
f 70/70/70 37/37/37 39/39/39
f 72/72/72 70/70/70 73/73/73
f 70/70/70 72/72/72 71/71/71
f 73/73/73 39/39/39 41/41/41
f 39/39/39 73/73/73 70/70/70
f 74/74/74 72/72/72 73/73/73
f 72/72/72 74/74/74 75/75/75
f 74/74/74 41/41/41 42/42/42
f 41/41/41 74/74/74 73/73/73
f 75/75/75 76/76/76 77/77/77
f 76/76/76 75/75/75 74/74/74
f 42/42/42 76/76/76 74/74/74
f 76/76/76 42/42/42 44/44/44
f 78/78/78 77/77/77 76/76/76
f 78/78/78 76/76/76 79/79/79
f 44/44/44 79/79/79 76/76/76
f 79/79/79 44/44/44 46/46/46
f 80/80/80 78/78/78 79/79/79
f 80/80/80 79/79/79 81/81/81
f 46/46/46 81/81/81 79/79/79
f 81/81/81 46/46/46 49/49/49
f 82/82/82 81/81/81 83/83/83
f 81/81/81 82/82/82 80/80/80
f 83/83/83 81/81/81 50/50/50
f 50/50/50 81/81/81 49/49/49
f 84/84/84 82/82/82 83/83/83
f 82/82/82 84/84/84 85/85/85
f 52/52/52 83/83/83 50/50/50
f 83/83/83 52/52/52 84/84/84
f 85/85/85 86/86/86 87/87/87
f 86/86/86 85/85/85 84/84/84
f 55/55/55 84/84/84 52/52/52
f 84/84/84 55/55/55 86/86/86
f 87/87/87 88/88/88 89/89/89
f 88/88/88 87/87/87 86/86/86
f 55/55/55 56/56/56 86/86/86
f 88/88/88 86/86/86 56/56/56
f 89/89/89 62/62/62 90/90/90
f 62/62/62 89/89/89 88/88/88
f 56/56/56 58/58/58 88/88/88
f 62/62/62 88/88/88 58/58/58
f 91/91/91 89/89/89 90/90/90
f 89/89/89 91/91/91 92/92/92
f 93/93/93 90/90/90 65/65/65
f 90/90/90 93/93/93 91/91/91
f 65/65/65 90/90/90 61/61/61
f 61/61/61 90/90/90 62/62/62
f 94/94/94 65/65/65 64/64/64
f 65/65/65 94/94/94 93/93/93
f 64/64/64 95/95/95 94/94/94
f 95/95/95 64/64/64 67/67/67
f 69/69/69 95/95/95 67/67/67
f 96/96/96 95/95/95 69/69/69
f 69/69/69 71/71/71 96/96/96
f 97/97/97 96/96/96 71/71/71
f 98/98/98 97/97/97 72/72/72
f 72/72/72 97/97/97 71/71/71
f 75/75/75 98/98/98 72/72/72
f 98/98/98 75/75/75 99/99/99
f 77/77/77 99/99/99 75/75/75
f 99/99/99 77/77/77 100/100/100
f 77/77/77 78/78/78 100/100/100
f 101/101/101 100/100/100 78/78/78
f 78/78/78 80/80/80 101/101/101
f 102/102/102 101/101/101 80/80/80
f 103/103/103 102/102/102 82/82/82
f 82/82/82 102/102/102 80/80/80
f 85/85/85 103/103/103 82/82/82
f 103/103/103 85/85/85 104/104/104
f 85/85/85 105/105/105 104/104/104
f 105/105/105 85/85/85 87/87/87
f 87/87/87 92/92/92 105/105/105
f 92/92/92 87/87/87 89/89/89
f 3/3/3 106/106/106 107/107/107
f 106/106/106 3/3/3 4/4/4
f 108/108/108 3/3/3 107/107/107
f 3/3/3 108/108/108 5/5/5
f 109/109/109 5/5/5 108/108/108
f 5/5/5 109/109/109 7/7/7
f 109/109/109 10/10/10 7/7/7
f 10/10/10 109/109/109 110/110/110
f 110/110/110 12/12/12 10/10/10
f 12/12/12 110/110/110 111/111/111
f 111/111/111 112/112/112 12/12/12
f 12/12/12 112/112/112 14/14/14
f 16/16/16 14/14/14 113/113/113
f 14/14/14 112/112/112 113/113/113
f 18/18/18 113/113/113 114/114/114
f 113/113/113 18/18/18 16/16/16
f 20/20/20 114/114/114 115/115/115
f 114/114/114 20/20/20 18/18/18
f 22/22/22 20/20/20 116/116/116
f 20/20/20 115/115/115 116/116/116
f 24/24/24 116/116/116 117/117/117
f 116/116/116 24/24/24 22/22/22
f 26/26/26 117/117/117 118/118/118
f 117/117/117 26/26/26 24/24/24
f 119/119/119 28/28/28 26/26/26
f 119/119/119 26/26/26 118/118/118
f 120/120/120 30/30/30 28/28/28
f 120/120/120 28/28/28 119/119/119
f 4/4/4 120/120/120 106/106/106
f 120/120/120 4/4/4 30/30/30
f 113/113/113 116/116/116 115/115/115
f 110/110/110 119/119/119 111/111/111
f 109/109/109 119/119/119 110/110/110
f 119/119/119 109/109/109 120/120/120
f 112/112/112 118/118/118 117/117/117
f 113/113/113 117/117/117 116/116/116
f 106/106/106 108/108/108 107/107/107
f 120/120/120 109/109/109 106/106/106
f 118/118/118 111/111/111 119/119/119
f 117/117/117 113/113/113 112/112/112
f 113/113/113 115/115/115 114/114/114
f 111/111/111 118/118/118 112/112/112
f 108/108/108 106/106/106 109/109/109
f 121/121/121 122/122/122 91/91/91
f 91/91/91 122/122/122 92/92/92
f 123/123/123 121/121/121 93/93/93
f 93/93/93 121/121/121 91/91/91
f 124/124/124 123/123/123 94/94/94
f 94/94/94 123/123/123 93/93/93
f 94/94/94 95/95/95 124/124/124
f 95/95/95 125/125/125 124/124/124
f 95/95/95 96/96/96 125/125/125
f 96/96/96 126/126/126 125/125/125
f 96/96/96 97/97/97 126/126/126
f 97/97/97 127/127/127 126/126/126
f 97/97/97 98/98/98 127/127/127
f 98/98/98 128/128/128 127/127/127
f 98/98/98 129/129/129 128/128/128
f 129/129/129 98/98/98 99/99/99
f 129/129/129 99/99/99 100/100/100
f 129/129/129 100/100/100 130/130/130
f 130/130/130 100/100/100 101/101/101
f 130/130/130 101/101/101 131/131/131
f 131/131/131 101/101/101 102/102/102
f 131/131/131 102/102/102 132/132/132
f 132/132/132 103/103/103 133/133/133
f 103/103/103 132/132/132 102/102/102
f 133/133/133 104/104/104 134/134/134
f 104/104/104 133/133/133 103/103/103
f 135/135/135 104/104/104 105/105/105
f 104/104/104 135/135/135 134/134/134
f 122/122/122 105/105/105 92/92/92
f 105/105/105 122/122/122 135/135/135
