# Blender v3.1.2 OBJ File: 'car.blend'
# www.blender.org
mtllib Mesh_167.001.mtl
o Mesh_167_Mesh_167.001
v -0.930185 1.028984 -4.239484
v -0.929916 1.023823 -4.236081
v -0.930163 1.027928 -4.241010
v -0.929953 1.025589 -4.234088
v -0.930322 1.035091 -4.248539
v -0.930347 1.036302 -4.248259
v -0.930346 1.036248 -4.246729
v -0.930208 1.030075 -4.237963
v -0.929991 1.027375 -4.232079
v -0.955557 1.043842 -4.258917
v -0.987673 1.043863 -4.258908
v -0.987576 1.045685 -4.258819
v -0.955522 1.045699 -4.259046
v -1.088629 1.045061 -4.258528
v -1.088805 1.043282 -4.258893
v -0.987655 1.044819 -4.256451
v -1.088629 1.045061 -4.258528
v -1.088713 1.044072 -4.256035
v -0.987576 1.045685 -4.258819
v -0.955597 1.044929 -4.256780
v -0.955522 1.045699 -4.259046
v -0.938411 0.994272 -4.174611
v -0.956703 0.993916 -4.172849
v -0.956935 0.993021 -4.180335
v -0.938396 0.993280 -4.181713
v -0.929354 0.996967 -4.180380
v -0.929313 0.995050 -4.184621
v -0.938392 1.000310 -4.177601
v -0.929354 0.996967 -4.180380
v -0.929447 1.001405 -4.181023
v -0.938411 0.994272 -4.174611
v -0.956405 0.999873 -4.175768
v -0.956703 0.993916 -4.172849
v -0.989854 1.007483 -4.210446
v -0.956459 1.023480 -4.237861
v -0.956778 1.007705 -4.210377
v -0.989170 1.023442 -4.239642
v -0.956935 0.993021 -4.180335
v -0.990254 0.992558 -4.177858
v -1.092202 1.006592 -4.210533
v -1.092908 0.991362 -4.174723
v -1.091055 1.022786 -4.241899
v -0.938207 1.014007 -4.204730
v -0.955966 1.027078 -4.229993
v -0.956175 1.013540 -4.203141
v -0.938015 1.027498 -4.231194
v -0.929705 1.013755 -4.205810
v -0.929991 1.027375 -4.232079
v -0.955768 1.037578 -4.247021
v -0.937758 1.040937 -4.252808
v -0.955597 1.044929 -4.256780
v -0.937870 1.033783 -4.243550
v -0.930208 1.030075 -4.237963
v -0.930346 1.036248 -4.246729
v -0.956004 1.035450 -4.252695
v -0.988386 1.035480 -4.254069
v -1.089853 1.034909 -4.255811
v -0.929313 0.995050 -4.184621
v -0.929592 1.008366 -4.209968
v -0.929649 1.011055 -4.207940
v -0.929354 0.996967 -4.180380
v -0.929705 1.013755 -4.205810
v -0.929447 1.001405 -4.181023
v -0.937987 1.031380 -4.247774
v -0.930322 1.035091 -4.248539
v -0.930163 1.027928 -4.241010
v -0.937688 1.039775 -4.254769
v -0.938258 1.023500 -4.236869
v -0.929916 1.023823 -4.236081
v -0.987936 1.037112 -4.245791
v -1.088713 1.044072 -4.256035
v -1.089133 1.035914 -4.244235
v -0.987655 1.044819 -4.256451
v -0.988228 1.026321 -4.227831
v -1.089545 1.024756 -4.225092
v -0.988467 1.012700 -4.200283
v -1.089822 1.011029 -4.196663
v -0.988778 0.999089 -4.172470
v -1.090234 0.997488 -4.168297
v -0.938373 1.007830 -4.210339
v -0.929592 1.008366 -4.209968
v -0.929313 0.995050 -4.184621
v -0.938396 0.993280 -4.181713
v -1.091667 0.991859 -4.165681
v -0.990254 0.992558 -4.177858
v -0.989576 0.993277 -4.169685
v -1.092908 0.991362 -4.174723
v -0.989576 0.993277 -4.169685
v -1.091667 0.991859 -4.165681
v -0.930347 1.036302 -4.248259
v -0.937686 1.041652 -4.255018
v -0.937758 1.040937 -4.252808
v -0.937686 1.041652 -4.255018
v -0.930347 1.036302 -4.248259
v -0.930346 1.036248 -4.246729
vt -8.353800 -74.263161
vt -9.018313 -73.926971
vt -8.339028 -74.070175
vt -9.005185 -74.218300
vt -8.365382 -74.459320
vt -8.991436 -74.512611
vt -14.924550 -73.870255
vt -12.087319 -73.810959
vt -11.999060 -74.198372
vt -15.051149 -74.302681
vt -14.634930 -74.719055
vt -11.916750 -74.592506
vt -7.226851 -74.379471
vt -7.144195 -74.518547
vt -7.252514 -74.598526
vt 25.159479 -25.416309
vt 20.920200 -25.324770
vt 20.938019 -25.084518
vt 25.169209 -25.171370
vt 7.597419 -24.887430
vt 7.569250 -25.121870
vt 48.011448 -58.909500
vt 61.336239 -59.249527
vt 61.341419 -59.469028
vt 48.006859 -58.701050
vt 43.783890 -58.714630
vt 43.779728 -58.515240
vt -42.148781 -78.188789
vt -39.729099 -78.128777
vt -39.721809 -78.787460
vt -42.172501 -78.812500
vt -43.370750 -78.648277
vt -43.385361 -79.020699
vt 33.558289 -19.943409
vt 32.374451 -20.409590
vt 32.374458 -19.823589
vt 33.577480 -20.740370
vt 35.937187 -19.951319
vt 35.992920 -20.736820
vt 20.531719 -30.120869
vt 24.984030 -28.101620
vt 24.898329 -30.182949
vt 20.666090 -28.016169
vt 24.837059 -32.120781
vt 20.437630 -32.089878
vt 7.019419 -29.955460
vt 6.884111 -31.963820
vt 7.215668 -27.820990
vt 33.495979 -18.135860
vt 35.804028 -16.361410
vt 35.869019 -18.147869
vt 33.433361 -16.355629
vt 32.374451 -18.192659
vt 32.374458 -16.394039
vt 35.748878 -14.976001
vt 33.362301 -14.582450
vt 35.705879 -14.006109
vt 33.396778 -15.526400
vt 32.395699 -16.037039
vt 32.396858 -15.221880
vt 25.077219 -26.522770
vt 20.802900 -26.429310
vt 7.407730 -26.224129
vt 27.444170 -27.109909
vt 28.466228 -26.641239
vt 28.467409 -27.587200
vt 27.506929 -26.002569
vt 27.386610 -28.149309
vt 28.488649 -28.129690
vt 39.996227 -14.948560
vt 53.279488 -13.751169
vt 53.357548 -14.826839
vt 39.937809 -13.931950
vt 40.064720 -16.372179
vt 53.442799 -16.298620
vt 40.133907 -18.169470
vt 53.517227 -18.109819
vt 40.212578 -19.965250
vt 53.609077 -19.896049
vt 27.328178 -30.217449
vt 28.488649 -30.170898
vt 28.488649 -31.929409
vt 27.284880 -32.137890
vt -21.897310 -78.198051
vt -35.317238 -78.742500
vt -35.380558 -78.021187
vt -21.763329 -78.998505
vt 40.333920 -20.730249
vt 53.813747 -20.635130
vt 28.466228 -26.481329
vt 27.512320 -25.754789
vt 41.428448 -58.971569
vt 41.424530 -58.777058
vt 40.448071 -59.333138
vt 40.442799 -59.467487
vn 0.9990 0.0423 -0.0148
vn 0.9990 0.0406 -0.0174
vn 0.9989 0.0431 -0.0159
vn 0.9990 0.0412 -0.0180
vn 0.9998 0.0209 -0.0000
vn 0.9998 0.0210 0.0000
vn 0.9998 0.0211 -0.0008
vn 0.9995 0.0321 -0.0081
vn 0.9995 0.0304 -0.0065
vn 0.9998 0.0216 -0.0005
vn 0.9998 0.0223 0.0000
vn 0.9993 0.0349 -0.0104
vn 0.0703 -0.3242 -0.9434
vn 0.0077 -0.2404 -0.9706
vn -0.0018 0.0465 -0.9989
vn 0.0920 -0.0709 -0.9932
vn -0.0013 0.1996 -0.9799
vn 0.0090 -0.1014 -0.9948
vn -0.0023 0.9391 0.3436
vn -0.0053 0.9297 0.3682
vn -0.0054 0.9296 0.3686
vn -0.0022 0.9394 0.3429
vn 0.0750 0.9434 0.3230
vn 0.0659 0.9441 0.3229
vn 0.1575 -0.9784 0.1338
vn 0.0268 -0.9930 0.1152
vn 0.0259 -0.9924 0.1202
vn 0.2042 -0.9632 0.1747
vn 0.3204 -0.8964 0.3062
vn 0.2961 -0.8693 0.3959
vn 0.1641 0.6667 0.7270
vn 0.3635 0.2333 0.9019
vn 0.2046 0.6459 0.7355
vn 0.2125 0.4322 0.8764
vn 0.0534 0.7035 0.7087
vn 0.0793 0.4346 0.8971
vn 0.0086 -0.8919 -0.4521
vn 0.0226 -0.8299 -0.5574
vn 0.0065 -0.8812 -0.4728
vn 0.0222 -0.8267 -0.5623
vn -0.0129 -0.9013 -0.4329
vn -0.0056 -0.9105 -0.4135
vn 0.0044 -0.9041 -0.4273
vn -0.0012 -0.9202 -0.3914
vn 0.0146 -0.8277 -0.5610
vn 0.0483 0.8916 0.4502
vn 0.0198 0.8767 0.4806
vn 0.0161 0.8937 0.4483
vn 0.0419 0.8916 0.4509
vn 0.0817 0.8897 0.4492
vn 0.0618 0.8979 0.4358
vn 0.0330 0.8226 0.5677
vn 0.0332 0.7925 0.6090
vn 0.0221 0.7984 0.6018
vn 0.0325 0.8349 0.5495
vn 0.0558 0.8773 0.4766
vn -0.0117 0.8034 0.5953
vn 0.0252 -0.6829 -0.7301
vn 0.0204 -0.6418 -0.7666
vn 0.0191 -0.5814 -0.8134
vn 0.9994 0.0325 -0.0098
vn 0.9995 0.0310 -0.0088
vn 0.9996 0.0285 -0.0067
vn 0.1280 -0.7240 -0.6779
vn 0.4533 -0.4196 -0.7865
vn 0.1610 -0.7662 -0.6221
vn 0.3350 -0.3577 -0.8717
vn 0.0642 -0.8321 -0.5509
vn 0.0850 -0.8158 -0.5721
vn 0.0043 0.8343 0.5513
vn -0.0012 0.8216 0.5701
vn -0.0005 0.8440 0.5364
vn 0.0028 0.8090 0.5878
vn 0.0058 0.8775 0.4796
vn 0.0002 0.8830 0.4694
vn 0.0089 0.8970 0.4419
vn 0.0019 0.9011 0.4336
vn 0.0369 0.6984 0.7147
vn 0.0191 0.6763 0.7364
vn 0.0384 -0.8745 -0.4836
vn 0.0737 -0.8706 -0.4865
vn 0.0355 -0.8899 -0.4548
vn 0.0055 -0.8942 -0.4476
vn 0.0134 -0.9984 0.0546
vn 0.0218 -0.9960 0.0872
vn 0.0224 -0.9961 0.0858
vn 0.0132 -0.9985 0.0530
vn 0.0520 0.4255 0.9035
vn 0.0299 0.4150 0.9093
vn 0.6952 0.1536 -0.7022
vn 0.3604 -0.1209 -0.9249
vn 0.2928 0.9096 0.2946
vn 0.2125 0.9274 0.3078
vn 0.5072 0.8603 0.0504
vn 0.5169 0.8555 0.0299
usemtl carbon.001
s off
f 1/1/1 2/2/1 3/3/1
f 2/2/2 1/1/2 4/4/2
f 4/4/3 1/1/3 8/5/3
f 4/4/4 8/5/4 9/6/4
f 58/7/5 59/8/5 60/9/5
f 58/7/6 60/9/6 61/10/6
f 60/9/5 63/11/5 61/10/5
f 63/11/6 60/9/6 62/12/6
s 1
f 5/13/7 1/1/8 3/3/9
f 1/1/8 5/13/7 6/14/10
f 7/15/11 1/1/8 6/14/10
f 1/1/8 7/15/11 8/5/12
f 10/16/13 11/17/14 12/18/15
f 10/16/13 12/18/15 13/19/16
f 14/20/17 12/18/15 11/17/14
f 11/17/14 15/21/18 14/20/17
f 16/22/19 17/23/20 18/24/21
f 17/23/20 16/22/19 19/25/22
f 20/26/23 19/25/22 16/22/19
f 19/25/22 20/26/23 21/27/24
f 22/28/25 23/29/26 24/30/27
f 22/28/25 24/30/27 25/31/28
f 26/32/29 22/28/25 25/31/28
f 26/32/29 25/31/28 27/33/30
f 28/34/31 29/35/32 30/36/33
f 29/35/32 28/34/31 31/37/34
f 32/38/35 31/37/34 28/34/31
f 31/37/34 32/38/35 33/39/36
f 34/40/37 35/41/38 36/42/39
f 35/41/38 34/40/37 37/43/40
f 38/44/41 34/40/37 36/42/39
f 34/40/37 38/44/41 39/45/42
f 39/45/42 40/46/43 34/40/37
f 40/46/43 39/45/42 41/47/44
f 34/40/37 42/48/45 37/43/40
f 42/48/45 34/40/37 40/46/43
f 43/49/46 44/50/47 45/51/48
f 44/50/47 43/49/46 46/52/49
f 28/34/31 45/51/48 32/38/35
f 45/51/48 28/34/31 43/49/46
f 30/36/33 43/49/46 28/34/31
f 43/49/46 30/36/33 47/53/50
f 47/53/50 46/52/49 43/49/46
f 46/52/49 47/53/50 48/54/51
f 49/55/52 50/56/53 51/57/54
f 50/56/53 49/55/52 52/58/55
f 44/50/47 52/58/55 49/55/52
f 52/58/55 44/50/47 46/52/49
f 46/52/49 53/59/56 52/58/55
f 53/59/56 46/52/49 48/54/51
f 52/58/55 54/60/57 50/56/53
f 54/60/57 52/58/55 53/59/56
f 55/61/58 11/17/14 10/16/13
f 11/17/14 55/61/58 56/62/59
f 37/43/40 55/61/58 35/41/38
f 55/61/58 37/43/40 56/62/59
f 37/43/40 57/63/60 56/62/59
f 57/63/60 37/43/40 42/48/45
f 56/62/59 15/21/18 11/17/14
f 15/21/18 56/62/59 57/63/60
f 59/8/5 2/2/61 4/4/62
f 59/8/5 4/4/62 60/9/6
f 60/9/6 4/4/62 9/6/63
f 60/9/6 9/6/63 62/12/6
f 64/64/64 65/65/65 66/66/66
f 64/64/64 67/67/67 65/65/65
f 68/68/68 66/66/66 69/69/69
f 68/68/68 64/64/64 66/66/66
f 35/41/38 64/64/64 68/68/68
f 64/64/64 35/41/38 55/61/58
f 55/61/58 67/67/67 64/64/64
f 67/67/67 55/61/58 10/16/13
f 70/70/70 71/71/71 72/72/72
f 71/71/71 70/70/70 73/73/73
f 74/74/74 72/72/72 75/75/75
f 72/72/72 74/74/74 70/70/70
f 44/50/47 70/70/70 74/74/74
f 70/70/70 44/50/47 49/55/52
f 49/55/52 73/73/73 70/70/70
f 73/73/73 49/55/52 51/57/54
f 76/76/76 75/75/75 77/77/77
f 75/75/75 76/76/76 74/74/74
f 78/78/78 77/77/77 79/79/79
f 77/77/77 78/78/78 76/76/76
f 32/38/35 76/76/76 78/78/78
f 76/76/76 32/38/35 45/51/48
f 45/51/48 74/74/74 76/76/76
f 74/74/74 45/51/48 44/50/47
f 80/80/80 69/69/69 81/81/81
f 69/69/69 80/80/80 68/68/68
f 82/82/82 80/80/80 81/81/81
f 80/80/80 82/82/82 83/83/83
f 83/83/83 36/42/39 80/80/80
f 36/42/39 83/83/83 38/44/41
f 36/42/39 68/68/68 80/80/80
f 68/68/68 36/42/39 35/41/38
f 84/84/84 85/85/85 86/86/86
f 85/85/85 84/84/84 87/87/87
f 23/29/26 86/86/86 85/85/85
f 23/29/26 85/85/85 24/30/27
f 78/78/78 33/39/36 32/38/35
f 33/39/36 78/78/78 88/88/88
f 79/79/79 88/88/88 78/78/78
f 88/88/88 79/79/79 89/89/89
f 67/67/67 90/90/90 65/65/65
f 90/90/90 67/67/67 91/91/91
f 10/16/13 91/91/91 67/67/67
f 91/91/91 10/16/13 13/19/16
f 20/26/23 92/92/92 93/93/93
f 20/26/23 93/93/93 21/27/24
f 92/92/92 94/94/94 93/93/93
f 92/92/92 95/95/95 94/94/94
