# Blender v3.1.2 OBJ File: 'car.blend'
# www.blender.org
mtllib Mesh_4.001.mtl
o Mesh_4_Mesh_4.001
v 0.001788 1.517608 1.636966
v 0.001788 1.425712 1.636966
v 0.001596 1.517608 1.636126
v 0.001596 1.425712 1.636126
v 0.001596 1.517608 1.636126
v 0.001596 1.425712 1.636126
v 0.001059 1.517608 1.635452
v 0.001059 1.425712 1.635452
v 0.000282 1.517608 1.635078
v 0.000282 1.425712 1.635078
v -0.000580 1.517608 1.635078
v -0.000580 1.425712 1.635078
v -0.001357 1.517608 1.635452
v -0.001357 1.425712 1.635452
v -0.001895 1.425712 1.636126
v -0.001895 1.517608 1.636126
v -0.001895 1.517608 1.636126
v -0.001895 1.425712 1.636126
v -0.002086 1.517608 1.636966
v -0.002086 1.425712 1.636966
v -0.001895 1.517608 1.637807
v -0.001895 1.425712 1.637807
v -0.001895 1.517608 1.637807
v -0.001895 1.425712 1.637807
v -0.001357 1.517608 1.638481
v -0.001357 1.425712 1.638481
v -0.000580 1.517608 1.638855
v -0.000580 1.425712 1.638855
v 0.000282 1.517608 1.638855
v 0.000282 1.425712 1.638855
v 0.001059 1.517608 1.638481
v 0.001059 1.425712 1.638481
v 0.001596 1.517608 1.637807
v 0.001596 1.425712 1.637807
v 0.001596 1.517608 1.637807
v 0.001596 1.425712 1.637807
vt -381.768585 -223.940598
vt -383.911011 -222.182190
vt -381.752594 -223.921005
vt -383.894897 -222.162689
vt -29.708210 -322.551392
vt -31.850559 -320.793091
vt -29.697960 -322.538879
vt -31.840309 -320.780579
vt -29.683079 -322.520782
vt -31.825430 -320.762390
vt -29.666590 -322.500702
vt -31.808939 -320.742401
vt -29.651760 -322.482605
vt -31.794109 -320.724304
vt -31.783810 -320.711700
vt -29.641459 -322.470001
vt -219.169006 -304.576782
vt -221.311295 -302.818390
vt -219.152893 -304.557098
vt -221.295197 -302.798798
vt -219.136795 -304.537506
vt -221.279099 -302.779205
vt 1.520545 -318.718781
vt -0.621865 -316.960388
vt 1.530845 -318.706177
vt -0.611566 -316.947906
vt 1.545676 -318.688202
vt -0.596734 -316.929779
vt 1.562186 -318.668030
vt -0.580224 -316.909607
vt 1.577048 -318.649902
vt -0.565362 -316.891479
vt 1.587363 -318.637390
vt -0.555047 -316.879028
vt -381.784698 -223.960190
vt -383.927094 -222.201889
vn 1.0000 0.0000 -0.0001
vn 0.9749 0.0000 -0.2227
vn 0.7819 0.0000 -0.6234
vn 0.7818 0.0000 -0.6236
vn 0.6235 0.0000 -0.7818
vn 0.2225 0.0000 -0.9749
vn 0.2226 0.0000 -0.9749
vn -0.2226 0.0000 -0.9749
vn -0.2225 0.0000 -0.9749
vn -0.6236 0.0000 -0.7817
vn -0.6234 0.0000 -0.7819
vn -0.7817 0.0000 -0.6236
vn -0.7819 0.0000 -0.6234
vn -0.9749 0.0000 -0.2227
vn -1.0000 0.0000 -0.0001
vn -0.9749 0.0000 0.2224
vn -0.7819 0.0000 0.6234
vn -0.7818 0.0000 0.6236
vn -0.6235 0.0000 0.7818
vn -0.6234 0.0000 0.7819
vn -0.2224 0.0000 0.9749
vn 0.2225 0.0000 0.9749
vn 0.6234 0.0000 0.7819
vn 0.6235 0.0000 0.7818
vn 0.7818 0.0000 0.6236
vn 0.7819 0.0000 0.6234
vn 0.9749 0.0000 0.2224
usemtl chrome.001
s 1
f 1/1/1 2/2/1 3/3/2
f 3/3/2 2/2/1 4/4/2
f 5/5/3 6/6/4 7/7/5
f 7/7/5 6/6/4 8/8/5
f 7/7/5 8/8/5 9/9/6
f 9/9/6 8/8/5 10/10/7
f 9/9/6 10/10/7 11/11/8
f 11/11/8 10/10/7 12/12/9
f 11/11/8 12/12/9 13/13/10
f 13/13/10 12/12/9 14/14/11
f 13/13/10 15/15/12 16/16/13
f 15/15/12 13/13/10 14/14/11
f 17/17/14 18/18/14 19/19/15
f 19/19/15 18/18/14 20/20/15
f 19/19/15 20/20/15 21/21/16
f 21/21/16 20/20/15 22/22/16
f 23/23/17 24/24/18 25/25/19
f 25/25/19 24/24/18 26/26/20
f 25/25/19 26/26/20 27/27/21
f 27/27/21 26/26/20 28/28/21
f 27/27/21 28/28/21 29/29/22
f 29/29/22 28/28/21 30/30/22
f 29/29/22 30/30/22 31/31/23
f 31/31/23 30/30/22 32/32/24
f 31/31/23 32/32/24 33/33/25
f 33/33/25 32/32/24 34/34/26
f 35/35/27 36/36/27 1/1/1
f 1/1/1 36/36/27 2/2/1
