# Blender v3.1.2 OBJ File: 'track.blend'
# www.blender.org
mtllib Scene.484.mtl
o _0SIGN_AD01_09_001_Scene.484
v -26934.289062 32761.750000 -875.699829
v -26559.310547 32828.421875 -875.699890
v -26934.289062 32761.750000 -575.699829
v -26559.310547 32828.421875 -575.699890
v -26181.769531 32873.699219 -875.700073
v -26181.769531 32873.699219 -575.700073
v -25801.650391 32897.558594 -875.700195
v -25801.650391 32897.558594 -575.700195
v -26934.029297 32759.548828 -875.699829
v -26934.029297 32759.548828 -575.699829
v -25801.388672 32895.371094 -875.700195
v -26181.500000 32871.500000 -875.700073
v -25801.388672 32895.371094 -575.700195
v -26181.500000 32871.500000 -575.700073
v -26559.050781 32826.230469 -875.699890
v -26559.050781 32826.230469 -575.699890
vt 0.044709 1.801094
vt 0.048841 1.801094
vt 0.044709 1.804021
vt 0.048841 1.804021
vt 0.044709 1.806948
vt 0.048841 1.806948
vt 0.044709 1.809875
vt 0.048841 1.809875
vt 0.049357 1.803403
vt 0.049357 1.805712
vt 0.049185 1.803403
vt 0.049185 1.805712
vt 0.000404 1.809430
vt 0.000404 1.751420
vt 0.041490 1.809430
vt 0.041490 1.751420
vt 0.082576 1.809430
vt 0.082576 1.751420
vt 0.123661 1.809430
vt 0.123661 1.751420
vt 0.049357 1.801094
vt 0.049357 1.803403
vt 0.049185 1.801094
vt 0.049185 1.803403
vt 0.049185 1.804021
vt 0.049013 1.801094
vt 0.049185 1.801094
vt 0.049013 1.804021
vt 0.049185 1.806948
vt 0.049013 1.806948
vt 0.049013 1.809875
vt 0.049185 1.809875
vt 0.048841 1.809875
vt 0.049013 1.806948
vt 0.049013 1.809875
vt 0.048841 1.806948
vt 0.049013 1.804021
vt 0.048841 1.804021
vt 0.048841 1.801094
vt 0.049013 1.801094
vn -0.1751 0.9846 0.0000
vn -0.1471 0.9891 0.0000
vn -0.0909 0.9959 0.0000
vn -0.0626 0.9980 0.0000
vn -0.9929 -0.1191 0.0000
vn -0.9931 -0.1176 -0.0000
vn 0.0627 -0.9980 0.0000
vn 0.0909 -0.9959 0.0000
vn 0.1471 -0.9891 0.0000
vn 0.1751 -0.9846 0.0000
vn 0.9930 0.1184 0.0000
vn 0.9928 0.1195 0.0000
vn 0.9929 0.1186 0.0000
vn -0.0000 0.0000 1.0000
vn 0.0000 -0.0000 -1.0000
usemtl EnvironmentMat.001
s 1
f 1/1/1 3/2/1 2/3/2
f 2/3/2 3/2/1 4/4/2
f 2/3/2 4/4/2 5/5/3
f 5/5/3 4/4/2 6/6/3
f 5/5/3 6/6/3 7/7/4
f 7/7/4 6/6/3 8/8/4
f 9/9/5 10/10/6 1/11/5
f 1/11/5 10/10/6 3/12/6
f 11/13/7 13/14/7 12/15/8
f 12/15/8 13/14/7 14/16/8
f 12/15/8 14/16/8 15/17/9
f 15/17/9 14/16/8 16/18/9
f 15/17/9 16/18/9 9/19/10
f 9/19/10 16/18/9 10/20/10
f 7/21/11 8/22/12 11/23/13
f 11/23/13 8/22/12 13/24/12
f 16/25/14 3/26/14 10/27/14
f 3/26/14 16/25/14 4/28/14
f 14/29/14 4/28/14 16/25/14
f 4/28/14 14/29/14 6/30/14
f 8/31/14 6/30/14 14/29/14
f 14/29/14 13/32/14 8/31/14
f 1/33/15 15/34/15 9/35/15
f 15/34/15 1/33/15 2/36/15
f 2/36/15 12/37/15 15/34/15
f 12/37/15 2/36/15 5/38/15
f 7/39/15 12/37/15 5/38/15
f 12/37/15 7/39/15 11/40/15
