# Blender v3.1.2 OBJ File: 'track.blend'
# www.blender.org
mtllib Scene.707.mtl
o _1WALL_small01_15_SUB0_Scene.707
v -14388.409180 -80905.656250 -192.143906
v -14453.419922 -81306.125000 -93.375465
v -14436.030273 -81308.148438 -191.544495
v -14405.769531 -80903.367188 -93.975220
v -14367.349609 -80907.789062 -22.144341
v -14367.019531 -80908.062500 -190.613403
v -14414.629883 -81310.476562 -190.013809
v -14415.009766 -81310.601562 -21.544529
v -14416.759766 -81310.390625 -191.544495
v -14369.149414 -80907.960938 -192.143906
v -14453.419922 -81306.125000 -21.544460
v -14405.750000 -80903.210938 -22.144400
v -14340.939453 -80508.507812 -193.393402
v -14358.279297 -80506.093750 -95.224960
v -14319.850586 -80510.414062 -23.394421
v -14319.540039 -80510.890625 -191.863007
v -14321.670898 -80510.796875 -193.393402
v -14358.250000 -80505.843750 -23.394421
v -14294.411133 -80111.070312 -194.850189
v -14311.759766 -80108.742188 -96.681488
v -14273.309570 -80112.875000 -24.851591
v -14273.000000 -80113.351562 -193.320206
v -14275.140625 -80113.265625 -194.850510
v -14311.729492 -80108.492188 -24.850950
v -14251.299805 -79713.093750 -196.027512
v -14268.699219 -79711.234375 -97.857513
v -14230.189453 -79714.820312 -26.029041
v -14229.860352 -79715.000000 -194.498199
v -14231.990234 -79714.945312 -196.028702
v -14268.690430 -79711.101562 -26.026630
v -14218.589844 -79314.726562 -197.050995
v -14236.000000 -79312.960938 -98.881279
v -14197.400391 -79315.414062 -27.055592
v -14197.110352 -79316.148438 -195.523407
v -14199.240234 -79316.140625 -197.053192
v -14235.959961 -79312.593750 -27.051231
v -14192.349609 -78916.054688 -200.135803
v -14209.750000 -78914.078125 -101.967392
v -14171.080078 -78915.632812 -30.148729
v -14170.849609 -78917.140625 -198.611298
v -14172.979492 -78917.179688 -200.140198
v -14209.689453 -78913.390625 -30.139870
v -14172.560547 -78516.460938 -204.300400
v -14189.970703 -78514.789062 -106.129005
v -14151.280273 -78515.648438 -34.317341
v -14151.049805 -78517.156250 -202.779892
v -14153.179688 -78517.242188 -204.308395
v -14189.919922 -78514.093750 -34.301422
v -14160.600586 -78115.585938 -206.801300
v -14178.049805 -78115.054688 -108.622894
v -14139.349609 -78115.718750 -36.813049
v -14139.079102 -78115.859375 -205.282410
v -14141.208984 -78115.976562 -206.811813
v -14178.010742 -78114.937500 -36.792011
v -14153.819336 -77715.289062 -206.870895
v -14171.270508 -77715.031250 -108.692299
v -14132.570312 -77715.609375 -36.882530
v -14132.291016 -77715.460938 -205.351807
v -14134.418945 -77715.585938 -206.881500
v -14171.229492 -77715.031250 -36.861351
v -14149.070312 -77315.195312 -206.871002
v -14166.520508 -77315.101562 -108.692398
v -14127.810547 -77315.320312 -36.882591
v -14127.541016 -77315.164062 -205.351898
v -14129.670898 -77315.304688 -206.881592
v -14166.479492 -77315.101562 -36.861412
v -14151.469727 -76915.132812 -206.871109
v -14168.918945 -76915.500000 -108.692505
v -14130.219727 -76914.671875 -36.882652
v -14129.950195 -76914.507812 -205.351898
v -14132.080078 -76914.718750 -206.881683
v -14168.879883 -76915.500000 -36.861481
vt -1.021971 2.001424
vt 2.977629 2.001424
vt 2.977629 1.108993
vt -1.021971 1.108994
vt -1.021971 0.580997
vt 2.977629 1.993160
vt -1.021971 1.993160
vt 2.977630 0.580997
vt -1.021971 1.899918
vt 2.977629 1.695245
vt 2.977629 1.899918
vt -1.021971 1.695245
vt 2.977629 1.688305
vt -1.021971 1.688305
vt 2.977629 0.755510
vt -1.021971 0.755511
vt 2.977629 1.108993
vt -1.021971 2.001424
vt 2.977629 2.001424
vt -1.021971 1.108994
vt -1.021971 0.580997
vt 2.977629 1.993160
vt -1.021971 1.993160
vt 2.977630 0.580997
vt -1.021971 1.899918
vt 2.977629 1.695245
vt 2.977629 1.899918
vt -1.021971 1.695245
vt 2.977629 1.688305
vt -1.021971 1.688305
vt 2.977629 0.755510
vt -1.021971 0.755511
vt 2.977629 1.108993
vt -1.021971 2.001424
vt 2.977629 2.001424
vt -1.021971 1.108994
vt -1.021971 0.580997
vt 2.977629 1.993160
vt -1.021971 1.993160
vt 2.977630 0.580997
vt -1.021971 1.899918
vt 2.977629 1.695245
vt 2.977629 1.899918
vt -1.021971 1.695245
vt 2.977629 1.688305
vt -1.021971 1.688305
vt 2.977629 0.755510
vt -1.021971 0.755511
vt 2.977629 1.108993
vt -1.021971 2.001424
vt 2.977629 2.001424
vt -1.021971 1.108994
vt -1.021971 0.580997
vt 2.977629 1.993160
vt -1.021971 1.993160
vt 2.977630 0.580997
vt -1.021971 1.899918
vt 2.977629 1.695245
vt 2.977629 1.899918
vt -1.021971 1.695245
vt 2.977629 1.688305
vt -1.021971 1.688305
vt 2.977629 0.755510
vt -1.021971 0.755511
vt 2.977629 1.108993
vt -1.021971 2.001424
vt 2.977629 2.001424
vt -1.021971 1.108994
vt -1.021971 0.580997
vt 2.977630 0.580997
vt -1.021971 1.993160
vt 2.977629 1.993160
vt -1.021971 1.695245
vt 2.977629 1.899918
vt -1.021971 1.899918
vt 2.977629 1.695245
vt 2.977629 1.688305
vt -1.021971 1.688305
vt 2.977629 0.755510
vt -1.021971 0.755511
vt 2.977629 1.108993
vt -1.021971 2.001424
vt 2.977629 2.001424
vt -1.021971 1.108994
vt -1.021971 0.580997
vt 2.977629 1.993160
vt -1.021971 1.993160
vt 2.977630 0.580997
vt -1.021971 1.899918
vt 2.977629 1.695245
vt 2.977629 1.899918
vt -1.021971 1.695245
vt 2.977629 1.688305
vt -1.021971 1.688305
vt 2.977629 0.755510
vt -1.021971 0.755511
vt 2.977629 1.108993
vt -1.021971 2.001424
vt 2.977629 2.001424
vt -1.021971 1.108994
vt -1.021971 0.580997
vt 2.977629 1.993160
vt -1.021971 1.993160
vt 2.977630 0.580997
vt -1.021971 1.899918
vt 2.977629 1.695245
vt 2.977629 1.899918
vt -1.021971 1.695245
vt 2.977629 1.688305
vt -1.021971 1.688305
vt 2.977629 0.755510
vt -1.021971 0.755511
vt 2.977629 1.108993
vt -1.021971 2.001424
vt 2.977629 2.001424
vt -1.021971 1.108994
vt -1.021971 0.580997
vt 2.977629 1.993160
vt -1.021971 1.993160
vt 2.977630 0.580997
vt -1.021971 1.695245
vt 2.977629 1.899918
vt -1.021971 1.899918
vt 2.977629 1.695245
vt 2.977629 1.688305
vt -1.021971 1.688305
vt 2.977629 0.755510
vt -1.021971 0.755511
vt 2.977629 1.108993
vt -1.021971 2.001424
vt 2.977629 2.001424
vt -1.021971 1.108994
vt -1.021971 0.580997
vt 2.977629 1.993160
vt -1.021971 1.993160
vt 2.977630 0.580997
vt -1.021971 1.695245
vt 2.977629 1.899918
vt -1.021971 1.899918
vt 2.977629 1.695245
vt 2.977629 1.688305
vt -1.021971 1.688305
vt 2.977629 0.755510
vt -1.021971 0.755511
vt -1.021971 2.001424
vt 2.977629 2.001424
vt 2.977629 1.108993
vt -1.021971 1.108994
vt -1.021971 0.580997
vt 2.977629 1.993160
vt -1.021971 1.993160
vt 2.977630 0.580997
vt 2.977629 1.695245
vt -1.021971 1.899918
vt -1.021971 1.695245
vt 2.977629 1.899918
vt 2.977629 1.688305
vt -1.021971 1.688305
vt 2.977629 0.755510
vt -1.021971 0.755511
vt 2.977629 2.001424
vt -1.021971 1.108994
vt -1.021971 2.001424
vt 2.977629 1.108993
vt -1.021971 0.580997
vt 2.977629 1.993160
vt -1.021971 1.993160
vt 2.977630 0.580997
vt 2.977629 1.695245
vt -1.021971 1.899918
vt -1.021971 1.695245
vt 2.977629 1.899918
vt 2.977629 1.688305
vt -1.021971 1.688305
vt 2.977629 0.755510
vt -1.021971 0.755511
vn -0.9777 0.1154 -0.1756
vn -0.9776 0.1159 -0.1756
vn 0.9930 -0.1182 0.0021
vn 0.9931 -0.1175 0.0021
vn 0.9930 -0.1181 0.0021
vn 0.9931 -0.1175 0.0022
vn 0.9930 -0.1180 0.0022
vn -0.0003 -0.0023 -1.0000
vn -0.0002 -0.0015 -1.0000
vn 0.5802 -0.0699 -0.8115
vn 0.5798 -0.0708 -0.8117
vn 0.5798 -0.0709 -0.8117
vn -0.9931 0.1175 0.0000
vn -0.9930 0.1181 0.0000
vn -0.9777 0.1151 -0.1755
vn -0.0004 -0.0034 -1.0000
vn 0.5803 -0.0714 -0.8113
vn 0.5802 -0.0714 -0.8114
vn -0.9784 0.1097 -0.1755
vn 0.9937 -0.1120 0.0022
vn 0.9937 -0.1120 0.0021
vn -0.0004 -0.0033 -1.0000
vn 0.5804 -0.0682 -0.8115
vn 0.5805 -0.0680 -0.8114
vn -0.9937 0.1120 0.0000
vn -0.9801 0.0928 -0.1755
vn 0.9955 -0.0948 0.0021
vn 0.9955 -0.0947 0.0020
vn -0.0003 -0.0027 -1.0000
vn 0.5813 -0.0578 -0.8117
vn 0.5812 -0.0573 -0.8117
vn -0.9955 0.0948 -0.0000
vn -0.9819 0.0717 -0.1754
vn 0.9973 -0.0738 0.0020
vn 0.9973 -0.0737 0.0020
vn -0.0005 -0.0051 -1.0000
vn 0.5820 -0.0473 -0.8118
vn 0.5822 -0.0471 -0.8117
vn -0.9973 0.0738 0.0002
vn -0.9830 0.0551 -0.1753
vn 0.9983 -0.0575 0.0019
vn -0.0008 -0.0090 -1.0000
vn 0.5828 -0.0411 -0.8115
vn 0.5832 -0.0409 -0.8113
vn -0.9983 0.0576 0.0003
vn -0.9838 0.0376 -0.1751
vn 0.9992 -0.0396 0.0017
vn -0.0007 -0.0083 -1.0000
vn 0.5833 -0.0302 -0.8117
vn 0.5835 -0.0296 -0.8115
vn -0.9992 0.0396 0.0003
vn -0.9992 0.0397 0.0003
vn -0.9843 0.0224 -0.1751
vn -0.9843 0.0225 -0.1751
vn 0.9997 -0.0234 0.0016
vn -0.0006 -0.0032 -1.0000
vn 0.5838 -0.0165 -0.8117
vn 0.5838 -0.0160 -0.8118
vn -0.9997 0.0234 0.0005
vn -0.9845 0.0142 -0.1750
vn 0.9999 -0.0144 0.0016
vn -0.0005 -0.0001 -1.0000
vn 0.5837 -0.0085 -0.8119
vn 0.5836 -0.0084 -0.8120
vn -0.9999 0.0144 0.0006
vn -0.9846 0.0029 -0.1750
vn 1.0000 -0.0029 0.0016
vn -0.0005 0.0000 -1.0000
vn 0.5834 -0.0019 -0.8122
vn 0.5834 -0.0015 -0.8122
vn -1.0000 0.0029 0.0006
vn -0.9846 -0.0059 -0.1750
vn 1.0000 0.0060 0.0016
vn 0.5831 0.0035 -0.8124
vn 0.5834 0.0035 -0.8122
vn -1.0000 -0.0060 0.0005
usemtl WallMat.001
s 1
f 1/1/1 3/2/1 2/3/1
f 1/1/2 2/3/1 4/4/2
f 5/5/3 7/6/4 6/7/5
f 7/6/6 5/5/7 8/8/6
f 1/9/8 9/10/9 3/11/9
f 9/10/9 1/9/8 10/12/8
f 7/13/10 10/12/11 6/14/12
f 10/12/11 7/13/10 9/10/10
f 11/15/13 12/16/14 2/3/13
f 4/4/14 2/3/13 12/16/14
f 4/17/2 13/18/15 1/19/2
f 13/18/15 4/17/2 14/20/15
f 15/21/6 6/22/5 16/23/6
f 6/22/5 15/21/6 5/24/3
f 13/25/16 10/26/8 1/27/8
f 10/26/8 13/25/16 17/28/16
f 6/29/12 17/28/17 16/30/18
f 17/28/17 6/29/12 10/26/11
f 12/31/14 18/32/13 4/17/14
f 14/20/13 4/17/14 18/32/13
f 14/33/15 19/34/19 13/35/15
f 19/34/19 14/33/15 20/36/19
f 21/37/20 16/38/6 22/39/21
f 16/38/6 21/37/20 15/40/6
f 19/41/22 17/42/16 13/43/16
f 17/42/16 19/41/22 23/44/22
f 16/45/18 23/44/23 22/46/24
f 23/44/23 16/45/18 17/42/17
f 18/47/13 24/48/25 14/33/13
f 20/36/25 14/33/13 24/48/25
f 20/49/19 25/50/26 19/51/19
f 25/50/26 20/49/19 26/52/26
f 27/53/27 22/54/21 28/55/28
f 22/54/21 27/53/27 21/56/20
f 25/57/29 23/58/22 19/59/22
f 23/58/22 25/57/29 29/60/29
f 22/61/24 29/60/30 28/62/31
f 29/60/30 22/61/24 23/58/23
f 24/63/25 30/64/32 20/49/25
f 26/52/32 20/49/25 30/64/32
f 26/65/26 31/66/33 25/67/26
f 31/66/33 26/65/26 32/68/33
f 33/69/34 27/70/27 34/71/35
f 28/72/28 34/71/35 27/70/27
f 35/73/36 25/74/29 31/75/36
f 25/74/29 35/73/36 29/76/29
f 28/77/31 35/73/37 34/78/38
f 35/73/37 28/77/31 29/76/30
f 30/79/32 32/68/39 26/65/32
f 32/68/39 30/79/32 36/80/39
f 32/81/33 37/82/40 31/83/33
f 37/82/40 32/81/33 38/84/40
f 39/85/41 34/86/35 40/87/41
f 34/86/35 39/85/41 33/88/34
f 37/89/42 35/90/36 31/91/36
f 35/90/36 37/89/42 41/92/42
f 34/93/38 41/92/43 40/94/44
f 41/92/43 34/93/38 35/90/37
f 36/95/39 42/96/45 32/81/39
f 38/84/45 32/81/39 42/96/45
f 38/97/40 43/98/46 37/99/40
f 43/98/46 38/97/40 44/100/46
f 45/101/47 40/102/41 46/103/47
f 40/102/41 45/101/47 39/104/41
f 43/105/48 41/106/42 37/107/42
f 41/106/42 43/105/48 47/108/48
f 40/109/44 47/108/49 46/110/50
f 47/108/49 40/109/44 41/106/43
f 42/111/45 48/112/51 38/97/45
f 44/100/52 38/97/45 48/112/51
f 44/113/46 49/114/53 43/115/46
f 49/114/53 44/113/46 50/116/54
f 51/117/55 46/118/47 52/119/55
f 46/118/47 51/117/55 45/120/47
f 53/121/56 43/122/48 49/123/56
f 43/122/48 53/121/56 47/124/48
f 46/125/50 53/121/57 52/126/58
f 53/121/57 46/125/50 47/124/49
f 48/127/51 54/128/59 44/113/52
f 50/116/59 44/113/52 54/128/59
f 50/129/54 55/130/60 49/131/53
f 55/130/60 50/129/54 56/132/60
f 57/133/61 52/134/55 58/135/61
f 52/134/55 57/133/61 51/136/55
f 59/137/62 49/138/56 55/139/62
f 49/138/56 59/137/62 53/140/56
f 52/141/58 59/137/63 58/142/64
f 59/137/63 52/141/58 53/140/57
f 54/143/59 56/132/65 50/129/59
f 56/132/65 54/143/59 60/144/65
f 61/145/66 55/146/60 56/147/60
f 61/145/66 56/147/60 62/148/66
f 63/149/67 58/150/61 64/151/67
f 58/150/61 63/149/67 57/152/61
f 59/153/62 61/154/68 65/155/68
f 61/154/68 59/153/62 55/156/62
f 58/157/64 65/155/69 64/158/70
f 65/155/69 58/157/64 59/153/63
f 60/159/65 62/148/71 56/147/65
f 62/148/71 60/159/65 66/160/71
f 61/161/66 68/162/72 67/163/72
f 68/162/72 61/161/66 62/164/66
f 69/165/73 64/166/67 70/167/73
f 64/166/67 69/165/73 63/168/67
f 65/169/68 67/170/68 71/171/68
f 67/170/68 65/169/68 61/172/68
f 64/173/70 71/171/74 70/174/75
f 71/171/74 64/173/70 65/169/69
f 66/175/71 72/176/76 62/164/71
f 68/162/76 62/164/71 72/176/76
