# Blender v3.1.2 OBJ File: 'track.blend'
# www.blender.org
mtllib Scene.673.mtl
o _1WALL_17_rolex_SUB2_Scene.673
v -10116.150391 -86188.125000 1.019340
v -10116.719727 -86189.007812 -167.445999
v -10027.070312 -85792.843750 -3.465700
v -10027.469727 -85792.906250 -171.933105
v -10204.139648 -86577.867188 5.623510
v -10205.000000 -86580.062500 -162.829605
v -10292.769531 -86968.046875 10.903649
v -10293.629883 -86970.250000 -157.549301
v -10381.120117 -87358.328125 16.038790
v -10381.970703 -87360.460938 -152.415100
v -10469.180664 -87748.687500 20.987471
v -10470.010742 -87750.718750 -147.467697
v -10556.910156 -88139.117188 25.703579
v -10557.709961 -88141.054688 -142.753098
v -10644.250000 -88529.648438 30.142931
v -10645.020508 -88531.460938 -138.315292
v -10731.000000 -88920.320312 34.147949
v -10731.740234 -88922.000000 -134.311600
v -10817.379883 -89311.093750 37.880161
v -10818.089844 -89312.625000 -130.580902
v -10903.370117 -89701.945312 41.322712
v -10904.049805 -89703.335938 -127.139702
v -10988.889648 -90092.906250 44.413929
v -10989.540039 -90094.125000 -124.049904
v -11073.759766 -90484.023438 47.006989
v -11074.370117 -90485.085938 -121.458008
v -11158.270508 -90875.218750 49.330742
v -11158.839844 -90876.125000 -119.135300
v -11242.060547 -91266.578125 51.117741
v -11242.600586 -91267.296875 -117.349396
v -11325.270508 -91658.062500 52.459442
v -11325.769531 -91658.601562 -116.008606
v -11408.049805 -92049.648438 53.469372
v -11408.509766 -92049.984375 -114.999298
v -11490.049805 -92441.414062 53.889103
v -11490.459961 -92441.531250 -114.579796
v -11571.200195 -92833.328125 53.669231
v -11571.580078 -92833.273438 -114.799904
v -11651.830078 -93225.351562 53.050358
v -11652.169922 -93225.125000 -115.418800
v -11731.990234 -93617.437500 52.125080
v -11732.299805 -93617.101562 -116.343903
v -11811.519531 -94009.632812 50.901569
v -11811.830078 -94009.273438 -117.567398
v -11890.919922 -94401.828125 49.647430
v -11891.230469 -94401.460938 -118.821503
v -11970.310547 -94794.015625 48.670101
v -11970.639648 -94793.703125 -119.798805
v -12049.700195 -95186.179688 47.890369
v -12050.040039 -95185.937500 -120.578697
v -12129.099609 -95578.335938 47.208508
v -12129.450195 -95578.195312 -121.260597
v -12208.500000 -95970.507812 46.785690
v -12208.870117 -95970.429688 -121.683502
v -12287.910156 -96362.679688 46.521381
v -12288.290039 -96362.656250 -121.947800
v -12367.320312 -96754.851562 46.372787
v -12367.709961 -96754.898438 -122.096298
v -12446.740234 -97147.023438 46.356819
v -12447.139648 -97147.132812 -122.112206
v -12526.169922 -97539.187500 46.559540
v -12526.589844 -97539.359375 -121.909401
v -12605.629883 -97931.343750 46.870388
v -12606.049805 -97931.570312 -121.598495
v -12685.089844 -98323.507812 47.296772
v -12685.530273 -98323.789062 -121.171997
v -12764.580078 -98715.664062 47.855141
v -12765.030273 -98715.992188 -120.613503
v -12844.099609 -99107.812500 48.552959
v -12844.560547 -99108.195312 -119.915497
v -12923.669922 -99499.960938 49.371250
v -12924.139648 -99500.375000 -119.097099
v -13003.300781 -99892.078125 50.298073
v -13003.779297 -99892.546875 -118.170097
v -13083.019531 -100284.195312 51.314743
v -13083.509766 -100284.695312 -117.153397
v -13162.910156 -100676.296875 52.392357
v -13163.400391 -100676.796875 -116.075691
v -13243.139648 -101068.296875 53.473221
v -13243.600586 -101068.703125 -114.995102
v -13322.700195 -101460.703125 53.651829
v -13323.100586 -101460.796875 -114.817200
v -13397.990234 -101853.898438 53.558083
v -13398.370117 -101853.898438 -114.911102
v -13469.659180 -102247.804688 53.334778
v -13470.039062 -102247.695312 -115.134392
v -13538.900391 -102642.007812 53.082771
v -13539.280273 -102641.890625 -115.386406
v -13606.869141 -103036.304688 52.846092
v -13607.240234 -103036.304688 -115.623001
v -13674.949219 -103430.601562 52.658928
v -13675.330078 -103430.601562 -115.810204
v -13743.769531 -103824.695312 52.537792
v -13744.160156 -103824.804688 -115.931297
v -13813.729492 -104221.109375 52.468372
v -13814.120117 -104221.203125 -116.000702
vt 0.750321 1.941107
vt 0.874646 1.941107
vt 0.750321 1.999786
vt 0.874646 1.999786
vt 0.750321 1.941107
vt 0.874646 1.941107
vt 0.750321 1.999786
vt 0.874646 1.999786
vt 0.750321 1.941107
vt 0.874646 1.941107
vt 0.750321 1.999786
vt 0.874646 1.999786
vt 0.750321 1.941107
vt 0.874646 1.941107
vt 0.750321 1.999786
vt 0.874646 1.999786
vt 0.750321 1.941107
vt 0.874646 1.941107
vt 0.750321 1.999786
vt 0.874646 1.999786
vt 0.750321 1.941107
vt 0.874646 1.941107
vt 0.750321 1.999786
vt 0.874646 1.999786
vt 0.750321 1.941107
vt 0.874646 1.941107
vt 0.750321 1.999786
vt 0.874646 1.999786
vt 0.750321 1.941107
vt 0.874646 1.999786
vt 0.750321 1.999786
vt 0.874646 1.941107
vt 0.750321 1.941107
vt 0.874646 1.941107
vt 0.750321 1.999786
vt 0.874646 1.999786
vt 0.750321 1.941107
vt 0.874646 1.941107
vt 0.750321 1.999786
vt 0.874646 1.999786
vt 0.750321 1.941107
vt 0.874646 1.941107
vt 0.750321 1.999786
vt 0.874646 1.999786
vt 0.750321 1.941107
vt 0.874646 1.999786
vt 0.750321 1.999786
vt 0.874646 1.941107
vt 0.750321 1.941107
vt 0.874646 1.941107
vt 0.750321 1.999786
vt 0.874646 1.999786
vt 0.750321 1.941107
vt 0.874646 1.999786
vt 0.750321 1.999786
vt 0.874646 1.941107
vt 0.750321 1.941107
vt 0.874646 1.999786
vt 0.750321 1.999786
vt 0.874646 1.941107
vt 0.750321 1.941107
vt 0.874646 1.999786
vt 0.750321 1.999786
vt 0.874646 1.941107
vt 0.750321 1.941107
vt 0.874646 1.999786
vt 0.750321 1.999786
vt 0.874646 1.941107
vt 0.750321 1.941107
vt 0.874646 1.999786
vt 0.750321 1.999786
vt 0.874646 1.941107
vt 0.750321 1.941107
vt 0.874646 1.999786
vt 0.750321 1.999786
vt 0.874646 1.941107
vt 0.750321 1.941107
vt 0.874646 1.999786
vt 0.750321 1.999786
vt 0.874646 1.941107
vt 0.750321 1.941107
vt 0.874646 1.999786
vt 0.750321 1.999786
vt 0.874646 1.941107
vt 0.750321 1.941107
vt 0.874646 1.999786
vt 0.750321 1.999786
vt 0.874646 1.941107
vt 0.750321 1.941107
vt 0.874646 1.999786
vt 0.750321 1.999786
vt 0.874646 1.941107
vt 0.750321 1.941107
vt 0.874646 1.999786
vt 0.750321 1.999786
vt 0.874646 1.941107
vt 0.750321 1.941107
vt 0.874646 1.999786
vt 0.750321 1.999786
vt 0.874646 1.941107
vt 0.750321 1.941107
vt 0.874646 1.999786
vt 0.750321 1.999786
vt 0.874646 1.941107
vt 0.750321 1.941107
vt 0.874646 1.999786
vt 0.750321 1.999786
vt 0.874646 1.941107
vt 0.750321 1.941107
vt 0.874646 1.999786
vt 0.750321 1.999786
vt 0.874646 1.941107
vt 0.750321 1.941107
vt 0.874646 1.999786
vt 0.750321 1.999786
vt 0.874646 1.941107
vt 0.750321 1.941107
vt 0.874646 1.999786
vt 0.750321 1.999786
vt 0.874646 1.941107
vt 0.750321 1.941107
vt 0.874646 1.999786
vt 0.750321 1.999786
vt 0.874646 1.941107
vt 0.750321 1.941107
vt 0.874646 1.999786
vt 0.750321 1.999786
vt 0.874646 1.941107
vt 0.750321 1.941107
vt 0.874646 1.999786
vt 0.750321 1.999786
vt 0.874646 1.941107
vt 0.750321 1.941107
vt 0.874646 1.999786
vt 0.750321 1.999786
vt 0.874646 1.941107
vt 0.750321 1.941107
vt 0.874646 1.999786
vt 0.750321 1.999786
vt 0.874646 1.941107
vt 0.750321 1.941107
vt 0.874646 1.999786
vt 0.750321 1.999786
vt 0.874646 1.941107
vt 0.750321 1.941107
vt 0.874646 1.999786
vt 0.750321 1.999786
vt 0.874646 1.941107
vt 0.750321 1.941107
vt 0.874646 1.999786
vt 0.750321 1.999786
vt 0.874646 1.941107
vt 0.750321 1.941107
vt 0.874646 1.941107
vt 0.750321 1.999786
vt 0.874646 1.999786
vt 0.750321 1.941107
vt 0.874646 1.999786
vt 0.750321 1.999786
vt 0.874646 1.941107
vt 0.750321 1.941107
vt 0.874646 1.999786
vt 0.750321 1.999786
vt 0.874646 1.941107
vt 0.750321 1.941107
vt 0.874646 1.999786
vt 0.750321 1.999786
vt 0.874646 1.941107
vt 0.750321 1.941107
vt 0.874646 1.999786
vt 0.750321 1.999786
vt 0.874646 1.941107
vt 0.750321 1.941107
vt 0.874646 1.999786
vt 0.750321 1.999786
vt 0.874646 1.941107
vt 0.750321 1.941107
vt 0.874646 1.999786
vt 0.750321 1.999786
vt 0.874646 1.941107
vt 0.750321 1.941107
vt 0.874646 1.999786
vt 0.750321 1.999786
vt 0.874646 1.941107
vt 0.750321 1.941107
vt 0.874646 1.999786
vt 0.750321 1.999786
vt 0.874646 1.941107
vn -0.9755 0.2201 0.0021
vn -0.9755 0.2198 0.0022
vn -0.9755 0.2200 0.0022
vn -0.9753 0.2209 0.0021
vn -0.9752 0.2212 0.0021
vn -0.9754 0.2205 0.0021
vn -0.9756 0.2197 0.0022
vn -0.9758 0.2188 0.0021
vn -0.9761 0.2175 0.0021
vn -0.9763 0.2163 0.0021
vn -0.9765 0.2154 0.0022
vn -0.9765 0.2154 0.0021
vn -0.9768 0.2143 0.0022
vn -0.9771 0.2129 0.0022
vn -0.9774 0.2116 0.0022
vn -0.9776 0.2103 0.0022
vn -0.9780 0.2087 0.0022
vn -0.9783 0.2074 0.0022
vn -0.9786 0.2059 0.0023
vn -0.9786 0.2058 0.0023
vn -0.9790 0.2038 0.0022
vn -0.9794 0.2021 0.0023
vn -0.9796 0.2009 0.0022
vn -0.9799 0.1995 0.0022
vn -0.9801 0.1986 0.0022
vn -0.9801 0.1984 0.0022
vn -0.9801 0.1984 0.0023
vn -0.9801 0.1985 0.0022
vn -0.9801 0.1987 0.0022
vn -0.9800 0.1988 0.0022
vn -0.9800 0.1989 0.0022
vn -0.9800 0.1991 0.0022
vn -0.9799 0.1994 0.0023
vn -0.9799 0.1995 0.0023
vn -0.9798 0.2001 0.0022
vn -0.9798 0.2001 0.0023
vn -0.9799 0.1996 0.0022
vn -0.9811 0.1934 0.0022
vn -0.9830 0.1835 0.0022
vn -0.9844 0.1760 0.0023
vn -0.9852 0.1714 0.0023
vn -0.9854 0.1700 0.0022
vn -0.9853 0.1711 0.0022
vn -0.9849 0.1729 0.0022
vn -0.9848 0.1738 0.0022
usemtl EnvironmentMat.001
s 1
f 1/1/1 3/2/2 2/3/3
f 4/4/2 2/3/3 3/2/2
f 5/5/4 1/6/1 6/7/4
f 2/8/3 6/7/4 1/6/1
f 7/9/5 5/10/4 8/11/5
f 6/12/4 8/11/5 5/10/4
f 9/13/6 7/14/5 10/15/6
f 8/16/5 10/15/6 7/14/5
f 11/17/7 9/18/6 12/19/7
f 10/20/6 12/19/7 9/18/6
f 13/21/8 11/22/7 14/23/8
f 12/24/7 14/23/8 11/22/7
f 15/25/9 13/26/8 16/27/9
f 14/28/8 16/27/9 13/26/8
f 17/29/10 16/30/9 18/31/10
f 16/30/9 17/29/10 15/32/9
f 19/33/11 17/34/10 20/35/12
f 18/36/10 20/35/12 17/34/10
f 21/37/13 19/38/11 22/39/13
f 20/40/12 22/39/13 19/38/11
f 23/41/14 21/42/13 24/43/14
f 22/44/13 24/43/14 21/42/13
f 25/45/15 24/46/14 26/47/15
f 24/46/14 25/45/15 23/48/14
f 27/49/16 25/50/15 28/51/16
f 26/52/15 28/51/16 25/50/15
f 29/53/17 28/54/16 30/55/17
f 28/54/16 29/53/17 27/56/16
f 31/57/18 30/58/17 32/59/18
f 30/58/17 31/57/18 29/60/17
f 33/61/19 32/62/18 34/63/20
f 32/62/18 33/61/19 31/64/18
f 35/65/21 34/66/20 36/67/21
f 34/66/20 35/65/21 33/68/19
f 37/69/22 36/70/21 38/71/22
f 36/70/21 37/69/22 35/72/21
f 39/73/23 38/74/22 40/75/23
f 38/74/22 39/73/23 37/76/22
f 41/77/24 40/78/23 42/79/24
f 40/78/23 41/77/24 39/80/23
f 43/81/25 42/82/24 44/83/25
f 42/82/24 43/81/25 41/84/24
f 45/85/26 44/86/25 46/87/26
f 44/86/25 45/85/26 43/88/25
f 47/89/27 46/90/26 48/91/27
f 46/90/26 47/89/27 45/92/26
f 49/93/27 48/94/27 50/95/27
f 48/94/27 49/93/27 47/96/27
f 51/97/26 50/98/27 52/99/26
f 50/98/27 51/97/26 49/100/27
f 53/101/28 52/102/26 54/103/28
f 52/102/26 53/101/28 51/104/26
f 55/105/28 54/106/28 56/107/28
f 54/106/28 55/105/28 53/108/28
f 57/109/28 56/110/28 58/111/28
f 56/110/28 57/109/28 55/112/28
f 59/113/28 58/114/28 60/115/28
f 58/114/28 59/113/28 57/116/28
f 61/117/25 60/118/28 62/119/25
f 60/118/28 61/117/25 59/120/28
f 63/121/25 62/122/25 64/123/25
f 62/122/25 63/121/25 61/124/25
f 65/125/25 64/126/25 66/127/25
f 64/126/25 65/125/25 63/128/25
f 67/129/29 66/130/25 68/131/29
f 66/130/25 67/129/29 65/132/25
f 69/133/30 68/134/29 70/135/30
f 68/134/29 69/133/30 67/136/29
f 71/137/31 70/138/30 72/139/31
f 70/138/30 71/137/31 69/140/30
f 73/141/32 72/142/31 74/143/32
f 72/142/31 73/141/32 71/144/31
f 75/145/33 74/146/32 76/147/34
f 74/146/32 75/145/33 73/148/32
f 77/149/35 76/150/34 78/151/36
f 76/150/34 77/149/35 75/152/33
f 79/153/37 77/154/35 80/155/37
f 78/156/36 80/155/37 77/154/35
f 81/157/38 80/158/37 82/159/38
f 80/158/37 81/157/38 79/160/37
f 83/161/39 82/162/38 84/163/39
f 82/162/38 83/161/39 81/164/38
f 85/165/40 84/166/39 86/167/40
f 84/166/39 85/165/40 83/168/39
f 87/169/41 86/170/40 88/171/41
f 86/170/40 87/169/41 85/172/40
f 89/173/42 88/174/41 90/175/42
f 88/174/41 89/173/42 87/176/41
f 91/177/43 90/178/42 92/179/43
f 90/178/42 91/177/43 89/180/42
f 93/181/44 92/182/43 94/183/44
f 92/182/43 93/181/44 91/184/43
f 95/185/45 94/186/44 96/187/45
f 94/186/44 95/185/45 93/188/44
