# Blender v3.1.2 OBJ File: 'track.blend'
# www.blender.org
mtllib Scene.665.mtl
o _1WALL_11_SUB0_Scene.665
v -23800.369141 -40631.632812 -449.938904
v -24195.179688 -40734.429688 -451.366821
v -24191.019531 -40751.441406 -353.197998
v -23796.019531 -40648.589844 -351.769897
v -24201.000000 -40714.070312 -281.367615
v -24200.779297 -40713.652344 -449.836487
v -23805.859375 -40610.820312 -448.408417
v -23805.619141 -40611.121094 -279.938782
v -24200.089844 -40715.660156 -451.366913
v -23805.179688 -40612.839844 -449.938812
v -23796.019531 -40648.589844 -279.938995
v -24191.220703 -40751.488281 -281.367310
v -24582.878906 -40835.949219 -451.533508
v -24578.218750 -40852.828125 -353.364624
v -24587.859375 -40815.382812 -281.534088
v -24588.480469 -40815.171875 -450.002289
v -24587.800781 -40817.191406 -451.533691
v -24578.058594 -40852.789062 -281.533783
v -24970.441406 -40937.570312 -449.376099
v -24965.371094 -40954.332031 -351.209198
v -24974.718750 -40916.808594 -279.380005
v -24976.029297 -40916.777344 -447.844421
v -24975.359375 -40918.796875 -449.376190
v -24964.900391 -40954.210938 -279.379700
v -25357.240234 -41039.089844 -447.122711
v -25352.349609 -41055.910156 -348.954712
v -25361.849609 -41018.421875 -277.124603
v -25362.839844 -41018.312500 -445.591309
v -25362.169922 -41020.332031 -447.122803
v -25352.029297 -41055.820312 -277.124512
v -25745.269531 -41141.320312 -445.750916
v -25740.728516 -41158.230469 -347.582001
v -25750.759766 -41120.878906 -275.750793
v -25751.000000 -41120.570312 -444.219482
v -25750.298828 -41122.589844 -445.750793
v -25740.728516 -41158.230469 -275.751007
vt 2.977629 2.001424
vt -1.021971 1.108994
vt -1.021971 2.001424
vt 2.977629 1.108993
vt -1.021971 0.581097
vt 2.977629 1.993160
vt -1.021971 1.993160
vt 2.977630 0.581097
vt -1.021971 1.695245
vt 2.977629 1.899918
vt -1.021971 1.899918
vt 2.977629 1.695245
vt 2.977629 1.688305
vt -1.021971 1.688305
vt 2.977629 0.755510
vt -1.021971 0.755511
vt 2.977629 2.001424
vt -1.021971 1.108994
vt -1.021971 2.001424
vt 2.977629 1.108993
vt -1.021971 0.581097
vt 2.977629 1.993160
vt -1.021971 1.993160
vt 2.977630 0.581097
vt -1.021971 1.695245
vt 2.977629 1.899918
vt -1.021971 1.899918
vt 2.977629 1.695245
vt 2.977629 1.688305
vt -1.021971 1.688305
vt 2.977629 0.755510
vt -1.021971 0.755511
vt 2.977629 2.001424
vt -1.021971 1.108994
vt -1.021971 2.001424
vt 2.977629 1.108993
vt -1.021971 0.581097
vt 2.977629 1.993160
vt -1.021971 1.993160
vt 2.977630 0.581097
vt -1.021971 1.899918
vt 2.977629 1.695245
vt 2.977629 1.899918
vt -1.021971 1.695245
vt 2.977629 1.688305
vt -1.021971 1.688305
vt 2.977629 0.755510
vt -1.021971 0.755511
vt 2.977629 2.001424
vt -1.021971 1.108994
vt -1.021971 2.001424
vt 2.977629 1.108993
vt -1.021971 0.581097
vt 2.977629 1.993160
vt -1.021971 1.993160
vt 2.977630 0.581097
vt -1.021971 1.899918
vt 2.977629 1.695245
vt 2.977629 1.899918
vt -1.021971 1.695245
vt 2.977629 1.688305
vt -1.021971 1.688305
vt 2.977629 0.755510
vt -1.021971 0.755511
vt 2.977629 2.001424
vt -1.021971 1.108994
vt -1.021971 2.001424
vt 2.977629 1.108993
vt -1.021971 0.581097
vt 2.977629 1.993160
vt -1.021971 1.993160
vt 2.977630 0.581097
vt -1.021971 1.899918
vt 2.977629 1.695245
vt 2.977629 1.899918
vt -1.021971 1.695245
vt 2.977629 1.688305
vt -1.021971 1.688305
vt 2.977629 0.755510
vt -1.021971 0.755511
vn 0.2487 -0.9526 -0.1755
vn 0.2490 -0.9524 -0.1756
vn -0.2528 0.9675 0.0021
vn -0.2520 0.9677 0.0021
vn -0.2527 0.9676 0.0021
vn -0.2526 0.9676 0.0021
vn 0.0019 0.0005 -1.0000
vn 0.0034 0.0009 -1.0000
vn 0.0020 0.0005 -1.0000
vn -0.1447 0.5672 -0.8108
vn -0.1461 0.5658 -0.8115
vn -0.1462 0.5658 -0.8115
vn 0.2520 -0.9677 0.0000
vn 0.2527 -0.9676 0.0001
vn 0.2491 -0.9524 -0.1756
vn -0.2535 0.9673 0.0021
vn -0.0024 -0.0006 -1.0000
vn -0.1501 0.5652 -0.8112
vn -0.1503 0.5652 -0.8112
vn 0.2535 -0.9673 -0.0001
vn 0.2489 -0.9525 -0.1755
vn -0.2537 0.9673 0.0022
vn -0.0053 -0.0014 -1.0000
vn -0.1526 0.5642 -0.8114
vn -0.1526 0.5643 -0.8114
vn 0.2537 -0.9673 -0.0000
vn 0.2496 -0.9523 -0.1756
vn -0.2543 0.9671 0.0021
vn -0.0044 -0.0012 -1.0000
vn -0.1523 0.5647 -0.8111
vn -0.1523 0.5647 -0.8112
vn 0.2543 -0.9671 0.0001
vn 0.2502 -0.9521 -0.1756
vn -0.2547 0.9670 0.0021
vn -0.0033 -0.0009 -1.0000
vn -0.1512 0.5629 -0.8126
vn 0.2548 -0.9670 0.0001
vn 0.2548 -0.9670 0.0000
vn 0.2545 -0.9671 0.0000
usemtl WallMat.001
s 1
f 1/1/1 3/2/2 2/3/2
f 3/2/2 1/1/1 4/4/1
f 5/5/3 7/6/4 6/7/5
f 7/6/4 5/5/6 8/8/4
f 9/9/7 1/10/8 2/11/7
f 1/10/8 9/9/9 10/12/8
f 7/13/10 9/9/11 6/14/12
f 9/9/11 7/13/10 10/12/10
f 11/15/13 12/16/14 4/4/13
f 3/2/14 4/4/13 12/16/14
f 2/17/2 14/18/15 13/19/15
f 14/18/15 2/17/2 3/20/2
f 15/21/16 6/22/5 16/23/16
f 6/22/5 15/21/16 5/24/3
f 17/25/17 2/26/7 13/27/17
f 2/26/7 17/25/17 9/28/7
f 6/29/12 17/25/18 16/30/19
f 17/25/18 6/29/12 9/28/11
f 12/31/14 18/32/20 3/20/14
f 14/18/20 3/20/14 18/32/20
f 13/33/15 20/34/21 19/35/21
f 20/34/21 13/33/15 14/36/15
f 21/37/22 16/38/16 22/39/22
f 16/38/16 21/37/22 15/40/16
f 19/41/23 17/42/17 13/43/17
f 17/42/17 19/41/23 23/44/23
f 16/45/19 23/44/24 22/46/25
f 23/44/24 16/45/19 17/42/18
f 18/47/20 20/34/26 14/36/20
f 20/34/26 18/47/20 24/48/26
f 19/49/21 26/50/27 25/51/27
f 26/50/27 19/49/21 20/52/21
f 27/53/28 22/54/22 28/55/28
f 22/54/22 27/53/28 21/56/22
f 25/57/29 23/58/23 19/59/23
f 23/58/23 25/57/29 29/60/29
f 22/61/25 29/60/30 28/62/31
f 29/60/30 22/61/25 23/58/24
f 24/63/26 26/50/32 20/52/26
f 26/50/32 24/63/26 30/64/32
f 25/65/27 32/66/33 31/67/33
f 32/66/33 25/65/27 26/68/27
f 33/69/34 28/70/28 34/71/34
f 28/70/28 33/69/34 27/72/28
f 31/73/35 29/74/29 25/75/29
f 29/74/29 31/73/35 35/76/35
f 28/77/31 35/76/36 34/78/36
f 35/76/36 28/77/31 29/74/30
f 30/79/32 32/66/37 26/68/32
f 32/66/38 30/79/39 36/80/38
