# Blender v3.1.2 OBJ File: 'track.blend'
# www.blender.org
mtllib Scene.552.mtl
o _0TRIBUENE_02_016_SUB0_Scene.552
v 17265.349609 55878.027344 -1840.306152
v 17365.259766 55856.890625 -1710.306885
v 17365.259766 55856.890625 -1840.306152
v 17265.349609 55878.027344 -1710.306885
v 17938.410156 59112.109375 -1840.306152
v 17266.291016 55876.710938 -1710.306885
v 17266.291016 55876.710938 -1840.306152
v 17938.410156 59112.109375 -1710.306885
v 17938.410156 59112.109375 -1860.306885
v 17266.291016 55876.710938 -1860.306885
v 17365.029297 55855.796875 -1840.306152
v 17365.029297 55855.796875 -1860.306885
v 19832.349609 55343.238281 -740.306274
v 19832.349609 55343.238281 -720.306274
v 17936.380859 59110.050781 -1840.306152
v 17936.380859 59110.050781 -1710.306885
v 19832.570312 55344.328125 -720.306274
v 19832.570312 55344.328125 -590.306274
v 20703.019531 58540.476562 -718.124390
v 20030.291016 55302.171875 -718.124390
v 20030.291016 55302.171875 -588.124390
v 20703.019531 58540.476562 -588.124390
v 20703.019531 58540.476562 -738.124390
v 20030.291016 55302.171875 -738.124390
v 20027.960938 55305.078125 -718.165588
v 20027.960938 55305.078125 -588.165710
v 20699.541016 58537.878906 -588.165710
v 20699.541016 58537.878906 -718.165588
v 17365.029297 55855.796875 -1710.306885
v 19832.349609 55343.238281 -590.306274
v 19832.138672 55345.757812 -718.165588
v 19832.138672 55345.757812 -588.165710
v 19834.468750 55342.851562 -738.124390
v 19834.468750 55342.851562 -718.124390
v 19834.468750 55342.851562 -588.124390
v 20507.201172 58581.160156 -718.124390
v 20507.201172 58581.160156 -588.124390
v 20507.201172 58581.160156 -738.124390
v 20503.720703 58578.558594 -718.165588
v 20503.720703 58578.558594 -588.165710
v 19832.890625 55345.863281 -720.306274
v 17365.570312 55858.429688 -1710.306885
v 17365.570312 55858.429688 -1840.306152
v 19832.890625 55345.863281 -590.306274
v 19832.890625 55345.863281 -740.306274
v 17365.570312 55858.429688 -1860.306885
v 17268.519531 55878.179688 -1860.306885
v 17268.519531 55878.179688 -1840.306152
v 19833.121094 55346.949219 -720.306274
v 17365.800781 55859.523438 -1710.306885
v 17365.800781 55859.523438 -1840.306152
v 19833.121094 55346.949219 -590.306274
v 17939.880859 59109.855469 -1860.306885
v 17939.880859 59109.855469 -1840.306152
v 17267.589844 55879.511719 -1840.306152
v 17267.589844 55879.511719 -1710.306885
v 17268.519531 55878.179688 -1710.306885
v 17939.880859 59109.855469 -1710.306885
v 17939.000000 59109.496094 -1840.306152
v 17939.000000 59109.496094 -1710.306885
v 20504.089844 58576.769531 -720.306274
v 18036.759766 59089.332031 -1840.306152
v 18036.759766 59089.332031 -1710.306885
v 20504.089844 58576.769531 -590.306274
v 20504.089844 58576.769531 -740.306274
v 18036.759766 59089.332031 -1860.306885
v 20698.929688 58537.792969 -718.124390
v 20027.599609 55306.261719 -588.124390
v 20027.599609 55306.261719 -718.124390
v 20698.929688 58537.792969 -588.124390
v 20698.929688 58537.792969 -738.124390
v 20027.599609 55306.261719 -738.124390
v 20025.269531 55309.167969 -718.165588
v 20695.449219 58535.191406 -718.165588
v 20695.449219 58535.191406 -588.165710
v 20025.269531 55309.167969 -588.165710
v 19833.128906 55350.550781 -718.165588
v 19833.128906 55350.550781 -588.165710
v 19835.458984 55347.636719 -738.124390
v 19835.458984 55347.636719 -718.124390
v 19835.458984 55347.636719 -588.124390
v 20506.210938 58576.367188 -718.124390
v 20506.210938 58576.367188 -588.124390
v 20506.210938 58576.367188 -738.124390
v 20502.730469 58573.765625 -718.165588
v 20502.730469 58573.765625 -588.165710
v 20504.628906 58579.386719 -720.306274
v 18037.308594 59091.949219 -1710.306885
v 18037.308594 59091.949219 -1840.306152
v 20504.628906 58579.386719 -590.306274
v 20504.628906 58579.386719 -740.306274
v 18037.308594 59091.949219 -1860.306885
v 17936.570312 59109.050781 -1840.306152
v 18036.470703 59087.910156 -1710.306885
v 18036.470703 59087.910156 -1840.306152
v 17936.570312 59109.050781 -1710.306885
v 20503.791016 58575.343750 -720.306274
v 20503.791016 58575.343750 -590.306274
v 20504.339844 58577.972656 -720.306274
v 18037.009766 59090.527344 -1710.306885
v 18037.009766 59090.527344 -1840.306152
v 20504.339844 58577.972656 -590.306274
v 17938.810547 59110.527344 -1840.306152
v 17938.810547 59110.527344 -1710.306885
vt 102.061203 1.445998
vt 106.201202 1.445998
vt 106.201202 1.808102
vt 102.061203 1.808102
vt -1.128167 1.445998
vt 7.317342 1.445998
vt 7.317341 1.808102
vt -1.128167 1.808102
vt 0.439238 1.852482
vt 0.439238 1.852482
vt 0.439238 1.901746
vt 0.439238 1.901746
vt 0.439238 1.901746
vt 0.439238 1.852482
vt 0.439238 1.852482
vt 0.439238 1.901746
vt -32.960171 1.445998
vt -32.960171 1.808102
vt -133.517502 1.445998
vt -20.685499 1.808102
vt -20.685499 1.445998
vt -133.517502 1.808102
vt 1.994339 1.445998
vt 10.414750 1.808102
vt 10.414750 1.445998
vt 1.994339 1.808102
vt 0.439238 1.852482
vt 0.439238 1.901746
vt 0.439238 1.852482
vt 0.439238 1.901746
vt 103.806503 1.445998
vt -30.874689 1.808102
vt 103.806503 1.808102
vt -30.874689 1.445998
vt 7.573064 1.445998
vt 7.573063 1.808102
vt -7.406326 1.445998
vt -0.354325 1.808102
vt -0.354325 1.445998
vt -7.406326 1.808102
vt 111.989601 1.445998
vt 111.989601 1.808102
vt 0.439238 1.852482
vt 0.439238 1.901746
vt 10.925800 1.445998
vt 10.925800 1.808102
vt 1.483288 1.445998
vt 1.483288 1.808102
vt 0.439238 1.901746
vt 0.439238 1.852482
vt -39.057812 1.445998
vt -39.057812 1.808102
vt -7.406326 1.445998
vt -0.354325 1.445998
vt -0.354325 1.808102
vt -7.406326 1.808102
vt 0.439238 1.852482
vt 0.439238 1.901746
vt 0.439238 1.901746
vt 0.439238 1.852482
vt 0.439238 1.852482
vt 0.439238 1.901746
vt -133.517502 1.445998
vt -20.685499 1.445998
vt -20.685499 1.808102
vt -133.517502 1.808102
vt 0.439238 1.852482
vt 0.439238 1.901746
vt 102.061203 1.445998
vt 106.201202 1.808102
vt 106.201202 1.445998
vt 102.061203 1.808102
vt 7.317342 1.445998
vt 7.573063 1.808102
vt 7.573064 1.445998
vt 7.317341 1.808102
vt -1.128167 1.445998
vt -1.128167 1.808102
vt -32.960171 1.445998
vt -32.960171 1.808102
vt -7.406326 1.445998
vt -0.354325 1.808102
vt -0.354325 1.445998
vt -7.406326 1.808102
vt 0.439238 1.901746
vt 0.439238 1.901746
vt 0.439238 1.852482
vt 0.439238 1.852482
vt 7.317342 1.445998
vt 7.573064 1.445998
vt 7.573063 1.808102
vt 7.317341 1.808102
vt 1.994339 1.445998
vt 10.414750 1.445998
vt 10.414750 1.808102
vt 1.994339 1.808102
vt 0.439238 1.852482
vt 0.439238 1.852482
vt 0.439238 1.901746
vt 0.439238 1.901746
vt 103.806503 1.445998
vt -30.874689 1.808102
vt -30.874689 1.445998
vt 103.806503 1.808102
vt 111.989601 1.445998
vt 111.989601 1.808102
vt 0.439238 1.852482
vt 0.439238 1.901746
vt 10.925800 1.445998
vt 10.925800 1.808102
vt 1.483288 1.445998
vt 1.483288 1.808102
vt 0.439238 1.901746
vt 0.439238 1.852482
vt -39.057812 1.445998
vt -39.057812 1.808102
vt -7.406326 1.445998
vt -0.354325 1.445998
vt -0.354325 1.808102
vt -7.406326 1.808102
vt 0.439238 1.852482
vt 0.439238 1.901746
vt 0.439238 1.901746
vt 0.439238 1.852482
vt 7.317342 1.445998
vt 7.573063 1.808102
vt 7.573064 1.445998
vt 7.317341 1.808102
vt 102.061203 1.445998
vt 106.201202 1.445998
vt 106.201202 1.808102
vt 102.061203 1.808102
vt -133.517502 1.445998
vt -20.685499 1.808102
vt -20.685499 1.445998
vt -133.517502 1.808102
vt -133.517502 1.445998
vt -20.685499 1.445998
vt -20.685499 1.808102
vt -133.517502 1.808102
vt 102.061203 1.445998
vt 106.201202 1.808102
vt 106.201202 1.445998
vt 102.061203 1.808102
vn -0.2070 -0.9783 0.0000
vn -0.2036 -0.9790 -0.0000
vn -0.2068 -0.9784 0.0000
vn -0.9791 0.2034 0.0000
vn -0.2072 -0.9783 0.0000
vn -0.2071 -0.9783 0.0000
vn -0.2034 -0.9791 0.0000
vn -0.9791 0.2033 0.0000
vn 0.9791 -0.2034 0.0000
vn 0.2034 0.9791 0.0000
vn 0.2033 0.9791 -0.0000
vn 0.1997 0.9799 -0.0000
vn 0.1994 0.9799 0.0000
vn 0.2031 0.9792 -0.0000
vn 0.2006 0.9797 0.0000
vn 0.9791 -0.2035 0.0000
vn -0.2035 -0.9791 -0.0000
vn 0.2106 0.9776 0.0000
vn 0.2105 0.9776 0.0000
vn -0.1963 -0.9806 0.0000
vn 0.2000 0.9798 -0.0000
vn 0.1997 0.9798 0.0000
vn -0.2037 -0.9790 -0.0000
vn 0.2032 0.9791 -0.0000
vn 0.1996 0.9799 0.0000
usemtl GitterMat.001
s 1
f 1/1/1 3/2/2 2/3/3
f 1/1/1 2/3/3 4/4/1
f 5/5/4 7/6/4 6/7/4
f 5/5/4 6/7/4 8/8/4
f 9/9/4 10/10/4 7/11/4
f 9/9/4 7/11/4 5/12/4
f 10/10/5 11/13/6 7/11/5
f 10/10/5 12/14/6 11/13/6
f 13/15/7 11/13/6 12/14/6
f 14/16/7 11/13/6 13/15/7
f 15/17/8 1/1/8 4/4/8
f 15/17/8 4/4/8 16/18/8
f 17/19/7 2/20/3 3/21/2
f 18/22/7 2/20/3 17/19/7
f 19/23/9 21/24/9 20/25/9
f 21/24/9 19/23/9 22/26/9
f 23/27/9 20/28/9 24/29/9
f 20/28/9 23/27/9 19/30/9
f 25/31/9 27/32/9 26/33/9
f 27/32/9 25/31/9 28/34/9
f 7/6/5 11/35/6 29/36/1
f 7/6/5 29/36/1 6/7/5
f 14/37/7 29/38/1 11/39/6
f 30/40/7 29/38/1 14/37/7
f 31/41/7 25/31/7 26/33/7
f 31/41/7 26/33/7 32/42/7
f 33/43/7 24/29/7 20/28/7
f 33/43/7 20/28/7 34/44/7
f 34/45/7 20/25/7 21/24/7
f 34/45/7 21/24/7 35/46/7
f 36/47/10 37/48/10 19/23/10
f 19/23/10 37/48/10 22/26/10
f 36/49/10 23/27/10 38/50/10
f 23/27/10 36/49/10 19/30/10
f 39/51/10 40/52/10 28/34/10
f 28/34/10 40/52/10 27/32/10
f 41/53/10 43/54/11 42/55/12
f 41/53/10 42/55/12 44/56/10
f 45/57/10 43/58/11 41/59/10
f 45/57/10 46/60/10 43/58/11
f 47/61/13 43/58/11 46/60/10
f 43/58/11 47/61/13 48/62/13
f 49/63/10 51/64/14 50/65/15
f 49/63/10 50/65/15 52/66/10
f 53/67/9 48/62/9 47/61/9
f 48/62/9 53/67/9 54/68/9
f 55/69/13 50/70/15 51/71/14
f 50/70/13 55/69/13 56/72/13
f 48/73/13 42/74/12 43/75/11
f 42/74/12 48/73/13 57/76/13
f 54/77/9 57/76/9 48/73/9
f 57/76/9 54/77/9 58/78/9
f 59/79/16 56/72/16 55/69/16
f 56/72/16 59/79/16 60/80/16
f 61/81/7 63/82/6 62/83/7
f 64/84/7 63/82/6 61/81/7
f 61/85/7 62/86/7 65/87/7
f 65/87/7 62/86/7 66/88/17
f 53/67/5 66/88/17 62/86/7
f 53/67/5 62/86/7 54/68/5
f 54/89/5 62/90/7 63/91/6
f 54/89/5 63/91/6 58/92/5
f 67/93/4 69/94/4 68/95/4
f 67/93/4 68/95/4 70/96/4
f 71/97/4 72/98/4 69/99/4
f 71/97/4 69/99/4 67/100/4
f 73/101/4 75/102/4 74/103/4
f 75/102/4 73/101/4 76/104/4
f 77/105/18 76/104/18 73/101/18
f 76/104/19 77/105/19 78/106/19
f 79/107/19 69/99/19 72/98/19
f 69/99/19 79/107/19 80/108/19
f 80/109/19 68/95/19 69/94/19
f 68/95/19 80/109/19 81/110/19
f 82/111/20 67/93/20 83/112/20
f 67/93/20 70/96/20 83/112/20
f 67/100/20 82/113/20 71/97/20
f 84/114/20 71/97/20 82/113/20
f 85/115/20 74/103/20 86/116/20
f 74/103/20 75/102/20 86/116/20
f 87/117/10 89/118/10 88/119/21
f 87/117/10 88/119/21 90/120/10
f 91/121/10 89/122/10 87/123/10
f 91/121/10 92/124/10 89/122/10
f 9/9/22 89/122/10 92/124/10
f 89/122/10 9/9/22 5/12/22
f 5/125/22 88/126/21 89/127/10
f 88/126/21 5/125/22 8/128/22
f 93/129/1 95/130/23 94/131/3
f 93/129/1 94/131/3 96/132/1
f 97/133/7 94/134/3 95/135/23
f 98/136/7 94/134/3 97/133/7
f 99/137/10 101/138/24 100/139/12
f 99/137/10 100/139/12 102/140/10
f 103/141/25 100/142/12 101/143/24
f 100/142/12 103/141/25 104/144/25
