# Blender v3.1.2 OBJ File: 'track.blend'
# www.blender.org
mtllib Scene.611.mtl
o _1BRIDGE_SUB0_Scene.611
v -33830.898438 -28535.800781 -985.775574
v -33830.898438 -28535.800781 -885.775574
v -31665.630859 -28089.160156 -985.775574
v -31665.630859 -28089.160156 -885.775574
v -30112.587891 -27768.798828 -985.775574
v -30112.587891 -27768.798828 -865.775513
v -31665.630859 -28089.160156 -485.775604
v -30112.587891 -27768.798828 -485.775604
v -30112.587891 -27768.798828 -385.775482
v -31665.630859 -28089.160156 -385.775482
v -34461.070312 -25480.759766 -885.775635
v -32295.810547 -25034.121094 -885.775635
v -34461.070312 -25480.759766 -985.775635
v -25360.089844 -26788.488281 -985.775574
v -25360.089844 -26788.488281 -885.775574
v -25990.257812 -23733.458984 -985.775635
v -25990.257812 -23733.458984 -885.775635
v -25360.089844 -26788.488281 -485.775604
v -26303.601562 -22214.390625 -485.775818
v -26303.601562 -22214.390625 -385.775818
v -25360.089844 -26788.488281 -385.775482
v -32295.810547 -25034.121094 -985.775635
v -30742.761719 -24713.769531 -985.775635
v -29892.888672 -24538.458984 -985.775635
v -29262.718750 -27593.500000 -985.775574
v -29043.011719 -24363.160156 -985.775635
v -28412.837891 -27418.201172 -985.775574
v -28412.837891 -27418.201172 -865.775513
v -28412.837891 -27418.201172 -485.775604
v -28412.837891 -27418.201172 -385.775482
v -29356.359375 -22844.089844 -485.775818
v -29356.359375 -22844.089844 -385.775818
v -29043.011719 -24363.160156 -865.775696
v -32295.810547 -25034.121094 -485.775696
v -32295.810547 -25034.121094 -385.775696
v -30742.761719 -24713.769531 -865.775696
v -30742.761719 -24713.769531 -485.775696
v -30742.761719 -24713.769531 -385.775696
v -30298.318359 -26868.412109 -860.947632
v -30557.031250 -25614.169922 -860.947632
v -30516.250000 -25811.880859 -929.037109
v -30339.099609 -26670.699219 -929.037109
v -28857.281250 -25263.560547 -860.947632
v -28598.568359 -26517.800781 -860.947632
v -28639.349609 -26320.089844 -929.037109
v -28816.500000 -25461.269531 -929.037109
vt 0.478261 1.467391
vt 0.478261 1.467391
vt 0.478261 1.467391
vt 0.478261 1.467391
vt 0.478261 1.467391
vt 0.478261 1.467391
vt 0.478261 1.467391
vt 0.478261 1.467391
vt 0.478261 1.467391
vt 0.478261 1.467391
vt 0.478261 1.467391
vt 0.478261 1.467391
vt 0.478261 1.467391
vt 0.478261 1.467391
vt 0.478261 1.467391
vt 0.478261 1.467391
vt 0.478261 1.467391
vt 0.478261 1.467391
vt 0.478261 1.467391
vt 0.478261 1.467391
vt 0.478261 1.467391
vt 0.478261 1.467391
vt 0.478261 1.467391
vt 0.478261 1.467391
vt 0.478261 1.467391
vt 0.478261 1.467391
vt 0.478261 1.467391
vt 0.478261 1.467391
vt 0.478261 1.467391
vt 0.478261 1.467391
vt 0.478261 1.467391
vt 0.478261 1.467391
vt 0.478261 1.467391
vt 0.478261 1.467391
vt 0.478261 1.467391
vt 0.478261 1.467391
vt 0.478261 1.467391
vt 0.478261 1.467391
vt 0.478261 1.467391
vt 0.478261 1.467391
vt 0.478261 1.467391
vt 0.478261 1.467391
vt 0.478261 1.467391
vt 0.478261 1.467391
vt 0.478261 1.467391
vt 0.478261 1.467391
vn 0.2020 -0.9794 0.0000
vn -0.0000 0.0000 1.0000
vn -0.9794 -0.2020 0.0000
vn 0.9794 0.2020 0.0000
vn -0.0000 -0.0000 -1.0000
vn -0.2020 0.9794 0.0000
vn -0.0523 0.2382 -0.9698
usemtl EmptyMat.001
s 1
f 1/1/1 3/2/1 2/3/1
f 4/4/1 2/3/1 3/2/1
f 3/2/1 5/5/1 4/4/1
f 6/6/1 4/4/1 5/5/1
f 6/6/1 7/7/1 4/4/1
f 7/7/1 6/6/1 8/8/1
f 7/7/1 8/8/1 9/9/1
f 7/7/1 9/9/1 10/10/1
f 11/11/2 2/3/2 12/12/2
f 12/12/2 2/3/2 4/4/2
f 2/3/3 11/11/3 1/1/3
f 13/13/3 1/1/3 11/11/3
f 14/14/4 16/15/4 15/16/4
f 17/17/4 15/16/4 16/15/4
f 15/16/4 17/17/4 18/18/4
f 19/19/4 18/18/4 17/17/4
f 18/18/4 19/19/4 20/20/4
f 18/18/4 20/20/4 21/21/4
f 22/22/5 1/1/5 13/13/5
f 1/1/5 22/22/5 3/2/5
f 22/22/5 5/5/5 3/2/5
f 5/5/5 22/22/5 23/23/5
f 24/24/5 5/5/5 23/23/5
f 5/5/5 24/24/5 25/25/5
f 26/26/5 25/25/5 24/24/5
f 25/25/5 26/26/5 27/27/5
f 16/15/5 27/27/5 26/26/5
f 27/27/5 16/15/5 14/14/5
f 15/16/1 27/27/1 14/14/1
f 27/27/1 15/16/1 28/28/1
f 28/28/1 15/16/1 18/18/1
f 28/28/1 18/18/1 29/29/1
f 29/29/1 18/18/1 21/21/1
f 29/29/1 21/21/1 30/30/1
f 31/31/3 30/30/3 32/32/3
f 31/31/3 29/29/3 30/30/3
f 29/29/3 31/31/3 33/33/3
f 33/33/3 28/28/3 29/29/3
f 32/32/6 19/19/6 31/31/6
f 19/19/6 32/32/6 20/20/6
f 12/12/3 4/4/3 7/7/3
f 12/12/3 7/7/3 34/34/3
f 34/34/3 7/7/3 10/10/3
f 34/34/3 10/10/3 35/35/3
f 11/11/6 12/12/6 13/13/6
f 22/22/6 13/13/6 12/12/6
f 12/12/6 23/23/6 22/22/6
f 23/23/6 12/12/6 36/36/6
f 36/36/6 12/12/6 34/34/6
f 36/36/6 34/34/6 37/37/6
f 37/37/6 34/34/6 35/35/6
f 37/37/6 35/35/6 38/38/6
f 6/6/4 36/36/4 37/37/4
f 6/6/4 37/37/4 8/8/4
f 37/37/4 9/9/4 8/8/4
f 9/9/4 37/37/4 38/38/4
f 39/39/4 41/40/4 40/41/4
f 41/40/4 39/39/4 42/42/4
f 43/43/3 45/44/3 44/45/3
f 45/44/3 43/43/3 46/46/3
f 33/33/7 19/19/7 17/17/7
f 19/19/7 33/33/7 31/31/7
f 33/33/6 17/17/6 26/26/6
f 16/15/6 26/26/6 17/17/6
