# Blender v3.1.2 OBJ File: 'track.blend'
# www.blender.org
mtllib Scene.475.mtl
o _0SIGN_150M_05_Scene.475
v 6105.606934 88316.500000 -935.453125
v 6105.606934 88316.500000 -930.744751
v 6099.774414 88323.054688 -930.744751
v 6099.774414 88323.054688 -935.453125
v 6105.606934 88316.500000 -950.631531
v 6084.163086 88340.585938 -935.453125
v 6084.163086 88340.585938 -930.744751
v 6099.774414 88323.054688 -950.631592
v 6105.606934 88316.500000 -955.691650
v 6099.774414 88323.054688 -955.691650
v 6089.881348 88334.164062 -955.691650
v 6089.881348 88334.164062 -950.631592
v 6084.201172 88340.531250 -955.691650
v 6084.201172 88340.531250 -950.631592
v 6089.881348 88334.164062 -962.121765
v 6084.201172 88340.531250 -962.121765
v 6089.881348 88334.164062 -965.724060
v 6084.201172 88340.531250 -965.724060
v 6105.738281 88316.359375 -962.121765
v 6105.738281 88316.359375 -965.724060
v 6068.283203 88351.859375 -1022.226990
v 6114.609863 88299.843750 -1022.226990
v 6116.820801 88301.820312 -1022.226990
v 6070.494141 88353.835938 -1022.226990
v 6068.283203 88351.859375 -872.226624
v 6114.609863 88299.843750 -872.226624
v 6070.494141 88353.835938 -872.226624
v 6116.820312 88301.820312 -872.226624
v 6097.235352 88325.960938 -997.358032
v 6097.235352 88325.960938 -971.433350
v 6091.401855 88332.507812 -971.433350
v 6091.401855 88332.507812 -997.358032
v 6097.235352 88325.960938 -1006.421021
v 6091.401855 88332.507812 -1006.421021
v 6086.841797 88337.625000 -1006.421021
v 6086.841797 88337.625000 -997.358032
v 6095.377930 88318.906250 -950.631531
v 6101.057617 88312.539062 -950.631531
v 6101.057617 88312.539062 -955.691650
v 6095.377930 88318.906250 -955.691650
v 6085.484863 88330.015625 -950.631531
v 6095.377930 88318.906250 -962.121765
v 6085.484863 88330.015625 -955.691650
v 6079.651855 88336.570312 -955.691650
v 6079.651855 88336.570312 -950.631531
v 6085.484863 88330.015625 -935.453125
v 6101.057617 88312.539062 -962.121765
v 6079.651855 88336.570312 -935.453125
v 6095.377930 88318.906250 -965.724060
v 6101.057617 88312.539062 -965.724060
v 6079.521973 88336.710938 -962.121765
v 6079.521973 88336.710938 -965.724060
v 6085.484863 88330.015625 -930.744751
v 6079.651855 88336.570312 -930.744751
v 6101.096191 88312.484375 -935.453125
v 6101.096191 88312.484375 -930.744751
v 6086.513672 88329.000000 -997.358032
v 6086.513672 88329.000000 -971.433350
v 6092.347168 88322.445312 -971.433350
v 6092.347168 88322.445312 -997.358032
v 6086.513672 88329.000000 -1006.421021
v 6092.347168 88322.445312 -1006.421021
v 6096.907227 88317.328125 -1006.421021
v 6096.907227 88317.328125 -997.358032
v 6100.014160 88322.851562 -891.051208
v 6100.014160 88322.851562 -917.291931
v 6105.847168 88316.304688 -921.665405
v 6105.847168 88316.304688 -886.677673
v 6084.035156 88340.781250 -921.665405
v 6089.868164 88334.226562 -891.051086
v 6089.868164 88334.226562 -917.291931
v 6084.035156 88340.781250 -886.677673
v 6083.734863 88332.125000 -891.051208
v 6083.734863 88332.125000 -917.291931
v 6077.901855 88338.671875 -921.665405
v 6077.901855 88338.671875 -886.677673
v 6099.713867 88314.179688 -921.665405
v 6093.880859 88320.726562 -891.051086
v 6093.880859 88320.726562 -917.291931
v 6099.713867 88314.179688 -886.677673
vt 0.042236 1.025888
vt 0.042236 1.025888
vt 0.042236 1.025888
vt 0.042236 1.025888
vt 0.042236 1.025888
vt 0.042236 1.025888
vt 0.042236 1.025888
vt 0.042236 1.025888
vt 0.042236 1.025888
vt 0.042236 1.025888
vt 0.042236 1.025888
vt 0.042236 1.025888
vt 0.042236 1.025888
vt 0.042236 1.025888
vt 0.042236 1.025888
vt 0.042236 1.025888
vt 0.042236 1.025888
vt 0.042236 1.025888
vt 0.042236 1.025888
vt 0.042236 1.025888
vt 1.000000 2.000000
vt 0.000000 1.000000
vt 1.000000 1.000000
vt 0.000000 2.000000
vt 1.000000 2.000000
vt 0.000000 2.000000
vt 0.000000 1.000000
vt 1.000000 1.000000
vt 1.000000 2.000000
vt 0.000000 1.000000
vt 1.000000 1.000000
vt 0.000000 2.000000
vt 1.000000 1.000000
vt 0.000000 2.000000
vt 0.000000 1.000000
vt 1.000000 2.000000
vt 1.000000 1.000000
vt 0.000000 1.000000
vt 0.000000 2.000000
vt 1.000000 2.000000
vt 0.042236 1.025888
vt 0.042236 1.025888
vt 0.042236 1.025888
vt 0.042236 1.025888
vt 0.042236 1.025888
vt 0.042236 1.025888
vt 0.042236 1.025888
vt 0.042236 1.025888
vt 0.042236 1.025888
vt 0.042236 1.025888
vt 0.042236 1.025888
vt 0.042236 1.025888
vt 0.042236 1.025888
vt 0.042236 1.025888
vt 0.042236 1.025888
vt 0.042236 1.025888
vt 0.042236 1.025888
vt 0.042236 1.025888
vt 0.042236 1.025888
vt 0.042236 1.025888
vt 0.042236 1.025888
vt 0.042236 1.025888
vt 0.042236 1.025888
vt 0.042236 1.025888
vt 0.042236 1.025888
vt 0.042236 1.025888
vt 0.042236 1.025888
vt 0.042236 1.025888
vt 0.042236 1.025888
vt 0.042236 1.025888
vt 0.042236 1.025888
vt 0.042236 1.025888
vt 0.042236 1.025888
vt 0.042236 1.025888
vt 0.042236 1.025888
vt 0.042236 1.025888
vt 0.042236 1.025888
vt 0.042236 1.025888
vt 0.042236 1.025888
vt 0.042236 1.025888
vt 0.042236 1.025888
vt 0.042236 1.025888
vt 0.042236 1.025888
vt 0.042236 1.025888
vt 0.042236 1.025888
vt 0.042236 1.025888
vt 0.042236 1.025888
vt 0.042236 1.025888
vt 0.042236 1.025888
vt 0.042236 1.025888
vt 0.042236 1.025888
vt 0.042236 1.025888
vn 0.7463 0.6656 0.0000
vn 0.7469 0.6649 0.0000
vn 0.7466 0.6653 0.0000
vn 0.7470 0.6649 0.0000
vn 0.7467 0.6651 0.0000
vn 0.7468 0.6650 0.0000
vn 0.7470 0.6648 0.0000
vn 0.7465 0.6654 0.0000
vn 0.7465 0.6653 -0.0000
vn 0.7462 0.6657 0.0000
vn 0.7469 0.6650 -0.0000
vn 0.7461 0.6659 0.0000
vn 0.7468 0.6651 0.0000
vn -0.0000 0.0000 -1.0000
vn -0.7468 -0.6651 0.0000
vn -0.0000 0.0000 1.0000
vn -0.6658 0.7461 -0.0000
vn -0.6632 0.7485 0.0000
vn -0.6631 0.7485 -0.0000
vn 0.6657 -0.7463 -0.0000
vn 0.6658 -0.7461 0.0000
vn 0.6659 -0.7461 -0.0000
vn 0.7466 0.6652 0.0000
vn 0.7471 0.6647 -0.0000
vn 0.7458 0.6661 -0.0000
vn -0.7465 -0.6653 0.0000
vn -0.7470 -0.6648 0.0000
vn -0.7465 -0.6654 0.0000
vn -0.7466 -0.6653 0.0000
vn -0.7467 -0.6651 0.0000
vn -0.7470 -0.6649 0.0000
vn -0.7472 -0.6646 -0.0000
vn -0.7476 -0.6641 -0.0000
vn -0.7471 -0.6647 0.0000
vn -0.7468 -0.6650 0.0000
vn -0.7467 -0.6652 -0.0000
vn -0.7469 -0.6650 0.0000
vn 0.7467 0.6651 -0.0002
vn 0.7466 0.6652 0.0004
vn 0.7466 0.6653 0.0008
vn 0.7465 0.6654 -0.0001
vn 0.7466 0.6652 0.0002
vn 0.7470 0.6649 -0.0007
vn 0.7467 0.6652 0.0001
vn 0.7469 0.6649 -0.0008
vn -0.7467 -0.6652 0.0003
vn -0.7467 -0.6651 0.0004
vn -0.7467 -0.6652 -0.0001
vn -0.7467 -0.6651 -0.0002
usemtl EmptyMat.001
s 1
f 1/1/1 3/2/2 2/3/3
f 1/1/1 4/4/4 3/2/2
f 5/5/5 4/4/4 1/1/1
f 6/6/6 3/2/2 4/4/4
f 3/2/2 6/6/6 7/7/6
f 4/4/4 5/5/5 8/8/7
f 9/9/8 8/8/7 5/5/5
f 8/8/7 9/9/8 10/10/4
f 11/11/7 8/8/7 10/10/4
f 8/8/7 11/11/7 12/12/8
f 13/13/9 12/12/8 11/11/7
f 12/12/8 13/13/9 14/14/10
f 15/15/7 13/13/9 11/11/7
f 15/15/7 16/16/1 13/13/9
f 17/17/11 16/16/1 15/15/7
f 17/17/11 18/18/12 16/16/1
f 15/15/7 19/19/13 17/17/11
f 20/20/13 17/17/11 19/19/13
f 21/21/14 23/22/14 22/23/14
f 23/22/14 21/21/14 24/24/14
f 25/25/15 21/26/15 22/27/15
f 22/27/15 26/28/15 25/25/15
f 27/29/16 26/30/16 28/31/16
f 26/30/16 27/29/16 25/32/16
f 23/33/13 27/34/13 28/35/13
f 27/34/13 23/33/13 24/36/13
f 21/37/17 25/25/18 24/38/17
f 24/38/17 25/25/18 27/34/19
f 23/39/20 28/35/21 22/40/20
f 22/40/20 28/35/21 26/28/22
f 29/41/3 31/42/2 30/43/7
f 31/42/2 29/41/3 32/44/3
f 33/45/23 32/44/3 29/41/3
f 32/44/3 33/45/23 34/46/24
f 35/47/3 32/44/3 34/46/24
f 32/44/3 35/47/3 36/48/25
f 37/49/26 39/50/15 38/51/27
f 39/50/15 37/49/26 40/52/28
f 41/53/29 40/52/28 37/49/26
f 42/54/28 39/50/15 40/52/28
f 40/52/28 41/53/29 43/55/28
f 41/53/29 44/56/30 43/55/28
f 44/56/30 41/53/29 45/57/27
f 46/58/31 45/57/27 41/53/29
f 42/54/28 47/59/32 39/50/15
f 45/57/27 46/58/31 48/60/27
f 49/61/26 47/59/32 42/54/28
f 49/61/26 50/62/33 47/59/32
f 42/54/28 51/63/15 49/61/26
f 52/64/34 49/61/26 51/63/15
f 48/60/27 46/58/31 53/65/30
f 48/60/27 53/65/30 54/66/29
f 55/67/35 53/65/30 46/58/31
f 53/65/30 55/67/35 56/68/35
f 57/69/28 59/70/36 58/71/28
f 59/70/36 57/69/28 60/72/37
f 61/73/27 60/72/37 57/69/28
f 60/72/37 61/73/27 62/74/34
f 63/75/29 60/72/37 62/74/34
f 60/72/37 63/75/29 64/76/28
f 65/77/38 67/78/39 66/79/40
f 68/80/41 67/78/39 65/77/38
f 69/81/42 66/79/40 67/78/39
f 70/82/43 68/80/41 65/77/38
f 66/79/40 69/81/42 71/83/44
f 68/80/41 70/82/43 72/84/45
f 71/83/44 72/84/45 70/82/43
f 72/84/45 71/83/44 69/81/42
f 73/85/35 75/86/46 74/87/47
f 76/88/36 75/86/46 73/85/35
f 77/89/48 74/87/47 75/86/46
f 78/90/49 76/88/36 73/85/35
f 74/87/47 77/89/48 79/91/29
f 76/88/36 78/90/49 80/92/48
f 79/91/29 80/92/48 78/90/49
f 80/92/48 79/91/29 77/89/48
