# Blender v3.1.2 OBJ File: 'track.blend'
# www.blender.org
mtllib Scene.428.mtl
o _0FLAG_AC_007_Scene.428
v 16158.320312 95273.500000 -1034.086060
v 16128.190430 95286.625000 -1034.086060
v 16156.649414 95271.585938 -757.958618
v 16128.190430 95286.625000 -757.958618
v 16091.900391 95335.906250 -1234.628906
v 16091.900391 95335.906250 -1239.710083
v 16095.250000 95339.726562 -1239.710083
v 16095.250000 95339.726562 -1234.628906
v 16083.979492 95325.453125 -1064.912964
v 16075.909180 95316.250000 -724.725586
v 16104.670898 95307.281250 -757.958618
v 16104.670898 95307.281250 -1034.086060
v 16128.889648 95286.023438 -724.725708
v 16184.010742 95258.242188 -724.725708
v 16184.010742 95258.242188 -1064.912964
v 16130.990234 95288.421875 -1064.912964
v 16139.100586 95297.664062 -1234.533936
v 16175.330078 95265.859375 -1218.144043
v 16184.010742 95258.242188 -1234.533936
v 16139.100586 95297.664062 -1218.144043
v 16102.878906 95329.460938 -1218.144043
v 16094.200195 95337.078125 -1234.533936
v 16095.120117 95320.179688 -1081.303955
v 16134.599609 95292.539062 -1081.303955
v 16174.090820 95264.882812 -1081.303955
v 15889.930664 95067.531250 -1034.086060
v 15866.240234 95090.304688 -1034.086060
v 15887.700195 95066.335938 -757.958618
v 15866.240234 95090.304688 -757.958618
v 15849.319336 95149.125000 -1239.710083
v 15853.790039 95151.539062 -1239.710083
v 15849.319336 95149.125000 -1234.628906
v 15853.790039 95151.539062 -1234.628906
v 15827.509766 95136.242188 -724.725586
v 15851.350586 95117.851562 -1034.086060
v 15838.270508 95142.062500 -1064.912964
v 15851.350586 95117.851562 -757.958496
v 15866.679688 95089.500000 -724.725586
v 15908.720703 95044.289062 -724.725586
v 15908.720703 95044.289062 -1064.912964
v 15869.479492 95091.007812 -1064.912964
v 15880.299805 95096.859375 -1234.533936
v 15903.230469 95054.460938 -1218.144043
v 15908.720703 95044.289062 -1234.533936
v 15880.299805 95096.859375 -1218.144043
v 15857.380859 95139.257812 -1218.144043
v 15851.890625 95149.421875 -1234.533936
v 15846.879883 95133.257812 -1081.303955
v 15874.299805 95093.625000 -1081.303955
v 15901.730469 95053.968750 -1081.303955
v 15460.920898 94758.539062 -1034.086060
v 15430.791016 94771.664062 -1034.086060
v 15459.250000 94756.625000 -757.958496
v 15430.791016 94771.664062 -757.958496
v 15394.500977 94820.945312 -1239.710083
v 15397.849609 94824.765625 -1239.710083
v 15394.500977 94820.945312 -1234.628906
v 15397.849609 94824.765625 -1234.628906
v 15386.580078 94810.492188 -1064.912964
v 15378.509766 94801.289062 -724.725464
v 15407.269531 94792.320312 -757.958435
v 15407.269531 94792.320312 -1034.086060
v 15431.489258 94771.054688 -724.725464
v 15486.610352 94743.281250 -724.725464
v 15486.610352 94743.281250 -1064.912964
v 15433.590820 94773.460938 -1064.912964
v 15441.701172 94782.703125 -1234.533936
v 15477.929688 94750.898438 -1218.144043
v 15486.610352 94743.281250 -1234.533936
v 15441.701172 94782.703125 -1218.144043
v 15405.479492 94814.500000 -1218.144043
v 15396.799805 94822.117188 -1234.533936
v 15397.720703 94805.218750 -1081.303955
v 15437.199219 94777.578125 -1081.303955
v 15476.690430 94749.921875 -1081.303955
v 15663.080078 94911.421875 -1034.086060
v 15640.759766 94935.554688 -1034.086060
v 15660.780273 94910.351562 -757.958496
v 15640.759766 94935.554688 -757.958496
v 15627.319336 94995.257812 -1239.710083
v 15631.919922 94997.414062 -1239.710083
v 15627.319336 94995.257812 -1234.628906
v 15631.919922 94997.414062 -1234.628906
v 15604.790039 94983.664062 -724.725464
v 15627.509766 94963.906250 -1034.086060
v 15615.871094 94988.851562 -1064.912964
v 15627.509766 94963.906250 -757.958496
v 15641.150391 94934.710938 -724.725586
v 15680.470703 94887.125000 -724.725586
v 15680.470703 94887.125000 -1064.912964
v 15644.040039 94936.062500 -1064.912964
v 15655.180664 94941.273438 -1234.533936
v 15675.580078 94897.585938 -1218.144043
v 15680.470703 94887.125000 -1234.533936
v 15655.180664 94941.273438 -1218.144043
v 15634.779297 94984.945312 -1218.144043
v 15629.899414 94995.398438 -1234.533936
v 15623.950195 94979.562500 -1081.303955
v 15649.000977 94938.375000 -1081.303955
v 15674.060547 94897.195312 -1081.303955
v 16185.530273 95253.695312 -1239.710083
v 16188.889648 95257.531250 -1239.710083
v 16181.759766 95257.031250 -1234.630005
v 16185.110352 95260.843750 -1234.630005
v 16185.129883 95260.820312 -639.660400
v 16181.779297 95257.015625 -639.660400
v 16188.949219 95257.468750 -639.660400
v 16185.600586 95253.648438 -639.660400
v 15908.569336 95039.507812 -1239.710083
v 15913.040039 95041.929688 -1239.710083
v 15906.179688 95043.937500 -1234.628906
v 15910.650391 95046.351562 -1234.628906
v 15910.670898 95046.328125 -639.660339
v 15906.199219 95043.906250 -639.660339
v 15908.610352 95039.437500 -639.660339
v 15913.080078 95041.859375 -639.660339
v 15488.129883 94738.750000 -1239.710083
v 15491.490234 94742.570312 -1239.710083
v 15484.359375 94742.070312 -1234.628906
v 15487.710938 94745.882812 -1234.628906
v 15487.730469 94745.859375 -639.660217
v 15484.379883 94742.039062 -639.660217
v 15491.549805 94742.507812 -639.660217
v 15488.200195 94738.687500 -639.660217
v 15680.040039 94882.359375 -1239.710083
v 15684.649414 94884.507812 -1239.710083
v 15682.519531 94889.070312 -1234.628906
v 15677.920898 94886.906250 -1234.628906
v 15682.530273 94889.039062 -639.660339
v 15677.929688 94886.890625 -639.660339
v 15680.080078 94882.289062 -639.660339
v 15684.679688 94884.445312 -639.660339
vt 0.840936 1.887458
vt 0.792311 1.892971
vt 0.792311 1.887458
vt 0.818741 1.891814
vt 0.818741 1.891814
vt 0.818741 1.891814
vt 0.818741 1.891814
vt 0.788982 1.917287
vt 0.788982 1.917287
vt 0.788982 1.917287
vt 0.788982 1.917287
vt 0.788982 1.917287
vt 0.788982 1.917287
vt 0.788982 1.917287
vt 0.788982 1.917287
vt 0.788982 1.917287
vt 0.788982 1.917287
vt 0.788982 1.917287
vt 0.788982 1.917287
vt 0.788982 1.917287
vt 0.788982 1.917287
vt 0.788982 1.917287
vt 0.847886 1.908420
vt 0.781225 1.884937
vt 0.847886 1.884937
vt 0.781225 1.931903
vt 0.781225 1.908420
vt 0.847886 1.931902
vt 0.788982 1.917287
vt 0.788982 1.917287
vt 0.788982 1.917287
vt 0.818741 1.891814
vt 0.818741 1.891814
vt 0.818741 1.891814
vt 0.818741 1.891814
vt 0.788982 1.917287
vt 0.788982 1.917287
vt 0.788982 1.917287
vt 0.788982 1.917287
vt 0.788982 1.917287
vt 0.788982 1.917287
vt 0.788982 1.917287
vt 0.788982 1.917287
vt 0.788982 1.917287
vt 0.788982 1.917287
vt 0.788982 1.917287
vt 0.788982 1.917287
vt 0.788982 1.917287
vt 0.788982 1.917287
vt 0.847886 1.908420
vt 0.781225 1.931903
vt 0.781225 1.908420
vt 0.788982 1.917287
vt 0.788982 1.917287
vt 0.788982 1.917287
vt 0.788982 1.917287
vt 0.788982 1.917287
vt 0.840936 1.887458
vt 0.792311 1.887458
vt 0.840936 1.881946
vt 0.840936 1.892971
vt 0.792311 1.892971
vt 0.840936 1.887458
vt 0.818741 1.891814
vt 0.818741 1.891814
vt 0.818741 1.891814
vt 0.818741 1.891814
vt 0.788982 1.917287
vt 0.788982 1.917287
vt 0.788982 1.917287
vt 0.788982 1.917287
vt 0.788982 1.917287
vt 0.788982 1.917287
vt 0.788982 1.917287
vt 0.788982 1.917287
vt 0.788982 1.917287
vt 0.788982 1.917287
vt 0.788982 1.917287
vt 0.788982 1.917287
vt 0.788982 1.917287
vt 0.788982 1.917287
vt 0.788982 1.917287
vt 0.847886 1.908420
vt 0.781225 1.884937
vt 0.847886 1.884937
vt 0.847886 1.931902
vt 0.781225 1.931903
vt 0.788982 1.917287
vt 0.788982 1.917287
vt 0.792311 1.887458
vt 0.840936 1.881946
vt 0.792311 1.881946
vt 0.840936 1.887458
vt 0.792311 1.892971
vt 0.792311 1.887458
vt 0.818741 1.891814
vt 0.818741 1.891814
vt 0.818741 1.891814
vt 0.818741 1.891814
vt 0.788982 1.917287
vt 0.788982 1.917287
vt 0.788982 1.917287
vt 0.788982 1.917287
vt 0.788982 1.917287
vt 0.788982 1.917287
vt 0.788982 1.917287
vt 0.788982 1.917287
vt 0.788982 1.917287
vt 0.788982 1.917287
vt 0.788982 1.917287
vt 0.788982 1.917287
vt 0.788982 1.917287
vt 0.788982 1.917287
vt 0.788982 1.917287
vt 0.788982 1.917287
vt 0.847886 1.884937
vt 0.781225 1.908420
vt 0.781225 1.884937
vt 0.847886 1.908420
vt 0.781225 1.931903
vt 0.788982 1.917287
vt 0.788982 1.917287
vt 0.788982 1.917287
vt 0.788982 1.917287
vt 0.840936 1.881946
vt 0.792311 1.881946
vt 0.840936 1.892971
vt 0.792310 1.892971
vt 0.792310 1.887458
vt 0.788982 1.917287
vt 0.788982 1.917287
vt 0.788982 1.917287
vt 0.781225 1.908420
vt 0.847886 1.884937
vt 0.847886 1.908420
vt 0.840936 1.887458
vt 0.792310 1.881946
vt 0.840936 1.881946
vt 0.840936 1.892971
vt 0.792310 1.892971
vt 0.792310 1.887458
vt 0.840936 1.887458
vt 0.788982 1.917287
vt 0.788982 1.917287
vt 0.847886 1.908420
vt 0.781225 1.884937
vt 0.847886 1.884937
vt 0.781225 1.908420
vt 0.847886 1.931903
vt 0.781225 1.931902
vt 0.792310 1.881946
vt 0.840936 1.881946
vt 0.792310 1.887458
vt 0.840936 1.887458
vt 0.840936 1.892971
vt 0.788982 1.917287
vt 0.788982 1.917287
vt 0.781225 1.908420
vt 0.847886 1.884937
vt 0.847886 1.908420
vt 0.847886 1.931903
vt 0.788982 1.917287
vt 0.788982 1.917287
vt 0.840936 1.892971
vt 0.792310 1.892971
vt 0.792310 1.887458
vt 0.788982 1.917287
vt 0.781225 1.908420
vt 0.847886 1.931903
vt 0.781225 1.931902
vt 0.818741 1.891814
vt 0.818741 1.891814
vt 0.818741 1.891814
vt 0.818741 1.891814
vt 0.818741 1.891814
vt 0.818741 1.891814
vt 0.818741 1.891814
vt 0.818741 1.891814
vt 0.818741 1.891814
vt 0.818741 1.891814
vt 0.818741 1.891814
vt 0.818741 1.891814
vt 0.818741 1.891814
vt 0.818741 1.891814
vt 0.818741 1.891814
vt 0.818741 1.891814
vt 0.818741 1.891814
vt 0.818741 1.891814
vt 0.818741 1.891814
vt 0.818741 1.891814
vt 0.818741 1.891814
vt 0.818741 1.891814
vt 0.818741 1.891814
vt 0.818741 1.891814
vt 0.818741 1.891814
vt 0.818741 1.891814
vt 0.818741 1.891814
vt 0.818741 1.891814
vt 0.818741 1.891814
vt 0.818741 1.891814
vt 0.818741 1.891814
vt 0.818741 1.891814
vn -0.4334 -0.9012 -0.0044
vn -0.7518 0.6593 0.0000
vn -0.7516 0.6596 0.0000
vn -0.7520 0.6592 0.0000
vn -0.7509 0.6604 -0.0000
vn -0.4815 -0.8762 -0.0194
vn -0.4816 -0.8762 -0.0194
vn -0.4746 -0.8802 -0.0044
vn -0.4558 -0.8900 0.0050
vn -0.4558 -0.8901 0.0050
vn -0.4748 -0.8801 -0.0038
vn -0.4747 -0.8801 -0.0040
vn -0.4747 -0.8801 -0.0039
vn -0.4620 -0.8867 -0.0191
vn -0.6317 -0.7723 -0.0667
vn -0.6597 -0.7515 -0.0004
vn -0.6597 -0.7515 -0.0001
vn -0.6597 -0.7515 0.0000
vn -0.6597 -0.7516 -0.0007
vn -0.6597 -0.7516 -0.0008
vn -0.6161 -0.7847 -0.0689
vn -0.6162 -0.7846 -0.0688
vn -0.6173 -0.7861 -0.0304
vn -0.6174 -0.7861 -0.0306
vn -0.6162 -0.7846 -0.0690
vn -0.5427 -0.8352 -0.0887
vn -0.5426 -0.8352 -0.0889
vn -0.5426 -0.8353 -0.0889
vn -0.5427 -0.8353 -0.0887
vn -0.5217 -0.8350 -0.1748
vn -0.5220 -0.8350 -0.1739
vn -0.5221 -0.8350 -0.1736
vn -0.5217 -0.8350 -0.1750
vn -0.4779 0.8784 0.0000
vn -0.4761 0.8794 -0.0000
vn -0.4744 0.8803 -0.0000
vn -0.7558 -0.6545 -0.0194
vn -0.7509 -0.6604 -0.0036
vn -0.7368 -0.6761 0.0058
vn -0.7507 -0.6606 -0.0040
vn -0.7411 -0.6711 -0.0192
vn -0.7508 -0.6605 -0.0036
vn -0.7411 -0.6711 -0.0191
vn -0.8606 -0.5049 -0.0664
vn -0.8607 -0.5048 -0.0664
vn -0.8606 -0.5049 -0.0665
vn -0.8797 -0.4755 0.0000
vn -0.8503 -0.5217 -0.0689
vn -0.8519 -0.5228 -0.0304
vn -0.8464 -0.5325 -0.0050
vn -0.8163 -0.5277 -0.2350
vn -0.8163 -0.5279 -0.2347
vn -0.8163 -0.5278 -0.2347
vn -0.8163 -0.5277 -0.2351
vn -0.7993 -0.5943 -0.0888
vn -0.7795 -0.6017 -0.1742
vn -0.7795 -0.6017 -0.1743
vn -0.7796 -0.6018 -0.1734
vn -0.7796 -0.6018 -0.1733
vn -0.8019 -0.5837 -0.1276
vn -0.8795 -0.4758 0.0000
vn -0.4333 -0.9012 -0.0045
vn -0.7500 0.6614 -0.0000
vn -0.7511 0.6602 0.0000
vn -0.7510 0.6603 0.0000
vn -0.4819 -0.8760 -0.0194
vn -0.4560 -0.8900 0.0055
vn -0.4746 -0.8802 -0.0041
vn -0.4748 -0.8801 -0.0040
vn -0.4746 -0.8802 -0.0040
vn -0.4616 -0.8869 -0.0196
vn -0.6318 -0.7723 -0.0661
vn -0.6319 -0.7723 -0.0661
vn -0.6595 -0.7517 -0.0000
vn -0.6597 -0.7515 0.0006
vn -0.6163 -0.7845 -0.0689
vn -0.6162 -0.7846 -0.0689
vn -0.6172 -0.7862 -0.0304
vn -0.6172 -0.7863 -0.0304
vn -0.6160 -0.7847 -0.0688
vn -0.6080 -0.7939 -0.0050
vn -0.6080 -0.7940 -0.0050
vn -0.5421 -0.8356 -0.0890
vn -0.5433 -0.8349 -0.0887
vn -0.5432 -0.8349 -0.0887
vn -0.5419 -0.8357 -0.0891
vn -0.6599 -0.7513 0.0000
vn -0.6598 -0.7514 0.0000
vn -0.7589 -0.6512 -0.0044
vn -0.4219 0.9067 -0.0000
vn -0.4229 0.9062 0.0000
vn -0.4228 0.9062 0.0000
vn -0.4239 0.9057 -0.0000
vn -0.7883 -0.6152 -0.0041
vn -0.7752 -0.6317 0.0053
vn -0.7750 -0.6320 0.0055
vn -0.7883 -0.6153 -0.0040
vn -0.7884 -0.6151 -0.0040
vn -0.7790 -0.6268 -0.0200
vn -0.7880 -0.6156 -0.0045
vn -0.7789 -0.6268 -0.0200
vn -0.8888 -0.4535 -0.0665
vn -0.8889 -0.4534 -0.0663
vn -0.9061 -0.4231 -0.0001
vn -0.9061 -0.4230 -0.0002
vn -0.9061 -0.4232 -0.0005
vn -0.9061 -0.4231 0.0000
vn -0.9060 -0.4232 -0.0002
vn -0.9060 -0.4232 -0.0000
vn -0.8794 -0.4710 -0.0689
vn -0.8795 -0.4709 -0.0689
vn -0.8794 -0.4711 -0.0689
vn -0.8811 -0.4720 -0.0305
vn -0.8794 -0.4711 -0.0690
vn -0.8765 -0.4814 -0.0050
vn -0.8459 -0.4790 -0.2347
vn -0.8135 -0.5551 -0.1733
vn -0.8135 -0.5551 -0.1732
vn -0.8347 -0.5357 -0.1279
vn -0.8346 -0.5357 -0.1279
vn -0.9059 -0.4234 0.0000
vn 0.4333 0.9012 0.0044
vn 0.4817 0.8761 0.0194
vn 0.4817 0.8761 0.0193
vn 0.4746 0.8802 0.0041
vn 0.4559 0.8900 -0.0051
vn 0.4746 0.8802 0.0042
vn 0.4746 0.8802 0.0040
vn 0.4747 0.8801 0.0041
vn 0.4619 0.8867 0.0195
vn 0.4619 0.8867 0.0196
vn 0.6316 0.7725 0.0666
vn 0.6316 0.7725 0.0665
vn 0.6162 0.7846 0.0689
vn 0.6161 0.7846 0.0688
vn 0.6090 0.7931 0.0050
vn 0.6082 0.7937 0.0050
vn 0.6081 0.7938 0.0050
vn 0.5822 0.7785 0.2344
vn 0.5823 0.7782 0.2351
vn 0.5823 0.7782 0.2354
vn 0.5822 0.7786 0.2342
vn 0.5493 0.8258 0.1279
vn 0.5494 0.8257 0.1279
vn 0.6599 0.7514 0.0000
vn 0.6599 0.7513 0.0000
vn 0.7195 0.6945 0.0044
vn 0.7194 0.6945 0.0045
vn 0.7559 0.6544 0.0194
vn 0.7508 0.6605 0.0041
vn 0.7366 0.6763 -0.0053
vn 0.7509 0.6605 0.0040
vn 0.7508 0.6605 0.0043
vn 0.7410 0.6712 0.0198
vn 0.7508 0.6606 0.0043
vn 0.8797 0.4755 0.0007
vn 0.8796 0.4756 0.0000
vn 0.8797 0.4755 0.0003
vn 0.8797 0.4755 0.0000
vn 0.8503 0.5218 0.0689
vn 0.8503 0.5217 0.0690
vn 0.8504 0.5216 0.0688
vn 0.8520 0.5226 0.0305
vn 0.8520 0.5226 0.0304
vn 0.8461 0.5331 0.0050
vn 0.7992 0.5945 0.0888
vn 0.8022 0.5832 0.1280
vn 0.8022 0.5832 0.1279
vn 0.4559 0.8900 -0.0058
vn 0.4746 0.8802 0.0037
vn 0.4748 0.8801 0.0040
vn 0.4620 0.8867 0.0194
vn 0.6315 0.7725 0.0664
vn 0.6597 0.7515 -0.0005
vn 0.6597 0.7515 0.0000
vn 0.6174 0.7861 0.0305
vn 0.6090 0.7932 0.0050
vn 0.6089 0.7932 0.0050
vn 0.5821 0.7784 0.2352
vn 0.5820 0.7785 0.2351
vn 0.5221 0.8350 0.1737
vn 0.5222 0.8351 0.1732
vn 0.5221 0.8350 0.1739
vn 0.5222 0.8351 0.1731
vn 0.5495 0.8256 0.1281
vn 0.5492 0.8258 0.1279
vn 0.7589 0.6513 0.0044
vn 0.7589 0.6512 0.0044
vn 0.7929 0.6090 0.0194
vn 0.7931 0.6087 0.0194
vn 0.7881 0.6155 0.0040
vn 0.7883 0.6153 0.0042
vn 0.7792 0.6265 0.0197
vn 0.8795 0.4710 0.0689
vn 0.8812 0.4718 0.0305
vn 0.8812 0.4719 0.0305
vn 0.8757 0.4828 0.0050
vn 0.8458 0.4790 0.2347
vn 0.8322 0.5473 0.0890
vn 0.8324 0.5470 0.0890
vn 0.8135 0.5550 0.1736
vn 0.8135 0.5551 0.1735
vn 0.8348 0.5355 0.1279
vn -0.4664 -0.5313 -0.7072
vn 0.2965 0.3377 -0.8933
vn -0.2966 -0.3379 -0.8932
vn -0.5487 -0.6251 0.5551
vn 0.4666 0.5315 -0.7070
vn -0.4664 -0.5313 0.7072
vn 0.5486 0.6249 0.5554
vn 0.4666 0.5315 0.7070
vn 0.1325 0.9912 0.0000
vn -0.9979 -0.0643 0.0000
vn -0.0642 0.9979 0.0000
vn 0.9980 0.0637 -0.0001
vn -0.9654 -0.2609 0.0000
vn 0.9665 -0.2567 -0.0001
vn 0.0644 -0.9979 -0.0001
vn 0.3793 -0.9253 -0.0001
vn -0.6221 -0.3363 -0.7070
vn 0.3954 0.2137 -0.8933
vn -0.3958 -0.2139 -0.8931
vn -0.7313 -0.3953 0.5558
vn 0.6219 0.3362 -0.7072
vn -0.6221 -0.3363 0.7070
vn 0.7315 0.3954 0.5555
vn 0.6220 0.3362 0.7072
vn 0.2862 0.9582 0.0000
vn -0.9958 0.0911 -0.0000
vn -0.9579 0.2871 0.0001
vn -0.2874 -0.9578 -0.0001
vn 0.4693 0.8830 0.0000
vn 0.0356 -0.9994 -0.0001
vn 0.9580 -0.2868 -0.0001
vn 0.8178 -0.5755 -0.0001
vn -0.4664 -0.5313 -0.7073
vn 0.2968 0.3382 -0.8931
vn -0.2964 -0.3376 -0.8934
vn -0.5488 -0.6252 0.5549
vn 0.4666 0.5315 -0.7069
vn -0.4664 -0.5313 0.7073
vn 0.4666 0.5315 0.7069
vn 0.1340 0.9910 0.0000
vn -0.9979 -0.0655 0.0000
vn -0.0657 0.9978 0.0000
vn 0.9978 0.0659 -0.0001
vn -0.9658 -0.2593 0.0000
vn 0.9664 -0.2572 -0.0001
vn 0.0660 -0.9978 -0.0001
vn 0.3788 -0.9255 -0.0001
vn -0.4077 -0.1904 -0.8930
vn 0.6406 0.2993 -0.7071
vn 0.4075 0.1903 -0.8931
vn 0.7534 0.3518 0.5556
vn -0.6404 -0.2991 -0.7074
vn 0.6410 0.2994 0.7068
vn -0.7534 -0.3519 0.5554
vn -0.6404 -0.2991 0.7074
vn 0.3421 0.9397 0.0000
vn -0.9886 0.1504 0.0000
vn -0.9398 0.3418 0.0000
vn -0.3419 -0.9397 -0.0001
vn 0.5198 0.8543 0.0000
vn -0.0221 -0.9998 -0.0001
vn 0.9396 -0.3422 -0.0001
vn 0.7835 -0.6215 -0.0001
usemtl EnvironmentMat.001
s 1
f 2/1/1 3/2/1 4/3/1
f 5/4/2 7/5/3 6/6/4
f 7/5/3 5/4/2 8/7/5
f 11/8/6 9/9/7 12/10/6
f 3/11/8 13/12/9 4/13/10
f 15/14/11 3/11/12 1/15/13
f 16/16/14 15/14/11 1/15/13
f 16/16/15 12/10/15 9/9/15
f 17/17/16 19/18/16 18/19/16
f 17/17/17 18/19/18 20/20/18
f 21/21/19 17/17/17 20/20/18
f 17/17/17 21/21/19 22/22/20
f 20/23/21 23/24/21 21/25/21
f 20/23/22 25/26/23 24/27/22
f 18/28/24 25/26/24 20/23/25
f 9/9/26 22/22/27 21/21/28
f 9/9/26 21/21/28 23/29/29
f 25/30/30 16/16/31 24/31/32
f 16/16/31 25/30/30 15/14/33
f 30/32/34 32/33/35 31/34/35
f 31/34/35 32/33/35 33/35/36
f 34/36/37 35/37/37 37/38/37
f 28/39/38 38/40/39 29/41/39
f 40/42/40 28/39/40 26/43/40
f 41/44/41 26/43/42 27/45/43
f 41/44/44 35/37/44 36/46/45
f 35/37/44 41/44/44 27/45/46
f 42/47/47 46/48/47 47/49/47
f 45/50/48 50/51/49 49/52/48
f 40/42/50 43/53/50 44/54/50
f 48/55/51 49/56/52 41/44/53
f 41/44/53 36/46/54 48/55/51
f 47/49/55 48/55/55 36/46/55
f 50/57/56 41/44/57 49/56/56
f 41/44/58 50/57/59 40/42/58
f 37/38/60 38/40/60 34/36/60
f 27/58/61 29/59/61 35/60/61
f 51/61/62 53/62/62 52/63/62
f 55/64/63 57/65/64 56/66/65
f 56/66/65 57/65/64 58/67/4
f 61/68/66 59/69/66 62/70/66
f 63/71/67 53/72/12 64/73/12
f 65/74/68 53/72/69 51/75/70
f 66/76/71 65/74/68 51/75/70
f 62/70/72 66/76/73 52/77/73
f 67/78/74 68/79/74 70/80/74
f 67/78/75 71/81/75 72/82/75
f 70/83/76 73/84/77 71/85/77
f 68/86/78 75/87/79 70/83/80
f 65/74/81 68/79/81 69/88/82
f 59/69/83 72/82/84 71/81/85
f 59/69/83 71/81/85 73/89/86
f 52/63/87 54/90/88 62/91/87
f 62/91/87 54/90/88 61/92/88
f 77/93/89 78/94/89 79/95/89
f 80/96/90 82/97/91 81/98/92
f 81/98/92 82/97/91 83/99/93
f 78/100/94 88/101/95 79/102/95
f 88/101/96 78/100/97 89/103/97
f 90/104/98 89/103/97 78/100/97
f 91/105/99 76/106/100 77/107/101
f 91/105/102 85/108/102 86/109/102
f 85/108/103 91/105/103 77/107/103
f 92/110/104 94/111/105 93/112/106
f 92/110/104 93/112/106 95/113/107
f 96/114/108 92/110/109 95/113/109
f 92/110/109 96/114/108 97/115/108
f 96/116/110 99/117/110 98/118/110
f 95/119/111 99/117/111 96/116/111
f 95/119/112 100/120/113 99/117/114
f 93/112/115 90/104/115 100/121/115
f 98/122/116 99/123/116 91/105/116
f 91/105/117 100/121/118 90/104/117
f 79/102/119 88/101/120 87/124/119
f 77/93/107 79/95/107 85/125/107
f 85/125/121 79/95/121 87/126/121
f 3/127/122 1/128/122 2/129/122
f 11/8/123 9/9/123 10/130/124
f 3/11/125 13/12/126 14/131/127
f 14/131/127 15/14/128 3/11/125
f 1/15/129 16/16/130 2/132/131
f 16/16/132 12/10/133 2/132/132
f 20/133/134 23/134/135 24/135/134
f 18/19/136 15/14/137 19/18/136
f 15/14/137 18/19/136 25/30/138
f 23/29/139 16/16/140 24/31/141
f 16/16/140 23/29/139 9/9/142
f 4/13/143 11/8/144 13/12/143
f 11/8/144 10/130/144 13/12/143
f 4/136/145 2/129/146 12/137/146
f 12/137/146 11/138/145 4/136/145
f 28/139/147 26/140/148 27/141/148
f 27/141/148 29/142/147 28/139/147
f 36/46/149 34/36/149 35/37/149
f 28/39/150 38/40/151 39/143/150
f 40/42/152 28/39/150 39/143/150
f 40/42/153 41/44/154 26/43/155
f 44/54/156 42/47/157 43/53/158
f 45/144/157 43/53/158 42/47/157
f 42/47/157 46/48/159 45/144/157
f 49/145/160 46/146/161 48/147/160
f 46/146/161 49/145/160 45/148/161
f 45/148/162 50/149/163 43/150/164
f 40/42/165 43/53/165 50/57/165
f 47/49/166 48/55/166 46/48/166
f 29/41/167 37/38/168 38/40/167
f 35/151/159 37/152/159 29/142/159
f 52/153/122 54/154/122 53/155/122
f 61/68/123 59/69/123 60/156/124
f 63/71/169 53/72/170 54/157/169
f 64/73/128 65/74/128 53/72/128
f 51/75/171 66/76/172 52/77/172
f 62/70/173 66/76/173 59/69/173
f 69/88/174 67/78/174 68/79/174
f 67/78/175 71/81/175 70/80/175
f 70/158/134 73/159/135 74/160/134
f 75/161/176 70/158/134 74/160/134
f 65/74/177 68/79/178 75/162/178
f 73/89/179 66/76/180 74/163/180
f 66/76/180 73/89/179 59/69/179
f 66/76/181 75/162/182 74/163/183
f 75/162/182 66/76/181 65/74/184
f 54/157/185 61/68/185 63/71/185
f 61/68/186 60/156/186 63/71/186
f 78/164/187 76/165/188 77/166/188
f 86/109/189 84/167/189 85/108/189
f 85/108/190 84/167/190 87/124/190
f 78/100/191 90/104/191 76/106/191
f 90/104/192 91/105/193 76/106/192
f 95/168/194 100/169/195 93/170/196
f 93/112/197 90/104/197 94/111/197
f 91/105/198 98/122/198 86/109/198
f 97/115/199 98/122/200 96/114/199
f 98/122/200 97/115/199 86/109/200
f 91/105/201 100/121/201 99/123/202
f 87/124/203 84/167/203 88/101/203
f 6/6/204 102/171/205 101/172/206
f 103/173/207 6/6/204 101/172/206
f 102/171/205 6/6/204 7/5/208
f 6/6/204 103/173/207 5/4/209
f 102/171/205 7/5/208 104/174/210
f 103/173/207 8/7/211 5/4/209
f 8/7/211 103/173/207 104/174/210
f 104/174/210 7/5/208 8/7/211
f 104/174/212 106/175/213 105/176/214
f 107/177/215 104/174/212 105/176/214
f 103/173/216 106/175/213 104/174/212
f 104/174/212 107/177/215 102/171/217
f 103/173/216 108/178/218 106/175/213
f 107/177/215 101/172/219 102/171/217
f 101/172/219 108/178/218 103/173/216
f 101/172/219 107/177/215 108/178/218
f 30/32/220 110/179/221 109/180/222
f 111/181/223 30/32/220 109/180/222
f 31/34/224 110/179/221 30/32/220
f 30/32/220 111/181/223 32/33/225
f 110/179/221 31/34/224 112/182/226
f 112/182/226 32/33/225 111/181/223
f 112/182/226 31/34/224 33/35/227
f 32/33/225 112/182/226 33/35/227
f 113/183/228 111/181/229 114/184/230
f 111/181/229 115/185/231 114/184/230
f 111/181/229 113/183/228 112/182/232
f 109/180/233 115/185/231 111/181/229
f 116/186/234 112/182/232 113/183/228
f 109/180/233 116/186/234 115/185/231
f 112/182/232 116/186/234 110/179/235
f 110/179/235 116/186/234 109/180/233
f 55/64/236 118/187/237 117/188/238
f 119/189/239 55/64/236 117/188/238
f 118/187/237 55/64/236 56/66/240
f 55/64/236 119/189/239 57/65/241
f 118/187/237 56/66/240 120/190/210
f 119/189/239 58/67/242 57/65/241
f 58/67/242 119/189/239 120/190/210
f 120/190/210 56/66/240 58/67/242
f 120/190/243 122/191/244 121/192/245
f 123/193/246 120/190/243 121/192/245
f 119/189/247 122/191/244 120/190/243
f 120/190/243 123/193/246 118/187/248
f 119/189/247 124/194/249 122/191/244
f 123/193/246 117/188/250 118/187/248
f 117/188/250 124/194/249 119/189/247
f 117/188/250 123/193/246 124/194/249
f 125/195/251 81/98/252 126/196/253
f 126/196/253 81/98/252 127/197/254
f 81/98/252 125/195/251 80/96/255
f 127/197/254 81/98/252 83/99/256
f 128/198/257 80/96/255 125/195/251
f 83/99/256 128/198/257 127/197/254
f 80/96/255 128/198/257 82/97/258
f 128/198/257 83/99/256 82/97/258
f 129/199/259 128/198/260 130/200/261
f 128/198/260 131/201/262 130/200/261
f 128/198/260 129/199/259 127/197/263
f 125/195/264 131/201/262 128/198/260
f 132/202/265 127/197/263 129/199/259
f 125/195/264 132/202/265 131/201/262
f 127/197/263 132/202/265 126/196/266
f 126/196/266 132/202/265 125/195/264
