# Blender v3.1.2 OBJ File: 'track.blend'
# www.blender.org
mtllib Scene.733.mtl
o _1WALL_small03_02_000_SUB1_Scene.733
v -13890.589844 -91658.531250 -129.910309
v -14149.169922 -91615.960938 -131.441193
v -14151.559570 -91617.750000 -129.910309
v -13890.250000 -91656.429688 -131.441193
v -13887.269531 -91637.203125 -131.441193
v -13642.309570 -91675.468750 -128.572098
v -13656.660156 -91655.601562 -30.403080
v -13884.599609 -91619.960938 -33.272179
v -13884.599609 -91619.960938 38.558800
v -13656.660156 -91655.601562 41.427902
v -14133.870117 -91518.046875 -131.441193
v -14135.940430 -91517.734375 -129.910309
v -14114.740234 -91521.054688 -131.441193
v -14127.029297 -91599.648438 -131.441193
v -14107.299805 -91585.109375 -33.272179
v -14097.680664 -91523.718750 -33.272190
v -14097.680664 -91523.718750 38.558788
v -14107.299805 -91585.109375 38.558800
v -13626.209961 -91697.773438 -128.572098
v -13624.479492 -91700.203125 -127.041199
v -13610.270508 -91609.414062 -127.041199
v -13612.309570 -91608.890625 -128.572098
v -13563.560547 -91310.710938 -127.758499
v -13565.609375 -91310.242188 -129.289398
v -13516.850586 -91012.015625 -128.475906
v -13518.899414 -91011.578125 -130.006699
v -13470.139648 -90713.296875 -129.193192
v -13472.200195 -90712.929688 -130.724091
v -13423.429688 -90414.585938 -129.910507
v -13425.500000 -90414.273438 -131.441406
v -13631.160156 -91604.132812 -128.572098
v -13647.970703 -91599.875000 -30.403090
v -13584.519531 -91305.921875 -129.289398
v -13647.970703 -91599.875000 41.427902
v -13601.400391 -91302.062500 40.710571
v -13601.400391 -91302.062500 -31.120419
v -13537.890625 -91007.710938 -130.006699
v -13554.829102 -91004.250000 39.993240
v -13554.829102 -91004.250000 -31.837740
v -13508.259766 -90706.437500 39.275921
v -13491.250977 -90709.500000 -130.724091
v -13508.259766 -90706.437500 -32.555058
v -13461.689453 -90408.617188 38.558598
v -13461.689453 -90408.617188 -33.272388
v -13444.620117 -90411.289062 -131.441406
v -13423.570312 -90414.578125 38.558598
v -13575.030273 -91091.750000 44.066570
v -13574.150391 -91091.890625 -27.758911
v -13996.989258 -91025.765625 35.905151
v -13996.110352 -91025.898438 -35.920311
v -13570.290039 -91075.015625 -125.920403
v -13992.239258 -91009.023438 -134.081802
v -13567.300781 -91055.890625 -125.920403
v -13989.259766 -90989.898438 -134.081802
v -13566.990234 -91053.812500 -124.389603
v -13988.949219 -90987.828125 -132.551102
v -13569.080078 -91053.640625 44.066509
v -13991.040039 -90987.656250 35.905090
v -13654.549805 -91775.500000 41.236439
v -13902.799805 -91736.625000 38.558819
v -13890.530273 -91658.179688 38.558800
v -13624.530273 -91699.820312 41.427910
v -13634.019531 -91760.531250 41.427917
v -13639.129883 -91768.890625 41.387959
v -13645.030273 -91773.187500 41.332909
v -14130.439453 -91701.062500 38.558819
v -14158.469727 -91662.625000 38.558819
v -14151.400391 -91617.406250 38.558800
v -14154.549805 -91678.820312 38.558819
v -14144.659180 -91692.382812 38.558819
vt -0.020353 1.688404
vt 2.977629 1.688503
vt 2.956978 1.695245
vt -0.021611 1.695245
vt -0.021207 2.001424
vt 1.613846 1.108993
vt 1.776526 2.001424
vt -0.021855 1.108993
vt -0.021855 0.755511
vt 1.613846 0.755510
vt -2.999783 1.695245
vt -2.007519 1.688305
vt -2.008892 1.695245
vt -3.019839 1.688305
vt -2.008559 2.001424
vt -2.627139 1.108994
vt -2.803940 2.001424
vt -2.006224 1.108994
vt -2.006224 0.755512
vt -2.627139 0.755512
vt -2.803940 1.752108
vt -2.008559 1.772442
vt -2.999783 1.695245
vt -2.100902 1.688305
vt -3.019839 1.688305
vt -2.100298 1.695245
vt 1.544134 1.678173
vt 1.454494 1.695245
vt 5.189169 1.668042
vt 5.009285 1.695245
vt 8.834205 1.657910
vt 8.564077 1.695245
vt 12.479240 1.647778
vt 12.118870 1.695245
vt -2.627139 1.108994
vt -2.081930 2.001424
vt -2.803940 2.001424
vt -2.063500 1.108994
vt 0.769711 2.001424
vt -2.063501 0.755512
vt -2.627139 0.755512
vt 0.783533 0.755835
vt 0.783532 1.108993
vt 3.621351 2.001424
vt 3.630566 0.756157
vt 3.630565 1.108993
vt 6.477599 0.756480
vt 6.472992 2.001424
vt 6.477599 1.108993
vt 9.324633 0.756803
vt 9.324633 1.108993
vt 9.324633 2.001424
vt -2.803940 1.752108
vt -2.081930 1.770567
vt 0.771477 1.843516
vt 3.624885 1.916465
vt 6.478292 1.989415
vt 9.331699 2.062364
vt 2.776742 2.001424
vt 2.614062 1.108993
vt 2.614062 0.755510
vt 2.776742 1.894782
vt -0.021207 1.823251
vt 1.956762 1.695245
vt 1.776526 1.894782
vt 1.977413 1.688503
vt 0.979471 0.999941
vt 0.756815 1.419458
vt 0.756836 0.999911
vt 0.980282 1.983926
vt 0.856484 1.992851
vt 0.968186 1.992866
vt -1.026142 1.538146
vt 1.972553 1.538146
vt -1.026284 2.140258
vt 1.972553 2.140258
vt -1.026481 2.975787
vt 1.972553 2.975787
vt 1.972553 1.319828
vt -1.026520 1.157587
vt -1.026481 1.319828
vt 1.972553 1.157587
vt -1.026525 1.135831
vt 1.972553 1.135831
vt -1.026525 1.993160
vt 1.972553 0.580996
vt -1.026858 0.580997
vt 1.972553 1.993160
vt -0.622650 0.999941
vt -0.673250 1.419458
vt -0.673245 0.999911
vt -0.622465 1.983926
vt -0.650599 1.992851
vt -0.625214 1.992866
vt 1.198307 1.426584
vt 0.975794 1.013567
vt 1.197761 1.013274
vt 0.976216 1.982925
vt 1.099653 1.991571
vt 0.988286 1.991718
vt 0.051695 1.062961
vt 0.000000 1.000000
vt 0.774582 1.943389
vt 0.000000 1.000000
vt 0.000000 1.000000
vt 0.010789 1.013140
vt 0.025650 1.031240
vt 0.671961 1.823219
vt 0.000000 1.000000
vt 0.443892 1.543812
vt 0.000000 1.000000
vt 0.574518 1.703842
vt 0.655028 1.802474
vn -0.0851 -0.5725 -0.8155
vn -0.0904 -0.5785 -0.8107
vn -0.0904 -0.5781 -0.8110
vn -0.0852 -0.5724 -0.8155
vn 0.1532 0.9726 -0.1749
vn 0.1548 0.9837 -0.0914
vn 0.1541 0.9725 -0.1746
vn 0.1545 0.9840 -0.0882
vn 0.1545 0.9880 0.0000
vn -0.5840 0.0913 -0.8066
vn -0.5832 0.0911 -0.8072
vn -0.5838 0.0913 -0.8067
vn 0.9731 -0.1523 -0.1731
vn 0.9838 -0.1541 -0.0914
vn 0.9731 -0.1522 -0.1730
vn 0.9842 -0.1542 -0.0869
vn 0.9879 -0.1548 0.0000
vn 0.0000 0.0000 -1.0000
vn 0.5835 -0.0913 -0.8070
vn 0.5828 -0.0921 -0.8074
vn 0.5836 -0.0913 -0.8069
vn 0.5829 -0.0922 -0.8073
vn 0.5821 -0.0930 -0.8078
vn 0.5824 -0.0930 -0.8075
vn 0.5825 -0.0930 -0.8075
vn 0.5824 -0.0930 -0.8076
vn -0.9839 0.1535 -0.0914
vn -0.9731 0.1519 -0.1732
vn -0.9731 0.1521 -0.1731
vn -0.9843 0.1536 -0.0869
vn -0.9731 0.1518 -0.1733
vn -0.9880 0.1543 0.0000
vn -0.9881 0.1541 0.0000
vn -0.9880 0.1545 0.0000
vn -0.9843 0.1537 -0.0870
vn -0.9731 0.1517 -0.1733
vn -0.9843 0.1537 -0.0871
vn 0.0056 -0.0024 -1.0000
vn -0.0003 -0.0011 -1.0000
vn 0.0055 -0.0022 -1.0000
vn -0.0003 -0.0012 -1.0000
vn -0.0005 -0.0023 -1.0000
vn -0.0004 -0.0023 -1.0000
vn 0.1524 0.9728 -0.1747
vn 0.1540 0.9838 -0.0923
vn 0.1546 0.9880 0.0000
vn 0.0059 0.0019 -1.0000
vn 0.0059 0.0018 -1.0000
vn -0.0812 -0.5755 -0.8137
vn 0.1544 0.9880 0.0000
vn 0.1542 0.9880 -0.0000
vn 0.1543 0.9880 0.0000
vn 0.1549 0.9879 0.0000
vn 0.1548 0.9880 -0.0004
vn 0.1550 0.9879 -0.0000
vn 0.1544 0.9880 -0.0015
vn -0.1545 -0.9880 0.0000
vn -0.1523 -0.9845 -0.0866
vn -0.1523 -0.9845 -0.0874
vn -0.1545 -0.9880 -0.0003
vn -0.1489 -0.9736 -0.1732
vn 0.0189 -0.0029 -0.9998
vn 0.0189 -0.0030 -0.9998
vn 0.1061 0.5799 -0.8078
vn 0.1065 0.5803 -0.8074
vn 0.1545 0.9880 0.0009
vn -0.9880 0.1543 -0.0124
vn -0.9879 0.1545 -0.0129
vn -0.9879 0.1543 -0.0124
vn -0.9879 0.1544 -0.0123
vn -0.9879 0.1545 -0.0144
vn 0.9879 -0.1543 0.0124
vn 0.9880 -0.1543 0.0124
vn 0.9880 -0.1542 0.0124
vn 0.9879 -0.1545 0.0118
vn 0.9879 -0.1545 0.0111
vn -0.0105 0.0016 0.9999
vn -0.0053 0.0008 1.0000
vn -0.0105 0.0017 0.9999
vn 0.0000 0.0000 1.0000
usemtl WallMat.001
s 1
f 1/1/1 3/2/2 2/3/3
f 1/1/1 2/3/3 4/4/4
f 5/5/5 7/6/6 6/7/7
f 7/6/6 5/5/5 8/8/8
f 9/9/9 7/6/6 8/8/8
f 7/6/6 9/9/9 10/10/9
f 2/11/10 12/12/11 11/13/11
f 12/12/11 2/11/10 3/14/12
f 13/15/13 15/16/14 14/17/15
f 15/16/14 13/15/13 16/18/16
f 15/16/14 16/18/16 17/19/17
f 15/16/14 17/19/17 18/20/17
f 14/21/18 11/13/18 13/22/18
f 11/13/18 14/21/18 2/11/18
f 19/23/19 21/24/20 20/25/21
f 21/24/20 19/23/19 22/26/22
f 22/26/22 23/27/23 21/24/20
f 23/27/23 22/26/22 24/28/23
f 24/28/23 25/29/24 23/27/23
f 25/29/24 24/28/23 26/30/25
f 26/30/25 27/31/26 25/29/24
f 27/31/26 26/30/25 28/32/26
f 28/32/26 29/33/26 27/31/26
f 29/33/26 28/32/26 30/34/26
f 7/35/27 31/36/28 6/37/29
f 31/36/28 7/35/27 32/38/30
f 32/38/30 33/39/31 31/36/28
f 7/35/27 34/40/32 32/38/30
f 34/40/32 7/35/27 10/41/33
f 34/40/32 35/42/34 32/38/30
f 33/39/31 32/38/30 36/43/35
f 36/43/35 32/38/30 35/42/34
f 36/43/35 37/44/31 33/39/31
f 35/42/34 38/45/34 36/43/35
f 37/44/31 36/43/35 39/46/35
f 39/46/35 36/43/35 38/45/34
f 38/45/34 40/47/34 39/46/35
f 39/46/35 41/48/36 37/44/31
f 42/49/35 39/46/35 40/47/34
f 41/48/36 39/46/35 42/49/35
f 40/47/34 43/50/34 42/49/35
f 44/51/37 42/49/35 43/50/34
f 42/49/35 44/51/37 41/48/36
f 45/52/36 41/48/36 44/51/37
f 6/53/38 22/26/39 19/23/40
f 22/26/39 6/53/38 31/54/41
f 31/54/41 24/28/42 22/26/39
f 24/28/42 31/54/41 33/55/42
f 33/55/42 26/30/42 24/28/42
f 26/30/42 33/55/42 37/56/42
f 37/56/42 28/32/43 26/30/42
f 28/32/43 37/56/42 41/57/43
f 41/57/43 30/34/43 28/32/43
f 30/34/43 41/57/43 45/58/43
f 5/5/5 14/59/44 15/60/45
f 5/5/5 15/60/45 8/8/8
f 8/8/8 15/60/45 18/61/46
f 8/8/8 18/61/46 9/9/9
f 4/4/47 2/3/18 14/62/18
f 4/4/47 14/62/18 5/63/48
f 19/64/40 4/4/47 6/65/38
f 6/65/38 4/4/47 5/63/48
f 20/66/49 1/1/1 19/64/49
f 19/64/49 1/1/1 4/4/4
f 46/67/50 44/68/50 43/69/51
f 29/70/52 44/68/50 46/67/50
f 44/68/53 29/70/54 45/71/55
f 45/71/55 29/70/54 30/72/56
f 47/73/57 49/74/57 48/75/58
f 50/76/59 48/75/58 49/74/60
f 48/75/58 50/76/59 51/77/61
f 52/78/61 51/77/61 50/76/59
f 52/79/62 53/80/63 51/81/63
f 53/80/63 52/79/62 54/82/62
f 54/82/64 55/83/65 53/80/65
f 55/83/65 54/82/64 56/84/64
f 55/85/66 58/86/66 57/87/66
f 58/86/66 55/85/66 56/88/66
f 58/89/67 50/90/67 49/91/67
f 56/92/68 50/90/69 58/89/67
f 50/90/69 56/92/68 52/93/70
f 52/93/70 56/92/68 54/94/71
f 48/95/72 57/96/73 47/97/74
f 57/96/73 48/95/72 55/98/75
f 48/95/72 51/99/72 55/98/75
f 55/98/75 51/99/72 53/100/76
f 59/101/77 61/102/78 60/103/78
f 59/101/77 62/104/77 61/102/78
f 59/101/77 63/105/77 62/104/77
f 63/105/77 59/101/77 64/106/79
f 64/106/79 59/101/77 65/107/79
f 66/108/80 68/109/80 67/110/80
f 61/102/78 68/109/80 66/108/80
f 61/102/78 66/108/80 60/111/78
f 66/108/80 67/110/80 69/112/80
f 66/108/80 69/112/80 70/113/80
