# Blender v3.1.2 OBJ File: 'track.blend'
# www.blender.org
mtllib Scene.398.mtl
o _0AD_Pirelli_Scene.398
v -483.714111 -60798.500000 -62.804379
v -483.715302 -60797.496094 -178.652008
v -343.605194 -60437.074219 -174.098099
v -343.603699 -60438.066406 -58.250450
v -480.171906 -60798.839844 -181.886993
v -340.061676 -60438.398438 -177.333099
v -480.173920 -60797.417969 -341.285004
v -340.063599 -60436.988281 -336.731110
v -173.524399 -60001.140625 -170.331604
v -173.523102 -60002.140625 -54.483932
v -24.814869 -59618.183594 -167.025406
v -24.813560 -59619.171875 -51.177788
v 112.304604 -59263.734375 -163.967590
v 112.305901 -59264.726562 -48.119972
v -169.981003 -60002.476562 -173.566605
v -21.271441 -59619.511719 -170.260406
v 115.848099 -59265.058594 -167.202606
v -169.983002 -60001.066406 -332.964478
v -21.273489 -59618.101562 -329.658386
v 115.846001 -59263.648438 -326.600586
v 255.783890 -58891.742188 -160.760193
v 255.785202 -58892.742188 -44.912521
v 259.327301 -58893.074219 -163.995102
v 259.325287 -58891.664062 -323.393097
v 391.869904 -58537.859375 -157.710510
v 391.871185 -58538.859375 -41.862869
v 528.079895 -58182.128906 -154.647308
v 528.081177 -58183.128906 -38.799690
v 664.967285 -57822.191406 -151.551697
v 664.968689 -57823.187500 -35.703999
v 395.413300 -58539.203125 -160.945496
v 531.623413 -58183.472656 -157.882294
v 668.510742 -57823.542969 -154.786606
v 395.411316 -58537.781250 -320.343506
v 531.621399 -58182.062500 -317.280304
v 668.508728 -57822.117188 -314.184601
v 791.511658 -57489.601562 -148.690903
v 791.513123 -57490.601562 -32.843281
v 795.055176 -57490.941406 -151.925903
v 795.053223 -57489.531250 -311.323914
vt 0.295517 1.798655
vt 0.337304 1.810911
vt 0.295517 1.810911
vt 0.337304 1.798655
vt 0.295517 1.811476
vt 0.337304 1.811476
vt 0.337304 1.794520
vt 0.295517 1.794520
vt 0.250897 1.765493
vt 0.292203 1.777749
vt 0.250897 1.777749
vt 0.292203 1.765493
vt 0.332087 1.777749
vt 0.332087 1.765493
vt 0.372537 1.777749
vt 0.372537 1.765491
vt 0.250897 1.778314
vt 0.292203 1.778314
vt 0.332087 1.778314
vt 0.372537 1.778314
vt 0.292203 1.796916
vt 0.250897 1.796916
vt 0.332087 1.796916
vt 0.372537 1.796916
vt 0.329642 1.799575
vt 0.370749 1.811832
vt 0.329642 1.811832
vt 0.370749 1.799575
vt 0.329642 1.812397
vt 0.370749 1.812397
vt 0.370749 1.795510
vt 0.329642 1.795510
vt 0.250930 1.765493
vt 0.291641 1.777749
vt 0.250930 1.777749
vt 0.291641 1.765493
vt 0.332627 1.777749
vt 0.332627 1.765493
vt 0.374633 1.777749
vt 0.374633 1.765493
vt 0.250930 1.778314
vt 0.291641 1.778314
vt 0.332627 1.778314
vt 0.374633 1.778314
vt 0.291641 1.796916
vt 0.250930 1.796916
vt 0.332627 1.796916
vt 0.374633 1.796916
vt 0.315991 1.797955
vt 0.355603 1.810212
vt 0.315991 1.810212
vt 0.355603 1.797955
vt 0.315991 1.810777
vt 0.355603 1.810777
vt 0.355603 1.794184
vt 0.315991 1.794184
vn -0.9321 0.3623 0.0032
vn -0.9318 0.3629 0.0031
vn -0.6018 0.2435 -0.7606
vn -0.6028 0.2429 -0.7600
vn -0.9318 0.3629 0.0032
vn -0.9319 0.3627 0.0031
vn -0.9324 0.3614 0.0031
vn -0.9328 0.3603 0.0031
vn -0.6031 0.2413 -0.7603
vn -0.6034 0.2404 -0.7604
vn -0.6033 0.2404 -0.7605
vn -0.6039 0.2398 -0.7601
vn -0.6038 0.2398 -0.7602
vn -0.9319 0.3627 0.0032
vn -0.9324 0.3614 0.0032
vn -0.9328 0.3603 0.0032
vn -0.9332 0.3594 0.0031
vn -0.6040 0.2392 -0.7602
vn -0.6038 0.2391 -0.7605
vn -0.9332 0.3594 0.0032
vn -0.9336 0.3582 0.0031
vn -0.9343 0.3565 0.0031
vn -0.9347 0.3555 0.0031
vn -0.6041 0.2383 -0.7605
vn -0.6045 0.2372 -0.7605
vn -0.6047 0.2366 -0.7605
vn -0.9336 0.3582 0.0032
vn -0.9343 0.3565 0.0032
vn -0.9347 0.3555 0.0032
vn -0.9346 0.3556 0.0031
vn -0.9346 0.3556 0.0032
usemtl EnvironmentMat.001
s 1
f 1/1/1 3/2/2 2/3/1
f 3/2/2 1/1/1 4/4/2
f 2/3/3 3/2/4 5/5/3
f 5/5/3 3/2/4 6/6/4
f 5/5/1 8/7/5 7/8/1
f 8/7/5 5/5/1 6/6/5
f 4/9/2 9/10/6 3/11/2
f 9/10/6 4/9/2 10/12/6
f 10/12/6 11/13/7 9/10/6
f 11/13/7 10/12/6 12/14/7
f 12/14/7 13/15/8 11/13/7
f 13/15/8 12/14/7 14/16/8
f 3/11/4 9/10/9 6/17/4
f 6/17/4 9/10/9 15/18/9
f 9/10/9 11/13/10 15/18/9
f 15/18/9 11/13/10 16/19/11
f 11/13/10 13/15/12 16/19/11
f 16/19/11 13/15/12 17/20/13
f 6/17/5 18/21/14 8/22/5
f 18/21/14 6/17/5 15/18/14
f 15/18/14 19/23/15 18/21/14
f 19/23/15 15/18/14 16/19/15
f 16/19/15 20/24/16 19/23/15
f 20/24/16 16/19/15 17/20/16
f 14/25/8 21/26/17 13/27/8
f 21/26/17 14/25/8 22/28/17
f 13/27/12 21/26/18 17/29/13
f 17/29/13 21/26/18 23/30/19
f 17/29/16 24/31/20 20/32/16
f 24/31/20 17/29/16 23/30/20
f 22/33/17 25/34/21 21/35/17
f 25/34/21 22/33/17 26/36/21
f 26/36/21 27/37/22 25/34/21
f 27/37/22 26/36/21 28/38/22
f 28/38/22 29/39/23 27/37/22
f 29/39/23 28/38/22 30/40/23
f 21/35/18 25/34/24 23/41/19
f 23/41/19 25/34/24 31/42/24
f 25/34/24 27/37/25 31/42/24
f 31/42/24 27/37/25 32/43/25
f 27/37/25 29/39/26 32/43/25
f 32/43/25 29/39/26 33/44/26
f 23/41/20 34/45/27 24/46/20
f 34/45/27 23/41/20 31/42/27
f 31/42/27 35/47/28 34/45/27
f 35/47/28 31/42/27 32/43/28
f 32/43/28 36/48/29 35/47/28
f 36/48/29 32/43/28 33/44/29
f 30/49/23 37/50/30 29/51/23
f 37/50/30 30/49/30 38/52/30
f 29/51/26 37/50/26 33/53/26
f 33/53/26 37/50/26 39/54/26
f 33/53/29 40/55/31 36/56/29
f 40/55/31 33/53/29 39/54/30
