# Blender v3.1.2 OBJ File: 'track.blend'
# www.blender.org
mtllib Scene.477.mtl
o _0SIGN_AD01_02_Scene.477
v -21253.101562 36110.699219 -710.997803
v -21255.199219 36111.410156 -710.997803
v -21253.101562 36110.699219 -410.997681
v -21255.199219 36111.410156 -410.997681
v -20889.019531 37191.800781 -710.997803
v -20886.929688 37191.089844 -710.997803
v -20889.019531 37191.800781 -410.997833
v -20886.929688 37191.089844 -410.997833
vt 0.049357 1.803403
vt 0.049357 1.805712
vt 0.049185 1.803403
vt 0.049185 1.805712
vt 0.049357 1.801094
vt 0.049357 1.803403
vt 0.049185 1.801094
vt 0.049185 1.803403
vt 0.048841 1.809875
vt 0.049013 1.801094
vt 0.049013 1.809875
vt 0.048841 1.801094
vt 0.049185 1.809875
vt 0.049013 1.801094
vt 0.049185 1.801094
vt 0.049013 1.809875
vt 0.123661 1.809430
vt 0.000404 1.809430
vt 0.000404 1.751420
vt 0.123661 1.751420
vt 0.044709 1.809875
vt 0.044709 1.801094
vt 0.048841 1.801094
vt 0.048841 1.809875
vn -0.3203 -0.9473 0.0000
vn -0.3225 -0.9466 0.0000
vn 0.3200 0.9474 0.0000
vn 0.3232 0.9463 0.0000
vn 0.3231 0.9464 -0.0000
vn 0.0000 0.0000 -1.0000
vn 0.0000 0.0000 1.0000
vn 0.9471 -0.3210 0.0000
vn -0.9471 0.3210 0.0000
usemtl EnvironmentMat.001
s 1
f 1/1/1 3/2/2 2/3/1
f 2/3/1 3/2/2 4/4/2
f 5/5/3 7/6/4 6/7/3
f 6/7/3 7/6/4 8/8/5
f 2/9/6 6/10/6 1/11/6
f 6/10/6 2/9/6 5/12/6
f 8/13/7 4/14/7 3/15/7
f 4/14/7 8/13/7 7/16/7
f 1/17/8 6/18/8 8/19/8
f 1/17/8 8/19/8 3/20/8
f 5/21/9 2/22/9 4/23/9
f 5/21/9 4/23/9 7/24/9
