# Blender v3.1.2 OBJ File: 'track.blend'
# www.blender.org
mtllib Scene.473.mtl
o _0SIGN_150M_03_Scene.473
v 14315.429688 3060.128906 -380.339294
v 14315.429688 3060.128906 -375.631012
v 14306.919922 3062.229004 -375.631012
v 14306.919922 3062.229004 -380.339294
v 14315.429688 3060.128906 -395.517792
v 14284.128906 3067.849854 -380.339294
v 14284.128906 3067.849854 -375.631012
v 14306.919922 3062.229004 -395.517792
v 14315.429688 3060.128906 -400.577789
v 14306.919922 3062.229004 -400.577789
v 14292.480469 3065.791016 -400.577789
v 14292.480469 3065.791016 -395.517792
v 14284.190430 3067.836914 -400.577789
v 14284.190430 3067.836914 -395.517792
v 14292.480469 3065.791016 -407.007996
v 14284.190430 3067.836914 -407.007996
v 14292.480469 3065.791016 -410.610291
v 14284.190430 3067.836914 -410.610291
v 14315.629883 3060.082031 -407.007996
v 14315.629883 3060.082031 -410.610291
v 14264.660156 3068.169922 -467.112915
v 14332.280273 3051.489014 -467.112793
v 14332.989258 3054.363037 -467.112793
v 14265.370117 3071.043945 -467.112915
v 14264.660156 3068.169922 -317.112885
v 14332.280273 3051.489014 -317.112793
v 14265.370117 3071.043945 -317.112885
v 14332.989258 3054.363037 -317.112793
v 14303.179688 3063.192871 -442.244202
v 14303.179688 3063.192871 -416.319611
v 14294.669922 3065.294189 -416.319611
v 14294.669922 3065.294189 -442.244202
v 14303.179688 3063.192871 -451.307312
v 14294.669922 3065.294189 -451.307312
v 14288.009766 3066.936035 -451.307312
v 14288.009766 3066.936035 -442.244202
v 14305.639648 3056.329834 -395.517792
v 14313.929688 3054.285156 -395.517792
v 14313.929688 3054.285156 -400.577789
v 14305.639648 3056.329834 -400.577789
v 14291.200195 3059.892090 -395.517792
v 14305.639648 3056.329834 -407.007996
v 14291.200195 3059.892090 -400.577789
v 14282.679688 3061.992188 -400.577789
v 14282.679688 3061.992188 -395.517792
v 14291.200195 3059.892090 -380.339294
v 14313.929688 3054.285156 -407.007996
v 14282.679688 3061.992188 -380.339294
v 14305.639648 3056.329834 -410.610291
v 14313.929688 3054.285156 -410.610291
v 14282.490234 3062.040039 -407.007996
v 14282.490234 3062.040039 -410.610291
v 14291.200195 3059.892090 -375.631012
v 14282.679688 3061.992188 -375.631012
v 14313.980469 3054.270996 -380.339294
v 14313.980469 3054.270996 -375.631012
v 14292.619141 3059.630127 -442.244202
v 14292.619141 3059.630127 -416.319611
v 14301.139648 3057.529053 -416.319611
v 14301.139648 3057.529053 -442.244202
v 14292.619141 3059.630127 -451.307312
v 14301.139648 3057.529053 -451.307312
v 14307.790039 3055.886963 -451.307312
v 14307.790039 3055.886963 -442.244202
v 14307.240234 3062.192871 -335.937408
v 14307.240234 3062.192871 -362.178192
v 14315.750000 3060.093018 -366.551575
v 14315.750000 3060.093018 -331.563904
v 14283.909180 3067.946045 -366.551575
v 14292.429688 3065.845947 -335.937408
v 14292.429688 3065.845947 -362.178192
v 14283.909180 3067.946045 -331.563904
v 14288.569336 3060.630127 -335.937408
v 14288.569336 3060.630127 -362.178192
v 14280.050781 3062.730957 -366.551575
v 14280.050781 3062.730957 -331.563904
v 14311.889648 3054.877197 -366.551575
v 14303.379883 3056.977051 -335.937408
v 14303.379883 3056.977051 -362.178192
v 14311.889648 3054.877197 -331.563904
vt 0.042236 1.025888
vt 0.042236 1.025888
vt 0.042236 1.025888
vt 0.042236 1.025888
vt 0.042236 1.025888
vt 0.042236 1.025888
vt 0.042236 1.025888
vt 0.042236 1.025888
vt 0.042236 1.025888
vt 0.042236 1.025888
vt 0.042236 1.025888
vt 0.042236 1.025888
vt 0.042236 1.025888
vt 0.042236 1.025888
vt 0.042236 1.025888
vt 0.042236 1.025888
vt 0.042236 1.025888
vt 0.042236 1.025888
vt 0.042236 1.025888
vt 0.042236 1.025888
vt 1.000000 2.000000
vt 0.000000 1.000000
vt 1.000000 1.000000
vt 0.000000 2.000000
vt 1.000000 2.000000
vt 0.000000 2.000000
vt 0.000000 1.000000
vt 1.000000 1.000000
vt 1.000000 2.000000
vt 0.000000 1.000000
vt 1.000000 1.000000
vt 0.000000 2.000000
vt 1.000000 1.000000
vt 0.000000 2.000000
vt 0.000000 1.000000
vt 1.000000 2.000000
vt 1.000000 1.000000
vt 0.000000 1.000000
vt 0.000000 2.000000
vt 1.000000 2.000000
vt 0.042236 1.025888
vt 0.042236 1.025888
vt 0.042236 1.025888
vt 0.042236 1.025888
vt 0.042236 1.025888
vt 0.042236 1.025888
vt 0.042236 1.025888
vt 0.042236 1.025888
vt 0.042236 1.025888
vt 0.042236 1.025888
vt 0.042236 1.025888
vt 0.042236 1.025888
vt 0.042236 1.025888
vt 0.042236 1.025888
vt 0.042236 1.025888
vt 0.042236 1.025888
vt 0.042236 1.025888
vt 0.042236 1.025888
vt 0.042236 1.025888
vt 0.042236 1.025888
vt 0.042236 1.025888
vt 0.042236 1.025888
vt 0.042236 1.025888
vt 0.042236 1.025888
vt 0.042236 1.025888
vt 0.042236 1.025888
vt 0.042236 1.025888
vt 0.042236 1.025888
vt 0.042236 1.025888
vt 0.042236 1.025888
vt 0.042236 1.025888
vt 0.042236 1.025888
vt 0.042236 1.025888
vt 0.042236 1.025888
vt 0.042236 1.025888
vt 0.042236 1.025888
vt 0.042236 1.025888
vt 0.042236 1.025888
vt 0.042236 1.025888
vt 0.042236 1.025888
vt 0.042236 1.025888
vt 0.042236 1.025888
vt 0.042236 1.025888
vt 0.042236 1.025888
vt 0.042236 1.025888
vt 0.042236 1.025888
vt 0.042236 1.025888
vt 0.042236 1.025888
vt 0.042236 1.025888
vt 0.042236 1.025888
vt 0.042236 1.025888
vt 0.042236 1.025888
vn 0.2396 0.9709 0.0000
vn 0.2395 0.9709 0.0000
vn 0.2394 0.9709 0.0000
vn 0.0000 -0.0000 -1.0000
vn -0.2395 -0.9709 0.0000
vn -0.0000 0.0000 1.0000
vn -0.9708 0.2398 0.0000
vn 0.9708 -0.2398 0.0000
vn 0.2397 0.9708 0.0000
vn 0.2397 0.9709 0.0000
vn -0.2394 -0.9709 0.0000
vn -0.2397 -0.9708 0.0000
vn -0.2393 -0.9709 0.0000
vn -0.2396 -0.9709 0.0000
vn 0.2395 0.9709 0.0001
vn 0.2395 0.9709 -0.0001
vn 0.2396 0.9709 0.0001
vn 0.2394 0.9709 0.0002
vn 0.2394 0.9709 -0.0003
vn 0.2394 0.9709 0.0001
vn -0.2395 -0.9709 0.0001
vn -0.2395 -0.9709 -0.0001
vn -0.2396 -0.9709 -0.0001
usemtl EmptyMat.001
s 1
f 1/1/1 3/2/2 2/3/1
f 1/1/1 4/4/2 3/2/2
f 5/5/1 4/4/2 1/1/1
f 6/6/3 3/2/2 4/4/2
f 3/2/2 6/6/3 7/7/3
f 4/4/2 5/5/1 8/8/1
f 9/9/1 8/8/1 5/5/1
f 8/8/1 9/9/1 10/10/2
f 11/11/1 8/8/1 10/10/2
f 8/8/1 11/11/1 12/12/1
f 13/13/1 12/12/1 11/11/1
f 12/12/1 13/13/1 14/14/1
f 15/15/1 13/13/1 11/11/1
f 15/15/1 16/16/1 13/13/1
f 17/17/2 16/16/1 15/15/1
f 17/17/2 18/18/1 16/16/1
f 15/15/1 19/19/3 17/17/2
f 20/20/3 17/17/2 19/19/3
f 21/21/4 23/22/4 22/23/4
f 23/22/4 21/21/4 24/24/4
f 25/25/5 21/26/5 22/27/5
f 22/27/5 26/28/5 25/25/5
f 27/29/6 26/30/6 28/31/6
f 26/30/6 27/29/6 25/32/6
f 23/33/2 27/34/2 28/35/2
f 27/34/2 23/33/2 24/36/2
f 21/37/7 25/25/7 24/38/7
f 24/38/7 25/25/7 27/34/7
f 23/39/8 28/35/8 22/40/8
f 22/40/8 28/35/8 26/28/8
f 29/41/9 31/42/9 30/43/9
f 31/42/9 29/41/9 32/44/1
f 33/45/9 32/44/1 29/41/9
f 32/44/1 33/45/9 34/46/2
f 35/47/3 32/44/1 34/46/2
f 32/44/1 35/47/3 36/48/10
f 37/49/5 39/50/11 38/51/11
f 39/50/11 37/49/5 40/52/5
f 41/53/12 40/52/5 37/49/5
f 42/54/5 39/50/11 40/52/5
f 40/52/5 41/53/12 43/55/11
f 41/53/12 44/56/11 43/55/11
f 44/56/11 41/53/12 45/57/11
f 46/58/11 45/57/11 41/53/12
f 42/54/5 47/59/5 39/50/11
f 45/57/11 46/58/11 48/60/13
f 49/61/5 47/59/5 42/54/5
f 49/61/5 50/62/5 47/59/5
f 42/54/5 51/63/5 49/61/5
f 52/64/5 49/61/5 51/63/5
f 48/60/13 46/58/11 53/65/11
f 48/60/13 53/65/11 54/66/11
f 55/67/14 53/65/11 46/58/11
f 53/65/11 55/67/14 56/68/14
f 57/69/5 59/70/11 58/71/11
f 59/70/11 57/69/5 60/72/5
f 61/73/11 60/72/5 57/69/5
f 60/72/5 61/73/11 62/74/5
f 63/75/12 60/72/5 62/74/5
f 60/72/5 63/75/12 64/76/12
f 65/77/15 67/78/2 66/79/16
f 68/80/15 67/78/2 65/77/15
f 69/81/17 66/79/16 67/78/2
f 70/82/18 68/80/15 65/77/15
f 66/79/16 69/81/17 71/83/19
f 68/80/15 70/82/18 72/84/20
f 71/83/19 72/84/20 70/82/18
f 72/84/20 71/83/19 69/81/17
f 73/85/5 75/86/5 74/87/21
f 76/88/5 75/86/5 73/85/5
f 77/89/14 74/87/21 75/86/5
f 78/90/22 76/88/5 73/85/5
f 74/87/21 77/89/14 79/91/21
f 76/88/5 78/90/22 80/92/23
f 79/91/21 80/92/23 78/90/22
f 80/92/23 79/91/21 77/89/14
