# Blender v3.1.2 OBJ File: 'track.blend'
# www.blender.org
mtllib Scene.561.mtl
o _0TRIBUENE_02_020_SUB0_Scene.561
v -19603.929688 -96546.945312 -1010.406982
v -19504.429688 -96569.929688 -880.407043
v -19504.429688 -96569.929688 -1010.406982
v -19603.929688 -96546.945312 -880.406860
v -18870.869141 -93325.937500 -1010.406982
v -19603.019531 -96548.281250 -880.406860
v -19603.019531 -96548.281250 -1010.406982
v -18870.869141 -93325.937500 -880.406860
v -18870.869141 -93325.937500 -1030.407104
v -19603.019531 -96548.281250 -1030.407104
v -19504.679688 -96571.023438 -1010.406982
v -19504.679688 -96571.023438 -1030.407104
v -18432.029297 -96814.742188 -540.407166
v -18432.029297 -96814.742188 -520.407227
v -18872.939453 -93327.960938 -1010.406982
v -18872.939453 -93327.960938 -880.406860
v -18431.779297 -96813.648438 -520.407227
v -18431.779297 -96813.648438 -390.407196
v -17502.070312 -93634.226562 -518.225281
v -18234.880859 -96859.476562 -518.225281
v -18234.880859 -96859.476562 -388.225281
v -17502.070312 -93634.226562 -388.225281
v -17502.070312 -93634.226562 -538.225342
v -18234.880859 -96859.476562 -538.225342
v -18237.160156 -96856.515625 -518.266479
v -18237.160156 -96856.515625 -388.266602
v -17505.599609 -93636.765625 -388.266602
v -17505.599609 -93636.765625 -518.266479
v -19504.679688 -96571.023438 -880.407043
v -18432.021484 -96814.742188 -390.407196
v -18432.189453 -96812.203125 -518.266479
v -18432.189453 -96812.203125 -388.266602
v -18429.910156 -96815.164062 -538.225342
v -18429.910156 -96815.164062 -518.225281
v -18429.910156 -96815.164062 -388.225281
v -17697.099609 -93589.914062 -518.225281
v -17697.099609 -93589.914062 -388.225281
v -17697.099609 -93589.914062 -538.225342
v -17700.630859 -93592.460938 -518.266479
v -17700.630859 -93592.460938 -388.266602
v -18431.429688 -96812.125000 -520.407227
v -19504.089844 -96568.406250 -880.407043
v -19504.089844 -96568.406250 -1010.406982
v -18431.429688 -96812.125000 -390.407196
v -18431.429688 -96812.125000 -540.407166
v -19504.089844 -96568.406250 -1030.407104
v -19600.750000 -96546.851562 -1030.407104
v -19600.750000 -96546.851562 -1010.406982
v -18431.179688 -96811.039062 -520.407227
v -19503.849609 -96567.320312 -880.407043
v -19503.849609 -96567.320312 -1010.406982
v -18431.179688 -96811.039062 -390.407196
v -18869.451172 -93328.210938 -1030.407104
v -18869.451172 -93328.210938 -1010.406982
v -19601.660156 -96545.507812 -1010.406982
v -19601.660156 -96545.507812 -880.406860
v -19600.750000 -96546.851562 -880.406860
v -18869.451172 -93328.210938 -880.406860
v -18870.330078 -93328.554688 -1010.406982
v -18870.330078 -93328.554688 -880.406860
v -17700.300781 -93594.250000 -520.407227
v -18772.958984 -93350.539062 -1010.406982
v -18772.958984 -93350.539062 -880.407043
v -17700.300781 -93594.250000 -390.407196
v -17700.300781 -93594.250000 -540.407166
v -18772.958984 -93350.539062 -1030.407104
v -17506.210938 -93636.851562 -518.225281
v -18237.490234 -96855.343750 -388.225281
v -18237.490234 -96855.343750 -518.225281
v -17506.210938 -93636.851562 -388.225281
v -17506.210938 -93636.851562 -538.225342
v -18237.490234 -96855.343750 -538.225342
v -18239.769531 -96852.390625 -518.266479
v -17509.740234 -93639.382812 -518.266479
v -17509.740234 -93639.382812 -388.266602
v -18239.769531 -96852.390625 -388.266602
v -18431.099609 -96807.437500 -518.266479
v -18431.099609 -96807.437500 -388.266602
v -18428.830078 -96810.398438 -538.225342
v -18428.830078 -96810.398438 -518.225281
v -18428.830078 -96810.398438 -388.225281
v -17698.189453 -93594.703125 -518.225281
v -17698.189453 -93594.703125 -388.225281
v -17698.189453 -93594.703125 -538.225342
v -17701.710938 -93597.226562 -518.266479
v -17701.710938 -93597.226562 -388.266602
v -17699.710938 -93591.640625 -520.407227
v -18772.359375 -93347.929688 -880.407043
v -18772.359375 -93347.929688 -1010.406982
v -17699.710938 -93591.640625 -390.407196
v -17699.710938 -93591.640625 -540.407166
v -18772.359375 -93347.929688 -1030.407104
v -18872.771484 -93328.960938 -1010.406982
v -18773.281250 -93351.945312 -880.407043
v -18773.281250 -93351.945312 -1010.406982
v -18872.771484 -93328.960938 -880.406860
v -17700.619141 -93595.671875 -520.407227
v -17700.619141 -93595.671875 -390.407196
v -17700.031250 -93593.062500 -520.407227
v -18772.689453 -93349.343750 -880.407043
v -18772.689453 -93349.343750 -1010.406982
v -17700.031250 -93593.062500 -390.407196
v -18870.509766 -93327.531250 -1010.406982
v -18870.509766 -93327.531250 -880.406860
vt 102.061203 1.445998
vt 106.201202 1.445998
vt 106.201202 1.808102
vt 102.061203 1.808102
vt -1.128167 1.445998
vt 7.317342 1.445998
vt 7.317341 1.808102
vt -1.128167 1.808102
vt 0.439238 1.852482
vt 0.439238 1.852482
vt 0.439238 1.901746
vt 0.439238 1.901746
vt 0.439238 1.901746
vt 0.439238 1.852482
vt 0.439238 1.852482
vt 0.439238 1.901746
vt -32.960171 1.445998
vt -32.960171 1.808102
vt -133.517502 1.445998
vt -20.685499 1.808102
vt -20.685499 1.445998
vt -133.517502 1.808102
vt 1.994339 1.445998
vt 10.414750 1.808102
vt 10.414750 1.445998
vt 1.994339 1.808102
vt 0.439238 1.852482
vt 0.439238 1.901746
vt 0.439238 1.852482
vt 0.439238 1.901746
vt 103.806503 1.445998
vt -30.874689 1.808102
vt 103.806503 1.808102
vt -30.874689 1.445998
vt 7.573064 1.445998
vt 7.573063 1.808102
vt -7.406326 1.445998
vt -0.354325 1.808102
vt -0.354325 1.445998
vt -7.406326 1.808102
vt 111.989601 1.445998
vt 111.989601 1.808102
vt 0.439238 1.852482
vt 0.439238 1.901746
vt 10.925800 1.445998
vt 10.925800 1.808102
vt 1.483288 1.445998
vt 1.483288 1.808102
vt 0.439238 1.901746
vt 0.439238 1.852482
vt -39.057812 1.445998
vt -39.057812 1.808102
vt -7.406326 1.445998
vt -0.354325 1.445998
vt -0.354325 1.808102
vt -7.406326 1.808102
vt 0.439238 1.852482
vt 0.439238 1.901746
vt 0.439238 1.901746
vt 0.439238 1.852482
vt 0.439238 1.852482
vt 0.439238 1.901746
vt -133.517502 1.445998
vt -20.685499 1.445998
vt -20.685499 1.808102
vt -133.517502 1.808102
vt 0.439238 1.852482
vt 0.439238 1.901746
vt 102.061203 1.445998
vt 106.201202 1.808102
vt 106.201202 1.445998
vt 102.061203 1.808102
vt 7.317342 1.445998
vt 7.573063 1.808102
vt 7.573064 1.445998
vt 7.317341 1.808102
vt -1.128167 1.445998
vt -1.128167 1.808102
vt -32.960171 1.445998
vt -32.960171 1.808102
vt -7.406326 1.445998
vt -0.354325 1.808102
vt -0.354325 1.445998
vt -7.406326 1.808102
vt 0.439238 1.901746
vt 0.439238 1.901746
vt 0.439238 1.852482
vt 0.439238 1.852482
vt 7.317342 1.445998
vt 7.573064 1.445998
vt 7.573063 1.808102
vt 7.317341 1.808102
vt 1.994339 1.445998
vt 10.414750 1.445998
vt 10.414750 1.808102
vt 1.994339 1.808102
vt 0.439238 1.852482
vt 0.439238 1.852482
vt 0.439238 1.901746
vt 0.439238 1.901746
vt 103.806503 1.445998
vt -30.874689 1.808102
vt -30.874689 1.445998
vt 103.806503 1.808102
vt 111.989601 1.445998
vt 111.989601 1.808102
vt 0.439238 1.852482
vt 0.439238 1.901746
vt 10.925800 1.445998
vt 10.925800 1.808102
vt 1.483288 1.445998
vt 1.483288 1.808102
vt 0.439238 1.901746
vt 0.439238 1.852482
vt -39.057812 1.445998
vt -39.057812 1.808102
vt -7.406326 1.445998
vt -0.354325 1.445998
vt -0.354325 1.808102
vt -7.406326 1.808102
vt 0.439238 1.852482
vt 0.439238 1.901746
vt 0.439238 1.901746
vt 0.439238 1.852482
vt 7.317342 1.445998
vt 7.573063 1.808102
vt 7.573064 1.445998
vt 7.317341 1.808102
vt 102.061203 1.445998
vt 106.201202 1.445998
vt 106.201202 1.808102
vt 102.061203 1.808102
vt -133.517502 1.445998
vt -20.685499 1.808102
vt -20.685499 1.445998
vt -133.517502 1.808102
vt -133.517502 1.445998
vt -20.685499 1.445998
vt -20.685499 1.808102
vt -133.517502 1.808102
vt 102.061203 1.445998
vt 106.201202 1.808102
vt 106.201202 1.445998
vt 102.061203 1.808102
vn -0.2251 -0.9743 0.0000
vn -0.2218 -0.9751 -0.0000
vn -0.2249 -0.9744 0.0000
vn -0.9751 0.2216 0.0000
vn -0.2253 -0.9743 0.0000
vn -0.2216 -0.9751 0.0000
vn -0.9752 0.2214 0.0000
vn 0.9751 -0.2216 0.0000
vn -0.2250 -0.9743 0.0000
vn 0.2216 0.9751 0.0000
vn 0.2215 0.9752 0.0000
vn 0.2179 0.9760 0.0000
vn 0.2215 0.9751 0.0000
vn 0.2177 0.9760 0.0000
vn 0.2176 0.9760 0.0000
vn 0.2212 0.9752 0.0000
vn 0.2188 0.9758 -0.0000
vn 0.9751 -0.2217 0.0000
vn -0.2252 -0.9743 0.0000
vn -0.2212 -0.9752 0.0000
vn -0.2217 -0.9751 0.0000
vn -0.2254 -0.9743 0.0000
vn 0.2287 0.9735 0.0000
vn -0.2144 -0.9767 0.0000
vn -0.2145 -0.9767 0.0000
vn 0.2182 0.9759 0.0000
usemtl GitterMat.001
s 1
f 1/1/1 3/2/2 2/3/3
f 1/1/1 2/3/3 4/4/1
f 5/5/4 7/6/4 6/7/4
f 5/5/4 6/7/4 8/8/4
f 9/9/4 10/10/4 7/11/4
f 9/9/4 7/11/4 5/12/4
f 10/10/5 11/13/1 7/11/5
f 10/10/5 12/14/1 11/13/1
f 13/15/6 11/13/1 12/14/1
f 14/16/6 11/13/1 13/15/6
f 15/17/7 1/1/7 4/4/7
f 15/17/7 4/4/7 16/18/7
f 17/19/6 2/20/3 3/21/2
f 18/22/6 2/20/3 17/19/6
f 19/23/8 21/24/8 20/25/8
f 21/24/8 19/23/8 22/26/8
f 23/27/8 20/28/8 24/29/8
f 20/28/8 23/27/8 19/30/8
f 25/31/8 27/32/8 26/33/8
f 27/32/8 25/31/8 28/34/8
f 7/6/5 11/35/1 29/36/9
f 7/6/5 29/36/9 6/7/5
f 14/37/6 29/38/9 11/39/1
f 30/40/6 29/38/9 14/37/6
f 31/41/6 25/31/6 26/33/6
f 31/41/6 26/33/6 32/42/6
f 33/43/6 24/29/6 20/28/6
f 33/43/6 20/28/6 34/44/6
f 34/45/6 20/25/6 21/24/6
f 34/45/6 21/24/6 35/46/6
f 36/47/10 37/48/10 19/23/10
f 19/23/10 37/48/10 22/26/10
f 36/49/10 23/27/10 38/50/10
f 23/27/10 36/49/10 19/30/10
f 39/51/11 40/52/11 28/34/11
f 28/34/11 40/52/11 27/32/11
f 41/53/10 43/54/11 42/55/12
f 41/53/10 42/55/12 44/56/10
f 45/57/10 43/58/11 41/59/10
f 45/57/10 46/60/13 43/58/11
f 47/61/14 43/58/11 46/60/13
f 43/58/11 47/61/15 48/62/15
f 49/63/10 51/64/16 50/65/17
f 49/63/10 50/65/17 52/66/10
f 53/67/8 48/62/8 47/61/8
f 48/62/8 53/67/8 54/68/8
f 55/69/14 50/70/17 51/71/16
f 50/70/14 55/69/14 56/72/14
f 48/73/15 42/74/12 43/75/11
f 42/74/12 48/73/15 57/76/15
f 54/77/8 57/76/8 48/73/8
f 57/76/8 54/77/8 58/78/8
f 59/79/18 56/72/18 55/69/18
f 56/72/18 59/79/18 60/80/18
f 61/81/6 63/82/19 62/83/6
f 64/84/6 63/82/19 61/81/6
f 61/85/6 62/86/6 65/87/20
f 65/87/20 62/86/6 66/88/21
f 53/67/22 66/88/21 62/86/6
f 53/67/22 62/86/6 54/68/22
f 54/89/22 62/90/6 63/91/19
f 54/89/22 63/91/19 58/92/22
f 67/93/4 69/94/4 68/95/4
f 67/93/4 68/95/4 70/96/4
f 71/97/4 72/98/4 69/99/4
f 71/97/4 69/99/4 67/100/4
f 73/101/4 75/102/4 74/103/4
f 75/102/4 73/101/4 76/104/4
f 77/105/23 76/104/23 73/101/23
f 76/104/23 77/105/23 78/106/23
f 79/107/23 69/99/23 72/98/23
f 69/99/23 79/107/23 80/108/23
f 80/109/23 68/95/23 69/94/23
f 68/95/23 80/109/23 81/110/23
f 82/111/24 67/93/24 83/112/24
f 67/93/24 70/96/24 83/112/24
f 67/100/24 82/113/24 71/97/24
f 84/114/24 71/97/24 82/113/24
f 85/115/25 74/103/25 86/116/25
f 74/103/25 75/102/25 86/116/25
f 87/117/10 89/118/13 88/119/26
f 87/117/10 88/119/26 90/120/10
f 91/121/13 89/122/13 87/123/10
f 91/121/13 92/124/11 89/122/13
f 9/9/12 89/122/13 92/124/11
f 89/122/13 9/9/12 5/12/12
f 5/125/12 88/126/26 89/127/13
f 88/126/26 5/125/12 8/128/12
f 93/129/1 95/130/2 94/131/3
f 93/129/1 94/131/3 96/132/1
f 97/133/6 94/134/3 95/135/2
f 98/136/6 94/134/3 97/133/6
f 99/137/10 101/138/16 100/139/12
f 99/137/10 100/139/12 102/140/10
f 103/141/15 100/142/12 101/143/16
f 100/142/12 103/141/15 104/144/15
