# Blender v3.1.2 OBJ File: 'track.blend'
# www.blender.org
mtllib Scene.444.mtl
o _0LAMP_corner_04_005_Scene.444
v -21.742430 83460.687500 -1357.156006
v -29.420969 83469.578125 -1357.156006
v -21.742401 83460.687500 -755.079712
v -29.420938 83469.578125 -755.079712
v -12.857440 83468.375000 -1357.156006
v -12.857410 83468.375000 -755.079712
v -20.535969 83477.257812 -1357.156006
v -20.535940 83477.257812 -755.079712
v 26.513710 83409.273438 -1353.155029
v -19.915371 83462.984375 -1353.155029
v -19.915371 83462.984375 -1347.183960
v 26.513710 83409.273438 -1347.183960
v 31.031300 83413.179688 -1353.155029
v -15.397779 83466.898438 -1353.155029
v -15.397779 83466.898438 -1347.183960
v 31.031300 83413.179688 -1347.183960
v 36.076321 83429.210938 -1332.651001
v 34.064529 83427.476562 -1347.185059
v 41.523922 83418.843750 -1358.593018
v 61.173851 83396.109375 -1358.593018
v 69.039879 83391.070312 -1351.846069
v 39.034031 83376.968750 -1358.593018
v 42.876480 83368.453125 -1351.846069
v 19.384100 83399.703125 -1358.593018
v 11.924710 83408.335938 -1347.185059
v 9.912917 83406.601562 -1332.651001
v 55.004971 83396.468750 -1349.824097
v 32.156677 83422.914062 -1336.518921
v 39.569138 83383.132812 -1349.824097
v 16.720850 83409.570312 -1336.518921
v 35.862919 83403.023438 -1343.171997
vt 0.487913 1.763667
vt 0.384907 1.763667
vt 0.487913 1.770191
vt 0.384907 1.770191
vt 0.384907 1.763618
vt 0.487913 1.763618
vt 0.384907 1.770191
vt 0.487913 1.770191
vt 0.384907 1.770191
vt 0.487913 1.770191
vt 0.384907 1.763667
vt 0.487913 1.763667
vt 0.458985 1.775614
vt 0.455340 1.775614
vt 0.458985 1.774532
vt 0.455340 1.774532
vt 0.457749 1.775614
vt 0.456575 1.776695
vt 0.456575 1.775614
vt 0.457749 1.776695
vt 0.384907 1.763667
vt 0.487913 1.770191
vt 0.487913 1.763667
vt 0.384907 1.770191
vt 0.487913 1.770191
vt 0.384907 1.770191
vt 0.487913 1.763618
vt 0.384907 1.763618
vt 0.384907 1.770191
vt 0.487913 1.770191
vt 0.384907 1.763667
vt 0.487913 1.763667
vt 0.823136 1.910260
vt 0.823136 1.910260
vt 0.823136 1.910260
vt 0.823136 1.910260
vt 0.823136 1.910260
vt 0.823136 1.910260
vt 0.823136 1.910260
vt 0.823136 1.910260
vt 0.823136 1.910260
vt 0.823136 1.910260
vt 0.492074 1.825578
vt 0.491302 1.819964
vt 0.492074 1.819964
vt 0.491302 1.825578
vt 0.492074 1.829223
vt 0.491302 1.829223
vt 0.491302 1.834838
vt 0.492074 1.834838
vt 0.491302 1.838482
vt 0.492074 1.838482
vt 0.829249 1.930272
vt 0.829249 1.930272
vt 0.829256 1.930104
vt 0.829249 1.930272
vt 0.829249 1.930272
vn -0.7566 -0.6539 -0.0000
vn -0.7562 -0.6544 -0.0000
vn -0.7568 -0.6536 0.0000
vn 0.6543 -0.7562 0.0000
vn 0.6536 -0.7568 -0.0000
vn 0.6536 -0.7569 -0.0000
vn 0.7559 0.6547 0.0000
vn 0.7568 0.6536 -0.0000
vn -0.6539 0.7566 0.0000
vn -0.0000 0.0000 1.0000
vn 0.0000 0.0000 -1.0000
vn -0.7565 -0.6540 0.0000
vn 0.7566 0.6539 0.0000
vn 0.7092 0.6855 -0.1650
vn 0.7091 0.6856 -0.1647
vn 0.7093 0.6853 -0.1654
vn 0.7093 0.6853 -0.1650
vn 0.7094 0.6852 -0.1651
vn 0.2220 -0.2568 -0.9406
vn 0.3934 -0.4550 -0.7989
vn 0.3941 -0.4559 -0.7980
vn 0.2215 -0.2562 -0.9409
vn -0.2500 0.2892 -0.9240
vn -0.2504 0.2897 -0.9238
vn -0.6096 0.7053 -0.3618
vn -0.6098 0.7054 -0.3613
vn -0.6540 0.7565 0.0002
vn -0.6541 0.7564 0.0007
vn -0.7810 -0.6023 -0.1653
vn -0.7812 -0.6022 -0.1649
vn -0.7816 -0.6018 -0.1640
vn -0.7812 -0.6021 -0.1649
vn -0.7813 -0.6020 -0.1647
vn 0.0076 -0.3336 0.9427
vn 0.1525 -0.5838 0.7974
vn 0.3142 -0.6303 0.7099
vn 0.0462 -0.2428 0.9690
vn 0.3292 -0.0558 0.9426
vn 0.2336 -0.0809 0.9690
vn 0.5559 -0.2363 0.7969
vn 0.5787 -0.4034 0.7088
vn 0.2331 -0.2693 0.9344
vn 0.2327 -0.2692 0.9345
vn 0.2327 -0.2693 0.9345
vn 0.2326 -0.2692 0.9346
vn 0.2325 -0.2691 0.9346
usemtl EnvironmentMat.001
s 1
f 1/1/1 3/2/2 2/3/3
f 2/3/3 3/2/2 4/4/2
f 5/5/4 6/6/5 1/7/4
f 1/7/4 6/6/5 3/8/6
f 7/9/7 8/10/8 5/5/7
f 5/5/7 8/10/8 6/6/8
f 2/11/9 4/12/9 7/9/9
f 7/9/9 4/12/9 8/10/9
f 8/13/10 4/14/10 6/15/10
f 4/14/10 3/16/10 6/15/10
f 1/17/11 7/18/11 5/19/11
f 7/18/11 1/17/11 2/20/11
f 9/21/12 11/22/12 10/23/12
f 11/22/12 9/21/12 12/24/12
f 9/25/11 10/26/11 13/27/11
f 13/27/11 10/26/11 14/28/11
f 15/29/13 16/30/13 14/28/13
f 13/27/13 14/28/13 16/30/13
f 11/31/10 12/32/10 15/29/10
f 15/29/10 12/32/10 16/30/10
f 17/33/14 19/34/15 18/35/16
f 17/33/14 20/36/17 19/34/15
f 20/36/17 17/33/14 21/37/18
f 22/38/19 21/37/20 23/39/21
f 21/37/20 22/38/19 20/36/22
f 20/36/22 22/38/19 24/40/23
f 20/36/22 24/40/23 19/34/24
f 19/34/24 24/40/23 25/41/25
f 19/34/24 25/41/25 18/35/26
f 25/41/25 17/33/27 18/35/26
f 17/33/27 25/41/25 26/42/28
f 24/40/29 26/42/30 25/41/31
f 22/38/32 26/42/30 24/40/29
f 23/39/33 26/42/30 22/38/32
f 27/43/34 17/44/35 28/45/36
f 17/44/35 27/43/34 21/46/37
f 29/47/38 21/46/37 27/43/34
f 21/46/37 29/47/38 23/48/39
f 26/49/40 23/48/39 29/47/38
f 26/49/40 29/47/38 30/50/41
f 17/51/35 26/49/40 30/50/41
f 17/51/35 30/50/41 28/52/36
f 28/53/42 30/54/43 31/55/44
f 27/56/45 28/53/42 31/55/44
f 30/54/43 29/57/46 31/55/44
f 29/57/46 27/56/45 31/55/44
