# Blender v3.1.2 OBJ File: 'track.blend'
# www.blender.org
mtllib Scene.757.mtl
o _1WALL_small_straight_01_SUB2_Scene.757
v 22701.160156 58949.156250 -220.007797
v 22700.759766 58949.000000 -388.476807
v 22784.050781 59340.449219 -220.314407
v 22783.660156 59340.351562 -388.783417
v 22868.679688 59739.898438 -220.627411
v 22868.291016 59739.832031 -389.096405
v 22535.189453 58166.460938 -219.288300
v 22534.769531 58166.210938 -387.757111
v 22617.820312 58557.507812 -388.170013
v 22618.240234 58557.722656 -219.701096
v 22368.859375 57383.800781 -218.310196
v 22368.429688 57383.519531 -386.778992
v 22451.589844 57774.792969 -387.267914
v 22452.009766 57775.062500 -218.799088
v 22202.349609 56601.179688 -217.224594
v 22201.919922 56600.890625 -385.693298
v 22285.179688 56992.132812 -386.246796
v 22285.609375 56992.417969 -217.778107
v 22035.759766 55818.574219 -216.099808
v 22035.320312 55818.269531 -384.568512
v 22118.628906 56209.492188 -385.139618
v 22119.060547 56209.800781 -216.670898
v 21869.089844 55035.980469 -214.945694
v 21868.660156 55035.664062 -383.414398
v 21951.980469 55426.890625 -383.991394
v 21952.410156 55427.195312 -215.522690
v 21702.369141 54253.386719 -213.783508
v 21701.929688 54253.082031 -382.252197
v 21785.279297 54644.300781 -382.833588
v 21785.718750 54644.609375 -214.364914
v 21535.609375 53470.812500 -212.626907
v 21535.169922 53470.500000 -381.095612
v 21618.550781 53861.718750 -381.670685
v 21618.980469 53862.019531 -213.201996
v 21368.820312 52688.238281 -211.477798
v 21368.390625 52687.937500 -379.946503
v 21451.769531 53079.148438 -380.520996
v 21452.201172 53079.460938 -212.052200
v 21202.000000 51905.683594 -210.360092
v 21201.570312 51905.378906 -378.828796
v 21284.958984 52296.589844 -379.387512
v 21285.400391 52296.886719 -210.918808
v 21035.160156 51123.109375 -209.279892
v 21034.730469 51122.832031 -377.748718
v 21118.140625 51514.031250 -378.272614
v 21118.570312 51514.320312 -209.803894
v 20868.310547 50340.546875 -208.239792
v 20867.880859 50340.281250 -376.708710
v 20951.289062 50731.480469 -377.224579
v 20951.718750 50731.757812 -208.755798
v 20701.441406 49557.988281 -207.291794
v 20701.019531 49557.730469 -375.760590
v 20784.429688 49948.929688 -376.234497
v 20784.859375 49949.199219 -207.765701
v 20534.580078 48775.429688 -206.431000
v 20534.160156 48775.203125 -374.899902
v 20617.570312 49166.390625 -375.303589
v 20617.990234 49166.640625 -206.834702
v 20367.708984 47992.871094 -205.660507
v 20367.289062 47992.660156 -374.129517
v 20450.708984 48383.851562 -374.496094
v 20451.119141 48384.078125 -206.027191
v 20200.849609 47210.300781 -205.080200
v 20200.449219 47210.128906 -373.549194
v 20283.859375 47601.332031 -373.839294
v 20284.269531 47601.511719 -205.370300
v 20034.019531 46427.710938 -204.795197
v 20033.630859 46427.609375 -373.264191
v 20117.019531 46818.796875 -373.344696
v 20117.419922 46818.929688 -204.875702
v 19867.240234 45645.121094 -204.722809
v 19866.859375 45645.070312 -373.191895
v 19950.218750 46036.269531 -373.183807
v 19950.599609 46036.347656 -204.714706
v 19700.560547 44862.519531 -204.922791
v 19700.179688 44862.480469 -373.391876
v 19783.509766 45253.699219 -373.291901
v 19783.890625 45253.750000 -204.822800
v 19533.960938 44079.910156 -205.012207
v 19533.580078 44079.863281 -373.481293
v 19616.849609 44471.101562 -373.451599
v 19617.230469 44471.148438 -204.982498
v 19367.400391 43297.289062 -205.037811
v 19367.019531 43297.230469 -373.506897
v 19450.269531 43688.468750 -373.511017
v 19450.660156 43688.531250 -205.041916
v 19200.888672 42514.667969 -204.994202
v 19200.500000 42514.589844 -373.463379
v 19283.740234 42905.828125 -373.485077
v 19284.128906 42905.910156 -205.015991
v 19034.390625 41732.039062 -204.900604
v 19034.009766 41731.949219 -373.369690
v 19117.230469 42123.199219 -373.420319
v 19117.619141 42123.277344 -204.951187
v 18867.919922 40949.398438 -204.783890
v 18867.529297 40949.300781 -373.253021
v 18950.750000 41340.546875 -373.319092
v 18951.140625 41340.640625 -204.850098
v 18701.449219 40166.761719 -204.644806
v 18701.060547 40166.660156 -373.113892
v 18784.281250 40557.910156 -373.183502
v 18784.669922 40558.011719 -204.714386
v 18535.000000 39384.117188 -204.477997
v 18534.609375 39384.007812 -372.947083
v 18617.820312 39775.269531 -373.031219
v 18618.208984 39775.371094 -204.562088
v 18368.558594 38601.472656 -204.297501
v 18368.169922 38601.359375 -372.766602
v 18451.371094 38992.609375 -372.863007
v 18451.759766 38992.718750 -204.393906
v 18202.130859 37818.828125 -204.103592
v 18201.730469 37818.718750 -372.572693
v 18284.929688 38209.968750 -372.670105
v 18285.330078 38210.078125 -204.201004
v 18035.718750 37036.179688 -203.885193
v 18035.320312 37036.070312 -372.354279
v 18118.519531 37427.308594 -372.463501
v 18118.910156 37427.429688 -203.994400
v 17869.310547 36253.519531 -203.658203
v 17868.919922 36253.398438 -372.127289
v 17952.099609 36644.660156 -372.243896
v 17952.500000 36644.781250 -203.774811
v 17702.919922 35470.859375 -203.423309
v 17702.529297 35470.750000 -371.892395
v 17785.699219 35862.000000 -372.010590
v 17786.099609 35862.117188 -203.541489
v 17536.541016 34688.199219 -203.176300
v 17536.150391 34688.089844 -371.645294
v 17619.320312 35079.339844 -371.768799
v 17619.720703 35079.457031 -203.299805
v 17370.179688 33905.539062 -202.921799
v 17369.791016 33905.421875 -371.390808
v 17452.949219 34296.679688 -371.519989
v 17453.339844 34296.796875 -203.050903
v 17203.849609 33122.859375 -202.664597
v 17203.460938 33122.738281 -371.133575
v 17286.599609 33514.011719 -371.261597
v 17286.990234 33514.140625 -202.792496
v 17037.621094 32340.140625 -202.412201
v 17037.230469 32340.060547 -370.881195
v 17120.330078 32731.330078 -371.007385
v 17120.720703 32731.429688 -202.538391
v 16866.250000 31533.279297 -202.151901
v 16865.859375 31533.199219 -370.621002
v 16952.431641 31940.771484 -370.752502
v 16952.810547 31940.851562 -202.283401
vt 0.038162 1.813204
vt 0.103396 1.813204
vt 0.038162 1.836236
vt 0.103396 1.836236
vt 0.000203 1.816005
vt 0.124516 1.816005
vt 0.000203 1.859897
vt 0.124516 1.859897
vt 0.038162 1.813204
vt 0.103396 1.836236
vt 0.038162 1.836236
vt 0.103396 1.813204
vt 0.000203 1.816005
vt 0.124516 1.859897
vt 0.000203 1.859897
vt 0.124516 1.816005
vt 0.038162 1.813204
vt 0.103396 1.836236
vt 0.038162 1.836236
vt 0.103396 1.813204
vt 0.000203 1.816005
vt 0.124516 1.859897
vt 0.000203 1.859897
vt 0.124516 1.816005
vt 0.038162 1.813204
vt 0.103396 1.836236
vt 0.038162 1.836236
vt 0.103396 1.813204
vt 0.000203 1.816005
vt 0.124516 1.859897
vt 0.000203 1.859897
vt 0.124516 1.816005
vt 0.038162 1.813204
vt 0.103396 1.836236
vt 0.038162 1.836236
vt 0.103396 1.813204
vt 0.000203 1.816005
vt 0.124516 1.859897
vt 0.000203 1.859897
vt 0.124516 1.816005
vt 0.038162 1.813204
vt 0.103396 1.836236
vt 0.038162 1.836236
vt 0.103396 1.813204
vt 0.000203 1.816005
vt 0.124516 1.859897
vt 0.000203 1.859897
vt 0.124516 1.816005
vt 0.038162 1.813204
vt 0.103396 1.836236
vt 0.038162 1.836236
vt 0.103396 1.813204
vt 0.000203 1.816005
vt 0.124516 1.859897
vt 0.000203 1.859897
vt 0.124516 1.816005
vt 0.038162 1.813204
vt 0.103396 1.836236
vt 0.038162 1.836236
vt 0.103396 1.813204
vt 0.000203 1.816005
vt 0.124516 1.859897
vt 0.000203 1.859897
vt 0.124516 1.816005
vt 0.038162 1.813204
vt 0.103396 1.836236
vt 0.038162 1.836236
vt 0.103396 1.813204
vt 0.000203 1.816005
vt 0.124516 1.859897
vt 0.000203 1.859897
vt 0.124516 1.816005
vt 0.038162 1.813204
vt 0.103396 1.836236
vt 0.038162 1.836236
vt 0.103396 1.813204
vt 0.000203 1.816005
vt 0.124516 1.859897
vt 0.000203 1.859897
vt 0.124516 1.816005
vt 0.038162 1.813204
vt 0.103396 1.836236
vt 0.038162 1.836236
vt 0.103396 1.813204
vt 0.000203 1.816005
vt 0.124516 1.859897
vt 0.000203 1.859897
vt 0.124516 1.816005
vt 0.038162 1.813204
vt 0.103396 1.836236
vt 0.038162 1.836236
vt 0.103396 1.813204
vt 0.000203 1.816005
vt 0.124516 1.859897
vt 0.000203 1.859897
vt 0.124516 1.816005
vt 0.038162 1.813204
vt 0.103396 1.836236
vt 0.038162 1.836236
vt 0.103396 1.813204
vt 0.000203 1.816005
vt 0.124516 1.859897
vt 0.000203 1.859897
vt 0.124516 1.816005
vt 0.038162 1.813204
vt 0.103396 1.836236
vt 0.038162 1.836236
vt 0.103396 1.813204
vt 0.000203 1.816005
vt 0.124516 1.859897
vt 0.000203 1.859897
vt 0.124516 1.816005
vt 0.038162 1.813204
vt 0.103396 1.836236
vt 0.038162 1.836236
vt 0.103396 1.813204
vt 0.000203 1.816005
vt 0.124516 1.859897
vt 0.000203 1.859897
vt 0.124516 1.816005
vt 0.038162 1.813204
vt 0.103396 1.836236
vt 0.038162 1.836236
vt 0.103396 1.813204
vt 0.000203 1.816005
vt 0.124516 1.859897
vt 0.000203 1.859897
vt 0.124516 1.816005
vt 0.038162 1.813204
vt 0.103396 1.836236
vt 0.038162 1.836236
vt 0.103396 1.813204
vt 0.000203 1.816005
vt 0.124516 1.859897
vt 0.000203 1.859897
vt 0.124516 1.816005
vt 0.038162 1.813204
vt 0.103396 1.836236
vt 0.038162 1.836236
vt 0.103396 1.813204
vt 0.000203 1.816005
vt 0.124516 1.859897
vt 0.000203 1.859897
vt 0.124516 1.816005
vt 0.038162 1.813204
vt 0.103396 1.836236
vt 0.038162 1.836236
vt 0.103396 1.813204
vt 0.000203 1.816005
vt 0.124516 1.859897
vt 0.000203 1.859897
vt 0.124516 1.816005
vt 0.038162 1.813204
vt 0.103396 1.836236
vt 0.038162 1.836236
vt 0.103396 1.813204
vt 0.000203 1.816005
vt 0.124516 1.859897
vt 0.000203 1.859897
vt 0.124516 1.816005
vt 0.038162 1.813204
vt 0.103396 1.836236
vt 0.038162 1.836236
vt 0.103396 1.813204
vt 0.000203 1.816005
vt 0.124516 1.859897
vt 0.000203 1.859897
vt 0.124516 1.816005
vt 0.038162 1.813204
vt 0.103396 1.836236
vt 0.038162 1.836236
vt 0.103396 1.813204
vt 0.000203 1.816005
vt 0.124516 1.859897
vt 0.000203 1.859897
vt 0.124516 1.816005
vt 0.038162 1.813204
vt 0.103396 1.836236
vt 0.038162 1.836236
vt 0.103396 1.813204
vt 0.000203 1.816005
vt 0.124516 1.859897
vt 0.000203 1.859897
vt 0.124516 1.816005
vt 0.038162 1.813204
vt 0.103396 1.836236
vt 0.038162 1.836236
vt 0.103396 1.813204
vt 0.000203 1.816005
vt 0.124516 1.859897
vt 0.000203 1.859897
vt 0.124516 1.816005
vt 0.038162 1.813204
vt 0.103396 1.836236
vt 0.038162 1.836236
vt 0.103396 1.813204
vt 0.000203 1.816005
vt 0.124516 1.859897
vt 0.000203 1.859897
vt 0.124516 1.816005
vt 0.038162 1.813204
vt 0.103396 1.836236
vt 0.038162 1.836236
vt 0.103396 1.813204
vt 0.000203 1.816005
vt 0.124516 1.859897
vt 0.000203 1.859897
vt 0.124516 1.816005
vt 0.038162 1.813204
vt 0.103396 1.836236
vt 0.038162 1.836236
vt 0.103396 1.813204
vt 0.000203 1.816005
vt 0.124516 1.859897
vt 0.000203 1.859897
vt 0.124516 1.816005
vt 0.038162 1.813204
vt 0.103396 1.836236
vt 0.038162 1.836236
vt 0.103396 1.813204
vt 0.000203 1.816005
vt 0.124516 1.859897
vt 0.000203 1.859897
vt 0.124516 1.816005
vt 0.038162 1.813204
vt 0.103396 1.836236
vt 0.038162 1.836236
vt 0.103396 1.813204
vt 0.000203 1.816005
vt 0.124516 1.859897
vt 0.000203 1.859897
vt 0.124516 1.816005
vt 0.038162 1.813204
vt 0.103396 1.836236
vt 0.038162 1.836236
vt 0.103396 1.813204
vt 0.000203 1.816005
vt 0.124516 1.859897
vt 0.000203 1.859897
vt 0.124516 1.816005
vt 0.038162 1.813204
vt 0.103396 1.836236
vt 0.038162 1.836236
vt 0.103396 1.813204
vt 0.000203 1.816005
vt 0.124516 1.859897
vt 0.000203 1.859897
vt 0.124516 1.816005
vt 0.038162 1.813204
vt 0.103396 1.836236
vt 0.038162 1.836236
vt 0.103396 1.813204
vt 0.000203 1.816005
vt 0.124516 1.859897
vt 0.000203 1.859897
vt 0.124516 1.816005
vt 0.038162 1.813204
vt 0.103396 1.836236
vt 0.038162 1.836236
vt 0.103396 1.813204
vt 0.000203 1.816005
vt 0.124516 1.859897
vt 0.000203 1.859897
vt 0.124516 1.816005
vt 0.038162 1.813204
vt 0.103396 1.836236
vt 0.038162 1.836236
vt 0.103396 1.813204
vt 0.000203 1.816005
vt 0.124516 1.859897
vt 0.000203 1.859897
vt 0.124516 1.816005
vt 0.038162 1.813204
vt 0.103396 1.836236
vt 0.038162 1.836236
vt 0.103396 1.813204
vt 0.000203 1.816005
vt 0.124516 1.859897
vt 0.000203 1.859897
vt 0.124516 1.816005
vt 0.038162 1.813204
vt 0.103396 1.836236
vt 0.038162 1.836236
vt 0.103396 1.813204
vt 0.000203 1.816005
vt 0.124516 1.859897
vt 0.000203 1.859897
vt 0.124516 1.816005
vn -0.9783 0.2072 0.0021
vn -0.9783 0.2073 0.0022
vn -0.9783 0.2072 0.0022
vn -0.9782 0.2078 0.0021
vn -0.9782 0.2074 0.0022
vn -0.9782 0.2077 0.0021
vn -0.9781 0.2080 0.0021
vn -0.9782 0.2079 0.0021
vn -0.9781 0.2082 0.0021
vn -0.9781 0.2081 0.0021
vn -0.9781 0.2083 0.0022
vn -0.9781 0.2083 0.0021
vn -0.9780 0.2084 0.0022
vn -0.9780 0.2084 0.0021
vn -0.9780 0.2085 0.0021
vn -0.9780 0.2085 0.0022
vn -0.9780 0.2086 0.0022
vn -0.9781 0.2084 0.0021
vn -0.9781 0.2084 0.0022
vn -0.9781 0.2082 0.0022
vn -0.9781 0.2081 0.0022
vn -0.9781 0.2080 0.0022
vn -0.9781 0.2079 0.0021
vn -0.9781 0.2079 0.0022
vn -0.9782 0.2078 0.0022
usemtl EnvironmentMat.001
s 1
f 1/1/1 3/2/1 2/3/1
f 4/4/1 2/3/1 3/2/1
f 3/5/1 5/6/2 4/7/1
f 6/8/3 4/7/1 5/6/2
f 7/9/4 9/10/5 8/11/6
f 9/10/5 7/9/4 10/12/5
f 10/13/5 2/14/1 9/15/5
f 2/14/1 10/13/5 1/16/1
f 11/17/7 13/18/8 12/19/7
f 13/18/8 11/17/7 14/20/8
f 14/21/8 8/22/6 13/23/8
f 8/22/6 14/21/8 7/24/4
f 15/25/9 17/26/10 16/27/9
f 17/26/10 15/25/9 18/28/10
f 18/29/10 12/30/7 17/31/10
f 12/30/7 18/29/10 11/32/7
f 19/33/11 21/34/9 20/35/11
f 21/34/9 19/33/11 22/36/9
f 22/37/9 16/38/9 21/39/9
f 16/38/9 22/37/9 15/40/9
f 23/41/12 25/42/12 24/43/12
f 25/42/12 23/41/12 26/44/12
f 26/45/12 20/46/11 25/47/12
f 20/46/11 26/45/12 19/48/11
f 27/49/13 29/50/13 28/51/13
f 29/50/13 27/49/13 30/52/13
f 30/53/13 24/54/12 29/55/13
f 24/54/12 30/53/13 23/56/12
f 31/57/13 33/58/14 32/59/13
f 33/58/14 31/57/13 34/60/14
f 34/61/14 28/62/13 33/63/14
f 28/62/13 34/61/14 27/64/13
f 35/65/15 37/66/14 36/67/15
f 37/66/14 35/65/15 38/68/14
f 38/69/14 32/70/13 37/71/14
f 32/70/13 38/69/14 31/72/13
f 39/73/15 41/74/16 40/75/15
f 41/74/16 39/73/15 42/76/16
f 42/77/16 36/78/15 41/79/16
f 36/78/15 42/77/16 35/80/15
f 43/81/16 45/82/15 44/83/15
f 45/82/15 43/81/16 46/84/15
f 46/85/15 40/86/15 45/87/15
f 40/86/15 46/85/15 39/88/15
f 47/89/16 49/90/16 48/91/16
f 49/90/16 47/89/16 50/92/16
f 50/93/16 44/94/15 49/95/16
f 44/94/15 50/93/16 43/96/16
f 51/97/15 53/98/16 52/99/15
f 53/98/16 51/97/15 54/100/17
f 54/101/17 48/102/16 53/103/16
f 48/102/16 54/101/17 47/104/16
f 55/105/17 57/106/15 56/107/17
f 57/106/15 55/105/17 58/108/15
f 58/109/15 52/110/15 57/111/15
f 52/110/15 58/109/15 51/112/15
f 59/113/16 61/114/15 60/115/16
f 61/114/15 59/113/16 62/116/15
f 62/117/15 56/118/17 61/119/15
f 56/118/17 62/117/15 55/120/17
f 63/121/15 65/122/16 64/123/15
f 65/122/16 63/121/15 66/124/16
f 66/125/16 60/126/16 65/127/16
f 60/126/16 66/125/16 59/128/16
f 67/129/15 69/130/15 68/131/15
f 69/130/15 67/129/15 70/132/15
f 70/133/15 64/134/15 69/135/15
f 64/134/15 70/133/15 63/136/15
f 71/137/18 73/138/14 72/139/19
f 73/138/14 71/137/18 74/140/14
f 74/141/14 68/142/15 73/143/14
f 68/142/15 74/141/14 67/144/15
f 75/145/11 77/146/12 76/147/11
f 77/146/12 75/145/11 78/148/12
f 78/149/12 72/150/19 77/151/12
f 72/150/19 78/149/12 71/152/18
f 79/153/20 81/154/20 80/155/20
f 81/154/20 79/153/20 82/156/20
f 82/157/20 76/158/11 81/159/20
f 76/158/11 82/157/20 75/160/11
f 83/161/10 85/162/20 84/163/10
f 85/162/20 83/161/10 86/164/20
f 86/165/20 80/166/20 85/167/20
f 80/166/20 86/165/20 79/168/20
f 87/169/21 89/170/21 88/171/21
f 89/170/21 87/169/21 90/172/21
f 90/173/21 84/174/10 89/175/21
f 84/174/10 90/173/21 83/176/10
f 91/177/10 93/178/21 92/179/10
f 93/178/21 91/177/10 94/180/21
f 94/181/21 88/182/21 93/183/21
f 88/182/21 94/181/21 87/184/21
f 95/185/10 97/186/21 96/187/10
f 97/186/21 95/185/10 98/188/10
f 98/189/10 92/190/10 97/191/21
f 92/190/10 98/189/10 91/192/10
f 99/193/7 101/194/7 100/195/7
f 101/194/7 99/193/7 102/196/10
f 102/197/10 96/198/10 101/199/7
f 96/198/10 102/197/10 95/200/10
f 103/201/7 105/202/7 104/203/7
f 105/202/7 103/201/7 106/204/7
f 106/205/7 100/206/7 105/207/7
f 100/206/7 106/205/7 99/208/7
f 107/209/7 109/210/7 108/211/7
f 109/210/7 107/209/7 110/212/7
f 110/213/7 104/214/7 109/215/7
f 104/214/7 110/213/7 103/216/7
f 111/217/22 113/218/22 112/219/22
f 113/218/22 111/217/22 114/220/22
f 114/221/22 108/222/7 113/223/22
f 108/222/7 114/221/22 107/224/7
f 115/225/22 117/226/7 116/227/22
f 117/226/7 115/225/22 118/228/7
f 118/229/7 112/230/22 117/231/7
f 112/230/22 118/229/7 111/232/22
f 119/233/7 121/234/22 120/235/7
f 121/234/22 119/233/7 122/236/22
f 122/237/22 116/238/22 121/239/22
f 116/238/22 122/237/22 115/240/22
f 123/241/23 125/242/22 124/243/23
f 125/242/22 123/241/23 126/244/22
f 126/245/22 120/246/7 125/247/22
f 120/246/7 126/245/22 119/248/7
f 127/249/23 129/250/24 128/251/23
f 129/250/24 127/249/23 130/252/24
f 130/253/24 124/254/23 129/255/24
f 124/254/23 130/253/24 123/256/23
f 131/257/23 133/258/23 132/259/23
f 133/258/23 131/257/23 134/260/23
f 134/261/23 128/262/23 133/263/23
f 128/262/23 134/261/23 127/264/23
f 135/265/4 137/266/8 136/267/4
f 137/266/8 135/265/4 138/268/8
f 138/269/8 132/270/23 137/271/8
f 132/270/23 138/269/8 131/272/23
f 139/273/25 141/274/6 140/275/25
f 141/274/6 139/273/25 142/276/6
f 142/277/6 136/278/4 141/279/6
f 136/278/4 142/277/6 135/280/4
f 143/281/4 145/282/6 144/283/25
f 145/282/6 143/281/4 146/284/4
f 146/285/4 140/286/25 145/287/6
f 140/286/25 146/285/4 139/288/25
