# Blender v3.1.2 OBJ File: 'track.blend'
# www.blender.org
mtllib Scene.486.mtl
o _0SIGN_AD01_11_001_Scene.486
v -28953.699219 31725.869141 -904.152039
v -28648.080078 31953.130859 -904.152039
v -28953.699219 31725.869141 -604.152039
v -28648.080078 31953.130859 -604.152039
v -28330.578125 32162.390625 -904.152039
v -28330.578125 32162.390625 -604.152039
v -28001.230469 32353.650391 -904.152039
v -28001.230469 32353.650391 -604.152100
v -28952.490234 31724.029297 -904.152039
v -28952.490234 31724.029297 -604.152039
v -28000.009766 32351.800781 -904.152039
v -28329.371094 32160.541016 -904.152039
v -28000.009766 32351.800781 -604.152100
v -28329.371094 32160.541016 -604.152039
v -28646.859375 31951.279297 -904.152039
v -28646.859375 31951.279297 -604.152039
vt 0.044709 1.801094
vt 0.048841 1.801094
vt 0.044709 1.804021
vt 0.048841 1.804021
vt 0.044709 1.806948
vt 0.048841 1.806948
vt 0.044709 1.809875
vt 0.048841 1.809875
vt 0.049357 1.803403
vt 0.049357 1.805712
vt 0.049185 1.803403
vt 0.049185 1.805712
vt 0.000404 1.809430
vt 0.000404 1.751420
vt 0.041490 1.809430
vt 0.041490 1.751420
vt 0.082576 1.809430
vt 0.082576 1.751420
vt 0.123661 1.809430
vt 0.123661 1.751420
vt 0.049357 1.801094
vt 0.049357 1.803403
vt 0.049185 1.801094
vt 0.049185 1.803403
vt 0.049185 1.804021
vt 0.049013 1.801094
vt 0.049185 1.801094
vt 0.049013 1.804021
vt 0.049185 1.806948
vt 0.049013 1.806948
vt 0.049013 1.809875
vt 0.049185 1.809875
vt 0.048841 1.809875
vt 0.049013 1.806948
vt 0.049013 1.809875
vt 0.048841 1.806948
vt 0.049013 1.804021
vt 0.048841 1.804021
vt 0.048841 1.801094
vt 0.049013 1.801094
vn -0.5967 0.8025 0.0000
vn -0.5737 0.8190 0.0000
vn -0.5265 0.8502 0.0000
vn -0.5022 0.8648 0.0000
vn -0.8355 -0.5495 0.0000
vn -0.8341 -0.5516 -0.0000
vn -0.8355 -0.5496 0.0000
vn -0.8341 -0.5517 0.0000
vn 0.5022 -0.8648 0.0000
vn 0.5265 -0.8502 0.0000
vn 0.5737 -0.8190 0.0000
vn 0.5967 -0.8025 0.0000
vn 0.8369 0.5473 -0.0000
vn 0.8334 0.5527 0.0000
vn 0.8369 0.5474 0.0000
vn 0.0000 0.0000 1.0000
vn 0.0000 0.0000 -1.0000
usemtl EnvironmentMat.001
s 1
f 1/1/1 3/2/1 2/3/2
f 2/3/2 3/2/1 4/4/2
f 2/3/2 4/4/2 5/5/3
f 5/5/3 4/4/2 6/6/3
f 5/5/3 6/6/3 7/7/4
f 7/7/4 6/6/3 8/8/4
f 9/9/5 10/10/6 1/11/7
f 1/11/7 10/10/6 3/12/8
f 11/13/9 13/14/9 12/15/10
f 12/15/10 13/14/9 14/16/10
f 12/15/10 14/16/10 15/17/11
f 15/17/11 14/16/10 16/18/11
f 15/17/11 16/18/11 9/19/12
f 9/19/12 16/18/11 10/20/12
f 7/21/13 8/22/14 11/23/15
f 11/23/15 8/22/14 13/24/14
f 16/25/16 3/26/16 10/27/16
f 3/26/16 16/25/16 4/28/16
f 14/29/16 4/28/16 16/25/16
f 4/28/16 14/29/16 6/30/16
f 8/31/16 6/30/16 14/29/16
f 14/29/16 13/32/16 8/31/16
f 1/33/17 15/34/17 9/35/17
f 15/34/17 1/33/17 2/36/17
f 2/36/17 12/37/17 15/34/17
f 12/37/17 2/36/17 5/38/17
f 7/39/17 12/37/17 5/38/17
f 12/37/17 7/39/17 11/40/17
