# Blender v3.1.2 OBJ File: 'track.blend'
# www.blender.org
mtllib Scene.540.mtl
o _0TRIBUENE_02_012_SUB0_Scene.540
v 36487.296875 93134.726562 -2015.871948
v 36387.410156 93113.507812 -1885.872070
v 36387.410156 93113.507812 -2015.871948
v 36487.296875 93134.726562 -1885.872070
v 37184.179688 89905.703125 -2015.871948
v 36485.910156 93135.554688 -1885.872070
v 36485.910156 93135.554688 -2015.871948
v 37184.179688 89905.703125 -1885.872070
v 37184.179688 89905.703125 -2035.872070
v 36485.910156 93135.554688 -2035.872070
v 36387.171875 93114.601562 -2015.871948
v 36387.171875 93114.601562 -2035.872070
v 33924.082031 92582.101562 -915.871216
v 33924.082031 92582.101562 -895.871155
v 37185.210938 89908.398438 -2015.871948
v 37185.210938 89908.398438 -1885.872070
v 33924.320312 92581.015625 -895.871155
v 33924.320312 92581.015625 -765.871216
v 34425.398438 89306.570312 -893.689148
v 33726.500000 92539.328125 -893.689148
v 33726.500000 92539.328125 -763.689209
v 34425.398438 89306.570312 -763.689209
v 34425.398438 89306.570312 -913.689209
v 33726.500000 92539.328125 -913.689209
v 33729.820312 92537.625000 -893.730347
v 33729.820312 92537.625000 -763.730469
v 34427.531250 89310.359375 -763.730469
v 34427.531250 89310.359375 -893.730347
v 36387.171875 93114.601562 -1885.872070
v 33924.082031 92582.101562 -765.871216
v 33925.300781 92579.882812 -893.730347
v 33925.300781 92579.882812 -763.730469
v 33921.980469 92581.593750 -913.689209
v 33921.980469 92581.593750 -893.689331
v 33921.980469 92581.593750 -763.689209
v 34620.890625 89348.828125 -893.689331
v 34620.890625 89348.828125 -763.689209
v 34620.890625 89348.828125 -913.689209
v 34623.011719 89352.617188 -893.730347
v 34623.011719 89352.617188 -763.730469
v 33924.648438 92579.476562 -895.871155
v 36387.742188 93111.984375 -1885.872070
v 36387.742188 93111.984375 -2015.871948
v 33924.648438 92579.476562 -765.871216
v 33924.648438 92579.476562 -915.871216
v 36387.742188 93111.984375 -2035.872070
v 36484.460938 93133.296875 -2035.872070
v 36484.460938 93133.296875 -2015.871948
v 33924.882812 92578.390625 -895.871155
v 36387.980469 93110.890625 -1885.872070
v 36387.980469 93110.890625 -2015.871948
v 33924.882812 92578.390625 -765.871216
v 37181.929688 89907.148438 -2035.872070
v 37181.929688 89907.148438 -2015.871948
v 36485.847656 93132.460938 -2015.871948
v 36485.847656 93132.460938 -1885.872070
v 36484.460938 93133.296875 -1885.872070
v 37181.929688 89907.148438 -1885.872070
v 37182.582031 89907.843750 -2015.871948
v 37182.582031 89907.843750 -1885.872070
v 34621.953125 89354.109375 -895.871155
v 37085.050781 89886.609375 -2015.871948
v 37085.050781 89886.609375 -1885.872070
v 34621.953125 89354.109375 -765.871216
v 34621.953125 89354.109375 -915.871216
v 37085.050781 89886.609375 -2035.872070
v 34428.046875 89310.679688 -893.689148
v 33730.621094 92536.679688 -763.689209
v 33730.621094 92536.679688 -893.689148
v 34428.046875 89310.679688 -763.689209
v 34428.046875 89310.679688 -913.689209
v 33730.621094 92536.679688 -913.689209
v 33733.929688 92534.968750 -893.730347
v 34430.179688 89314.468750 -893.730347
v 34430.179688 89314.468750 -763.730469
v 33733.929688 92534.968750 -763.730469
v 33926.332031 92575.093750 -893.730347
v 33926.332031 92575.093750 -763.730469
v 33923.019531 92576.812500 -913.689209
v 33923.019531 92576.812500 -893.689331
v 33923.019531 92576.812500 -763.689209
v 34619.847656 89353.609375 -893.689331
v 34619.847656 89353.609375 -763.689209
v 34619.847656 89353.609375 -913.689209
v 34621.980469 89357.398438 -893.730347
v 34621.980469 89357.398438 -763.730469
v 34622.519531 89351.476562 -895.871155
v 37085.609375 89884.000000 -1885.872070
v 37085.609375 89884.000000 -2015.871948
v 34622.519531 89351.476562 -765.871216
v 34622.519531 89351.476562 -915.871216
v 37085.609375 89884.000000 -2035.872070
v 37184.632812 89909.226562 -2015.871948
v 37084.742188 89888.031250 -1885.872070
v 37084.742188 89888.031250 -2015.871948
v 37184.632812 89909.226562 -1885.872070
v 34621.648438 89355.531250 -895.871155
v 34621.648438 89355.531250 -765.871216
v 34622.210938 89352.914062 -895.871155
v 37085.308594 89885.414062 -1885.872070
v 37085.308594 89885.414062 -2015.871948
v 34622.210938 89352.914062 -765.871216
v 37183.179688 89906.984375 -2015.871948
v 37183.179688 89906.984375 -1885.872070
vt 102.061203 1.445998
vt 106.201202 1.445998
vt 106.201202 1.808102
vt 102.061203 1.808102
vt -1.128167 1.445998
vt 7.317342 1.445998
vt 7.317341 1.808102
vt -1.128167 1.808102
vt 0.439238 1.852482
vt 0.439238 1.852482
vt 0.439238 1.901746
vt 0.439238 1.901746
vt 0.439238 1.901746
vt 0.439238 1.852482
vt 0.439238 1.852482
vt 0.439238 1.901746
vt -32.960171 1.445998
vt -32.960171 1.808102
vt -133.517502 1.445998
vt -20.685499 1.808102
vt -20.685499 1.445998
vt -133.517502 1.808102
vt 1.994339 1.445998
vt 10.414750 1.808102
vt 10.414750 1.445998
vt 1.994339 1.808102
vt 0.439238 1.852482
vt 0.439238 1.901746
vt 0.439238 1.852482
vt 0.439238 1.901746
vt 103.806503 1.445998
vt -30.874689 1.808102
vt 103.806503 1.808102
vt -30.874689 1.445998
vt 7.573064 1.445998
vt 7.573063 1.808102
vt -7.406326 1.445998
vt -0.354325 1.808102
vt -0.354325 1.445998
vt -7.406326 1.808102
vt 111.989601 1.445998
vt 111.989601 1.808102
vt 0.439238 1.852482
vt 0.439238 1.901746
vt 10.925800 1.445998
vt 10.925800 1.808102
vt 1.483288 1.445998
vt 1.483288 1.808102
vt 0.439238 1.901746
vt 0.439238 1.852482
vt -39.057812 1.445998
vt -39.057812 1.808102
vt -7.406326 1.445998
vt -0.354325 1.445998
vt -0.354325 1.808102
vt -7.406326 1.808102
vt 0.439238 1.852482
vt 0.439238 1.901746
vt 0.439238 1.901746
vt 0.439238 1.852482
vt 0.439238 1.852482
vt 0.439238 1.901746
vt -133.517502 1.445998
vt -20.685499 1.445998
vt -20.685499 1.808102
vt -133.517502 1.808102
vt 0.439238 1.852482
vt 0.439238 1.901746
vt 102.061203 1.445998
vt 106.201202 1.808102
vt 106.201202 1.445998
vt 102.061203 1.808102
vt 7.317342 1.445998
vt 7.573063 1.808102
vt 7.573064 1.445998
vt 7.317341 1.808102
vt -1.128167 1.445998
vt -1.128167 1.808102
vt -32.960171 1.445998
vt -32.960171 1.808102
vt -7.406326 1.445998
vt -0.354325 1.808102
vt -0.354325 1.445998
vt -7.406326 1.808102
vt 0.439238 1.901746
vt 0.439238 1.901746
vt 0.439238 1.852482
vt 0.439238 1.852482
vt 7.317342 1.445998
vt 7.573064 1.445998
vt 7.573063 1.808102
vt 7.317341 1.808102
vt 1.994339 1.445998
vt 10.414750 1.445998
vt 10.414750 1.808102
vt 1.994339 1.808102
vt 0.439238 1.852482
vt 0.439238 1.852482
vt 0.439238 1.901746
vt 0.439238 1.901746
vt 103.806503 1.445998
vt -30.874689 1.808102
vt -30.874689 1.445998
vt 103.806503 1.808102
vt 111.989601 1.445998
vt 111.989601 1.808102
vt 0.439238 1.852482
vt 0.439238 1.901746
vt 10.925800 1.445998
vt 10.925800 1.808102
vt 1.483288 1.445998
vt 1.483288 1.808102
vt 0.439238 1.901746
vt 0.439238 1.852482
vt -39.057812 1.445998
vt -39.057812 1.808102
vt -7.406326 1.445998
vt -0.354325 1.445998
vt -0.354325 1.808102
vt -7.406326 1.808102
vt 0.439238 1.852482
vt 0.439238 1.901746
vt 0.439238 1.901746
vt 0.439238 1.852482
vt 7.317342 1.445998
vt 7.573063 1.808102
vt 7.573064 1.445998
vt 7.317341 1.808102
vt 102.061203 1.445998
vt 106.201202 1.445998
vt 106.201202 1.808102
vt 102.061203 1.808102
vt -133.517502 1.445998
vt -20.685499 1.808102
vt -20.685499 1.445998
vt -133.517502 1.808102
vt -133.517502 1.445998
vt -20.685499 1.445998
vt -20.685499 1.808102
vt -133.517502 1.808102
vt 102.061203 1.445998
vt 106.201202 1.808102
vt 106.201202 1.445998
vt 102.061203 1.808102
vn -0.2078 0.9782 0.0000
vn -0.2111 0.9775 -0.0000
vn -0.2079 0.9781 0.0000
vn 0.9774 0.2113 0.0000
vn -0.2076 0.9782 0.0000
vn -0.2113 0.9774 0.0000
vn 0.9774 0.2114 0.0000
vn -0.9774 -0.2113 0.0000
vn 0.2113 -0.9774 0.0000
vn 0.2114 -0.9774 -0.0000
vn 0.2149 -0.9766 -0.0000
vn 0.2152 -0.9766 0.0000
vn 0.2117 -0.9773 -0.0000
vn 0.2141 -0.9768 -0.0000
vn -0.9774 -0.2112 0.0000
vn -0.2074 0.9783 0.0000
vn 0.2041 -0.9789 0.0000
vn 0.2042 -0.9789 0.0000
vn -0.2184 0.9759 0.0000
vn 0.2148 -0.9767 -0.0000
vn 0.2112 -0.9774 -0.0000
vn 0.2150 -0.9766 0.0000
vn -0.2110 0.9775 -0.0000
vn 0.2116 -0.9774 -0.0000
usemtl GitterMat.001
s 1
f 1/1/1 3/2/2 2/3/3
f 1/1/1 2/3/3 4/4/1
f 5/5/4 7/6/4 6/7/4
f 5/5/4 6/7/4 8/8/4
f 9/9/4 10/10/4 7/11/4
f 9/9/4 7/11/4 5/12/4
f 10/10/5 11/13/5 7/11/5
f 10/10/5 12/14/5 11/13/5
f 13/15/6 11/13/5 12/14/5
f 14/16/6 11/13/5 13/15/6
f 15/17/7 1/1/7 4/4/7
f 15/17/7 4/4/7 16/18/7
f 17/19/6 2/20/3 3/21/2
f 18/22/6 2/20/3 17/19/6
f 19/23/8 21/24/8 20/25/8
f 21/24/8 19/23/8 22/26/8
f 23/27/8 20/28/8 24/29/8
f 20/28/8 23/27/8 19/30/8
f 25/31/8 27/32/8 26/33/8
f 27/32/8 25/31/8 28/34/8
f 7/6/5 11/35/5 29/36/1
f 7/6/5 29/36/1 6/7/5
f 14/37/6 29/38/1 11/39/5
f 30/40/6 29/38/1 14/37/6
f 31/41/6 25/31/6 26/33/6
f 31/41/6 26/33/6 32/42/6
f 33/43/6 24/29/6 20/28/6
f 33/43/6 20/28/6 34/44/6
f 34/45/6 20/25/6 21/24/6
f 34/45/6 21/24/6 35/46/6
f 36/47/9 37/48/9 19/23/9
f 19/23/9 37/48/9 22/26/9
f 36/49/9 23/27/9 38/50/9
f 23/27/9 36/49/9 19/30/9
f 39/51/9 40/52/9 28/34/9
f 28/34/9 40/52/9 27/32/9
f 41/53/9 43/54/10 42/55/11
f 41/53/9 42/55/11 44/56/9
f 45/57/9 43/58/10 41/59/9
f 45/57/9 46/60/9 43/58/10
f 47/61/12 43/58/10 46/60/9
f 43/58/10 47/61/12 48/62/12
f 49/63/9 51/64/13 50/65/14
f 49/63/9 50/65/14 52/66/9
f 53/67/8 48/62/8 47/61/8
f 48/62/8 53/67/8 54/68/8
f 55/69/12 50/70/14 51/71/13
f 50/70/11 55/69/11 56/72/11
f 48/73/12 42/74/11 43/75/10
f 42/74/11 48/73/12 57/76/12
f 54/77/8 57/76/8 48/73/8
f 57/76/8 54/77/8 58/78/8
f 59/79/15 56/72/15 55/69/15
f 56/72/15 59/79/15 60/80/15
f 61/81/6 63/82/5 62/83/6
f 64/84/6 63/82/5 61/81/6
f 61/85/6 62/86/6 65/87/6
f 65/87/6 62/86/6 66/88/6
f 53/67/16 66/88/6 62/86/6
f 53/67/16 62/86/6 54/68/16
f 54/89/16 62/90/6 63/91/5
f 54/89/16 63/91/5 58/92/16
f 67/93/4 69/94/4 68/95/4
f 67/93/4 68/95/4 70/96/4
f 71/97/4 72/98/4 69/99/4
f 71/97/4 69/99/4 67/100/4
f 73/101/4 75/102/4 74/103/4
f 75/102/4 73/101/4 76/104/4
f 77/105/17 76/104/17 73/101/17
f 76/104/18 77/105/18 78/106/18
f 79/107/18 69/99/18 72/98/18
f 69/99/18 79/107/18 80/108/18
f 80/109/18 68/95/18 69/94/18
f 68/95/18 80/109/18 81/110/18
f 82/111/19 67/93/19 83/112/19
f 67/93/19 70/96/19 83/112/19
f 67/100/19 82/113/19 71/97/19
f 84/114/19 71/97/19 82/113/19
f 85/115/19 74/103/19 86/116/19
f 74/103/19 75/102/19 86/116/19
f 87/117/9 89/118/9 88/119/20
f 87/117/9 88/119/20 90/120/9
f 91/121/13 89/122/9 87/123/9
f 91/121/13 92/124/21 89/122/9
f 9/9/22 89/122/9 92/124/21
f 89/122/9 9/9/22 5/12/22
f 5/125/22 88/126/20 89/127/9
f 88/126/20 5/125/22 8/128/22
f 93/129/5 95/130/23 94/131/1
f 93/129/5 94/131/1 96/132/5
f 97/133/6 94/134/1 95/135/23
f 98/136/6 94/134/1 97/133/6
f 99/137/9 101/138/24 100/139/22
f 99/137/9 100/139/22 102/140/9
f 103/141/12 100/142/22 101/143/24
f 100/142/22 103/141/12 104/144/12
