# Blender v3.1.2 OBJ File: 'track.blend'
# www.blender.org
mtllib Scene.448.mtl
o _0LAMP_corner_04_009_Scene.448
v -8786.546875 75254.570312 -1357.156006
v -8794.397461 75263.296875 -1357.156006
v -8786.546875 75254.570312 -755.079712
v -8794.397461 75263.296875 -755.079712
v -8777.813477 75262.421875 -1357.156006
v -8777.813477 75262.421875 -755.079712
v -8785.664062 75271.148438 -1357.156006
v -8785.664062 75271.148438 -755.079712
v -8737.295898 75204.101562 -1353.155029
v -8784.764648 75256.898438 -1353.155029
v -8784.764648 75256.898438 -1347.183960
v -8737.295898 75204.101562 -1347.183960
v -8732.855469 75208.085938 -1353.155029
v -8780.325195 75260.890625 -1353.155029
v -8780.325195 75260.890625 -1347.183960
v -8732.855469 75208.085938 -1347.183960
v -8728.124023 75224.218750 -1332.651001
v -8730.101562 75222.445312 -1347.185059
v -8722.474609 75213.960938 -1358.593018
v -8702.384766 75191.609375 -1358.593018
v -8694.420898 75186.734375 -1351.846069
v -8724.146484 75172.054688 -1358.593018
v -8720.139648 75163.625000 -1351.846069
v -8744.236328 75194.398438 -1358.593018
v -8751.863281 75202.882812 -1347.185059
v -8753.840820 75201.101562 -1332.651001
v -8708.558594 75191.851562 -1349.824097
v -8731.919922 75217.843750 -1336.518921
v -8723.732422 75178.218750 -1349.824097
v -8747.091797 75204.210938 -1336.518921
v -8727.826172 75198.031250 -1343.171997
vt 0.487913 1.763667
vt 0.384907 1.763667
vt 0.487913 1.770191
vt 0.384907 1.770191
vt 0.384907 1.763618
vt 0.487913 1.763618
vt 0.384907 1.770191
vt 0.487913 1.770191
vt 0.384907 1.770191
vt 0.487913 1.770191
vt 0.384907 1.763667
vt 0.487913 1.763667
vt 0.458985 1.775614
vt 0.455340 1.775614
vt 0.458985 1.774532
vt 0.455340 1.774532
vt 0.457749 1.775614
vt 0.456575 1.776695
vt 0.456575 1.775614
vt 0.457749 1.776695
vt 0.384907 1.763667
vt 0.487913 1.770191
vt 0.487913 1.763667
vt 0.384907 1.770191
vt 0.487913 1.770191
vt 0.384907 1.770191
vt 0.487913 1.763618
vt 0.384907 1.763618
vt 0.384907 1.770191
vt 0.487913 1.770191
vt 0.384907 1.763667
vt 0.487913 1.763667
vt 0.823136 1.910260
vt 0.823136 1.910260
vt 0.823136 1.910260
vt 0.823136 1.910260
vt 0.823136 1.910260
vt 0.823136 1.910260
vt 0.823136 1.910260
vt 0.823136 1.910260
vt 0.823136 1.910260
vt 0.823136 1.910260
vt 0.492074 1.825578
vt 0.491302 1.819964
vt 0.492074 1.819964
vt 0.491302 1.825578
vt 0.492074 1.829223
vt 0.491302 1.829223
vt 0.491302 1.834838
vt 0.492074 1.834838
vt 0.491302 1.838482
vt 0.492074 1.838482
vt 0.829249 1.930272
vt 0.829249 1.930272
vt 0.829256 1.930104
vt 0.829249 1.930272
vt 0.829249 1.930272
vn -0.7431 -0.6692 0.0000
vn -0.7441 -0.6680 0.0000
vn -0.7441 -0.6681 -0.0000
vn 0.6691 -0.7431 0.0000
vn 0.6678 -0.7443 0.0000
vn 0.6677 -0.7444 -0.0000
vn 0.7431 0.6692 0.0000
vn 0.7441 0.6680 0.0000
vn 0.7441 0.6681 -0.0000
vn -0.6691 0.7431 0.0000
vn -0.6678 0.7443 0.0000
vn -0.6677 0.7444 -0.0000
vn 0.0000 0.0000 1.0000
vn 0.0000 0.0000 -1.0000
vn -0.7436 -0.6686 0.0000
vn 0.7437 0.6685 0.0000
vn 0.6960 0.6988 -0.1649
vn 0.6958 0.6991 -0.1650
vn 0.6970 0.6979 -0.1650
vn 0.6956 0.6993 -0.1648
vn 0.6956 0.6993 -0.1647
vn 0.2270 -0.2522 -0.9407
vn 0.4026 -0.4481 -0.7982
vn 0.4025 -0.4480 -0.7983
vn 0.2269 -0.2523 -0.9407
vn -0.2558 0.2845 -0.9239
vn -0.2558 0.2846 -0.9239
vn -0.6233 0.6933 -0.3617
vn -0.6234 0.6935 -0.3613
vn -0.6688 0.7434 0.0003
vn -0.6688 0.7434 -0.0003
vn -0.7691 -0.6174 -0.1650
vn -0.7690 -0.6175 -0.1652
vn -0.7688 -0.6176 -0.1659
vn -0.7687 -0.6176 -0.1662
vn 0.0142 -0.3334 0.9427
vn 0.1646 -0.5806 0.7973
vn 0.3271 -0.6241 0.7096
vn 0.0510 -0.2420 0.9689
vn 0.3296 -0.0494 0.9428
vn 0.2348 -0.0763 0.9690
vn 0.5600 -0.2256 0.7972
vn 0.5861 -0.3922 0.7090
vn 0.2378 -0.2647 0.9346
vn 0.2379 -0.2647 0.9345
usemtl EnvironmentMat.001
s 1
f 1/1/1 3/2/2 2/3/1
f 2/3/1 3/2/2 4/4/3
f 5/5/4 6/6/5 1/7/4
f 1/7/4 6/6/5 3/8/6
f 7/9/7 8/10/8 5/5/7
f 5/5/7 8/10/8 6/6/9
f 2/11/10 4/12/11 7/9/10
f 7/9/10 4/12/11 8/10/12
f 8/13/13 4/14/13 6/15/13
f 4/14/13 3/16/13 6/15/13
f 1/17/14 7/18/14 5/19/14
f 7/18/14 1/17/14 2/20/14
f 9/21/15 11/22/15 10/23/15
f 11/22/15 9/21/15 12/24/15
f 9/25/14 10/26/14 13/27/14
f 13/27/14 10/26/14 14/28/14
f 15/29/16 16/30/16 14/28/16
f 13/27/16 14/28/16 16/30/16
f 11/31/13 12/32/13 15/29/13
f 15/29/13 12/32/13 16/30/13
f 17/33/17 19/34/18 18/35/19
f 17/33/17 20/36/20 19/34/18
f 20/36/20 17/33/17 21/37/21
f 22/38/22 21/37/23 23/39/24
f 21/37/23 22/38/22 20/36/25
f 20/36/25 22/38/22 24/40/26
f 20/36/25 24/40/26 19/34/27
f 19/34/27 24/40/26 25/41/28
f 19/34/27 25/41/28 18/35/29
f 25/41/28 17/33/30 18/35/29
f 17/33/30 25/41/28 26/42/31
f 24/40/32 26/42/33 25/41/33
f 22/38/34 26/42/33 24/40/32
f 23/39/35 26/42/33 22/38/34
f 27/43/36 17/44/37 28/45/38
f 17/44/37 27/43/36 21/46/39
f 29/47/40 21/46/39 27/43/36
f 21/46/39 29/47/40 23/48/41
f 26/49/42 23/48/41 29/47/40
f 26/49/42 29/47/40 30/50/43
f 17/51/37 26/49/42 30/50/43
f 17/51/37 30/50/43 28/52/38
f 28/53/44 30/54/44 31/55/45
f 27/56/44 28/53/44 31/55/45
f 30/54/44 29/57/44 31/55/45
f 29/57/44 27/56/44 31/55/45
