# Blender v3.1.2 OBJ File: 'track.blend'
# www.blender.org
mtllib Scene.549.mtl
o _0TRIBUENE_02_015_SUB0_Scene.549
v 17936.570312 59109.050781 -1840.306152
v 18036.470703 59087.902344 -1710.306885
v 18036.480469 59087.902344 -1840.306152
v 17936.570312 59109.050781 -1710.306885
v 18609.628906 62343.121094 -1840.306152
v 17937.509766 59107.722656 -1710.306885
v 17937.509766 59107.722656 -1840.306152
v 18609.628906 62343.121094 -1710.306885
v 18609.628906 62343.121094 -1860.306885
v 17937.509766 59107.722656 -1860.306885
v 18036.250000 59086.824219 -1840.306152
v 18036.250000 59086.824219 -1860.306885
v 20503.570312 58574.250000 -740.306274
v 20503.570312 58574.250000 -720.306274
v 18607.599609 62341.058594 -1840.306152
v 18607.599609 62341.058594 -1710.306885
v 20503.791016 58575.343750 -720.306274
v 20503.791016 58575.343750 -590.306274
v 21374.240234 61771.492188 -718.124390
v 20701.509766 58533.179688 -718.124390
v 20701.509766 58533.179688 -588.124390
v 21374.240234 61771.492188 -588.124390
v 21374.240234 61771.492188 -738.124390
v 20701.509766 58533.179688 -738.124390
v 20699.179688 58536.089844 -718.165588
v 20699.179688 58536.089844 -588.165710
v 21370.759766 61768.890625 -588.165710
v 21370.759766 61768.890625 -718.165588
v 18036.250000 59086.824219 -1710.306885
v 20503.570312 58574.250000 -590.306274
v 20503.359375 58576.769531 -718.165588
v 20503.359375 58576.769531 -588.165710
v 20505.689453 58573.859375 -738.124390
v 20505.689453 58573.859375 -718.124390
v 20505.689453 58573.859375 -588.124390
v 21178.419922 61812.171875 -718.124390
v 21178.419922 61812.171875 -588.124390
v 21178.419922 61812.171875 -738.124390
v 21174.941406 61809.570312 -718.165588
v 21174.941406 61809.570312 -588.165710
v 20504.111328 58576.867188 -720.306274
v 18036.791016 59089.441406 -1710.306885
v 18036.791016 59089.441406 -1840.306152
v 20504.111328 58576.867188 -590.306274
v 20504.111328 58576.867188 -740.306274
v 18036.791016 59089.441406 -1860.306885
v 17939.740234 59109.191406 -1860.306885
v 17939.740234 59109.191406 -1840.306152
v 20504.339844 58577.960938 -720.306274
v 18037.009766 59090.527344 -1710.306885
v 18037.009766 59090.527344 -1840.306152
v 20504.339844 58577.960938 -590.306274
v 18611.099609 62340.882812 -1860.306885
v 18611.099609 62340.882812 -1840.306152
v 17938.810547 59110.523438 -1840.306152
v 17938.810547 59110.523438 -1710.306885
v 17939.740234 59109.191406 -1710.306885
v 18611.099609 62340.882812 -1710.306885
v 18610.220703 62340.507812 -1840.306152
v 18610.220703 62340.507812 -1710.306885
v 21175.310547 61807.781250 -720.306274
v 18707.980469 62320.343750 -1840.306152
v 18707.980469 62320.343750 -1710.306885
v 21175.310547 61807.781250 -590.306274
v 21175.310547 61807.781250 -740.306274
v 18707.980469 62320.343750 -1860.306885
v 21370.150391 61768.796875 -718.124390
v 20698.820312 58537.269531 -588.124390
v 20698.820312 58537.269531 -718.124390
v 21370.150391 61768.796875 -588.124390
v 21370.150391 61768.796875 -738.124390
v 20698.820312 58537.269531 -738.124390
v 20696.490234 58540.191406 -718.165588
v 21366.669922 61766.199219 -718.165588
v 21366.669922 61766.199219 -588.165710
v 20696.490234 58540.191406 -588.165710
v 20504.349609 58581.562500 -718.165588
v 20504.349609 58581.562500 -588.165710
v 20506.679688 58578.648438 -738.124390
v 20506.679688 58578.648438 -718.124390
v 20506.679688 58578.648438 -588.124390
v 21177.431641 61807.378906 -718.124390
v 21177.431641 61807.378906 -588.124390
v 21177.431641 61807.378906 -738.124390
v 21173.949219 61804.777344 -718.165588
v 21173.949219 61804.777344 -588.165710
v 21175.849609 61810.414062 -720.306274
v 18708.529297 62322.960938 -1710.306885
v 18708.529297 62322.960938 -1840.306152
v 21175.849609 61810.414062 -590.306274
v 21175.849609 61810.414062 -740.306274
v 18708.529297 62322.960938 -1860.306885
v 18607.789062 62340.058594 -1840.306152
v 18707.691406 62318.921875 -1710.306885
v 18707.691406 62318.921875 -1840.306152
v 18607.789062 62340.058594 -1710.306885
v 21175.009766 61806.347656 -720.306274
v 21175.009766 61806.347656 -590.306274
v 21175.548828 61808.976562 -720.306274
v 18708.230469 62321.550781 -1710.306885
v 18708.230469 62321.550781 -1840.306152
v 21175.548828 61808.976562 -590.306274
v 18610.029297 62341.539062 -1840.306152
v 18610.029297 62341.539062 -1710.306885
vt 102.061203 1.445998
vt 106.201202 1.445998
vt 106.201202 1.808102
vt 102.061203 1.808102
vt -1.128167 1.445998
vt 7.317342 1.445998
vt 7.317341 1.808102
vt -1.128167 1.808102
vt 0.439238 1.852482
vt 0.439238 1.852482
vt 0.439238 1.901746
vt 0.439238 1.901746
vt 0.439238 1.901746
vt 0.439238 1.852482
vt 0.439238 1.852482
vt 0.439238 1.901746
vt -32.960171 1.445998
vt -32.960171 1.808102
vt -133.517502 1.445998
vt -20.685499 1.808102
vt -20.685499 1.445998
vt -133.517502 1.808102
vt 1.994339 1.445998
vt 10.414750 1.808102
vt 10.414750 1.445998
vt 1.994339 1.808102
vt 0.439238 1.852482
vt 0.439238 1.901746
vt 0.439238 1.852482
vt 0.439238 1.901746
vt 103.806503 1.445998
vt -30.874689 1.808102
vt 103.806503 1.808102
vt -30.874689 1.445998
vt 7.573064 1.445998
vt 7.573063 1.808102
vt -7.406326 1.445998
vt -0.354325 1.808102
vt -0.354325 1.445998
vt -7.406326 1.808102
vt 111.989601 1.445998
vt 111.989601 1.808102
vt 0.439238 1.852482
vt 0.439238 1.901746
vt 10.925800 1.445998
vt 10.925800 1.808102
vt 1.483288 1.445998
vt 1.483288 1.808102
vt 0.439238 1.901746
vt 0.439238 1.852482
vt -39.057812 1.445998
vt -39.057812 1.808102
vt -7.406326 1.445998
vt -0.354325 1.445998
vt -0.354325 1.808102
vt -7.406326 1.808102
vt 0.439238 1.852482
vt 0.439238 1.901746
vt 0.439238 1.901746
vt 0.439238 1.852482
vt 0.439238 1.852482
vt 0.439238 1.901746
vt -133.517502 1.445998
vt -20.685499 1.445998
vt -20.685499 1.808102
vt -133.517502 1.808102
vt 0.439238 1.852482
vt 0.439238 1.901746
vt 102.061203 1.445998
vt 106.201202 1.808102
vt 106.201202 1.445998
vt 102.061203 1.808102
vt 7.317342 1.445998
vt 7.573063 1.808102
vt 7.573064 1.445998
vt 7.317341 1.808102
vt -1.128167 1.445998
vt -1.128167 1.808102
vt -32.960171 1.445998
vt -32.960171 1.808102
vt -7.406326 1.445998
vt -0.354325 1.808102
vt -0.354325 1.445998
vt -7.406326 1.808102
vt 0.439238 1.901746
vt 0.439238 1.901746
vt 0.439238 1.852482
vt 0.439238 1.852482
vt 7.317342 1.445998
vt 7.573064 1.445998
vt 7.573063 1.808102
vt 7.317341 1.808102
vt 1.994339 1.445998
vt 10.414750 1.445998
vt 10.414750 1.808102
vt 1.994339 1.808102
vt 0.439238 1.852482
vt 0.439238 1.852482
vt 0.439238 1.901746
vt 0.439238 1.901746
vt 103.806503 1.445998
vt -30.874689 1.808102
vt -30.874689 1.445998
vt 103.806503 1.808102
vt 111.989601 1.445998
vt 111.989601 1.808102
vt 0.439238 1.852482
vt 0.439238 1.901746
vt 10.925800 1.445998
vt 10.925800 1.808102
vt 1.483288 1.445998
vt 1.483288 1.808102
vt 0.439238 1.901746
vt 0.439238 1.852482
vt -39.057812 1.445998
vt -39.057812 1.808102
vt -7.406326 1.445998
vt -0.354325 1.445998
vt -0.354325 1.808102
vt -7.406326 1.808102
vt 0.439238 1.852482
vt 0.439238 1.901746
vt 0.439238 1.901746
vt 0.439238 1.852482
vt 7.317342 1.445998
vt 7.573063 1.808102
vt 7.573064 1.445998
vt 7.317341 1.808102
vt 102.061203 1.445998
vt 106.201202 1.445998
vt 106.201202 1.808102
vt 102.061203 1.808102
vt -133.517502 1.445998
vt -20.685499 1.808102
vt -20.685499 1.445998
vt -133.517502 1.808102
vt -133.517502 1.445998
vt -20.685499 1.445998
vt -20.685499 1.808102
vt -133.517502 1.808102
vt 102.061203 1.445998
vt 106.201202 1.808102
vt 106.201202 1.445998
vt 102.061203 1.808102
vn -0.2071 -0.9783 0.0000
vn -0.2037 -0.9790 0.0001
vn -0.2068 -0.9784 0.0001
vn -0.9791 0.2034 0.0000
vn -0.2034 -0.9791 0.0000
vn -0.9791 0.2033 0.0000
vn 0.9791 -0.2034 0.0000
vn -0.2068 -0.9784 0.0000
vn 0.2034 0.9791 0.0000
vn 0.2033 0.9791 -0.0000
vn 0.1997 0.9799 0.0000
vn 0.1994 0.9799 0.0000
vn 0.2031 0.9791 -0.0000
vn 0.2007 0.9797 -0.0000
vn 0.1995 0.9799 0.0000
vn 0.9791 -0.2035 0.0000
vn -0.2074 -0.9783 0.0000
vn 0.2105 0.9776 0.0000
vn -0.1963 -0.9805 0.0000
vn 0.1999 0.9798 0.0000
vn 0.1997 0.9798 0.0000
vn -0.2070 -0.9783 0.0000
vn -0.2036 -0.9790 -0.0000
vn -0.2073 -0.9783 -0.0000
vn 0.2030 0.9792 -0.0000
usemtl GitterMat.001
s 1
f 1/1/1 3/2/2 2/3/3
f 1/1/1 2/3/3 4/4/1
f 5/5/4 7/6/4 6/7/4
f 5/5/4 6/7/4 8/8/4
f 9/9/4 10/10/4 7/11/4
f 9/9/4 7/11/4 5/12/4
f 10/10/1 11/13/1 7/11/1
f 10/10/1 12/14/1 11/13/1
f 13/15/5 11/13/1 12/14/1
f 14/16/5 11/13/1 13/15/5
f 15/17/6 1/1/6 4/4/6
f 15/17/6 4/4/6 16/18/6
f 17/19/5 2/20/3 3/21/2
f 18/22/5 2/20/3 17/19/5
f 19/23/7 21/24/7 20/25/7
f 21/24/7 19/23/7 22/26/7
f 23/27/7 20/28/7 24/29/7
f 20/28/7 23/27/7 19/30/7
f 25/31/7 27/32/7 26/33/7
f 27/32/7 25/31/7 28/34/7
f 7/6/1 11/35/1 29/36/8
f 7/6/1 29/36/8 6/7/1
f 14/37/5 29/38/8 11/39/1
f 30/40/5 29/38/8 14/37/5
f 31/41/5 25/31/5 26/33/5
f 31/41/5 26/33/5 32/42/5
f 33/43/5 24/29/5 20/28/5
f 33/43/5 20/28/5 34/44/5
f 34/45/5 20/25/5 21/24/5
f 34/45/5 21/24/5 35/46/5
f 36/47/9 37/48/9 19/23/9
f 19/23/9 37/48/9 22/26/9
f 36/49/9 23/27/9 38/50/9
f 23/27/9 36/49/9 19/30/9
f 39/51/9 40/52/9 28/34/9
f 28/34/9 40/52/9 27/32/9
f 41/53/9 43/54/10 42/55/11
f 41/53/9 42/55/11 44/56/9
f 45/57/9 43/58/10 41/59/9
f 45/57/9 46/60/9 43/58/10
f 47/61/12 43/58/10 46/60/9
f 43/58/10 47/61/12 48/62/12
f 49/63/9 51/64/13 50/65/14
f 49/63/9 50/65/14 52/66/9
f 53/67/7 48/62/7 47/61/7
f 48/62/7 53/67/7 54/68/7
f 55/69/15 50/70/14 51/71/13
f 50/70/15 55/69/15 56/72/15
f 48/73/12 42/74/11 43/75/10
f 42/74/11 48/73/12 57/76/12
f 54/77/7 57/76/7 48/73/7
f 57/76/7 54/77/7 58/78/7
f 59/79/16 56/72/16 55/69/16
f 56/72/16 59/79/16 60/80/16
f 61/81/5 63/82/1 62/83/5
f 64/84/5 63/82/1 61/81/5
f 61/85/5 62/86/5 65/87/5
f 65/87/5 62/86/5 66/88/5
f 53/67/17 66/88/5 62/86/5
f 53/67/17 62/86/5 54/68/17
f 54/89/17 62/90/5 63/91/1
f 54/89/17 63/91/1 58/92/17
f 67/93/4 69/94/4 68/95/4
f 67/93/4 68/95/4 70/96/4
f 71/97/4 72/98/4 69/99/4
f 71/97/4 69/99/4 67/100/4
f 73/101/4 75/102/4 74/103/4
f 75/102/4 73/101/4 76/104/4
f 77/105/18 76/104/18 73/101/18
f 76/104/18 77/105/18 78/106/18
f 79/107/18 69/99/18 72/98/18
f 69/99/18 79/107/18 80/108/18
f 80/109/18 68/95/18 69/94/18
f 68/95/18 80/109/18 81/110/18
f 82/111/19 67/93/19 83/112/19
f 67/93/19 70/96/19 83/112/19
f 67/100/19 82/113/19 71/97/19
f 84/114/19 71/97/19 82/113/19
f 85/115/19 74/103/19 86/116/19
f 74/103/19 75/102/19 86/116/19
f 87/117/9 89/118/9 88/119/20
f 87/117/9 88/119/20 90/120/9
f 91/121/9 89/122/9 87/123/9
f 91/121/9 92/124/9 89/122/9
f 9/9/11 89/122/9 92/124/9
f 89/122/9 9/9/21 5/12/21
f 5/125/21 88/126/20 89/127/9
f 88/126/20 5/125/21 8/128/21
f 93/129/22 95/130/23 94/131/8
f 93/129/22 94/131/8 96/132/24
f 97/133/5 94/134/8 95/135/23
f 98/136/5 94/134/8 97/133/5
f 99/137/9 101/138/25 100/139/11
f 99/137/9 100/139/11 102/140/9
f 103/141/15 100/142/11 101/143/25
f 100/142/11 103/141/15 104/144/15
