# Blender v3.1.2 OBJ File: 'track.blend'
# www.blender.org
mtllib Scene.765.mtl
o _1WALL_tires01_02_Scene.765
v 17145.238281 27214.332031 -363.481812
v 17062.089844 27342.441406 -365.601288
v 17055.929688 27338.439453 -358.261292
v 17139.080078 27210.339844 -356.141815
v 17204.111328 27123.650391 -363.481812
v 17198.740234 27118.429688 -356.141815
v 17228.970703 27106.560547 -363.481812
v 17227.320312 27098.791016 -356.141815
v 17198.740234 27118.429688 -245.563293
v 17139.080078 27210.339844 -245.563293
v 17055.929688 27338.439453 -245.563293
v 17227.320312 27098.791016 -245.563293
v 17261.419922 27105.099609 -356.141815
v 17261.419922 27105.099609 -245.563293
v 17334.160156 27152.320312 -245.563293
v 17258.638672 27112.050781 -363.481812
v 17334.160156 27152.320312 -356.141907
v 17330.169922 27158.480469 -363.481812
v 16972.798828 27466.500000 -356.141815
v 16972.798828 27466.500000 -245.563293
v 16889.679688 27594.548828 -245.563293
v 16978.958984 27470.490234 -363.481812
v 16889.679688 27594.548828 -362.235809
v 16895.830078 27598.541016 -369.575806
v 16812.699219 27726.599609 -363.481812
v 16806.550781 27722.601562 -356.141815
v 16806.550781 27722.601562 -245.563293
v 16723.419922 27850.650391 -245.563293
v 16723.419922 27850.650391 -359.591614
v 16729.580078 27854.650391 -366.931610
v 16646.449219 27982.699219 -363.481812
v 16640.289062 27978.699219 -356.141815
v 16640.289062 27978.699219 -245.563293
v 16563.320312 28110.751953 -359.965790
v 16557.160156 28106.759766 -352.625793
v 16557.160156 28106.759766 -245.563293
v 16474.041016 28234.810547 -245.563293
v 16474.041016 28234.810547 -356.141815
v 16480.189453 28238.808594 -363.481812
v 16390.910156 28362.859375 -245.563293
v 16390.910156 28362.859375 -360.709503
v 16397.060547 28366.861328 -368.049500
v 16313.940430 28494.910156 -363.481812
v 16307.780273 28490.908203 -356.141815
v 16307.780273 28490.908203 -245.563293
v 16265.190430 28570.001953 -363.481812
v 16258.240234 28567.220703 -356.141815
v 16258.240234 28567.220703 -245.563293
v 16257.730469 28610.330078 -363.481812
v 16249.949219 28611.980469 -245.563293
v 16249.949219 28611.980469 -356.141815
v 16268.719727 28692.480469 -356.141815
v 16276.199219 28692.099609 -363.481812
v 16268.719727 28692.480469 -245.563293
v 16286.529297 28762.820312 -356.141907
v 16293.649414 28761.019531 -363.481812
v 16286.529297 28762.820312 -245.563293
v 17249.830078 27282.230469 -363.481812
v 17166.679688 27410.339844 -363.481812
v 17083.548828 27538.390625 -363.481812
v 17000.419922 27666.439453 -363.481812
v 16917.300781 27794.488281 -363.481812
v 16834.169922 27922.548828 -363.481812
v 16751.041016 28050.601562 -363.481812
v 16667.910156 28178.650391 -363.481812
v 16584.779297 28306.699219 -363.481812
v 16501.660156 28434.759766 -363.481812
v 16418.531250 28562.810547 -363.481812
vt 0.752599 1.378793
vt 1.249441 1.346526
vt 1.249441 1.378792
vt 0.752599 1.346526
vt 0.397728 1.378794
vt 0.397728 1.346527
vt 0.289804 1.378794
vt 0.289804 1.346527
vt 0.397727 1.002950
vt 0.752598 1.002950
vt 1.249441 1.002949
vt 0.289804 1.002950
vt 0.181881 1.346527
vt 0.181880 1.002950
vt -0.098675 1.002951
vt 0.181881 1.378794
vt -0.098674 1.346528
vt -0.098674 1.378794
vt 1.746101 1.346525
vt 1.746100 1.002948
vt 2.242934 1.002947
vt 1.746101 1.384315
vt 1.249441 1.384316
vt 2.242934 1.346524
vt 2.242934 1.384314
vt 2.739767 1.384313
vt 2.739767 1.346523
vt 2.739767 1.002947
vt 3.236466 1.002946
vt 3.236466 1.346522
vt 3.236466 1.384313
vt 3.733165 1.384312
vt 3.733165 1.346522
vt 3.733164 1.002945
vt 4.229865 1.384311
vt 4.229865 1.346521
vt 4.229865 1.002944
vt 4.726567 1.002944
vt 4.726567 1.346520
vt 4.726567 1.384310
vt 5.223312 1.002943
vt 5.223313 1.346519
vt 5.223313 1.384310
vt 5.720059 1.384309
vt 5.720059 1.346519
vt 5.720058 1.002942
vt 6.014432 1.384308
vt 6.014432 1.346518
vt 6.014432 1.002942
vt 6.157632 1.384308
vt 6.157631 1.002942
vt 6.157632 1.346518
vt 6.300831 1.346518
vt 6.300831 1.384308
vt 6.300831 1.002942
vt 6.431076 1.346518
vt 6.431076 1.384308
vt 6.431075 1.002941
vt -3.736500 1.534263
vt -3.254271 1.848438
vt -3.735859 1.849698
vt -3.608106 1.388076
vt -3.699018 1.431032
vt -3.255212 1.387151
vt -2.756349 1.385076
vt -2.755953 1.847127
vt -0.754358 1.387136
vt -0.256425 1.849087
vt -0.754746 1.848489
vt -0.255996 1.387798
vt 0.241897 1.849677
vt 0.242719 1.387836
vt 0.740220 1.851360
vt 0.741433 1.390068
vt 1.238546 1.853039
vt 1.239884 1.391568
vt 1.736874 1.855066
vt 1.738335 1.393769
vt 2.235206 1.857092
vt 2.236799 1.395607
vt 2.733541 1.859483
vt 2.735264 1.398177
vt 3.231881 1.861872
vt 3.233827 1.400254
vt 3.731493 1.859568
vt 3.732656 1.403799
vt 4.056134 1.404140
vt 4.192945 1.460864
vt 4.404173 1.677623
vt 4.578541 1.866039
vn -0.3174 -0.2114 -0.9244
vn -0.7740 -0.5024 -0.3853
vn -0.3165 -0.2055 -0.9261
vn -0.7740 -0.5056 -0.3812
vn -0.2987 -0.2910 -0.9089
vn -0.6654 -0.6479 -0.3708
vn -0.0911 -0.4282 -0.8991
vn -0.1933 -0.9092 -0.3688
vn -0.7163 -0.6977 0.0000
vn -0.8388 -0.5445 0.0000
vn -0.2080 -0.9781 0.0000
vn 0.3439 -0.8626 -0.3710
vn 0.3703 -0.9289 0.0000
vn 0.5445 -0.8388 0.0000
vn 0.1545 -0.3876 -0.9088
vn 0.5030 -0.7749 -0.3828
vn 0.2083 -0.3209 -0.9239
vn -0.7742 -0.5083 -0.3771
vn -0.3120 -0.2127 -0.9260
vn -0.7721 -0.5012 -0.3907
vn -0.3086 -0.2003 -0.9299
vn -0.3189 -0.2002 -0.9264
vn -0.7789 -0.5019 -0.3760
vn -0.8387 -0.5445 0.0000
vn -0.7732 -0.5020 -0.3874
vn -0.3142 -0.2039 -0.9272
vn -0.3291 -0.1958 -0.9238
vn -0.7797 -0.4957 -0.3826
vn -0.3282 -0.2130 -0.9203
vn -0.7766 -0.5041 -0.3778
vn -0.7697 -0.5117 -0.3818
vn -0.3109 -0.2225 -0.9240
vn -0.7727 -0.5017 -0.3889
vn -0.3116 -0.2023 -0.9284
vn -0.3238 -0.1985 -0.9251
vn -0.7790 -0.4990 -0.3797
vn -0.3876 -0.1544 -0.9088
vn -0.8626 -0.3440 -0.3710
vn -0.9289 -0.3704 0.0000
vn -0.4133 0.0010 -0.9106
vn -0.9997 0.0230 0.0000
vn -0.9265 0.0270 -0.3754
vn -0.8961 0.2169 -0.3871
vn -0.3701 0.0897 -0.9247
vn -0.9717 0.2363 0.0000
vn -0.8955 0.2268 -0.3829
vn -0.4853 0.1229 -0.8657
vn -0.9694 0.2454 0.0000
vn 0.0054 -0.0008 -1.0000
vn 0.0071 0.0046 -1.0000
vn 0.0173 0.0035 -0.9998
vn 0.0205 0.0133 -0.9997
vn 0.0137 0.0140 -0.9998
vn 0.0116 0.0075 -0.9999
vn -0.0063 0.0095 -0.9999
vn -0.0118 -0.0077 -0.9999
vn 0.0090 -0.0099 -0.9999
vn 0.0154 0.0100 -0.9998
vn 0.0035 0.0112 -0.9999
usemtl TiresMat.001
s 1
f 1/1/1 3/2/2 2/3/3
f 3/2/2 1/1/1 4/4/4
f 5/5/5 4/4/4 1/1/1
f 4/4/4 5/5/5 6/6/6
f 7/7/7 6/6/6 5/5/5
f 6/6/6 7/7/7 8/8/8
f 6/6/6 9/9/9 4/4/4
f 9/9/9 6/6/6 8/8/8
f 4/4/4 9/9/9 10/10/10
f 11/11/10 4/4/4 10/10/10
f 4/4/4 11/11/10 3/2/2
f 8/8/8 12/12/11 9/9/9
f 7/7/7 13/13/12 8/8/8
f 12/12/11 8/8/8 13/13/12
f 13/13/12 14/14/13 12/12/11
f 13/13/12 15/15/14 14/14/13
f 7/7/7 16/16/15 13/13/12
f 17/17/16 15/15/14 13/13/12
f 16/16/15 17/17/16 13/13/12
f 16/16/15 18/18/17 17/17/16
f 3/2/2 11/11/10 19/19/18
f 19/19/18 11/11/10 20/20/10
f 21/21/10 19/19/18 20/20/10
f 22/22/19 3/2/2 19/19/18
f 22/22/19 2/23/3 3/2/2
f 23/24/20 22/22/19 19/19/18
f 19/19/18 21/21/10 23/24/20
f 22/22/19 23/24/20 24/25/21
f 25/26/22 24/25/21 23/24/20
f 23/24/20 21/21/10 26/27/23
f 25/26/22 23/24/20 26/27/23
f 26/27/23 21/21/10 27/28/10
f 28/29/24 26/27/23 27/28/10
f 29/30/25 25/26/22 26/27/23
f 26/27/23 28/29/24 29/30/25
f 25/26/22 29/30/25 30/31/26
f 31/32/27 30/31/26 29/30/25
f 29/30/25 28/29/24 32/33/28
f 31/32/27 29/30/25 32/33/28
f 32/33/28 28/29/24 33/34/10
f 34/35/29 31/32/27 32/33/28
f 32/33/28 33/34/10 35/36/30
f 34/35/29 32/33/28 35/36/30
f 35/36/30 33/34/10 36/37/10
f 37/38/10 35/36/30 36/37/10
f 38/39/31 34/35/29 35/36/30
f 35/36/30 37/38/10 38/39/31
f 34/35/29 38/39/31 39/40/32
f 40/41/24 38/39/31 37/38/10
f 41/42/33 39/40/32 38/39/31
f 38/39/31 40/41/24 41/42/33
f 39/40/32 41/42/33 42/43/34
f 43/44/35 42/43/34 41/42/33
f 41/42/33 40/41/24 44/45/36
f 43/44/35 41/42/33 44/45/36
f 44/45/36 40/41/24 45/46/10
f 46/47/37 43/44/35 44/45/36
f 44/45/36 45/46/10 47/48/38
f 46/47/37 44/45/36 47/48/38
f 47/48/38 45/46/10 48/49/39
f 47/48/38 49/50/40 46/47/37
f 47/48/38 48/49/39 50/51/41
f 47/48/38 51/52/42 49/50/40
f 50/51/41 51/52/42 47/48/38
f 52/53/43 49/50/40 51/52/42
f 50/51/41 52/53/43 51/52/42
f 49/50/40 52/53/43 53/54/44
f 52/53/43 50/51/41 54/55/45
f 55/56/46 53/54/44 52/53/43
f 54/55/45 55/56/46 52/53/43
f 53/54/44 55/56/46 56/57/47
f 55/56/46 54/55/45 57/58/48
f 16/59/15 58/60/49 18/61/17
f 16/59/15 5/62/5 58/60/49
f 5/62/5 16/59/15 7/63/7
f 5/62/5 1/64/1 58/60/49
f 2/65/3 58/60/49 1/64/1
f 58/60/49 2/65/3 59/66/50
f 2/67/3 60/68/51 59/69/50
f 60/68/51 2/67/3 22/70/19
f 22/70/19 61/71/52 60/68/51
f 61/71/52 22/70/19 24/72/21
f 24/72/21 62/73/53 61/71/52
f 62/73/53 24/72/21 25/74/22
f 25/74/22 63/75/54 62/73/53
f 63/75/54 25/74/22 30/76/26
f 30/76/26 64/77/55 63/75/54
f 64/77/55 30/76/26 31/78/27
f 31/78/27 65/79/56 64/77/55
f 65/79/56 31/78/27 34/80/29
f 34/80/29 66/81/57 65/79/56
f 66/81/57 34/80/29 39/82/32
f 39/82/32 67/83/58 66/81/57
f 67/83/58 39/82/32 42/84/34
f 42/84/34 68/85/59 67/83/58
f 68/85/59 42/84/34 43/86/35
f 46/87/37 68/85/59 43/86/35
f 49/88/40 68/85/59 46/87/37
f 53/89/44 68/85/59 49/88/40
f 68/85/59 53/89/44 56/90/47
