# Blender v3.1.2 OBJ File: 'track.blend'
# www.blender.org
mtllib Scene.647.mtl
o _1SAND_Scene.647
v -18535.560547 -103491.000000 -1.051904
v -14927.659180 -104183.398438 -1.051769
v -14215.009766 -101230.796875 -1.052254
v -18205.548828 -100474.906250 -1.052401
v -15929.490234 -99935.851562 0.044093
v -16274.699219 -99771.578125 0.594635
v -15560.980469 -100048.398438 -0.604477
v -16587.669922 -99558.250000 0.671055
v -15178.109375 -100106.406250 -0.974958
v -14790.820312 -100105.500000 -1.134507
v -14409.000000 -100041.101562 -1.150271
v -13928.840820 -99840.820312 -1.065922
v -16859.449219 -99298.593750 -0.102751
v -17081.089844 -98995.343750 -2.102882
v -17252.509766 -98661.000000 -4.955484
v -17373.599609 -98308.109375 -8.286695
v -17444.279297 -97949.203125 -11.722660
v -17644.779297 -96919.101562 -14.868480
v -17457.599609 -97590.164062 -14.860280
v -17378.910156 -96941.195312 -14.787730
v 16255.560547 27985.111328 -254.289200
v 16262.069336 28630.359375 -251.373199
v 16175.129883 28220.650391 -254.298218
v 17481.978516 26635.048828 -248.473404
v 16296.769531 27816.890625 -256.336914
v 16418.679688 27052.578125 -258.839203
v 16473.468750 26768.908203 -258.839111
v 16557.500000 26528.408203 -258.839111
v 17509.500000 26369.281250 -258.681519
v 17523.441406 26564.041016 -258.681610
v 17526.289062 26199.050781 -258.681519
v 16881.039062 26076.839844 -258.839020
v 17317.191406 25468.099609 -258.838898
v 17590.289062 26012.509766 -258.681519
v 17705.720703 25800.509766 -258.681396
v 18106.140625 25120.330078 -258.681305
v 17895.390625 24661.070312 -258.838806
v 18109.720703 24897.910156 -258.681305
v 18131.660156 25015.830078 -258.681305
v 18129.580078 25068.910156 -258.681305
v 18104.390625 24871.539062 -258.709595
v 18029.960938 24501.750000 -258.994202
v -24776.800781 -37719.410156 -430.112885
v -23362.830078 -37423.839844 -382.303314
v -23321.099609 -37289.277344 -404.899109
v -23500.919922 -37869.187500 -378.438080
v -23673.419922 -38528.968750 -373.028900
v -23850.140625 -39339.359375 -356.032104
v -26721.410156 -38340.640625 -387.126892
v -23920.929688 -39809.039062 -344.898285
v -23979.509766 -40279.441406 -336.069305
v -25738.570312 -41250.960938 -328.978119
v -24012.371094 -40717.941406 -328.978210
vt -70.946129 320.187500
vt -51.301208 309.911011
vt -54.541561 323.335785
vt -69.445641 306.473999
vt -59.096691 304.022797
vt -60.666321 303.275909
vt -57.421139 304.534393
vt -62.089340 302.305908
vt -55.680309 304.798187
vt -53.919331 304.794006
vt -52.183281 304.501495
vt -50.000069 303.590607
vt -63.325062 301.125305
vt -64.332863 299.746490
vt -65.112282 298.226288
vt -65.662872 296.621704
vt -65.984261 294.989807
vt -66.895882 290.306091
vt -66.044800 293.357300
vt -65.687027 290.406586
vt 87.243896 -277.614685
vt 86.878220 -278.685608
vt 87.273499 -280.548615
vt 92.820259 -271.476196
vt 87.431282 -276.849792
vt 87.985573 -273.374603
vt 88.234718 -272.084808
vt 88.616791 -270.991302
vt 92.945381 -270.267700
vt 93.008781 -271.153290
vt 93.021744 -269.493805
vt 90.087860 -268.937988
vt 92.070953 -266.170197
vt 93.312714 -268.645599
vt 93.837593 -267.681610
vt 95.658249 -264.588989
vt 94.699959 -262.500793
vt 95.674477 -263.577606
vt 95.774231 -264.113800
vt 95.764801 -264.355194
vt 95.650284 -263.457703
vt 95.311836 -261.776398
vt -99.324127 21.133949
vt -92.705254 19.178169
vt -92.894981 19.790001
vt -93.522888 21.814989
vt -94.307182 24.814871
vt -95.110733 28.499620
vt -108.166000 23.958540
vt -95.432587 30.635180
vt -95.698936 32.773998
vt -103.697098 37.191341
vt -95.848373 34.767830
vn 0.0000 -0.0000 -1.0000
vn -0.0001 0.0000 -1.0000
vn 0.0012 -0.0009 -1.0000
vn -0.0002 0.0011 -1.0000
vn -0.0000 0.0024 -1.0000
vn -0.0023 -0.0022 -1.0000
vn 0.0010 0.0002 -1.0000
vn -0.0009 -0.0007 -1.0000
vn -0.0003 -0.0002 -1.0000
vn 0.0001 -0.0001 -1.0000
vn 0.0002 -0.0001 -1.0000
vn 0.0028 -0.0024 -1.0000
vn 0.0053 -0.0047 -1.0000
vn 0.0077 -0.0062 -1.0000
vn 0.0102 -0.0073 -0.9999
vn -0.0020 -0.0044 -1.0000
vn -0.0020 -0.0012 -1.0000
vn -0.0317 -0.0089 -0.9995
vn 0.0003 0.0001 -1.0000
vn 0.0123 0.0065 -0.9999
vn 0.0130 0.0044 -0.9999
vn 0.0105 0.0044 -0.9999
vn -0.0222 0.0233 -0.9995
vn 0.0223 0.0157 -0.9996
vn 0.0114 0.0041 -0.9999
vn 0.0106 0.0027 -0.9999
vn 0.0075 0.0062 -1.0000
vn -0.0088 0.0162 -0.9998
vn -0.2142 0.0153 -0.9767
vn 0.0002 0.0001 -1.0000
vn 0.0002 0.0002 -1.0000
vn 0.0003 0.0002 -1.0000
vn 0.0001 0.0005 -1.0000
vn 0.0005 0.0002 -1.0000
vn -0.0005 0.0011 -1.0000
vn -0.0002 0.0008 -1.0000
vn 0.0142 -0.0380 -0.9992
vn 0.0722 -0.1869 -0.9797
vn 0.0608 -0.1307 -0.9896
vn 0.0382 -0.0195 -0.9991
vn 0.0339 -0.0242 -0.9991
vn 0.0041 -0.0390 -0.9992
vn 0.0008 -0.0305 -0.9995
vn 0.0015 -0.0283 -0.9996
vn 0.0053 -0.0180 -0.9998
vn 0.0058 -0.0178 -0.9998
vn 0.0058 -0.0179 -0.9998
usemtl GravelMat.001
s 1
f 1/1/1 3/2/2 2/3/1
f 3/2/2 1/1/1 4/4/3
f 3/2/2 4/4/3 5/5/4
f 4/4/3 6/6/5 5/5/4
f 5/5/4 7/7/6 3/2/2
f 4/4/3 8/8/7 6/6/5
f 7/7/6 9/9/8 3/2/2
f 9/9/8 10/10/9 3/2/2
f 10/10/9 11/11/10 3/2/2
f 11/11/10 12/12/11 3/2/2
f 4/4/3 13/13/12 8/8/7
f 4/4/3 14/14/13 13/13/12
f 4/4/3 15/15/14 14/14/13
f 4/4/3 16/16/15 15/15/14
f 4/4/3 17/17/16 16/16/15
f 17/17/16 4/4/3 18/18/17
f 19/19/18 17/17/16 18/18/17
f 18/18/17 20/20/19 19/19/18
f 21/21/20 23/22/21 22/23/22
f 22/23/22 24/24/23 21/21/20
f 24/24/23 25/25/24 21/21/20
f 25/25/24 24/24/23 26/26/25
f 26/26/25 24/24/23 27/27/26
f 27/27/26 24/24/23 28/28/27
f 28/28/27 24/24/23 29/29/28
f 24/24/23 30/30/29 29/29/28
f 31/31/30 28/28/27 29/29/28
f 28/28/27 31/31/30 32/32/31
f 31/31/30 33/33/32 32/32/31
f 31/31/30 34/34/19 33/33/32
f 33/33/32 34/34/19 35/35/32
f 33/33/32 35/35/32 36/36/19
f 33/33/32 36/36/19 37/37/33
f 36/36/19 38/38/34 37/37/33
f 38/38/34 36/36/19 39/39/1
f 36/36/19 40/40/1 39/39/1
f 38/38/34 41/41/35 37/37/33
f 41/41/35 42/42/36 37/37/33
f 43/43/37 45/44/38 44/45/39
f 44/45/39 46/46/40 43/43/37
f 43/43/37 46/46/40 47/47/41
f 43/43/37 47/47/41 48/48/42
f 48/48/42 49/49/43 43/43/37
f 50/50/44 49/49/43 48/48/42
f 50/50/44 51/51/45 49/49/43
f 52/52/46 49/49/43 51/51/45
f 52/52/46 51/51/45 53/53/47
