# Blender v3.1.2 OBJ File: 'track.blend'
# www.blender.org
mtllib Scene.697.mtl
o _1WALL_small01_05_SUB0_Scene.697
v -20243.808594 37709.160156 -413.304901
v -20253.080078 38126.031250 -411.941284
v -20270.580078 38125.390625 -313.772614
v -20261.310547 37708.800781 -315.135895
v -20231.910156 38126.058594 -241.942001
v -20231.560547 38126.652344 -410.410034
v -20222.650391 37709.609375 -243.304993
v -20222.289062 37709.781250 -411.773499
v -20224.419922 37709.570312 -413.304901
v -20233.689453 38126.457031 -411.941284
v -20261.310547 37708.800781 -243.304901
v -20270.570312 38125.210938 -241.941910
v -20262.240234 38526.488281 -409.951416
v -20279.718750 38525.492188 -311.784210
v -20241.050781 38525.949219 -239.954407
v -20240.718750 38527.140625 -408.419525
v -20242.839844 38526.941406 -409.951294
v -20279.710938 38525.046875 -239.954590
v -20271.710938 38926.722656 -407.092010
v -20289.191406 38925.531250 -308.926117
v -20250.519531 38925.898438 -237.097000
v -20250.199219 38927.371094 -405.559937
v -20252.320312 38927.179688 -407.091919
v -20289.179688 38924.980469 -237.097305
v -20281.351562 39326.839844 -403.783813
v -20298.839844 39325.562500 -305.618591
v -20260.160156 39325.878906 -233.789902
v -20259.839844 39327.500000 -402.251373
v -20261.958984 39327.308594 -403.783600
v -20298.820312 39324.953125 -233.790298
v -20291.089844 39726.910156 -400.204712
v -20308.580078 39725.589844 -302.040009
v -20269.900391 39725.878906 -230.211594
v -20269.580078 39727.578125 -398.672302
v -20271.699219 39727.390625 -400.204529
v -20308.560547 39724.929688 -230.211990
v -20300.900391 40126.960938 -396.462097
v -20318.380859 40125.609375 -298.297607
v -20279.699219 40125.878906 -226.469299
v -20279.378906 40127.621094 -394.929504
v -20281.509766 40127.429688 -396.461792
v -20318.359375 40124.929688 -226.469803
v -20310.718750 40526.972656 -392.671814
v -20328.199219 40525.609375 -294.507294
v -20289.519531 40525.878906 -222.679001
v -20289.199219 40527.628906 -391.139191
v -20291.318359 40527.441406 -392.671478
v -20328.179688 40524.929688 -222.679489
v -20320.519531 40926.960938 -388.906586
v -20338.009766 40925.621094 -290.742004
v -20299.330078 40925.898438 -218.913605
v -20299.009766 40927.621094 -387.374084
v -20301.130859 40927.429688 -388.906281
v -20337.990234 40924.953125 -218.914108
v -20330.291016 41326.910156 -385.263702
v -20347.771484 41325.628906 -287.098602
v -20309.099609 41325.941406 -215.269897
v -20308.779297 41327.570312 -383.731293
v -20310.898438 41327.378906 -385.263397
v -20347.759766 41325.000000 -215.270309
v -20339.931641 41726.769531 -381.938293
v -20357.419922 41725.628906 -283.772125
v -20318.750000 41726.019531 -211.942795
v -20318.419922 41727.421875 -380.406189
v -20320.539062 41727.230469 -381.938110
v -20357.410156 41725.101562 -211.943100
vt 2.977629 2.001424
vt -1.021971 1.108994
vt -1.021971 2.001424
vt 2.977629 1.108993
vt -1.021971 0.580997
vt 2.977630 0.580997
vt -1.021971 1.993160
vt 2.977629 1.993160
vt 2.977629 1.899918
vt -1.021971 1.695245
vt 2.977629 1.695245
vt -1.021971 1.899918
vt 2.977629 1.688305
vt -1.021971 1.688305
vt 2.977629 0.755510
vt -1.021971 0.755511
vt 2.977629 2.001424
vt -1.021971 1.108994
vt -1.021971 2.001424
vt 2.977629 1.108993
vt -1.021971 0.580997
vt 2.977629 1.993160
vt -1.021971 1.993160
vt 2.977630 0.580997
vt 2.977629 1.899918
vt -1.021971 1.695245
vt 2.977629 1.695245
vt -1.021971 1.899918
vt 2.977629 1.688305
vt -1.021971 1.688305
vt 2.977629 0.755510
vt -1.021971 0.755511
vt 2.977629 2.001424
vt -1.021971 1.108994
vt -1.021971 2.001424
vt 2.977629 1.108993
vt -1.021971 0.580997
vt 2.977629 1.993160
vt -1.021971 1.993160
vt 2.977630 0.580997
vt 2.977629 1.899918
vt -1.021971 1.695245
vt 2.977629 1.695245
vt -1.021971 1.899918
vt 2.977629 1.688305
vt -1.021971 1.688305
vt 2.977629 0.755510
vt -1.021971 0.755511
vt 2.977629 2.001424
vt -1.021971 1.108994
vt -1.021971 2.001424
vt 2.977629 1.108993
vt -1.021971 0.580997
vt 2.977629 1.993160
vt -1.021971 1.993160
vt 2.977630 0.580997
vt 2.977629 1.899918
vt -1.021971 1.695245
vt 2.977629 1.695245
vt -1.021971 1.899918
vt 2.977629 1.688305
vt -1.021971 1.688305
vt 2.977629 0.755510
vt -1.021971 0.755511
vt 2.977629 2.001424
vt -1.021971 1.108994
vt -1.021971 2.001424
vt 2.977629 1.108993
vt -1.021971 0.580997
vt 2.977629 1.993160
vt -1.021971 1.993160
vt 2.977630 0.580997
vt 2.977629 1.695245
vt -1.021971 1.899918
vt -1.021971 1.695245
vt 2.977629 1.899918
vt 2.977629 1.688305
vt -1.021971 1.688305
vt 2.977629 0.755510
vt -1.021971 0.755511
vt 2.977629 2.001424
vt -1.021971 1.108994
vt -1.021971 2.001424
vt 2.977629 1.108993
vt -1.021971 0.580997
vt 2.977629 1.993160
vt -1.021971 1.993160
vt 2.977630 0.580997
vt 2.977629 1.899918
vt -1.021971 1.695245
vt 2.977629 1.695245
vt -1.021971 1.899918
vt 2.977629 1.688305
vt -1.021971 1.688305
vt 2.977629 0.755510
vt -1.021971 0.755511
vt 2.977629 2.001424
vt -1.021971 1.108994
vt -1.021971 2.001424
vt 2.977629 1.108993
vt -1.021971 0.580997
vt 2.977629 1.993160
vt -1.021971 1.993160
vt 2.977630 0.580997
vt 2.977629 1.899918
vt -1.021971 1.695245
vt 2.977629 1.695245
vt -1.021971 1.899918
vt 2.977629 1.688305
vt -1.021971 1.688305
vt 2.977629 0.755510
vt -1.021971 0.755511
vt 2.977629 2.001424
vt -1.021971 1.108994
vt -1.021971 2.001424
vt 2.977629 1.108993
vt -1.021971 0.580997
vt 2.977629 1.993160
vt -1.021971 1.993160
vt 2.977630 0.580997
vt 2.977629 1.695245
vt -1.021971 1.899918
vt -1.021971 1.695245
vt 2.977629 1.899918
vt 2.977629 1.688305
vt -1.021971 1.688305
vt 2.977629 0.755510
vt -1.021971 0.755511
vt 2.977629 2.001424
vt -1.021971 1.108994
vt -1.021971 2.001424
vt 2.977629 1.108993
vt -1.021971 0.580997
vt 2.977629 1.993160
vt -1.021971 1.993160
vt 2.977630 0.580997
vt 2.977629 1.899918
vt -1.021971 1.695245
vt 2.977629 1.695245
vt -1.021971 1.899918
vt 2.977629 1.688305
vt -1.021971 1.688305
vt 2.977629 0.755510
vt -1.021971 0.755511
vt 2.977629 2.001424
vt -1.021971 1.108994
vt -1.021971 2.001424
vt 2.977629 1.108993
vt -1.021971 0.580997
vt 2.977629 1.993160
vt -1.021971 1.993160
vt 2.977630 0.580997
vt 2.977629 1.899918
vt -1.021971 1.695245
vt 2.977629 1.695245
vt -1.021971 1.899918
vt 2.977629 1.688305
vt -1.021971 1.688305
vt 2.977629 0.755510
vt -1.021971 0.755511
vn -0.9842 -0.0213 -0.1756
vn -0.9842 -0.0215 -0.1756
vn -0.9842 -0.0213 -0.1755
vn 0.9997 0.0225 0.0022
vn 0.9998 0.0222 0.0022
vn -0.0001 0.0033 -1.0000
vn -0.0001 0.0041 -1.0000
vn 0.5839 0.0156 -0.8117
vn 0.5837 0.0164 -0.8118
vn 0.5837 0.0165 -0.8118
vn 0.5839 0.0156 -0.8116
vn -0.9998 -0.0222 0.0000
vn -0.9997 -0.0225 0.0001
vn -0.9842 -0.0218 -0.1755
vn 0.9997 0.0233 0.0021
vn -0.0001 0.0061 -1.0000
vn 0.5835 0.0184 -0.8119
vn 0.5837 0.0185 -0.8118
vn -0.9997 -0.0233 -0.0000
vn -0.9842 -0.0222 -0.1755
vn 0.9997 0.0239 0.0021
vn -0.0002 0.0077 -1.0000
vn 0.5842 0.0202 -0.8114
vn -0.9997 -0.0239 -0.0000
vn -0.9842 -0.0223 -0.1756
vn 0.9997 0.0242 0.0021
vn -0.0002 0.0086 -1.0000
vn 0.5835 0.0211 -0.8119
vn 0.5834 0.0211 -0.8119
vn -0.9997 -0.0242 0.0001
vn -0.9842 -0.0224 -0.1757
vn -0.9842 -0.0224 -0.1756
vn 0.9997 0.0244 0.0021
vn -0.0002 0.0091 -1.0000
vn 0.5834 0.0217 -0.8119
vn -0.9997 -0.0244 0.0000
vn -0.9842 -0.0225 -0.1756
vn 0.9997 0.0245 0.0022
vn -0.0002 0.0094 -1.0000
vn 0.5838 0.0219 -0.8116
vn -0.9997 -0.0245 0.0001
vn 0.5839 0.0220 -0.8116
vn 0.5839 0.0220 -0.8115
vn -0.9997 -0.0245 0.0000
vn 0.9997 0.0244 0.0022
vn -0.0002 0.0093 -1.0000
vn 0.5842 0.0218 -0.8113
vn -0.0002 0.0087 -1.0000
vn 0.5833 0.0212 -0.8120
vn -0.9997 -0.0243 -0.0000
vn 0.9997 0.0241 0.0022
vn -0.0002 0.0083 -1.0000
vn 0.5845 0.0208 -0.8112
vn -0.9997 -0.0241 -0.0001
vn -0.9997 -0.0241 -0.0000
usemtl WallMat.001
s 1
f 1/1/1 3/2/2 2/3/2
f 3/2/2 1/1/1 4/4/3
f 5/5/4 7/6/5 6/7/4
f 8/8/5 6/7/4 7/6/5
f 1/9/6 10/10/7 9/11/6
f 10/10/7 1/9/6 2/12/7
f 8/13/8 10/10/9 6/14/10
f 10/10/9 8/13/8 9/11/11
f 11/15/12 3/2/13 4/4/12
f 3/2/13 11/15/12 12/16/13
f 2/17/2 14/18/14 13/19/14
f 14/18/14 2/17/2 3/20/2
f 15/21/15 6/22/4 16/23/15
f 6/22/4 15/21/15 5/24/4
f 2/25/7 17/26/16 10/27/7
f 17/26/16 2/25/7 13/28/16
f 6/29/10 17/26/17 16/30/18
f 17/26/17 6/29/10 10/27/9
f 12/31/13 14/18/19 3/20/13
f 14/18/19 12/31/13 18/32/19
f 13/33/14 20/34/20 19/35/20
f 20/34/20 13/33/14 14/36/14
f 21/37/21 16/38/15 22/39/21
f 16/38/15 21/37/21 15/40/15
f 13/41/16 23/42/22 17/43/16
f 23/42/22 13/41/16 19/44/22
f 16/45/18 23/42/23 22/46/23
f 23/42/23 16/45/18 17/43/17
f 18/47/19 20/34/24 14/36/19
f 20/34/24 18/47/19 24/48/24
f 19/49/20 26/50/25 25/51/25
f 26/50/25 19/49/20 20/52/20
f 27/53/26 22/54/21 28/55/26
f 22/54/21 27/53/26 21/56/21
f 19/57/22 29/58/27 23/59/22
f 29/58/27 19/57/22 25/60/27
f 22/61/23 29/58/28 28/62/29
f 29/58/28 22/61/23 23/59/23
f 24/63/24 26/50/30 20/52/24
f 26/50/30 24/63/24 30/64/30
f 25/65/25 32/66/31 31/67/32
f 32/66/31 25/65/25 26/68/25
f 33/69/33 28/70/26 34/71/33
f 28/70/26 33/69/33 27/72/26
f 29/73/27 31/74/34 35/75/34
f 31/74/34 29/73/27 25/76/27
f 28/77/29 35/75/35 34/78/35
f 35/75/35 28/77/29 29/73/28
f 30/79/30 32/66/36 26/68/30
f 32/66/36 30/79/30 36/80/36
f 31/81/32 38/82/37 37/83/37
f 38/82/37 31/81/32 32/84/31
f 39/85/38 34/86/33 40/87/38
f 34/86/33 39/85/38 33/88/33
f 31/89/34 41/90/39 35/91/34
f 41/90/39 31/89/34 37/92/39
f 34/93/35 41/90/40 40/94/40
f 41/90/40 34/93/35 35/91/35
f 36/95/36 38/82/41 32/84/36
f 38/82/41 36/95/36 42/96/41
f 37/97/37 44/98/37 43/99/37
f 44/98/37 37/97/37 38/100/37
f 45/101/38 40/102/38 46/103/38
f 40/102/38 45/101/38 39/104/38
f 37/105/39 47/106/39 41/107/39
f 47/106/39 37/105/39 43/108/39
f 40/109/40 47/106/42 46/110/43
f 47/106/42 40/109/40 41/107/40
f 42/111/41 44/98/44 38/100/41
f 44/98/44 42/111/41 48/112/44
f 43/113/37 50/114/31 49/115/31
f 50/114/31 43/113/37 44/116/37
f 51/117/45 46/118/38 52/119/33
f 46/118/38 51/117/45 45/120/38
f 47/121/39 49/122/46 53/123/46
f 49/122/46 47/121/39 43/124/39
f 46/125/43 53/123/47 52/126/47
f 53/123/47 46/125/43 47/121/42
f 48/127/44 50/114/44 44/116/44
f 50/114/44 48/127/44 54/128/44
f 49/129/31 56/130/32 55/131/32
f 56/130/32 49/129/31 50/132/31
f 57/133/26 52/134/33 58/135/26
f 52/134/33 57/133/26 51/136/45
f 49/137/46 59/138/48 53/139/46
f 59/138/48 49/137/46 55/140/48
f 52/141/47 59/138/49 58/142/49
f 59/138/49 52/141/47 53/139/47
f 54/143/44 56/130/50 50/132/44
f 56/130/50 54/143/44 60/144/50
f 55/145/32 62/146/25 61/147/25
f 62/146/25 55/145/32 56/148/32
f 63/149/51 58/150/26 64/151/51
f 58/150/26 63/149/51 57/152/26
f 55/153/48 65/154/52 59/155/48
f 65/154/52 55/153/52 61/156/52
f 58/157/49 65/154/53 64/158/53
f 65/154/53 58/157/49 59/155/49
f 60/159/50 62/146/54 56/148/50
f 62/146/55 60/159/55 66/160/55
