# Blender v3.1.2 OBJ File: 'track.blend'
# www.blender.org
mtllib Scene.419.mtl
o _0BUILDING_CORNER13_SUB2_Scene.419
v 601.205322 -64295.226562 -1105.618896
v 515.654968 -64677.929688 -1105.618896
v 515.654968 -64677.929688 -1005.618958
v 601.205322 -64295.226562 -1005.618958
v 686.755615 -63912.542969 -1105.618896
v 686.755615 -63912.542969 -1005.618958
v 768.875977 -63545.191406 -1105.618896
v 768.875977 -63545.191406 -1005.618958
v -50.890396 -63361.933594 -1105.618896
v -50.890396 -63361.933594 -1005.618958
v -138.155701 -63752.300781 -1005.618958
v -138.155701 -63752.300781 -1105.618896
v -225.420898 -64142.656250 -1005.618958
v -225.420898 -64142.656250 -1105.618896
v -312.686096 -64533.031250 -1005.618958
v -312.686096 -64533.031250 -1105.618896
v -399.951294 -64923.390625 -1005.618958
v -399.951294 -64923.390625 -1105.618896
v 245.271713 -64617.492188 -1105.618896
v 245.271713 -64617.492188 -1005.618958
v 149.431793 -65046.210938 -1105.618896
v 149.431793 -65046.210938 -1005.618958
v 599.102783 -64294.757812 -1105.618896
v 514.500732 -64676.109375 -1005.618958
v 514.500732 -64676.109375 -1105.618896
v 599.102783 -64294.757812 -1005.618958
v 684.653076 -63912.074219 -1105.618896
v 684.653076 -63912.074219 -1005.618958
v 766.773438 -63544.718750 -1105.618896
v 766.773438 -63544.718750 -1005.618958
v -136.053101 -63752.769531 -1005.618958
v -48.787880 -63362.402344 -1005.618958
v -48.787880 -63362.402344 -1105.618896
v -136.053101 -63752.769531 -1105.618896
v -223.318298 -64143.128906 -1005.618958
v -223.318298 -64143.128906 -1105.618896
v -310.583496 -64533.503906 -1005.618958
v -310.583496 -64533.503906 -1105.618896
v -398.132202 -64922.242188 -1005.618958
v -398.132202 -64922.242188 -1105.618896
v 244.117401 -64615.667969 -1105.618896
v 244.117401 -64615.667969 -1005.618958
v 148.277496 -65044.390625 -1105.618896
v 148.277496 -65044.390625 -1005.618958
v 475.458710 -64780.546875 -1005.618958
v 498.194794 -64678.851562 -1005.618958
v 498.194794 -64678.851562 -1105.618896
v 475.458710 -64780.546875 -1105.618896
v 428.138031 -64992.230469 -881.223877
v 428.138031 -64992.230469 -781.223938
v 404.640289 -65097.339844 -781.223938
v 404.640289 -65097.339844 -881.223877
v 146.516006 -65039.640625 -781.223938
v 146.516006 -65039.640625 -881.223877
v 496.509613 -64678.472656 -1105.618896
v 496.509613 -64678.472656 -1005.618958
v 473.773376 -64780.183594 -1005.618958
v 473.773376 -64780.183594 -1105.618896
v 426.452698 -64991.851562 -881.223877
v 426.452698 -64991.851562 -781.223938
v 403.715088 -65095.890625 -781.223938
v 403.715088 -65095.890625 -881.223877
v 146.892700 -65037.957031 -781.223938
v 146.892700 -65037.957031 -881.223877
v 475.458710 -64780.546875 -563.224792
v 498.194794 -64678.851562 -563.224792
v 498.194794 -64678.851562 -663.224792
v 475.458710 -64780.546875 -663.224792
v 428.138031 -64992.230469 -438.829529
v 428.138031 -64992.230469 -338.829407
v 404.640289 -65097.339844 -338.829498
v 404.640289 -65097.339844 -438.829529
v 146.516006 -65039.640625 -338.829498
v 146.516006 -65039.640625 -438.829529
v 496.509613 -64678.472656 -663.224792
v 496.509613 -64678.472656 -563.224792
v 473.773376 -64780.183594 -563.224792
v 473.773376 -64780.183594 -663.224792
v 426.452698 -64991.851562 -438.829529
v 426.452698 -64991.851562 -338.829407
v 403.715088 -65095.890625 -338.829498
v 403.715088 -65095.890625 -438.829529
v 146.892700 -65037.957031 -338.829498
v 146.892700 -65037.957031 -438.829529
v 309.799896 -64965.777344 -438.829529
v 309.799896 -64965.777344 -338.829407
v 357.120605 -64754.101562 -563.224792
v 357.120605 -64754.101562 -663.224792
v 308.114594 -64965.410156 -438.829529
v 355.435303 -64753.718750 -663.224792
v 355.435303 -64753.718750 -563.224792
v 308.114594 -64965.410156 -338.829407
v 299.375397 -64963.453125 -799.483215
v 346.696106 -64751.769531 -575.087769
v 346.696106 -64751.769531 -675.087769
v 299.375397 -64963.453125 -899.483215
v 345.010803 -64751.390625 -675.087769
v 345.010803 -64751.390625 -575.087769
v 297.690186 -64963.066406 -799.483215
v 297.690186 -64963.066406 -899.483215
v 299.375397 -64963.453125 -354.696106
v 346.696106 -64751.769531 -130.300705
v 346.696106 -64751.769531 -230.300690
v 299.375397 -64963.453125 -454.696075
v 345.010803 -64751.390625 -230.300690
v 345.010803 -64751.390625 -130.300705
v 297.690186 -64963.066406 -354.696106
v 297.690186 -64963.066406 -454.696075
v 310.541016 -64965.949219 -881.223877
v 310.541016 -64965.949219 -781.223938
v 357.861694 -64754.273438 -1005.618958
v 357.861694 -64754.273438 -1105.618896
v 380.597900 -64652.558594 -1105.618896
v 380.597900 -64652.558594 -1005.618958
v 378.912598 -64652.191406 -1105.618896
v 378.912598 -64652.191406 -1005.618958
v 356.176483 -64753.886719 -1005.618958
v 356.176483 -64753.886719 -1105.618896
v 308.855804 -64965.570312 -881.223877
v 308.855804 -64965.570312 -781.223938
v 479.879517 -65266.386719 -103.598701
v 479.879517 -65266.386719 -203.598602
v 121.133102 -65186.199219 -103.598701
v 121.133102 -65186.199219 -203.598602
v 121.509804 -65184.523438 -103.598701
v 121.509804 -65184.523438 -203.598602
v 478.954224 -65264.941406 -203.598602
v 478.954224 -65264.941406 -103.598701
v 606.650879 -64699.296875 -203.598602
v 606.650879 -64699.296875 -103.598595
v 605.192871 -64700.218750 -103.598595
v 605.192871 -64700.218750 -203.598602
v 513.110474 -64679.640625 -203.598602
v 513.110474 -64679.640625 -103.598595
v 514.568604 -64678.710938 -203.598602
v 514.568604 -64678.710938 -103.598595
vt 36.429989 1.898396
vt 24.388149 1.350859
vt 24.388130 1.898391
vt 36.430000 1.350862
vt 48.471870 1.898397
vt 48.471870 1.350864
vt 60.030972 1.898398
vt 60.030972 1.350862
vt -64.029930 1.898368
vt -51.746651 1.350835
vt -64.029930 1.350834
vt -51.746651 1.898369
vt -39.463379 1.350837
vt -39.463379 1.898371
vt -27.180120 1.350840
vt -27.180130 1.898373
vt -14.896870 1.350845
vt -14.896870 1.898377
vt 15.880240 1.898388
vt 15.880240 1.350855
vt 2.390031 1.898383
vt 2.390045 1.350851
vt 36.429989 1.898396
vt 24.388130 1.898391
vt 24.388149 1.350859
vt 36.430000 1.350862
vt 48.471870 1.898397
vt 48.471870 1.350864
vt 60.030972 1.898398
vt 60.030972 1.350862
vt -51.746651 1.350835
vt -64.029930 1.898368
vt -64.029930 1.350834
vt -51.746651 1.898369
vt -39.463379 1.350837
vt -39.463379 1.898371
vt -27.180120 1.350840
vt -27.180130 1.898373
vt -14.896870 1.350845
vt -14.896870 1.898377
vt 15.880240 1.898388
vt 15.880240 1.350855
vt 2.390031 1.898383
vt 2.390045 1.350851
vt 8.445578 1.350861
vt 11.502260 1.898396
vt 11.502280 1.350862
vt 8.445555 1.898394
vt 1.452638 1.898392
vt 1.452657 1.350859
vt -1.567226 1.350859
vt -1.567243 1.898391
vt -8.983231 1.350857
vt -8.983243 1.898389
vt 11.502260 1.898396
vt 8.445578 1.350861
vt 11.502280 1.350862
vt 8.445555 1.898394
vt 1.452638 1.898392
vt 1.452657 1.350859
vt -1.567226 1.350859
vt -1.567243 1.898391
vt -8.983231 1.350857
vt -8.983243 1.898389
vt 8.445578 1.350861
vt 11.502260 1.898396
vt 11.502280 1.350862
vt 8.445555 1.898394
vt 1.452638 1.898392
vt 1.452657 1.350859
vt -1.567226 1.350859
vt -1.567243 1.898391
vt -8.983231 1.350857
vt -8.983243 1.898389
vt 11.502260 1.898396
vt 8.445578 1.350861
vt 11.502280 1.350862
vt 8.445555 1.898394
vt 1.452638 1.898392
vt 1.452657 1.350859
vt -1.567226 1.350859
vt -1.567243 1.898391
vt -8.983243 1.898389
vt -8.983231 1.350857
vt 1.452638 1.898392
vt 8.445578 1.350861
vt 1.452657 1.350859
vt 8.445555 1.898394
vt 1.452638 1.898392
vt 8.445578 1.350861
vt 8.445555 1.898394
vt 1.452657 1.350859
vt 1.452638 1.898392
vt 8.445578 1.350861
vt 8.445555 1.898394
vt 1.452657 1.350859
vt 8.445578 1.350861
vt 1.452638 1.898392
vt 8.445555 1.898394
vt 1.452657 1.350859
vt 1.452638 1.898392
vt 8.445578 1.350861
vt 8.445555 1.898394
vt 1.452657 1.350859
vt 8.445578 1.350861
vt 1.452638 1.898392
vt 8.445555 1.898394
vt 1.452657 1.350859
vt 1.452638 1.898392
vt 8.445578 1.350861
vt 1.452657 1.350859
vt 8.445555 1.898394
vt 11.502260 1.898396
vt 11.502280 1.350862
vt 11.502260 1.898396
vt 8.445578 1.350861
vt 11.502280 1.350862
vt 8.445555 1.898394
vt 1.452638 1.898392
vt 1.452657 1.350859
vt 3.672467 1.350859
vt -6.408228 1.350857
vt 3.672450 1.898391
vt -6.408240 1.898389
vt -6.408228 1.350857
vt 3.672450 1.898391
vt -6.408240 1.898389
vt 3.672467 1.350859
vt 18.236601 1.898394
vt 18.236620 1.350861
vt 18.217951 1.350861
vt 18.217930 1.898394
vt 20.814051 1.898395
vt 20.814070 1.350861
vt 20.824100 1.898395
vt 20.824120 1.350861
vn 0.9759 -0.2182 0.0000
vn -0.9759 0.2182 0.0000
vn -0.2181 -0.9759 0.0000
vn -0.2182 -0.9759 0.0000
vn -0.9761 0.2174 0.0000
vn -0.9763 0.2166 0.0000
vn 0.9757 -0.2189 0.0000
vn 0.9758 -0.2189 0.0000
vn 0.9756 -0.2197 0.0000
vn 0.9757 -0.2191 0.0000
vn 0.2182 0.9759 0.0000
vn -0.9763 0.2163 0.0000
vn -0.9766 0.2150 0.0000
vn -0.9769 0.2135 0.0000
vn 0.2200 0.9755 0.0000
vn 0.9759 -0.2181 0.0000
vn 0.2195 0.9756 0.0000
usemtl GitterMat.001
s 1
f 1/1/1 3/2/1 2/3/1
f 3/2/1 1/1/1 4/4/1
f 5/5/1 4/4/1 1/1/1
f 4/4/1 5/5/1 6/6/1
f 7/7/1 6/6/1 5/5/1
f 6/6/1 7/7/1 8/8/1
f 9/9/2 11/10/2 10/11/2
f 9/9/2 12/12/2 11/10/2
f 12/12/2 13/13/2 11/10/2
f 12/12/2 14/14/2 13/13/2
f 14/14/2 15/15/2 13/13/2
f 14/14/2 16/16/2 15/15/2
f 16/16/2 17/17/2 15/15/2
f 16/16/2 18/18/2 17/17/2
f 19/19/3 2/3/3 3/2/3
f 19/19/3 3/2/3 20/20/3
f 21/21/1 19/19/1 20/20/1
f 21/21/1 20/20/1 22/22/1
f 21/21/4 17/17/4 18/18/4
f 17/17/4 21/21/4 22/22/4
f 23/23/5 25/24/6 24/25/6
f 23/23/5 24/25/6 26/26/5
f 27/27/2 23/23/5 26/26/5
f 27/27/2 26/26/5 28/28/2
f 29/29/2 27/27/2 28/28/2
f 29/29/2 28/28/2 30/30/2
f 31/31/1 33/32/1 32/33/1
f 33/32/1 31/31/1 34/34/1
f 35/35/1 34/34/1 31/31/1
f 34/34/1 35/35/1 36/36/1
f 37/37/7 36/36/1 35/35/1
f 36/36/1 37/37/7 38/38/8
f 39/39/9 38/38/8 37/37/7
f 38/38/10 39/39/9 40/40/9
f 41/41/11 24/25/11 25/24/11
f 24/25/11 41/41/11 42/42/11
f 43/43/2 42/42/2 41/41/2
f 42/42/2 43/43/2 44/44/2
f 43/43/11 40/40/11 39/39/11
f 43/43/11 39/39/11 44/44/11
f 45/45/1 47/46/1 46/47/1
f 47/46/1 45/45/1 48/48/1
f 45/45/1 49/49/1 48/48/1
f 49/49/1 45/45/1 50/50/1
f 51/51/1 49/49/1 50/50/1
f 49/49/1 51/51/1 52/52/1
f 51/51/3 53/53/3 52/52/3
f 54/54/3 52/52/3 53/53/3
f 55/55/2 57/56/2 56/57/2
f 55/55/2 58/58/2 57/56/2
f 59/59/12 57/56/2 58/58/2
f 57/56/2 59/59/12 60/60/13
f 59/59/12 61/61/14 60/60/13
f 59/59/12 62/62/14 61/61/14
f 63/63/15 62/62/15 64/64/15
f 62/62/15 63/63/15 61/61/15
f 65/65/1 67/66/1 66/67/1
f 67/66/1 65/65/1 68/68/1
f 65/65/1 69/69/1 68/68/1
f 69/69/1 65/65/1 70/70/1
f 71/71/1 69/69/1 70/70/1
f 69/69/1 71/71/1 72/72/1
f 71/71/3 73/73/3 72/72/3
f 74/74/3 72/72/3 73/73/3
f 75/75/2 77/76/2 76/77/2
f 75/75/2 78/78/2 77/76/2
f 79/79/12 77/76/2 78/78/2
f 77/76/2 79/79/12 80/80/13
f 79/79/12 81/81/14 80/80/13
f 79/79/12 82/82/14 81/81/14
f 82/82/15 84/83/15 83/84/15
f 82/82/15 83/84/15 81/81/15
f 85/85/1 87/86/1 86/87/1
f 87/86/1 85/85/1 88/88/1
f 89/89/2 91/90/2 90/91/2
f 91/90/2 89/89/2 92/92/2
f 93/93/1 95/94/1 94/95/1
f 95/94/1 93/93/1 96/96/1
f 97/97/2 99/98/2 98/99/2
f 99/98/2 97/97/2 100/100/2
f 101/101/1 103/102/1 102/103/1
f 103/102/1 101/101/1 104/104/1
f 105/105/2 107/106/2 106/107/2
f 107/106/2 105/105/2 108/108/2
f 109/109/1 111/110/1 110/111/1
f 111/110/1 109/109/1 112/112/1
f 113/113/16 111/110/1 112/112/1
f 111/110/1 113/113/16 114/114/16
f 115/115/2 117/116/2 116/117/2
f 115/115/2 118/118/2 117/116/2
f 119/119/2 117/116/2 118/118/2
f 117/116/2 119/119/2 120/120/2
f 121/121/3 123/122/3 122/123/3
f 124/124/3 122/123/3 123/122/3
f 125/125/17 127/126/17 126/127/17
f 127/126/17 125/125/17 128/128/17
f 129/129/1 121/121/1 122/123/1
f 121/121/1 129/129/1 130/130/1
f 128/128/2 131/131/2 127/126/2
f 132/132/2 127/126/2 131/131/2
f 133/133/3 132/132/3 134/134/3
f 132/132/3 131/131/3 134/134/3
f 135/135/11 130/130/11 129/129/11
f 130/130/11 135/135/11 136/136/11
