# Blender v3.1.2 OBJ File: 'track.blend'
# www.blender.org
mtllib Scene.650.mtl
o _1WALL_03_EMIRATES_001_SUB2_Scene.650
v 21915.250000 70204.421875 -240.894196
v 21915.601562 70203.851562 -409.362427
v 21906.441406 69800.648438 -407.660278
v 21906.089844 69801.203125 -239.192017
v 21924.298828 70604.335938 -242.657394
v 21924.650391 70603.718750 -411.125519
v 21932.800781 71004.453125 -244.511108
v 21933.150391 71003.804688 -412.979065
v 21924.650391 70603.867188 -411.126190
v 21924.298828 70604.492188 -242.658096
v 21940.259766 71404.437500 -246.427994
v 21940.601562 71403.750000 -414.895905
v 21946.201172 71804.617188 -248.396484
v 21946.539062 71803.921875 -416.864288
v 21940.601562 71403.914062 -414.896576
v 21940.259766 71404.578125 -246.428711
v 21950.500000 72204.687500 -250.397797
v 21950.839844 72203.992188 -418.865479
v 21952.919922 72604.906250 -252.425201
v 21953.259766 72604.210938 -420.892914
v 21950.849609 72204.132812 -418.866302
v 21950.500000 72204.828125 -250.398499
v 21953.089844 73005.015625 -254.470795
v 21953.429688 73004.304688 -422.938477
v 21951.130859 73405.257812 -256.527588
v 21951.468750 73404.539062 -424.995270
v 21953.429688 73004.453125 -422.939301
v 21953.089844 73005.156250 -254.471588
v 21947.089844 73805.328125 -258.585693
v 21947.429688 73804.617188 -427.053406
v 21941.220703 74205.500000 -260.612000
v 21941.560547 74204.812500 -429.079834
v 21947.429688 73804.773438 -427.054199
v 21947.089844 73805.484375 -258.586487
v 21933.830078 74605.500000 -262.595306
v 21934.169922 74604.828125 -431.063232
v 21924.871094 75005.257812 -263.669617
v 21925.179688 75005.765625 -432.138000
v 21934.169922 74604.984375 -431.063904
v 21933.830078 74605.648438 -262.596008
v 21914.281250 75404.953125 -261.404785
v 21914.560547 75406.312500 -429.868713
v 21901.929688 75805.328125 -259.436981
v 21902.250000 75805.570312 -427.906311
v 21914.269531 75405.101562 -261.403717
v 21914.560547 75406.460938 -429.867615
v 21887.730469 76206.179688 -263.093994
v 21888.179688 76202.914062 -431.530396
v 21871.628906 76606.328125 -273.642700
v 21872.128906 76601.789062 -442.050598
v 21888.169922 76203.054688 -431.532990
v 21887.730469 76206.343750 -263.096588
v 21853.529297 77005.156250 -282.548676
v 21853.910156 77003.195312 -451.006805
v 21833.240234 77404.039062 -283.451019
v 21833.470703 77404.953125 -451.917877
v 21853.519531 77005.320312 -282.550995
v 21853.900391 77003.351562 -451.009186
v 21810.580078 77803.359375 -280.636322
v 21810.781250 77804.773438 -449.099670
v 21785.339844 78203.281250 -279.004181
v 21785.640625 78203.195312 -447.473480
v 21810.570312 77803.500000 -280.635101
v 21810.769531 77804.921875 -449.098572
v 21758.490234 78608.039062 -279.440186
v 21758.820312 78607.515625 -447.908203
vt 0.002252 1.818904
vt 0.119739 1.860382
vt 0.002252 1.860382
vt 0.119739 1.818904
vt 0.048386 1.814090
vt 0.109976 1.835834
vt 0.048386 1.835834
vt 0.109976 1.814090
vt 0.002252 1.818904
vt 0.119739 1.860382
vt 0.002252 1.860382
vt 0.119739 1.818904
vt 0.048386 1.814090
vt 0.109976 1.835834
vt 0.048386 1.835834
vt 0.109976 1.814090
vt 0.002252 1.818904
vt 0.119739 1.860382
vt 0.002252 1.860382
vt 0.119739 1.818904
vt 0.048386 1.814090
vt 0.109976 1.835834
vt 0.048386 1.835834
vt 0.109976 1.814090
vt 0.002252 1.818904
vt 0.119739 1.860382
vt 0.002252 1.860382
vt 0.119739 1.818904
vt 0.048386 1.814090
vt 0.109976 1.835834
vt 0.048386 1.835834
vt 0.109976 1.814090
vt 0.002252 1.818904
vt 0.119739 1.860382
vt 0.002252 1.860382
vt 0.119739 1.818904
vt 0.048386 1.814090
vt 0.109976 1.835834
vt 0.048386 1.835834
vt 0.109976 1.814090
vt 0.002252 1.818904
vt 0.119739 1.860382
vt 0.002252 1.860382
vt 0.119739 1.818904
vt 0.048386 1.814090
vt 0.109976 1.835834
vt 0.048386 1.835834
vt 0.109976 1.814090
vt 0.002252 1.818904
vt 0.119739 1.860382
vt 0.002252 1.860382
vt 0.119739 1.818904
vt 0.048386 1.814090
vt 0.109976 1.814090
vt 0.048386 1.835834
vt 0.109976 1.835834
vt 0.002252 1.818904
vt 0.119739 1.818904
vt 0.002252 1.860382
vt 0.119739 1.860382
vt 0.048386 1.814090
vt 0.109976 1.835834
vt 0.048386 1.835834
vt 0.109976 1.814090
vt 0.002252 1.818904
vt 0.119739 1.860382
vt 0.002252 1.860382
vt 0.119739 1.818904
vt 0.048386 1.814090
vt 0.109976 1.835834
vt 0.048386 1.835834
vt 0.109976 1.814090
vt 0.002252 1.818904
vt 0.119739 1.818904
vt 0.002252 1.860382
vt 0.119739 1.860382
vt 0.048386 1.814090
vt 0.109976 1.814090
vt 0.048386 1.835834
vt 0.109976 1.835834
vt 0.002252 1.818904
vt 0.119739 1.818904
vt 0.002252 1.860382
vt 0.119739 1.860382
vt 0.048386 1.814090
vt 0.109976 1.814090
vt 0.048386 1.835834
vt 0.109976 1.835834
vn 0.9997 -0.0227 0.0022
vn 0.9997 -0.0226 0.0022
vn 0.9998 -0.0199 0.0022
vn 0.9998 -0.0212 0.0022
vn 0.9998 -0.0199 0.0021
vn 0.9998 -0.0186 0.0021
vn 0.9999 -0.0128 0.0021
vn 0.9999 -0.0148 0.0021
vn 0.9999 -0.0149 0.0021
vn 0.9999 -0.0107 0.0021
vn 1.0000 -0.0032 0.0020
vn 1.0000 -0.0060 0.0021
vn 1.0000 -0.0004 0.0020
vn 1.0000 0.0075 0.0020
vn 1.0000 0.0049 0.0020
vn 0.9999 0.0101 0.0020
vn 0.9999 0.0166 0.0019
vn 0.9999 0.0147 0.0020
vn 0.9998 0.0185 0.0019
vn 0.9997 0.0245 0.0019
vn 0.9997 0.0224 0.0019
vn 0.9996 0.0265 0.0019
vn 0.9994 0.0331 0.0019
vn 0.9995 0.0308 0.0020
vn 0.9994 0.0331 0.0020
vn 0.9994 0.0354 0.0020
vn 0.9991 0.0428 0.0018
vn 0.9992 0.0403 0.0018
vn 0.9990 0.0454 0.0017
vn 0.9986 0.0537 0.0017
vn 0.9987 0.0508 0.0017
vn 0.9984 0.0566 0.0017
vn 0.9979 0.0646 0.0017
vn 0.9980 0.0630 0.0017
vn 0.9978 0.0662 0.0018
usemtl EnvironmentMat.001
s 1
f 1/1/1 3/2/1 2/3/1
f 3/2/1 1/1/1 4/4/1
f 5/5/2 2/6/1 6/7/2
f 2/6/1 5/5/2 1/8/1
f 7/9/3 9/10/4 8/11/5
f 9/10/4 7/9/3 10/12/4
f 11/13/6 8/14/5 12/15/6
f 8/14/5 11/13/6 7/16/3
f 13/17/7 15/18/8 14/19/7
f 15/18/8 13/17/7 16/20/9
f 17/21/10 14/22/7 18/23/10
f 14/22/7 17/21/10 13/24/7
f 19/25/11 21/26/12 20/27/11
f 21/26/12 19/25/11 22/28/12
f 23/29/13 20/30/11 24/31/13
f 20/30/11 23/29/13 19/32/11
f 25/33/14 27/34/15 26/35/14
f 27/34/15 25/33/14 28/36/15
f 29/37/16 26/38/14 30/39/16
f 26/38/14 29/37/16 25/40/14
f 31/41/17 33/42/18 32/43/17
f 33/42/18 31/41/17 34/44/18
f 35/45/19 32/46/17 36/47/19
f 32/46/17 35/45/19 31/48/17
f 37/49/20 39/50/21 38/51/20
f 39/50/21 37/49/20 40/52/21
f 41/53/22 37/54/20 42/55/22
f 38/56/20 42/55/22 37/54/20
f 43/57/23 45/58/24 44/59/25
f 46/60/24 44/59/25 45/58/24
f 47/61/26 44/62/25 48/63/26
f 44/62/25 47/61/26 43/64/23
f 49/65/27 51/66/28 50/67/27
f 51/66/28 49/65/27 52/68/28
f 53/69/29 50/70/27 54/71/29
f 50/70/27 53/69/29 49/72/27
f 55/73/30 57/74/31 56/75/30
f 58/76/31 56/75/30 57/74/31
f 59/77/32 55/78/30 60/79/32
f 56/80/30 60/79/32 55/78/30
f 61/81/33 63/82/34 62/83/33
f 64/84/34 62/83/33 63/82/34
f 65/85/35 61/86/33 66/87/35
f 62/88/33 66/87/35 61/86/33
