# Blender v3.1.2 OBJ File: 'track.blend'
# www.blender.org
mtllib Scene.401.mtl
o _0AD_SHELL_002_Scene.401
v -4484.039062 75013.078125 -721.111206
v -4485.182129 75015.585938 -623.170715
v -4721.480957 75401.648438 -653.485657
v -4720.338867 75399.148438 -751.426208
v -5057.155762 75742.710938 -666.557190
v -5056.013184 75740.218750 -764.497681
v -4879.362793 75573.718750 -757.961914
v -4880.504883 75576.218750 -660.021423
vt 0.374900 1.869985
vt 0.250817 1.842179
vt 0.374900 1.842179
vt 0.250817 1.869985
vt 0.250817 1.842179
vt 0.312859 1.869985
vt 0.250817 1.869985
vt 0.312859 1.842179
vt 0.374900 1.869985
vt 0.374900 1.842179
vn 0.8530 0.5218 -0.0034
vn 0.8005 0.5993 -0.0060
vn 0.7991 0.6012 -0.0060
vn 0.6861 0.7275 -0.0105
vn 0.7132 0.7009 -0.0096
vn 0.7132 0.7008 -0.0096
usemtl EnvironmentMat.001
s 1
f 1/1/1 3/2/2 2/3/1
f 3/2/2 1/1/1 4/4/3
f 5/5/4 7/6/5 6/7/4
f 7/6/5 5/5/4 8/8/6
f 8/8/6 4/9/3 7/6/5
f 4/9/3 8/8/6 3/10/2
