# Blender v3.1.2 OBJ File: 'track.blend'
# www.blender.org
mtllib Scene.667.mtl
o _1WALL_14_SUB0_Scene.667
v -22224.800781 33223.820312 -501.490204
v -22371.560547 32840.281250 -410.750000
v -22354.669922 32835.597656 -508.915619
v -22242.050781 33227.421875 -403.342590
v -22205.810547 33213.859375 -331.524811
v -22204.330078 33217.167969 -499.955811
v -22335.259766 32826.902344 -338.929199
v -22334.281250 32828.699219 -507.385315
v -22206.378906 33217.718750 -501.489197
v -22336.339844 32829.269531 -508.918518
v -22371.808594 32839.519531 -338.923492
v -22242.519531 33226.019531 -331.526703
v -22101.000000 33605.199219 -491.183197
v -22118.550781 33607.890625 -393.058899
v -22082.380859 33594.101562 -321.247284
v -22080.478516 33598.699219 -489.643097
v -22082.529297 33599.261719 -491.178314
v -22119.189453 33605.937500 -321.257294
v -21978.720703 33986.339844 -479.061523
v -21996.349609 33988.777344 -380.945099
v -21960.230469 33974.828125 -309.138702
v -21958.189453 33979.863281 -477.520813
v -21960.250000 33980.410156 -479.056213
v -21997.050781 33986.648438 -309.149109
v -21856.109375 34367.152344 -466.329010
v -21873.750000 34369.550781 -368.214020
v -21837.691406 34355.449219 -296.412292
v -21835.599609 34360.609375 -464.789673
v -21837.660156 34361.179688 -466.325104
v -21874.480469 34367.363281 -296.420013
v -21732.349609 34747.449219 -453.462585
v -21749.968750 34749.921875 -355.345215
v -21713.949219 34735.699219 -283.547913
v -21711.869141 34740.839844 -451.925995
v -21713.919922 34741.410156 -453.460968
v -21750.689453 34747.738281 -283.550995
v -21606.880859 35127.128906 -440.781891
v -21624.451172 35129.738281 -342.659821
v -21588.470703 35115.390625 -270.866791
v -21586.419922 35120.429688 -439.248596
v -21588.470703 35121.000000 -440.783203
v -21625.160156 35127.609375 -270.864105
v -21479.660156 35506.101562 -428.441284
v -21497.150391 35508.960938 -330.311401
v -21461.189453 35494.550781 -258.520111
v -21459.240234 35499.300781 -426.911224
v -21461.289062 35499.890625 -428.445496
v -21497.820312 35506.941406 -258.511810
v -21351.019531 35884.187500 -417.257324
v -21368.330078 35887.562500 -319.112610
v -21332.279297 35873.429688 -247.313690
v -21330.611328 35877.359375 -415.728912
v -21332.660156 35877.937500 -417.262604
v -21368.878906 35885.890625 -247.303009
v -21222.339844 36262.070312 -409.137299
v -21239.429688 36266.109375 -310.977875
v -21203.199219 36252.492188 -239.167816
v -21201.929688 36255.250000 -407.609711
v -21203.980469 36255.820312 -409.142487
v -21239.810547 36264.941406 -239.157394
v -21093.839844 36640.128906 -403.647003
v -21110.718750 36644.789062 -305.478699
v -21074.330078 36631.640625 -233.661697
v -21073.419922 36633.332031 -402.120392
v -21075.480469 36633.890625 -403.652008
v -21110.949219 36644.078125 -233.651489
v -20965.480469 37018.378906 -400.764099
v -20982.179688 37023.570312 -302.591492
v -20945.650391 37010.839844 -230.771301
v -20945.050781 37011.601562 -399.238312
v -20947.109375 37012.148438 -400.769104
v -20982.259766 37023.261719 -230.761292
v -20837.189453 37396.757812 -400.018982
v -20853.728516 37402.421875 -301.845490
v -20817.080078 37390.039062 -230.024506
v -20816.759766 37389.992188 -398.493591
v -20818.820312 37390.531250 -400.023987
v -20853.701172 37402.449219 -230.014496
v -20708.859375 37775.257812 -401.156525
v -20725.269531 37781.296875 -302.984009
v -20688.529297 37769.179688 -231.163818
v -20688.429688 37768.492188 -399.631897
v -20690.500000 37769.031250 -401.161469
v -20725.150391 37781.609375 -231.153793
v -20580.009766 38154.167969 -403.335388
v -20596.429688 38160.199219 -305.162994
v -20559.730469 38147.949219 -233.341904
v -20559.599609 38147.351562 -401.810516
v -20561.660156 38147.890625 -403.340088
v -20596.320312 38160.460938 -233.332489
v -20447.000000 38543.160156 -405.326691
v -20463.529297 38548.859375 -307.153595
v -20426.960938 38536.238281 -235.331696
v -20426.609375 38536.281250 -403.801666
v -20428.669922 38536.828125 -405.331421
v -20463.509766 38548.859375 -235.322601
vt -1.021971 2.001424
vt 2.977629 2.001424
vt 2.977629 1.108993
vt -1.021971 1.108994
vt -1.021971 0.581097
vt 2.977630 0.581097
vt -1.021971 1.993160
vt 2.977629 1.993160
vt 2.977629 1.899918
vt -1.021971 1.899918
vt -1.021971 1.695245
vt 2.977629 1.695245
vt 2.977629 1.688305
vt -1.021971 1.688305
vt 2.977629 0.755510
vt -1.021971 0.755511
vt -1.021971 2.001424
vt 2.977629 2.001424
vt 2.977629 1.108993
vt -1.021971 1.108994
vt -1.021971 0.581097
vt 2.977630 0.581097
vt -1.021971 1.993160
vt 2.977629 1.993160
vt 2.977629 1.899918
vt -1.021971 1.899918
vt -1.021971 1.695245
vt 2.977629 1.695245
vt 2.977629 1.688305
vt -1.021971 1.688305
vt 2.977629 0.755510
vt -1.021971 0.755511
vt -1.021971 2.001424
vt 2.977629 2.001424
vt 2.977629 1.108993
vt -1.021971 1.108994
vt -1.021971 0.581097
vt 2.977630 0.581097
vt -1.021971 1.993160
vt 2.977629 1.993160
vt 2.977629 1.899918
vt -1.021971 1.899918
vt -1.021971 1.695245
vt 2.977629 1.695245
vt 2.977629 1.688305
vt -1.021971 1.688305
vt 2.977629 0.755510
vt -1.021971 0.755511
vt -1.021971 2.001424
vt 2.977629 2.001424
vt 2.977629 1.108993
vt -1.021971 1.108994
vt -1.021971 0.581097
vt 2.977630 0.581097
vt -1.021971 1.993160
vt 2.977629 1.993160
vt 2.977629 1.899918
vt -1.021971 1.899918
vt -1.021971 1.695245
vt 2.977629 1.695245
vt 2.977629 1.688305
vt -1.021971 1.688305
vt 2.977629 0.755510
vt -1.021971 0.755511
vt -1.021971 2.001424
vt 2.977629 2.001424
vt 2.977629 1.108993
vt -1.021971 1.108994
vt -1.021971 0.581097
vt 2.977630 0.581097
vt -1.021971 1.993160
vt 2.977629 1.993160
vt 2.977629 1.899918
vt -1.021971 1.899918
vt -1.021971 1.695245
vt 2.977629 1.695245
vt 2.977629 1.688305
vt -1.021971 1.688305
vt 2.977629 0.755510
vt -1.021971 0.755511
vt -1.021971 2.001424
vt 2.977629 2.001424
vt 2.977629 1.108993
vt -1.021971 1.108994
vt -1.021971 0.581097
vt 2.977630 0.581097
vt -1.021971 1.993160
vt 2.977629 1.993160
vt -1.021971 1.899918
vt 2.977629 1.695245
vt 2.977629 1.899918
vt -1.021971 1.695245
vt 2.977629 1.688305
vt -1.021971 1.688305
vt 2.977629 0.755510
vt -1.021971 0.755511
vt -1.021971 2.001424
vt 2.977629 2.001424
vt 2.977629 1.108993
vt -1.021971 1.108994
vt -1.021971 0.581097
vt 2.977630 0.581097
vt -1.021971 1.993160
vt 2.977629 1.993160
vt -1.021971 1.899918
vt 2.977629 1.695245
vt 2.977629 1.899918
vt -1.021971 1.695245
vt 2.977629 1.688305
vt -1.021971 1.688305
vt 2.977629 0.755510
vt -1.021971 0.755511
vt -1.021971 2.001424
vt 2.977629 2.001424
vt 2.977629 1.108993
vt -1.021971 1.108994
vt -1.021971 0.581097
vt 2.977630 0.581097
vt -1.021971 1.993160
vt 2.977629 1.993160
vt -1.021971 1.899918
vt 2.977629 1.695245
vt 2.977629 1.899918
vt -1.021971 1.695245
vt 2.977629 1.688305
vt -1.021971 1.688305
vt 2.977629 0.755510
vt -1.021971 0.755511
vt -1.021971 2.001424
vt 2.977629 2.001424
vt 2.977629 1.108993
vt -1.021971 1.108994
vt -1.021971 0.581097
vt 2.977630 0.581097
vt -1.021971 1.993160
vt 2.977629 1.993160
vt -1.021971 1.899918
vt 2.977629 1.695245
vt 2.977629 1.899918
vt -1.021971 1.695245
vt 2.977629 1.688305
vt -1.021971 1.688305
vt 2.977629 0.755510
vt -1.021971 0.755511
vt -1.021971 2.001424
vt 2.977629 2.001424
vt 2.977629 1.108993
vt -1.021971 1.108994
vt -1.021971 0.581097
vt 2.977630 0.581097
vt -1.021971 1.993160
vt 2.977629 1.993160
vt -1.021971 1.899918
vt 2.977629 1.695245
vt 2.977629 1.899918
vt -1.021971 1.695245
vt 2.977629 1.688305
vt -1.021971 1.688305
vt 2.977629 0.755510
vt -1.021971 0.755511
vt -1.021971 2.001424
vt 2.977629 2.001424
vt 2.977629 1.108993
vt -1.021971 1.108994
vt -1.021971 0.581097
vt 2.977630 0.581097
vt -1.021971 1.993160
vt 2.977629 1.993160
vt -1.021971 1.899918
vt 2.977629 1.695245
vt 2.977629 1.899918
vt -1.021971 1.695245
vt 2.977629 1.688305
vt -1.021971 1.688305
vt 2.977629 0.755510
vt -1.021971 0.755511
vt -1.021971 2.001424
vt 2.977629 2.001424
vt 2.977629 1.108993
vt -1.021971 1.108994
vt -1.021971 0.581097
vt 2.977629 1.993160
vt -1.021971 1.993160
vt 2.977630 0.581097
vt 2.977629 1.899918
vt -1.021971 1.899918
vt -1.021971 1.695245
vt 2.977629 1.695245
vt 2.977629 1.688305
vt -1.021971 1.688305
vt 2.977629 0.755510
vt -1.021971 0.755511
vt -1.021971 2.001424
vt 2.977629 2.001424
vt 2.977629 1.108993
vt -1.021971 1.108994
vt -1.021971 0.581097
vt 2.977629 1.993160
vt -1.021971 1.993160
vt 2.977630 0.581097
vt 2.977629 1.899918
vt -1.021971 1.899918
vt -1.021971 1.695245
vt 2.977629 1.695245
vt 2.977629 1.688305
vt -1.021971 1.688305
vt 2.977629 0.755510
vt -1.021971 0.755511
vt 2.977629 1.108993
vt -1.021971 2.001424
vt 2.977629 2.001424
vt -1.021971 1.108994
vt -1.021971 0.581097
vt 2.977629 1.993160
vt -1.021971 1.993160
vt 2.977630 0.581097
vt 2.977629 1.899918
vt -1.021971 1.899918
vt -1.021971 1.695245
vt 2.977629 1.695245
vt 2.977629 1.688305
vt -1.021971 1.688305
vt 2.977629 0.755510
vt -1.021971 0.755511
vt 2.977629 1.108993
vt -1.021971 2.001424
vt 2.977629 2.001424
vt -1.021971 1.108994
vt -1.021971 0.581097
vt 2.977629 1.993160
vt -1.021971 1.993160
vt 2.977630 0.581097
vt 2.977629 1.899918
vt -1.021971 1.899918
vt -1.021971 1.695245
vt 2.977629 1.695245
vt 2.977629 1.688305
vt -1.021971 1.688305
vt 2.977629 0.755510
vt -1.021971 0.755511
vn -0.9338 0.3118 -0.1756
vn -0.9326 0.3153 -0.1755
vn 0.9497 -0.3130 0.0022
vn 0.9483 -0.3173 0.0021
vn 0.9497 -0.3131 0.0022
vn 0.0058 0.0172 -0.9998
vn 0.0069 0.0208 -0.9998
vn 0.0070 0.0208 -0.9998
vn 0.0069 0.0207 -0.9998
vn 0.5594 -0.1716 -0.8109
vn 0.5600 -0.1661 -0.8117
vn 0.5601 -0.1657 -0.8117
vn -0.9483 0.3172 0.0001
vn -0.9498 0.3130 -0.0001
vn -0.9353 0.3070 -0.1757
vn 0.9516 -0.3072 0.0024
vn 0.0088 0.0266 -0.9996
vn 0.5632 -0.1580 -0.8111
vn 0.5635 -0.1579 -0.8109
vn -0.9517 0.3071 -0.0001
vn -0.9355 0.3064 -0.1757
vn 0.9520 -0.3061 0.0024
vn 0.0097 0.0295 -0.9995
vn 0.5636 -0.1547 -0.8115
vn -0.9520 0.3060 -0.0002
vn -0.9349 0.3085 -0.1756
vn 0.9514 -0.3080 0.0024
vn 0.0100 0.0304 -0.9995
vn 0.5634 -0.1551 -0.8115
vn 0.5634 -0.1552 -0.8115
vn -0.9514 0.3080 0.0000
vn -0.9514 0.3080 -0.0003
vn -0.9337 0.3121 -0.1755
vn 0.9502 -0.3117 0.0022
vn 0.0100 0.0303 -0.9995
vn 0.5636 -0.1575 -0.8109
vn 0.5636 -0.1576 -0.8109
vn -0.9502 0.3116 -0.0001
vn -0.9323 0.3163 -0.1754
vn 0.9487 -0.3161 0.0021
vn 0.0098 0.0297 -0.9995
vn 0.5617 -0.1603 -0.8117
vn 0.5616 -0.1604 -0.8117
vn -0.9488 0.3160 0.0000
vn -0.9310 0.3201 -0.1753
vn 0.9473 -0.3202 0.0019
vn 0.0092 0.0279 -0.9996
vn 0.5617 -0.1644 -0.8109
vn 0.5617 -0.1646 -0.8108
vn -0.9474 0.3202 0.0002
vn -0.9306 0.3213 -0.1752
vn 0.9466 -0.3223 0.0019
vn 0.0075 0.0230 -0.9997
vn 0.5590 -0.1695 -0.8117
vn 0.5589 -0.1697 -0.8117
vn -0.9467 0.3222 0.0003
vn -0.9311 0.3199 -0.1752
vn 0.9467 -0.3221 0.0019
vn 0.0052 0.0162 -0.9999
vn 0.5577 -0.1750 -0.8114
vn 0.5573 -0.1751 -0.8116
vn -0.9467 0.3221 0.0002
vn -0.9316 0.3183 -0.1753
vn 0.9469 -0.3216 0.0019
vn 0.0031 0.0100 -0.9999
vn 0.5549 -0.1794 -0.8124
vn 0.5548 -0.1795 -0.8124
vn -0.9469 0.3216 0.0002
vn -0.9321 0.3170 -0.1753
vn 0.9470 -0.3212 0.0019
vn 0.0012 0.0044 -1.0000
vn 0.5545 -0.1841 -0.8115
vn 0.5545 -0.1843 -0.8115
vn -0.9470 0.3212 0.0003
vn -0.9470 0.3211 -0.0002
vn -0.9324 0.3160 -0.1753
vn 0.9470 -0.3211 0.0019
vn -0.0004 -0.0004 -1.0000
vn 0.5534 -0.1880 -0.8114
vn 0.5534 -0.1881 -0.8114
vn -0.9470 0.3211 0.0002
vn -0.9325 0.3159 -0.1753
vn 0.9469 -0.3215 0.0019
vn -0.0016 -0.0038 -1.0000
vn 0.5520 -0.1909 -0.8117
vn 0.5520 -0.1910 -0.8116
vn -0.9469 0.3215 0.0002
vn -0.9321 0.3169 -0.1754
vn -0.9321 0.3168 -0.1754
vn 0.9465 -0.3227 0.0019
vn -0.0019 -0.0048 -1.0000
vn 0.5514 -0.1924 -0.8118
vn 0.5515 -0.1925 -0.8117
vn -0.9465 0.3227 0.0003
vn -0.9318 0.3177 -0.1754
vn -0.9318 0.3177 -0.1753
vn -0.9321 0.3169 -0.1753
vn 0.9462 -0.3235 0.0019
vn -0.0020 -0.0050 -1.0000
vn -0.0018 -0.0045 -1.0000
vn 0.5507 -0.1924 -0.8122
vn 0.5505 -0.1924 -0.8124
vn -0.9462 0.3235 0.0002
usemtl WallMat.001
s 1
f 1/1/1 3/2/2 2/3/2
f 1/1/1 2/3/2 4/4/1
f 5/5/3 7/6/4 6/7/5
f 8/8/4 6/7/5 7/6/4
f 3/9/6 1/10/7 9/11/8
f 3/9/6 9/11/9 10/12/6
f 8/13/10 9/11/11 6/14/12
f 9/11/11 8/13/10 10/12/10
f 11/15/13 4/4/14 2/3/13
f 4/4/14 11/15/13 12/16/14
f 13/17/15 1/18/1 4/19/1
f 13/17/15 4/19/1 14/20/15
f 15/21/16 5/22/3 16/23/16
f 6/24/5 16/23/16 5/22/3
f 1/25/7 13/26/17 17/27/17
f 1/25/7 17/27/17 9/28/8
f 6/29/12 17/27/18 16/30/19
f 17/27/18 6/29/12 9/28/11
f 12/31/14 14/20/20 4/19/14
f 14/20/20 12/31/14 18/32/20
f 19/33/21 13/34/15 14/35/15
f 19/33/21 14/35/15 20/36/21
f 21/37/22 15/38/16 22/39/22
f 16/40/16 22/39/22 15/38/16
f 13/41/17 19/42/23 23/43/23
f 13/41/17 23/43/23 17/44/17
f 16/45/19 23/43/24 22/46/24
f 23/43/24 16/45/19 17/44/18
f 18/47/20 20/36/25 14/35/20
f 20/36/25 18/47/20 24/48/25
f 25/49/26 19/50/21 20/51/21
f 25/49/26 20/51/21 26/52/26
f 27/53/27 21/54/22 28/55/27
f 22/56/22 28/55/27 21/54/22
f 19/57/23 25/58/28 29/59/28
f 19/57/23 29/59/28 23/60/23
f 22/61/24 29/59/29 28/62/30
f 29/59/29 22/61/24 23/60/24
f 24/63/25 26/52/31 20/51/25
f 26/52/31 24/63/25 30/64/32
f 31/65/33 25/66/26 26/67/26
f 31/65/33 26/67/26 32/68/33
f 33/69/34 27/70/27 34/71/34
f 28/72/27 34/71/34 27/70/27
f 25/73/28 31/74/35 35/75/35
f 25/73/28 35/75/35 29/76/28
f 28/77/30 35/75/36 34/78/37
f 35/75/36 28/77/30 29/76/29
f 30/79/32 32/68/38 26/67/31
f 32/68/38 30/79/32 36/80/38
f 37/81/39 31/82/33 32/83/33
f 37/81/39 32/83/33 38/84/39
f 39/85/40 33/86/34 40/87/40
f 34/88/34 40/87/40 33/86/34
f 37/89/41 35/90/35 31/91/35
f 35/90/35 37/89/41 41/92/41
f 34/93/37 41/92/42 40/94/43
f 41/92/42 34/93/37 35/90/36
f 36/95/38 38/84/44 32/83/38
f 38/84/44 36/95/38 42/96/44
f 43/97/45 37/98/39 38/99/39
f 43/97/45 38/99/39 44/100/45
f 45/101/46 39/102/40 46/103/46
f 40/104/40 46/103/46 39/102/40
f 43/105/47 41/106/41 37/107/41
f 41/106/41 43/105/47 47/108/47
f 40/109/43 47/108/48 46/110/49
f 47/108/48 40/109/43 41/106/42
f 42/111/44 44/100/50 38/99/44
f 44/100/50 42/111/44 48/112/50
f 49/113/51 43/114/45 44/115/45
f 49/113/51 44/115/45 50/116/51
f 51/117/52 45/118/46 52/119/52
f 46/120/46 52/119/52 45/118/46
f 49/121/53 47/122/47 43/123/47
f 47/122/47 49/121/53 53/124/53
f 46/125/49 53/124/54 52/126/55
f 53/124/54 46/125/49 47/122/48
f 48/127/50 50/116/56 44/115/50
f 50/116/56 48/127/50 54/128/56
f 55/129/57 49/130/51 50/131/51
f 55/129/57 50/131/51 56/132/57
f 57/133/58 51/134/52 58/135/58
f 52/136/52 58/135/58 51/134/52
f 55/137/59 53/138/53 49/139/53
f 53/138/53 55/137/59 59/140/59
f 52/141/55 59/140/60 58/142/61
f 59/140/60 52/141/55 53/138/54
f 54/143/56 56/132/62 50/131/56
f 56/132/62 54/143/56 60/144/62
f 61/145/63 55/146/57 56/147/57
f 61/145/63 56/147/57 62/148/63
f 63/149/64 57/150/58 64/151/64
f 58/152/58 64/151/64 57/150/58
f 61/153/65 59/154/59 55/155/59
f 59/154/59 61/153/65 65/156/65
f 58/157/61 65/156/66 64/158/67
f 65/156/66 58/157/61 59/154/60
f 60/159/62 62/148/68 56/147/62
f 62/148/68 60/159/62 66/160/68
f 67/161/69 61/162/63 62/163/63
f 67/161/69 62/163/63 68/164/69
f 69/165/70 63/166/64 70/167/70
f 64/168/64 70/167/70 63/166/64
f 67/169/71 65/170/65 61/171/65
f 65/170/65 67/169/71 71/172/71
f 64/173/67 71/172/72 70/174/73
f 71/172/72 64/173/67 65/170/66
f 66/175/68 68/164/74 62/163/68
f 68/164/74 66/175/68 72/176/75
f 73/177/76 67/178/69 68/179/69
f 73/177/76 68/179/69 74/180/76
f 75/181/77 70/182/70 76/183/77
f 70/182/70 75/181/77 69/184/70
f 67/185/71 73/186/78 77/187/78
f 67/185/71 77/187/78 71/188/71
f 70/189/73 77/187/79 76/190/80
f 77/187/79 70/189/73 71/188/72
f 72/191/75 78/192/81 68/179/74
f 74/180/81 68/179/74 78/192/81
f 79/193/82 73/194/76 74/195/76
f 79/193/82 74/195/76 80/196/82
f 81/197/83 76/198/77 82/199/83
f 76/198/77 81/197/83 75/200/77
f 73/201/78 79/202/84 83/203/84
f 73/201/78 83/203/84 77/204/78
f 76/205/80 83/203/85 82/206/86
f 83/203/85 76/205/80 77/204/79
f 78/207/81 84/208/87 74/195/81
f 80/196/87 74/195/81 84/208/87
f 80/209/82 85/210/88 79/211/82
f 85/210/88 80/209/82 86/212/89
f 87/213/90 82/214/83 88/215/90
f 82/214/83 87/213/90 81/216/83
f 79/217/84 85/218/91 89/219/91
f 79/217/84 89/219/91 83/220/84
f 82/221/86 89/219/92 88/222/93
f 89/219/92 82/221/86 83/220/85
f 84/223/87 90/224/94 80/209/87
f 86/212/94 80/209/87 90/224/94
f 86/225/89 91/226/95 85/227/88
f 91/226/96 86/225/97 92/228/96
f 93/229/98 88/230/90 94/231/98
f 88/230/90 93/229/98 87/232/90
f 85/233/99 91/234/100 95/235/100
f 85/233/91 95/235/100 89/236/91
f 88/237/93 95/235/101 94/238/102
f 95/235/101 88/237/93 89/236/92
f 90/239/94 96/240/103 86/225/94
f 92/228/103 86/225/94 96/240/103
