# Blender v3.1.2 OBJ File: 'track.blend'
# www.blender.org
mtllib Scene.447.mtl
o _0LAMP_corner_04_008_Scene.447
v -11017.610352 73248.992188 -1357.156006
v -11025.459961 73257.718750 -1357.156006
v -11017.610352 73248.992188 -755.079712
v -11025.459961 73257.718750 -755.079712
v -11008.879883 73256.843750 -1357.156006
v -11008.879883 73256.843750 -755.079712
v -11016.729492 73265.585938 -1357.156006
v -11016.729492 73265.585938 -755.079712
v -10968.360352 73198.523438 -1353.155029
v -11015.830078 73251.320312 -1353.155029
v -11015.830078 73251.320312 -1347.183960
v -10968.360352 73198.523438 -1347.183960
v -10963.919922 73202.507812 -1353.155029
v -11011.389648 73255.320312 -1353.155029
v -11011.389648 73255.320312 -1347.183960
v -10963.919922 73202.507812 -1347.183960
v -10959.190430 73218.656250 -1332.651001
v -10961.169922 73216.859375 -1347.185059
v -10953.540039 73208.382812 -1358.593018
v -10933.450195 73186.039062 -1358.593018
v -10925.490234 73181.156250 -1351.846069
v -10955.209961 73166.468750 -1358.593018
v -10951.200195 73158.039062 -1351.846069
v -10975.299805 73188.820312 -1358.593018
v -10982.929688 73197.304688 -1347.185059
v -10984.910156 73195.531250 -1332.651001
v -10939.620117 73186.265625 -1349.824097
v -10962.990234 73212.265625 -1336.518921
v -10954.799805 73172.640625 -1349.824097
v -10978.160156 73198.632812 -1336.518921
v -10958.889648 73192.453125 -1343.171997
vt 0.487913 1.763667
vt 0.384907 1.763667
vt 0.487913 1.770191
vt 0.384907 1.770191
vt 0.384907 1.763618
vt 0.487913 1.763618
vt 0.384907 1.770191
vt 0.487913 1.770191
vt 0.384907 1.770191
vt 0.487913 1.770191
vt 0.384907 1.763667
vt 0.487913 1.763667
vt 0.458985 1.775614
vt 0.455340 1.775614
vt 0.458985 1.774532
vt 0.455340 1.774532
vt 0.457749 1.775614
vt 0.456575 1.776695
vt 0.456575 1.775614
vt 0.457749 1.776695
vt 0.384907 1.763667
vt 0.487913 1.770191
vt 0.487913 1.763667
vt 0.384907 1.770191
vt 0.487913 1.770191
vt 0.384907 1.770191
vt 0.487913 1.763618
vt 0.384907 1.763618
vt 0.384907 1.770191
vt 0.487913 1.770191
vt 0.384907 1.763667
vt 0.487913 1.763667
vt 0.823136 1.910260
vt 0.823136 1.910260
vt 0.823136 1.910260
vt 0.823136 1.910260
vt 0.823136 1.910260
vt 0.823136 1.910260
vt 0.823136 1.910260
vt 0.823136 1.910260
vt 0.823136 1.910260
vt 0.823136 1.910260
vt 0.492074 1.825578
vt 0.491302 1.819964
vt 0.492074 1.819964
vt 0.491302 1.825578
vt 0.492074 1.829223
vt 0.491302 1.829223
vt 0.491302 1.834838
vt 0.492074 1.834838
vt 0.491302 1.838482
vt 0.492074 1.838482
vt 0.829249 1.930272
vt 0.829249 1.930272
vt 0.829256 1.930104
vt 0.829249 1.930272
vt 0.829249 1.930272
vn -0.7430 -0.6693 0.0000
vn -0.7441 -0.6681 0.0000
vn -0.7431 -0.6692 0.0000
vn 0.6690 -0.7433 0.0000
vn 0.6679 -0.7443 0.0000
vn 0.7441 0.6681 0.0000
vn 0.7431 0.6691 -0.0000
vn -0.6680 0.7442 -0.0000
vn -0.6694 0.7429 0.0000
vn -0.6681 0.7441 0.0000
vn -0.6691 0.7431 -0.0000
vn 0.0000 0.0000 1.0000
vn -0.0000 0.0000 -1.0000
vn -0.7436 -0.6686 0.0000
vn 0.7437 0.6685 0.0000
vn 0.6953 0.6996 -0.1649
vn 0.6954 0.6995 -0.1648
vn 0.6947 0.7002 -0.1646
vn 0.6957 0.6990 -0.1656
vn 0.6957 0.6989 -0.1658
vn 0.2264 -0.2521 -0.9408
vn 0.4028 -0.4478 -0.7982
vn 0.4022 -0.4474 -0.7988
vn 0.2271 -0.2524 -0.9406
vn -0.2559 0.2846 -0.9239
vn -0.2558 0.2846 -0.9239
vn -0.6232 0.6936 -0.3614
vn -0.6232 0.6930 -0.3623
vn -0.6686 0.7436 -0.0004
vn -0.6683 0.7438 0.0008
vn -0.7691 -0.6174 -0.1649
vn -0.7689 -0.6177 -0.1653
vn -0.7683 -0.6182 -0.1660
vn -0.7690 -0.6176 -0.1653
vn -0.7689 -0.6176 -0.1655
vn 0.0140 -0.3331 0.9428
vn 0.1646 -0.5810 0.7971
vn 0.3275 -0.6248 0.7087
vn 0.0512 -0.2417 0.9690
vn 0.3300 -0.0492 0.9427
vn 0.2351 -0.0765 0.9689
vn 0.5601 -0.2250 0.7973
vn 0.5857 -0.3915 0.7097
vn 0.2382 -0.2648 0.9344
vn 0.2379 -0.2647 0.9345
vn 0.2377 -0.2647 0.9346
vn 0.2377 -0.2648 0.9345
usemtl EnvironmentMat.001
s 1
f 1/1/1 3/2/2 2/3/3
f 2/3/3 3/2/2 4/4/2
f 5/5/4 6/6/5 1/7/4
f 1/7/4 6/6/5 3/8/5
f 7/9/6 8/10/7 5/5/6
f 5/5/6 8/10/7 6/6/7
f 2/11/8 4/12/9 7/9/10
f 7/9/10 4/12/9 8/10/11
f 8/13/12 4/14/12 6/15/12
f 4/14/12 3/16/12 6/15/12
f 1/17/13 7/18/13 5/19/13
f 7/18/13 1/17/13 2/20/13
f 9/21/14 11/22/14 10/23/14
f 11/22/14 9/21/14 12/24/14
f 9/25/13 10/26/13 13/27/13
f 13/27/13 10/26/13 14/28/13
f 15/29/15 16/30/15 14/28/15
f 13/27/15 14/28/15 16/30/15
f 11/31/12 12/32/12 15/29/12
f 15/29/12 12/32/12 16/30/12
f 17/33/16 19/34/17 18/35/18
f 17/33/16 20/36/19 19/34/17
f 20/36/19 17/33/16 21/37/20
f 22/38/21 21/37/22 23/39/23
f 21/37/22 22/38/21 20/36/24
f 20/36/24 22/38/21 24/40/25
f 20/36/24 24/40/25 19/34/26
f 19/34/26 24/40/25 25/41/27
f 19/34/26 25/41/27 18/35/28
f 25/41/27 17/33/29 18/35/28
f 17/33/29 25/41/27 26/42/30
f 24/40/31 26/42/32 25/41/33
f 22/38/34 26/42/32 24/40/31
f 23/39/35 26/42/32 22/38/34
f 27/43/36 17/44/37 28/45/38
f 17/44/37 27/43/36 21/46/39
f 29/47/40 21/46/39 27/43/36
f 21/46/39 29/47/40 23/48/41
f 26/49/42 23/48/41 29/47/40
f 26/49/42 29/47/40 30/50/43
f 17/51/37 26/49/42 30/50/43
f 17/51/37 30/50/43 28/52/38
f 28/53/44 30/54/45 31/55/46
f 27/56/47 28/53/44 31/55/46
f 30/54/45 29/57/47 31/55/46
f 29/57/47 27/56/47 31/55/46
