# Blender v3.1.2 OBJ File: 'track.blend'
# www.blender.org
mtllib Scene.408.mtl
o _0AD_tower_rolex_SUB1_Scene.408
v -16366.319336 -47797.218750 -134.512909
v -16362.860352 -47810.519531 -821.570129
v -16366.319336 -47797.218750 -821.570129
v -16362.860352 -47810.519531 -134.512909
v -16345.930664 -47791.917969 -821.570129
v -16342.480469 -47805.218750 -821.570129
v -16345.930664 -47791.917969 -134.512909
v -16342.480469 -47805.218750 -134.512909
v -16363.048828 -47806.898438 -765.886230
v -16840.460938 -47924.109375 -765.886414
v -16838.779297 -47930.539062 -765.886414
v -16364.719727 -47800.468750 -765.886230
v -16840.460938 -47924.109375 -760.893799
v -16364.719727 -47800.468750 -760.893494
v -16363.048828 -47806.898438 -760.893494
v -16838.779297 -47930.539062 -760.893799
v -16358.149414 -47804.058594 -821.239197
v -16825.570312 -47921.812500 -765.250183
v -16824.669922 -47925.300781 -765.250183
v -16359.060547 -47800.570312 -821.239197
v -16825.199219 -47921.718750 -763.318420
v -16358.689453 -47800.468750 -819.307312
v -16357.780273 -47803.960938 -819.307312
v -16824.291016 -47925.210938 -763.318420
vt 0.516657 3.180547
vt 0.516656 0.383379
vt 0.602885 0.383379
vt 0.602886 3.180547
vt 0.602886 3.180547
vt 0.602886 0.383379
vt 0.689116 3.180547
vt 0.689116 0.383379
vt 0.775345 0.465394
vt 0.775345 0.547409
vt 0.689116 0.465394
vt 0.689116 0.547409
vt 0.314904 3.180547
vt 0.314903 0.383379
vt 0.415779 0.383379
vt 0.415780 3.180547
vt 0.775345 0.383379
vt 0.775345 0.465394
vt 0.689116 0.383379
vt 0.689116 0.465394
vt 0.516656 0.383379
vt 0.415780 3.180547
vt 0.415780 0.383379
vt 0.516656 3.180547
vt 0.602885 0.383379
vt 0.602886 3.180547
vt 0.516657 3.180547
vt 0.516656 0.383379
vt 0.602886 0.383379
vt 0.689116 3.180547
vt 0.602886 3.180547
vt 0.689116 0.383379
vt 0.689116 0.547409
vt 0.689116 0.465394
vt 0.775345 0.547409
vt 0.775345 0.465394
vt 0.415779 0.383379
vt 0.415780 3.180547
vt 0.314904 3.180547
vt 0.314903 0.383379
vt 0.689116 0.465394
vt 0.689116 0.383379
vt 0.775345 0.465394
vt 0.775345 0.383379
vt 0.415780 0.383379
vt 0.516656 3.180547
vt 0.415780 3.180547
vt 0.516656 0.383379
vt 0.602885 0.383379
vt 0.602886 3.180547
vt 0.516657 3.180547
vt 0.516656 0.383379
vt 0.602886 0.383379
vt 0.689116 3.180547
vt 0.602886 3.180547
vt 0.689116 0.383379
vt 0.775345 0.547409
vt 0.689116 0.547409
vt 0.689116 0.465394
vt 0.775345 0.465394
vt 0.314904 3.180547
vt 0.415779 0.383379
vt 0.415780 3.180547
vt 0.314903 0.383379
vt 0.775345 0.465394
vt 0.689116 0.465394
vt 0.689116 0.383379
vt 0.775345 0.383379
vt 0.516656 3.180547
vt 0.415780 0.383379
vt 0.516656 0.383379
vt 0.415780 3.180547
vn -0.9678 -0.2516 0.0000
vn 0.9680 0.2510 0.0000
vn 0.9679 0.2514 0.0000
vn 0.0000 0.0000 1.0000
vn -0.2516 0.9678 0.0000
vn 0.0000 0.0000 -1.0000
vn 0.2517 -0.9678 0.0000
vn 0.2518 -0.9678 0.0000
vn -0.9678 -0.2519 -0.0000
vn -0.9678 -0.2517 0.0000
vn -0.2515 0.9678 0.0000
vn 0.9678 0.2516 0.0000
vn 0.2515 -0.9678 0.0000
vn -0.1115 -0.0293 -0.9933
vn -0.1120 -0.0288 -0.9933
vn 0.1116 0.0290 0.9933
vn 0.1117 0.0291 0.9933
vn -0.9490 -0.2470 0.1958
vn -0.9496 -0.2465 0.1939
vn -0.9493 -0.2467 0.1948
vn -0.9488 -0.2472 0.1967
vn -0.2515 0.9679 -0.0018
vn -0.2510 0.9680 0.0028
vn -0.2510 0.9680 0.0029
vn 0.9494 0.2467 -0.1942
vn 0.9493 0.2470 -0.1945
vn 0.9494 0.2469 -0.1944
vn 0.9495 0.2465 -0.1942
vn 0.2513 -0.9679 0.0018
vn 0.2514 -0.9679 -0.0039
vn 0.2515 -0.9679 -0.0038
usemtl ZinkMat.001
s 1
f 1/1/1 3/2/1 2/3/1
f 2/3/1 4/4/1 1/1/1
f 5/5/2 7/6/2 6/7/3
f 6/7/3 7/6/2 8/8/3
f 7/9/4 1/10/4 8/11/4
f 1/10/4 4/12/4 8/11/4
f 7/13/5 5/14/5 3/15/5
f 3/15/5 1/16/5 7/13/5
f 6/17/6 2/18/6 5/19/6
f 2/18/6 3/20/6 5/19/6
f 6/21/7 4/22/8 2/23/7
f 4/22/8 6/21/7 8/24/8
f 9/25/6 11/26/6 10/27/6
f 9/25/6 10/27/6 12/28/6
f 13/29/4 15/30/4 14/31/4
f 15/30/4 13/29/4 16/32/4
f 11/33/9 16/34/10 10/35/10
f 10/35/10 16/34/10 13/36/10
f 12/37/11 10/38/11 13/39/11
f 12/37/11 13/39/11 14/40/11
f 12/41/12 14/42/12 9/43/12
f 9/43/12 14/42/12 15/44/12
f 9/45/13 16/46/13 11/47/13
f 16/46/13 9/45/13 15/48/13
f 17/49/14 19/50/15 18/51/15
f 17/49/14 18/51/15 20/52/14
f 21/53/16 23/54/17 22/55/17
f 23/54/17 21/53/16 24/56/16
f 18/57/18 19/58/19 24/59/20
f 18/57/18 24/59/20 21/60/21
f 21/61/22 20/62/23 18/63/22
f 20/62/23 21/61/22 22/64/24
f 17/65/25 20/66/26 22/67/27
f 17/65/25 22/67/27 23/68/28
f 24/69/29 17/70/30 23/71/31
f 17/70/30 24/69/29 19/72/29
