# Blender v3.1.2 OBJ File: 'track.blend'
# www.blender.org
mtllib Scene.461.mtl
o _0SIGN_50M_03_Scene.461
v -18713.089844 37863.917969 -555.197632
v -18782.730469 37865.078125 -555.197449
v -18782.781250 37862.117188 -555.197449
v -18713.138672 37860.957031 -555.197632
v -18713.089844 37863.917969 -405.197632
v -18782.730469 37865.078125 -405.197479
v -18713.138672 37860.957031 -405.197632
v -18782.781250 37862.117188 -405.197479
v -18764.019531 37860.378906 -491.551910
v -18764.019531 37860.378906 -486.843506
v -18755.250000 37860.230469 -486.843506
v -18755.250000 37860.230469 -491.551910
v -18764.019531 37860.378906 -506.730408
v -18731.779297 37859.839844 -491.551910
v -18731.779297 37859.839844 -486.843506
v -18755.250000 37860.230469 -506.730408
v -18764.019531 37860.378906 -511.790405
v -18755.250000 37860.230469 -511.790405
v -18740.378906 37859.980469 -511.790405
v -18740.378906 37859.980469 -506.730408
v -18731.839844 37859.839844 -511.790405
v -18731.839844 37859.839844 -506.730408
v -18740.378906 37859.980469 -518.220642
v -18731.839844 37859.839844 -518.220642
v -18740.378906 37859.980469 -521.822815
v -18731.839844 37859.839844 -521.822815
v -18764.218750 37860.378906 -518.220642
v -18764.218750 37860.378906 -521.822815
v -18731.769531 37864.781250 -491.551910
v -18731.769531 37864.781250 -486.843506
v -18740.539062 37864.921875 -486.843506
v -18740.539062 37864.921875 -491.551910
v -18731.769531 37864.781250 -506.730408
v -18764.009766 37865.320312 -491.551910
v -18764.009766 37865.320312 -486.843506
v -18740.539062 37864.921875 -506.730408
v -18731.769531 37864.781250 -511.790405
v -18740.539062 37864.921875 -511.790405
v -18755.419922 37865.171875 -511.790405
v -18755.419922 37865.171875 -506.730408
v -18763.949219 37865.320312 -511.790405
v -18763.949219 37865.320312 -506.730408
v -18755.419922 37865.171875 -518.220642
v -18763.949219 37865.320312 -518.220642
v -18755.419922 37865.171875 -521.822815
v -18763.949219 37865.320312 -521.822815
v -18731.580078 37864.769531 -518.220642
v -18731.580078 37864.769531 -521.822815
v -18755.669922 37860.238281 -443.933197
v -18755.669922 37860.238281 -470.173981
v -18764.429688 37860.390625 -474.547394
v -18764.429688 37860.390625 -439.559692
v -18731.650391 37859.839844 -474.547394
v -18740.410156 37859.980469 -443.933197
v -18740.410156 37859.980469 -470.173981
v -18731.650391 37859.839844 -439.559692
v -18740.130859 37864.921875 -443.933197
v -18740.130859 37864.921875 -470.173981
v -18731.359375 37864.769531 -474.547394
v -18731.359375 37864.769531 -439.559692
v -18764.150391 37865.320312 -474.547394
v -18755.380859 37865.171875 -443.933197
v -18755.380859 37865.171875 -470.173981
v -18764.150391 37865.320312 -439.559692
vt 1.000000 2.000000
vt 0.000000 1.000000
vt 1.000000 1.000000
vt 0.000000 2.000000
vt 1.000000 2.000000
vt 0.000000 2.000000
vt 0.000000 1.000000
vt 1.000000 1.000000
vt 1.000000 2.000000
vt 0.000000 1.000000
vt 1.000000 1.000000
vt 0.000000 2.000000
vt 1.000000 1.000000
vt 0.000000 2.000000
vt 0.000000 1.000000
vt 1.000000 2.000000
vt 1.000000 1.000000
vt 0.000000 1.000000
vt 0.000000 2.000000
vt 1.000000 2.000000
vt 0.042236 1.025888
vt 0.042236 1.025888
vt 0.042236 1.025888
vt 0.042236 1.025888
vt 0.042236 1.025888
vt 0.042236 1.025888
vt 0.042236 1.025888
vt 0.042236 1.025888
vt 0.042236 1.025888
vt 0.042236 1.025888
vt 0.042236 1.025888
vt 0.042236 1.025888
vt 0.042236 1.025888
vt 0.042236 1.025888
vt 0.042236 1.025888
vt 0.042236 1.025888
vt 0.042236 1.025888
vt 0.042236 1.025888
vt 0.042236 1.025888
vt 0.042236 1.025888
vt 0.042236 1.025888
vt 0.042236 1.025888
vt 0.042236 1.025888
vt 0.042236 1.025888
vt 0.042236 1.025888
vt 0.042236 1.025888
vt 0.042236 1.025888
vt 0.042236 1.025888
vt 0.042236 1.025888
vt 0.042236 1.025888
vt 0.042236 1.025888
vt 0.042236 1.025888
vt 0.042236 1.025888
vt 0.042236 1.025888
vt 0.042236 1.025888
vt 0.042236 1.025888
vt 0.042236 1.025888
vt 0.042236 1.025888
vt 0.042236 1.025888
vt 0.042236 1.025888
vt 0.042236 1.025888
vt 0.042236 1.025888
vt 0.042236 1.025888
vt 0.042236 1.025888
vt 0.042236 1.025888
vt 0.042236 1.025888
vt 0.042236 1.025888
vt 0.042236 1.025888
vt 0.042236 1.025888
vt 0.042236 1.025888
vt 0.042236 1.025888
vt 0.042236 1.025888
vt 0.042236 1.025888
vt 0.042236 1.025888
vt 0.042236 1.025888
vt 0.042236 1.025888
vn -0.0000 0.0000 -1.0000
vn 0.0167 0.9999 0.0000
vn 0.0000 -0.0000 1.0000
vn -0.0167 -0.9999 0.0000
vn 0.9999 -0.0158 0.0000
vn 0.9999 -0.0169 0.0000
vn -0.9999 0.0164 0.0000
vn -0.0166 -0.9999 0.0000
vn -0.0168 -0.9999 0.0000
vn -0.0162 -0.9999 0.0000
vn -0.0169 -0.9999 0.0000
vn -0.0165 -0.9999 0.0000
vn -0.0173 -0.9998 0.0000
vn -0.0170 -0.9999 -0.0000
vn 0.0166 0.9999 0.0000
vn 0.0165 0.9999 0.0000
vn 0.0169 0.9999 -0.0000
vn 0.0163 0.9999 0.0000
vn 0.0171 0.9999 0.0000
vn 0.0168 0.9999 0.0000
vn -0.0169 -0.9999 0.0011
vn -0.0171 -0.9999 -0.0003
vn -0.0172 -0.9999 -0.0005
vn -0.0165 -0.9999 0.0004
vn -0.0164 -0.9999 -0.0001
vn -0.0169 -0.9999 0.0003
vn -0.0166 -0.9999 -0.0001
vn 0.0171 0.9999 -0.0001
vn 0.0165 0.9999 0.0006
vn 0.0163 0.9999 0.0011
vn 0.0174 0.9998 -0.0001
vn 0.0168 0.9999 0.0003
vn 0.0168 0.9999 -0.0011
vn 0.0172 0.9999 -0.0005
usemtl EmptyMat.001
s 1
f 1/1/1 3/2/1 2/3/1
f 3/2/1 1/1/1 4/4/1
f 5/5/2 1/6/2 2/7/2
f 2/7/2 6/8/2 5/5/2
f 7/9/3 6/10/3 8/11/3
f 6/10/3 7/9/3 5/12/3
f 3/13/4 7/14/4 8/15/4
f 7/14/4 3/13/4 4/16/4
f 1/17/5 5/5/6 4/18/5
f 4/18/5 5/5/6 7/14/6
f 3/19/7 8/15/7 2/20/7
f 2/20/7 8/15/7 6/8/7
f 9/21/8 11/22/9 10/23/10
f 9/21/8 12/24/9 11/22/9
f 13/25/11 12/24/9 9/21/8
f 14/26/8 11/22/9 12/24/9
f 11/22/9 14/26/8 15/27/8
f 12/24/9 13/25/11 16/28/11
f 17/29/8 16/28/11 13/25/11
f 16/28/11 17/29/8 18/30/11
f 19/31/8 16/28/11 18/30/11
f 16/28/11 19/31/8 20/32/8
f 21/33/12 20/32/8 19/31/8
f 20/32/8 21/33/12 22/34/13
f 23/35/11 21/33/12 19/31/8
f 23/35/11 24/36/9 21/33/12
f 25/37/11 24/36/9 23/35/11
f 25/37/11 26/38/14 24/36/9
f 23/35/11 27/39/4 25/37/11
f 28/40/4 25/37/11 27/39/4
f 29/41/15 31/42/16 30/43/17
f 29/41/15 32/44/18 31/42/16
f 33/45/15 32/44/18 29/41/15
f 34/46/15 31/42/16 32/44/18
f 31/42/16 34/46/15 35/47/15
f 32/44/18 33/45/15 36/48/15
f 37/49/2 36/48/15 33/45/15
f 36/48/15 37/49/2 38/50/17
f 39/51/15 36/48/15 38/50/17
f 36/48/15 39/51/15 40/52/19
f 41/53/15 40/52/19 39/51/15
f 40/52/19 41/53/15 42/54/2
f 43/55/15 41/53/15 39/51/15
f 43/55/15 44/56/15 41/53/15
f 45/57/2 44/56/15 43/55/15
f 45/57/2 46/58/20 44/56/15
f 43/55/15 47/59/17 45/57/2
f 48/60/17 45/57/2 47/59/17
f 49/61/21 51/62/22 50/63/23
f 52/64/24 51/62/22 49/61/21
f 53/65/25 50/63/23 51/62/22
f 54/66/26 52/64/24 49/61/21
f 50/63/23 53/65/25 55/67/27
f 52/64/24 54/66/26 56/68/11
f 55/67/27 56/68/11 54/66/26
f 56/68/11 55/67/27 53/65/25
f 57/69/28 59/70/29 58/71/30
f 60/72/31 59/70/29 57/69/28
f 61/73/32 58/71/30 59/70/29
f 62/74/33 60/72/31 57/69/28
f 58/71/30 61/73/32 63/75/2
f 60/72/31 62/74/33 64/76/34
f 63/75/2 64/76/34 62/74/33
f 64/76/34 63/75/2 61/73/32
