# Blender v3.1.2 OBJ File: 'track.blend'
# www.blender.org
mtllib Scene.411.mtl
o _0AD_UBS_002_Scene.411
v -18051.650391 32010.101562 -464.942780
v -18062.320312 32497.400391 -457.338104
v -18062.330078 32495.621094 -343.082916
v -18051.660156 32008.310547 -350.687592
v -17996.910156 29510.998047 -503.942810
v -17990.878906 29009.451172 -397.487579
v -17990.820312 29011.230469 -511.742798
v -17996.919922 29509.218750 -389.687622
v -18018.800781 30510.640625 -488.342804
v -18029.750000 31010.460938 -480.542816
v -18029.761719 31008.679688 -366.287598
v -18018.808594 30508.859375 -374.087585
v -18040.699219 31510.281250 -472.742798
v -18040.710938 31508.500000 -358.487610
v -18007.851562 30010.818359 -496.142822
v -18007.859375 30009.039062 -381.887604
v -17995.330078 28509.531250 -405.287598
v -17995.259766 28511.310547 -519.542786
vt 0.001376 1.806681
vt 0.123081 1.755052
vt 0.123081 1.806681
vt 0.001376 1.755052
vt 0.123081 1.806681
vt 0.001376 1.806681
vt 0.001376 1.755052
vt 0.123081 1.755052
vt 0.001376 1.806681
vt 0.123081 1.755052
vt 0.123081 1.806681
vt 0.001376 1.755052
vt 0.001376 1.806681
vt 0.123081 1.755052
vt 0.123081 1.806681
vt 0.001376 1.755052
vt 0.001376 1.806681
vt 0.123081 1.755052
vt 0.123081 1.806681
vt 0.001376 1.755052
vt 0.001376 1.806681
vt 0.123081 1.755052
vt 0.123081 1.806681
vt 0.001376 1.755052
vt 0.001376 1.806681
vt 0.123081 1.755052
vt 0.123081 1.806681
vt 0.001376 1.755052
vt 0.123081 1.806681
vt 0.001376 1.806681
vt 0.001376 1.755052
vt 0.123081 1.755052
vn -0.9998 -0.0219 -0.0004
vn -0.9999 -0.0170 -0.0004
vn -1.0000 -0.0016 -0.0005
vn -0.9999 -0.0170 -0.0007
vn -1.0000 0.0089 -0.0005
usemtl EnvironmentMat.001
s 1
f 1/1/1 3/2/1 2/3/1
f 3/2/1 1/1/1 4/4/1
f 5/5/2 7/6/3 6/7/3
f 5/5/2 6/7/3 8/8/4
f 9/9/1 11/10/1 10/11/1
f 11/10/1 9/9/1 12/12/1
f 13/13/1 4/14/1 1/15/1
f 4/14/1 13/13/1 14/16/1
f 10/17/1 14/18/1 13/19/1
f 14/18/1 10/17/1 11/20/1
f 15/21/1 12/22/1 9/23/1
f 12/22/1 15/21/1 16/24/1
f 5/25/2 16/26/1 15/27/1
f 16/26/1 5/25/2 8/28/4
f 7/29/3 18/30/5 17/31/5
f 7/29/3 17/31/5 6/32/3
