# Blender v3.1.2 OBJ File: 'track.blend'
# www.blender.org
mtllib Scene.774.mtl
o _3RUNOFF_SUB1_Scene.774
v 15161.790039 23396.220703 -254.776093
v 15062.030273 23528.429688 -254.776093
v 14998.570312 23227.871094 -254.802490
v 15119.791016 23197.019531 -260.267487
v 14936.099609 22927.150391 -254.834106
v 15044.270508 22836.701172 -260.042175
v 14874.789062 22626.279297 -254.874802
v 14954.089844 22396.380859 -259.882904
v 14814.860352 22325.230469 -254.928589
v 14870.170898 21992.210938 -259.629517
v 14759.660156 22031.400391 -255.014389
v 14712.570312 21752.201172 -255.151199
v 14781.919922 21560.789062 -246.884796
v 14676.950195 21495.039062 -255.357910
v 14767.629883 21419.458984 -253.016907
v 14656.190430 21267.320312 -255.653412
v 14760.319336 21298.900391 -253.007095
v 14758.580078 21168.419922 -253.252197
v 14650.959961 21165.429688 -255.825592
v 14760.719727 21113.250000 -253.355911
v 14655.740234 21063.179688 -255.997894
v 14765.449219 20990.830078 -253.694199
v 14664.840820 20969.458984 -256.174805
v 14777.589844 20928.439453 -253.706604
v 14681.100586 20876.820312 -256.351715
v 14793.539062 20862.839844 -253.803802
v 14704.581055 20788.529297 -256.513306
v 14810.750000 20807.320312 -253.920700
v 14824.080078 20753.320312 -254.189987
v 14737.730469 20702.388672 -256.674896
v 14781.019531 20616.789062 -256.801300
v 14871.159180 20648.628906 -254.153793
v 14831.109375 20534.050781 -256.927795
v 14910.859375 20588.330078 -254.323196
v 14948.320312 20534.519531 -254.723816
v 14891.050781 20452.750000 -257.131409
v 15040.668945 20429.509766 -254.387207
v 14959.150391 20377.900391 -257.334991
v 15032.969727 20307.310547 -257.728210
v 15089.599609 20384.628906 -254.641891
v 15147.529297 20341.800781 -254.654007
v 15119.749023 20240.009766 -258.121307
v 15265.719727 20275.509766 -254.372818
v 15210.549805 20179.378906 -258.816193
v 13210.660156 21605.458984 -254.875992
v 13146.789062 21231.519531 -256.065613
v 13447.659180 21216.291016 -256.065613
v 13470.700195 21588.339844 -254.875992
v 13250.040039 21949.990234 -254.148407
v 13510.080078 21932.878906 -254.148407
v 13301.609375 22273.890625 -253.769501
v 13561.650391 22256.769531 -253.769501
v 13361.239258 22584.000000 -253.626297
v 13621.270508 22566.878906 -253.626297
v 13424.769531 22887.189453 -253.605606
v 13684.809570 22870.070312 -253.605606
v 13488.070312 23190.320312 -253.594086
v 13748.109375 23173.199219 -253.594086
v 13551.339844 23493.380859 -253.589203
v 13811.379883 23476.259766 -253.589203
v 13614.770508 23796.359375 -253.588104
v 13874.809570 23779.240234 -253.588104
v 13678.570312 24099.240234 -253.588013
v 13938.609375 24082.111328 -253.588013
v 13742.930664 24402.000000 -253.586288
v 14002.969727 24384.869141 -253.586288
v 13807.839844 24704.621094 -253.582901
v 14067.869141 24687.490234 -253.582901
v 13873.250000 25007.070312 -253.578308
v 14133.290039 24989.958984 -253.578308
v 13939.160156 25309.359375 -253.572296
v 14199.200195 25292.240234 -253.572296
v 14005.520508 25611.441406 -253.565399
v 14265.559570 25594.320312 -253.565399
v 14072.250000 25913.298828 -253.557800
v 14332.291016 25896.169922 -253.557800
v 14139.239258 26214.898438 -253.550201
v 14399.279297 26197.781250 -253.550201
v 14206.390625 26516.228516 -253.542801
v 14466.430664 26499.109375 -253.542801
v 14273.599609 26817.269531 -253.536301
v 14533.639648 26800.140625 -253.536301
v 14340.700195 27118.021484 -253.531693
v 14600.740234 27100.900391 -253.531693
v 14407.519531 27418.539062 -253.530197
v 14667.559570 27401.410156 -253.530197
v 14473.890625 27718.798828 -253.532913
v 14733.929688 27701.691406 -253.532913
v 14539.629883 28018.890625 -253.541092
v 14799.669922 28001.761719 -253.541092
v 14604.871094 28318.929688 -253.567596
v 14864.909180 28301.810547 -253.567596
v 14669.729492 28619.109375 -253.625305
v 14929.769531 28601.998047 -253.625305
v 14734.331055 28919.601562 -253.727295
v 14994.369141 28902.468750 -253.727295
v 14949.389648 29210.640625 -253.886383
v 14798.770508 29220.560547 -253.886383
v 15058.810547 29203.439453 -253.886383
v 15024.989258 29342.138672 -251.157303
v 15079.480469 29430.779297 -251.365585
v 15123.150391 29504.740234 -254.093201
v 15444.720703 18724.480469 -264.778076
v 15173.510742 18808.970703 -263.791809
v 15190.310547 18787.710938 -263.870300
v 15439.860352 18709.978516 -264.778076
v 15224.660156 18760.990234 -261.012787
v 15557.159180 18673.539062 -265.153107
v 15562.770508 18687.740234 -265.153107
v 15434.990234 18695.468750 -261.778107
v 15261.219727 18714.740234 -261.184082
v 15551.550781 18659.330078 -262.153107
v 15670.719727 18627.089844 -265.528107
v 15677.070312 18641.009766 -265.528107
v 15424.409180 18663.910156 -261.778107
v 15412.750000 18523.109375 -261.863007
v 15539.349609 18628.410156 -262.153107
v 15591.250977 18373.441406 -262.651306
v 15664.360352 18613.179688 -262.528198
v 15650.529297 18582.900391 -262.528198
v 15735.760742 18541.169922 -262.684479
v 15694.099609 18273.019531 -262.761414
v 15760.169922 18582.900391 -265.684387
v 15767.849609 18596.041016 -265.684387
v 15752.479492 18569.759766 -262.684479
v 15845.750000 18528.810547 -265.840698
v 15854.760742 18541.169922 -265.840698
v 15817.120117 18489.560547 -262.840698
v 15836.740234 18516.458984 -262.840698
v 15910.310547 18475.650391 -265.825897
v 15920.759766 18486.638672 -265.825897
v 15877.090820 18440.769531 -262.825897
v 15899.850586 18464.669922 -262.825897
v 15933.180664 18382.070312 -262.811005
v 15767.830078 18159.689453 -262.464417
v 15970.990234 18412.601562 -265.811005
v 15982.890625 18422.210938 -265.811005
v 15959.089844 18402.990234 -262.811005
v 16017.730469 18346.369141 -265.672699
v 16030.729492 18354.140625 -265.672699
v 16066.530273 18281.351562 -265.534302
v 15976.440430 18321.679688 -262.672577
v 16004.730469 18338.599609 -262.672577
v 16052.430664 18275.419922 -265.534302
v 16094.669922 18200.958984 -265.319977
v 16038.330078 18269.478516 -262.534302
v 16007.650391 18256.550781 -262.534302
v 16033.689453 18183.589844 -262.320007
v 15845.390625 17958.339844 -265.578613
v 16080.070312 18196.800781 -265.319977
v 16110.769531 18115.839844 -265.105713
v 16065.469727 18192.650391 -262.320007
v 16095.660156 18113.458984 -265.105713
v 16080.549805 18111.080078 -262.105713
v 16107.040039 18019.119141 -264.863098
v 16122.239258 18020.210938 -264.863098
v 16047.669922 18105.890625 -262.105713
v 16091.839844 18018.041016 -261.863220
v 16058.749023 18015.669922 -261.863220
v 16110.870117 17924.369141 -264.620605
v 16126.160156 17924.169922 -264.620605
v 16119.720703 17816.349609 -264.345703
v 16062.280273 17925.019531 -261.620605
v 16095.570312 17924.580078 -261.620605
v 16104.469727 17817.330078 -264.345703
v 16092.900391 17635.439453 -263.889923
v 16056.049805 17820.449219 -265.117096
v 15936.059570 17752.138672 -265.150909
v 15960.809570 17685.718750 -260.977417
v 16089.230469 17818.310547 -265.117096
v 16077.820312 17637.990234 -263.891296
v 16009.621094 17582.150391 -260.755798
v 16044.889648 17524.291016 -260.588989
v 16055.819336 17494.740234 -263.518311
v 16066.750000 17465.189453 -263.448090
vt -5.906642 -0.462373
vt -5.334908 0.124423
vt -6.378288 -0.127105
vt -5.214676 -0.296257
vt -4.290864 0.373446
vt -3.963568 0.004427
vt -3.245923 0.618953
vt -2.433944 0.365586
vt -2.200144 0.860308
vt -1.029490 0.702810
vt -1.179016 1.085261
vt -0.208080 1.282019
vt 0.470401 1.061961
vt 0.686645 1.438967
vt 0.963686 1.132129
vt 1.479897 1.544036
vt 1.384910 1.174942
vt 1.841484 1.200925
vt 1.834982 1.577910
vt 2.035240 1.202463
vt 2.192824 1.577905
vt 2.464399 1.206583
vt 2.521477 1.562106
vt 2.685093 1.175311
vt 2.847774 1.522146
vt 2.917756 1.131739
vt 3.160394 1.456957
vt 3.115438 1.082200
vt 3.307211 1.046354
vt 3.467590 1.358573
vt 3.775347 1.225406
vt 3.683230 0.903538
vt 4.074984 1.068549
vt 3.902909 0.777728
vt 4.099731 0.658790
vt 4.372456 0.877769
vt 4.488306 0.360174
vt 4.649704 0.657331
vt 4.913841 0.416178
vt 4.656897 0.199635
vt 4.820631 0.007285
vt 5.170051 0.129125
vt 5.081107 -0.390052
vt 5.404220 -0.173632
vt 22.012791 -0.595469
vt 23.206610 -1.678109
vt 23.354250 -0.622856
vt 21.898800 -1.510032
vt 20.790091 -0.502494
vt 20.675920 -1.416739
vt 19.631491 -0.465414
vt 19.517080 -1.379162
vt 18.516081 -0.465158
vt 18.401360 -1.378257
vt 17.422859 -0.482610
vt 17.307730 -1.394945
vt 16.330919 -0.498693
vt 16.215349 -1.410181
vt 15.240240 -0.514005
vt 15.124150 -1.424593
vt 14.150760 -0.529211
vt 14.034090 -1.438819
vt 13.062510 -0.544928
vt 12.945220 -1.453418
vt 11.975600 -0.561763
vt 11.857640 -1.468987
vt 10.890290 -0.579582
vt 10.771620 -1.485425
vt 9.806749 -0.598162
vt 9.687302 -1.502602
vt 8.724989 -0.617324
vt 8.604742 -1.520432
vt 7.644995 -0.636991
vt 7.523914 -1.538820
vt 6.566891 -0.656824
vt 6.444966 -1.557405
vt 5.490753 -0.676489
vt 5.367984 -1.575870
vt 4.416646 -0.695624
vt 4.293011 -1.593942
vt 3.344527 -0.713916
vt 3.220004 -1.611280
vt 2.274319 -0.730765
vt 2.148910 -1.627277
vt 1.205874 -0.745608
vt 1.079664 -1.641377
vt 0.139151 -0.757984
vt 0.012182 -1.653112
vt -0.925939 -0.767410
vt -1.053538 -1.661979
vt -1.990066 -0.774342
vt -2.118221 -1.668401
vt -3.053991 -0.779193
vt -3.182562 -1.672822
vt -4.118406 -0.782444
vt -4.247255 -1.675694
vt -5.258702 -1.301754
vt -5.184062 -0.784488
vt -5.313061 -1.677308
vt -5.757965 -1.462902
vt -6.096834 -1.583270
vt -6.378288 -1.678101
vt -5.604717 2.567825
vt -6.284012 3.180936
vt -6.378288 3.187882
vt -5.572176 2.610131
vt -6.139009 3.134661
vt -5.238791 2.340752
vt -5.269142 2.296929
vt -5.539012 2.653253
vt -5.933653 3.119289
vt -5.207864 2.385413
vt -4.883802 2.101063
vt -4.911925 2.055658
vt -5.468096 2.745328
vt -5.082014 3.053352
vt -5.141801 2.480848
vt -4.299528 2.825194
vt -4.855151 2.147337
vt -4.793929 2.246176
vt -4.507504 2.079130
vt -3.807173 2.720371
vt -4.582120 1.926477
vt -4.605460 1.878696
vt -4.558306 1.975141
vt -4.259026 1.782000
vt -4.277577 1.731846
vt -4.199759 1.942239
vt -4.240122 1.833089
vt -3.979305 1.696748
vt -3.991100 1.645045
vt -3.941651 1.861978
vt -3.967275 1.749445
vt -3.662195 1.812006
vt -3.333528 2.724779
vt -3.678163 1.641823
vt -3.683150 1.588533
vt -3.673066 1.696096
vt -3.394689 1.633616
vt -3.392223 1.580695
vt -3.110791 1.616984
vt -3.402551 1.802677
vt -3.397195 1.687548
vt -3.120706 1.669537
vt -2.822043 1.690155
vt -3.130803 1.723099
vt -3.152388 1.837497
vt -2.889347 1.902456
vt -2.595362 2.887519
vt -2.838088 1.740785
vt -2.542675 1.807395
vt -2.854426 1.792328
vt -2.564850 1.856068
vt -2.587429 1.905694
vt -2.267548 2.004628
vt -2.241435 1.958134
vt -2.635700 2.011611
vt -2.294125 2.052047
vt -2.350967 2.153242
vt -1.983320 2.176083
vt -1.953213 2.131806
vt -1.650927 2.359035
vt -2.079383 2.317585
vt -2.013968 2.221203
vt -1.683205 2.401709
vt -1.173115 2.785549
vt -1.785574 2.537456
vt -1.817294 3.020200
vt -1.574556 3.075867
vt -1.715448 2.444495
vt -1.209514 2.824831
vt -1.177071 3.132225
vt -0.939548 3.140003
vt -0.831130 3.163566
vt -0.723427 3.187876
vn -0.0144 0.0141 -0.9998
vn -0.0278 0.0113 -0.9995
vn -0.0143 0.0140 -0.9998
vn -0.0285 0.0112 -0.9995
vn -0.0414 0.0083 -0.9991
vn -0.0410 0.0082 -0.9991
vn -0.0403 0.0080 -0.9992
vn -0.0397 0.0079 -0.9992
vn -0.0395 0.0077 -0.9992
vn -0.0190 -0.0059 -0.9998
vn -0.0226 -0.0036 -0.9997
vn 0.0120 -0.0164 -0.9998
vn 0.0638 0.0014 -0.9980
vn 0.0557 0.0117 -0.9984
vn 0.0350 0.0107 -0.9993
vn 0.0249 0.0001 -0.9997
vn 0.0250 -0.0003 -0.9997
vn 0.0241 0.0019 -0.9997
vn 0.0239 0.0017 -0.9997
vn 0.0237 0.0031 -0.9997
vn 0.0237 0.0035 -0.9997
vn 0.0236 0.0043 -0.9997
vn 0.0239 0.0050 -0.9997
vn 0.0237 0.0061 -0.9997
vn 0.0238 0.0071 -0.9997
vn 0.0233 0.0082 -0.9997
vn 0.0230 0.0094 -0.9997
vn 0.0229 0.0096 -0.9997
vn 0.0229 0.0111 -0.9997
vn 0.0231 0.0111 -0.9997
vn 0.0232 0.0137 -0.9996
vn 0.0233 0.0141 -0.9996
vn 0.0207 0.0171 -0.9996
vn 0.0197 0.0179 -0.9996
vn 0.0201 0.0181 -0.9996
vn 0.0201 0.0229 -0.9995
vn 0.0203 0.0216 -0.9996
vn 0.0188 0.0270 -0.9995
vn 0.0189 0.0267 -0.9995
vn 0.0181 0.0297 -0.9994
vn 0.0180 0.0307 -0.9994
vn 0.0177 0.0326 -0.9993
vn 0.0177 0.0325 -0.9993
vn 0.0002 0.0027 -1.0000
vn 0.0002 0.0032 -1.0000
vn 0.0002 0.0026 -1.0000
vn 0.0001 0.0016 -1.0000
vn 0.0001 0.0008 -1.0000
vn 0.0000 0.0003 -1.0000
vn 0.0000 0.0002 -1.0000
vn 0.0000 0.0001 -1.0000
vn 0.0000 0.0000 -1.0000
vn -0.0000 -0.0001 -1.0000
vn -0.0000 -0.0003 -1.0000
vn -0.0000 -0.0004 -1.0000
vn 0.0003 0.0049 -1.0000
vn -0.0000 -0.0005 -1.0000
vn -0.0058 0.0100 -0.9999
vn -0.0191 0.0150 -0.9997
vn -0.0854 0.0188 -0.9962
vn -0.0956 0.0197 -0.9952
vn -0.0031 0.0010 -1.0000
vn -0.0105 -0.0221 -0.9997
vn -0.0033 0.0011 -1.0000
vn -0.0318 -0.0913 -0.9953
vn -0.0505 -0.1504 -0.9873
vn -0.0347 -0.0875 -0.9956
vn -0.0028 0.0011 -1.0000
vn -0.0318 -0.0912 -0.9953
vn -0.0364 -0.0926 -0.9950
vn -0.0409 -0.0853 -0.9955
vn -0.0021 0.0010 -1.0000
vn -0.0032 0.0010 -1.0000
vn -0.0030 0.0011 -1.0000
vn -0.0016 0.0008 -1.0000
vn -0.0427 -0.0891 -0.9951
vn -0.0022 0.0011 -1.0000
vn -0.0014 0.0008 -1.0000
vn -0.0001 -0.0008 -1.0000
vn -0.0471 -0.0808 -0.9956
vn -0.0013 0.0008 -1.0000
vn -0.0502 -0.0865 -0.9950
vn -0.0550 -0.0750 -0.9957
vn -0.0005 0.0004 -1.0000
vn -0.0007 0.0003 -1.0000
vn -0.0594 -0.0811 -0.9949
vn -0.0637 -0.0690 -0.9956
vn 0.0001 -0.0001 -1.0000
vn 0.0000 -0.0002 -1.0000
vn -0.0681 -0.0740 -0.9949
vn 0.0005 -0.0010 -1.0000
vn 0.0001 0.0045 -1.0000
vn -0.0704 -0.0594 -0.9957
vn 0.0006 -0.0007 -1.0000
vn -0.0774 -0.0654 -0.9949
vn -0.0789 -0.0487 -0.9957
vn 0.0009 -0.0014 -1.0000
vn 0.0008 -0.0020 -1.0000
vn 0.0007 -0.0017 -1.0000
vn -0.0871 -0.0536 -0.9948
vn -0.0852 -0.0380 -0.9956
vn 0.0007 -0.0024 -1.0000
vn -0.0915 -0.0407 -0.9950
vn 0.0008 -0.0022 -1.0000
vn 0.0028 0.0000 -1.0000
vn 0.0090 0.0090 -0.9999
vn -0.0885 -0.0264 -0.9957
vn 0.0004 -0.0025 -1.0000
vn -0.0980 -0.0288 -0.9948
vn -0.0933 -0.0169 -0.9955
vn -0.0973 -0.0175 -0.9951
vn -0.0941 -0.0101 -0.9955
vn 0.0002 -0.0025 -1.0000
vn 0.0086 -0.0013 -1.0000
vn -0.0990 -0.0106 -0.9950
vn 0.0087 -0.0019 -1.0000
vn -0.0642 0.0009 -0.9979
vn -0.0000 -0.0025 -1.0000
vn -0.0002 -0.0025 -1.0000
vn 0.0071 0.0108 -0.9999
vn -0.0682 0.0097 -0.9976
vn -0.0224 0.0022 -0.9997
vn -0.0003 -0.0025 -1.0000
vn 0.0053 -0.0009 -1.0000
vn 0.0209 -0.0222 -0.9995
vn -0.0055 -0.0243 -0.9997
vn -0.0246 0.0070 -0.9997
vn -0.0162 -0.0068 -0.9998
vn -0.0303 -0.0191 -0.9994
vn -0.1508 0.0150 -0.9885
vn -0.0316 0.0023 -0.9995
vn -0.0004 -0.0025 -1.0000
usemtl RunoffgreenMat.001
s 1
f 1/1/1 3/2/2 2/3/3
f 3/2/2 1/1/1 4/4/4
f 4/4/4 5/5/5 3/2/2
f 5/5/5 4/4/4 6/6/6
f 7/7/7 5/5/5 6/6/6
f 7/7/7 6/6/6 8/8/8
f 9/9/9 7/7/7 8/8/8
f 9/9/9 8/8/8 10/10/10
f 11/11/11 9/9/9 10/10/10
f 12/12/12 11/11/11 10/10/10
f 10/10/10 13/13/13 12/12/12
f 14/14/14 12/12/12 13/13/13
f 14/14/14 13/13/13 15/15/15
f 15/15/15 16/16/16 14/14/14
f 16/16/16 15/15/15 17/17/17
f 18/18/18 16/16/16 17/17/17
f 18/18/18 19/19/19 16/16/16
f 20/20/20 19/19/19 18/18/18
f 19/19/19 20/20/20 21/21/21
f 22/22/22 21/21/21 20/20/20
f 22/22/22 23/23/23 21/21/21
f 24/24/24 23/23/23 22/22/22
f 23/23/23 24/24/24 25/25/25
f 26/26/26 25/25/25 24/24/24
f 26/26/26 27/27/27 25/25/25
f 27/27/27 26/26/26 28/28/28
f 29/29/29 27/27/27 28/28/28
f 27/27/27 29/29/29 30/30/30
f 29/29/29 31/31/31 30/30/30
f 31/31/31 29/29/29 32/32/32
f 33/33/33 31/31/31 32/32/32
f 32/32/32 34/34/33 33/33/33
f 35/35/34 33/33/33 34/34/33
f 33/33/33 35/35/34 36/36/35
f 37/37/36 36/36/35 35/35/34
f 36/36/35 37/37/36 38/38/37
f 37/37/36 39/39/38 38/38/37
f 39/39/38 37/37/36 40/40/39
f 41/41/40 39/39/38 40/40/39
f 39/39/38 41/41/40 42/42/41
f 41/41/40 43/43/42 42/42/41
f 42/42/41 43/43/42 44/44/43
f 45/45/44 47/46/45 46/47/45
f 47/46/45 45/45/44 48/48/46
f 49/49/47 48/48/46 45/45/44
f 48/48/46 49/49/47 50/50/47
f 51/51/48 50/50/47 49/49/47
f 50/50/47 51/51/48 52/52/48
f 53/53/49 52/52/48 51/51/48
f 52/52/48 53/53/49 54/54/50
f 55/55/51 54/54/50 53/53/49
f 54/54/50 55/55/51 56/56/51
f 57/57/52 56/56/51 55/55/51
f 56/56/51 57/57/52 58/58/52
f 59/59/52 58/58/52 57/57/52
f 58/58/52 59/59/52 60/60/52
f 61/61/52 60/60/52 59/59/52
f 60/60/52 61/61/52 62/62/52
f 63/63/52 62/62/52 61/61/52
f 62/62/52 63/63/52 64/64/52
f 65/65/52 64/64/52 63/63/52
f 64/64/52 65/65/52 66/66/52
f 67/67/52 66/66/52 65/65/52
f 66/66/52 67/67/52 68/68/52
f 69/69/52 68/68/52 67/67/52
f 68/68/52 69/69/52 70/70/52
f 71/71/52 70/70/52 69/69/52
f 70/70/52 71/71/52 72/72/52
f 73/73/52 72/72/52 71/71/52
f 72/72/52 73/73/52 74/74/52
f 75/75/52 74/74/52 73/73/52
f 74/74/52 75/75/52 76/76/52
f 77/77/52 76/76/52 75/75/52
f 76/76/52 77/77/52 78/78/52
f 79/79/52 78/78/52 77/77/52
f 78/78/52 79/79/52 80/80/52
f 81/81/52 80/80/52 79/79/52
f 80/80/52 81/81/52 82/82/52
f 83/83/52 82/82/52 81/81/52
f 82/82/52 83/83/52 84/84/52
f 85/85/52 84/84/52 83/83/52
f 84/84/52 85/85/52 86/86/52
f 87/87/52 86/86/52 85/85/52
f 86/86/52 87/87/52 88/88/52
f 89/89/53 88/88/52 87/87/52
f 88/88/52 89/89/53 90/90/53
f 91/91/53 90/90/53 89/89/53
f 90/90/53 91/91/53 92/92/53
f 93/93/54 92/92/53 91/91/53
f 92/92/53 93/93/54 94/94/54
f 95/95/55 94/94/54 93/93/54
f 94/94/54 95/95/55 96/96/55
f 97/97/56 96/96/55 95/95/55
f 98/98/57 97/97/56 95/95/55
f 96/96/55 97/97/56 99/99/58
f 99/99/58 97/97/56 100/100/59
f 101/101/60 99/99/58 100/100/59
f 102/102/61 99/99/58 101/101/60
f 103/103/62 105/104/63 104/105/64
f 105/104/63 103/103/62 106/106/65
f 106/106/65 107/107/66 105/104/63
f 108/108/67 106/106/65 103/103/62
f 103/103/62 109/109/68 108/108/67
f 107/107/66 106/106/65 110/110/69
f 110/110/69 111/111/64 107/107/66
f 106/106/65 108/108/67 112/112/70
f 112/112/70 110/110/69 106/106/65
f 113/113/71 108/108/67 109/109/68
f 109/109/68 114/114/72 113/113/71
f 111/111/64 110/110/69 115/115/73
f 111/111/64 115/115/73 116/116/64
f 117/117/74 115/115/73 110/110/69
f 115/115/73 117/117/74 116/116/64
f 110/110/69 112/112/70 117/117/74
f 117/117/74 118/118/75 116/116/64
f 119/119/76 112/112/70 108/108/67
f 108/108/67 113/113/71 119/119/76
f 120/120/77 117/117/74 112/112/70
f 117/117/74 120/120/77 118/118/75
f 112/112/70 119/119/76 120/120/77
f 121/121/78 118/118/75 120/120/77
f 121/121/78 120/120/77 119/119/76
f 122/122/79 118/118/75 121/121/78
f 123/123/80 113/113/71 114/114/72
f 114/114/72 124/124/81 123/123/80
f 125/125/82 119/119/76 113/113/71
f 119/119/76 125/125/82 121/121/78
f 113/113/71 123/123/80 125/125/82
f 126/126/83 123/123/80 124/124/81
f 124/124/81 127/127/84 126/126/83
f 128/128/85 121/121/78 125/125/82
f 128/128/85 122/122/79 121/121/78
f 129/129/86 125/125/82 123/123/80
f 125/125/82 129/129/86 128/128/85
f 123/123/80 126/126/83 129/129/86
f 130/130/87 126/126/83 127/127/84
f 127/127/84 131/131/88 130/130/87
f 122/122/79 128/128/85 132/132/89
f 129/129/86 132/132/89 128/128/85
f 133/133/90 129/129/86 126/126/83
f 129/129/86 133/133/90 132/132/89
f 126/126/83 130/130/87 133/133/90
f 134/134/91 122/122/79 132/132/89
f 133/133/90 134/134/91 132/132/89
f 135/135/92 122/122/79 134/134/91
f 136/136/93 130/130/87 131/131/88
f 131/131/88 137/137/94 136/136/93
f 138/138/95 133/133/90 130/130/87
f 133/133/90 138/138/95 134/134/91
f 130/130/87 136/136/93 138/138/95
f 137/137/94 139/139/96 136/136/93
f 137/137/94 140/140/97 139/139/96
f 141/141/98 139/139/96 140/140/97
f 138/138/95 142/142/99 134/134/91
f 142/142/99 135/135/92 134/134/91
f 136/136/93 143/143/100 138/138/95
f 136/136/93 139/139/96 143/143/100
f 138/138/95 143/143/100 142/142/99
f 139/139/96 141/141/98 144/144/101
f 144/144/101 143/143/100 139/139/96
f 145/145/102 144/144/101 141/141/98
f 146/146/103 142/142/99 143/143/100
f 143/143/100 144/144/101 146/146/103
f 135/135/92 142/142/99 147/147/104
f 142/142/99 146/146/103 147/147/104
f 148/148/105 135/135/92 147/147/104
f 146/146/103 148/148/105 147/147/104
f 149/149/106 135/135/92 148/148/105
f 144/144/101 145/145/102 150/150/107
f 151/151/108 150/150/107 145/145/102
f 144/144/101 152/152/109 146/146/103
f 152/152/109 144/144/101 150/150/107
f 148/148/105 146/146/103 152/152/109
f 150/150/107 151/151/108 153/153/110
f 153/153/110 152/152/109 150/150/107
f 154/154/111 148/148/105 152/152/109
f 152/152/109 153/153/110 154/154/111
f 151/151/108 155/155/112 153/153/110
f 155/155/112 151/151/108 156/156/113
f 157/157/114 149/149/106 148/148/105
f 148/148/105 154/154/111 157/157/114
f 153/153/110 158/158/115 154/154/111
f 158/158/115 153/153/110 155/155/112
f 154/154/111 159/159/116 157/157/114
f 149/149/106 157/157/114 159/159/116
f 159/159/116 154/154/111 158/158/115
f 156/156/113 160/160/117 155/155/112
f 160/160/117 156/156/113 161/161/118
f 162/162/119 160/160/117 161/161/118
f 163/163/120 149/149/106 159/159/116
f 158/158/115 163/163/120 159/159/116
f 155/155/112 164/164/121 158/158/115
f 164/164/121 155/155/112 160/160/117
f 163/163/120 158/158/115 164/164/121
f 160/160/117 162/162/119 165/165/122
f 165/165/122 164/164/121 160/160/117
f 166/166/123 165/165/122 162/162/119
f 167/167/124 149/149/106 163/163/120
f 149/149/106 167/167/124 168/168/125
f 167/167/124 169/169/126 168/168/125
f 170/170/127 163/163/120 164/164/121
f 163/163/120 170/170/127 167/167/124
f 164/164/121 165/165/122 170/170/127
f 170/170/127 169/169/126 167/167/124
f 171/171/128 170/170/127 165/165/122
f 170/170/127 171/171/128 169/169/126
f 165/165/122 166/166/123 171/171/128
f 172/172/129 169/169/126 171/171/128
f 173/173/130 172/172/129 171/171/128
f 171/171/128 174/174/131 173/173/130
f 166/166/123 174/174/131 171/171/128
f 166/166/123 175/175/132 174/174/131
