# Blender v3.1.2 OBJ File: 'track.blend'
# www.blender.org
mtllib Scene.735.mtl
o _1WALL_small03_EMIRATES_002_SUB0_Scene.735
v 16799.580078 31118.201172 -370.393402
v 16904.208984 31526.361328 -274.034393
v 16887.041016 31529.800781 -372.203125
v 16816.740234 31114.718750 -272.224579
v 16780.619141 31122.281250 -370.393494
v 16868.080078 31533.890625 -372.203125
v 16865.970703 31534.179688 -370.671906
v 16778.509766 31122.580078 -368.862213
v 16904.250000 31526.541016 -202.203613
v 16816.769531 31114.871094 -200.393799
v 16632.330078 30335.941406 -369.527893
v 16732.910156 30723.498047 -271.634888
v 16715.769531 30727.050781 -369.803894
v 16649.458984 30332.330078 -271.358887
v 16613.361328 30339.980469 -369.527893
v 16696.800781 30731.109375 -369.803802
v 16694.689453 30731.408203 -368.272797
v 16611.250000 30340.279297 -367.997009
v 16732.929688 30723.568359 -199.804001
v 16649.470703 30332.361328 -199.527893
v 16466.318359 29553.271484 -369.575195
v 16566.298828 29940.949219 -271.320618
v 16549.179688 29944.589844 -369.489502
v 16483.451172 29549.630859 -271.406189
v 16530.199219 29948.611328 -369.489502
v 16447.349609 29557.291016 -369.575195
v 16528.089844 29948.910156 -367.958588
v 16445.230469 29557.580078 -368.044403
v 16566.298828 29940.939453 -199.489609
v 16483.451172 29549.619141 -199.575302
v 16301.120117 28770.150391 -369.350586
v 16400.779297 29158.121094 -271.445496
v 16383.639648 29161.718750 -369.614502
v 16318.280273 28766.699219 -271.181702
v 16282.130859 28774.148438 -369.350494
v 16364.660156 29165.718750 -369.614410
v 16362.550781 29166.009766 -368.083496
v 16280.020508 28774.451172 -367.819489
v 16400.779297 29158.128906 -199.614502
v 16318.299805 28766.808594 -199.350800
vt -1.021971 2.001424
vt 2.977629 2.001424
vt 2.977629 1.108993
vt -1.021971 1.108994
vt 2.977629 1.899918
vt -1.021971 1.899918
vt -1.021971 1.695245
vt 2.977629 1.695245
vt 2.977629 1.688305
vt -1.021971 1.688305
vt 2.977629 0.755510
vt -1.021971 0.755511
vt -1.021971 2.001424
vt 2.977629 2.001424
vt 2.977629 1.108993
vt -1.021971 1.108994
vt 2.977629 1.899918
vt -1.021971 1.899918
vt -1.021971 1.695245
vt 2.977629 1.695245
vt 2.977629 1.688305
vt -1.021971 1.688305
vt 2.977629 0.755510
vt -1.021971 0.755511
vt -1.021971 2.001424
vt 2.977629 2.001424
vt 2.977629 1.108993
vt -1.021971 1.108994
vt 2.977629 1.899918
vt -1.021971 1.899918
vt -1.021971 1.695245
vt 2.977629 1.695245
vt 2.977629 1.688305
vt -1.021971 1.688305
vt 2.977629 0.755510
vt -1.021971 0.755511
vt -1.021971 2.001424
vt 2.977629 2.001424
vt 2.977629 1.108993
vt -1.021971 1.108994
vt -1.021971 1.899918
vt 2.977629 1.695245
vt 2.977629 1.899918
vt -1.021971 1.695245
vt 2.977629 1.688305
vt -1.021971 1.688305
vt 2.977629 0.755510
vt -1.021971 0.755511
vt -1.021971 2.001424
vt 2.977629 2.001424
vt 2.977629 1.108993
vt -1.021971 1.108994
vt -1.021971 1.899918
vt 2.977629 1.695245
vt 2.977629 1.899918
vt -1.021971 1.695245
vt 2.977629 1.688305
vt -1.021971 1.688305
vt 2.977629 0.755510
vt -1.021971 0.755511
vt -1.021971 2.001424
vt 2.977629 2.001424
vt 2.977629 1.108993
vt -1.021971 1.108994
vt 2.977629 1.899918
vt -1.021971 1.899918
vt -1.021971 1.695245
vt 2.977629 1.695245
vt 2.977629 1.688305
vt -1.021971 1.688305
vt 2.977629 0.755510
vt -1.021971 0.755511
vt -1.021971 2.001424
vt 2.977629 2.001424
vt 2.977629 1.108993
vt -1.021971 1.108994
vt 2.977629 1.899918
vt -1.021971 1.899918
vt -1.021971 1.695245
vt 2.977629 1.695245
vt 2.977629 1.688305
vt -1.021971 1.688305
vt 2.977629 0.755510
vt -1.021971 0.755511
vn 0.9627 -0.2059 -0.1755
vn 0.9628 -0.2054 -0.1756
vn 0.9627 -0.2060 -0.1756
vn 0.9627 -0.2059 -0.1756
vn -0.0009 -0.0042 -1.0000
vn -0.0006 -0.0028 -1.0000
vn -0.0006 -0.0029 -1.0000
vn -0.5719 0.1179 -0.8118
vn -0.5721 0.1196 -0.8114
vn -0.5721 0.1197 -0.8114
vn 0.9782 -0.2078 -0.0000
vn 0.9780 -0.2087 0.0000
vn 0.9629 -0.2051 -0.1755
vn 0.9627 -0.2060 -0.1755
vn -0.0002 -0.0011 -1.0000
vn -0.0001 -0.0004 -1.0000
vn -0.5719 0.1214 -0.8113
vn -0.5714 0.1213 -0.8116
vn -0.5717 0.1214 -0.8114
vn -0.5718 0.1213 -0.8113
vn 0.9779 -0.2091 -0.0000
vn 0.9781 -0.2082 -0.0001
vn 0.9779 -0.2091 -0.0001
vn 0.9632 -0.2036 -0.1756
vn 0.9631 -0.2043 -0.1755
vn 0.0000 0.0002 -1.0000
vn 0.0000 0.0001 -1.0000
vn -0.5716 0.1213 -0.8115
vn -0.5708 0.1208 -0.8121
vn -0.5711 0.1209 -0.8119
vn -0.5714 0.1212 -0.8117
vn 0.9782 -0.2075 -0.0000
vn 0.9784 -0.2069 -0.0000
vn 0.9633 -0.2031 -0.1756
vn 0.9632 -0.2033 -0.1756
vn 0.9633 -0.2031 -0.1755
vn -0.0001 -0.0006 -1.0000
vn -0.0001 -0.0003 -1.0000
vn -0.5716 0.1203 -0.8116
vn -0.5717 0.1199 -0.8117
vn -0.5716 0.1204 -0.8116
vn 0.9785 -0.2064 0.0000
vn 0.9785 -0.2062 0.0000
vn 0.9785 -0.2062 0.0001
usemtl WallMat.001
s 1
f 1/1/1 3/2/2 2/3/2
f 1/1/3 2/3/2 4/4/4
f 3/5/5 1/6/6 5/7/6
f 5/7/7 6/8/5 3/5/5
f 7/9/8 5/7/9 8/10/10
f 5/7/9 7/9/8 6/8/8
f 9/11/11 4/4/12 2/3/11
f 4/4/12 9/11/11 10/12/12
f 11/13/13 13/14/14 12/15/14
f 11/13/13 12/15/14 14/16/13
f 13/17/15 11/18/16 15/19/16
f 15/19/16 16/20/15 13/17/15
f 17/21/17 15/19/18 18/22/19
f 15/19/18 17/21/17 16/20/20
f 19/23/21 20/24/22 12/15/23
f 14/16/22 12/15/23 20/24/22
f 13/25/14 1/26/3 4/27/4
f 13/25/14 4/27/4 12/28/14
f 1/29/6 13/30/15 16/31/15
f 16/31/15 5/32/6 1/29/6
f 8/33/10 16/31/20 17/34/17
f 16/31/20 8/33/10 5/32/9
f 10/35/12 19/36/21 4/27/12
f 12/28/23 4/27/12 19/36/21
f 21/37/24 23/38/25 22/39/25
f 21/37/24 22/39/25 24/40/24
f 21/41/26 25/42/27 23/43/27
f 25/42/27 21/41/26 26/44/26
f 27/45/28 26/44/29 28/46/30
f 26/44/29 27/45/28 25/42/31
f 29/47/32 30/48/33 22/39/32
f 24/40/33 22/39/32 30/48/33
f 23/49/25 11/50/13 14/51/13
f 23/49/25 14/51/13 22/52/25
f 23/53/27 15/54/16 11/55/16
f 15/54/16 23/53/27 25/56/27
f 18/57/19 25/56/31 27/58/28
f 25/56/31 18/57/19 15/54/18
f 20/59/22 29/60/32 14/51/22
f 22/52/32 14/51/22 29/60/32
f 31/61/34 33/62/35 32/63/35
f 31/61/36 32/63/36 34/64/36
f 33/65/37 31/66/37 35/67/37
f 35/67/37 36/68/38 33/65/38
f 37/69/39 35/67/40 38/70/40
f 35/67/40 37/69/39 36/68/41
f 39/71/42 40/72/43 32/63/42
f 34/64/44 32/63/42 40/72/43
f 33/73/35 21/74/24 24/75/24
f 33/73/35 24/75/24 32/76/35
f 21/77/26 33/78/38 36/79/38
f 36/79/38 26/80/26 21/77/26
f 28/81/30 36/79/41 37/82/39
f 36/79/41 28/81/30 26/80/29
f 30/83/33 39/84/42 24/75/33
f 32/76/42 24/75/33 39/84/42
