# Blender v3.1.2 OBJ File: 'track.blend'
# www.blender.org
mtllib Scene.427.mtl
o _0FLAG_AC_006_Scene.427
v -14271.110352 -75752.898438 -428.623901
v -14297.830078 -75772.031250 -428.623901
v -14270.329102 -75755.312500 -152.496094
v -14297.830078 -75772.031250 -152.496094
v -14358.740234 -75777.945312 -629.166870
v -14358.740234 -75777.945312 -634.247314
v -14360.310547 -75773.101562 -634.247314
v -14360.310547 -75773.101562 -629.166870
v -14353.819336 -75790.101562 -459.450806
v -14350.059570 -75801.742188 -119.263100
v -14327.620117 -75781.656250 -152.496002
v -14327.620117 -75781.656250 -428.623901
v -14296.950195 -75771.750000 -119.263100
v -14244.839844 -75738.671875 -119.263100
v -14244.839844 -75738.671875 -459.450928
v -14297.929688 -75768.734375 -459.450806
v -14301.700195 -75757.015625 -629.071533
v -14255.830078 -75742.210938 -612.681274
v -14244.839844 -75738.671875 -629.071594
v -14301.700195 -75757.015625 -612.681274
v -14347.580078 -75771.804688 -612.681274
v -14358.569336 -75775.359375 -629.071533
v -14343.589844 -75783.226562 -475.841003
v -14299.609375 -75763.507812 -475.841095
v -14255.630859 -75743.781250 -475.841095
v -14231.840820 -76088.929688 -428.623901
v -14263.541016 -76097.585938 -428.623901
v -14231.950195 -76091.460938 -152.496002
v -14263.541016 -76097.585938 -152.496002
v -14322.720703 -76081.968750 -634.247314
v -14322.500977 -76076.890625 -634.247314
v -14322.720703 -76081.968750 -629.166870
v -14322.500977 -76076.890625 -629.166870
v -14322.839844 -76107.312500 -119.263100
v -14294.819336 -76096.257812 -428.623810
v -14322.320312 -76095.093750 -459.450806
v -14294.819336 -76096.257812 -152.496002
v -14262.620117 -76097.632812 -119.263100
v -14202.259766 -76084.710938 -119.263100
v -14202.259766 -76084.710938 -459.450806
v -14262.489258 -76094.453125 -459.450806
v -14261.959961 -76082.156250 -629.071533
v -14213.799805 -76084.218750 -612.681274
v -14202.259766 -76084.710938 -629.071533
v -14261.959961 -76082.156250 -612.681274
v -14310.119141 -76080.109375 -612.681213
v -14321.660156 -76079.609375 -629.071533
v -14310.349609 -76092.203125 -475.841003
v -14262.250000 -76088.976562 -475.841003
v -14214.160156 -76085.750000 -475.841095
v -14186.458984 -76615.679688 -428.623901
v -14213.180664 -76634.804688 -428.623901
v -14185.679688 -76618.093750 -152.496002
v -14213.180664 -76634.804688 -152.496002
v -14274.099609 -76640.718750 -634.247314
v -14275.661133 -76635.882812 -634.247314
v -14274.099609 -76640.718750 -629.166870
v -14275.661133 -76635.882812 -629.166870
v -14269.169922 -76652.867188 -459.450806
v -14265.410156 -76664.523438 -119.263100
v -14242.970703 -76644.429688 -152.496002
v -14242.970703 -76644.429688 -428.623810
v -14212.299805 -76634.531250 -119.263100
v -14160.189453 -76601.453125 -119.263100
v -14160.189453 -76601.453125 -459.450806
v -14213.279297 -76631.500000 -459.450806
v -14217.049805 -76619.789062 -629.071533
v -14171.180664 -76604.992188 -612.681274
v -14160.189453 -76601.453125 -629.071533
v -14217.049805 -76619.789062 -612.681213
v -14262.930664 -76634.585938 -612.681213
v -14273.919922 -76638.140625 -629.071533
v -14258.940430 -76646.007812 -475.841003
v -14214.959961 -76626.281250 -475.841003
v -14170.979492 -76606.562500 -475.841003
v -14214.100586 -76363.734375 -428.623901
v -14246.249023 -76370.531250 -428.623901
v -14214.349609 -76366.250000 -152.496002
v -14246.249023 -76370.531250 -152.496002
v -14304.410156 -76351.460938 -634.247314
v -14303.900391 -76346.414062 -634.247314
v -14304.410156 -76351.460938 -629.166870
v -14303.900391 -76346.414062 -629.166870
v -14306.019531 -76376.750000 -119.263100
v -14277.389648 -76367.359375 -428.623810
v -14304.780273 -76364.578125 -459.450806
v -14277.389648 -76367.359375 -152.496002
v -14245.329102 -76370.617188 -119.263100
v -14184.320312 -76361.250000 -119.263100
v -14184.320312 -76361.250000 -459.450806
v -14245.010742 -76367.453125 -459.450806
v -14243.769531 -76355.210938 -629.071533
v -14195.809570 -76360.085938 -612.681274
v -14184.320312 -76361.250000 -629.071533
v -14243.769531 -76355.210938 -612.681213
v -14291.720703 -76350.343750 -612.681213
v -14303.210938 -76349.171875 -629.071533
v -14292.660156 -76362.406250 -475.841003
v -14244.459961 -76362.000000 -475.841003
v -14196.249023 -76361.601562 -475.841095
v -14240.159180 -75739.679688 -634.247375
v -14241.720703 -75734.835938 -634.247375
v -14244.949219 -75741.218750 -629.166992
v -14246.510742 -75736.390625 -629.166992
v -14246.479492 -75736.375000 -34.197811
v -14244.919922 -75741.218750 -34.197811
v -14241.650391 -75734.820312 -34.197811
v -14240.089844 -75739.648438 -34.197811
v -14198.230469 -76087.281250 -634.247314
v -14198.019531 -76082.210938 -634.247314
v -14203.250000 -76087.070312 -629.166992
v -14203.039062 -76081.992188 -629.166992
v -14203.010742 -76081.992188 -34.197781
v -14203.230469 -76087.070312 -34.197781
v -14198.150391 -76087.289062 -34.197781
v -14197.929688 -76082.210938 -34.197781
v -14155.509766 -76602.460938 -634.247314
v -14157.080078 -76597.632812 -634.247314
v -14160.299805 -76604.000000 -629.166870
v -14161.860352 -76599.171875 -629.166870
v -14161.830078 -76599.156250 -34.197762
v -14160.270508 -76603.992188 -34.197762
v -14157.000977 -76597.601562 -34.197762
v -14155.439453 -76602.437500 -34.197762
v -14180.450195 -76364.062500 -634.247314
v -14179.929688 -76359.007812 -634.247314
v -14184.930664 -76358.500000 -629.166992
v -14185.451172 -76363.546875 -629.166992
v -14184.910156 -76358.500000 -34.197781
v -14185.419922 -76363.562500 -34.197781
v -14180.360352 -76364.070312 -34.197781
v -14179.849609 -76359.007812 -34.197781
vt 0.840936 1.887458
vt 0.792311 1.892971
vt 0.792311 1.887458
vt 0.818741 1.891814
vt 0.818741 1.891814
vt 0.818741 1.891814
vt 0.818741 1.891814
vt 0.788982 1.917287
vt 0.788982 1.917287
vt 0.788982 1.917287
vt 0.788982 1.917287
vt 0.788982 1.917287
vt 0.788982 1.917287
vt 0.788982 1.917287
vt 0.788982 1.917287
vt 0.788982 1.917287
vt 0.788982 1.917287
vt 0.788982 1.917287
vt 0.788982 1.917287
vt 0.788982 1.917287
vt 0.788982 1.917287
vt 0.788982 1.917287
vt 0.847886 1.908420
vt 0.781225 1.884937
vt 0.847886 1.884937
vt 0.781225 1.931903
vt 0.781225 1.908420
vt 0.847886 1.931902
vt 0.788982 1.917287
vt 0.788982 1.917287
vt 0.788982 1.917287
vt 0.818741 1.891814
vt 0.818741 1.891814
vt 0.818741 1.891814
vt 0.818741 1.891814
vt 0.788982 1.917287
vt 0.788982 1.917287
vt 0.788982 1.917287
vt 0.788982 1.917287
vt 0.788982 1.917287
vt 0.788982 1.917287
vt 0.788982 1.917287
vt 0.788982 1.917287
vt 0.788982 1.917287
vt 0.788982 1.917287
vt 0.788982 1.917287
vt 0.788982 1.917287
vt 0.788982 1.917287
vt 0.788982 1.917287
vt 0.847886 1.908420
vt 0.781225 1.931903
vt 0.781225 1.908420
vt 0.788982 1.917287
vt 0.788982 1.917287
vt 0.788982 1.917287
vt 0.788982 1.917287
vt 0.788982 1.917287
vt 0.840936 1.887458
vt 0.792311 1.887458
vt 0.840936 1.881946
vt 0.840936 1.892971
vt 0.792311 1.892971
vt 0.840936 1.887458
vt 0.818741 1.891814
vt 0.818741 1.891814
vt 0.818741 1.891814
vt 0.818741 1.891814
vt 0.788982 1.917287
vt 0.788982 1.917287
vt 0.788982 1.917287
vt 0.788982 1.917287
vt 0.788982 1.917287
vt 0.788982 1.917287
vt 0.788982 1.917287
vt 0.788982 1.917287
vt 0.788982 1.917287
vt 0.788982 1.917287
vt 0.788982 1.917287
vt 0.788982 1.917287
vt 0.788982 1.917287
vt 0.788982 1.917287
vt 0.788982 1.917287
vt 0.847886 1.908420
vt 0.781225 1.884937
vt 0.847886 1.884937
vt 0.847886 1.931902
vt 0.781225 1.931903
vt 0.788982 1.917287
vt 0.788982 1.917287
vt 0.792311 1.887458
vt 0.840936 1.881946
vt 0.792311 1.881946
vt 0.840936 1.887458
vt 0.792311 1.892971
vt 0.792311 1.887458
vt 0.818741 1.891814
vt 0.818741 1.891814
vt 0.818741 1.891814
vt 0.818741 1.891814
vt 0.788982 1.917287
vt 0.788982 1.917287
vt 0.788982 1.917287
vt 0.788982 1.917287
vt 0.788982 1.917287
vt 0.788982 1.917287
vt 0.788982 1.917287
vt 0.788982 1.917287
vt 0.788982 1.917287
vt 0.788982 1.917287
vt 0.788982 1.917287
vt 0.788982 1.917287
vt 0.788982 1.917287
vt 0.788982 1.917287
vt 0.788982 1.917287
vt 0.788982 1.917287
vt 0.847886 1.884937
vt 0.781225 1.908420
vt 0.781225 1.884937
vt 0.847886 1.908420
vt 0.781225 1.931903
vt 0.788982 1.917287
vt 0.788982 1.917287
vt 0.788982 1.917287
vt 0.788982 1.917287
vt 0.840936 1.881946
vt 0.792311 1.881946
vt 0.840936 1.892971
vt 0.792310 1.892971
vt 0.792310 1.887458
vt 0.788982 1.917287
vt 0.788982 1.917287
vt 0.788982 1.917287
vt 0.781225 1.908420
vt 0.847886 1.884937
vt 0.847886 1.908420
vt 0.840936 1.887458
vt 0.792310 1.881946
vt 0.840936 1.881946
vt 0.840936 1.892971
vt 0.792310 1.892971
vt 0.792310 1.887458
vt 0.840936 1.887458
vt 0.788982 1.917287
vt 0.788982 1.917287
vt 0.847886 1.908420
vt 0.781225 1.884937
vt 0.847886 1.884937
vt 0.781225 1.908420
vt 0.847886 1.931903
vt 0.781225 1.931902
vt 0.792310 1.881946
vt 0.840936 1.881946
vt 0.792310 1.887458
vt 0.840936 1.887458
vt 0.840936 1.892971
vt 0.788982 1.917287
vt 0.788982 1.917287
vt 0.781225 1.908420
vt 0.847886 1.884937
vt 0.847886 1.908420
vt 0.847886 1.931903
vt 0.788982 1.917287
vt 0.788982 1.917287
vt 0.840936 1.892971
vt 0.792310 1.892971
vt 0.792310 1.887458
vt 0.788982 1.917287
vt 0.781225 1.908420
vt 0.847886 1.931903
vt 0.781225 1.931902
vt 0.818741 1.891814
vt 0.818741 1.891814
vt 0.818741 1.891814
vt 0.818741 1.891814
vt 0.818741 1.891814
vt 0.818741 1.891814
vt 0.818741 1.891814
vt 0.818741 1.891814
vt 0.818741 1.891814
vt 0.818741 1.891814
vt 0.818741 1.891814
vt 0.818741 1.891814
vt 0.818741 1.891814
vt 0.818741 1.891814
vt 0.818741 1.891814
vt 0.818741 1.891814
vt 0.818741 1.891814
vt 0.818741 1.891814
vt 0.818741 1.891814
vt 0.818741 1.891814
vt 0.818741 1.891814
vt 0.818741 1.891814
vt 0.818741 1.891814
vt 0.818741 1.891814
vt 0.818741 1.891814
vt 0.818741 1.891814
vt 0.818741 1.891814
vt 0.818741 1.891814
vt 0.818741 1.891814
vt 0.818741 1.891814
vt 0.818741 1.891814
vt 0.818741 1.891814
vn 0.5517 -0.8340 -0.0044
vn -0.9518 -0.3068 0.0000
vn -0.9520 -0.3062 -0.0000
vn -0.9515 -0.3075 -0.0000
vn 0.5058 -0.8624 -0.0194
vn 0.5057 -0.8625 -0.0194
vn 0.5124 -0.8587 -0.0040
vn 0.5305 -0.8477 0.0054
vn 0.5123 -0.8588 -0.0039
vn 0.5122 -0.8589 -0.0040
vn 0.5247 -0.8511 -0.0192
vn 0.3395 -0.9383 -0.0663
vn 0.3395 -0.9383 -0.0664
vn 0.3070 -0.9517 0.0003
vn 0.3070 -0.9517 0.0001
vn 0.3068 -0.9518 0.0000
vn 0.3070 -0.9517 0.0000
vn 0.3073 -0.9516 0.0005
vn 0.3072 -0.9517 0.0008
vn 0.3578 -0.9312 -0.0690
vn 0.3578 -0.9313 -0.0689
vn 0.3585 -0.9330 -0.0304
vn 0.3588 -0.9329 -0.0305
vn 0.3581 -0.9311 -0.0689
vn 0.4386 -0.8943 -0.0889
vn 0.4377 -0.8947 -0.0889
vn 0.4387 -0.8942 -0.0888
vn 0.4493 -0.8763 -0.1738
vn 0.4492 -0.8763 -0.1741
vn 0.4492 -0.8763 -0.1742
vn 0.4494 -0.8763 -0.1737
vn -0.9991 0.0431 0.0000
vn -0.9991 0.0429 -0.0000
vn -0.9991 0.0425 0.0000
vn 0.1738 -0.9846 -0.0194
vn 0.1822 -0.9832 -0.0037
vn 0.2030 -0.9792 0.0057
vn 0.1820 -0.9833 -0.0040
vn 0.1821 -0.9833 -0.0040
vn 0.1966 -0.9803 -0.0202
vn 0.1825 -0.9832 -0.0048
vn 0.1966 -0.9803 -0.0203
vn -0.0078 -0.9978 -0.0665
vn -0.0077 -0.9978 -0.0664
vn -0.0076 -0.9977 -0.0666
vn -0.0081 -0.9978 -0.0663
vn -0.0426 -0.9991 -0.0003
vn -0.0426 -0.9991 -0.0004
vn 0.0123 -0.9975 -0.0689
vn 0.0123 -0.9995 -0.0305
vn 0.0227 -0.9997 -0.0050
vn 0.0226 -0.9997 -0.0050
vn 0.0347 -0.9715 -0.2346
vn 0.0349 -0.9714 -0.2348
vn 0.0348 -0.9714 -0.2347
vn 0.1011 -0.9909 -0.0888
vn 0.1011 -0.9909 -0.0889
vn 0.1166 -0.9778 -0.1742
vn 0.1172 -0.9779 -0.1730
vn 0.1173 -0.9779 -0.1730
vn 0.0901 -0.9877 -0.1278
vn -0.0424 -0.9991 0.0000
vn -0.9514 -0.3079 0.0000
vn -0.9517 -0.3071 0.0000
vn -0.9516 -0.3074 0.0000
vn -0.9519 -0.3064 -0.0000
vn 0.5054 -0.8627 -0.0194
vn 0.5305 -0.8477 0.0055
vn 0.5125 -0.8587 -0.0040
vn 0.5121 -0.8589 -0.0040
vn 0.5122 -0.8589 -0.0041
vn 0.5243 -0.8513 -0.0196
vn 0.3396 -0.9382 -0.0666
vn 0.3071 -0.9517 0.0007
vn 0.3579 -0.9312 -0.0689
vn 0.3586 -0.9330 -0.0304
vn 0.3579 -0.9312 -0.0688
vn 0.3698 -0.9291 -0.0050
vn 0.4386 -0.8943 -0.0888
vn 0.4394 -0.8939 -0.0889
vn 0.4385 -0.8944 -0.0888
vn 0.3067 -0.9518 0.0000
vn 0.3071 -0.9517 0.0000
vn 0.3069 -0.9517 0.0000
vn 0.3075 -0.9516 0.0000
vn 0.1704 -0.9854 -0.0044
vn -0.9949 0.1011 -0.0000
vn -0.9949 0.1008 0.0000
vn -0.9949 0.1005 -0.0000
vn 0.1240 -0.9923 -0.0042
vn 0.1450 -0.9894 0.0052
vn 0.1451 -0.9894 0.0053
vn 0.1244 -0.9922 -0.0041
vn 0.1243 -0.9922 -0.0041
vn 0.1245 -0.9922 -0.0040
vn 0.1385 -0.9902 -0.0195
vn 0.1243 -0.9922 -0.0040
vn -0.0662 -0.9956 -0.0664
vn -0.0664 -0.9956 -0.0668
vn -0.1011 -0.9949 0.0001
vn -0.1011 -0.9949 0.0006
vn -0.1012 -0.9949 0.0009
vn -0.1011 -0.9949 0.0000
vn -0.1011 -0.9949 -0.0003
vn -0.1010 -0.9949 -0.0002
vn -0.1010 -0.9949 0.0000
vn -0.1011 -0.9949 -0.0008
vn -0.0461 -0.9966 -0.0689
vn -0.0464 -0.9965 -0.0688
vn -0.0466 -0.9965 -0.0688
vn -0.0467 -0.9984 -0.0304
vn -0.0342 -0.9994 -0.0049
vn -0.0221 -0.9717 -0.2353
vn 0.0592 -0.9830 -0.1741
vn 0.0592 -0.9830 -0.1740
vn 0.0325 -0.9913 -0.1278
vn 0.0326 -0.9913 -0.1278
vn 0.0325 -0.9913 -0.1277
vn -0.1013 -0.9949 0.0000
vn -0.5519 0.8339 0.0044
vn -0.5050 0.8629 0.0194
vn -0.5122 0.8588 0.0040
vn -0.5303 0.8478 -0.0054
vn -0.5121 0.8589 0.0040
vn -0.5122 0.8588 0.0046
vn -0.5245 0.8512 0.0202
vn -0.5245 0.8512 0.0201
vn -0.3391 0.9384 0.0669
vn -0.3391 0.9384 0.0668
vn -0.3579 0.9312 0.0689
vn -0.3703 0.9289 0.0050
vn -0.3680 0.9298 0.0050
vn -0.3704 0.9289 0.0050
vn -0.3677 0.9299 0.0050
vn -0.3702 0.8988 0.2347
vn -0.3701 0.8988 0.2350
vn -0.3701 0.8987 0.2351
vn -0.3702 0.8989 0.2346
vn -0.4274 0.8950 0.1275
vn -0.4273 0.8950 0.1279
vn -0.4274 0.8950 0.1279
vn -0.4274 0.8949 0.1282
vn -0.3074 0.9516 0.0000
vn -0.3068 0.9518 0.0000
vn -0.3071 0.9517 -0.0000
vn -0.2276 0.9737 0.0044
vn -0.2278 0.9737 0.0044
vn -0.2276 0.9738 0.0044
vn -0.1743 0.9845 0.0194
vn -0.1822 0.9833 0.0040
vn -0.2029 0.9792 -0.0056
vn -0.1822 0.9833 0.0039
vn -0.1823 0.9832 0.0043
vn -0.1965 0.9803 0.0198
vn -0.1824 0.9832 0.0043
vn 0.0428 0.9991 0.0000
vn 0.0426 0.9991 0.0000
vn 0.0423 0.9991 -0.0002
vn 0.0425 0.9991 0.0000
vn -0.0120 0.9976 0.0689
vn -0.0118 0.9976 0.0689
vn -0.0121 0.9976 0.0688
vn -0.0121 0.9995 0.0304
vn -0.0243 0.9997 0.0050
vn -0.1007 0.9909 0.0888
vn -0.0904 0.9877 0.1278
vn -0.0903 0.9877 0.1278
vn 0.0424 0.9991 0.0000
vn -0.5051 0.8629 0.0194
vn -0.5051 0.8628 0.0194
vn -0.5303 0.8478 -0.0056
vn -0.5123 0.8588 0.0039
vn -0.5124 0.8587 0.0040
vn -0.5124 0.8587 0.0037
vn -0.5246 0.8511 0.0191
vn -0.5246 0.8511 0.0192
vn -0.3394 0.9383 0.0664
vn -0.3071 0.9517 -0.0007
vn -0.3069 0.9517 0.0000
vn -0.3578 0.9312 0.0689
vn -0.3578 0.9313 0.0689
vn -0.3586 0.9330 0.0305
vn -0.3678 0.9299 0.0051
vn -0.3697 0.8988 0.2357
vn -0.3699 0.8988 0.2350
vn -0.3700 0.8988 0.2348
vn -0.3696 0.8987 0.2359
vn -0.4495 0.8762 0.1737
vn -0.4494 0.8763 0.1739
vn -0.4496 0.8762 0.1735
vn -0.4275 0.8949 0.1282
vn -0.1698 0.9855 0.0045
vn -0.1164 0.9930 0.0194
vn -0.1161 0.9931 0.0194
vn -0.1161 0.9930 0.0194
vn -0.1245 0.9922 0.0040
vn -0.1244 0.9922 0.0040
vn -0.1386 0.9902 0.0195
vn 0.0462 0.9965 0.0689
vn 0.0463 0.9985 0.0305
vn 0.0359 0.9993 0.0050
vn 0.0358 0.9993 0.0050
vn 0.0224 0.9718 0.2347
vn -0.0423 0.9951 0.0888
vn -0.0426 0.9951 0.0888
vn -0.0422 0.9952 0.0889
vn -0.0596 0.9828 0.1747
vn -0.0596 0.9828 0.1748
vn -0.0319 0.9912 0.1284
vn -0.0319 0.9912 0.1283
vn 0.2171 -0.6729 -0.7071
vn -0.1383 0.4286 -0.8928
vn 0.1382 -0.4282 -0.8931
vn 0.2552 -0.7906 0.5566
vn -0.2172 0.6733 -0.7067
vn 0.2171 -0.6726 0.7074
vn -0.2547 0.7896 0.5582
vn -0.2171 0.6730 0.7070
vn -0.7833 0.6216 0.0000
vn -0.4558 -0.8901 0.0000
vn -0.8906 0.4548 0.0000
vn 0.4556 0.8902 -0.0001
vn -0.2722 -0.9623 0.0000
vn 0.7155 0.6986 -0.0001
vn 0.8898 -0.4564 -0.0001
vn 0.9889 -0.1487 -0.0001
vn -0.0302 -0.7066 -0.7070
vn 0.0191 0.4488 -0.8934
vn -0.0192 -0.4496 -0.8930
vn -0.0354 -0.8306 0.5557
vn 0.0302 0.7063 -0.7073
vn -0.0303 -0.7063 0.7072
vn 0.0353 0.8315 0.5545
vn 0.0302 0.7063 0.7072
vn -0.6771 0.7359 0.0000
vn -0.5901 -0.8073 -0.0000
vn -0.7369 -0.6760 0.0000
vn 0.6760 -0.7369 -0.0001
vn -0.5175 0.8557 0.0000
vn 0.8754 -0.4833 -0.0001
vn 0.7359 0.6771 -0.0001
vn 0.9140 0.4056 -0.0001
vn -0.1380 0.4279 -0.8932
vn 0.1382 -0.4284 -0.8930
vn 0.2551 -0.7905 0.5567
vn -0.2171 0.6730 -0.7070
vn 0.2171 -0.6729 0.7072
vn -0.2552 0.7912 0.5558
vn -0.7836 0.6213 0.0000
vn -0.4576 -0.8892 0.0000
vn -0.8903 0.4555 0.0000
vn 0.4550 0.8905 -0.0001
vn -0.2701 -0.9628 0.0000
vn 0.7157 0.6984 -0.0001
vn 0.8894 -0.4570 -0.0001
vn 0.9890 -0.1482 -0.0001
vn -0.0455 -0.4476 -0.8931
vn 0.0715 0.7036 -0.7070
vn 0.0454 0.4466 -0.8936
vn 0.0842 0.8284 0.5538
vn -0.0715 -0.7034 -0.7072
vn 0.0715 0.7036 0.7070
vn -0.0840 -0.8265 0.5567
vn -0.0715 -0.7034 0.7072
vn -0.6311 0.7757 0.0000
vn -0.6363 -0.7714 0.0000
vn -0.7740 -0.6332 0.0000
vn 0.6332 -0.7740 -0.0001
vn -0.4664 0.8846 0.0000
vn 0.8459 -0.5334 -0.0001
vn 0.7756 0.6312 -0.0001
vn 0.9360 0.3519 -0.0001
usemtl EnvironmentMat.001
s 1
f 2/1/1 3/2/1 4/3/1
f 5/4/2 7/5/2 6/6/3
f 7/5/2 5/4/2 8/7/4
f 11/8/5 9/9/6 12/10/5
f 3/11/7 13/12/8 4/13/8
f 15/14/9 3/11/10 1/15/9
f 16/16/11 15/14/9 1/15/9
f 16/16/12 12/10/13 9/9/12
f 17/17/14 19/18/14 18/19/14
f 17/17/15 18/19/16 20/20/17
f 21/21/18 17/17/15 20/20/17
f 17/17/15 21/21/18 22/22/19
f 20/23/20 23/24/20 21/25/20
f 20/23/21 25/26/22 24/27/21
f 18/28/23 25/26/23 20/23/24
f 9/9/25 22/22/26 21/21/26
f 9/9/25 21/21/26 23/29/27
f 25/30/28 16/16/29 24/31/30
f 16/16/29 25/30/28 15/14/31
f 30/32/32 32/33/33 31/34/33
f 31/34/33 32/33/33 33/35/34
f 34/36/35 35/37/35 37/38/35
f 28/39/36 38/40/37 29/41/37
f 40/42/38 28/39/39 26/43/39
f 41/44/40 26/43/41 27/45/42
f 41/44/43 35/37/44 36/46/45
f 35/37/44 41/44/43 27/45/46
f 42/47/47 46/48/48 47/49/48
f 45/50/49 50/51/50 49/52/49
f 40/42/51 43/53/51 44/54/52
f 48/55/53 49/56/54 41/44/55
f 41/44/55 36/46/53 48/55/53
f 47/49/56 48/55/56 36/46/57
f 50/57/58 41/44/58 49/56/58
f 41/44/59 50/57/60 40/42/59
f 37/38/61 38/40/61 34/36/61
f 27/58/62 29/59/62 35/60/62
f 51/61/1 53/62/1 52/63/1
f 55/64/63 57/65/64 56/66/65
f 56/66/65 57/65/64 58/67/66
f 61/68/67 59/69/67 62/70/67
f 63/71/68 53/72/69 64/73/69
f 65/74/70 53/72/71 51/75/70
f 66/76/72 65/74/70 51/75/70
f 62/70/73 66/76/73 52/77/73
f 67/78/17 68/79/17 70/80/17
f 67/78/74 71/81/74 72/82/74
f 70/83/75 73/84/75 71/85/75
f 68/86/76 75/87/76 70/83/77
f 65/74/78 68/79/78 69/88/78
f 59/69/79 72/82/80 71/81/80
f 59/69/79 71/81/80 73/89/81
f 52/63/82 54/90/83 62/91/84
f 62/91/84 54/90/83 61/92/85
f 77/93/86 78/94/86 79/95/86
f 80/96/87 82/97/88 81/98/88
f 81/98/88 82/97/88 83/99/89
f 78/100/90 88/101/91 79/102/91
f 88/101/92 78/100/93 89/103/94
f 90/104/95 89/103/94 78/100/93
f 91/105/96 76/106/97 77/107/96
f 91/105/98 85/108/98 86/109/98
f 85/108/99 91/105/99 77/107/99
f 92/110/100 94/111/101 93/112/102
f 92/110/100 93/112/102 95/113/103
f 96/114/104 92/110/105 95/113/106
f 92/110/105 96/114/104 97/115/107
f 96/116/108 99/117/108 98/118/108
f 95/119/109 99/117/109 96/116/109
f 95/119/110 100/120/111 99/117/110
f 93/112/112 90/104/112 100/121/112
f 98/122/113 99/123/113 91/105/113
f 91/105/114 100/121/114 90/104/115
f 79/102/116 88/101/117 87/124/118
f 77/93/119 79/95/119 85/125/119
f 85/125/119 79/95/119 87/126/119
f 3/127/120 1/128/120 2/129/120
f 11/8/121 9/9/121 10/130/121
f 3/11/122 13/12/123 14/131/122
f 14/131/122 15/14/124 3/11/122
f 1/15/125 16/16/126 2/132/127
f 16/16/128 12/10/129 2/132/129
f 20/133/130 23/134/130 24/135/130
f 18/19/131 15/14/132 19/18/133
f 15/14/132 18/19/131 25/30/134
f 23/29/135 16/16/136 24/31/137
f 16/16/136 23/29/135 9/9/138
f 4/13/139 11/8/140 13/12/141
f 11/8/140 10/130/142 13/12/141
f 4/136/143 2/129/144 12/137/144
f 12/137/144 11/138/145 4/136/143
f 28/139/146 26/140/147 27/141/147
f 27/141/147 29/142/148 28/139/146
f 36/46/149 34/36/149 35/37/149
f 28/39/150 38/40/151 39/143/152
f 40/42/150 28/39/150 39/143/152
f 40/42/153 41/44/154 26/43/155
f 44/54/156 42/47/157 43/53/158
f 45/144/157 43/53/158 42/47/157
f 42/47/157 46/48/159 45/144/157
f 49/145/160 46/146/161 48/147/160
f 46/146/161 49/145/160 45/148/161
f 45/148/162 50/149/163 43/150/163
f 40/42/164 43/53/164 50/57/164
f 47/49/165 48/55/165 46/48/165
f 29/41/166 37/38/166 38/40/167
f 35/151/168 37/152/168 29/142/168
f 52/153/120 54/154/120 53/155/120
f 61/68/169 59/69/170 60/156/170
f 63/71/171 53/72/172 54/157/171
f 64/73/173 65/74/173 53/72/173
f 51/75/174 66/76/175 52/77/176
f 62/70/177 66/76/177 59/69/177
f 69/88/178 67/78/178 68/79/178
f 67/78/179 71/81/179 70/80/179
f 70/158/180 73/159/181 74/160/180
f 75/161/182 70/158/180 74/160/180
f 65/74/183 68/79/183 75/162/183
f 73/89/184 66/76/185 74/163/186
f 66/76/185 73/89/184 59/69/187
f 66/76/188 75/162/189 74/163/190
f 75/162/189 66/76/188 65/74/189
f 54/157/142 61/68/142 63/71/142
f 61/68/191 60/156/191 63/71/191
f 78/164/192 76/165/192 77/166/192
f 86/109/193 84/167/193 85/108/193
f 85/108/194 84/167/195 87/124/194
f 78/100/196 90/104/196 76/106/196
f 90/104/197 91/105/198 76/106/197
f 95/168/199 100/169/200 93/170/200
f 93/112/201 90/104/202 94/111/202
f 91/105/203 98/122/203 86/109/203
f 97/115/204 98/122/205 96/114/206
f 98/122/205 97/115/204 86/109/205
f 91/105/207 100/121/208 99/123/208
f 87/124/209 84/167/210 88/101/210
f 6/6/211 102/171/212 101/172/213
f 103/173/214 6/6/211 101/172/213
f 102/171/212 6/6/211 7/5/215
f 6/6/211 103/173/214 5/4/216
f 102/171/212 7/5/215 104/174/217
f 103/173/214 8/7/218 5/4/216
f 8/7/218 103/173/214 104/174/217
f 104/174/217 7/5/215 8/7/218
f 104/174/219 106/175/220 105/176/221
f 107/177/222 104/174/219 105/176/221
f 103/173/223 106/175/220 104/174/219
f 104/174/219 107/177/222 102/171/224
f 103/173/223 108/178/225 106/175/220
f 107/177/222 101/172/226 102/171/224
f 101/172/226 108/178/225 103/173/223
f 101/172/226 107/177/222 108/178/225
f 30/32/227 110/179/228 109/180/229
f 111/181/230 30/32/227 109/180/229
f 31/34/231 110/179/228 30/32/227
f 30/32/227 111/181/230 32/33/232
f 110/179/228 31/34/231 112/182/233
f 112/182/233 32/33/232 111/181/230
f 112/182/233 31/34/231 33/35/234
f 32/33/232 112/182/233 33/35/234
f 113/183/235 111/181/236 114/184/237
f 111/181/236 115/185/238 114/184/237
f 111/181/236 113/183/235 112/182/239
f 109/180/240 115/185/238 111/181/236
f 116/186/241 112/182/239 113/183/235
f 109/180/240 116/186/241 115/185/238
f 112/182/239 116/186/241 110/179/242
f 110/179/242 116/186/241 109/180/240
f 55/64/211 118/187/243 117/188/244
f 119/189/245 55/64/211 117/188/244
f 118/187/243 55/64/211 56/66/246
f 55/64/211 119/189/245 57/65/247
f 118/187/243 56/66/246 120/190/248
f 119/189/245 58/67/218 57/65/247
f 58/67/218 119/189/245 120/190/248
f 120/190/248 56/66/246 58/67/218
f 120/190/249 122/191/250 121/192/251
f 123/193/252 120/190/249 121/192/251
f 119/189/253 122/191/250 120/190/249
f 120/190/249 123/193/252 118/187/254
f 119/189/253 124/194/255 122/191/250
f 123/193/252 117/188/256 118/187/254
f 117/188/256 124/194/255 119/189/253
f 117/188/256 123/193/252 124/194/255
f 125/195/257 81/98/258 126/196/259
f 126/196/259 81/98/258 127/197/260
f 81/98/258 125/195/257 80/96/261
f 127/197/260 81/98/258 83/99/262
f 128/198/263 80/96/261 125/195/257
f 83/99/262 128/198/263 127/197/260
f 80/96/261 128/198/263 82/97/264
f 128/198/263 83/99/262 82/97/264
f 129/199/265 128/198/266 130/200/267
f 128/198/266 131/201/268 130/200/267
f 128/198/266 129/199/265 127/197/269
f 125/195/270 131/201/268 128/198/266
f 132/202/271 127/197/269 129/199/265
f 125/195/270 132/202/271 131/201/268
f 127/197/269 132/202/271 126/196/272
f 126/196/272 132/202/271 125/195/270
