# Blender v3.1.2 OBJ File: 'track.blend'
# www.blender.org
mtllib Scene.652.mtl
o _1WALL_03_EMIRATES_SUB1_Scene.652
v 21391.169922 78471.601562 -284.071808
v 21391.169922 78471.601562 -355.902802
v 21374.898438 78887.820312 -355.538605
v 21374.898438 78887.796875 -283.707581
v 21430.189453 78472.492188 -452.541199
v 21413.910156 78888.976562 -452.177002
v 21411.791016 78888.781250 -453.707977
v 21428.070312 78472.289062 -454.072205
v 21408.669922 78471.914062 -454.071991
v 21392.400391 78888.289062 -453.707794
v 21376.781250 79288.015625 -453.358215
v 21359.281250 79287.265625 -355.189209
v 21396.160156 79288.757812 -453.358215
v 21398.281250 79288.976562 -451.827179
v 21359.289062 79287.203125 -283.358185
v 21359.281250 79287.359375 -283.358093
v 21359.281250 79287.421875 -355.189117
v 21341.660156 79686.851562 -354.741180
v 21341.660156 79686.765625 -282.910309
v 21398.269531 79289.132812 -451.827087
v 21380.630859 79688.953125 -451.378693
v 21378.519531 79688.703125 -452.909912
v 21396.150391 79288.898438 -453.358093
v 21376.769531 79288.171875 -453.358093
v 21359.140625 79687.796875 -452.909912
v 21338.830078 80087.289062 -452.330597
v 21321.349609 80086.265625 -354.161896
v 21358.199219 80088.265625 -452.330383
v 21360.320312 80088.531250 -450.799194
v 21321.359375 80086.171875 -282.330902
v 21321.349609 80086.320312 -282.330688
v 21321.349609 80086.429688 -354.161591
v 21300.619141 80485.843750 -353.548584
v 21300.630859 80485.726562 -281.717712
v 21360.310547 80088.671875 -450.798981
v 21339.580078 80488.187500 -450.185822
v 21337.468750 80487.929688 -451.716888
v 21358.199219 80088.421875 -452.330200
v 21338.820312 80087.453125 -452.330383
v 21318.099609 80486.921875 -451.717194
v 21296.609375 80886.351562 -451.043335
v 21279.140625 80885.257812 -352.874695
v 21315.980469 80887.375000 -451.042999
v 21318.099609 80887.640625 -449.511810
v 21279.140625 80885.140625 -281.043793
v 21279.140625 80885.281250 -281.043610
v 21279.130859 80885.414062 -352.874481
v 21257.679688 81284.835938 -352.187286
v 21257.679688 81284.695312 -280.356415
v 21318.089844 80887.796875 -449.511475
v 21296.640625 81287.234375 -448.824402
v 21294.521484 81286.968750 -450.355591
v 21315.980469 80887.531250 -451.042694
v 21296.609375 80886.500000 -451.042999
v 21275.150391 81285.929688 -450.355896
v 21253.779297 81685.359375 -449.635590
v 21236.300781 81684.273438 -351.466888
v 21273.150391 81686.390625 -449.635315
v 21275.269531 81686.648438 -448.104004
v 21236.310547 81684.140625 -279.635986
v 21236.300781 81684.281250 -279.635803
v 21236.300781 81684.414062 -351.466705
v 21215.089844 82083.726562 -278.910217
v 21215.080078 82083.867188 -350.740997
v 21275.259766 81686.796875 -448.103821
v 21254.048828 82086.218750 -447.378204
v 21251.929688 82085.968750 -448.909363
v 21273.140625 81686.539062 -449.634979
v 21253.769531 81685.507812 -449.635315
v 21232.560547 82084.945312 -448.909607
v 21211.951172 82484.429688 -448.164795
v 21194.470703 82483.359375 -349.996216
v 21231.320312 82485.414062 -448.164612
v 21233.439453 82485.664062 -446.633392
v 21194.478516 82483.226562 -278.165283
v 21194.470703 82483.367188 -278.165009
v 21194.470703 82483.507812 -349.995911
v 21174.029297 82882.882812 -277.418396
v 21174.019531 82883.007812 -349.249298
v 21233.429688 82485.812500 -446.633087
v 21212.990234 82885.273438 -445.886597
v 21210.878906 82885.023438 -447.417786
v 21231.308594 82485.562500 -448.164307
v 21211.939453 82484.585938 -448.164612
v 21191.500000 82884.054688 -447.418030
v 21172.099609 83283.585938 -446.661011
v 21154.628906 83282.578125 -348.492279
v 21191.480469 83284.507812 -446.660889
v 21193.599609 83284.750000 -445.129822
v 21154.628906 83282.453125 -276.661407
v 21154.621094 83282.593750 -276.661102
v 21154.621094 83282.726562 -348.492004
v 21135.390625 83682.312500 -347.734985
v 21135.400391 83682.171875 -275.904205
v 21193.589844 83284.914062 -445.129486
v 21174.369141 83684.390625 -444.372711
v 21172.250000 83684.164062 -445.903931
v 21191.470703 83284.664062 -446.660706
v 21172.089844 83283.742188 -446.660797
v 21152.871094 83683.281250 -445.903931
v 21135.968750 84082.921875 -445.147614
v 21118.490234 84082.015625 -346.978699
v 21155.349609 84083.742188 -445.147705
v 21157.470703 84083.968750 -443.616486
v 21118.500000 84081.875000 -275.147797
v 21118.490234 84082.015625 -275.147614
v 21118.480469 84082.148438 -346.978394
v 21101.580078 84481.859375 -346.221985
v 21101.589844 84481.734375 -274.391205
v 21157.460938 84084.117188 -443.616211
v 21140.570312 84483.695312 -442.860229
v 21138.451172 84483.476562 -444.391296
v 21155.349609 84083.890625 -445.147430
v 21135.960938 84083.070312 -445.147339
v 21119.060547 84482.718750 -444.391113
v 21105.150391 84882.484375 -443.648926
v 21087.660156 84881.703125 -345.479797
v 21124.541016 84883.148438 -443.649292
v 21126.660156 84883.367188 -442.118225
v 21087.669922 84881.570312 -273.648895
v 21087.660156 84881.710938 -273.648590
v 21087.660156 84881.843750 -345.479492
v 21073.750000 85281.679688 -344.737183
v 21073.750000 85281.562500 -272.906403
v 21126.650391 84883.507812 -442.117889
v 21112.750000 85283.179688 -441.376007
v 21110.628906 85282.968750 -442.907013
v 21124.529297 84883.296875 -443.649109
v 21105.150391 84882.632812 -443.648712
v 21091.240234 85282.390625 -442.906525
v 21081.128906 85682.257812 -442.189209
v 21063.640625 85681.671875 -344.019714
v 21100.519531 85682.718750 -442.189972
v 21102.650391 85682.921875 -440.658905
v 21063.640625 85681.546875 -272.188812
v 21063.640625 85681.687500 -272.188507
v 21063.630859 85681.820312 -344.019379
v 21053.830078 86081.812500 -343.303802
v 21053.830078 86081.687500 -271.472900
v 21102.640625 85683.062500 -440.658630
v 21092.839844 86082.796875 -439.943512
v 21090.718750 86082.617188 -441.474487
v 21100.519531 85682.867188 -442.189697
v 21081.128906 85682.406250 -442.188965
v 21071.320312 86082.289062 -441.473572
v 21066.939453 86482.242188 -440.800201
v 21049.439453 86481.953125 -342.630188
v 21086.339844 86482.390625 -440.801483
v 21088.458984 86482.539062 -439.270508
v 21049.451172 86481.828125 -270.799316
v 21049.439453 86481.984375 -270.799103
v 21049.439453 86482.101562 -342.630005
v 21045.978516 86882.257812 -341.963501
v 21045.990234 86882.148438 -270.132599
v 21088.458984 86482.687500 -439.270294
v 21085.000000 86882.429688 -438.604492
v 21082.878906 86882.296875 -440.135468
v 21086.330078 86482.531250 -440.801300
v 21066.939453 86482.390625 -440.799988
v 21063.480469 86882.359375 -440.133911
v 21068.859375 87282.250000 -439.544312
v 21051.359375 87282.500000 -341.373383
v 21088.250000 87281.820312 -439.546478
v 21090.378906 87281.921875 -438.015594
v 21051.371094 87282.398438 -269.542511
v 21051.371094 87282.562500 -269.542297
v 21051.371094 87282.648438 -341.373199
v 21059.218750 87682.921875 -340.804413
v 21059.218750 87682.843750 -268.973480
v 21090.378906 87282.062500 -438.015411
v 21098.199219 87681.484375 -437.447784
v 21096.080078 87681.429688 -438.978577
v 21088.250000 87281.968750 -439.546295
v 21076.699219 87682.281250 -438.975891
v 21068.859375 87282.398438 -439.544098
v 21102.220703 88081.156250 -438.572418
v 21084.800781 88082.671875 -340.400085
v 21121.539062 88079.398438 -438.575989
v 21123.669922 88079.359375 -437.045288
v 21084.810547 88082.617188 -268.569214
vt 2.977629 0.755510
vt -1.021971 1.108994
vt 2.977629 1.108993
vt -1.021971 0.755511
vt 2.977629 1.688305
vt -1.021971 1.695245
vt -1.021971 1.688305
vt 2.977629 1.695245
vt 2.977629 1.899918
vt -1.021971 1.899918
vt 2.977629 2.001424
vt -1.021971 2.001424
vt 2.977629 2.001424
vt -1.021971 1.108994
vt -1.021971 2.001424
vt 2.977629 1.108993
vt 2.977629 1.899918
vt -1.021971 1.695245
vt 2.977629 1.695245
vt -1.021971 1.899918
vt 2.977629 1.688305
vt -1.021971 1.688305
vt 2.977629 0.755510
vt -1.021971 0.755511
vt 2.977629 0.755510
vt -1.021971 1.108994
vt 2.977629 1.108993
vt -1.021971 0.755511
vt 2.977629 1.688305
vt -1.021971 1.695245
vt -1.021971 1.688305
vt 2.977629 1.695245
vt 2.977629 1.899918
vt -1.021971 1.899918
vt 2.977629 2.001424
vt -1.021971 2.001424
vt 2.977629 2.001424
vt -1.021971 1.108994
vt -1.021971 2.001424
vt 2.977629 1.108993
vt 2.977629 1.899918
vt -1.021971 1.695245
vt 2.977629 1.695245
vt -1.021971 1.899918
vt 2.977629 1.688305
vt -1.021971 1.688305
vt 2.977629 0.755510
vt -1.021971 0.755511
vt 2.977629 0.755510
vt -1.021971 1.108994
vt 2.977629 1.108993
vt -1.021971 0.755511
vt 2.977629 1.688305
vt -1.021971 1.695245
vt -1.021971 1.688305
vt 2.977629 1.695245
vt 2.977629 1.899918
vt -1.021971 1.899918
vt 2.977629 2.001424
vt -1.021971 2.001424
vt 2.977629 2.001424
vt -1.021971 1.108994
vt -1.021971 2.001424
vt 2.977629 1.108993
vt 2.977629 1.899918
vt -1.021971 1.695245
vt 2.977629 1.695245
vt -1.021971 1.899918
vt 2.977629 1.688305
vt -1.021971 1.688305
vt 2.977629 0.755510
vt -1.021971 0.755511
vt 2.977629 0.755510
vt -1.021971 1.108994
vt 2.977629 1.108993
vt -1.021971 0.755511
vt 2.977629 1.688305
vt -1.021971 1.695245
vt -1.021971 1.688305
vt 2.977629 1.695245
vt 2.977629 1.899918
vt -1.021971 1.899918
vt 2.977629 2.001424
vt -1.021971 2.001424
vt 2.977629 2.001424
vt -1.021971 1.108994
vt -1.021971 2.001424
vt 2.977629 1.108993
vt 2.977629 1.899918
vt -1.021971 1.695245
vt 2.977629 1.695245
vt -1.021971 1.899918
vt 2.977629 1.688305
vt -1.021971 1.688305
vt 2.977629 0.755510
vt -1.021971 0.755511
vt 2.977629 0.755510
vt -1.021971 0.755511
vt 2.977629 1.108993
vt -1.021971 1.108994
vt 2.977629 1.688305
vt -1.021971 1.695245
vt -1.021971 1.688305
vt 2.977629 1.695245
vt 2.977629 1.899918
vt -1.021971 1.899918
vt 2.977629 2.001424
vt -1.021971 2.001424
vt 2.977629 2.001424
vt -1.021971 1.108994
vt -1.021971 2.001424
vt 2.977629 1.108993
vt 2.977629 1.899918
vt -1.021971 1.695245
vt 2.977629 1.695245
vt -1.021971 1.899918
vt 2.977629 1.688305
vt -1.021971 1.688305
vt 2.977629 0.755510
vt -1.021971 0.755511
vt 2.977629 0.755510
vt -1.021971 0.755511
vt 2.977629 1.108993
vt -1.021971 1.108994
vt 2.977629 1.688305
vt -1.021971 1.695245
vt -1.021971 1.688305
vt 2.977629 1.695245
vt 2.977629 1.899918
vt -1.021971 1.899918
vt 2.977629 2.001424
vt -1.021971 2.001424
vt 2.977629 2.001424
vt -1.021971 1.108994
vt -1.021971 2.001424
vt 2.977629 1.108993
vt 2.977629 1.899918
vt -1.021971 1.695245
vt 2.977629 1.695245
vt -1.021971 1.899918
vt 2.977629 1.688305
vt -1.021971 1.688305
vt 2.977629 0.755510
vt -1.021971 0.755511
vt 2.977629 0.755510
vt -1.021971 1.108994
vt 2.977629 1.108993
vt -1.021971 0.755511
vt 2.977629 1.688305
vt -1.021971 1.695245
vt -1.021971 1.688305
vt 2.977629 1.695245
vt 2.977629 1.899918
vt -1.021971 1.899918
vt 2.977629 2.001424
vt -1.021971 2.001424
vt 2.977629 2.001424
vt -1.021971 1.108994
vt -1.021971 2.001424
vt 2.977629 1.108993
vt 2.977629 1.695245
vt -1.021971 1.899918
vt -1.021971 1.695245
vt 2.977629 1.899918
vt 2.977629 1.688305
vt -1.021971 1.688305
vt 2.977629 0.755510
vt -1.021971 0.755511
vt 2.977629 0.755510
vt -1.021971 1.108994
vt 2.977629 1.108993
vt -1.021971 0.755511
vt 2.977629 1.688305
vt -1.021971 1.695245
vt -1.021971 1.688305
vt 2.977629 1.695245
vt 2.977629 1.899918
vt -1.021971 1.899918
vt 2.977629 2.001424
vt -1.021971 2.001424
vt 2.977629 2.001424
vt -1.021971 1.108994
vt -1.021971 2.001424
vt 2.977629 1.108993
vt 2.977629 1.695245
vt -1.021971 1.899918
vt -1.021971 1.695245
vt 2.977629 1.899918
vt 2.977629 1.688305
vt -1.021971 1.688305
vt 2.977629 0.755510
vt -1.021971 0.755511
vt 2.977629 0.755510
vt -1.021971 1.108994
vt 2.977629 1.108993
vt -1.021971 0.755511
vt 2.977629 1.688305
vt -1.021971 1.695245
vt -1.021971 1.688305
vt 2.977629 1.695245
vt 2.977629 1.899918
vt -1.021971 1.899918
vt 2.977629 2.001424
vt -1.021971 2.001424
vt 2.977629 2.001424
vt -1.021971 1.108994
vt -1.021971 2.001424
vt 2.977629 1.108993
vt 2.977629 1.695245
vt -1.021971 1.899918
vt -1.021971 1.695245
vt 2.977629 1.899918
vt 2.977629 1.688305
vt -1.021971 1.688305
vt 2.977629 0.755510
vt -1.021971 0.755511
vt 2.977629 0.755510
vt -1.021971 1.108994
vt 2.977629 1.108993
vt -1.021971 0.755511
vt 2.977629 1.688305
vt -1.021971 1.695245
vt -1.021971 1.688305
vt 2.977629 1.695245
vt 2.977629 1.899918
vt -1.021971 1.899918
vt 2.977629 2.001424
vt -1.021971 2.001424
vt 2.977629 2.001424
vt -1.021971 1.108994
vt -1.021971 2.001424
vt 2.977629 1.108993
vt 2.977629 1.695245
vt -1.021971 1.899918
vt -1.021971 1.695245
vt 2.977629 1.899918
vt 2.977629 1.688305
vt -1.021971 1.688305
vt 2.977629 0.755510
vt -1.021971 0.755511
vt 2.977629 0.755510
vt -1.021971 1.108994
vt 2.977629 1.108993
vt -1.021971 0.755511
vt 2.977629 1.688305
vt -1.021971 1.695245
vt -1.021971 1.688305
vt 2.977629 1.695245
vt 2.977629 1.899918
vt -1.021971 1.899918
vt 2.977629 2.001424
vt -1.021971 2.001424
vt -1.021971 2.001424
vt 2.977629 2.001424
vt 2.977629 1.108993
vt -1.021971 1.108994
vt -1.021971 1.899918
vt 2.977629 1.695245
vt 2.977629 1.899918
vt -1.021971 1.695245
vt 2.977629 1.688305
vt -1.021971 1.688305
vt 2.977629 0.755510
vt -1.021971 0.755511
vt 2.977629 0.755510
vt -1.021971 1.108994
vt 2.977629 1.108993
vt -1.021971 0.755511
vt 2.977629 1.688305
vt -1.021971 1.695245
vt -1.021971 1.688305
vt 2.977629 1.695245
vt 2.977629 1.899918
vt -1.021971 1.899918
vt -1.021971 2.001424
vt 2.977629 2.001424
vt -1.021971 2.001424
vt 2.977629 2.001424
vt 2.977629 1.108993
vt -1.021971 1.108994
vt -1.021971 1.695245
vt 2.977629 1.899918
vt -1.021971 1.899918
vt 2.977629 1.695245
vt 2.977629 1.688305
vt -1.021971 1.688305
vt 2.977629 0.755510
vt -1.021971 0.755511
vn -0.9992 -0.0391 -0.0000
vn 0.5841 0.0235 -0.8113
vn 0.5837 0.0235 -0.8117
vn 0.5843 0.0235 -0.8112
vn -0.0000 0.0009 -1.0000
vn -0.9837 -0.0383 -0.1755
vn -0.9837 -0.0383 -0.1756
vn -0.9837 -0.0383 -0.1757
vn 0.5832 0.0235 -0.8120
vn 0.5835 0.0235 -0.8118
vn -0.9992 -0.0390 0.0001
vn -0.9990 -0.0441 -0.0000
vn -0.9989 -0.0474 -0.0001
vn -0.9989 -0.0472 -0.0001
vn 0.5830 0.0266 -0.8120
vn 0.5834 0.0286 -0.8117
vn 0.5834 0.0288 -0.8117
vn -0.0000 0.0011 -1.0000
vn -0.0000 0.0015 -1.0000
vn -0.0001 0.0013 -1.0000
vn -0.0001 0.0011 -1.0000
vn -0.9835 -0.0432 -0.1755
vn -0.9834 -0.0465 -0.1755
vn -0.9834 -0.0465 -0.1756
vn -0.9832 -0.0497 -0.1756
vn -0.0001 0.0014 -1.0000
vn 0.5845 0.0309 -0.8108
vn -0.9987 -0.0508 -0.0001
vn -0.9987 -0.0508 0.0001
vn -0.9989 -0.0474 0.0000
vn -0.9987 -0.0518 -0.0001
vn -0.9986 -0.0528 0.0001
vn -0.9986 -0.0527 0.0001
vn 0.5840 0.0315 -0.8111
vn 0.5842 0.0322 -0.8110
vn 0.5838 0.0322 -0.8113
vn 0.5844 0.0316 -0.8109
vn -0.0001 0.0015 -1.0000
vn -0.0001 0.0016 -1.0000
vn -0.9832 -0.0508 -0.1755
vn -0.9831 -0.0516 -0.1756
vn -0.9832 -0.0516 -0.1753
vn -0.9831 -0.0526 -0.1755
vn -0.0001 0.0017 -1.0000
vn 0.5826 0.0327 -0.8121
vn -0.9986 -0.0537 0.0001
vn -0.9986 -0.0537 -0.0001
vn -0.9986 -0.0528 -0.0000
vn -0.9986 -0.0536 0.0000
vn -0.9986 -0.0535 -0.0001
vn -0.9986 -0.0536 -0.0001
vn 0.5835 0.0327 -0.8115
vn 0.5833 0.0327 -0.8116
vn 0.5832 0.0327 -0.8117
vn 0.5834 0.0327 -0.8115
vn -0.0001 0.0018 -1.0000
vn -0.9831 -0.0525 -0.1756
vn -0.9831 -0.0524 -0.1755
vn -0.9831 -0.0523 -0.1756
vn 0.5836 0.0327 -0.8114
vn -0.9986 -0.0534 -0.0001
vn -0.9986 -0.0534 0.0001
vn -0.9986 -0.0530 -0.0001
vn -0.9986 -0.0523 0.0000
vn 0.5830 0.0324 -0.8118
vn 0.5829 0.0320 -0.8119
vn 0.5826 0.0324 -0.8121
vn -0.9831 -0.0519 -0.1755
vn -0.9831 -0.0511 -0.1756
vn -0.9832 -0.0504 -0.1756
vn -0.0001 0.0019 -1.0000
vn 0.5835 0.0316 -0.8115
vn -0.9987 -0.0515 0.0000
vn -0.9987 -0.0511 -0.0001
vn -0.9988 -0.0499 0.0000
vn -0.9988 -0.0498 0.0000
vn 0.5833 0.0313 -0.8117
vn 0.5841 0.0307 -0.8111
vn 0.5842 0.0306 -0.8110
vn -0.9832 -0.0500 -0.1755
vn -0.9833 -0.0487 -0.1756
vn -0.9833 -0.0474 -0.1755
vn 0.5834 0.0299 -0.8116
vn 0.5835 0.0299 -0.8116
vn -0.9988 -0.0485 0.0001
vn -0.9988 -0.0485 -0.0001
vn -0.9988 -0.0497 0.0000
vn -0.9988 -0.0481 -0.0001
vn -0.9990 -0.0451 0.0000
vn -0.9990 -0.0453 0.0000
vn 0.5838 0.0296 -0.8113
vn 0.5835 0.0280 -0.8116
vn 0.5836 0.0279 -0.8116
vn -0.9834 -0.0470 -0.1755
vn -0.9835 -0.0441 -0.1756
vn -0.9836 -0.0413 -0.1755
vn 0.5836 0.0262 -0.8116
vn -0.9991 -0.0422 0.0000
vn -0.9991 -0.0422 0.0001
vn -0.9993 -0.0385 0.0001
vn -0.9992 -0.0387 0.0001
vn 0.5843 0.0262 -0.8111
vn 0.5836 0.0241 -0.8117
vn 0.5832 0.0239 -0.8120
vn 0.5842 0.0262 -0.8112
vn -0.9838 -0.0376 -0.1755
vn -0.9839 -0.0339 -0.1756
vn 0.5848 0.0218 -0.8109
vn 0.5847 0.0218 -0.8110
vn -0.9994 -0.0348 0.0001
vn -0.9993 -0.0385 0.0000
vn -0.9994 -0.0348 -0.0001
vn -0.9995 -0.0300 -0.0000
vn -0.9995 -0.0303 -0.0000
vn 0.5845 0.0218 -0.8111
vn 0.5839 0.0191 -0.8116
vn 0.5839 0.0189 -0.8116
vn -0.9840 -0.0292 -0.1755
vn -0.9842 -0.0246 -0.1755
vn 0.5840 0.0162 -0.8116
vn -0.9997 -0.0253 -0.0000
vn -0.9995 -0.0300 0.0001
vn -0.9997 -0.0245 0.0001
vn -0.9998 -0.0177 -0.0000
vn 0.5836 0.0157 -0.8119
vn 0.5841 0.0119 -0.8116
vn 0.5846 0.0116 -0.8113
vn -0.9842 -0.0238 -0.1756
vn -0.9843 -0.0172 -0.1755
vn -0.9844 -0.0105 -0.1755
vn 0.5844 0.0078 -0.8114
vn -0.9999 -0.0110 0.0001
vn -1.0000 -0.0086 0.0000
vn -1.0000 0.0024 0.0002
vn -1.0000 -0.0087 -0.0000
vn 0.5842 0.0064 -0.8116
vn 0.5848 0.0001 -0.8112
vn 0.5845 -0.0003 -0.8114
vn 0.5841 0.0064 -0.8117
vn -0.0000 0.0013 -1.0000
vn -0.9844 -0.0082 -0.1755
vn -0.9845 0.0026 -0.1755
vn -0.9844 0.0135 -0.1755
vn 0.5843 -0.0067 -0.8115
vn -0.9999 0.0134 0.0002
vn -0.9999 0.0134 -0.0002
vn -0.9998 0.0196 0.0000
vn -0.9991 0.0417 0.0000
vn -0.9991 0.0417 0.0001
vn 0.5841 -0.0103 -0.8116
vn 0.5836 -0.0229 -0.8118
vn 0.5836 -0.0239 -0.8117
vn -0.0001 0.0012 -1.0000
vn -0.9836 0.0413 -0.1755
vn -0.9843 0.0196 -0.1754
vn -0.9836 0.0413 -0.1754
vn -0.9843 0.0195 -0.1754
vn -0.9825 0.0630 -0.1753
vn -0.9825 0.0631 -0.1753
vn -0.0001 0.0010 -1.0000
vn 0.5833 -0.0365 -0.8115
vn 0.5831 -0.0365 -0.8116
vn -0.9980 0.0639 0.0001
vn -0.9980 0.0639 0.0002
usemtl WallMat.001
s 1
f 1/1/1 3/2/1 2/3/1
f 3/2/1 1/1/1 4/4/1
f 5/5/2 7/6/3 6/7/3
f 7/6/3 5/5/2 8/8/4
f 9/9/5 7/6/5 8/8/5
f 7/6/5 9/9/5 10/10/5
f 9/11/6 3/2/7 10/12/7
f 3/2/7 9/11/6 2/3/6
f 10/13/7 12/14/7 11/15/8
f 12/14/7 10/13/7 3/16/7
f 10/17/5 13/18/5 7/19/5
f 13/18/5 10/17/5 11/20/5
f 6/21/3 13/18/9 14/22/10
f 13/18/9 6/21/3 7/19/3
f 4/23/1 12/14/1 3/16/1
f 12/14/11 4/23/11 15/24/11
f 16/25/12 18/26/13 17/27/12
f 18/26/13 16/25/12 19/28/14
f 20/29/15 22/30/16 21/31/17
f 22/30/16 20/29/15 23/32/15
f 24/33/18 22/30/19 23/32/18
f 22/30/20 24/33/21 25/34/20
f 24/35/22 18/26/23 25/36/24
f 18/26/23 24/35/22 17/27/22
f 25/37/24 27/38/25 26/39/25
f 27/38/25 25/37/24 18/40/23
f 25/41/20 28/42/26 22/43/20
f 28/42/26 25/41/26 26/44/26
f 21/45/17 28/42/27 29/46/27
f 28/42/27 21/45/17 22/43/16
f 19/47/14 27/38/28 18/40/13
f 27/38/29 19/47/30 30/48/29
f 31/49/31 33/50/32 32/51/31
f 33/50/32 31/49/31 34/52/33
f 35/53/34 37/54/35 36/55/36
f 37/54/35 35/53/34 38/56/37
f 39/57/38 37/54/38 38/56/38
f 37/54/39 39/57/38 40/58/39
f 39/59/40 33/50/41 40/60/42
f 33/50/41 39/59/40 32/51/40
f 40/61/42 42/62/43 41/63/43
f 42/62/43 40/61/42 33/64/41
f 40/65/39 43/66/44 37/67/39
f 43/66/44 40/65/44 41/68/44
f 36/69/36 43/66/45 44/70/45
f 43/66/45 36/69/36 37/67/35
f 34/71/33 42/62/46 33/64/32
f 42/62/47 34/71/48 45/72/47
f 46/73/49 48/74/50 47/75/49
f 48/74/50 46/73/49 49/76/51
f 50/77/52 52/78/53 51/79/54
f 52/78/53 50/77/52 53/80/55
f 54/81/44 52/78/44 53/80/44
f 52/78/56 54/81/44 55/82/56
f 54/83/57 48/74/58 55/84/58
f 48/74/58 54/83/57 47/75/57
f 55/85/58 57/86/59 56/87/59
f 57/86/59 55/85/58 48/88/58
f 55/89/56 58/90/56 52/91/56
f 58/90/56 55/89/56 56/92/56
f 51/93/54 58/90/60 59/94/55
f 58/90/60 51/93/54 52/91/53
f 49/95/51 57/86/61 48/88/50
f 57/86/62 49/95/62 60/96/62
f 61/97/63 63/98/64 62/99/63
f 64/100/64 62/99/63 63/98/64
f 65/101/65 67/102/66 66/103/66
f 67/102/66 65/101/65 68/104/67
f 69/105/56 67/102/56 68/104/56
f 67/102/56 69/105/56 70/106/56
f 69/107/68 64/100/69 70/108/69
f 64/100/69 69/107/68 62/99/68
f 70/109/69 72/110/70 71/111/70
f 72/110/70 70/109/69 64/112/69
f 70/113/56 73/114/71 67/115/56
f 73/114/71 70/113/71 71/116/71
f 66/117/66 73/114/72 74/118/72
f 73/114/72 66/117/66 67/115/66
f 63/119/64 75/120/73 64/112/64
f 72/110/73 64/112/64 75/120/73
f 76/121/74 78/122/75 77/123/74
f 79/124/76 77/123/74 78/122/75
f 80/125/77 82/126/78 81/127/79
f 82/126/78 80/125/77 83/128/77
f 84/129/71 82/126/71 83/128/71
f 82/126/71 84/129/71 85/130/71
f 84/131/80 79/124/81 85/132/81
f 79/124/81 84/131/80 77/123/80
f 85/133/81 87/134/82 86/135/82
f 87/134/82 85/133/81 79/136/81
f 85/137/71 88/138/71 82/139/71
f 88/138/71 85/137/71 86/140/71
f 81/141/79 88/138/83 89/142/84
f 88/138/83 81/141/79 82/139/78
f 78/143/75 87/134/85 79/136/76
f 87/134/86 78/143/87 90/144/86
f 91/145/88 93/146/89 92/147/88
f 93/146/89 91/145/88 94/148/90
f 95/149/91 97/150/92 96/151/93
f 97/150/92 95/149/91 98/152/91
f 99/153/71 97/150/71 98/152/71
f 97/150/71 99/153/71 100/154/71
f 99/155/94 93/146/95 100/156/95
f 93/146/95 99/155/94 92/147/94
f 100/157/95 102/158/96 101/159/96
f 102/158/96 100/157/95 93/160/95
f 97/161/71 101/162/71 103/163/71
f 101/162/71 97/161/71 100/164/71
f 96/165/93 103/163/97 104/166/97
f 103/163/97 96/165/93 97/161/92
f 94/167/90 102/158/98 93/160/89
f 102/158/99 94/167/89 105/168/99
f 106/169/99 108/170/100 107/171/99
f 108/170/100 106/169/99 109/172/101
f 110/173/102 112/174/103 111/175/104
f 112/174/103 110/173/102 113/176/105
f 114/177/71 112/174/71 113/176/71
f 112/174/71 114/177/71 115/178/71
f 114/179/96 108/170/106 115/180/106
f 108/170/106 114/179/96 107/171/96
f 115/181/106 117/182/107 116/183/107
f 117/182/107 115/181/106 108/184/106
f 112/185/71 116/186/71 118/187/71
f 116/186/71 112/185/71 115/188/71
f 111/189/104 118/187/108 119/190/109
f 118/187/108 111/189/104 112/185/103
f 109/191/101 117/182/110 108/184/100
f 117/182/110 109/191/111 120/192/110
f 121/193/112 123/194/113 122/195/112
f 123/194/113 121/193/112 124/196/114
f 125/197/115 127/198/116 126/199/117
f 127/198/116 125/197/115 128/200/115
f 129/201/71 127/198/71 128/200/71
f 127/198/56 129/201/71 130/202/56
f 129/203/107 123/194/118 130/204/118
f 123/194/118 129/203/107 122/195/107
f 130/205/118 132/206/119 131/207/119
f 132/206/119 130/205/118 123/208/118
f 127/209/56 131/210/56 133/211/56
f 131/210/56 127/209/56 130/212/56
f 126/213/117 133/211/120 134/214/120
f 133/211/120 126/213/117 127/209/116
f 124/215/114 132/206/121 123/208/113
f 132/206/121 124/215/122 135/216/121
f 136/217/123 138/218/124 137/219/123
f 138/218/124 136/217/123 139/220/124
f 140/221/125 142/222/126 141/223/127
f 142/222/126 140/221/125 143/224/125
f 144/225/56 142/222/56 143/224/56
f 142/222/44 144/225/56 145/226/44
f 144/227/128 138/218/129 145/228/129
f 138/218/129 144/227/128 137/219/128
f 145/229/129 147/230/130 146/231/130
f 147/230/130 145/229/129 138/232/129
f 142/233/44 146/234/44 148/235/44
f 146/234/44 142/233/44 145/236/44
f 141/237/127 148/235/131 149/238/131
f 148/235/131 141/237/127 142/233/126
f 139/239/124 150/240/132 138/232/124
f 147/230/132 138/232/124 150/240/132
f 151/241/133 153/242/134 152/243/135
f 153/242/134 151/241/133 154/244/134
f 155/245/136 157/246/137 156/247/138
f 157/246/137 155/245/136 158/248/139
f 159/249/44 157/246/140 158/248/44
f 157/246/39 159/249/44 160/250/39
f 159/251/141 153/242/142 160/252/142
f 153/242/142 159/251/141 152/243/141
f 161/253/143 160/254/142 153/255/142
f 161/253/143 153/255/142 162/256/143
f 161/257/38 157/258/39 160/259/39
f 157/258/39 161/257/38 163/260/38
f 156/261/138 163/260/144 164/262/144
f 163/260/144 156/261/138 157/258/137
f 154/263/134 165/264/145 153/255/134
f 162/256/146 153/255/134 165/264/145
f 166/265/147 168/266/148 167/267/147
f 168/266/148 166/265/147 169/268/149
f 170/269/150 172/270/151 171/271/152
f 172/270/151 170/269/150 173/272/150
f 172/270/153 175/273/26 174/274/153
f 175/273/26 172/270/5 173/272/26
f 174/275/154 175/276/155 167/267/155
f 174/275/156 167/267/157 168/266/156
f 176/277/158 174/278/156 168/279/156
f 176/277/159 168/279/156 177/280/159
f 178/281/160 174/282/160 176/283/160
f 174/282/153 178/281/160 172/284/153
f 171/285/152 178/281/161 179/286/162
f 178/281/161 171/285/152 172/284/151
f 169/287/149 177/280/163 168/279/148
f 177/280/164 169/287/149 180/288/164
