# Blender v3.1.2 OBJ File: 'track.blend'
# www.blender.org
mtllib Scene.725.mtl
o _1WALL_small01_25_SUB0_Scene.725
v 16696.250000 26924.039062 -366.170105
v 16923.070312 26574.521484 -366.170105
v 16937.750000 26584.050781 -268.001099
v 16710.929688 26933.570312 -268.001099
v 16905.320312 26563.000000 -196.170105
v 16905.099609 26562.679688 -364.639221
v 16678.281250 26912.189453 -364.639221
v 16678.500000 26912.521484 -196.170105
v 16906.798828 26563.958984 -366.170013
v 16679.980469 26913.480469 -366.170105
v 16710.929688 26933.570312 -196.170105
v 16937.750000 26584.050781 -196.170105
v 17140.900391 26238.861328 -366.170013
v 17155.589844 26248.388672 -268.001007
v 17123.150391 26227.339844 -196.169998
v 17122.929688 26227.019531 -364.639099
v 17124.630859 26228.298828 -366.170013
v 17155.589844 26248.388672 -196.169998
v 17358.730469 25903.201172 -366.170013
v 17373.410156 25912.728516 -268.001007
v 17340.980469 25891.681641 -196.169998
v 17340.759766 25891.361328 -364.639099
v 17342.460938 25892.638672 -366.170013
v 17373.410156 25912.728516 -196.169998
v 17576.558594 25567.539062 -366.169891
v 17591.240234 25577.070312 -268.000885
v 17558.810547 25556.019531 -196.169907
v 17558.580078 25555.689453 -364.639008
v 17560.291016 25556.978516 -366.169891
v 17591.240234 25577.070312 -196.169907
v 17794.388672 25231.869141 -366.169800
v 17809.070312 25241.400391 -268.000793
v 17776.640625 25220.351562 -196.169800
v 17776.419922 25220.029297 -364.638916
v 17778.121094 25221.320312 -366.169800
v 17809.070312 25241.400391 -196.169800
v 18015.468750 24891.201172 -366.169800
v 18030.160156 24900.728516 -268.000793
v 17997.720703 24879.679688 -196.169800
v 17997.500000 24879.349609 -364.638916
v 17999.201172 24880.640625 -366.169800
v 18030.160156 24900.728516 -196.169800
vt 2.977629 2.001424
vt -1.021971 1.108994
vt -1.021971 2.001424
vt 2.977629 1.108993
vt -1.021971 0.580997
vt 2.977629 1.993160
vt -1.021971 1.993160
vt 2.977630 0.580997
vt 2.977629 1.899918
vt -1.021971 1.899918
vt -1.021971 1.695245
vt 2.977629 1.695245
vt 2.977629 1.688305
vt -1.021971 1.688305
vt 2.977629 0.755510
vt -1.021971 0.755511
vt 2.977629 2.001424
vt -1.021971 1.108994
vt -1.021971 2.001424
vt 2.977629 1.108993
vt -1.021971 0.580997
vt 2.977629 1.993160
vt -1.021971 1.993160
vt 2.977630 0.580997
vt 2.977629 1.899918
vt -1.021971 1.899918
vt -1.021971 1.695245
vt 2.977629 1.695245
vt 2.977629 1.688305
vt -1.021971 1.688305
vt 2.977629 0.755510
vt -1.021971 0.755511
vt 2.977629 2.001424
vt -1.021971 1.108994
vt -1.021971 2.001424
vt 2.977629 1.108993
vt -1.021971 0.580997
vt 2.977629 1.993160
vt -1.021971 1.993160
vt 2.977630 0.580997
vt 2.977629 1.899918
vt -1.021971 1.899918
vt -1.021971 1.695245
vt 2.977629 1.695245
vt 2.977629 1.688305
vt -1.021971 1.688305
vt 2.977629 0.755510
vt -1.021971 0.755511
vt 2.977629 2.001424
vt -1.021971 1.108994
vt -1.021971 2.001424
vt 2.977629 1.108993
vt -1.021971 0.580997
vt 2.977629 1.993160
vt -1.021971 1.993160
vt 2.977630 0.580997
vt 2.977629 1.899918
vt -1.021971 1.899918
vt -1.021971 1.695245
vt 2.977629 1.695245
vt 2.977629 1.688305
vt -1.021971 1.688305
vt 2.977629 0.755510
vt -1.021971 0.755511
vt 2.977629 2.001424
vt -1.021971 1.108994
vt -1.021971 2.001424
vt 2.977629 1.108993
vt -1.021971 0.580997
vt 2.977629 1.993160
vt -1.021971 1.993160
vt 2.977630 0.580997
vt 2.977629 1.899918
vt -1.021971 1.899918
vt -1.021971 1.695245
vt 2.977629 1.695245
vt 2.977629 1.688305
vt -1.021971 1.688305
vt 2.977629 0.755510
vt -1.021971 0.755511
vt 2.977629 2.001424
vt -1.021971 1.108994
vt -1.021971 2.001424
vt 2.977629 1.108993
vt -1.021971 0.580997
vt 2.977629 1.993160
vt -1.021971 1.993160
vt 2.977630 0.580997
vt 2.977629 1.899918
vt -1.021971 1.899918
vt -1.021971 1.695245
vt 2.977629 1.695245
vt 2.977629 1.688305
vt -1.021971 1.688305
vt 2.977629 0.755510
vt -1.021971 0.755511
vn 0.8258 0.5359 -0.1755
vn -0.8388 -0.5444 0.0021
vn -0.8388 -0.5444 0.0022
vn -0.0000 -0.0000 -1.0000
vn -0.4913 -0.3188 -0.8105
vn -0.4900 -0.3180 -0.8117
vn 0.8388 0.5444 0.0000
vn 0.8258 0.5359 -0.1756
vn -0.4905 -0.3183 -0.8113
vn -0.4902 -0.3182 -0.8114
vn -0.4903 -0.3182 -0.8114
vn -0.8389 -0.5444 0.0022
vn -0.4905 -0.3183 -0.8112
vn -0.4901 -0.3180 -0.8116
vn -0.4898 -0.3179 -0.8118
vn -0.4897 -0.3178 -0.8119
usemtl WallMat.001
s 1
f 1/1/1 3/2/1 2/3/1
f 3/2/1 1/1/1 4/4/1
f 5/5/2 7/6/2 6/7/2
f 7/6/3 5/5/3 8/8/3
f 1/9/4 2/10/4 9/11/4
f 1/9/4 9/11/4 10/12/4
f 7/13/5 9/11/6 6/14/6
f 9/11/6 7/13/5 10/12/5
f 11/15/7 12/16/7 4/4/7
f 3/2/7 4/4/7 12/16/7
f 2/17/1 14/18/8 13/19/8
f 14/18/8 2/17/1 3/20/1
f 15/21/2 6/22/2 16/23/2
f 6/22/2 15/21/2 5/24/2
f 2/25/4 13/26/4 17/27/4
f 2/25/4 17/27/4 9/28/4
f 6/29/6 17/27/9 16/30/9
f 17/27/9 6/29/6 9/28/6
f 12/31/7 18/32/7 3/20/7
f 14/18/7 3/20/7 18/32/7
f 13/33/8 20/34/1 19/35/1
f 20/34/1 13/33/8 14/36/8
f 21/37/2 16/38/2 22/39/2
f 16/38/2 21/37/2 15/40/2
f 13/41/4 19/42/4 23/43/4
f 13/41/4 23/43/4 17/44/4
f 16/45/9 23/43/10 22/46/11
f 23/43/10 16/45/9 17/44/9
f 18/47/7 24/48/7 14/36/7
f 20/34/7 14/36/7 24/48/7
f 19/49/1 26/50/1 25/51/1
f 26/50/1 19/49/1 20/52/1
f 27/53/12 22/54/2 28/55/12
f 22/54/2 27/53/12 21/56/2
f 19/57/4 25/58/4 29/59/4
f 19/57/4 29/59/4 23/60/4
f 22/61/11 29/59/13 28/62/13
f 29/59/13 22/61/11 23/60/10
f 24/63/7 26/50/7 20/52/7
f 26/50/7 24/63/7 30/64/7
f 25/65/1 32/66/1 31/67/1
f 32/66/1 25/65/1 26/68/1
f 33/69/2 28/70/12 34/71/2
f 28/70/12 33/69/2 27/72/12
f 25/73/4 31/74/4 35/75/4
f 25/73/4 35/75/4 29/76/4
f 28/77/13 35/75/14 34/78/15
f 35/75/14 28/77/13 29/76/13
f 30/79/7 36/80/7 26/68/7
f 32/66/7 26/68/7 36/80/7
f 31/81/1 38/82/8 37/83/8
f 38/82/8 31/81/1 32/84/1
f 39/85/12 34/86/2 40/87/12
f 34/86/2 39/85/12 33/88/2
f 31/89/4 37/90/4 41/91/4
f 31/89/4 41/91/4 35/92/4
f 34/93/15 41/91/16 40/94/16
f 41/91/16 34/93/15 35/92/14
f 36/95/7 42/96/7 32/84/7
f 38/82/7 32/84/7 42/96/7
