# Blender v3.1.2 OBJ File: 'track.blend'
# www.blender.org
mtllib Scene.476.mtl
o _0SIGN_AD01_01_Scene.476
v -20888.890625 37191.328125 -700.310303
v -20890.980469 37192.027344 -700.310303
v -20888.890625 37191.328125 -400.310272
v -20890.980469 37192.027344 -400.310272
v -20528.320312 38273.613281 -700.310303
v -20526.220703 38272.898438 -700.310303
v -20528.320312 38273.613281 -400.310425
v -20526.220703 38272.898438 -400.310425
vt 0.049357 1.803403
vt 0.049357 1.805712
vt 0.049185 1.803403
vt 0.049185 1.805712
vt 0.049357 1.801094
vt 0.049357 1.803403
vt 0.049185 1.801094
vt 0.049185 1.803403
vt 0.048841 1.809875
vt 0.049013 1.801094
vt 0.049013 1.809875
vt 0.048841 1.801094
vt 0.049185 1.809875
vt 0.049013 1.801094
vt 0.049185 1.801094
vt 0.049013 1.809875
vt 0.123661 1.809430
vt 0.000404 1.809430
vt 0.000404 1.751420
vt 0.123661 1.751420
vt 0.044709 1.809875
vt 0.044709 1.801094
vt 0.048841 1.801094
vt 0.048841 1.809875
vn -0.3173 -0.9483 0.0000
vn -0.3203 -0.9473 0.0000
vn 0.3212 0.9470 0.0000
vn 0.3159 0.9488 -0.0000
vn 0.3213 0.9470 0.0000
vn 0.3158 0.9488 0.0000
vn 0.0000 0.0000 -1.0000
vn 0.0000 0.0000 1.0000
vn 0.9481 -0.3179 0.0000
vn -0.9481 0.3179 0.0000
usemtl EnvironmentMat.001
s 1
f 1/1/1 3/2/2 2/3/1
f 2/3/1 3/2/2 4/4/2
f 5/5/3 7/6/4 6/7/5
f 6/7/5 7/6/4 8/8/6
f 2/9/7 6/10/7 1/11/7
f 6/10/7 2/9/7 5/12/7
f 8/13/8 4/14/8 3/15/8
f 4/14/8 8/13/8 7/16/8
f 1/17/9 6/18/9 8/19/9
f 1/17/9 8/19/9 3/20/9
f 5/21/10 2/22/10 4/23/10
f 5/21/10 4/23/10 7/24/10
