# Blender v3.1.2 OBJ File: 'track.blend'
# www.blender.org
mtllib Scene.393.mtl
o _0AD_emirates_004_Scene.393
v -1522.395996 79200.218750 -790.869873
v -1793.927002 78916.750000 -789.667419
v -1793.927002 78916.750000 -953.588562
v -1522.395996 79200.218750 -954.791077
v -1234.505981 79495.000000 -795.784180
v -1234.505981 79495.000000 -959.705322
v -946.820923 79784.304688 -798.189392
v -946.821045 79784.304688 -962.110718
v -1795.624878 78920.140625 -786.444092
v -1524.093994 79203.609375 -787.646606
v -1236.203979 79498.398438 -792.560913
v -948.519348 79787.687500 -794.966248
v -1524.093994 79203.609375 -671.794678
v -1795.624878 78920.140625 -670.592102
v -1236.203979 79498.398438 -676.708862
v -948.519348 79787.687500 -679.114197
v -660.031860 80078.585938 -681.414978
v -660.031860 80078.585938 -797.267029
v -658.333618 80075.187500 -800.490173
v -658.333618 80075.187500 -964.411377
v -373.963013 80364.218750 -683.454529
v -373.963013 80364.218750 -799.306396
v -96.170227 80636.921875 -685.939880
v -96.170227 80636.921875 -801.791870
v 186.157501 80914.312500 -689.632812
v 186.157501 80914.312500 -805.484741
v -372.264709 80360.820312 -802.529724
v -94.471878 80633.531250 -805.015076
v 187.855896 80910.906250 -808.708069
v -372.264801 80360.820312 -966.450989
v -94.471977 80633.531250 -968.936279
v 187.855804 80910.906250 -972.629333
v 474.111084 81194.460938 -690.802979
v 474.111084 81194.460938 -806.655029
v 475.809387 81191.070312 -809.878235
v 475.809296 81191.070312 -973.799500
v 760.369690 81471.359375 -693.637817
v 760.369690 81471.359375 -809.489807
v 1048.381104 81747.335938 -696.337219
v 1048.381104 81747.335938 -812.189209
v 1349.298950 82034.890625 -810.712219
v 1349.298950 82034.890625 -694.860229
v 762.068054 81467.960938 -812.713135
v 1050.078979 81743.929688 -815.412415
v 1350.996948 82031.484375 -813.935486
v 762.067993 81467.960938 -976.634338
v 1050.078979 81743.929688 -979.333679
v 1350.996948 82031.484375 -977.856750
v 1626.745972 82297.718750 -694.860291
v 1626.745972 82297.718750 -810.712219
v 1628.443848 82294.320312 -813.935486
v 1628.443848 82294.320312 -977.856750
v 1920.447876 82574.960938 -695.099609
v 1920.447876 82574.960938 -810.951599
v 2210.051025 82847.171875 -696.337341
v 2210.051025 82847.171875 -812.189270
v 2516.103027 83130.570312 -810.712219
v 2516.103027 83130.570312 -694.860291
v 1922.101929 82571.539062 -814.174866
v 2211.706055 82843.750000 -815.412537
v 2517.758057 83127.148438 -813.935547
v 2517.757080 83127.148438 -977.856750
v 2211.706055 82843.750000 -979.333801
v 1922.101929 82571.539062 -978.096130
v 2799.943848 83389.148438 -694.860291
v 2799.943848 83389.148438 -810.712219
v 2801.598877 83385.742188 -813.935547
v 2801.598877 83385.742188 -977.856812
vt 0.041148 1.836596
vt 0.000607 1.855196
vt 0.000607 1.836596
vt 0.041148 1.855196
vt 0.082869 1.836596
vt 0.082869 1.855197
vt 0.123911 1.836596
vt 0.123911 1.855197
vt 0.000607 1.836030
vt 0.041148 1.836030
vt 0.082869 1.836030
vt 0.123911 1.836030
vt 0.041148 1.823774
vt 0.000607 1.823774
vt 0.082869 1.823774
vt 0.123911 1.823774
vt 0.045205 1.859889
vt 0.086992 1.859889
vt 0.045205 1.872145
vt 0.086992 1.872145
vt 0.086992 1.872710
vt 0.045205 1.872710
vt 0.045205 1.855754
vt 0.086992 1.855754
vt 0.000585 1.823774
vt 0.041891 1.823774
vt 0.000585 1.836030
vt 0.041891 1.836030
vt 0.081774 1.823774
vt 0.081774 1.836030
vt 0.122225 1.823773
vt 0.122225 1.836030
vt 0.041891 1.836596
vt 0.000585 1.836596
vt 0.081774 1.836596
vt 0.122225 1.836596
vt 0.000585 1.855197
vt 0.041891 1.855197
vt 0.081774 1.855197
vt 0.122225 1.855197
vt 0.079329 1.857856
vt 0.120437 1.857856
vt 0.079329 1.870113
vt 0.120437 1.870113
vt 0.120437 1.870678
vt 0.079329 1.870678
vt 0.079329 1.853791
vt 0.120437 1.853791
vt 0.000617 1.823774
vt 0.041328 1.823774
vt 0.000617 1.836030
vt 0.041328 1.836030
vt 0.082314 1.823774
vt 0.082314 1.836030
vt 0.124321 1.836030
vt 0.124321 1.823774
vt 0.041328 1.836596
vt 0.000617 1.836596
vt 0.082314 1.836596
vt 0.124321 1.836596
vt 0.000617 1.855197
vt 0.041328 1.855197
vt 0.082314 1.855197
vt 0.124321 1.855197
vt 0.065678 1.859189
vt 0.105291 1.859189
vt 0.065678 1.871446
vt 0.105291 1.871446
vt 0.105291 1.872011
vt 0.065678 1.872011
vt 0.065678 1.855418
vt 0.105291 1.855419
vt 0.000617 1.823774
vt 0.041328 1.823774
vt 0.000617 1.836030
vt 0.041328 1.836030
vt 0.082314 1.823774
vt 0.082314 1.836030
vt 0.124321 1.836030
vt 0.124321 1.823774
vt 0.041328 1.836596
vt 0.000617 1.836596
vt 0.082314 1.836596
vt 0.124321 1.836596
vt 0.124321 1.855197
vt 0.082314 1.855197
vt 0.041328 1.855197
vt 0.000617 1.855197
vt 0.065678 1.859189
vt 0.105291 1.859189
vt 0.065678 1.871446
vt 0.105291 1.871446
vt 0.105291 1.872011
vt 0.065678 1.872011
vt 0.065678 1.855418
vt 0.105291 1.855419
vn -0.7188 0.6952 0.0000
vn -0.7221 0.6917 0.0000
vn -0.7123 0.7019 0.0000
vn -0.7122 0.7019 0.0000
vn -0.7096 0.7046 0.0000
vn -0.4861 0.4625 -0.7415
vn -0.4859 0.4622 -0.7418
vn -0.4854 0.4618 -0.7423
vn -0.4858 0.4622 -0.7419
vn -0.4853 0.4617 -0.7425
vn -0.4824 0.4649 -0.7424
vn -0.4811 0.4659 -0.7426
vn -0.4772 0.4679 -0.7439
vn -0.4773 0.4679 -0.7438
vn -0.7083 0.7059 0.0000
vn -0.4755 0.4679 -0.7449
vn -0.4750 0.4682 -0.7451
vn -0.7036 0.7106 0.0000
vn -0.7035 0.7106 0.0000
vn -0.7007 0.7135 0.0000
vn -0.6991 0.7150 0.0000
vn -0.4718 0.4700 -0.7460
vn -0.4712 0.4704 -0.7462
vn -0.4715 0.4720 -0.7449
vn -0.4716 0.4715 -0.7452
vn -0.4696 0.4730 -0.7455
vn -0.4685 0.4735 -0.7458
vn -0.6963 0.7178 0.0000
vn -0.4657 0.4748 -0.7467
vn -0.4656 0.4745 -0.7471
vn -0.6963 0.7177 0.0000
vn -0.6936 0.7204 0.0000
vn -0.6914 0.7225 0.0000
vn -0.6893 0.7245 0.0000
vn -0.4659 0.4761 -0.7458
vn -0.4655 0.4764 -0.7459
vn -0.4608 0.4790 -0.7471
vn -0.4598 0.4797 -0.7473
vn -0.4565 0.4817 -0.7481
vn -0.4563 0.4816 -0.7482
vn -0.6935 0.7204 0.0000
vn -0.6871 0.7266 0.0000
vn -0.4568 0.4827 -0.7472
vn -0.4567 0.4827 -0.7473
vn -0.6857 0.7279 0.0000
vn -0.6822 0.7312 0.0000
vn -0.6764 0.7365 0.0000
vn -0.4558 0.4819 -0.7483
vn -0.4558 0.4818 -0.7484
vn -0.4542 0.4860 -0.7466
vn -0.4530 0.4868 -0.7469
vn -0.4471 0.4885 -0.7493
vn -0.4468 0.4887 -0.7493
vn -0.6765 0.7365 0.0000
vn -0.6734 0.7392 0.0000
vn -0.4463 0.4899 -0.7489
vn -0.4468 0.4905 -0.7482
vn -0.4478 0.4899 -0.7479
vn -0.6735 0.7392 0.0000
usemtl EnvironmentMat.001
s 1
f 1/1/1 3/2/2 2/3/2
f 3/2/2 1/1/1 4/4/1
f 1/1/1 5/5/3 4/4/1
f 6/6/4 4/4/1 5/5/3
f 5/5/3 7/7/5 6/6/4
f 8/8/5 6/6/4 7/7/5
f 9/9/6 1/1/7 2/3/6
f 1/1/8 9/9/9 10/10/10
f 10/10/10 5/5/11 1/1/8
f 5/5/11 10/10/10 11/11/12
f 11/11/12 7/7/13 5/5/11
f 7/7/13 11/11/12 12/12/14
f 13/13/1 9/9/2 14/14/2
f 9/9/2 13/13/1 10/10/1
f 13/13/1 15/15/3 10/10/1
f 11/11/4 10/10/1 15/15/3
f 15/15/3 16/16/5 11/11/4
f 12/12/5 11/11/4 16/16/5
f 16/17/5 17/18/15 12/19/5
f 18/20/15 12/19/5 17/18/15
f 12/19/14 19/21/16 7/22/13
f 19/21/16 12/19/14 18/20/17
f 7/22/5 19/21/15 8/23/5
f 20/24/15 8/23/5 19/21/15
f 17/25/15 21/26/18 18/27/15
f 22/28/19 18/27/15 21/26/18
f 21/26/18 23/29/20 22/28/19
f 24/30/20 22/28/19 23/29/20
f 23/29/20 25/31/21 24/30/20
f 26/32/21 24/30/20 25/31/21
f 18/27/17 27/33/22 19/34/16
f 27/33/22 18/27/17 22/28/23
f 22/28/23 28/35/24 27/33/22
f 28/35/24 22/28/23 24/30/25
f 24/30/25 29/36/26 28/35/24
f 29/36/26 24/30/25 26/32/27
f 19/34/15 27/33/18 20/37/15
f 30/38/18 20/37/15 27/33/18
f 27/33/18 28/35/20 30/38/18
f 31/39/20 30/38/18 28/35/20
f 28/35/20 29/36/21 31/39/20
f 32/40/21 31/39/20 29/36/21
f 25/41/21 33/42/28 26/43/21
f 34/44/28 26/43/21 33/42/28
f 26/43/27 35/45/29 29/46/26
f 35/45/29 26/43/27 34/44/30
f 29/46/21 35/45/31 32/47/21
f 36/48/28 32/47/21 35/45/31
f 33/49/28 37/50/32 34/51/28
f 38/52/32 34/51/28 37/50/32
f 37/50/32 39/53/33 38/52/32
f 40/54/33 38/52/32 39/53/33
f 39/53/33 41/55/34 40/54/33
f 41/55/34 39/53/33 42/56/34
f 34/51/30 43/57/35 35/58/29
f 43/57/35 34/51/30 38/52/36
f 38/52/36 44/59/37 43/57/35
f 44/59/37 38/52/36 40/54/38
f 40/54/38 45/60/39 44/59/37
f 45/60/39 40/54/38 41/55/40
f 35/58/31 43/57/32 36/61/28
f 46/62/41 36/61/28 43/57/32
f 43/57/32 44/59/33 46/62/41
f 47/63/33 46/62/41 44/59/33
f 44/59/33 48/64/34 47/63/33
f 48/64/34 44/59/33 45/60/34
f 42/65/34 49/66/42 41/67/34
f 50/68/42 41/67/34 49/66/42
f 41/67/40 51/69/43 45/70/39
f 51/69/43 41/67/40 50/68/44
f 45/70/34 51/69/42 48/71/34
f 52/72/42 48/71/34 51/69/42
f 49/73/42 53/74/45 50/75/42
f 54/76/45 50/75/42 53/74/45
f 53/74/45 55/77/46 54/76/45
f 56/78/46 54/76/45 55/77/46
f 55/77/46 57/79/47 56/78/46
f 57/79/47 55/77/46 58/80/47
f 50/75/44 59/81/48 51/82/43
f 59/81/48 50/75/44 54/76/49
f 54/76/49 60/83/50 59/81/48
f 60/83/50 54/76/49 56/78/51
f 56/78/51 61/84/52 60/83/50
f 61/84/52 56/78/51 57/79/53
f 62/85/54 60/83/46 61/84/47
f 60/83/46 62/85/54 63/86/46
f 63/86/46 64/87/45 60/83/46
f 59/81/45 60/83/46 64/87/45
f 64/87/45 52/88/42 59/81/45
f 51/82/42 59/81/45 52/88/42
f 58/89/47 65/90/55 57/91/47
f 66/92/55 57/91/47 65/90/55
f 57/91/53 67/93/56 61/94/52
f 67/93/57 57/91/58 66/92/57
f 61/94/47 67/93/59 62/95/54
f 68/96/59 62/95/54 67/93/59
