# Blender v3.1.2 OBJ File: 'track.blend'
# www.blender.org
mtllib Scene.443.mtl
o _0LAMP_corner_04_004_Scene.443
v -2291.562988 81499.078125 -1357.156006
v -2299.240967 81507.968750 -1357.156006
v -2291.562988 81499.078125 -755.079712
v -2299.240967 81507.968750 -755.079712
v -2282.677979 81506.765625 -1357.156006
v -2282.677979 81506.765625 -755.079712
v -2290.355957 81515.648438 -1357.156006
v -2290.355957 81515.648438 -755.079712
v -2243.306885 81447.664062 -1353.155029
v -2289.736084 81501.390625 -1353.155029
v -2289.736084 81501.390625 -1347.183960
v -2243.306885 81447.664062 -1347.183960
v -2238.789062 81451.570312 -1353.155029
v -2285.218018 81505.289062 -1353.155029
v -2285.218018 81505.289062 -1347.183960
v -2238.789062 81451.570312 -1347.183960
v -2233.744141 81467.601562 -1332.651001
v -2235.755859 81465.867188 -1347.185059
v -2228.296143 81457.234375 -1358.593018
v -2208.645996 81434.500000 -1358.593018
v -2200.780029 81429.460938 -1351.846069
v -2230.785889 81415.359375 -1358.593018
v -2226.943848 81406.851562 -1351.846069
v -2250.436035 81438.101562 -1358.593018
v -2257.895996 81446.726562 -1347.185059
v -2259.906982 81445.000000 -1332.651001
v -2214.814941 81434.859375 -1349.824097
v -2237.664062 81461.296875 -1336.518921
v -2230.250977 81421.523438 -1349.824097
v -2253.099121 81447.960938 -1336.518921
v -2233.957031 81441.414062 -1343.171997
vt 0.487913 1.763667
vt 0.384907 1.763667
vt 0.487913 1.770191
vt 0.384907 1.770191
vt 0.384907 1.763618
vt 0.487913 1.763618
vt 0.384907 1.770191
vt 0.487913 1.770191
vt 0.384907 1.770191
vt 0.487913 1.770191
vt 0.384907 1.763667
vt 0.487913 1.763667
vt 0.458985 1.775614
vt 0.455340 1.775614
vt 0.458985 1.774532
vt 0.455340 1.774532
vt 0.457749 1.775614
vt 0.456575 1.776695
vt 0.456575 1.775614
vt 0.457749 1.776695
vt 0.384907 1.763667
vt 0.487913 1.770191
vt 0.487913 1.763667
vt 0.384907 1.770191
vt 0.487913 1.770191
vt 0.384907 1.770191
vt 0.487913 1.763618
vt 0.384907 1.763618
vt 0.384907 1.770191
vt 0.487913 1.770191
vt 0.384907 1.763667
vt 0.487913 1.763667
vt 0.823136 1.910260
vt 0.823136 1.910260
vt 0.823136 1.910260
vt 0.823136 1.910260
vt 0.823136 1.910260
vt 0.823136 1.910260
vt 0.823136 1.910260
vt 0.823136 1.910260
vt 0.823136 1.910260
vt 0.823136 1.910260
vt 0.492074 1.825578
vt 0.491302 1.819964
vt 0.492074 1.819964
vt 0.491302 1.825578
vt 0.492074 1.829223
vt 0.491302 1.829223
vt 0.491302 1.834838
vt 0.492074 1.834838
vt 0.491302 1.838482
vt 0.492074 1.838482
vt 0.829249 1.930272
vt 0.829249 1.930272
vt 0.829256 1.930104
vt 0.829249 1.930272
vt 0.829249 1.930272
vn -0.7569 -0.6536 0.0000
vn -0.7568 -0.6536 0.0000
vn 0.6536 -0.7568 -0.0000
vn 0.6543 -0.7562 0.0000
vn 0.6536 -0.7569 0.0000
vn 0.7566 0.6539 0.0000
vn 0.7568 0.6536 0.0000
vn -0.6539 0.7566 0.0000
vn -0.6539 0.7565 0.0000
vn -0.0000 0.0000 1.0000
vn 0.0000 0.0000 -1.0000
vn -0.7566 -0.6539 0.0000
vn -0.7566 -0.6538 0.0000
vn 0.7093 0.6853 -0.1650
vn 0.7092 0.6855 -0.1647
vn 0.7097 0.6849 -0.1653
vn 0.7091 0.6855 -0.1651
vn 0.7092 0.6854 -0.1652
vn 0.2217 -0.2566 -0.9407
vn 0.3933 -0.4549 -0.7990
vn 0.3936 -0.4555 -0.7985
vn 0.2215 -0.2562 -0.9409
vn -0.2504 0.2897 -0.9238
vn -0.6096 0.7054 -0.3617
vn -0.6098 0.7054 -0.3614
vn -0.6537 0.7568 -0.0000
vn -0.6539 0.7566 0.0001
vn -0.7809 -0.6024 -0.1650
vn -0.7809 -0.6024 -0.1652
vn -0.7806 -0.6027 -0.1655
vn -0.7811 -0.6022 -0.1651
vn -0.7811 -0.6021 -0.1652
vn 0.0076 -0.3335 0.9427
vn 0.1529 -0.5838 0.7974
vn 0.3144 -0.6301 0.7100
vn 0.0463 -0.2428 0.9690
vn 0.3286 -0.0558 0.9428
vn 0.2333 -0.0808 0.9691
vn 0.5561 -0.2364 0.7968
vn 0.5787 -0.4032 0.7089
vn 0.2327 -0.2694 0.9345
vn 0.2328 -0.2693 0.9345
vn 0.2327 -0.2693 0.9345
vn 0.2325 -0.2692 0.9346
vn 0.2325 -0.2691 0.9346
usemtl EnvironmentMat.001
s 1
f 1/1/1 3/2/2 2/3/1
f 2/3/1 3/2/2 4/4/2
f 5/5/3 6/6/4 1/7/5
f 1/7/5 6/6/4 3/8/4
f 7/9/6 8/10/7 5/5/6
f 5/5/6 8/10/7 6/6/7
f 2/11/8 4/12/9 7/9/8
f 7/9/8 4/12/9 8/10/9
f 8/13/10 4/14/10 6/15/10
f 4/14/10 3/16/10 6/15/10
f 1/17/11 7/18/11 5/19/11
f 7/18/11 1/17/11 2/20/11
f 9/21/12 11/22/13 10/23/13
f 11/22/13 9/21/12 12/24/12
f 9/25/11 10/26/11 13/27/11
f 13/27/11 10/26/11 14/28/11
f 15/29/6 16/30/6 14/28/6
f 13/27/6 14/28/6 16/30/6
f 11/31/10 12/32/10 15/29/10
f 15/29/10 12/32/10 16/30/10
f 17/33/14 19/34/15 18/35/16
f 17/33/14 20/36/17 19/34/15
f 20/36/17 17/33/14 21/37/18
f 22/38/19 21/37/20 23/39/21
f 21/37/20 22/38/19 20/36/22
f 20/36/22 22/38/19 24/40/23
f 20/36/22 24/40/23 19/34/23
f 19/34/23 24/40/23 25/41/24
f 19/34/23 25/41/24 18/35/25
f 25/41/24 17/33/26 18/35/25
f 17/33/26 25/41/24 26/42/27
f 24/40/28 26/42/29 25/41/30
f 22/38/31 26/42/29 24/40/28
f 23/39/32 26/42/29 22/38/31
f 27/43/33 17/44/34 28/45/35
f 17/44/34 27/43/33 21/46/36
f 29/47/37 21/46/36 27/43/33
f 21/46/36 29/47/37 23/48/38
f 26/49/39 23/48/38 29/47/37
f 26/49/39 29/47/37 30/50/40
f 17/51/34 26/49/39 30/50/40
f 17/51/34 30/50/40 28/52/35
f 28/53/41 30/54/42 31/55/43
f 27/56/44 28/53/41 31/55/43
f 30/54/42 29/57/45 31/55/43
f 29/57/45 27/56/44 31/55/43
