# Blender v3.1.2 OBJ File: 'track.blend'
# www.blender.org
mtllib Scene.582.mtl
o _0TRIBUENE_02_027_SUB0_Scene.582
v -22254.960938 26660.417969 -1329.716919
v -22258.490234 26762.478516 -1199.717041
v -22258.490234 26762.478516 -1329.716919
v -22254.960938 26660.417969 -1199.717041
v -25555.929688 26534.839844 -1329.716919
v -22253.888672 26661.648438 -1199.717041
v -22253.888672 26661.648438 -1329.716919
v -25555.929688 26534.839844 -1199.717041
v -25555.929688 26534.839844 -1349.717041
v -22253.888672 26661.648438 -1349.717041
v -22257.380859 26762.521484 -1329.716919
v -22257.380859 26762.521484 -1349.717041
v -22299.589844 27861.701172 -859.717102
v -22299.589844 27861.701172 -839.717102
v -25553.439453 26533.359375 -1329.716919
v -25553.439453 26533.359375 -1199.717041
v -22300.701172 27861.660156 -839.717102
v -22300.701172 27861.660156 -709.717102
v -25612.412109 27936.800781 -837.535095
v -22307.400391 28063.708984 -837.535095
v -22307.400391 28063.708984 -707.535095
v -25612.412109 27936.800781 -707.535095
v -25612.412109 27936.800781 -857.535156
v -22307.400391 28063.708984 -857.535156
v -22309.660156 28060.751953 -837.576294
v -22309.660156 28060.751953 -707.576416
v -25609.050781 27934.050781 -707.576416
v -25609.050781 27934.050781 -837.576294
v -22257.380859 26762.521484 -1199.717041
v -22299.589844 27861.701172 -709.717102
v -22301.990234 27860.888672 -837.576294
v -22301.990234 27860.888672 -707.576416
v -22299.718750 27863.861328 -857.535156
v -22299.718750 27863.861328 -837.535095
v -22299.718750 27863.861328 -707.535095
v -25604.740234 27736.937500 -837.535095
v -25604.740234 27736.937500 -707.535095
v -25604.740234 27736.937500 -857.535156
v -25601.371094 27734.189453 -837.576294
v -25601.371094 27734.189453 -707.576416
v -22302.269531 27861.599609 -839.717102
v -22260.060547 26762.412109 -1199.717041
v -22260.060547 26762.412109 -1329.716919
v -22302.269531 27861.599609 -709.717102
v -22302.269531 27861.599609 -859.717102
v -22260.060547 26762.412109 -1349.717041
v -22255.859375 26663.460938 -1349.717041
v -22255.859375 26663.460938 -1329.716919
v -22303.378906 27861.560547 -839.717102
v -22261.169922 26762.369141 -1199.717041
v -22261.169922 26762.369141 -1329.716919
v -22303.378906 27861.560547 -709.717102
v -25554.111328 26536.800781 -1349.717041
v -25554.111328 26536.800781 -1329.716919
v -22256.929688 26662.240234 -1329.716919
v -22256.929688 26662.240234 -1199.717041
v -22255.859375 26663.460938 -1199.717041
v -25554.111328 26536.800781 -1199.717041
v -25553.550781 26536.041016 -1329.716919
v -25553.550781 26536.041016 -1199.717041
v -25599.730469 27734.970703 -839.717102
v -25557.509766 26635.779297 -1329.716919
v -25557.509766 26635.779297 -1199.717041
v -25599.730469 27734.970703 -709.717102
v -25599.730469 27734.970703 -859.717102
v -25557.509766 26635.779297 -1349.717041
v -25608.820312 27933.468750 -837.535095
v -22310.718750 28060.119141 -707.535095
v -22310.718750 28060.119141 -837.535095
v -25608.820312 27933.468750 -707.535095
v -25608.820312 27933.468750 -857.535156
v -22310.718750 28060.119141 -857.535156
v -22312.990234 28057.150391 -837.576294
v -25605.458984 27930.718750 -837.576294
v -25605.458984 27930.718750 -707.576416
v -22312.990234 28057.150391 -707.576416
v -22306.880859 27860.708984 -837.576294
v -22306.880859 27860.708984 -707.576416
v -22304.609375 27863.667969 -857.535156
v -22304.609375 27863.667969 -837.535095
v -22304.609375 27863.667969 -707.535095
v -25599.849609 27737.130859 -837.535095
v -25599.849609 27737.130859 -707.535095
v -25599.849609 27737.130859 -857.535156
v -25596.480469 27734.380859 -837.576294
v -25596.480469 27734.380859 -707.576416
v -25602.398438 27734.869141 -839.717102
v -25560.189453 26635.681641 -1199.717041
v -25560.189453 26635.681641 -1329.716919
v -25602.398438 27734.869141 -709.717102
v -25602.398438 27734.869141 -859.717102
v -25560.189453 26635.689453 -1349.717041
v -25552.529297 26533.789062 -1329.716919
v -25556.058594 26635.839844 -1199.717041
v -25556.058594 26635.849609 -1329.716919
v -25552.529297 26533.789062 -1199.717041
v -25598.269531 27735.031250 -839.717102
v -25598.269531 27735.031250 -709.717102
v -25600.949219 27734.929688 -839.717102
v -25558.740234 26635.738281 -1199.717041
v -25558.740234 26635.738281 -1329.716919
v -25600.949219 27734.929688 -709.717102
v -25554.500000 26535.611328 -1329.716919
v -25554.500000 26535.611328 -1199.717041
vt 102.061203 1.445998
vt 106.201202 1.445998
vt 106.201202 1.808102
vt 102.061203 1.808102
vt -1.128167 1.445998
vt 7.317342 1.445998
vt 7.317341 1.808102
vt -1.128167 1.808102
vt 0.439238 1.852482
vt 0.439238 1.852482
vt 0.439238 1.901746
vt 0.439238 1.901746
vt 0.439238 1.901746
vt 0.439238 1.852482
vt 0.439238 1.852482
vt 0.439238 1.901746
vt -32.960171 1.445998
vt -32.960171 1.808102
vt -133.517502 1.445998
vt -20.685499 1.808102
vt -20.685499 1.445998
vt -133.517502 1.808102
vt 1.994339 1.445998
vt 10.414750 1.808102
vt 10.414750 1.445998
vt 1.994339 1.808102
vt 0.439238 1.852482
vt 0.439238 1.901746
vt 0.439238 1.852482
vt 0.439238 1.901746
vt 103.806503 1.445998
vt -30.874689 1.808102
vt 103.806503 1.808102
vt -30.874689 1.445998
vt 7.573064 1.445998
vt 7.573063 1.808102
vt -7.406326 1.445998
vt -0.354325 1.808102
vt -0.354325 1.445998
vt -7.406326 1.808102
vt 111.989601 1.445998
vt 111.989601 1.808102
vt 0.439238 1.852482
vt 0.439238 1.901746
vt 10.925800 1.445998
vt 10.925800 1.808102
vt 1.483288 1.445998
vt 1.483288 1.808102
vt 0.439238 1.901746
vt 0.439238 1.852482
vt -39.057812 1.445998
vt -39.057812 1.808102
vt -7.406326 1.445998
vt -0.354325 1.445998
vt -0.354325 1.808102
vt -7.406326 1.808102
vt 0.439238 1.852482
vt 0.439238 1.901746
vt 0.439238 1.901746
vt 0.439238 1.852482
vt 0.439238 1.852482
vt 0.439238 1.901746
vt -133.517502 1.445998
vt -20.685499 1.445998
vt -20.685499 1.808102
vt -133.517502 1.808102
vt 0.439238 1.852482
vt 0.439238 1.901746
vt 102.061203 1.445998
vt 106.201202 1.808102
vt 106.201202 1.445998
vt 102.061203 1.808102
vt 7.317342 1.445998
vt 7.573063 1.808102
vt 7.573064 1.445998
vt 7.317341 1.808102
vt -1.128167 1.445998
vt -1.128167 1.808102
vt -32.960171 1.445998
vt -32.960171 1.808102
vt -7.406326 1.445998
vt -0.354325 1.808102
vt -0.354325 1.445998
vt -7.406326 1.808102
vt 0.439238 1.901746
vt 0.439238 1.901746
vt 0.439238 1.852482
vt 0.439238 1.852482
vt 7.317342 1.445998
vt 7.573064 1.445998
vt 7.573063 1.808102
vt 7.317341 1.808102
vt 1.994339 1.445998
vt 10.414750 1.445998
vt 10.414750 1.808102
vt 1.994339 1.808102
vt 0.439238 1.852482
vt 0.439238 1.852482
vt 0.439238 1.901746
vt 0.439238 1.901746
vt 103.806503 1.445998
vt -30.874689 1.808102
vt -30.874689 1.445998
vt 103.806503 1.808102
vt 111.989601 1.445998
vt 111.989601 1.808102
vt 0.439238 1.852482
vt 0.439238 1.901746
vt 10.925800 1.445998
vt 10.925800 1.808102
vt 1.483288 1.445998
vt 1.483288 1.808102
vt 0.439238 1.901746
vt 0.439238 1.852482
vt -39.057812 1.445998
vt -39.057812 1.808102
vt -7.406326 1.445998
vt -0.354325 1.445998
vt -0.354325 1.808102
vt -7.406326 1.808102
vt 0.439238 1.852482
vt 0.439238 1.901746
vt 0.439238 1.901746
vt 0.439238 1.852482
vt 7.317342 1.445998
vt 7.573063 1.808102
vt 7.573064 1.445998
vt 7.317341 1.808102
vt 102.061203 1.445998
vt 106.201202 1.445998
vt 106.201202 1.808102
vt 102.061203 1.808102
vt -133.517502 1.445998
vt -20.685499 1.808102
vt -20.685499 1.445998
vt -133.517502 1.808102
vt -133.517502 1.445998
vt -20.685499 1.445998
vt -20.685499 1.808102
vt -133.517502 1.808102
vt 102.061203 1.445998
vt 106.201202 1.808102
vt 106.201202 1.445998
vt 102.061203 1.808102
vn 0.9994 0.0346 0.0000
vn 0.9993 0.0381 -0.0000
vn 0.9994 0.0349 0.0000
vn 0.0384 -0.9993 0.0000
vn 0.9993 0.0385 0.0000
vn 0.9993 0.0384 0.0000
vn 0.0385 -0.9993 0.0000
vn -0.0384 0.9993 0.0000
vn 0.9994 0.0348 0.0000
vn 0.9993 0.0383 0.0000
vn -0.9993 -0.0384 0.0000
vn -0.9993 -0.0383 0.0000
vn -0.9991 -0.0421 -0.0000
vn -0.9991 -0.0424 0.0000
vn -0.9993 -0.0387 0.0000
vn -0.9992 -0.0412 0.0000
vn -0.9991 -0.0423 0.0000
vn -0.0383 0.9993 0.0000
vn 0.9994 0.0343 0.0000
vn -0.9995 -0.0311 0.0000
vn 0.9990 0.0457 0.0000
vn 0.9990 0.0456 0.0000
vn -0.9991 -0.0418 -0.0000
vn -0.9991 -0.0422 -0.0000
vn 0.9993 0.0380 0.0000
vn 0.9994 0.0349 0.0001
vn 0.9994 0.0345 0.0000
usemtl GitterMat.001
s 1
f 1/1/1 3/2/2 2/3/3
f 1/1/1 2/3/3 4/4/1
f 5/5/4 7/6/4 6/7/4
f 5/5/4 6/7/4 8/8/4
f 9/9/4 10/10/4 7/11/4
f 9/9/4 7/11/4 5/12/4
f 10/10/1 11/13/1 7/11/1
f 10/10/1 12/14/1 11/13/1
f 13/15/5 11/13/1 12/14/1
f 14/16/6 11/13/1 13/15/5
f 15/17/7 1/1/7 4/4/7
f 15/17/7 4/4/7 16/18/7
f 17/19/6 2/20/3 3/21/2
f 18/22/6 2/20/3 17/19/6
f 19/23/8 21/24/8 20/25/8
f 21/24/8 19/23/8 22/26/8
f 23/27/8 20/28/8 24/29/8
f 20/28/8 23/27/8 19/30/8
f 25/31/8 27/32/8 26/33/8
f 27/32/8 25/31/8 28/34/8
f 7/6/1 11/35/1 29/36/9
f 7/6/1 29/36/9 6/7/1
f 14/37/6 29/38/9 11/39/1
f 30/40/6 29/38/9 14/37/6
f 31/41/10 25/31/10 26/33/10
f 31/41/10 26/33/10 32/42/10
f 33/43/6 24/29/6 20/28/6
f 33/43/6 20/28/6 34/44/6
f 34/45/6 20/25/6 21/24/6
f 34/45/6 21/24/6 35/46/6
f 36/47/11 37/48/11 19/23/11
f 19/23/11 37/48/11 22/26/12
f 36/49/11 23/27/11 38/50/11
f 23/27/11 36/49/11 19/30/11
f 39/51/11 40/52/11 28/34/11
f 28/34/11 40/52/11 27/32/11
f 41/53/11 43/54/11 42/55/13
f 41/53/11 42/55/13 44/56/11
f 45/57/11 43/58/11 41/59/11
f 45/57/11 46/60/11 43/58/11
f 47/61/14 43/58/11 46/60/11
f 43/58/11 47/61/14 48/62/14
f 49/63/11 51/64/15 50/65/16
f 49/63/11 50/65/16 52/66/11
f 53/67/8 48/62/8 47/61/8
f 48/62/8 53/67/8 54/68/8
f 55/69/17 50/70/16 51/71/15
f 50/70/17 55/69/17 56/72/17
f 48/73/14 42/74/13 43/75/11
f 42/74/13 48/73/14 57/76/14
f 54/77/8 57/76/8 48/73/8
f 57/76/8 54/77/8 58/78/8
f 59/79/18 56/72/18 55/69/18
f 56/72/18 59/79/18 60/80/18
f 61/81/6 63/82/1 62/83/10
f 64/84/6 63/82/1 61/81/6
f 61/85/6 62/86/10 65/87/6
f 65/87/6 62/86/10 66/88/10
f 53/67/19 66/88/10 62/86/10
f 53/67/19 62/86/10 54/68/19
f 54/89/19 62/90/10 63/91/1
f 54/89/19 63/91/1 58/92/19
f 67/93/4 69/94/4 68/95/4
f 67/93/4 68/95/4 70/96/4
f 71/97/4 72/98/4 69/99/4
f 71/97/4 69/99/4 67/100/4
f 73/101/4 75/102/4 74/103/4
f 75/102/4 73/101/4 76/104/4
f 77/105/20 76/104/20 73/101/20
f 76/104/20 77/105/20 78/106/20
f 79/107/20 69/99/20 72/98/20
f 69/99/20 79/107/20 80/108/20
f 80/109/20 68/95/20 69/94/20
f 68/95/20 80/109/20 81/110/20
f 82/111/21 67/93/22 83/112/22
f 67/93/22 70/96/22 83/112/22
f 67/100/22 82/113/21 71/97/22
f 84/114/22 71/97/22 82/113/22
f 85/115/21 74/103/21 86/116/21
f 74/103/21 75/102/21 86/116/21
f 87/117/11 89/118/11 88/119/23
f 87/117/11 88/119/23 90/120/11
f 91/121/11 89/122/11 87/123/11
f 91/121/11 92/124/11 89/122/11
f 9/9/24 89/122/11 92/124/11
f 89/122/11 9/9/24 5/12/24
f 5/125/24 88/126/23 89/127/11
f 88/126/23 5/125/24 8/128/24
f 93/129/1 95/130/25 94/131/26
f 93/129/1 94/131/26 96/132/27
f 97/133/6 94/134/26 95/135/25
f 98/136/6 94/134/26 97/133/6
f 99/137/11 101/138/15 100/139/13
f 99/137/11 100/139/13 102/140/11
f 103/141/17 100/142/13 101/143/15
f 100/142/13 103/141/17 104/144/17
