# Blender v3.1.2 OBJ File: 'track.blend'
# www.blender.org
mtllib Scene.585.mtl
o _0TRIBUENE_02_028_SUB0_Scene.585
v -18902.890625 25368.099609 -1959.717041
v -18906.429688 25470.150391 -1829.717041
v -18906.429688 25470.160156 -1959.717041
v -18902.890625 25368.099609 -1829.717041
v -22203.869141 25242.519531 -1959.717041
v -18901.830078 25369.330078 -1829.717041
v -18901.830078 25369.330078 -1959.717041
v -22203.869141 25242.519531 -1829.717041
v -22203.869141 25242.519531 -1979.717041
v -18901.830078 25369.330078 -1979.717041
v -18905.320312 25470.199219 -1959.717041
v -18905.320312 25470.199219 -1979.717041
v -19002.019531 27988.339844 -859.717102
v -19002.019531 27988.339844 -839.717102
v -22201.378906 25241.039062 -1959.717041
v -22201.378906 25241.039062 -1829.717041
v -19003.128906 27988.291016 -839.717102
v -19003.128906 27988.291016 -709.717102
v -22314.839844 28063.431641 -837.535095
v -19009.830078 28190.341797 -837.535095
v -19009.830078 28190.341797 -707.535095
v -22314.839844 28063.431641 -707.535095
v -22314.839844 28063.431641 -857.535156
v -19009.830078 28190.341797 -857.535156
v -19012.089844 28187.380859 -837.576294
v -19012.089844 28187.380859 -707.576416
v -22311.480469 28060.681641 -707.576416
v -22311.480469 28060.681641 -837.576294
v -18905.320312 25470.199219 -1829.717041
v -19002.019531 27988.339844 -709.717102
v -19004.419922 27987.521484 -837.576294
v -19004.419922 27987.521484 -707.576416
v -19002.150391 27990.490234 -857.535156
v -19002.150391 27990.490234 -837.535095
v -19002.150391 27990.490234 -707.535095
v -22307.160156 27863.570312 -837.535095
v -22307.160156 27863.570312 -707.535095
v -22307.160156 27863.570312 -857.535156
v -22303.798828 27860.818359 -837.576294
v -22303.798828 27860.818359 -707.576416
v -19004.699219 27988.228516 -839.717102
v -18908.000000 25470.089844 -1829.717041
v -18908.000000 25470.089844 -1959.717041
v -19004.699219 27988.228516 -709.717102
v -19004.699219 27988.228516 -859.717102
v -18908.000000 25470.089844 -1979.717041
v -18903.798828 25371.138672 -1979.717041
v -18903.798828 25371.138672 -1959.717041
v -19005.810547 27988.189453 -839.717102
v -18909.109375 25470.050781 -1829.717041
v -18909.109375 25470.050781 -1959.717041
v -19005.810547 27988.189453 -709.717102
v -22202.048828 25244.478516 -1979.717041
v -22202.048828 25244.478516 -1959.717041
v -18904.859375 25369.919922 -1959.717041
v -18904.859375 25369.919922 -1829.717041
v -18903.798828 25371.138672 -1829.717041
v -22202.048828 25244.478516 -1829.717041
v -22201.480469 25243.718750 -1959.717041
v -22201.480469 25243.718750 -1829.717041
v -22302.160156 27861.609375 -839.717102
v -22205.451172 25343.460938 -1959.717041
v -22205.451172 25343.460938 -1829.717041
v -22302.160156 27861.609375 -709.717102
v -22302.160156 27861.609375 -859.717102
v -22205.451172 25343.460938 -1979.717041
v -22311.250000 28060.101562 -837.535095
v -19013.150391 28186.750000 -707.535095
v -19013.150391 28186.750000 -837.535095
v -22311.250000 28060.101562 -707.535095
v -22311.250000 28060.101562 -857.535156
v -19013.150391 28186.750000 -857.535156
v -19015.419922 28183.789062 -837.576294
v -22307.890625 28057.347656 -837.576294
v -22307.890625 28057.347656 -707.576416
v -19015.419922 28183.789062 -707.576416
v -19009.308594 27987.341797 -837.576294
v -19009.308594 27987.341797 -707.576416
v -19007.041016 27990.300781 -857.535156
v -19007.041016 27990.300781 -837.535095
v -19007.041016 27990.300781 -707.535095
v -22302.269531 27863.759766 -837.535095
v -22302.269531 27863.759766 -707.535095
v -22302.269531 27863.759766 -857.535156
v -22298.910156 27861.011719 -837.576294
v -22298.910156 27861.011719 -707.576416
v -22304.830078 27861.500000 -839.717102
v -22208.128906 25343.359375 -1829.717041
v -22208.128906 25343.359375 -1959.717041
v -22304.830078 27861.500000 -709.717102
v -22304.830078 27861.500000 -859.717102
v -22208.128906 25343.369141 -1979.717041
v -22200.458984 25241.470703 -1959.717041
v -22204.000000 25343.519531 -1829.717041
v -22204.000000 25343.519531 -1959.717041
v -22200.458984 25241.470703 -1829.717041
v -22300.701172 27861.660156 -839.717102
v -22300.701172 27861.660156 -709.717102
v -22303.378906 27861.560547 -839.717102
v -22206.679688 25343.419922 -1829.717041
v -22206.679688 25343.419922 -1959.717041
v -22303.378906 27861.560547 -709.717102
v -22202.431641 25243.291016 -1959.717041
v -22202.431641 25243.291016 -1829.717041
vt 102.061203 1.445998
vt 106.201202 1.445998
vt 106.201202 1.808102
vt 102.061203 1.808102
vt -1.128167 1.445998
vt 7.317342 1.445998
vt 7.317341 1.808102
vt -1.128167 1.808102
vt 0.439238 1.852482
vt 0.439238 1.852482
vt 0.439238 1.901746
vt 0.439238 1.901746
vt 0.439238 1.901746
vt 0.439238 1.852482
vt 0.439238 1.852482
vt 0.439238 1.901746
vt -32.960171 1.445998
vt -32.960171 1.808102
vt -133.517502 1.445998
vt -20.685499 1.808102
vt -20.685499 1.445998
vt -133.517502 1.808102
vt 1.994339 1.445998
vt 10.414750 1.808102
vt 10.414750 1.445998
vt 1.994339 1.808102
vt 0.439238 1.852482
vt 0.439238 1.901746
vt 0.439238 1.852482
vt 0.439238 1.901746
vt 103.806503 1.445998
vt -30.874689 1.808102
vt 103.806503 1.808102
vt -30.874689 1.445998
vt 7.573064 1.445998
vt 7.573063 1.808102
vt -7.406326 1.445998
vt -0.354325 1.808102
vt -0.354325 1.445998
vt -7.406326 1.808102
vt 111.989601 1.445998
vt 111.989601 1.808102
vt 0.439238 1.852482
vt 0.439238 1.901746
vt 10.925800 1.445998
vt 10.925800 1.808102
vt 1.483288 1.445998
vt 1.483288 1.808102
vt 0.439238 1.901746
vt 0.439238 1.852482
vt -39.057812 1.445998
vt -39.057812 1.808102
vt -7.406326 1.445998
vt -0.354325 1.445998
vt -0.354325 1.808102
vt -7.406326 1.808102
vt 0.439238 1.852482
vt 0.439238 1.901746
vt 0.439238 1.901746
vt 0.439238 1.852482
vt 0.439238 1.852482
vt 0.439238 1.901746
vt -133.517502 1.445998
vt -20.685499 1.445998
vt -20.685499 1.808102
vt -133.517502 1.808102
vt 0.439238 1.852482
vt 0.439238 1.901746
vt 102.061203 1.445998
vt 106.201202 1.808102
vt 106.201202 1.445998
vt 102.061203 1.808102
vt 7.317342 1.445998
vt 7.573063 1.808102
vt 7.573064 1.445998
vt 7.317341 1.808102
vt -1.128167 1.445998
vt -1.128167 1.808102
vt -32.960171 1.445998
vt -32.960171 1.808102
vt -7.406326 1.445998
vt -0.354325 1.808102
vt -0.354325 1.445998
vt -7.406326 1.808102
vt 0.439238 1.901746
vt 0.439238 1.901746
vt 0.439238 1.852482
vt 0.439238 1.852482
vt 7.317342 1.445998
vt 7.573064 1.445998
vt 7.573063 1.808102
vt 7.317341 1.808102
vt 1.994339 1.445998
vt 10.414750 1.445998
vt 10.414750 1.808102
vt 1.994339 1.808102
vt 0.439238 1.852482
vt 0.439238 1.852482
vt 0.439238 1.901746
vt 0.439238 1.901746
vt 103.806503 1.445998
vt -30.874689 1.808102
vt -30.874689 1.445998
vt 103.806503 1.808102
vt 111.989601 1.445998
vt 111.989601 1.808102
vt 0.439238 1.852482
vt 0.439238 1.901746
vt 10.925800 1.445998
vt 10.925800 1.808102
vt 1.483288 1.445998
vt 1.483288 1.808102
vt 0.439238 1.901746
vt 0.439238 1.852482
vt -39.057812 1.445998
vt -39.057812 1.808102
vt -7.406326 1.445998
vt -0.354325 1.445998
vt -0.354325 1.808102
vt -7.406326 1.808102
vt 0.439238 1.852482
vt 0.439238 1.901746
vt 0.439238 1.901746
vt 0.439238 1.852482
vt 7.317342 1.445998
vt 7.573063 1.808102
vt 7.573064 1.445998
vt 7.317341 1.808102
vt 102.061203 1.445998
vt 106.201202 1.445998
vt 106.201202 1.808102
vt 102.061203 1.808102
vt -133.517502 1.445998
vt -20.685499 1.808102
vt -20.685499 1.445998
vt -133.517502 1.808102
vt -133.517502 1.445998
vt -20.685499 1.445998
vt -20.685499 1.808102
vt -133.517502 1.808102
vt 102.061203 1.445998
vt 106.201202 1.808102
vt 106.201202 1.445998
vt 102.061203 1.808102
vn 0.9994 0.0347 0.0000
vn 0.9993 0.0381 0.0000
vn 0.9994 0.0349 0.0000
vn 0.0384 -0.9993 0.0000
vn 0.9994 0.0346 0.0000
vn 0.9993 0.0383 0.0000
vn 0.9993 0.0384 0.0000
vn 0.0385 -0.9993 0.0000
vn -0.0384 0.9993 0.0000
vn -0.9993 -0.0384 0.0000
vn -0.9993 -0.0385 -0.0000
vn -0.9991 -0.0422 -0.0000
vn -0.9993 -0.0383 0.0000
vn -0.9991 -0.0424 0.0000
vn -0.9992 -0.0387 -0.0000
vn -0.9992 -0.0412 0.0000
vn -0.0383 0.9993 0.0000
vn 0.9994 0.0344 0.0000
vn -0.9995 -0.0311 0.0000
vn 0.9990 0.0457 0.0000
vn -0.9993 -0.0385 -0.0001
vn -0.9991 -0.0419 -0.0000
vn -0.9993 -0.0384 -0.0001
vn 0.9994 0.0350 0.0000
vn -0.9991 -0.0421 -0.0000
usemtl GitterMat.001
s 1
f 1/1/1 3/2/2 2/3/3
f 1/1/1 2/3/3 4/4/1
f 5/5/4 7/6/4 6/7/4
f 5/5/4 6/7/4 8/8/4
f 9/9/4 10/10/4 7/11/4
f 9/9/4 7/11/4 5/12/4
f 10/10/5 11/13/5 7/11/5
f 10/10/5 12/14/1 11/13/5
f 13/15/6 11/13/5 12/14/1
f 14/16/7 11/13/5 13/15/6
f 15/17/8 1/1/8 4/4/8
f 15/17/8 4/4/8 16/18/8
f 17/19/7 2/20/3 3/21/2
f 18/22/7 2/20/3 17/19/7
f 19/23/9 21/24/9 20/25/9
f 21/24/9 19/23/9 22/26/9
f 23/27/9 20/28/9 24/29/9
f 20/28/9 23/27/9 19/30/9
f 25/31/9 27/32/9 26/33/9
f 27/32/9 25/31/9 28/34/9
f 7/6/5 11/35/5 29/36/3
f 7/6/5 29/36/3 6/7/5
f 14/37/7 29/38/3 11/39/5
f 30/40/7 29/38/3 14/37/7
f 31/41/6 25/31/6 26/33/6
f 31/41/6 26/33/6 32/42/6
f 33/43/7 24/29/7 20/28/7
f 33/43/7 20/28/7 34/44/7
f 34/45/7 20/25/7 21/24/7
f 34/45/7 21/24/7 35/46/7
f 36/47/10 37/48/10 19/23/10
f 19/23/10 37/48/10 22/26/10
f 36/49/10 23/27/10 38/50/10
f 23/27/10 36/49/10 19/30/10
f 39/51/10 40/52/10 28/34/10
f 28/34/10 40/52/10 27/32/10
f 41/53/10 43/54/11 42/55/12
f 41/53/10 42/55/12 44/56/10
f 45/57/13 43/58/11 41/59/10
f 45/57/13 46/60/10 43/58/11
f 47/61/14 43/58/11 46/60/10
f 43/58/11 47/61/14 48/62/14
f 49/63/10 51/64/15 50/65/16
f 49/63/10 50/65/16 52/66/10
f 53/67/9 48/62/9 47/61/9
f 48/62/9 53/67/9 54/68/9
f 55/69/14 50/70/16 51/71/15
f 50/70/14 55/69/14 56/72/14
f 48/73/14 42/74/12 43/75/11
f 42/74/12 48/73/14 57/76/14
f 54/77/9 57/76/9 48/73/9
f 57/76/9 54/77/9 58/78/9
f 59/79/17 56/72/17 55/69/17
f 56/72/17 59/79/17 60/80/17
f 61/81/7 63/82/5 62/83/6
f 64/84/7 63/82/5 61/81/7
f 61/85/7 62/86/6 65/87/7
f 65/87/7 62/86/6 66/88/6
f 53/67/18 66/88/6 62/86/6
f 53/67/18 62/86/6 54/68/18
f 54/89/18 62/90/6 63/91/5
f 54/89/18 63/91/5 58/92/18
f 67/93/4 69/94/4 68/95/4
f 67/93/4 68/95/4 70/96/4
f 71/97/4 72/98/4 69/99/4
f 71/97/4 69/99/4 67/100/4
f 73/101/4 75/102/4 74/103/4
f 75/102/4 73/101/4 76/104/4
f 77/105/19 76/104/19 73/101/19
f 76/104/19 77/105/19 78/106/19
f 79/107/19 69/99/19 72/98/19
f 69/99/19 79/107/19 80/108/19
f 80/109/19 68/95/19 69/94/19
f 68/95/19 80/109/19 81/110/19
f 82/111/20 67/93/20 83/112/20
f 67/93/20 70/96/20 83/112/20
f 67/100/20 82/113/20 71/97/20
f 84/114/20 71/97/20 82/113/20
f 85/115/20 74/103/20 86/116/20
f 74/103/20 75/102/20 86/116/20
f 87/117/10 89/118/21 88/119/22
f 87/117/10 88/119/22 90/120/10
f 91/121/13 89/122/21 87/123/10
f 91/121/13 92/124/23 89/122/21
f 9/9/12 89/122/21 92/124/23
f 89/122/21 9/9/12 5/12/12
f 5/125/12 88/126/22 89/127/21
f 88/126/22 5/125/12 8/128/12
f 93/129/1 95/130/2 94/131/24
f 93/129/1 94/131/24 96/132/1
f 97/133/7 94/134/24 95/135/2
f 98/136/7 94/134/24 97/133/7
f 99/137/10 101/138/15 100/139/25
f 99/137/10 100/139/25 102/140/10
f 103/141/14 100/142/25 101/143/15
f 100/142/25 103/141/14 104/144/14
