# Blender v3.1.2 OBJ File: 'track.blend'
# www.blender.org
mtllib Scene.441.mtl
o _0LAMP_corner_04_002_Scene.441
v 4566.344238 87327.281250 -1357.156006
v 4558.795898 87336.281250 -1357.156006
v 4566.344238 87327.281250 -755.079712
v 4558.795898 87336.281250 -755.079712
v 4575.339844 87334.835938 -1357.156006
v 4575.339844 87334.835938 -755.079712
v 4567.791016 87343.820312 -1357.156006
v 4567.791016 87343.820312 -755.079712
v 4613.847168 87275.156250 -1353.155029
v 4568.204102 87329.546875 -1353.155029
v 4568.204102 87329.546875 -1347.183960
v 4613.847168 87275.156250 -1347.183960
v 4618.419922 87279.000000 -1353.155029
v 4572.777832 87333.390625 -1353.155029
v 4572.777832 87333.390625 -1347.183960
v 4618.419922 87279.000000 -1347.183960
v 4623.698242 87294.960938 -1332.651001
v 4621.662109 87293.265625 -1347.185059
v 4628.995117 87284.523438 -1358.593018
v 4648.312012 87261.492188 -1358.593018
v 4656.104004 87256.343750 -1351.846069
v 4625.895020 87242.679688 -1358.593018
v 4629.613281 87234.117188 -1351.846069
v 4606.578125 87265.695312 -1358.593018
v 4599.245117 87274.437500 -1347.185059
v 4597.208984 87272.742188 -1332.651001
v 4642.148926 87261.937500 -1349.824097
v 4619.687988 87288.710938 -1336.518921
v 4626.520020 87248.828125 -1349.824097
v 4604.058594 87275.601562 -1336.518921
v 4623.104004 87268.765625 -1343.171997
vt 0.487913 1.763667
vt 0.384907 1.763667
vt 0.487913 1.770191
vt 0.384907 1.770191
vt 0.384907 1.763618
vt 0.487913 1.763618
vt 0.384907 1.770191
vt 0.487913 1.770191
vt 0.384907 1.770191
vt 0.487913 1.770191
vt 0.384907 1.763667
vt 0.487913 1.763667
vt 0.458985 1.775614
vt 0.455340 1.775614
vt 0.458985 1.774532
vt 0.455340 1.774532
vt 0.457749 1.775614
vt 0.456575 1.776695
vt 0.456575 1.775614
vt 0.457749 1.776695
vt 0.384907 1.763667
vt 0.487913 1.770191
vt 0.487913 1.763667
vt 0.384907 1.770191
vt 0.487913 1.770191
vt 0.384907 1.770191
vt 0.487913 1.763618
vt 0.384907 1.763618
vt 0.384907 1.770191
vt 0.487913 1.770191
vt 0.384907 1.763667
vt 0.487913 1.763667
vt 0.823136 1.910260
vt 0.823136 1.910260
vt 0.823136 1.910260
vt 0.823136 1.910260
vt 0.823136 1.910260
vt 0.823136 1.910260
vt 0.823136 1.910260
vt 0.823136 1.910260
vt 0.823136 1.910260
vt 0.823136 1.910260
vt 0.492074 1.825578
vt 0.491302 1.819964
vt 0.492074 1.819964
vt 0.491302 1.825578
vt 0.492074 1.829223
vt 0.491302 1.829223
vt 0.491302 1.834838
vt 0.492074 1.834838
vt 0.491302 1.838482
vt 0.492074 1.838482
vt 0.829249 1.930272
vt 0.829249 1.930272
vt 0.829256 1.930104
vt 0.829249 1.930272
vt 0.829249 1.930272
vn -0.7658 -0.6431 0.0000
vn -0.7662 -0.6426 0.0000
vn 0.6431 -0.7658 0.0000
vn 0.6418 -0.7668 0.0000
vn 0.7662 0.6426 -0.0000
vn 0.7661 0.6428 0.0000
vn -0.6430 0.7658 0.0000
vn -0.6423 0.7664 0.0000
vn -0.6431 0.7658 0.0000
vn 0.0000 0.0000 1.0000
vn 0.0000 0.0000 -1.0000
vn -0.7660 -0.6428 0.0000
vn 0.7660 0.6428 0.0000
vn 0.7194 0.6747 -0.1650
vn 0.7192 0.6749 -0.1652
vn 0.7200 0.6741 -0.1649
vn 0.7193 0.6749 -0.1648
vn 0.7194 0.6748 -0.1647
vn 0.2180 -0.2599 -0.9407
vn 0.3866 -0.4613 -0.7986
vn 0.3869 -0.4611 -0.7985
vn 0.2181 -0.2599 -0.9407
vn -0.2457 0.2932 -0.9240
vn -0.2463 0.2932 -0.9238
vn -0.5994 0.7141 -0.3617
vn -0.5997 0.7140 -0.3614
vn -0.6430 0.7659 -0.0005
vn -0.6430 0.7659 0.0001
vn -0.7897 -0.5909 -0.1650
vn -0.7897 -0.5909 -0.1651
vn -0.7895 -0.5911 -0.1652
vn -0.7896 -0.5909 -0.1652
vn -0.7896 -0.5909 -0.1653
vn 0.0030 -0.3335 0.9427
vn 0.1446 -0.5864 0.7970
vn 0.3059 -0.6359 0.7086
vn 0.0428 -0.2435 0.9689
vn 0.3282 -0.0606 0.9427
vn 0.2324 -0.0843 0.9690
vn 0.5516 -0.2443 0.7976
vn 0.5718 -0.4112 0.7099
vn 0.2287 -0.2726 0.9345
vn 0.2292 -0.2727 0.9344
vn 0.2286 -0.2726 0.9346
vn 0.2287 -0.2726 0.9346
vn 0.2287 -0.2727 0.9345
usemtl EnvironmentMat.001
s 1
f 1/1/1 3/2/2 2/3/1
f 2/3/1 3/2/2 4/4/2
f 5/5/3 6/6/4 1/7/3
f 1/7/3 6/6/4 3/8/4
f 7/9/5 8/10/6 5/5/6
f 5/5/6 8/10/6 6/6/5
f 2/11/7 4/12/8 7/9/9
f 7/9/9 4/12/8 8/10/8
f 8/13/10 4/14/10 6/15/10
f 4/14/10 3/16/10 6/15/10
f 1/17/11 7/18/11 5/19/11
f 7/18/11 1/17/11 2/20/11
f 9/21/12 11/22/12 10/23/12
f 11/22/12 9/21/12 12/24/12
f 9/25/11 10/26/11 13/27/11
f 13/27/11 10/26/11 14/28/11
f 15/29/13 16/30/13 14/28/13
f 13/27/13 14/28/13 16/30/13
f 11/31/10 12/32/10 15/29/10
f 15/29/10 12/32/10 16/30/10
f 17/33/14 19/34/15 18/35/16
f 17/33/14 20/36/17 19/34/15
f 20/36/17 17/33/14 21/37/18
f 22/38/19 21/37/20 23/39/21
f 21/37/20 22/38/19 20/36/22
f 20/36/22 22/38/19 24/40/23
f 20/36/22 24/40/23 19/34/24
f 19/34/24 24/40/23 25/41/25
f 19/34/24 25/41/25 18/35/26
f 25/41/25 17/33/27 18/35/26
f 17/33/27 25/41/25 26/42/28
f 24/40/29 26/42/30 25/41/31
f 22/38/32 26/42/30 24/40/29
f 23/39/33 26/42/30 22/38/32
f 27/43/34 17/44/35 28/45/36
f 17/44/35 27/43/34 21/46/37
f 29/47/38 21/46/37 27/43/34
f 21/46/37 29/47/38 23/48/39
f 26/49/40 23/48/39 29/47/38
f 26/49/40 29/47/38 30/50/41
f 17/51/35 26/49/40 30/50/41
f 17/51/35 30/50/41 28/52/36
f 28/53/42 30/54/43 31/55/44
f 27/56/45 28/53/42 31/55/44
f 30/54/43 29/57/46 31/55/44
f 29/57/46 27/56/45 31/55/44
