# Blender v3.1.2 OBJ File: 'track.blend'
# www.blender.org
mtllib Scene.395.mtl
o _0AD_emirates_006_Scene.395
v 17415.400391 92771.367188 -607.828979
v 17419.708984 92772.968750 -726.725586
v 17815.550781 92899.593750 -593.681274
v 17819.859375 92901.203125 -712.577942
v 17419.880859 92769.210938 -729.995605
v 17820.029297 92897.445312 -715.847900
v 17425.820312 92771.414062 -893.794434
v 17825.970703 92899.648438 -879.646667
v 18201.730469 93020.109375 -581.119507
v 18206.039062 93021.710938 -700.016113
v 18575.269531 93134.335938 -569.858398
v 18579.580078 93135.929688 -688.754883
v 18953.191406 93250.265625 -555.558228
v 18957.500000 93251.859375 -674.454773
v 18206.210938 93017.960938 -703.286133
v 18579.750000 93132.171875 -692.025024
v 18957.669922 93248.101562 -677.724792
v 18212.150391 93020.156250 -867.084900
v 18585.689453 93134.367188 -855.823792
v 18963.609375 93250.296875 -841.523621
v 19340.390625 93366.554688 -543.388672
v 19344.701172 93368.148438 -662.285278
v 19344.869141 93364.390625 -665.555298
v 19350.798828 93366.601562 -829.354126
v 19722.669922 93483.531250 -647.005493
v 19718.359375 93481.937500 -528.108887
v 20101.419922 93596.851562 -513.794434
v 20105.730469 93598.453125 -632.690979
v 20498.121094 93716.539062 -499.727814
v 20502.431641 93718.140625 -618.624390
v 19722.839844 93479.781250 -650.275513
v 20105.900391 93594.703125 -635.960999
v 20502.599609 93714.390625 -621.894409
v 19728.779297 93481.984375 -814.074341
v 20111.839844 93596.898438 -799.759827
v 20508.541016 93716.578125 -785.693237
v 20894.359375 93839.914062 -485.556610
v 20898.669922 93841.507812 -604.453186
v 20898.839844 93837.765625 -607.723206
v 20904.781250 93839.960938 -771.521973
v 21287.859375 93959.585938 -473.385895
v 21292.169922 93961.187500 -592.282471
v 21678.259766 94076.093750 -462.535797
v 21682.570312 94077.695312 -581.432373
v 22033.681641 94174.351562 -454.913269
v 22037.990234 94175.953125 -573.809998
v 21292.339844 93957.429688 -595.552490
v 21682.738281 94073.929688 -584.702393
v 22038.160156 94172.195312 -577.080017
v 21298.281250 93959.640625 -759.351318
v 21688.679688 94076.140625 -748.501282
v 22044.099609 94174.398438 -740.878845
v 22232.279297 94224.875000 -574.019104
v 22238.220703 94227.085938 -737.817932
v 22428.250000 94270.812500 -570.958191
v 22434.189453 94273.007812 -734.757019
v 22428.080078 94274.570312 -567.688171
v 22423.769531 94272.968750 -448.791595
v 22232.111328 94228.640625 -570.749023
v 22227.800781 94227.039062 -451.852509
v 23593.349609 94446.109375 -542.580688
v 23589.039062 94444.515625 -423.684113
v 23394.119141 94434.117188 -547.510498
v 23389.810547 94432.531250 -428.613892
v 23195.019531 94411.625000 -552.440430
v 23190.710938 94410.023438 -433.543762
v 23008.330078 94386.375000 -556.393799
v 23004.029297 94384.781250 -437.497192
v 22818.820312 94352.742188 -560.347229
v 22814.509766 94351.140625 -441.450592
v 22622.708984 94317.101562 -566.147705
v 22618.400391 94315.500000 -447.250977
v 23593.519531 94442.359375 -545.850708
v 23394.291016 94430.375000 -550.780518
v 23195.191406 94407.867188 -555.710388
v 23008.500000 94382.632812 -559.663818
v 22818.990234 94348.992188 -563.617188
v 22622.880859 94313.351562 -569.417725
v 23599.458984 94444.562500 -709.649536
v 23400.230469 94432.570312 -714.579407
v 23201.130859 94410.070312 -719.509216
v 23014.439453 94384.835938 -723.462585
v 22824.929688 94351.179688 -727.416016
v 22628.810547 94315.554688 -733.216492
v 24008.019531 94465.921875 -535.157471
v 24003.708984 94464.320312 -416.260925
v 23801.320312 94458.359375 -538.869080
v 23797.019531 94456.765625 -419.972504
v 24008.189453 94462.156250 -538.427490
v 23801.488281 94454.609375 -542.139099
v 24014.128906 94464.367188 -702.226379
v 23807.429688 94456.812500 -705.937988
v 15886.160156 92261.406250 -647.658569
v 15890.469727 92263.000000 -766.555237
v 16282.989258 92399.078125 -637.719116
v 16287.299805 92400.671875 -756.615662
v 15890.640625 92259.250000 -769.825195
v 16287.469727 92396.914062 -759.885681
v 15896.580078 92261.453125 -933.624084
v 16293.410156 92399.125000 -923.684509
v 16666.140625 92528.023438 -627.591797
v 16670.449219 92529.617188 -746.488281
v 17036.771484 92650.156250 -617.007935
v 17041.080078 92651.750000 -735.904480
v 16670.621094 92525.875000 -749.758301
v 17041.250000 92647.992188 -739.174622
v 16676.550781 92528.054688 -913.557068
v 17047.179688 92650.203125 -902.973389
vt 0.045205 1.859889
vt 0.086992 1.859889
vt 0.045205 1.872145
vt 0.086992 1.872145
vt 0.086992 1.872710
vt 0.045205 1.872710
vt 0.045205 1.855754
vt 0.086992 1.855754
vt 0.000585 1.823774
vt 0.041891 1.823774
vt 0.000585 1.836030
vt 0.041891 1.836030
vt 0.081774 1.823774
vt 0.081774 1.836030
vt 0.122225 1.823773
vt 0.122225 1.836030
vt 0.041891 1.836596
vt 0.000585 1.836596
vt 0.081774 1.836596
vt 0.122225 1.836596
vt 0.000585 1.855197
vt 0.041891 1.855197
vt 0.081774 1.855197
vt 0.122225 1.855197
vt 0.079329 1.857856
vt 0.120437 1.857856
vt 0.079329 1.870113
vt 0.120437 1.870113
vt 0.120437 1.870678
vt 0.079329 1.870678
vt 0.079329 1.853791
vt 0.120437 1.853791
vt 0.000617 1.823774
vt 0.041328 1.836030
vt 0.000617 1.836030
vt 0.041328 1.823774
vt 0.082314 1.823774
vt 0.082314 1.836030
vt 0.124321 1.823774
vt 0.124321 1.836030
vt 0.041328 1.836596
vt 0.000617 1.836596
vt 0.082314 1.836596
vt 0.124321 1.836596
vt 0.041328 1.855197
vt 0.000617 1.855197
vt 0.082314 1.855197
vt 0.124321 1.855197
vt 0.045205 1.859889
vt 0.086992 1.859889
vt 0.045205 1.872145
vt 0.086992 1.872145
vt 0.086992 1.872710
vt 0.045205 1.872710
vt 0.045205 1.855754
vt 0.086992 1.855754
vt 0.000585 1.823774
vt 0.041891 1.823774
vt 0.000585 1.836030
vt 0.041891 1.836030
vt 0.081774 1.823774
vt 0.081774 1.836030
vt 0.122225 1.823773
vt 0.122225 1.836030
vt 0.041891 1.836596
vt 0.000585 1.836596
vt 0.081774 1.836596
vt 0.122225 1.836596
vt 0.000585 1.855197
vt 0.041891 1.855197
vt 0.081774 1.855197
vt 0.122225 1.855197
vt 0.079329 1.853791
vt 0.079329 1.870678
vt 0.099883 1.870678
vt 0.099883 1.853791
vt 0.120437 1.870678
vt 0.120437 1.853791
vt 0.120437 1.870113
vt 0.099883 1.870113
vt 0.120437 1.857856
vt 0.099883 1.857856
vt 0.079329 1.870113
vt 0.079329 1.857856
vt 0.124321 1.836030
vt 0.103317 1.836030
vt 0.124321 1.823774
vt 0.103317 1.823774
vt 0.082314 1.836030
vt 0.082314 1.823774
vt 0.061821 1.836030
vt 0.061821 1.823774
vt 0.041328 1.836030
vt 0.041328 1.823774
vt 0.020973 1.836030
vt 0.020973 1.823774
vt 0.000617 1.836030
vt 0.000617 1.823774
vt 0.124321 1.836596
vt 0.103317 1.836596
vt 0.082314 1.836596
vt 0.061821 1.836596
vt 0.041328 1.836596
vt 0.020973 1.836596
vt 0.000617 1.836596
vt 0.124321 1.855197
vt 0.103317 1.855197
vt 0.082314 1.855197
vt 0.061821 1.855197
vt 0.041328 1.855197
vt 0.020973 1.855197
vt 0.000617 1.855197
vt 0.105291 1.871446
vt 0.085484 1.871446
vt 0.105291 1.859189
vt 0.085484 1.859189
vt 0.065678 1.871446
vt 0.065678 1.859189
vt 0.105291 1.872011
vt 0.085484 1.872011
vt 0.065678 1.872011
vt 0.105291 1.855419
vt 0.085484 1.855419
vt 0.065678 1.855418
vt 0.045205 1.859889
vt 0.086992 1.859889
vt 0.045205 1.872145
vt 0.086992 1.872145
vt 0.086992 1.872710
vt 0.045205 1.872710
vt 0.045205 1.855754
vt 0.086992 1.855754
vt 0.000585 1.823774
vt 0.041891 1.823774
vt 0.000585 1.836030
vt 0.041891 1.836030
vt 0.081774 1.823774
vt 0.081774 1.836030
vt 0.122225 1.823773
vt 0.122225 1.836030
vt 0.041891 1.836596
vt 0.000585 1.836596
vt 0.081774 1.836596
vt 0.122225 1.836596
vt 0.000585 1.855197
vt 0.041891 1.855197
vt 0.081774 1.855197
vt 0.122225 1.855197
vn -0.3051 0.9523 0.0017
vn -0.3016 0.9534 0.0019
vn -0.1829 0.6423 -0.7443
vn -0.1778 0.6414 -0.7464
vn -0.1839 0.6419 -0.7444
vn -0.1773 0.6414 -0.7464
vn -0.3051 0.9523 0.0018
vn -0.3016 0.9534 0.0018
vn -0.2952 0.9554 0.0022
vn -0.2929 0.9561 0.0022
vn -0.2929 0.9561 0.0021
vn -0.2905 0.9569 0.0023
vn -0.1755 0.6433 -0.7452
vn -0.1752 0.6434 -0.7452
vn -0.1718 0.6426 -0.7467
vn -0.1711 0.6426 -0.7468
vn -0.1696 0.6444 -0.7457
vn -0.1697 0.6442 -0.7458
vn -0.2952 0.9554 0.0021
vn -0.2905 0.9569 0.0022
vn -0.2899 0.9571 0.0023
vn -0.1681 0.6432 -0.7470
vn -0.1676 0.6431 -0.7472
vn -0.2899 0.9571 0.0024
vn -0.2897 0.9571 0.0023
vn -0.2882 0.9576 0.0025
vn -0.2931 0.9561 0.0023
vn -0.2932 0.9561 0.0023
vn -0.1660 0.6441 -0.7467
vn -0.1658 0.6441 -0.7468
vn -0.1662 0.6434 -0.7473
vn -0.1665 0.6429 -0.7476
vn -0.1703 0.6436 -0.7462
vn -0.1711 0.6436 -0.7460
vn -0.2897 0.9571 0.0024
vn -0.2898 0.9571 0.0024
vn -0.2882 0.9576 0.0024
vn -0.2882 0.9576 0.0023
vn -0.2931 0.9561 0.0021
vn -0.2942 0.9557 0.0021
vn -0.2942 0.9558 0.0021
vn -0.1729 0.6422 -0.7468
vn -0.1727 0.6422 -0.7469
vn -0.2886 0.9575 0.0024
vn -0.2885 0.9575 0.0024
vn -0.2764 0.9610 0.0029
vn -0.2762 0.9611 0.0028
vn -0.2643 0.9644 0.0034
vn -0.2642 0.9645 0.0034
vn -0.1718 0.6429 -0.7464
vn -0.1715 0.6425 -0.7469
vn -0.1675 0.6449 -0.7457
vn -0.1663 0.6449 -0.7460
vn -0.1621 0.6427 -0.7488
vn -0.1622 0.6427 -0.7488
vn -0.2762 0.9611 0.0029
vn -0.2454 0.9694 0.0042
vn -0.2449 0.9695 0.0042
vn -0.2210 0.9753 0.0051
vn -0.2208 0.9753 0.0051
vn -0.2208 0.9753 0.0052
vn -0.1376 0.6457 -0.7511
vn -0.1503 0.6459 -0.7485
vn -0.1372 0.6457 -0.7512
vn -0.1527 0.6455 -0.7483
vn -0.0597 0.9982 0.0112
vn -0.0862 0.9962 0.0103
vn -0.0866 0.9962 0.0102
vn -0.1233 0.9923 0.0088
vn -0.1235 0.9923 0.0088
vn -0.1543 0.9880 0.0077
vn -0.1548 0.9879 0.0077
vn -0.1769 0.9842 0.0068
vn -0.1770 0.9842 0.0069
vn -0.1961 0.9806 0.0062
vn -0.1965 0.9805 0.0061
vn -0.0230 0.6562 -0.7542
vn -0.0375 0.6556 -0.7541
vn -0.0230 0.6559 -0.7545
vn -0.0385 0.6555 -0.7542
vn -0.0635 0.6543 -0.7536
vn -0.0643 0.6543 -0.7535
vn -0.0852 0.6518 -0.7536
vn -0.0869 0.6516 -0.7536
vn -0.0983 0.6520 -0.7519
vn -0.0979 0.6518 -0.7521
vn -0.1144 0.6504 -0.7510
vn -0.1176 0.6499 -0.7509
vn -0.0862 0.9962 0.0102
vn -0.0867 0.9962 0.0102
vn -0.1232 0.9923 0.0089
vn -0.1234 0.9923 0.0089
vn -0.1544 0.9880 0.0077
vn -0.1548 0.9879 0.0076
vn -0.1769 0.9842 0.0067
vn -0.1770 0.9842 0.0067
vn -0.1961 0.9806 0.0060
vn -0.0368 0.9993 0.0120
vn -0.0477 0.9988 0.0117
vn -0.0368 0.9993 0.0121
vn -0.0480 0.9988 0.0117
vn -0.0105 0.6564 -0.7544
vn -0.0178 0.6561 -0.7545
vn -0.0178 0.6559 -0.7546
vn -0.0105 0.6568 -0.7540
vn -0.0179 0.6559 -0.7546
vn -0.0367 0.9993 0.0122
vn -0.3278 0.9448 0.0008
vn -0.3234 0.9463 0.0009
vn -0.3233 0.9463 0.0009
vn -0.2027 0.6379 -0.7430
vn -0.1996 0.6385 -0.7433
vn -0.1997 0.6385 -0.7432
vn -0.2028 0.6382 -0.7427
vn -0.1984 0.6382 -0.7438
vn -0.3278 0.9448 0.0009
vn -0.3234 0.9462 0.0011
vn -0.3234 0.9463 0.0010
vn -0.3160 0.9488 0.0013
vn -0.3090 0.9511 0.0015
vn -0.3089 0.9511 0.0016
vn -0.1932 0.6405 -0.7433
vn -0.1924 0.6408 -0.7432
vn -0.1880 0.6383 -0.7465
vn -0.1876 0.6385 -0.7464
vn -0.3160 0.9488 0.0012
vn -0.3090 0.9511 0.0016
vn -0.3090 0.9511 0.0017
usemtl EnvironmentMat.001
s 1
f 1/1/1 3/2/2 2/3/1
f 4/4/2 2/3/1 3/2/2
f 2/3/3 6/5/4 5/6/5
f 6/5/4 2/3/3 4/4/6
f 5/6/7 6/5/8 7/7/7
f 8/8/2 7/7/7 6/5/8
f 3/9/2 9/10/9 4/11/2
f 10/12/9 4/11/2 9/10/9
f 9/10/9 11/13/10 10/12/9
f 12/14/11 10/12/9 11/13/10
f 11/13/10 13/15/12 12/14/11
f 14/16/12 12/14/11 13/15/12
f 4/11/6 15/17/13 6/18/4
f 15/17/13 4/11/6 10/12/14
f 10/12/14 16/19/15 15/17/13
f 16/19/15 10/12/14 12/14/16
f 12/14/16 17/20/17 16/19/15
f 17/20/17 12/14/16 14/16/18
f 6/18/8 15/17/19 8/21/2
f 18/22/9 8/21/2 15/17/19
f 15/17/19 16/19/10 18/22/9
f 19/23/10 18/22/9 16/19/10
f 16/19/10 17/20/20 19/23/10
f 20/24/20 19/23/10 17/20/20
f 13/25/12 21/26/21 14/27/12
f 22/28/21 14/27/12 21/26/21
f 14/27/18 23/29/22 17/30/17
f 23/29/22 14/27/18 22/28/23
f 17/30/20 23/29/24 20/31/20
f 24/32/24 20/31/20 23/29/24
f 21/33/21 25/34/25 22/35/21
f 25/34/25 21/33/21 26/36/25
f 26/36/25 27/37/26 25/34/25
f 28/38/26 25/34/25 27/37/26
f 27/37/26 29/39/27 28/38/26
f 30/40/28 28/38/26 29/39/27
f 22/35/23 31/41/29 23/42/22
f 31/41/29 22/35/23 25/34/30
f 25/34/30 32/43/31 31/41/29
f 32/43/31 25/34/30 28/38/32
f 28/38/32 33/44/33 32/43/31
f 33/44/33 28/38/32 30/40/34
f 23/42/24 34/45/35 24/46/24
f 34/45/35 23/42/24 31/41/36
f 31/41/36 32/43/37 34/45/35
f 35/47/38 34/45/35 32/43/37
f 32/43/37 33/44/39 35/47/38
f 36/48/39 35/47/38 33/44/39
f 29/49/27 37/50/40 30/51/28
f 38/52/41 30/51/28 37/50/40
f 30/51/34 39/53/42 33/54/33
f 39/53/42 30/51/34 38/52/43
f 33/54/39 39/53/40 36/55/39
f 40/56/40 36/55/39 39/53/40
f 37/57/40 41/58/44 38/59/41
f 42/60/45 38/59/41 41/58/44
f 41/58/44 43/61/46 42/60/45
f 44/62/47 42/60/45 43/61/46
f 43/61/46 45/63/48 44/62/47
f 46/64/49 44/62/47 45/63/48
f 38/59/43 47/65/50 39/66/42
f 47/65/50 38/59/43 42/60/51
f 42/60/51 48/67/52 47/65/50
f 48/67/52 42/60/51 44/62/53
f 44/62/53 49/68/54 48/67/52
f 49/68/54 44/62/53 46/64/55
f 39/66/40 47/65/45 40/69/40
f 50/70/45 40/69/40 47/65/45
f 47/65/45 48/67/46 50/70/45
f 51/71/56 50/70/45 48/67/46
f 48/67/46 49/68/48 51/71/56
f 52/72/49 51/71/56 49/68/48
f 52/73/49 49/74/48 53/75/57
f 54/76/58 52/73/49 53/75/57
f 54/76/58 53/75/57 55/77/59
f 56/78/60 54/76/58 55/77/59
f 57/79/61 59/80/58 58/81/59
f 60/82/57 58/81/59 59/80/58
f 59/80/58 46/83/49 60/82/57
f 45/84/48 60/82/57 46/83/49
f 55/77/62 59/80/63 57/79/64
f 59/80/63 55/77/62 53/75/65
f 53/75/65 46/83/55 59/80/63
f 46/83/55 53/75/65 49/74/54
f 61/85/66 63/86/67 62/87/66
f 63/86/67 64/88/68 62/87/66
f 63/86/67 65/89/69 64/88/68
f 65/89/69 66/90/70 64/88/68
f 65/89/69 67/91/71 66/90/70
f 67/91/71 68/92/72 66/90/70
f 67/91/71 69/93/73 68/92/72
f 69/93/73 70/94/74 68/92/72
f 69/93/73 71/95/75 70/94/74
f 71/95/75 72/96/76 70/94/74
f 71/95/75 57/97/61 72/96/76
f 58/98/59 72/96/76 57/97/61
f 73/99/77 63/86/78 61/85/79
f 63/86/78 73/99/77 74/100/80
f 74/100/80 65/89/81 63/86/78
f 65/89/81 74/100/80 75/101/82
f 75/101/82 67/91/83 65/89/81
f 67/91/83 75/101/82 76/102/84
f 76/102/84 69/93/85 67/91/83
f 69/93/85 76/102/84 77/103/86
f 77/103/86 71/95/87 69/93/85
f 71/95/87 77/103/86 78/104/88
f 78/104/88 57/97/64 71/95/87
f 57/97/64 78/104/88 55/105/62
f 79/106/66 80/107/89 73/99/66
f 80/107/89 74/100/90 73/99/66
f 80/107/89 81/108/91 74/100/90
f 81/108/91 75/101/92 74/100/90
f 81/108/91 82/109/93 75/101/92
f 82/109/93 76/102/94 75/101/92
f 82/109/93 83/110/95 76/102/94
f 83/110/95 77/103/96 76/102/94
f 83/110/95 84/111/97 77/103/96
f 84/111/97 78/104/76 77/103/96
f 84/111/97 56/112/60 78/104/76
f 56/112/60 55/105/59 78/104/76
f 85/113/98 87/114/99 86/115/100
f 87/114/99 88/116/101 86/115/100
f 87/114/99 61/117/66 88/116/101
f 62/118/66 88/116/101 61/117/66
f 89/119/102 87/114/103 85/113/102
f 87/114/104 89/119/105 90/120/106
f 90/120/106 61/117/79 87/114/104
f 61/117/79 90/120/106 73/121/77
f 91/122/107 92/123/99 89/119/107
f 92/123/99 90/120/101 89/119/107
f 92/123/99 79/124/66 90/120/101
f 79/124/66 73/121/66 90/120/101
f 93/125/108 95/126/109 94/127/108
f 96/128/110 94/127/108 95/126/109
f 94/127/111 98/129/112 97/130/111
f 98/129/113 94/127/114 96/128/115
f 97/130/116 98/129/117 99/131/116
f 100/132/118 99/131/116 98/129/117
f 95/133/109 101/134/119 96/135/110
f 102/136/119 96/135/110 101/134/119
f 101/134/119 103/137/120 102/136/119
f 104/138/121 102/136/119 103/137/120
f 103/137/120 1/139/1 104/138/121
f 2/140/1 104/138/121 1/139/1
f 96/135/115 105/141/122 98/142/113
f 105/141/122 96/135/115 102/136/123
f 102/136/123 106/143/124 105/141/122
f 106/143/124 102/136/123 104/138/125
f 104/138/125 5/144/5 106/143/124
f 5/144/5 104/138/125 2/140/3
f 98/142/117 105/141/126 100/145/118
f 107/146/126 100/145/118 105/141/126
f 105/141/126 106/143/127 107/146/126
f 108/147/128 107/146/126 106/143/127
f 106/143/127 5/144/7 108/147/128
f 7/148/7 108/147/128 5/144/7
