# Blender v3.1.2 OBJ File: 'track.blend'
# www.blender.org
mtllib Scene.480.mtl
o _0SIGN_AD01_05_Scene.480
v -22327.929688 32861.441406 -807.220581
v -22330.029297 32862.140625 -807.220581
v -22327.929688 32861.441406 -507.220612
v -22330.029297 32862.140625 -507.220612
v -21970.599609 33944.789062 -807.220825
v -21968.500000 33944.089844 -807.220825
v -21970.599609 33944.789062 -507.220795
v -21968.500000 33944.089844 -507.220795
vt 0.049357 1.803403
vt 0.049357 1.805712
vt 0.049185 1.803403
vt 0.049185 1.805712
vt 0.049357 1.801094
vt 0.049357 1.803403
vt 0.049185 1.801094
vt 0.049185 1.803403
vt 0.048841 1.809875
vt 0.049013 1.801094
vt 0.049013 1.809875
vt 0.048841 1.801094
vt 0.049185 1.809875
vt 0.049013 1.801094
vt 0.049185 1.801094
vt 0.049013 1.809875
vt 0.123661 1.809430
vt 0.000404 1.809430
vt 0.000404 1.751420
vt 0.123661 1.751420
vt 0.044709 1.809875
vt 0.044709 1.801094
vt 0.048841 1.801094
vt 0.048841 1.809875
vn -0.3143 -0.9493 0.0000
vn -0.3153 -0.9490 -0.0000
vn -0.3152 -0.9490 0.0000
vn 0.3125 0.9499 0.0000
vn 0.3170 0.9484 0.0000
vn 0.3171 0.9484 -0.0000
vn 0.0000 -0.0000 -1.0000
vn 0.0000 0.0000 1.0000
vn 0.9491 -0.3151 0.0000
vn -0.9491 0.3151 0.0000
usemtl EnvironmentMat.001
s 1
f 1/1/1 3/2/2 2/3/1
f 2/3/1 3/2/2 4/4/3
f 5/5/4 7/6/5 6/7/4
f 6/7/4 7/6/5 8/8/6
f 2/9/7 6/10/7 1/11/7
f 6/10/7 2/9/7 5/12/7
f 8/13/8 4/14/8 3/15/8
f 4/14/8 8/13/8 7/16/8
f 1/17/9 6/18/9 8/19/9
f 1/17/9 8/19/9 3/20/9
f 5/21/10 2/22/10 4/23/10
f 5/21/10 4/23/10 7/24/10
