# Blender v3.1.2 OBJ File: 'track.blend'
# www.blender.org
mtllib Scene.460.mtl
o _0SIGN_50M_02_Scene.460
v -1330.669922 81924.484375 -991.887451
v -1282.967041 81873.742188 -991.887451
v -1280.809937 81875.765625 -991.887451
v -1328.511963 81926.523438 -991.887451
v -1330.669922 81924.484375 -841.887451
v -1282.967041 81873.742188 -841.887451
v -1328.512939 81926.523438 -841.887451
v -1280.809937 81875.765625 -841.887451
v -1292.632935 81890.445312 -928.241821
v -1292.632935 81890.445312 -923.533447
v -1298.639038 81896.835938 -923.533447
v -1298.639038 81896.835938 -928.241821
v -1292.632935 81890.445312 -943.420227
v -1314.713989 81913.929688 -928.241821
v -1314.713989 81913.929688 -923.533447
v -1298.639038 81896.835938 -943.420227
v -1292.632935 81890.445312 -948.480347
v -1298.639038 81896.835938 -948.480347
v -1308.825928 81907.671875 -948.480347
v -1308.825928 81907.671875 -943.420227
v -1314.673950 81913.890625 -948.480347
v -1314.673950 81913.890625 -943.420227
v -1308.825928 81907.671875 -954.910461
v -1314.673950 81913.890625 -954.910461
v -1308.825928 81907.671875 -958.512756
v -1314.673950 81913.890625 -958.512756
v -1292.498047 81890.304688 -954.910461
v -1292.498047 81890.304688 -958.512756
v -1318.260986 81910.500000 -928.241821
v -1318.260986 81910.500000 -923.533447
v -1312.255005 81904.109375 -923.533447
v -1312.255005 81904.109375 -928.241821
v -1318.260986 81910.500000 -943.420227
v -1296.179932 81887.015625 -928.241821
v -1296.179932 81887.015625 -923.533447
v -1312.255005 81904.109375 -943.420227
v -1318.260986 81910.500000 -948.480347
v -1312.255005 81904.109375 -948.480347
v -1302.067993 81893.265625 -948.480347
v -1302.067993 81893.265625 -943.420227
v -1296.218994 81887.046875 -948.480347
v -1296.218994 81887.046875 -943.420227
v -1302.067993 81893.265625 -954.910461
v -1296.218994 81887.046875 -954.910461
v -1302.067993 81893.265625 -958.512756
v -1296.218994 81887.046875 -958.512756
v -1318.395996 81910.640625 -954.910461
v -1318.395996 81910.640625 -958.512756
v -1298.354980 81896.523438 -880.623047
v -1298.354980 81896.523438 -906.863892
v -1292.348999 81890.140625 -911.237305
v -1292.348999 81890.140625 -876.249573
v -1314.809082 81914.039062 -911.237305
v -1308.802979 81907.648438 -880.623047
v -1308.802979 81907.648438 -906.863892
v -1314.809082 81914.039062 -876.249573
v -1312.539062 81904.414062 -880.623047
v -1312.539062 81904.414062 -906.863892
v -1318.544922 81910.796875 -911.237305
v -1318.544922 81910.796875 -876.249573
v -1296.084961 81886.906250 -911.237305
v -1302.091064 81893.289062 -880.623047
v -1302.091064 81893.289062 -906.863892
v -1296.084961 81886.906250 -876.249573
vt 1.000000 2.000000
vt 0.000000 1.000000
vt 1.000000 1.000000
vt 0.000000 2.000000
vt 1.000000 2.000000
vt 0.000000 2.000000
vt 0.000000 1.000000
vt 1.000000 1.000000
vt 1.000000 2.000000
vt 0.000000 1.000000
vt 1.000000 1.000000
vt 0.000000 2.000000
vt 1.000000 1.000000
vt 0.000000 2.000000
vt 0.000000 1.000000
vt 1.000000 2.000000
vt 1.000000 1.000000
vt 0.000000 1.000000
vt 0.000000 2.000000
vt 1.000000 2.000000
vt 0.042236 1.025888
vt 0.042236 1.025888
vt 0.042236 1.025888
vt 0.042236 1.025888
vt 0.042236 1.025888
vt 0.042236 1.025888
vt 0.042236 1.025888
vt 0.042236 1.025888
vt 0.042236 1.025888
vt 0.042236 1.025888
vt 0.042236 1.025888
vt 0.042236 1.025888
vt 0.042236 1.025888
vt 0.042236 1.025888
vt 0.042236 1.025888
vt 0.042236 1.025888
vt 0.042236 1.025888
vt 0.042236 1.025888
vt 0.042236 1.025888
vt 0.042236 1.025888
vt 0.042236 1.025888
vt 0.042236 1.025888
vt 0.042236 1.025888
vt 0.042236 1.025888
vt 0.042236 1.025888
vt 0.042236 1.025888
vt 0.042236 1.025888
vt 0.042236 1.025888
vt 0.042236 1.025888
vt 0.042236 1.025888
vt 0.042236 1.025888
vt 0.042236 1.025888
vt 0.042236 1.025888
vt 0.042236 1.025888
vt 0.042236 1.025888
vt 0.042236 1.025888
vt 0.042236 1.025888
vt 0.042236 1.025888
vt 0.042236 1.025888
vt 0.042236 1.025888
vt 0.042236 1.025888
vt 0.042236 1.025888
vt 0.042236 1.025888
vt 0.042236 1.025888
vt 0.042236 1.025888
vt 0.042236 1.025888
vt 0.042236 1.025888
vt 0.042236 1.025888
vt 0.042236 1.025888
vt 0.042236 1.025888
vt 0.042236 1.025888
vt 0.042236 1.025888
vt 0.042236 1.025888
vt 0.042236 1.025888
vt 0.042236 1.025888
vt 0.042236 1.025888
vn -0.0000 0.0000 -1.0000
vn -0.7286 -0.6849 0.0000
vn -0.7286 -0.6850 0.0000
vn -0.0000 0.0000 1.0000
vn 0.7287 0.6848 0.0000
vn 0.7284 0.6852 -0.0000
vn -0.6871 0.7266 0.0000
vn -0.6824 0.7309 0.0001
vn -0.6872 0.7265 0.0000
vn -0.6824 0.7310 0.0001
vn 0.6819 -0.7314 -0.0000
vn 0.6866 -0.7270 -0.0000
vn 0.6820 -0.7313 0.0000
vn 0.6867 -0.7270 0.0000
vn 0.7286 0.6850 0.0000
vn 0.7287 0.6849 0.0000
vn 0.7286 0.6849 0.0000
vn 0.7288 0.6847 0.0000
vn 0.7289 0.6847 0.0000
vn 0.7285 0.6850 0.0000
vn 0.7290 0.6846 -0.0000
vn 0.7283 0.6853 0.0000
vn 0.7289 0.6846 -0.0000
vn 0.7290 0.6845 0.0000
vn -0.7287 -0.6848 0.0000
vn -0.7282 -0.6853 0.0000
vn -0.7285 -0.6851 0.0000
vn -0.7288 -0.6848 0.0000
vn -0.7288 -0.6847 -0.0000
vn -0.7284 -0.6851 0.0000
vn -0.7285 -0.6850 0.0000
vn -0.7281 -0.6855 0.0000
vn 0.7287 0.6849 0.0011
vn 0.7284 0.6851 0.0008
vn 0.7284 0.6852 0.0008
vn 0.7289 0.6847 -0.0001
vn 0.7287 0.6848 0.0006
vn 0.7287 0.6848 -0.0018
vn 0.7285 0.6850 0.0015
vn 0.7287 0.6848 -0.0010
vn -0.7286 -0.6849 0.0005
vn -0.7284 -0.6852 0.0004
vn -0.7282 -0.6853 0.0003
vn -0.7284 -0.6851 -0.0002
vn -0.7287 -0.6849 -0.0005
vn -0.7286 -0.6849 -0.0003
usemtl EmptyMat.001
s 1
f 1/1/1 3/2/1 2/3/1
f 3/2/1 1/1/1 4/4/1
f 5/5/2 1/6/3 2/7/2
f 2/7/2 6/8/2 5/5/2
f 7/9/4 6/10/4 8/11/4
f 6/10/4 7/9/4 5/12/4
f 3/13/5 7/14/5 8/15/5
f 7/14/5 3/13/5 4/16/6
f 1/17/7 5/5/8 4/18/9
f 4/18/9 5/5/8 7/14/10
f 3/19/11 8/15/12 2/20/13
f 2/20/13 8/15/12 6/8/14
f 9/21/5 11/22/15 10/23/16
f 9/21/5 12/24/17 11/22/15
f 13/25/5 12/24/17 9/21/5
f 14/26/5 11/22/15 12/24/17
f 11/22/15 14/26/5 15/27/18
f 12/24/17 13/25/5 16/28/16
f 17/29/5 16/28/16 13/25/5
f 16/28/16 17/29/5 18/30/19
f 19/31/20 16/28/16 18/30/19
f 16/28/16 19/31/20 20/32/20
f 21/33/18 20/32/20 19/31/20
f 20/32/20 21/33/18 22/34/20
f 23/35/20 21/33/18 19/31/20
f 23/35/20 24/36/21 21/33/18
f 25/37/20 24/36/21 23/35/20
f 25/37/20 26/38/22 24/36/21
f 23/35/20 27/39/23 25/37/20
f 28/40/24 25/37/20 27/39/23
f 29/41/25 31/42/3 30/43/26
f 29/41/25 32/44/2 31/42/3
f 33/45/27 32/44/2 29/41/25
f 34/46/27 31/42/3 32/44/2
f 31/42/3 34/46/27 35/47/27
f 32/44/2 33/45/27 36/48/25
f 37/49/25 36/48/25 33/45/27
f 36/48/25 37/49/25 38/50/28
f 39/51/29 36/48/25 38/50/28
f 36/48/25 39/51/29 40/52/2
f 41/53/30 40/52/2 39/51/29
f 40/52/2 41/53/30 42/54/30
f 43/55/31 41/53/30 39/51/29
f 43/55/31 44/56/30 41/53/30
f 45/57/3 44/56/30 43/55/31
f 45/57/3 46/58/32 44/56/30
f 43/55/31 47/59/25 45/57/3
f 48/60/25 45/57/3 47/59/25
f 49/61/33 51/62/34 50/63/35
f 52/64/36 51/62/34 49/61/33
f 53/65/37 50/63/35 51/62/34
f 54/66/38 52/64/36 49/61/33
f 50/63/35 53/65/37 55/67/39
f 52/64/36 54/66/38 56/68/40
f 55/67/39 56/68/40 54/66/38
f 56/68/40 55/67/39 53/65/37
f 57/69/41 59/70/42 58/71/43
f 60/72/29 59/70/42 57/69/41
f 61/73/44 58/71/43 59/70/42
f 62/74/45 60/72/29 57/69/41
f 58/71/43 61/73/44 63/75/25
f 60/72/29 62/74/45 64/76/46
f 63/75/25 64/76/46 62/74/45
f 64/76/46 63/75/25 61/73/44
