# Blender v3.1.2 OBJ File: 'track.blend'
# www.blender.org
mtllib Scene.483.mtl
o _0SIGN_AD01_08_Scene.483
v -25806.439453 32892.890625 -866.160706
v -25806.421875 32895.097656 -866.160706
v -25806.439453 32892.890625 -566.160706
v -25806.429688 32895.097656 -566.160706
v -24665.691406 32888.289062 -866.156006
v -24665.699219 32886.082031 -866.156006
v -24665.691406 32888.289062 -566.156006
v -24665.710938 32886.082031 -566.156006
vt 0.049357 1.803403
vt 0.049357 1.805712
vt 0.049185 1.803403
vt 0.049185 1.805712
vt 0.049357 1.801094
vt 0.049357 1.803403
vt 0.049185 1.801094
vt 0.049185 1.803403
vt 0.048841 1.809875
vt 0.049013 1.801094
vt 0.049013 1.809875
vt 0.048841 1.801094
vt 0.049185 1.809875
vt 0.049013 1.801094
vt 0.049185 1.801094
vt 0.049013 1.809875
vt 0.123661 1.809430
vt 0.000404 1.809430
vt 0.000404 1.751420
vt 0.123661 1.751420
vt 0.044709 1.809875
vt 0.044709 1.801094
vt 0.048841 1.801094
vt 0.048841 1.809875
vn -1.0000 0.0071 0.0000
vn -1.0000 0.0061 -0.0000
vn 1.0000 -0.0055 -0.0000
vn 1.0000 -0.0063 0.0000
vn 1.0000 -0.0062 0.0000
vn 0.0000 -0.0000 -1.0000
vn -0.0000 0.0000 1.0000
vn -0.0060 -1.0000 -0.0000
vn 0.0060 1.0000 0.0000
usemtl EnvironmentMat.001
s 1
f 1/1/1 3/2/2 2/3/1
f 2/3/1 3/2/2 4/4/2
f 5/5/3 7/6/4 6/7/3
f 6/7/3 7/6/4 8/8/5
f 2/9/6 6/10/6 1/11/6
f 6/10/6 2/9/6 5/12/6
f 8/13/7 4/14/7 3/15/7
f 4/14/7 8/13/7 7/16/7
f 1/17/8 6/18/8 8/19/8
f 1/17/8 8/19/8 3/20/8
f 5/21/9 2/22/9 4/23/9
f 5/21/9 4/23/9 7/24/9
