# Blender v3.1.2 OBJ File: 'track.blend'
# www.blender.org
mtllib Scene.555.mtl
o _0TRIBUENE_02_017_SUB0_Scene.555
v 15922.919922 49416.000000 -1840.306152
v 16022.819336 49394.847656 -1710.306885
v 16022.819336 49394.847656 -1840.306152
v 15922.919922 49416.000000 -1710.306885
v 16595.978516 52650.066406 -1840.306152
v 15923.849609 49414.667969 -1710.306885
v 15923.849609 49414.667969 -1840.306152
v 16595.978516 52650.066406 -1710.306885
v 16595.978516 52650.066406 -1860.306885
v 15923.849609 49414.667969 -1860.306885
v 16022.599609 49393.769531 -1840.306152
v 16022.599609 49393.769531 -1860.306885
v 18489.910156 48881.203125 -740.306274
v 18489.910156 48881.203125 -720.306274
v 16593.949219 52648.000000 -1840.306152
v 16593.949219 52648.000000 -1710.306885
v 18490.140625 48882.289062 -720.306274
v 18490.140625 48882.289062 -590.306274
v 19360.589844 52078.441406 -718.124390
v 18687.859375 48840.128906 -718.124390
v 18687.859375 48840.128906 -588.124390
v 19360.589844 52078.441406 -588.124390
v 19360.589844 52078.441406 -738.124390
v 18687.859375 48840.128906 -738.124390
v 18685.519531 48843.039062 -718.165588
v 18685.519531 48843.039062 -588.165710
v 19357.111328 52075.843750 -588.165710
v 19357.111328 52075.843750 -718.165588
v 16022.599609 49393.769531 -1710.306885
v 18489.910156 48881.203125 -590.306274
v 18489.701172 48883.718750 -718.165588
v 18489.701172 48883.718750 -588.165710
v 18492.039062 48880.812500 -738.124390
v 18492.039062 48880.812500 -718.124390
v 18492.039062 48880.812500 -588.124390
v 19164.769531 52119.121094 -718.124390
v 19164.769531 52119.121094 -588.124390
v 19164.769531 52119.121094 -738.124390
v 19161.289062 52116.523438 -718.165588
v 19161.289062 52116.523438 -588.165710
v 18490.460938 48883.820312 -720.306274
v 16023.139648 49396.390625 -1710.306885
v 16023.139648 49396.390625 -1840.306152
v 18490.460938 48883.820312 -590.306274
v 18490.460938 48883.820312 -740.306274
v 16023.139648 49396.390625 -1860.306885
v 15926.089844 49416.140625 -1860.306885
v 15926.089844 49416.140625 -1840.306152
v 18490.679688 48884.910156 -720.306274
v 16023.359375 49397.480469 -1710.306885
v 16023.359375 49397.480469 -1840.306152
v 18490.679688 48884.910156 -590.306274
v 16597.451172 52647.828125 -1860.306885
v 16597.451172 52647.828125 -1840.306152
v 15925.160156 49417.472656 -1840.306152
v 15925.160156 49417.472656 -1710.306885
v 15926.089844 49416.140625 -1710.306885
v 16597.451172 52647.828125 -1710.306885
v 16596.570312 52647.460938 -1840.306152
v 16596.570312 52647.460938 -1710.306885
v 19161.650391 52114.726562 -720.306274
v 16694.330078 52627.289062 -1840.306152
v 16694.330078 52627.289062 -1710.306885
v 19161.650391 52114.726562 -590.306274
v 19161.650391 52114.726562 -740.306274
v 16694.330078 52627.289062 -1860.306885
v 19356.500000 52075.750000 -718.124390
v 18685.169922 48844.218750 -588.124390
v 18685.169922 48844.218750 -718.124390
v 19356.500000 52075.750000 -588.124390
v 19356.500000 52075.750000 -738.124390
v 18685.169922 48844.218750 -738.124390
v 18682.839844 48847.132812 -718.165588
v 19353.019531 52073.152344 -718.165588
v 19353.019531 52073.152344 -588.165710
v 18682.839844 48847.132812 -588.165710
v 18490.699219 48888.511719 -718.165588
v 18490.699219 48888.511719 -588.165710
v 18493.029297 48885.597656 -738.124390
v 18493.029297 48885.597656 -718.124390
v 18493.029297 48885.597656 -588.124390
v 19163.769531 52114.320312 -718.124390
v 19163.769531 52114.320312 -588.124390
v 19163.769531 52114.320312 -738.124390
v 19160.298828 52111.718750 -718.165588
v 19160.298828 52111.718750 -588.165710
v 19162.199219 52117.351562 -720.306274
v 16694.880859 52629.906250 -1710.306885
v 16694.880859 52629.906250 -1840.306152
v 19162.199219 52117.351562 -590.306274
v 19162.199219 52117.351562 -740.306274
v 16694.880859 52629.906250 -1860.306885
v 16594.140625 52647.023438 -1840.306152
v 16694.039062 52625.871094 -1710.306885
v 16694.039062 52625.871094 -1840.306152
v 16594.140625 52647.023438 -1710.306885
v 19161.359375 52113.312500 -720.306274
v 19161.359375 52113.312500 -590.306274
v 19161.900391 52115.929688 -720.306274
v 16694.580078 52628.492188 -1710.306885
v 16694.580078 52628.492188 -1840.306152
v 19161.900391 52115.929688 -590.306274
v 16596.380859 52648.492188 -1840.306152
v 16596.380859 52648.492188 -1710.306885
vt 102.061203 1.445998
vt 106.201202 1.445998
vt 106.201202 1.808102
vt 102.061203 1.808102
vt -1.128167 1.445998
vt 7.317342 1.445998
vt 7.317341 1.808102
vt -1.128167 1.808102
vt 0.439238 1.852482
vt 0.439238 1.852482
vt 0.439238 1.901746
vt 0.439238 1.901746
vt 0.439238 1.901746
vt 0.439238 1.852482
vt 0.439238 1.852482
vt 0.439238 1.901746
vt -32.960171 1.445998
vt -32.960171 1.808102
vt -133.517502 1.445998
vt -20.685499 1.808102
vt -20.685499 1.445998
vt -133.517502 1.808102
vt 1.994339 1.445998
vt 10.414750 1.808102
vt 10.414750 1.445998
vt 1.994339 1.808102
vt 0.439238 1.852482
vt 0.439238 1.901746
vt 0.439238 1.852482
vt 0.439238 1.901746
vt 103.806503 1.445998
vt -30.874689 1.808102
vt 103.806503 1.808102
vt -30.874689 1.445998
vt 7.573064 1.445998
vt 7.573063 1.808102
vt -7.406326 1.445998
vt -0.354325 1.808102
vt -0.354325 1.445998
vt -7.406326 1.808102
vt 111.989601 1.445998
vt 111.989601 1.808102
vt 0.439238 1.852482
vt 0.439238 1.901746
vt 10.925800 1.445998
vt 10.925800 1.808102
vt 1.483288 1.445998
vt 1.483288 1.808102
vt 0.439238 1.901746
vt 0.439238 1.852482
vt -39.057812 1.445998
vt -39.057812 1.808102
vt -7.406326 1.445998
vt -0.354325 1.445998
vt -0.354325 1.808102
vt -7.406326 1.808102
vt 0.439238 1.852482
vt 0.439238 1.901746
vt 0.439238 1.901746
vt 0.439238 1.852482
vt 0.439238 1.852482
vt 0.439238 1.901746
vt -133.517502 1.445998
vt -20.685499 1.445998
vt -20.685499 1.808102
vt -133.517502 1.808102
vt 0.439238 1.852482
vt 0.439238 1.901746
vt 102.061203 1.445998
vt 106.201202 1.808102
vt 106.201202 1.445998
vt 102.061203 1.808102
vt 7.317342 1.445998
vt 7.573063 1.808102
vt 7.573064 1.445998
vt 7.317341 1.808102
vt -1.128167 1.445998
vt -1.128167 1.808102
vt -32.960171 1.445998
vt -32.960171 1.808102
vt -7.406326 1.445998
vt -0.354325 1.808102
vt -0.354325 1.445998
vt -7.406326 1.808102
vt 0.439238 1.901746
vt 0.439238 1.901746
vt 0.439238 1.852482
vt 0.439238 1.852482
vt 7.317342 1.445998
vt 7.573064 1.445998
vt 7.573063 1.808102
vt 7.317341 1.808102
vt 1.994339 1.445998
vt 10.414750 1.445998
vt 10.414750 1.808102
vt 1.994339 1.808102
vt 0.439238 1.852482
vt 0.439238 1.852482
vt 0.439238 1.901746
vt 0.439238 1.901746
vt 103.806503 1.445998
vt -30.874689 1.808102
vt -30.874689 1.445998
vt 103.806503 1.808102
vt 111.989601 1.445998
vt 111.989601 1.808102
vt 0.439238 1.852482
vt 0.439238 1.901746
vt 10.925800 1.445998
vt 10.925800 1.808102
vt 1.483288 1.445998
vt 1.483288 1.808102
vt 0.439238 1.901746
vt 0.439238 1.852482
vt -39.057812 1.445998
vt -39.057812 1.808102
vt -7.406326 1.445998
vt -0.354325 1.445998
vt -0.354325 1.808102
vt -7.406326 1.808102
vt 0.439238 1.852482
vt 0.439238 1.901746
vt 0.439238 1.901746
vt 0.439238 1.852482
vt 7.317342 1.445998
vt 7.573063 1.808102
vt 7.573064 1.445998
vt 7.317341 1.808102
vt 102.061203 1.445998
vt 106.201202 1.445998
vt 106.201202 1.808102
vt 102.061203 1.808102
vt -133.517502 1.445998
vt -20.685499 1.808102
vt -20.685499 1.445998
vt -133.517502 1.808102
vt -133.517502 1.445998
vt -20.685499 1.445998
vt -20.685499 1.808102
vt -133.517502 1.808102
vt 102.061203 1.445998
vt 106.201202 1.808102
vt 106.201202 1.445998
vt 102.061203 1.808102
vn -0.2071 -0.9783 0.0000
vn -0.2038 -0.9790 -0.0000
vn -0.2069 -0.9784 0.0000
vn -0.9791 0.2034 0.0000
vn -0.2070 -0.9783 0.0000
vn -0.2034 -0.9791 0.0000
vn -0.9791 0.2033 0.0000
vn 0.9791 -0.2034 0.0000
vn -0.2068 -0.9784 0.0000
vn 0.2034 0.9791 0.0000
vn 0.2033 0.9791 -0.0000
vn 0.1997 0.9799 0.0000
vn 0.1994 0.9799 0.0000
vn 0.2031 0.9792 0.0000
vn 0.2006 0.9797 -0.0000
vn 0.1995 0.9799 0.0000
vn 0.9791 -0.2035 0.0000
vn -0.2074 -0.9783 0.0000
vn 0.2105 0.9776 0.0000
vn -0.1962 -0.9806 0.0000
vn 0.2000 0.9798 -0.0000
vn -0.2037 -0.9790 -0.0000
vn 0.1996 0.9799 0.0000
usemtl GitterMat.001
s 1
f 1/1/1 3/2/2 2/3/3
f 1/1/1 2/3/3 4/4/1
f 5/5/4 7/6/4 6/7/4
f 5/5/4 6/7/4 8/8/4
f 9/9/4 10/10/4 7/11/4
f 9/9/4 7/11/4 5/12/4
f 10/10/5 11/13/1 7/11/5
f 10/10/5 12/14/5 11/13/1
f 13/15/6 11/13/1 12/14/5
f 14/16/6 11/13/1 13/15/6
f 15/17/7 1/1/7 4/4/7
f 15/17/7 4/4/7 16/18/7
f 17/19/6 2/20/3 3/21/2
f 18/22/6 2/20/3 17/19/6
f 19/23/8 21/24/8 20/25/8
f 21/24/8 19/23/8 22/26/8
f 23/27/8 20/28/8 24/29/8
f 20/28/8 23/27/8 19/30/8
f 25/31/8 27/32/8 26/33/8
f 27/32/8 25/31/8 28/34/8
f 7/6/5 11/35/1 29/36/9
f 7/6/5 29/36/9 6/7/5
f 14/37/6 29/38/9 11/39/1
f 30/40/6 29/38/9 14/37/6
f 31/41/6 25/31/6 26/33/6
f 31/41/6 26/33/6 32/42/6
f 33/43/6 24/29/6 20/28/6
f 33/43/6 20/28/6 34/44/6
f 34/45/6 20/25/6 21/24/6
f 34/45/6 21/24/6 35/46/6
f 36/47/10 37/48/10 19/23/10
f 19/23/10 37/48/10 22/26/10
f 36/49/10 23/27/10 38/50/10
f 23/27/10 36/49/10 19/30/10
f 39/51/10 40/52/10 28/34/10
f 28/34/10 40/52/10 27/32/10
f 41/53/10 43/54/11 42/55/12
f 41/53/10 42/55/12 44/56/10
f 45/57/10 43/58/11 41/59/10
f 45/57/10 46/60/10 43/58/11
f 47/61/13 43/58/11 46/60/10
f 43/58/11 47/61/13 48/62/13
f 49/63/10 51/64/14 50/65/15
f 49/63/10 50/65/15 52/66/10
f 53/67/8 48/62/8 47/61/8
f 48/62/8 53/67/8 54/68/8
f 55/69/16 50/70/15 51/71/14
f 50/70/16 55/69/16 56/72/16
f 48/73/13 42/74/12 43/75/11
f 42/74/12 48/73/13 57/76/13
f 54/77/8 57/76/8 48/73/8
f 57/76/8 54/77/8 58/78/8
f 59/79/17 56/72/17 55/69/17
f 56/72/17 59/79/17 60/80/17
f 61/81/6 63/82/1 62/83/6
f 64/84/6 63/82/1 61/81/6
f 61/85/6 62/86/6 65/87/6
f 65/87/6 62/86/6 66/88/6
f 53/67/18 66/88/6 62/86/6
f 53/67/18 62/86/6 54/68/18
f 54/89/18 62/90/6 63/91/1
f 54/89/18 63/91/1 58/92/18
f 67/93/4 69/94/4 68/95/4
f 67/93/4 68/95/4 70/96/4
f 71/97/4 72/98/4 69/99/4
f 71/97/4 69/99/4 67/100/4
f 73/101/4 75/102/4 74/103/4
f 75/102/4 73/101/4 76/104/4
f 77/105/19 76/104/19 73/101/19
f 76/104/19 77/105/19 78/106/19
f 79/107/19 69/99/19 72/98/19
f 69/99/19 79/107/19 80/108/19
f 80/109/19 68/95/19 69/94/19
f 68/95/19 80/109/19 81/110/19
f 82/111/20 67/93/20 83/112/20
f 67/93/20 70/96/20 83/112/20
f 67/100/20 82/113/20 71/97/20
f 84/114/20 71/97/20 82/113/20
f 85/115/20 74/103/20 86/116/20
f 74/103/20 75/102/20 86/116/20
f 87/117/10 89/118/10 88/119/21
f 87/117/10 88/119/21 90/120/10
f 91/121/10 89/122/10 87/123/10
f 91/121/10 92/124/10 89/122/10
f 9/9/12 89/122/10 92/124/10
f 89/122/10 9/9/12 5/12/12
f 5/125/12 88/126/21 89/127/10
f 88/126/21 5/125/12 8/128/12
f 93/129/1 95/130/22 94/131/3
f 93/129/1 94/131/3 96/132/1
f 97/133/6 94/134/3 95/135/22
f 98/136/6 94/134/3 97/133/6
f 99/137/10 101/138/14 100/139/12
f 99/137/10 100/139/12 102/140/10
f 103/141/23 100/142/12 101/143/14
f 100/142/12 103/141/23 104/144/23
