# Blender v3.1.2 OBJ File: 'track.blend'
# www.blender.org
mtllib TrackLimits.017.mtl
o TrackLimits.017_Scene.414
v -33870.261719 15836.970703 -1000.523010
v -33870.136719 15838.380859 -1000.523010
v -33339.089844 15790.089844 -1000.523010
v -33338.972656 15791.499023 -1000.523010
v -33176.332031 15775.720703 -1000.523010
v -33176.207031 15777.129883 -1000.523010
v -32634.781250 15727.929688 -1000.523010
v -32634.658203 15729.339844 -1000.523010
v -33870.261719 15836.970703 -1184.328003
v -33339.089844 15790.089844 -1184.328979
v -33176.332031 15775.720703 -1184.328979
v -32634.781250 15727.929688 -1184.328979
v -32401.748047 15707.359375 -1000.523010
v -32401.628906 15708.770508 -1000.523010
v -32634.658203 15729.339844 -1184.328979
v -32401.748047 15707.359375 -1184.328979
v -32401.628906 15708.770508 -1184.328979
v -33176.207031 15777.129883 -1184.328979
v -33870.136719 15838.380859 -1184.328003
v -33338.972656 15791.499023 -1184.328979
v -34113.667969 15858.450195 -1184.328003
v -34113.550781 15859.860352 -1184.328003
v -34113.667969 15858.450195 -1000.523010
v -34113.550781 15859.860352 -1000.523010
v -33182.378906 15667.740234 -1000.523010
v -32651.208984 15620.860352 -1000.523010
v -32651.330078 15619.450195 -1000.523010
v -33182.500000 15666.330078 -1000.523010
v -33345.136719 15682.110352 -1000.523010
v -33345.261719 15680.701172 -1000.523010
v -33886.691406 15729.899414 -1000.523010
v -33886.808594 15728.500000 -1000.523010
v -32651.208984 15620.860352 -1184.328003
v -33182.378906 15667.740234 -1184.328979
v -33345.136719 15682.110352 -1184.328979
v -33886.691406 15729.899414 -1184.328979
v -34119.718750 15750.469727 -1000.523010
v -34119.839844 15749.060547 -1000.523010
v -33886.808594 15728.500000 -1184.328979
v -34119.718750 15750.469727 -1184.328979
v -34119.839844 15749.060547 -1184.328979
v -33345.261719 15680.701172 -1184.328979
v -32651.330078 15619.450195 -1184.328003
v -33182.500000 15666.330078 -1184.328979
v -32407.791016 15599.380859 -1184.328003
v -32407.919922 15597.970703 -1184.328003
v -32407.791016 15599.380859 -1000.523010
v -32407.919922 15597.970703 -1000.523010
vt 0.064886 1.807127
vt 0.079729 1.807127
vt 0.064886 1.807097
vt 0.079729 1.807097
vt 0.084277 1.807127
vt 0.084277 1.807097
vt 0.099410 1.807126
vt 0.099410 1.807097
vt 0.064886 1.805722
vt 0.079729 1.803442
vt 0.064886 1.803442
vt 0.079729 1.805722
vt 0.084277 1.805722
vt 0.084277 1.803442
vt 0.099410 1.803442
vt 0.099410 1.805722
vt 0.048191 1.807126
vt 0.048191 1.807127
vt 0.048191 1.807097
vt 0.048191 1.807097
vt 0.048191 1.807097
vt 0.048191 1.807127
vt 0.048191 1.807126
vt 0.048191 1.807097
vt -0.000214 1.756392
vt 0.123134 1.756392
vt -0.000214 1.803231
vt 0.123134 1.803231
vt 0.027519 1.807097
vt 0.042362 1.807127
vt 0.027519 1.807127
vt 0.042362 1.807097
vt 0.046910 1.807127
vt 0.046911 1.807097
vt 0.062044 1.807126
vt 0.062044 1.807097
vt 0.062856 1.805722
vt 0.062856 1.803442
vt 0.062826 1.805722
vt 0.062826 1.803442
vt 0.062826 1.809873
vt 0.062826 1.807593
vt 0.062856 1.809873
vt 0.062856 1.807593
vt 0.048191 1.807097
vt 0.048191 1.807127
vt 0.048191 1.807097
vt 0.048191 1.807127
vt 0.048191 1.807127
vt 0.048191 1.807097
vt 0.048191 1.807097
vt 0.048191 1.807127
vt 0.048191 1.805722
vt 0.048191 1.805722
vt 0.048191 1.803442
vt 0.048191 1.803442
vt 0.048191 1.805722
vt 0.048191 1.803442
vt 0.048191 1.805722
vt 0.048191 1.803442
vt 0.048191 1.803231
vt 0.048191 1.756392
vt 0.048191 1.803231
vt 0.048191 1.756392
vt 0.048191 1.803231
vt 0.048191 1.803231
vt 0.048191 1.756392
vt 0.048191 1.756392
vt 0.047198 1.803231
vt 0.047198 1.756392
vt 0.047198 1.803231
vt 0.047198 1.756392
vt 0.001819 1.756392
vt 0.122802 1.756392
vt 0.001819 1.803231
vt 0.122802 1.803231
vt 0.079729 1.807127
vt 0.064886 1.807097
vt 0.064886 1.807127
vt 0.079729 1.807097
vt 0.084277 1.807127
vt 0.084277 1.807097
vt 0.099410 1.807126
vt 0.099410 1.807097
vt 0.064886 1.805722
vt 0.079729 1.803442
vt 0.064886 1.803442
vt 0.079729 1.805722
vt 0.084277 1.805722
vt 0.084277 1.803442
vt 0.099410 1.803442
vt 0.099410 1.805722
vt 0.048191 1.807127
vt 0.048191 1.807097
vt 0.048191 1.807126
vt 0.048191 1.807097
vt 0.048191 1.807097
vt 0.048191 1.807127
vt 0.048191 1.807126
vt 0.048191 1.807097
vt -0.000214 1.756392
vt 0.123134 1.756392
vt -0.000214 1.803231
vt 0.123134 1.803231
vt 0.027519 1.807097
vt 0.042362 1.807127
vt 0.027519 1.807127
vt 0.042362 1.807097
vt 0.046910 1.807127
vt 0.046911 1.807097
vt 0.062044 1.807126
vt 0.062044 1.807097
vt 0.062856 1.805722
vt 0.062856 1.803442
vt 0.062826 1.805722
vt 0.062826 1.803442
vt 0.062826 1.809873
vt 0.062826 1.807593
vt 0.062856 1.809873
vt 0.062856 1.807593
vt 0.048191 1.807097
vt 0.048191 1.807097
vt 0.048191 1.807127
vt 0.048191 1.807127
vt 0.048191 1.807127
vt 0.048191 1.807097
vt 0.048191 1.807097
vt 0.048191 1.807127
vt 0.048191 1.805722
vt 0.048191 1.805722
vt 0.048191 1.803442
vt 0.048191 1.803442
vt 0.048191 1.805722
vt 0.048191 1.803442
vt 0.048191 1.805722
vt 0.048191 1.803442
vt 0.048191 1.803231
vt 0.048191 1.756392
vt 0.048191 1.803231
vt 0.048191 1.756392
vt 0.048191 1.803231
vt 0.048191 1.803231
vt 0.048191 1.756392
vt 0.048191 1.756392
vt 0.047198 1.803231
vt 0.047198 1.756392
vt 0.047198 1.803231
vt 0.047198 1.756392
vt 0.001819 1.756392
vt 0.122802 1.756392
vt 0.001819 1.803231
vt 0.122802 1.803231
vn 0.0000 0.0000 1.0000
vn -0.0879 -0.9961 0.0000
vn 0.0000 0.0000 -1.0000
vn 0.0879 0.9961 0.0000
vn -0.9959 0.0903 -0.0000
vn -0.9963 0.0864 0.0000
vn -0.9963 0.0863 -0.0000
vn 0.9964 -0.0851 -0.0000
vn 0.9961 -0.0887 0.0000
vn 0.9964 -0.0852 0.0000
vn 0.9961 -0.0888 -0.0000
vn 0.9963 -0.0860 0.0000
vn 0.9960 -0.0897 -0.0000
vn 0.9960 -0.0898 0.0000
vn -0.9965 0.0837 -0.0000
vn -0.9959 0.0910 0.0000
vn -0.9965 0.0838 0.0000
usemtl EnvironmentMat.007
s 1
f 1/1/1 3/2/1 2/3/1
f 4/4/1 2/3/1 3/2/1
f 5/5/1 4/4/1 3/2/1
f 4/4/1 5/5/1 6/6/1
f 5/5/1 7/7/1 6/6/1
f 8/8/1 6/6/1 7/7/1
f 9/9/2 3/10/2 1/11/2
f 9/9/2 10/12/2 3/10/2
f 10/12/2 11/13/2 3/10/2
f 11/13/2 5/14/2 3/10/2
f 11/13/2 7/15/2 5/14/2
f 11/13/2 12/16/2 7/15/2
f 7/17/1 13/18/1 8/19/1
f 14/20/1 8/19/1 13/18/1
f 15/21/3 16/22/3 12/23/3
f 16/22/3 15/21/3 17/24/3
f 6/25/4 8/26/4 18/27/4
f 15/28/4 18/27/4 8/26/4
f 19/29/3 10/30/3 9/31/3
f 10/30/3 19/29/3 20/32/3
f 20/32/3 11/33/3 10/30/3
f 11/33/3 20/32/3 18/34/3
f 18/34/3 12/35/3 11/33/3
f 12/35/3 18/34/3 15/36/3
f 21/37/5 23/38/6 22/39/5
f 22/39/5 23/38/6 24/40/7
f 17/41/8 14/42/9 16/43/10
f 16/43/10 14/42/9 13/44/11
f 24/45/1 1/46/1 2/47/1
f 1/46/1 24/45/1 23/48/1
f 9/49/3 22/50/3 19/51/3
f 22/50/3 9/49/3 21/52/3
f 21/53/2 9/54/2 23/55/2
f 9/54/2 1/56/2 23/55/2
f 16/57/2 7/58/2 12/59/2
f 7/58/2 16/57/2 13/60/2
f 22/61/4 2/62/4 19/63/4
f 2/62/4 22/61/4 24/64/4
f 17/65/4 15/66/4 14/67/4
f 15/66/4 8/68/4 14/67/4
f 20/69/4 6/70/4 18/71/4
f 6/70/4 20/69/4 4/72/4
f 2/73/4 4/74/4 19/75/4
f 20/76/4 19/75/4 4/74/4
f 25/77/1 27/78/1 26/79/1
f 27/78/1 25/77/1 28/80/1
f 25/77/1 29/81/1 28/80/1
f 30/82/1 28/80/1 29/81/1
f 31/83/1 30/82/1 29/81/1
f 30/82/1 31/83/1 32/84/1
f 33/85/4 25/86/4 26/87/4
f 33/85/4 34/88/4 25/86/4
f 34/88/4 35/89/4 25/86/4
f 35/89/4 29/90/4 25/86/4
f 35/89/4 31/91/4 29/90/4
f 35/89/4 36/92/4 31/91/4
f 37/93/1 32/94/1 31/95/1
f 32/94/1 37/93/1 38/96/1
f 39/97/3 40/98/3 36/99/3
f 40/98/3 39/97/3 41/100/3
f 30/101/2 32/102/2 42/103/2
f 39/104/2 42/103/2 32/102/2
f 43/105/3 34/106/3 33/107/3
f 34/106/3 43/105/3 44/108/3
f 44/108/3 35/109/3 34/106/3
f 35/109/3 44/108/3 42/110/3
f 42/110/3 36/111/3 35/109/3
f 36/111/3 42/110/3 39/112/3
f 45/113/12 47/114/13 46/115/12
f 46/115/12 47/114/13 48/116/14
f 41/117/15 38/118/16 40/119/17
f 40/119/17 38/118/16 37/120/16
f 27/121/1 48/122/1 26/123/1
f 47/124/1 26/123/1 48/122/1
f 33/125/3 46/126/3 43/127/3
f 46/126/3 33/125/3 45/128/3
f 45/129/4 33/130/4 47/131/4
f 33/130/4 26/132/4 47/131/4
f 40/133/4 31/134/4 36/135/4
f 31/134/4 40/133/4 37/136/4
f 46/137/2 27/138/2 43/139/2
f 27/138/2 46/137/2 48/140/2
f 41/141/2 39/142/2 38/143/2
f 39/142/2 32/144/2 38/143/2
f 44/145/2 30/146/2 42/147/2
f 30/146/2 44/145/2 28/148/2
f 27/149/2 28/150/2 43/151/2
f 44/152/2 43/151/2 28/150/2
